<svg height="16" width="16" xmlns="http://www.w3.org/2000/svg">
  <g fill="#808080" transform="translate(-1013.0002 87.000044)">
    <path d="m1021.0002-74v-2h5v2z"/>
    <path d="m1019.0002-74.6621c.01.8388-.015 1.4513.2617 1.9531.1385.2509.3736.4508.666.5606.2925.1097.6398.1487 1.0782.1484h4.9941c.4384-.0003.7857-.039 1.0781-.1484.2925-.1098.5256-.3097.6641-.5606.2769-.5018.2481-1.1143.2578-1.9531v-8.7031c-.01-.8388.019-1.4533-.2578-1.9551-.1385-.2509-.3716-.4488-.6641-.5586-.2924-.1097-.6397-.1184-1.0781-.1172h-1v-1h-3v1h-.9941c-.4384 0-.7857.01-1.0782.1172-.2924.1098-.5275.3077-.666.5586-.2769.5018-.252 1.1163-.2617 1.9551zm1-.014v-8.6914c.01-.8528.039-1.2977.1367-1.4746.016-.029.057-.073.1426-.1055.061-.023.2988-.053.7266-.053h4.9941c.4274-.0003.6642.029.7266.053.086.032.1248.077.1406.1055.095.1724.1223.6176.1328 1.4746v8.6934.012c-.01.8543-.038 1.2983-.1328 1.4707-.016.029-.055.073-.1406.1054-.1229.046-.3484.086-.7266.086h-4.9941c-.3782.0003-.6039-.04-.7266-.086-.086-.032-.1268-.077-.1426-.1054-.098-.1779-.1264-.6201-.1367-1.4844z"/>
    <path d="m1015.0002-73 2.4996-5.9995-1.4996-.0005-.0004-4.9995-2.4996 5.9995h1.5z"/>
  </g>
</svg>
