<svg height="16" width="16" xmlns="http://www.w3.org/2000/svg">
  <g fill="#808080">
    <path d="m5.09375.54492188a2.3662548 2.3662548 0 0 0 -.9316406.18359374c-.28745.11747956-.5433964.28925748-.7558594.51171878v.00391.00195c-.2066307.224127-.3668684.4922142-.4785156.7988275-.1141468.3057801-.1699219.6408958-.1699219 1 0 .3624369.054942.7011992.1699219 1.0078125.1124804.300781.2727181.5660548.4785156.7910156v.00195c.2116298.2224613.4661695.3970526.7519531.5195313v.00195c.2882832.1174796.6008649.1757813.9316407.1757813.3291093 0 .6425242-.058302.9316406-.1757813v-.00195c.1647554-.0706064.3133865-.1628723.453125-.2675751-.0762241-.2601742-.1230469-.5353678-.1230469-.8320312 0-.3591042.055775-.6942199.1699219-1 .1116472-.3066133.2718849-.5766536.4785156-.8007812v-.00195-.00195c.0924068-.0967617.197027-.1784348.3046875-.2558657-.0158151-.0525178-.0238054-.1091929-.0429687-.1601562a2.3087648 2.3087648 0 0 0 -.4863282-.8007813 2.0829708 2.0829708 0 0 0 -.7480468-.51562498 2.3620889 2.3620889 0 0 0 -.9316407-.18359374zm.021484 6.66601562c-1.9304974 0-2.9675821.1790334-3.7382813.7597656-.38493258.2916159-.63794118.6857313-.78124958 1.1464844-.14330839.4607531-.18973987.8133878-.19140624 1.4257815l3.73632812.002c.0179292-.068749.0242687-.134397.046875-.207078.1433084-.4607535.3982701-.856822.7832031-1.1484379.7706992-.5807322 1.8077839-.7578125 3.7382813-.7578125.211463 0 .3724319.01103.5625.015625-.1253018-.1786688-.2757485-.3399152-.4570313-.4765625-.7690328-.5807322-1.7695546-.7597656-3.6992191-.7597656z" stroke-width=".833188" transform="matrix(1.07473675719 0 0 1.07473675719 -.09801249179 .63699707762)"/>
    <path d="m8 2a2.84 2.84 0 0 0 -1.12.221c-.345.141-.651.348-.906.615v.003l-.001.002c-.248.269-.44.592-.574.96-.137.367-.203.769-.203 1.2 0 .435.065.841.203 1.209.135.361.327.68.574.95l.001.002c.254.267.558.477.901.624v.003c.346.141.723.21 1.12.21.395 0 .77-.069 1.117-.21v-.002c.343-.147.644-.357.892-.625.255-.268.45-.59.586-.952.138-.368.204-.774.204-1.21h.01c0-.43-.065-.831-.203-1.198a2.771 2.771 0 0 0 -.585-.963 2.5 2.5 0 0 0 -.897-.618 2.835 2.835 0 0 0 -1.12-.221zm.024 8.002c-2.317 0-3.561.213-4.486.91-.462.35-.767.825-.939 1.378s-.226.975-.228 1.71l5.629.002h5.629c-.001-.736-.052-1.159-.225-1.712-.172-.553-.477-1.027-.94-1.376-.923-.697-2.124-.912-4.44-.912z" transform="matrix(.89545808 0 0 .89545808 3.132302 1.362101)"/>
  </g>
</svg>
