<svg viewBox="0 0 16 16" xmlns="http://www.w3.org/2000/svg">
  <g fill="#808080">
    <path d="m2 5c0-1.7059237.3619401-2 2-2h11v-1l-11.9986955-.0013c-1.0013045-.0001085-2.0013045 1.0013-2.0013045 2.0013045v8.9999955h-1v1h9v-1h-7z"/>
    <path d="m614.3983 306.64926c-.25774 0-.46794.032-.64674.115-.17243.0806-.31305.22137-.39804.3985-.16168.34-.14409.7365-.14409 1.2365v4.5c0 .5-.0176.898.14409 1.2375.0809.17.21971.314.39851.3975.17833.083.38853.115.64627.115h2.37774c.25775 0 .46794-.032.64675-.115.17833-.0835.31766-.228.39803-.3975.16169-.34.14409-.7375.14409-1.2375v-4.5c0-.5.0176-.897-.14409-1.2365-.0852-.17703-.22599-.31764-.39851-.398-.17833-.0835-.38852-.1155-.64627-.1155zm-.20861 1h2.82405v5.5702l-2.80805.0146z" transform="translate(-602.01374 -300.64926)"/>
  </g>
</svg>
