<svg height="16" width="16" xmlns="http://www.w3.org/2000/svg">
  <path d="m5.5 0c-.542 0-.984.064-1.36.23a1.72 1.72 0 0 0 -.837.797c-.34.68-.303 1.473-.303 2.473v9c0 1-.037 1.796.303 2.475.17.34.462.628.838.795.375.166.817.23 1.359.23h5c.542 0 .984-.064 1.36-.23.375-.167.668-.456.837-.795.34-.68.303-1.475.303-2.475v-9c0-1 .037-1.794-.303-2.473a1.72 1.72 0 0 0 -.838-.796c-.375-.167-.817-.231-1.359-.231zm-1.43 2h7.86c.05.373.07.87.07 1.5v9c0 .63-.02 1.126-.07 1.5h-7.86c-.05-.374-.07-.87-.07-1.5v-9c0-.63.02-1.127.07-1.5z" fill="#808080"/>
  <rect fill="#0084ff" fill-opacity=".990868" height="15" rx="7.5" transform="matrix(0 -.53333333 -.53333333 0 7.233333 3.233333)" width="15" x="-15.5" y="-15.5"/>
  <path d="m11.521482 4.6474608-.605469.6015625.177734.1777344c1.148482 1.1465641 1.148482 2.9999203 0 4.1464844l-.177734.1777343.605469.6015626.175781-.175781c.7102-.7090035 1.108607-1.6723068 1.107422-2.6757816.0017-1.0041779-.39676-1.9682707-1.107422-2.6777343zm-.722657.6992188-.603515.6035156.177734.1757812c.761772.7598818.761772 1.986212 0 2.7460938l-.177734.1777344.603515.6035156.175782-.1757812c.524302-.5235817.819223-1.2356483.818359-1.9765626 0-.7150993-.273825-1.4339802-.818359-1.9785156z" fill="#fff" fill-opacity=".992157"/>
</svg>
