<?xml version="1.0" encoding="UTF-8" standalone="no"?>
<!-- Created with Inkscape (http://www.inkscape.org/) -->

<svg
   xmlns:dc="http://purl.org/dc/elements/1.1/"
   xmlns:cc="http://creativecommons.org/ns#"
   xmlns:rdf="http://www.w3.org/1999/02/22-rdf-syntax-ns#"
   xmlns:svg="http://www.w3.org/2000/svg"
   xmlns="http://www.w3.org/2000/svg"
   xmlns:xlink="http://www.w3.org/1999/xlink"
   xmlns:sodipodi="http://sodipodi.sourceforge.net/DTD/sodipodi-0.dtd"
   xmlns:inkscape="http://www.inkscape.org/namespaces/inkscape"
   width="256"
   height="256"
   viewBox="0 0 67.733332 67.733335"
   version="1.1"
   id="svg1037"
   inkscape:version="0.92.3 (2405546, 2018-03-11)"
   sodipodi:docname="3.svg">
  <defs
     id="defs1031">
    <radialGradient
       r="12.671875"
       fy="16.231987"
       fx="18.1481"
       cy="16.231987"
       cx="18.1481"
       gradientTransform="matrix(0,7.4320308,-9.3447343,0,184.79808,78.858037)"
       gradientUnits="userSpaceOnUse"
       id="radialGradient3417"
       xlink:href="#linearGradient2867-449-88-871-390-598-476-591-434-148-57-177-8-3-3" />
    <linearGradient
       id="linearGradient2867-449-88-871-390-598-476-591-434-148-57-177-8-3-3">
      <stop
         offset="0"
         style="stop-color:#ffcd7d;stop-opacity:1"
         id="stop3750-1-0-7" />
      <stop
         offset="0.26238"
         style="stop-color:#fc8f36;stop-opacity:1"
         id="stop3752-3-7-4" />
      <stop
         offset="0.704952"
         style="stop-color:#e23a0e;stop-opacity:1"
         id="stop3754-1-8-5" />
      <stop
         offset="1"
         style="stop-color:#ac441f;stop-opacity:1"
         id="stop3756-1-6-2" />
    </linearGradient>
    <linearGradient
       inkscape:collect="always"
       xlink:href="#linearGradient4290"
       id="linearGradient934"
       x1="592"
       y1="204"
       x2="592"
       y2="-4"
       gradientUnits="userSpaceOnUse"
       gradientTransform="matrix(0.20010221,0,0,0.20010221,-85.852898,238.34909)" />
    <linearGradient
       inkscape:collect="always"
       id="linearGradient4290">
      <stop
         style="stop-color:#e72662;stop-opacity:1"
         offset="0"
         id="stop4292" />
      <stop
         id="stop4272"
         offset="0.48271722"
         style="stop-color:#ec3c50;stop-opacity:1" />
      <stop
         style="stop-color:#ff7b66;stop-opacity:1"
         offset="1"
         id="stop4294" />
    </linearGradient>
    <linearGradient
       gradientUnits="userSpaceOnUse"
       y2="189.71555"
       x2="529.65515"
       y1="401.58368"
       x1="-35.310345"
       id="linearGradient4226"
       xlink:href="#linearGradient4338"
       inkscape:collect="always"
       gradientTransform="matrix(0,0.11988932,0.11988589,0,0.36278065,233.28164)" />
    <linearGradient
       inkscape:collect="always"
       id="linearGradient4338">
      <stop
         style="stop-color:#f2f2f2;stop-opacity:1"
         offset="0"
         id="stop4340" />
      <stop
         style="stop-color:#f9f9f9;stop-opacity:1"
         offset="1"
         id="stop4342" />
    </linearGradient>
    <linearGradient
       inkscape:collect="always"
       xlink:href="#linearGradient4360"
       id="linearGradient4358"
       x1="88"
       y1="88"
       x2="488"
       y2="488"
       gradientUnits="userSpaceOnUse" />
    <linearGradient
       id="linearGradient4360"
       inkscape:collect="always">
      <stop
         id="stop4362"
         offset="0"
         style="stop-color:#000000;stop-opacity:0.58823532" />
      <stop
         style="stop-color:#000000;stop-opacity:0"
         offset="0.88"
         id="stop4364" />
      <stop
         id="stop4366"
         offset="1"
         style="stop-color:#000000;stop-opacity:1" />
    </linearGradient>
    <filter
       inkscape:collect="always"
       style="color-interpolation-filters:sRGB"
       id="filter4380"
       x="-0.052999184"
       width="1.1059984"
       y="-0.043862626"
       height="1.0877253">
      <feGaussianBlur
         inkscape:collect="always"
         stdDeviation="8.4801079"
         id="feGaussianBlur4382" />
    </filter>
    <filter
       inkscape:collect="always"
       style="color-interpolation-filters:sRGB"
       id="filter4346"
       x="-0.013249796"
       width="1.0264996"
       y="-0.010965657"
       height="1.0219313">
      <feGaussianBlur
         inkscape:collect="always"
         stdDeviation="2.120027"
         id="feGaussianBlur4348" />
    </filter>
  </defs>
  <sodipodi:namedview
     id="base"
     pagecolor="#ffffff"
     bordercolor="#666666"
     borderopacity="1.0"
     inkscape:pageopacity="0.0"
     inkscape:pageshadow="2"
     inkscape:zoom="3.4065192"
     inkscape:cx="74.931311"
     inkscape:cy="127.82523"
     inkscape:document-units="px"
     inkscape:current-layer="g1495"
     showgrid="true"
     units="px"
     inkscape:window-width="1920"
     inkscape:window-height="1009"
     inkscape:window-x="0"
     inkscape:window-y="34"
     inkscape:window-maximized="1">
    <inkscape:grid
       type="xygrid"
       id="grid1672" />
  </sodipodi:namedview>
  <metadata
     id="metadata1034">
    <rdf:RDF>
      <cc:Work
         rdf:about="">
        <dc:format>image/svg+xml</dc:format>
        <dc:type
           rdf:resource="http://purl.org/dc/dcmitype/StillImage" />
        <dc:title></dc:title>
      </cc:Work>
    </rdf:RDF>
  </metadata>
  <g
     inkscape:label="Livello 1"
     inkscape:groupmode="layer"
     id="layer1"
     transform="translate(0,-229.26665)">
    <g
       id="g1495">
      <path
         sodipodi:nodetypes="scccssscsss"
         inkscape:connector-curvature="0"
         id="path1163"
         d="m 20.705011,233.28164 c -9.338925,0 -10.343783,0.95922 -10.298012,10.31704 v 19.31629 19.3163 c -0.04577,9.35781 0.959087,10.31704 10.298012,10.31704 h 25.970643 c 9.338924,0 10.298012,-0.95912 10.298012,-10.31704 v -19.3163 -19.31629 c 0,-9.35793 -0.959088,-10.31704 -10.298012,-10.31704 z"
         style="color:#000000;display:inline;overflow:visible;visibility:visible;opacity:0.2;fill:none;fill-opacity:1;fill-rule:nonzero;stroke:#000000;stroke-width:1.05833328;stroke-miterlimit:4;stroke-dasharray:none;stroke-opacity:1;marker:none;enable-background:accumulate" />
      <path
         style="color:#000000;display:inline;overflow:visible;visibility:visible;opacity:0.1;fill:#000000;fill-opacity:1;fill-rule:nonzero;stroke:none;stroke-width:2;marker:none;filter:url(#filter4346);enable-background:accumulate"
         d="M 189.84323,74 C 119.24979,74 111.65402,81.250835 112,151.98706 V 298 444.01294 C 111.65402,514.74917 119.24979,522 189.84323,522 H 386.15677 C 456.75021,522 462.16345,514.72616 464,444.01294 V 298 151.98706 C 464,81.249993 456.75021,74 386.15677,74 Z"
         id="rect4158-9"
         inkscape:connector-curvature="0"
         sodipodi:nodetypes="scccssscsss"
         transform="matrix(0.13229167,0,0,0.13229167,-4.4096684,223.75664)" />
      <path
         sodipodi:nodetypes="scccssscsss"
         inkscape:connector-curvature="0"
         id="path4350"
         d="M 189.84323,74 C 119.24979,74 111.65402,81.250835 112,151.98706 V 298 444.01294 C 111.65402,514.74917 119.24979,522 189.84323,522 H 386.15677 C 456.75021,522 464,514.75001 464,444.01294 V 298 151.98706 C 464,81.249993 456.75021,74 386.15677,74 Z"
         style="color:#000000;display:inline;overflow:visible;visibility:visible;opacity:0.3;fill:url(#linearGradient4358);fill-opacity:1;fill-rule:nonzero;stroke:none;stroke-width:2;marker:none;filter:url(#filter4380);enable-background:accumulate"
         transform="matrix(0.13229167,0,0,0.13229167,-4.4096684,223.75664)" />
      <path
         style="color:#000000;display:inline;overflow:visible;visibility:visible;fill:url(#linearGradient4226);fill-opacity:1;fill-rule:nonzero;stroke:none;stroke-width:0.26458332;marker:none;enable-background:accumulate"
         d="m 20.705011,292.54831 c -9.338925,0 -10.343783,-0.95923 -10.298012,-10.31704 v -19.3163 -19.31629 c -0.04577,-9.35782 0.959087,-10.31704 10.298012,-10.31704 h 25.970643 c 9.338924,0 10.298012,0.95911 10.298012,10.31704 v 19.31629 19.3163 c 0,9.35792 -0.959088,10.31704 -10.298012,10.31704 z"
         id="rect4158"
         inkscape:connector-curvature="0"
         sodipodi:nodetypes="scccssscsss" />
      <path
         style="color:#000000;display:inline;overflow:visible;visibility:visible;opacity:0.6;fill:#ffffff;fill-opacity:1;fill-rule:nonzero;stroke:none;stroke-width:0.26458332;marker:none;enable-background:accumulate"
         d="m 20.705079,233.28164 c -9.338926,0 -10.343851,0.95939 -10.29808,10.3172 v 0.52916 c -0.04577,-9.35781 0.959154,-10.3172 10.29808,-10.3172 h 25.970506 c 9.338927,0 10.298081,0.95928 10.298081,10.3172 v -0.52916 c 0,-9.35793 -0.959154,-10.3172 -10.298081,-10.3172 z"
         id="path931"
         inkscape:connector-curvature="0" />
      <path
         style="font-style:normal;font-variant:normal;font-weight:normal;font-stretch:normal;font-size:15px;line-height:125%;font-family:Ubuntu;-inkscape-font-specification:Ubuntu;text-align:center;letter-spacing:0px;word-spacing:0px;writing-mode:lr-tb;text-anchor:middle;display:inline;opacity:0.8;fill:url(#linearGradient934);fill-opacity:1;stroke:none;stroke-width:0.44124922;enable-background:new"
         d="m 42.881614,243.86519 c -0.375907,-0.004 -0.875679,0.0544 -1.540632,0.15437 l -11.06464,1.69188 c -2.671424,0.56885 -2.662254,0.74579 -2.671286,3.00271 v 4.41944 2.22419 11.66885 c -0.111417,-0.078 -0.221311,-0.15652 -0.3365,-0.23372 v 8e-4 c -0.848731,-0.56877 -1.753307,-0.97354 -2.968313,-0.97354 -1.521881,0 -2.429462,0.58274 -2.978867,1.35029 -0.549402,0.76756 -0.731623,1.73504 -0.731623,2.48291 0,0.90184 0.307917,1.86434 0.975889,2.59781 0.667975,0.73348 1.694947,1.2471 3.171542,1.24713 1.667412,0 2.84031,-0.4656 3.50335,-1.37492 0.522047,-0.71595 0.810729,-1.67243 0.91375,-2.85225 v -0.002 -10e-4 c 0.01442,-0.14314 0.0249,-0.29016 0.034,-0.44163 0.014,-0.23322 0.01095,-0.66949 0.01095,-0.66949 v -14.02137 c 0,-2.00307 -9.8e-5,-2.12264 2.672067,-2.57944 l 7.868478,-1.23423 c 2.676978,-0.35025 2.677539,-0.10668 2.677539,1.39765 v 1.23735 11.63055 c -0.108424,-0.076 -0.215485,-0.15239 -0.327512,-0.22746 v 7.9e-4 c -0.848731,-0.56876 -1.752912,-0.97354 -2.967921,-0.97354 -1.521889,0 -2.429849,0.58275 -2.979256,1.3503 -0.549402,0.76755 -0.731623,1.73503 -0.731623,2.48291 0,0.90184 0.308305,1.86434 0.976278,2.59781 0.667975,0.73347 1.694936,1.24749 3.171542,1.24751 1.667412,0 2.84031,-0.46599 3.503353,-1.37531 0.522047,-0.71594 0.810337,-1.67203 0.913357,-2.85185 v -0.002 -0.002 c 0.01442,-0.14314 0.0249,-0.28977 0.034,-0.44124 0.014,-0.23321 0.01132,-0.66988 0.01132,-0.66988 V 250.217 246.21652 c 0,-1.75682 -0.01154,-2.33864 -1.139253,-2.3512 z"
         id="path4393"
         inkscape:connector-curvature="0"
         sodipodi:nodetypes="cccccccccccsccccccccsccsccccccssccccccccsc" />
      <path
         style="color:#000000;display:inline;overflow:visible;visibility:visible;opacity:0.1;fill:#ffffff;fill-opacity:1;fill-rule:nonzero;stroke:none;stroke-width:0.26458332;marker:none;enable-background:accumulate"
         d="m 33.690332,233.28164 v 59.26667 h 12.985253 c 9.338924,0 10.055122,-0.96217 10.298081,-10.31695 v -19.31639 -19.31639 c 0,-9.35792 -0.959157,-10.31694 -10.298081,-10.31694 z"
         id="path4231"
         inkscape:connector-curvature="0"
         sodipodi:nodetypes="ccsscssc" />
      <path
         inkscape:connector-curvature="0"
         style="color:#000000;display:inline;overflow:visible;visibility:visible;opacity:0.2;fill:#ffffff;fill-opacity:1;fill-rule:nonzero;stroke:none;stroke-width:0.26458332;marker:none;enable-background:accumulate"
         d="m 10.406999,262.91497 v 19.31639 c -0.04577,9.35782 0.959155,10.31695 10.29808,10.31695 h 25.970506 c 9.338924,0 10.055122,-0.96217 10.298081,-10.31695 v -19.31639 z"
         id="path4255"
         sodipodi:nodetypes="ccssscc" />
      <path
         style="color:#000000;display:inline;overflow:visible;visibility:visible;opacity:0.4;fill:#ffffff;fill-opacity:1;fill-rule:nonzero;stroke:none;stroke-width:2.11666656;stroke-linecap:butt;stroke-linejoin:miter;stroke-miterlimit:4;stroke-dasharray:none;stroke-dashoffset:0;stroke-opacity:1;marker:none;enable-background:accumulate"
         d="m 41.098666,292.54831 15.875,-15.875 v 5.94886 c -0.01384,8.99472 -1.006126,9.92614 -10.100231,9.92614 z"
         id="path4254"
         inkscape:connector-curvature="0"
         sodipodi:nodetypes="cccsc" />
      <g
         aria-label="wma"
         style="font-style:normal;font-weight:normal;font-size:47.18697739px;line-height:1.25;font-family:sans-serif;letter-spacing:0px;word-spacing:0px;display:inline;fill:#000000;fill-opacity:1;stroke:none;stroke-width:1.17967451;enable-background:new"
         id="text920"
         transform="matrix(0.26458333,0,0,0.26458333,-6.5263354,217.27837)">
        <path
           d="m 127.60169,252.09724 q -1.32124,-3.39746 -2.83122,-7.73866 -1.4628,-4.38839 -2.68966,-9.10709 -1.22686,4.7187 -2.68966,9.10709 -1.46279,4.3412 -2.78403,7.73866 h -3.82214 q -2.17061,-4.86025 -4.24683,-11.08894 -2.07623,-6.22868 -3.91652,-13.44828 h 4.7187 q 0.47187,2.21778 1.13248,4.81307 0.66062,2.59528 1.36843,5.19057 0.75499,2.59528 1.55717,5.00181 0.80217,2.40654 1.50998,4.19965 0.80218,-2.21779 1.55717,-4.67151 0.80218,-2.50091 1.50998,-5.00182 0.70781,-2.5481 1.32124,-4.95464 0.66062,-2.45372 1.13249,-4.57713 h 3.63339 q 0.42469,2.12341 1.03812,4.57713 0.61343,2.40654 1.32123,4.95464 0.70781,2.50091 1.4628,5.00182 0.80218,2.45372 1.60436,4.67151 0.7078,-1.79311 1.46279,-4.19965 0.80218,-2.40653 1.55717,-5.00181 0.75499,-2.59529 1.41561,-5.19057 0.66062,-2.59529 1.13249,-4.81307 h 4.52995 q -1.84029,7.2196 -3.91652,13.44828 -2.07623,6.22869 -4.24683,11.08894 z"
           style="font-style:normal;font-variant:normal;font-weight:normal;font-stretch:normal;font-family:ubuntu;-inkscape-font-specification:ubuntu;text-align:center;text-anchor:middle;fill:#888888;fill-opacity:1;stroke-width:1.17967451"
           id="path118"
           inkscape:connector-curvature="0" />
        <path
           d="m 144.22772,228.26782 q 1.50999,-0.3775 3.96371,-0.80218 2.50091,-0.42468 5.75681,-0.42468 2.35935,0 3.96371,0.66062 1.60436,0.61343 2.68966,1.84029 0.3303,-0.23594 1.03811,-0.66062 0.7078,-0.42468 1.74592,-0.80218 1.03811,-0.42468 2.31216,-0.7078 1.27405,-0.33031 2.73684,-0.33031 2.83122,0 4.62433,0.84936 1.7931,0.80218 2.78403,2.31217 1.03811,1.50998 1.36842,3.58621 0.3775,2.07622 0.3775,4.52995 v 13.77859 h -4.38839 v -12.83485 q 0,-2.1706 -0.23594,-3.72777 -0.18874,-1.55718 -0.80217,-2.59529 -0.56625,-1.03811 -1.60436,-1.50998 -0.99093,-0.51906 -2.59529,-0.51906 -2.21778,0 -3.68058,0.61343 -1.41561,0.56625 -1.93467,1.03812 0.3775,1.22686 0.56625,2.68965 0.18875,1.4628 0.18875,3.06716 v 13.77859 h -4.38839 v -12.83485 q 0,-2.1706 -0.23594,-3.72777 -0.23593,-1.55718 -0.84936,-2.59529 -0.56625,-1.03811 -1.60436,-1.50998 -0.99093,-0.51906 -2.5481,-0.51906 -0.66062,0 -1.41561,0.0472 -0.75499,0.0472 -1.46279,0.14156 -0.66062,0.0472 -1.22686,0.14156 -0.56625,0.0944 -0.755,0.14156 v 20.71508 h -4.38839 z"
           style="font-style:normal;font-variant:normal;font-weight:normal;font-stretch:normal;font-family:ubuntu;-inkscape-font-specification:ubuntu;text-align:center;text-anchor:middle;fill:#888888;fill-opacity:1;stroke-width:1.17967451"
           id="path120"
           inkscape:connector-curvature="0" />
        <path
           d="m 193.1761,248.93572 q 1.55717,0 2.73685,-0.0472 1.22686,-0.0944 2.02904,-0.28312 v -7.31398 q -0.47187,-0.23594 -1.55717,-0.3775 -1.03812,-0.18875 -2.5481,-0.18875 -0.99093,0 -2.12341,0.14156 -1.0853,0.14156 -2.02904,0.61343 -0.89656,0.42469 -1.50999,1.22687 -0.61343,0.75499 -0.61343,2.02904 0,2.35934 1.50999,3.30308 1.50998,0.89656 4.10526,0.89656 z m -0.37749,-21.98913 q 2.64247,0 4.43557,0.7078 1.8403,0.66062 2.9256,1.93467 1.13248,1.22686 1.60435,2.97278 0.47187,1.69873 0.47187,3.77495 v 15.33577 q -0.56624,0.0944 -1.60435,0.28312 -0.99093,0.14156 -2.26498,0.28313 -1.27405,0.14156 -2.78403,0.23593 -1.4628,0.14156 -2.92559,0.14156 -2.07623,0 -3.82215,-0.42468 -1.74592,-0.42468 -3.01997,-1.32124 -1.27404,-0.94374 -1.98185,-2.45372 -0.7078,-1.50998 -0.7078,-3.6334 0,-2.02904 0.80218,-3.49183 0.84936,-1.4628 2.26497,-2.35935 1.41561,-0.89655 3.30309,-1.32124 1.88748,-0.42468 3.96371,-0.42468 0.66061,0 1.36842,0.0944 0.7078,0.0472 1.32123,0.18875 0.66062,0.0944 1.13249,0.18875 0.47187,0.0944 0.66062,0.14156 v -1.22686 q 0,-1.0853 -0.23594,-2.12342 -0.23593,-1.0853 -0.84936,-1.88747 -0.61343,-0.84937 -1.69873,-1.32124 -1.03812,-0.51906 -2.73685,-0.51906 -2.1706,0 -3.82214,0.33031 -1.60436,0.28312 -2.40654,0.61343 l -0.51906,-3.63339 q 0.84937,-0.3775 2.83122,-0.70781 1.98186,-0.37749 4.29402,-0.37749 z"
           style="font-style:normal;font-variant:normal;font-weight:normal;font-stretch:normal;font-family:ubuntu;-inkscape-font-specification:ubuntu;text-align:center;text-anchor:middle;fill:#888888;fill-opacity:1;stroke-width:1.17967451"
           id="path122"
           inkscape:connector-curvature="0" />
      </g>
    </g>
  </g>
</svg>
