<?xml version="1.0" encoding="UTF-8" standalone="no"?>
<!-- Created with Inkscape (http://www.inkscape.org/) -->

<svg
   xmlns:dc="http://purl.org/dc/elements/1.1/"
   xmlns:cc="http://creativecommons.org/ns#"
   xmlns:rdf="http://www.w3.org/1999/02/22-rdf-syntax-ns#"
   xmlns:svg="http://www.w3.org/2000/svg"
   xmlns="http://www.w3.org/2000/svg"
   xmlns:xlink="http://www.w3.org/1999/xlink"
   xmlns:sodipodi="http://sodipodi.sourceforge.net/DTD/sodipodi-0.dtd"
   xmlns:inkscape="http://www.inkscape.org/namespaces/inkscape"
   width="256"
   height="256"
   viewBox="0 0 67.733332 67.733335"
   version="1.1"
   id="svg1037"
   inkscape:version="0.92.3 (2405546, 2018-03-11)"
   sodipodi:docname="1.svg">
  <defs
     id="defs1031">
    <radialGradient
       r="12.671875"
       fy="16.231987"
       fx="18.1481"
       cy="16.231987"
       cx="18.1481"
       gradientTransform="matrix(0,7.4320308,-9.3447343,0,184.79808,78.858037)"
       gradientUnits="userSpaceOnUse"
       id="radialGradient3417"
       xlink:href="#linearGradient2867-449-88-871-390-598-476-591-434-148-57-177-8-3-3" />
    <linearGradient
       id="linearGradient2867-449-88-871-390-598-476-591-434-148-57-177-8-3-3">
      <stop
         offset="0"
         style="stop-color:#ffcd7d;stop-opacity:1"
         id="stop3750-1-0-7" />
      <stop
         offset="0.26238"
         style="stop-color:#fc8f36;stop-opacity:1"
         id="stop3752-3-7-4" />
      <stop
         offset="0.704952"
         style="stop-color:#e23a0e;stop-opacity:1"
         id="stop3754-1-8-5" />
      <stop
         offset="1"
         style="stop-color:#ac441f;stop-opacity:1"
         id="stop3756-1-6-2" />
    </linearGradient>
    <linearGradient
       inkscape:collect="always"
       xlink:href="#linearGradient4290"
       id="linearGradient934"
       x1="592"
       y1="204"
       x2="592"
       y2="-4"
       gradientUnits="userSpaceOnUse"
       gradientTransform="matrix(0.20010221,0,0,0.20010221,-85.852898,238.34909)" />
    <linearGradient
       inkscape:collect="always"
       id="linearGradient4290">
      <stop
         style="stop-color:#e72662;stop-opacity:1"
         offset="0"
         id="stop4292" />
      <stop
         id="stop4272"
         offset="0.48271722"
         style="stop-color:#ec3c50;stop-opacity:1" />
      <stop
         style="stop-color:#ff7b66;stop-opacity:1"
         offset="1"
         id="stop4294" />
    </linearGradient>
    <linearGradient
       gradientUnits="userSpaceOnUse"
       y2="119.09284"
       x2="-35.310345"
       y1="401.58368"
       x1="529.65515"
       id="linearGradient4226"
       xlink:href="#linearGradient4338"
       inkscape:collect="always"
       gradientTransform="matrix(0,-0.11988932,0.11988589,0,0.36277965,292.5483)" />
    <linearGradient
       inkscape:collect="always"
       id="linearGradient4338">
      <stop
         style="stop-color:#f2f2f2;stop-opacity:1"
         offset="0"
         id="stop4340" />
      <stop
         style="stop-color:#f9f9f9;stop-opacity:1"
         offset="1"
         id="stop4342" />
    </linearGradient>
    <linearGradient
       inkscape:collect="always"
       xlink:href="#linearGradient4360"
       id="linearGradient4358"
       x1="88"
       y1="88"
       x2="488"
       y2="488"
       gradientUnits="userSpaceOnUse" />
    <linearGradient
       id="linearGradient4360"
       inkscape:collect="always">
      <stop
         id="stop4362"
         offset="0"
         style="stop-color:#000000;stop-opacity:0.58823532" />
      <stop
         style="stop-color:#000000;stop-opacity:0"
         offset="0.88"
         id="stop4364" />
      <stop
         id="stop4366"
         offset="1"
         style="stop-color:#000000;stop-opacity:1" />
    </linearGradient>
    <filter
       inkscape:collect="always"
       style="color-interpolation-filters:sRGB"
       id="filter4380"
       x="-0.052999184"
       width="1.1059984"
       y="-0.043862626"
       height="1.0877253">
      <feGaussianBlur
         inkscape:collect="always"
         stdDeviation="8.4801079"
         id="feGaussianBlur4382" />
    </filter>
    <filter
       inkscape:collect="always"
       style="color-interpolation-filters:sRGB"
       id="filter4346"
       x="-0.013249796"
       width="1.0264996"
       y="-0.010965657"
       height="1.0219313">
      <feGaussianBlur
         inkscape:collect="always"
         stdDeviation="2.120027"
         id="feGaussianBlur4348" />
    </filter>
  </defs>
  <sodipodi:namedview
     id="base"
     pagecolor="#ffffff"
     bordercolor="#666666"
     borderopacity="1.0"
     inkscape:pageopacity="0.0"
     inkscape:pageshadow="2"
     inkscape:zoom="3.4065192"
     inkscape:cx="74.931311"
     inkscape:cy="127.82523"
     inkscape:document-units="px"
     inkscape:current-layer="g1495"
     showgrid="true"
     units="px"
     inkscape:window-width="1920"
     inkscape:window-height="1009"
     inkscape:window-x="0"
     inkscape:window-y="34"
     inkscape:window-maximized="1">
    <inkscape:grid
       type="xygrid"
       id="grid1672" />
  </sodipodi:namedview>
  <metadata
     id="metadata1034">
    <rdf:RDF>
      <cc:Work
         rdf:about="">
        <dc:format>image/svg+xml</dc:format>
        <dc:type
           rdf:resource="http://purl.org/dc/dcmitype/StillImage" />
        <dc:title></dc:title>
      </cc:Work>
    </rdf:RDF>
  </metadata>
  <g
     inkscape:label="Livello 1"
     inkscape:groupmode="layer"
     id="layer1"
     transform="translate(0,-229.26665)">
    <g
       id="g1495">
      <path
         sodipodi:nodetypes="scccssscsss"
         inkscape:connector-curvature="0"
         id="path1163"
         d="m 20.705011,233.28164 c -9.338926,0 -10.343783,0.95922 -10.298013,10.31704 v 19.31629 19.3163 c -0.04577,9.35781 0.959087,10.31704 10.298013,10.31704 h 25.970643 c 9.338924,0 10.298012,-0.95912 10.298012,-10.31704 v -19.3163 -19.31629 c 0,-9.35793 -0.959088,-10.31704 -10.298012,-10.31704 z"
         style="color:#000000;display:inline;overflow:visible;visibility:visible;opacity:0.2;fill:none;fill-opacity:1;fill-rule:nonzero;stroke:#000000;stroke-width:1.05833328;stroke-miterlimit:4;stroke-dasharray:none;stroke-opacity:1;marker:none;enable-background:accumulate" />
      <path
         style="color:#000000;display:inline;overflow:visible;visibility:visible;opacity:0.1;fill:#000000;fill-opacity:1;fill-rule:nonzero;stroke:none;stroke-width:2;marker:none;filter:url(#filter4346);enable-background:accumulate"
         d="M 189.84323,74 C 119.24979,74 111.65402,81.250835 112,151.98706 V 298 444.01294 C 111.65402,514.74917 119.24979,522 189.84323,522 H 386.15677 C 456.75021,522 462.16345,514.72616 464,444.01294 V 298 151.98706 C 464,81.249993 456.75021,74 386.15677,74 Z"
         id="rect4158-9"
         inkscape:connector-curvature="0"
         sodipodi:nodetypes="scccssscsss"
         transform="matrix(0.13229167,0,0,0.13229167,-4.4096684,223.75664)" />
      <path
         sodipodi:nodetypes="scccssscsss"
         inkscape:connector-curvature="0"
         id="path4350"
         d="M 189.84323,74 C 119.24979,74 111.65402,81.250835 112,151.98706 V 298 444.01294 C 111.65402,514.74917 119.24979,522 189.84323,522 H 386.15677 C 456.75021,522 464,514.75001 464,444.01294 V 298 151.98706 C 464,81.249993 456.75021,74 386.15677,74 Z"
         style="color:#000000;display:inline;overflow:visible;visibility:visible;opacity:0.3;fill:url(#linearGradient4358);fill-opacity:1;fill-rule:nonzero;stroke:none;stroke-width:2;marker:none;filter:url(#filter4380);enable-background:accumulate"
         transform="matrix(0.13229167,0,0,0.13229167,-4.4096684,223.75664)" />
      <path
         style="color:#000000;display:inline;overflow:visible;visibility:visible;fill:url(#linearGradient4226);fill-opacity:1;fill-rule:nonzero;stroke:none;stroke-width:0.26458332;marker:none;enable-background:accumulate"
         d="m 20.705011,233.28164 c -9.338926,0 -10.343783,0.95922 -10.298013,10.31704 v 19.31629 19.3163 c -0.04577,9.35781 0.959087,10.31704 10.298013,10.31704 h 25.970643 c 9.338924,0 10.298012,-0.95912 10.298012,-10.31704 v -19.3163 -19.31629 c 0,-9.35793 -0.959088,-10.31704 -10.298012,-10.31704 z"
         id="rect4158"
         inkscape:connector-curvature="0"
         sodipodi:nodetypes="scccssscsss" />
      <path
         style="color:#000000;display:inline;overflow:visible;visibility:visible;opacity:0.6;fill:#ffffff;fill-opacity:1;fill-rule:nonzero;stroke:none;stroke-width:0.26458332;marker:none;enable-background:accumulate"
         d="m 20.705079,233.28164 c -9.338926,0 -10.343851,0.95939 -10.298081,10.3172 v 0.52916 c -0.04577,-9.35781 0.959155,-10.3172 10.298081,-10.3172 h 25.970506 c 9.338927,0 10.298081,0.95928 10.298081,10.3172 v -0.52916 c 0,-9.35793 -0.959154,-10.3172 -10.298081,-10.3172 z"
         id="path931"
         inkscape:connector-curvature="0" />
      <path
         style="font-style:normal;font-variant:normal;font-weight:normal;font-stretch:normal;font-size:15px;line-height:125%;font-family:Ubuntu;-inkscape-font-specification:Ubuntu;text-align:center;letter-spacing:0px;word-spacing:0px;writing-mode:lr-tb;text-anchor:middle;display:inline;opacity:0.8;fill:url(#linearGradient934);fill-opacity:1;stroke:none;stroke-width:0.44124922;enable-background:new"
         d="m 42.881614,243.86518 c -0.375907,-0.004 -0.875679,0.0545 -1.540632,0.15438 l -11.06464,1.69188 c -2.671424,0.56884 -2.662254,0.74578 -2.671286,3.00271 v 4.41944 2.22418 11.66885 c -0.111417,-0.078 -0.221311,-0.15651 -0.3365,-0.23371 v 8e-4 c -0.848731,-0.56877 -1.753307,-0.97354 -2.968313,-0.97355 -1.521881,0 -2.429462,0.58275 -2.978867,1.3503 -0.549402,0.76756 -0.731624,1.73503 -0.731624,2.48291 0,0.90184 0.307918,1.86434 0.97589,2.59781 0.667975,0.73348 1.694947,1.2471 3.171542,1.24712 1.667412,0 2.84031,-0.4656 3.50335,-1.37492 0.522047,-0.71594 0.810729,-1.67242 0.91375,-2.85224 v -0.002 -10e-4 c 0.01442,-0.14313 0.0249,-0.29016 0.034,-0.44163 0.014,-0.23321 0.01095,-0.66948 0.01095,-0.66948 v -14.02137 c 0,-2.00307 -9.8e-5,-2.12265 2.672067,-2.57945 l 7.868478,-1.23422 c 2.676978,-0.35025 2.677539,-0.10668 2.677539,1.39765 v 1.23735 11.63055 c -0.108424,-0.076 -0.215485,-0.15239 -0.327512,-0.22746 v 7.9e-4 c -0.848731,-0.56876 -1.752912,-0.97354 -2.967921,-0.97354 -1.521889,0 -2.429849,0.58274 -2.979256,1.3503 -0.549402,0.76755 -0.731623,1.73502 -0.731623,2.4829 0,0.90184 0.308305,1.86434 0.976278,2.59782 0.667975,0.73347 1.694936,1.24749 3.171542,1.24751 1.667412,0 2.84031,-0.46599 3.503353,-1.37531 0.522047,-0.71594 0.810337,-1.67203 0.913357,-2.85185 v -0.002 -0.002 c 0.01442,-0.14314 0.0249,-0.28977 0.034,-0.44124 0.014,-0.23322 0.01132,-0.66988 0.01132,-0.66988 v -15.50657 -4.00049 c 0,-1.75682 -0.01154,-2.33863 -1.139253,-2.3512 z"
         id="path4393"
         inkscape:connector-curvature="0"
         sodipodi:nodetypes="cccccccccccsccccccccsccsccccccssccccccccsc" />
      <path
         style="color:#000000;display:inline;overflow:visible;visibility:visible;opacity:0.1;fill:#ffffff;fill-opacity:1;fill-rule:nonzero;stroke:none;stroke-width:0.26458332;marker:none;enable-background:accumulate"
         d="m 33.690332,233.28164 v 59.26667 h 12.985253 c 9.338924,0 10.055122,-0.96217 10.298081,-10.31695 v -19.31639 -19.31639 c 0,-9.35792 -0.959157,-10.31694 -10.298081,-10.31694 z"
         id="path4231"
         inkscape:connector-curvature="0"
         sodipodi:nodetypes="ccsscssc" />
      <path
         inkscape:connector-curvature="0"
         style="color:#000000;display:inline;overflow:visible;visibility:visible;opacity:0.2;fill:#ffffff;fill-opacity:1;fill-rule:nonzero;stroke:none;stroke-width:0.26458332;marker:none;enable-background:accumulate"
         d="m 10.406998,262.91497 v 19.31639 c -0.04577,9.35782 0.959156,10.31695 10.298081,10.31695 h 25.970506 c 9.338924,0 10.055122,-0.96217 10.298081,-10.31695 v -19.31639 z"
         id="path4255"
         sodipodi:nodetypes="ccssscc" />
      <path
         style="color:#000000;display:inline;overflow:visible;visibility:visible;opacity:0.4;fill:#ffffff;fill-opacity:1;fill-rule:nonzero;stroke:none;stroke-width:2.11666656;stroke-linecap:butt;stroke-linejoin:miter;stroke-miterlimit:4;stroke-dasharray:none;stroke-dashoffset:0;stroke-opacity:1;marker:none;enable-background:accumulate"
         d="m 41.098666,292.54831 15.875,-15.875 v 5.94886 c -0.01384,8.99472 -1.006126,9.92614 -10.100231,9.92614 z"
         id="path4254"
         inkscape:connector-curvature="0"
         sodipodi:nodetypes="cccsc" />
      <g
         aria-label="mp3"
         style="font-style:normal;font-weight:normal;font-size:47.18697739px;line-height:1.25;font-family:sans-serif;letter-spacing:0px;word-spacing:0px;display:inline;fill:#000000;fill-opacity:1;stroke:none;stroke-width:1.17967451;enable-background:new"
         id="text920"
         transform="matrix(0.26458333,0,0,0.26458333,-6.5263354,217.40664)">
        <path
           d="m 108.10936,228.26782 q 1.50999,-0.3775 3.96371,-0.80218 2.50091,-0.42468 5.75681,-0.42468 2.35935,0 3.96371,0.66062 1.60435,0.61343 2.68965,1.84029 0.33031,-0.23594 1.03812,-0.66062 0.7078,-0.42468 1.74592,-0.80218 1.03811,-0.42468 2.31216,-0.7078 1.27405,-0.33031 2.73684,-0.33031 2.83122,0 4.62433,0.84936 1.7931,0.80218 2.78403,2.31217 1.03811,1.50998 1.36842,3.58621 0.3775,2.07622 0.3775,4.52995 v 13.77859 h -4.38839 v -12.83485 q 0,-2.1706 -0.23594,-3.72777 -0.18875,-1.55718 -0.80218,-2.59529 -0.56624,-1.03811 -1.60435,-1.50998 -0.99093,-0.51906 -2.59529,-0.51906 -2.21779,0 -3.68058,0.61343 -1.41561,0.56625 -1.93467,1.03812 0.3775,1.22686 0.56625,2.68965 0.18874,1.4628 0.18874,3.06716 v 13.77859 h -4.38839 v -12.83485 q 0,-2.1706 -0.23593,-3.72777 -0.23594,-1.55718 -0.84937,-2.59529 -0.56624,-1.03811 -1.60435,-1.50998 -0.99093,-0.51906 -2.5481,-0.51906 -0.66062,0 -1.41561,0.0472 -0.75499,0.0472 -1.4628,0.14156 -0.66061,0.0472 -1.22686,0.14156 -0.56624,0.0944 -0.75499,0.14156 v 20.71508 h -4.38839 z"
           style="font-style:normal;font-variant:normal;font-weight:normal;font-stretch:normal;font-family:ubuntu;-inkscape-font-specification:ubuntu;text-align:center;text-anchor:middle;fill:#888888;fill-opacity:1;stroke-width:1.17967451"
           id="path153"
           inkscape:connector-curvature="0" />
        <path
           d="m 165.78733,239.87582 q 0,-4.29402 -2.12341,-6.60618 -2.12342,-2.31216 -5.66244,-2.31216 -1.98185,0 -3.11434,0.14156 -1.0853,0.14156 -1.74592,0.33031 v 15.47733 q 0.80218,0.66061 2.31216,1.27405 1.50999,0.61343 3.30309,0.61343 1.88748,0 3.20872,-0.66062 1.36842,-0.70781 2.21778,-1.88748 0.84937,-1.22686 1.22687,-2.83122 0.37749,-1.65154 0.37749,-3.53902 z m 4.57714,0 q 0,2.78403 -0.75499,5.14338 -0.70781,2.35935 -2.12342,4.05808 -1.41561,1.69873 -3.49183,2.64247 -2.02904,0.94374 -4.67151,0.94374 -2.12342,0 -3.77496,-0.56625 -1.60436,-0.56624 -2.40654,-1.0853 v 9.8149 h -4.38839 v -32.51183 q 1.55717,-0.3775 3.86934,-0.80218 2.35934,-0.47187 5.4265,-0.47187 2.83122,0 5.09619,0.89655 2.26498,0.89655 3.86933,2.5481 1.60436,1.65154 2.45373,4.05808 0.89655,2.35935 0.89655,5.33213 z"
           style="font-style:normal;font-variant:normal;font-weight:normal;font-stretch:normal;font-family:ubuntu;-inkscape-font-specification:ubuntu;text-align:center;text-anchor:middle;fill:#888888;fill-opacity:1;stroke-width:1.17967451"
           id="path155"
           inkscape:connector-curvature="0" />
        <path
           d="m 183.47507,248.88853 q 4.19964,0 5.99275,-1.65154 1.84029,-1.65155 1.84029,-4.43558 0,-1.79311 -0.75499,-3.01997 -0.75499,-1.22686 -1.98186,-1.93466 -1.22686,-0.75499 -2.8784,-1.03812 -1.60436,-0.33031 -3.30309,-0.33031 h -1.13249 v -3.58621 h 1.55717 q 1.17968,0 2.40654,-0.23593 1.27405,-0.23594 2.31216,-0.84937 1.03811,-0.61343 1.69873,-1.65154 0.66062,-1.0853 0.66062,-2.68966 0,-1.32123 -0.47187,-2.26497 -0.47187,-0.94374 -1.27405,-1.55717 -0.75499,-0.61343 -1.7931,-0.84937 -0.99093,-0.28312 -2.12342,-0.28312 -2.26497,0 -3.86933,0.66062 -1.55717,0.66061 -2.64247,1.36842 l -1.69873,-3.35028 q 0.56624,-0.37749 1.41561,-0.80217 0.89655,-0.47187 1.98185,-0.84937 1.0853,-0.3775 2.31216,-0.61343 1.27405,-0.28312 2.64247,-0.28312 2.59529,0 4.48277,0.66061 1.88748,0.61344 3.11434,1.79311 1.22686,1.13249 1.84029,2.73684 0.61343,1.55718 0.61343,3.39747 0,2.54809 -1.4628,4.38839 -1.46279,1.7931 -3.53902,2.73684 1.27405,0.3775 2.45372,1.0853 1.17968,0.70781 2.02904,1.79311 0.89656,1.0853 1.41561,2.50091 0.56625,1.41561 0.56625,3.16152 0,2.12342 -0.755,3.96371 -0.7078,1.7931 -2.26497,3.11434 -1.50998,1.32124 -3.82215,2.07623 -2.31216,0.75499 -5.47368,0.75499 -1.22687,0 -2.5481,-0.18875 -1.27405,-0.18875 -2.40654,-0.47187 -1.13249,-0.28312 -1.98185,-0.56624 -0.84937,-0.28312 -1.22686,-0.47187 l 0.84936,-3.82215 q 0.80218,0.3775 2.64247,0.99093 1.88748,0.61343 4.57714,0.61343 z"
           style="font-style:normal;font-variant:normal;font-weight:normal;font-stretch:normal;font-family:ubuntu;-inkscape-font-specification:ubuntu;text-align:center;text-anchor:middle;fill:#888888;fill-opacity:1;stroke-width:1.17967451"
           id="path157"
           inkscape:connector-curvature="0" />
      </g>
    </g>
  </g>
</svg>
