<?xml version="1.0" standalone="no"?><!-- Generator: Gravit.io --><svg xmlns="http://www.w3.org/2000/svg" xmlns:xlink="http://www.w3.org/1999/xlink" style="isolation:isolate" viewBox="0 0 256 256" width="256" height="256"><defs><clipPath id="_clipPath_qHSS3ibDoKU6LkC8jj5c7GwKnjcoWTFg"><rect width="256" height="256"/></clipPath></defs><g clip-path="url(#_clipPath_qHSS3ibDoKU6LkC8jj5c7GwKnjcoWTFg)"><g opacity="0.2"><path d=" M 78.255 15.175 C 42.958 15.175 39.161 18.8 39.334 54.168 L 39.334 127.175 L 39.334 200.181 C 39.161 235.549 42.958 239.175 78.255 239.175 L 176.412 239.175 C 211.709 239.175 215.334 235.55 215.334 200.181 L 215.334 127.175 L 215.334 54.168 C 215.334 18.8 211.709 15.175 176.412 15.175 L 78.255 15.175 Z " fill="none" vector-effect="non-scaling-stroke" stroke-width="4" stroke="rgb(0,0,0)" stroke-linejoin="miter" stroke-linecap="butt" stroke-miterlimit="4"/></g><defs><filter id="09LC1aZGpII4bowdmewutw0Lm9Ys80S0" x="-200%" y="-200%" width="400%" height="400%" filterUnits="objectBoundingBox" color-interpolation-filters="sRGB"><feGaussianBlur xmlns="http://www.w3.org/2000/svg" stdDeviation="0.39082864770253267"/></filter></defs><g opacity="0.1" filter="url(#09LC1aZGpII4bowdmewutw0Lm9Ys80S0)"><path d=" M -16.56 -20.831 C -16.662 -20.831 -16.674 -20.822 -16.673 -20.742 L -16.673 -20.575 L -16.673 -20.409 C -16.674 -20.328 -16.662 -20.32 -16.56 -20.32 L -16.273 -20.32 C -16.17 -20.32 -16.162 -20.328 -16.16 -20.409 L -16.16 -20.575 L -16.16 -20.742 C -16.16 -20.822 -16.17 -20.831 -16.273 -20.831 L -16.56 -20.831 Z " fill="rgb(0,0,0)"/></g><defs><filter id="jo16ATCG2QKu8rlQAYlwVHL7A3s6atkN" x="-200%" y="-200%" width="400%" height="400%" filterUnits="objectBoundingBox" color-interpolation-filters="sRGB"><feGaussianBlur xmlns="http://www.w3.org/2000/svg" stdDeviation="1.5633145723750521"/></filter></defs><g opacity="0.3" filter="url(#jo16ATCG2QKu8rlQAYlwVHL7A3s6atkN)"><linearGradient id="_lgradient_2" x1="-0.0681490711308741" y1="0.03125" x2="0.9537210324437329" y2="1.0531201035746074" gradientTransform="matrix(0.553,0,0,0.544,-16.693,-20.847)" gradientUnits="userSpaceOnUse"><stop offset="0%" stop-opacity="0.58823532" style="stop-color:rgb(0,0,0)"/><stop offset="88%" stop-opacity="0" style="stop-color:rgb(0,0,0)"/><stop offset="100%" stop-opacity="1" style="stop-color:rgb(0,0,0)"/></linearGradient><path d=" M -16.571 -20.847 C -16.682 -20.847 -16.693 -20.838 -16.693 -20.752 L -16.693 -20.575 L -16.693 -20.398 C -16.693 -20.312 -16.682 -20.303 -16.571 -20.303 L -16.262 -20.303 C -16.151 -20.303 -16.14 -20.312 -16.14 -20.398 L -16.14 -20.575 L -16.14 -20.752 C -16.14 -20.838 -16.151 -20.847 -16.262 -20.847 L -16.571 -20.847 Z " fill="url(#_lgradient_2)"/></g><linearGradient id="_lgradient_3" x1="0.8181873723662472" y1="-0.0714286084910456" x2="0.21237957735816293" y2="1.1401869364207897" gradientTransform="matrix(176.005,0,0,224,39.328,15.175)" gradientUnits="userSpaceOnUse"><stop offset="0%" stop-opacity="1" style="stop-color:rgb(242,242,242)"/><stop offset="100%" stop-opacity="1" style="stop-color:rgb(249,249,249)"/></linearGradient><path d=" M 78.255 15.175 C 42.958 15.175 39.16 18.8 39.333 54.168 L 39.333 127.175 L 39.333 200.181 C 39.16 235.549 42.958 239.175 78.255 239.175 L 176.412 239.175 C 211.709 239.175 215.333 235.55 215.333 200.181 L 215.333 127.175 L 215.333 54.168 C 215.333 18.8 211.709 15.175 176.412 15.175 L 78.255 15.175 Z " fill="url(#_lgradient_3)"/><g><path d=" M 106.389 103.647 L 128 125.256 L 149.608 103.647 L 106.389 103.647 Z " fill="rgb(253,201,43)"/><path d=" M 102.51 99.768 L 149.825 99.768 L 128.059 78 L 80.743 78 L 102.51 99.768 Z " fill="rgb(70,169,38)"/><rect x="137.694" y="111.217" width="33.306" height="33.456" transform="matrix(0.707,0.707,-0.707,0.707,135.678,-71.666)" fill="rgb(70,169,38)"/><path d=" M 133.543 78 L 178 122.454 L 178 78 L 133.543 78 Z " fill="rgb(55,166,230)"/><path d=" M 78 175.256 L 125.256 128 L 78 80.743 L 78 175.256 Z " fill="rgb(20,99,165)"/><path d=" M 178 133.329 L 157.035 154.294 L 178 175.256 L 178 133.329 Z " fill="rgb(253,201,43)"/><path d=" M 175.256 178 L 128 130.744 L 80.743 178 L 175.256 178 Z " fill="rgb(55,166,230)"/></g><g opacity="0.6"><path d=" M 78.255 15.175 C 42.959 15.175 39.161 18.801 39.334 54.169 L 39.334 56.169 C 39.161 20.801 42.959 17.175 78.255 17.175 L 176.412 17.175 C 211.708 17.175 215.334 20.8 215.334 56.169 L 215.334 54.169 C 215.334 18.8 211.708 15.175 176.412 15.175 L 78.255 15.175 Z " fill="rgb(255,255,255)"/></g><g opacity="0.1"><path d=" M 127.334 15.175 L 127.334 239.175 L 176.412 239.175 C 211.708 239.175 214.415 235.538 215.334 200.182 L 215.334 127.175 L 215.334 54.168 C 215.334 18.799 211.708 15.175 176.412 15.175 L 127.334 15.175 Z " fill="rgb(255,255,255)"/></g><g opacity="0.2"><path d=" M 39.334 127.175 L 39.334 200.182 C 39.161 235.55 42.959 239.175 78.255 239.175 L 176.412 239.175 C 211.708 239.175 214.415 235.538 215.334 200.182 L 215.334 127.175 L 39.334 127.175 Z " fill="rgb(255,255,255)"/></g><g opacity="0.4"><path d=" M 155.334 239.175 L 215.334 179.175 L 215.334 201.659 C 215.281 235.654 211.531 239.175 177.159 239.175 L 155.334 239.175 Z " fill="rgb(255,255,255)"/></g><path d=" M 115.24 200.06 L 115.24 200.06 L 115.24 200.06 Q 115.24 200.96 114.67 201.43 L 114.67 201.43 L 114.67 201.43 Q 114.1 201.9 113.38 201.9 L 113.38 201.9 L 113.38 201.9 Q 112.66 201.9 112.09 201.43 L 112.09 201.43 L 112.09 201.43 Q 111.52 200.96 111.52 200.06 L 111.52 200.06 L 111.52 200.06 Q 111.52 199.16 112.09 198.69 L 112.09 198.69 L 112.09 198.69 Q 112.66 198.22 113.38 198.22 L 113.38 198.22 L 113.38 198.22 Q 114.1 198.22 114.67 198.69 L 114.67 198.69 L 114.67 198.69 Q 115.24 199.16 115.24 200.06 Z  M 116.74 196.46 L 116.74 196.46 L 116.74 196.46 Q 116.74 195.06 117.17 194.01 L 117.17 194.01 L 117.17 194.01 Q 117.6 192.96 118.3 192.26 L 118.3 192.26 L 118.3 192.26 Q 119 191.56 119.91 191.2 L 119.91 191.2 L 119.91 191.2 Q 120.82 190.84 121.78 190.84 L 121.78 190.84 L 121.78 190.84 Q 124.02 190.84 125.32 192.21 L 125.32 192.21 L 125.32 192.21 Q 126.62 193.58 126.62 196.24 L 126.62 196.24 L 126.62 196.24 Q 126.62 196.5 126.6 196.81 L 126.6 196.81 L 126.6 196.81 Q 126.58 197.12 126.56 197.36 L 126.56 197.36 L 119.8 197.36 L 119.8 197.36 Q 119.9 198.28 120.66 198.82 L 120.66 198.82 L 120.66 198.82 Q 121.42 199.36 122.7 199.36 L 122.7 199.36 L 122.7 199.36 Q 123.52 199.36 124.31 199.21 L 124.31 199.21 L 124.31 199.21 Q 125.1 199.06 125.6 198.84 L 125.6 198.84 L 126 201.26 L 126 201.26 Q 125.76 201.38 125.36 201.5 L 125.36 201.5 L 125.36 201.5 Q 124.96 201.62 124.47 201.71 L 124.47 201.71 L 124.47 201.71 Q 123.98 201.8 123.42 201.86 L 123.42 201.86 L 123.42 201.86 Q 122.86 201.92 122.3 201.92 L 122.3 201.92 L 122.3 201.92 Q 120.88 201.92 119.83 201.5 L 119.83 201.5 L 119.83 201.5 Q 118.78 201.08 118.09 200.35 L 118.09 200.35 L 118.09 200.35 Q 117.4 199.62 117.07 198.62 L 117.07 198.62 L 117.07 198.62 Q 116.74 197.62 116.74 196.46 Z  M 119.8 195.32 L 123.74 195.32 L 123.74 195.32 Q 123.72 194.94 123.61 194.58 L 123.61 194.58 L 123.61 194.58 Q 123.5 194.22 123.27 193.94 L 123.27 193.94 L 123.27 193.94 Q 123.04 193.66 122.69 193.48 L 122.69 193.48 L 122.69 193.48 Q 122.34 193.3 121.82 193.3 L 121.82 193.3 L 121.82 193.3 Q 121.32 193.3 120.96 193.47 L 120.96 193.47 L 120.96 193.47 Q 120.6 193.64 120.36 193.92 L 120.36 193.92 L 120.36 193.92 Q 120.12 194.2 119.99 194.57 L 119.99 194.57 L 119.99 194.57 Q 119.86 194.94 119.8 195.32 L 119.8 195.32 L 119.8 195.32 Z  M 133.54 199.38 L 133.12 201.84 L 133.12 201.84 Q 131.82 201.82 131.01 201.56 L 131.01 201.56 L 131.01 201.56 Q 130.2 201.3 129.73 200.83 L 129.73 200.83 L 129.73 200.83 Q 129.26 200.36 129.09 199.69 L 129.09 199.69 L 129.09 199.69 Q 128.92 199.02 128.92 198.18 L 128.92 198.18 L 128.92 186.6 L 131.9 186.12 L 131.9 197.58 L 131.9 197.58 Q 131.9 197.98 131.96 198.3 L 131.96 198.3 L 131.96 198.3 Q 132.02 198.62 132.19 198.84 L 132.19 198.84 L 132.19 198.84 Q 132.36 199.06 132.68 199.2 L 132.68 199.2 L 132.68 199.2 Q 133 199.34 133.54 199.38 L 133.54 199.38 L 133.54 199.38 Z  M 141.02 201.64 L 141.02 196.06 L 141.02 196.06 Q 141.02 194.62 140.65 194.02 L 140.65 194.02 L 140.65 194.02 Q 140.28 193.42 139.38 193.42 L 139.38 193.42 L 139.38 193.42 Q 139.1 193.42 138.8 193.45 L 138.8 193.45 L 138.8 193.45 Q 138.5 193.48 138.22 193.52 L 138.22 193.52 L 138.22 201.64 L 135.24 201.64 L 135.24 191.48 L 135.24 191.48 Q 135.62 191.38 136.13 191.27 L 136.13 191.27 L 136.13 191.27 Q 136.64 191.16 137.21 191.07 L 137.21 191.07 L 137.21 191.07 Q 137.78 190.98 138.38 190.93 L 138.38 190.93 L 138.38 190.93 Q 138.98 190.88 139.56 190.88 L 139.56 190.88 L 139.56 190.88 Q 140.7 190.88 141.41 191.17 L 141.41 191.17 L 141.41 191.17 Q 142.12 191.46 142.58 191.86 L 142.58 191.86 L 142.58 191.86 Q 143.22 191.4 144.05 191.14 L 144.05 191.14 L 144.05 191.14 Q 144.88 190.88 145.58 190.88 L 145.58 190.88 L 145.58 190.88 Q 146.84 190.88 147.65 191.23 L 147.65 191.23 L 147.65 191.23 Q 148.46 191.58 148.94 192.22 L 148.94 192.22 L 148.94 192.22 Q 149.42 192.86 149.6 193.74 L 149.6 193.74 L 149.6 193.74 Q 149.78 194.62 149.78 195.7 L 149.78 195.7 L 149.78 201.64 L 146.8 201.64 L 146.8 196.06 L 146.8 196.06 Q 146.8 194.62 146.43 194.02 L 146.43 194.02 L 146.43 194.02 Q 146.06 193.42 145.16 193.42 L 145.16 193.42 L 145.16 193.42 Q 144.92 193.42 144.49 193.54 L 144.49 193.54 L 144.49 193.54 Q 144.06 193.66 143.78 193.84 L 143.78 193.84 L 143.78 193.84 Q 143.92 194.3 143.96 194.81 L 143.96 194.81 L 143.96 194.81 Q 144 195.32 144 195.9 L 144 195.9 L 144 201.64 L 141.02 201.64 L 141.02 201.64 Z " fill-rule="evenodd" fill="rgb(217,217,217)"/><path d=" M 114.24 199.06 L 114.24 199.06 L 114.24 199.06 Q 114.24 199.96 113.67 200.43 L 113.67 200.43 L 113.67 200.43 Q 113.1 200.9 112.38 200.9 L 112.38 200.9 L 112.38 200.9 Q 111.66 200.9 111.09 200.43 L 111.09 200.43 L 111.09 200.43 Q 110.52 199.96 110.52 199.06 L 110.52 199.06 L 110.52 199.06 Q 110.52 198.16 111.09 197.69 L 111.09 197.69 L 111.09 197.69 Q 111.66 197.22 112.38 197.22 L 112.38 197.22 L 112.38 197.22 Q 113.1 197.22 113.67 197.69 L 113.67 197.69 L 113.67 197.69 Q 114.24 198.16 114.24 199.06 Z  M 115.74 195.46 L 115.74 195.46 L 115.74 195.46 Q 115.74 194.06 116.17 193.01 L 116.17 193.01 L 116.17 193.01 Q 116.6 191.96 117.3 191.26 L 117.3 191.26 L 117.3 191.26 Q 118 190.56 118.91 190.2 L 118.91 190.2 L 118.91 190.2 Q 119.82 189.84 120.78 189.84 L 120.78 189.84 L 120.78 189.84 Q 123.02 189.84 124.32 191.21 L 124.32 191.21 L 124.32 191.21 Q 125.62 192.58 125.62 195.24 L 125.62 195.24 L 125.62 195.24 Q 125.62 195.5 125.6 195.81 L 125.6 195.81 L 125.6 195.81 Q 125.58 196.12 125.56 196.36 L 125.56 196.36 L 118.8 196.36 L 118.8 196.36 Q 118.9 197.28 119.66 197.82 L 119.66 197.82 L 119.66 197.82 Q 120.42 198.36 121.7 198.36 L 121.7 198.36 L 121.7 198.36 Q 122.52 198.36 123.31 198.21 L 123.31 198.21 L 123.31 198.21 Q 124.1 198.06 124.6 197.84 L 124.6 197.84 L 125 200.26 L 125 200.26 Q 124.76 200.38 124.36 200.5 L 124.36 200.5 L 124.36 200.5 Q 123.96 200.62 123.47 200.71 L 123.47 200.71 L 123.47 200.71 Q 122.98 200.8 122.42 200.86 L 122.42 200.86 L 122.42 200.86 Q 121.86 200.92 121.3 200.92 L 121.3 200.92 L 121.3 200.92 Q 119.88 200.92 118.83 200.5 L 118.83 200.5 L 118.83 200.5 Q 117.78 200.08 117.09 199.35 L 117.09 199.35 L 117.09 199.35 Q 116.4 198.62 116.07 197.62 L 116.07 197.62 L 116.07 197.62 Q 115.74 196.62 115.74 195.46 Z  M 118.8 194.32 L 122.74 194.32 L 122.74 194.32 Q 122.72 193.94 122.61 193.58 L 122.61 193.58 L 122.61 193.58 Q 122.5 193.22 122.27 192.94 L 122.27 192.94 L 122.27 192.94 Q 122.04 192.66 121.69 192.48 L 121.69 192.48 L 121.69 192.48 Q 121.34 192.3 120.82 192.3 L 120.82 192.3 L 120.82 192.3 Q 120.32 192.3 119.96 192.47 L 119.96 192.47 L 119.96 192.47 Q 119.6 192.64 119.36 192.92 L 119.36 192.92 L 119.36 192.92 Q 119.12 193.2 118.99 193.57 L 118.99 193.57 L 118.99 193.57 Q 118.86 193.94 118.8 194.32 L 118.8 194.32 L 118.8 194.32 Z  M 132.54 198.38 L 132.12 200.84 L 132.12 200.84 Q 130.82 200.82 130.01 200.56 L 130.01 200.56 L 130.01 200.56 Q 129.2 200.3 128.73 199.83 L 128.73 199.83 L 128.73 199.83 Q 128.26 199.36 128.09 198.69 L 128.09 198.69 L 128.09 198.69 Q 127.92 198.02 127.92 197.18 L 127.92 197.18 L 127.92 185.6 L 130.9 185.12 L 130.9 196.58 L 130.9 196.58 Q 130.9 196.98 130.96 197.3 L 130.96 197.3 L 130.96 197.3 Q 131.02 197.62 131.19 197.84 L 131.19 197.84 L 131.19 197.84 Q 131.36 198.06 131.68 198.2 L 131.68 198.2 L 131.68 198.2 Q 132 198.34 132.54 198.38 L 132.54 198.38 L 132.54 198.38 Z  M 140.02 200.64 L 140.02 195.06 L 140.02 195.06 Q 140.02 193.62 139.65 193.02 L 139.65 193.02 L 139.65 193.02 Q 139.28 192.42 138.38 192.42 L 138.38 192.42 L 138.38 192.42 Q 138.1 192.42 137.8 192.45 L 137.8 192.45 L 137.8 192.45 Q 137.5 192.48 137.22 192.52 L 137.22 192.52 L 137.22 200.64 L 134.24 200.64 L 134.24 190.48 L 134.24 190.48 Q 134.62 190.38 135.13 190.27 L 135.13 190.27 L 135.13 190.27 Q 135.64 190.16 136.21 190.07 L 136.21 190.07 L 136.21 190.07 Q 136.78 189.98 137.38 189.93 L 137.38 189.93 L 137.38 189.93 Q 137.98 189.88 138.56 189.88 L 138.56 189.88 L 138.56 189.88 Q 139.7 189.88 140.41 190.17 L 140.41 190.17 L 140.41 190.17 Q 141.12 190.46 141.58 190.86 L 141.58 190.86 L 141.58 190.86 Q 142.22 190.4 143.05 190.14 L 143.05 190.14 L 143.05 190.14 Q 143.88 189.88 144.58 189.88 L 144.58 189.88 L 144.58 189.88 Q 145.84 189.88 146.65 190.23 L 146.65 190.23 L 146.65 190.23 Q 147.46 190.58 147.94 191.22 L 147.94 191.22 L 147.94 191.22 Q 148.42 191.86 148.6 192.74 L 148.6 192.74 L 148.6 192.74 Q 148.78 193.62 148.78 194.7 L 148.78 194.7 L 148.78 200.64 L 145.8 200.64 L 145.8 195.06 L 145.8 195.06 Q 145.8 193.62 145.43 193.02 L 145.43 193.02 L 145.43 193.02 Q 145.06 192.42 144.16 192.42 L 144.16 192.42 L 144.16 192.42 Q 143.92 192.42 143.49 192.54 L 143.49 192.54 L 143.49 192.54 Q 143.06 192.66 142.78 192.84 L 142.78 192.84 L 142.78 192.84 Q 142.92 193.3 142.96 193.81 L 142.96 193.81 L 142.96 193.81 Q 143 194.32 143 194.9 L 143 194.9 L 143 200.64 L 140.02 200.64 L 140.02 200.64 Z " fill-rule="evenodd" fill="rgb(20,99,165)"/></g></svg>