<svg width="256" height="256" version="1.1" viewBox="0 0 67.73 67.73" xmlns="http://www.w3.org/2000/svg" xmlns:xlink="http://www.w3.org/1999/xlink">
 <defs>
  <filter id="filter1344" x="-.01" y="-.01" width="1.023" height="1.025" style="color-interpolation-filters:sRGB">
   <feGaussianBlur stdDeviation="1.06"/>
  </filter>
  <filter id="filter959" x="-.01" y="-.01" width="1.023" height="1.025" style="color-interpolation-filters:sRGB">
   <feGaussianBlur stdDeviation="1.06"/>
  </filter>
  <linearGradient id="linearGradient1057" x1="264" x2="48" y1="252" y2="52" gradientTransform="translate(-27.28,-38.771199)" gradientUnits="userSpaceOnUse">
   <stop style="stop-color:#000000" offset="0"/>
   <stop style="stop-color:#000000;stop-opacity:.43290043" offset=".159"/>
   <stop style="stop-color:#000000;stop-opacity:.0995671" offset=".194"/>
   <stop style="stop-color:#000000;stop-opacity:0" offset="1"/>
  </linearGradient>
  <clipPath id="clipPath977">
   <path d="M 78.994141,52 C 43.625611,52 40,53.999146 40,89.296875 V 140 H 264 V 108.92188 C 264,73.624145 260.37439,68 225.00586,68 H 138 L 122,52 Z" style="fill:#f6531e"/>
  </clipPath>
  <filter id="filter989" x="-.05" y="-.07" width="1.107" height="1.136" style="color-interpolation-filters:sRGB">
   <feGaussianBlur stdDeviation="5"/>
  </filter>
  <linearGradient id="linearGradient4226" x1="224" x2="224" y1="86" y2="478" gradientTransform="matrix(.11988932 0 0 .11988932 3.1009196 232.21778)" gradientUnits="userSpaceOnUse">
   <stop style="stop-color:#fb7c38" offset="0"/>
   <stop style="stop-color:#fda463" offset="1"/>
  </linearGradient>
  <radialGradient id="radialGradient1371" cx="152" cy="-.126" r="112" gradientTransform="matrix(.26458333 0 0 .06959709 -6.4240801 236.13742)" gradientUnits="userSpaceOnUse" xlink:href="#linearGradient1361"/>
  <linearGradient id="linearGradient1361">
   <stop style="stop-color:#ffffff" offset="0"/>
   <stop style="stop-color:#ffffff;stop-opacity:.20392157" offset="1"/>
  </linearGradient>
  <radialGradient id="radialGradient1363" cx="148" cy="39.684" r="112" gradientTransform="matrix(.26458333 0 0 .06723474 -6.4240801 242.98554)" gradientUnits="userSpaceOnUse" xlink:href="#linearGradient1361"/>
 </defs>
 <g transform="translate(0,-229.26666)">
  <g transform="translate(0,1.5441334)">
   <path transform="matrix(.26458333 0 0 .26458333 .79374998 230.51187)" d="m51.714141 15.228801c-35.36853 0-38.994141 1.999146-38.994141 37.296875v123.78124c0 35.29774 3.625611 38.92188 38.994141 38.92188h146.01172c35.36853 0 38.99414-3.62414 38.99414-38.92188v-104.15624c0-35.29774-3.62561-40.92188-38.99414-40.92188h-87.00586l-16-16z" style="filter:url(#filter1344);opacity:.1"/>
   <path transform="matrix(.26458333 0 0 .26458333 .79374998 230.51187)" d="m51.714141 14.228801c-35.36853 0-38.994141 1.999146-38.994141 37.296875v131.78124c0 35.29774 3.625611 38.92188 38.994141 38.92188h146.01172c35.36853 0 38.99414-3.62414 38.99414-38.92188v-112.15624c0-35.297735-3.62561-40.92188-38.99414-40.92188h-87.00586l-16-16z" style="filter:url(#filter959);opacity:.1"/>
   <path transform="matrix(.26458333 0 0 .26458333 .79374998 230.51187)" d="m51.714141 13.228801c-35.36853 0-38.994141 1.999146-38.994141 37.296875v131.78124c0 35.29774 3.625611 38.92188 38.994141 38.92188h146.01172c35.36853 0 38.99414-3.62414 38.99414-38.92188v-112.15624c0-35.29774-3.62561-40.92188-38.99414-40.92188h-87.00586l-16-16z" style="fill:url(#linearGradient1057);filter:url(#filter1067);opacity:.4"/>
   <path d="m14.476449 234.01199c-9.3579194 0-10.317199 0.52894-10.317199 9.86813v13.4152h59.266671v-8.22275c0-9.33919-0.959281-10.82725-10.317202-10.82725h-23.020301l-4.233339-4.23333z" style="fill:#f34f17"/>
   <path transform="matrix(.26458333 0 0 .26458333 -6.4240801 222.37032)" d="M 78.99353,92 C 43.625,92 40,95.625 40,130.92273 v 82.15454 C 40,248.375 43.625,252 78.99353,252 H 225.00647 C 260.375,252 264,248.375 264,213.07727 V 114.92273 C 264,79.625 260.375,76 225.00647,76 H 143.75 l -16.00782,16 z" clip-path="url(#clipPath977)" style="fill:#903906;filter:url(#filter989);opacity:.5"/>
   <path d="m14.476289 246.71199c-9.3579192 0-10.317039 0.95911-10.317039 10.2983v21.73672c0 9.3392 0.9591202 10.29831 10.317039 10.29831h38.632591c9.357919 0 10.317041-0.95911 10.317041-10.29831v-25.97005c0-9.33919-0.959122-10.29831-10.317041-10.29831h-21.49911l-4.2354 4.23334z" style="fill:url(#linearGradient4226)"/>
   <path d="m14.476449 234.01199c-9.3579194 0-10.317199 0.52894-10.317199 9.86813v0.52916c0-9.33919 0.95928-9.86813 10.317199-9.86813h11.37863l4.233339 4.23334h23.020301c9.357921 0 10.317202 1.48805 10.317202 10.82724v-0.52916c0-9.3392-0.959281-10.82725-10.317202-10.82725h-23.020301l-4.233339-4.23333z" style="fill:url(#radialGradient1371);opacity:.4"/>
   <path d="m31.60977 242.47865-4.2354 4.23334h-12.897921c-9.3579194 0-10.317199 0.95889-10.317199 10.29808v0.52916c0-9.33919 0.95928-10.29808 10.317199-10.29808h12.897921l4.2354-4.23333h21.498949c9.357921 0 10.317202 0.95889 10.317202 10.29808v-0.52917c0-9.33919-0.959281-10.29808-10.317202-10.29808z" style="fill:url(#radialGradient1363);opacity:.4"/>
   <path d="m63.425921 271.58282-16.933341 16.93333h6.616139c9.357921 0 10.317202-0.95888 10.317202-10.29808z" style="fill:#ffffff;opacity:.1"/>
   <path d="m4.1592496 278.21807v0.52917c0 9.33919 0.95928 10.29808 10.317199 10.29808h38.63227c9.357921 0 10.317202-0.95889 10.317202-10.29808v-0.52917c0 9.3392-0.959281 10.29808-10.317202 10.29808h-38.63227c-9.3579194 0-10.317199-0.95888-10.317199-10.29808z" style="fill:#491706;opacity:.2"/>
   <path d="m41.421315 252.92643c-0.297921-3e-3 -0.694108 0.0438-1.221105 0.12299l-9.517247 1.41025c-2.117196 0.45083-2.117196 0.59048-2.117196 2.37918v16.77214c-0.156051-0.10929-0.309986-0.21906-0.471276-0.32715v5.3e-4c-0.67265-0.45077-1.38938-0.77154-2.352305-0.77154-1.206156 0-1.92569 0.46191-2.361115 1.07022-0.435398 0.60831-0.579808 1.37512-0.579808 1.96784 0 0.71473 0.244211 1.47749 0.773616 2.05879 0.529378 0.5813 1.343263 0.98855 2.513541 0.98857 1.321462 0 2.251075-0.36919 2.776564-1.08986 0.413729-0.56741 0.642356-1.32528 0.72398-2.26033v-3e-3c0.01138-0.11344 0.01958-0.2298 0.02688-0.34985 0.01111-0.18477 0.0087-0.53066 0.0087-0.53066v-13.22916c0-1.5875-1.59e-4 -1.68229 2.117698-2.04432l7.402142-1.048c2.088435-0.27338 2.120794-0.0837 2.121297 1.05782v12.39304c-0.156052-0.10926-0.309986-0.21902-0.471276-0.32711v5.2e-4c-0.67265-0.45077-1.38938-0.77154-2.352305-0.77154-1.206156 0-1.92569 0.46191-2.361115 1.07022-0.435398 0.60831-0.579808 1.37512-0.579808 1.96784 0 0.71474 0.244211 1.47749 0.773615 2.05879 0.529379 0.5813 1.343263 0.98855 2.513542 0.98857 1.321461 0 2.251075-0.36919 2.776564-1.08986 0.413729-0.5674 0.642355-1.32527 0.723979-2.26032v-3e-3c0.01138-0.11344 0.01958-0.2298 0.02688-0.34985 0.01111-0.18476 0.0087-0.53065 0.0087-0.53065v-17.45837c0-1.39234-9e-3 -1.8535-0.902785-1.86345z" style="fill:#ffffff;opacity:.7"/>
  </g>
 </g>
</svg>
