<svg xmlns="http://www.w3.org/2000/svg" width="24" height="24" version="1">
 <defs>
  <style id="current-color-scheme" type="text/css">
   .ColorScheme-Text { color:#5c616c; } .ColorScheme-Highlight { color:#5294e2; } .ColorScheme-ButtonBackground { color:#d3dae3; }
  </style>
 </defs>
 <g transform="matrix(1.125,0,0,1.125,-438.0004,-199.125)">
  <path style="fill:currentColor;" class="ColorScheme-Text" d="M 6.375 6.75 C 5.6351887 6.75 5.04818 6.8166544 4.5546875 7.0019531 C 4.061195 7.1872069 3.6652469 7.5218963 3.4316406 7.9453125 C 2.9644056 8.7921563 3.0163912 9.8286765 3 11.244141 L 3 11.248047 L 3 13.501953 L 3 13.505859 C 3.0163125 14.921323 2.9643494 15.957843 3.4316406 16.804688 C 3.6652581 17.228104 4.061195 17.562793 4.5546875 17.748047 C 5.0481913 17.933098 5.6351887 18 6.375 18 L 13.125 18 C 13.864811 18 14.449856 17.933346 14.943359 17.748047 C 15.436852 17.562804 15.832789 17.228104 16.066406 16.804688 C 16.516451 15.98904 16.486258 14.98903 16.498047 13.652344 C 18.245845 14.647458 19.831275 15.513187 21 16.066406 L 21 8.6835938 C 19.854623 9.2262412 18.264971 10.096699 16.498047 11.101562 C 16.486181 9.7628077 16.516943 8.7617919 16.066406 7.9453125 C 15.832789 7.5218962 15.436852 7.1871956 14.943359 7.0019531 C 14.449856 6.8169019 13.864811 6.75 13.125 6.75 L 6.375 6.75 z M 6.375 7.875 L 13.125 7.875 C 13.791439 7.875 14.256441 7.9449325 14.548828 8.0546875 C 14.841227 8.1644875 14.966239 8.281945 15.080078 8.4882812 C 15.307227 8.8999863 15.358451 9.8341537 15.375 11.25 L 15.375 11.734375 L 15.375 13.019531 L 15.375 13.494141 C 15.358575 14.915612 15.307801 15.847104 15.080078 16.259766 C 14.966228 16.466102 14.841238 16.585557 14.548828 16.695312 C 14.256429 16.80508 13.791439 16.875 13.125 16.875 L 6.375 16.875 C 5.7085613 16.875 5.2435594 16.805068 4.9511719 16.695312 C 4.6587731 16.585512 4.5337606 16.466102 4.4199219 16.259766 C 4.1927731 15.848072 4.1415487 14.915835 4.125 13.5 L 4.125 13.494141 L 4.125 11.255859 L 4.125 11.25 C 4.1415375 9.8341537 4.1927619 8.8999863 4.4199219 8.4882812 C 4.5337606 8.281945 4.6587731 8.1644425 4.9511719 8.0546875 C 5.2435594 7.9449213 5.7085613 7.875 6.375 7.875 z M 7 9 L 7 16 L 9 16 L 9 9 L 7 9 z M 11 9 L 11 16 L 13 16 L 13 9 L 11 9 z" transform="matrix(0.88888889,0,0,0.88888889,389.33369,177)"/>
 </g>
</svg>
