<svg xmlns="http://www.w3.org/2000/svg" style="enable-background:new" width="24" height="24" version="1.1">
 <g transform="translate(-465.0004,363.00336)">
  <path class="warning" d="m 477.0004,-361.00336 c -1.01355,1.00016 -1.98424,2.13797 -3.00967,3.13305 h -3.85728 v 3.85728 c -0.99524,1.02547 -2.13277,1.9961 -3.13305,3.00967 1.00051,1.01389 2.13769,2.02368 3.13305,3.05259 v 3.81436 h 3.85462 c 1.02641,0.99562 1.9979,2.13193 3.01233,3.13305 1.01475,-1.00133 2.02547,-2.13729 3.05525,-3.13305 h 3.8117 v -3.81436 c 0.99541,-1.02886 2.13249,-2.03874 3.13305,-3.05259 -1.00023,-1.01363 -2.13788,-1.98415 -3.13305,-3.00967 v -3.85728 h -3.81436 c -1.02886,-0.99541 -2.03875,-2.13249 -3.05259,-3.13305 z m -1.37339,4.50644 h 2.74678 v 4.1148 2.75215 h -2.74678 v -2.75215 z m 0,8.23497 h 2.74678 v 2.74678 h -2.74678 z" style="fill:#808080"/>
 </g>
</svg>
