<?xml version="1.0" encoding="UTF-8" standalone="no"?>
<!-- Created with Inkscape (http://www.inkscape.org/) -->

<svg
   xmlns:dc="http://purl.org/dc/elements/1.1/"
   xmlns:cc="http://creativecommons.org/ns#"
   xmlns:rdf="http://www.w3.org/1999/02/22-rdf-syntax-ns#"
   xmlns:svg="http://www.w3.org/2000/svg"
   xmlns="http://www.w3.org/2000/svg"
   xmlns:xlink="http://www.w3.org/1999/xlink"
   xmlns:sodipodi="http://sodipodi.sourceforge.net/DTD/sodipodi-0.dtd"
   xmlns:inkscape="http://www.inkscape.org/namespaces/inkscape"
   width="16"
   height="16"
   viewBox="0 0 4.2333332 4.2333335"
   version="1.1"
   id="svg951"
   inkscape:version="0.92.3 (2405546, 2018-03-11)"
   sodipodi:docname="application-pdf-symbolic.svg">
  <defs
     id="defs945">
    <clipPath
       clipPathUnits="userSpaceOnUse"
       id="clipPath983">
      <path
         sodipodi:nodetypes="scccssscsss"
         inkscape:connector-curvature="0"
         id="path985"
         d="m 325.09646,237 c -2.80769,0 -3.10979,0.28839 -3.09603,3.10176 V 244 v 3.89824 c -0.0138,2.81337 0.28834,3.10176 3.09603,3.10176 h 5.8075 C 333.71166,251 334,250.71165 334,247.89824 V 244 240.10176 C 334,237.28836 333.71165,237 330.90396,237 Z"
         style="color:#000000;display:inline;overflow:visible;visibility:visible;opacity:1;fill:#46a926;fill-opacity:1;fill-rule:nonzero;stroke:none;stroke-width:2;stroke-miterlimit:4;stroke-dasharray:none;stroke-opacity:1;marker:none;enable-background:accumulate" />
    </clipPath>
    <linearGradient
       inkscape:collect="always"
       xlink:href="#linearGradient4246"
       id="linearGradient920"
       gradientUnits="userSpaceOnUse"
       gradientTransform="matrix(0,-0.00953665,-0.00953638,0,6.0179589,297.16911)"
       x1="459.03448"
       y1="419.23337"
       x2="35.310345"
       y2="207.36522" />
    <linearGradient
       inkscape:collect="always"
       id="linearGradient4246">
      <stop
         style="stop-color:#e20e0e;stop-opacity:1"
         offset="0"
         id="stop4248" />
      <stop
         style="stop-color:#f72424;stop-opacity:1"
         offset="1"
         id="stop4250" />
    </linearGradient>
  </defs>
  <sodipodi:namedview
     id="base"
     pagecolor="#ffffff"
     bordercolor="#666666"
     borderopacity="1.0"
     inkscape:pageopacity="0.0"
     inkscape:pageshadow="2"
     inkscape:zoom="51.875"
     inkscape:cx="0.76144575"
     inkscape:cy="8"
     inkscape:document-units="px"
     inkscape:current-layer="g1044"
     showgrid="false"
     units="px"
     inkscape:window-width="1920"
     inkscape:window-height="1009"
     inkscape:window-x="0"
     inkscape:window-y="34"
     inkscape:window-maximized="1" />
  <metadata
     id="metadata948">
    <rdf:RDF>
      <cc:Work
         rdf:about="">
        <dc:format>image/svg+xml</dc:format>
        <dc:type
           rdf:resource="http://purl.org/dc/dcmitype/StillImage" />
        <dc:title />
      </cc:Work>
    </rdf:RDF>
  </metadata>
  <g
     inkscape:label="Livello 1"
     inkscape:groupmode="layer"
     id="layer1"
     transform="translate(0,-292.76665)">
    <g
       style="display:inline;stroke-width:16;enable-background:new"
       transform="matrix(0.01653646,0,0,0.01653646,-0.72840135,292.15062)"
       id="g1044">
      <path
         style="fill:#808080;fill-opacity:1;stroke:#808080;stroke-width:3.16040254;stroke-miterlimit:4;stroke-dasharray:none;stroke-opacity:1"
         inkscape:connector-curvature="0"
         id="path1042"
         d="m 127.5445,188.78075 c 7.69671,-15.08589 16.4439,-32.0829 23.44511,-49.14732 v 0 l 2.76826,-6.73633 C 144.61305,98.098187 139.12946,70.164948 144.02831,52.103001 v 0 c 1.31877,-4.708954 6.77278,-7.565985 12.6038,-7.565985 v 0 l 3.55322,0.05232 h 0.65216 c 7.9829,-0.122416 11.74182,10.032268 12.16834,13.980368 v 0 c 0.70446,6.575358 -2.33763,17.703522 -2.33763,17.703522 v 0 c 0,-4.493644 0.1761,-11.754881 -2.66028,-18.020666 v 0 c -3.30143,-7.250231 -6.45496,-11.58151 -9.2824,-12.268083 v 0 c -1.42747,0.953495 -2.81507,2.927893 -3.29042,6.726023 v 0 c -0.98446,5.32536 -1.27958,12.047252 -1.27958,15.512424 v 0 c 0,12.242636 2.41054,28.401724 7.14772,45.059576 v 0 c 0.89364,-2.5791 1.67996,-5.05706 2.30528,-7.37888 v 0 c 0.97138,-3.65917 7.14706,-27.915349 7.14706,-27.915349 v 0 c 0,0 -1.55614,32.288609 -3.73004,42.058079 v 0 c -0.46573,2.06453 -0.97961,4.10634 -1.51485,6.19631 v 0 c 7.81159,21.82637 20.39888,41.30684 35.41462,55.32712 v 0 c 5.92043,5.53312 13.39769,9.99444 20.47455,14.06086 v 0 c 15.45466,-2.2083 29.68406,-3.25122 41.5552,-3.11982 v 0 c 15.74977,0.20777 27.31063,2.53713 31.9921,7.14842 v 0 c 2.29221,2.24131 3.22232,4.94836 3.51125,7.98288 v 0 c 0.0687,1.18052 -0.50632,3.95429 -0.67487,4.6505 v 0 c 0.16857,-0.84274 0.16857,-4.9869 -12.47447,-9.02237 v 0 c -9.95729,-3.18312 -28.59297,-3.08406 -50.95455,-0.70378 v 0 c 25.86459,12.65403 51.06256,18.94114 59.0482,15.1719 v 0 c 1.95239,-0.95143 4.32029,-4.19577 4.32029,-4.19577 v 0 c 0,0 -1.40754,6.39513 -2.41813,7.9939 v 0 c -1.28988,1.73706 -3.82014,3.61858 -6.219,4.25287 v 0 c -12.61137,3.36473 -45.43931,-4.42142 -74.05773,-20.77381 v 0 c -31.97422,4.70897 -67.08889,13.40799 -95.23607,22.64019 v 0 c -27.660119,48.47452 -48.455271,70.73772 -65.372472,62.26846 v 0 l -6.219694,-3.12738 c -2.528186,-1.44605 -2.914126,-4.96626 -2.329366,-7.83292 v 0 c 1.972331,-9.64977 14.072546,-24.18395 38.378266,-38.69746 v 0 c 2.616252,-1.58297 14.270015,-7.74488 14.270015,-7.74488 v 0 c 0,0 -8.627492,8.35026 -10.648674,9.98894 v 0 c -19.399993,15.89767 -33.718164,35.89823 -33.361109,43.65203 v 0 l 0.07009,0.67624 c 16.479666,-2.34863 41.193337,-35.89133 72.965294,-98.05799 m 10.06872,5.15545 c -5.30679,9.99444 -10.49388,19.26103 -15.28265,27.7695 v 0 c 26.48994,-11.09858 55.00105,-18.20091 82.14108,-23.24627 v 0 c -3.64747,-2.51856 -7.18831,-5.18573 -10.52003,-8.00492 v 0 C 179.00599,177.80123 167.6116,162.015 159.35214,145.40324 v 0 c -5.23798,14.11177 -11.46662,29.10755 -21.73899,48.533" />
    </g>
  </g>
</svg>
