<?xml version="1.0" encoding="UTF-8" standalone="no"?>
<!-- Created with Inkscape (http://www.inkscape.org/) -->

<svg
   xmlns:dc="http://purl.org/dc/elements/1.1/"
   xmlns:cc="http://creativecommons.org/ns#"
   xmlns:rdf="http://www.w3.org/1999/02/22-rdf-syntax-ns#"
   xmlns:svg="http://www.w3.org/2000/svg"
   xmlns="http://www.w3.org/2000/svg"
   xmlns:sodipodi="http://sodipodi.sourceforge.net/DTD/sodipodi-0.dtd"
   xmlns:inkscape="http://www.inkscape.org/namespaces/inkscape"
   id="svg7384"
   width="16"
   height="16"
   version="1.1"
   sodipodi:docname="face-raspberry.svg"
   inkscape:version="0.92.3 (2405546, 2018-03-11)">
  <defs
     id="defs9" />
  <sodipodi:namedview
     pagecolor="#ffffff"
     bordercolor="#666666"
     borderopacity="1"
     objecttolerance="10"
     gridtolerance="10"
     guidetolerance="10"
     inkscape:pageopacity="0"
     inkscape:pageshadow="2"
     inkscape:window-width="1210"
     inkscape:window-height="841"
     id="namedview7"
     showgrid="false"
     inkscape:zoom="14.75"
     inkscape:cx="0.30508475"
     inkscape:cy="8"
     inkscape:window-x="0"
     inkscape:window-y="34"
     inkscape:window-maximized="0"
     inkscape:current-layer="svg7384" />
  <metadata
     id="metadata90">
    <rdf:RDF>
      <cc:Work
         rdf:about="">
        <dc:format>image/svg+xml</dc:format>
        <dc:type
           rdf:resource="http://purl.org/dc/dcmitype/StillImage" />
        <dc:title>Gnome Symbolic Icon Theme</dc:title>
      </cc:Work>
    </rdf:RDF>
  </metadata>
  <title
     id="title9167">Gnome Symbolic Icon Theme</title>
  <ellipse
     style="opacity:1;fill:#f22c42;fill-opacity:1;stroke:none;stroke-width:1;stroke-linecap:butt;stroke-linejoin:round;stroke-miterlimit:4;stroke-dasharray:none;stroke-dashoffset:0;stroke-opacity:1"
     id="path819"
     cx="9.8305082"
     cy="11.898305"
     rx="2.5762713"
     ry="2.2711864" />
  <g
     id="g71291"
     transform="matrix(1.1428571,0,0,1.1428571,-665.14283,-617.14283)"
     style="fill:#fdc92b;fill-opacity:1">
    <path
       id="path6188"
       d="m 589,540 c -3.866,0 -7,3.134 -7,7 0,3.866 3.134,7 7,7 3.866,0 7,-3.134 7,-7 0,-3.866 -3.134,-7 -7,-7 z m -2,4 c 0.55833,0 1.0312,0.47292 1.0312,1.0312 v 0.96875 c 0,0.55833 -0.47292,1 -1.0312,1 -0.55828,0 -1,-0.44167 -1,-1 V 545.0312 C 586,544.47287 586.44167,544 587,544 Z m 4,0 c 0.55833,0 1,0.47292 1,1.0312 v 0.96875 c 0,0.55833 -0.44167,1 -1,1 -0.55833,0 -1,-0.44167 -1,-1 V 545.0312 C 590,544.47287 590.44167,544 591,544 Z m -7,4.0625 c 0.99656,0.6369 4.0165,0.9375 5,0.9375 0.49176,0 1.4286,0.0145 2.4062,-0.0937 0.97763,-0.10827 1.996,-0.35958 2.5938,-0.84375 v 0.5 c 0,0.44149 -0.75339,0.91906 -2.1562,1.1875 l 0.25,0.53125 c 0.27902,0.60331 0.0833,1.2756 -0.4375,1.5312 l -0.25,0.125 c -0.52084,0.25561 -1.1749,-0.0293 -1.4688,-0.625 l -0.625,-1.2812 c -0.0171,-0.0347 -0.0191,-0.0351 -0.0312,-0.0625 -0.0961,10e-4 -0.18233,0 -0.28125,0 -3.2558,0 -5,-0.87374 -5,-1.4062 v -0.5 z"
       style="fill:#fdc92b;fill-opacity:1"
       inkscape:connector-curvature="0" />
  </g>
</svg>
