<svg xmlns="http://www.w3.org/2000/svg" width="16" height="16" version="1.1">
 <g transform="translate(-441.0002,-519)">
  <path d="m 442.76687,523.36667 c -0.80509,1.19169 -1.26667,2.62026 -1.26667,4.16666 0,4.12373 3.34294,7.46667 7.46667,7.46667 4.12372,0 7.46666,-3.34294 7.46666,-7.46667 0,-1.5464 -0.46158,-2.97497 -1.26666,-4.16666 -0.2122,0.14476 -0.45274,0.26751 -0.66667,0.36666 -0.90687,0.42034 -1.97813,0.6 -3.13333,0.6 h -4.8 c -1.1552,0 -2.22647,-0.17966 -3.13334,-0.6 -0.21393,-0.0992 -0.45447,-0.2219 -0.66666,-0.36666 z m 4.06666,2.03333 c 0.59556,0 1.1,0.50445 1.1,1.1 v 1.03333 c 0,0.59556 -0.50444,1.06667 -1.1,1.06667 -0.59555,0 -1.06666,-0.47111 -1.06666,-1.06667 V 526.5 c 0,-0.59555 0.47111,-1.1 1.06666,-1.1 z m 4.26667,0 c 0.59555,0 1.06667,0.50445 1.06667,1.1 v 1.03333 c 0,0.59556 -0.47112,1.06667 -1.06667,1.06667 -0.59555,0 -1.06667,-0.47111 -1.06667,-1.06667 V 526.5 c 0,-0.59555 0.47112,-1.1 1.06667,-1.1 z m -7.46667,3.26667 c 0.763,1.14602 2.38425,2.06666 5.33334,2.06666 2.61575,0 4.49154,-0.80043 5.33333,-2.06666 V 529.2 c 0,0.72638 -0.89376,2.56667 -5.33333,2.56667 -4.13958,0 -5.33334,-1.99866 -5.33334,-2.56667 z" style="fill:#fdc92b"/>
  <path d="m 446.56665,519 c -1.02252,0 -1.94841,0.20042 -2.66666,0.53333 -0.71825,0.33292 -1.33334,0.84802 -1.33334,1.6 0,0.75198 0.61509,1.26709 1.33334,1.6 0.71825,0.33292 1.64414,0.53334 2.66666,0.53334 h 4.8 c 1.02253,0 1.94842,-0.20042 2.66667,-0.53334 0.71825,-0.33291 1.33333,-0.84802 1.33333,-1.6 0,-0.75198 -0.61508,-1.26708 -1.33333,-1.6 C 453.31507,519.20042 452.38918,519 451.36665,519 Z m 0,1.06667 h 4.8 c 0.88986,0 1.7037,0.18785 2.23334,0.43333 0.52963,0.24548 0.7,0.49891 0.7,0.63333 0,0.13442 -0.17037,0.38785 -0.7,0.63334 -0.52964,0.24548 -1.34348,0.43333 -2.23334,0.43333 h -4.8 c -0.88985,0 -1.7037,-0.18785 -2.23333,-0.43333 -0.52963,-0.24549 -0.7,-0.49892 -0.7,-0.63334 0,-0.13442 0.17037,-0.38785 0.7,-0.63333 0.52963,-0.24548 1.34348,-0.43333 2.23333,-0.43333 z" style="fill:#fdc92b"/>
 </g>
</svg>
