<?xml version="1.0" encoding="UTF-8" standalone="no"?>
<!-- Created with Inkscape (http://www.inkscape.org/) -->

<svg
   xmlns:dc="http://purl.org/dc/elements/1.1/"
   xmlns:cc="http://creativecommons.org/ns#"
   xmlns:rdf="http://www.w3.org/1999/02/22-rdf-syntax-ns#"
   xmlns:svg="http://www.w3.org/2000/svg"
   xmlns="http://www.w3.org/2000/svg"
   xmlns:sodipodi="http://sodipodi.sourceforge.net/DTD/sodipodi-0.dtd"
   xmlns:inkscape="http://www.inkscape.org/namespaces/inkscape"
   id="svg7384"
   width="16"
   height="16"
   version="1.1"
   sodipodi:docname="face-devilish.svg"
   inkscape:version="0.92.3 (2405546, 2018-03-11)">
  <defs
     id="defs9" />
  <sodipodi:namedview
     pagecolor="#ffffff"
     bordercolor="#666666"
     borderopacity="1"
     objecttolerance="10"
     gridtolerance="10"
     guidetolerance="10"
     inkscape:pageopacity="0"
     inkscape:pageshadow="2"
     inkscape:window-width="1088"
     inkscape:window-height="623"
     id="namedview7"
     showgrid="false"
     inkscape:zoom="14.75"
     inkscape:cx="0.30508475"
     inkscape:cy="8"
     inkscape:window-x="0"
     inkscape:window-y="34"
     inkscape:window-maximized="0"
     inkscape:current-layer="svg7384" />
  <metadata
     id="metadata90">
    <rdf:RDF>
      <cc:Work
         rdf:about="">
        <dc:format>image/svg+xml</dc:format>
        <dc:type
           rdf:resource="http://purl.org/dc/dcmitype/StillImage" />
        <dc:title>Gnome Symbolic Icon Theme</dc:title>
      </cc:Work>
    </rdf:RDF>
  </metadata>
  <title
     id="title9167">Gnome Symbolic Icon Theme</title>
  <rect
     style="opacity:1;fill:#000000;fill-opacity:1;stroke:none;stroke-width:0.96248657;stroke-linecap:butt;stroke-linejoin:round;stroke-miterlimit:4;stroke-dasharray:none;stroke-dashoffset:0;stroke-opacity:1"
     id="rect819"
     width="10.237288"
     height="10.169492"
     x="2.9152541"
     y="3.5932202"
     rx="1.9541251e-15" />
  <g
     id="g71291"
     transform="matrix(1.1148553,0,0,1.1148553,-492.58702,-601.62978)"
     style="fill:#f22c42;fill-opacity:1">
    <path
       id="path5619-4"
       d="m 449,540 c -1.6522,0 -3.1777,0.57397 -4.375,1.5312 -1.1338,-0.44386 -2.0934,-0.94913 -2.6875,-1.4688 l -0.0937,0.59375 c -0.0334,0.27084 0.10323,1.513 1.1562,2.75 -0.63172,1.0517 -1,2.2776 -1,3.5938 0,3.866 3.134,7 7,7 3.866,0 7,-3.134 7,-7 0,-1.2906 -0.35953,-2.4931 -0.96875,-3.5312 1.011,-1.2181 1.1892,-2.3894 1.1562,-2.6562 l -0.0937,-0.59375 c -0.57868,0.50616 -1.4986,0.97101 -2.5938,1.4062 -0.006,-0.005 -0.0256,0.005 -0.0312,0 -1.2151,-1.0152 -2.762,-1.625 -4.4689,-1.625 z m -2,4 c 0.55833,0 1.0312,0.47292 1.0312,1.0312 v 0.96875 c 0,0.55833 -0.47292,1 -1.0312,1 -0.55828,0 -1,-0.44167 -1,-1 V 545.0312 C 446,544.47287 446.44167,544 447,544 Z m 4,0 c 0.55833,0 1,0.47292 1,1.0312 v 0.96875 c 0,0.55833 -0.44167,1 -1,1 -0.55833,0 -1,-0.44167 -1,-1 V 545.0312 C 450,544.47287 450.44167,544 451,544 Z m 2,4.9781 c -0.0291,0.34377 -0.92509,3.0032 -4,3.0094 -2.7886,0.006 -4,-2.5584 -4,-2.9844 z"
       style="fill:#f22c42;fill-opacity:1"
       inkscape:connector-curvature="0" />
  </g>
</svg>
