<svg xmlns="http://www.w3.org/2000/svg" width="16" height="16" version="1.1">
 <g transform="matrix(1.1428571,0,0,1.1428571,-573.71426,-617.14283)" style="fill:#eab305">
  <path d="m 509,540 c -3.866,0 -7,3.134 -7,7 0,3.866 3.134,7 7,7 3.866,0 7,-3.134 7,-7 0,-3.866 -3.134,-7 -7,-7 z m -2,4 c 0.55833,0 1.0312,0.47292 1.0312,1.0312 v 0.96875 c 0,0.55833 -0.47292,1 -1.0312,1 -0.55828,0 -1,-0.44167 -1,-1 V 545.0312 C 506,544.47287 506.44167,544 507,544 Z m 4,0 c 0.55833,0 1,0.47292 1,1.0312 v 0.96875 c 0,0.55833 -0.44167,1 -1,1 -0.55833,0 -1,-0.44167 -1,-1 V 545.0312 C 510,544.47287 510.44167,544 511,544 Z m -6,4 8,2 v 1 l -8,-2 z" style="fill:#eab305"/>
 </g>
</svg>
