<svg xmlns="http://www.w3.org/2000/svg" width="16" height="16" version="1.1">
 <g transform="matrix(1.1428571,0,0,1.1428571,-550.85712,-617.10855)" style="fill:#fdc92b">
  <path d="m 489,539.97 c -3.866,0 -7,3.134 -7,7 0,3.866 3.134,7 7,7 3.866,0 7,-3.134 7,-7 0,-3.866 -3.134,-7 -7,-7 z m -2.4688,3.7188 c 0.73437,0 1.4688,0.44603 1.4688,1.3125 -1.5,-0.33848 -3.125,1.7329 -3,0 0.0625,-0.86647 0.79688,-1.3125 1.5312,-1.3125 z m 4.9375,0 c 0.73437,0 1.4688,0.44603 1.5312,1.3125 0.125,1.7329 -1.5,-0.33848 -3,0 0,-0.86647 0.73438,-1.3125 1.4688,-1.3125 z m -7.4688,4.3125 c 2,1.3034 7.9871,1.3034 10.031,0 l -0.0312,0.53125 c -0.0364,0.42971 -0.99999,3.375 -5,3.4062 -4,0.0312 -5,-2.78 -5,-3.3125 v -0.625 z" style="fill:#fdc92b"/>
 </g>
</svg>
