<svg xmlns="http://www.w3.org/2000/svg" width="16" height="16" version="1.1">
 <rect style="fill:#aea795" width="10.373" height="4.475" x="2.92" y="8.68" rx="0"/>
 <g transform="matrix(1.1428571,0,0,1.1428571,-596.57141,-617.14283)" style="fill:#fdc92b">
  <path d="m 529,540 c -3.866,0 -7,3.134 -7,7 0,3.866 3.134,7 7,7 3.866,0 7,-3.134 7,-7 0,-3.866 -3.134,-7 -7,-7 z m -2,4 c 0.55833,0 1.0312,0.47292 1.0312,1.0312 v 0.96875 c 0,0.55833 -0.47292,1 -1.0312,1 -0.55828,0 -1,-0.44167 -1,-1 V 545.0312 C 526,544.47287 526.44167,544 527,544 Z m 4,0 c 0.55833,0 1,0.47292 1,1.0312 v 0.96875 c 0,0.55833 -0.44167,1 -1,1 -0.55833,0 -1,-0.44167 -1,-1 V 545.0312 C 530,544.47287 530.44167,544 531,544 Z m -6,4 4,1 4,-1 c 0.0825,0.59047 -0.16081,1.054 -0.67132,1.1678 l -1.3287,0.33217 1.3088,0.32721 c 0.71468,0.1915 0.69117,0.74919 0.69117,1.1728 l -4,-1 -4,1 c -0.0655,-0.63125 0.0374,-0.98324 0.52023,-1.1301 l 1.4798,-0.36994 -1.5041,-0.33502 c -0.47451,-0.12796 -0.57901,-0.68121 -0.49587,-1.165 z" style="fill:#fdc92b"/>
 </g>
</svg>
