<?xml version="1.0" encoding="UTF-8" standalone="no"?>
<!-- Created with Inkscape (http://www.inkscape.org/) -->

<svg
   xmlns:dc="http://purl.org/dc/elements/1.1/"
   xmlns:cc="http://creativecommons.org/ns#"
   xmlns:rdf="http://www.w3.org/1999/02/22-rdf-syntax-ns#"
   xmlns:svg="http://www.w3.org/2000/svg"
   xmlns="http://www.w3.org/2000/svg"
   xmlns:xlink="http://www.w3.org/1999/xlink"
   xmlns:sodipodi="http://sodipodi.sourceforge.net/DTD/sodipodi-0.dtd"
   xmlns:inkscape="http://www.inkscape.org/namespaces/inkscape"
   width="256"
   height="256"
   viewBox="0 0 67.733332 67.733335"
   version="1.1"
   id="svg1488"
   inkscape:version="0.92.3 (2405546, 2018-03-11)"
   sodipodi:docname="nvidia-settings.svg">
  <defs
     id="defs1482">
    <clipPath
       clipPathUnits="userSpaceOnUse"
       id="clipPath1025">
      <path
         id="path1027"
         d="M 111.94141,84 C 99.359506,84.145 90.1531,83.713998 82.625,87.867188 c -3.7641,2.0768 -6.751838,5.574737 -8.398438,9.960937 C 72.580062,102.21433 72,107.4241 72,114 v 42 h 160 v -26 c 0,-6.5759 -0.57996,-11.78566 -2.22656,-16.17188 -0.205,-0.5455 -0.47919,-1.03993 -0.74219,-1.54296 -0.1,-0.1848 -0.17844,-0.38051 -0.27344,-0.56641 -1.727,-3.38752 -4.25471,-6.14522 -7.38281,-7.87109 C 213.8463,99.694146 204.64049,100.1454 192.05859,100 H 192 151.66797 L 135.45312,84 h -23.49218 z"
         style="color:#000000;font-style:normal;font-variant:normal;font-weight:normal;font-stretch:normal;font-size:medium;line-height:normal;font-family:sans-serif;font-variant-ligatures:none;font-variant-position:normal;font-variant-caps:normal;font-variant-numeric:normal;font-variant-alternates:normal;font-feature-settings:normal;text-indent:0;text-align:start;text-decoration:none;text-decoration-line:none;text-decoration-style:solid;text-decoration-color:#000000;letter-spacing:normal;word-spacing:normal;text-transform:none;writing-mode:lr-tb;direction:ltr;baseline-shift:baseline;text-anchor:start;white-space:normal;shape-padding:0;clip-rule:nonzero;display:inline;overflow:visible;visibility:visible;opacity:1;isolation:auto;mix-blend-mode:normal;color-interpolation:sRGB;color-interpolation-filters:linearRGB;solid-color:#000000;solid-opacity:1;fill:#e3dfd5;fill-opacity:1;fill-rule:nonzero;stroke:none;stroke-width:4.00000048;stroke-linecap:butt;stroke-linejoin:miter;stroke-miterlimit:4;stroke-dasharray:none;stroke-dashoffset:0;stroke-opacity:1;marker:none;color-rendering:auto;image-rendering:auto;shape-rendering:auto;text-rendering:auto;enable-background:accumulate"
         inkscape:connector-curvature="0" />
    </clipPath>
    <clipPath
       clipPathUnits="userSpaceOnUse"
       id="clipPath1082-3">
      <path
         sodipodi:nodetypes="sssssssss"
         inkscape:connector-curvature="0"
         id="path1084-6"
         d="M 361.9375,-212 C 507.2348,-212 528,-191.28677 528,-46.125 V 70.125 C 528,215.28618 507.2348,236 361.9375,236 H 214.0625 C 68.7652,236 48,215.28618 48,70.125 V -46.125 C 48,-191.28677 68.7652,-212 214.0625,-212 Z"
         style="display:inline;opacity:1;fill:#8c59d9;fill-opacity:1;stroke:none;stroke-width:2;stroke-linecap:round;stroke-linejoin:round;stroke-miterlimit:4;stroke-dasharray:none;stroke-dashoffset:0;stroke-opacity:1;enable-background:new" />
    </clipPath>
    <clipPath
       clipPathUnits="userSpaceOnUse"
       id="clipPath1082-3-5">
      <path
         sodipodi:nodetypes="sssssssss"
         inkscape:connector-curvature="0"
         id="path1084-6-6"
         d="M 361.9375,-212 C 507.2348,-212 528,-191.28677 528,-46.125 V 70.125 C 528,215.28618 507.2348,236 361.9375,236 H 214.0625 C 68.7652,236 48,215.28618 48,70.125 V -46.125 C 48,-191.28677 68.7652,-212 214.0625,-212 Z"
         style="display:inline;opacity:1;fill:#8c59d9;fill-opacity:1;stroke:none;stroke-width:2;stroke-linecap:round;stroke-linejoin:round;stroke-miterlimit:4;stroke-dasharray:none;stroke-dashoffset:0;stroke-opacity:1;enable-background:new" />
    </clipPath>
    <clipPath
       clipPathUnits="userSpaceOnUse"
       id="clipPath1082-3-92">
      <path
         sodipodi:nodetypes="sssssssss"
         inkscape:connector-curvature="0"
         id="path1084-6-02"
         d="M 361.9375,-212 C 507.2348,-212 528,-191.28677 528,-46.125 V 70.125 C 528,215.28618 507.2348,236 361.9375,236 H 214.0625 C 68.7652,236 48,215.28618 48,70.125 V -46.125 C 48,-191.28677 68.7652,-212 214.0625,-212 Z"
         style="display:inline;opacity:1;fill:#8c59d9;fill-opacity:1;stroke:none;stroke-width:2;stroke-linecap:round;stroke-linejoin:round;stroke-miterlimit:4;stroke-dasharray:none;stroke-dashoffset:0;stroke-opacity:1;enable-background:new" />
    </clipPath>
    <filter
       inkscape:collect="always"
       style="color-interpolation-filters:sRGB"
       id="filter913"
       x="-0.0232"
       width="1.0464"
       y="-0.024857143"
       height="1.0497143">
      <feGaussianBlur
         inkscape:collect="always"
         stdDeviation="2.32"
         id="feGaussianBlur915" />
    </filter>
    <filter
       inkscape:collect="always"
       style="color-interpolation-filters:sRGB"
       id="filter4569"
       x="-0.0116"
       width="1.0232"
       y="-0.012428571"
       height="1.024857">
      <feGaussianBlur
         inkscape:collect="always"
         stdDeviation="1.16"
         id="feGaussianBlur4571" />
    </filter>
    <linearGradient
       inkscape:collect="always"
       xlink:href="#linearGradient1013"
       id="linearGradient1108"
       x1="296"
       y1="-212"
       x2="296"
       y2="236"
       gradientUnits="userSpaceOnUse" />
    <linearGradient
       id="linearGradient1013"
       inkscape:collect="always">
      <stop
         id="stop1005"
         offset="0"
         style="stop-color:#ffffff;stop-opacity:1;" />
      <stop
         style="stop-color:#ffffff;stop-opacity:0.09803922"
         offset="0.125"
         id="stop1007" />
      <stop
         style="stop-color:#000000;stop-opacity:0.09803922"
         offset="0.92500001"
         id="stop1009" />
      <stop
         id="stop1011"
         offset="1"
         style="stop-color:#000000;stop-opacity:0.49803922" />
    </linearGradient>
    <clipPath
       clipPathUnits="userSpaceOnUse"
       id="clipPath1082-3-2">
      <path
         sodipodi:nodetypes="sssssssss"
         inkscape:connector-curvature="0"
         id="path1084-6-70"
         d="M 361.9375,-212 C 507.2348,-212 528,-191.28677 528,-46.125 V 70.125 C 528,215.28618 507.2348,236 361.9375,236 H 214.0625 C 68.7652,236 48,215.28618 48,70.125 V -46.125 C 48,-191.28677 68.7652,-212 214.0625,-212 Z"
         style="display:inline;opacity:1;fill:#8c59d9;fill-opacity:1;stroke:none;stroke-width:2;stroke-linecap:round;stroke-linejoin:round;stroke-miterlimit:4;stroke-dasharray:none;stroke-dashoffset:0;stroke-opacity:1;enable-background:new" />
    </clipPath>
  </defs>
  <sodipodi:namedview
     id="base"
     pagecolor="#ffffff"
     bordercolor="#666666"
     borderopacity="1.0"
     inkscape:pageopacity="0.0"
     inkscape:pageshadow="2"
     inkscape:zoom="3.4628043"
     inkscape:cx="71.687259"
     inkscape:cy="127.84507"
     inkscape:document-units="px"
     inkscape:current-layer="layer1"
     showgrid="true"
     units="px"
     inkscape:window-width="1920"
     inkscape:window-height="1009"
     inkscape:window-x="0"
     inkscape:window-y="34"
     inkscape:window-maximized="1"
     inkscape:snap-nodes="false">
    <inkscape:grid
       type="xygrid"
       id="grid2168" />
  </sodipodi:namedview>
  <metadata
     id="metadata1485">
    <rdf:RDF>
      <cc:Work
         rdf:about="">
        <dc:format>image/svg+xml</dc:format>
        <dc:type
           rdf:resource="http://purl.org/dc/dcmitype/StillImage" />
        <dc:title></dc:title>
      </cc:Work>
    </rdf:RDF>
  </metadata>
  <g
     inkscape:label="Livello 1"
     inkscape:groupmode="layer"
     id="layer1"
     transform="translate(0,-229.26666)">
    <path
       style="display:inline;opacity:0.2;fill:#000000;fill-opacity:1;stroke:none;stroke-width:2;stroke-linecap:round;stroke-linejoin:round;stroke-miterlimit:4;stroke-dasharray:none;stroke-dashoffset:0;stroke-opacity:1;filter:url(#filter913);enable-background:new"
       d="m 162.53675,5.5680003 c 72.64865,0 83.03125,10.3566147 83.03125,82.9375047 v 58.125005 c 0,72.58059 -10.3826,82.9375 -83.03125,82.9375 H 88.599254 c -72.648654,0 -83.0312541,-10.35691 -83.0312541,-82.9375 V 88.505505 c 0,-72.58089 10.3826001,-82.9375047 83.0312541,-82.9375047 z"
       id="path899"
       inkscape:connector-curvature="0"
       sodipodi:nodetypes="sssssssss"
       transform="matrix(0.26458333,0,0,0.26458333,0,232.67026)" />
    <path
       sodipodi:nodetypes="sssssssss"
       inkscape:connector-curvature="0"
       id="path4567"
       d="m 162.53675,3.5680003 c 72.64865,0 83.03125,10.3566147 83.03125,82.9375047 v 58.125005 c 0,72.58059 -10.3826,82.9375 -83.03125,82.9375 H 88.599254 c -72.648654,0 -83.0312541,-10.35691 -83.0312541,-82.9375 V 86.505505 c 0,-72.58089 10.3826001,-82.9375047 83.0312541,-82.9375047 z"
       style="display:inline;opacity:0.1;fill:#000000;fill-opacity:1;stroke:none;stroke-width:2;stroke-linecap:round;stroke-linejoin:round;stroke-miterlimit:4;stroke-dasharray:none;stroke-dashoffset:0;stroke-opacity:1;filter:url(#filter4569);enable-background:new"
       transform="matrix(0.26458333,0,0,0.26458333,0,232.67026)" />
    <path
       style="display:inline;opacity:1;fill:#4d4d4d;fill-opacity:1;stroke:none;stroke-width:0.52916664;stroke-linecap:round;stroke-linejoin:round;stroke-miterlimit:4;stroke-dasharray:none;stroke-dashoffset:0;stroke-opacity:1;enable-background:new"
       d="m 23.355584,233.61429 c -9.611188,0 -15.101641,0.68375 -18.19217,3.77032 -3.090525,3.08656 -3.776514,8.57135 -3.776514,18.17356 v 15.3789 c 0,9.60219 0.68599,15.08701 3.776514,18.17357 3.090528,3.08659 8.580982,3.77031 18.19217,3.77031 h 19.562629 c 9.611191,0 15.101645,-0.68372 18.192171,-3.77031 3.090527,-3.08656 3.776514,-8.57138 3.776514,-18.17357 v -15.3789 c 0,-9.60221 -0.685987,-15.087 -3.776514,-18.17356 -3.090526,-3.08657 -8.580983,-3.77032 -18.192171,-3.77032 z"
       id="rect877"
       inkscape:connector-curvature="0" />
    <path
       style="display:inline;opacity:0.2;fill:#131313;fill-opacity:1;stroke:none;stroke-width:0.52916664;stroke-linecap:round;stroke-linejoin:round;stroke-miterlimit:4;stroke-dasharray:none;stroke-dashoffset:0;stroke-opacity:1;enable-background:new"
       d="m 1.473198,270.40792 v 0.52915 c 0,9.60219 0.68599,15.08701 3.776514,18.17357 3.090529,3.08659 8.580982,3.77031 18.19217,3.77031 h 19.562631 c 9.61119,0 15.101644,-0.68372 18.19217,-3.77031 3.090527,-3.08656 3.776515,-8.57138 3.776515,-18.17357 v -0.52915 c 0,9.60217 -0.685988,15.08698 -3.776515,18.17356 -3.090526,3.08657 -8.58098,3.77032 -18.19217,3.77032 H 23.441882 c -9.611188,0 -15.101641,-0.68375 -18.19217,-3.77032 -3.090524,-3.08658 -3.776514,-8.57139 -3.776514,-18.17356 z"
       id="path917"
       inkscape:connector-curvature="0" />
    <path
       style="fill:#97e40c;fill-opacity:1;stroke-width:0.55363792"
       clip-path="none"
       d="m 29.743405,233.5909 0.0088,1.86965 v 15.60577 c 0.297894,-0.0228 0.582589,-0.0246 0.882116,-0.0346 11.537005,-0.38884 19.06602,9.44645 19.06602,9.44645 0,0 -8.635137,10.50168 -17.629931,10.50168 -0.824362,0 -1.593347,-0.0963 -2.318205,-0.22479 v 2.83704 c 0.61985,0.0787 1.26724,0.12144 1.937867,0.12144 8.370247,0 14.398458,-4.30085 20.259743,-9.36016 0.971778,0.77828 4.960617,2.70067 5.77846,3.52951 -5.572984,4.6658 -18.553884,8.39121 -25.917281,8.39121 -0.709771,0 -1.388779,-0.0219 -2.058789,-0.0863 v 16.2972 l 0.0057,0.37207 h 13.218832 c 2.402697,0 4.547457,-0.0433 6.462138,-0.15555 1.914682,-0.11236 3.59899,-0.29461 5.079275,-0.57309 1.480289,-0.27847 2.757096,-0.65373 3.856615,-1.15187 0.549756,-0.24906 1.054669,-0.5283 1.519285,-0.84232 0.464621,-0.31403 0.888682,-0.66233 1.274858,-1.048 0.386191,-0.38569 0.734581,-0.80975 1.049033,-1.27382 0.314444,-0.46405 0.594968,-0.96761 0.844391,-1.51671 0.498835,-1.09824 0.873961,-2.3743 1.152901,-3.85299 0.278939,-1.47867 0.461462,-3.16083 0.574127,-5.07359 0.112657,-1.91275 0.155546,-4.05603 0.155546,-6.45646 v -15.37841 c 0,-2.40043 -0.04292,-4.54419 -0.155546,-6.45697 -0.112665,-1.91276 -0.295188,-3.59438 -0.574127,-5.07307 -0.27894,-1.47869 -0.654066,-2.75372 -1.152901,-3.85196 -0.249423,-0.54911 -0.529947,-1.05421 -0.844391,-1.51826 -0.314452,-0.46404 -0.662842,-0.8871 -1.049033,-1.27279 -0.386176,-0.38568 -0.810237,-0.73449 -1.274858,-1.04851 -0.464616,-0.31402 -0.969529,-0.59327 -1.519285,-0.84233 -1.099519,-0.49812 -2.376326,-0.8734 -3.856615,-1.15186 -1.480285,-0.27847 -3.164593,-0.46067 -5.079275,-0.5731 -1.914681,-0.11236 -4.059441,-0.15451 -6.462138,-0.15451 z m 0.0088,40.00118 c -10.243271,-1.28863 -13.771769,-12.5951 -13.771769,-12.5951 0,0 4.609978,-6.75651 13.771769,-7.45691 v -2.47375 c -10.147847,0.81498 -18.927527,9.41183 -18.927527,9.41183 0,0 4.969215,14.39174 18.927527,15.70912 z m 1.65158,-20.12332 c -0.253604,-0.006 -0.509689,-0.006 -0.768946,0.002 -0.303398,0.0105 -0.587795,0.0491 -0.882634,0.0698 v 3.01015 c 0.54278,-0.0582 1.100804,-0.087 1.678451,-0.0868 5.314214,0 8.477517,4.15272 8.477517,4.15272 l -4.325316,3.6158 c -1.941735,-3.23688 -2.600891,-4.66162 -5.830652,-5.05189 v 9.20409 c 0.731996,0.24611 1.532496,0.38034 2.439644,0.38034 6.303327,0 12.180136,-8.14834 12.180136,-8.14834 0,0 -5.106546,-6.95039 -12.9682,-7.14788 z m -1.65158,14.91588 c -4.364457,-1.46644 -5.778459,-6.57479 -5.778459,-6.57479 0,0 2.5383,-3.01812 5.778459,-2.6293 v -2.62981 c -6.173447,0.66777 -9.896037,4.79247 -9.896037,4.79247 0,0 2.154402,8.03113 9.896037,9.41131 z"
       id="path978"
       inkscape:connector-curvature="0" />
    <g
       transform="matrix(0.52916667,0,0,0.52916667,0.74536401,228.74389)"
       id="g1930" />
    <path
       sodipodi:nodetypes="sssssssss"
       inkscape:connector-curvature="0"
       id="path1068"
       d="M 361.9375,-212 C 507.2348,-212 528,-191.28677 528,-46.125 V 70.125 C 528,215.28618 507.2348,236 361.9375,236 H 214.0625 C 68.7652,236 48,215.28618 48,70.125 V -46.125 C 48,-191.28677 68.7652,-212 214.0625,-212 Z"
       style="display:inline;opacity:0.4;fill:none;fill-opacity:1;stroke:url(#linearGradient1108);stroke-width:8;stroke-linecap:round;stroke-linejoin:round;stroke-miterlimit:4;stroke-dasharray:none;stroke-dashoffset:0;stroke-opacity:1;enable-background:new"
       clip-path="url(#clipPath1082-3-2)"
       transform="matrix(0.13229167,0,0,0.13229167,-4.876802,261.66013)" />
  </g>
</svg>
