<?xml version="1.0" encoding="UTF-8" standalone="no"?>
<!-- Created with Inkscape (http://www.inkscape.org/) -->

<svg
   xmlns:dc="http://purl.org/dc/elements/1.1/"
   xmlns:cc="http://creativecommons.org/ns#"
   xmlns:rdf="http://www.w3.org/1999/02/22-rdf-syntax-ns#"
   xmlns:svg="http://www.w3.org/2000/svg"
   xmlns="http://www.w3.org/2000/svg"
   xmlns:xlink="http://www.w3.org/1999/xlink"
   xmlns:sodipodi="http://sodipodi.sourceforge.net/DTD/sodipodi-0.dtd"
   xmlns:inkscape="http://www.inkscape.org/namespaces/inkscape"
   inkscape:export-ydpi="96"
   inkscape:export-xdpi="96"
   width="256"
   height="256"
   id="svg11300"
   sodipodi:version="0.32"
   inkscape:version="0.92.3 (2405546, 2018-03-11)"
   sodipodi:docname="onionshare.svg"
   inkscape:output_extension="org.inkscape.output.svg.inkscape"
   version="1.0"
   style="display:inline;enable-background:new"
   inkscape:export-filename="/home/sam/suru-template.png">
  <title
     id="title3004">Suru App Icon Template</title>
  <sodipodi:namedview
     stroke="#ef2929"
     fill="#f57900"
     id="base"
     pagecolor="#ffffff"
     bordercolor="#000000"
     borderopacity="0.25490196"
     inkscape:pageopacity="0"
     inkscape:pageshadow="2"
     inkscape:zoom="1"
     inkscape:cx="-424.15339"
     inkscape:cy="77.881268"
     inkscape:current-layer="svg11300"
     showgrid="false"
     inkscape:grid-bbox="true"
     inkscape:document-units="px"
     inkscape:showpageshadow="false"
     inkscape:window-width="1920"
     inkscape:window-height="1009"
     inkscape:window-x="0"
     inkscape:window-y="34"
     width="400px"
     height="300px"
     inkscape:snap-nodes="true"
     inkscape:snap-bbox="true"
     gridtolerance="10000"
     inkscape:object-nodes="true"
     inkscape:snap-grids="true"
     showguides="true"
     inkscape:guide-bbox="true"
     inkscape:window-maximized="1"
     inkscape:bbox-paths="true"
     inkscape:snap-bbox-midpoints="true"
     inkscape:snap-global="true"
     inkscape:object-paths="true"
     inkscape:snap-intersection-paths="true"
     inkscape:snap-smooth-nodes="true"
     inkscape:pagecheckerboard="false"
     showborder="true">
    <inkscape:grid
       spacingy="1"
       spacingx="1"
       id="grid5883"
       type="xygrid"
       enabled="true"
       visible="true"
       empspacing="4"
       snapvisiblegridlinesonly="true"
       originx="0"
       originy="0" />
    <inkscape:grid
       type="xygrid"
       id="grid11592"
       empspacing="2"
       visible="true"
       enabled="false"
       spacingx="0.5"
       spacingy="0.5"
       color="#ff0000"
       opacity="0.1254902"
       empcolor="#ff0000"
       empopacity="0.25098039"
       snapvisiblegridlinesonly="true"
       originx="0"
       originy="0" />
  </sodipodi:namedview>
  <defs
     id="defs3">
    <clipPath
       clipPathUnits="userSpaceOnUse"
       id="clipPath9430">
      <path
         sodipodi:nodetypes="sssssssss"
         inkscape:connector-curvature="0"
         id="path9432"
         d="m 166.0625,-196 h 179.875 C 491.2348,-196 512,-175.28677 512,-30.125 v 148.25 C 512,263.28618 491.2348,284 345.9375,284 H 166.0625 C 20.7652,284 0,263.28618 0,118.125 V -30.125 C 0,-175.28677 20.7652,-196 166.0625,-196 Z"
         style="color:#000000;display:inline;overflow:visible;visibility:visible;fill:#ffffff;fill-opacity:1;fill-rule:nonzero;stroke:none;stroke-width:1;marker:none;enable-background:new" />
    </clipPath>
    <clipPath
       clipPathUnits="userSpaceOnUse"
       id="clipPath1082">
      <path
         sodipodi:nodetypes="sssssssss"
         inkscape:connector-curvature="0"
         id="path1084"
         d="M 361.9375,-212 C 507.2348,-212 528,-191.28677 528,-46.125 V 70.125 C 528,215.28618 507.2348,236 361.9375,236 H 214.0625 C 68.7652,236 48,215.28618 48,70.125 V -46.125 C 48,-191.28677 68.7652,-212 214.0625,-212 Z"
         style="display:inline;opacity:1;fill:#8c59d9;fill-opacity:1;stroke:none;stroke-width:2;stroke-linecap:round;stroke-linejoin:round;stroke-miterlimit:4;stroke-dasharray:none;stroke-dashoffset:0;stroke-opacity:1;enable-background:new" />
    </clipPath>
    <filter
       inkscape:collect="always"
       style="color-interpolation-filters:sRGB"
       id="filter925"
       x="-0.0232"
       width="1.0464"
       y="-0.024857143"
       height="1.0497143">
      <feGaussianBlur
         inkscape:collect="always"
         stdDeviation="2.32"
         id="feGaussianBlur927" />
    </filter>
    <filter
       inkscape:collect="always"
       style="color-interpolation-filters:sRGB"
       id="filter931"
       x="-0.0116"
       width="1.0232"
       y="-0.012428571"
       height="1.024857">
      <feGaussianBlur
         inkscape:collect="always"
         stdDeviation="1.16"
         id="feGaussianBlur933" />
    </filter>
    <linearGradient
       inkscape:collect="always"
       xlink:href="#linearGradient1013"
       id="linearGradient1108"
       x1="296"
       y1="-212"
       x2="296"
       y2="236"
       gradientUnits="userSpaceOnUse" />
    <linearGradient
       id="linearGradient1013"
       inkscape:collect="always">
      <stop
         id="stop1005"
         offset="0"
         style="stop-color:#ffffff;stop-opacity:1;" />
      <stop
         style="stop-color:#ffffff;stop-opacity:0.09803922"
         offset="0.125"
         id="stop1007" />
      <stop
         style="stop-color:#000000;stop-opacity:0.09803922"
         offset="0.92500001"
         id="stop1009" />
      <stop
         id="stop1011"
         offset="1"
         style="stop-color:#000000;stop-opacity:0.49803922" />
    </linearGradient>
    <clipPath
       clipPathUnits="userSpaceOnUse"
       id="clipPath1082-3">
      <path
         sodipodi:nodetypes="sssssssss"
         inkscape:connector-curvature="0"
         id="path1084-6"
         d="M 361.9375,-212 C 507.2348,-212 528,-191.28677 528,-46.125 V 70.125 C 528,215.28618 507.2348,236 361.9375,236 H 214.0625 C 68.7652,236 48,215.28618 48,70.125 V -46.125 C 48,-191.28677 68.7652,-212 214.0625,-212 Z"
         style="display:inline;opacity:1;fill:#8c59d9;fill-opacity:1;stroke:none;stroke-width:2;stroke-linecap:round;stroke-linejoin:round;stroke-miterlimit:4;stroke-dasharray:none;stroke-dashoffset:0;stroke-opacity:1;enable-background:new" />
    </clipPath>
    <filter
       inkscape:collect="always"
       style="color-interpolation-filters:sRGB"
       id="filter1517"
       x="-0.056927168"
       width="1.1138543"
       y="-0.063423493"
       height="1.126847">
      <feGaussianBlur
         inkscape:collect="always"
         stdDeviation="0.36997038"
         id="feGaussianBlur1519" />
    </filter>
  </defs>
  <metadata
     id="metadata4">
    <rdf:RDF>
      <cc:Work
         rdf:about="">
        <dc:format>image/svg+xml</dc:format>
        <dc:type
           rdf:resource="http://purl.org/dc/dcmitype/StillImage" />
        <dc:creator>
          <cc:Agent>
            <dc:title>Sam Hewitt</dc:title>
          </cc:Agent>
        </dc:creator>
        <dc:source />
        <cc:license
           rdf:resource="http://creativecommons.org/licenses/by-sa/4.0/" />
        <dc:title>Suru App Icon Template</dc:title>
        <dc:subject>
          <rdf:Bag />
        </dc:subject>
        <dc:date />
        <dc:rights>
          <cc:Agent>
            <dc:title />
          </cc:Agent>
        </dc:rights>
        <dc:publisher>
          <cc:Agent>
            <dc:title />
          </cc:Agent>
        </dc:publisher>
        <dc:identifier />
        <dc:relation />
        <dc:language />
        <dc:coverage />
        <dc:description />
        <dc:contributor>
          <cc:Agent>
            <dc:title />
          </cc:Agent>
        </dc:contributor>
      </cc:Work>
      <cc:Work
         rdf:about="">
        <dc:format>image/svg+xml</dc:format>
        <dc:type
           rdf:resource="http://purl.org/dc/dcmitype/StillImage" />
      </cc:Work>
      <cc:License
         rdf:about="http://creativecommons.org/licenses/by-sa/4.0/">
        <cc:permits
           rdf:resource="http://creativecommons.org/ns#Reproduction" />
        <cc:permits
           rdf:resource="http://creativecommons.org/ns#Distribution" />
        <cc:requires
           rdf:resource="http://creativecommons.org/ns#Notice" />
        <cc:requires
           rdf:resource="http://creativecommons.org/ns#Attribution" />
        <cc:permits
           rdf:resource="http://creativecommons.org/ns#DerivativeWorks" />
        <cc:requires
           rdf:resource="http://creativecommons.org/ns#ShareAlike" />
      </cc:License>
    </rdf:RDF>
  </metadata>
  <g
     style="display:inline"
     inkscape:groupmode="layer"
     inkscape:label="Icon"
     id="layer1"
     transform="translate(0,-44)">
    <g
       style="display:inline"
       inkscape:label="Baseplate"
       id="layer7"
       inkscape:groupmode="layer" />
    <g
       inkscape:groupmode="layer"
       id="layer8"
       inkscape:label="Small"
       style="display:inline">
      <g
         inkscape:groupmode="layer"
         id="layer5"
         inkscape:label="Shadow" />
      <g
         inkscape:groupmode="layer"
         id="layer3"
         inkscape:label="Shape"
         style="display:inline" />
      <g
         inkscape:groupmode="layer"
         id="layer12"
         inkscape:label="Pictogram" />
      <g
         inkscape:groupmode="layer"
         id="layer4"
         inkscape:label="Highlights"
         style="display:inline" />
      <g
         inkscape:groupmode="layer"
         id="layer2"
         inkscape:label="Border"
         style="display:inline" />
    </g>
    <g
       inkscape:groupmode="layer"
       id="layer9"
       inkscape:label="Hires"
       style="display:inline">
      <g
         inkscape:groupmode="layer"
         id="layer6"
         inkscape:label="Drop Shadow"
         style="display:inline">
        <path
           sodipodi:nodetypes="sssssssss"
           inkscape:connector-curvature="0"
           id="path923"
           d="m 162.53675,62.431991 c 72.64865,0 83.03125,10.356615 83.03125,82.937499 v 58.125 c 0,72.58059 -10.3826,82.9375 -83.03125,82.9375 h -73.9375 c -72.64865,0 -83.0312501,-10.35691 -83.0312501,-82.9375 v -58.125 c 0,-72.580884 10.3826001,-82.937499 83.0312501,-82.937499 z"
           style="display:inline;opacity:0.2;fill:#000000;fill-opacity:1;stroke:none;stroke-width:2;stroke-linecap:round;stroke-linejoin:round;stroke-miterlimit:4;stroke-dasharray:none;stroke-dashoffset:0;stroke-opacity:1;filter:url(#filter925);enable-background:new" />
        <path
           style="display:inline;opacity:0.1;fill:#000000;fill-opacity:1;stroke:none;stroke-width:2;stroke-linecap:round;stroke-linejoin:round;stroke-miterlimit:4;stroke-dasharray:none;stroke-dashoffset:0;stroke-opacity:1;filter:url(#filter931);enable-background:new"
           d="m 162.53675,61.431991 c 72.64865,0 83.03125,10.356615 83.03125,82.937499 v 58.125 c 0,72.58059 -10.3826,82.9375 -83.03125,82.9375 h -73.9375 c -72.64865,0 -83.0312501,-10.35691 -83.0312501,-82.9375 v -58.125 c 0,-72.580884 10.3826001,-82.937499 83.0312501,-82.937499 z"
           id="path929"
           inkscape:connector-curvature="0"
           sodipodi:nodetypes="sssssssss" />
      </g>
      <g
         inkscape:groupmode="layer"
         id="layer10"
         inkscape:label="Background"
         style="display:inline">
        <path
           style="display:inline;opacity:1;fill:#4e0d4e;fill-opacity:1;stroke:none;stroke-width:2;stroke-linecap:round;stroke-linejoin:round;stroke-miterlimit:4;stroke-dasharray:none;stroke-dashoffset:0;stroke-opacity:1;enable-background:new"
           d="m 162.53675,60.431991 c 72.64865,0 83.03125,10.356615 83.03125,82.937499 v 58.125 c 0,72.58059 -10.3826,82.9375 -83.03125,82.9375 h -73.9375 c -72.64865,0 -83.0312501,-10.35691 -83.0312501,-82.9375 v -58.125 c 0,-72.580884 10.3826001,-82.937499 83.0312501,-82.937499 z"
           id="rect877"
           inkscape:connector-curvature="0"
           sodipodi:nodetypes="sssssssss" />
      </g>
      <g
         inkscape:groupmode="layer"
         id="layer13"
         inkscape:label="Pictogram"
         style="display:inline" />
      <g
         inkscape:groupmode="layer"
         id="layer11"
         inkscape:label="Outline"
         style="display:inline">
        <path
           sodipodi:nodetypes="sssssssss"
           inkscape:connector-curvature="0"
           id="path1068"
           d="M 361.9375,-212 C 507.2348,-212 528,-191.28677 528,-46.125 V 70.125 C 528,215.28618 507.2348,236 361.9375,236 H 214.0625 C 68.7652,236 48,215.28618 48,70.125 V -46.125 C 48,-191.28677 68.7652,-212 214.0625,-212 Z"
           style="display:inline;opacity:0.4;fill:none;fill-opacity:1;stroke:url(#linearGradient1108);stroke-width:8;stroke-linecap:round;stroke-linejoin:round;stroke-miterlimit:4;stroke-dasharray:none;stroke-dashoffset:0;stroke-opacity:1;enable-background:new"
           clip-path="url(#clipPath1082-3)"
           transform="matrix(0.5,0,0,0.5,-18.432,166.43199)" />
      </g>
    </g>
  </g>
  <g
     id="layer9-3"
     label="status"
     style="display:inline"
     transform="matrix(10.899092,0,0,10.899092,-7078.7338,1207.4419)" />
  <g
     id="layer2-6"
     transform="matrix(10.899092,0,0,10.899092,-4452.0505,-2792.5247)" />
  <g
     id="layer4-7"
     transform="matrix(10.899092,0,0,10.899092,-4452.0505,-2792.5247)" />
  <g
     id="g1812"
     style="display:inline;fill:#fdfdfd;fill-opacity:1"
     transform="matrix(10.899092,0,0,10.899092,-4452.0505,-2792.5247)">
    <path
       inkscape:connector-curvature="0"
       d="M 413.45117,270.45508 C 414.44654,273.10833 416.9991,275 420,275 c 2.68877,-0.003 5.1384,-1.54515 6.30273,-3.96875 l 1.19922,0.76758 c 0.0945,-0.6622 0.16757,-1.35201 0.21875,-2.06836 0.0472,-0.71183 0.0735,-1.40955 0.0781,-2.0957 -0.61561,0.29412 -1.23786,0.60962 -1.86524,0.94921 -0.63022,0.34521 -1.22978,0.69663 -1.79882,1.05469 v 0.002 l 1.31835,0.84571 C 424.47983,272.62393 422.34875,273.99707 420,274 c -2.57192,0 -4.75991,-1.62071 -5.61328,-3.89453 z"
       id="path7770"
       style="opacity:1;fill:#fdfdfd;fill-opacity:1;stroke:none;stroke-width:2;stroke-linecap:round;stroke-linejoin:round;stroke-miterlimit:4;stroke-dasharray:none;stroke-dashoffset:0;stroke-opacity:1" />
    <path
       inkscape:connector-curvature="0"
       d="m 412.20117,268.36523 c 0.61561,-0.29412 1.23786,-0.60962 1.86524,-0.94921 0.63022,-0.34521 1.22978,-0.69663 1.79882,-1.05469 v -0.002 l -1.31835,-0.84571 c 0.97329,-2.1376 3.10437,-3.51074 5.45312,-3.51367 2.57192,0 4.75991,1.62071 5.61328,3.89453 l 0.93555,-0.34961 C 425.55346,262.89167 423.0009,261 420,261 c -2.68877,0.003 -5.1384,1.54515 -6.30273,3.96875 l -1.19922,-0.76758 c -0.0945,0.6622 -0.16757,1.35201 -0.21875,2.06836 -0.0472,0.71183 -0.0735,1.40955 -0.0781,2.0957 z"
       id="path7772"
       style="opacity:1;fill:#fdfdfd;fill-opacity:1;stroke:none;stroke-width:2;stroke-linecap:round;stroke-linejoin:round;stroke-miterlimit:4;stroke-dasharray:none;stroke-dashoffset:0;stroke-opacity:1" />
  </g>
  <g
     id="g6217"
     transform="matrix(10.899092,0,0,10.899092,-4452.0505,-2792.5247)" />
  <g
     id="layer3-5"
     style="display:inline"
     transform="matrix(10.899092,0,0,10.899092,-4452.0505,-2792.5247)" />
  <g
     id="g1833"
     style="display:inline"
     transform="matrix(10.899092,0,0,10.899092,-4452.0505,-2792.5247)" />
  <g
     id="layer1-3"
     transform="matrix(10.899092,0,0,10.899092,-4452.0505,-2792.5247)" />
  <g
     transform="matrix(10.899092,0,0,10.899092,-4452.0505,-2792.5247)"
     style="display:inline;fill:#fdfdfd;fill-opacity:1;filter:url(#filter1517)"
     id="g1499">
    <path
       style="opacity:1;fill:#fdfdfd;fill-opacity:1;stroke:none;stroke-width:2;stroke-linecap:round;stroke-linejoin:round;stroke-miterlimit:4;stroke-dasharray:none;stroke-dashoffset:0;stroke-opacity:1"
       id="path1495"
       d="M 413.45117,270.45508 C 414.44654,273.10833 416.9991,275 420,275 c 2.68877,-0.003 5.1384,-1.54515 6.30273,-3.96875 l 1.19922,0.76758 c 0.0945,-0.6622 0.16757,-1.35201 0.21875,-2.06836 0.0472,-0.71183 0.0735,-1.40955 0.0781,-2.0957 -0.61561,0.29412 -1.23786,0.60962 -1.86524,0.94921 -0.63022,0.34521 -1.22978,0.69663 -1.79882,1.05469 v 0.002 l 1.31835,0.84571 C 424.47983,272.62393 422.34875,273.99707 420,274 c -2.57192,0 -4.75991,-1.62071 -5.61328,-3.89453 z"
       inkscape:connector-curvature="0" />
    <path
       style="opacity:1;fill:#fdfdfd;fill-opacity:1;stroke:none;stroke-width:2;stroke-linecap:round;stroke-linejoin:round;stroke-miterlimit:4;stroke-dasharray:none;stroke-dashoffset:0;stroke-opacity:1"
       id="path1497"
       d="m 412.20117,268.36523 c 0.61561,-0.29412 1.23786,-0.60962 1.86524,-0.94921 0.63022,-0.34521 1.22978,-0.69663 1.79882,-1.05469 v -0.002 l -1.31835,-0.84571 c 0.97329,-2.1376 3.10437,-3.51074 5.45312,-3.51367 2.57192,0 4.75991,1.62071 5.61328,3.89453 l 0.93555,-0.34961 C 425.55346,262.89167 423.0009,261 420,261 c -2.68877,0.003 -5.1384,1.54515 -6.30273,3.96875 l -1.19922,-0.76758 c -0.0945,0.6622 -0.16757,1.35201 -0.21875,2.06836 -0.0472,0.71183 -0.0735,1.40955 -0.0781,2.0957 z"
       inkscape:connector-curvature="0" />
  </g>
</svg>
