<?xml version="1.0" encoding="UTF-8" standalone="no"?>
<!-- Created with Inkscape (http://www.inkscape.org/) -->

<svg
   xmlns:dc="http://purl.org/dc/elements/1.1/"
   xmlns:cc="http://creativecommons.org/ns#"
   xmlns:rdf="http://www.w3.org/1999/02/22-rdf-syntax-ns#"
   xmlns:svg="http://www.w3.org/2000/svg"
   xmlns="http://www.w3.org/2000/svg"
   xmlns:xlink="http://www.w3.org/1999/xlink"
   xmlns:sodipodi="http://sodipodi.sourceforge.net/DTD/sodipodi-0.dtd"
   xmlns:inkscape="http://www.inkscape.org/namespaces/inkscape"
   width="256"
   height="256"
   viewBox="0 0 67.733332 67.733335"
   version="1.1"
   id="svg1488"
   inkscape:version="0.92.3 (2405546, 2018-03-11)"
   sodipodi:docname="gnome-mahjongg.svg">
  <defs
     id="defs1482">
    <clipPath
       clipPathUnits="userSpaceOnUse"
       id="clipPath1025">
      <path
         id="path1027"
         d="M 111.94141,84 C 99.359506,84.145 90.1531,83.713998 82.625,87.867188 c -3.7641,2.0768 -6.751838,5.574737 -8.398438,9.960937 C 72.580062,102.21433 72,107.4241 72,114 v 42 h 160 v -26 c 0,-6.5759 -0.57996,-11.78566 -2.22656,-16.17188 -0.205,-0.5455 -0.47919,-1.03993 -0.74219,-1.54296 -0.1,-0.1848 -0.17844,-0.38051 -0.27344,-0.56641 -1.727,-3.38752 -4.25471,-6.14522 -7.38281,-7.87109 C 213.8463,99.694146 204.64049,100.1454 192.05859,100 H 192 151.66797 L 135.45312,84 h -23.49218 z"
         style="color:#000000;font-style:normal;font-variant:normal;font-weight:normal;font-stretch:normal;font-size:medium;line-height:normal;font-family:sans-serif;font-variant-ligatures:none;font-variant-position:normal;font-variant-caps:normal;font-variant-numeric:normal;font-variant-alternates:normal;font-feature-settings:normal;text-indent:0;text-align:start;text-decoration:none;text-decoration-line:none;text-decoration-style:solid;text-decoration-color:#000000;letter-spacing:normal;word-spacing:normal;text-transform:none;writing-mode:lr-tb;direction:ltr;baseline-shift:baseline;text-anchor:start;white-space:normal;shape-padding:0;clip-rule:nonzero;display:inline;overflow:visible;visibility:visible;opacity:1;isolation:auto;mix-blend-mode:normal;color-interpolation:sRGB;color-interpolation-filters:linearRGB;solid-color:#000000;solid-opacity:1;fill:#e3dfd5;fill-opacity:1;fill-rule:nonzero;stroke:none;stroke-width:4.00000048;stroke-linecap:butt;stroke-linejoin:miter;stroke-miterlimit:4;stroke-dasharray:none;stroke-dashoffset:0;stroke-opacity:1;marker:none;color-rendering:auto;image-rendering:auto;shape-rendering:auto;text-rendering:auto;enable-background:accumulate"
         inkscape:connector-curvature="0" />
    </clipPath>
    <clipPath
       clipPathUnits="userSpaceOnUse"
       id="clipPath1082-3">
      <path
         sodipodi:nodetypes="sssssssss"
         inkscape:connector-curvature="0"
         id="path1084-6"
         d="M 361.9375,-212 C 507.2348,-212 528,-191.28677 528,-46.125 V 70.125 C 528,215.28618 507.2348,236 361.9375,236 H 214.0625 C 68.7652,236 48,215.28618 48,70.125 V -46.125 C 48,-191.28677 68.7652,-212 214.0625,-212 Z"
         style="display:inline;opacity:1;fill:#8c59d9;fill-opacity:1;stroke:none;stroke-width:2;stroke-linecap:round;stroke-linejoin:round;stroke-miterlimit:4;stroke-dasharray:none;stroke-dashoffset:0;stroke-opacity:1;enable-background:new" />
    </clipPath>
    <clipPath
       clipPathUnits="userSpaceOnUse"
       id="clipPath1082-3-5">
      <path
         sodipodi:nodetypes="sssssssss"
         inkscape:connector-curvature="0"
         id="path1084-6-6"
         d="M 361.9375,-212 C 507.2348,-212 528,-191.28677 528,-46.125 V 70.125 C 528,215.28618 507.2348,236 361.9375,236 H 214.0625 C 68.7652,236 48,215.28618 48,70.125 V -46.125 C 48,-191.28677 68.7652,-212 214.0625,-212 Z"
         style="display:inline;opacity:1;fill:#8c59d9;fill-opacity:1;stroke:none;stroke-width:2;stroke-linecap:round;stroke-linejoin:round;stroke-miterlimit:4;stroke-dasharray:none;stroke-dashoffset:0;stroke-opacity:1;enable-background:new" />
    </clipPath>
    <clipPath
       clipPathUnits="userSpaceOnUse"
       id="clipPath1082-3-9">
      <path
         sodipodi:nodetypes="sssssssss"
         inkscape:connector-curvature="0"
         id="path1084-6-3"
         d="M 361.9375,-212 C 507.2348,-212 528,-191.28677 528,-46.125 V 70.125 C 528,215.28618 507.2348,236 361.9375,236 H 214.0625 C 68.7652,236 48,215.28618 48,70.125 V -46.125 C 48,-191.28677 68.7652,-212 214.0625,-212 Z"
         style="display:inline;opacity:1;fill:#8c59d9;fill-opacity:1;stroke:none;stroke-width:2;stroke-linecap:round;stroke-linejoin:round;stroke-miterlimit:4;stroke-dasharray:none;stroke-dashoffset:0;stroke-opacity:1;enable-background:new" />
    </clipPath>
    <clipPath
       clipPathUnits="userSpaceOnUse"
       id="clipPath1082-3-3">
      <path
         sodipodi:nodetypes="sssssssss"
         inkscape:connector-curvature="0"
         id="path1084-6-67"
         d="M 361.9375,-212 C 507.2348,-212 528,-191.28677 528,-46.125 V 70.125 C 528,215.28618 507.2348,236 361.9375,236 H 214.0625 C 68.7652,236 48,215.28618 48,70.125 V -46.125 C 48,-191.28677 68.7652,-212 214.0625,-212 Z"
         style="display:inline;opacity:1;fill:#8c59d9;fill-opacity:1;stroke:none;stroke-width:2;stroke-linecap:round;stroke-linejoin:round;stroke-miterlimit:4;stroke-dasharray:none;stroke-dashoffset:0;stroke-opacity:1;enable-background:new" />
    </clipPath>
    <clipPath
       clipPathUnits="userSpaceOnUse"
       id="clipPath1082-3-53">
      <path
         sodipodi:nodetypes="sssssssss"
         inkscape:connector-curvature="0"
         id="path1084-6-5"
         d="M 361.9375,-212 C 507.2348,-212 528,-191.28677 528,-46.125 V 70.125 C 528,215.28618 507.2348,236 361.9375,236 H 214.0625 C 68.7652,236 48,215.28618 48,70.125 V -46.125 C 48,-191.28677 68.7652,-212 214.0625,-212 Z"
         style="display:inline;opacity:1;fill:#8c59d9;fill-opacity:1;stroke:none;stroke-width:2;stroke-linecap:round;stroke-linejoin:round;stroke-miterlimit:4;stroke-dasharray:none;stroke-dashoffset:0;stroke-opacity:1;enable-background:new" />
    </clipPath>
    <clipPath
       clipPathUnits="userSpaceOnUse"
       id="clipPath1082-3-6">
      <path
         sodipodi:nodetypes="sssssssss"
         inkscape:connector-curvature="0"
         id="path1084-6-2"
         d="M 361.9375,-212 C 507.2348,-212 528,-191.28677 528,-46.125 V 70.125 C 528,215.28618 507.2348,236 361.9375,236 H 214.0625 C 68.7652,236 48,215.28618 48,70.125 V -46.125 C 48,-191.28677 68.7652,-212 214.0625,-212 Z"
         style="display:inline;opacity:1;fill:#8c59d9;fill-opacity:1;stroke:none;stroke-width:2;stroke-linecap:round;stroke-linejoin:round;stroke-miterlimit:4;stroke-dasharray:none;stroke-dashoffset:0;stroke-opacity:1;enable-background:new" />
    </clipPath>
    <clipPath
       clipPathUnits="userSpaceOnUse"
       id="clipPath1082-3-91">
      <path
         sodipodi:nodetypes="sssssssss"
         inkscape:connector-curvature="0"
         id="path1084-6-27"
         d="M 361.9375,-212 C 507.2348,-212 528,-191.28677 528,-46.125 V 70.125 C 528,215.28618 507.2348,236 361.9375,236 H 214.0625 C 68.7652,236 48,215.28618 48,70.125 V -46.125 C 48,-191.28677 68.7652,-212 214.0625,-212 Z"
         style="display:inline;opacity:1;fill:#8c59d9;fill-opacity:1;stroke:none;stroke-width:2;stroke-linecap:round;stroke-linejoin:round;stroke-miterlimit:4;stroke-dasharray:none;stroke-dashoffset:0;stroke-opacity:1;enable-background:new" />
    </clipPath>
    <clipPath
       clipPathUnits="userSpaceOnUse"
       id="clipPath1025-0">
      <path
         style="opacity:1;fill:#8c59d9;fill-opacity:1;stroke:none;stroke-width:2;stroke-linecap:round;stroke-linejoin:round;stroke-miterlimit:4;stroke-dasharray:none;stroke-dashoffset:0;stroke-opacity:1"
         d="M 329.9375,32 C 475.2348,32 496,52.71323 496,197.875 v 116.25 C 496,459.28618 475.2348,480 329.9375,480 H 182.0625 C 36.7652,480 16,459.28618 16,314.125 V 197.875 C 16,52.71323 36.7652,32 182.0625,32 Z"
         id="path1027-9"
         inkscape:connector-curvature="0"
         sodipodi:nodetypes="sssssssss" />
    </clipPath>
    <clipPath
       clipPathUnits="userSpaceOnUse"
       id="clipPath4277-8">
      <rect
         style="color:#000000;display:inline;overflow:visible;visibility:visible;opacity:0.81999972;fill:#88b637;fill-opacity:1;fill-rule:nonzero;stroke:none;stroke-width:2;stroke-linecap:butt;stroke-linejoin:miter;stroke-miterlimit:4;stroke-dasharray:none;stroke-dashoffset:0;stroke-opacity:1;marker:none;enable-background:accumulate"
         id="rect4279-6"
         width="512"
         height="512"
         x="5.5999999e-07"
         y="0"
         ry="1" />
    </clipPath>
    <linearGradient
       id="linearGradient3650-7-9">
      <stop
         style="stop-color:#5884f4;stop-opacity:1"
         offset="0"
         id="stop4366" />
      <stop
         id="stop4368"
         offset="1"
         style="stop-color:#80a3fa;stop-opacity:1" />
    </linearGradient>
    <clipPath
       clipPathUnits="userSpaceOnUse"
       id="clipPath1082-3-36">
      <path
         sodipodi:nodetypes="sssssssss"
         inkscape:connector-curvature="0"
         id="path1084-6-0"
         d="M 361.9375,-212 C 507.2348,-212 528,-191.28677 528,-46.125 V 70.125 C 528,215.28618 507.2348,236 361.9375,236 H 214.0625 C 68.7652,236 48,215.28618 48,70.125 V -46.125 C 48,-191.28677 68.7652,-212 214.0625,-212 Z"
         style="display:inline;opacity:1;fill:#8c59d9;fill-opacity:1;stroke:none;stroke-width:2;stroke-linecap:round;stroke-linejoin:round;stroke-miterlimit:4;stroke-dasharray:none;stroke-dashoffset:0;stroke-opacity:1;enable-background:new" />
    </clipPath>
    <clipPath
       clipPathUnits="userSpaceOnUse"
       id="clipPath983">
      <path
         id="path985"
         d="M 115.03125,44 C 42.3826,44 32,54.356615 32,126.9375 v 58.125 C 32,257.64309 42.3826,268 115.03125,268 H 152 V 44 Z"
         style="opacity:1;fill:#4d4d4d;fill-opacity:1;stroke:none;stroke-width:2;stroke-linecap:round;stroke-linejoin:round;stroke-miterlimit:4;stroke-dasharray:none;stroke-dashoffset:0;stroke-opacity:1"
         inkscape:connector-curvature="0" />
    </clipPath>
    <clipPath
       clipPathUnits="userSpaceOnUse"
       id="clipPath1082-3-62">
      <path
         sodipodi:nodetypes="sssssssss"
         inkscape:connector-curvature="0"
         id="path1084-6-61"
         d="M 361.9375,-212 C 507.2348,-212 528,-191.28677 528,-46.125 V 70.125 C 528,215.28618 507.2348,236 361.9375,236 H 214.0625 C 68.7652,236 48,215.28618 48,70.125 V -46.125 C 48,-191.28677 68.7652,-212 214.0625,-212 Z"
         style="display:inline;opacity:1;fill:#8c59d9;fill-opacity:1;stroke:none;stroke-width:2;stroke-linecap:round;stroke-linejoin:round;stroke-miterlimit:4;stroke-dasharray:none;stroke-dashoffset:0;stroke-opacity:1;enable-background:new" />
    </clipPath>
    <clipPath
       clipPathUnits="userSpaceOnUse"
       id="clipPath949">
      <path
         sodipodi:nodetypes="sssssssss"
         inkscape:connector-curvature="0"
         id="path951"
         d="M 329.9375,32 C 475.2348,32 496,52.71323 496,197.875 v 116.25 C 496,459.28618 475.2348,480 329.9375,480 H 182.0625 C 36.7652,480 16,459.28618 16,314.125 V 197.875 C 16,52.71323 36.7652,32 182.0625,32 Z"
         style="opacity:1;fill:#eab305;fill-opacity:1;stroke:none;stroke-width:4;stroke-linecap:round;stroke-linejoin:round;stroke-miterlimit:4;stroke-dasharray:none;stroke-dashoffset:0;stroke-opacity:1" />
    </clipPath>
    <clipPath
       clipPathUnits="userSpaceOnUse"
       id="clipPath954">
      <path
         sodipodi:nodetypes="sssssssss"
         inkscape:connector-curvature="0"
         id="path952"
         d="M 329.9375,32 C 475.2348,32 496,52.71323 496,197.875 v 116.25 C 496,459.28618 475.2348,480 329.9375,480 H 182.0625 C 36.7652,480 16,459.28618 16,314.125 V 197.875 C 16,52.71323 36.7652,32 182.0625,32 Z"
         style="opacity:1;fill:#eab305;fill-opacity:1;stroke:none;stroke-width:4;stroke-linecap:round;stroke-linejoin:round;stroke-miterlimit:4;stroke-dasharray:none;stroke-dashoffset:0;stroke-opacity:1" />
    </clipPath>
    <clipPath
       clipPathUnits="userSpaceOnUse"
       id="clipPath1082-3-8">
      <path
         sodipodi:nodetypes="sssssssss"
         inkscape:connector-curvature="0"
         id="path1084-6-7"
         d="M 361.9375,-212 C 507.2348,-212 528,-191.28677 528,-46.125 V 70.125 C 528,215.28618 507.2348,236 361.9375,236 H 214.0625 C 68.7652,236 48,215.28618 48,70.125 V -46.125 C 48,-191.28677 68.7652,-212 214.0625,-212 Z"
         style="display:inline;opacity:1;fill:#8c59d9;fill-opacity:1;stroke:none;stroke-width:2;stroke-linecap:round;stroke-linejoin:round;stroke-miterlimit:4;stroke-dasharray:none;stroke-dashoffset:0;stroke-opacity:1;enable-background:new" />
    </clipPath>
    <clipPath
       clipPathUnits="userSpaceOnUse"
       id="clipPath1082-3-92">
      <path
         sodipodi:nodetypes="sssssssss"
         inkscape:connector-curvature="0"
         id="path1084-6-02"
         d="M 361.9375,-212 C 507.2348,-212 528,-191.28677 528,-46.125 V 70.125 C 528,215.28618 507.2348,236 361.9375,236 H 214.0625 C 68.7652,236 48,215.28618 48,70.125 V -46.125 C 48,-191.28677 68.7652,-212 214.0625,-212 Z"
         style="display:inline;opacity:1;fill:#8c59d9;fill-opacity:1;stroke:none;stroke-width:2;stroke-linecap:round;stroke-linejoin:round;stroke-miterlimit:4;stroke-dasharray:none;stroke-dashoffset:0;stroke-opacity:1;enable-background:new" />
    </clipPath>
    <clipPath
       clipPathUnits="userSpaceOnUse"
       id="clipPath1082">
      <path
         sodipodi:nodetypes="sssssssss"
         inkscape:connector-curvature="0"
         id="path1084"
         d="M 361.9375,-212 C 507.2348,-212 528,-191.28677 528,-46.125 V 70.125 C 528,215.28618 507.2348,236 361.9375,236 H 214.0625 C 68.7652,236 48,215.28618 48,70.125 V -46.125 C 48,-191.28677 68.7652,-212 214.0625,-212 Z"
         style="display:inline;opacity:1;fill:#8c59d9;fill-opacity:1;stroke:none;stroke-width:2;stroke-linecap:round;stroke-linejoin:round;stroke-miterlimit:4;stroke-dasharray:none;stroke-dashoffset:0;stroke-opacity:1;enable-background:new" />
    </clipPath>
    <clipPath
       clipPathUnits="userSpaceOnUse"
       id="clipPath1082-3-361">
      <path
         sodipodi:nodetypes="sssssssss"
         inkscape:connector-curvature="0"
         id="path1084-6-29"
         d="M 361.9375,-212 C 507.2348,-212 528,-191.28677 528,-46.125 V 70.125 C 528,215.28618 507.2348,236 361.9375,236 H 214.0625 C 68.7652,236 48,215.28618 48,70.125 V -46.125 C 48,-191.28677 68.7652,-212 214.0625,-212 Z"
         style="display:inline;opacity:1;fill:#8c59d9;fill-opacity:1;stroke:none;stroke-width:2;stroke-linecap:round;stroke-linejoin:round;stroke-miterlimit:4;stroke-dasharray:none;stroke-dashoffset:0;stroke-opacity:1;enable-background:new" />
    </clipPath>
    <clipPath
       clipPathUnits="userSpaceOnUse"
       id="clipPath1079">
      <circle
         cx="213.84277"
         cy="146"
         r="55"
         style="color:#000000;display:inline;overflow:visible;visibility:visible;opacity:1;fill:url(#linearGradient1083);fill-opacity:1;fill-rule:nonzero;stroke:none;stroke-width:7.99999952;stroke-linecap:butt;stroke-linejoin:miter;stroke-miterlimit:4;stroke-dasharray:none;stroke-dashoffset:0;stroke-opacity:1;marker:none;enable-background:accumulate"
         id="circle1081"
         transform="scale(-1,1)" />
    </clipPath>
    <clipPath
       clipPathUnits="userSpaceOnUse"
       id="clipPath984">
      <circle
         cx="213.84277"
         cy="146"
         r="55"
         style="color:#000000;display:inline;overflow:visible;visibility:visible;opacity:1;fill:url(#linearGradient1083);fill-opacity:1;fill-rule:nonzero;stroke:none;stroke-width:7.99999952;stroke-linecap:butt;stroke-linejoin:miter;stroke-miterlimit:4;stroke-dasharray:none;stroke-dashoffset:0;stroke-opacity:1;marker:none;enable-background:accumulate"
         id="circle982"
         transform="scale(-1,1)" />
    </clipPath>
    <clipPath
       clipPathUnits="userSpaceOnUse"
       id="clipPath988">
      <circle
         cx="213.84277"
         cy="146"
         r="55"
         style="color:#000000;display:inline;overflow:visible;visibility:visible;opacity:1;fill:url(#linearGradient1083);fill-opacity:1;fill-rule:nonzero;stroke:none;stroke-width:7.99999952;stroke-linecap:butt;stroke-linejoin:miter;stroke-miterlimit:4;stroke-dasharray:none;stroke-dashoffset:0;stroke-opacity:1;marker:none;enable-background:accumulate"
         id="circle986"
         transform="scale(-1,1)" />
    </clipPath>
    <clipPath
       clipPathUnits="userSpaceOnUse"
       id="clipPath992">
      <circle
         cx="213.84277"
         cy="146"
         r="55"
         style="color:#000000;display:inline;overflow:visible;visibility:visible;opacity:1;fill:url(#linearGradient1083);fill-opacity:1;fill-rule:nonzero;stroke:none;stroke-width:7.99999952;stroke-linecap:butt;stroke-linejoin:miter;stroke-miterlimit:4;stroke-dasharray:none;stroke-dashoffset:0;stroke-opacity:1;marker:none;enable-background:accumulate"
         id="circle990"
         transform="scale(-1,1)" />
    </clipPath>
    <clipPath
       clipPathUnits="userSpaceOnUse"
       id="clipPath1082-3-31">
      <path
         sodipodi:nodetypes="sssssssss"
         inkscape:connector-curvature="0"
         id="path1084-6-9"
         d="M 361.9375,-212 C 507.2348,-212 528,-191.28677 528,-46.125 V 70.125 C 528,215.28618 507.2348,236 361.9375,236 H 214.0625 C 68.7652,236 48,215.28618 48,70.125 V -46.125 C 48,-191.28677 68.7652,-212 214.0625,-212 Z"
         style="display:inline;opacity:1;fill:#8c59d9;fill-opacity:1;stroke:none;stroke-width:2;stroke-linecap:round;stroke-linejoin:round;stroke-miterlimit:4;stroke-dasharray:none;stroke-dashoffset:0;stroke-opacity:1;enable-background:new" />
    </clipPath>
    <clipPath
       clipPathUnits="userSpaceOnUse"
       id="clipPath1205">
      <path
         id="path1207"
         d="M 115.03125,44 C 42.3826,44 32,54.356615 32,126.9375 v 58.125 c 0,13.772 0.379014,25.29352 1.482422,34.9375 H 270.51758 C 271.62099,210.35602 272,198.8345 272,185.0625 v -58.125 C 272,54.356615 261.6174,44 188.96875,44 Z"
         style="opacity:1;fill:#f1f0e9;fill-opacity:1;stroke:none;stroke-width:2;stroke-linecap:round;stroke-linejoin:round;stroke-miterlimit:4;stroke-dasharray:none;stroke-dashoffset:0;stroke-opacity:1"
         inkscape:connector-curvature="0" />
    </clipPath>
    <clipPath
       clipPathUnits="userSpaceOnUse"
       id="clipPath1082-3-4">
      <path
         sodipodi:nodetypes="sssssssss"
         inkscape:connector-curvature="0"
         id="path1084-6-78"
         d="M 361.9375,-212 C 507.2348,-212 528,-191.28677 528,-46.125 V 70.125 C 528,215.28618 507.2348,236 361.9375,236 H 214.0625 C 68.7652,236 48,215.28618 48,70.125 V -46.125 C 48,-191.28677 68.7652,-212 214.0625,-212 Z"
         style="display:inline;opacity:1;fill:#8c59d9;fill-opacity:1;stroke:none;stroke-width:2;stroke-linecap:round;stroke-linejoin:round;stroke-miterlimit:4;stroke-dasharray:none;stroke-dashoffset:0;stroke-opacity:1;enable-background:new" />
    </clipPath>
    <clipPath
       clipPathUnits="userSpaceOnUse"
       id="clipPath1082-3-367">
      <path
         sodipodi:nodetypes="sssssssss"
         inkscape:connector-curvature="0"
         id="path1084-6-53"
         d="M 361.9375,-212 C 507.2348,-212 528,-191.28677 528,-46.125 V 70.125 C 528,215.28618 507.2348,236 361.9375,236 H 214.0625 C 68.7652,236 48,215.28618 48,70.125 V -46.125 C 48,-191.28677 68.7652,-212 214.0625,-212 Z"
         style="display:inline;opacity:1;fill:#8c59d9;fill-opacity:1;stroke:none;stroke-width:2;stroke-linecap:round;stroke-linejoin:round;stroke-miterlimit:4;stroke-dasharray:none;stroke-dashoffset:0;stroke-opacity:1;enable-background:new" />
    </clipPath>
    <clipPath
       clipPathUnits="userSpaceOnUse"
       id="clipPath1082-3-92-5">
      <path
         sodipodi:nodetypes="sssssssss"
         inkscape:connector-curvature="0"
         id="path1084-6-02-6"
         d="M 361.9375,-212 C 507.2348,-212 528,-191.28677 528,-46.125 V 70.125 C 528,215.28618 507.2348,236 361.9375,236 H 214.0625 C 68.7652,236 48,215.28618 48,70.125 V -46.125 C 48,-191.28677 68.7652,-212 214.0625,-212 Z"
         style="display:inline;opacity:1;fill:#8c59d9;fill-opacity:1;stroke:none;stroke-width:2;stroke-linecap:round;stroke-linejoin:round;stroke-miterlimit:4;stroke-dasharray:none;stroke-dashoffset:0;stroke-opacity:1;enable-background:new" />
    </clipPath>
    <linearGradient
       inkscape:collect="always"
       xlink:href="#linearGradient1013"
       id="linearGradient1108"
       x1="296"
       y1="-212"
       x2="296"
       y2="236"
       gradientUnits="userSpaceOnUse" />
    <linearGradient
       id="linearGradient1013"
       inkscape:collect="always">
      <stop
         id="stop1005"
         offset="0"
         style="stop-color:#ffffff;stop-opacity:1;" />
      <stop
         style="stop-color:#ffffff;stop-opacity:0.09803922"
         offset="0.125"
         id="stop1007" />
      <stop
         style="stop-color:#000000;stop-opacity:0.09803922"
         offset="0.92500001"
         id="stop1009" />
      <stop
         id="stop1011"
         offset="1"
         style="stop-color:#000000;stop-opacity:0.49803922" />
    </linearGradient>
    <clipPath
       clipPathUnits="userSpaceOnUse"
       id="clipPath1082-3-3675">
      <path
         sodipodi:nodetypes="sssssssss"
         inkscape:connector-curvature="0"
         id="path1084-6-35"
         d="M 361.9375,-212 C 507.2348,-212 528,-191.28677 528,-46.125 V 70.125 C 528,215.28618 507.2348,236 361.9375,236 H 214.0625 C 68.7652,236 48,215.28618 48,70.125 V -46.125 C 48,-191.28677 68.7652,-212 214.0625,-212 Z"
         style="display:inline;opacity:1;fill:#8c59d9;fill-opacity:1;stroke:none;stroke-width:2;stroke-linecap:round;stroke-linejoin:round;stroke-miterlimit:4;stroke-dasharray:none;stroke-dashoffset:0;stroke-opacity:1;enable-background:new" />
    </clipPath>
    <linearGradient
       inkscape:collect="always"
       xlink:href="#linearGradient876"
       id="linearGradient878"
       x1="32"
       y1="156"
       x2="272"
       y2="156"
       gradientUnits="userSpaceOnUse"
       gradientTransform="rotate(60,152.00002,156.00002)" />
    <linearGradient
       inkscape:collect="always"
       id="linearGradient876">
      <stop
         style="stop-color:#1a7fd4;stop-opacity:1;"
         offset="0"
         id="stop872" />
      <stop
         style="stop-color:#37a6e6;stop-opacity:1"
         offset="1"
         id="stop874" />
    </linearGradient>
    <filter
       inkscape:collect="always"
       style="color-interpolation-filters:sRGB"
       id="filter931"
       x="-0.0116"
       width="1.0232"
       y="-0.012428571"
       height="1.024857">
      <feGaussianBlur
         inkscape:collect="always"
         stdDeviation="1.16"
         id="feGaussianBlur933" />
    </filter>
    <filter
       inkscape:collect="always"
       style="color-interpolation-filters:sRGB"
       id="filter925"
       x="-0.0232"
       width="1.0464"
       y="-0.024857143"
       height="1.0497143">
      <feGaussianBlur
         inkscape:collect="always"
         stdDeviation="2.32"
         id="feGaussianBlur927" />
    </filter>
    <filter
       inkscape:collect="always"
       style="color-interpolation-filters:sRGB"
       id="filter919"
       x="-0.0528"
       width="1.1056"
       y="-0.044"
       height="1.088">
      <feGaussianBlur
         inkscape:collect="always"
         stdDeviation="2.64"
         id="feGaussianBlur921" />
    </filter>
  </defs>
  <sodipodi:namedview
     id="base"
     pagecolor="#ffffff"
     bordercolor="#666666"
     borderopacity="1.0"
     inkscape:pageopacity="0.0"
     inkscape:pageshadow="2"
     inkscape:zoom="2.6240949"
     inkscape:cx="-9.0454001"
     inkscape:cy="119.46996"
     inkscape:document-units="px"
     inkscape:current-layer="g3204"
     showgrid="false"
     units="px"
     inkscape:window-width="1920"
     inkscape:window-height="1009"
     inkscape:window-x="0"
     inkscape:window-y="34"
     inkscape:window-maximized="1">
    <inkscape:grid
       type="xygrid"
       id="grid2168" />
  </sodipodi:namedview>
  <metadata
     id="metadata1485">
    <rdf:RDF>
      <cc:Work
         rdf:about="">
        <dc:format>image/svg+xml</dc:format>
        <dc:type
           rdf:resource="http://purl.org/dc/dcmitype/StillImage" />
        <dc:title />
      </cc:Work>
    </rdf:RDF>
  </metadata>
  <g
     inkscape:label="Livello 1"
     inkscape:groupmode="layer"
     id="layer1"
     transform="translate(0,-229.26666)">
    <path
       sodipodi:nodetypes="sssssssss"
       inkscape:connector-curvature="0"
       id="path923"
       d="m 162.53675,5.568 c 72.64865,0 83.03125,10.356615 83.03125,82.9375 v 58.125 c 0,72.58059 -10.3826,82.9375 -83.03125,82.9375 H 88.59925 C 15.9506,229.568 5.5679999,219.21109 5.5679999,146.6305 V 88.5055 C 5.5679999,15.924615 15.9506,5.568 88.59925,5.568 Z"
       style="display:inline;opacity:0.2;fill:#000000;fill-opacity:1;stroke:none;stroke-width:2;stroke-linecap:round;stroke-linejoin:round;stroke-miterlimit:4;stroke-dasharray:none;stroke-dashoffset:0;stroke-opacity:1;filter:url(#filter925);enable-background:new"
       transform="matrix(0.26458333,0,0,0.26458333,0,232.67026)" />
    <path
       style="display:inline;opacity:0.1;fill:#000000;fill-opacity:1;stroke:none;stroke-width:2;stroke-linecap:round;stroke-linejoin:round;stroke-miterlimit:4;stroke-dasharray:none;stroke-dashoffset:0;stroke-opacity:1;filter:url(#filter931);enable-background:new"
       d="m 162.53675,4.568 c 72.64865,0 83.03125,10.356615 83.03125,82.9375 v 58.125 c 0,72.58059 -10.3826,82.9375 -83.03125,82.9375 H 88.59925 C 15.9506,228.568 5.5679999,218.21109 5.5679999,145.6305 V 87.5055 C 5.5679999,14.924615 15.9506,4.568 88.59925,4.568 Z"
       id="path929"
       inkscape:connector-curvature="0"
       sodipodi:nodetypes="sssssssss"
       transform="matrix(0.26458333,0,0,0.26458333,0,232.67026)" />
    <g
       transform="matrix(0.26458333,0,0,0.26458333,-6.993466,221.97263)"
       style="display:inline;opacity:1;enable-background:new"
       id="g16866"
       inkscape:export-filename="/home/stuart/Pictures/gnome-mahjongg.svg.png"
       inkscape:export-xdpi="96"
       inkscape:export-ydpi="96">
      <path
         inkscape:export-ydpi="96"
         inkscape:export-xdpi="96"
         sodipodi:nodetypes="sssssssss"
         inkscape:connector-curvature="0"
         id="rect877"
         d="M 188.96875,44.000002 C 261.61739,43.999999 272,54.356621 272,126.9375 v 58.125 C 271.99999,257.64309 261.61739,268 188.96875,268 H 115.03124 C 42.3826,268.00001 32,257.64309 32,185.0625 v -58.125 C 32,54.356619 42.3826,43.999996 115.03125,44 Z"
         style="display:inline;opacity:1;fill:url(#linearGradient878);fill-opacity:1;stroke:none;stroke-width:2;stroke-linecap:round;stroke-linejoin:round;stroke-miterlimit:4;stroke-dasharray:none;stroke-dashoffset:0;stroke-opacity:1;enable-background:new" />
      <path
         inkscape:export-ydpi="96"
         inkscape:export-xdpi="96"
         id="rect877-9"
         d="m 32.00002,151.99999 v 33.0625 c 0,72.58059 10.38262,82.93751 83.03125,82.9375 h 73.9375 c 72.64864,0 83.03124,-10.35691 83.03125,-82.9375 v -33.0625 z"
         style="display:inline;opacity:0.05;fill:#ffffff;fill-opacity:1;stroke:none;stroke-width:2;stroke-linecap:round;stroke-linejoin:round;stroke-miterlimit:4;stroke-dasharray:none;stroke-dashoffset:0;stroke-opacity:1;enable-background:new"
         inkscape:connector-curvature="0" />
    </g>
    <g
       transform="matrix(0.26458333,0,0,0.26458333,-6.993461,221.97262)"
       style="display:inline;opacity:1;enable-background:new"
       id="g3204"
       inkscape:export-xdpi="96"
       inkscape:export-ydpi="96"
       inkscape:export-filename="/home/stuart/Pictures/gnome-mahjongg.svg.png">
      <rect
         style="opacity:0.3;vector-effect:none;fill:#0e0c00;fill-opacity:1;stroke:none;stroke-width:2.05798316;stroke-linecap:butt;stroke-linejoin:round;stroke-miterlimit:4;stroke-dasharray:none;stroke-dashoffset:0;stroke-opacity:1;filter:url(#filter919)"
         id="rect905"
         width="120"
         height="144"
         x="92"
         y="84"
         rx="16"
         ry="16.941177" />
      <rect
         ry="16.941177"
         rx="16"
         y="84"
         x="92"
         height="144"
         width="120"
         id="rect3003"
         style="opacity:1;vector-effect:none;fill:#f1f0e9;fill-opacity:1;stroke:none;stroke-width:2.05798316;stroke-linecap:butt;stroke-linejoin:round;stroke-miterlimit:4;stroke-dasharray:none;stroke-dashoffset:0;stroke-opacity:1" />
      <path
         inkscape:connector-curvature="0"
         id="rect2781"
         d="m 150.00167,108.04454 c -2.92759,0.4172 -1.75991,3.84708 -1.99833,5.90192 0.65038,2.21494 -0.77945,2.3497 -2.60243,2.09131 -11.7886,0 -23.57721,0 -35.36581,0 -2.92759,0.41719 -1.75991,3.84707 -1.99832,5.90191 0.30254,3.02233 3.83138,1.86272 5.90197,2.09131 11.35486,0 22.70973,0 34.06459,0 0,2.6644 0,5.32881 0,7.99323 -9.99164,0 -19.98329,0 -29.97493,0 -2.92759,0.41719 -1.75991,3.84707 -1.99833,5.90191 0,10.68864 0,21.37726 0,32.0659 0.4172,2.92756 3.84712,1.75988 5.90199,1.99831 6.80625,0 13.61251,0 20.41878,0 -5.91336,5.9136 -11.8267,11.82721 -17.74005,17.74082 -1.77504,2.36495 1.47599,3.96446 2.7603,5.58599 2.35098,1.92243 4.02584,-1.39253 5.6516,-2.69472 4.99354,-4.99324 9.9871,-9.98645 14.98064,-14.97966 0,8.10739 0,16.21476 0,24.32215 0.4172,2.92756 3.84711,1.75989 5.90198,1.99831 3.02237,-0.30256 1.86274,-3.83135 2.09133,-5.90191 0,-6.90214 0,-13.80427 0,-20.70639 6.00931,6.00922 12.0186,12.01845 18.02789,18.02769 2.40014,1.77564 4.00317,-1.53099 5.6525,-2.82574 1.77504,-2.36495 -1.47599,-3.96446 -2.7603,-5.586 -4.99357,-4.99351 -9.98714,-9.98702 -14.98072,-14.98054 8.01185,0 16.02371,0 24.03556,0 2.92759,-0.4172 1.75992,-3.84708 1.99833,-5.90192 0,-10.68863 0,-21.37727 0,-32.0659 -0.41719,-2.92756 -3.84711,-1.75989 -5.90198,-1.9983 -8.69043,0 -17.38085,0 -26.07128,0 0,-2.66442 0,-5.32883 0,-7.99323 12.65609,0 25.31217,0 37.96824,0 2.92759,-0.41719 1.75992,-3.84707 1.99833,-5.90191 -0.30255,-3.02234 -3.83139,-1.86272 -5.90197,-2.09131 -11.35487,0 -22.70974,0 -34.0646,0 -0.0914,-2.25416 0.19158,-4.54557 -0.15655,-6.7742 -1.13529,-2.00604 -3.94645,-0.953 -5.83843,-1.21903 z m -25.97827,31.9729 c 7.99331,0 15.98662,0 23.97994,0 0,2.6644 0,5.32881 0,7.99322 -7.99332,0 -15.98663,0 -23.97994,0 0,-2.66441 0,-5.32882 0,-7.99322 z m 31.97325,0 c 7.99332,0 15.98663,0 23.97994,0 0,2.6644 0,5.32881 0,7.99322 -7.99331,0 -15.98662,0 -23.97994,0 0,-2.66441 0,-5.32882 0,-7.99322 z m -31.97325,15.98645 c 7.99331,0 15.98662,0 23.97994,0 0,2.6644 0,5.32881 0,7.99322 -7.99332,0 -15.98663,0 -23.97994,0 0,-2.66441 0,-5.32882 0,-7.99322 z m 31.97325,0 c 7.99332,0 15.98663,0 23.97994,0 0,2.6644 0,5.32881 0,7.99322 -7.99331,0 -15.98662,0 -23.97994,0 0,-2.66441 0,-5.32882 0,-7.99322 z"
         style="opacity:0.5;vector-effect:none;fill:#37a6e6;fill-opacity:1;stroke:none;stroke-width:0.99915856;stroke-linecap:butt;stroke-linejoin:round;stroke-miterlimit:4;stroke-dasharray:none;stroke-dashoffset:0;stroke-opacity:1" />
      <path
         inkscape:connector-curvature="0"
         id="rect3003-2"
         d="m 108,84 c -8.864,0 -16,7.556 -16,16.94141 v 1 C 92,92.556 99.136,85 108,85 h 88 c 8.864,0 16,7.556 16,16.94141 v -1 C 212,91.556 204.864,84 196,84 Z"
         style="display:inline;opacity:1;vector-effect:none;fill:#fefefd;fill-opacity:1;stroke:none;stroke-width:2.05798316;stroke-linecap:butt;stroke-linejoin:round;stroke-miterlimit:4;stroke-dasharray:none;stroke-dashoffset:0;stroke-opacity:1;enable-background:new" />
      <path
         sodipodi:nodetypes="cccccccccccccccccccccccccccccccccccccccccccccccccccccccccccccccccccccccccccccccccccccccccccc"
         inkscape:connector-curvature="0"
         id="rect2781-3"
         d="m 153.20541,108.00212 c -1.0812,-0.0208 -2.25714,0.17599 -3.20313,0.043 -1.99698,0.28458 -2.08553,1.97048 -2.01758,3.66602 0.0526,-1.30871 0.42021,-2.43838 2.01758,-2.66602 1.89198,0.26603 4.7026,-0.78729 5.83789,1.21875 0.14058,0.89993 0.16896,1.8108 0.16993,2.72461 0.0232,-1.24956 0.0219,-2.49644 -0.16993,-3.72461 -0.56764,-1.00302 -1.55356,-1.24097 -2.63476,-1.26172 z m -5.1875,5.59571 c -0.006,0.11544 -0.001,0.24117 -0.0137,0.34961 0.0181,0.0617 0.0183,0.10555 0.0332,0.16406 -0.002,-0.16594 -0.0123,-0.341 -0.0195,-0.51367 z m 7.9707,1.45117 c -0.0122,0.66447 -0.019,1.32769 0.008,1.98828 h 34.06446 c 2.02531,0.22359 5.43742,-0.86988 5.86914,1.91016 -0.003,-0.28827 0.004,-0.56393 0.0332,-0.81836 -0.30255,-3.02234 -3.83176,-1.86321 -5.90234,-2.0918 h -34.06446 c -0.0133,-0.32852 -0.007,-0.65849 -0.008,-0.98828 z m -7.9043,0.29297 c -0.27528,0.85118 -1.37109,0.88134 -2.68359,0.69531 h -35.36523 c -1.99734,0.28463 -2.08561,1.97213 -2.01758,3.66797 0.0526,-1.30871 0.4202,-2.44034 2.01758,-2.66797 h 35.36523 c 1.70085,0.24108 3.03742,0.11826 2.68359,-1.69531 z m 47.86524,4.13672 c -0.0278,0.57952 0.007,1.2264 0.0332,1.88476 0.0248,-0.61646 -0.007,-1.26107 -0.0332,-1.88476 z m -87.89844,2.11132 c -0.006,0.11574 -10e-4,0.24093 -0.0137,0.34961 0.007,0.0661 0.0236,0.11951 0.0332,0.18164 -0.002,-0.17119 -0.012,-0.3528 -0.0195,-0.53125 z m 76.67774,10.40039 c -0.92593,0.016 -1.88958,0.12261 -2.66016,0.0332 h -26.07227 v 1 h 26.07227 c 2.05487,0.23841 5.48515,-0.92756 5.90234,2 v -1 c -0.26074,-1.82973 -1.69898,-2.05979 -3.24218,-2.03321 z m -66.69922,0.0332 c -1.99734,0.28462 -2.08561,1.97213 -2.01758,3.66797 0.0526,-1.30871 0.4202,-2.44034 2.01758,-2.66797 h 29.97461 v -1 z m -1.98438,5.53906 c -0.006,0.12053 -0.003,0.25034 -0.0156,0.36328 v 1 c 0.0475,-0.40941 0.0362,-0.8794 0.0156,-1.36328 z m 7.97852,10.44727 v 1 h 23.98047 v -1 z m 31.97265,0 v 1 h 23.98047 v -1 z m -31.97265,15.98828 v 1 h 23.98047 v -1 z m 31.97265,0 v 1 h 23.98047 v -1 z m 31.95899,3.45312 c -0.0264,0.57623 0.007,1.21789 0.0332,1.8711 0.0245,-0.61158 -0.007,-1.25191 -0.0332,-1.8711 z M 142.252,171.99 c -5.58003,5.58026 -12.06032,12.16036 -17.64034,17.74063 -0.50842,0.67738 -0.59726,1.29103 -0.44531,1.86133 0.078,-0.27572 0.22125,-0.56281 0.44531,-0.86133 5.91335,-5.91361 12.72698,-12.82703 18.64034,-18.74063 z m 18.784,0 15.88035,15.98086 c 0.91729,1.15816 2.83099,2.30593 3.20703,3.72852 0.54194,-1.90953 -2.08446,-3.31118 -3.20703,-4.72852 L 162.036,171.99001 Z m -5.05325,27.41446 c -0.0258,0.56626 0.006,1.20027 0.0312,1.84765 0.0223,-0.60622 -0.006,-1.23748 -0.0312,-1.84765 z"
         style="display:inline;opacity:0.7;vector-effect:none;fill:#ffffff;fill-opacity:1;stroke:none;stroke-width:0.99915856;stroke-linecap:butt;stroke-linejoin:round;stroke-miterlimit:4;stroke-dasharray:none;stroke-dashoffset:0;stroke-opacity:1;enable-background:new" />
    </g>
    <path
       sodipodi:nodetypes="sssssssss"
       inkscape:connector-curvature="0"
       id="path1068"
       d="M 361.9375,-212 C 507.2348,-212 528,-191.28677 528,-46.125 V 70.125 C 528,215.28618 507.2348,236 361.9375,236 H 214.0625 C 68.7652,236 48,215.28618 48,70.125 V -46.125 C 48,-191.28677 68.7652,-212 214.0625,-212 Z"
       style="display:inline;opacity:0.4;fill:none;fill-opacity:1;stroke:url(#linearGradient1108);stroke-width:8;stroke-linecap:round;stroke-linejoin:round;stroke-miterlimit:4;stroke-dasharray:none;stroke-dashoffset:0;stroke-opacity:1;enable-background:new"
       clip-path="url(#clipPath1082-3-3675)"
       transform="matrix(0.13229167,0,0,0.13229167,-4.8768,261.66013)" />
  </g>
</svg>
