<?xml version="1.0" encoding="UTF-8" standalone="no"?>
<!-- Created with Inkscape (http://www.inkscape.org/) -->

<svg
   xmlns:dc="http://purl.org/dc/elements/1.1/"
   xmlns:cc="http://creativecommons.org/ns#"
   xmlns:rdf="http://www.w3.org/1999/02/22-rdf-syntax-ns#"
   xmlns:svg="http://www.w3.org/2000/svg"
   xmlns="http://www.w3.org/2000/svg"
   xmlns:xlink="http://www.w3.org/1999/xlink"
   xmlns:sodipodi="http://sodipodi.sourceforge.net/DTD/sodipodi-0.dtd"
   xmlns:inkscape="http://www.inkscape.org/namespaces/inkscape"
   width="256"
   height="256"
   viewBox="0 0 67.733332 67.733335"
   version="1.1"
   id="svg1488"
   inkscape:version="0.92.3 (2405546, 2018-03-11)"
   sodipodi:docname="preferences-desktop.svg">
  <defs
     id="defs1482">
    <clipPath
       clipPathUnits="userSpaceOnUse"
       id="clipPath1025">
      <path
         id="path1027"
         d="M 111.94141,84 C 99.359506,84.145 90.1531,83.713998 82.625,87.867188 c -3.7641,2.0768 -6.751838,5.574737 -8.398438,9.960937 C 72.580062,102.21433 72,107.4241 72,114 v 42 h 160 v -26 c 0,-6.5759 -0.57996,-11.78566 -2.22656,-16.17188 -0.205,-0.5455 -0.47919,-1.03993 -0.74219,-1.54296 -0.1,-0.1848 -0.17844,-0.38051 -0.27344,-0.56641 -1.727,-3.38752 -4.25471,-6.14522 -7.38281,-7.87109 C 213.8463,99.694146 204.64049,100.1454 192.05859,100 H 192 151.66797 L 135.45312,84 h -23.49218 z"
         style="color:#000000;font-style:normal;font-variant:normal;font-weight:normal;font-stretch:normal;font-size:medium;line-height:normal;font-family:sans-serif;font-variant-ligatures:none;font-variant-position:normal;font-variant-caps:normal;font-variant-numeric:normal;font-variant-alternates:normal;font-feature-settings:normal;text-indent:0;text-align:start;text-decoration:none;text-decoration-line:none;text-decoration-style:solid;text-decoration-color:#000000;letter-spacing:normal;word-spacing:normal;text-transform:none;writing-mode:lr-tb;direction:ltr;baseline-shift:baseline;text-anchor:start;white-space:normal;shape-padding:0;clip-rule:nonzero;display:inline;overflow:visible;visibility:visible;opacity:1;isolation:auto;mix-blend-mode:normal;color-interpolation:sRGB;color-interpolation-filters:linearRGB;solid-color:#000000;solid-opacity:1;fill:#e3dfd5;fill-opacity:1;fill-rule:nonzero;stroke:none;stroke-width:4.00000048;stroke-linecap:butt;stroke-linejoin:miter;stroke-miterlimit:4;stroke-dasharray:none;stroke-dashoffset:0;stroke-opacity:1;marker:none;color-rendering:auto;image-rendering:auto;shape-rendering:auto;text-rendering:auto;enable-background:accumulate"
         inkscape:connector-curvature="0" />
    </clipPath>
    <clipPath
       clipPathUnits="userSpaceOnUse"
       id="clipPath1082-3">
      <path
         sodipodi:nodetypes="sssssssss"
         inkscape:connector-curvature="0"
         id="path1084-6"
         d="M 361.9375,-212 C 507.2348,-212 528,-191.28677 528,-46.125 V 70.125 C 528,215.28618 507.2348,236 361.9375,236 H 214.0625 C 68.7652,236 48,215.28618 48,70.125 V -46.125 C 48,-191.28677 68.7652,-212 214.0625,-212 Z"
         style="display:inline;opacity:1;fill:#8c59d9;fill-opacity:1;stroke:none;stroke-width:2;stroke-linecap:round;stroke-linejoin:round;stroke-miterlimit:4;stroke-dasharray:none;stroke-dashoffset:0;stroke-opacity:1;enable-background:new" />
    </clipPath>
    <clipPath
       clipPathUnits="userSpaceOnUse"
       id="clipPath1082-3-5">
      <path
         sodipodi:nodetypes="sssssssss"
         inkscape:connector-curvature="0"
         id="path1084-6-6"
         d="M 361.9375,-212 C 507.2348,-212 528,-191.28677 528,-46.125 V 70.125 C 528,215.28618 507.2348,236 361.9375,236 H 214.0625 C 68.7652,236 48,215.28618 48,70.125 V -46.125 C 48,-191.28677 68.7652,-212 214.0625,-212 Z"
         style="display:inline;opacity:1;fill:#8c59d9;fill-opacity:1;stroke:none;stroke-width:2;stroke-linecap:round;stroke-linejoin:round;stroke-miterlimit:4;stroke-dasharray:none;stroke-dashoffset:0;stroke-opacity:1;enable-background:new" />
    </clipPath>
    <clipPath
       clipPathUnits="userSpaceOnUse"
       id="clipPath1082-3-9">
      <path
         sodipodi:nodetypes="sssssssss"
         inkscape:connector-curvature="0"
         id="path1084-6-3"
         d="M 361.9375,-212 C 507.2348,-212 528,-191.28677 528,-46.125 V 70.125 C 528,215.28618 507.2348,236 361.9375,236 H 214.0625 C 68.7652,236 48,215.28618 48,70.125 V -46.125 C 48,-191.28677 68.7652,-212 214.0625,-212 Z"
         style="display:inline;opacity:1;fill:#8c59d9;fill-opacity:1;stroke:none;stroke-width:2;stroke-linecap:round;stroke-linejoin:round;stroke-miterlimit:4;stroke-dasharray:none;stroke-dashoffset:0;stroke-opacity:1;enable-background:new" />
    </clipPath>
    <clipPath
       clipPathUnits="userSpaceOnUse"
       id="clipPath1082-3-3">
      <path
         sodipodi:nodetypes="sssssssss"
         inkscape:connector-curvature="0"
         id="path1084-6-67"
         d="M 361.9375,-212 C 507.2348,-212 528,-191.28677 528,-46.125 V 70.125 C 528,215.28618 507.2348,236 361.9375,236 H 214.0625 C 68.7652,236 48,215.28618 48,70.125 V -46.125 C 48,-191.28677 68.7652,-212 214.0625,-212 Z"
         style="display:inline;opacity:1;fill:#8c59d9;fill-opacity:1;stroke:none;stroke-width:2;stroke-linecap:round;stroke-linejoin:round;stroke-miterlimit:4;stroke-dasharray:none;stroke-dashoffset:0;stroke-opacity:1;enable-background:new" />
    </clipPath>
    <clipPath
       clipPathUnits="userSpaceOnUse"
       id="clipPath1082-3-53">
      <path
         sodipodi:nodetypes="sssssssss"
         inkscape:connector-curvature="0"
         id="path1084-6-5"
         d="M 361.9375,-212 C 507.2348,-212 528,-191.28677 528,-46.125 V 70.125 C 528,215.28618 507.2348,236 361.9375,236 H 214.0625 C 68.7652,236 48,215.28618 48,70.125 V -46.125 C 48,-191.28677 68.7652,-212 214.0625,-212 Z"
         style="display:inline;opacity:1;fill:#8c59d9;fill-opacity:1;stroke:none;stroke-width:2;stroke-linecap:round;stroke-linejoin:round;stroke-miterlimit:4;stroke-dasharray:none;stroke-dashoffset:0;stroke-opacity:1;enable-background:new" />
    </clipPath>
    <clipPath
       clipPathUnits="userSpaceOnUse"
       id="clipPath1082-3-6">
      <path
         sodipodi:nodetypes="sssssssss"
         inkscape:connector-curvature="0"
         id="path1084-6-2"
         d="M 361.9375,-212 C 507.2348,-212 528,-191.28677 528,-46.125 V 70.125 C 528,215.28618 507.2348,236 361.9375,236 H 214.0625 C 68.7652,236 48,215.28618 48,70.125 V -46.125 C 48,-191.28677 68.7652,-212 214.0625,-212 Z"
         style="display:inline;opacity:1;fill:#8c59d9;fill-opacity:1;stroke:none;stroke-width:2;stroke-linecap:round;stroke-linejoin:round;stroke-miterlimit:4;stroke-dasharray:none;stroke-dashoffset:0;stroke-opacity:1;enable-background:new" />
    </clipPath>
    <clipPath
       clipPathUnits="userSpaceOnUse"
       id="clipPath1082-3-91">
      <path
         sodipodi:nodetypes="sssssssss"
         inkscape:connector-curvature="0"
         id="path1084-6-27"
         d="M 361.9375,-212 C 507.2348,-212 528,-191.28677 528,-46.125 V 70.125 C 528,215.28618 507.2348,236 361.9375,236 H 214.0625 C 68.7652,236 48,215.28618 48,70.125 V -46.125 C 48,-191.28677 68.7652,-212 214.0625,-212 Z"
         style="display:inline;opacity:1;fill:#8c59d9;fill-opacity:1;stroke:none;stroke-width:2;stroke-linecap:round;stroke-linejoin:round;stroke-miterlimit:4;stroke-dasharray:none;stroke-dashoffset:0;stroke-opacity:1;enable-background:new" />
    </clipPath>
    <clipPath
       clipPathUnits="userSpaceOnUse"
       id="clipPath1025-0">
      <path
         style="opacity:1;fill:#8c59d9;fill-opacity:1;stroke:none;stroke-width:2;stroke-linecap:round;stroke-linejoin:round;stroke-miterlimit:4;stroke-dasharray:none;stroke-dashoffset:0;stroke-opacity:1"
         d="M 329.9375,32 C 475.2348,32 496,52.71323 496,197.875 v 116.25 C 496,459.28618 475.2348,480 329.9375,480 H 182.0625 C 36.7652,480 16,459.28618 16,314.125 V 197.875 C 16,52.71323 36.7652,32 182.0625,32 Z"
         id="path1027-9"
         inkscape:connector-curvature="0"
         sodipodi:nodetypes="sssssssss" />
    </clipPath>
    <clipPath
       clipPathUnits="userSpaceOnUse"
       id="clipPath4277-8">
      <rect
         style="color:#000000;display:inline;overflow:visible;visibility:visible;opacity:0.81999972;fill:#88b637;fill-opacity:1;fill-rule:nonzero;stroke:none;stroke-width:2;stroke-linecap:butt;stroke-linejoin:miter;stroke-miterlimit:4;stroke-dasharray:none;stroke-dashoffset:0;stroke-opacity:1;marker:none;enable-background:accumulate"
         id="rect4279-6"
         width="512"
         height="512"
         x="5.5999999e-07"
         y="0"
         ry="1" />
    </clipPath>
    <linearGradient
       id="linearGradient3650-7-9">
      <stop
         style="stop-color:#5884f4;stop-opacity:1"
         offset="0"
         id="stop4366" />
      <stop
         id="stop4368"
         offset="1"
         style="stop-color:#80a3fa;stop-opacity:1" />
    </linearGradient>
    <clipPath
       clipPathUnits="userSpaceOnUse"
       id="clipPath1082-3-36">
      <path
         sodipodi:nodetypes="sssssssss"
         inkscape:connector-curvature="0"
         id="path1084-6-0"
         d="M 361.9375,-212 C 507.2348,-212 528,-191.28677 528,-46.125 V 70.125 C 528,215.28618 507.2348,236 361.9375,236 H 214.0625 C 68.7652,236 48,215.28618 48,70.125 V -46.125 C 48,-191.28677 68.7652,-212 214.0625,-212 Z"
         style="display:inline;opacity:1;fill:#8c59d9;fill-opacity:1;stroke:none;stroke-width:2;stroke-linecap:round;stroke-linejoin:round;stroke-miterlimit:4;stroke-dasharray:none;stroke-dashoffset:0;stroke-opacity:1;enable-background:new" />
    </clipPath>
    <clipPath
       clipPathUnits="userSpaceOnUse"
       id="clipPath983">
      <path
         id="path985"
         d="M 115.03125,44 C 42.3826,44 32,54.356615 32,126.9375 v 58.125 C 32,257.64309 42.3826,268 115.03125,268 H 152 V 44 Z"
         style="opacity:1;fill:#4d4d4d;fill-opacity:1;stroke:none;stroke-width:2;stroke-linecap:round;stroke-linejoin:round;stroke-miterlimit:4;stroke-dasharray:none;stroke-dashoffset:0;stroke-opacity:1"
         inkscape:connector-curvature="0" />
    </clipPath>
    <clipPath
       clipPathUnits="userSpaceOnUse"
       id="clipPath1082-3-62">
      <path
         sodipodi:nodetypes="sssssssss"
         inkscape:connector-curvature="0"
         id="path1084-6-61"
         d="M 361.9375,-212 C 507.2348,-212 528,-191.28677 528,-46.125 V 70.125 C 528,215.28618 507.2348,236 361.9375,236 H 214.0625 C 68.7652,236 48,215.28618 48,70.125 V -46.125 C 48,-191.28677 68.7652,-212 214.0625,-212 Z"
         style="display:inline;opacity:1;fill:#8c59d9;fill-opacity:1;stroke:none;stroke-width:2;stroke-linecap:round;stroke-linejoin:round;stroke-miterlimit:4;stroke-dasharray:none;stroke-dashoffset:0;stroke-opacity:1;enable-background:new" />
    </clipPath>
    <clipPath
       clipPathUnits="userSpaceOnUse"
       id="clipPath949">
      <path
         sodipodi:nodetypes="sssssssss"
         inkscape:connector-curvature="0"
         id="path951"
         d="M 329.9375,32 C 475.2348,32 496,52.71323 496,197.875 v 116.25 C 496,459.28618 475.2348,480 329.9375,480 H 182.0625 C 36.7652,480 16,459.28618 16,314.125 V 197.875 C 16,52.71323 36.7652,32 182.0625,32 Z"
         style="opacity:1;fill:#eab305;fill-opacity:1;stroke:none;stroke-width:4;stroke-linecap:round;stroke-linejoin:round;stroke-miterlimit:4;stroke-dasharray:none;stroke-dashoffset:0;stroke-opacity:1" />
    </clipPath>
    <clipPath
       clipPathUnits="userSpaceOnUse"
       id="clipPath954">
      <path
         sodipodi:nodetypes="sssssssss"
         inkscape:connector-curvature="0"
         id="path952"
         d="M 329.9375,32 C 475.2348,32 496,52.71323 496,197.875 v 116.25 C 496,459.28618 475.2348,480 329.9375,480 H 182.0625 C 36.7652,480 16,459.28618 16,314.125 V 197.875 C 16,52.71323 36.7652,32 182.0625,32 Z"
         style="opacity:1;fill:#eab305;fill-opacity:1;stroke:none;stroke-width:4;stroke-linecap:round;stroke-linejoin:round;stroke-miterlimit:4;stroke-dasharray:none;stroke-dashoffset:0;stroke-opacity:1" />
    </clipPath>
    <clipPath
       clipPathUnits="userSpaceOnUse"
       id="clipPath1082-3-8">
      <path
         sodipodi:nodetypes="sssssssss"
         inkscape:connector-curvature="0"
         id="path1084-6-7"
         d="M 361.9375,-212 C 507.2348,-212 528,-191.28677 528,-46.125 V 70.125 C 528,215.28618 507.2348,236 361.9375,236 H 214.0625 C 68.7652,236 48,215.28618 48,70.125 V -46.125 C 48,-191.28677 68.7652,-212 214.0625,-212 Z"
         style="display:inline;opacity:1;fill:#8c59d9;fill-opacity:1;stroke:none;stroke-width:2;stroke-linecap:round;stroke-linejoin:round;stroke-miterlimit:4;stroke-dasharray:none;stroke-dashoffset:0;stroke-opacity:1;enable-background:new" />
    </clipPath>
    <clipPath
       clipPathUnits="userSpaceOnUse"
       id="clipPath1082-3-92">
      <path
         sodipodi:nodetypes="sssssssss"
         inkscape:connector-curvature="0"
         id="path1084-6-02"
         d="M 361.9375,-212 C 507.2348,-212 528,-191.28677 528,-46.125 V 70.125 C 528,215.28618 507.2348,236 361.9375,236 H 214.0625 C 68.7652,236 48,215.28618 48,70.125 V -46.125 C 48,-191.28677 68.7652,-212 214.0625,-212 Z"
         style="display:inline;opacity:1;fill:#8c59d9;fill-opacity:1;stroke:none;stroke-width:2;stroke-linecap:round;stroke-linejoin:round;stroke-miterlimit:4;stroke-dasharray:none;stroke-dashoffset:0;stroke-opacity:1;enable-background:new" />
    </clipPath>
    <clipPath
       clipPathUnits="userSpaceOnUse"
       id="clipPath1082">
      <path
         sodipodi:nodetypes="sssssssss"
         inkscape:connector-curvature="0"
         id="path1084"
         d="M 361.9375,-212 C 507.2348,-212 528,-191.28677 528,-46.125 V 70.125 C 528,215.28618 507.2348,236 361.9375,236 H 214.0625 C 68.7652,236 48,215.28618 48,70.125 V -46.125 C 48,-191.28677 68.7652,-212 214.0625,-212 Z"
         style="display:inline;opacity:1;fill:#8c59d9;fill-opacity:1;stroke:none;stroke-width:2;stroke-linecap:round;stroke-linejoin:round;stroke-miterlimit:4;stroke-dasharray:none;stroke-dashoffset:0;stroke-opacity:1;enable-background:new" />
    </clipPath>
    <clipPath
       clipPathUnits="userSpaceOnUse"
       id="clipPath1082-3-361">
      <path
         sodipodi:nodetypes="sssssssss"
         inkscape:connector-curvature="0"
         id="path1084-6-29"
         d="M 361.9375,-212 C 507.2348,-212 528,-191.28677 528,-46.125 V 70.125 C 528,215.28618 507.2348,236 361.9375,236 H 214.0625 C 68.7652,236 48,215.28618 48,70.125 V -46.125 C 48,-191.28677 68.7652,-212 214.0625,-212 Z"
         style="display:inline;opacity:1;fill:#8c59d9;fill-opacity:1;stroke:none;stroke-width:2;stroke-linecap:round;stroke-linejoin:round;stroke-miterlimit:4;stroke-dasharray:none;stroke-dashoffset:0;stroke-opacity:1;enable-background:new" />
    </clipPath>
    <clipPath
       clipPathUnits="userSpaceOnUse"
       id="clipPath1079">
      <circle
         cx="213.84277"
         cy="146"
         r="55"
         style="color:#000000;display:inline;overflow:visible;visibility:visible;opacity:1;fill:url(#linearGradient1083);fill-opacity:1;fill-rule:nonzero;stroke:none;stroke-width:7.99999952;stroke-linecap:butt;stroke-linejoin:miter;stroke-miterlimit:4;stroke-dasharray:none;stroke-dashoffset:0;stroke-opacity:1;marker:none;enable-background:accumulate"
         id="circle1081"
         transform="scale(-1,1)" />
    </clipPath>
    <clipPath
       clipPathUnits="userSpaceOnUse"
       id="clipPath984">
      <circle
         cx="213.84277"
         cy="146"
         r="55"
         style="color:#000000;display:inline;overflow:visible;visibility:visible;opacity:1;fill:url(#linearGradient1083);fill-opacity:1;fill-rule:nonzero;stroke:none;stroke-width:7.99999952;stroke-linecap:butt;stroke-linejoin:miter;stroke-miterlimit:4;stroke-dasharray:none;stroke-dashoffset:0;stroke-opacity:1;marker:none;enable-background:accumulate"
         id="circle982"
         transform="scale(-1,1)" />
    </clipPath>
    <clipPath
       clipPathUnits="userSpaceOnUse"
       id="clipPath988">
      <circle
         cx="213.84277"
         cy="146"
         r="55"
         style="color:#000000;display:inline;overflow:visible;visibility:visible;opacity:1;fill:url(#linearGradient1083);fill-opacity:1;fill-rule:nonzero;stroke:none;stroke-width:7.99999952;stroke-linecap:butt;stroke-linejoin:miter;stroke-miterlimit:4;stroke-dasharray:none;stroke-dashoffset:0;stroke-opacity:1;marker:none;enable-background:accumulate"
         id="circle986"
         transform="scale(-1,1)" />
    </clipPath>
    <clipPath
       clipPathUnits="userSpaceOnUse"
       id="clipPath992">
      <circle
         cx="213.84277"
         cy="146"
         r="55"
         style="color:#000000;display:inline;overflow:visible;visibility:visible;opacity:1;fill:url(#linearGradient1083);fill-opacity:1;fill-rule:nonzero;stroke:none;stroke-width:7.99999952;stroke-linecap:butt;stroke-linejoin:miter;stroke-miterlimit:4;stroke-dasharray:none;stroke-dashoffset:0;stroke-opacity:1;marker:none;enable-background:accumulate"
         id="circle990"
         transform="scale(-1,1)" />
    </clipPath>
    <clipPath
       clipPathUnits="userSpaceOnUse"
       id="clipPath1082-3-31">
      <path
         sodipodi:nodetypes="sssssssss"
         inkscape:connector-curvature="0"
         id="path1084-6-9"
         d="M 361.9375,-212 C 507.2348,-212 528,-191.28677 528,-46.125 V 70.125 C 528,215.28618 507.2348,236 361.9375,236 H 214.0625 C 68.7652,236 48,215.28618 48,70.125 V -46.125 C 48,-191.28677 68.7652,-212 214.0625,-212 Z"
         style="display:inline;opacity:1;fill:#8c59d9;fill-opacity:1;stroke:none;stroke-width:2;stroke-linecap:round;stroke-linejoin:round;stroke-miterlimit:4;stroke-dasharray:none;stroke-dashoffset:0;stroke-opacity:1;enable-background:new" />
    </clipPath>
    <clipPath
       clipPathUnits="userSpaceOnUse"
       id="clipPath1205">
      <path
         id="path1207"
         d="M 115.03125,44 C 42.3826,44 32,54.356615 32,126.9375 v 58.125 c 0,13.772 0.379014,25.29352 1.482422,34.9375 H 270.51758 C 271.62099,210.35602 272,198.8345 272,185.0625 v -58.125 C 272,54.356615 261.6174,44 188.96875,44 Z"
         style="opacity:1;fill:#f1f0e9;fill-opacity:1;stroke:none;stroke-width:2;stroke-linecap:round;stroke-linejoin:round;stroke-miterlimit:4;stroke-dasharray:none;stroke-dashoffset:0;stroke-opacity:1"
         inkscape:connector-curvature="0" />
    </clipPath>
    <clipPath
       clipPathUnits="userSpaceOnUse"
       id="clipPath1082-3-4">
      <path
         sodipodi:nodetypes="sssssssss"
         inkscape:connector-curvature="0"
         id="path1084-6-78"
         d="M 361.9375,-212 C 507.2348,-212 528,-191.28677 528,-46.125 V 70.125 C 528,215.28618 507.2348,236 361.9375,236 H 214.0625 C 68.7652,236 48,215.28618 48,70.125 V -46.125 C 48,-191.28677 68.7652,-212 214.0625,-212 Z"
         style="display:inline;opacity:1;fill:#8c59d9;fill-opacity:1;stroke:none;stroke-width:2;stroke-linecap:round;stroke-linejoin:round;stroke-miterlimit:4;stroke-dasharray:none;stroke-dashoffset:0;stroke-opacity:1;enable-background:new" />
    </clipPath>
    <clipPath
       clipPathUnits="userSpaceOnUse"
       id="clipPath1082-3-45">
      <path
         sodipodi:nodetypes="sssssssss"
         inkscape:connector-curvature="0"
         id="path1084-6-03"
         d="M 361.9375,-212 C 507.2348,-212 528,-191.28677 528,-46.125 V 70.125 C 528,215.28618 507.2348,236 361.9375,236 H 214.0625 C 68.7652,236 48,215.28618 48,70.125 V -46.125 C 48,-191.28677 68.7652,-212 214.0625,-212 Z"
         style="display:inline;opacity:1;fill:#8c59d9;fill-opacity:1;stroke:none;stroke-width:2;stroke-linecap:round;stroke-linejoin:round;stroke-miterlimit:4;stroke-dasharray:none;stroke-dashoffset:0;stroke-opacity:1;enable-background:new" />
    </clipPath>
    <clipPath
       clipPathUnits="userSpaceOnUse"
       id="clipPath1082-3-61">
      <path
         sodipodi:nodetypes="sssssssss"
         inkscape:connector-curvature="0"
         id="path1084-6-06"
         d="M 361.9375,-212 C 507.2348,-212 528,-191.28677 528,-46.125 V 70.125 C 528,215.28618 507.2348,236 361.9375,236 H 214.0625 C 68.7652,236 48,215.28618 48,70.125 V -46.125 C 48,-191.28677 68.7652,-212 214.0625,-212 Z"
         style="display:inline;opacity:1;fill:#8c59d9;fill-opacity:1;stroke:none;stroke-width:2;stroke-linecap:round;stroke-linejoin:round;stroke-miterlimit:4;stroke-dasharray:none;stroke-dashoffset:0;stroke-opacity:1;enable-background:new" />
    </clipPath>
    <clipPath
       clipPathUnits="userSpaceOnUse"
       id="clipPath1064">
      <path
         style="opacity:1;fill:#a3dbf0;fill-opacity:1;stroke:none;stroke-width:2;stroke-linecap:round;stroke-linejoin:round;stroke-miterlimit:4;stroke-dasharray:none;stroke-dashoffset:0;stroke-opacity:1"
         d="M 115.03125,44 C 42.3826,44 32,54.356615 32,126.9375 v 58.125 c 0,10.16582 0.217657,19.07051 0.767578,26.9375 3.376331,48.30069 19.790377,56 82.263672,56 h 73.9375 c 62.4733,0 78.88734,-7.69931 82.26367,-56 C 271.78234,204.13301 272,195.22832 272,185.0625 v -58.125 C 272,54.356615 261.6174,44 188.96875,44 Z"
         id="path1066"
         inkscape:connector-curvature="0" />
    </clipPath>
    <clipPath
       clipPathUnits="userSpaceOnUse"
       id="clipPath1082-3-32">
      <path
         sodipodi:nodetypes="sssssssss"
         inkscape:connector-curvature="0"
         id="path1084-6-061"
         d="M 361.9375,-212 C 507.2348,-212 528,-191.28677 528,-46.125 V 70.125 C 528,215.28618 507.2348,236 361.9375,236 H 214.0625 C 68.7652,236 48,215.28618 48,70.125 V -46.125 C 48,-191.28677 68.7652,-212 214.0625,-212 Z"
         style="display:inline;opacity:1;fill:#8c59d9;fill-opacity:1;stroke:none;stroke-width:2;stroke-linecap:round;stroke-linejoin:round;stroke-miterlimit:4;stroke-dasharray:none;stroke-dashoffset:0;stroke-opacity:1;enable-background:new" />
    </clipPath>
    <clipPath
       clipPathUnits="userSpaceOnUse"
       id="clipPath947">
      <path
         sodipodi:nodetypes="sssssssss"
         inkscape:connector-curvature="0"
         id="path949"
         d="m 191.43333,45.066672 c 77.49189,0 88.56666,11.047056 88.56666,88.466668 v 62 C 279.99999,272.95263 268.92522,284 191.43333,284 H 112.56666 C 35.074773,284 23.999999,272.95263 23.999999,195.53334 v -62 c 0,-77.419612 11.074774,-88.466668 88.566661,-88.466668 z"
         style="opacity:1;fill:#a4c1f9;fill-opacity:1;stroke:none;stroke-width:2;stroke-linecap:round;stroke-linejoin:round;stroke-miterlimit:4;stroke-dasharray:none;stroke-dashoffset:0;stroke-opacity:1" />
    </clipPath>
    <clipPath
       clipPathUnits="userSpaceOnUse"
       id="clipPath1082-3-55">
      <path
         sodipodi:nodetypes="sssssssss"
         inkscape:connector-curvature="0"
         id="path1084-6-4"
         d="M 361.9375,-212 C 507.2348,-212 528,-191.28677 528,-46.125 V 70.125 C 528,215.28618 507.2348,236 361.9375,236 H 214.0625 C 68.7652,236 48,215.28618 48,70.125 V -46.125 C 48,-191.28677 68.7652,-212 214.0625,-212 Z"
         style="display:inline;opacity:1;fill:#8c59d9;fill-opacity:1;stroke:none;stroke-width:2;stroke-linecap:round;stroke-linejoin:round;stroke-miterlimit:4;stroke-dasharray:none;stroke-dashoffset:0;stroke-opacity:1;enable-background:new" />
    </clipPath>
    <clipPath
       clipPathUnits="userSpaceOnUse"
       id="clipPath991">
      <path
         sodipodi:nodetypes="sssssssss"
         inkscape:connector-curvature="0"
         id="path993"
         d="M 188.96875,44 C 261.6174,44 272,54.356615 272,126.9375 v 58.125 C 272,257.64309 261.6174,268 188.96875,268 h -73.9375 C 42.3826,268 32,257.64309 32,185.0625 v -58.125 C 32,54.356615 42.3826,44 115.03125,44 Z"
         style="opacity:1;fill:#6dc7f1;fill-opacity:1;stroke:none;stroke-width:2;stroke-linecap:round;stroke-linejoin:round;stroke-miterlimit:4;stroke-dasharray:none;stroke-dashoffset:0;stroke-opacity:1" />
    </clipPath>
    <clipPath
       clipPathUnits="userSpaceOnUse"
       id="clipPath978">
      <path
         sodipodi:nodetypes="sssssssss"
         inkscape:connector-curvature="0"
         id="path976"
         d="M 188.96875,44 C 261.6174,44 272,54.356615 272,126.9375 v 58.125 C 272,257.64309 261.6174,268 188.96875,268 h -73.9375 C 42.3826,268 32,257.64309 32,185.0625 v -58.125 C 32,54.356615 42.3826,44 115.03125,44 Z"
         style="opacity:1;fill:#6dc7f1;fill-opacity:1;stroke:none;stroke-width:2;stroke-linecap:round;stroke-linejoin:round;stroke-miterlimit:4;stroke-dasharray:none;stroke-dashoffset:0;stroke-opacity:1" />
    </clipPath>
    <clipPath
       clipPathUnits="userSpaceOnUse"
       id="clipPath942">
      <path
         sodipodi:nodetypes="sssssssss"
         inkscape:connector-curvature="0"
         id="path944"
         d="M 188.96875,44 C 261.6174,44 272,54.356615 272,126.9375 v 58.125 C 272,257.64309 261.6174,268 188.96875,268 h -73.9375 C 42.3826,268 32,257.64309 32,185.0625 v -58.125 C 32,54.356615 42.3826,44 115.03125,44 Z"
         style="display:inline;opacity:1;fill:#46a926;fill-opacity:1;stroke:none;stroke-width:2;stroke-linecap:round;stroke-linejoin:round;stroke-miterlimit:4;stroke-dasharray:none;stroke-dashoffset:0;stroke-opacity:1;enable-background:new" />
    </clipPath>
    <clipPath
       clipPathUnits="userSpaceOnUse"
       id="clipPath1082-3-7">
      <path
         sodipodi:nodetypes="sssssssss"
         inkscape:connector-curvature="0"
         id="path1084-6-65"
         d="M 361.9375,-212 C 507.2348,-212 528,-191.28677 528,-46.125 V 70.125 C 528,215.28618 507.2348,236 361.9375,236 H 214.0625 C 68.7652,236 48,215.28618 48,70.125 V -46.125 C 48,-191.28677 68.7652,-212 214.0625,-212 Z"
         style="display:inline;opacity:1;fill:#8c59d9;fill-opacity:1;stroke:none;stroke-width:2;stroke-linecap:round;stroke-linejoin:round;stroke-miterlimit:4;stroke-dasharray:none;stroke-dashoffset:0;stroke-opacity:1;enable-background:new" />
    </clipPath>
    <radialGradient
       id="radialGradient3322"
       gradientUnits="userSpaceOnUse"
       cy="-2.0645001"
       cx="26.617001"
       gradientTransform="matrix(-4.8906e-8,-2.8515,3.7557,0,674.00149,398.26285)"
       r="23">
      <stop
         id="stop2749"
         style="stop-color:#d280b9;stop-opacity:1"
         offset="0" />
      <stop
         offset="0.52913231"
         style="stop-color:#b549b5;stop-opacity:1"
         id="stop4269" />
      <stop
         id="stop2755"
         style="stop-color:#8940a8;stop-opacity:1"
         offset="1" />
    </radialGradient>
    <clipPath
       clipPathUnits="userSpaceOnUse"
       id="clipPath1082-3-69">
      <path
         sodipodi:nodetypes="sssssssss"
         inkscape:connector-curvature="0"
         id="path1084-6-37"
         d="M 361.9375,-212 C 507.2348,-212 528,-191.28677 528,-46.125 V 70.125 C 528,215.28618 507.2348,236 361.9375,236 H 214.0625 C 68.7652,236 48,215.28618 48,70.125 V -46.125 C 48,-191.28677 68.7652,-212 214.0625,-212 Z"
         style="display:inline;opacity:1;fill:#8c59d9;fill-opacity:1;stroke:none;stroke-width:2;stroke-linecap:round;stroke-linejoin:round;stroke-miterlimit:4;stroke-dasharray:none;stroke-dashoffset:0;stroke-opacity:1;enable-background:new" />
    </clipPath>
    <clipPath
       clipPathUnits="userSpaceOnUse"
       id="clipPath1082-3-452">
      <path
         sodipodi:nodetypes="sssssssss"
         inkscape:connector-curvature="0"
         id="path1084-6-54"
         d="M 361.9375,-212 C 507.2348,-212 528,-191.28677 528,-46.125 V 70.125 C 528,215.28618 507.2348,236 361.9375,236 H 214.0625 C 68.7652,236 48,215.28618 48,70.125 V -46.125 C 48,-191.28677 68.7652,-212 214.0625,-212 Z"
         style="display:inline;opacity:1;fill:#8c59d9;fill-opacity:1;stroke:none;stroke-width:2;stroke-linecap:round;stroke-linejoin:round;stroke-miterlimit:4;stroke-dasharray:none;stroke-dashoffset:0;stroke-opacity:1;enable-background:new" />
    </clipPath>
    <clipPath
       clipPathUnits="userSpaceOnUse"
       id="clipPath1082-3-74">
      <path
         sodipodi:nodetypes="sssssssss"
         inkscape:connector-curvature="0"
         id="path1084-6-43"
         d="M 361.9375,-212 C 507.2348,-212 528,-191.28677 528,-46.125 V 70.125 C 528,215.28618 507.2348,236 361.9375,236 H 214.0625 C 68.7652,236 48,215.28618 48,70.125 V -46.125 C 48,-191.28677 68.7652,-212 214.0625,-212 Z"
         style="display:inline;opacity:1;fill:#8c59d9;fill-opacity:1;stroke:none;stroke-width:2;stroke-linecap:round;stroke-linejoin:round;stroke-miterlimit:4;stroke-dasharray:none;stroke-dashoffset:0;stroke-opacity:1;enable-background:new" />
    </clipPath>
    <clipPath
       clipPathUnits="userSpaceOnUse"
       id="clipPath1032">
      <path
         sodipodi:nodetypes="sssssssss"
         inkscape:connector-curvature="0"
         id="path1034"
         d="M 188.96875,44 C 261.6174,44 272,54.356615 272,126.9375 v 58.125 C 272,257.64309 261.6174,268 188.96875,268 h -73.9375 C 42.3826,268 32,257.64309 32,185.0625 v -58.125 C 32,54.356615 42.3826,44 115.03125,44 Z"
         style="opacity:1;fill:#76c22b;fill-opacity:1;stroke:none;stroke-width:2;stroke-linecap:round;stroke-linejoin:round;stroke-miterlimit:4;stroke-dasharray:none;stroke-dashoffset:0;stroke-opacity:1" />
    </clipPath>
    <clipPath
       clipPathUnits="userSpaceOnUse"
       id="clipPath1082-3-0">
      <path
         sodipodi:nodetypes="sssssssss"
         inkscape:connector-curvature="0"
         id="path1084-6-786"
         d="M 361.9375,-212 C 507.2348,-212 528,-191.28677 528,-46.125 V 70.125 C 528,215.28618 507.2348,236 361.9375,236 H 214.0625 C 68.7652,236 48,215.28618 48,70.125 V -46.125 C 48,-191.28677 68.7652,-212 214.0625,-212 Z"
         style="display:inline;opacity:1;fill:#8c59d9;fill-opacity:1;stroke:none;stroke-width:2;stroke-linecap:round;stroke-linejoin:round;stroke-miterlimit:4;stroke-dasharray:none;stroke-dashoffset:0;stroke-opacity:1;enable-background:new" />
    </clipPath>
    <clipPath
       clipPathUnits="userSpaceOnUse"
       id="clipPath1082-3-89">
      <path
         sodipodi:nodetypes="sssssssss"
         inkscape:connector-curvature="0"
         id="path1084-6-26"
         d="M 361.9375,-212 C 507.2348,-212 528,-191.28677 528,-46.125 V 70.125 C 528,215.28618 507.2348,236 361.9375,236 H 214.0625 C 68.7652,236 48,215.28618 48,70.125 V -46.125 C 48,-191.28677 68.7652,-212 214.0625,-212 Z"
         style="display:inline;opacity:1;fill:#8c59d9;fill-opacity:1;stroke:none;stroke-width:2;stroke-linecap:round;stroke-linejoin:round;stroke-miterlimit:4;stroke-dasharray:none;stroke-dashoffset:0;stroke-opacity:1;enable-background:new" />
    </clipPath>
    <clipPath
       clipPathUnits="userSpaceOnUse"
       id="clipPath951">
      <path
         style="opacity:1;fill:#8c59d9;fill-opacity:1;stroke:none;stroke-width:2;stroke-linecap:round;stroke-linejoin:round;stroke-miterlimit:4;stroke-dasharray:none;stroke-dashoffset:0;stroke-opacity:1"
         d="M 188.96875,44 C 261.6174,44 272,54.356615 272,126.9375 v 58.125 C 272,257.64309 261.6174,268 188.96875,268 h -73.9375 C 42.3826,268 32,257.64309 32,185.0625 v -58.125 C 32,54.356615 42.3826,44 115.03125,44 Z"
         id="path953"
         inkscape:connector-curvature="0"
         sodipodi:nodetypes="sssssssss" />
    </clipPath>
    <clipPath
       clipPathUnits="userSpaceOnUse"
       id="clipPath1082-3-64">
      <path
         sodipodi:nodetypes="sssssssss"
         inkscape:connector-curvature="0"
         id="path1084-6-95"
         d="M 361.9375,-212 C 507.2348,-212 528,-191.28677 528,-46.125 V 70.125 C 528,215.28618 507.2348,236 361.9375,236 H 214.0625 C 68.7652,236 48,215.28618 48,70.125 V -46.125 C 48,-191.28677 68.7652,-212 214.0625,-212 Z"
         style="display:inline;opacity:1;fill:#8c59d9;fill-opacity:1;stroke:none;stroke-width:2;stroke-linecap:round;stroke-linejoin:round;stroke-miterlimit:4;stroke-dasharray:none;stroke-dashoffset:0;stroke-opacity:1;enable-background:new" />
    </clipPath>
    <clipPath
       clipPathUnits="userSpaceOnUse"
       id="clipPath1082-3-04">
      <path
         sodipodi:nodetypes="sssssssss"
         inkscape:connector-curvature="0"
         id="path1084-6-8"
         d="M 361.9375,-212 C 507.2348,-212 528,-191.28677 528,-46.125 V 70.125 C 528,215.28618 507.2348,236 361.9375,236 H 214.0625 C 68.7652,236 48,215.28618 48,70.125 V -46.125 C 48,-191.28677 68.7652,-212 214.0625,-212 Z"
         style="display:inline;opacity:1;fill:#8c59d9;fill-opacity:1;stroke:none;stroke-width:2;stroke-linecap:round;stroke-linejoin:round;stroke-miterlimit:4;stroke-dasharray:none;stroke-dashoffset:0;stroke-opacity:1;enable-background:new" />
    </clipPath>
    <clipPath
       clipPathUnits="userSpaceOnUse"
       id="clipPath1082-3-1">
      <path
         sodipodi:nodetypes="sssssssss"
         inkscape:connector-curvature="0"
         id="path1084-6-72"
         d="M 361.9375,-212 C 507.2348,-212 528,-191.28677 528,-46.125 V 70.125 C 528,215.28618 507.2348,236 361.9375,236 H 214.0625 C 68.7652,236 48,215.28618 48,70.125 V -46.125 C 48,-191.28677 68.7652,-212 214.0625,-212 Z"
         style="display:inline;opacity:1;fill:#8c59d9;fill-opacity:1;stroke:none;stroke-width:2;stroke-linecap:round;stroke-linejoin:round;stroke-miterlimit:4;stroke-dasharray:none;stroke-dashoffset:0;stroke-opacity:1;enable-background:new" />
    </clipPath>
    <clipPath
       clipPathUnits="userSpaceOnUse"
       id="clipPath936">
      <path
         sodipodi:nodetypes="sssssssss"
         inkscape:connector-curvature="0"
         id="path938"
         d="M 329.9375,16 C 475.2348,16 496,36.71323 496,181.875 v 116.25 C 496,443.28618 475.2348,464 329.9375,464 H 182.0625 C 36.7652,464 16,443.28618 16,298.125 V 181.875 C 16,36.71323 36.7652,16 182.0625,16 Z"
         style="opacity:1;fill:#438ae9;fill-opacity:1;stroke:none;stroke-width:2;stroke-linecap:round;stroke-linejoin:round;stroke-miterlimit:4;stroke-dasharray:none;stroke-dashoffset:0;stroke-opacity:1" />
    </clipPath>
    <clipPath
       clipPathUnits="userSpaceOnUse"
       id="clipPath989">
      <path
         sodipodi:nodetypes="sssssssss"
         inkscape:connector-curvature="0"
         id="path991"
         d="M 115.03124,43.99999 C 42.382604,44 32.000014,54.35661 32.000004,126.9375 v 58.12499 c 0,72.5806 10.38261,82.9375 83.031236,82.9375 h 73.93752 C 261.6174,267.99999 272,257.64307 272,185.06249 V 126.9375 C 272,54.35661 261.6174,44 188.96875,44 Z"
         style="display:inline;opacity:1;fill:url(#linearGradient993);fill-opacity:1;stroke:none;stroke-width:2;stroke-linecap:round;stroke-linejoin:round;stroke-miterlimit:4;stroke-dasharray:none;stroke-dashoffset:0;stroke-opacity:1;enable-background:new" />
    </clipPath>
    <clipPath
       clipPathUnits="userSpaceOnUse"
       id="clipPath1082-3-72">
      <path
         sodipodi:nodetypes="sssssssss"
         inkscape:connector-curvature="0"
         id="path1084-6-261"
         d="M 361.9375,-212 C 507.2348,-212 528,-191.28677 528,-46.125 V 70.125 C 528,215.28618 507.2348,236 361.9375,236 H 214.0625 C 68.7652,236 48,215.28618 48,70.125 V -46.125 C 48,-191.28677 68.7652,-212 214.0625,-212 Z"
         style="display:inline;opacity:1;fill:#8c59d9;fill-opacity:1;stroke:none;stroke-width:2;stroke-linecap:round;stroke-linejoin:round;stroke-miterlimit:4;stroke-dasharray:none;stroke-dashoffset:0;stroke-opacity:1;enable-background:new" />
    </clipPath>
    <clipPath
       clipPathUnits="userSpaceOnUse"
       id="clipPath1082-3-06">
      <path
         sodipodi:nodetypes="sssssssss"
         inkscape:connector-curvature="0"
         id="path1084-6-1"
         d="M 361.9375,-212 C 507.2348,-212 528,-191.28677 528,-46.125 V 70.125 C 528,215.28618 507.2348,236 361.9375,236 H 214.0625 C 68.7652,236 48,215.28618 48,70.125 V -46.125 C 48,-191.28677 68.7652,-212 214.0625,-212 Z"
         style="display:inline;opacity:1;fill:#8c59d9;fill-opacity:1;stroke:none;stroke-width:2;stroke-linecap:round;stroke-linejoin:round;stroke-miterlimit:4;stroke-dasharray:none;stroke-dashoffset:0;stroke-opacity:1;enable-background:new" />
    </clipPath>
    <clipPath
       clipPathUnits="userSpaceOnUse"
       id="clipPath1082-3-59">
      <path
         sodipodi:nodetypes="sssssssss"
         inkscape:connector-curvature="0"
         id="path1084-6-49"
         d="M 361.9375,-212 C 507.2348,-212 528,-191.28677 528,-46.125 V 70.125 C 528,215.28618 507.2348,236 361.9375,236 H 214.0625 C 68.7652,236 48,215.28618 48,70.125 V -46.125 C 48,-191.28677 68.7652,-212 214.0625,-212 Z"
         style="display:inline;opacity:1;fill:#8c59d9;fill-opacity:1;stroke:none;stroke-width:2;stroke-linecap:round;stroke-linejoin:round;stroke-miterlimit:4;stroke-dasharray:none;stroke-dashoffset:0;stroke-opacity:1;enable-background:new" />
    </clipPath>
    <clipPath
       clipPathUnits="userSpaceOnUse"
       id="clipPath1221">
      <path
         sodipodi:nodetypes="sssssssss"
         inkscape:connector-curvature="0"
         id="path1223"
         d="M 188.96875,44 C 261.6174,44 272,54.356615 272,126.9375 v 58.125 C 272,257.64309 261.6174,268 188.96875,268 h -73.9375 C 42.3826,268 32,257.64309 32,185.0625 v -58.125 C 32,54.356615 42.3826,44 115.03125,44 Z"
         style="display:inline;opacity:0.1;fill:#da1636;fill-opacity:1;stroke:none;stroke-width:2;stroke-linecap:round;stroke-linejoin:round;stroke-miterlimit:4;stroke-dasharray:none;stroke-dashoffset:0;stroke-opacity:1;enable-background:new" />
    </clipPath>
    <clipPath
       clipPathUnits="userSpaceOnUse"
       id="clipPath936-0">
      <path
         sodipodi:nodetypes="sssssssss"
         inkscape:connector-curvature="0"
         id="path938-9"
         d="M 329.9375,16 C 475.2348,16 496,36.71323 496,181.875 v 116.25 C 496,443.28618 475.2348,464 329.9375,464 H 182.0625 C 36.7652,464 16,443.28618 16,298.125 V 181.875 C 16,36.71323 36.7652,16 182.0625,16 Z"
         style="opacity:1;fill:#438ae9;fill-opacity:1;stroke:none;stroke-width:2;stroke-linecap:round;stroke-linejoin:round;stroke-miterlimit:4;stroke-dasharray:none;stroke-dashoffset:0;stroke-opacity:1" />
    </clipPath>
    <clipPath
       clipPathUnits="userSpaceOnUse"
       id="clipPath1082-3-77">
      <path
         sodipodi:nodetypes="sssssssss"
         inkscape:connector-curvature="0"
         id="path1084-6-11"
         d="M 361.9375,-212 C 507.2348,-212 528,-191.28677 528,-46.125 V 70.125 C 528,215.28618 507.2348,236 361.9375,236 H 214.0625 C 68.7652,236 48,215.28618 48,70.125 V -46.125 C 48,-191.28677 68.7652,-212 214.0625,-212 Z"
         style="display:inline;opacity:1;fill:#8c59d9;fill-opacity:1;stroke:none;stroke-width:2;stroke-linecap:round;stroke-linejoin:round;stroke-miterlimit:4;stroke-dasharray:none;stroke-dashoffset:0;stroke-opacity:1;enable-background:new" />
    </clipPath>
    <clipPath
       clipPathUnits="userSpaceOnUse"
       id="clipPath1082-3-597">
      <path
         sodipodi:nodetypes="sssssssss"
         inkscape:connector-curvature="0"
         id="path1084-6-76"
         d="M 361.9375,-212 C 507.2348,-212 528,-191.28677 528,-46.125 V 70.125 C 528,215.28618 507.2348,236 361.9375,236 H 214.0625 C 68.7652,236 48,215.28618 48,70.125 V -46.125 C 48,-191.28677 68.7652,-212 214.0625,-212 Z"
         style="display:inline;opacity:1;fill:#8c59d9;fill-opacity:1;stroke:none;stroke-width:2;stroke-linecap:round;stroke-linejoin:round;stroke-miterlimit:4;stroke-dasharray:none;stroke-dashoffset:0;stroke-opacity:1;enable-background:new" />
    </clipPath>
    <clipPath
       clipPathUnits="userSpaceOnUse"
       id="clipPath1082-3-73">
      <path
         sodipodi:nodetypes="sssssssss"
         inkscape:connector-curvature="0"
         id="path1084-6-656"
         d="M 361.9375,-212 C 507.2348,-212 528,-191.28677 528,-46.125 V 70.125 C 528,215.28618 507.2348,236 361.9375,236 H 214.0625 C 68.7652,236 48,215.28618 48,70.125 V -46.125 C 48,-191.28677 68.7652,-212 214.0625,-212 Z"
         style="display:inline;opacity:1;fill:#8c59d9;fill-opacity:1;stroke:none;stroke-width:2;stroke-linecap:round;stroke-linejoin:round;stroke-miterlimit:4;stroke-dasharray:none;stroke-dashoffset:0;stroke-opacity:1;enable-background:new" />
    </clipPath>
    <linearGradient
       id="linearGradient7537">
      <stop
         style="stop-color:#f37e40;stop-opacity:1"
         offset="0"
         id="stop7539" />
      <stop
         style="stop-color:#f34f17;stop-opacity:1"
         offset="1"
         id="stop7541" />
    </linearGradient>
    <clipPath
       clipPathUnits="userSpaceOnUse"
       id="clipPath1082-3-39">
      <path
         sodipodi:nodetypes="sssssssss"
         inkscape:connector-curvature="0"
         id="path1084-6-48"
         d="M 361.9375,-212 C 507.2348,-212 528,-191.28677 528,-46.125 V 70.125 C 528,215.28618 507.2348,236 361.9375,236 H 214.0625 C 68.7652,236 48,215.28618 48,70.125 V -46.125 C 48,-191.28677 68.7652,-212 214.0625,-212 Z"
         style="display:inline;opacity:1;fill:#8c59d9;fill-opacity:1;stroke:none;stroke-width:2;stroke-linecap:round;stroke-linejoin:round;stroke-miterlimit:4;stroke-dasharray:none;stroke-dashoffset:0;stroke-opacity:1;enable-background:new" />
    </clipPath>
    <clipPath
       clipPathUnits="userSpaceOnUse"
       id="clipPath1082-3-7-2">
      <path
         sodipodi:nodetypes="sssssssss"
         inkscape:connector-curvature="0"
         id="path1084-6-5-9"
         d="M 361.9375,-212 C 507.2348,-212 528,-191.28677 528,-46.125 V 70.125 C 528,215.28618 507.2348,236 361.9375,236 H 214.0625 C 68.7652,236 48,215.28618 48,70.125 V -46.125 C 48,-191.28677 68.7652,-212 214.0625,-212 Z"
         style="display:inline;opacity:1;fill:#8c59d9;fill-opacity:1;stroke:none;stroke-width:2;stroke-linecap:round;stroke-linejoin:round;stroke-miterlimit:4;stroke-dasharray:none;stroke-dashoffset:0;stroke-opacity:1;enable-background:new" />
    </clipPath>
    <clipPath
       clipPathUnits="userSpaceOnUse"
       id="clipPath999">
      <path
         inkscape:connector-curvature="0"
         style="color:#000000;display:inline;overflow:visible;visibility:visible;opacity:1;fill:#5d5d5d;fill-opacity:1;fill-rule:nonzero;stroke:none;stroke-width:3.82599998;stroke-linecap:butt;stroke-linejoin:round;stroke-miterlimit:4;stroke-dasharray:none;stroke-dashoffset:0;stroke-opacity:1;marker:none;enable-background:accumulate"
         d="m 152,68 c -48.60106,0 -88,39.39894 -88,88 0,48.60106 39.39894,88 88,88 48.60106,0 88,-39.39894 88,-88 0,-48.60106 -39.39894,-88 -88,-88 z"
         id="path1001"
         sodipodi:nodetypes="sssss" />
    </clipPath>
    <clipPath
       clipPathUnits="userSpaceOnUse"
       id="clipPath1082-3-390">
      <path
         sodipodi:nodetypes="sssssssss"
         inkscape:connector-curvature="0"
         id="path1084-6-88"
         d="M 361.9375,-212 C 507.2348,-212 528,-191.28677 528,-46.125 V 70.125 C 528,215.28618 507.2348,236 361.9375,236 H 214.0625 C 68.7652,236 48,215.28618 48,70.125 V -46.125 C 48,-191.28677 68.7652,-212 214.0625,-212 Z"
         style="display:inline;opacity:1;fill:#8c59d9;fill-opacity:1;stroke:none;stroke-width:2;stroke-linecap:round;stroke-linejoin:round;stroke-miterlimit:4;stroke-dasharray:none;stroke-dashoffset:0;stroke-opacity:1;enable-background:new" />
    </clipPath>
    <clipPath
       clipPathUnits="userSpaceOnUse"
       id="clipPath999-9">
      <path
         inkscape:connector-curvature="0"
         style="color:#000000;display:inline;overflow:visible;visibility:visible;opacity:1;fill:#5d5d5d;fill-opacity:1;fill-rule:nonzero;stroke:none;stroke-width:3.82599998;stroke-linecap:butt;stroke-linejoin:round;stroke-miterlimit:4;stroke-dasharray:none;stroke-dashoffset:0;stroke-opacity:1;marker:none;enable-background:accumulate"
         d="m 152,68 c -48.60106,0 -88,39.39894 -88,88 0,48.60106 39.39894,88 88,88 48.60106,0 88,-39.39894 88,-88 0,-48.60106 -39.39894,-88 -88,-88 z"
         id="path1001-4"
         sodipodi:nodetypes="sssss" />
    </clipPath>
    <clipPath
       clipPathUnits="userSpaceOnUse"
       id="clipPath1082-3-78">
      <path
         sodipodi:nodetypes="sssssssss"
         inkscape:connector-curvature="0"
         id="path1084-6-45"
         d="M 361.9375,-212 C 507.2348,-212 528,-191.28677 528,-46.125 V 70.125 C 528,215.28618 507.2348,236 361.9375,236 H 214.0625 C 68.7652,236 48,215.28618 48,70.125 V -46.125 C 48,-191.28677 68.7652,-212 214.0625,-212 Z"
         style="display:inline;opacity:1;fill:#8c59d9;fill-opacity:1;stroke:none;stroke-width:2;stroke-linecap:round;stroke-linejoin:round;stroke-miterlimit:4;stroke-dasharray:none;stroke-dashoffset:0;stroke-opacity:1;enable-background:new" />
    </clipPath>
    <linearGradient
       gradientTransform="matrix(0.26458333,0,0,0.26458333,-6.9934681,221.97263)"
       inkscape:collect="always"
       xlink:href="#linearGradient945"
       id="linearGradient955"
       x1="200"
       y1="268"
       x2="200"
       y2="44"
       gradientUnits="userSpaceOnUse" />
    <linearGradient
       inkscape:collect="always"
       id="linearGradient945">
      <stop
         id="stop943"
         offset="0"
         style="stop-color:#e6e6e6;stop-opacity:1" />
      <stop
         id="stop941"
         offset="1"
         style="stop-color:#d3d3d3;stop-opacity:1;" />
    </linearGradient>
    <linearGradient
       gradientTransform="translate(-26.432006,-40.431995)"
       inkscape:collect="always"
       xlink:href="#linearGradient1033"
       id="linearGradient1035"
       x1="152"
       y1="100"
       x2="152"
       y2="212"
       gradientUnits="userSpaceOnUse" />
    <linearGradient
       inkscape:collect="always"
       id="linearGradient1033">
      <stop
         style="stop-color:#000000;stop-opacity:0"
         offset="0"
         id="stop1029" />
      <stop
         id="stop1037"
         offset="0.5"
         style="stop-color:#000000;stop-opacity:1" />
      <stop
         style="stop-color:#000000;stop-opacity:0;"
         offset="1"
         id="stop1031" />
    </linearGradient>
    <filter
       inkscape:collect="always"
       style="color-interpolation-filters:sRGB"
       id="filter1025"
       x="-0.024000023"
       width="1.048"
       y="-0.023999978"
       height="1.048">
      <feGaussianBlur
         inkscape:collect="always"
         stdDeviation="1.5000091"
         id="feGaussianBlur1027" />
    </filter>
    <linearGradient
       inkscape:collect="always"
       xlink:href="#linearGradient980"
       id="linearGradient982"
       x1="152"
       y1="124"
       x2="152"
       y2="236"
       gradientUnits="userSpaceOnUse" />
    <linearGradient
       inkscape:collect="always"
       id="linearGradient980">
      <stop
         style="stop-color:#000000;stop-opacity:1;"
         offset="0"
         id="stop976" />
      <stop
         style="stop-color:#000000;stop-opacity:0;"
         offset="1"
         id="stop978" />
    </linearGradient>
    <clipPath
       clipPathUnits="userSpaceOnUse"
       id="clipPath999-3">
      <path
         inkscape:connector-curvature="0"
         style="color:#000000;display:inline;overflow:visible;visibility:visible;opacity:1;fill:#5d5d5d;fill-opacity:1;fill-rule:nonzero;stroke:none;stroke-width:3.82599998;stroke-linecap:butt;stroke-linejoin:round;stroke-miterlimit:4;stroke-dasharray:none;stroke-dashoffset:0;stroke-opacity:1;marker:none;enable-background:accumulate"
         d="m 152,68 c -48.60106,0 -88,39.39894 -88,88 0,48.60106 39.39894,88 88,88 48.60106,0 88,-39.39894 88,-88 0,-48.60106 -39.39894,-88 -88,-88 z"
         id="path1001-6"
         sodipodi:nodetypes="sssss" />
    </clipPath>
    <filter
       inkscape:collect="always"
       style="color-interpolation-filters:sRGB"
       id="filter1003"
       x="-0.059999999"
       width="1.12"
       y="-0.059999999"
       height="1.12">
      <feGaussianBlur
         inkscape:collect="always"
         stdDeviation="4.4"
         id="feGaussianBlur1005" />
    </filter>
    <linearGradient
       inkscape:collect="always"
       xlink:href="#linearGradient1013"
       id="linearGradient1108"
       x1="296"
       y1="-212"
       x2="296"
       y2="236"
       gradientUnits="userSpaceOnUse" />
    <linearGradient
       id="linearGradient1013"
       inkscape:collect="always">
      <stop
         id="stop1005"
         offset="0"
         style="stop-color:#ffffff;stop-opacity:1;" />
      <stop
         style="stop-color:#ffffff;stop-opacity:0.09803922"
         offset="0.125"
         id="stop1007" />
      <stop
         style="stop-color:#000000;stop-opacity:0"
         offset="0.92500001"
         id="stop1009" />
      <stop
         id="stop1011"
         offset="1"
         style="stop-color:#000000;stop-opacity:0" />
    </linearGradient>
    <clipPath
       clipPathUnits="userSpaceOnUse"
       id="clipPath1082-3-75">
      <path
         sodipodi:nodetypes="sssssssss"
         inkscape:connector-curvature="0"
         id="path1084-6-35"
         d="M 361.9375,-212 C 507.2348,-212 528,-191.28677 528,-46.125 V 70.125 C 528,215.28618 507.2348,236 361.9375,236 H 214.0625 C 68.7652,236 48,215.28618 48,70.125 V -46.125 C 48,-191.28677 68.7652,-212 214.0625,-212 Z"
         style="display:inline;opacity:1;fill:#8c59d9;fill-opacity:1;stroke:none;stroke-width:2;stroke-linecap:round;stroke-linejoin:round;stroke-miterlimit:4;stroke-dasharray:none;stroke-dashoffset:0;stroke-opacity:1;enable-background:new" />
    </clipPath>
    <linearGradient
       gradientTransform="matrix(0.26458333,0,0,0.26458333,-6.9934681,221.97263)"
       inkscape:collect="always"
       xlink:href="#linearGradient945"
       id="linearGradient947"
       x1="160"
       y1="268"
       x2="160"
       y2="44"
       gradientUnits="userSpaceOnUse" />
    <filter
       inkscape:collect="always"
       style="color-interpolation-filters:sRGB"
       id="filter953"
       x="-0.0232"
       width="1.0464"
       y="-0.024857143"
       height="1.0497143">
      <feGaussianBlur
         inkscape:collect="always"
         stdDeviation="2.32"
         id="feGaussianBlur955" />
    </filter>
    <filter
       inkscape:collect="always"
       style="color-interpolation-filters:sRGB"
       id="filter4569"
       x="-0.0116"
       width="1.0232"
       y="-0.012428571"
       height="1.024857">
      <feGaussianBlur
         inkscape:collect="always"
         stdDeviation="1.16"
         id="feGaussianBlur4571" />
    </filter>
  </defs>
  <sodipodi:namedview
     id="base"
     pagecolor="#ffffff"
     bordercolor="#666666"
     borderopacity="1.0"
     inkscape:pageopacity="0.0"
     inkscape:pageshadow="2"
     inkscape:zoom="3.4628043"
     inkscape:cx="14.219386"
     inkscape:cy="127.84507"
     inkscape:document-units="px"
     inkscape:current-layer="layer1"
     showgrid="false"
     units="px"
     inkscape:window-width="1920"
     inkscape:window-height="1009"
     inkscape:window-x="0"
     inkscape:window-y="34"
     inkscape:window-maximized="1">
    <inkscape:grid
       type="xygrid"
       id="grid2168" />
  </sodipodi:namedview>
  <metadata
     id="metadata1485">
    <rdf:RDF>
      <cc:Work
         rdf:about="">
        <dc:format>image/svg+xml</dc:format>
        <dc:type
           rdf:resource="http://purl.org/dc/dcmitype/StillImage" />
        <dc:title></dc:title>
      </cc:Work>
    </rdf:RDF>
  </metadata>
  <g
     inkscape:label="Livello 1"
     inkscape:groupmode="layer"
     id="layer1"
     transform="translate(0,-229.26666)">
    <path
       sodipodi:nodetypes="sssssssss"
       inkscape:connector-curvature="0"
       id="path4567"
       d="m 162.53675,3.5680001 c 72.64865,0 83.03125,10.3566149 83.03125,82.9375049 v 58.125005 c 0,72.58059 -10.3826,82.9375 -83.03125,82.9375 H 88.599254 C 15.9506,227.56801 5.568,217.2111 5.568,144.63051 V 86.505505 c 0,-72.58089 10.3826,-82.9375049 83.031254,-82.9375049 z"
       style="display:inline;opacity:0.1;fill:#000000;fill-opacity:1;stroke:none;stroke-width:2;stroke-linecap:round;stroke-linejoin:round;stroke-miterlimit:4;stroke-dasharray:none;stroke-dashoffset:0;stroke-opacity:1;filter:url(#filter4569);enable-background:new"
       transform="matrix(0.26458333,0,0,0.26458333,-1.8735229e-8,232.67026)" />
    <path
       style="display:inline;opacity:0.2;fill:#000000;fill-opacity:1;stroke:none;stroke-width:2;stroke-linecap:round;stroke-linejoin:round;stroke-miterlimit:4;stroke-dasharray:none;stroke-dashoffset:0;stroke-opacity:1;filter:url(#filter953);enable-background:new"
       d="m 162.53675,5.5680001 c 72.64865,0 83.03125,10.3566149 83.03125,82.9375049 v 58.125005 c 0,72.58059 -10.3826,82.9375 -83.03125,82.9375 H 88.599254 C 15.9506,229.56801 5.568,219.2111 5.568,146.63051 V 88.505505 c 0,-72.58089 10.3826,-82.9375049 83.031254,-82.9375049 z"
       id="path951-6"
       inkscape:connector-curvature="0"
       sodipodi:nodetypes="sssssssss"
       transform="matrix(0.26458333,0,0,0.26458333,-1.8735229e-8,232.67026)" />
    <path
       sodipodi:nodetypes="sssssssss"
       inkscape:connector-curvature="0"
       id="path963"
       d="m 43.004513,233.61429 c 19.221622,0 21.968685,2.74019 21.968685,21.94388 v 15.37891 c 0,19.20362 -2.747063,21.94388 -21.968685,21.94388 h -19.56263 c -19.2216217,0 -21.9686846,-2.74026 -21.9686846,-21.94388 v -15.37891 c 0,-19.20369 2.7470629,-21.94388 21.9686846,-21.94388 z"
       style="display:inline;opacity:0.2;fill:none;fill-opacity:1;stroke:#000000;stroke-width:1.05833328;stroke-linecap:round;stroke-linejoin:round;stroke-miterlimit:4;stroke-dasharray:none;stroke-dashoffset:0;stroke-opacity:1;enable-background:new" />
    <path
       style="display:inline;opacity:1;fill:url(#linearGradient947);fill-opacity:1;stroke:none;stroke-width:0.52916664;stroke-linecap:round;stroke-linejoin:round;stroke-miterlimit:4;stroke-dasharray:none;stroke-dashoffset:0;stroke-opacity:1;enable-background:new"
       d="m 43.004513,233.61429 c 19.221622,0 21.968685,2.74019 21.968685,21.94388 v 15.37891 c 0,19.20362 -2.747063,21.94388 -21.968685,21.94388 h -19.56263 c -19.2216217,0 -21.9686846,-2.74026 -21.9686846,-21.94388 v -15.37891 c 0,-19.20369 2.7470629,-21.94388 21.9686846,-21.94388 z"
       id="rect877"
       inkscape:connector-curvature="0"
       sodipodi:nodetypes="sssssssss" />
    <path
       inkscape:connector-curvature="0"
       style="display:inline;opacity:0.25;fill:#ffffff;fill-opacity:1;stroke:none;stroke-width:0.52916664;stroke-linecap:round;stroke-linejoin:round;stroke-miterlimit:4;stroke-dasharray:none;stroke-dashoffset:0;stroke-opacity:1;enable-background:new"
       d="m 1.4731984,263.24763 v 7.68945 c 0,19.20362 2.7470629,21.94388 21.9686846,21.94388 h 19.56263 c 19.221622,0 21.968685,-2.74026 21.968685,-21.94388 v -7.68945 z"
       id="path1155" />
    <path
       sodipodi:nodetypes="sssssssss"
       inkscape:connector-curvature="0"
       id="path1068"
       d="M 361.9375,-212 C 507.2348,-212 528,-191.28677 528,-46.125 V 70.125 C 528,215.28618 507.2348,236 361.9375,236 H 214.0625 C 68.7652,236 48,215.28618 48,70.125 V -46.125 C 48,-191.28677 68.7652,-212 214.0625,-212 Z"
       style="display:inline;opacity:0.5;fill:none;fill-opacity:1;stroke:url(#linearGradient1108);stroke-width:8;stroke-linecap:round;stroke-linejoin:round;stroke-miterlimit:4;stroke-dasharray:none;stroke-dashoffset:0;stroke-opacity:1;enable-background:new"
       clip-path="url(#clipPath1082-3-75)"
       transform="matrix(0.13229167,0,0,0.13229167,-4.8768021,261.66013)" />
    <circle
       style="color:#000000;display:inline;overflow:visible;visibility:visible;opacity:1;fill:#5d5d5d;fill-opacity:1;fill-rule:nonzero;stroke:none;stroke-width:1.01231885;stroke-linecap:butt;stroke-linejoin:miter;stroke-miterlimit:4;stroke-dasharray:3.03695638, 3.03695638;stroke-dashoffset:0;stroke-opacity:1;marker:none;enable-background:accumulate"
       id="path4238"
       cx="33.223198"
       cy="-263.24762"
       r="23.283333"
       transform="scale(1,-1)" />
    <path
       style="color:#000000;display:inline;overflow:visible;visibility:visible;opacity:0.05;fill:#000000;fill-opacity:1;fill-rule:nonzero;stroke:none;stroke-width:1.01231885;stroke-linecap:butt;stroke-linejoin:miter;stroke-miterlimit:4;stroke-dasharray:3.03695638, 3.03695638;stroke-dashoffset:0;stroke-opacity:1;marker:none;enable-background:accumulate"
       d="M 9.9398651,263.24763 A 23.283333,23.283333 0 0 1 33.223197,239.96429 23.283333,23.283333 0 0 1 56.506531,263.24763 Z"
       id="circle1007"
       inkscape:connector-curvature="0" />
    <path
       transform="matrix(0.26458333,0,0,0.26458333,-6.9934681,221.97263)"
       style="color:#000000;display:inline;overflow:visible;visibility:visible;opacity:0.2;fill:none;fill-opacity:1;fill-rule:nonzero;stroke:url(#linearGradient982);stroke-width:10;stroke-linecap:butt;stroke-linejoin:round;stroke-miterlimit:4;stroke-dasharray:none;stroke-dashoffset:0;stroke-opacity:1;marker:none;filter:url(#filter1003);enable-background:accumulate"
       d="m 152,70 c -48.60106,0 -88,39.39894 -88,88 0,48.60106 39.39894,88 88,88 48.60106,0 88,-39.39894 88,-88 0,-48.60106 -39.39894,-88 -88,-88 z"
       id="path962"
       clip-path="url(#clipPath999-3)"
       inkscape:connector-curvature="0"
       sodipodi:nodetypes="sssss" />
    <path
       inkscape:connector-curvature="0"
       style="color:#000000;display:inline;overflow:visible;visibility:visible;opacity:0.2;fill:#000000;fill-opacity:0.71428576;fill-rule:nonzero;stroke:none;stroke-width:16.07832336;stroke-linecap:butt;stroke-linejoin:miter;stroke-miterlimit:4;stroke-dasharray:none;stroke-dashoffset:0;stroke-opacity:1;marker:none;filter:url(#filter1025);enable-background:accumulate"
       d="m 125.56799,42.573864 c -5.39372,-0.05998 -7.28039,0.14029 -8.03906,6.66211 l -0.28906,2.304687 c -0.66573,4.22983 -0.793,6.145174 -4.79493,7.181644 -0.26817,0.0599 -0.53589,0.12007 -0.80273,0.18359 -0.0631,0.013 -0.11886,0.0282 -0.1836,0.041 l 0.008,0.002 c -1.01036,0.24375 -2.00991,0.51443 -3,0.80859 l 0.01,-0.0117 c -0.16537,0.0565 -0.31605,0.10151 -0.47265,0.15039 -0.14986,0.0458 -0.29985,0.0898 -0.44922,0.13672 -4.02147,1.12811 -5.08541,-0.46762 -7.787106,-3.810552 l -1.4043,-1.851563 c -1.95898,-2.634363 -3.36984,-3.758729 -4.87304,-3.880859 -0.18789,-0.01527 -0.37832,-0.01507 -0.57032,0 -1.3439,0.105454 -2.81717,0.930219 -4.84765,2.132813 -4.70108,2.644913 -6.23474,3.759697 -3.63086,9.787111 l 0.90039,2.14062 c 1.65637,4.30254 2.51833,5.96731 -1.30274,9.30469 l 0.10157,-0.0234 c -0.78976,0.74858 -1.55804,1.51883 -2.30665,2.3086 l 0.0215,-0.10157 c -3.33739,3.82107 -5.00215,2.95911 -9.304688,1.30274 l -2.140625,-0.90235 c -1.88356,-0.81371 -3.287448,-1.22275 -4.408203,-1.25781 -2.465666,-0.0772 -3.560523,1.65668 -5.378906,4.88867 -2.748796,4.6411 -3.520685,6.37502 1.748046,10.29297 l 1.851563,1.4043 c 3.342929,2.7017 4.938662,3.76564 3.810547,7.78711 -0.04698,0.14937 -0.09087,0.29936 -0.136719,0.449225 -0.04894,0.1566 -0.09193,0.30729 -0.148437,0.47265 l 0.0098,-0.01 c -0.294163,0.99009 -0.564847,1.98964 -0.808594,3 l -0.002,-0.008 c -0.01271,0.0647 -0.02795,0.12053 -0.04102,0.1836 -0.06352,0.26684 -0.123652,0.53456 -0.183594,0.80273 -1.036464,4.00194 -2.951806,4.1292 -7.181641,4.79493 l -2.304687,0.28906 c -6.52182,0.75868 -6.722082,2.64535 -6.66211,8.03906 -0.05998,5.39372 0.140285,7.2804 6.66211,8.03906 l 2.304687,0.28906 c 4.22983,0.66573 6.145182,0.793 7.181641,4.79493 0.05994,0.26818 0.120069,0.5359 0.183594,0.80273 0.01301,0.0631 0.02824,0.11886 0.04102,0.1836 l 0.002,-0.008 c 0.243747,1.01037 0.514431,2.00991 0.808594,3 l -0.01172,-0.01 c 0.0565,0.16537 0.101472,0.31605 0.150391,0.47265 0.04582,0.14985 0.08974,0.29986 0.136719,0.44922 1.12811,4.02147 -0.467618,5.08542 -3.810547,7.78711 l -1.851563,1.4043 c -5.268726,3.91794 -4.496841,5.6499 -1.748046,10.29101 2.644913,4.70108 3.759708,6.23474 9.787109,3.63086 l 2.140625,-0.90039 c 4.302524,-1.65637 5.967294,-2.51832 9.304684,1.30274 l -0.0234,-0.10157 c 0.74858,0.78976 1.51884,1.55807 2.3086,2.30665 l -0.10157,-0.0215 c 3.82107,3.3374 2.95911,5.00215 1.30274,9.30469 l -0.90235,2.14062 c -2.60388,6.0274 -1.07022,7.14414 3.63086,9.78907 4.6411,2.74879 6.37502,3.51873 10.29297,-1.75 l 1.4043,-1.85157 c 2.701686,-3.34294 3.765646,-4.93865 7.787106,-3.81054 0.14937,0.047 0.29936,0.0909 0.44922,0.13672 0.1566,0.0489 0.30728,0.0938 0.47265,0.15039 l -0.01,-0.0117 c 0.99009,0.29416 1.98964,0.56484 3,0.80859 l -0.008,0.002 c 0.0647,0.0128 0.12053,0.028 0.1836,0.041 0.26684,0.0635 0.53456,0.12365 0.80273,0.18359 4.00193,1.03647 4.12919,2.95182 4.79493,7.18164 l 0.28906,2.30469 c 0.75867,6.52182 2.64534,6.72209 8.03906,6.66211 5.39371,0.06 7.28039,-0.14029 8.03906,-6.66211 l 0.28906,-2.30469 c 0.66576,-4.22983 0.79299,-6.14518 4.79493,-7.18164 0.26817,-0.06 0.5359,-0.12007 0.80273,-0.18359 0.0631,-0.0131 0.11886,-0.0281 0.1836,-0.041 l -0.008,-0.002 c 1.01037,-0.24375 2.0099,-0.51443 3,-0.80859 l -0.01,0.0117 c 0.16536,-0.0565 0.31604,-0.10151 0.47265,-0.15039 0.14985,-0.0458 0.29986,-0.0897 0.44922,-0.13672 4.02147,-1.1281 5.08542,0.46761 7.78711,3.81054 l 1.4043,1.85157 c 3.91794,5.26872 5.6499,4.49685 10.29101,1.74804 4.70108,-2.64491 6.23475,-3.7597 3.63086,-9.78711 l -0.90039,-2.14062 c -1.65641,-4.30248 -2.51833,-5.96729 1.30274,-9.30469 l -0.10157,0.0234 c 0.78977,-0.74858 1.55807,-1.51884 2.30665,-2.3086 l -0.0215,0.10157 c 3.3374,-3.82106 5.00215,-2.95912 9.30469,-1.30274 l 2.14062,0.90235 c 6.0274,2.60387 7.14218,1.07022 9.78711,-3.63086 2.74879,-4.64111 3.5207,-6.37503 -1.74804,-10.29297 l -1.85157,-1.4043 c -3.34293,-2.70168 -4.93866,-3.76564 -3.81054,-7.78711 0.047,-0.14936 0.0908,-0.29937 0.13672,-0.44922 0.0489,-0.1566 0.092,-0.30728 0.14843,-0.47265 l -0.01,0.01 c 0.29416,-0.99009 0.56484,-1.98963 0.80859,-3 l 0.002,0.008 c 0.0128,-0.0647 0.028,-0.12052 0.041,-0.1836 0.0635,-0.26683 0.12365,-0.53455 0.18359,-0.80273 1.03647,-4.00193 2.9518,-4.12919 7.18164,-4.79493 l 2.30469,-0.28906 c 6.52182,-0.75867 6.72209,-2.64534 6.66211,-8.03906 0.06,-5.3937 -0.14028,-7.28038 -6.66211,-8.03906 l -2.30469,-0.28906 c -4.22984,-0.66574 -6.14517,-0.79299 -7.18164,-4.79493 -0.06,-0.26816 -0.12007,-0.53589 -0.18359,-0.80273 -0.0131,-0.0631 -0.0281,-0.11887 -0.041,-0.1836 l -0.002,0.008 c -0.24375,-1.01036 -0.51442,-2.0099 -0.80859,-3 l 0.0117,0.01 c -0.0565,-0.16536 -0.10151,-0.31604 -0.15039,-0.47265 -0.0458,-0.149865 -0.0897,-0.299855 -0.13672,-0.449225 -1.12811,-4.02147 0.46762,-5.08541 3.81054,-7.78711 l 1.85157,-1.4043 c 5.26873,-3.91794 4.49684,-5.6499 1.74804,-10.29101 -1.81838,-3.23199 -2.91322,-4.96776 -5.3789,-4.89063 -1.12074,0.0351 -2.52465,0.44605 -4.40821,1.25977 l -2.14062,0.90039 c -4.30247,1.6564 -5.9673,2.51834 -9.30469,-1.30274 l 0.0234,0.10157 c -0.74858,-0.78977 -1.51883,-1.55806 -2.3086,-2.30665 l 0.10157,0.0215 c -3.82106,-3.33739 -2.95912,-5.00215 -1.30274,-9.30469 l 0.90235,-2.14062 c 2.60387,-6.027406 1.07022,-7.142192 -3.63086,-9.787111 -2.32056,-1.374397 -3.91477,-2.254938 -5.41797,-2.132813 -1.5032,0.12213 -2.91603,1.246496 -4.875,3.880859 l -1.4043,1.851563 c -2.70169,3.342932 -3.76564,4.938652 -7.78711,3.810552 -0.14936,-0.047 -0.29937,-0.0909 -0.44922,-0.13672 -0.15661,-0.0489 -0.30729,-0.0919 -0.47265,-0.14844 l 0.01,0.01 c -0.9901,-0.29416 -1.98963,-0.56485 -3,-0.80859 l 0.008,-0.002 c -0.0647,-0.0127 -0.12052,-0.028 -0.1836,-0.041 -0.26683,-0.0635 -0.53456,-0.12366 -0.80273,-0.1836 -4.00194,-1.03647 -4.12918,-2.95181 -4.79493,-7.18164 l -0.28906,-2.304687 c -0.75844,-6.522064 -2.64512,-6.722331 -8.03883,-6.662354 z m -0.0117,30.994141 c 0.004,-1e-5 0.008,-1e-5 0.0117,0 5.06531,3e-4 9.96082,0.87493 14.53516,2.48047 a 12,12 0 0 0 5.46484,6.87891 12,12 0 0 0 8.66992,1.29101 c 7.20335,6.1907 12.42982,14.70372 14.43946,24.548835 0.50642,2.48002 -1.38873,4.80104 -3.91993,4.80078 h -12.3789 c -1.76926,1.5e-4 -3.32848,-1.16191 -3.83399,-2.85742 -3.03409,-10.17667 -12.3486,-17.126135 -22.96679,-17.140635 -1.86552,0.0101 -3.72427,0.23539 -5.53711,0.67578 -1.72527,0.41898 -3.52028,-0.34928 -4.40821,-1.88671 l -6.17968,-10.70118 c -1.26291,-2.1886 -0.20551,-4.98537 2.18945,-5.79101 4.48467,-1.50955 9.18217,-2.28583 13.91406,-2.29883 z m -26.306636,10.0957 c 1.361096,0.0638 2.596136,0.816 3.277336,1.9961 l 6.17969,10.70117 c 0.88545,1.53347 0.65743,3.4666 -0.56055,4.751955 -4.21283,4.44663 -6.56562,10.3318 -6.57812,16.45703 0.007,6.12872 2.3554,12.01941 6.56836,16.47071 1.21703,1.28501 1.44502,3.21699 0.56055,4.75 l -6.16211,10.67578 c -1.26486,2.19101 -4.220436,2.67243 -6.115236,0.99609 -7.35823,-6.50704 -12.25407,-15.23839 -14.0625,-24.74023 a 12,12 0 0 0 3.21094,-8.1543 12,12 0 0 0 -3.21289,-8.15039 c 1.80449,-9.506155 6.6973,-18.242465 14.05664,-24.753915 0.77978,-0.68994 1.79784,-1.0487 2.83789,-1 z M 152.3883,121.56801 h 12.32813 c 2.53119,-2.4e-4 4.42635,2.32077 3.91992,4.80078 -2.00843,9.83928 -7.23024,18.34896 -14.42774,24.53906 a 12,12 0 0 0 -2.92382,-0.30273 12,12 0 0 0 -5.7168,1.60351 12,12 0 0 0 -5.45312,6.86133 c -4.57562,1.61246 -9.47418,2.49256 -14.54297,2.49805 -0.006,2e-5 -0.0125,2e-5 -0.0195,0 -4.72985,-0.0188 -9.42516,-0.80071 -13.90626,-2.31445 -2.39212,-0.80764 -3.44709,-3.60206 -2.18554,-5.78907 l 6.16992,-10.6875 c 0.88793,-1.53742 2.68293,-2.30568 4.4082,-1.88671 1.81402,0.44068 3.67428,0.66578 5.54102,0.67578 10.62131,-0.0108 19.93962,-6.96097 22.97461,-17.14063 0.50551,-1.6955 2.06472,-2.85757 3.83398,-2.85742 z"
       id="path1039"
       transform="matrix(0.26458333,0,0,0.26458333,-1.8735229e-8,232.67026)" />
    <path
       id="path1021"
       d="m 125.56799,44.573864 c -5.39372,-0.05998 -7.28039,0.14029 -8.03906,6.66211 l -0.28906,2.304687 c -0.66573,4.22983 -0.793,6.145174 -4.79493,7.181644 -0.26817,0.0599 -0.53589,0.12007 -0.80273,0.18359 -0.0631,0.013 -0.11886,0.0282 -0.1836,0.041 l 0.008,0.002 c -1.01036,0.24375 -2.00991,0.51443 -3,0.80859 l 0.01,-0.0117 c -0.16537,0.0565 -0.31605,0.10151 -0.47265,0.15039 -0.14986,0.0458 -0.29985,0.0898 -0.44922,0.13672 -4.02147,1.12811 -5.08541,-0.46762 -7.787106,-3.810552 l -1.4043,-1.851563 c -1.95898,-2.634363 -3.36984,-3.758729 -4.87304,-3.880859 -0.18789,-0.01527 -0.37832,-0.01507 -0.57032,0 -1.3439,0.105454 -2.81717,0.930219 -4.84765,2.132813 -4.70108,2.644913 -6.23474,3.759697 -3.63086,9.787111 l 0.90039,2.14062 c 1.65637,4.30254 2.51833,5.96731 -1.30274,9.30469 l 0.10157,-0.0234 c -0.78976,0.74858 -1.55804,1.51883 -2.30665,2.3086 l 0.0215,-0.10157 c -3.33739,3.82107 -5.00215,2.95911 -9.304688,1.30274 l -2.140625,-0.90235 c -1.88356,-0.81371 -3.287448,-1.22275 -4.408203,-1.25781 -2.465666,-0.0772 -3.560523,1.65668 -5.378906,4.88867 -2.748796,4.6411 -3.520685,6.37502 1.748046,10.29297 l 1.851563,1.4043 c 3.342929,2.7017 4.938662,3.76564 3.810547,7.787115 -0.04698,0.14937 -0.09087,0.29936 -0.136719,0.44922 -0.04894,0.1566 -0.09193,0.30729 -0.148437,0.47265 l 0.0098,-0.01 c -0.294163,0.99009 -0.564847,1.98964 -0.808594,3 l -0.002,-0.008 c -0.01271,0.0647 -0.02795,0.12053 -0.04102,0.1836 -0.06352,0.26684 -0.123652,0.53456 -0.183594,0.80273 -1.036464,4.00194 -2.951806,4.1292 -7.181641,4.79493 l -2.304687,0.28906 c -6.52182,0.75868 -6.722082,2.64535 -6.66211,8.03906 -0.05998,5.39372 0.140285,7.2804 6.66211,8.03906 l 2.304687,0.28906 c 4.22983,0.66573 6.145182,0.793 7.181641,4.79493 0.05994,0.26818 0.120069,0.5359 0.183594,0.80273 0.01301,0.0631 0.02824,0.11886 0.04102,0.1836 l 0.002,-0.008 c 0.243747,1.01037 0.514431,2.00991 0.808594,3 l -0.01172,-0.01 c 0.0565,0.16537 0.101472,0.31605 0.150391,0.47265 0.04582,0.14985 0.08974,0.29986 0.136719,0.44922 1.12811,4.02147 -0.467618,5.08542 -3.810547,7.78711 l -1.851563,1.4043 c -5.268726,3.91794 -4.496841,5.6499 -1.748046,10.29101 2.644913,4.70108 3.759708,6.23474 9.787109,3.63086 l 2.140625,-0.90039 c 4.302524,-1.65637 5.967294,-2.51832 9.304684,1.30274 l -0.0234,-0.10157 c 0.74858,0.78976 1.51884,1.55807 2.3086,2.30665 l -0.10157,-0.0215 c 3.82107,3.3374 2.95911,5.00215 1.30274,9.30469 l -0.90235,2.14062 c -2.60388,6.0274 -1.07022,7.14414 3.63086,9.78907 4.6411,2.74879 6.37502,3.51873 10.29297,-1.75 l 1.4043,-1.85157 c 2.701686,-3.34294 3.765646,-4.93865 7.787106,-3.81054 0.14937,0.047 0.29936,0.0909 0.44922,0.13672 0.1566,0.0489 0.30728,0.0938 0.47265,0.15039 l -0.01,-0.0117 c 0.99009,0.29416 1.98964,0.56484 3,0.80859 l -0.008,0.002 c 0.0647,0.0128 0.12053,0.028 0.1836,0.041 0.26684,0.0635 0.53456,0.12365 0.80273,0.18359 4.00193,1.03647 4.12919,2.95182 4.79493,7.18164 l 0.28906,2.30469 c 0.75867,6.52182 2.64534,6.72209 8.03906,6.66211 5.39371,0.06 7.28039,-0.14029 8.03906,-6.66211 l 0.28906,-2.30469 c 0.66576,-4.22983 0.79299,-6.14518 4.79493,-7.18164 0.26817,-0.06 0.5359,-0.12007 0.80273,-0.18359 0.0631,-0.0131 0.11886,-0.0281 0.1836,-0.041 l -0.008,-0.002 c 1.01037,-0.24375 2.0099,-0.51443 3,-0.80859 l -0.01,0.0117 c 0.16536,-0.0565 0.31604,-0.10151 0.47265,-0.15039 0.14985,-0.0458 0.29986,-0.0897 0.44922,-0.13672 4.02147,-1.1281 5.08542,0.46761 7.78711,3.81054 l 1.4043,1.85157 c 3.91794,5.26872 5.6499,4.49685 10.29101,1.74804 4.70108,-2.64491 6.23475,-3.7597 3.63086,-9.78711 l -0.90039,-2.14062 c -1.65641,-4.30248 -2.51833,-5.96729 1.30274,-9.30469 l -0.10157,0.0234 c 0.78977,-0.74858 1.55807,-1.51884 2.30665,-2.3086 l -0.0215,0.10157 c 3.3374,-3.82106 5.00215,-2.95912 9.30469,-1.30274 l 2.14062,0.90235 c 6.0274,2.60387 7.14218,1.07022 9.78711,-3.63086 2.74879,-4.64111 3.5207,-6.37503 -1.74804,-10.29297 l -1.85157,-1.4043 c -3.34293,-2.70168 -4.93866,-3.76564 -3.81054,-7.78711 0.047,-0.14936 0.0908,-0.29937 0.13672,-0.44922 0.0489,-0.1566 0.092,-0.30728 0.14843,-0.47265 l -0.01,0.01 c 0.29416,-0.99009 0.56484,-1.98963 0.80859,-3 l 0.002,0.008 c 0.0128,-0.0647 0.028,-0.12052 0.041,-0.1836 0.0635,-0.26683 0.12365,-0.53455 0.18359,-0.80273 1.03647,-4.00193 2.9518,-4.12919 7.18164,-4.79493 l 2.30469,-0.28906 c 6.52182,-0.75867 6.72209,-2.64534 6.66211,-8.03906 0.06,-5.3937 -0.14028,-7.28038 -6.66211,-8.03906 l -2.30469,-0.28906 c -4.22984,-0.66574 -6.14517,-0.79299 -7.18164,-4.79493 -0.06,-0.26816 -0.12007,-0.53589 -0.18359,-0.80273 -0.0131,-0.0631 -0.0281,-0.11887 -0.041,-0.1836 l -0.002,0.008 c -0.24375,-1.01036 -0.51442,-2.0099 -0.80859,-3 l 0.0117,0.01 c -0.0565,-0.16536 -0.10151,-0.31604 -0.15039,-0.47265 -0.0458,-0.14986 -0.0897,-0.29985 -0.13672,-0.44922 -1.12811,-4.021475 0.46762,-5.085415 3.81054,-7.787115 l 1.85157,-1.4043 c 5.26873,-3.91794 4.49684,-5.6499 1.74804,-10.29101 -1.81838,-3.23199 -2.91322,-4.96776 -5.3789,-4.89063 -1.12074,0.0351 -2.52465,0.44605 -4.40821,1.25977 l -2.14062,0.90039 c -4.30247,1.6564 -5.9673,2.51834 -9.30469,-1.30274 l 0.0234,0.10157 c -0.74858,-0.78977 -1.51883,-1.55806 -2.3086,-2.30665 l 0.10157,0.0215 c -3.82106,-3.33739 -2.95912,-5.00215 -1.30274,-9.30469 l 0.90235,-2.14062 c 2.60387,-6.027406 1.07022,-7.142192 -3.63086,-9.787111 -2.32056,-1.374397 -3.91477,-2.254938 -5.41797,-2.132813 -1.5032,0.12213 -2.91603,1.246496 -4.875,3.880859 l -1.4043,1.851563 c -2.70169,3.342932 -3.76564,4.938652 -7.78711,3.810552 -0.14936,-0.047 -0.29937,-0.0909 -0.44922,-0.13672 -0.15661,-0.0489 -0.30729,-0.0919 -0.47265,-0.14844 l 0.01,0.01 c -0.9901,-0.29416 -1.98963,-0.56485 -3,-0.80859 l 0.008,-0.002 c -0.0647,-0.0127 -0.12052,-0.028 -0.1836,-0.041 -0.26683,-0.0635 -0.53456,-0.12366 -0.80273,-0.1836 -4.00194,-1.03647 -4.12918,-2.95181 -4.79493,-7.18164 l -0.28906,-2.304687 c -0.75844,-6.522064 -2.64512,-6.722331 -8.03883,-6.662354 z m -0.0117,30.994141 c 0.004,-1e-5 0.008,-1e-5 0.0117,0 5.06531,3e-4 9.96082,0.87493 14.53516,2.48047 a 12,12 0 0 0 5.46484,6.87891 12,12 0 0 0 8.66992,1.29101 c 7.20335,6.1907 12.42982,14.703725 14.43946,24.548835 0.50642,2.48002 -1.38873,4.80104 -3.91993,4.80078 h -12.3789 c -1.76926,1.5e-4 -3.32848,-1.16191 -3.83399,-2.85742 -3.03409,-10.17667 -12.3486,-17.126135 -22.96679,-17.140635 -1.86552,0.0101 -3.72427,0.23539 -5.53711,0.67578 -1.72527,0.41898 -3.52028,-0.34928 -4.40821,-1.88671 l -6.17968,-10.70118 c -1.26291,-2.1886 -0.20551,-4.98537 2.18945,-5.79101 4.48467,-1.50955 9.18217,-2.28583 13.91406,-2.29883 z m -26.306636,10.0957 c 1.361096,0.0638 2.596136,0.816 3.277336,1.9961 l 6.17969,10.70117 c 0.88545,1.53347 0.65743,3.466605 -0.56055,4.751955 -4.21283,4.44663 -6.56562,10.3318 -6.57812,16.45703 0.007,6.12872 2.3554,12.01941 6.56836,16.47071 1.21703,1.28501 1.44502,3.21699 0.56055,4.75 l -6.16211,10.67578 c -1.26486,2.19101 -4.220436,2.67243 -6.115236,0.99609 -7.35823,-6.50704 -12.25407,-15.23839 -14.0625,-24.74023 a 12,12 0 0 0 3.21094,-8.1543 12,12 0 0 0 -3.21289,-8.15039 c 1.80449,-9.50615 6.6973,-18.242465 14.05664,-24.753915 0.77978,-0.68994 1.79784,-1.0487 2.83789,-1 z M 152.3883,123.56801 h 12.32813 c 2.53119,-2.4e-4 4.42635,2.32077 3.91992,4.80078 -2.00843,9.83928 -7.23024,18.34896 -14.42774,24.53906 a 12,12 0 0 0 -2.92382,-0.30273 12,12 0 0 0 -5.7168,1.60351 12,12 0 0 0 -5.45312,6.86133 c -4.57562,1.61246 -9.47418,2.49256 -14.54297,2.49805 -0.006,2e-5 -0.0125,2e-5 -0.0195,0 -4.72985,-0.0188 -9.42516,-0.80071 -13.90626,-2.31445 -2.39212,-0.80764 -3.44709,-3.60206 -2.18554,-5.78907 l 6.16992,-10.6875 c 0.88793,-1.53742 2.68293,-2.30568 4.4082,-1.88671 1.81402,0.44068 3.67428,0.66578 5.54102,0.67578 10.62131,-0.0108 19.93962,-6.96097 22.97461,-17.14063 0.50551,-1.6955 2.06472,-2.85757 3.83398,-2.85742 z"
       style="color:#000000;display:inline;overflow:visible;visibility:visible;opacity:0.2;fill:url(#linearGradient1035);fill-opacity:1;fill-rule:nonzero;stroke:none;stroke-width:16.07832336;stroke-linecap:butt;stroke-linejoin:miter;stroke-miterlimit:4;stroke-dasharray:none;stroke-dashoffset:0;stroke-opacity:1;marker:none;filter:url(#filter1025);enable-background:accumulate"
       inkscape:connector-curvature="0"
       transform="matrix(0.26458333,0,0,0.26458333,-1.8735229e-8,232.67026)" />
    <path
       inkscape:connector-curvature="0"
       style="color:#000000;display:inline;overflow:visible;visibility:visible;opacity:1;fill:url(#linearGradient955);fill-opacity:1;fill-rule:nonzero;stroke:none;stroke-width:4.25405645;stroke-linecap:butt;stroke-linejoin:miter;stroke-miterlimit:4;stroke-dasharray:none;stroke-dashoffset:0;stroke-opacity:1;marker:none;enable-background:accumulate"
       d="m 33.223197,243.40543 c -1.427088,-0.0159 -1.926269,0.0371 -2.127001,1.76268 l -0.07648,0.60978 c -0.176141,1.11915 -0.209815,1.62591 -1.268659,1.90015 -0.07095,0.0159 -0.141787,0.0318 -0.212389,0.0486 -0.0167,0.003 -0.03145,0.007 -0.04858,0.0108 l 0.0021,5.3e-4 c -0.267324,0.0645 -0.531788,0.13611 -0.79375,0.21394 l 0.0026,-0.003 c -0.04375,0.0149 -0.08362,0.0269 -0.125055,0.0398 -0.03965,0.0121 -0.07934,0.0238 -0.118856,0.0362 -1.064014,0.29848 -1.345515,-0.12372 -2.060339,-1.00821 l -0.371554,-0.48989 C 25.50692,245.8298 25.13363,245.53231 24.735909,245.5 c -0.04971,-0.004 -0.100097,-0.004 -0.150897,0 -0.355574,0.0279 -0.745377,0.24612 -1.282608,0.5643 -1.243827,0.6998 -1.649608,0.99476 -0.960665,2.58951 l 0.238228,0.56637 c 0.438248,1.13838 0.666308,1.57885 -0.344683,2.46187 l 0.02687,-0.006 c -0.208958,0.19806 -0.412232,0.40185 -0.610301,0.61081 l 0.0057,-0.0269 c -0.883018,1.01099 -1.323485,0.78293 -2.461865,0.34468 l -0.566374,-0.23874 c -0.498359,-0.2153 -0.869804,-0.32352 -1.166337,-0.3328 -0.652374,-0.0204 -0.942055,0.43833 -1.423169,1.29346 -0.727286,1.22796 -0.931514,1.68673 0.462504,2.72335 l 0.489893,0.37156 c 0.884483,0.71482 1.306687,0.99632 1.008207,2.06034 -0.01243,0.0395 -0.02404,0.0792 -0.03617,0.11885 -0.01295,0.0414 -0.02432,0.0813 -0.03927,0.12506 l 0.0026,-0.003 c -0.07783,0.26196 -0.149449,0.52643 -0.21394,0.79375 l -5.29e-4,-0.002 c -0.0034,0.0171 -0.0074,0.0319 -0.01085,0.0486 -0.01681,0.0706 -0.03272,0.14144 -0.04858,0.21239 -0.274231,1.05885 -0.780998,1.09252 -1.900142,1.26866 l -0.609782,0.0765 c -1.725565,0.20073 -1.778551,0.69992 -1.762683,2.127 -0.01587,1.42709 0.03712,1.92627 1.762683,2.127 l 0.609782,0.0765 c 1.119142,0.17614 1.625913,0.20982 1.900142,1.26866 0.01586,0.071 0.03177,0.14179 0.04858,0.21239 0.0034,0.0167 0.0075,0.0314 0.01085,0.0486 l 5.29e-4,-0.002 c 0.06449,0.26733 0.13611,0.53179 0.21394,0.79375 l -0.0031,-0.003 c 0.01495,0.0437 0.02685,0.0836 0.03979,0.12505 0.01212,0.0396 0.02374,0.0793 0.03617,0.11886 0.298479,1.06401 -0.123724,1.34552 -1.008207,2.06034 l -0.489893,0.37155 c -1.394017,1.03662 -1.189789,1.49487 -0.462504,2.72283 0.6998,1.24383 0.994756,1.64961 2.589506,0.96067 l 0.566374,-0.23823 c 1.138376,-0.43825 1.578846,-0.66631 2.461864,0.34468 l -0.0062,-0.0269 c 0.198062,0.20896 0.40186,0.41224 0.610817,0.6103 l -0.02687,-0.006 c 1.010992,0.88302 0.782931,1.32349 0.344683,2.46187 l -0.238746,0.56637 c -0.688944,1.59475 -0.283163,1.89022 0.960665,2.59002 1.227957,0.72729 1.686724,0.931 2.723348,-0.46302 l 0.371554,-0.48989 c 0.714821,-0.88449 0.996328,-1.30669 2.060339,-1.00821 0.03952,0.0124 0.07921,0.024 0.118856,0.0362 0.04143,0.0129 0.0813,0.0248 0.125055,0.0398 l -0.0026,-0.003 c 0.261962,0.0778 0.526426,0.14945 0.79375,0.21394 l -0.0021,5.3e-4 c 0.01712,0.003 0.03189,0.007 0.04858,0.0109 0.0706,0.0168 0.141436,0.0327 0.212389,0.0486 1.058844,0.27424 1.092515,0.78101 1.268659,1.90015 l 0.07648,0.60978 c 0.200732,1.72556 0.699913,1.77855 2.127002,1.76268 1.427085,0.0159 1.926269,-0.0371 2.127001,-1.76268 l 0.07648,-0.60978 c 0.176149,-1.11915 0.209812,-1.62592 1.268659,-1.90015 0.07095,-0.0159 0.14179,-0.0318 0.212389,-0.0486 0.01669,-0.003 0.03145,-0.007 0.04858,-0.0109 l -0.0021,-5.3e-4 c 0.267327,-0.0645 0.531786,-0.13611 0.79375,-0.21394 l -0.0026,0.003 c 0.04375,-0.0149 0.08362,-0.0269 0.125055,-0.0398 0.03965,-0.0121 0.07934,-0.0237 0.118856,-0.0362 1.064014,-0.29847 1.345518,0.12372 2.06034,1.00821 l 0.371554,0.48989 c 1.036622,1.39402 1.49487,1.18979 2.72283,0.4625 1.243827,-0.69979 1.649611,-0.99475 0.960665,-2.5895 l -0.238228,-0.56637 c -0.438259,-1.13837 -0.666308,-1.57885 0.344683,-2.46187 l -0.02687,0.006 c 0.20896,-0.19806 0.41224,-0.40186 0.610302,-0.61082 l -0.0057,0.0269 c 0.88302,-1.01099 1.323486,-0.78294 2.461866,-0.34468 l 0.566372,0.23874 c 1.59475,0.68894 1.889702,0.28316 2.589506,-0.96066 0.727285,-1.22796 0.931519,-1.68673 -0.462502,-2.72335 l -0.489894,-0.37156 c -0.884484,-0.71482 -1.306687,-0.99632 -1.008206,-2.06034 0.01244,-0.0395 0.02402,-0.0792 0.03617,-0.11885 0.01294,-0.0414 0.02434,-0.0813 0.03927,-0.12506 l -0.0026,0.003 c 0.07783,-0.26196 0.149448,-0.52642 0.21394,-0.79375 l 5.29e-4,0.002 c 0.0034,-0.0171 0.0074,-0.0319 0.01085,-0.0486 0.0168,-0.0706 0.03272,-0.14143 0.04858,-0.21239 0.274232,-1.05884 0.780997,-1.09252 1.900142,-1.26866 l 0.609783,-0.0765 c 1.725564,-0.20073 1.778553,-0.69991 1.762683,-2.127 0.01588,-1.42708 -0.03712,-1.92627 -1.762683,-2.127 l -0.609783,-0.0765 c -1.119145,-0.17615 -1.62591,-0.20981 -1.900142,-1.26866 -0.01588,-0.0709 -0.03177,-0.14179 -0.04858,-0.21239 -0.0035,-0.0167 -0.0074,-0.0315 -0.01085,-0.0486 l -5.29e-4,0.002 c -0.06449,-0.26733 -0.136107,-0.53179 -0.21394,-0.79375 l 0.0031,0.003 c -0.01495,-0.0438 -0.02686,-0.0836 -0.03979,-0.12505 -0.01212,-0.0396 -0.02373,-0.0793 -0.03617,-0.11886 -0.298479,-1.06401 0.123725,-1.34551 1.008206,-2.06034 l 0.489894,-0.37155 c 1.394019,-1.03662 1.189789,-1.49487 0.462503,-2.72283 -0.481113,-0.85513 -0.77079,-1.31439 -1.423168,-1.29398 -0.296529,0.009 -0.66798,0.11802 -1.166339,0.33331 l -0.566372,0.23823 c -1.138362,0.43826 -1.578848,0.66631 -2.461866,-0.34468 l 0.0062,0.0269 c -0.198061,-0.20896 -0.401857,-0.41223 -0.610817,-0.6103 l 0.02687,0.006 c -1.010989,-0.88302 -0.782934,-1.32349 -0.344683,-2.46187 l 0.238747,-0.56637 c 0.68894,-1.59475 0.283162,-1.8897 -0.960665,-2.58951 -0.613982,-0.36364 -1.035783,-0.59661 -1.433505,-0.5643 -0.397722,0.0323 -0.771533,0.3298 -1.289844,1.02681 l -0.371554,0.48989 c -0.714822,0.88448 -0.996326,1.30669 -2.06034,1.00821 -0.03952,-0.0125 -0.07921,-0.024 -0.118856,-0.0362 -0.04144,-0.0129 -0.0813,-0.0243 -0.125055,-0.0393 l 0.0026,0.003 c -0.261964,-0.0778 -0.526423,-0.14945 -0.79375,-0.21394 l 0.0021,-5.3e-4 c -0.01712,-0.003 -0.03189,-0.007 -0.04858,-0.0108 -0.0706,-0.0168 -0.141436,-0.0327 -0.212389,-0.0486 -1.058847,-0.27423 -1.092512,-0.781 -1.268659,-1.90014 l -0.07648,-0.60978 c -0.200671,-1.72557 -0.699855,-1.77856 -2.126941,-1.76269 z m -0.0031,8.20053 c 0.0011,0 0.0021,0 0.0031,0 1.340197,8e-5 2.635467,0.23149 3.845762,0.65629 a 3.175,3.175 0 0 0 1.445905,1.82005 3.175,3.175 0 0 0 2.293916,0.34158 c 1.905887,1.63795 3.288724,3.89036 3.820441,6.49521 0.13399,0.65617 -0.367435,1.27027 -1.037148,1.27021 h -3.275251 c -0.468117,4e-5 -0.88066,-0.30743 -1.01441,-0.75603 -0.802769,-2.69258 -3.267233,-4.53129 -6.07663,-4.53513 -0.493585,0.003 -0.985379,0.0623 -1.465027,0.1788 -0.456477,0.11086 -0.931407,-0.0924 -1.166339,-0.49919 l -1.63504,-2.83135 c -0.334145,-0.57907 -0.05437,-1.31905 0.579292,-1.53221 1.186569,-0.3994 2.429449,-0.60479 3.681429,-0.60823 z m -6.960298,2.67116 c 0.360124,0.0169 0.686895,0.2159 0.867129,0.52813 l 1.635043,2.83135 c 0.234275,0.40573 0.173945,0.91721 -0.148312,1.25729 -1.114645,1.1765 -1.737154,2.73362 -1.740461,4.35426 0.0019,1.62155 0.623199,3.18013 1.737878,4.35787 0.322006,0.33999 0.382329,0.85116 0.148312,1.25677 l -1.630391,2.82463 c -0.334661,0.57971 -1.116657,0.70709 -1.61799,0.26355 -1.946865,-1.72165 -3.242222,-4.03182 -3.720703,-6.54585 a 3.175,3.175 0 0 0 0.849561,-2.15749 3.175,3.175 0 0 0 -0.850077,-2.15646 c 0.477438,-2.51517 1.771994,-4.82665 3.719153,-6.54947 0.206317,-0.18255 0.475678,-0.27747 0.750858,-0.26458 z m 14.0596,10.02884 h 3.261818 c 0.669711,-6e-5 1.171139,0.61404 1.037146,1.27021 -0.531397,2.60331 -1.913001,4.85483 -3.81734,6.49263 a 3.175,3.175 0 0 0 -0.773594,-0.0801 3.175,3.175 0 0 0 -1.51257,0.42426 3.175,3.175 0 0 0 -1.442805,1.81539 c -1.210632,0.42663 -2.50671,0.65949 -3.847827,0.66095 -0.0016,0 -0.0033,0 -0.0052,0 -1.25144,-0.005 -2.493741,-0.21186 -3.679365,-0.61237 -0.632915,-0.21369 -0.912043,-0.95304 -0.578258,-1.53169 l 1.632458,-2.82773 c 0.234932,-0.40678 0.709859,-0.61005 1.166337,-0.4992 0.479959,0.1166 0.972153,0.17616 1.466061,0.1788 2.810222,-0.003 5.275691,-1.84175 6.078699,-4.53512 0.13375,-0.4486 0.546291,-0.75607 1.014407,-0.75603 z"
       id="path4356" />
    <path
       inkscape:connector-curvature="0"
       style="color:#000000;display:inline;overflow:visible;visibility:visible;opacity:0.1;fill:#000000;fill-opacity:1;fill-rule:nonzero;stroke:none;stroke-width:1.04151189;stroke-linecap:butt;stroke-linejoin:miter;stroke-miterlimit:4;stroke-dasharray:3.12453591, 3.12453591;stroke-dashoffset:0;stroke-opacity:1;marker:none;enable-background:accumulate"
       d="m 33.223197,249.48929 c -6.511144,0 -11.965666,4.53027 -13.391429,10.60814 a 3.175,3.175 0 0 1 1.95802,0.99374 c 0.477438,-2.51517 1.771994,-4.82665 3.719153,-6.54947 0.206316,-0.18255 0.475678,-0.27747 0.750858,-0.26458 0.360123,0.0169 0.686894,0.2159 0.867129,0.52813 l 1.635043,2.83135 c 0.234275,0.40573 0.173945,0.91721 -0.148313,1.25729 -1.114644,1.1765 -1.737153,2.73362 -1.740461,4.35426 0.0019,1.62155 0.6232,3.18013 1.737879,4.35787 0.322006,0.33999 0.382328,0.85116 0.148312,1.25677 l -1.630391,2.82463 c -0.334661,0.57971 -1.116657,0.70709 -1.61799,0.26355 -1.946865,-1.72165 -3.242223,-4.03182 -3.720703,-6.54585 a 3.175,3.175 0 0 1 -1.95802,0.99374 c 1.426162,6.07732 6.880161,10.6071 13.390913,10.6071 1.379964,0 2.711728,-0.20545 3.96875,-0.58394 a 3.175,3.175 0 0 1 -0.119888,-2.19367 c -1.210632,0.42663 -2.50671,0.65949 -3.847827,0.66095 -0.0016,0 -0.0033,0 -0.0052,0 -1.25144,-0.005 -2.493741,-0.21186 -3.679365,-0.61237 -0.632915,-0.21369 -0.912043,-0.95304 -0.578258,-1.53169 l 1.632458,-2.82773 c 0.234932,-0.40678 0.709859,-0.61005 1.166337,-0.4992 0.479959,0.1166 0.972153,0.17616 1.466061,0.1788 2.810222,-0.003 5.275691,-1.84175 6.078699,-4.53512 0.13375,-0.4486 0.546291,-0.75607 1.014407,-0.75603 h 3.261818 c 0.669711,-6e-5 1.171139,0.61404 1.037146,1.27021 -0.531397,2.60331 -1.912999,4.85483 -3.81734,6.49263 a 3.175,3.175 0 0 1 1.84485,1.19682 c 2.667161,-2.50973 4.335645,-6.06886 4.335645,-10.01799 0,-3.94992 -1.669103,-7.50974 -4.337204,-10.01955 a 3.175,3.175 0 0 1 -1.835547,1.1958 c 1.905887,1.63795 3.288721,3.89036 3.820441,6.49521 0.13399,0.65617 -0.367435,1.27027 -1.037148,1.27021 h -3.275251 c -0.468117,4e-5 -0.88066,-0.30743 -1.01441,-0.75603 -0.802769,-2.69258 -3.267233,-4.53129 -6.07663,-4.53513 -0.493585,0.003 -0.985379,0.0623 -1.465027,0.1788 -0.456477,0.11086 -0.931407,-0.0924 -1.166339,-0.49919 l -1.63504,-2.83135 c -0.334145,-0.57907 -0.05437,-1.31905 0.579292,-1.53221 1.186569,-0.3994 2.429449,-0.60479 3.681429,-0.60823 0.0011,0 0.0021,0 0.0031,0 1.340197,8e-5 2.635467,0.23149 3.845761,0.65629 a 3.175,3.175 0 0 1 0.121439,-2.18953 c -1.256559,-0.37819 -2.5878,-0.58343 -3.967195,-0.58343 z m 0,9.525 a 4.2333333,4.2333333 0 0 1 4.233334,4.23334 4.2333333,4.2333333 0 0 1 -4.233334,4.23333 4.2333333,4.2333333 0 0 1 -4.233333,-4.23333 4.2333333,4.2333333 0 0 1 4.233333,-4.23334 z"
       id="path4451" />
    <path
       inkscape:connector-curvature="0"
       style="display:inline;opacity:1;fill:#b3b3b3;fill-opacity:1;stroke:none;stroke-width:0.79374999;stroke-linecap:round;stroke-linejoin:round;stroke-miterlimit:4;stroke-dasharray:none;stroke-dashoffset:0;stroke-opacity:1;enable-background:new"
       d="m 40.027434,249.74664 a 1.5875,1.5875 0 0 0 -1.299662,0.7922 1.5875,1.5875 0 0 0 0.580842,2.16835 1.5875,1.5875 0 0 0 2.168343,-0.58085 1.5875,1.5875 0 0 0 -0.580843,-2.16886 1.5875,1.5875 0 0 0 -0.86868,-0.21084 z m -20.562569,11.91349 a 1.5875,1.5875 0 0 0 -1.5875,1.5875 1.5875,1.5875 0 0 0 1.5875,1.5875 1.5875,1.5875 0 0 0 1.5875,-1.5875 1.5875,1.5875 0 0 0 -1.5875,-1.5875 z m 20.600293,11.91555 a 1.5875,1.5875 0 0 0 -0.756544,0.21239 1.5875,1.5875 0 0 0 -0.580842,2.16834 1.5875,1.5875 0 0 0 2.168342,0.58085 1.5875,1.5875 0 0 0 0.580843,-2.16835 1.5875,1.5875 0 0 0 -1.411799,-0.79323 z"
       id="circle1245" />
  </g>
</svg>
