<svg xmlns="http://www.w3.org/2000/svg" xmlns:xlink="http://www.w3.org/1999/xlink" width="256" height="256" version="1.1" viewBox="0 0 67.73 67.73">
 <defs>
  <linearGradient id="linearGradient930" x1="334.866" x2="334.866" y1="140.23" y2="160.631" gradientUnits="userSpaceOnUse" xlink:href="#linearGradient928"/>
  <linearGradient id="linearGradient928">
   <stop style="stop-color:#808080" offset="0"/>
   <stop style="stop-color:#999999" offset="1"/>
  </linearGradient>
  <linearGradient id="linearGradient4226" x1="529.655" x2="-35.31" y1="295.638" y2="295.638" gradientTransform="matrix(0,-0.11988932,-0.11988589,0,66.487288,293.07747)" gradientUnits="userSpaceOnUse" xlink:href="#linearGradient4338-3"/>
  <linearGradient id="linearGradient4338-3">
   <stop offset="0" style="stop-color:#999999"/>
   <stop style="stop-color:#b7b7b7" offset=".613"/>
   <stop offset="1" style="stop-color:#dbdbdb"/>
  </linearGradient>
  <linearGradient id="linearGradient4358" x1="88" x2="488" y1="88" y2="488" gradientUnits="userSpaceOnUse" xlink:href="#linearGradient4360"/>
  <linearGradient id="linearGradient4360">
   <stop offset="0" style="stop-color:#000000;stop-opacity:0.58823532"/>
   <stop style="stop-color:#000000;stop-opacity:0" offset=".88"/>
   <stop offset="1" style="stop-color:#000000"/>
  </linearGradient>
  <filter style="color-interpolation-filters:sRGB" id="filter4346" width="1.026" height="1.022" x="-.01" y="-.01">
   <feGaussianBlur stdDeviation="2.12"/>
  </filter>
  <linearGradient id="linearGradient1093" x1="334.866" x2="334.866" y1="140.23" y2="160.631" gradientUnits="userSpaceOnUse" xlink:href="#linearGradient928"/>
  <linearGradient id="linearGradient1095" x1="334.866" x2="334.866" y1="140.23" y2="160.631" gradientUnits="userSpaceOnUse" xlink:href="#linearGradient928"/>
 </defs>
 <g transform="translate(0,-229.26666)">
  <path style="opacity:0.1;filter:url(#filter4346)" d="M 189.84323,74 C 119.24979,74 111.65402,81.250835 112,151.98706 V 298 444.01294 C 111.65402,514.74917 119.24979,522 189.84323,522 H 386.15677 C 456.75021,522 462.16345,514.72616 464,444.01294 V 298 151.98706 C 464,81.249993 456.75021,74 386.15677,74 Z" transform="matrix(0.13229167,0,0,0.13229167,-4.938835,224.28581)"/>
  <path d="M 189.84323,74 C 119.24979,74 111.65402,81.250835 112,151.98706 V 298 444.01294 C 111.65402,514.74917 119.24979,522 189.84323,522 H 386.15677 C 456.75021,522 464,514.75001 464,444.01294 V 298 151.98706 C 464,81.249993 456.75021,74 386.15677,74 Z" transform="matrix(0.13229167,0,0,0.13229167,-4.938835,224.28581)" style="opacity:0.3;fill:url(#linearGradient4358);filter:url(#filter4380)"/>
  <path style="fill:url(#linearGradient4226)" d="m 46.145058,233.81081 c 9.338927,0 10.343782,0.95922 10.298012,10.31704 v 19.31629 19.3163 c 0.04577,9.35781 -0.959085,10.31704 -10.298012,10.31704 H 20.174415 c -9.338923,0 -10.298011,-0.95912 -10.298011,-10.31704 v -19.3163 -19.31629 c 0,-9.35793 0.959088,-10.31704 10.298011,-10.31704 z"/>
  <g style="opacity:0.2;stroke:#ffffff;stroke-width:1.13335121;enable-background:new" transform="matrix(1.8676559,0,0,1.8675796,-594.37058,-10.618006)">
   <path d="m 344.21014,147.66357 a 8.5001656,8.500124 0 0 1 -4.95766,10.05309 8.5001656,8.500124 0 0 1 -10.61423,-3.60303 8.5001656,8.500124 0 0 1 2.18678,-10.99367 8.5001656,8.500124 0 0 1 11.1851,0.73311 l -1.76044,1.76043" style="fill:none;stroke:#ffffff;stroke-width:1.13335121;stroke-linecap:square;stroke-linejoin:round"/>
   <circle cx="336" cy="149.864" r="2.267" style="fill:none;stroke:#ffffff;stroke-width:1.13335121;stroke-linecap:square;stroke-linejoin:round"/>
  </g>
  <g transform="matrix(1.8676559,0,0,1.8675796,-594.37058,-11.147173)" style="stroke:url(#linearGradient930);stroke-width:1.13335121;enable-background:new">
   <path style="fill:none;stroke:url(#linearGradient1093);stroke-width:1.13335121;stroke-linecap:square;stroke-linejoin:round" d="m 344.21014,147.66357 a 8.5001656,8.500124 0 0 1 -4.95766,10.05309 8.5001656,8.500124 0 0 1 -10.61423,-3.60303 8.5001656,8.500124 0 0 1 2.18678,-10.99367 8.5001656,8.500124 0 0 1 11.1851,0.73311 l -1.76044,1.76043"/>
   <circle style="fill:none;stroke:url(#linearGradient1095);stroke-width:1.13335121;stroke-linecap:square;stroke-linejoin:round" cx="336" cy="149.864" r="2.267"/>
  </g>
  <path style="opacity:0.2" d="m 9.8778317,282.23111 v 0.52917 c -0.04577,9.35781 0.9591543,10.3172 10.2980803,10.3172 h 25.970506 c 9.338924,0 10.055122,-0.96243 10.298081,-10.3172 v -0.52917 c -0.242959,9.35477 -0.959157,10.3172 -10.298081,10.3172 H 20.175912 c -9.338926,0 -10.3438506,-0.95939 -10.2980803,-10.3172 z"/>
 </g>
</svg>
