<svg xmlns="http://www.w3.org/2000/svg" xmlns:xlink="http://www.w3.org/1999/xlink" width="256" height="256" version="1.1" viewBox="0 0 67.73 67.73">
 <defs>
  <linearGradient id="linearGradient1347" x1="156" x2="156" y1="80" y2="232" gradientUnits="userSpaceOnUse" xlink:href="#linearGradient927"/>
  <linearGradient id="linearGradient927">
   <stop style="stop-color:#ffffff" offset="0"/>
   <stop offset=".125" style="stop-color:#ffffff;stop-opacity:0.09803922"/>
   <stop offset=".925" style="stop-color:#ffffff;stop-opacity:0.09803922"/>
   <stop style="stop-color:#ffffff;stop-opacity:0.49803922" offset="1"/>
  </linearGradient>
  <clipPath id="clipPath1463" clipPathUnits="userSpaceOnUse">
   <path style="fill:#808080" d="m 271.99897,211.00107 c 0,25.00001 -9.78264,24.70848 -35,25.00001 H 66.99995 c -25.21735,-0.29153 -35,0 -35,-25.00001 V 101.00003 c 0,-25.000009 9.78265,-24.708474 35,-25.000009 h 169.99902 c 25.21736,0.291535 35,0 35,25.000009 z"/>
  </clipPath>
  <linearGradient id="linearGradient1331" x1="152" x2="152" y1="84" y2="228" gradientTransform="matrix(0.25681236,0,0,0.25681236,-5.1686724,222.16332)" gradientUnits="userSpaceOnUse" xlink:href="#linearGradient1048"/>
  <linearGradient id="linearGradient1048">
   <stop style="stop-color:#666666" offset="0"/>
   <stop style="stop-color:#808080" offset="1"/>
  </linearGradient>
  <filter style="color-interpolation-filters:sRGB" id="filter1355" width="1.099" height="1.152" x="-.05" y="-.08">
   <feGaussianBlur stdDeviation="4.7"/>
  </filter>
  <filter style="color-interpolation-filters:sRGB" id="filter1361" width="1.04" height="1.061" x="-.02" y="-.03">
   <feGaussianBlur stdDeviation="1.88"/>
  </filter>
  <clipPath id="clipPath1337" clipPathUnits="userSpaceOnUse">
   <path d="m 265.99897,205.00107 c 0,25.00001 -9.78264,24.70848 -35,25.00001 H 72.99995 c -25.21735,-0.29153 -35,0 -35,-25.00001 v -98.00104 c 0,-25.000009 9.78265,-24.708474 35,-25.000009 h 157.99902 c 25.21736,0.291535 35,0 35,25.000009 z" style="fill:#808080"/>
  </clipPath>
  <linearGradient id="linearGradient985" x1="156" x2="156" y1="80" y2="232" gradientUnits="userSpaceOnUse" xlink:href="#linearGradient927"/>
 </defs>
 <g transform="translate(0,-229.26666)">
  <path d="m 271.99897,211.00107 c 0,25.00001 -9.78264,24.70848 -35,25.00001 H 66.99995 c -25.21735,-0.29153 -35,0 -35,-25.00001 V 101.00003 c 0,-25.000009 9.78265,-24.708474 35,-25.000009 h 169.99902 c 25.21736,0.291535 35,0 35,25.000009 z" clip-path="url(#clipPath1337)" transform="matrix(0.25681237,0,0,0.25681237,-5.1686724,222.16332)" style="opacity:0.5;stroke:url(#linearGradient985);stroke-width:4;filter:url(#filter1379)"/>
  <path style="opacity:0.5;filter:url(#filter1361)" d="m 251.87271,147.19564 c 0,25.00001 -9.78264,24.70848 -35,25.00001 H 46.873689 c -25.21735,-0.29153 -35,0 -35,-25.00001 l 4,-110.001041 c 0,-25.000009 5.78265,-24.708474 31,-25.000009 H 216.87271 c 25.21736,0.291535 35,0 35,25.000009 z" transform="matrix(0.25681237,0,0,0.25681237,1.1214769e-7,239.06297)"/>
  <path d="m 64.684027,276.35101 c 0,6.42031 -2.512302,6.34544 -8.988432,6.42031 H 12.037743 c -6.4761273,-0.0748 -8.9884328,0 -8.9884328,-6.42031 v -28.24964 c 0,-6.4203 2.5123055,-6.34544 8.9884328,-6.4203 h 43.657852 c 6.47613,0.0748 8.988432,0 8.988432,6.4203 z" style="opacity:0.5;fill:none;stroke:#000000;stroke-width:1.02724946"/>
  <path d="m 251.87271,147.19564 c 0,25.00001 -9.78264,24.70848 -35,25.00001 H 46.873689 c -25.21735,-0.29153 -35,0 -35,-25.00001 l 4,-110.001041 c 0,-25.000009 5.78265,-24.708474 31,-25.000009 H 216.87271 c 25.21736,0.291535 35,0 35,25.000009 z" transform="matrix(0.25681237,0,0,0.25681237,1.1214769e-7,239.06297)" style="opacity:0.2;filter:url(#filter1355)"/>
  <path style="fill:url(#linearGradient1331)" d="m 64.684027,276.35101 c 0,6.42031 -2.512302,6.34544 -8.988432,6.42031 H 12.037743 c -6.4761273,-0.0748 -8.9884328,0 -8.9884328,-6.42031 v -28.24964 c 0,-6.4203 2.5123055,-6.34544 8.9884328,-6.4203 h 43.657852 c 6.47613,0.0748 8.988432,0 8.988432,6.4203 z"/>
  <path style="opacity:0.5;fill:none;stroke:url(#linearGradient1347);stroke-width:4" d="m 271.99897,211.00107 c 0,25.00001 -9.78264,24.70848 -35,25.00001 H 66.99995 c -25.21735,-0.29153 -35,0 -35,-25.00001 V 101.00003 c 0,-25.000009 9.78265,-24.708474 35,-25.000009 h 169.99902 c 25.21736,0.291535 35,0 35,25.000009 z" clip-path="url(#clipPath1463)" transform="matrix(0.25681237,0,0,0.25681237,-5.1686724,222.16332)"/>
 </g>
</svg>
