<svg xmlns="http://www.w3.org/2000/svg" xmlns:xlink="http://www.w3.org/1999/xlink" width="256" height="256" version="1.1" viewBox="0 0 67.73 67.73">
 <defs>
  <linearGradient id="linearGradient1027">
   <stop offset="0" style="stop-color:#ffffff"/>
   <stop offset="1" style="stop-color:#ffffff;stop-opacity:0"/>
  </linearGradient>
  <linearGradient id="linearGradient3263" x1="12.274" x2="35.391" y1="32.416" y2="14.203" gradientUnits="userSpaceOnUse">
   <stop offset="0" style="stop-color:#dedbde"/>
   <stop offset=".5" style="stop-color:#e6e6e6"/>
   <stop offset="1" style="stop-color:#d2d2d2"/>
  </linearGradient>
  <radialGradient id="radialGradient972" cx="-16.058" cy="262.278" r="21.167" fx="-16.058" fy="262.278" gradientTransform="matrix(1.902357,-0.02368669,0.02441152,1.9605704,57.451028,-253.50522)" gradientUnits="userSpaceOnUse" xlink:href="#linearGradient3263"/>
  <linearGradient id="linearGradient1029" x1="-53.233" x2="-55.555" y1="33.45" y2="135.449" gradientTransform="matrix(0.32265584,0,0,0.32265584,52.88822,220.83281)" gradientUnits="userSpaceOnUse" xlink:href="#linearGradient1027"/>
  <filter id="filter1061" width="1.096" height="1.096" x="-.05" y="-.05" style="color-interpolation-filters:sRGB">
   <feGaussianBlur stdDeviation="1.032"/>
  </filter>
 </defs>
 <g transform="translate(0,-229.26666)">
  <path d="m 33.304977,234.63174 c -14.653545,0 -26.457142,11.80359 -26.457142,26.45714 -1e-6,14.65354 11.803599,26.45953 26.457142,26.45953 14.653537,0 26.459525,-11.80599 26.459525,-26.45953 0,-14.65355 -11.80598,-26.45714 -26.459525,-26.45714 z m 0,1.29094 c 13.961678,0 25.168585,11.20452 25.168585,25.1662 0,13.96167 -11.206915,25.1686 -25.168585,25.1686 -13.961676,0 -25.166202,-11.20693 -25.166201,-25.1686 0,-13.96168 11.204521,-25.1662 25.166201,-25.1662 z m 0,15.07924 c -5.939372,0 -10.086963,4.57307 -10.086963,10.08696 0,5.43392 4.334804,10.08935 10.086963,10.08935 5.646421,0 10.089347,-4.54865 10.089347,-10.08935 0,-5.41735 -4.142084,-10.08696 -10.089347,-10.08696 z m 0,1.28856 c 5.280614,0 8.798407,4.02792 8.798407,8.7984 0,4.85512 -3.840991,8.79841 -8.798407,8.79841 -5.059689,0 -8.798405,-4.04664 -8.798405,-8.79841 0,-4.87985 3.509902,-8.7984 8.798405,-8.7984 z" style="fill-opacity:0.29803922"/>
  <path style="fill:#070707;opacity:0.3;filter:url(#filter1061)" d="m 59.118366,261.08978 c 0,-14.30761 -11.504852,-25.81247 -25.812461,-25.81247 -14.307613,0 -25.812466,11.50486 -25.812466,25.81247 -1e-6,14.30761 11.504855,25.81246 25.812466,25.81246 14.307602,0 25.812461,-11.50485 25.812461,-25.81246 z m -16.368879,0 c 0,5.19791 -4.141664,9.44359 -9.443582,9.44359 -5.405924,0 -9.443587,-4.35075 -9.443587,-9.44359 0,-5.19688 3.829648,-9.44359 9.443587,-9.44359 5.613937,0 9.443582,4.34968 9.443582,9.44359 z"/>
  <path d="m 59.118366,261.08978 c 0,-14.30761 -11.504852,-25.81247 -25.812461,-25.81247 -14.307613,0 -25.812466,11.50486 -25.812466,25.81247 -1e-6,14.30761 11.504855,25.81246 25.812466,25.81246 14.307602,0 25.812461,-11.50485 25.812461,-25.81246 z m -16.368879,0 c 0,5.19791 -4.141664,9.44359 -9.443582,9.44359 -5.405924,0 -9.443587,-4.35075 -9.443587,-9.44359 0,-5.19688 3.829648,-9.44359 9.443587,-9.44359 5.613937,0 9.443582,4.34968 9.443582,9.44359 z" style="fill:url(#radialGradient972)"/>
  <path d="m 33.390856,235.27732 c -13.578317,0 -24.638888,10.37108 -25.725499,23.65911 h 0.463818 c 1.084076,-13.03898 11.930716,-23.19718 25.261681,-23.19718 13.330964,0 24.176977,10.1582 25.261054,23.19718 h 0.461926 C 58.027441,245.6484 46.969171,235.27732 33.390856,235.27732 Z m 0,16.22227 c -4.882002,0 -8.452955,3.19676 -9.3608,7.43684 h 0.466339 c 0.889123,-3.99962 4.248921,-6.97491 8.894461,-6.97491 4.630135,0 7.985911,3.03381 8.8869,6.97491 h 0.467599 c -0.918084,-4.18264 -4.482022,-7.43684 -9.354499,-7.43684 z" style="fill:url(#linearGradient1029)"/>
 </g>
</svg>
