<svg xmlns="http://www.w3.org/2000/svg" xmlns:xlink="http://www.w3.org/1999/xlink" width="256" height="256" version="1.1" viewBox="0 0 67.73 67.73">
 <defs>
  <linearGradient id="linearGradient4338-3">
   <stop offset="0" style="stop-color:#999999"/>
   <stop style="stop-color:#b7b7b7" offset=".613"/>
   <stop offset="1" style="stop-color:#dbdbdb"/>
  </linearGradient>
  <linearGradient id="linearGradient4358" x1="88" x2="488" y1="88" y2="488" gradientTransform="matrix(0.50000001,0,0,0.50000001,-22.362438,-29.824025)" gradientUnits="userSpaceOnUse" xlink:href="#linearGradient4360"/>
  <linearGradient id="linearGradient4360">
   <stop offset="0" style="stop-color:#000000;stop-opacity:0.58823532"/>
   <stop style="stop-color:#000000;stop-opacity:0" offset=".88"/>
   <stop offset="1" style="stop-color:#000000"/>
  </linearGradient>
  <filter style="color-interpolation-filters:sRGB" id="filter4346" width="1.026" height="1.022" x="-.01" y="-.01">
   <feGaussianBlur stdDeviation="2.12"/>
  </filter>
  <linearGradient id="linearGradient1163" x1="529.655" x2="-35.31" y1="295.638" y2="295.638" gradientTransform="matrix(0,-0.45312497,-0.453112,0,247.59456,230.17599)" gradientUnits="userSpaceOnUse" xlink:href="#linearGradient4338-3"/>
 </defs>
 <g transform="translate(0,-229.26666)">
  <path style="opacity:0.1;filter:url(#filter4346)" d="M 103.29883 15.175781 L 57.636719 57.570312 L 57.636719 113.17578 L 57.636719 161.30273 C 57.63864 167.31564 57.758615 172.4197 58.136719 176.7168 C 58.327256 178.88222 58.582004 180.84827 58.917969 182.63281 C 59.253933 184.41736 59.672668 186.02052 60.1875 187.46094 C 60.702332 188.90135 61.313877 190.17947 62.041016 191.3125 C 62.768154 192.44553 63.611099 193.43252 64.583984 194.29492 C 65.556869 195.15732 66.660039 195.89492 67.912109 196.52344 C 69.16418 197.15195 70.56421 197.67214 72.128906 198.10352 L 187.16992 198.10352 C 188.73956 197.67213 190.14546 197.15196 191.40234 196.52344 C 192.65923 195.89491 193.76724 195.15733 194.74414 194.29492 C 195.72104 193.43251 196.56524 192.44554 197.29492 191.3125 C 198.0246 190.17946 198.63906 188.90136 199.1543 187.46094 C 199.66953 186.02052 200.08636 184.41736 200.41992 182.63281 C 200.68455 181.21705 200.86248 179.59255 201.03125 177.93945 C 201.08507 177.32576 201.16325 176.77735 201.20703 176.13086 C 201.54334 171.90521 201.6614 167.02733 201.63281 161.18164 L 201.63281 158.03906 L 195.47266 158.03906 L 195.47266 133.93359 L 201.63281 133.93359 L 201.63281 112.17578 L 201.63281 53.964844 C 201.61701 18.810091 197.93703 15.175781 162.7168 15.175781 L 103.29883 15.175781 z" transform="matrix(0.26458333,0,0,0.26458333,0,229.26666)"/>
  <path style="opacity:0.3;fill:url(#linearGradient4358);filter:url(#filter4380)" d="M 103.29883 15.175781 L 57.636719 57.570312 L 57.636719 113.17578 L 57.636719 161.30273 C 57.63864 167.31564 57.758615 172.4197 58.136719 176.7168 C 58.327256 178.88222 58.582004 180.84827 58.917969 182.63281 C 59.253933 184.41736 59.672668 186.02052 60.1875 187.46094 C 60.702332 188.90135 61.313877 190.17947 62.041016 191.3125 C 62.768154 192.44553 63.611099 193.43252 64.583984 194.29492 C 65.556869 195.15732 66.660039 195.89492 67.912109 196.52344 C 69.16418 197.15195 70.56421 197.67214 72.128906 198.10352 L 187.16992 198.10352 C 188.73956 197.67213 190.14546 197.15196 191.40234 196.52344 C 192.65923 195.89491 193.76724 195.15733 194.74414 194.29492 C 195.72104 193.43251 196.56524 192.44554 197.29492 191.3125 C 198.0246 190.17946 198.63906 188.90136 199.1543 187.46094 C 199.66953 186.02052 200.08636 184.41736 200.41992 182.63281 C 200.68455 181.21705 200.86248 179.59255 201.03125 177.93945 C 201.08507 177.32576 201.16325 176.77735 201.20703 176.13086 C 201.54334 171.90521 201.6614 167.02733 201.63281 161.18164 L 201.63281 158.03906 L 195.47266 158.03906 L 195.47266 133.93359 L 201.63281 133.93359 L 201.63281 112.17578 L 201.63281 53.964844 C 201.61701 18.810091 197.93703 15.175781 162.7168 15.175781 L 103.29883 15.175781 z" transform="matrix(0.26458333,0,0,0.26458333,0,229.26666)"/>
  <path d="m 27.608133,233.55374 -12.359452,11.47527 v 14.44666 12.96613 c 0,6.42925 0.523485,8.85583 3.835425,9.76892 1.508668,0.41593 3.539925,0.54828 6.462655,0.54828 h 17.503841 c 2.92272,0 4.958017,-0.13235 6.471439,-0.54828 1.349724,-0.37096 2.239724,-0.99193 2.818434,-2.02934 0.04452,-0.0798 0.08725,-0.16169 0.128156,-0.2465 0.0409,-0.0848 0.07988,-0.17254 0.117306,-0.26251 0.03742,-0.09 0.07289,-0.18223 0.106971,-0.2775 0.204483,-0.57167 0.349927,-1.24062 0.451136,-2.02262 0.03373,-0.26067 0.0629,-0.53364 0.08733,-0.8201 0.09771,-1.14587 0.125166,-2.50305 0.117305,-4.11035 v -0.83147 h -1.629873 v -6.37791 h 1.629873 v -5.75675 -15.61197 c 0.04507,-9.21546 -0.968906,-10.27953 -9.917739,-10.30996 z" style="fill:#8a8a8a"/>
  <path style="fill:url(#linearGradient1163)" d="M 104.3457 14.203125 L 57.632812 57.574219 L 57.632812 112.17578 L 57.632812 161.18164 C 57.632812 185.48115 59.611336 194.65248 72.128906 198.10352 C 77.830958 199.67554 85.508151 200.17578 96.554688 200.17578 L 162.71094 200.17578 C 173.75744 200.17578 181.4499 199.67557 187.16992 198.10352 C 192.27124 196.7015 195.63502 194.35452 197.82227 190.43359 C 197.99052 190.13198 198.15205 189.82249 198.30664 189.50195 C 198.46123 189.18142 198.60856 188.8498 198.75 188.50977 C 198.89144 188.16973 199.02549 187.82104 199.1543 187.46094 C 199.92715 185.30031 200.47686 182.77199 200.85938 179.81641 C 200.98688 178.83121 201.09713 177.79951 201.18945 176.7168 C 201.55875 172.38596 201.66252 167.25646 201.63281 161.18164 L 201.63281 158.03906 L 195.47266 158.03906 L 195.47266 133.93359 L 201.63281 133.93359 L 201.63281 112.17578 L 201.63281 53.169922 C 201.80317 18.339828 197.9708 14.318151 164.14844 14.203125 L 104.3457 14.203125 z" transform="matrix(0.26458333,0,0,0.26458333,0,229.26666)"/>
  <path style="fill:#8a8a8a" d="m 28.458642,236.23394 v 11.56467 h 2.706811 v -11.56467 z m 4.429187,0 v 11.56467 h 2.706811 v -11.56467 z m 4.429187,0 v 11.56467 h 2.706811 v -11.56467 z m 4.429187,0 v 11.56467 h 2.706811 v -11.56467 z m 4.429186,0 v 11.56467 h 2.706812 v -11.56467 z m -24.194906,26.31725 c -1.25413,0 -2.263944,1.00982 -2.263944,2.26395 v 11.94139 c 0,1.25413 1.009814,2.26394 2.263944,2.26394 h 23.553085 c 1.254132,0 2.263945,-1.00981 2.263945,-2.26394 v -11.94139 c 0,-1.25413 -1.009813,-2.26395 -2.263945,-2.26395 z"/>
 </g>
</svg>
