<svg xmlns="http://www.w3.org/2000/svg" xmlns:xlink="http://www.w3.org/1999/xlink" width="256" height="256" version="1.1" viewBox="0 0 67.73 67.73">
 <defs>
  <linearGradient id="linearGradient979" x1="152" x2="152" y1="100" y2="212" gradientTransform="matrix(0.26458333,0,0,0.26458333,-6.4029032,220.85262)" gradientUnits="userSpaceOnUse" xlink:href="#linearGradient1637"/>
  <linearGradient id="linearGradient1637">
   <stop offset="0" style="stop-color:#f2f2f2"/>
   <stop offset="1" style="stop-color:#f7f7f7"/>
  </linearGradient>
  <filter style="color-interpolation-filters:sRGB" id="filter997" width="1.038" height="1.065" x="-.02" y="-.03">
   <feGaussianBlur stdDeviation="1.52"/>
  </filter>
  <filter style="color-interpolation-filters:sRGB" id="filter991" width="1.019" height="1.033" x="-.01" y="-.02">
   <feGaussianBlur stdDeviation=".76"/>
  </filter>
  <linearGradient id="linearGradient962" x1="152" x2="152" y1="76" y2="228" gradientUnits="userSpaceOnUse" xlink:href="#linearGradient1013-6"/>
  <linearGradient id="linearGradient1013-6">
   <stop offset="0" style="stop-color:#ffffff"/>
   <stop style="stop-color:#ffffff;stop-opacity:0.09803922" offset=".125"/>
   <stop style="stop-color:#000000;stop-opacity:0.09803922" offset=".925"/>
   <stop offset="1" style="stop-color:#000000;stop-opacity:0.49803922"/>
  </linearGradient>
  <clipPath id="clipPath1463" clipPathUnits="userSpaceOnUse">
   <path style="fill:#808080" d="m 271.99897,211.00107 c 0,25.00001 -9.78264,24.70848 -35,25.00001 H 66.99995 c -25.21735,-0.29153 -35,0 -35,-25.00001 V 101.00003 c 0,-25.000009 9.78265,-24.708474 35,-25.000009 h 169.99902 c 25.21736,0.291535 35,0 35,25.000009 z"/>
  </clipPath>
  <linearGradient id="linearGradient1331" x1="152" x2="152" y1="84" y2="228" gradientTransform="matrix(0.26458333,0,0,0.26458333,-6.4029032,220.85262)" gradientUnits="userSpaceOnUse" xlink:href="#linearGradient1048"/>
  <linearGradient id="linearGradient1048">
   <stop style="stop-color:#cdcdcd" offset="0"/>
   <stop style="stop-color:#d9d9d9" offset="1"/>
  </linearGradient>
  <linearGradient id="linearGradient1347" x1="156" x2="156" y1="80" y2="232" gradientUnits="userSpaceOnUse" xlink:href="#linearGradient927"/>
  <linearGradient id="linearGradient927">
   <stop style="stop-color:#ffffff" offset="0"/>
   <stop offset=".125" style="stop-color:#ffffff;stop-opacity:0.09803922"/>
   <stop offset=".925" style="stop-color:#ffffff;stop-opacity:0.09803922"/>
   <stop style="stop-color:#ffffff;stop-opacity:0.49803922" offset="1"/>
  </linearGradient>
  <clipPath id="clipPath1337" clipPathUnits="userSpaceOnUse">
   <path d="m 265.99897,205.00107 c 0,25.00001 -9.78264,24.70848 -35,25.00001 H 72.99995 c -25.21735,-0.29153 -35,0 -35,-25.00001 v -98.00104 c 0,-25.000009 9.78265,-24.708474 35,-25.000009 h 157.99902 c 25.21736,0.291535 35,0 35,25.000009 z" style="fill:#808080"/>
  </clipPath>
  <filter style="color-interpolation-filters:sRGB" id="filter932" width="1.02" height="1.03" x="-.01" y="-.01">
   <feGaussianBlur stdDeviation="1"/>
  </filter>
  <filter style="color-interpolation-filters:sRGB" id="filter938" width="1.04" height="1.06" x="-.02" y="-.03">
   <feGaussianBlur stdDeviation="2"/>
  </filter>
 </defs>
 <g transform="translate(0,-229.26666)">
  <path style="opacity:0.2;filter:url(#filter938)" d="m 244.79902,139.80105 c 0,25.00001 -9.78264,24.70848 -35,25.00001 h -169.999019 c -25.21735,-0.29153 -35.0000001,0 -35.0000001,-25.00001 v -110.00104 c 0,-25.000009 9.7826501,-24.708474 35.0000001,-25.000009 h 169.999019 c 25.21736,0.291535 35,0 35,25.000009 z" transform="matrix(0.26458333,0,0,0.26458333,0.79374999,240.22013)"/>
  <path d="m 244.79902,137.80105 c 0,25.00001 -9.78264,24.70848 -35,25.00001 h -169.999019 c -25.21735,-0.29153 -35.0000001,0 -35.0000001,-25.00001 v -110.00104 c 0,-25.000009 9.7826501,-24.708474 35.0000001,-25.000009 h 169.999019 c 25.21736,0.291535 35,0 35,25.000009 z" transform="matrix(0.26458333,0,0,0.26458333,0.79374999,240.22013)" style="opacity:0.1;filter:url(#filter932)"/>
  <path d="m 271.99897,211.00107 c 0,25.00001 -9.78264,24.70848 -35,25.00001 h -169.99902 c -25.21735,-0.29153 -35,0 -35,-25.00001 v -110.00104 c 0,-25.000009 9.78265,-24.708474 35,-25.000009 h 169.99902 c 25.21736,0.291535 35,0 35,25.000009 z" clip-path="url(#clipPath1337)" transform="matrix(0.26458333,0,0,0.26458333,-6.4029032,220.85262)" style="opacity:0.5;stroke:url(#linearGradient1347);stroke-width:4;filter:url(#filter1379)"/>
  <path style="fill:url(#linearGradient1331)" d="m 65.563491,276.67999 c 0,6.61459 -2.588324,6.53745 -9.260417,6.61459 h -44.978907 c -6.6720906,-0.0771 -9.2604168,0 -9.2604168,-6.61459 v -29.10444 c 0,-6.61459 2.5883262,-6.53745 9.2604168,-6.61459 h 44.978907 c 6.672093,0.0771 9.260417,0 9.260417,6.61459 z"/>
  <path style="opacity:0.3;fill:none;stroke:url(#linearGradient962);stroke-width:4" d="m 271.99897,211.00107 c 0,25.00001 -9.78264,24.70848 -35,25.00001 h -169.99902 c -25.21735,-0.29153 -35,0 -35,-25.00001 v -110.00104 c 0,-25.000009 9.78265,-24.708474 35,-25.000009 h 169.99902 c 25.21736,0.291535 35,0 35,25.000009 z" clip-path="url(#clipPath1463)" transform="matrix(0.26458333,0,0,0.26458333,-6.4029032,220.85262)"/>
  <path d="m 37.928957,26.79998 c -2.875863,0.0331 -4.980463,-0.0705 -6.701172,0.87891 -0.860365,0.4747 -1.537696,1.27869 -1.914062,2.28125 -0.376343,1.00256 -0.513672,2.1942 -0.513672,3.69726 v 18.28516 c 0,1.50306 0.137421,2.69468 0.513672,3.69726 0.376366,1.00256 1.053697,1.80069 1.914062,2.27539 1.720709,0.94937 3.825309,0.85154 6.701172,0.88477 h 0.0098 13.722656 0.0098 c 2.875862,-0.0331 4.980463,0.0646 6.701172,-0.88477 0.860366,-0.4747 1.537719,-1.27283 1.914062,-2.27539 0.374715,-1.00258 0.513604,-2.1942 0.513604,-3.69726 v -18.28516 c 0,-1.50306 -0.137421,-2.6947 -0.513672,-3.69726 -0.376343,-1.00256 -1.053697,-1.80655 -1.914062,-2.28125 -1.720709,-0.949371 -3.825309,-0.84568 -6.701172,-0.87891 h -0.0098 -13.722656 z m 40.000004,0 c -2.87586,0.0331 -4.98047,-0.0705 -6.701176,0.87891 -0.860365,0.4747 -1.537696,1.27869 -1.914062,2.28125 -0.376343,1.00256 -0.513672,2.1942 -0.513672,3.69726 v 18.28516 c 0,1.50306 0.137421,2.69468 0.513672,3.69726 0.376366,1.00256 1.053697,1.80069 1.914062,2.27539 1.720706,0.94937 3.825316,0.85154 6.701176,0.88477 h 0.01 13.72266 0.01 c 2.87587,-0.0331 4.98048,0.0646 6.70118,-0.88477 0.86037,-0.4747 1.53772,-1.27283 1.914059,-2.27539 0.37498,-1.00258 0.51367,-2.1942 0.51367,-3.69726 v -18.28516 c 0,-1.50306 -0.13742,-2.6947 -0.51367,-3.69726 -0.376349,-1.00256 -1.053699,-1.80655 -1.914059,-2.28125 -1.72071,-0.949371 -3.82532,-0.84568 -6.70118,-0.87891 h -0.01 -13.72266 z m 39.999999,0 c -2.87586,0.0331 -4.98047,-0.0705 -6.70118,0.87891 -0.86036,0.4747 -1.53769,1.27869 -1.91406,2.28125 -0.37634,1.00256 -0.51367,2.1942 -0.51367,3.69726 v 18.28516 c 0,1.50306 0.13742,2.69468 0.51367,3.69726 0.37637,1.00256 1.0537,1.80069 1.91406,2.27539 1.72071,0.94937 3.82532,0.85154 6.70118,0.88477 h 0.01 13.72266 0.01 c 2.87587,-0.0331 4.98048,0.0646 6.70118,-0.88477 0.86037,-0.4747 1.53772,-1.27283 1.91406,-2.27539 0.37498,-1.00258 0.51367,-2.1942 0.51367,-3.69726 v -18.28516 c 0,-1.50306 -0.13742,-2.6947 -0.51367,-3.69726 -0.37635,-1.00256 -1.0537,-1.80655 -1.91406,-2.28125 -1.72071,-0.949371 -3.82532,-0.84568 -6.70118,-0.87891 h -0.01 -13.72266 z m 40,0 c -2.87586,0.0331 -4.98047,-0.0705 -6.70118,0.87891 -0.86036,0.4747 -1.53769,1.27869 -1.91406,2.28125 -0.37634,1.00256 -0.51367,2.1942 -0.51367,3.69726 v 18.28516 c 0,1.50306 0.13742,2.69468 0.51367,3.69726 0.37637,1.00256 1.0537,1.80069 1.91406,2.27539 1.72071,0.94937 3.82532,0.85154 6.70118,0.88477 h 0.01 13.72266 0.01 c 2.87587,-0.0331 4.98048,0.0646 6.70118,-0.88477 0.86037,-0.4747 1.53772,-1.27283 1.91406,-2.27539 0.37498,-1.00258 0.51367,-2.1942 0.51367,-3.69726 v -18.28516 c 0,-1.50306 -0.13742,-2.6947 -0.51367,-3.69726 -0.37635,-1.00256 -1.0537,-1.80655 -1.91406,-2.28125 -1.72071,-0.949371 -3.82532,-0.84568 -6.70118,-0.87891 h -0.01 -13.72266 z m 40,0 c -2.87586,0.0331 -4.98047,-0.0705 -6.70118,0.87891 -0.86036,0.4747 -1.53769,1.27869 -1.91406,2.28125 -0.37634,1.00256 -0.51367,2.1942 -0.51367,3.69726 v 18.28516 c 0,1.50306 0.13742,2.69468 0.51367,3.69726 0.37637,1.00256 1.0537,1.80069 1.91406,2.27539 1.72071,0.94937 3.82532,0.85154 6.70118,0.88477 h 0.01 13.72266 0.01 c 2.87587,-0.0331 4.98048,0.0646 6.70118,-0.88477 0.86037,-0.4747 1.53772,-1.27283 1.91406,-2.27539 0.37498,-1.00258 0.51367,-2.1942 0.51367,-3.69726 v -18.28516 c 0,-1.50306 -0.13742,-2.6947 -0.51367,-3.69726 -0.37635,-1.00256 -1.0537,-1.80655 -1.91406,-2.28125 -1.72071,-0.949371 -3.82532,-0.84568 -6.70118,-0.87891 h -0.01 -13.72266 z m -144.000003,40 c -2.87586,0.0331 -4.980463,-0.0705 -6.701172,0.87891 -0.860365,0.4747 -1.537696,1.27869 -1.914062,2.28125 -0.376343,1.00256 -0.513672,2.1942 -0.513672,3.69726 v 18.28516 c 0,1.50306 0.137421,2.69468 0.513672,3.69726 0.376366,1.00256 1.053697,1.80069 1.914062,2.27539 1.720709,0.94937 3.825312,0.85154 6.701172,0.88477 h 0.0098 13.722656 0.0098 c 2.87587,-0.0331 4.980472,0.0646 6.701176,-0.88477 0.86037,-0.4747 1.53772,-1.27283 1.91406,-2.27539 0.37498,-1.00258 0.51367,-2.1942 0.51367,-3.69726 v -18.28516 c 0,-1.50306 -0.13742,-2.6947 -0.51367,-3.69726 -0.37635,-1.00256 -1.0537,-1.80655 -1.91406,-2.28125 -1.720782,-0.94937 -3.825384,-0.84568 -6.701244,-0.87891 h -0.0098 -13.722656 z m 40.000004,0 c -2.87586,0.0331 -4.98047,-0.0705 -6.70118,0.87891 -0.86036,0.4747 -1.53769,1.27869 -1.91406,2.28125 -0.37634,1.00256 -0.51367,2.1942 -0.51367,3.69726 v 18.28516 c 0,1.50306 0.13742,2.69468 0.51367,3.69726 0.37637,1.00256 1.0537,1.80069 1.91406,2.27539 1.72071,0.94937 3.82532,0.85154 6.70118,0.88477 h 0.01 13.722659 0.01 c 2.87587,-0.0331 4.98048,0.0646 6.70118,-0.88477 0.86037,-0.4747 1.53772,-1.27283 1.91406,-2.27539 0.37498,-1.00258 0.51367,-2.1942 0.51367,-3.69726 v -18.28516 c 0,-1.50306 -0.13742,-2.6947 -0.51367,-3.69726 -0.37635,-1.00256 -1.0537,-1.80655 -1.91406,-2.28125 -1.72071,-0.94937 -3.82532,-0.84568 -6.70118,-0.87891 h -0.01 -13.722659 z m 39.999999,0 c -2.87586,0.0331 -4.98047,-0.0705 -6.70118,0.87891 -0.86036,0.4747 -1.53769,1.27869 -1.91406,2.28125 -0.37634,1.00256 -0.51367,2.1942 -0.51367,3.69726 v 18.28516 c 0,1.50306 0.13742,2.69468 0.51367,3.69726 0.37637,1.00256 1.0537,1.80069 1.91406,2.27539 1.72071,0.94937 3.82532,0.85154 6.70118,0.88477 h 0.01 13.72266 0.01 c 2.87587,-0.0331 4.98048,0.0646 6.70118,-0.88477 0.86037,-0.4747 1.53772,-1.27283 1.91406,-2.27539 0.37498,-1.00258 0.51367,-2.1942 0.51367,-3.69726 v -18.28516 c 0,-1.50306 -0.13742,-2.6947 -0.51367,-3.69726 -0.37635,-1.00256 -1.0537,-1.80655 -1.91406,-2.28125 -1.72071,-0.94937 -3.82532,-0.84568 -6.70118,-0.87891 h -0.01 -13.72266 z m 40,0 c -2.87586,0.0331 -4.98047,-0.0705 -6.70118,0.87891 -0.86036,0.4747 -1.53769,1.27869 -1.91406,2.28125 -0.37634,1.00256 -0.51367,2.1942 -0.51367,3.69726 v 18.28516 c 0,1.50306 0.13742,2.69468 0.51367,3.69726 0.37637,1.00256 1.0537,1.80069 1.91406,2.27539 1.72071,0.94937 3.82532,0.85154 6.70118,0.88477 h 0.01 13.72266 0.01 c 2.87587,-0.0331 4.98048,0.0646 6.70118,-0.88477 0.86037,-0.4747 1.53772,-1.27283 1.91406,-2.27539 0.37498,-1.00258 0.51367,-2.1942 0.51367,-3.69726 v -18.28516 c 0,-1.50306 -0.13742,-2.6947 -0.51367,-3.69726 -0.37635,-1.00256 -1.0537,-1.80655 -1.91406,-2.28125 -1.72071,-0.94937 -3.82532,-0.84568 -6.70118,-0.87891 h -0.01 -13.72266 z m -136.000003,40 c -2.87586,0.0331 -4.980463,-0.0705 -6.701172,0.87891 -0.860365,0.4747 -1.537696,1.27869 -1.914062,2.28125 -0.376343,1.00256 -0.513672,2.1942 -0.513672,3.69726 v 18.28516 c 0,1.50306 0.137421,2.69468 0.513672,3.69726 0.376366,1.00256 1.053697,1.80069 1.914062,2.27539 1.720709,0.94937 3.825312,0.85154 6.701172,0.88477 h 0.0098 13.722656 0.0098 c 2.87587,-0.0331 4.980472,0.0646 6.701172,-0.88477 0.86037,-0.4747 1.537722,-1.27283 1.914062,-2.27539 0.374912,-1.00258 0.513604,-2.1942 0.513604,-3.69726 v -18.28516 c 0,-1.50306 -0.137422,-2.6947 -0.513672,-3.69726 -0.37635,-1.00256 -1.053702,-1.80655 -1.914062,-2.28125 -1.72071,-0.94937 -3.825312,-0.84568 -6.701172,-0.87891 h -0.0098 -13.722656 z m 40.000004,0 c -2.87586,0.0331 -4.98047,-0.0705 -6.701176,0.87891 -0.86036,0.4747 -1.537692,1.27869 -1.914062,2.28125 -0.37634,1.00256 -0.513672,2.1942 -0.513672,3.69726 v 18.28516 c 0,1.50306 0.137422,2.69468 0.513672,3.69726 0.37637,1.00256 1.053702,1.80069 1.914062,2.27539 1.720706,0.94937 3.825316,0.85154 6.701176,0.88477 h 0.01 93.722659 0.01 c 2.87587,-0.0331 4.98048,0.0646 6.70118,-0.88477 0.86037,-0.4747 1.53772,-1.27283 1.91406,-2.27539 0.37498,-1.00258 0.51367,-2.1942 0.51367,-3.69726 v -18.28516 c 0,-1.50306 -0.13742,-2.6947 -0.51367,-3.69726 -0.37635,-1.00256 -1.0537,-1.80655 -1.91406,-2.28125 -1.72071,-0.94937 -3.82532,-0.84568 -6.70118,-0.87891 h -0.01 -93.722659 z m 119.999999,0 c -2.87586,0.0331 -4.98047,-0.0705 -6.70118,0.87891 -0.86036,0.4747 -1.53769,1.27869 -1.91406,2.28125 -0.37634,1.00256 -0.51367,2.1942 -0.51367,3.69726 v 18.28516 c 0,1.50306 0.13742,2.69468 0.51367,3.69726 0.37637,1.00256 1.0537,1.80069 1.91406,2.27539 1.72071,0.94937 3.82532,0.85154 6.70118,0.88477 h 0.01 13.72266 0.01 c 2.87587,-0.0331 4.98048,0.0646 6.70118,-0.88477 0.86037,-0.4747 1.53772,-1.27283 1.91406,-2.27539 0.37498,-1.00258 0.51367,-2.1942 0.51367,-3.69726 v -18.28516 c 0,-1.50306 -0.13742,-2.6947 -0.51367,-3.69726 -0.37635,-1.00256 -1.0537,-1.80655 -1.91406,-2.28125 -1.72071,-0.94937 -3.82532,-0.84568 -6.70118,-0.87891 h -0.01 -13.72266 z" transform="matrix(0.26458333,0,0,0.26458333,0.79374999,240.22013)" style="opacity:0.1;filter:url(#filter991)"/>
  <path style="opacity:0.1;filter:url(#filter997)" d="m 37.928957,28.79998 c -2.875863,0.0331 -4.980463,-0.0705 -6.701172,0.87891 -0.860365,0.4747 -1.537696,1.27869 -1.914062,2.28125 -0.376343,1.00256 -0.513672,2.1942 -0.513672,3.69726 v 18.28516 c 0,1.50306 0.137421,2.69468 0.513672,3.69726 0.376366,1.00256 1.053697,1.80069 1.914062,2.27539 1.720709,0.94937 3.825309,0.85154 6.701172,0.88477 h 0.0098 13.722656 0.0098 c 2.875862,-0.0331 4.980463,0.0646 6.701172,-0.88477 0.860366,-0.4747 1.537719,-1.27283 1.914062,-2.27539 0.374715,-1.00258 0.513604,-2.1942 0.513604,-3.69726 v -18.28516 c 0,-1.50306 -0.137421,-2.6947 -0.513672,-3.69726 -0.376343,-1.00256 -1.053697,-1.80655 -1.914062,-2.28125 -1.720709,-0.94937 -3.825309,-0.84568 -6.701172,-0.87891 h -0.0098 -13.722656 z m 40.000004,0 c -2.87586,0.0331 -4.98047,-0.0705 -6.701176,0.87891 -0.860365,0.4747 -1.537696,1.27869 -1.914062,2.28125 -0.376343,1.00256 -0.513672,2.1942 -0.513672,3.69726 v 18.28516 c 0,1.50306 0.137421,2.69468 0.513672,3.69726 0.376366,1.00256 1.053697,1.80069 1.914062,2.27539 1.720706,0.94937 3.825316,0.85154 6.701176,0.88477 h 0.01 13.72266 0.01 c 2.87587,-0.0331 4.98048,0.0646 6.70118,-0.88477 0.86037,-0.4747 1.53772,-1.27283 1.914059,-2.27539 0.37498,-1.00258 0.51367,-2.1942 0.51367,-3.69726 v -18.28516 c 0,-1.50306 -0.13742,-2.6947 -0.51367,-3.69726 -0.376349,-1.00256 -1.053699,-1.80655 -1.914059,-2.28125 -1.72071,-0.94937 -3.82532,-0.84568 -6.70118,-0.87891 h -0.01 -13.72266 z m 39.999999,0 c -2.87586,0.0331 -4.98047,-0.0705 -6.70118,0.87891 -0.86036,0.4747 -1.53769,1.27869 -1.91406,2.28125 -0.37634,1.00256 -0.51367,2.1942 -0.51367,3.69726 v 18.28516 c 0,1.50306 0.13742,2.69468 0.51367,3.69726 0.37637,1.00256 1.0537,1.80069 1.91406,2.27539 1.72071,0.94937 3.82532,0.85154 6.70118,0.88477 h 0.01 13.72266 0.01 c 2.87587,-0.0331 4.98048,0.0646 6.70118,-0.88477 0.86037,-0.4747 1.53772,-1.27283 1.91406,-2.27539 0.37498,-1.00258 0.51367,-2.1942 0.51367,-3.69726 v -18.28516 c 0,-1.50306 -0.13742,-2.6947 -0.51367,-3.69726 -0.37635,-1.00256 -1.0537,-1.80655 -1.91406,-2.28125 -1.72071,-0.94937 -3.82532,-0.84568 -6.70118,-0.87891 h -0.01 -13.72266 z m 40,0 c -2.87586,0.0331 -4.98047,-0.0705 -6.70118,0.87891 -0.86036,0.4747 -1.53769,1.27869 -1.91406,2.28125 -0.37634,1.00256 -0.51367,2.1942 -0.51367,3.69726 v 18.28516 c 0,1.50306 0.13742,2.69468 0.51367,3.69726 0.37637,1.00256 1.0537,1.80069 1.91406,2.27539 1.72071,0.94937 3.82532,0.85154 6.70118,0.88477 h 0.01 13.72266 0.01 c 2.87587,-0.0331 4.98048,0.0646 6.70118,-0.88477 0.86037,-0.4747 1.53772,-1.27283 1.91406,-2.27539 0.37498,-1.00258 0.51367,-2.1942 0.51367,-3.69726 v -18.28516 c 0,-1.50306 -0.13742,-2.6947 -0.51367,-3.69726 -0.37635,-1.00256 -1.0537,-1.80655 -1.91406,-2.28125 -1.72071,-0.94937 -3.82532,-0.84568 -6.70118,-0.87891 h -0.01 -13.72266 z m 40,0 c -2.87586,0.0331 -4.98047,-0.0705 -6.70118,0.87891 -0.86036,0.4747 -1.53769,1.27869 -1.91406,2.28125 -0.37634,1.00256 -0.51367,2.1942 -0.51367,3.69726 v 18.28516 c 0,1.50306 0.13742,2.69468 0.51367,3.69726 0.37637,1.00256 1.0537,1.80069 1.91406,2.27539 1.72071,0.94937 3.82532,0.85154 6.70118,0.88477 h 0.01 13.72266 0.01 c 2.87587,-0.0331 4.98048,0.0646 6.70118,-0.88477 0.86037,-0.4747 1.53772,-1.27283 1.91406,-2.27539 0.37498,-1.00258 0.51367,-2.1942 0.51367,-3.69726 v -18.28516 c 0,-1.50306 -0.13742,-2.6947 -0.51367,-3.69726 -0.37635,-1.00256 -1.0537,-1.80655 -1.91406,-2.28125 -1.72071,-0.94937 -3.82532,-0.84568 -6.70118,-0.87891 h -0.01 -13.72266 z m -144.000003,40 c -2.87586,0.0331 -4.980463,-0.0705 -6.701172,0.87891 -0.860365,0.4747 -1.537696,1.27869 -1.914062,2.28125 -0.376343,1.00256 -0.513672,2.1942 -0.513672,3.69726 v 18.28516 c 0,1.50306 0.137421,2.69468 0.513672,3.69726 0.376366,1.00256 1.053697,1.80069 1.914062,2.27539 1.720709,0.94937 3.825312,0.85154 6.701172,0.88477 h 0.0098 13.722656 0.0098 c 2.87587,-0.0331 4.980472,0.0646 6.701178,-0.88477 0.86037,-0.4747 1.53772,-1.27283 1.91406,-2.27539 0.37498,-1.00258 0.51367,-2.1942 0.51367,-3.69726 v -18.28516 c 0,-1.50306 -0.13742,-2.6947 -0.51367,-3.69726 -0.37635,-1.00256 -1.0537,-1.80655 -1.91406,-2.28125 -1.720784,-0.94937 -3.825386,-0.84568 -6.701246,-0.87891 h -0.0098 -13.722656 z m 40.000004,0 c -2.87586,0.0331 -4.98047,-0.0705 -6.70118,0.87891 -0.86036,0.4747 -1.53769,1.27869 -1.91406,2.28125 -0.37634,1.00256 -0.51367,2.1942 -0.51367,3.69726 v 18.28516 c 0,1.50306 0.13742,2.69468 0.51367,3.69726 0.37637,1.00256 1.0537,1.80069 1.91406,2.27539 1.72071,0.94937 3.82532,0.85154 6.70118,0.88477 h 0.01 13.722659 0.01 c 2.87587,-0.0331 4.98048,0.0646 6.70118,-0.88477 0.86037,-0.4747 1.53772,-1.27283 1.91406,-2.27539 0.37498,-1.00258 0.51367,-2.1942 0.51367,-3.69726 v -18.28516 c 0,-1.50306 -0.13742,-2.6947 -0.51367,-3.69726 -0.37635,-1.00256 -1.0537,-1.80655 -1.91406,-2.28125 -1.72071,-0.94937 -3.82532,-0.84568 -6.70118,-0.87891 h -0.01 -13.722659 z m 39.999999,0 c -2.87586,0.0331 -4.98047,-0.0705 -6.70118,0.87891 -0.86036,0.4747 -1.53769,1.27869 -1.91406,2.28125 -0.37634,1.00256 -0.51367,2.1942 -0.51367,3.69726 v 18.28516 c 0,1.50306 0.13742,2.69468 0.51367,3.69726 0.37637,1.00256 1.0537,1.80069 1.91406,2.27539 1.72071,0.94937 3.82532,0.85154 6.70118,0.88477 h 0.01 13.72266 0.01 c 2.87587,-0.0331 4.98048,0.0646 6.70118,-0.88477 0.86037,-0.4747 1.53772,-1.27283 1.91406,-2.27539 0.37498,-1.00258 0.51367,-2.1942 0.51367,-3.69726 v -18.28516 c 0,-1.50306 -0.13742,-2.6947 -0.51367,-3.69726 -0.37635,-1.00256 -1.0537,-1.80655 -1.91406,-2.28125 -1.72071,-0.94937 -3.82532,-0.84568 -6.70118,-0.87891 h -0.01 -13.72266 z m 40,0 c -2.87586,0.0331 -4.98047,-0.0705 -6.70118,0.87891 -0.86036,0.4747 -1.53769,1.27869 -1.91406,2.28125 -0.37634,1.00256 -0.51367,2.1942 -0.51367,3.69726 v 18.28516 c 0,1.50306 0.13742,2.69468 0.51367,3.69726 0.37637,1.00256 1.0537,1.80069 1.91406,2.27539 1.72071,0.94937 3.82532,0.85154 6.70118,0.88477 h 0.01 13.72266 0.01 c 2.87587,-0.0331 4.98048,0.0646 6.70118,-0.88477 0.86037,-0.4747 1.53772,-1.27283 1.91406,-2.27539 0.37498,-1.00258 0.51367,-2.1942 0.51367,-3.69726 v -18.28516 c 0,-1.50306 -0.13742,-2.6947 -0.51367,-3.69726 -0.37635,-1.00256 -1.0537,-1.80655 -1.91406,-2.28125 -1.72071,-0.94937 -3.82532,-0.84568 -6.70118,-0.87891 h -0.01 -13.72266 z m -136.000003,40 c -2.87586,0.0331 -4.980463,-0.0705 -6.701172,0.87891 -0.860365,0.4747 -1.537696,1.27869 -1.914062,2.28125 -0.376343,1.00256 -0.513672,2.1942 -0.513672,3.69726 v 18.28516 c 0,1.50306 0.137421,2.69468 0.513672,3.69726 0.376366,1.00256 1.053697,1.80069 1.914062,2.27539 1.720709,0.94937 3.825312,0.85154 6.701172,0.88477 h 0.0098 13.722656 0.0098 c 2.87587,-0.0331 4.980472,0.0646 6.701172,-0.88477 0.86037,-0.4747 1.537722,-1.27283 1.914062,-2.27539 0.374912,-1.00258 0.513604,-2.1942 0.513604,-3.69726 v -18.28516 c 0,-1.50306 -0.137422,-2.6947 -0.513672,-3.69726 -0.37635,-1.00256 -1.053702,-1.80655 -1.914062,-2.28125 -1.72071,-0.94937 -3.825312,-0.84568 -6.701172,-0.87891 h -0.0098 -13.722656 z m 40.000004,0 c -2.87586,0.0331 -4.98047,-0.0705 -6.701176,0.87891 -0.86036,0.4747 -1.537692,1.27869 -1.914062,2.28125 -0.37634,1.00256 -0.513672,2.1942 -0.513672,3.69726 v 18.28516 c 0,1.50306 0.137422,2.69468 0.513672,3.69726 0.37637,1.00256 1.053702,1.80069 1.914062,2.27539 1.720706,0.94937 3.825316,0.85154 6.701176,0.88477 h 0.01 93.722659 0.01 c 2.87587,-0.0331 4.98048,0.0646 6.70118,-0.88477 0.86037,-0.4747 1.53772,-1.27283 1.91406,-2.27539 0.37498,-1.00258 0.51367,-2.1942 0.51367,-3.69726 v -18.28516 c 0,-1.50306 -0.13742,-2.6947 -0.51367,-3.69726 -0.37635,-1.00256 -1.0537,-1.80655 -1.91406,-2.28125 -1.72071,-0.94937 -3.82532,-0.84568 -6.70118,-0.87891 h -0.01 -93.722659 z m 119.999999,0 c -2.87586,0.0331 -4.98047,-0.0705 -6.70118,0.87891 -0.86036,0.4747 -1.53769,1.27869 -1.91406,2.28125 -0.37634,1.00256 -0.51367,2.1942 -0.51367,3.69726 v 18.28516 c 0,1.50306 0.13742,2.69468 0.51367,3.69726 0.37637,1.00256 1.0537,1.80069 1.91406,2.27539 1.72071,0.94937 3.82532,0.85154 6.70118,0.88477 h 0.01 13.72266 0.01 c 2.87587,-0.0331 4.98048,0.0646 6.70118,-0.88477 0.86037,-0.4747 1.53772,-1.27283 1.91406,-2.27539 0.37498,-1.00258 0.51367,-2.1942 0.51367,-3.69726 v -18.28516 c 0,-1.50306 -0.13742,-2.6947 -0.51367,-3.69726 -0.37635,-1.00256 -1.0537,-1.80655 -1.91406,-2.28125 -1.72071,-0.94937 -3.82532,-0.84568 -6.70118,-0.87891 h -0.01 -13.72266 z" transform="matrix(0.26458333,0,0,0.26458333,0.79374999,240.22013)"/>
  <path style="fill:url(#linearGradient979)" d="m 10.82912,247.31096 c -0.760906,0.009 -1.3177477,-0.0187 -1.7730185,0.23254 -0.2276383,0.1256 -0.4068488,0.33832 -0.5064289,0.60358 -0.099574,0.26526 -0.1359091,0.58055 -0.1359091,0.97824 v 4.83795 c 0,0.39768 0.036359,0.71296 0.1359091,0.97823 0.09958,0.26526 0.2787906,0.47643 0.5064289,0.60203 0.4552708,0.25119 1.0121125,0.2253 1.7730185,0.23409 h 0.0026 3.630786 0.0026 c 0.760905,-0.009 1.317747,0.0171 1.773018,-0.23409 0.227639,-0.1256 0.406855,-0.33677 0.506429,-0.60203 0.09914,-0.26527 0.135891,-0.58055 0.135891,-0.97823 v -4.83795 c 0,-0.39769 -0.03636,-0.71298 -0.135909,-0.97824 -0.09957,-0.26526 -0.278791,-0.47798 -0.506429,-0.60358 -0.455271,-0.25118 -1.012113,-0.22375 -1.773018,-0.23254 h -0.0026 -3.630786 z m 10.583334,0 c -0.760904,0.009 -1.317749,-0.0187 -1.773019,0.23254 -0.227638,0.1256 -0.406849,0.33832 -0.506429,0.60358 -0.09957,0.26526 -0.135909,0.58055 -0.135909,0.97824 v 4.83795 c 0,0.39768 0.03636,0.71296 0.135909,0.97823 0.09958,0.26526 0.278791,0.47643 0.506429,0.60203 0.45527,0.25119 1.012115,0.2253 1.773019,0.23409 h 0.0026 3.630787 0.0026 c 0.760907,-0.009 1.317752,0.0171 1.773021,-0.23409 0.227639,-0.1256 0.406855,-0.33677 0.506428,-0.60203 0.09921,-0.26527 0.135908,-0.58055 0.135908,-0.97823 v -4.83795 c 0,-0.39769 -0.03636,-0.71298 -0.135908,-0.97824 -0.09958,-0.26526 -0.278791,-0.47798 -0.506428,-0.60358 -0.455272,-0.25118 -1.012116,-0.22375 -1.773021,-0.23254 h -0.0026 -3.630787 z m 10.583333,0 c -0.760904,0.009 -1.317749,-0.0187 -1.77302,0.23254 -0.227637,0.1256 -0.406847,0.33832 -0.506429,0.60358 -0.09957,0.26526 -0.135908,0.58055 -0.135908,0.97824 v 4.83795 c 0,0.39768 0.03636,0.71296 0.135908,0.97823 0.09958,0.26526 0.278792,0.47643 0.506429,0.60203 0.455271,0.25119 1.012116,0.2253 1.77302,0.23409 h 0.0026 3.630787 0.0026 c 0.760907,-0.009 1.317752,0.0171 1.773021,-0.23409 0.227639,-0.1256 0.406855,-0.33677 0.506428,-0.60203 0.09921,-0.26527 0.135909,-0.58055 0.135909,-0.97823 v -4.83795 c 0,-0.39769 -0.03636,-0.71298 -0.135909,-0.97824 -0.09958,-0.26526 -0.278791,-0.47798 -0.506428,-0.60358 -0.455271,-0.25118 -1.012116,-0.22375 -1.773021,-0.23254 h -0.0026 -3.630787 z m 10.583334,0 c -0.760905,0.009 -1.31775,-0.0187 -1.773021,0.23254 -0.227637,0.1256 -0.406847,0.33832 -0.506428,0.60358 -0.09957,0.26526 -0.135909,0.58055 -0.135909,0.97824 v 4.83795 c 0,0.39768 0.03636,0.71296 0.135909,0.97823 0.09958,0.26526 0.278791,0.47643 0.506428,0.60203 0.455271,0.25119 1.012116,0.2253 1.773021,0.23409 h 0.0026 3.630787 0.0026 c 0.760907,-0.009 1.317752,0.0171 1.77302,-0.23409 0.22764,-0.1256 0.406855,-0.33677 0.506428,-0.60203 0.09921,-0.26527 0.135909,-0.58055 0.135909,-0.97823 v -4.83795 c 0,-0.39769 -0.03636,-0.71298 -0.135909,-0.97824 -0.09958,-0.26526 -0.278791,-0.47798 -0.506428,-0.60358 -0.455271,-0.25118 -1.012116,-0.22375 -1.77302,-0.23254 h -0.0026 -3.630787 z m 10.583333,0 c -0.760904,0.009 -1.317749,-0.0187 -1.77302,0.23254 -0.227637,0.1256 -0.406848,0.33832 -0.506429,0.60358 -0.09957,0.26526 -0.135908,0.58055 -0.135908,0.97824 v 4.83795 c 0,0.39768 0.03636,0.71296 0.135908,0.97823 0.09958,0.26526 0.278792,0.47643 0.506429,0.60203 0.455271,0.25119 1.012116,0.2253 1.77302,0.23409 h 0.0026 3.630787 0.0026 c 0.760907,-0.009 1.317752,0.0171 1.77302,-0.23409 0.22764,-0.1256 0.406856,-0.33677 0.506429,-0.60203 0.09921,-0.26527 0.135908,-0.58055 0.135908,-0.97823 v -4.83795 c 0,-0.39769 -0.03636,-0.71298 -0.135908,-0.97824 -0.09958,-0.26526 -0.278792,-0.47798 -0.506429,-0.60358 -0.455271,-0.25118 -1.012115,-0.22375 -1.77302,-0.23254 h -0.0026 -3.630787 z m -38.100001,10.58333 c -0.760904,0.009 -1.317747,-0.0187 -1.773018,0.23255 -0.227638,0.12559 -0.406849,0.33832 -0.506429,0.60358 -0.09957,0.26526 -0.135909,0.58055 -0.135909,0.97823 v 4.83795 c 0,0.39768 0.03636,0.71297 0.135909,0.97823 0.09958,0.26526 0.278791,0.47644 0.506429,0.60203 0.455271,0.25119 1.012114,0.22531 1.773018,0.2341 h 0.0026 3.630786 0.0026 c 0.760907,-0.009 1.31775,0.0171 1.77302,-0.2341 0.227639,-0.12559 0.406855,-0.33677 0.506428,-0.60203 0.09921,-0.26526 0.135909,-0.58055 0.135909,-0.97823 v -4.83795 c 0,-0.39768 -0.03636,-0.71297 -0.135909,-0.97823 -0.09958,-0.26526 -0.278791,-0.47799 -0.506428,-0.60358 -0.455291,-0.25119 -1.012133,-0.22376 -1.773038,-0.23255 h -0.0026 -3.630786 z m 10.583335,0 c -0.760905,0.009 -1.31775,-0.0187 -1.773021,0.23255 -0.227637,0.12559 -0.406847,0.33832 -0.506428,0.60358 -0.09957,0.26526 -0.135909,0.58055 -0.135909,0.97823 v 4.83795 c 0,0.39768 0.03636,0.71297 0.135909,0.97823 0.09958,0.26526 0.278791,0.47644 0.506428,0.60203 0.455271,0.25119 1.012116,0.22531 1.773021,0.2341 h 0.0026 3.630787 0.0026 c 0.760907,-0.009 1.317752,0.0171 1.773021,-0.2341 0.227639,-0.12559 0.406855,-0.33677 0.506428,-0.60203 0.09921,-0.26526 0.135909,-0.58055 0.135909,-0.97823 v -4.83795 c 0,-0.39768 -0.03636,-0.71297 -0.135909,-0.97823 -0.09958,-0.26526 -0.278791,-0.47799 -0.506428,-0.60358 -0.455271,-0.25119 -1.012116,-0.22376 -1.773021,-0.23255 h -0.0026 -3.630787 z m 10.583333,0 c -0.760905,0.009 -1.31775,-0.0187 -1.773021,0.23255 -0.227637,0.12559 -0.406847,0.33832 -0.506428,0.60358 -0.09957,0.26526 -0.135909,0.58055 -0.135909,0.97823 v 4.83795 c 0,0.39768 0.03636,0.71297 0.135909,0.97823 0.09958,0.26526 0.278791,0.47644 0.506428,0.60203 0.455271,0.25119 1.012116,0.22531 1.773021,0.2341 h 0.0026 3.630787 0.0026 c 0.760907,-0.009 1.317752,0.0171 1.77302,-0.2341 0.22764,-0.12559 0.406855,-0.33677 0.506428,-0.60203 0.09921,-0.26526 0.135909,-0.58055 0.135909,-0.97823 v -4.83795 c 0,-0.39768 -0.03636,-0.71297 -0.135909,-0.97823 -0.09958,-0.26526 -0.278791,-0.47799 -0.506428,-0.60358 -0.455271,-0.25119 -1.012116,-0.22376 -1.77302,-0.23255 h -0.0026 -3.630787 z m 10.583333,0 c -0.760905,0.009 -1.317749,-0.0187 -1.77302,0.23255 -0.227637,0.12559 -0.406848,0.33832 -0.506429,0.60358 -0.09957,0.26526 -0.135908,0.58055 -0.135908,0.97823 v 4.83795 c 0,0.39768 0.03636,0.71297 0.135908,0.97823 0.09958,0.26526 0.278792,0.47644 0.506429,0.60203 0.455271,0.25119 1.012115,0.22531 1.77302,0.2341 h 0.0026 3.630787 0.0026 c 0.760907,-0.009 1.317752,0.0171 1.77302,-0.2341 0.22764,-0.12559 0.406856,-0.33677 0.506429,-0.60203 0.09921,-0.26526 0.135908,-0.58055 0.135908,-0.97823 v -4.83795 c 0,-0.39768 -0.03636,-0.71297 -0.135908,-0.97823 -0.09958,-0.26526 -0.278792,-0.47799 -0.506429,-0.60358 -0.455271,-0.25119 -1.012115,-0.22376 -1.77302,-0.23255 h -0.0026 -3.630787 z m -35.983334,10.58333 c -0.760905,0.009 -1.3177477,-0.0187 -1.7730185,0.23255 -0.2276383,0.1256 -0.4068488,0.33832 -0.5064289,0.60358 -0.099574,0.26526 -0.1359091,0.58055 -0.1359091,0.97823 v 4.83795 c 0,0.39769 0.036359,0.71297 0.1359091,0.97824 0.09958,0.26526 0.2787906,0.47643 0.5064289,0.60203 0.4552708,0.25118 1.0121135,0.2253 1.7730185,0.23409 h 0.0026 3.630786 0.0026 c 0.760907,-0.009 1.31775,0.0171 1.773018,-0.23409 0.22764,-0.1256 0.406856,-0.33677 0.506429,-0.60203 0.0992,-0.26527 0.135891,-0.58055 0.135891,-0.97824 v -4.83795 c 0,-0.39768 -0.03636,-0.71297 -0.135909,-0.97823 -0.09958,-0.26526 -0.278792,-0.47798 -0.506429,-0.60358 -0.455271,-0.25119 -1.012114,-0.22375 -1.773018,-0.23255 h -0.0026 -3.630786 z m 10.583334,0 c -0.760904,0.009 -1.317749,-0.0187 -1.773019,0.23255 -0.227637,0.1256 -0.406848,0.33832 -0.506429,0.60358 -0.09957,0.26526 -0.135909,0.58055 -0.135909,0.97823 v 4.83795 c 0,0.39769 0.03636,0.71297 0.135909,0.97824 0.09958,0.26526 0.278792,0.47643 0.506429,0.60203 0.45527,0.25118 1.012115,0.2253 1.773019,0.23409 h 0.0026 24.797454 0.0026 c 0.760907,-0.009 1.317752,0.0171 1.77302,-0.23409 0.22764,-0.1256 0.406855,-0.33677 0.506428,-0.60203 0.09921,-0.26527 0.135909,-0.58055 0.135909,-0.97824 v -4.83795 c 0,-0.39768 -0.03636,-0.71297 -0.135909,-0.97823 -0.09958,-0.26526 -0.278791,-0.47798 -0.506428,-0.60358 -0.455271,-0.25119 -1.012116,-0.22375 -1.77302,-0.23255 h -0.0026 -24.797454 z m 31.75,0 c -0.760904,0.009 -1.317749,-0.0187 -1.77302,0.23255 -0.227637,0.1256 -0.406848,0.33832 -0.506429,0.60358 -0.09957,0.26526 -0.135908,0.58055 -0.135908,0.97823 v 4.83795 c 0,0.39769 0.03636,0.71297 0.135908,0.97824 0.09958,0.26526 0.278792,0.47643 0.506429,0.60203 0.455271,0.25118 1.012116,0.2253 1.77302,0.23409 h 0.0026 3.630787 0.0026 c 0.760907,-0.009 1.317752,0.0171 1.77302,-0.23409 0.22764,-0.1256 0.406856,-0.33677 0.506429,-0.60203 0.09921,-0.26527 0.135908,-0.58055 0.135908,-0.97824 v -4.83795 c 0,-0.39768 -0.03636,-0.71297 -0.135908,-0.97823 -0.09958,-0.26526 -0.278792,-0.47798 -0.506429,-0.60358 -0.455271,-0.25119 -1.012115,-0.22375 -1.77302,-0.23255 h -0.0026 -3.630787 z"/>
  <path style="opacity:0.4;fill:#ffffff" d="m 10.82912,247.31096 c -0.760906,0.009 -1.3177477,-0.0187 -1.7730185,0.23254 -0.2276383,0.1256 -0.4068488,0.33832 -0.5064289,0.60358 -0.099574,0.26526 -0.1359091,0.58055 -0.1359091,0.97824 v 0.52916 c 0,-0.39768 0.036335,-0.71297 0.1359091,-0.97823 0.09958,-0.26526 0.2787906,-0.47798 0.5064289,-0.60358 0.4552708,-0.2512 1.0121125,-0.22379 1.7730185,-0.23255 h 0.0026 3.630786 0.0026 c 0.760905,0.009 1.317747,-0.0187 1.773018,0.23255 0.227638,0.1256 0.406855,0.33832 0.506429,0.60358 0.09953,0.26526 0.135891,0.58055 0.135891,0.97823 v -0.52916 c 0,-0.39769 -0.03636,-0.71298 -0.135909,-0.97824 -0.09957,-0.26526 -0.278791,-0.47798 -0.506429,-0.60358 -0.455271,-0.25119 -1.012113,-0.22375 -1.773018,-0.23254 h -0.0026 -3.630786 z m 10.583334,0 c -0.760904,0.009 -1.317749,-0.0187 -1.773019,0.23254 -0.227638,0.1256 -0.406849,0.33832 -0.506429,0.60358 -0.09957,0.26526 -0.135909,0.58055 -0.135909,0.97824 v 0.52916 c 0,-0.39768 0.03633,-0.71297 0.135909,-0.97823 0.09958,-0.26526 0.278791,-0.47798 0.506429,-0.60358 0.45527,-0.2512 1.012115,-0.22379 1.773019,-0.23255 h 0.0026 3.630787 0.0026 c 0.760905,0.009 1.317749,-0.0187 1.773021,0.23255 0.227637,0.1256 0.406852,0.33832 0.506428,0.60358 0.09955,0.26526 0.135908,0.58055 0.135908,0.97823 v -0.52916 c 0,-0.39769 -0.03636,-0.71298 -0.135908,-0.97824 -0.09958,-0.26526 -0.278791,-0.47798 -0.506428,-0.60358 -0.455272,-0.25119 -1.012116,-0.22375 -1.773021,-0.23254 h -0.0026 -3.630787 z m 10.583333,0 c -0.760904,0.009 -1.317749,-0.0187 -1.77302,0.23254 -0.227637,0.1256 -0.406847,0.33832 -0.506429,0.60358 -0.09957,0.26526 -0.135908,0.58055 -0.135908,0.97824 v 0.52916 c 0,-0.39768 0.03634,-0.71297 0.135908,-0.97823 0.09958,-0.26526 0.278792,-0.47798 0.506429,-0.60358 0.455271,-0.2512 1.012116,-0.22379 1.77302,-0.23255 h 0.0026 3.630787 0.0026 c 0.760905,0.009 1.31775,-0.0187 1.773021,0.23255 0.227637,0.1256 0.406852,0.33832 0.506428,0.60358 0.09955,0.26526 0.135909,0.58055 0.135909,0.97823 v -0.52916 c 0,-0.39769 -0.03636,-0.71298 -0.135909,-0.97824 -0.09958,-0.26526 -0.278791,-0.47798 -0.506428,-0.60358 -0.455271,-0.25119 -1.012116,-0.22375 -1.773021,-0.23254 h -0.0026 -3.630787 z m 10.583334,0 c -0.760905,0.009 -1.31775,-0.0187 -1.773021,0.23254 -0.227637,0.1256 -0.406847,0.33832 -0.506428,0.60358 -0.09957,0.26526 -0.135909,0.58055 -0.135909,0.97824 v 0.52916 c 0,-0.39768 0.03634,-0.71297 0.135909,-0.97823 0.09958,-0.26526 0.278791,-0.47798 0.506428,-0.60358 0.455271,-0.2512 1.012116,-0.22379 1.773021,-0.23255 h 0.0026 3.630787 0.0026 c 0.760904,0.009 1.317749,-0.0187 1.77302,0.23255 0.227637,0.1256 0.406853,0.33832 0.506428,0.60358 0.09955,0.26526 0.135909,0.58055 0.135909,0.97823 v -0.52916 c 0,-0.39769 -0.03636,-0.71298 -0.135909,-0.97824 -0.09958,-0.26526 -0.278791,-0.47798 -0.506428,-0.60358 -0.455271,-0.25119 -1.012116,-0.22375 -1.77302,-0.23254 h -0.0026 -3.630787 z m 10.583333,0 c -0.760904,0.009 -1.317749,-0.0187 -1.77302,0.23254 -0.227637,0.1256 -0.406848,0.33832 -0.506429,0.60358 -0.09957,0.26526 -0.135908,0.58055 -0.135908,0.97824 v 0.52916 c 0,-0.39768 0.03634,-0.71297 0.135908,-0.97823 0.09958,-0.26526 0.278792,-0.47798 0.506429,-0.60358 0.455271,-0.2512 1.012116,-0.22379 1.77302,-0.23255 h 0.0026 3.630787 0.0026 c 0.760905,0.009 1.317749,-0.0187 1.77302,0.23255 0.227637,0.1256 0.406853,0.33832 0.506429,0.60358 0.09955,0.26526 0.135908,0.58055 0.135908,0.97823 v -0.52916 c 0,-0.39769 -0.03636,-0.71298 -0.135908,-0.97824 -0.09958,-0.26526 -0.278792,-0.47798 -0.506429,-0.60358 -0.455271,-0.25119 -1.012115,-0.22375 -1.77302,-0.23254 h -0.0026 -3.630787 z m -38.100001,10.58333 c -0.760904,0.009 -1.317747,-0.0187 -1.773018,0.23255 -0.227638,0.12559 -0.406849,0.33832 -0.506429,0.60358 -0.09957,0.26526 -0.135909,0.58055 -0.135909,0.97823 v 0.52917 c 0,-0.39769 0.03634,-0.71298 0.135909,-0.97824 0.09958,-0.26526 0.278791,-0.47798 0.506429,-0.60358 0.455271,-0.2512 1.012114,-0.22378 1.773018,-0.23254 h 0.0026 3.630786 0.0026 c 0.760905,0.009 1.317728,-0.0187 1.77302,0.23254 0.227637,0.1256 0.406852,0.33832 0.506428,0.60358 0.09955,0.26526 0.135909,0.58055 0.135909,0.97824 v -0.52917 c 0,-0.39768 -0.03636,-0.71297 -0.135909,-0.97823 -0.09958,-0.26526 -0.278791,-0.47799 -0.506428,-0.60358 -0.455292,-0.25119 -1.012133,-0.22376 -1.773038,-0.23255 h -0.0026 -3.630786 z m 10.583335,0 c -0.760905,0.009 -1.31775,-0.0187 -1.773021,0.23255 -0.227637,0.12559 -0.406847,0.33832 -0.506428,0.60358 -0.09957,0.26526 -0.135909,0.58055 -0.135909,0.97823 v 0.52917 c 0,-0.39769 0.03634,-0.71298 0.135909,-0.97824 0.09958,-0.26526 0.278791,-0.47798 0.506428,-0.60358 0.455271,-0.2512 1.012116,-0.22378 1.773021,-0.23254 h 0.0026 3.630787 0.0026 c 0.760905,0.009 1.31775,-0.0187 1.773021,0.23254 0.227637,0.1256 0.406852,0.33832 0.506428,0.60358 0.09955,0.26526 0.135909,0.58055 0.135909,0.97824 v -0.52917 c 0,-0.39768 -0.03636,-0.71297 -0.135909,-0.97823 -0.09958,-0.26526 -0.278791,-0.47799 -0.506428,-0.60358 -0.455271,-0.25119 -1.012116,-0.22376 -1.773021,-0.23255 h -0.0026 -3.630787 z m 10.583333,0 c -0.760905,0.009 -1.31775,-0.0187 -1.773021,0.23255 -0.227637,0.12559 -0.406847,0.33832 -0.506428,0.60358 -0.09957,0.26526 -0.135909,0.58055 -0.135909,0.97823 v 0.52917 c 0,-0.39769 0.03634,-0.71298 0.135909,-0.97824 0.09958,-0.26526 0.278791,-0.47798 0.506428,-0.60358 0.455271,-0.2512 1.012116,-0.22378 1.773021,-0.23254 h 0.0026 3.630787 0.0026 c 0.760904,0.009 1.317749,-0.0187 1.77302,0.23254 0.227637,0.1256 0.406853,0.33832 0.506428,0.60358 0.09955,0.26526 0.135909,0.58055 0.135909,0.97824 v -0.52917 c 0,-0.39768 -0.03636,-0.71297 -0.135909,-0.97823 -0.09958,-0.26526 -0.278791,-0.47799 -0.506428,-0.60358 -0.455271,-0.25119 -1.012116,-0.22376 -1.77302,-0.23255 h -0.0026 -3.630787 z m 10.583333,0 c -0.760905,0.009 -1.317749,-0.0187 -1.77302,0.23255 -0.227637,0.12559 -0.406848,0.33832 -0.506429,0.60358 -0.09957,0.26526 -0.135908,0.58055 -0.135908,0.97823 v 0.52917 c 0,-0.39769 0.03634,-0.71298 0.135908,-0.97824 0.09958,-0.26526 0.278792,-0.47798 0.506429,-0.60358 0.455271,-0.2512 1.012115,-0.22378 1.77302,-0.23254 h 0.0026 3.630787 0.0026 c 0.760905,0.009 1.317749,-0.0187 1.77302,0.23254 0.227637,0.1256 0.406853,0.33832 0.506429,0.60358 0.09955,0.26526 0.135908,0.58055 0.135908,0.97824 v -0.52917 c 0,-0.39768 -0.03636,-0.71297 -0.135908,-0.97823 -0.09958,-0.26526 -0.278792,-0.47799 -0.506429,-0.60358 -0.455271,-0.25119 -1.012115,-0.22376 -1.77302,-0.23255 h -0.0026 -3.630787 z m -35.983334,10.58333 c -0.760905,0.009 -1.3177477,-0.0187 -1.7730185,0.23255 -0.2276383,0.1256 -0.4068488,0.33832 -0.5064289,0.60358 -0.099574,0.26526 -0.1359091,0.58055 -0.1359091,0.97823 v 0.52917 c 0,-0.39768 0.036335,-0.71297 0.1359091,-0.97823 0.09958,-0.26526 0.2787906,-0.47799 0.5064289,-0.60358 0.4552708,-0.2512 1.0121135,-0.22379 1.7730185,-0.23255 h 0.0026 3.630786 0.0026 c 0.760904,0.009 1.317747,-0.0186 1.773018,0.23255 0.227637,0.12559 0.406853,0.33832 0.506429,0.60358 0.09953,0.26526 0.135891,0.58055 0.135891,0.97823 v -0.52917 c 0,-0.39768 -0.03636,-0.71297 -0.135909,-0.97823 -0.09958,-0.26526 -0.278792,-0.47798 -0.506429,-0.60358 -0.455271,-0.25119 -1.012114,-0.22375 -1.773018,-0.23255 h -0.0026 -3.630786 z m 10.583334,0 c -0.760904,0.009 -1.317749,-0.0187 -1.773019,0.23255 -0.227637,0.1256 -0.406848,0.33832 -0.506429,0.60358 -0.09957,0.26526 -0.135909,0.58055 -0.135909,0.97823 v 0.52917 c 0,-0.39768 0.03634,-0.71297 0.135909,-0.97823 0.09958,-0.26526 0.278792,-0.47799 0.506429,-0.60358 0.45527,-0.2512 1.012115,-0.22379 1.773019,-0.23255 h 0.0026 24.797454 0.0026 c 0.760904,0.009 1.317749,-0.0186 1.77302,0.23255 0.227637,0.12559 0.406853,0.33832 0.506428,0.60358 0.09955,0.26526 0.135909,0.58055 0.135909,0.97823 v -0.52917 c 0,-0.39768 -0.03636,-0.71297 -0.135909,-0.97823 -0.09958,-0.26526 -0.278791,-0.47798 -0.506428,-0.60358 -0.455271,-0.25119 -1.012116,-0.22375 -1.77302,-0.23255 h -0.0026 -24.797454 z m 31.75,0 c -0.760904,0.009 -1.317749,-0.0187 -1.77302,0.23255 -0.227637,0.1256 -0.406848,0.33832 -0.506429,0.60358 -0.09957,0.26526 -0.135908,0.58055 -0.135908,0.97823 v 0.52917 c 0,-0.39768 0.03634,-0.71297 0.135908,-0.97823 0.09958,-0.26526 0.278792,-0.47799 0.506429,-0.60358 0.455271,-0.2512 1.012116,-0.22379 1.77302,-0.23255 h 0.0026 3.630787 0.0026 c 0.760905,0.009 1.317749,-0.0186 1.77302,0.23255 0.227637,0.12559 0.406853,0.33832 0.506429,0.60358 0.09955,0.26526 0.135908,0.58055 0.135908,0.97823 v -0.52917 c 0,-0.39768 -0.03636,-0.71297 -0.135908,-0.97823 -0.09958,-0.26526 -0.278792,-0.47798 -0.506429,-0.60358 -0.455271,-0.25119 -1.012115,-0.22375 -1.77302,-0.23255 h -0.0026 -3.630787 z"/>
  <g transform="matrix(0.26458333,0,0,0.26458333,-3.2280596,220.85262)" style="opacity:0.2;enable-background:new">
   <g style="font-size:40px;line-height:1000%;text-align:center;letter-spacing:0px;word-spacing:0px;text-anchor:middle">
    <path d="m 65.683276,120.876 -1.504,-1.232 c 1.104,-1.216 1.648,-2.704 1.648,-4.56 0,-3.632 -2.272,-6.08 -5.632,-6.08 -3.376,0 -5.632,2.448 -5.632,6.112 0,3.648 2.256,6.112 5.632,6.112 1.168,0 2.112,-0.256 3.056,-0.816 l 1.68,1.392 z m -4.032,-3.296 -0.736,0.896 1.184,0.992 c -0.688,0.336 -1.216,0.448 -1.92,0.448 -2.48,0 -4.128,-1.92 -4.128,-4.8 0,-2.88 1.648,-4.8 4.144,-4.8 2.48,0 4.144,1.92 4.144,4.784 0,1.52 -0.4,2.672 -1.264,3.648 z"/>
   </g>
   <g style="font-size:40px;line-height:1000%;text-align:center;letter-spacing:0px;word-spacing:0px;text-anchor:middle">
    <path d="m 104.5314,120.86 2.96,-11.664 h -1.664 l -2.144,9.472 -2.656,-9.472 h -1.600004 l -2.592,9.472 -2.192,-9.472 h -1.664 l 2.992,11.664 h 1.632 l 2.608004,-9.584 2.688,9.584 z"/>
   </g>
   <g style="font-size:40px;line-height:1000%;text-align:center;letter-spacing:0px;word-spacing:0px;text-anchor:middle">
    <path d="m 137.77146,115.548 h 6.352 v -1.312 h -6.352 v -3.728 h 6.592 v -1.312 h -8.08 v 11.664 h 8.368 v -1.312 h -6.88 z"/>
   </g>
   <g style="font-size:40px;line-height:1000%;text-align:center;letter-spacing:0px;word-spacing:0px;text-anchor:middle">
    <path d="m 177.37952,115.836 h 3.84 c 1.328,0 1.92,0.64 1.92,2.08 l -0.016,1.04 c 0,0.72 0.128,1.424 0.336,1.904 h 1.808 v -0.368 c -0.56,-0.384 -0.672,-0.8 -0.704,-2.352 -0.016,-1.92 -0.32,-2.496 -1.584,-3.04 1.312,-0.656 1.84,-1.44 1.84,-2.784 0,-2.016 -1.248,-3.12 -3.552,-3.12 h -5.376 v 11.664 h 1.488 z m 0,-1.312 v -4.016 h 3.6 c 0.832,0 1.312,0.128 1.68,0.448 0.4,0.336 0.608,0.864 0.608,1.552 0,1.392 -0.704,2.016 -2.288,2.016 z"/>
   </g>
   <g style="font-size:40px;line-height:1000%;text-align:center;letter-spacing:0px;word-spacing:0px;text-anchor:middle">
    <path d="m 220.95546,110.508 h 3.824 v -1.312 h -9.152 v 1.312 h 3.84 v 10.352 h 1.488 z"/>
   </g>
   <g style="font-size:40px;line-height:1000%;text-align:center;letter-spacing:0px;word-spacing:0px;text-anchor:middle">
    <path d="m 78.42746,157.356 1.2,3.504 h 1.664 l -4.096,-11.664 h -1.92 l -4.16,11.664 h 1.584 l 1.232,-3.504 z m -0.416,-1.248 h -3.712 l 1.92,-5.312 z"/>
   </g>
   <g style="font-size:40px;line-height:1000%;text-align:center;letter-spacing:0px;word-spacing:0px;text-anchor:middle">
    <path d="m 120.37946,152.62 c 0,-0.8 -0.048,-1.024 -0.304,-1.568 -0.64,-1.344 -2,-2.048 -3.968,-2.048 -2.56,0 -4.144,1.312 -4.144,3.424 0,1.424 0.752,2.32 2.288,2.72 l 2.896,0.768 c 1.488,0.384 2.144,0.976 2.144,1.888 0,0.624 -0.336,1.264 -0.832,1.616 -0.464,0.336 -1.2,0.496 -2.144,0.496 -1.28,0 -2.128,-0.304 -2.688,-0.976 -0.432,-0.512 -0.624,-1.072 -0.608,-1.792 h -1.408 c 0.016,1.072 0.224,1.776 0.688,2.416 0.8,1.104 2.144,1.664 3.92,1.664 1.392,0 2.528,-0.32 3.28,-0.896 0.784,-0.624 1.28,-1.664 1.28,-2.672 0,-1.44 -0.896,-2.496 -2.48,-2.928 l -2.928,-0.784 c -1.408,-0.384 -1.92,-0.832 -1.92,-1.728 0,-1.184 1.04,-1.968 2.608,-1.968 1.856,0 2.896,0.832 2.912,2.368 z"/>
   </g>
   <g style="font-size:40px;line-height:1000%;text-align:center;letter-spacing:0px;word-spacing:0px;text-anchor:middle">
    <path d="m 151.82752,160.86 h 4.496 c 2.944,0 4.752,-2.208 4.752,-5.84 0,-3.616 -1.792,-5.824 -4.752,-5.824 h -4.496 z m 1.488,-1.312 v -9.04 h 2.752 c 2.304,0 3.52,1.552 3.52,4.528 0,2.96 -1.216,4.512 -3.52,4.512 z"/>
   </g>
   <g style="font-size:40px;line-height:1000%;text-align:center;letter-spacing:0px;word-spacing:0px;text-anchor:middle">
    <path d="m 194.21946,155.548 h 5.568 v -1.312 h -5.568 v -3.728 h 6.336 v -1.312 h -7.824 v 11.664 h 1.488 z"/>
   </g>
   <g style="font-size:40px;line-height:1000%;text-align:center;letter-spacing:0px;word-spacing:0px;text-anchor:middle">
    <path d="m 61.011276,199.196 h -1.664 v 1.664 h 1.664 z"/>
   </g>
   <g style="font-size:40px;line-height:1000%;text-align:center;letter-spacing:0px;word-spacing:0px;text-anchor:middle">
    <path d="m 221.61928,189.196 -3.792,11.984 h 0.88 l 3.792,-11.984 z"/>
   </g>
  </g>
 </g>
</svg>
