<?xml version="1.0" encoding="UTF-8" standalone="no"?>
<svg
   xmlns:dc="http://purl.org/dc/elements/1.1/"
   xmlns:cc="http://creativecommons.org/ns#"
   xmlns:rdf="http://www.w3.org/1999/02/22-rdf-syntax-ns#"
   xmlns:svg="http://www.w3.org/2000/svg"
   xmlns="http://www.w3.org/2000/svg"
   xmlns:sodipodi="http://sodipodi.sourceforge.net/DTD/sodipodi-0.dtd"
   xmlns:inkscape="http://www.inkscape.org/namespaces/inkscape"
   width="16"
   height="16.001"
   version="1.1"
   id="svg6"
   sodipodi:docname="bleachbit.svg"
   inkscape:version="0.92.3 (2405546, 2018-03-11)">
  <metadata
     id="metadata12">
    <rdf:RDF>
      <cc:Work
         rdf:about="">
        <dc:format>image/svg+xml</dc:format>
        <dc:type
           rdf:resource="http://purl.org/dc/dcmitype/StillImage" />
      </cc:Work>
    </rdf:RDF>
  </metadata>
  <defs
     id="defs10" />
  <sodipodi:namedview
     pagecolor="#ffffff"
     bordercolor="#666666"
     borderopacity="1"
     objecttolerance="10"
     gridtolerance="10"
     guidetolerance="10"
     inkscape:pageopacity="0"
     inkscape:pageshadow="2"
     inkscape:window-width="1920"
     inkscape:window-height="1009"
     id="namedview8"
     showgrid="false"
     inkscape:zoom="14.749079"
     inkscape:cx="8"
     inkscape:cy="8.0004997"
     inkscape:window-x="0"
     inkscape:window-y="34"
     inkscape:window-maximized="1"
     inkscape:current-layer="svg6" />
  <path
     style="color:#000000;font-style:normal;font-variant:normal;font-weight:normal;font-stretch:normal;font-size:medium;line-height:normal;font-family:sans-serif;font-variant-ligatures:normal;font-variant-position:normal;font-variant-caps:normal;font-variant-numeric:normal;font-variant-alternates:normal;font-feature-settings:normal;text-indent:0;text-align:start;text-decoration:none;text-decoration-line:none;text-decoration-style:solid;text-decoration-color:#000000;letter-spacing:normal;word-spacing:normal;text-transform:none;writing-mode:lr-tb;direction:ltr;text-orientation:mixed;dominant-baseline:auto;baseline-shift:baseline;text-anchor:start;white-space:normal;shape-padding:0;clip-rule:nonzero;display:inline;overflow:visible;visibility:visible;opacity:1;isolation:auto;mix-blend-mode:normal;color-interpolation:sRGB;color-interpolation-filters:linearRGB;solid-color:#000000;solid-opacity:1;vector-effect:none;fill:#4d4d4d;fill-opacity:1;fill-rule:nonzero;stroke:none;stroke-width:0.8885349;stroke-linecap:round;stroke-linejoin:round;stroke-miterlimit:4;stroke-dasharray:none;stroke-dashoffset:0;stroke-opacity:1;color-rendering:auto;image-rendering:auto;shape-rendering:auto;text-rendering:auto;enable-background:new"
     d="m 3.145313,-0.02263456 a 0.44433593,0.44433593 0 0 0 0,0.8886718 H 4.477344 V 6.1980685 H 3.145313 a 0.44433595,0.44433595 0 1 0 0,0.8886719 H 6.6980471 A 0.44431188,0.44431188 0 0 0 7.1433596,6.6414279 V 4.8640841 A 0.44431188,0.44431188 0 0 0 6.6921877,4.4148654 0.44431188,0.44431188 0 0 0 6.2546877,4.8640841 V 6.1980685 H 5.3660159 v -6.22070306 z m 6.6601564,0.001953 c -0.4845754,0 -0.8886723,0.4040969 -0.8886723,0.8886719 V 6.1980684 c 0,0.4845749 0.4040969,0.8886719 0.8886723,0.8886719 h 2.6660146 c 0.484575,0 0.888672,-0.404097 0.888672,-0.8886719 V 0.86799044 c 0,-0.484575 -0.404097,-0.88867188 -0.888672,-0.88867188 z m 0,0.8886719 H 12.471484 V 6.1980685 H 9.8054694 Z M 3.5886721,8.8640841 C 3.104097,8.8640841 2.7,9.2681807 2.7,9.7527557 v 5.3320323 c 0,0.484575 0.404097,0.888672 0.8886721,0.888672 h 2.6660156 c 0.484575,0 0.8886719,-0.404097 0.8886719,-0.888672 V 9.7527557 c 0,-0.484575 -0.4040969,-0.8886716 -0.8886719,-0.8886716 z m 5.7304688,0 a 0.44490328,0.44490328 0 0 0 0.044922,0.8886716 H 10.698047 V 15.082835 H 9.3640627 a 0.444336,0.444336 0 1 0 0,0.888672 H 10.98125 a 0.44431188,0.44431188 0 0 0 0.318359,0 h 1.619141 a 0.44431188,0.44431188 0 0 0 0.443359,-0.443359 v -1.777344 a 0.44431188,0.44431188 0 0 0 -0.451171,-0.451172 0.44431188,0.44431188 0 0 0 -0.4375,0.451172 v 1.332031 H 11.584766 V 8.8640841 H 9.3640627 a 0.44431188,0.44431188 0 0 0 -0.044922,0 z M 3.5886721,9.7527557 H 6.2546877 V 15.084788 H 3.5886721 Z"
     id="rect120"
     inkscape:connector-curvature="0" />
</svg>
