<svg xmlns="http://www.w3.org/2000/svg" width="16" height="16" version="1.1">
 <g transform="translate(-512,-240)">
  <path d="m 515.99414,241 c -1.2582,0.0145 -2.17889,-0.0306 -2.93164,0.38477 -0.37637,0.20766 -0.67323,0.55938 -0.83789,0.99804 C 512.05994,242.82148 512,243.34239 512,244 v 9 c 0,0.65761 0.0599,1.17858 0.22461,1.61719 0.16468,0.43861 0.46153,0.78852 0.83789,0.99609 0.75272,0.41514 1.67354,0.37165 2.93164,0.38672 h 0.002 8.00586 0.004 c 1.25819,-0.0145 2.17889,0.0306 2.93164,-0.38477 0.37637,-0.20766 0.67323,-0.55938 0.83789,-0.99804 C 527.94006,254.17852 528,253.65761 528,253 v -9 c 0,-0.65761 -0.0599,-1.17858 -0.22461,-1.61719 -0.16468,-0.43861 -0.46153,-0.78852 -0.83789,-0.99609 -0.75272,-0.41513 -1.67355,-0.37165 -2.93164,-0.38672 h -0.002 -8.00586 z m 0.006,1 h 8 c 1.25862,0.0152 2.0891,0.0599 2.45508,0.26172 0.18342,0.10116 0.28722,0.21286 0.38476,0.47266 C 526.93739,242.99417 527,243.40761 527,244 v 9 c 0,0.59239 -0.0626,1.00572 -0.16016,1.26562 -0.0976,0.25991 -0.20135,0.37147 -0.38476,0.47266 C 526.08912,254.9402 525.25852,254.98529 524,255 H 516.00586 516 c -1.25863,-0.0152 -2.0891,-0.0599 -2.45508,-0.26172 -0.18342,-0.10116 -0.28722,-0.21286 -0.38476,-0.47266 C 513.06261,254.00583 513,253.59239 513,253 v -9 c 0,-0.59239 0.0626,-1.00572 0.16016,-1.26562 0.0976,-0.25991 0.20135,-0.37147 0.38476,-0.47266 C 513.91088,242.0598 514.74147,242.0147 516,242 Z" style="fill:#4d4d4d"/>
  <path d="m 515,244 v 1 h 10 v -1 z m 0,2 v 1 h 7 v -1 z m 0,2 v 1 h 6 v -1 z m 0,2 v 1 h 3 v -1 z m 6,0 v 1 h 4 v -1 z m -6,2 v 1 h 3 v -1 h -1.5 z m 6,0 v 1 h 4 v -1 z" style="opacity:0.5;fill:#4d4d4d"/>
  <path d="m 524,244 -8,8 c 0,0 1,1.5 2,2 0.9428,0.4714 2.20368,-0.30936 3,-1 0.56308,-0.48836 1,-1.25464 1,-2 0,-0.74536 -1.24262,-1.76787 -1,-2 0.22718,-0.21735 1.25464,1 2,1 0.74536,0 1.51164,-0.43692 2,-1 0.69064,-0.79632 1.4714,-2.0572 1,-3 -0.5,-1 -2,-2 -2,-2 z m 0,2 c 0.4714,0 1,0.5286 1,1 0,0.5 -1.4,1.9 -1.9,1.9 -0.5,0 -1,-0.5286 -1,-1 0,-0.5 1.4,-1.9 1.9,-1.9 z m -4.1,4.1 c 0.4714,0 1,0.5286 1,1 0,0.5 -1.4,1.9 -1.9,1.9 -0.4714,0 -1,-0.5286 -1,-1 0,-0.5 1.4,-1.9 1.9,-1.9 z" style="fill:#4d4d4d"/>
 </g>
</svg>
