<?xml version="1.0" encoding="UTF-8" standalone="no"?>
<svg
   xmlns:osb="http://www.openswatchbook.org/uri/2009/osb"
   xmlns:dc="http://purl.org/dc/elements/1.1/"
   xmlns:cc="http://creativecommons.org/ns#"
   xmlns:rdf="http://www.w3.org/1999/02/22-rdf-syntax-ns#"
   xmlns:svg="http://www.w3.org/2000/svg"
   xmlns="http://www.w3.org/2000/svg"
   xmlns:sodipodi="http://sodipodi.sourceforge.net/DTD/sodipodi-0.dtd"
   xmlns:inkscape="http://www.inkscape.org/namespaces/inkscape"
   height="16"
   id="svg7384"
   version="1.1"
   width="16"
   sodipodi:docname="pia-manager-symbolic.svg"
   inkscape:version="0.92.3 (2405546, 2018-03-11)">
  <sodipodi:namedview
     pagecolor="#ffffff"
     bordercolor="#666666"
     borderopacity="1"
     objecttolerance="10"
     gridtolerance="10"
     guidetolerance="10"
     inkscape:pageopacity="0"
     inkscape:pageshadow="2"
     inkscape:window-width="1920"
     inkscape:window-height="1009"
     id="namedview27"
     showgrid="false"
     inkscape:zoom="52.1875"
     inkscape:cx="8"
     inkscape:cy="8"
     inkscape:window-x="0"
     inkscape:window-y="34"
     inkscape:window-maximized="1"
     inkscape:current-layer="svg7384" />
  <metadata
     id="metadata20854">
    <rdf:RDF>
      <cc:Work
         rdf:about="">
        <dc:title></dc:title>
        <dc:format>image/svg+xml</dc:format>
        <dc:type
           rdf:resource="http://purl.org/dc/dcmitype/StillImage" />
      </cc:Work>
    </rdf:RDF>
  </metadata>
  <defs
     id="defs7386">
    <linearGradient
       id="linearGradient5606"
       osb:paint="solid">
      <stop
         id="stop5608"
         offset="0"
         style="stop-color:#000000;stop-opacity:1;" />
    </linearGradient>
    <linearGradient
       id="linearGradient4526"
       osb:paint="solid">
      <stop
         id="stop4528"
         offset="0"
         style="stop-color:#ffffff;stop-opacity:1;" />
    </linearGradient>
    <linearGradient
       id="linearGradient3600-4"
       osb:paint="gradient">
      <stop
         id="stop3602-7"
         offset="0"
         style="stop-color:#f4f4f4;stop-opacity:1" />
      <stop
         id="stop3604-6"
         offset="1"
         style="stop-color:#dbdbdb;stop-opacity:1" />
    </linearGradient>
  </defs>
  <g
     id="layer9"
     label="status"
     style="display:inline"
     transform="translate(-753.0002,147)" />
  <g
     id="layer2"
     style="display:inline"
     transform="translate(-512,-220)" />
  <g
     id="layer4"
     style="display:inline"
     transform="translate(-512,-220)" />
  <g
     id="g1812"
     style="display:inline"
     transform="translate(-512,-220)" />
  <g
     id="g6217"
     style="display:inline"
     transform="translate(-512,-220)" />
  <g
     id="layer3"
     style="display:inline"
     transform="translate(-512,-220)" />
  <g
     id="layer1"
     style="display:inline"
     transform="translate(-512,-220)" />
  <path
     style="fill:#808080;fill-opacity:1;stroke:none;stroke-width:0.2857143;stroke-opacity:1;enable-background:new"
     d="M 7.8571694,1.06e-6 A 5.1428573,5.2000001 0 0 0 2.7143368,5.2000001 5.1428573,5.2000001 0 0 0 2.7398958,5.7143387 H 2.7143368 1.8571694 C 1.3823124,5.7143387 1,6.0824189 1,6.5397077 v 5.7777563 c 0,0.457287 0.3823124,0.825367 0.8571694,0.825367 h 0.8571674 v 2.05717 C 2.7143368,15.6432 3.0671848,16 3.5055141,16 H 6.2746324 L 7.4615808,14.285663 H 8.2527559 L 9.4395217,16 h 2.7693023 c 0.438329,0 0.791177,-0.3568 0.791177,-0.799999 v -2.05717 h 0.85717 c 0.474857,0 0.857167,-0.36808 0.857167,-0.825367 V 6.5397077 c 0,-0.4572888 -0.38231,-0.825369 -0.857167,-0.825369 h -0.85717 -0.02738 A 5.1428573,5.2000001 0 0 0 13.000001,5.2000001 5.1428573,5.2000001 0 0 0 7.8571694,1.06e-6 Z m 0,1.71433684 c 1.8935455,0 3.4284916,1.4683055 3.4284916,3.2795957 -7.13e-4,0.091226 -0.0059,0.4474058 -0.0145,0.7204051 H 4.4435828 c -0.00879,-0.2729949 -0.014065,-0.6291614 -0.015164,-0.7204051 0,-1.8112902 1.5351285,-3.2795957 3.4286782,-3.2795957 z M 6.4284927,3.1428323 A 0.85714284,0.85714284 0 0 0 5.5715056,3.9999996 0.85714284,0.85714284 0 0 0 6.4284927,4.8571692 0.85714284,0.85714284 0 0 0 7.2856601,3.9999996 0.85714284,0.85714284 0 0 0 6.4284927,3.1428323 Z m 2.8571687,0 A 0.85714284,0.85714284 0 0 0 8.428492,3.9999996 0.85714284,0.85714284 0 0 0 9.2856614,4.8571692 0.85714284,0.85714284 0 0 0 10.142832,3.9999996 0.85714284,0.85714284 0 0 0 9.2856614,3.1428323 Z M 7.8663602,7.7069867 c 0.4835973,0 0.875551,0.3921361 0.875551,0.8757334 v 0.3501844 h 0.2917279 c 0.112258,-0.014505 0.2069345,0.104698 0.2288609,0.227573 0.00308,0.017582 0.00483,0.035251 0.00483,0.052569 v 0.9830885 0.588236 c 0,0.138608 -0.1042804,0.25 -0.2336386,0.25 H 6.6989537 c -0.1293561,0 -0.2336387,-0.111401 -0.2336387,-0.25 v -0.57941 -0.9919147 c 0,-0.1386083 0.1042804,-0.2801462 0.2336387,-0.2801462 h 0.291728 V 8.5827158 c 0,-0.4835974 0.3921361,-0.8757335 0.8757356,-0.8757335 z m 0,0.3503668 c -0.2720257,0 -0.4957066,0.2067587 -0.5226108,0.4716903 -0.00179,0.017582 -0.00286,0.035537 -0.00286,0.053668 V 8.9328961 H 8.376184 c 0.00102,-5.011e-4 0.015384,-0.00681 0.015384,-0.00681 V 8.5827004 c 0,-0.2901589 -0.2352078,-0.5253667 -0.5253667,-0.5253667 z"
     id="rect8"
     inkscape:connector-curvature="0" />
</svg>
