<?xml version="1.0" encoding="UTF-8" standalone="no"?>
<svg
   xmlns:dc="http://purl.org/dc/elements/1.1/"
   xmlns:cc="http://creativecommons.org/ns#"
   xmlns:rdf="http://www.w3.org/1999/02/22-rdf-syntax-ns#"
   xmlns:svg="http://www.w3.org/2000/svg"
   xmlns="http://www.w3.org/2000/svg"
   xmlns:sodipodi="http://sodipodi.sourceforge.net/DTD/sodipodi-0.dtd"
   xmlns:inkscape="http://www.inkscape.org/namespaces/inkscape"
   id="svg6"
   version="1.1"
   width="16"
   height="16"
   sodipodi:docname="qmmp-symbolic.svg"
   inkscape:version="0.92.3 (2405546, 2018-03-11)">
  <sodipodi:namedview
     pagecolor="#ffffff"
     bordercolor="#666666"
     borderopacity="1"
     objecttolerance="10"
     gridtolerance="10"
     guidetolerance="10"
     inkscape:pageopacity="0"
     inkscape:pageshadow="2"
     inkscape:window-width="1849"
     inkscape:window-height="772"
     id="namedview7"
     showgrid="false"
     inkscape:zoom="14.75"
     inkscape:cx="8"
     inkscape:cy="8"
     inkscape:window-x="0"
     inkscape:window-y="34"
     inkscape:window-maximized="0"
     inkscape:current-layer="svg6" />
  <metadata
     id="metadata12">
    <rdf:RDF>
      <cc:Work
         rdf:about="">
        <dc:format>image/svg+xml</dc:format>
        <dc:type
           rdf:resource="http://purl.org/dc/dcmitype/StillImage" />
        <dc:title></dc:title>
      </cc:Work>
    </rdf:RDF>
  </metadata>
  <defs
     id="defs10" />
  <path
     style="display:inline;overflow:visible;visibility:visible;fill:#666666;fill-opacity:1;fill-rule:evenodd;stroke:none;stroke-width:0.14485708;stroke-linecap:butt;stroke-linejoin:round;stroke-miterlimit:4;stroke-dasharray:none;stroke-dashoffset:0;stroke-opacity:1;marker:none;marker-start:none;marker-mid:none;marker-end:none;enable-background:accumulate"
     d="m 0.95542561,3.2725526 c -1.933313,0.070677 -0.801645,3.0885921 2.21621199,6.1064312 -2.120133,4.2402892 3.206325,4.7561952 4.535895,1.5491912 0.08447,0.522557 0.188749,0.872919 0.292724,0.864945 0.102841,-0.0076 0.205795,-0.357544 0.289776,-0.8719 1.324797,3.214639 6.6604984,2.701077 4.5388494,-1.5422362 4.774583,-4.7745635 4.826544,-9.54738868 -4.5096784,-2.650923 -0.02306,-0.09109 -0.04876,-0.173858 -0.07759,-0.2460468 0.627798,-0.4185449 0.710294,-0.8365607 0.09252,-0.9406488 0.36616,-1.474885 2.0917304,-1.9097953 2.0917304,-1.9097953 a 0.04829053,0.04829053 0 0 0 -0.01512,-0.095244 V 3.536137 a 0.04829053,0.04829053 0 0 0 -0.0079,0.0014 c 0,0 -1.7911514,0.447307 -2.1655134,1.9913952 -0.07208,-0.00756 -0.149254,-0.011339 -0.237166,-0.011339 -0.08814,0 -0.165467,0.00378 -0.237694,0.011339 -0.374209,-1.5442767 -2.164855,-1.991546 -2.164855,-1.991546 a 0.04829053,0.04829053 0 0 0 -0.01474,-0.0014 0.04829053,0.04829053 0 0 0 -0.0091,0.095244 c 0,0 1.726227,0.4348724 2.092422,1.9097952 -0.617973,0.1039366 -0.535673,0.5220657 0.09218,0.9406484 -0.02872,0.071811 -0.05431,0.154961 -0.07725,0.246425 C 4.2459116,4.1905621 2.0804846,3.2312802 0.95506161,3.2724392 Z"
     id="path1636"
     inkscape:connector-curvature="0" />
</svg>
