<svg xmlns="http://www.w3.org/2000/svg" version="1.1" viewBox="0 0 16 16">
 <defs>
  <style id="current-color-scheme" type="text/css">
   .ColorScheme-Text { color:#4d4d4d; }
  </style>
 </defs>
 <g transform="matrix(0.0640752,0,0,0.0640752,-8.4000453,-8.9009034)" style="fill:currentColor;" class="ColorScheme-Text">
  <g class="st7" style="opacity:0.95;fill:currentColor;" class="ColorScheme-Text">
   <circle class="st8" cx="256" cy="270.7" r="41.3" style="fill:currentColor;" class="ColorScheme-Text"/>
   <path class="st8" d="m 355.3,199.6 h -44.5 c -3.9,0 -7.1,-3.2 -7.1,-7.1 v -4.6 c 0,-9.8 -7.9,-17.7 -17.7,-17.7 h -60.1 c -9.8,0 -17.7,7.9 -17.7,17.7 v 4.6 c 0,3.9 -3.2,7.1 -7.1,7.1 h -44.5 c -9.8,0 -17.7,7.9 -17.7,17.7 v 106.8 c 0,9.8 7.9,17.7 17.7,17.7 h 198.7 c 9.8,0 17.7,-7.9 17.7,-17.7 V 217.3 c 0,-9.8 -7.9,-17.7 -17.7,-17.7 z m -99.3,123 c -28.6,0 -51.9,-23.3 -51.9,-51.9 0,-28.6 23.3,-51.9 51.9,-51.9 28.6,0 51.9,23.3 51.9,51.9 0,28.6 -23.3,51.9 -51.9,51.9 z" style="fill:currentColor;" class="ColorScheme-Text"/>
  </g>
 </g>
</svg>
