<?xml version="1.0" encoding="UTF-8" standalone="no"?>
<svg
   xmlns:osb="http://www.openswatchbook.org/uri/2009/osb"
   xmlns:dc="http://purl.org/dc/elements/1.1/"
   xmlns:cc="http://creativecommons.org/ns#"
   xmlns:rdf="http://www.w3.org/1999/02/22-rdf-syntax-ns#"
   xmlns:svg="http://www.w3.org/2000/svg"
   xmlns="http://www.w3.org/2000/svg"
   xmlns:sodipodi="http://sodipodi.sourceforge.net/DTD/sodipodi-0.dtd"
   xmlns:inkscape="http://www.inkscape.org/namespaces/inkscape"
   height="16"
   id="svg7384"
   version="1.1"
   width="16"
   sodipodi:docname="toki-tori-symbolic.svg"
   inkscape:version="0.92.3 (2405546, 2018-03-11)">
  <sodipodi:namedview
     pagecolor="#ffffff"
     bordercolor="#666666"
     borderopacity="1"
     objecttolerance="10"
     gridtolerance="10"
     guidetolerance="10"
     inkscape:pageopacity="0"
     inkscape:pageshadow="2"
     inkscape:window-width="1920"
     inkscape:window-height="1009"
     id="namedview27"
     showgrid="false"
     inkscape:zoom="43.698702"
     inkscape:cx="3.003686"
     inkscape:cy="8.0287425"
     inkscape:window-x="0"
     inkscape:window-y="34"
     inkscape:window-maximized="1"
     inkscape:current-layer="svg7384" />
  <metadata
     id="metadata20854">
    <rdf:RDF>
      <cc:Work
         rdf:about="">
        <dc:title></dc:title>
        <dc:format>image/svg+xml</dc:format>
        <dc:type
           rdf:resource="http://purl.org/dc/dcmitype/StillImage" />
      </cc:Work>
    </rdf:RDF>
  </metadata>
  <defs
     id="defs7386">
    <linearGradient
       id="linearGradient5606"
       osb:paint="solid">
      <stop
         id="stop5608"
         offset="0"
         style="stop-color:#000000;stop-opacity:1;" />
    </linearGradient>
    <linearGradient
       id="linearGradient4526"
       osb:paint="solid">
      <stop
         id="stop4528"
         offset="0"
         style="stop-color:#ffffff;stop-opacity:1;" />
    </linearGradient>
    <linearGradient
       id="linearGradient3600-4"
       osb:paint="gradient">
      <stop
         id="stop3602-7"
         offset="0"
         style="stop-color:#f4f4f4;stop-opacity:1" />
      <stop
         id="stop3604-6"
         offset="1"
         style="stop-color:#dbdbdb;stop-opacity:1" />
    </linearGradient>
  </defs>
  <g
     id="layer9"
     label="status"
     style="display:inline"
     transform="translate(-753.0002,147)" />
  <g
     id="layer2"
     style="display:inline"
     transform="translate(-512,-220)" />
  <g
     id="layer4"
     style="display:inline"
     transform="translate(-512,-220)" />
  <g
     id="g1812"
     style="display:inline"
     transform="translate(-512,-220)" />
  <g
     id="g6217"
     style="display:inline"
     transform="translate(-512,-220)" />
  <g
     id="layer3"
     style="display:inline"
     transform="translate(-512,-220)" />
  <g
     id="layer1"
     style="display:inline"
     transform="translate(-512,-220)" />
  <g
     style="enable-background:new"
     id="g2369"
     transform="matrix(0.03872568,0,0,0.03872568,-0.45133703,-1.5159518)">
    <path
       style="fill:#808080;fill-opacity:1;stroke-width:0.31999993"
       d="m -7.4550781,-1.5703125 c 0.020329,1.17550189 -4.9509849,3.6039878 -5.5136719,6.2773437 -0.04845,0.1680408 -0.134869,0.4413152 -0.207031,0.671875 A 0.45085883,0.42831731 0 0 0 -13.423828,5.53125 c -2.363982,2.8784865 -1.959966,5.618197 -2.011719,8.357422 a 0.45085883,0.42831731 0 0 0 0.859375,0.193359 c 0,0 0.172782,-0.339825 0.429688,-0.890625 0.900988,2.512102 3.563649,4.333938 6.7109371,4.333985 3.1472883,-3.8e-5 5.8114156,-1.82188 6.71289065,-4.333985 0,0 0.001953,0.002 0.001953,0.002 0.25643979,0.549737 0.42773437,0.888672 0.42773437,0.888672 a 0.45085883,0.42831731 0 0 0 0.857422,-0.193406 C 0.51270197,11.149449 0.91866913,8.4097347 -1.4453125,5.53125 A 0.45085883,0.42831731 0 0 0 -1.6933594,5.3789062 C -1.7655218,5.1483464 -1.8519369,4.875072 -1.9003906,4.7070312 -2.4957599,1.8784024 -4.5145623,-0.39458795 -7.4355469,-0.39453125 c -0.1603427,-3.28e-6 -0.022218,-1.33115305 -0.019531,-1.17578125 z m 0.019531,4.375 -0.072266,0.4160156 c -0.7046171,0.1020769 -1.2009702,0.2960956 -1.71875,0.4804688 0,0 0.7014285,-0.8964844 1.791016,-0.8964844 z m 0.8964844,0 c 1.0921049,0.00864 1.7929687,0.8964844 1.7929687,0.8964844 C -5.2642176,3.5156175 -5.7629762,3.3208874 -6.46875,3.2148438 Z M -8.1132812,4.40625 a 1.5492165,2.1181573 16.094315 0 1 0.2636718,0.033203 1.5492165,2.1181573 16.094315 0 1 0.734375,0.5410157 A 2.1181573,1.5492164 73.905685 0 1 -6.3789062,4.4394531 2.1181573,1.5492164 73.905685 0 1 -6.1152344,4.40625 2.1181573,1.5492164 73.905685 0 1 -4.3300781,6.1132812 2.1181573,1.5492164 73.905685 0 1 -5.2890625,8.53125 2.1181573,1.5492164 73.905685 0 1 -7.1152344,7.4355469 1.5492165,2.1181573 16.094315 0 1 -8.9394531,8.53125 1.5492165,2.1181573 16.094315 0 1 -9.8984375,6.1132812 1.5492165,2.1181573 16.094315 0 1 -8.1132812,4.40625 Z"
       transform="matrix(21.622127,0,0,21.622127,397.05357,73.372208)"
       id="path1092"
       inkscape:connector-curvature="0" />
    <g
       transform="matrix(6.9190798,0,0,6.9190798,7.9693018,37.162017)"
       id="g1116" />
  </g>
</svg>
