<?xml version="1.0" encoding="UTF-8" standalone="no"?>
<svg
   xmlns:osb="http://www.openswatchbook.org/uri/2009/osb"
   xmlns:dc="http://purl.org/dc/elements/1.1/"
   xmlns:cc="http://creativecommons.org/ns#"
   xmlns:rdf="http://www.w3.org/1999/02/22-rdf-syntax-ns#"
   xmlns:svg="http://www.w3.org/2000/svg"
   xmlns="http://www.w3.org/2000/svg"
   xmlns:sodipodi="http://sodipodi.sourceforge.net/DTD/sodipodi-0.dtd"
   xmlns:inkscape="http://www.inkscape.org/namespaces/inkscape"
   height="16"
   id="svg7384"
   version="1.1"
   width="16"
   sodipodi:docname="xmoto-SYMBOLIC.svg"
   inkscape:version="0.92.3 (2405546, 2018-03-11)">
  <sodipodi:namedview
     pagecolor="#ffffff"
     bordercolor="#666666"
     borderopacity="1"
     objecttolerance="10"
     gridtolerance="10"
     guidetolerance="10"
     inkscape:pageopacity="0"
     inkscape:pageshadow="2"
     inkscape:window-width="1920"
     inkscape:window-height="1009"
     id="namedview27"
     showgrid="false"
     inkscape:zoom="52.1875"
     inkscape:cx="4.5796407"
     inkscape:cy="8"
     inkscape:window-x="0"
     inkscape:window-y="34"
     inkscape:window-maximized="1"
     inkscape:current-layer="svg7384" />
  <metadata
     id="metadata20854">
    <rdf:RDF>
      <cc:Work
         rdf:about="">
        <dc:title></dc:title>
        <dc:format>image/svg+xml</dc:format>
        <dc:type
           rdf:resource="http://purl.org/dc/dcmitype/StillImage" />
      </cc:Work>
    </rdf:RDF>
  </metadata>
  <defs
     id="defs7386">
    <linearGradient
       id="linearGradient5606"
       osb:paint="solid">
      <stop
         id="stop5608"
         offset="0"
         style="stop-color:#000000;stop-opacity:1;" />
    </linearGradient>
    <linearGradient
       id="linearGradient4526"
       osb:paint="solid">
      <stop
         id="stop4528"
         offset="0"
         style="stop-color:#ffffff;stop-opacity:1;" />
    </linearGradient>
    <linearGradient
       id="linearGradient3600-4"
       osb:paint="gradient">
      <stop
         id="stop3602-7"
         offset="0"
         style="stop-color:#f4f4f4;stop-opacity:1" />
      <stop
         id="stop3604-6"
         offset="1"
         style="stop-color:#dbdbdb;stop-opacity:1" />
    </linearGradient>
  </defs>
  <g
     id="layer9"
     label="status"
     style="display:inline"
     transform="translate(-753.0002,147)" />
  <g
     id="layer2"
     style="display:inline"
     transform="translate(-512,-220)" />
  <g
     id="layer4"
     style="display:inline"
     transform="translate(-512,-220)" />
  <g
     id="g1812"
     style="display:inline"
     transform="translate(-512,-220)" />
  <g
     id="g6217"
     style="display:inline"
     transform="translate(-512,-220)" />
  <g
     id="layer3"
     style="display:inline"
     transform="translate(-512,-220)" />
  <g
     id="layer1"
     style="display:inline"
     transform="translate(-512,-220)" />
  <path
     style="fill:#808080;fill-opacity:1;stroke-width:0.03021426"
     d="m 9.2145849,0.80163172 c -2.1695961,0 -4.0825019,1.09923778 -5.2120629,2.77118738 L 3.990428,3.6068351 H 3.4548841 c -0.4979036,0 -0.9014661,0.4036913 -0.9014661,0.9016063 C 1.0258744,4.8841264 0.5,5.8606429 0.5,5.8606429 H 3.7403178 C 7.6731996,6.9534933 5.9902819,9.857758 4.3063323,10.844026 2.5534218,11.870696 1.6770851,9.641985 1.6770851,9.641985 1.0259674,12.071011 2.528452,14.5 2.528452,14.5 l 11.479684,-3.346582 c 0.930573,-1.096063 1.491946,-2.5152762 1.491946,-4.0656762 0,-3.4713826 -2.814119,-6.28550538 -6.2854971,-6.28550538 z M 9.0541818,8.3962521 a 0.54733167,0.54733167 0 0 1 0.5474116,0.5474266 0.54733167,0.54733167 0 0 1 -0.5474116,0.547276 0.54733167,0.54733167 0 0 1 -0.547268,-0.547276 0.54733167,0.54733167 0 0 1 0.547268,-0.5474266 z"
     id="path966"
     inkscape:connector-curvature="0" />
</svg>
