<?xml version="1.0" encoding="UTF-8" standalone="no"?>
<svg
   xmlns:dc="http://purl.org/dc/elements/1.1/"
   xmlns:cc="http://creativecommons.org/ns#"
   xmlns:rdf="http://www.w3.org/1999/02/22-rdf-syntax-ns#"
   xmlns:svg="http://www.w3.org/2000/svg"
   xmlns="http://www.w3.org/2000/svg"
   xmlns:xlink="http://www.w3.org/1999/xlink"
   xmlns:sodipodi="http://sodipodi.sourceforge.net/DTD/sodipodi-0.dtd"
   xmlns:inkscape="http://www.inkscape.org/namespaces/inkscape"
   width="256"
   height="256"
   version="1.1"
   viewBox="0 0 67.73 67.73"
   id="svg66"
   sodipodi:docname="accessories-calculator.svg"
   inkscape:version="1.0alpha (9dee831, 2019-01-15)">
  <metadata
     id="metadata70">
    <rdf:RDF>
      <cc:Work
         rdf:about="">
        <dc:format>image/svg+xml</dc:format>
        <dc:type
           rdf:resource="http://purl.org/dc/dcmitype/StillImage" />
      </cc:Work>
    </rdf:RDF>
  </metadata>
  <sodipodi:namedview
     pagecolor="#ffffff"
     bordercolor="#666666"
     inkscape:document-rotation="0"
     borderopacity="1"
     objecttolerance="10"
     gridtolerance="10"
     guidetolerance="10"
     inkscape:pageopacity="0"
     inkscape:pageshadow="2"
     inkscape:window-width="640"
     inkscape:window-height="480"
     id="namedview68"
     showgrid="false"
     inkscape:zoom="1.2578125"
     inkscape:cx="-25.838509"
     inkscape:cy="128"
     inkscape:current-layer="svg66" />
  <defs
     id="defs36">
    <linearGradient
       id="linearGradient1108"
       x1="296"
       x2="296"
       y1="-212"
       y2="236"
       gradientUnits="userSpaceOnUse"
       xlink:href="#linearGradient1013" />
    <linearGradient
       id="linearGradient1013">
      <stop
         offset="0"
         style="stop-color:#ffffff"
         id="stop3" />
      <stop
         style="stop-color:#ffffff;stop-opacity:0.09803922"
         offset=".125"
         id="stop5" />
      <stop
         style="stop-color:#000000;stop-opacity:0.09803922"
         offset=".925"
         id="stop7" />
      <stop
         offset="1"
         style="stop-color:#000000;stop-opacity:0.49803922"
         id="stop9" />
    </linearGradient>
    <clipPath
       id="clipPath1082-3-367"
       clipPathUnits="userSpaceOnUse">
      <path
         d="M 361.9375,-212 C 507.2348,-212 528,-191.28677 528,-46.125 V 70.125 C 528,215.28618 507.2348,236 361.9375,236 H 214.0625 C 68.7652,236 48,215.28618 48,70.125 V -46.125 C 48,-191.28677 68.7652,-212 214.0625,-212 Z"
         style="fill:#8c59d9"
         id="path12" />
    </clipPath>
    <clipPath
       id="clipPath983-5"
       clipPathUnits="userSpaceOnUse">
      <path
         d="M 115.03125,44 C 42.3826,44 32,54.356615 32,126.9375 v 58.125 C 32,257.64309 42.3826,268 115.03125,268 H 152 V 44 Z"
         style="fill:#4d4d4d"
         id="path15" />
    </clipPath>
    <filter
       style="color-interpolation-filters:sRGB"
       id="filter973"
       width="1.275"
       height="1.147"
       x="-.14"
       y="-.07">
      <feGaussianBlur
         stdDeviation="6.88"
         id="feGaussianBlur18" />
    </filter>
    <filter
       style="color-interpolation-filters:sRGB"
       id="filter967"
       width="1.034"
       height="1.018"
       x="-.02"
       y="-.01">
      <feGaussianBlur
         stdDeviation=".86"
         id="feGaussianBlur21" />
    </filter>
    <linearGradient
       id="linearGradient943"
       x1="216"
       x2="216"
       y1="28"
       y2="284"
       gradientTransform="matrix(0.26458333,0,0,0.26458333,-6.9934682,221.97263)"
       gradientUnits="userSpaceOnUse"
       xlink:href="#linearGradient4273-8" />
    <linearGradient
       id="linearGradient4273-8">
      <stop
         style="stop-color:#f9af18"
         offset="0"
         id="stop25" />
      <stop
         style="stop-color:#fecf3b"
         offset="1"
         id="stop27" />
    </linearGradient>
    <filter
       style="color-interpolation-filters:sRGB"
       id="filter933"
       width="1.023"
       height="1.025"
       x="-.01"
       y="-.01">
      <feGaussianBlur
         stdDeviation="1.16"
         id="feGaussianBlur30" />
    </filter>
    <filter
       style="color-interpolation-filters:sRGB"
       id="filter983"
       width="1.046"
       height="1.05"
       x="-.02"
       y="-.03">
      <feGaussianBlur
         stdDeviation="2.32"
         id="feGaussianBlur33" />
    </filter>
  </defs>
  <g
     transform="translate(0,-229.26666)"
     id="g64"
     inkscape:label="calculator">
    <path
       d="m 162.53675,5.5680001 c 72.64865,0 83.03125,10.3566149 83.03125,82.9375049 v 58.125005 c 0,72.58059 -10.3826,82.9375 -83.03125,82.9375 h -73.937496 c -72.648654,0 -83.031254,-10.35691 -83.031254,-82.9375 v -58.125005 c 0,-72.58089 10.3826,-82.9375049 83.031254,-82.9375049 z"
       transform="matrix(0.26458333,0,0,0.26458333,-1.8735229e-8,232.67026)"
       style="display:inline;opacity:0.2;filter:url(#filter983)"
       id="path38"
       inkscape:connector-curvature="0"
       inkscape:label="shadow" />
    <path
       style="display:inline;opacity:0.1;filter:url(#filter933)"
       d="m 162.53675,3.5680001 c 72.64865,0 83.03125,10.3566149 83.03125,82.9375049 v 58.125005 c 0,72.58059 -10.3826,82.9375 -83.03125,82.9375 h -73.937496 c -72.648654,0 -83.031254,-10.35691 -83.031254,-82.9375 v -58.125005 c 0,-72.58089 10.3826,-82.9375049 83.031254,-82.9375049 z"
       transform="matrix(0.26458333,0,0,0.26458333,-1.8735229e-8,232.67026)"
       id="path40"
       inkscape:connector-curvature="0"
       inkscape:label="top shadow" />
    <path
       style="fill:#4d4d4d"
       d="m 23.441883,233.61429 c -19.2216217,0 -21.9686846,2.74019 -21.9686846,21.94388 v 15.37891 c 0,19.20362 2.7470629,21.94388 21.9686846,21.94388 h 9.781314 v -59.26667 z"
       id="path42"
       inkscape:connector-curvature="0"
       inkscape:label="left buttons" />
    <path
       inkscape:connector-curvature="0"
       id="path48"
       style="display:inline;opacity:0.4;filter:url(#filter973);stop-opacity:1"
       d="m 152,44 v 224 h 36.96875 c 72.64865,0 83.03125,-10.35691 83.03125,-82.9375 v -58.125 c 0,-72.580885 -10.3826,-82.9375 -83.03125,-82.9375 z"
       transform="matrix(0.24127907,0,0,0.23113622,-4.7831829,226.96101)"
       inkscape:label="shadow" />
    <path
       style="display:inline;fill:url(#linearGradient943)"
       d="m 33.223197,233.61429 v 59.26667 h 9.781316 c 19.221622,0 21.968685,-2.74026 21.968685,-21.94388 v -15.37891 c 0,-19.20369 -2.747063,-21.94388 -21.968685,-21.94388 z"
       id="path44"
       inkscape:connector-curvature="0"
       inkscape:label="right button" />
    <path
       style="opacity:0.1;fill:#ffffff"
       d="m 1.4731984,263.24763 v 7.68945 c 0,19.20362 2.7470629,21.94388 21.9686846,21.94388 h 9.781314 v -29.63333 z"
       id="path46"
       inkscape:connector-curvature="0"
       inkscape:label="bottom left button" />
    <path
       d="m 361.9375,-212 c 145.2973,0 166.0625,20.71323 166.0625,165.875 v 116.25 c 0,145.16118 -20.7652,165.875 -166.0625,165.875 h -147.875 c -145.2973,0 -166.0625,-20.71382 -166.0625,-165.875 v -116.25 c 0,-145.16177 20.7652,-165.875 166.0625,-165.875 z"
       clip-path="url(#clipPath1082-3-367)"
       transform="matrix(0.13229167,0,0,0.13229167,-4.8768016,261.66013)"
       style="display:inline;opacity:0.5;fill:none;stroke:url(#linearGradient1108);stroke-width:8;stroke-linecap:round;stroke-linejoin:round"
       id="path56"
       inkscape:connector-curvature="0"
       inkscape:label="highlight" />
    <path
       style="fill:#f2f2f2"
       d="m 18.406532,244.19763 v 6.35 h -6.35 v 2.11666 h 6.35 v 6.35 h 2.116666 v -6.35 h 6.349999 v -2.11666 h -6.349999 v -6.35 z"
       id="path58"
       inkscape:connector-curvature="0"
       inkscape:label="+" />
    <path
       style="fill:#f2f2f2"
       d="m 26.873197,275.94763 v -2.11667 h -14.816661 v 2.11667 z"
       id="path60"
       inkscape:connector-curvature="0"
       inkscape:label="-" />
    <path
       style="fill:#ffffff"
       d="m 39.573197,259.01429 v 2.11667 h 14.816667 v -2.11667 z m 0,6.35001 v 2.11666 h 14.816667 v -2.11666 z"
       id="path62"
       inkscape:connector-curvature="0"
       inkscape:label="=" />
  </g>
</svg>
