<svg xmlns="http://www.w3.org/2000/svg" xmlns:osb="http://www.openswatchbook.org/uri/2009/osb" xmlns:xlink="http://www.w3.org/1999/xlink" width="256" height="256" version="1.1" viewBox="0 0 67.73 67.73">
 <defs>
  <linearGradient id="blue">
   <stop style="stop-color:#234db8" offset="0"/>
   <stop style="stop-color:#2f5fdd" offset="1"/>
  </linearGradient>
  <linearGradient id="grey" osb:paint="gradient">
   <stop offset="0" style="stop-color:#5d5d5d"/>
   <stop offset="1" style="stop-color:#3b3b3b"/>
  </linearGradient>
  <linearGradient id="yellow">
   <stop offset="0" stop-color="#eab305"/>
   <stop offset="1" stop-color="#ffda64"/>
  </linearGradient>
  <linearGradient id="shadow" x1="296" x2="296" y1="-212" y2="236" gradientUnits="userSpaceOnUse">
   <stop offset="0" stop-color="#ffffff"/>
   <stop offset=".125" stop-color="#ffffff" stop-opacity=".98"/>
   <stop offset=".925" stop-color="#000000" stop-opacity=".98"/>
   <stop offset="1" stop-color="#000000" stop-opacity=".5"/>
  </linearGradient>
  <clipPath id="clipPath1082-3-367">
   <path d="M 361.9375,-212 C 507.2348,-212 528,-191.28677 528,-46.125 V 70.125 C 528,215.28618 507.2348,236 361.9375,236 H 214.0625 C 68.7652,236 48,215.28618 48,70.125 V -46.125 C 48,-191.28677 68.7652,-212 214.0625,-212 Z" style="fill:#8c59d9"/>
  </clipPath>
  <linearGradient id="linearGradient899" x1="170.556" x2="8.77" y1="275.966" y2="-12.314" gradientUnits="userSpaceOnUse" xlink:href="#yellow"/>
  <filter id="filter933-3" width="1.046" height="1.05" x="-.02" y="-.03" style="color-interpolation-filters:sRGB">
   <feGaussianBlur stdDeviation="2.32"/>
  </filter>
  <filter id="filter4569-6" width="1.023" height="1.025" x="-.01" y="-.01" style="color-interpolation-filters:sRGB">
   <feGaussianBlur stdDeviation="1.16"/>
  </filter>
  <linearGradient id="linearGradient957" x1="36.87" x2="37.879" y1="6.621" y2="221.831" gradientUnits="userSpaceOnUse" xlink:href="#grey"/>
  <linearGradient id="linearGradient1071" x1="15.345" x2="18.358" y1="285.581" y2="285.581" gradientTransform="matrix(0.79989324,0,0,0.90941101,3.5997903,24.790743)" gradientUnits="userSpaceOnUse" xlink:href="#blue"/>
  <linearGradient id="linearGradient1073" x1="15.658" x2="19.208" y1="274.998" y2="274.998" gradientTransform="matrix(0.79989324,0,0,0.90941101,3.5997903,25.092199)" gradientUnits="userSpaceOnUse" xlink:href="#blue"/>
  <linearGradient id="linearGradient1075" x1="15.44" x2="19.031" y1="263.886" y2="263.886" gradientTransform="matrix(0.79989324,0,0,0.90941101,3.5997903,23.286316)" gradientUnits="userSpaceOnUse" xlink:href="#blue"/>
  <linearGradient id="linearGradient1077" x1="15.747" x2="19.125" y1="251.187" y2="251.187" gradientTransform="matrix(0.79989324,0,0,0.90941101,3.5997903,22.773924)" gradientUnits="userSpaceOnUse" xlink:href="#blue"/>
  <linearGradient id="linearGradient1079" x1="15.345" x2="19.314" y1="240.604" y2="240.604" gradientTransform="matrix(0.79989324,0,0,0.90941101,3.5997903,21.743571)" gradientUnits="userSpaceOnUse" xlink:href="#blue"/>
  <linearGradient id="linearGradient1143" x1="19.251" x2="50.443" y1="263.057" y2="263.057" gradientUnits="userSpaceOnUse" xlink:href="#grey"/>
 </defs>
 <g transform="translate(0,-229.26666)">
  <path d="m 162.53675,3.5680003 c 72.64865,0 83.03125,10.3566147 83.03125,82.9375047 v 58.125005 c 0,72.58059 -10.3826,82.9375 -83.03125,82.9375 h -73.937496 c -72.648654,0 -83.0312541,-10.35691 -83.0312541,-82.9375 v -58.125005 c 0,-72.58089 10.3826001,-82.9375047 83.0312541,-82.9375047 z" transform="matrix(0.26457031,0,0,0.26457031,2.4356773e-8,232.67009)" style="opacity:0.1;filter:url(#filter4569-6)"/>
  <path d="m 162.53675,5.5680003 c 72.64865,0 83.03125,10.3566147 83.03125,82.9375047 v 58.125005 c 0,72.58059 -10.3826,82.9375 -83.03125,82.9375 h -73.937496 c -72.648654,0 -83.0312541,-10.35691 -83.0312541,-82.9375 v -58.125005 c 0,-72.58089 10.3826001,-82.9375047 83.0312541,-82.9375047 z" transform="matrix(0.26457031,0,0,0.26457031,0,232.67009)" style="opacity:0.2;filter:url(#filter933-3)"/>
  <path d="m 162.53675,3.5680001 c 72.64865,0 83.03125,10.3566149 83.03125,82.9375049 v 58.125005 c 0,72.58059 -10.3826,82.9375 -83.03125,82.9375 h -73.937496 c -72.648654,0 -83.031254,-10.35691 -83.031254,-82.9375 v -58.125005 c 0,-72.58089 10.3826,-82.9375049 83.031254,-82.9375049 z" transform="matrix(0.26458333,0,0,0.26458333,-1.8735229e-8,232.67026)" style="fill:url(#linearGradient899)"/>
  <path fill="url(#linearGradient957)" d="m 48.076628,225.34967 c -36.312404,-5.71347 -42.508628,-24.6491 -42.508628,-80.71916 v -58.125005 c 0,-56.052772 6.192353,-74.993963 42.474605,-80.7138436 -0.699039,111.1206786 -0.914034,111.1912786 0.03402,219.5580086 z" transform="matrix(0.26458333,0,0,0.26458333,-1.8735229e-8,232.67026)"/>
  <g transform="matrix(1,0,0,0.98495846,42.331272,4.0375654)">
   <path fill="#e3dfd5" d="m 13.828085,244.78927 -0.04101,-10.73071 c 5.273415,1.40275 7.566975,4.44134 8.476304,10.73071 z"/>
   <path fill="#f1f0e9" d="m 13.874914,257.09152 -0.04683,-12.30225 v 0 h 8.435296 c 0.416169,2.80338 0.548983,6.27164 0.548983,10.53704 v 1.76521 z"/>
   <path fill="#e3dfd5" d="m 13.921743,269.39431 -0.04683,-12.30279 v 0 h 8.93745 v 12.30279 z"/>
   <path fill="#f1f0e9" d="m 13.966191,281.1235 -0.04445,-11.72919 v 0 h 8.890621 v 1.60805 c 0,4.05534 -0.120115,7.39051 -0.488661,10.12114 z"/>
   <path fill="#e3dfd5" d="m 13.966191,281.1235 0.04233,11.08126 v 0 c 5.23082,-1.4591 7.457179,-4.60431 8.315181,-11.08126 z"/>
   <path d="m 19.049041,242.74101 h -0.489707 l -0.33014,-1.06972 h -1.529647 l -0.324637,1.06972 h -0.500713 l 1.364578,-4.37898 h 0.445688 z m -2.206434,-1.55141 h 1.238024 l -0.495209,-1.62023 v 0 q -0.09354,-0.30652 -0.121051,-0.44414 v 0 0 q -0.06053,0.24396 -0.121052,0.44414 v 0 z" style="fill:url(#linearGradient1079)"/>
   <path fill="url(#linearGradient1077)" d="m 16.196084,253.39549 v -4.37898 h 1.364577 v 0 q 0.632768,0 0.916138,0.33156 v 0 0 q 0.28337,0.33155 0.28337,0.82575 v 0 0 q 0,0.30027 -0.148564,0.54111 v 0 0 q -0.148562,0.24085 -0.418176,0.37221 v 0 0 q 0.335642,0.11886 0.51997,0.39724 v 0 0 q 0.184328,0.27838 0.184328,0.65372 v 0 0 q 0,0.23771 -0.06603,0.45041 v 0 0 q -0.06603,0.21269 -0.203586,0.40037 v 0 0 q -0.137559,0.18766 -0.390665,0.29714 v 0 0 q -0.253107,0.10947 -0.588749,0.10947 v 0 z m 0.478702,-2.52104 h 0.792335 v 0 q 0.40167,0 0.610759,-0.18454 v 0 0 q 0.209088,-0.18454 0.209088,-0.50984 v 0 0 q 0,-0.66935 -0.698796,-0.66935 v 0 h -0.913386 z m 0,2.02059 h 1.028936 v 0 q 0.390665,0 0.555734,-0.20644 v 0 0 q 0.16507,-0.20644 0.16507,-0.51297 v 0 0 q 0,-0.80698 -0.896879,-0.80698 v 0 h -0.852861 z"/>
   <path fill="url(#linearGradient1075)" d="m 17.545635,265.5319 v 0 0 q -0.418177,0 -0.737311,-0.19392 v 0 0 q -0.319136,-0.19393 -0.500713,-0.52548 v 0 0 q -0.181576,-0.33155 -0.269614,-0.71941 v 0 0 q -0.08804,-0.38785 -0.08804,-0.82574 v 0 0 q 0,-0.43164 0.09079,-0.82263 v 0 0 q 0.09079,-0.39098 0.275116,-0.7194 v 0 0 q 0.184328,-0.32842 0.500712,-0.52548 v 0 0 q 0.316384,-0.19705 0.729058,-0.19705 v 0 0 q 0.902382,0 1.243526,0.78821 v 0 l -0.429181,0.25024 v 0 q -0.154065,-0.26274 -0.338394,-0.39724 v 0 0 q -0.184327,-0.1345 -0.475951,-0.1345 v 0 0 q -0.390665,0 -0.649274,0.2815 v 0 0 q -0.25861,0.28151 -0.354901,0.65998 v 0 0 q -0.09629,0.37847 -0.09629,0.81637 v 0 0 q 0,0.7194 0.280618,1.2355 v 0 0 q 0.28062,0.51609 0.819847,0.51609 v 0 0 q 0.539229,0 0.836354,-0.55676 v 0 l 0.440186,0.18767 v 0 q -0.159567,0.40036 -0.478702,0.64121 v 0 0 q -0.319135,0.24084 -0.797838,0.24084 z"/>
   <path fill="url(#linearGradient1073)" d="m 16.124553,277.36805 v -4.37898 h 1.050945 v 0 q 0.4732,0 0.830851,0.18767 v 0 0 q 0.357651,0.18767 0.561238,0.50671 v 0 0 q 0.203586,0.31904 0.299876,0.69438 v 0 0 q 0.09629,0.37534 0.09629,0.80073 v 0 0 q 0,0.40661 -0.09079,0.77258 v 0 0 q -0.09079,0.36596 -0.286121,0.69438 v 0 0 q -0.195332,0.32842 -0.563989,0.52548 v 0 0 q -0.368656,0.19705 -0.869368,0.19705 v 0 z m 0.478703,-0.50672 h 0.610758 v 0 q 0.341144,0 0.597003,-0.147 v 0 0 q 0.255858,-0.14701 0.393417,-0.40036 v 0 0 q 0.137558,-0.25336 0.200834,-0.53486 v 0 0 q 0.06328,-0.28151 0.06328,-0.60055 v 0 0 q 0,-0.45041 -0.115549,-0.8195 v 0 0 q -0.115549,-0.36908 -0.396167,-0.61931 v 0 0 q -0.280619,-0.25022 -0.682289,-0.25022 v 0 h -0.671284 z"/>
   <path fill="url(#linearGradient1071)" d="m 18.284217,286.69072 h -2.41002 v -4.37898 h 2.288969 v 0.51297 h -1.810267 v 1.34497 h 1.194006 v 0.51297 h -1.194006 v 1.48885 h 1.931318 z"/>
  </g>
  <path fill="url(#linearGradient1143)" d="m 19.250637,279.62574 0.04762,-0.43654 v 0 q 0.309547,-0.0476 0.424636,-0.19049 v 0 0 q 0.115088,-0.14287 0.115088,-0.48416 v 0 -3.19866 0 q 0,-0.25399 -0.05556,-0.3413 v 0 0 q -0.05556,-0.0873 -0.230177,-0.0873 v 0 0 q -0.07937,0 -0.154773,0.008 v 0 0 q -0.0754,0.008 -0.09921,0.008 v 0 l -0.03175,-0.0476 0.05556,-0.39686 0.222239,0.008 0.746088,0.008 v 0 q 0.214302,0 0.559566,-0.0278 v 0 0 q 0.345265,-0.0278 0.456384,-0.0357 v 0 l -0.03969,0.44448 v 0 q -0.269862,0.0317 -0.377013,0.0952 v 0 0 q -0.107151,0.0635 -0.138899,0.17462 v 0 0 q -0.03175,0.11112 -0.04762,0.39686 v 0 0 q -0.09524,1.40486 -0.09524,3.00022 v 0 0 q 0,0.25399 0.04365,0.36511 v 0 0 q 0.04365,0.11112 0.166679,0.1508 v 0 0 q 0.123026,0.0397 0.392887,0.0397 v 0 0 q 0.436541,0 0.650843,-0.0833 v 0 0 q 0.214302,-0.0833 0.321453,-0.32145 v 0 0 q 0.107151,-0.23812 0.186522,-0.76196 v 0 l 0.484164,-0.0476 0.03969,0.0556 v 0 q -0.02381,0.13493 -0.09921,0.61513 v 0 0 q -0.0754,0.48019 -0.123025,1.01992 v 0 l -0.05556,0.0635 v 0 q -0.222239,-0.0159 -0.940548,-0.0436 v 0 0 q -0.718308,-0.0278 -1.23422,-0.0278 v 0 0 q -0.404793,0 -0.750057,0.0317 v 0 0 q -0.345264,0.0317 -0.44051,0.0476 z m 6.643361,0.0159 v 0 q -0.682592,0 -0.746089,-0.62704 v 0 l -0.04762,-0.0159 v 0 q -0.277798,0.2778 -0.511943,0.44448 v 0 0 q -0.234145,0.16668 -0.361139,0.16668 v 0 0 q -0.452415,0 -0.750056,-0.30161 v 0 0 q -0.297642,-0.30161 -0.297642,-0.75403 v 0 0 q 0,-0.24605 0.119057,-0.42067 v 0 0 q 0.119056,-0.17461 0.317484,-0.23017 v 0 l 1.515988,-0.38892 0.0079,-0.2778 v 0 q 0,-0.37304 -0.182554,-0.57941 v 0 0 q -0.182553,-0.20636 -0.507975,-0.20636 v 0 0 q -0.214302,0 -0.460352,0.10318 v 0 0 q -0.24605,0.10318 -0.484164,0.28574 v 0 l -0.04762,-0.0318 -0.119056,-0.39686 v 0 q 0.373044,-0.22224 0.781805,-0.40082 v 0 0 q 0.408761,-0.17859 0.591314,-0.17859 v 0 0 q 0.579409,0 0.888957,0.28177 v 0 0 q 0.309547,0.28177 0.309547,0.76593 v 0 0 q 0,0.0953 -0.0635,0.71434 v 0 0 q -0.08731,0.84133 -0.08731,1.02389 v 0 0 q 0,0.15874 0.07937,0.25399 v 0 0 q 0.07937,0.0952 0.230176,0.0952 v 0 0 q 0.11112,0 0.234145,-0.0556 v 0 0 q 0.123025,-0.0556 0.194459,-0.11906 v 0 l 0.119056,0.15081 v 0 q -0.126993,0.22224 -0.325421,0.4286 v 0 0 q -0.198427,0.20637 -0.396855,0.26987 z m -1.460428,-0.66672 v 0 q 0.13493,0 0.317484,-0.0913 v 0 0 q 0.182553,-0.0913 0.333359,-0.22621 v 0 l 0.03175,-0.77783 -0.968328,0.2778 v 0 q -0.214302,0.0714 -0.214302,0.30161 v 0 0 q 0,0.22223 0.1389,0.36907 v 0 0 q 0.138899,0.14684 0.361138,0.14684 z m 4.80195,0.25399 v 0 q 0.214303,-0.0635 0.309548,-0.17462 v 0 0 q 0.09525,-0.11112 0.09525,-0.30955 v 0 l 0.03175,-1.48424 v 0 q 0,-0.37304 -0.150805,-0.5675 v 0 0 q -0.150806,-0.19446 -0.444479,-0.19446 v 0 0 q -0.365107,0 -0.849271,0.35717 v 0 0 q -0.02381,0.50004 -0.03175,0.65084 v 0 0 q -0.04762,1.01595 -0.04762,1.23025 v 0 0 q 0,0.22224 0.05953,0.31352 v 0 0 q 0.05953,0.0913 0.210334,0.0913 v 0 0 q 0.07143,0 0.146836,-0.008 v 0 0 q 0.0754,-0.008 0.09921,-0.008 v 0 l 0.01587,0.0318 -0.07143,0.41273 v 0 q -0.07937,-0.008 -0.305578,-0.0159 v 0 0 q -0.226208,-0.008 -0.472258,-0.008 v 0 0 q -0.230176,0 -0.504007,0.0198 v 0 0 q -0.27383,0.0199 -0.353201,0.0278 v 0 l 0.05556,-0.40479 v 0 q 0.230176,-0.0317 0.321453,-0.13096 v 0 0 q 0.09128,-0.0992 0.09128,-0.32146 v 0 -1.82553 0 q 0,-0.26986 -0.08334,-0.37304 v 0 0 q -0.08334,-0.10319 -0.297642,-0.10319 v 0 h -0.09525 l -0.03175,-0.0397 0.03175,-0.32542 v 0 q 0.388919,-0.0556 0.773868,-0.1389 v 0 0 q 0.38495,-0.0833 0.49607,-0.10715 v 0 l 0.05556,0.0714 v 0 q -0.01587,0.0476 -0.04762,0.20636 v 0 0 q -0.03175,0.15875 -0.03969,0.32543 v 0 l 0.02381,0.0317 v 0 q 0.222239,-0.18255 0.587346,-0.40479 v 0 0 q 0.365107,-0.22224 0.515912,-0.22224 v 0 0 q 0.531786,0 0.833396,0.27383 v 0 0 q 0.301611,0.27383 0.301611,0.75006 v 0 0 q 0,0.19049 -0.05556,0.77784 v 0 0 q -0.07143,0.92864 -0.07143,1.09533 v 0 0 q 0,0.22224 0.0635,0.32145 v 0 0 q 0.0635,0.0992 0.206365,0.0992 v 0 0 q 0.07937,0 0.154773,-0.008 v 0 0 q 0.0754,-0.008 0.107151,-0.008 v 0 l 0.01587,0.0317 -0.07143,0.40479 v 0 q -0.07937,-0.008 -0.30161,-0.0159 v 0 0 q -0.222239,-0.008 -0.468289,-0.008 v 0 0 q -0.206365,0 -0.484164,0.0317 v 0 0 q -0.277799,0.0317 -0.365107,0.0476 v 0 z m 5.651222,-3.01611 -0.634968,0.0635 -0.03175,0.0397 v 0 q 0.317485,0.34923 0.317485,0.80164 v 0 0 q 0,0.38892 -0.214302,0.71038 v 0 0 q -0.214302,0.32145 -0.587346,0.50797 v 0 0 q -0.373045,0.18652 -0.82546,0.18652 v 0 0 q -0.24605,0 -0.484163,-0.0635 v 0 0 q -0.269862,0.18255 -0.269862,0.32542 v 0 0 q 0,0.16668 0.238113,0.23414 v 0 0 q 0.238113,0.0675 0.754026,0.12303 v 0 0 q 0.523849,0.0635 0.853239,0.13493 v 0 0 q 0.32939,0.0714 0.567503,0.25002 v 0 0 q 0.238113,0.17858 0.238113,0.504 v 0 0 q 0,0.35717 -0.289704,0.69053 v 0 0 q -0.289705,0.33336 -0.757994,0.53973 v 0 0 q -0.46829,0.20636 -0.976265,0.20636 v 0 0 q -0.595283,0 -0.944516,-0.28969 v 0 0 q -0.349232,-0.28972 -0.349232,-0.78976 v 0 0 q 0.103182,-0.12699 0.321453,-0.30954 v 0 0 q 0.21827,-0.18256 0.46432,-0.34924 v 0 -0.0476 0 q -0.396855,-0.0714 -0.611157,-0.27383 v 0 0 q -0.214302,-0.2024 -0.230176,-0.51988 v 0 0 q 0.30161,-0.30161 0.65878,-0.52385 v 0 -0.0397 0 q -0.285736,-0.16668 -0.44051,-0.43258 v 0 0 q -0.154773,-0.26589 -0.154773,-0.60719 v 0 0 q 0,-0.40479 0.206365,-0.73815 v 0 0 q 0.206364,-0.33337 0.563534,-0.52783 v 0 0 q 0.35717,-0.19445 0.785774,-0.19445 v 0 0 q 0.174617,0 0.460353,0.0476 v 0 0 q 0.198427,0.0397 0.333358,0.0397 v 0 0 q 0.341296,-0.0397 1.103258,-0.25398 v 0 l 0.03175,0.0397 z m -1.817598,1.8811 v 0 q 0.333359,0 0.515913,-0.2143 v 0 0 q 0.182553,-0.21431 0.182553,-0.60322 v 0 0 q 0,-0.42861 -0.21827,-0.6945 v 0 0 q -0.218271,-0.26589 -0.583378,-0.26589 v 0 0 q -0.325421,0 -0.511944,0.21827 v 0 0 q -0.186522,0.21827 -0.186522,0.61512 v 0 0 q 0,0.42861 0.218271,0.68656 v 0 0 q 0.21827,0.25796 0.583377,0.25796 z m -0.380981,1.66679 v 0 q -0.19049,0.14287 -0.297641,0.32145 v 0 0 q -0.107151,0.17859 -0.107151,0.35321 v 0 0 q 0,0.25398 0.210333,0.40479 v 0 0 q 0.210333,0.1508 0.57544,0.1508 v 0 0 q 0.277799,0 0.52385,-0.0952 v 0 0 q 0.24605,-0.0953 0.388918,-0.25399 v 0 0 q 0.142868,-0.15874 0.142868,-0.34923 v 0 0 q 0,-0.14287 -0.107151,-0.22621 v 0 0 q -0.107151,-0.0833 -0.404793,-0.1508 v 0 0 q -0.297641,-0.0675 -0.924673,-0.15478 z m 3.039913,-2.92879 v 0 q 0,-0.41273 -0.277799,-0.41273 v 0 0 q -0.07143,0 -0.130962,0.008 v 0 0 q -0.05953,0.008 -0.0754,0.0159 v 0 l 0.03969,-0.36511 v 0 q 0.35717,-0.0556 0.757994,-0.1389 v 0 0 q 0.400824,-0.0833 0.519881,-0.10715 v 0 l 0.05556,0.11112 v 0 q -0.07937,0.19843 -0.142868,0.90086 v 0 0 q -0.0635,0.70244 -0.0635,1.40884 v 0 0 q 0,0.36511 0.1389,0.53972 v 0 0 q 0.138899,0.17462 0.432572,0.17462 v 0 0 q 0.206365,0 0.392887,-0.0992 v 0 0 q 0.186522,-0.0992 0.448447,-0.28177 v 0 -1.74616 0 q 0,-0.23812 -0.08334,-0.32543 v 0 0 q -0.08334,-0.0873 -0.297641,-0.0873 v 0 l -0.158743,0.008 0.03969,-0.3651 v 0 q 0.388918,-0.0476 0.805617,-0.127 v 0 0 q 0.416698,-0.0794 0.535755,-0.10318 v 0 l 0.05556,0.11112 v 0 q -0.07937,0.18255 -0.134931,0.96436 v 0 0 q -0.05556,0.7818 -0.05556,1.70251 v 0 0 q 0,0.15874 0.07937,0.25399 v 0 0 q 0.07937,0.0952 0.222239,0.0952 v 0 0 q 0.103182,0 0.198428,-0.0397 v 0 0 q 0.09524,-0.0397 0.158742,-0.0794 v 0 0 q 0.0635,-0.0397 0.07937,-0.0556 v 0 l 0.119056,0.14287 v 0 q -0.03175,0.0476 -0.154773,0.21034 v 0 0 q -0.123025,0.16271 -0.289705,0.32145 v 0 0 q -0.166679,0.15874 -0.309547,0.17462 v 0 0 q -0.682591,0 -0.754025,-0.62704 v 0 l -0.04762,-0.0238 v 0 q -0.349233,0.28574 -0.627032,0.46829 v 0 0 q -0.277798,0.18256 -0.380981,0.18256 v 0 0 q -0.555597,0 -0.845302,-0.24606 v 0 0 q -0.289704,-0.24605 -0.289704,-0.71434 v 0 z m 6.643361,2.80974 v 0 q -0.682592,0 -0.746089,-0.62704 v 0 l -0.04762,-0.0159 v 0 q -0.277799,0.2778 -0.511944,0.44448 v 0 0 q -0.234145,0.16668 -0.361138,0.16668 v 0 0 q -0.452416,0 -0.750057,-0.30161 v 0 0 q -0.297642,-0.30161 -0.297642,-0.75403 v 0 0 q 0,-0.24605 0.119057,-0.42067 v 0 0 q 0.119056,-0.17461 0.317484,-0.23017 v 0 l 1.515988,-0.38892 0.0079,-0.2778 v 0 q 0,-0.37304 -0.182553,-0.57941 v 0 0 q -0.182554,-0.20636 -0.507975,-0.20636 v 0 0 q -0.214302,0 -0.460353,0.10318 v 0 0 q -0.24605,0.10318 -0.484163,0.28574 v 0 l -0.04762,-0.0318 -0.119057,-0.39686 v 0 q 0.373045,-0.22224 0.781806,-0.40082 v 0 0 q 0.408761,-0.17859 0.591314,-0.17859 v 0 0 q 0.579409,0 0.888957,0.28177 v 0 0 q 0.309547,0.28177 0.309547,0.76593 v 0 0 q 0,0.0953 -0.0635,0.71434 v 0 0 q -0.08731,0.84133 -0.08731,1.02389 v 0 0 q 0,0.15874 0.07937,0.25399 v 0 0 q 0.07937,0.0952 0.230176,0.0952 v 0 0 q 0.11112,0 0.234145,-0.0556 v 0 0 q 0.123025,-0.0556 0.194459,-0.11906 v 0 l 0.119057,0.15081 v 0 q -0.126994,0.22224 -0.325422,0.4286 v 0 0 q -0.198428,0.20637 -0.396855,0.26987 z m -1.460429,-0.66672 v 0 q 0.134931,0 0.317485,-0.0913 v 0 0 q 0.182553,-0.0913 0.333358,-0.22621 v 0 l 0.03175,-0.77783 -0.968327,0.2778 v 0 q -0.214302,0.0714 -0.214302,0.30161 v 0 0 q 0,0.22223 0.138899,0.36907 v 0 0 q 0.138899,0.14684 0.361138,0.14684 z m 6.056015,-2.76212 -0.634969,0.0635 -0.03175,0.0397 v 0 q 0.317484,0.34923 0.317484,0.80164 v 0 0 q 0,0.38892 -0.214302,0.71038 v 0 0 q -0.214302,0.32145 -0.587346,0.50797 v 0 0 q -0.373044,0.18652 -0.825459,0.18652 v 0 0 q -0.246051,0 -0.484164,-0.0635 v 0 0 q -0.269862,0.18255 -0.269862,0.32542 v 0 0 q 0,0.16668 0.238114,0.23414 v 0 0 q 0.238113,0.0675 0.754025,0.12303 v 0 0 q 0.523849,0.0635 0.853239,0.13493 v 0 0 q 0.32939,0.0714 0.567504,0.25002 v 0 0 q 0.238113,0.17858 0.238113,0.504 v 0 0 q 0,0.35717 -0.289705,0.69053 v 0 0 q -0.289704,0.33336 -0.757994,0.53973 v 0 0 q -0.468289,0.20636 -0.976264,0.20636 v 0 0 q -0.595283,0 -0.944516,-0.28969 v 0 0 q -0.349233,-0.28972 -0.349233,-0.78976 v 0 0 q 0.103183,-0.12699 0.321453,-0.30954 v 0 0 q 0.218271,-0.18256 0.464321,-0.34924 v 0 -0.0476 0 q -0.396856,-0.0714 -0.611157,-0.27383 v 0 0 q -0.214302,-0.2024 -0.230177,-0.51988 v 0 0 q 0.301611,-0.30161 0.65878,-0.52385 v 0 -0.0397 0 q -0.285736,-0.16668 -0.440509,-0.43258 v 0 0 q -0.154774,-0.26589 -0.154774,-0.60719 v 0 0 q 0,-0.40479 0.206365,-0.73815 v 0 0 q 0.206365,-0.33337 0.563535,-0.52783 v 0 0 q 0.35717,-0.19445 0.785774,-0.19445 v 0 0 q 0.174616,0 0.460352,0.0476 v 0 0 q 0.198428,0.0397 0.333359,0.0397 v 0 0 q 0.341295,-0.0397 1.103258,-0.25398 v 0 l 0.03175,0.0397 z m -1.817598,1.8811 v 0 q 0.333358,0 0.515912,-0.2143 v 0 0 q 0.182554,-0.21431 0.182554,-0.60322 v 0 0 q 0,-0.42861 -0.218271,-0.6945 v 0 0 q -0.218271,-0.26589 -0.583378,-0.26589 v 0 0 q -0.325421,0 -0.511943,0.21827 v 0 0 q -0.186522,0.21827 -0.186522,0.61512 v 0 0 q 0,0.42861 0.21827,0.68656 v 0 0 q 0.218271,0.25796 0.583378,0.25796 z m -0.380981,1.66679 v 0 q -0.190491,0.14287 -0.297642,0.32145 v 0 0 q -0.107151,0.17859 -0.107151,0.35321 v 0 0 q 0,0.25398 0.210333,0.40479 v 0 0 q 0.210334,0.1508 0.575441,0.1508 v 0 0 q 0.277799,0 0.523849,-0.0952 v 0 0 q 0.24605,-0.0953 0.388918,-0.25399 v 0 0 q 0.142868,-0.15874 0.142868,-0.34923 v 0 0 q 0,-0.14287 -0.107151,-0.22621 v 0 0 q -0.107151,-0.0833 -0.404792,-0.1508 v 0 0 q -0.297642,-0.0675 -0.924673,-0.15478 z m 4.341598,-0.11905 v 0 q -0.79371,0 -1.262,-0.48814 v 0 0 q -0.468289,-0.48813 -0.468289,-1.29771 v 0 0 q 0,-0.54766 0.242081,-1.01199 v 0 0 q 0.242082,-0.46432 0.658781,-0.73815 v 0 0 q 0.416698,-0.27383 0.908799,-0.27383 v 0 0 q 0.619094,0 0.936578,0.31352 v 0 0 q 0.317485,0.31351 0.317485,0.92467 v 0 0 q 0,0.24605 -0.04762,0.42067 v 0 l -0.103182,0.0873 h -2.127146 v 0 q 0,0.68259 0.289705,1.0477 v 0 0 q 0.289704,0.3651 0.821491,0.3651 v 0 0 q 0.444478,0 0.952453,-0.23811 v 0 l 0.04762,0.0238 0.111119,0.30161 v 0 q -0.285736,0.2143 -0.650843,0.38892 v 0 0 q -0.365107,0.17462 -0.627032,0.17462 z m -0.928641,-2.42082 1.277874,-0.0635 v 0 q 0.103183,-0.008 0.1389,-0.0476 v 0 0 q 0.03572,-0.0397 0.03572,-0.15081 v 0 0 q 0,-0.30161 -0.150805,-0.46432 v 0 0 q -0.150805,-0.16271 -0.436541,-0.16271 v 0 0 q -0.341296,0 -0.575441,0.23415 v 0 0 q -0.234145,0.23414 -0.289704,0.65481 z m -22.215969,-9.93726 0.03969,0.0556 v 0 q -0.142868,0.62703 -0.222239,1.39693 v 0 l -0.05556,0.0635 v 0 q -1.595359,-0.0556 -2.428756,-0.0556 v 0 0 q -0.627032,0 -1.222315,0.0794 v 0 l 0.04762,-0.43655 v 0 q 0.349233,-0.0476 0.476227,-0.19049 v 0 0 q 0.126994,-0.14286 0.126994,-0.48416 v 0 l 0.0079,-3.19866 v 0 q 0,-0.25398 -0.05556,-0.34129 v 0 0 q -0.05556,-0.0873 -0.222239,-0.0873 v 0 l -0.261925,0.0159 -0.03175,-0.0476 0.0635,-0.40479 v 0 q 0.928642,0.0238 1.254063,0.0238 v 0 0 q 0.920705,0 1.472334,-0.0198 v 0 0 q 0.551629,-0.0198 0.924673,-0.0754 v 0 l 0.03969,0.0635 v 0 q -0.0635,0.29368 -0.115088,0.67466 v 0 0 q -0.05159,0.38098 -0.06746,0.69846 v 0 l -0.531786,0.0397 0.01587,-0.33336 v 0 q 0,-0.25399 -0.07143,-0.36114 v 0 0 q -0.07143,-0.10715 -0.289705,-0.14287 v 0 0 q -0.21827,-0.0357 -0.757994,-0.0357 v 0 0 q -0.24605,0 -0.341295,0.0159 v 0 0 q -0.09524,0.0159 -0.123026,0.0754 v 0 0 q -0.02778,0.0595 -0.03572,0.2024 v 0 l -0.0635,1.40487 0.785774,0.008 v 0 q 0.174617,0 0.44051,-0.0238 v 0 0 q 0.265893,-0.0238 0.511943,-0.0556 v 0 l 0.03969,0.0556 -0.111119,0.56354 v 0 q -0.833397,-0.0238 -1.07151,-0.0238 v 0 0 q -0.230176,0 -0.611158,0.0476 v 0 l -0.02381,1.34931 v 0 q 0,0.22224 0.03572,0.31748 v 0 0 q 0.03572,0.0952 0.146837,0.127 v 0 0 q 0.11112,0.0317 0.388918,0.0317 v 0 0 q 0.595284,0 0.857208,-0.0635 v 0 0 q 0.261925,-0.0635 0.373044,-0.25002 v 0 0 q 0.11112,-0.18652 0.174617,-0.631 v 0 z m 2.793862,1.14294 v 0 q 0.214302,-0.0635 0.309547,-0.17462 v 0 0 q 0.09525,-0.11112 0.09525,-0.30954 v 0 l 0.03175,-1.48424 v 0 q 0,-0.37305 -0.150805,-0.56751 v 0 0 q -0.150805,-0.19446 -0.444478,-0.19446 v 0 0 q -0.365107,0 -0.849271,0.35717 v 0 0 q -0.02381,0.50004 -0.03175,0.65085 v 0 0 q -0.04762,1.01595 -0.04762,1.23025 v 0 0 q 0,0.22224 0.05953,0.31351 v 0 0 q 0.05953,0.0913 0.210334,0.0913 v 0 0 q 0.07143,0 0.146836,-0.008 v 0 0 q 0.0754,-0.008 0.09921,-0.008 v 0 l 0.01587,0.0317 -0.07143,0.41273 v 0 q -0.07937,-0.008 -0.305579,-0.0159 v 0 0 q -0.226207,-0.008 -0.472258,-0.008 v 0 0 q -0.230176,0 -0.504006,0.0198 v 0 0 q -0.27383,0.0198 -0.353201,0.0278 v 0 l 0.05556,-0.4048 v 0 q 0.230176,-0.0317 0.321453,-0.13096 v 0 0 q 0.09128,-0.0992 0.09128,-0.32145 v 0 -1.82554 0 q 0,-0.26986 -0.08334,-0.37304 v 0 0 q -0.08334,-0.10318 -0.297642,-0.10318 v 0 h -0.09525 l -0.03175,-0.0397 0.03175,-0.32542 v 0 q 0.388918,-0.0556 0.773868,-0.1389 v 0 0 q 0.38495,-0.0833 0.496069,-0.10715 v 0 l 0.05556,0.0714 v 0 q -0.01587,0.0476 -0.04762,0.20637 v 0 0 q -0.03175,0.15874 -0.03969,0.32542 v 0 l 0.02381,0.0318 v 0 q 0.22224,-0.18256 0.587347,-0.40479 v 0 0 q 0.365107,-0.22224 0.515912,-0.22224 v 0 0 q 0.531787,0 0.833397,0.27383 v 0 0 q 0.30161,0.27383 0.30161,0.75005 v 0 0 q 0,0.19049 -0.05556,0.77784 v 0 0 q -0.07143,0.92864 -0.07143,1.09532 v 0 0 q 0,0.22224 0.0635,0.32145 v 0 0 q 0.0635,0.0992 0.206365,0.0992 v 0 0 q 0.07937,0 0.154774,-0.008 v 0 0 q 0.0754,-0.008 0.107151,-0.008 v 0 l 0.01587,0.0318 -0.07143,0.4048 v 0 q -0.07937,-0.008 -0.30161,-0.0159 v 0 0 q -0.222239,-0.008 -0.46829,-0.008 v 0 0 q -0.206365,0 -0.484164,0.0317 v 0 0 q -0.277799,0.0318 -0.365107,0.0476 v 0 z m 5.651222,-3.0161 -0.634969,0.0635 -0.03175,0.0397 v 0 q 0.317484,0.34923 0.317484,0.80165 v 0 0 q 0,0.38892 -0.214302,0.71037 v 0 0 q -0.214302,0.32145 -0.587346,0.50797 v 0 0 q -0.373044,0.18653 -0.825459,0.18653 v 0 0 q -0.246051,0 -0.484164,-0.0635 v 0 0 q -0.269862,0.18255 -0.269862,0.32542 v 0 0 q 0,0.16668 0.238114,0.23415 v 0 0 q 0.238113,0.0675 0.754025,0.12302 v 0 0 q 0.523849,0.0635 0.853239,0.13493 v 0 0 q 0.32939,0.0714 0.567504,0.25002 v 0 0 q 0.238113,0.17859 0.238113,0.50401 v 0 0 q 0,0.35717 -0.289705,0.69053 v 0 0 q -0.289704,0.33335 -0.757994,0.53972 v 0 0 q -0.468289,0.20636 -0.976264,0.20636 v 0 0 q -0.595283,0 -0.944516,-0.2897 v 0 0 q -0.349233,-0.2897 -0.349233,-0.78974 v 0 0 q 0.103183,-0.127 0.321453,-0.30955 v 0 0 q 0.218271,-0.18255 0.464321,-0.34923 v 0 -0.0476 0 q -0.396856,-0.0714 -0.611158,-0.27383 v 0 0 q -0.214301,-0.20239 -0.230176,-0.51988 v 0 0 q 0.30161,-0.30161 0.65878,-0.52385 v 0 -0.0397 0 q -0.285736,-0.16668 -0.440509,-0.43257 v 0 0 q -0.154774,-0.2659 -0.154774,-0.60719 v 0 0 q 0,-0.40479 0.206365,-0.73815 v 0 0 q 0.206365,-0.33336 0.563535,-0.52782 v 0 0 q 0.35717,-0.19446 0.785774,-0.19446 v 0 0 q 0.174616,0 0.460352,0.0476 v 0 0 q 0.198428,0.0397 0.333359,0.0397 v 0 0 q 0.341295,-0.0397 1.103258,-0.25399 v 0 l 0.03175,0.0397 z m -1.817598,1.88109 v 0 q 0.333358,0 0.515912,-0.2143 v 0 0 q 0.182553,-0.2143 0.182553,-0.60322 v 0 0 q 0,-0.4286 -0.21827,-0.6945 v 0 0 q -0.218271,-0.26589 -0.583378,-0.26589 v 0 0 q -0.325421,0 -0.511943,0.21827 v 0 0 q -0.186522,0.21827 -0.186522,0.61513 v 0 0 q 0,0.4286 0.21827,0.68656 v 0 0 q 0.218271,0.25795 0.583378,0.25795 z m -0.380981,1.6668 v 0 q -0.190491,0.14286 -0.297642,0.32145 v 0 0 q -0.107151,0.17858 -0.107151,0.3532 v 0 0 q 0,0.25399 0.210333,0.40479 v 0 0 q 0.210334,0.15081 0.575441,0.15081 v 0 0 q 0.277799,0 0.523849,-0.0952 v 0 0 q 0.24605,-0.0952 0.388918,-0.25398 v 0 0 q 0.142868,-0.15875 0.142868,-0.34924 v 0 0 q 0,-0.14287 -0.107151,-0.22621 v 0 0 q -0.107151,-0.0833 -0.404792,-0.1508 v 0 0 q -0.297642,-0.0675 -0.924673,-0.15477 z m 2.555749,-0.127 0.04762,-0.40479 v 0 q 0.198428,-0.0476 0.289705,-0.13493 v 0 0 q 0.09128,-0.0873 0.11112,-0.21827 v 0 0 q 0.01984,-0.13096 0.01984,-0.40083 v 0 -3.79393 0 q 0,-0.25399 -0.05953,-0.3413 v 0 0 q -0.05953,-0.0873 -0.250019,-0.0873 v 0 0 q -0.11112,0 -0.182554,0.008 v 0 l -0.03175,-0.0238 0.03969,-0.3413 v 0 q 0.714339,-0.0873 1.37312,-0.23811 v 0 l 0.04762,0.12699 v 0 q -0.09525,0.19049 -0.162711,1.65886 v 0 0 q -0.06746,1.46836 -0.06746,3.30184 v 0 0 q 0,0.2143 0.05953,0.30954 v 0 0 q 0.05953,0.0952 0.202397,0.0952 v 0 l 0.269861,-0.0159 0.01587,0.0397 -0.07143,0.39686 v 0 q -0.103183,0 -0.16668,-0.008 v 0 0 q -0.396855,-0.0159 -0.627031,-0.0159 v 0 0 q -0.349233,0 -0.857208,0.0873 z m 2.119208,0.008 0.04762,-0.40479 v 0 q 0.238113,-0.0635 0.341295,-0.17859 v 0 0 q 0.103183,-0.11509 0.103183,-0.32939 v 0 -1.88109 0 q 0,-0.23018 -0.07143,-0.33336 v 0 0 q -0.07143,-0.10318 -0.238113,-0.10318 v 0 0 q -0.04762,0 -0.11112,0.0119 v 0 0 q -0.0635,0.0119 -0.07937,0.0198 v 0 l 0.03175,-0.3651 v 0 q 0.388919,-0.0556 0.789743,-0.1389 v 0 0 q 0.400824,-0.0833 0.51988,-0.10715 v 0 l 0.05556,0.11112 v 0 q -0.07937,0.16668 -0.130962,0.98817 v 0 0 q -0.05159,0.82149 -0.05159,1.81363 v 0 0 q 0,0.2143 0.05953,0.30557 v 0 0 q 0.05953,0.0913 0.202396,0.0913 v 0 0 q 0.07937,0 0.154774,-0.008 v 0 0 q 0.0754,-0.008 0.09921,-0.008 v 0 l 0.01587,0.0397 -0.0635,0.4048 v 0 q -0.07937,-0.008 -0.305579,-0.0159 v 0 0 q -0.226207,-0.008 -0.480195,-0.008 v 0 0 q -0.222239,0 -0.511943,0.0397 v 0 0 q -0.289705,0.0397 -0.377013,0.0556 z m 0.793711,-4.62734 v 0 q -0.222239,0 -0.341296,-0.13493 v 0 0 q -0.119056,-0.13493 -0.119056,-0.34129 v 0 0 q 0,-0.23812 0.150805,-0.39289 v 0 0 q 0.150805,-0.15477 0.388918,-0.15477 v 0 0 q 0.214302,0 0.337327,0.13493 v 0 0 q 0.123025,0.13493 0.123025,0.34129 v 0 0 q 0,0.23812 -0.150805,0.39289 v 0 0 q -0.150805,0.15477 -0.388918,0.15477 z m 2.547812,4.62734 v 0 q -0.269862,0 -0.488132,-0.0436 v 0 0 q -0.218271,-0.0437 -0.345264,-0.0873 v 0 0 q -0.126994,-0.0437 -0.158743,-0.0595 v 0 l -0.03175,-0.0635 v 0 q 0.02381,-0.1508 0.05556,-0.504 v 0 0 q 0.03175,-0.35321 0.03968,-0.55163 v 0 l 0.349233,-0.0397 v 0 q 0.0079,0.46829 0.182554,0.67466 v 0 0 q 0.174616,0.20636 0.563534,0.20636 v 0 0 q 0.261925,0 0.444478,-0.11906 v 0 0 q 0.182554,-0.11905 0.182554,-0.29367 v 0 0 q 0,-0.18255 -0.174616,-0.32939 v 0 0 q -0.174617,-0.14684 -0.690529,-0.40876 v 0 0 q -0.460352,-0.23018 -0.670686,-0.47226 v 0 0 q -0.210333,-0.24208 -0.210333,-0.55163 v 0 0 q 0,-0.33336 0.198428,-0.59925 v 0 0 q 0.198427,-0.26589 0.551629,-0.4167 v 0 0 q 0.353201,-0.1508 0.789742,-0.1508 v 0 0 q 0.206365,0 0.392887,0.0318 v 0 0 q 0.186522,0.0317 0.30161,0.0635 v 0 0 q 0.115088,0.0317 0.146837,0.0397 v 0 l 0.02381,0.0556 v 0 q -0.01587,0.0794 -0.07143,0.37304 v 0 0 q -0.05556,0.29367 -0.07937,0.6191 v 0 l -0.365107,0.0317 v 0 q 0,-0.0238 0.0079,-0.0794 v 0 0 q 0.0079,-0.0556 0.0079,-0.11112 v 0 0 q 0,-0.28573 -0.146836,-0.41669 v 0 0 q -0.146837,-0.13097 -0.456384,-0.13097 v 0 0 q -0.246051,0 -0.41273,0.11509 v 0 0 q -0.166679,0.11509 -0.166679,0.28177 v 0 0 q 0,0.17462 0.146836,0.32145 v 0 0 q 0.146837,0.14684 0.480196,0.32145 v 0 0 q 0.444478,0.22224 0.690528,0.39686 v 0 0 q 0.24605,0.17462 0.345264,0.34526 v 0 0 q 0.09921,0.17065 0.09921,0.39289 v 0 0 q 0,0.30955 -0.206365,0.57544 v 0 0 q -0.206365,0.26589 -0.559566,0.42464 v 0 0 q -0.353201,0.15874 -0.765931,0.15874 z m 2.111271,-0.47623 v 0 q 0.222239,-0.0238 0.309547,-0.11509 v 0 0 q 0.08731,-0.0913 0.08731,-0.31351 v 0 -4.05586 0 q 0,-0.23018 -0.07143,-0.32939 v 0 0 q -0.07143,-0.0992 -0.246051,-0.0992 v 0 h -0.166679 l -0.03969,-0.0317 0.03969,-0.32542 v 0 q 0.627032,-0.0714 1.37312,-0.23811 v 0 l 0.04762,0.12699 v 0 q -0.0635,0.0873 -0.115089,0.82149 v 0 0 q -0.05159,0.73419 -0.08334,1.86919 v 0 0 q 0.222239,-0.19049 0.587346,-0.4167 v 0 0 q 0.365107,-0.2262 0.539723,-0.2262 v 0 0 q 0.547661,0 0.841334,0.26589 v 0 0 q 0.293673,0.26589 0.293673,0.75799 v 0 0 q 0,0.19049 -0.05556,0.77784 v 0 0 q -0.07937,0.82546 -0.07937,1.09532 v 0 0 q 0,0.22224 0.05953,0.32145 v 0 0 q 0.05953,0.0992 0.202397,0.0992 v 0 l 0.261924,-0.0159 0.01588,0.0318 -0.0635,0.4048 v 0 q -0.619095,-0.0238 -0.777837,-0.0238 v 0 0 q -0.35717,0 -0.849271,0.0794 v 0 l 0.03969,-0.39686 v 0 q 0.222239,-0.0635 0.317484,-0.17462 v 0 0 q 0.09525,-0.11112 0.09525,-0.30954 v 0 l 0.03969,-1.48424 v 0 q 0,-0.37305 -0.150805,-0.56751 v 0 0 q -0.150805,-0.19446 -0.444478,-0.19446 v 0 0 q -0.166679,0 -0.420667,0.11112 v 0 0 q -0.253987,0.11112 -0.460352,0.2778 v 0 0 q -0.02381,0.79371 -0.02381,1.84935 v 0 0 q 0,0.22224 0.05953,0.31351 v 0 0 q 0.05953,0.0913 0.202396,0.0913 v 0 l 0.24605,-0.008 0.01588,0.0318 -0.07143,0.4048 v 0 q -0.619095,-0.0238 -0.785774,-0.0238 v 0 0 q -0.452415,0 -0.82546,0.0238 v 0 z m -8.553558,-9.90154 v 0 q -0.26457,0 -0.428604,-0.23811 v 0 0 q -0.164034,-0.23812 -0.164034,-0.62968 v 0 0 q 0,-0.42861 0.16668,-0.80959 v 0 0 q 0.166679,-0.38098 0.444478,-0.61115 v 0 0 q 0.277799,-0.23018 0.589992,-0.23018 v 0 0 q 0.280444,0 0.441832,0.20901 v 0 0 q 0.161388,0.20901 0.161388,0.57941 v 0 0 q 0,0.46035 -0.164034,0.85721 v 0 0 q -0.164033,0.39685 -0.444478,0.63497 v 0 0 q -0.280444,0.23811 -0.60322,0.23811 z m 0.211656,-0.29103 v 0 q 0.174617,0 0.312193,-0.14816 v 0 0 q 0.137577,-0.14816 0.214302,-0.41008 v 0 0 q 0.07673,-0.26193 0.07673,-0.58999 v 0 0 q 0,-0.35453 -0.113766,-0.55825 v 0 0 q -0.113765,-0.20372 -0.314838,-0.20372 v 0 0 q -0.169325,0 -0.306902,0.14023 v 0 0 q -0.137577,0.14022 -0.214302,0.38362 v 0 0 q -0.07673,0.24341 -0.07673,0.54502 v 0 0 q 0,0.3704 0.119056,0.60586 v 0 0 q 0.119057,0.23547 0.304257,0.23547 z m 1.344017,-1.94194 0.02117,-0.15346 0.418021,-0.0635 0.04762,-0.42331 v 0 q 0.03704,-0.31749 0.195782,-0.57148 v 0 0 q 0.158742,-0.25398 0.399501,-0.3995 v 0 0 q 0.240759,-0.14551 0.521203,-0.14551 v 0 0 q 0.137577,0 0.285736,0.0212 v 0 0 q 0.14816,0.0212 0.248697,0.0582 v 0 l 0.02116,0.0582 -0.164033,0.33335 -0.100537,0.0159 v 0 q -0.296319,-0.17462 -0.523849,-0.17462 v 0 0 q -0.418021,0 -0.492101,0.60322 v 0 l -0.07937,0.63497 0.767254,-0.005 0.02116,0.0159 -0.04233,0.21166 -0.719631,-0.005 -0.05291,0.0317 -0.275153,2.524 v 0 q -0.04762,0.41802 -0.264571,0.65084 v 0 0 q -0.216947,0.23282 -0.555597,0.23282 v 0 0 q -0.164034,0 -0.301611,-0.0688 v 0 0 q -0.137576,-0.0688 -0.174616,-0.17461 v 0 0 q 0.02117,-0.09 0.07937,-0.23018 v 0 0 q 0.05821,-0.14022 0.100537,-0.2143 v 0 h 0.07408 v 0 q -0.0053,0.19578 0.09789,0.31748 v 0 0 q 0.103182,0.12171 0.272507,0.12171 v 0 0 q 0.137577,0 0.248696,-0.11906 v 0 0 q 0.11112,-0.11906 0.132285,-0.29896 v 0 0 q 0.02646,-0.21166 0.04762,-0.61381 v 0 l 0.01587,-0.30161 0.148159,-1.79908 -0.03704,-0.0265 -0.365107,-0.0159 z m -13.501552,-6.75316 v 0 q -0.105828,-0.0132 -0.43998,-0.0463 v 0 0 q -0.333888,-0.0331 -0.578615,-0.0331 v 0 0 q -0.224885,0 -0.515912,0.023 v 0 0 q -0.291028,0.0233 -0.377013,0.0365 v 0 l 0.05291,-0.52253 v 0 q 0.271184,-0.0463 0.363784,-0.15874 v 0 0 q 0.0926,-0.11245 0.0926,-0.39024 v 0 -2.38775 0 q 0,-0.21166 -0.03969,-0.28441 v 0 0 q -0.03969,-0.0728 -0.152128,-0.0728 v 0 0 q -0.07276,0 -0.132285,0.007 v 0 0 q -0.05953,0.007 -0.07937,0.007 v 0 l -0.05291,-0.0728 0.05953,-0.463 v 0 q 0.105828,0 0.380188,0.01 v 0 0 q 0.274624,0.0101 0.525965,0.0101 v 0 0 q 0.297642,0 0.621741,-0.0132 v 0 0 q 0.324098,-0.0132 0.449769,-0.0198 v 0 0 q 1.02521,0 1.574193,0.51248 v 0 0 q 0.548984,0.51273 0.548984,1.4718 v 0 0 q 0,0.70773 -0.287853,1.2501 v 0 0 q -0.287588,0.54236 -0.810114,0.84001 v 0 0 q -0.522526,0.29764 -1.203795,0.29764 z m -0.125671,-3.69076 v 0 q -0.0926,0 -0.12567,0.0362 v 0 0 q -0.03307,0.0365 -0.03969,0.12911 v 0 0 q -0.07937,1.38899 -0.07937,2.43405 v 0 0 q 0,0.24472 0.08255,0.32727 v 0 0 q 0.08281,0.0828 0.334152,0.0828 v 0 0 q 0.515912,0 0.767254,-0.36061 v 0 0 q 0.251342,-0.36034 0.251342,-1.12098 v 0 0 q 0,-0.82017 -0.281239,-1.17417 v 0 0 q -0.280973,-0.35373 -0.909328,-0.35373 z m 2.645704,3.68414 0.06614,-0.49607 v 0 q 0.191813,-0.0264 0.284413,-0.12249 v 0 0 q 0.0926,-0.0958 0.0926,-0.28098 v 0 -1.29639 0 q 0,-0.21827 -0.06297,-0.29764 v 0 0 q -0.0627,-0.0794 -0.234674,-0.0794 v 0 0 q -0.0463,0 -0.0926,0.01 v 0 0 q -0.0463,0.0101 -0.05953,0.0167 v 0 l 0.0463,-0.45638 v 0 q 0.429926,-0.0529 0.859853,-0.12911 v 0 0 q 0.429927,-0.0759 0.555598,-0.10239 v 0 l 0.07276,0.12567 v 0 q -0.07276,0.14552 -0.115882,0.76382 v 0 0 q -0.04286,0.61856 -0.04286,1.55117 v 0 0 q 0,0.1389 0.03969,0.19499 v 0 0 q 0.03969,0.0563 0.145514,0.0563 v 0 0 q 0.05291,0 0.105828,-0.007 v 0 0 q 0.05291,-0.007 0.07276,-0.007 v 0 l 0.01323,0.0265 -0.06614,0.48284 v 0 q -0.08599,-0.007 -0.320924,-0.0167 v 0 0 q -0.234674,-0.01 -0.486015,-0.01 v 0 0 q -0.218271,0 -0.502684,0.0296 v 0 0 q -0.284413,0.0299 -0.370399,0.0431 z m 0.846625,-3.68414 v 0 q -0.257956,0 -0.396856,-0.14234 v 0 0 q -0.138899,-0.14207 -0.138899,-0.39341 v 0 0 q 0,-0.27119 0.161917,-0.43654 v 0 0 q 0.162181,-0.16536 0.426752,-0.16536 v 0 0 q 0.251341,0 0.390241,0.14551 v 0 0 q 0.138899,0.14552 0.138899,0.39686 v 0 0 q 0,0.27118 -0.158742,0.4331 v 0 0 q -0.158742,0.16218 -0.423312,0.16218 z m 2.632474,3.69076 v 0 q -0.701112,0 -1.094792,-0.4167 v 0 0 q -0.393416,-0.4167 -0.393416,-1.14427 v 0 0 q 0,-0.49607 0.205042,-0.87652 v 0 0 q 0.205042,-0.38019 0.578615,-0.59184 v 0 0 q 0.373838,-0.21166 0.863293,-0.21166 v 0 0 q 0.238113,0 0.429927,0.0296 v 0 0 q 0.191549,0.0299 0.304256,0.063 v 0 0 q 0.112442,0.0331 0.138899,0.0463 v 0 l 0.02646,0.0661 v 0 q -0.01984,0.086 -0.06958,0.40347 v 0 0 q -0.04948,0.31749 -0.07593,0.67466 v 0 l -0.502684,0.0265 v -0.22488 0 q 0,-0.42993 -0.350555,-0.42993 v 0 0 q -0.515912,0 -0.515912,0.76064 v 0 0 q 0,1.05828 0.641318,1.05828 v 0 0 q 0.159007,0 0.311135,-0.0397 v 0 0 q 0.151863,-0.0397 0.247902,-0.086 v 0 0 q 0.09604,-0.0463 0.122496,-0.0595 v 0 l 0.05953,0.0265 0.119057,0.41009 v 0 q 0,0.007 -0.191814,0.14551 v 0 0 q -0.191813,0.1389 -0.426751,0.25452 v 0 0 q -0.234674,0.11588 -0.426488,0.11588 z m 2.606018,0 v 0 q -0.946104,0 -0.946104,-0.82017 v 0 -1.39561 0 q 0,-0.21827 -0.06932,-0.29103 v 0 0 q -0.06932,-0.0727 -0.281239,-0.0794 v 0 l -0.07937,-0.0529 0.0463,-0.38363 v 0 q 0.284413,-0.13228 0.565652,-0.30425 v 0 0 q 0.280973,-0.17197 0.466437,-0.29765 v 0 0 q 0.185199,-0.12567 0.231499,-0.16535 v 0 l 0.211392,0.11906 v 0 q -0.0064,0.0397 -0.03307,0.20821 v 0 0 q -0.02619,0.1688 -0.05291,0.40691 v 0 l 0.681269,-0.0198 0.03307,0.0331 -0.07249,0.50268 -0.688147,-0.0198 v 0 q -0.03307,0.59528 -0.03307,1.32285 v 0 0 q 0,0.25134 0.08942,0.3704 v 0 0 q 0.08916,0.11906 0.287588,0.11906 v 0 0 q 0.106093,0 0.21827,-0.0331 v 0 0 q 0.112443,-0.0331 0.145514,-0.0463 v 0 l 0.09286,0.23811 v 0 q -0.0463,0.0463 -0.198427,0.1852 v 0 0 q -0.152128,0.1389 -0.330713,0.27118 v 0 0 q -0.178585,0.13229 -0.284413,0.13229 z m 0.965681,-0.007 0.06614,-0.49607 v 0 q 0.191813,-0.0264 0.284148,-0.12249 v 0 0 q 0.09286,-0.0958 0.09286,-0.28098 v 0 -1.29639 0 q 0,-0.21827 -0.06297,-0.29764 v 0 0 q -0.06297,-0.0794 -0.234674,-0.0794 v 0 0 q -0.0463,0 -0.09286,0.01 v 0 0 q -0.04603,0.0101 -0.05926,0.0167 v 0 l 0.0463,-0.45638 v 0 q 0.429927,-0.0529 0.859853,-0.12911 v 0 0 q 0.429927,-0.0759 0.555598,-0.10239 v 0 l 0.07276,0.12567 v 0 q -0.07276,0.14552 -0.115882,0.76382 v 0 0 q -0.04286,0.61856 -0.04286,1.55117 v 0 0 q 0,0.1389 0.03942,0.19499 v 0 0 q 0.03995,0.0563 0.145778,0.0563 v 0 0 q 0.05265,0 0.105828,-0.007 v 0 0 q 0.05291,-0.007 0.07276,-0.007 v 0 l 0.01323,0.0265 -0.06614,0.48284 v 0 q -0.08599,-0.007 -0.320924,-0.0167 v 0 0 q -0.234674,-0.01 -0.486016,-0.01 v 0 0 q -0.21827,0 -0.502683,0.0296 v 0 0 q -0.284678,0.0299 -0.370399,0.0431 z m 0.846361,-3.68414 v 0 q -0.257692,0 -0.396856,-0.14234 v 0 0 q -0.138635,-0.14207 -0.138635,-0.39341 v 0 0 q 0,-0.27119 0.161917,-0.43654 v 0 0 q 0.162182,-0.16536 0.426752,-0.16536 v 0 0 q 0.251342,0 0.390242,0.14551 v 0 0 q 0.138899,0.14552 0.138899,0.39686 v 0 0 q 0,0.27118 -0.158742,0.4331 v 0 0 q -0.159007,0.16218 -0.423577,0.16218 z m 2.652582,3.69076 v 0 q -0.661426,0 -1.055107,-0.4167 v 0 0 q -0.393416,-0.4167 -0.393416,-1.11781 v 0 0 q 0,-0.51591 0.201603,-0.90298 v 0 0 q 0.201867,-0.3868 0.568826,-0.59528 v 0 0 q 0.367224,-0.20822 0.856679,-0.20822 v 0 0 q 0.681268,0 1.064895,0.40347 v 0 0 q 0.383627,0.40347 0.383627,1.13104 v 0 0 q 0,0.51591 -0.198428,0.90271 v 0 0 q -0.198427,0.38707 -0.568826,0.59529 v 0 0 q -0.370398,0.20848 -0.859853,0.20848 z m 0.112442,-0.58867 v 0 q 0.238113,0 0.347116,-0.1852 v 0 0 q 0.109268,-0.1852 0.109268,-0.6019 v 0 0 q 0,-0.62835 -0.12911,-0.9162 v 0 0 q -0.128846,-0.28759 -0.393417,-0.28759 v 0 0 q -0.238113,0 -0.34738,0.1852 v 0 0 q -0.109003,0.1852 -0.109003,0.58867 v 0 0 q 0,0.64158 0.128845,0.92917 v 0 0 q 0.129111,0.28785 0.393681,0.28785 z m 3.803198,0.0661 v 0 q 0.145514,-0.0331 0.208217,-0.10927 v 0 0 q 0.06297,-0.0759 0.06958,-0.23467 v 0 l 0.01323,-1.04505 v 0 q 0.0066,-0.2778 -0.08281,-0.4003 v 0 0 q -0.08916,-0.12223 -0.280974,-0.12223 v 0 0 q -0.185199,0 -0.456383,0.19843 v 0 l -0.01984,0.41008 v 0 q -0.05291,0.85986 -0.05291,1.00537 v 0 0 q 0,0.14551 0.03969,0.2016 v 0 0 q 0.03969,0.0564 0.145514,0.0564 v 0 l 0.145514,-0.007 0.01323,0.0331 -0.07276,0.48284 v 0 q -0.07937,-0.007 -0.297641,-0.0167 v 0 0 q -0.218271,-0.01 -0.443155,-0.01 v 0 0 q -0.238114,0 -0.506123,0.0132 v 0 0 q -0.267746,0.0132 -0.347117,0.0198 v 0 l 0.06614,-0.48284 v 0 q 0.191813,-0.0132 0.26457,-0.0926 v 0 0 q 0.07276,-0.0794 0.07276,-0.26457 v 0 -1.28317 0 q 0,-0.2315 -0.06297,-0.31087 v 0 0 q -0.0627,-0.0794 -0.254516,-0.0794 v 0 h -0.09921 l -0.02646,-0.0397 0.0463,-0.41669 v 0 q 0.416698,-0.0595 0.829957,-0.13229 v 0 0 q 0.413523,-0.0728 0.53258,-0.0926 v 0 l 0.07276,0.0728 v 0 q -0.01323,0.0397 -0.03968,0.18176 v 0 0 q -0.02646,0.14234 -0.03969,0.28124 v 0 l 0.03307,0.0265 v 0 q 0.21827,-0.20504 0.456383,-0.38362 v 0 0 q 0.238114,-0.17859 0.337328,-0.17859 v 0 0 q 0.502683,0 0.770428,0.22489 v 0 0 q 0.26801,0.22488 0.26801,0.63497 v 0 0 q 0,0.18519 -0.05953,0.73418 v 0 0 q -0.06614,0.66142 -0.06614,0.82017 v 0 0 q 0,0.15212 0.04286,0.21483 v 0 0 q 0.04312,0.063 0.148953,0.063 v 0 l 0.185199,-0.007 0.01323,0.0265 -0.06614,0.47622 v 0 q -0.08599,-0.007 -0.31431,-0.0167 v 0 0 q -0.228059,-0.01 -0.459558,-0.01 v 0 0 q -0.158743,0 -0.423313,0.0164 v 0 0 q -0.26457,0.0167 -0.350556,0.0233 v 0 z m 4.246354,0.52253 v 0 q -0.31087,0 -0.489455,-0.12567 v 0 0 q -0.178585,-0.12567 -0.205042,-0.3704 v 0 l -0.06614,-0.0265 v 0 q -0.205042,0.20504 -0.406909,0.35056 v 0 0 q -0.201603,0.14551 -0.327273,0.14551 v 0 0 q -0.257957,0 -0.473052,-0.13572 v 0 0 q -0.214831,-0.13546 -0.337327,-0.37358 v 0 0 q -0.122232,-0.23811 -0.122232,-0.52252 v 0 0 q 0,-0.21166 0.112443,-0.36723 v 0 0 q 0.112442,-0.1553 0.291027,-0.19498 v 0 l 1.283166,-0.27119 v -0.0926 0 q 0,-0.25796 -0.145514,-0.40029 v 0 0 q -0.145513,-0.14208 -0.410084,-0.14208 v 0 0 q -0.17197,0 -0.383627,0.0892 v 0 0 q -0.211656,0.0894 -0.383627,0.20848 v 0 l -0.06614,-0.0331 -0.1389,-0.45638 v 0 q 0.363785,-0.19843 0.740797,-0.36061 v 0 0 q 0.377013,-0.16192 0.542369,-0.16192 v 0 0 q 0.621741,0 0.909329,0.25796 v 0 0 q 0.287852,0.25795 0.287852,0.66804 v 0 0 q 0,0.0926 -0.06614,0.60851 v 0 0 q -0.0066,0.0794 -0.03969,0.3241 v 0 0 q -0.03307,0.24473 -0.03307,0.34394 v 0 0 q 0,0.11244 0.05953,0.18176 v 0 0 q 0.05953,0.0696 0.158742,0.0696 v 0 0 q 0.125671,0 0.277799,-0.086 v 0 l 0.105828,0.15212 v 0 q -0.132285,0.24473 -0.324099,0.463 v 0 0 q -0.191813,0.21827 -0.350555,0.25796 z m -1.177338,-0.75403 v 0 q 0.08598,0 0.201602,-0.0365 v 0 0 q 0.115882,-0.0362 0.208482,-0.0892 v 0 l 0.01323,-0.59528 -0.601897,0.15213 v 0 q -0.07937,0.0198 -0.112442,0.0627 v 0 0 q -0.03307,0.0431 -0.03307,0.1225 v 0 0 q 0,0.16535 0.08916,0.27436 v 0 0 q 0.08942,0.10926 0.234939,0.10926 z m 2.109948,0.22489 v 0 q 0.191814,-0.0132 0.26457,-0.0992 v 0 0 q 0.07276,-0.086 0.07276,-0.30425 v 0 -1.24348 0 q 0,-0.2315 -0.05953,-0.31087 v 0 0 q -0.05953,-0.0794 -0.238113,-0.0794 v 0 l -0.119057,0.007 -0.03307,-0.0463 0.0463,-0.40347 v 0 q 0.410084,-0.0595 0.823342,-0.13572 v 0 0 q 0.413524,-0.0759 0.53258,-0.0958 v 0 l 0.07276,0.0661 v 0 q -0.01323,0.0529 -0.04312,0.23468 v 0 0 q -0.02963,0.18202 -0.03625,0.35399 v 0 l 0.0463,0.0265 v 0 q 0.211656,-0.30426 0.449769,-0.46644 v 0 0 q 0.238114,-0.16191 0.482841,-0.16191 v 0 0 q 0.07276,0 0.145514,0.01 v 0 0 q 0.07276,0.0101 0.0926,0.0167 v 0 l 0.02646,0.0595 v 0 q -0.01984,0.12567 -0.07276,0.54237 v 0 0 q -0.05291,0.4167 -0.07276,0.79371 v 0 l -0.509298,0.0331 v 0 q 0,-0.33732 -0.03969,-0.44977 v 0 0 q -0.03969,-0.11244 -0.152128,-0.11244 v 0 0 q -0.08599,0 -0.178585,0.0561 v 0 0 q -0.0926,0.0564 -0.178585,0.15557 v 0 0 q -0.01323,0.17858 -0.03651,0.58867 v 0 0 q -0.02302,0.41008 -0.02963,0.64819 v 0 0 q 0,0.14552 0.05291,0.20505 v 0 0 q 0.05291,0.0595 0.178585,0.0595 v 0 0 q 0.112443,0 0.214831,-0.0101 v 0 0 q 0.102654,-0.01 0.135725,-0.0164 v 0 l 0.02646,0.0463 -0.07937,0.51591 v 0 q -0.09921,-0.007 -0.420138,-0.0198 v 0 0 q -0.320659,-0.0132 -0.532315,-0.0132 v 0 0 q -0.257956,0 -0.535755,0.0132 v 0 0 q -0.277799,0.0132 -0.363784,0.0198 v 0 z m 3.062402,2.05042 v 0 q -0.07937,0 -0.224885,-0.11906 v 0 0 q -0.145514,-0.11906 -0.261396,-0.26801 v 0 0 q -0.115617,-0.14869 -0.115617,-0.22806 v 0 l 0.05953,-0.0992 v 0 q 0.443156,-0.0529 0.783658,-0.25796 v 0 0 q 0.340766,-0.20504 0.559037,-0.54237 v 0 l -0.145514,-0.40347 v 0 q -0.205042,-0.55559 -0.436541,-1.16411 v 0 0 q -0.231499,-0.60851 -0.343941,-0.84662 v 0 0 q -0.06614,-0.14552 -0.152128,-0.20187 v 0 0 q -0.08599,-0.0561 -0.218271,-0.0693 v 0 l -0.01323,-0.0331 0.0463,-0.44977 h 0.502684 v 0 q 0.31087,0 0.707726,-0.0198 v 0 0 q 0.396855,-0.0198 0.396855,-0.0265 v 0 l 0.01323,0.0331 -0.05953,0.46962 v 0 q -0.17197,0.007 -0.228324,0.0429 v 0 0 q -0.05609,0.0365 -0.05609,0.11588 v 0 0 q 0,0.12567 0.161917,0.69767 v 0 0 q 0.162182,0.57227 0.22171,0.77069 v 0 h 0.0926 v 0 q 0.515912,-1.35592 0.515912,-1.4882 v 0 0 q 0,-0.0661 -0.03651,-0.0926 v 0 0 q -0.03625,-0.0265 -0.13546,-0.0265 v 0 h -0.165356 l -0.02646,-0.0397 0.06614,-0.45638 v 0 q 0.07276,0.007 0.277799,0.0132 v 0 0 q 0.205042,0.007 0.436541,0.007 v 0 h 0.634969 l -0.05291,0.47623 v 0 q -0.145514,0.0331 -0.205042,0.0892 v 0 0 q -0.05953,0.0564 -0.112443,0.20848 v 0 l -0.84001,2.05704 v 0 q -0.767254,1.85199 -1.64695,1.85199 z"/>
  <path fill="#fff" opacity=".1" d="m 1.4732,263.24763 v 7.68945 c 0,19.20362 2.7470629,21.94388 21.968683,21.94388 h 19.56263 c 19.221622,0 21.968685,-2.74026 21.968685,-21.94388 v -7.68945 z"/>
  <path fill="none" stroke="url(#shadow)" stroke-linecap="round" stroke-linejoin="round" stroke-width="8" opacity=".4" d="m 361.9375,-212 c 145.2973,0 166.0625,20.71323 166.0625,165.875 v 116.25 c 0,145.16118 -20.7652,165.875 -166.0625,165.875 h -147.875 c -145.2973,0 -166.0625,-20.71382 -166.0625,-165.875 v -116.25 c 0,-145.16177 20.7652,-165.875 166.0625,-165.875 z" clip-path="url(#clipPath1082-3-367)" transform="matrix(0.13229167,0,0,0.13229167,-4.8768018,261.66013)"/>
 </g>
</svg>
