<?xml version="1.0" encoding="UTF-8" standalone="no"?>
<svg
   xmlns:dc="http://purl.org/dc/elements/1.1/"
   xmlns:cc="http://creativecommons.org/ns#"
   xmlns:rdf="http://www.w3.org/1999/02/22-rdf-syntax-ns#"
   xmlns:svg="http://www.w3.org/2000/svg"
   xmlns="http://www.w3.org/2000/svg"
   xmlns:xlink="http://www.w3.org/1999/xlink"
   xmlns:sodipodi="http://sodipodi.sourceforge.net/DTD/sodipodi-0.dtd"
   xmlns:inkscape="http://www.inkscape.org/namespaces/inkscape"
   inkscape:export-ydpi="96"
   inkscape:export-xdpi="96"
   width="256"
   height="256"
   id="svg11300"
   sodipodi:version="0.32"
   inkscape:version="1.0alpha (0d6517f328, 2019-04-02, custom)"
   sodipodi:docname="rstudio.svg"
   inkscape:output_extension="org.inkscape.output.svg.inkscape"
   version="1.0"
   style="display:inline;enable-background:new"
   inkscape:export-filename="/home/sam/suru-template.png">
  <title
     id="title3004">Suru App Icon Template</title>
  <sodipodi:namedview
     stroke="#ef2929"
     fill="#f57900"
     id="base"
     pagecolor="#ffffff"
     bordercolor="#000000"
     borderopacity="0.25490196"
     inkscape:pageopacity="0"
     inkscape:pageshadow="2"
     inkscape:zoom="2"
     inkscape:cx="67.98744"
     inkscape:cy="122.60518"
     inkscape:current-layer="layer10"
     showgrid="false"
     inkscape:grid-bbox="true"
     inkscape:document-units="px"
     inkscape:showpageshadow="false"
     inkscape:window-width="1600"
     inkscape:window-height="816"
     inkscape:window-x="0"
     inkscape:window-y="32"
     width="400px"
     height="300px"
     inkscape:snap-nodes="true"
     inkscape:snap-bbox="true"
     gridtolerance="10000"
     inkscape:object-nodes="true"
     inkscape:snap-grids="true"
     showguides="true"
     inkscape:guide-bbox="true"
     inkscape:window-maximized="1"
     inkscape:bbox-paths="true"
     inkscape:snap-bbox-midpoints="true"
     inkscape:snap-global="true"
     inkscape:object-paths="true"
     inkscape:snap-intersection-paths="true"
     inkscape:snap-smooth-nodes="true"
     inkscape:pagecheckerboard="false"
     showborder="true"
     inkscape:document-rotation="0">
    <inkscape:grid
       spacingy="1"
       spacingx="1"
       id="grid5883"
       type="xygrid"
       enabled="true"
       visible="true"
       empspacing="4"
       snapvisiblegridlinesonly="true"
       originx="0"
       originy="0" />
    <inkscape:grid
       type="xygrid"
       id="grid11592"
       empspacing="2"
       visible="true"
       enabled="false"
       spacingx="0.5"
       spacingy="0.5"
       color="#ff0000"
       opacity="0.1254902"
       empcolor="#ff0000"
       empopacity="0.25098039"
       snapvisiblegridlinesonly="true"
       originx="0"
       originy="0" />
  </sodipodi:namedview>
  <defs
     id="defs3">
    <linearGradient
       id="linearGradient865"
       inkscape:collect="always">
      <stop
         id="stop861"
         offset="0"
         style="stop-color:#234db8;stop-opacity:1" />
      <stop
         id="stop863"
         offset="1"
         style="stop-color:#5884f4;stop-opacity:1" />
    </linearGradient>
    <clipPath
       clipPathUnits="userSpaceOnUse"
       id="clipPath9430">
      <path
         sodipodi:nodetypes="sssssssss"
         inkscape:connector-curvature="0"
         id="path9432"
         d="m 166.0625,-196 h 179.875 C 491.2348,-196 512,-175.28677 512,-30.125 v 148.25 C 512,263.28618 491.2348,284 345.9375,284 H 166.0625 C 20.7652,284 0,263.28618 0,118.125 V -30.125 C 0,-175.28677 20.7652,-196 166.0625,-196 Z"
         style="color:#000000;display:inline;overflow:visible;visibility:visible;fill:#ffffff;fill-opacity:1;fill-rule:nonzero;stroke:none;stroke-width:1;marker:none;enable-background:new" />
    </clipPath>
    <clipPath
       clipPathUnits="userSpaceOnUse"
       id="clipPath1082">
      <path
         sodipodi:nodetypes="sssssssss"
         inkscape:connector-curvature="0"
         id="path1084"
         d="M 361.9375,-212 C 507.2348,-212 528,-191.28677 528,-46.125 V 70.125 C 528,215.28618 507.2348,236 361.9375,236 H 214.0625 C 68.7652,236 48,215.28618 48,70.125 V -46.125 C 48,-191.28677 68.7652,-212 214.0625,-212 Z"
         style="display:inline;opacity:1;fill:#8c59d9;fill-opacity:1;stroke:none;stroke-width:2;stroke-linecap:round;stroke-linejoin:round;stroke-miterlimit:4;stroke-dasharray:none;stroke-dashoffset:0;stroke-opacity:1;enable-background:new" />
    </clipPath>
    <filter
       inkscape:collect="always"
       style="color-interpolation-filters:sRGB"
       id="filter925"
       x="-0.0232"
       width="1.0464"
       y="-0.024857143"
       height="1.0497143">
      <feGaussianBlur
         inkscape:collect="always"
         stdDeviation="2.32"
         id="feGaussianBlur927" />
    </filter>
    <filter
       inkscape:collect="always"
       style="color-interpolation-filters:sRGB"
       id="filter931"
       x="-0.0116"
       width="1.0232"
       y="-0.012428571"
       height="1.024857">
      <feGaussianBlur
         inkscape:collect="always"
         stdDeviation="1.16"
         id="feGaussianBlur933" />
    </filter>
    <linearGradient
       inkscape:collect="always"
       xlink:href="#linearGradient1013"
       id="linearGradient1108"
       x1="296"
       y1="-212"
       x2="296"
       y2="236"
       gradientUnits="userSpaceOnUse" />
    <linearGradient
       id="linearGradient1013"
       inkscape:collect="always">
      <stop
         id="stop1005"
         offset="0"
         style="stop-color:#ffffff;stop-opacity:1;" />
      <stop
         style="stop-color:#ffffff;stop-opacity:0.09803922"
         offset="0.125"
         id="stop1007" />
      <stop
         style="stop-color:#000000;stop-opacity:0.09803922"
         offset="0.92500001"
         id="stop1009" />
      <stop
         id="stop1011"
         offset="1"
         style="stop-color:#000000;stop-opacity:0.49803922" />
    </linearGradient>
    <clipPath
       clipPathUnits="userSpaceOnUse"
       id="clipPath1082-3">
      <path
         sodipodi:nodetypes="sssssssss"
         inkscape:connector-curvature="0"
         id="path1084-6"
         d="M 361.9375,-212 C 507.2348,-212 528,-191.28677 528,-46.125 V 70.125 C 528,215.28618 507.2348,236 361.9375,236 H 214.0625 C 68.7652,236 48,215.28618 48,70.125 V -46.125 C 48,-191.28677 68.7652,-212 214.0625,-212 Z"
         style="display:inline;opacity:1;fill:#8c59d9;fill-opacity:1;stroke:none;stroke-width:2;stroke-linecap:round;stroke-linejoin:round;stroke-miterlimit:4;stroke-dasharray:none;stroke-dashoffset:0;stroke-opacity:1;enable-background:new" />
    </clipPath>
    <linearGradient
       gradientUnits="userSpaceOnUse"
       y2="60.431992"
       x2="245.20563"
       y1="284.43198"
       x1="6.5492468"
       id="linearGradient867"
       xlink:href="#linearGradient865"
       inkscape:collect="always" />
  </defs>
  <metadata
     id="metadata4">
    <rdf:RDF>
      <cc:Work
         rdf:about="">
        <dc:format>image/svg+xml</dc:format>
        <dc:type
           rdf:resource="http://purl.org/dc/dcmitype/StillImage" />
        <dc:creator>
          <cc:Agent>
            <dc:title>Sam Hewitt</dc:title>
          </cc:Agent>
        </dc:creator>
        <dc:source />
        <cc:license
           rdf:resource="http://creativecommons.org/licenses/by-sa/4.0/" />
        <dc:title>Suru App Icon Template</dc:title>
        <dc:subject>
          <rdf:Bag />
        </dc:subject>
        <dc:date />
        <dc:rights>
          <cc:Agent>
            <dc:title />
          </cc:Agent>
        </dc:rights>
        <dc:publisher>
          <cc:Agent>
            <dc:title />
          </cc:Agent>
        </dc:publisher>
        <dc:identifier />
        <dc:relation />
        <dc:language />
        <dc:coverage />
        <dc:description />
        <dc:contributor>
          <cc:Agent>
            <dc:title />
          </cc:Agent>
        </dc:contributor>
      </cc:Work>
      <cc:Work
         rdf:about="">
        <dc:format>image/svg+xml</dc:format>
        <dc:type
           rdf:resource="http://purl.org/dc/dcmitype/StillImage" />
      </cc:Work>
      <cc:License
         rdf:about="http://creativecommons.org/licenses/by-sa/4.0/">
        <cc:permits
           rdf:resource="http://creativecommons.org/ns#Reproduction" />
        <cc:permits
           rdf:resource="http://creativecommons.org/ns#Distribution" />
        <cc:requires
           rdf:resource="http://creativecommons.org/ns#Notice" />
        <cc:requires
           rdf:resource="http://creativecommons.org/ns#Attribution" />
        <cc:permits
           rdf:resource="http://creativecommons.org/ns#DerivativeWorks" />
        <cc:requires
           rdf:resource="http://creativecommons.org/ns#ShareAlike" />
      </cc:License>
    </rdf:RDF>
  </metadata>
  <g
     style="display:inline"
     inkscape:groupmode="layer"
     inkscape:label="Icon"
     id="layer1"
     transform="translate(0,-44)">
    <g
       inkscape:groupmode="layer"
       id="layer9"
       inkscape:label="Hires"
       style="display:inline">
      <g
         inkscape:groupmode="layer"
         id="layer6"
         inkscape:label="Drop Shadow"
         style="display:inline">
        <path
           sodipodi:nodetypes="sssssssss"
           inkscape:connector-curvature="0"
           id="path923"
           d="m 162.53675,62.431991 c 72.64865,0 83.03125,10.356615 83.03125,82.937499 v 58.125 c 0,72.58059 -10.3826,82.9375 -83.03125,82.9375 h -73.9375 c -72.64865,0 -83.0312501,-10.35691 -83.0312501,-82.9375 v -58.125 c 0,-72.580884 10.3826001,-82.937499 83.0312501,-82.937499 z"
           style="display:inline;opacity:0.2;fill:#000000;fill-opacity:1;stroke:none;stroke-width:2;stroke-linecap:round;stroke-linejoin:round;stroke-miterlimit:4;stroke-dasharray:none;stroke-dashoffset:0;stroke-opacity:1;filter:url(#filter925);enable-background:new"
           inkscape:label="Drop Shadow 2px" />
        <path
           style="display:inline;opacity:0.1;fill:#000000;fill-opacity:1;stroke:none;stroke-width:2;stroke-linecap:round;stroke-linejoin:round;stroke-miterlimit:4;stroke-dasharray:none;stroke-dashoffset:0;stroke-opacity:1;filter:url(#filter931);enable-background:new"
           d="m 162.53675,61.431991 c 72.64865,0 83.03125,10.356615 83.03125,82.937499 v 58.125 c 0,72.58059 -10.3826,82.9375 -83.03125,82.9375 h -73.9375 c -72.64865,0 -83.0312501,-10.35691 -83.0312501,-82.9375 v -58.125 c 0,-72.580884 10.3826001,-82.937499 83.0312501,-82.937499 z"
           id="path929"
           inkscape:connector-curvature="0"
           sodipodi:nodetypes="sssssssss"
           inkscape:label="Drop Shadow 1px" />
      </g>
      <g
         inkscape:groupmode="layer"
         id="layer10"
         inkscape:label="Background"
         style="display:inline">
        <path
           style="display:inline;opacity:1;fill:url(#linearGradient867);fill-opacity:1;stroke:none;stroke-width:2;stroke-linecap:round;stroke-linejoin:round;stroke-miterlimit:4;stroke-dasharray:none;stroke-dashoffset:0;stroke-opacity:1;enable-background:new"
           d="m 162.53675,60.431991 c 72.64865,0 83.03125,10.356615 83.03125,82.937499 v 58.125 c 0,72.58059 -10.3826,82.9375 -83.03125,82.9375 h -73.9375 c -72.64865,0 -83.0312501,-10.35691 -83.0312501,-82.9375 v -58.125 c 0,-72.580884 10.3826001,-82.937499 83.0312501,-82.937499 z"
           id="rect877"
           inkscape:connector-curvature="0"
           sodipodi:nodetypes="sssssssss"
           inkscape:label="Background" />
        <path
           d="m 5.676021,170.11576 v 29.62541 c 0,73.98633 10.583691,84.5438 84.639396,84.5438 h 75.369533 c 74.05571,0 84.6394,-10.55747 84.6394,-84.5438 V 170.11576 H 5.676017 Z"
           fill="#FFFFFF"
           id="path31"
           inkscape:connector-curvature="0"
           style="opacity:0.1;isolation:isolate;stop-opacity:1"
           inkscape:label="Folder Effect Bottom" />
      </g>
      <g
         inkscape:groupmode="layer"
         id="layer13"
         inkscape:label="Pictogram"
         style="display:inline">
        <path
           d="M 78.540897,138.76781 V 117 h 63.482853 q 9.26121,0 16.54353,2.77045 7.28232,2.77045 12.26913,7.40105 4.98681,4.63061 7.63852,10.76517 2.65172,6.13457 2.65172,12.78365 0,6.09498 -1.30607,10.68601 -1.30607,4.59103 -3.79947,8.15304 -2.49341,3.562 -6.13457,6.29287 -3.64116,2.73087 -8.31134,4.94723 4.03694,2.05805 7.12401,6.29288 3.08707,4.23483 4.67018,10.96306 l 4.03694,15.59367 h 9.89446 L 187.4591,237 h -34.82849 l -4.74934,-28.49604 q -0.71241,-5.06597 -2.17679,-8.7467 -1.46437,-3.68074 -3.9182,-6.01583 -2.45383,-2.3351 -5.97625,-3.44328 -3.52243,-1.10818 -8.35093,-1.10818 h -10.21108 v 26.12138 h 11.00264 V 237 H 78.540897 v -21.68865 h 12.427441 v -76.54354 z m 54.459103,0 h -15.75198 v 29.05013 H 133 q 4.51187,0 8.11346,-0.83113 3.60158,-0.83114 6.17414,-2.61214 2.57256,-1.781 3.95778,-4.4723 1.38523,-2.69129 1.38523,-6.41161 0,-6.96569 -4.98681,-10.84432 -4.98681,-3.87863 -14.6438,-3.87863 z"
           fill-rule="evenodd"
           id="path53"
           inkscape:connector-curvature="0"
           style="opacity:0.2;isolation:isolate;stop-opacity:1"
           inkscape:label="Shadow" />
        <path
           id="path57"
           fill-rule="evenodd"
           fill="#FFFFFF"
           d="M 73.540897,133.76781 V 112 h 63.482853 q 9.26121,0 16.54353,2.77045 7.28232,2.77045 12.26913,7.40105 4.98681,4.63061 7.63852,10.76517 2.65172,6.13457 2.65172,12.78365 0,6.09498 -1.30607,10.68601 -1.30607,4.59103 -3.79947,8.15304 -2.49341,3.562 -6.13457,6.29287 -3.64116,2.73087 -8.31134,4.94723 4.03694,2.05805 7.12401,6.29288 3.08707,4.23483 4.67018,10.96306 l 4.03694,15.59367 h 9.89446 L 182.4591,232 h -34.82849 l -4.74934,-28.49604 q -0.71241,-5.06597 -2.17679,-8.7467 -1.46437,-3.68074 -3.9182,-6.01583 -2.45383,-2.3351 -5.97625,-3.44328 -3.52243,-1.10818 -8.35093,-1.10818 h -10.21108 v 26.12138 h 11.00264 V 232 H 73.540897 v -21.68865 h 12.427441 v -76.54354 z m 54.459103,0 h -15.75198 v 29.05013 H 128 q 4.51187,0 8.11346,-0.83113 3.60158,-0.83114 6.17414,-2.61214 2.57256,-1.781 3.95778,-4.4723 1.38523,-2.69129 1.38523,-6.41161 0,-6.96569 -4.98681,-10.84432 -4.98681,-3.87863 -14.6438,-3.87863 z"
           style="isolation:isolate"
           inkscape:connector-curvature="0"
           inkscape:label="Solid" />
      </g>
      <g
         inkscape:groupmode="layer"
         id="layer11"
         inkscape:label="Outline"
         style="display:inline">
        <path
           sodipodi:nodetypes="sssssssss"
           inkscape:connector-curvature="0"
           id="path1068"
           d="M 361.9375,-212 C 507.2348,-212 528,-191.28677 528,-46.125 V 70.125 C 528,215.28618 507.2348,236 361.9375,236 H 214.0625 C 68.7652,236 48,215.28618 48,70.125 V -46.125 C 48,-191.28677 68.7652,-212 214.0625,-212 Z"
           style="display:inline;opacity:0.4;fill:none;fill-opacity:1;stroke:url(#linearGradient1108);stroke-width:8;stroke-linecap:round;stroke-linejoin:round;stroke-miterlimit:4;stroke-dasharray:none;stroke-dashoffset:0;stroke-opacity:1;enable-background:new"
           clip-path="url(#clipPath1082-3)"
           transform="matrix(0.5,0,0,0.5,-18.432,166.43199)" />
      </g>
    </g>
  </g>
</svg>
