<svg xmlns="http://www.w3.org/2000/svg" xmlns:xlink="http://www.w3.org/1999/xlink" width="256" height="256" version="1.0" style="enable-background:new">
 <defs>
  <filter style="color-interpolation-filters:sRGB" id="filter4569" width="1.023" height="1.025" x="-.01" y="-.01">
   <feGaussianBlur stdDeviation="1.16"/>
  </filter>
  <linearGradient id="linearGradient4195">
   <stop style="stop-color:#325fd1" offset="0"/>
   <stop style="stop-color:#6e98ff" offset="1"/>
  </linearGradient>
  <linearGradient id="linearGradient4245">
   <stop style="stop-color:#000000;stop-opacity:0" offset="0"/>
   <stop offset=".515" style="stop-color:#000000"/>
   <stop style="stop-color:#000000;stop-opacity:0" offset="1"/>
  </linearGradient>
  <linearGradient id="linearGradient1048" x1="24" x2="280" y1="28" y2="284" gradientTransform="translate(-26.432006,16.431991)" gradientUnits="userSpaceOnUse" xlink:href="#linearGradient4195"/>
  <linearGradient id="linearGradient1073" x1="152" x2="152" y1="236" y2="76" gradientTransform="translate(-26.432011,18.431991)" gradientUnits="userSpaceOnUse" xlink:href="#linearGradient4245"/>
  <filter style="color-interpolation-filters:sRGB" id="filter1114" width="1.072" height="1.072" x="-.04" y="-.04">
   <feGaussianBlur stdDeviation="1.2"/>
  </filter>
  <linearGradient id="linearGradient970" x1="152" x2="152" y1="236" y2="76" gradientTransform="translate(-26.432011,18.431991)" gradientUnits="userSpaceOnUse" xlink:href="#linearGradient4245"/>
  <filter style="color-interpolation-filters:sRGB" id="filter989" width="1.046" height="1.05" x="-.02" y="-.03">
   <feGaussianBlur stdDeviation="2.32"/>
  </filter>
  <linearGradient id="linearGradient1108" x1="296" x2="296" y1="-212" y2="236" gradientUnits="userSpaceOnUse" xlink:href="#linearGradient1013"/>
  <linearGradient id="linearGradient1013">
   <stop offset="0" style="stop-color:#ffffff"/>
   <stop style="stop-color:#ffffff;stop-opacity:0.09803922" offset=".125"/>
   <stop style="stop-color:#000000;stop-opacity:0.09803922" offset=".925"/>
   <stop offset="1" style="stop-color:#000000;stop-opacity:0.49803922"/>
  </linearGradient>
  <clipPath id="clipPath1082-3" clipPathUnits="userSpaceOnUse">
   <path d="M 361.9375,-212 C 507.2348,-212 528,-191.28677 528,-46.125 V 70.125 C 528,215.28618 507.2348,236 361.9375,236 H 214.0625 C 68.7652,236 48,215.28618 48,70.125 V -46.125 C 48,-191.28677 68.7652,-212 214.0625,-212 Z" style="fill:#8c59d9"/>
  </clipPath>
 </defs>
 <g transform="translate(0,-44)">
  <g>
   <path d="m 162.53675,60.431986 c 72.64865,0 83.03125,10.356615 83.03125,82.937504 v 58.125 c 0,72.58059 -10.3826,82.9375 -83.03125,82.9375 h -73.937496 c -72.648654,0 -83.031254,-10.35691 -83.031254,-82.9375 v -58.125 c 0,-72.580889 10.3826,-82.937504 83.031254,-82.937504 z" style="opacity:0.1;filter:url(#filter4569)"/>
   <path style="opacity:0.2;filter:url(#filter989)" d="m 162.53675,62.431986 c 72.64865,0 83.03125,10.356615 83.03125,82.937504 v 58.125 c 0,72.58059 -10.3826,82.9375 -83.03125,82.9375 h -73.937496 c -72.648654,0 -83.031254,-10.35691 -83.031254,-82.9375 v -58.125 c 0,-72.580889 10.3826,-82.937504 83.031254,-82.937504 z"/>
  </g>
  <path d="m 162.53674,60.431991 c 72.64865,0 83.03125,10.356615 83.03125,82.937499 v 58.125 c 0,72.58059 -10.3826,82.9375 -83.03125,82.9375 h -73.937496 c -72.64865,0 -83.03125,-10.35691 -83.03125,-82.9375 v -58.125 c 0,-72.580884 10.3826,-82.937499 83.03125,-82.937499 z" style="fill:url(#linearGradient1048)"/>
  <path style="opacity:0.3;fill:#ffffff;paint-order:markers fill stroke" d="m 86.294922,60.839844 -3.273438,3.705078 -3.271484,3.703125 5.982422,6.003906 5.984375,6.001953 v 6.361328 6.361328 l 6.808594,7.542968 6.808589,7.54297 h 4.1543 4.15234 v -3.80469 -3.80468 l 5.90235,-5.882818 5.9043,-5.882812 v -4.242188 -4.240234 l 3.93359,-3.90625 3.93555,-3.904297 v -5.777343 -5.777344 h -23.51172 z m -21,0.396484 -5.804688,0.375 c -5.965208,0.385661 -14.463712,1.606134 -18.8125,2.701172 l -2.460937,0.619141 3.542969,3.576171 3.544922,3.576172 h 9.99414 9.996094 v -5.423828 z m -48.962891,18.15625 c -0.716199,0 -3.913226,6.737386 -5.496093,11.583984 -3.5192983,10.775768 -4.5326044,21.083238 -4.9589849,50.441408 l -0.3320312,22.95312 3.859375,3.89063 3.8593751,3.88867 h 6.166016 6.167968 l 9.869141,9.82617 9.871094,9.82617 0.15039,-11.65429 0.152344,-11.65235 6.021484,-6.04297 6.023438,-6.04296 h 3.955078 3.953125 l 6.166016,-6.18555 6.164062,-6.18359 h 5.609375 5.611328 l -2.716797,-2.75586 c -1.837847,-1.86591 -2.568997,-3.00169 -2.263672,-3.51368 0.248138,-0.41608 2.633993,-3.28696 5.302735,-6.3789 2.668742,-3.09195 5.058259,-5.96512 5.308594,-6.38477 0.319291,-0.53523 -1.282644,-2.50697 -5.367188,-6.60547 l -5.824219,-5.84179 h -8.863281 -8.865234 v 7.86914 7.87109 h -4.341797 -4.341797 l -3.810547,-3.7793 -3.808594,-3.77929 v -4.22266 -4.22266 l 6.035157,-6.05273 6.033203,-6.05273 h 4.927734 4.929688 v -3.78516 -3.785156 l -6.035157,-6.052735 -6.033203,-6.052734 h -9.988281 -9.988281 v 5.902344 5.904297 h -4.927735 -4.927734 l -6.447266,-6.464844 c -3.54565,-3.555737 -6.604967,-6.464844 -6.798828,-6.464844 z m 219.796879,3.011719 c -0.237,0.05457 -0.53046,0.235623 -0.93164,0.539062 -0.79926,0.604532 -3.05335,1.507813 -7.39454,1.507813 h -5.92578 l -6.20507,6.1875 -6.20508,6.1875 -3.90821,-3.939453 -3.9082,-3.9375 h -12.11133 -12.11133 l -5.75195,5.771484 -5.75195,5.771487 v 4.91015 4.90821 h 5.62109 5.6211 v -3.0918 -3.0918 h 4.21679 4.2168 v 4.38672 c 0,4.22726 -0.0675,4.45273 -1.85938,6.18946 l -1.86132,1.80273 -8.11914,0.35547 -8.11719,0.35351 -2.91797,2.73243 -2.91797,2.73242 h -3.96875 -3.96875 v 3.8125 3.81445 l -3.0918,3.05273 -3.09179,3.05469 v 5.78125 5.78125 h 6.05664 6.05859 l 3.90625,-3.93554 3.9043,-3.93555 h 4.09179 4.08985 v 4.89453 l 7.64062,7.55078 3.93555,-0.19336 0.004,-3.58789 c -2.58716,-2.70065 -7.6543,-8.66406 -7.6543,-8.66406 0,0 1.85161,0 4.10156,0 h 4.08985 l 3.90429,3.93555 3.90625,3.93554 h 4.49024 4.49218 l -2.76953,-2.8125 -2.76953,-2.81054 3.05274,-3.0918 c 2.96491,-3.00221 3.14184,-3.08985 6.14648,-3.08985 2.97496,0 3.20717,0.11178 6.0625,2.93165 1.63299,1.6127 2.96875,3.13058 2.96875,3.37304 0,0.24246 -5.63086,0.0644 -5.63086,0.0644 0,0 -0.45351,0.51688 -3.08398,3.18751 l -2.63477,2.82421 2.79688,2.95704 c 2.84583,2.88158 2.92968,3.06054 2.92968,6.18164 v 3.21484 h -3.37304 c -1.85517,0 -3.5625,-0.01 -3.5625,-0.01 0,0 5.18342,5.84176 11.28711,11.95118 h 0.002 c 5.83733,5.84281 11.66406,11.36914 11.66406,11.36914 l 3.65625,-0.0859 c 0,0 3.26154,-3.16161 6.03516,-5.92578 l 5.77148,-5.75 -4.06054,-4.08789 -4.06055,-4.08789 h 6.0293 6.02929 l -0.01,-18.97266 c -0.0151,-32.97883 -2.12165,-49.35086 -7.0918,-59.871097 -1.04875,-2.219881 -1.24801,-3.194972 -1.95898,-3.03125 z m -112.36914,22.285153 v 2.81055 2.81055 h 5.74218 5.74024 l -2.76758,-2.81055 c -2.62942,-2.66957 -2.91907,-2.81055 -5.74219,-2.81055 z m 35.41796,2.57227 -2.8125,2.76758 c -2.5961,2.55706 -2.81054,2.97512 -2.81054,5.46093 v 2.69141 h 2.81054 2.8125 v -5.46094 z m -61.839839,21.33398 -2.945313,2.94336 -2.943359,2.94531 h 3.15625 c 2.120366,0 3.387375,0.27738 3.857422,0.84375 0.911827,1.09869 3.039349,1.08 3.964839,-0.0352 0.62376,-0.75158 0.30839,-1.30099 -2.17968,-3.78906 z m 52.578129,27.81446 -7.17579,7.1582 -7.17382,7.16016 v 9.85742 9.85742 l 4.92968,4.9082 4.92969,4.90625 h 7 7 l 3.24805,3.21485 c 3.07933,3.0472 3.25,3.36021 3.25,5.97656 0,2.36503 0.28095,3.07148 1.96679,4.9375 l 1.9668,2.17773 v 11.97657 11.97851 l 7.16797,7.65625 c 3.94223,4.21153 7.42255,7.67517 7.73438,7.69727 0.31183,0.0221 6.10784,-5.50299 12.8789,-12.2793 l 12.31055,-12.32031 -0.33594,-11.42969 -0.33789,-11.42773 9.92578,-9.98243 9.92578,-9.98047 h -3.92187 -3.91992 l -9.97266,-9.98437 -9.97266,-9.98437 v -4.07032 -4.07031 h -11.97656 -11.97656 l -1.90625,-1.9668 -1.9082,-1.96679 h -11.82813 z m -83.378911,14.05273 c -2.485812,0 -2.901923,0.2164 -5.458984,2.8125 l -2.769531,2.81055 h 5.460937 5.458985 v -2.81055 -2.8125 z m -8.861328,17.99023 -4.060547,4.08985 -4.0625,4.08789 v 9.83984 9.8418 l 8.117188,7.01172 8.117187,7.00976 0.03516,9.01563 0.0332,9.01367 -3.091797,3.05274 -3.091797,3.05468 v 12.91797 12.91797 l 1.511719,1.57617 c 0.830834,0.86721 2.095408,1.57813 2.810547,1.57813 1.218738,0 1.301653,-0.22036 1.314453,-3.51367 l 0.01367,-3.51368 12.892578,-11.80664 12.894531,-11.80468 0.02344,-3.94532 0.02148,-3.94531 6.183594,-6.16406 6.183593,-6.16406 v -3.1211 c 0,-3.0378 0.082,-3.20144 3.0918,-6.17383 l 3.0918,-3.05468 v -7.84766 -7.84961 l -4.11524,-4.11719 -4.11718,-4.11523 h -8.125008 -8.126953 l -3.904297,-3.93555 -3.90625,-3.93555 h -9.867187 z m 165.587889,28.60157 -3.65234,3.26758 -3.6543,3.26562 v 6.32617 6.32422 h 3.65235 3.65429 v -9.5918 z"/>
  <rect width="80" height="224" x="85.57" y="60.43" style="opacity:0.1;fill:#ffffff"/>
  <path d="m 5.567994,172.43199 v 29.0625 c 0,72.58059 10.3826,82.9375 83.03125,82.9375 h 73.937496 c 72.64865,0 83.03125,-10.35691 83.03125,-82.9375 v -29.0625 z" style="opacity:0.1;fill:#ffffff"/>
  <path style="opacity:0.5;fill:none;stroke:url(#linearGradient1108);stroke-width:8;stroke-linecap:round;stroke-linejoin:round" d="m 361.9375,-212 c 145.2973,0 166.0625,20.71323 166.0625,165.875 v 116.25 c 0,145.16118 -20.7652,165.875 -166.0625,165.875 h -147.875 c -145.2973,0 -166.0625,-20.71382 -166.0625,-165.875 v -116.25 c 0,-145.16177 20.7652,-165.875 166.0625,-165.875 z" clip-path="url(#clipPath1082-3)" transform="matrix(0.5,0,0,0.5,-18.432006,166.43199)"/>
  <g>
   <path style="opacity:0.1;fill:url(#linearGradient970);filter:url(#filter1108)" d="m 197.56799,102.43199 -59.04297,34.18359 a 40,40 0 0 0 -41.242186,9.53125 40,40 0 0 0 -9.51562,41.21485 l -34.199225,59.07031 59.042971,-34.18359 a 40,40 0 0 0 41.24219,-9.53125 40,40 0 0 0 9.51562,-41.21485 z"/>
   <path d="m 197.56799,102.43199 -59.04297,34.18359 a 40,40 0 0 0 -41.242186,9.53125 40,40 0 0 0 -9.51562,41.21485 l -34.199225,59.07031 59.042971,-34.18359 a 40,40 0 0 0 41.24219,-9.53125 40,40 0 0 0 9.51562,-41.21485 z" style="opacity:0.4;fill:url(#linearGradient1073);filter:url(#filter1086)"/>
   <path style="fill:#e93549" d="m 106.36798,153.23198 91.20001,-52.79999 -52.8,91.20001 z"/>
   <path style="opacity:0.5;fill:#ffffff" d="m 197.56799,100.43199 -91.19922,52.80078 -52.800776,91.19922 1.742188,-1.00781 51.058588,-88.19141 89.45703,-51.79297 z"/>
   <path d="m 106.36798,153.23198 -52.799986,91.20001 91.199996,-52.79999 z" style="fill:#dfdfdf"/>
   <path style="opacity:0.2;fill:#ffffff" d="m 197.56799,100.43199 -91.19922,52.80078 -52.800776,91.19922 3.359375,-1.94531 69.347651,-69.34766 69.34766,-69.34765 z"/>
   <circle cx="217.789" cy="2.828" r="40" transform="rotate(45,-34.258277,-23.190259)" style="opacity:0.2;filter:url(#filter1114)"/>
   <circle style="fill:#f2f2f2" cx="210.718" cy="33.138" r="40" transform="rotate(45)"/>
   <path style="fill:#ffffff" d="m 126.15197,132.4359 a 40,40 0 0 0 -28.869136,11.71093 40,40 0 0 0 -11.66406,28.99024 40,40 0 0 1 11.66406,-26.99024 40,40 0 0 1 56.570316,0 40,40 0 0 1 11.66406,27.58008 40,40 0 0 0 -11.66406,-29.58008 40,40 0 0 0 -27.70118,-11.71093 z"/>
  </g>
 </g>
</svg>
