<svg width="256" height="256" style="enable-background:new" version="1.0" xmlns="http://www.w3.org/2000/svg" xmlns:xlink="http://www.w3.org/1999/xlink">
 <defs>
  <filter id="filter4569" x="-.01" y="-.01" width="1.023" height="1.025" style="color-interpolation-filters:sRGB">
   <feGaussianBlur stdDeviation="1.16"/>
  </filter>
  <linearGradient id="linearGradient4245">
   <stop style="stop-color:#000000;stop-opacity:0" offset="0"/>
   <stop style="stop-color:#000000" offset=".515"/>
   <stop style="stop-color:#000000;stop-opacity:0" offset="1"/>
  </linearGradient>
  <linearGradient id="linearGradient1048" x1="24" x2="280" y1="28" y2="284" gradientTransform="translate(-26.432006,16.431991)" gradientUnits="userSpaceOnUse">
   <stop style="stop-color:#325fd1" offset="0"/>
   <stop style="stop-color:#6e98ff" offset="1"/>
  </linearGradient>
  <linearGradient id="linearGradient1073" x1="152" x2="152" y1="236" y2="76" gradientTransform="translate(-26.432011,18.431991)" gradientUnits="userSpaceOnUse" xlink:href="#linearGradient4245"/>
  <filter id="filter1114" x="-.04" y="-.04" width="1.072" height="1.072" style="color-interpolation-filters:sRGB">
   <feGaussianBlur stdDeviation="1.2"/>
  </filter>
  <filter id="filter989" x="-.02" y="-.03" width="1.046" height="1.05" style="color-interpolation-filters:sRGB">
   <feGaussianBlur stdDeviation="2.32"/>
  </filter>
  <linearGradient id="linearGradient1108" x1="296" x2="296" y1="-212" y2="236" gradientUnits="userSpaceOnUse">
   <stop style="stop-color:#ffffff" offset="0"/>
   <stop style="stop-color:#ffffff;stop-opacity:.09803922" offset=".125"/>
   <stop style="stop-color:#000000;stop-opacity:.09803922" offset=".925"/>
   <stop style="stop-color:#000000;stop-opacity:.49803922" offset="1"/>
  </linearGradient>
  <clipPath id="clipPath1082-3">
   <path d="M 361.9375,-212 C 507.2348,-212 528,-191.28677 528,-46.125 V 70.125 C 528,215.28618 507.2348,236 361.9375,236 H 214.0625 C 68.7652,236 48,215.28618 48,70.125 V -46.125 C 48,-191.28677 68.7652,-212 214.0625,-212 Z" style="fill:#8c59d9"/>
  </clipPath>
 </defs>
 <g transform="translate(0,-44)">
  <path d="m162.53675 60.431986c72.64865 0 83.03125 10.356615 83.03125 82.937504v58.125c0 72.58059-10.3826 82.9375-83.03125 82.9375h-73.937496c-72.648654 0-83.031254-10.35691-83.031254-82.9375v-58.125c0-72.580889 10.3826-82.937504 83.031254-82.937504z" style="filter:url(#filter4569);opacity:.1"/>
  <path d="m162.53675 62.431986c72.64865 0 83.03125 10.356615 83.03125 82.937504v58.125c0 72.58059-10.3826 82.9375-83.03125 82.9375h-73.937496c-72.648654 0-83.031254-10.35691-83.031254-82.9375v-58.125c0-72.580889 10.3826-82.937504 83.031254-82.937504z" style="filter:url(#filter989);opacity:.2"/>
  <path d="m162.53674 60.431991c72.64865 0 83.03125 10.356615 83.03125 82.937499v58.125c0 72.58059-10.3826 82.9375-83.03125 82.9375h-73.937496c-72.64865 0-83.03125-10.35691-83.03125-82.9375v-58.125c0-72.580884 10.3826-82.937499 83.03125-82.937499z" style="fill:url(#linearGradient1048)"/>
  <path d="m86.294922 60.839844-3.273438 3.705078-3.271484 3.703125 5.982422 6.003906 5.984375 6.001953v12.722656l6.808594 7.542968 6.808589 7.54297h8.30664v-7.60937l5.90235-5.882818 5.9043-5.882812v-8.482422l3.93359-3.90625 3.93555-3.904297v-11.554687h-23.51172zm-21 0.396484-5.804688 0.375c-5.965208 0.385661-14.463712 1.606134-18.8125 2.701172l-2.460937 0.619141 3.542969 3.576171 3.544922 3.576172h19.990234v-5.423828zm-48.962891 18.15625c-0.716199 0-3.913226 6.737386-5.496093 11.583984-3.5192983 10.775768-4.5326044 21.083238-4.9589849 50.441408l-0.3320312 22.95312 3.859375 3.89063 3.8593751 3.88867h12.333984l9.869141 9.82617 9.871094 9.82617 0.15039-11.65429 0.152344-11.65235 6.021484-6.04297 6.023438-6.04296h7.908203l12.330078-12.36914h11.220703l-2.716797-2.75586c-1.837847-1.86591-2.568997-3.00169-2.263672-3.51368 0.248138-0.41608 2.633993-3.28696 5.302735-6.3789 2.668742-3.09195 5.058259-5.96512 5.308594-6.38477 0.319291-0.53523-1.282644-2.50697-5.367188-6.60547l-5.824219-5.84179h-17.728515v15.74023h-8.683594l-3.810547-3.7793-3.808594-3.77929v-8.44532l6.035157-6.05273 6.033203-6.05273h9.857422v-7.570316l-6.035157-6.052735-6.033203-6.052734h-19.976562v11.806641h-9.855469l-6.447266-6.464844c-3.54565-3.555737-6.604967-6.464844-6.798828-6.464844zm219.79688 3.011719c-0.237 0.05457-0.53046 0.235623-0.93164 0.539062-0.79926 0.604532-3.05335 1.507813-7.39454 1.507813h-5.92578l-6.20507 6.1875-6.20508 6.1875-3.90821-3.939453-3.9082-3.9375h-24.22266l-5.75195 5.771484-5.75195 5.771487v9.81836h11.24219v-6.1836h8.43359v4.38672c0 4.22726-0.0675 4.45273-1.85938 6.18946l-1.86132 1.80273-8.11914 0.35547-8.11719 0.35351-2.91797 2.73243-2.91797 2.73242h-7.9375v7.62695l-3.0918 3.05273-3.09179 3.05469v11.5625h12.11523l3.90625-3.93554 3.9043-3.93555h8.18164v4.89453l7.64062 7.55078 3.93555-0.19336 4e-3 -3.58789c-2.58716-2.70065-7.6543-8.66406-7.6543-8.66406h4.10156 4.08985l3.90429 3.93555 3.90625 3.93554h8.98242l-2.76953-2.8125-2.76953-2.81054 3.05274-3.0918c2.96491-3.00221 3.14184-3.08985 6.14648-3.08985 2.97496 0 3.20717 0.11178 6.0625 2.93165 1.63299 1.6127 2.96875 3.13058 2.96875 3.37304s-5.63086 0.0644-5.63086 0.0644-0.45351 0.51688-3.08398 3.18751l-2.63477 2.82421 2.79688 2.95704c2.84583 2.88158 2.92968 3.06054 2.92968 6.18164v3.21484h-3.37304c-1.85517 0-3.5625-0.01-3.5625-0.01s5.18342 5.84176 11.28711 11.95118h2e-3c5.83733 5.84281 11.66406 11.36914 11.66406 11.36914l3.65625-0.0859s3.26154-3.16161 6.03516-5.92578l5.77148-5.75-4.06054-4.08789-4.06055-4.08789h12.05859l-0.01-18.97266c-0.0151-32.97883-2.12165-49.35086-7.0918-59.871097-1.04875-2.219881-1.24801-3.194972-1.95898-3.03125zm-112.36914 22.285153v5.6211h11.48242l-2.76758-2.81055c-2.62942-2.66957-2.91907-2.81055-5.74219-2.81055zm35.41796 2.57227-2.8125 2.76758c-2.5961 2.55706-2.81054 2.97512-2.81054 5.46093v2.69141h5.62304v-5.46094zm-61.839839 21.33398-2.945313 2.94336-2.943359 2.94531h3.15625c2.120366 0 3.387375 0.27738 3.857422 0.84375 0.911827 1.09869 3.039349 1.08 3.964839-0.0352 0.62376-0.75158 0.30839-1.30099-2.17968-3.78906zm52.578129 27.81446-7.17579 7.1582-7.17382 7.16016v19.71484l4.92968 4.9082 4.92969 4.90625h14l3.24805 3.21485c3.07933 3.0472 3.25 3.36021 3.25 5.97656 0 2.36503 0.28095 3.07148 1.96679 4.9375l1.9668 2.17773v23.95508l7.16797 7.65625c3.94223 4.21153 7.42255 7.67517 7.73438 7.69727s6.10784-5.50299 12.8789-12.2793l12.31055-12.32031-0.33594-11.42969-0.33789-11.42773 9.92578-9.98243 9.92578-9.98047h-7.84179l-19.94532-19.96874v-8.14063h-23.95312l-1.90625-1.9668-1.9082-1.96679h-11.82813zm-83.378911 14.05273c-2.485812 0-2.901923 0.2164-5.458984 2.8125l-2.769531 2.81055h10.919922v-5.62305zm-8.861328 17.99023-4.060547 4.08985-4.0625 4.08789v19.68164l8.117188 7.01172 8.117187 7.00976 0.03516 9.01563 0.0332 9.01367-3.091797 3.05274-3.091797 3.05468v25.83594l1.511719 1.57617c0.830834 0.86721 2.095408 1.57813 2.810547 1.57813 1.218738 0 1.301653-0.22036 1.314453-3.51367l0.01367-3.51368 12.892578-11.80664 12.894531-11.80468 0.02344-3.94532 0.02148-3.94531 6.183594-6.16406 6.183593-6.16406v-3.1211c0-3.0378 0.082-3.20144 3.0918-6.17383l3.0918-3.05468v-15.69727l-4.11524-4.11719-4.11718-4.11523h-16.251961l-3.904297-3.93555-3.90625-3.93555h-9.867187zm165.58789 28.60157-3.65234 3.26758-3.6543 3.26562v12.65039h7.30664v-9.5918z" style="fill:#ffffff;opacity:.3;paint-order:markers fill stroke"/>
  <rect x="85.57" y="60.43" width="80" height="224" style="fill:#ffffff;opacity:.1"/>
  <path d="m5.567994 172.43199v29.0625c0 72.58059 10.3826 82.9375 83.03125 82.9375h73.937496c72.64865 0 83.03125-10.35691 83.03125-82.9375v-29.0625z" style="fill:#ffffff;opacity:.1"/>
  <path transform="matrix(.5 0 0 .5 -18.432006 166.43199)" d="m361.9375-212c145.2973 0 166.0625 20.71323 166.0625 165.875v116.25c0 145.16118-20.7652 165.875-166.0625 165.875h-147.875c-145.2973 0-166.0625-20.71382-166.0625-165.875v-116.25c0-145.16177 20.7652-165.875 166.0625-165.875z" clip-path="url(#clipPath1082-3)" style="fill:none;opacity:.5;stroke-linecap:round;stroke-linejoin:round;stroke-width:8;stroke:url(#linearGradient1108)"/>
  <path d="m197.56799 102.43199-59.04297 34.18359a40 40 0 0 0-41.242186 9.53125 40 40 0 0 0-9.51562 41.21485l-34.199225 59.07031 59.042971-34.18359a40 40 0 0 0 41.24219-9.53125 40 40 0 0 0 9.51562-41.21485z" style="fill:url(#linearGradient1073);filter:url(#filter1108);opacity:.1"/>
  <path d="m197.56799 102.43199-59.04297 34.18359a40 40 0 0 0-41.242186 9.53125 40 40 0 0 0-9.51562 41.21485l-34.199225 59.07031 59.042971-34.18359a40 40 0 0 0 41.24219-9.53125 40 40 0 0 0 9.51562-41.21485z" style="fill:url(#linearGradient1073);filter:url(#filter1086);opacity:.4"/>
  <path d="m106.36798 153.23198 91.20001-52.79999-52.8 91.20001z" style="fill:#e93549"/>
  <path d="m197.56799 100.43199-91.19922 52.80078-52.800776 91.19922 1.742188-1.00781 51.058588-88.19141 89.45703-51.79297z" style="fill:#ffffff;opacity:.5"/>
  <path d="m106.36798 153.23198-52.799986 91.20001 91.199996-52.79999z" style="fill:#dfdfdf"/>
  <path d="m197.56799 100.43199-91.19922 52.80078-52.800776 91.19922 3.359375-1.94531 69.347651-69.34766 69.34766-69.34765z" style="fill:#ffffff;opacity:.2"/>
  <circle transform="rotate(45,-34.258277,-23.190259)" cx="217.789" cy="2.828" r="40" style="filter:url(#filter1114);opacity:.2"/>
  <circle transform="rotate(45)" cx="210.718" cy="33.138" r="40" style="fill:#f2f2f2"/>
  <path d="m126.15197 132.4359a40 40 0 0 0-28.869136 11.71093 40 40 0 0 0-11.66406 28.99024 40 40 0 0 1 11.66406-26.99024 40 40 0 0 1 56.570316 0 40 40 0 0 1 11.66406 27.58008 40 40 0 0 0-11.66406-29.58008 40 40 0 0 0-27.70118-11.71093z" style="fill:#ffffff"/>
 </g>
</svg>
