<svg xmlns="http://www.w3.org/2000/svg" width="16" height="16" version="1.1">
 <g label="status" transform="translate(-1273.0001,227.00006)">
  <path class="warning" d="m 1281.0002,-227 -2.3105,1.65039 -2.8321,0.2207 -0.709,2.75 -2.0273,1.99024 1.2246,2.5625 -0.2734,2.82617 2.5859,1.17578 1.6055,2.3418 2.7363,-0.75977 2.7363,0.75977 1.6055,-2.3418 2.5859,-1.17578 -0.2734,-2.82617 1.2246,-2.5625 -2.0273,-1.99024 -0.709,-2.75 -2.8321,-0.2207 z m -1,4 h 2 v 3 l -0.5,2 h -1 l -0.5,-2 z m 1,6 c 0.5523,0 1,0.44772 1,1 0,0.55228 -0.4477,1 -1,1 -0.5523,0 -1,-0.44772 -1,-1 0,-0.55228 0.4477,-1 1,-1 z" style="fill:#fdc92b"/>
 </g>
</svg>
