<svg xmlns="http://www.w3.org/2000/svg" width="16" height="16" version="1.1">
 <g label="status" transform="translate(-1093.0002,327)">
  <circle cx="1096.5" cy="-318.5" r="1.5" style="fill:#808080"/>
  <circle cx="1100.5" cy="-318.5" r="1.5" style="fill:#808080"/>
  <circle cx="1104.5" cy="-318.5" r="1.5" style="fill:#808080"/>
  <path d="m 1102.0002,-326.00781 c -1.013,0 -2.0078,0.83734 -2.0078,2.00781 v 3 h 1 v -3 c 0,-0.55469 0.5997,-1.00781 1.0078,-1.00781 0.4031,0 1.0078,0.46762 1.0078,1.00781 v 3 h 1 v -3 c 0,-1.16367 -0.9898,-2.00781 -2.0078,-2.00781 z m 5.5039,1.92677 c 0,0 -0.3572,-0.0148 -0.7305,0.16797 -0.3732,0.18274 -0.7812,0.65833 -0.7812,1.33203 V -321 h 1 v -1.58104 c 0,-0.34718 0.094,-0.37155 0.2207,-0.43359 0.1267,-0.062 0.2695,-0.0664 0.2695,-0.0664 z m -11.5117,1.64159 V -321 h 1 v -1.43945 z m 0,6.43945 v 2.46049 c 0,1.50573 1.2728,2.54909 2.5195,2.5 0.5916,-0.0233 1.1916,-0.2579 1.666,-0.68164 0.4744,-0.42374 0.8145,-1.06045 0.8145,-1.81836 V -316 h -1 v 2.46049 c 0,0.46906 -0.1891,0.81393 -0.4805,1.07422 -0.2914,0.26029 -0.6939,0.41218 -1.039,0.42578 -0.6374,0.0251 -1.4805,-0.57443 -1.4805,-1.5 V -316 Z m 7.0156,0 v 2 c 0,0.63648 0.2665,1.16874 0.6543,1.50391 0.3878,0.33516 0.8726,0.48828 1.3379,0.48828 0.9856,0 1.9922,-0.80165 1.9922,-1.99219 v -2 h -1 v 2 c 0,0.60442 -0.5705,0.99219 -0.9922,0.99219 -0.2383,0 -0.501,-0.0863 -0.6836,-0.24414 -0.1826,-0.15783 -0.3086,-0.37109 -0.3086,-0.74805 v -2 z m -8.0078,-11 v 2 h -1 v 1 c 0,1.108 0.892,2 2,2 h 1 c 1.108,0 2,-0.892 2,-2 v -1 h -1 v -2 h -1 v 2 h -1 v -2 z" style="opacity:0.5;fill:#808080"/>
 </g>
</svg>
