<svg xmlns="http://www.w3.org/2000/svg" xmlns:xlink="http://www.w3.org/1999/xlink" width="256" height="256" version="1.1" viewBox="0 0 67.73 67.73">
 <defs>
  <linearGradient id="linearGradient1108" x1="296" x2="296" y1="-212" y2="236" gradientUnits="userSpaceOnUse" xlink:href="#linearGradient1013"/>
  <linearGradient id="linearGradient1013">
   <stop offset="0" style="stop-color:#ffffff"/>
   <stop style="stop-color:#ffffff;stop-opacity:0.09803922" offset=".125"/>
   <stop style="stop-color:#000000;stop-opacity:0.09803922" offset=".925"/>
   <stop offset="1" style="stop-color:#000000;stop-opacity:0.49803922"/>
  </linearGradient>
  <clipPath id="clipPath1082-3-75" clipPathUnits="userSpaceOnUse">
   <path d="M 361.9375,-212 C 507.2348,-212 528,-191.28677 528,-46.125 V 70.125 C 528,215.28618 507.2348,236 361.9375,236 H 214.0625 C 68.7652,236 48,215.28618 48,70.125 V -46.125 C 48,-191.28677 68.7652,-212 214.0625,-212 Z" style="fill:#8c59d9"/>
  </clipPath>
  <linearGradient id="linearGradient1015" x1="24" x2="280" y1="36" y2="276" gradientTransform="matrix(0.26458333,0,0,0.26458333,-6.993468,221.97263)" gradientUnits="userSpaceOnUse" xlink:href="#linearGradient4239"/>
  <linearGradient id="linearGradient4239">
   <stop offset="0" style="stop-color:#369ad4"/>
   <stop offset="1" style="stop-color:#b6e2f3"/>
  </linearGradient>
  <filter style="color-interpolation-filters:sRGB" id="filter1040" width="1.046" height="1.05" x="-.02" y="-.03">
   <feGaussianBlur stdDeviation="2.32"/>
  </filter>
  <filter style="color-interpolation-filters:sRGB" id="filter4569" width="1.023" height="1.025" x="-.01" y="-.01">
   <feGaussianBlur stdDeviation="1.16"/>
  </filter>
  <filter style="color-interpolation-filters:sRGB" id="filter1820" width="1.094" height="1.098" x="-.05" y="-.05">
   <feGaussianBlur stdDeviation=".273"/>
  </filter>
 </defs>
 <g transform="translate(0,-229.26666)">
  <path d="m 162.53675,3.5680001 c 72.64865,0 83.03125,10.3566149 83.03125,82.9375049 v 58.125005 c 0,72.58059 -10.3826,82.9375 -83.03125,82.9375 H 88.599254 C 15.9506,227.56801 5.568,217.2111 5.568,144.63051 V 86.505505 c 0,-72.58089 10.3826,-82.9375049 83.031254,-82.9375049 z" transform="matrix(0.26458333,0,0,0.26458333,-1.8735229e-8,232.67026)" style="opacity:0.1;filter:url(#filter4569)"/>
  <path style="opacity:0.2;filter:url(#filter1040)" d="m 162.53675,5.5680001 c 72.64865,0 83.03125,10.3566149 83.03125,82.9375049 v 58.125005 c 0,72.58059 -10.3826,82.9375 -83.03125,82.9375 H 88.599254 C 15.9506,229.56801 5.568,219.2111 5.568,146.63051 V 88.505505 c 0,-72.58089 10.3826,-82.9375049 83.031254,-82.9375049 z" transform="matrix(0.26458333,0,0,0.26458333,-1.8735229e-8,232.67026)"/>
  <path style="fill:url(#linearGradient1015)" d="m 43.004513,233.61429 c 19.221622,0 21.968685,2.74019 21.968685,21.94388 v 15.37891 c 0,19.20362 -2.747063,21.94388 -21.968685,21.94388 h -19.56263 c -19.221622,0 -21.968684,-2.74026 -21.968684,-21.94388 v -15.37891 c 0,-19.20369 2.747062,-21.94388 21.968684,-21.94388 z"/>
  <path style="opacity:0.05;fill:#ff0000;fill-opacity:0" d="m 28.369747,245.78513 -4.655012,9.47952 v 7.83828 c -0.65351,0.76571 -1.367793,1.5373 -2.112531,2.28204 -2.447809,2.4478 -5.192144,4.58877 -7.027995,5.20071 l -3.092318,-3.08818 -9.479526,4.65501 v 22.58054 h 33.866666 v -42.01088 c -2.039491,-4.42431 -4.282035,-6.07499 -7.499284,-6.93704 z m -12.906705,30.29479 c 0.0011,-5.3e-4 0.0032,5.3e-4 0.0041,0 -0.345379,0.21569 -0.694661,0.42686 -1.04593,0.63665 0.351356,-0.20976 0.696344,-0.421 1.041802,-0.63665 z m -3.187401,1.86035 c 0.0011,-5.3e-4 0.0031,5.3e-4 0.0041,0 -0.362723,0.19832 -0.731391,0.3943 -1.099675,0.58705 0.368335,-0.19273 0.732772,-0.38875 1.095547,-0.58705 z"/>
  <path d="M 361.9375,-212 C 507.2348,-212 528,-191.28677 528,-46.125 V 70.125 C 528,215.28618 507.2348,236 361.9375,236 H 214.0625 C 68.7652,236 48,215.28618 48,70.125 V -46.125 C 48,-191.28677 68.7652,-212 214.0625,-212 Z" clip-path="url(#clipPath1082-3-75)" transform="matrix(0.13229167,0,0,0.13229167,-4.876801,261.66013)" style="opacity:0.5;fill:none;stroke:url(#linearGradient1108);stroke-width:8;stroke-linecap:round;stroke-linejoin:round"/>
  <g style="filter:url(#filter1820);opacity:0.3" label="status" transform="matrix(2.8316814,0,0,2.8316814,-762.46502,513.37905)">
   <path d="m 281.0002,-95.000001 c -6.7e-4,0 -0.001,1.59e-4 -0.002,0.0012 -10e-4,1.66e-4 -10e-4,9.99e-4 -10e-4,0.0015 -0.001,5e-4 -0.001,0.0013 -0.002,0.0018 -0.001,4.99e-4 -0.001,4.99e-4 -0.002,0.0012 -0.84339,1.809997 -1.49509,3.65462 -1.86564,4.784918 -1.21897,0.001 -3.22666,0.04723 -5.14021,0.295595 -1.6e-4,6.66e-4 -3.3e-4,10e-4 3.4e-4,0.0015 -1.7e-4,0.0012 6.6e-4,0.0017 0.001,0.0022 1.7e-4,0.0012 6.7e-4,0.0015 10e-4,0.0018 1.7e-4,0.0012 3.3e-4,0.001 6.7e-4,0.0015 1.46077,1.361454 3.01387,2.551278 3.97436,3.252997 -0.37586,1.159558 -0.95241,3.083467 -1.30752,4.980185 5e-4,3.33e-4 6.6e-4,5e-4 0.002,0 10e-4,5e-4 0.002,-1.67e-4 0.002,-3.33e-4 10e-4,1.66e-4 0.002,-1.67e-4 0.002,-3.33e-4 10e-4,1.66e-4 10e-4,1.66e-4 0.002,0 1.74632,-0.968619 3.35794,-2.077725 4.32211,-2.774361 0.98669,0.715812 2.63856,1.858515 4.33253,2.782274 5e-4,-3.33e-4 5e-4,-9.99e-4 3.3e-4,-0.0018 6.7e-4,-6.67e-4 3.4e-4,-0.0017 3.4e-4,-0.0021 5e-4,-0.001 3.3e-4,-0.0018 3.3e-4,-0.0021 5e-4,-0.001 6.7e-4,-0.0012 6.7e-4,-0.0019 -0.38157,-1.960181 -0.93862,-3.835712 -1.30321,-4.967959 0.9857,-0.717221 2.58251,-1.934673 3.98443,-3.26019 -1.7e-4,-5e-4 -5e-4,-0.001 -0.002,-0.0012 -5e-4,-10e-4 -10e-4,-10e-4 -0.002,-0.0012 -6.7e-4,-6.66e-4 -0.002,-9.99e-4 -0.002,-0.0012 -6.7e-4,-6.66e-4 -6.7e-4,-0.0012 -0.001,-0.0015 -1.98208,-0.242821 -3.93775,-0.292461 -5.12727,-0.295597 -0.37754,-1.159123 -1.04226,-3.054058 -1.86959,-4.796785 z"/>
  </g>
  <g label="status" transform="matrix(2.8316814,0,0,2.8316814,-762.46502,513.37905)" style="fill:#fed965">
   <path d="m 281.0002,-95.000001 c -6.7e-4,0 -0.001,1.59e-4 -0.002,0.0012 -10e-4,1.66e-4 -10e-4,9.99e-4 -10e-4,0.0015 -0.001,5e-4 -0.001,0.0013 -0.002,0.0018 -0.001,4.99e-4 -0.001,4.99e-4 -0.002,0.0012 -0.84339,1.809997 -1.49509,3.65462 -1.86564,4.784918 -1.21897,0.001 -3.22666,0.04723 -5.14021,0.295595 -1.6e-4,6.66e-4 -3.3e-4,10e-4 3.4e-4,0.0015 -1.7e-4,0.0012 6.6e-4,0.0017 0.001,0.0022 1.7e-4,0.0012 6.7e-4,0.0015 10e-4,0.0018 1.7e-4,0.0012 3.3e-4,0.001 6.7e-4,0.0015 1.46077,1.361454 3.01387,2.551278 3.97436,3.252997 -0.37586,1.159558 -0.95241,3.083467 -1.30752,4.980185 5e-4,3.33e-4 6.6e-4,5e-4 0.002,0 10e-4,5e-4 0.002,-1.67e-4 0.002,-3.33e-4 10e-4,1.66e-4 0.002,-1.67e-4 0.002,-3.33e-4 10e-4,1.66e-4 10e-4,1.66e-4 0.002,0 1.74632,-0.968619 3.35794,-2.077725 4.32211,-2.774361 0.98669,0.715812 2.63856,1.858515 4.33253,2.782274 5e-4,-3.33e-4 5e-4,-9.99e-4 3.3e-4,-0.0018 6.7e-4,-6.67e-4 3.4e-4,-0.0017 3.4e-4,-0.0021 5e-4,-0.001 3.3e-4,-0.0018 3.3e-4,-0.0021 5e-4,-0.001 6.7e-4,-0.0012 6.7e-4,-0.0019 -0.38157,-1.960181 -0.93862,-3.835712 -1.30321,-4.967959 0.9857,-0.717221 2.58251,-1.934673 3.98443,-3.26019 -1.7e-4,-5e-4 -5e-4,-0.001 -0.002,-0.0012 -5e-4,-10e-4 -10e-4,-10e-4 -0.002,-0.0012 -6.7e-4,-6.66e-4 -0.002,-9.99e-4 -0.002,-0.0012 -6.7e-4,-6.66e-4 -6.7e-4,-0.0012 -0.001,-0.0015 -1.98208,-0.242821 -3.93775,-0.292461 -5.12727,-0.295597 -0.37754,-1.159123 -1.04226,-3.054058 -1.86959,-4.796785 z" style="fill:#fed965"/>
  </g>
 </g>
</svg>
