<?xml version="1.0" encoding="UTF-8" standalone="no"?>
<!-- Created with Inkscape (http://www.inkscape.org/) -->

<svg
   xmlns:dc="http://purl.org/dc/elements/1.1/"
   xmlns:cc="http://creativecommons.org/ns#"
   xmlns:rdf="http://www.w3.org/1999/02/22-rdf-syntax-ns#"
   xmlns:svg="http://www.w3.org/2000/svg"
   xmlns="http://www.w3.org/2000/svg"
   xmlns:xlink="http://www.w3.org/1999/xlink"
   xmlns:sodipodi="http://sodipodi.sourceforge.net/DTD/sodipodi-0.dtd"
   xmlns:inkscape="http://www.inkscape.org/namespaces/inkscape"
   width="256"
   height="256"
   viewBox="0 0 67.733332 67.733335"
   version="1.1"
   id="svg1037"
   inkscape:version="0.92.3 (2405546, 2018-03-11)"
   sodipodi:docname="user-trash.svg">
  <defs
     id="defs1031">
    <linearGradient
       x1="1278"
       y1="-1062.6379"
       x2="1278"
       y2="-1118.6379"
       id="linearGradient21865"
       xlink:href="#linearGradient8754"
       gradientUnits="userSpaceOnUse"
       gradientTransform="matrix(2,0,0,2.00002,-1069,630.656)" />
    <linearGradient
       id="linearGradient8754">
      <stop
         id="stop8756"
         style="stop-color:#dc85e9;stop-opacity:1"
         offset="0" />
      <stop
         id="stop8758"
         style="stop-color:#f8dcfb;stop-opacity:1"
         offset="1" />
    </linearGradient>
    <linearGradient
       x1="1559.5"
       y1="184"
       x2="1542.0002"
       y2="184"
       id="linearGradient21867"
       xlink:href="#linearGradient8742"
       gradientUnits="userSpaceOnUse"
       gradientTransform="matrix(-1,0,0,1,2865,-1753.64)" />
    <linearGradient
       id="linearGradient8742">
      <stop
         id="stop8744"
         style="stop-color:#9200ff;stop-opacity:1"
         offset="0" />
      <stop
         id="stop8746"
         style="stop-color:#ff00ff;stop-opacity:0"
         offset="1" />
    </linearGradient>
    <linearGradient
       x1="1559.5"
       y1="184"
       x2="1542.0002"
       y2="184"
       id="linearGradient21869"
       xlink:href="#linearGradient8742"
       gradientUnits="userSpaceOnUse"
       gradientTransform="translate(-123,-1753.64)" />
    <radialGradient
       cx="152.3331"
       cy="-754.6377"
       r="15"
       fx="152.3331"
       fy="-754.6377"
       id="radialGradient21871"
       xlink:href="#linearGradient8717"
       gradientUnits="userSpaceOnUse"
       gradientTransform="matrix(4.06286e-6,1.01528,-4.27735,0,-1857.01,-1670.52)" />
    <linearGradient
       id="linearGradient8717">
      <stop
         id="stop8719"
         style="stop-color:#800080;stop-opacity:1"
         offset="0" />
      <stop
         id="stop8723"
         style="stop-color:#800080;stop-opacity:1"
         offset="0.7268371" />
      <stop
         id="stop8721"
         style="stop-color:#ff00ff;stop-opacity:0"
         offset="1" />
    </linearGradient>
    <linearGradient
       x1="453.50003"
       y1="970.5"
       x2="404.49997"
       y2="970.5"
       id="linearGradient21873"
       xlink:href="#linearGradient8964"
       gradientUnits="userSpaceOnUse"
       gradientTransform="matrix(2,0,0,2,513,-3495.64)" />
    <linearGradient
       id="linearGradient8964">
      <stop
         id="stop8966"
         style="stop-color:#e196fb;stop-opacity:1"
         offset="0" />
      <stop
         id="stop8968"
         style="stop-color:#f4c7fa;stop-opacity:1"
         offset="0.13010512" />
      <stop
         id="stop8970"
         style="stop-color:#e091f3;stop-opacity:1"
         offset="0.31360075" />
      <stop
         id="stop8972"
         style="stop-color:#d764e9;stop-opacity:1"
         offset="0.44078669" />
      <stop
         id="stop8974"
         style="stop-color:#e7adf0;stop-opacity:1"
         offset="0.68364757" />
      <stop
         id="stop8976"
         style="stop-color:#e6a9f8;stop-opacity:1"
         offset="0.75620717" />
      <stop
         id="stop8978"
         style="stop-color:#e595f2;stop-opacity:1"
         offset="0.88021636" />
      <stop
         id="stop8980"
         style="stop-color:#f2cbf8;stop-opacity:1"
         offset="1" />
    </linearGradient>
    <linearGradient
       x1="1322.0002"
       y1="-1568.5111"
       x2="1419.0002"
       y2="-1568.5111"
       id="linearGradient21875"
       xlink:href="#linearGradient8663"
       gradientUnits="userSpaceOnUse"
       gradientTransform="translate(0.022825,4.5e-5)" />
    <linearGradient
       id="linearGradient8663">
      <stop
         id="stop8665"
         style="stop-color:#9207a7;stop-opacity:1"
         offset="0" />
      <stop
         id="stop8667"
         style="stop-color:#c658bc;stop-opacity:1"
         offset="0.27254906" />
      <stop
         id="stop8669"
         style="stop-color:#a42eb6;stop-opacity:1"
         offset="0.50966245" />
      <stop
         id="stop8671"
         style="stop-color:#b415cd;stop-opacity:1"
         offset="0.83376038" />
      <stop
         id="stop8673"
         style="stop-color:#950ba8;stop-opacity:1"
         offset="1" />
    </linearGradient>
    <radialGradient
       cx="518.85358"
       cy="730.48431"
       r="22.889727"
       fx="518.85358"
       fy="730.48431"
       id="radialGradient21877"
       xlink:href="#linearGradient14494"
       gradientUnits="userSpaceOnUse"
       gradientTransform="matrix(0.959821,0,1.35768e-7,0.268231,21.681,534.374)" />
    <linearGradient
       id="linearGradient14494">
      <stop
         id="stop14496"
         style="stop-color:#dc85e9;stop-opacity:1"
         offset="0" />
      <stop
         id="stop14498"
         style="stop-color:#f2cbf8;stop-opacity:1"
         offset="1" />
    </linearGradient>
    <linearGradient
       id="linearGradient8859">
      <stop
         id="stop8861"
         style="stop-color:#ffffff;stop-opacity:1"
         offset="0" />
      <stop
         id="stop8863"
         style="stop-color:#aa0000;stop-opacity:0"
         offset="1" />
    </linearGradient>
    <linearGradient
       x1="1510.4767"
       y1="169.00002"
       x2="1485.8766"
       y2="193.9996"
       id="linearGradient21881"
       xlink:href="#linearGradient8984"
       gradientUnits="userSpaceOnUse"
       gradientTransform="matrix(0.984483,0,0,0.972527,-100.349,-1748.97)" />
    <linearGradient
       id="linearGradient8984">
      <stop
         id="stop8986"
         style="stop-color:#ffffff;stop-opacity:1"
         offset="0" />
      <stop
         id="stop8988"
         style="stop-color:#ffffff;stop-opacity:0"
         offset="1" />
    </linearGradient>
    <linearGradient
       x1="1354.5677"
       y1="-1522.3585"
       x2="1383.3801"
       y2="-1543.9813"
       id="linearGradient21883"
       xlink:href="#linearGradient8984"
       gradientUnits="userSpaceOnUse"
       gradientTransform="matrix(0.976263,0.126435,-0.367421,0.97673,-556.181,-210.596)" />
    <linearGradient
       id="linearGradient7701">
      <stop
         id="stop7699"
         style="stop-color:#950ba8;stop-opacity:1"
         offset="0" />
      <stop
         id="stop7693"
         style="stop-color:#c557bc;stop-opacity:1"
         offset="1" />
    </linearGradient>
    <radialGradient
       cx="152.3331"
       cy="-754.6377"
       r="15"
       fx="152.3331"
       fy="-754.6377"
       id="radialGradient21871-3"
       xlink:href="#linearGradient8717"
       gradientUnits="userSpaceOnUse"
       gradientTransform="matrix(4.06286e-6,1.01528,-4.27735,0,-1857.01,-1670.52)" />
    <radialGradient
       cx="518.85358"
       cy="730.48431"
       r="22.889727"
       fx="518.85358"
       fy="730.48431"
       id="radialGradient21877-8"
       xlink:href="#linearGradient14494"
       gradientUnits="userSpaceOnUse"
       gradientTransform="matrix(0.959821,0,1.35768e-7,0.268231,21.681,534.374)" />
    <linearGradient
       id="linearGradient9981">
      <stop
         id="stop9983"
         offset="0"
         style="stop-color: rgb(255, 246, 221); stop-opacity: 1;" />
      <stop
         id="stop9985"
         offset="1"
         style="stop-color: rgb(254, 248, 244); stop-opacity: 1;" />
    </linearGradient>
    <clipPath
       clipPathUnits="userSpaceOnUse"
       id="clipPath999">
      <path
         style="color:#000000;font-style:normal;font-variant:normal;font-weight:normal;font-stretch:normal;font-size:medium;line-height:normal;font-family:sans-serif;font-variant-ligatures:normal;font-variant-position:normal;font-variant-caps:normal;font-variant-numeric:normal;font-variant-alternates:normal;font-feature-settings:normal;text-indent:0;text-align:start;text-decoration:none;text-decoration-line:none;text-decoration-style:solid;text-decoration-color:#000000;letter-spacing:normal;word-spacing:normal;text-transform:none;writing-mode:lr-tb;direction:ltr;text-orientation:mixed;dominant-baseline:auto;baseline-shift:baseline;text-anchor:start;white-space:normal;shape-padding:0;clip-rule:nonzero;display:inline;overflow:visible;visibility:visible;opacity:0.56300001;isolation:auto;mix-blend-mode:normal;color-interpolation:sRGB;color-interpolation-filters:linearRGB;solid-color:#000000;solid-opacity:1;vector-effect:none;fill:#111111;fill-opacity:1;fill-rule:nonzero;stroke:none;stroke-width:16;stroke-linecap:round;stroke-linejoin:round;stroke-miterlimit:4;stroke-dasharray:none;stroke-dashoffset:0;stroke-opacity:0.49803922;color-rendering:auto;image-rendering:auto;shape-rendering:auto;text-rendering:auto;enable-background:new"
         d="m 142.9375,44 h 18.125 c 35.90898,0 54.29517,3.184359 63.02539,11.925781 C 232.81811,64.667204 236,80 236,112 c 0,32 -3.18189,47.3328 -11.91211,56.07422 C 215.35767,176.81564 196.97148,180 161.0625,180 h -18.125 C 107.02867,180 88.64237,176.81566 79.912109,168.07422 71.181849,159.33278 68,144 68,112 68,80 71.181849,64.667219 79.912109,55.925781 88.64237,47.184344 107.02867,44 142.9375,44 Z"
         id="path1001"
         inkscape:connector-curvature="0"
         sodipodi:nodetypes="sssssssscss" />
    </clipPath>
    <linearGradient
       inkscape:collect="always"
       xlink:href="#linearGradient2684"
       id="linearGradient3886"
       gradientUnits="userSpaceOnUse"
       x1="72"
       y1="108"
       x2="88"
       y2="108" />
    <linearGradient
       inkscape:collect="always"
       id="linearGradient2684">
      <stop
         style="stop-color:#000000;stop-opacity:1"
         offset="0"
         id="stop2680" />
      <stop
         style="stop-color:#103134;stop-opacity:1"
         offset="1"
         id="stop2682" />
    </linearGradient>
    <clipPath
       clipPathUnits="userSpaceOnUse"
       id="clipPath960">
      <path
         sodipodi:nodetypes="sssssssss"
         inkscape:connector-curvature="0"
         id="path962"
         d="M 244,192.96875 C 244,265.6174 233.64338,276 161.0625,276 h -18.125 C 70.35691,276 60,265.6174 60,192.96875 v -73.9375 C 60,46.3826 70.35691,36 142.9375,36 h 18.125 C 233.64338,36 244,46.3826 244,119.03125 Z"
         style="display:inline;opacity:1;fill:#2daaaa;fill-opacity:1;stroke:none;stroke-width:2;stroke-linecap:round;stroke-linejoin:round;stroke-miterlimit:4;stroke-dasharray:none;stroke-dashoffset:0;stroke-opacity:1;enable-background:new" />
    </clipPath>
    <filter
       inkscape:collect="always"
       style="color-interpolation-filters:sRGB"
       id="filter1574"
       x="-0.014698731"
       width="1.0293975"
       y="-0.01197862"
       height="1.0239572">
      <feGaussianBlur
         inkscape:collect="always"
         stdDeviation="0.29815998"
         id="feGaussianBlur1576" />
    </filter>
    <filter
       inkscape:collect="always"
       style="color-interpolation-filters:sRGB"
       id="filter1588"
       x="-0.066812415"
       width="1.1336248"
       y="-0.054448274"
       height="1.1088965">
      <feGaussianBlur
         inkscape:collect="always"
         stdDeviation="1.3552727"
         id="feGaussianBlur1590" />
    </filter>
    <linearGradient
       inkscape:collect="always"
       xlink:href="#linearGradient876"
       id="linearGradient918"
       x1="31.75"
       y1="233.49998"
       x2="31.75"
       y2="293.03122"
       gradientUnits="userSpaceOnUse" />
    <linearGradient
       inkscape:collect="always"
       id="linearGradient928">
      <stop
         style="stop-color:#808080;stop-opacity:1"
         offset="0"
         id="stop924" />
      <stop
         style="stop-color:#999999;stop-opacity:1"
         offset="1"
         id="stop926" />
    </linearGradient>
    <linearGradient
       inkscape:collect="always"
       xlink:href="#linearGradient928"
       id="linearGradient1884"
       gradientUnits="userSpaceOnUse"
       x1="152.0062"
       y1="112.01257"
       x2="152.0062"
       y2="239.9953"
       gradientTransform="matrix(0.26488626,0,0,0.26488626,-6.4611988,222.04517)" />
    <linearGradient
       inkscape:collect="always"
       id="linearGradient876">
      <stop
         style="stop-color:#b3b3b3;stop-opacity:1"
         offset="0"
         id="stop872" />
      <stop
         style="stop-color:#d9d9d9;stop-opacity:1"
         offset="1"
         id="stop874" />
    </linearGradient>
    <filter
       inkscape:collect="always"
       style="color-interpolation-filters:sRGB"
       id="filter920"
       x="-0.06840644"
       width="1.1368129"
       y="-0.053433571"
       height="1.1068671">
      <feGaussianBlur
         inkscape:collect="always"
         stdDeviation="0.75578971"
         id="feGaussianBlur922" />
    </filter>
  </defs>
  <sodipodi:namedview
     id="base"
     pagecolor="#ffffff"
     bordercolor="#666666"
     borderopacity="1.0"
     inkscape:pageopacity="0.0"
     inkscape:pageshadow="2"
     inkscape:zoom="3.3350638"
     inkscape:cx="125.55778"
     inkscape:cy="126.8993"
     inkscape:document-units="px"
     inkscape:current-layer="layer1"
     showgrid="true"
     units="px"
     inkscape:window-width="1920"
     inkscape:window-height="1009"
     inkscape:window-x="0"
     inkscape:window-y="34"
     inkscape:window-maximized="1"
     showguides="false">
    <inkscape:grid
       type="xygrid"
       id="grid1672" />
  </sodipodi:namedview>
  <metadata
     id="metadata1034">
    <rdf:RDF>
      <cc:Work
         rdf:about="">
        <dc:format>image/svg+xml</dc:format>
        <dc:type
           rdf:resource="http://purl.org/dc/dcmitype/StillImage" />
        <dc:title></dc:title>
      </cc:Work>
    </rdf:RDF>
  </metadata>
  <g
     inkscape:label="Livello 1"
     inkscape:groupmode="layer"
     id="layer1"
     transform="translate(0,-229.26665)">
    <path
       inkscape:connector-curvature="0"
       d="m 33.146038,233.55533 c -4.106758,0 -8.008176,1.19516 -8.008176,1.19516 l -1.325362,0.40357 v 6.28342 c -3.844034,0.68117 -7.598782,1.79455 -11.192778,3.31894 l -0.0075,3.73338 H 8.8788061 l 0.0098,3.98964 h 3.7236619 l 0.01505,33.34458 c 0,1.63895 0.149332,2.94192 0.56002,4.03958 0.414412,1.09781 1.161086,1.97124 2.101912,2.49391 1.877907,1.04557 4.181424,0.93269 7.291359,0.93269 h 21.146063 c 3.109936,0 5.413452,0.11282 7.29136,-0.93269 0.940822,-0.5221 1.680037,-1.39695 2.090713,-2.49391 0.410673,-1.09781 0.571209,-2.40063 0.571209,-4.03958 l -0.0076,-34.67624 H 49.68271 c 0.432156,0.002 -8.737534,1.33166 7.879479,1.33166 v -3.98964 l -3.889842,-0.002 0.0075,-3.73336 c -3.596114,-1.52568 -7.353483,-2.63909 -11.200245,-3.31894 v -6.20131 l -1.232019,-0.44447 c 0,0 -3.408609,-1.23186 -8.101509,-1.23186 z m 0,3.73337 c 3.322737,0 4.816102,0.57854 5.60012,0.82124 v 2.75904 c -1.857309,-0.20396 -3.724189,-0.30852 -5.592656,-0.31327 -1.874173,0 -3.744614,0.11282 -5.607588,0.32173 v -2.74041 c 0.993087,-0.26105 2.882195,-0.84804 5.600124,-0.84804 z"
       font-size="15"
       font-weight="400"
       letter-spacing="0"
       style="font-weight:400;font-size:15px;line-height:125%;font-family:Ubuntu;-inkscape-font-specification:Ubuntu;text-align:center;letter-spacing:0;word-spacing:0;text-anchor:middle;fill:#060606;fill-opacity:1;stroke-width:3.73341465;opacity:0.2;filter:url(#filter1588)"
       word-spacing="0"
       id="path1578"
       sodipodi:nodetypes="ccccccccccccsscccccccccccccccccccccc" />
    <path
       sodipodi:nodetypes="ccccccccccccsscccccccccccccccccccccc"
       id="path1564"
       word-spacing="0"
       style="font-weight:400;font-size:15px;line-height:125%;font-family:Ubuntu;-inkscape-font-specification:Ubuntu;text-align:center;letter-spacing:0;word-spacing:0;text-anchor:middle;fill:#060606;fill-opacity:1;stroke-width:3.73341465;filter:url(#filter1574);opacity:0.1"
       letter-spacing="0"
       font-weight="400"
       font-size="15"
       d="m 33.146038,233.55533 c -4.106758,0 -8.008176,1.19516 -8.008176,1.19516 l -1.325362,0.40357 v 6.28342 c -3.844034,0.68117 -7.598782,1.79455 -11.192778,3.31894 l -0.0075,3.73338 H 8.8788061 l 0.0098,3.98964 h 3.7236619 l 0.01505,33.34458 c 0,1.63895 0.149332,2.94192 0.56002,4.03958 0.414412,1.09781 1.161086,1.97124 2.101912,2.49391 1.877907,1.04557 4.181424,0.93269 7.291359,0.93269 h 21.146063 c 3.109936,0 5.413452,0.11282 7.29136,-0.93269 0.940822,-0.5221 1.680037,-1.39695 2.090713,-2.49391 0.410673,-1.09781 0.571209,-2.40063 0.571209,-4.03958 l -0.0076,-34.67624 H 49.68271 c 0.432156,0.002 -8.737534,1.33166 7.879479,1.33166 v -3.98964 l -3.889842,-0.002 0.0075,-3.73336 c -3.596114,-1.52568 -7.353483,-2.63909 -11.200245,-3.31894 v -6.20131 l -1.232019,-0.44447 c 0,0 -3.408609,-1.23186 -8.101509,-1.23186 z m 0,3.73337 c 3.322737,0 4.816102,0.57854 5.60012,0.82124 v 2.75904 c -1.857309,-0.20396 -3.724189,-0.30852 -5.592656,-0.31327 -1.874173,0 -3.744614,0.11282 -5.607588,0.32173 v -2.74041 c 0.993087,-0.26105 2.882195,-0.84804 5.600124,-0.84804 z"
       inkscape:connector-curvature="0" />
    <path
       inkscape:connector-curvature="0"
       d="m 33.146038,233.55533 c -4.106758,0 -8.008176,1.19516 -8.008176,1.19516 l -1.325362,0.40357 v 6.28342 c -3.844034,0.68117 -7.598782,1.79455 -11.192778,3.31894 l -0.0075,3.73338 H 8.8788061 l 0.0098,3.98964 h 3.7236619 l 0.01505,33.34458 c 0,1.63895 0.149332,2.94192 0.56002,4.03958 0.414412,1.09781 1.161086,1.97124 2.101912,2.49391 1.877907,1.04557 4.181424,0.93269 7.291359,0.93269 h 21.146063 c 3.109936,0 5.413452,0.11282 7.29136,-0.93269 0.940822,-0.5221 1.680037,-1.39695 2.090713,-2.49391 0.410673,-1.09781 0.571209,-2.40063 0.571209,-4.03958 l -0.0076,-34.67624 H 49.68271 c 0.432156,0.002 -8.737534,1.33166 7.879479,1.33166 v -3.98964 l -3.889842,-0.002 0.0075,-3.73336 c -3.596114,-1.52568 -7.353483,-2.63909 -11.200245,-3.31894 v -6.20131 l -1.232019,-0.44447 c 0,0 -3.408609,-1.23186 -8.101509,-1.23186 z m 0,3.73337 c 3.322737,0 4.816102,0.57854 5.60012,0.82124 v 2.75904 c -1.857309,-0.20396 -3.724189,-0.30852 -5.592656,-0.31327 -1.874173,0 -3.744614,0.11282 -5.607588,0.32173 v -2.74041 c 0.993087,-0.26105 2.882195,-0.84804 5.600124,-0.84804 z"
       font-size="15"
       font-weight="400"
       letter-spacing="0"
       style="font-weight:400;font-size:15px;line-height:125%;font-family:Ubuntu;-inkscape-font-specification:Ubuntu;text-align:center;letter-spacing:0;word-spacing:0;text-anchor:middle;fill:url(#linearGradient918);fill-opacity:1;stroke-width:3.73341465"
       word-spacing="0"
       id="path963"
       sodipodi:nodetypes="ccccccccccccsscccccccccccccccccccccc" />
    <rect
       style="opacity:0.4;fill:#000000;fill-opacity:1;stroke:none;stroke-width:0.1292444;stroke-linecap:round;stroke-linejoin:round;stroke-miterlimit:4;stroke-dasharray:none;stroke-opacity:1;"
       id="rect844"
       width="41.036877"
       height="1.0583333"
       x="12.620625"
       y="252.48489"
       ry="0" />
    <path
       style="font-weight:400;font-size:15px;line-height:125%;font-family:Ubuntu;-inkscape-font-specification:Ubuntu;text-align:center;letter-spacing:0;word-spacing:0;text-anchor:middle;opacity:0.15;fill:#383838;fill-opacity:1;stroke-width:3.73341441"
       d="m 33.415138,233.57388 v 3.7269 c 3.110437,0.034 4.571278,0.5741 5.33094,0.80926 v 2.759 c -1.770594,-0.19444 -3.549867,-0.29199 -5.33094,-0.30541 v 52.7265 h 10.311515 c 3.109936,0 5.413636,0.11275 7.291544,-0.93276 0.940822,-0.5221 1.679636,-1.39694 2.090312,-2.4939 0.410673,-1.09781 0.571541,-2.4006 0.571541,-4.03955 l -0.0072,-33.38814 c 1.147219,0.0219 2.3026,0.0434 3.889168,0.0434 v -3.98942 l -3.889685,-0.002 0.0078,-3.73311 c -3.596114,-1.52568 -7.353588,-2.63932 -11.20035,-3.31917 v -6.20118 l -1.231966,-0.44441 c 0,0 -3.290071,-1.16696 -7.832596,-1.21595 z"
       id="path1545"
       inkscape:connector-curvature="0" />
    <path
       style="font-weight:400;font-size:15px;line-height:125%;font-family:Ubuntu;-inkscape-font-specification:Ubuntu;text-align:center;letter-spacing:0;word-spacing:0;text-anchor:middle;fill:#efefef;fill-opacity:1;stroke-width:14.11054325;opacity:0.2"
       d="M 125.27539 16.208984 C 109.75379 16.208984 95.009766 20.726562 95.009766 20.726562 L 90 22.251953 L 90 24.251953 L 95.009766 22.726562 C 95.009766 22.726562 109.75379 18.208984 125.27539 18.208984 L 125.27734 18.21875 C 143.01429 18.21875 155.89648 22.875 155.89648 22.875 L 160.55273 24.554688 L 160.55273 22.554688 L 155.89648 20.875 C 155.89648 20.875 143.01429 16.21875 125.27734 16.21875 L 125.27539 16.208984 z M 125.30469 42.667969 C 118.2212 42.667969 111.15249 43.093231 104.11133 43.882812 L 104.11133 45.882812 C 111.15249 45.093231 118.2212 44.667969 125.30469 44.667969 C 132.36661 44.685922 139.42166 45.08069 146.44141 45.851562 L 146.44141 43.851562 C 139.42166 43.08069 132.36661 42.685922 125.30469 42.667969 z M 160.55273 45.992188 L 160.55273 47.992188 C 175.09025 50.561447 189.29046 54.76968 202.88086 60.535156 L 202.88477 58.537109 C 189.29315 52.77076 175.09168 48.561699 160.55273 45.992188 z M 90 46 C 75.471368 48.574501 61.280873 52.783448 47.697266 58.544922 L 47.667969 72.654297 L 33.558594 72.654297 L 33.564453 74.654297 L 47.667969 74.654297 L 47.697266 60.544922 C 61.280873 54.783448 75.471368 50.574501 90 48 L 90 46 z M 202.85938 72.646484 L 202.85547 74.646484 L 217.55859 74.654297 L 217.55859 72.654297 L 202.85938 72.646484 z "
       transform="matrix(0.26458333,0,0,0.26458333,0,229.26665)"
       id="path1607" />
    <path
       style="font-weight:400;font-size:15px;line-height:125%;font-family:Ubuntu;-inkscape-font-specification:Ubuntu;text-align:center;letter-spacing:0;word-spacing:0;text-anchor:middle;fill:#100000;fill-opacity:1;stroke-width:14.11054325;opacity:0.2"
       d="M 125.27539 28.320312 C 115.0029 28.320312 107.86473 30.538745 104.11133 31.525391 L 104.11133 33.525391 C 107.86473 32.538745 115.0029 30.320312 125.27539 30.320312 C 137.83377 30.320312 143.47819 32.506537 146.44141 33.423828 L 146.44141 31.423828 C 143.47819 30.506537 137.83377 28.320312 125.27539 28.320312 z M 202.88086 58.535156 L 202.85547 70.646484 L 202.85938 70.646484 L 202.88477 58.537109 C 202.88343 58.536542 202.8822 58.535723 202.88086 58.535156 z M 33.558594 72.654297 L 33.595703 87.732422 L 47.667969 87.732422 L 47.667969 85.732422 L 33.595703 85.732422 L 33.564453 72.654297 L 33.558594 72.654297 z M 202.85742 85.601562 L 202.85742 87.601562 C 207.08649 87.678642 211.78733 87.732422 217.55859 87.732422 L 217.55859 85.732422 C 211.78733 85.732422 207.08649 85.678642 202.85742 85.601562 z M 47.724609 211.75977 L 47.724609 213.75977 C 47.724609 219.95422 48.28959 224.87871 49.841797 229.02734 C 51.408078 233.17655 54.231232 236.47768 57.787109 238.45312 C 64.884711 242.40489 73.589665 241.97852 85.34375 241.97852 L 165.26562 241.97852 C 177.01971 241.97852 185.72661 242.40466 192.82422 238.45312 C 196.38008 236.47983 199.1744 233.17333 200.72656 229.02734 C 202.27871 224.87814 202.88477 219.95422 202.88477 213.75977 L 202.88477 211.79297 C 202.88255 217.97144 202.27587 222.88574 200.72656 227.02734 C 199.1744 231.17333 196.38008 234.47983 192.82422 236.45312 C 185.72661 240.40466 177.01971 239.97852 165.26562 239.97852 L 85.34375 239.97852 C 73.589665 239.97852 64.884711 240.40489 57.787109 236.45312 C 54.231232 234.47768 51.408078 231.17655 49.841797 227.02734 C 48.28959 222.87871 47.724609 217.95422 47.724609 211.75977 z "
       transform="matrix(0.26458333,0,0,0.26458333,0,229.26665)"
       id="path1612" />
    <g
       id="g836"
       transform="matrix(0.16778551,0,0,0.14500074,5.2167631,240.13154)"
       style="fill:#070404;fill-opacity:1;opacity:0.4">
      <rect
         ry="12"
         rx="12"
         y="123.12527"
         x="94.428741"
         height="189.59331"
         width="24.946486"
         id="rect827"
         style="opacity:1;fill:#070404;fill-opacity:1;stroke:none;stroke-width:1.52565789;stroke-linecap:butt;stroke-linejoin:round;stroke-miterlimit:4;stroke-dasharray:none;stroke-dashoffset:0;stroke-opacity:1" />
      <rect
         style="opacity:1;fill:#070404;fill-opacity:1;stroke:none;stroke-width:1.52565789;stroke-linecap:butt;stroke-linejoin:round;stroke-miterlimit:4;stroke-dasharray:none;stroke-dashoffset:0;stroke-opacity:1"
         id="rect829"
         width="24.946486"
         height="189.59331"
         x="154.42874"
         y="123.12527"
         rx="12"
         ry="12" />
      <rect
         ry="12"
         rx="12"
         y="123.12527"
         x="214.42874"
         height="189.59331"
         width="24.946486"
         id="rect831"
         style="opacity:1;fill:#070404;fill-opacity:1;stroke:none;stroke-width:1.52565789;stroke-linecap:butt;stroke-linejoin:round;stroke-miterlimit:4;stroke-dasharray:none;stroke-dashoffset:0;stroke-opacity:1" />
    </g>
    <g
       id="g960"
       transform="translate(3.7041668,0.81277545)">
      <path
         transform="matrix(1.0532938,0,0,1.0562147,-3.0644881,-17.221521)"
         style="opacity:0.3;fill:#393939;fill-opacity:1;stroke-width:0.17499222;filter:url(#filter920)"
         d="m 36.978259,293.00805 c -5.239861,-0.22199 -5.917947,-0.31985 -6.271133,-0.90489 -0.249405,-0.41313 0.154163,-1.28037 0.238543,-1.76681 0.109724,-0.6325 0.360396,-2.03462 0.360396,-2.03462 l 0.878133,-5.94331 c 1.460913,-9.88765 0.832003,-12.48997 1.909987,-14.41921 0.760868,-1.36172 2.71277,-2.34918 5.553801,-2.80969 2.249077,-0.36455 2.137783,-0.2352 1.161377,-1.35018 -0.96754,-1.10492 -1.426915,-2.17923 -0.995006,-2.76919 0.265019,-0.36201 0.660066,-0.21113 1.418048,0 2.268878,1.56847 0.850829,-0.31371 1.13444,-0.9411 0.283609,-0.62738 0.356114,-0.39387 0.567219,-0.62738 0.704814,-0.77956 1.515354,0.61372 1.681618,1.61748 0.303649,1.83317 0.02969,0.32153 0.870868,-0.36271 0.867468,-0.7056 1.574814,-0.40246 2.164741,0.20787 0.861049,0.89083 0.840161,1.04009 -0.218977,1.56485 -1.791744,0.25794 -1.378543,1.05055 -1.945764,1.99165 -0.283608,0.62739 0.7079,0.52106 1.701659,0.62739 0.640598,0.0685 1.839957,0.20528 2.526312,0.39456 2.576988,0.71063 3.67124,1.52882 4.372033,3.269 0.840409,2.08684 0.864275,4.32981 1.534621,14.03803 0.358937,5.19824 0.642546,5.19824 0.926155,6.45303 0.28361,0.94108 0.777594,2.44493 0.527357,2.85946 -0.32396,0.53662 -1.025935,0.65217 -4.912561,0.80861 -7.633578,0.30728 -9.868625,0.32144 -15.183868,0.0962 z m 7.378537,-20.56044 c 0.28264,-0.31262 0.321776,-2.3619 -0.0048,-4.53614 -0.319879,-2.13043 -0.726563,-2.05342 -1.115725,0.43557 -0.310731,1.98735 -0.163992,3.43198 0.264895,3.95618 0.348539,0.42596 0.584448,0.4442 0.855518,0.14429 z m -5.393268,-2.34027 c 0.472521,-0.53657 1.253946,-2.24496 1.746621,-3.03509 0.994314,-1.59466 0.911913,-1.61284 -0.898093,-0.19831 -1.305189,1.02001 -2.41032,2.35292 -2.41032,2.90711 0,0.99885 0.504328,1.52704 1.561792,0.32629 z m 11.082968,-0.0137 c 0.354486,-0.73264 0.710739,-1.18036 -1.440239,-2.80951 -0.679153,-0.5144 -2.477072,-1.56964 -2.518818,-1.52347 -0.135631,0.14997 1.437094,3.285 2.252236,4.12835 0.89043,0.92126 1.453545,0.72808 1.706821,0.20463 z"
         id="path898"
         inkscape:connector-curvature="0"
         sodipodi:nodetypes="ccscscscccccscccccccscccccccsccccccsccccsc" />
      <path
         inkscape:connector-curvature="0"
         id="path1644"
         d="m 45.983891,263.01476 a 4.0007313,1.6903336 47.032273 0 0 -0.607726,0.25061 4.0007313,1.6903336 47.032273 0 0 1.60067,4.12764 4.0007313,1.6903336 47.032273 0 0 3.920319,1.66042 4.0007313,1.6903336 47.032273 0 0 -1.600669,-4.12764 4.0007313,1.6903336 47.032273 0 0 -3.312594,-1.91103 z m -5.99752,0.24585 a 1.6903336,4.0007313 42.967727 0 0 -3.311951,1.91102 1.6903336,4.0007313 42.967727 0 0 -1.600665,4.12765 1.6903336,4.0007313 42.967727 0 0 3.920314,-1.66042 1.6903336,4.0007313 42.967727 0 0 1.60067,-4.12765 1.6903336,4.0007313 42.967727 0 0 -0.608368,-0.2506 z m 3.265,0.23768 a 1.6464076,4.1074703 1.6425277 0 0 -1.765943,4.05158 1.6464076,4.1074703 1.6425277 0 0 1.524784,4.15958 1.6464076,4.1074703 1.6425277 0 0 1.765942,-4.05159 1.6464076,4.1074703 1.6425277 0 0 -1.524783,-4.15957 z"
         style="opacity:1;fill:#d0d0d0;fill-opacity:1;stroke:none;stroke-width:0.6767205;stroke-linecap:butt;stroke-linejoin:round;stroke-miterlimit:4;stroke-dasharray:none;stroke-dashoffset:0;stroke-opacity:1" />
      <path
         sodipodi:nodetypes="ccscscscccccscccccccscccccccsccccccsccccsc"
         inkscape:connector-curvature="0"
         id="path817"
         d="m 35.884481,292.25786 c -5.519113,-0.23447 -6.233338,-0.33784 -6.605345,-0.95576 -0.262697,-0.43636 0.162378,-1.35235 0.251255,-1.86614 0.115572,-0.66805 0.379603,-2.14899 0.379603,-2.14899 l 0.924932,-6.27741 c 1.538771,-10.44348 0.876344,-13.19209 2.011778,-15.22978 0.801417,-1.43827 2.857344,-2.48123 5.849784,-2.96764 2.368939,-0.38504 2.251713,-0.24841 1.223271,-1.42607 -1.019103,-1.16703 -1.50296,-2.30174 -1.048033,-2.92486 0.279142,-0.38237 0.695243,-0.22301 1.493621,0 2.389794,1.65663 0.896172,-0.33135 1.194899,-0.994 0.298722,-0.66266 0.375093,-0.41601 0.597448,-0.66266 0.742376,-0.82338 1.596113,0.64822 1.771237,1.70841 0.319832,1.93621 0.03128,0.3396 0.91728,-0.3831 0.913698,-0.74526 1.658742,-0.42509 2.280109,0.21955 0.906938,0.94091 0.884935,1.09855 -0.230647,1.65282 -1.887234,0.27245 -1.452012,1.1096 -2.049462,2.10362 -0.298722,0.66265 0.745626,0.55034 1.792347,0.66265 0.674738,0.0724 1.938015,0.21683 2.660949,0.41674 2.714325,0.75058 3.866893,1.61476 4.605036,3.45277 0.885195,2.20415 0.910333,4.5732 1.616405,14.82717 0.378066,5.49046 0.676789,5.49046 0.975514,6.81579 0.298725,0.99398 0.819036,2.58236 0.555461,3.0202 -0.341226,0.56678 -1.080609,0.68882 -5.17437,0.85407 -8.040399,0.32455 -10.394561,0.33951 -15.993073,0.1016 z m 7.771767,-21.71625 c 0.297702,-0.33019 0.338925,-2.49467 -0.0051,-4.79113 -0.336925,-2.2502 -0.765283,-2.16885 -1.175187,0.46006 -0.327289,2.09907 -0.172731,3.62491 0.279013,4.17857 0.367114,0.44991 0.615595,0.46917 0.901111,0.1524 z m -5.680696,-2.47183 c 0.497704,-0.56672 1.320774,-2.37115 1.839706,-3.2057 1.047304,-1.6843 0.960512,-1.70349 -0.945956,-0.20946 -1.374747,1.07736 -2.538775,2.48519 -2.538775,3.07054 0,1.055 0.531205,1.61288 1.645025,0.34462 z m 11.673621,-0.0145 c 0.373378,-0.77383 0.748617,-1.24672 -1.516995,-2.96745 -0.715346,-0.54331 -2.609083,-1.65787 -2.653053,-1.60911 -0.142862,0.1584 1.513681,3.46967 2.372264,4.36043 0.937885,0.97305 1.531011,0.76901 1.797784,0.21613 z"
         style="fill:#434343;fill-opacity:1;stroke-width:0.18457361" />
      <path
         sodipodi:nodetypes="cccccccccccccccccccccccccccccc"
         inkscape:connector-curvature="0"
         id="path1651"
         d="m 41.568534,257.44973 c -0.0031,0.006 -0.0052,0.0106 -0.0082,0.0174 -0.108077,0.23975 0.01843,0.65172 0.110788,1.00307 0.187458,-0.099 -0.0051,-0.57789 -0.10256,-1.02048 z m -2.830426,1.2978 c -0.175964,0.65096 0.303143,1.63247 1.181928,2.63881 0.185817,0.21277 0.327376,0.37123 0.444413,0.50903 0.487172,-0.15804 0.209331,-0.3751 -0.444413,-1.12371 -0.633573,-0.72554 -1.059077,-1.43874 -1.181928,-2.02413 z m 8.897708,0.19028 c -0.138253,0.13508 -0.382293,0.27187 -0.74005,0.44961 -1.887232,0.27244 -1.45241,1.10996 -2.04986,2.10397 -0.09852,0.21854 -0.0487,0.35179 0.09686,0.43759 0.456795,-0.9155 0.178703,-1.67074 1.953001,-1.92687 0.829199,-0.41199 1.051601,-0.60606 0.740049,-1.0643 z m -18.401894,31.6489 c -0.05235,0.27803 -0.0623,0.53737 0.04495,0.71553 0.372004,0.61792 1.086271,0.72117 6.605384,0.95564 v -10e-4 c 5.598513,0.23787 7.952689,0.22312 15.993087,-0.10139 4.093759,-0.16526 4.833436,-0.28743 5.174662,-0.8542 0.08341,-0.13855 0.08288,-0.39941 0.04116,-0.71312 -0.01074,0.0373 -0.02418,0.0702 -0.04116,0.0984 -0.341226,0.56677 -1.080903,0.68896 -5.174662,0.85418 -8.040398,0.32455 -10.394574,0.33931 -15.993087,0.1014 v 10e-4 c -5.519113,-0.23447 -6.23338,-0.3377 -6.605384,-0.95563 -0.01867,-0.031 -0.03286,-0.0653 -0.04495,-0.10087 z"
         style="opacity:0.3;fill:#535353;fill-opacity:1;stroke-width:0.18457361" />
      <path
         sodipodi:nodetypes="cccccscccccccccccccccccccscccccccccccccccscccsccccc"
         inkscape:connector-curvature="0"
         id="path1656"
         d="m 42.582072,256.56553 c -0.14182,0.0109 -0.284959,0.0845 -0.424155,0.23891 -0.222354,0.24663 -0.298888,5e-5 -0.597611,0.6627 -0.06766,0.15009 -0.04205,0.36897 0.0082,0.59727 0.291099,-0.63726 0.369335,-0.40122 0.589382,-0.64528 0.742379,-0.8234 1.596188,0.64819 1.771312,1.70836 0.319833,1.93623 0.03068,0.33974 0.916677,-0.38297 0.913698,-0.74526 1.658929,-0.42493 2.280297,0.21971 0.232822,0.24153 0.402013,0.42999 0.509613,0.58827 0.292861,-0.28615 0.106477,-0.56379 -0.509613,-1.20296 -0.621367,-0.64464 -1.366598,-0.96496 -2.280296,-0.21969 -0.886006,0.7227 -0.596844,2.31917 -0.916677,0.38298 -0.142288,-0.86142 -0.732613,-1.99435 -1.347156,-1.9473 z m -3.325485,1.66876 c -0.156136,0.0163 -0.280226,0.0835 -0.384903,0.22691 -0.172099,0.23573 -0.208329,0.54479 -0.133576,0.90101 0.0281,-0.10394 0.07094,-0.20053 0.133576,-0.28633 0.279142,-0.38235 0.69502,-0.223 1.493397,0 1.525187,1.05728 1.468925,0.62877 1.306013,0.01 -0.142814,0.0754 -0.506706,-0.0696 -1.306013,-0.62368 -0.498986,-0.13937 -0.84827,-0.25397 -1.108494,-0.22691 z m 1.107862,4.27577 c -0.279227,0.0906 -0.805032,0.16164 -1.668124,0.30192 -2.992439,0.4864 -5.04809,1.52951 -5.849507,2.96777 -1.135435,2.0377 -0.473105,4.78608 -2.011876,15.22958 l -0.924907,6.27767 c 0,0 -0.264267,1.48092 -0.379837,2.14899 -0.08255,0.47727 -0.454302,1.30087 -0.296276,1.76539 0.07587,-0.40296 0.243683,-0.8467 0.296276,-1.15071 0.11557,-0.66807 0.379837,-2.14899 0.379837,-2.14899 l 0.924907,-6.27768 c 1.538771,-10.44348 0.876441,-13.19188 2.011876,-15.22957 0.801417,-1.43826 2.857068,-2.48137 5.849507,-2.96775 1.94093,-0.31549 2.198851,-0.29176 1.668124,-0.91662 z m 4.578316,0.0336 c -0.02907,0.0583 -0.06111,0.1176 -0.09686,0.17709 -0.298724,0.66265 0.746115,0.55038 1.792836,0.66269 0.674738,0.0723 1.937832,0.21668 2.660765,0.41659 2.714326,0.75058 3.866766,1.61479 4.604907,3.45279 0.885195,2.20415 0.910772,4.57282 1.616845,14.82678 0.378063,5.49047 0.676193,5.49081 0.974915,6.81613 0.20419,0.67942 0.506841,1.62929 0.596982,2.30686 0.15607,-0.54148 -0.317489,-1.99154 -0.596982,-2.92153 -0.298722,-1.32534 -0.596852,-1.32567 -0.974915,-6.81613 -0.706073,-10.25397 -0.73165,-12.62263 -1.616845,-14.82678 -0.738141,-1.83801 -1.890581,-2.7022 -4.604907,-3.45279 -0.722933,-0.19992 -1.986027,-0.34422 -2.660765,-0.41659 -0.701502,-0.0753 -1.40018,-0.0507 -1.695976,-0.22511 z"
         style="opacity:0.1;fill:#ffffff;fill-opacity:1;stroke-width:0.18457361" />
    </g>
  </g>
</svg>
