<svg width="256" height="256" version="1.1" viewBox="0 0 256 256" xmlns="http://www.w3.org/2000/svg" xmlns:xlink="http://www.w3.org/1999/xlink">
 <defs>
  <linearGradient id="linearGradient1108" x1="296" x2="296" y1="-212" y2="236" gradientUnits="userSpaceOnUse">
   <stop style="stop-color:#ffffff" offset="0"/>
   <stop style="stop-color:#ffffff;stop-opacity:.09803922" offset=".125"/>
   <stop style="stop-color:#000000;stop-opacity:.09803922" offset=".925"/>
   <stop style="stop-color:#000000;stop-opacity:.49803922" offset="1"/>
  </linearGradient>
  <clipPath id="clipPath1082-3-3">
   <path d="M 361.9375,-212 C 507.2348,-212 528,-191.28677 528,-46.125 V 70.125 C 528,215.28618 507.2348,236 361.9375,236 H 214.0625 C 68.7652,236 48,215.28618 48,70.125 V -46.125 C 48,-191.28677 68.7652,-212 214.0625,-212 Z" style="fill:#8c59d9"/>
  </clipPath>
  <linearGradient id="linearGradient878" x1="32" x2="272" y1="156" y2="156" gradientTransform="rotate(60,162.6586,119.3252)" gradientUnits="userSpaceOnUse">
   <stop style="stop-color:#2f5fdd" offset="0"/>
   <stop style="stop-color:#5884f4" offset="1"/>
  </linearGradient>
  <filter id="filter906" x="-.02" y="-.03" width="1.046" height="1.05" style="color-interpolation-filters:sRGB">
   <feGaussianBlur stdDeviation="2.32"/>
  </filter>
 </defs>
 <path d="m162.53675 18.43198c72.64865 0 83.03125 10.356615 83.03125 82.9375v58.12501c0 72.58059-10.3826 82.9375-83.03125 82.9375h-73.937496c-72.648654 0-83.031254-10.35691-83.031254-82.9375v-58.12501c0-72.580885 10.3826-82.9375 83.031254-82.9375z" style="filter:url(#filter906);opacity:.2"/>
 <path d="m162.53672 16.431998c72.64864-3e-6 83.03125 10.356619 83.03125 82.937497v58.125005c-1e-5 72.58059-10.38261 82.9375-83.03125 82.9375h-73.937506c-72.648642 1e-5 -83.031243-10.35691-83.03124-82.9375l-4e-6 -58.125005c2e-6 -72.58088 10.382604-82.937503 83.031254-82.937499z" style="fill:url(#linearGradient878)"/>
 <path d="m125.56797 44.433948c-46.345646 0-83.999998 37.654976-83.999998 83.998062 0 46.34307 37.654352 83.99804 83.999998 83.99804 46.34564 0 84-37.65497 84-83.99804 0-46.343086-37.65436-83.998062-84-83.998062zm0 7.996094c42.01956 0 76 33.979833 76 76.001968 0 42.02213-33.98044 76.00194-76 76.00194-42.019566 0-75.999998-33.97981-75.999998-76.00194 0-42.022135 33.980432-76.001968 75.999998-76.001968zm-2e-3 20.003902a16 16 0 0 0-16.00001 16.000001 16 16 0 0 0 16.00001 16.000005 16 16 0 0 0 16-16.000005 16 16 0 0 0-16-16.000001zm-47.999956 40.000006v8.00001l9.91797 0.0156c4.16942-4e-5 7.71221 0.6015 10.62892 1.87891 2.865066 1.19041 5.214966 2.94566 6.941396 5.24219 1.76905 2.20337 2.99745 4.85456 3.6875 7.89061 0.69475 3.05702 0.79505 6.28531 1.00781 9.69922l4e-3 0.0469-0.0743 39.22656h7.88672v-28c0-4.41827 3.58172-8 8-8s8 3.58173 8 8v28h8l0.0742-39.17968c7e-3 -3.53983 0.33676-6.8059 1.01562-9.79297 0.69118-3.04108 1.92156-5.69683 3.69532-7.90235 1.72652-2.29138 4.07562-4.04619 6.9375-5.23437 2.91528-1.27518 7.04264-1.875 10.62109-1.875h9.65627v-8.01563z" style="fill:#faf8f6"/>
 <path transform="matrix(.5 0 0 .5 -18.432006 122.43199)" d="M 361.9375,-212 C 507.2348,-212 528,-191.28677 528,-46.125 V 70.125 C 528,215.28618 507.2348,236 361.9375,236 H 214.0625 C 68.7652,236 48,215.28618 48,70.125 V -46.125 C 48,-191.28677 68.7652,-212 214.0625,-212 Z" clip-path="url(#clipPath1082-3-3)" style="fill:none;opacity:.4;stroke-linecap:round;stroke-linejoin:round;stroke-width:8;stroke:url(#linearGradient1108)"/>
</svg>
