<?xml version="1.0" encoding="UTF-8" standalone="no"?>
<svg
   xmlns:dc="http://purl.org/dc/elements/1.1/"
   xmlns:cc="http://creativecommons.org/ns#"
   xmlns:rdf="http://www.w3.org/1999/02/22-rdf-syntax-ns#"
   xmlns:svg="http://www.w3.org/2000/svg"
   xmlns="http://www.w3.org/2000/svg"
   xmlns:xlink="http://www.w3.org/1999/xlink"
   xmlns:sodipodi="http://sodipodi.sourceforge.net/DTD/sodipodi-0.dtd"
   xmlns:inkscape="http://www.inkscape.org/namespaces/inkscape"
   width="256"
   height="256"
   style="enable-background:new"
   version="1.0"
   id="svg86"
   sodipodi:docname="b.svg"
   inkscape:version="0.92.3 (2405546, 2018-03-11)">
  <metadata
     id="metadata90">
    <rdf:RDF>
      <cc:Work
         rdf:about="">
        <dc:format>image/svg+xml</dc:format>
        <dc:type
           rdf:resource="http://purl.org/dc/dcmitype/StillImage" />
        <dc:title />
      </cc:Work>
    </rdf:RDF>
  </metadata>
  <sodipodi:namedview
     pagecolor="#ffffff"
     bordercolor="#666666"
     borderopacity="1"
     objecttolerance="10"
     gridtolerance="10"
     guidetolerance="10"
     inkscape:pageopacity="0"
     inkscape:pageshadow="2"
     inkscape:window-width="1920"
     inkscape:window-height="1009"
     id="namedview88"
     showgrid="false"
     inkscape:zoom="3.2617188"
     inkscape:cx="73.274252"
     inkscape:cy="128"
     inkscape:window-x="0"
     inkscape:window-y="34"
     inkscape:window-maximized="1"
     inkscape:current-layer="g34" />
  <defs
     id="defs26">
    <linearGradient
       id="linearGradient2229">
      <stop
         id="stop2225"
         stop-color="#a0a0a0"
         offset="0"
         style="stop-color:#e9be4b;stop-opacity:1" />
      <stop
         id="stop2227"
         stop-color="#555"
         offset="1"
         style="stop-color:#574611;stop-opacity:1" />
    </linearGradient>
    <filter
       id="filter925"
       x="-.02"
       y="-.03"
       width="1.046"
       height="1.05"
       style="color-interpolation-filters:sRGB">
      <feGaussianBlur
         stdDeviation="2.32"
         id="feGaussianBlur2" />
    </filter>
    <filter
       id="filter931"
       x="-.01"
       y="-.01"
       width="1.023"
       height="1.025"
       style="color-interpolation-filters:sRGB">
      <feGaussianBlur
         stdDeviation="1.16"
         id="feGaussianBlur5" />
    </filter>
    <filter
       id="filter1736"
       x="-.01"
       y="-.01"
       width="1.024"
       height="1.024"
       style="color-interpolation-filters:sRGB">
      <feGaussianBlur
         stdDeviation=".147"
         id="feGaussianBlur8" />
    </filter>
    <filter
       id="filter1748"
       x="-.01"
       y="-.01"
       width="1.027"
       height="1.021"
       style="color-interpolation-filters:sRGB">
      <feGaussianBlur
         stdDeviation=".599"
         id="feGaussianBlur11" />
    </filter>
    <linearGradient
       id="linearGradient1108"
       x1="296"
       x2="296"
       y1="-212"
       y2="236"
       gradientUnits="userSpaceOnUse">
      <stop
         style="stop-color:#ffffff"
         offset="0"
         id="stop14" />
      <stop
         style="stop-color:#ffffff;stop-opacity:.09803922"
         offset=".125"
         id="stop16" />
      <stop
         style="stop-color:#000000;stop-opacity:.09803922"
         offset=".925"
         id="stop18" />
      <stop
         style="stop-color:#000000;stop-opacity:.49803922"
         offset="1"
         id="stop20" />
    </linearGradient>
    <clipPath
       id="clipPath1082-3-0">
      <path
         d="M 361.9375,-212 C 507.2348,-212 528,-191.28677 528,-46.125 V 70.125 C 528,215.28618 507.2348,236 361.9375,236 H 214.0625 C 68.7652,236 48,215.28618 48,70.125 V -46.125 C 48,-191.28677 68.7652,-212 214.0625,-212 Z"
         style="fill:#8c59d9"
         id="path23" />
    </clipPath>
    <radialGradient
       id="c"
       cx="-13.5"
       cy="13.5"
       gradientTransform="matrix(1.5715761,0.04247501,-0.04761903,1.7619048,3.359133,-5.712302)"
       gradientUnits="userSpaceOnUse"
       r="10.5"
       xlink:href="#a" />
    <linearGradient
       id="a">
      <stop
         offset="0"
         stop-color="#fff"
         id="stop964" />
      <stop
         offset="1"
         stop-color="#cecece"
         id="stop966" />
    </linearGradient>
    <radialGradient
       id="e"
       cx="-34.5"
       cy="13.5"
       gradientTransform="matrix(2.2375746,0.06780504,-0.04761887,1.5714286,43.339179,-5.375012)"
       gradientUnits="userSpaceOnUse"
       r="10.5"
       xlink:href="#b" />
    <linearGradient
       id="b">
      <stop
         offset="0"
         stop-color="#a0a0a0"
         id="stop969" />
      <stop
         offset="1"
         stop-color="#555"
         id="stop971" />
    </linearGradient>
    <radialGradient
       id="d"
       cx="-16.5"
       cy="34.5"
       gradientTransform="matrix(-0.08244608,3.3802824,-1.9523809,-0.04761915,49.496782,91.91752)"
       gradientUnits="userSpaceOnUse"
       r="10.5"
       xlink:href="#b" />
    <radialGradient
       id="f"
       cx="-13.5"
       cy="13.5"
       gradientTransform="matrix(1.8569955,0.05305705,-0.04761908,1.6666667,-5.787704,9.71627)"
       gradientUnits="userSpaceOnUse"
       r="10.5"
       xlink:href="#a" />
    <linearGradient
       inkscape:collect="always"
       xlink:href="#linearGradient2229"
       id="linearGradient860"
       x1="5.5679998"
       y1="55.622414"
       x2="211.23027"
       y2="256.74338"
       gradientUnits="userSpaceOnUse" />
  </defs>
  <g
     transform="translate(0,-44)"
     id="g34">
    <path
       d="m162.53675 62.431991c72.64865 0 83.03125 10.356615 83.03125 82.937499v58.125c0 72.58059-10.3826 82.9375-83.03125 82.9375h-73.9375c-72.64865 0-83.03125-10.35691-83.03125-82.9375v-58.125c0-72.580884 10.3826-82.937499 83.03125-82.937499z"
       style="filter:url(#filter925);opacity:.2"
       id="path28" />
    <path
       d="m162.53675 61.431991c72.64865 0 83.03125 10.356615 83.03125 82.937499v58.125c0 72.58059-10.3826 82.9375-83.03125 82.9375h-73.9375c-72.64865 0-83.03125-10.35691-83.03125-82.9375v-58.125c0-72.580884 10.3826-82.937499 83.03125-82.937499z"
       style="filter:url(#filter931);opacity:.1"
       id="path30" />
    <path
       d="m162.53675 60.431991c72.64865 0 83.03125 10.356615 83.03125 82.937499v58.125c0 72.58059-10.3826 82.9375-83.03125 82.9375h-73.9375c-72.64865 0-83.03125-10.35691-83.03125-82.9375v-58.125c0-72.580884 10.3826-82.937499 83.03125-82.937499z"
       style="fill:url(#linearGradient860);fill-opacity:1"
       id="path32" />
  </g>
  <g
     transform="matrix(3.7795275 0 0 3.7795275 .1171873 -866.95855)"
     id="g84">
    <path
       d="m53.936248 261.65822c-1.845411-7.49065-18.748117-4.67717-17.227489 6.03916 0.486645 3.42953 1.93709 5.92752 2.124211 9.45545 0.311433 5.87111-4.516925 9.58907 1.704823 15.07804 3.142167 2.77212 11.29321 0.47561 14.750722-0.21021 6.630112-1.31512 12.839607-8.52024 7.482247-14.66993-3.686082-4.23105-7.78007-9.48698-8.834514-15.69251z"
       style="fill:none"
       id="path46" />
    <path
       transform="matrix(.26458333 0 0 .26458333 -.04080321 229.45027)"
       d="m242.84766 200.81836c0.0458-0.23329 0.11369-0.42419 0.1582-0.66016 0.40744-2.15988 0.7134-4.54446 1.01953-6.93554-0.0105-0.034-0.0343-0.0676-0.0449-0.10157-0.32197 2.69771-0.68516 5.29116-1.13281 7.69727z"
       style="fill:#8e8e8e"
       id="path52" />
    <path
       transform="matrix(.13229167 0 0 .13229167 -4.9078063 261.77625)"
       d="M 361.9375,-212 C 507.2348,-212 528,-191.28677 528,-46.125 V 70.125 C 528,215.28618 507.2348,236 361.9375,236 H 214.0625 C 68.7652,236 48,215.28618 48,70.125 V -46.125 C 48,-191.28677 68.7652,-212 214.0625,-212 Z"
       clip-path="url(#clipPath1082-3-0)"
       style="fill:none;opacity:.4;stroke-linecap:round;stroke-linejoin:round;stroke-width:8;stroke:url(#linearGradient1108)"
       id="path82" />
    <g
       transform="matrix(1.0709326,0,0,1.0709326,7.6803125,236.2878)"
       id="g988">
      <rect
         id="rect2254"
         y="6.5058823"
         x="-28.505882"
         width="21"
         transform="rotate(-90)"
         rx="21"
         height="21"
         style="fill:#000000;fill-opacity:1;opacity:0.2" />
      <rect
         style="fill:#ffffff;fill-opacity:1"
         height="21"
         rx="21"
         transform="rotate(-90)"
         width="21"
         x="-29"
         y="7"
         id="rect980" />
      <rect
         id="rect2256"
         y="23.505882"
         x="-26.505882"
         width="21"
         transform="rotate(-90)"
         rx="21"
         height="21"
         style="fill:#000000;fill-opacity:1;opacity:0.2" />
      <rect
         id="rect2252"
         y="2.5058823"
         x="-44.505882"
         width="21"
         transform="rotate(-90)"
         rx="21"
         height="21"
         style="opacity:0.2;fill:#211111;fill-opacity:1" />
      <rect
         style="fill:#a0a0a0;fill-opacity:1"
         height="21"
         rx="21"
         transform="rotate(-90)"
         width="21"
         x="-45"
         y="3"
         id="rect982" />
      <rect
         style="fill:#a0a0a0;fill-opacity:1"
         height="21"
         rx="21"
         transform="rotate(-90)"
         width="21"
         x="-27"
         y="24"
         id="rect984" />
      <rect
         id="rect2250"
         y="20.505882"
         x="-41.505882"
         width="21"
         transform="rotate(-90)"
         rx="21"
         height="21"
         style="fill:#131313;fill-opacity:1;opacity:0.2" />
      <rect
         style="fill:#ffffff;fill-opacity:1"
         height="21"
         rx="21"
         transform="rotate(-90)"
         width="21"
         x="-42"
         y="21"
         id="rect986" />
    </g>
  </g>
</svg>
