<?xml version="1.0" encoding="UTF-8" standalone="no"?>
<svg
   xmlns:dc="http://purl.org/dc/elements/1.1/"
   xmlns:cc="http://creativecommons.org/ns#"
   xmlns:rdf="http://www.w3.org/1999/02/22-rdf-syntax-ns#"
   xmlns:svg="http://www.w3.org/2000/svg"
   xmlns="http://www.w3.org/2000/svg"
   xmlns:xlink="http://www.w3.org/1999/xlink"
   xmlns:sodipodi="http://sodipodi.sourceforge.net/DTD/sodipodi-0.dtd"
   xmlns:inkscape="http://www.inkscape.org/namespaces/inkscape"
   width="256"
   height="256"
   version="1.1"
   viewBox="0 0 67.73 67.73"
   id="svg66"
   sodipodi:docname="DIZIO.svg"
   inkscape:version="0.92.3 (2405546, 2018-03-11)">
  <metadata
     id="metadata70">
    <rdf:RDF>
      <cc:Work
         rdf:about="">
        <dc:format>image/svg+xml</dc:format>
        <dc:type
           rdf:resource="http://purl.org/dc/dcmitype/StillImage" />
        <dc:title />
      </cc:Work>
    </rdf:RDF>
  </metadata>
  <sodipodi:namedview
     pagecolor="#ffffff"
     bordercolor="#666666"
     borderopacity="1"
     objecttolerance="10"
     gridtolerance="10"
     guidetolerance="10"
     inkscape:pageopacity="0"
     inkscape:pageshadow="2"
     inkscape:window-width="1920"
     inkscape:window-height="1009"
     id="namedview68"
     showgrid="false"
     inkscape:zoom="2.073148"
     inkscape:cx="-101.91562"
     inkscape:cy="121.10183"
     inkscape:window-x="0"
     inkscape:window-y="34"
     inkscape:window-maximized="1"
     inkscape:current-layer="text1516" />
  <defs
     id="defs32">
    <linearGradient
       gradientUnits="userSpaceOnUse"
       gradientTransform="matrix(.84848487 0 0 .94117647 95.030308 0)"
       y2="544"
       y1="-34"
       x2="284"
       x1="57.714"
       id="linearGradient1494">
      <stop
         id="stop1490"
         offset="0"
         style="stop-color:#cc3335;stop-opacity:1" />
      <stop
         id="stop1492"
         offset="1"
         style="stop-color:#da4d45;stop-opacity:1" />
    </linearGradient>
    <linearGradient
       id="linearGradient1108"
       x1="296"
       x2="296"
       y1="-212"
       y2="236"
       gradientUnits="userSpaceOnUse">
      <stop
         style="stop-color:#ffffff"
         offset="0"
         id="stop2" />
      <stop
         style="stop-color:#ffffff;stop-opacity:.09803922"
         offset=".125"
         id="stop4" />
      <stop
         style="stop-color:#000000;stop-opacity:.09803922"
         offset=".925"
         id="stop6" />
      <stop
         style="stop-color:#000000;stop-opacity:.49803922"
         offset="1"
         id="stop8" />
    </linearGradient>
    <clipPath
       id="clipPath1082-3-367">
      <path
         d="M 361.9375,-212 C 507.2348,-212 528,-191.28677 528,-46.125 V 70.125 C 528,215.28618 507.2348,236 361.9375,236 H 214.0625 C 68.7652,236 48,215.28618 48,70.125 V -46.125 C 48,-191.28677 68.7652,-212 214.0625,-212 Z"
         style="fill:#8c59d9"
         id="path11" />
    </clipPath>
    <linearGradient
       id="linearGradient4273"
       x1="448"
       x2="448"
       y1="256"
       y2="496"
       gradientUnits="userSpaceOnUse"
       spreadMethod="reflect">
      <stop
         style="stop-color:#000000"
         offset="0"
         id="stop14" />
      <stop
         style="stop-color:#000000;stop-opacity:0"
         offset="1"
         id="stop16" />
    </linearGradient>
    <linearGradient
       id="linearGradient4285"
       x1="57.714"
       x2="284"
       y1="-34"
       y2="544"
       gradientTransform="matrix(.84848487 0 0 .94117647 95.030308 0)"
       gradientUnits="userSpaceOnUse">
      <stop
         style="stop-color:#911943;stop-opacity:1"
         offset="0"
         id="stop19" />
      <stop
         style="stop-color:#e56956;stop-opacity:1"
         offset="1"
         id="stop21" />
    </linearGradient>
    <filter
       id="filter4569"
       width="1.023"
       height="1.025"
       x="-.01"
       y="-.01"
       style="color-interpolation-filters:sRGB">
      <feGaussianBlur
         stdDeviation="1.16"
         id="feGaussianBlur24" />
    </filter>
    <filter
       id="filter929"
       width="1.046"
       height="1.05"
       x="-.02"
       y="-.03"
       style="color-interpolation-filters:sRGB">
      <feGaussianBlur
         stdDeviation="2.32"
         id="feGaussianBlur27" />
    </filter>
    <linearGradient
       id="linearGradient957"
       x1="58.08609"
       x2="8.2121429"
       y1="291.7468"
       y2="234.34613"
       gradientUnits="userSpaceOnUse"
       xlink:href="#linearGradient4285" />
    <linearGradient
       id="linearGradient974"
       x1="58.569"
       x2="59.047"
       y1="263.304"
       y2="263.305"
       gradientUnits="userSpaceOnUse"
       spreadMethod="pad"
       xlink:href="#linearGradient4273" />
    <linearGradient
       inkscape:collect="always"
       xlink:href="#linearGradient4273"
       id="linearGradient898"
       gradientUnits="userSpaceOnUse"
       x1="58.569"
       y1="263.304"
       x2="59.047"
       y2="263.305"
       spreadMethod="pad"
       gradientTransform="matrix(1,0,0,1.0425451,-46.499229,-11.264188)" />
    <linearGradient
       inkscape:collect="always"
       xlink:href="#linearGradient1494"
       id="linearGradient1488"
       x1="58.568695"
       y1="290.91449"
       x2="9.8407068"
       y2="233.12448"
       gradientUnits="userSpaceOnUse" />
  </defs>
  <g
     transform="translate(0,-229.26666)"
     id="g64">
    <path
       d="m 162.53675,5.5680001 c 72.64865,0 83.03125,10.3566149 83.03125,82.9375049 v 58.125005 c 0,72.58059 -10.3826,82.9375 -83.03125,82.9375 h -73.937496 c -72.648654,0 -83.031254,-10.35691 -83.031254,-82.9375 v -58.125005 c 0,-72.58089 10.3826,-82.9375049 83.031254,-82.9375049 z"
       transform="matrix(0.26458333,0,0,0.26458333,-1.8735229e-8,232.67026)"
       style="opacity:0.2;filter:url(#filter929)"
       id="path34" />
    <path
       d="m 162.53675,3.5680001 c 72.64865,0 83.03125,10.3566149 83.03125,82.9375049 v 58.125005 c 0,72.58059 -10.3826,82.9375 -83.03125,82.9375 h -73.937496 c -72.648654,0 -83.031254,-10.35691 -83.031254,-82.9375 v -58.125005 c 0,-72.58089 10.3826,-82.9375049 83.031254,-82.9375049 z"
       transform="matrix(0.26458333,0,0,0.26458333,-1.8735229e-8,232.67026)"
       style="opacity:0.1;filter:url(#filter4569)"
       id="path36" />
    <path
       d="m 17.311115,292.6971 c -4.367158,-0.24453 -7.299874,-0.82672 -9.4694005,-1.87985 -3.1615771,-1.53468 -4.7715464,-3.99265 -5.61731,-8.57606 -0.6347049,-3.43962 -0.7824475,-7.94006 -0.7095077,-21.6126 0.054211,-10.16191 0.1068425,-11.88628 0.44619,-14.61874 0.7918612,-6.37613 2.8424991,-9.43173 7.3273156,-10.91822 2.2243446,-0.73726 4.2774496,-1.06353 8.0800766,-1.28403 2.80085,-0.16241 31.819999,-0.0841 33.544709,0.0906 2.90445,0.29409 5.207953,0.76082 6.80981,1.37978 l 0.867658,0.33527 v 27.64233 27.64233 l -0.920244,0.33299 c -1.878828,0.67985 -3.633418,1.03554 -6.599468,1.33784 -1.459643,0.14877 -3.704488,0.1745 -16.9325,0.19411 -8.387372,0.0124 -15.95967,-0.0172 -16.827329,-0.0657 z"
       style="fill:url(#linearGradient1488);paint-order:markers fill stroke;fill-opacity:1"
       id="path38" />
    <path
       d="m 58.564758,242.5918 c 0,-3.78878 0.03498,-6.90816 0.0339,-6.95245 -8.31e-4,-0.0338 0.172682,0.0348 0.980499,0.57048 2.923456,1.90401 4.301481,4.74859 4.939394,10.03529 0.08559,0.70934 0.187999,1.72748 0.227573,2.26254 l 0.07195,0.97283 h -3.126653 -3.126653 z"
       style="fill:#393939;paint-order:markers fill stroke;fill-opacity:1"
       id="path40" />
    <path
       d="m 58.573261,256.31659 v -6.8361 h 3.094687 l 3.140237,0.009 c 0,0 0.03981,0.46666 0.04197,0.7006 0.0047,0.51455 0.04956,3.46669 0.04998,6.8361 l 8.1e-4,6.1262 h -3.163823 -3.163822 v -6.8361 z"
       style="fill:#bcbfba;paint-order:markers fill stroke;fill-opacity:1"
       id="path42" />
    <path
       d="m 58.560466,270.04426 v -6.97097 h 3.170218 3.17022 l -8.11e-4,6.40792 c -5.41e-4,3.52437 -0.03143,6.66131 -0.0687,6.97098 l -0.06777,0.56304 h -3.101518 -3.101518 v -6.97097 z"
       style="fill:#393939;paint-order:markers fill stroke;fill-opacity:1"
       id="path44" />
    <path
       d="m 58.578851,283.9257 v -6.89046 h 3.123929 3.123933 l -0.07106,1.078 c -0.398353,6.04295 -1.811969,9.82059 -4.497662,11.78523 -0.434485,0.31784 -0.590891,0.42216 -1.185948,0.77239 -0.15553,0.0915 -0.493191,0.22334 -0.493191,0.22334 z"
       style="fill:#bcbfba;paint-order:markers fill stroke;fill-opacity:1"
       id="path46" />
    <path
       style="opacity:0.4;fill:url(#linearGradient974)"
       d="m 58.585235,235.62497 -0.01654,55.28952 0.539089,-0.2496 -0.06082,-54.81454 z"
       id="path62" />
    <path
       style="opacity:1;fill:#393939;fill-opacity:1;stroke:none;stroke-width:0.99999994;stroke-linecap:butt;stroke-linejoin:bevel;stroke-miterlimit:4;stroke-dasharray:none;stroke-dashoffset:0;stroke-opacity:1"
       d="M 45.681641 19.347656 C 44.23852 19.619016 42.75953 19.868722 41.404297 20.199219 C 39.269919 20.719724 37.209268 21.32092 35.107422 22.017578 C 32.988507 22.719891 31.013905 23.513483 29.173828 24.414062 C 27.333751 25.314642 25.627421 26.320607 24.048828 27.445312 C 22.470236 28.570018 21.018056 29.814764 19.683594 31.189453 C 18.349131 32.564142 17.133077 34.070171 16.025391 35.720703 C 14.917704 37.371236 13.91975 39.164953 13.021484 41.117188 C 12.123219 43.069422 11.325339 45.179189 10.619141 47.458984 C 9.9129426 49.738779 9.2971099 52.189051 8.765625 54.822266 C 8.2341401 57.45548 7.7862354 60.272663 7.4121094 63.285156 C 6.7707912 68.449114 6.3997378 72.659325 6.1640625 80.380859 C 5.9283872 88.102394 5.8290135 99.334508 5.7265625 118.53906 C 5.5887167 144.3782 5.6594331 161.5512 6.0644531 173.88867 C 6.2669632 180.05741 6.5520956 185.01762 6.9375 189.24805 C 7.3229044 193.47848 7.8084524 196.97832 8.4082031 200.22852 C 9.2073892 204.55951 10.18583 208.38931 11.392578 211.78711 C 11.995952 213.48601 12.656203 215.07614 13.378906 216.56836 C 14.101609 218.06058 14.886577 219.45452 15.740234 220.75781 C 16.593892 222.06111 17.517434 223.27413 18.513672 224.40625 C 19.50991 225.53837 20.580025 226.58967 21.730469 227.56836 C 22.880912 228.54705 24.111459 229.45386 25.427734 230.29688 C 26.744009 231.13989 28.14494 231.91945 29.638672 232.64453 C 31.688719 233.63966 33.918871 234.52223 36.369141 235.30273 C 38.81941 236.08324 41.490144 236.76018 44.419922 237.3418 C 44.804715 237.41819 45.287802 237.46205 45.681641 237.53516 L 45.681641 19.347656 z "
       id="path885"
       transform="matrix(0.26457031,0,0,0.26457031,0,229.26666)" />
    <path
       d="m 361.9375,-212 c 145.2973,0 166.0625,20.71323 166.0625,165.875 v 116.25 c 0,145.16118 -20.7652,165.875 -166.0625,165.875 h -147.875 c -145.2973,0 -166.0625,-20.71382 -166.0625,-165.875 v -116.25 c 0,-145.16177 20.7652,-165.875 166.0625,-165.875 z"
       clip-path="url(#clipPath1082-3-367)"
       transform="matrix(0.13229167,0,0,0.13229167,-4.876802,261.66013)"
       style="opacity:0.5;fill:none;stroke:url(#linearGradient1108);stroke-width:8;stroke-linecap:round;stroke-linejoin:round"
       id="path48" />
    <path
       id="path896"
       d="m 12.086006,234.38548 -0.01654,57.64182 0.539089,-0.26022 -0.06082,-57.14663 z"
       style="opacity:0.4;fill:url(#linearGradient898);stroke-width:1.02105093"
       inkscape:connector-curvature="0" />
    <g
       id="g948"
       transform="translate(0.39787801)" />
    <text
       id="text1508"
       y="-24507.713"
       x="14.893185"
       style="font-style:normal;font-weight:normal;font-size:1.41104174px;line-height:1.25;font-family:sans-serif;letter-spacing:0px;word-spacing:0px;fill:#000000;fill-opacity:1;stroke:none;stroke-width:0.2645703"
       xml:space="preserve"><tspan
         style="font-style:normal;font-variant:normal;font-weight:normal;font-stretch:normal;font-size:31.74843788px;font-family:serif;-inkscape-font-specification:serif;stroke-width:0.2645703"
         y="-24507.713"
         x="14.893185"
         id="tspan1506"
         sodipodi:role="line">Aa</tspan></text>
    <g
       aria-label="Aa"
       style="font-style:normal;font-weight:normal;font-size:1.41104174px;line-height:1.25;font-family:sans-serif;letter-spacing:0px;word-spacing:0px;fill:#ffffff;fill-opacity:1;stroke:none;stroke-width:0.2645703"
       id="text1516">
      <g
         id="g885">
        <g
           id="text1498"
           style="font-style:normal;font-weight:normal;font-size:1.41104174px;line-height:1.25;font-family:sans-serif;letter-spacing:0px;word-spacing:0px;opacity:0.6;fill:#ffffff;fill-opacity:1;stroke:none;stroke-width:0.2645703"
           aria-label="Aa"
           transform="translate(0,-1.1574219e-6)">
          <path
             id="path856"
             style="font-style:normal;font-variant:normal;font-weight:normal;font-stretch:normal;font-size:31.74843788px;font-family:serif;-inkscape-font-specification:serif;fill:#ffffff;fill-opacity:1;stroke-width:0.2645703"
             d="m 21.249073,263.35616 h 8.495188 l -4.247594,-11.00654 z m -6.541914,8.38667 v -1.64323 h 2.030784 l 8.247152,-21.50151 h 2.604364 l 8.262655,21.50151 h 2.278819 v 1.64323 h -8.417677 v -1.64323 h 2.57336 l -1.937771,-5.08471 h -9.735361 l -1.937771,5.08471 h 2.542356 v 1.64323 z" />
          <path
             id="path858"
             style="font-style:normal;font-variant:normal;font-weight:normal;font-stretch:normal;font-size:31.74843788px;font-family:serif;-inkscape-font-specification:serif;fill:#ffffff;fill-opacity:1;stroke-width:0.2645703"
             d="m 50.470658,266.5651 v -3.48798 h -3.674014 q -2.123797,0 -3.162442,0.91462 -1.038645,0.91463 -1.038645,2.8059 0,1.72074 1.054147,2.72838 1.054147,1.00764 2.852399,1.00764 1.782749,0 2.867901,-1.10065 1.100654,-1.10066 1.100654,-2.86791 z m 2.852398,-5.11571 v 8.65021 h 2.542356 v 1.64323 h -5.394754 v -1.78275 q -0.945633,1.14716 -2.185806,1.68974 -1.240173,0.54257 -2.898905,0.54257 -2.743884,0 -4.356109,-1.4572 -1.612226,-1.45721 -1.612226,-3.93755 0,-2.55786 1.844758,-3.96856 1.844758,-1.41069 5.208728,-1.41069 h 3.99956 v -1.13166 q 0,-1.87577 -1.147161,-2.89891 -1.131658,-1.03864 -3.193446,-1.03864 -1.705239,0 -2.712879,0.7751 -1.007641,0.77511 -1.255676,2.29433 H 40.68879 v -3.33297 q 1.488208,-0.63559 2.883403,-0.94563 1.410697,-0.32555 2.743884,-0.32555 3.425979,0 5.208728,1.70524 1.798251,1.68974 1.798251,4.92969 z" />
        </g>
        <g
           id="text1512"
           style="font-style:normal;font-weight:normal;font-size:1.41104174px;line-height:1.25;font-family:sans-serif;letter-spacing:0px;word-spacing:0px;opacity:0.5;fill:#000000;fill-opacity:1;stroke:none;stroke-width:0.2645703"
           aria-label="Aa"
           transform="translate(0,-1.1574219e-6)">
          <path
             id="path861"
             style="font-style:normal;font-variant:normal;font-weight:normal;font-stretch:normal;font-size:31.74843788px;font-family:serif;-inkscape-font-specification:serif;fill:#000000;fill-opacity:1;stroke-width:0.2645703"
             d="m 21.249073,262.82701 h 8.495188 l -4.247594,-11.00654 z m -6.541914,8.38667 v -1.64323 h 2.030784 l 8.247152,-21.5015 h 2.604364 l 8.262655,21.5015 h 2.278819 v 1.64323 h -8.417677 v -1.64323 h 2.57336 l -1.937771,-5.08471 h -9.735361 l -1.937771,5.08471 h 2.542356 v 1.64323 z" />
          <path
             id="path863"
             style="font-style:normal;font-variant:normal;font-weight:normal;font-stretch:normal;font-size:31.74843788px;font-family:serif;-inkscape-font-specification:serif;fill:#000000;fill-opacity:1;stroke-width:0.2645703"
             d="m 50.470658,266.03596 v -3.48799 h -3.674014 q -2.123797,0 -3.162442,0.91463 -1.038645,0.91463 -1.038645,2.80589 0,1.72074 1.054147,2.72838 1.054147,1.00765 2.852399,1.00765 1.782749,0 2.867901,-1.10066 1.100654,-1.10065 1.100654,-2.8679 z m 2.852398,-5.11571 v 8.6502 h 2.542356 v 1.64323 h -5.394754 v -1.78275 q -0.945633,1.14717 -2.185806,1.68974 -1.240173,0.54258 -2.898905,0.54258 -2.743884,0 -4.356109,-1.45721 -1.612226,-1.4572 -1.612226,-3.93755 0,-2.55785 1.844758,-3.96855 1.844758,-1.4107 5.208728,-1.4107 h 3.99956 v -1.13166 q 0,-1.87576 -1.147161,-2.8989 -1.131658,-1.03865 -3.193446,-1.03865 -1.705239,0 -2.712879,0.77511 -1.007641,0.77511 -1.255676,2.29432 H 40.68879 v -3.33296 q 1.488208,-0.63559 2.883403,-0.94564 1.410697,-0.32554 2.743884,-0.32554 3.425979,0 5.208728,1.70524 1.798251,1.68973 1.798251,4.92969 z" />
        </g>
        <path
           id="path866"
           style="font-style:normal;font-variant:normal;font-weight:normal;font-stretch:normal;font-size:31.74843788px;font-family:serif;-inkscape-font-specification:serif;fill:#ffffff;fill-opacity:1;stroke-width:0.2645703"
           d="m 21.249073,263.0916 h 8.495188 l -4.247594,-11.00654 z m -6.541914,8.38667 v -1.64323 h 2.030784 l 8.247152,-21.5015 h 2.604364 l 8.262655,21.5015 h 2.278819 v 1.64323 h -8.417677 v -1.64323 h 2.57336 l -1.937771,-5.08471 h -9.735361 l -1.937771,5.08471 h 2.542356 v 1.64323 z" />
        <path
           id="path868"
           style="font-style:normal;font-variant:normal;font-weight:normal;font-stretch:normal;font-size:31.74843788px;font-family:serif;-inkscape-font-specification:serif;fill:#ffffff;fill-opacity:1;stroke-width:0.2645703"
           d="m 50.470658,266.30055 v -3.48799 h -3.674014 q -2.123797,0 -3.162442,0.91463 -1.038645,0.91463 -1.038645,2.80589 0,1.72074 1.054147,2.72838 1.054147,1.00764 2.852399,1.00764 1.782749,0 2.867901,-1.10065 1.100654,-1.10066 1.100654,-2.8679 z m 2.852398,-5.11572 v 8.65021 h 2.542356 v 1.64323 h -5.394754 v -1.78275 q -0.945633,1.14716 -2.185806,1.68974 -1.240173,0.54257 -2.898905,0.54257 -2.743884,0 -4.356109,-1.4572 -1.612226,-1.4572 -1.612226,-3.93755 0,-2.55786 1.844758,-3.96855 1.844758,-1.4107 5.208728,-1.4107 h 3.99956 v -1.13166 q 0,-1.87576 -1.147161,-2.89891 -1.131658,-1.03864 -3.193446,-1.03864 -1.705239,0 -2.712879,0.77511 -1.007641,0.77511 -1.255676,2.29432 H 40.68879 v -3.33297 q 1.488208,-0.63559 2.883403,-0.94563 1.410697,-0.32554 2.743884,-0.32554 3.425979,0 5.208728,1.70523 1.798251,1.68974 1.798251,4.92969 z" />
      </g>
    </g>
  </g>
</svg>
