<svg width="256" height="256" version="1.1" viewBox="0 0 67.73 67.73" xmlns="http://www.w3.org/2000/svg" xmlns:xlink="http://www.w3.org/1999/xlink">
 <defs>
  <linearGradient id="linearGradient3650-7-9">
   <stop style="stop-color:#5884f4" offset="0"/>
   <stop style="stop-color:#80a3fa" offset="1"/>
  </linearGradient>
  <linearGradient id="linearGradient1108" x1="296" x2="296" y1="-212" y2="236" gradientUnits="userSpaceOnUse">
   <stop style="stop-color:#ffffff" offset="0"/>
   <stop style="stop-color:#ffffff;stop-opacity:.09803922" offset=".125"/>
   <stop style="stop-color:#000000;stop-opacity:.09803922" offset=".925"/>
   <stop style="stop-color:#000000;stop-opacity:.49803922" offset="1"/>
  </linearGradient>
  <clipPath id="clipPath1082-3-3675">
   <path d="M 361.9375,-212 C 507.2348,-212 528,-191.28677 528,-46.125 V 70.125 C 528,215.28618 507.2348,236 361.9375,236 H 214.0625 C 68.7652,236 48,215.28618 48,70.125 V -46.125 C 48,-191.28677 68.7652,-212 214.0625,-212 Z" style="fill:#8c59d9"/>
  </clipPath>
  <linearGradient id="linearGradient878" x1="32" x2="272" y1="156" y2="156" gradientTransform="rotate(60,152.00002,156.00002)" gradientUnits="userSpaceOnUse">
   <stop style="stop-color:#1a7fd4" offset="0"/>
   <stop style="stop-color:#37a6e6" offset="1"/>
  </linearGradient>
  <filter id="filter931" x="-.01" y="-.01" width="1.023" height="1.025" style="color-interpolation-filters:sRGB">
   <feGaussianBlur stdDeviation="1.16"/>
  </filter>
  <filter id="filter925" x="-.02" y="-.03" width="1.046" height="1.05" style="color-interpolation-filters:sRGB">
   <feGaussianBlur stdDeviation="2.32"/>
  </filter>
  <linearGradient id="linearGradient5663" x1="126.747" x2="169.497" y1="99.032" y2="214.25" gradientTransform="translate(.99969371 .99999846)" gradientUnits="userSpaceOnUse" xlink:href="#linearGradient3650-7-9"/>
  <filter id="filter5669" x="-.05" y="-.05" width="1.097" height="1.095" style="color-interpolation-filters:sRGB">
   <feGaussianBlur stdDeviation="2.265"/>
  </filter>
  <linearGradient id="linearGradient4226" x1="494.345" x2="4.414" y1="386.295" y2="169.657" gradientTransform="matrix(0 -.31615476 -.31614571 0 230.08851 240.07158)" gradientUnits="userSpaceOnUse">
   <stop style="stop-color:#e8e8e8" offset="0"/>
   <stop style="stop-color:#f5f5f5" offset="1"/>
  </linearGradient>
  <linearGradient id="linearGradient4358" x1="88" x2="488" y1="88" y2="488" gradientUnits="userSpaceOnUse">
   <stop style="stop-color:#000000;stop-opacity:.58823532" offset="0"/>
   <stop style="stop-color:#000000;stop-opacity:0" offset=".88"/>
   <stop style="stop-color:#000000" offset="1"/>
  </linearGradient>
  <filter id="filter4346" x="-.01" y="-.01" width="1.026" height="1.022" style="color-interpolation-filters:sRGB">
   <feGaussianBlur stdDeviation="2.12"/>
  </filter>
 </defs>
 <g transform="translate(0,-229.26666)">
  <path transform="matrix(.26458333 0 0 .26458333 0 232.67026)" d="m162.53675 5.568c72.64865 0 83.03125 10.356615 83.03125 82.9375v58.125c0 72.58059-10.3826 82.9375-83.03125 82.9375h-73.9375c-72.64865 0-83.03125-10.35691-83.03125-82.9375v-58.125c0-72.580885 10.3826-82.9375 83.03125-82.9375z" style="filter:url(#filter925);opacity:.2"/>
  <path transform="matrix(.26458333 0 0 .26458333 0 232.67026)" d="m162.53675 4.568c72.64865 0 83.03125 10.356615 83.03125 82.9375v58.125c0 72.58059-10.3826 82.9375-83.03125 82.9375h-73.9375c-72.64865 0-83.03125-10.35691-83.03125-82.9375v-58.125c0-72.580885 10.3826-82.9375 83.03125-82.9375z" style="filter:url(#filter931);opacity:.1"/>
  <g transform="matrix(.26458333 0 0 .26458333 -6.993466 221.97263)" style="enable-background:new">
   <path d="M 188.96875,44.000002 C 261.61739,43.999999 272,54.356621 272,126.9375 v 58.125 C 271.99999,257.64309 261.61739,268 188.96875,268 H 115.03124 C 42.3826,268.00001 32,257.64309 32,185.0625 v -58.125 C 32,54.356619 42.3826,43.999996 115.03125,44 Z" style="fill:url(#linearGradient878)"/>
   <path d="m32.00002 155.04866v32.19356c0 70.67306 10.38262 80.75778 83.03125 80.75777h73.9375c72.64864 0 83.03124-10.08471 83.03125-80.75777v-32.19356z" style="fill:#ffffff;opacity:.05"/>
  </g>
  <g transform="matrix(.26458333 0 0 .26458333 -8.0313781 221.63148)" style="enable-background:new">
   <g transform="translate(13.719016,-5.335173)">
    <path transform="matrix(.34886041 0 0 .34886041 41.733894 58.664168)" d="m189.84323 74c-70.59344 0-78.18921 7.250835-77.84323 77.98706v292.02588c-0.34598 70.73623 7.24979 77.98706 77.84323 77.98706h196.31354c70.59344 0 76.00668-7.27384 77.84323-77.98706v-292.02588c0-70.737067-7.24979-77.98706-77.84323-77.98706z" style="filter:url(#filter4346);opacity:.1"/>
    <path transform="matrix(.34886041 0 0 .34886041 41.733894 58.664168)" d="m189.84323 74c-70.59344 0-78.18921 7.250835-77.84323 77.98706v292.02588c-0.34598 70.73623 7.24979 77.98706 77.84323 77.98706h196.31354c70.59344 0 77.84323-7.24999 77.84323-77.98706v-292.02588c0-70.737067-7.24979-77.98706-77.84323-77.98706z" style="fill:url(#linearGradient4358);filter:url(#filter4380);opacity:.3"/>
    <path d="m107.1882 82.386677c-25.186892 0-27.896973 2.5747-27.773531 27.692433v103.69548c-0.123442 25.11774 2.586639 27.69244 27.773531 27.69244h70.04233c25.18689 0 27.77352-2.5744 27.77352-27.69244v-103.69548c0-25.118033-2.58663-27.692433-27.77352-27.692433z" style="opacity:.1"/>
    <path d="m176.44494 83.782119c24.62726 0 27.27712 2.529529 27.15642 27.206591v101.87628c0.1207 24.67706-2.52916 27.20659-27.15642 27.20659h-68.48602c-24.627257 0-27.156425-2.52923-27.156425-27.20659v-101.87628c0-24.677355 2.529168-27.206591 27.156425-27.206591z" style="fill:url(#linearGradient4226)"/>
    <path d="m203.60104 203.79419-36.2774 36.27739h9.12079c24.62727 0 27.27731-2.52995 27.15661-27.20702z" style="fill:#ffffff"/>
    <path d="m107.96287 83.782119c-24.627266 0-27.277309 2.529955-27.15661 27.207021v1.39545c-0.120699-24.677071 2.529344-27.20703 27.15661-27.20703h68.48565c24.62727 0 27.15661 2.529665 27.15661 27.20703v-1.39545c0-24.677359-2.52934-27.207021-27.15661-27.207021z" style="fill:#ffffff;opacity:.3"/>
    <path d="m107.96664 240.07158c-24.627271 0-27.277315-2.52995-27.156616-27.20702v-1.39544c-0.120699 24.67706 2.529345 27.20702 27.156616 27.20702h68.48565c24.62726 0 27.15661-2.52967 27.15661-27.20702v1.39544c0 24.67736-2.52935 27.20702-27.15661 27.20702z" style="opacity:.2"/>
    <path d="m142.20569 83.782119v156.28946h34.23874c24.62727 0 27.27731-2.52995 27.15661-27.20702v-101.87542c0.1207-24.677066-2.52934-27.207021-27.15661-27.207021z" style="fill:#ffffff;opacity:.2"/>
    <path d="m80.802171 161.92685v50.93771c0 24.67736 2.52935 27.20702 27.156609 27.20702h68.48565c24.62727 0 27.27731-2.52995 27.15661-27.20702v-50.93771z" style="fill:#ffffff;opacity:.2"/>
    <g transform="matrix(.69772082 0 0 .69772082 36.152127 53.082402)" style="enable-background:new;filter:url(#filter5669);opacity:.1">
     <path d="m155.9973 123.75v8.5h34v47h-10v-3h-20.5q21 17.5 48.5 24.5l-5 12q-23-6-47-28.5v33h-10v-31q-17.5 19-44.99999 28l-5.000004-10.5q29.999994-9.5 47.499994-27.5h-21.5v4.5h-9.99999v-48.5h33.99999v-8.5h-49.499994v-9.49999h49.499994v-11.5h9.5q4 0.5 0.5 3v8.5h48.5v9.49999zm0 44.5h24v-10h-24zm0-18h24v-10h-24zm-34 18h24v-10h-24zm0-18h24v-10h-24z"/>
    </g>
    <g transform="matrix(.69772082 0 0 .69772082 36.152127 53.082402)" style="enable-background:new;fill:url(#linearGradient5663)">
     <path d="m156.997 121.75v8.5h34v47h-10v-3h-20.5q21 17.5 48.49999 24.5l-5 12q-22.99999-6-46.99999-28.5v33h-10v-31q-17.5 19-45 28l-4.999999-10.5q29.999999-9.5 47.499999-27.5h-21.5v4.5h-10v-48.5h34v-8.5h-49.499999v-9.49999h49.499999v-11.5h9.5q4 0.5 0.5 3v8.5h48.49999v9.49999zm0 44.5h24v-10h-24zm0-18h24v-10h-24zm-34 18h24v-10h-24zm0-18h24v-10h-24z" style="fill:url(#linearGradient5663)"/>
    </g>
    <path d="m138.71552 123.37778v0.69772h6.62834c0.6859 0.0858 1.1305 0.23618 1.3423 0.44834 0.37154-0.60053-0.062-0.98603-1.3423-1.14606zm-34.53718 8.02378v0.69772h34.53718v-0.69772zm41.51438 0v0.69772h33.83946v-0.69772zm-30.69971 12.55898v0.69771h23.72251v-0.69771zm30.69971 0v0.69771h23.72251v-0.69771zm-23.72251 12.55898v0.69772h16.74531v-0.69772zm23.72251 0v0.69772h16.74531v-0.69772zm-23.72251 12.55897v0.69772h16.74531v-0.69772zm23.72251 0v0.69772h16.74531v-0.69772zm-9.42604 6.27949c-8.06985 8.0281-18.87641 14.19534-32.4372 18.4896l0.28753 0.60369c13.81724-4.41548 24.77072-10.77886 32.8542-19.09329zm11.86807 0c9.70095 8.08412 20.89482 13.75631 33.57781 17.0233l0.26165-0.62686c-12.41917-3.16124-23.40903-8.63138-32.97822-16.39644z" style="fill:#ffffff;opacity:.3"/>
    <path d="m146.68501 123.82611c-0.1684 0.2722-0.48567 0.58442-0.99343 0.94711v0.69772c1.02785-0.73418 1.35616-1.28146 0.99343-1.64483zm-42.50783 13.50608v0.69772h34.53718v-0.69772zm41.5144 0v0.69772h33.83946v-0.69772zm-23.72251 11.5124v0.69772h16.74529v-0.69772zm23.72251 0v0.69772h16.74529v-0.69772zm-23.72251 12.55898v0.69771h16.74529v-0.69771zm23.72251 0v0.69771h16.74529v-0.69771zm-23.72251 12.55896v0.69772h14.29646c0.23423-0.23302 0.47493-0.46155 0.70453-0.69772zm26.16452 0c0.28437 0.23698 0.57433 0.46489 0.86126 0.69772h13.44202v-0.69772zm14.30328 2.09317v0.69772h6.97721v-0.69772zm-47.44502 1.04658v0.69772h6.97722v-0.69772zm30.69973 2.44202v0.69773c11.16353 10.46581 22.09448 17.09415 32.79287 19.88504l3.4886-8.37265c-0.0879-0.0225-0.17387-0.0483-0.26164-0.0708l-3.22696 7.7458c-10.69839-2.79088-21.62934-9.41923-32.79287-19.88505zm-6.97722 1.39545c-8.14007 8.8378-18.60588 15.34985-31.39743 19.53618l-3.20107-6.72238c-0.0968 0.031-0.19051 0.0633-0.28754 0.0941l3.48861 7.32607c12.79155-4.18633 23.25736-10.69838 31.39743-19.53618zm0 21.62934v0.69772h6.97722v-0.69772z" style="opacity:.2"/>
   </g>
  </g>
  <path transform="matrix(.13229167 0 0 .13229167 -4.8768 261.66013)" d="M 361.9375,-212 C 507.2348,-212 528,-191.28677 528,-46.125 V 70.125 C 528,215.28618 507.2348,236 361.9375,236 H 214.0625 C 68.7652,236 48,215.28618 48,70.125 V -46.125 C 48,-191.28677 68.7652,-212 214.0625,-212 Z" clip-path="url(#clipPath1082-3-3675)" style="fill:none;opacity:.4;stroke-linecap:round;stroke-linejoin:round;stroke-width:8;stroke:url(#linearGradient1108)"/>
 </g>
</svg>
