<svg xmlns="http://www.w3.org/2000/svg" xmlns:xlink="http://www.w3.org/1999/xlink" width="256" height="256" version="1.0" style="enable-background:new">
 <defs>
  <filter style="color-interpolation-filters:sRGB" id="filter925" width="1.046" height="1.05" x="-.02" y="-.03">
   <feGaussianBlur stdDeviation="2.32"/>
  </filter>
  <filter style="color-interpolation-filters:sRGB" id="filter931" width="1.023" height="1.025" x="-.01" y="-.01">
   <feGaussianBlur stdDeviation="1.16"/>
  </filter>
  <linearGradient id="linearGradient1108" x1="296" x2="296" y1="-212" y2="236" gradientUnits="userSpaceOnUse" xlink:href="#linearGradient1013"/>
  <linearGradient id="linearGradient1013">
   <stop offset="0" style="stop-color:#ffffff"/>
   <stop style="stop-color:#ffffff;stop-opacity:0.09803922" offset=".125"/>
   <stop style="stop-color:#000000;stop-opacity:0.09803922" offset=".925"/>
   <stop offset="1" style="stop-color:#000000;stop-opacity:0.49803922"/>
  </linearGradient>
  <clipPath id="clipPath1082-3" clipPathUnits="userSpaceOnUse">
   <path d="M 361.9375,-212 C 507.2348,-212 528,-191.28677 528,-46.125 V 70.125 C 528,215.28618 507.2348,236 361.9375,236 H 214.0625 C 68.7652,236 48,215.28618 48,70.125 V -46.125 C 48,-191.28677 68.7652,-212 214.0625,-212 Z" style="fill:#8c59d9"/>
  </clipPath>
 </defs>
 <g transform="translate(0,-44)">
  <g>
   <g>
    <path d="m 162.53675,62.431991 c 72.64865,0 83.03125,10.356615 83.03125,82.937499 v 58.125 c 0,72.58059 -10.3826,82.9375 -83.03125,82.9375 h -73.9375 c -72.64865,0 -83.0312501,-10.35691 -83.0312501,-82.9375 v -58.125 c 0,-72.580884 10.3826001,-82.937499 83.0312501,-82.937499 z" style="opacity:0.2;filter:url(#filter925)"/>
    <path style="opacity:0.1;filter:url(#filter931)" d="m 162.53675,61.431991 c 72.64865,0 83.03125,10.356615 83.03125,82.937499 v 58.125 c 0,72.58059 -10.3826,82.9375 -83.03125,82.9375 h -73.9375 c -72.64865,0 -83.0312501,-10.35691 -83.0312501,-82.9375 v -58.125 c 0,-72.580884 10.3826001,-82.937499 83.0312501,-82.937499 z"/>
   </g>
   <g>
    <path style="fill:#deddda" d="m 162.53675,60.431991 c 72.64865,0 83.03125,10.356615 83.03125,82.937499 v 58.125 c 0,72.58059 -10.3826,82.9375 -83.03125,82.9375 h -73.9375 c -72.64865,0 -83.0312501,-10.35691 -83.0312501,-82.9375 v -58.125 c 0,-72.580884 10.3826001,-82.937499 83.0312501,-82.937499 z"/>
    <g transform="translate(-0.009765,0.59999)">
     <path style="opacity:0.3;fill:#252115" d="m 8.2171399,246.93718 c 0.5042848,2.61273 1.0936298,5.04739 1.7839181,7.31302 0.692204,2.27192 1.483182,4.37533 2.386669,6.32194 0.903486,1.94662 1.919633,3.73528 3.05868,5.38035 1.139047,1.64506 2.401061,3.14658 3.799951,4.51384 1.398889,1.36727 2.934959,2.60009 4.61797,3.71329 1.68301,1.11323 3.513837,2.10678 5.50525,2.98969 1.991412,0.88293 4.14331,1.65566 6.467404,2.33204 2.324094,0.67638 4.819636,1.25588 7.500691,1.74948 2.681058,0.4936 5.546557,0.90197 8.608855,1.23655 3.062299,0.33456 6.322202,0.59576 9.790022,0.79504 6.935642,0.39859 14.706535,0.54958 23.409945,0.54958 h 35.431275 v -105 H 5.577765 v 27.25893 c 0,8.50954 0.155358,16.10723 0.563441,22.88797 0.2040416,3.39038 0.4717928,6.57613 0.8142753,9.56993 0.3412937,2.98341 0.7588137,5.77521 1.2616586,8.38835 z"/>
     <path d="m 8.2171399,242.93719 c 0.5042848,2.61273 1.0936298,5.04739 1.7839181,7.31302 0.692204,2.27192 1.483182,4.37533 2.386669,6.32194 0.903486,1.94662 1.919633,3.73528 3.05868,5.38035 1.139047,1.64506 2.401061,3.14658 3.799951,4.51384 1.398889,1.36727 2.934959,2.60009 4.61797,3.71329 1.68301,1.11323 3.513837,2.10678 5.50525,2.98969 1.991412,0.88293 4.14331,1.65566 6.467404,2.33204 2.324094,0.67638 4.819636,1.25588 7.500691,1.74948 2.681058,0.4936 5.546557,0.90197 8.608855,1.23655 3.062299,0.33456 6.322202,0.59576 9.790022,0.79504 6.935642,0.39859 14.706535,0.54958 23.409945,0.54958 h 35.431275 v -105 H 5.577765 v 27.25893 c 0,8.50954 0.155358,16.10723 0.563441,22.88797 0.2040416,3.39038 0.4717928,6.57613 0.8142753,9.56993 0.3412937,2.98341 0.7588137,5.77521 1.2616586,8.38835 z" style="fill:#f6f5f4"/>
    </g>
    <path d="m 85.139612,65 c -8.702701,0 -16.472962,0.152758 -23.408039,0.551147 -3.467539,0.199194 -6.727175,0.45844 -9.789225,0.792847 -3.062048,0.334406 -5.927315,0.742601 -8.608154,1.235962 -2.680837,0.493362 -5.176176,1.072597 -7.50008,1.748657 -2.323906,0.67606 -4.475629,1.450263 -6.466879,2.332764 -1.99125,0.882501 -3.821928,1.873764 -5.504802,2.986449 -1.682873,1.112686 -3.218819,2.346766 -4.617594,3.71338 -1.398776,1.366613 -2.66069,2.865604 -3.799641,4.509887 -1.13895,1.644284 -2.155023,3.433941 -3.058434,5.379639 -0.903411,1.945698 -1.694324,4.048114 -2.386471,6.31897 -0.6921461,2.270855 -1.2842236,4.709957 -1.7893898,7.329708 -0.5051567,2.61976 -0.9228463,5.41947 -1.265297,8.41187 -0.3424509,2.9924 -0.6101804,6.17665 -0.8142097,9.56543 C 5.7233478,126.65428 5.568002,134.24834 5.568002,142.7539 V 170 H 120.568 V 65 Z" style="opacity:0.3;fill:#1b1b1b"/>
    <path style="fill:#f6f5f4" d="m 85.139612,60.68708 c -8.702701,0 -16.472962,0.152758 -23.408039,0.551147 -3.467539,0.199194 -6.727175,0.45844 -9.789225,0.792847 -3.062048,0.334406 -5.927315,0.742601 -8.608154,1.235962 -2.680837,0.493362 -5.176176,1.072597 -7.50008,1.748657 -2.323906,0.67606 -4.475629,1.450263 -6.466879,2.332764 -1.99125,0.882501 -3.821928,1.873764 -5.504802,2.986449 -1.682873,1.112686 -3.218819,2.346766 -4.617594,3.71338 -1.398776,1.366613 -2.66069,2.865604 -3.799641,4.509887 -1.13895,1.644284 -2.155023,3.433941 -3.058434,5.379639 -0.903411,1.945698 -1.694324,4.048114 -2.386471,6.31897 -0.6921461,2.270855 -1.2842236,4.709957 -1.7893898,7.329712 -0.5051567,2.619756 -0.9228463,5.419466 -1.265297,8.411866 -0.3424509,2.9924 -0.6101804,6.17665 -0.8142097,9.56543 -0.4080487,6.77757 -0.5633945,14.37163 -0.5633945,22.87719 v 27.2461 H 120.568 v -105 z"/>
    <path style="opacity:0.3;fill:#1b1b1b" d="m 165.99639,64.745 c 8.7027,0 16.47296,0.152758 23.40803,0.551147 3.46754,0.199194 6.72718,0.45844 9.78924,0.792847 3.06204,0.334407 5.92731,0.742601 8.60815,1.235962 2.68083,0.493361 5.17618,1.072598 7.50008,1.748657 2.3239,0.676059 4.47563,1.450263 6.46688,2.332764 1.99124,0.882501 3.82192,1.873765 5.5048,2.98645 1.68287,1.112686 3.21881,2.346766 4.6176,3.71338 1.39877,1.366612 2.66068,2.865604 3.79963,4.509888 1.13895,1.644283 2.15502,3.433941 3.05844,5.379638 0.90341,1.945698 1.69432,4.048115 2.38647,6.31897 0.69215,2.270855 1.28422,4.709957 1.78939,7.329717 0.50516,2.61975 0.92285,5.41946 1.2653,8.41185 0.34245,2.9924 0.61018,6.17666 0.81421,9.56544 0.40804,6.77756 0.56339,14.37162 0.56339,22.87719 v 27.2461 h -115 v -105 z"/>
    <path d="m 165.99639,60.43199 c 8.7027,0 16.47296,0.152758 23.40803,0.551147 3.46754,0.199194 6.72718,0.45844 9.78924,0.792847 3.06204,0.334407 5.92731,0.742601 8.60815,1.235962 2.68083,0.493361 5.17618,1.072598 7.50008,1.748657 2.3239,0.676059 4.47563,1.450263 6.46688,2.332764 1.99124,0.882501 3.82192,1.873765 5.5048,2.98645 1.68287,1.112686 3.21881,2.346766 4.6176,3.71338 1.39877,1.366612 2.66068,2.865604 3.79963,4.509888 1.13895,1.644283 2.15502,3.433941 3.05844,5.379638 0.90341,1.945698 1.69432,4.048115 2.38647,6.31897 0.69215,2.270855 1.28422,4.709957 1.78939,7.329717 0.50516,2.619749 0.92285,5.41946 1.2653,8.41185 0.34245,2.9924 0.61018,6.17666 0.81421,9.56544 0.40804,6.77756 0.56339,14.37162 0.56339,22.87719 v 27.2461 h -115 v -105 z" style="fill:#f6f5f4"/>
    <path style="fill:#2dc0af" d="m 57.375691,78.23662 v 69.90092 h 8.83723 v -26.50092 l 38.547389,-18.90431 z"/>
    <path style="fill:#1a5fb4" d="m 45.045692,258.93198 h 38.76924 V 246.0089 h -12.92308 v -43.07692 h -6.88369 l -21.68709,11.25384 4.72339,11.21292 10.92431,-5.23599 -0.0431,25.84615 h -12.88 z" font-weight="800" letter-spacing="0" word-spacing="0"/>
    <g style="fill:#a51d2d" transform="matrix(2.1538461,0,0,2.1538461,-12.845593,-326.57556)">
     <circle cx="91" cy="257" r="15"/>
     <rect width="6" height="38" x="88" y="238" rx="2" ry="2"/>
     <rect width="6" height="38" x="254" y="-110" rx="2" ry="2" transform="rotate(90)"/>
     <rect width="6" height="38" x="243.07" y="98.38" rx="2" ry="2" transform="rotate(45)"/>
     <rect width="6" height="38" x="114.38" y="-265.07" rx="2" ry="2" transform="rotate(135)"/>
    </g>
    <g style="fill:#ed333b" transform="matrix(2.1538461,0,0,2.1538461,-12.845593,-330.88325)">
     <circle cx="91" cy="257" r="15"/>
     <rect width="6" height="38" x="88" y="238" rx="2" ry="2"/>
     <rect width="6" height="38" x="254" y="-110" rx="2" ry="2" transform="rotate(90)"/>
     <rect width="6" height="38" x="243.07" y="98.38" rx="2" ry="2" transform="rotate(45)"/>
     <rect width="6" height="38" x="114.38" y="-265.07" rx="2" ry="2" transform="rotate(135)"/>
    </g>
   </g>
   <g>
    <path d="m 361.9375,-212 c 145.2973,0 166.0625,20.71323 166.0625,165.875 v 116.25 c 0,145.16118 -20.7652,165.875 -166.0625,165.875 h -147.875 c -145.2973,0 -166.0625,-20.71382 -166.0625,-165.875 v -116.25 c 0,-145.16177 20.7652,-165.875 166.0625,-165.875 z" clip-path="url(#clipPath1082-3)" transform="matrix(0.5,0,0,0.5,-18.432,166.43199)" style="opacity:0.4;fill:none;stroke:url(#linearGradient1108);stroke-width:8;stroke-linecap:round;stroke-linejoin:round"/>
   </g>
  </g>
 </g>
</svg>
