<?xml version="1.0" encoding="UTF-8" standalone="no"?>
<svg
   xmlns:dc="http://purl.org/dc/elements/1.1/"
   xmlns:cc="http://creativecommons.org/ns#"
   xmlns:rdf="http://www.w3.org/1999/02/22-rdf-syntax-ns#"
   xmlns:svg="http://www.w3.org/2000/svg"
   xmlns="http://www.w3.org/2000/svg"
   xmlns:xlink="http://www.w3.org/1999/xlink"
   xmlns:sodipodi="http://sodipodi.sourceforge.net/DTD/sodipodi-0.dtd"
   xmlns:inkscape="http://www.inkscape.org/namespaces/inkscape"
   width="256"
   height="256"
   style="enable-background:new"
   version="1.0"
   id="svg74"
   sodipodi:docname="scacchi.svg"
   inkscape:version="0.92.3 (2405546, 2018-03-11)">
  <metadata
     id="metadata78">
    <rdf:RDF>
      <cc:Work
         rdf:about="">
        <dc:format>image/svg+xml</dc:format>
        <dc:type
           rdf:resource="http://purl.org/dc/dcmitype/StillImage" />
        <dc:title />
      </cc:Work>
    </rdf:RDF>
  </metadata>
  <sodipodi:namedview
     pagecolor="#ffffff"
     bordercolor="#666666"
     borderopacity="1"
     objecttolerance="10"
     gridtolerance="10"
     guidetolerance="10"
     inkscape:pageopacity="0"
     inkscape:pageshadow="2"
     inkscape:window-width="1920"
     inkscape:window-height="1009"
     id="namedview76"
     showgrid="false"
     inkscape:zoom="3.2617188"
     inkscape:cx="18.548504"
     inkscape:cy="128"
     inkscape:window-x="0"
     inkscape:window-y="34"
     inkscape:window-maximized="1"
     inkscape:current-layer="g872" />
  <defs
     id="defs26">
    <filter
       id="filter925"
       x="-.02"
       y="-.03"
       width="1.046"
       height="1.05"
       style="color-interpolation-filters:sRGB">
      <feGaussianBlur
         stdDeviation="2.32"
         id="feGaussianBlur2" />
    </filter>
    <filter
       id="filter931"
       x="-.01"
       y="-.01"
       width="1.023"
       height="1.025"
       style="color-interpolation-filters:sRGB">
      <feGaussianBlur
         stdDeviation="1.16"
         id="feGaussianBlur5" />
    </filter>
    <linearGradient
       id="linearGradient1108"
       x1="296"
       x2="296"
       y1="-212"
       y2="236"
       gradientUnits="userSpaceOnUse">
      <stop
         style="stop-color:#ffffff"
         offset="0"
         id="stop8" />
      <stop
         style="stop-color:#ffffff;stop-opacity:.09803922"
         offset=".125"
         id="stop10" />
      <stop
         style="stop-color:#000000;stop-opacity:.09803922"
         offset=".925"
         id="stop12" />
      <stop
         style="stop-color:#000000;stop-opacity:.49803922"
         offset="1"
         id="stop14" />
    </linearGradient>
    <clipPath
       id="clipPath1082-3">
      <path
         d="M 361.9375,-212 C 507.2348,-212 528,-191.28677 528,-46.125 V 70.125 C 528,215.28618 507.2348,236 361.9375,236 H 214.0625 C 68.7652,236 48,215.28618 48,70.125 V -46.125 C 48,-191.28677 68.7652,-212 214.0625,-212 Z"
         style="fill:#8c59d9"
         id="path17" />
    </clipPath>
    <clipPath
       id="b">
      <use
         width="100%"
         height="100%"
         overflow="visible"
         xlink:href="#a"
         id="use20" />
    </clipPath>
    <filter
       id="filter1134"
       x="-.09"
       y="-.03"
       width="1.185"
       height="1.065"
       style="color-interpolation-filters:sRGB">
      <feGaussianBlur
         stdDeviation="2.025"
         id="feGaussianBlur23" />
    </filter>
    <radialGradient
       xlink:href="#b-3"
       id="c"
       cx="30.493"
       cy="197.655"
       fx="30.493"
       fy="197.655"
       r="31.25"
       gradientTransform="matrix(2.5848083,0,0,3.6009049,241.58699,-429.81015)"
       gradientUnits="userSpaceOnUse" />
    <linearGradient
       id="b-3">
      <stop
         offset="0"
         stop-color="#8c839c"
         id="stop2" />
      <stop
         offset="1"
         stop-color="#3d3846"
         id="stop4" />
    </linearGradient>
    <radialGradient
       xlink:href="#a"
       id="d"
       cx="86"
       cy="218"
       fx="86"
       fy="218"
       r="20"
       gradientUnits="userSpaceOnUse"
       gradientTransform="matrix(1.7127918,0,0,1.7127918,268.17808,-40.999558)" />
    <linearGradient
       id="a">
      <stop
         offset="0"
         stop-color="#fff"
         id="stop7" />
      <stop
         offset="1"
         stop-color="#fff"
         stop-opacity="0"
         id="stop9" />
    </linearGradient>
  </defs>
  <g
     transform="translate(0,-44)"
     id="g72">
    <path
       d="m162.53675 62.431991c72.64865 0 83.03125 10.356615 83.03125 82.937499v58.125c0 72.58059-10.3826 82.9375-83.03125 82.9375h-73.9375c-72.64865 0-83.03125-10.35691-83.03125-82.9375v-58.125c0-72.580884 10.3826-82.937499 83.03125-82.937499z"
       style="filter:url(#filter925);opacity:.2"
       id="path28" />
    <path
       d="m162.53675 61.431991c72.64865 0 83.03125 10.356615 83.03125 82.937499v58.125c0 72.58059-10.3826 82.9375-83.03125 82.9375h-73.9375c-72.64865 0-83.03125-10.35691-83.03125-82.9375v-58.125c0-72.580884 10.3826-82.937499 83.03125-82.937499z"
       style="filter:url(#filter931);opacity:.1"
       id="path30" />
    <g
       transform="matrix(3.0279672,0,0,3.0279499,301.86931,-618.71454)"
       id="g64">
      <path
         transform="matrix(.32397958 0 0 .32397958 21.961898 213.17028)"
         d="m-308.75391 34.898438c-0.40033 0.02168-0.93876 8e-3 -1.33398 0.03125-3.68838 0.216589-7.15504 0.499672-10.41211 0.863281s-6.30467 0.807305-9.15625 1.34375c-2.85158 0.536444-5.5066 1.165293-7.97852 1.90039-2.47191 0.735098-4.76083 1.57559-6.8789 2.535157-2.11807 0.959566-4.06542 2.038195-5.85547 3.248046-1.79005 1.209852-3.4223 2.551156-4.91016 4.03711s-2.83147 3.116424-4.04297 4.904297c-1.21149 1.787872-2.291 3.734002-3.25195 5.849609s-1.80283 4.399982-2.53906 6.869141-1.36696 5.122176-1.9043 7.970703c-0.53733 2.848527-0.98144 5.892773-1.3457 9.146484-0.1279 1.142427-0.19598 2.457815-0.30469 3.652344h59.91406z"
         style="fill:#f1f0e9"
         id="path32" />
      <path
         transform="matrix(.32397958 0 0 .32397958 21.961898 213.17028)"
         d="m-247.50391 34.330078h-37.68554c-8.76101 0-16.49253 0.185309-23.56446 0.56836v52.351562h61.25z"
         style="fill:#aea795"
         id="path34" />
      <path
         transform="matrix(.32397958 0 0 .32397958 21.961898 213.17028)"
         d="m-186.25391 34.898438c-7.07194-0.383055-14.80535-0.56836-23.5664-0.56836h-37.6836v52.919922h61.25z"
         style="fill:#f1f0e9"
         id="path36" />
      <path
         transform="matrix(.32397958 0 0 .32397958 21.961898 213.17028)"
         d="m-126.33984 87.25c-0.10872-1.194529-0.17679-2.509917-0.30469-3.652344-0.36427-3.253711-0.80837-6.297957-1.3457-9.146484-0.53734-2.848527-1.16807-5.501544-1.9043-7.970703s-1.57811-4.753534-2.53906-6.869141-2.04242-4.061737-3.25391-5.849609c-1.21149-1.787873-2.55315-3.418343-4.04102-4.904297-1.48786-1.485954-3.1201-2.827258-4.91015-4.03711-1.79005-1.209851-3.73935-2.28848-5.85742-3.248046-2.11807-0.959567-4.40505-1.800059-6.87696-2.535157-2.47191-0.735097-5.12889-1.363946-7.98047-1.90039-2.85157-0.536445-5.89918-0.980141-9.15625-1.34375-3.25706-0.363609-6.72177-0.646692-10.41015-0.863281-0.39519-0.02321-0.93368-0.0096-1.33399-0.03125v52.351562z"
         style="fill:#aea795"
         id="path38" />
      <path
         transform="matrix(.32397958 0 0 .32397958 21.961898 213.17028)"
         d="m-368.66797 87.25c-0.20091 2.207573-0.41973 4.359045-0.56055 6.75-0.43403 7.36943-0.5996 15.62667-0.5996 24.875v29.625h61.07421v-61.25z"
         style="fill:#aea795"
         id="path40" />
      <rect
         x="-78.07"
         y="241.44"
         width="19.844"
         height="19.844"
         style="fill:#f1f0e9"
         id="rect42" />
      <rect
         x="-58.22"
         y="241.44"
         width="19.844"
         height="19.844"
         style="fill:#aea795"
         id="rect44" />
      <path
         transform="matrix(.32397958 0 0 .32397958 21.961898 213.17028)"
         d="m-369.82812 148.5v29.625c0 9.24829 0.16557 17.5056 0.5996 24.875 0.14082 2.39095 0.35964 4.54243 0.56055 6.75h59.91406v-61.25z"
         style="fill:#f1f0e9"
         id="path46" />
      <rect
         x="-78.07"
         y="261.28"
         width="19.844"
         height="19.844"
         style="fill:#aea795"
         id="rect48" />
      <rect
         x="-58.22"
         y="261.28"
         width="19.844"
         height="19.844"
         style="fill:#f1f0e9"
         id="rect50" />
      <path
         transform="matrix(.32397958 0 0 .32397958 21.961898 213.17028)"
         d="m-126.33984 209.75c0.20091-2.20757 0.41972-4.35905 0.56054-6.75 0.43404-7.3694 0.59961-15.62671 0.59961-24.875v-29.625h-61.07422v61.25z"
         style="fill:#aea795"
         id="path52" />
      <path
         transform="matrix(.32397958 0 0 .32397958 21.961898 213.17028)"
         d="m-368.66797 209.75c0.10871 1.19453 0.17679 2.50992 0.30469 3.65234 0.36426 3.25371 0.80837 6.29796 1.3457 9.14649 0.53734 2.84852 1.16807 5.49959 1.9043 7.96875s1.57811 4.75548 2.53906 6.87109 2.04046 4.06174 3.25195 5.84961c1.2115 1.78788 2.55511 3.41834 4.04297 4.9043s3.12011 2.82725 4.91016 4.03711c1.79005 1.20985 3.7374 2.28847 5.85547 3.24804 2.11807 0.95958 4.40699 1.80006 6.8789 2.53516 2.47192 0.7351 5.12694 1.36394 7.97852 1.90039s5.89918 0.98014 9.15625 1.34375c3.25707 0.36362 6.72373 0.64669 10.41211 0.86328 0.39522 0.0232 0.93365 0.01 1.33398 0.0312v-52.35151z"
         style="fill:#aea795"
         id="path54" />
      <path
         transform="matrix(.32397958 0 0 .32397958 21.961898 213.17028)"
         d="m-308.75391 262.10156c7.07193 0.38306 14.80345 0.56836 23.56446 0.56836h37.68554v-52.91992h-61.25z"
         style="fill:#f1f0e9"
         id="path56" />
      <path
         transform="matrix(.32397958 0 0 .32397958 21.961898 213.17028)"
         d="m-247.50391 262.66992h37.6836c8.76105 0 16.49446-0.1853 23.5664-0.56836v-52.35156h-61.25z"
         style="fill:#aea795"
         id="path58" />
      <path
         transform="matrix(.32397958 0 0 .32397958 21.961898 213.17028)"
         d="m-125.17969 148.5v-29.625c0-9.24833-0.16557-17.50557-0.59961-24.875-0.14082-2.390955-0.35963-4.542427-0.56054-6.75h-59.91407v61.25z"
         style="fill:#f1f0e9"
         id="path60" />
      <path
         transform="matrix(.32397958 0 0 .32397958 21.961898 213.17028)"
         d="m-186.25391 262.10156c0.40031-0.0217 0.9388-8e-3 1.33399-0.0312 3.68838-0.21659 7.15309-0.49966 10.41015-0.86328 3.25707-0.36361 6.30468-0.8073 9.15625-1.34375 2.85158-0.53645 5.50856-1.16529 7.98047-1.90039s4.75889-1.57558 6.87696-2.53516c2.11807-0.95957 4.06737-2.03819 5.85742-3.24804 1.79005-1.20986 3.42229-2.55115 4.91015-4.03711 1.48787-1.48596 2.82953-3.11642 4.04102-4.9043 1.21149-1.78787 2.29296-3.734 3.25391-5.84961s1.80283-4.40193 2.53906-6.87109 1.36696-5.12023 1.9043-7.96875c0.53733-2.84853 0.98143-5.89278 1.3457-9.14649 0.1279-1.14242 0.19597-2.45781 0.30469-3.65234h-59.91407z"
         style="fill:#f1f0e9"
         id="path62" />
    </g>
    <path
       transform="matrix(.5 0 0 .5 -18.432 166.43199)"
       d="M 361.9375,-212 C 507.2348,-212 528,-191.28677 528,-46.125 V 70.125 C 528,215.28618 507.2348,236 361.9375,236 H 214.0625 C 68.7652,236 48,215.28618 48,70.125 V -46.125 C 48,-191.28677 68.7652,-212 214.0625,-212 Z"
       clip-path="url(#clipPath1082-3)"
       style="fill:none;opacity:.4;stroke-linecap:round;stroke-linejoin:round;stroke-width:8;stroke:url(#linearGradient1108)"
       id="path70" />
  </g>
  <g
     transform="translate(-242.58751,-222.23423)"
     id="g32">
    <g
       id="g872"
       transform="translate(-5.6829594,-6.1544947)">
      <path
         id="path16"
         style="stroke-width:1.7127918;marker:none"
         d="m 323.39164,268.89587 -0.0291,15.84333 -12.32182,9.95303 -0.004,0.004 a 49.242766,49.242766 0 0 0 -5.97421,5.10583 l -22.40673,12.56833 -0.40079,6.1986 8.13575,16.27152 19.89066,-6.7484 a 16.699721,16.699721 0 0 0 13.08059,6.3202 16.699721,16.699721 0 0 0 16.63977,-15.51618 l 0.0189,-0.007 0.46931,15.95122 c -0.012,7.93709 -5.40044,14.06887 -13.12512,15.88957 -6.89399,1.62373 -9.08294,-0.49328 -17.36429,2.88434 -11.38492,4.64167 -19.63887,11.43803 -20.40621,23.27685 l -0.06,6.882 17.12107,17.12792 c -7.85658,0 -17.92437,10.27674 -17.92437,10.27674 v 6.85117 h 99.34193 v -6.85117 c 0,0 1.71279,-10.27674 -16.6826,-10.27674 l 17.91409,-17.46021 v -49.03093 c 0,-27.19571 -22.04705,-49.24276 -49.24276,-49.24276 -0.29117,0.012 -0.58235,0.0257 -0.87352,0.0429 a 15.845037,15.845037 0 0 0 -0.38538,-4.00966 15.843325,15.843325 0 0 0 -15.4117,-12.30469 z"
         inkscape:connector-curvature="0" />
      <path
         id="path18"
         d="m 323.04394,263.98359 -0.0291,15.84333 -40.35851,32.54304 8.13575,16.27152 19.89066,-6.7484 a 16.699721,16.699721 0 0 0 13.08059,6.3202 c 8.7575,-0.0107 15.73028,-6.78266 16.35203,-15.51617 v -0.007 15.95123 c -0.012,7.93708 -4.62454,14.06887 -12.34924,15.88786 -6.89227,1.62372 -9.08293,-0.49157 -17.36428,2.88434 -12.5856,5.13152 -20.80528,15.88615 -20.80699,29.47715 l 17.46191,17.81132 c -9.67214,-10e-4 -18.32517,7.26909 -18.32517,16.47534 h 99.34193 c 0,-10.28531 -7.70413,-16.47705 -16.28008,-16.47705 l 17.91236,-17.45822 v -49.02867 c 0,-27.19742 -22.04707,-47.95816 -49.24278,-47.95816 -0.29117,0.012 -0.58235,0.0256 -0.87352,0.0429 a 15.845037,15.845037 0 0 0 -0.38366,-4.01135 c -1.6477,-7.18865 -8.78662,-12.28935 -16.16191,-12.30305 z"
         style="fill:#3d3846;stroke-width:1.7127918;marker:none;fill-opacity:1"
         inkscape:connector-curvature="0" />
      <path
         id="path20"
         d="m 323.79243,262.70071 -0.008,5.00307 a 15.831336,15.831336 0 0 1 8.57082,10.7255 c 0.29803,1.31543 0.42819,2.66339 0.38366,4.01136 0.29117,-0.0171 0.58235,-0.0309 0.87352,-0.0429 27.19571,0 49.24276,22.04535 49.24276,49.24277 v 49.02866 l -11.05949,14.03291 17.91067,-17.45849 v -49.02867 c 0,-27.19743 -22.04706,-49.24277 -49.24276,-49.24277 -0.29118,0.012 -0.58235,0.0256 -0.87353,0.0429 a 15.845037,15.845037 0 0 0 -0.38368,-4.01135 15.843325,15.843325 0 0 0 -15.41171,-12.30299 z m -24.93481,134.05165 c -1.02769,0.5481 -1.99713,1.18869 -2.88949,1.91833 1.35824,-0.34255 2.77302,-0.54296 4.23745,-0.54296 z"
         style="fill:#ffffff;fill-opacity:0.07099998;stroke-width:1.7127918;marker:none"
         inkscape:connector-curvature="0" />
      <path
         id="path22"
         style="fill:#9a9996;stroke-width:1.7127918;marker:none"
         d="m 415.17159,312.47102 c -21.08959,0 -37.7328,17.09708 -37.7328,38.18669 a 38.186694,38.186694 0 0 0 26.03615,36.16559 l -10.27675,47.2645 -28.94105,10.91049 v 7.48833 l 102.60481,0.21409 v -7.26738 l -30.02182,-11.34553 -9.52312,-47.27648 a 38.184982,38.184982 0 0 0 26.03957,-36.15361 c 0,-21.08961 -17.09538,-38.18669 -38.18499,-38.18669 z"
         inkscape:connector-curvature="0" />
      <path
         id="path24"
         d="m 415.47476,305.12828 c -20.92175,0 -37.88353,16.96006 -37.88353,37.88182 a 37.885242,37.885242 0 0 0 25.8289,35.87955 L 377.79676,431.731 c -6.36473,0 -13.53962,7.20572 -13.53962,13.57044 l 102.60481,0.13189 c 0,-6.36473 -7.33761,-13.70233 -13.70234,-13.70233 l -25.63707,-52.85333 a 37.88353,37.88353 0 0 0 25.83404,-35.86586 c 0,-20.92347 -16.96006,-37.88353 -37.88182,-37.88353 z"
         style="fill:#deddda;stroke-width:1.7127918;marker:none"
         inkscape:connector-curvature="0" />
      <circle
         r="34.255836"
         id="circle26"
         cy="342.6658"
         cx="415.47821"
         style="fill:url(#d);stroke-width:1.7127918;marker:none" />
      <path
         id="path28-6"
         d="m 466.86195,445.43333 c 0,-5.93482 -7.1903,-10.27675 -13.70234,-10.27675 h -75.36285 c -7.43351,0 -13.53962,3.63455 -13.53962,10.14486 0,-6.51716 6.56856,-13.57044 13.53962,-13.57044 h 75.36285 c 7.26909,0 13.70234,6.86316 13.70234,13.70233 z"
         style="fill:#f6f5f4;stroke-width:1.7127918;marker:none"
         inkscape:connector-curvature="0" />
      <path
         id="path30-7"
         d="m 377.96291,342.79943 a 37.681421,37.681421 0 0 0 -0.16615,3.29197 37.681421,37.681421 0 0 0 37.68143,37.68143 37.681421,37.681421 0 0 0 37.68142,-37.68143 37.681421,37.681421 0 0 0 -0.16614,-3.26115 37.681421,37.681421 0 0 1 -37.51528,34.38943 37.681421,37.681421 0 0 1 -37.51528,-34.42025 z"
         style="fill:#c0bfbc;stroke-width:1.7127918;marker:none"
         inkscape:connector-curvature="0" />
    </g>
  </g>
</svg>
