<svg xmlns="http://www.w3.org/2000/svg" width="256" height="256" version="1.1" viewBox="0 0 256 256">
 <defs>
  <linearGradient id="linearGradient971" x1="184" x2="232" y1="76" y2="124" gradientTransform="translate(0,4)" gradientUnits="userSpaceOnUse">
   <stop offset="0" style="stop-color:#000000;stop-opacity:0"/>
   <stop offset=".49" style="stop-color:#000000"/>
   <stop offset="1" style="stop-color:#000000;stop-opacity:0"/>
  </linearGradient>
  <linearGradient id="linearGradient1108" x1="296" x2="296" y1="-212" y2="236" gradientUnits="userSpaceOnUse">
   <stop offset="0" style="stop-color:#ffffff"/>
   <stop offset=".125" style="stop-color:#ffffff;stop-opacity:.09803922"/>
   <stop offset=".925" style="stop-color:#000000;stop-opacity:.09803922"/>
   <stop offset="1" style="stop-color:#000000;stop-opacity:.49803922"/>
  </linearGradient>
  <linearGradient id="linearGradient938" x1="32" x2="272" y1="156" y2="156" gradientTransform="matrix(-.34202014 .93969262 .93969262 .34202014 30.963035 -67.75648)" gradientUnits="userSpaceOnUse">
   <stop offset="0" style="stop-color:#9b33ae"/>
   <stop offset="1" style="stop-color:#e97cc8"/>
  </linearGradient>
  <filter style="color-interpolation-filters:sRGB" id="filter1013" width="1.046" height="1.05" x="-.02" y="-.03">
   <feGaussianBlur stdDeviation="2.32"/>
  </filter>
  <clipPath id="clipPath989-2">
   <path d="M 115.03124,43.99999 C 42.382604,44 32.000014,54.35661 32.000004,126.9375 v 58.12499 c 0,72.5806 10.38261,82.9375 83.031236,82.9375 h 73.93752 C 261.6174,267.99999 272,257.64307 272,185.06249 V 126.9375 C 272,54.35661 261.6174,44 188.96875,44 Z" style="fill:url(#linearGradient993)"/>
  </clipPath>
  <filter id="filter931-3" width="1.023" height="1.025" x="-.01" y="-.01" style="color-interpolation-filters:sRGB">
   <feGaussianBlur stdDeviation=".423"/>
  </filter>
 </defs>
 <path style="filter:url(#filter1013);opacity:.2" d="m162.53675 18.431977c72.64865 0 83.03125 10.356616 83.03125 82.937503v58.12501c0 72.58059-10.3826 82.9375-83.03125 82.9375h-73.937496c-72.648654 0-83.031254-10.35691-83.031254-82.9375v-58.12501c0-72.580887 10.3826-82.937503 83.031254-82.937503z"/>
 <path style="fill:url(#linearGradient938)" d="m88.599244 16.431982c-72.648636 1e-5 -83.03124 10.35661-83.03125 82.9375v58.125008c0 72.5806 10.382624 82.9375 83.03125 82.9375h73.937496c72.64864 0 83.03125-10.35692 83.03125-82.9375v-58.125008c0-1.00599-0.01-1.95528-0.0137-2.9375l-89.00388-80z"/>
 <path style="fill:#ffffff;opacity:.05" d="m230.90588 24.603857-194.67578 207.65625c12.45966 6.53045 31.491462 8.17188 60.369141 8.17188h73.937496c72.64864 0 83.03125-10.35692 83.03125-82.9375v-58.125008c0-43.730136-3.77655-64.867242-22.66211-74.765625z"/>
 <g clip-path="url(#clipPath989-2)" transform="translate(-26.432011,-27.56802)" style="enable-background:new">
  <path d="m 182.98242,44 c 0.29365,69.88348 11.37588,80 83.01758,80 h 5.98633 L 248.39281,63.31497 Z" style="opacity:0.1;filter:url(#filter931-3)"/>
  <path d="m 182.98242,48 c 0.29365,69.88348 11.37588,80 83.01758,80 h 5.98633 L 251.1521,59.343712 Z" style="opacity:0.4;fill:url(#linearGradient971);filter:url(#filter975)"/>
 </g>
 <path d="M 214.0625 -216 C 141.22377 -216 98.539867 -211.11743 73.71875 -186.32812 C 48.897633 -161.53882 44 -118.89662 44 -46.125 L 44 70.125 C 44 142.89632 48.897641 185.53875 73.71875 210.32812 C 98.539859 235.1175 141.22377 240 214.0625 240 L 361.9375 240 C 434.77623 240 477.46014 235.1175 502.28125 210.32812 C 527.10236 185.53875 532 142.89632 532 70.125 L 532 -46.125 C 532 -118.89662 527.10237 -161.53882 502.28125 -186.32812 C 477.46013 -211.11743 434.77623 -216 361.9375 -216 L 214.0625 -216 z M 214.0625 -208 L 361.9375 -208 C 434.39607 -208 474.7431 -202.52572 496.62891 -180.66797 C 518.51471 -158.81021 524 -118.51515 524 -46.125 L 524 70.125 C 524 142.51486 518.51472 182.81014 496.62891 204.66797 C 474.74309 226.5258 434.39607 232 361.9375 232 L 214.0625 232 C 141.60393 232 101.25691 226.5258 79.371094 204.66797 C 57.485278 182.81014 52 142.51486 52 70.125 L 52 -46.125 C 52 -118.51515 57.485286 -158.81021 79.371094 -180.66797 C 101.2569 -202.52572 141.60393 -208 214.0625 -208 z" transform="matrix(.5 0 0 .5 -18.432006 122.43199)" style="font-variation-settings:normal;inline-size:0;fill:url(#linearGradient1108);filter-blend-mode:normal;filter-gaussianBlur-deviation:0;stop-color:#000000;opacity:0.4"/>
 <path style="fill:#faf8f6" d="m156.55041 16.431982c0.29365 69.88348 11.37588 80 83.01758 80h5.98633z"/>
 <path style="fill:#5d5d5d" d="m245.55432 96.431982c-0.29365-69.88348-11.37588-80-83.01758-80h-5.98633z"/>
</svg>
