<svg xmlns="http://www.w3.org/2000/svg" width="16" height="16" version="1.2">
 <g style="opacity:0.75;enable-background:new" transform="matrix(0.93664239,0,0,0.93664239,-306.71153,-130.65344)">
  <rect width="16" height="16" x="140.04" y="-343.99" transform="rotate(90)" style="fill:none"/>
  <path d="m 337.31472,139.96026 -2.63222,0.39327 v 1.35335 a 6.4893367,6.4774947 43.145679 0 1 2.63222,0.005 v -1.75146 z m -5.38585,1.19061 -2.00544,1.70491 0.98801,1.17757 a 6.4893367,6.4774947 43.145679 0 1 2.01736,-1.69076 z m 8.12867,0.0127 -0.99285,1.18353 a 6.4893367,6.4774947 43.145679 0 1 0.17056,0.0905 6.4893367,6.4774947 43.145679 0 1 1.84457,1.60287 l 1.00514,-1.19769 z m -11.60999,4.21684 -0.44056,2.59535 1.51535,0.26739 a 6.4893367,6.4774947 43.145679 0 1 0.45509,-2.59274 z m 15.08573,0.003 -1.5228,0.26851 a 6.4893367,6.4774947 43.145679 0 1 0.46365,2.59088 l 1.53286,-0.27 z m -13.68247,4.69464 -1.35149,0.78058 h -3.4e-4 l 1.33101,2.27098 1.33808,-0.77238 a 6.4893367,6.4774947 43.145679 0 1 -1.31723,-2.27918 z m 12.30081,0.003 a 6.4893367,6.4774947 43.145679 0 1 -0.53478,1.21481 6.4893367,6.4774947 43.145679 0 1 -0.77388,1.0692 l 1.33883,0.77313 1.30158,-2.28811 z m -9.55687,3.47164 -0.53479,1.4688 2.47953,0.88448 0.52585,-1.44534 a 6.4893367,6.4774947 43.145679 0 1 -2.30338,-0.79995 6.4893367,6.4774947 43.145679 0 1 -0.16721,-0.10799 z m 6.8133,0.0153 a 6.4893367,6.4774947 43.145679 0 1 -2.47468,0.89752 l 0.53031,1.45651 2.46761,-0.91651 z" style="fill:#999999"/>
  <circle style="fill:none;stroke:#999999;stroke-width:2.00183105;stroke-linecap:square;stroke-linejoin:round" cx="336.01" cy="147.979" r="6.005"/>
  <circle cx="336.01" cy="147.979" r="3.336" style="fill:none;stroke:#999999;stroke-width:2.00183153;stroke-linecap:square;stroke-linejoin:round"/>
 </g>
</svg>
