<svg xmlns="http://www.w3.org/2000/svg" width="16" height="16" version="1.2">
 <rect width="15" height="15" x="-15.5" y="-15.5" rx="7.5" ry="7.5" transform="matrix(0,-1,-1,0,0,0)" style="fill:#19b6ee"/>
 <g transform="matrix(0.06696429,0,0,0.06696429,-2.1785711,-2.4464301)" style="enable-background:new">
  <path style="fill:#ffffff" d="m 79.550033,157.55509 c 6.518391,-3.11406 13.106836,-6.45446 19.749826,-10.05033 6.672951,-3.65528 13.021261,-7.37597 19.046431,-11.16751 v 0 c 0,0 -4.36468,-2.82516 -35.652702,-22.85094 -1.000827,7.01161 -1.775227,14.31554 -2.316213,21.8999 -0.500094,7.53794 -0.778771,14.92525 -0.825955,22.19005 z"/>
  <path d="M 209.27255,170.50306 A 59.975082,59.975082 0 0 1 154.28358,214.88322 59.975082,59.975082 0 0 1 95.209803,176.10599" style="fill:none;stroke:#ffffff;stroke-width:10"/>
  <path d="m -92.928138,-141.49694 a 59.975082,59.975082 0 0 1 -54.988962,44.380157 59.975082,59.975082 0 0 1 -59.07378,-38.777227" transform="scale(-1)" style="fill:none;stroke:#ffffff;stroke-width:10"/>
  <path style="fill:#ffffff" d="m 222.65065,154.44491 c -6.51839,3.11406 -13.10684,6.45446 -19.74983,10.05033 -6.67295,3.65528 -13.02126,7.37597 -19.04643,11.16751 v 0 c 0,0 4.36468,2.82516 35.6527,22.85094 1.00083,-7.01161 1.77523,-14.31554 2.31622,-21.8999 0.50009,-7.53794 0.77877,-14.92525 0.82595,-22.19005 z"/>
 </g>
</svg>
