<svg xmlns="http://www.w3.org/2000/svg" width="256" height="256" version="1.0" style="enable-background:new">
 <defs>
  <filter id="filter925" width="1.046" height="1.05" x="-.02" y="-.03" style="color-interpolation-filters:sRGB">
   <feGaussianBlur stdDeviation="2.32"/>
  </filter>
  <filter id="filter931" width="1.023" height="1.025" x="-.01" y="-.01" style="color-interpolation-filters:sRGB">
   <feGaussianBlur stdDeviation="1.16"/>
  </filter>
  <linearGradient id="linearGradient1108" x1="296" x2="296" y1="-212" y2="236" gradientUnits="userSpaceOnUse">
   <stop style="stop-color:#ffffff" offset="0"/>
   <stop style="stop-color:#ffffff;stop-opacity:.09803922" offset=".125"/>
   <stop style="stop-color:#000000;stop-opacity:.09803922" offset=".925"/>
   <stop style="stop-color:#000000;stop-opacity:.49803922" offset="1"/>
  </linearGradient>
  <clipPath id="clipPath1082-3">
   <path d="M 361.9375,-212 C 507.2348,-212 528,-191.28677 528,-46.125 V 70.125 C 528,215.28618 507.2348,236 361.9375,236 H 214.0625 C 68.7652,236 48,215.28618 48,70.125 V -46.125 C 48,-191.28677 68.7652,-212 214.0625,-212 Z" style="fill:#8c59d9"/>
  </clipPath>
 </defs>
 <g transform="translate(0,-44)">
  <path d="m162.53675 62.431991c72.64865 0 83.03125 10.356615 83.03125 82.937499v58.125c0 72.58059-10.3826 82.9375-83.03125 82.9375h-73.9375c-72.64865 0-83.03125-10.35691-83.03125-82.9375v-58.125c0-72.580884 10.3826-82.937499 83.03125-82.937499z" style="filter:url(#filter925);opacity:.2"/>
  <path d="m162.53675 61.431991c72.64865 0 83.03125 10.356615 83.03125 82.937499v58.125c0 72.58059-10.3826 82.9375-83.03125 82.9375h-73.9375c-72.64865 0-83.03125-10.35691-83.03125-82.9375v-58.125c0-72.580884 10.3826-82.937499 83.03125-82.937499z" style="filter:url(#filter931);opacity:.1"/>
  <path d="m162.53675 60.431991c72.64865 0 83.03125 10.356615 83.03125 82.937499v58.125c0 72.58059-10.3826 82.9375-83.03125 82.9375h-73.9375c-72.64865 0-83.03125-10.35691-83.03125-82.9375v-58.125c0-72.580884 10.3826-82.937499 83.03125-82.937499z" style="fill:#76c22b"/>
  <path d="M 361.9375,-212 C 507.2348,-212 528,-191.28677 528,-46.125 V 70.125 C 528,215.28618 507.2348,236 361.9375,236 H 214.0625 C 68.7652,236 48,215.28618 48,70.125 V -46.125 C 48,-191.28677 68.7652,-212 214.0625,-212 Z" clip-path="url(#clipPath1082-3)" transform="matrix(.5 0 0 .5 -18.432 166.43199)" style="fill:none;opacity:.4;stroke-linecap:round;stroke-linejoin:round;stroke-width:8;stroke:url(#linearGradient1108)"/>
 </g>
 <g transform="translate(.77105916 2.7589795)">
  <g transform="matrix(.34094971 0 0 .34094971 -113.0209 -403.19657)" style="enable-background:new;fill:#46a926">
   <path d="m812.20261 1309.7929c-27.70079 0-55.72369 7.4083-74.72772 20.9366l18.03773 35.1092c12.56198-9.9852 31.56602-16.1051 49.92584-16.1051 27.05659 0 42.19199 14.4169 42.19199 35.9977l-50.00981-0.2354c-52.82417-0.2486-74.40225 26.624-74.40225 57.2238 0 29.9555 22.04572 51.6578 62.6306 51.6578 25.44607 0 52.4405-7.5298 61.78146-23.3128l3e-3 21.3432 53.33034-0.01-6e-3 -104.013c-3e-3 -52.5026-35.93005-78.5921-88.75482-78.5921zm-11.67969 151.6087c-17.71562 0-28.34499-8.3747-28.34499-20.9367 0-11.5956 7.40547-23.1197 30.91845-22.9689l44.53407 0.2354 3e-3 16.1495c3e-3 16.8142-30.36157 27.5207-47.11089 27.5207z" style="fill:#46a926"/>
  </g>
  <g transform="matrix(2.4245313,0,0,2.4245313,-35.61284,-442.53294)" style="enable-background:new;fill:#46a926">
   <path d="m55.305889 221.92387c-0.944974 0.77446-1.612023 1.05106-2.445832 1.05106-1.278503 0-1.667605-0.77447-1.667605-3.20851v-10.78724c0-2.8766-0.277936-4.48085-1.111745-5.80851-1.22291-1.99149-4.573306-3.04255-7.852936-3.04255-5.225182 0-9.33863 2.71064-9.33863 6.19575 0 1.27234 1.056163 2.37871 2.39025 2.37871 1.334086 0 2.501413-1.10637 2.501413-2.3234 0-0.22127-0.05563-0.49787-0.111176-0.8851-0.111177-0.49787-0.16676-0.94042-0.16676-1.32766 0-1.49362 1.778783-2.71064 4.002271-2.71064 2.723757 0 4.672684 1.60425 4.672684 4.59149v4.39862c-7.655771 2.24877-9.953459 2.84819-12.343697 4.95032-1.22292 1.10637-2.001135 2.98723-2.001135 4.81276 0 3.48511 2.445832 5.91915 5.836637 5.91915 2.445831 0 5.172972-1.1617 8.563777-4.0383 0.277937 2.93191 1.790584 4.0383 4.069655 4.0383 1.889959 0 3.057287-0.66383 5.002829-2.76596zm-9.128066-3.1532c0 1.65958-0.277936 2.26809-1.445263 2.93191-1.389682 0.77448-3.338597 1.21703-4.505924 1.21703-1.945553 0-3.501982-1.88085-3.501982-4.25958v-0.22127c0.05563-3.31915 2.949483-4.39712 9.453169-6.6652z" style="fill:#46a926"/>
  </g>
  <path d="m167.12358 140.80412c-2.21593-0.19275-5.00989 0.57806-8.38192 2.31225-3.37204 1.73419-6.79225 4.33547-10.26062 7.80386-3.46839 3.37204-6.6959 7.46666-9.68256 12.28384-2.89031 4.81721-5.00988 10.16429-6.3587 16.04126-1.05978 4.33547-1.44514 8.09287-1.15613 11.27223 0.28905 3.08298 0.96346 5.63611 2.02324 7.65931 1.05976 1.9269 2.3604 3.32389 3.90192 4.19097 1.54149 0.96346 2.98666 1.44517 4.33548 1.44517 2.8903-0.19275 5.78061-0.81891 8.67092-1.87872 2.50495-0.96342 5.15441-2.45676 7.94839-4.47998 2.79396-2.11957 5.34706-5.10621 7.65931-8.95998-0.0962 2.60128 0.0482 4.76903 0.43356 6.5032 0.48173 1.7342 0.96343 3.13112 1.44516 4.19097 0.57806 1.25247 1.30064 2.21588 2.16773 2.89031 0.86711 0.57813 1.87872 0.96351 3.03483 1.15614 1.15614 0.28905 2.36043 0.38545 3.61289 0.28903 1.34882-0.0965 2.64946-0.3372 3.90192-0.72261 1.25249-0.38535 2.36045-0.86708 3.32386-1.44514 1.44519-0.96341 3.22752-2.60128 5.34709-4.91353 2.2159-2.40858 4.43183-5.00986 6.64775-7.80386 2.31225-2.89031 4.52818-5.73247 6.64773-8.52643 2.11954-2.8903 3.85372-5.29891 5.20253-7.22578 1.15619-1.54149 1.83059-2.89031 2.02325-4.04647 0.28893-1.15609 0.24075-2.02322-0.1445-2.60128-0.38538-0.57798-0.96344-0.77068-1.73422-0.57805-0.77074 0.0965-1.54147 0.5781-2.31225 1.44519-0.57809 0.77073-1.54147 1.97504-2.89029 3.61286-1.25249 1.63787-2.69763 3.51657-4.3355 5.63614-1.63784 2.11955-3.42019 4.33548-5.34706 6.64773-1.83054 2.21587-3.61291 4.2873-5.34708 6.21414-1.7342 1.83055-3.37204 3.37207-4.91356 4.62451-1.54147 1.15613-2.79396 1.73419-3.75739 1.73419-1.15614 0-2.0714-0.24076-2.74578-0.72256-0.57808-0.57806-1.01164-1.30064-1.30067-2.16775-0.28903-0.86708-0.48173-1.78237-0.57805-2.74578 0-1.05981 0.0482-2.02322 0.1445-2.89033 0.289-1.44514 0.52988-2.64943 0.72258-3.61289 0.19275-0.96341 0.33723-1.78237 0.43353-2.45676 0.19275-0.77078 0.33723-1.49334 0.43358-2.16775 0.19251-0.77073 0.38533-1.58966 0.57806-2.45675 0.96341-4.43182 1.73419-8.04471 2.31225-10.8387 0.57806-2.79395 1.01159-5.00988 1.30061-6.64772 0.28906-1.63782 0.43358-2.74581 0.43358-3.32386 0-0.67448-0.048-1.10802-0.1445-1.30064-0.19275-0.0965-0.57806-0.14451-1.15611-0.14451-0.48171 0-1.20429 0.048-2.16775 0.14451-0.86709 0.0965-1.97505 0.28902-3.32386 0.57805 2.02324-3.08301 2.79398-5.53976 2.31227-7.37031-0.3854-1.92687-1.25249-3.37203-2.6013-4.33547-1.63785-1.05976-3.75742-1.83055-6.3587-2.31225zm-3.40337 9.03945c0.36732 0.0194 0.68164 0.13747 0.94659 0.35408 0.28903 0.3854 0.48173 0.91528 0.57805 1.58967 0.0962 0.57806 0.0482 1.39696-0.1445 2.45678-0.0962 0.96341-0.52988 2.2159-1.30064 3.75741 0.77076-0.1925 1.54152-0.33713 2.31225-0.43355 0.77076-0.0965 1.397-0.24076 1.87872-0.43356 0.57806-0.1925 1.10794-0.3371 1.58967-0.43355 0.38536-0.0962 0.43353 0.67443 0.14451 2.31225-0.19276 1.54152-0.52991 3.51656-1.01162 5.92517-0.48173 2.40862-1.05978 4.91355-1.73419 7.51481-0.67441 2.60128-1.25247 4.86535-1.7342 6.79225-0.0963 0.4817-0.52988 1.25244-1.30064 2.31225-0.6744 1.05979-1.58966 2.2159-2.7458 3.46836-1.05979 1.25247-2.31225 2.45678-3.75739 3.6129-1.34882 1.15613-2.74581 2.11957-4.19098 2.8903-1.34881 0.67434-2.69763 1.05969-4.04644 1.15614-1.34882 0-2.55311-0.5299-3.61289-1.58967-0.57806-0.57808-0.96341-1.78234-1.15612-3.61289-0.19275-1.92687-0.1445-4.14282 0.14451-6.64772 0.38537-2.50496 1.01161-5.15441 1.87869-7.94837 0.86711-2.89031 2.02323-5.58794 3.46839-8.09287 3.46837-6.06969 6.5032-10.21246 9.10448-12.42838 2.02322-1.73418 3.5876-2.57597 4.68955-2.52181z" style="fill:#46a926"/>
  <g transform="matrix(2.4245313,0,0,2.4245313,-37.78806,-437.68388)" style="enable-background:new;fill:#46a926">
   <path d="m37 68c-2.704645-0.03825-2.704645 4.03825 0 4h9.880859c0.01107 1e-3 0.285634 0.0327 0.585938 0.197266 0.306304 0.16789 0.485897 0.188343 0.537109 0.939453v-0.01953l0.246094 5.193358c-0.460676-0.176436-0.769531-0.251953-0.769531-0.251953l-0.236328-0.058594h-9.244141c-4.333333 0-5.896484 4.367188-5.896484 4.367188l-0.103516 0.308593v2.324219c0 3.03333 1.431289 5.127712 2.939453 6.070312s3.060547 0.929688 3.060547 0.929688h7.591797l3.392578-2.203125 0.01953 0.320313c0.08969 2.735348 4.223189 2.492675 3.992188-0.234376l-1-17.009765v-0.0098c-0.140818-2.06533-1.461734-3.545828-2.607422-4.173828-1.145688-0.62799-2.257813-0.685547-2.257813-0.685547l-0.066405-0.003872zm1 14h8.644531c0.106906 0.0312 0.525263 0.141312 1.03711 0.482422 0.558515 0.372213 0.877827 0.68942 0.894531 1.355469l0.138672 1.363281-4.306641 2.798828h-6.408203s-0.447617-0.0129-0.939453-0.320312c-0.491836-0.3074-1.060547-0.713018-1.060547-2.679688v-1.564453c0.102847-0.30497 0.534758-1.435547 2-1.435547z" transform="translate(0,172)" style="fill-rule:evenodd;fill:#46a926"/>
  </g>
  <g transform="matrix(.34094971 0 0 .34094971 -113.0209 -398.34751)" style="enable-background:new;fill:#ffffff">
   <path d="m812.20261 1309.7929c-27.70079 0-55.72369 7.4083-74.72772 20.9366l18.03773 35.1092c12.56198-9.9852 31.56602-16.1051 49.92584-16.1051 27.05659 0 42.19199 14.4169 42.19199 35.9977l-50.00981-0.2354c-52.82417-0.2486-74.40225 26.624-74.40225 57.2238 0 29.9555 22.04572 51.6578 62.6306 51.6578 25.44607 0 52.4405-7.5298 61.78146-23.3128l3e-3 21.3432 53.33034-0.01-6e-3 -104.013c-3e-3 -52.5026-35.93005-78.5921-88.75482-78.5921zm-11.67969 151.6087c-17.71562 0-28.34499-8.3747-28.34499-20.9367 0-11.5956 7.40547-23.1197 30.91845-22.9689l44.53407 0.2354 3e-3 16.1495c3e-3 16.8142-30.36157 27.5207-47.11089 27.5207z" style="fill:#ffffff"/>
  </g>
  <g transform="matrix(2.4245313,0,0,2.4245313,-35.61284,-437.68388)" style="enable-background:new">
   <path d="m55.305889 221.92387c-0.944974 0.77446-1.612023 1.05106-2.445832 1.05106-1.278503 0-1.667605-0.77447-1.667605-3.20851v-10.78724c0-2.8766-0.277936-4.48085-1.111745-5.80851-1.22291-1.99149-4.573306-3.04255-7.852936-3.04255-5.225182 0-9.33863 2.71064-9.33863 6.19575 0 1.27234 1.056163 2.37871 2.39025 2.37871 1.334086 0 2.501413-1.10637 2.501413-2.3234 0-0.22127-0.05563-0.49787-0.111176-0.8851-0.111177-0.49787-0.16676-0.94042-0.16676-1.32766 0-1.49362 1.778783-2.71064 4.002271-2.71064 2.723757 0 4.672684 1.60425 4.672684 4.59149v4.39862c-7.655771 2.24877-9.953459 2.84819-12.343697 4.95032-1.22292 1.10637-2.001135 2.98723-2.001135 4.81276 0 3.48511 2.445832 5.91915 5.836637 5.91915 2.445831 0 5.172972-1.1617 8.563777-4.0383 0.277937 2.93191 1.790584 4.0383 4.069655 4.0383 1.889959 0 3.057287-0.66383 5.002829-2.76596zm-9.128066-3.1532c0 1.65958-0.277936 2.26809-1.445263 2.93191-1.389682 0.77448-3.338597 1.21703-4.505924 1.21703-1.945553 0-3.501982-1.88085-3.501982-4.25958v-0.22127c0.05563-3.31915 2.949483-4.39712 9.453169-6.6652z" style="fill:#ffffff"/>
  </g>
  <path d="m167.12358 145.65318c-2.21593-0.19275-5.00989 0.57806-8.38192 2.31225-3.37204 1.7342-6.79225 4.33548-10.26062 7.80387-3.46839 3.37203-6.6959 7.46666-9.68256 12.28383-2.89031 4.81721-5.00988 10.16429-6.3587 16.04126-1.05978 4.33548-1.44514 8.09287-1.15613 11.27223 0.28905 3.08298 0.96346 5.63611 2.02324 7.65931 1.05976 1.9269 2.3604 3.32389 3.90192 4.19097 1.54149 0.96346 2.98666 1.44517 4.33548 1.44517 2.8903-0.19275 5.78061-0.81891 8.67092-1.87872 2.50495-0.96341 5.15441-2.45675 7.94839-4.47998 2.79396-2.11957 5.34706-5.10621 7.65931-8.95997-0.0962 2.60128 0.0482 4.76903 0.43356 6.5032 0.48173 1.73419 0.96343 3.13111 1.44516 4.19097 0.57806 1.25246 1.30064 2.21587 2.16773 2.89031 0.86711 0.57812 1.87872 0.9635 3.03483 1.15613 1.15614 0.28906 2.36043 0.38546 3.61289 0.28903 1.34882-0.0965 2.64946-0.3372 3.90192-0.72261 1.25249-0.38535 2.36045-0.86708 3.32386-1.44514 1.44519-0.96341 3.22752-2.60128 5.34709-4.91353 2.2159-2.40858 4.43183-5.00986 6.64775-7.80386 2.31225-2.89031 4.52818-5.73247 6.64773-8.52642 2.11954-2.89031 3.85372-5.29891 5.20253-7.22579 1.15619-1.54149 1.83059-2.8903 2.02325-4.04647 0.28893-1.15608 0.24075-2.02322-0.1445-2.60127-0.38538-0.57799-0.96344-0.77069-1.73422-0.57806-0.77074 0.0965-1.54147 0.5781-2.31225 1.44519-0.57809 0.77073-1.54147 1.97505-2.89029 3.61287-1.25249 1.63786-2.69763 3.51656-4.3355 5.63613-1.63784 2.11955-3.42019 4.33548-5.34706 6.64773-1.83054 2.21588-3.61291 4.2873-5.34708 6.21415-1.7342 1.83054-3.37204 3.37206-4.91356 4.6245-1.54147 1.15614-2.79396 1.73419-3.75739 1.73419-1.15614 0-2.0714-0.24075-2.74578-0.72256-0.57808-0.57805-1.01164-1.30064-1.30067-2.16775-0.28903-0.86708-0.48173-1.78237-0.57805-2.74578 0-1.05981 0.0482-2.02322 0.1445-2.89033 0.289-1.44514 0.52988-2.64943 0.72258-3.61289 0.19275-0.96341 0.33723-1.78237 0.43353-2.45675 0.19275-0.77079 0.33723-1.49335 0.43358-2.16775 0.19251-0.77074 0.38533-1.58967 0.57806-2.45676 0.96341-4.43182 1.73419-8.04471 2.31225-10.83869 0.57806-2.79396 1.01159-5.00989 1.30061-6.64773 0.28906-1.63782 0.43358-2.74581 0.43358-3.32386 0-0.67448-0.048-1.10801-0.1445-1.30064-0.19275-0.0965-0.57806-0.1445-1.15611-0.1445-0.48171 0-1.20429 0.048-2.16775 0.1445-0.86709 0.0965-1.97505 0.28903-3.32386 0.57806 2.02324-3.08301 2.79398-5.53977 2.31227-7.37031-0.3854-1.92688-1.25249-3.37204-2.6013-4.33548-1.63785-1.05976-3.75742-1.83054-6.3587-2.31225zm-3.40337 9.03945c0.36732 0.0194 0.68164 0.13748 0.94659 0.35408 0.28903 0.38541 0.48173 0.91529 0.57805 1.58967 0.0962 0.57806 0.0482 1.39697-0.1445 2.45678-0.0962 0.96341-0.52988 2.2159-1.30064 3.75742 0.77076-0.19251 1.54152-0.33714 2.31225-0.43356 0.77076-0.0965 1.397-0.24075 1.87872-0.43355 0.57806-0.19251 1.10794-0.33711 1.58967-0.43356 0.38536-0.0962 0.43353 0.67443 0.14451 2.31225-0.19276 1.54152-0.52991 3.51657-1.01162 5.92517-0.48173 2.40863-1.05978 4.91355-1.73419 7.51481-0.67441 2.60128-1.25247 4.86536-1.7342 6.79225-0.0963 0.48171-0.52988 1.25244-1.30064 2.31225-0.6744 1.05979-1.58966 2.2159-2.7458 3.46837-1.05979 1.25246-2.31225 2.45678-3.75739 3.61289-1.34882 1.15614-2.74581 2.11957-4.19098 2.89031-1.34881 0.67433-2.69763 1.05969-4.04644 1.15613-1.34882 0-2.55311-0.5299-3.61289-1.58966-0.57806-0.57808-0.96341-1.78235-1.15612-3.61289-0.19275-1.92688-0.1445-4.14283 0.14451-6.64773 0.38537-2.50495 1.01161-5.15441 1.87869-7.94837 0.86711-2.8903 2.02323-5.58793 3.46839-8.09286 3.46837-6.0697 6.5032-10.21247 9.10448-12.42839 2.02322-1.73417 3.5876-2.57597 4.68955-2.52181z" style="fill:#ffffff"/>
  <g transform="matrix(2.4245313,0,0,2.4245313,-37.78806,-432.83482)" style="enable-background:new">
   <path d="m37 68c-2.704645-0.03825-2.704645 4.03825 0 4h9.880859c0.01107 1e-3 0.285634 0.0327 0.585938 0.197266 0.306304 0.16789 0.485897 0.188343 0.537109 0.939453v-0.01953l0.246094 5.193358c-0.460676-0.176436-0.769531-0.251953-0.769531-0.251953l-0.236328-0.058594h-9.244141c-4.333333 0-5.896484 4.367188-5.896484 4.367188l-0.103516 0.308593v2.324219c0 3.03333 1.431289 5.127712 2.939453 6.070312s3.060547 0.929688 3.060547 0.929688h7.591797l3.392578-2.203125 0.01953 0.320313c0.08969 2.735348 4.223189 2.492675 3.992188-0.234376l-1-17.009765v-0.0098c-0.140818-2.06533-1.461734-3.545828-2.607422-4.173828-1.145688-0.62799-2.257813-0.685547-2.257813-0.685547l-0.066405-0.003872zm1 14h8.644531c0.106906 0.0312 0.525263 0.141312 1.03711 0.482422 0.558515 0.372213 0.877827 0.68942 0.894531 1.355469l0.138672 1.363281-4.306641 2.798828h-6.408203s-0.447617-0.0129-0.939453-0.320312c-0.491836-0.3074-1.060547-0.713018-1.060547-2.679688v-1.564453c0.102847-0.30497 0.534758-1.435547 2-1.435547z" transform="translate(0,172)" style="fill-rule:evenodd;fill:#ffffff"/>
  </g>
 </g>
</svg>
