<?xml version="1.0" encoding="UTF-8" standalone="no"?>
<svg
   xmlns:dc="http://purl.org/dc/elements/1.1/"
   xmlns:cc="http://creativecommons.org/ns#"
   xmlns:rdf="http://www.w3.org/1999/02/22-rdf-syntax-ns#"
   xmlns:svg="http://www.w3.org/2000/svg"
   xmlns="http://www.w3.org/2000/svg"
   xmlns:sodipodi="http://sodipodi.sourceforge.net/DTD/sodipodi-0.dtd"
   xmlns:inkscape="http://www.inkscape.org/namespaces/inkscape"
   height="16.001"
   width="16"
   version="1.1"
   id="svg6"
   sodipodi:docname="application-x-trash-symbolic.svg"
   inkscape:version="0.92.3 (2405546, 2018-03-11)">
  <metadata
     id="metadata12">
    <rdf:RDF>
      <cc:Work
         rdf:about="">
        <dc:format>image/svg+xml</dc:format>
        <dc:type
           rdf:resource="http://purl.org/dc/dcmitype/StillImage" />
        <dc:title></dc:title>
      </cc:Work>
    </rdf:RDF>
  </metadata>
  <defs
     id="defs10" />
  <sodipodi:namedview
     pagecolor="#ffffff"
     bordercolor="#666666"
     borderopacity="1"
     objecttolerance="10"
     gridtolerance="10"
     guidetolerance="10"
     inkscape:pageopacity="0"
     inkscape:pageshadow="2"
     inkscape:window-width="1840"
     inkscape:window-height="832"
     id="namedview8"
     showgrid="false"
     inkscape:zoom="14.749079"
     inkscape:cx="8"
     inkscape:cy="8.0004997"
     inkscape:window-x="0"
     inkscape:window-y="34"
     inkscape:window-maximized="0"
     inkscape:current-layer="svg6" />
  <path
     style="font-style:normal;font-variant:normal;font-weight:300;font-stretch:normal;font-size:medium;line-height:1000%;font-family:Ubuntu;-inkscape-font-specification:'Ubuntu Light';text-align:center;letter-spacing:0px;word-spacing:0px;text-anchor:middle;display:inline;fill:#808080;fill-opacity:1;stroke:none;stroke-width:0.03693877px;stroke-linecap:butt;stroke-linejoin:miter;stroke-opacity:1;enable-background:new"
     d="m 8.002231,0.00100059 c -0.988474,0 -1.940203,0.184463 -2.854911,0.553296 C 4.419576,0.84062259 3.760376,1.2348597 3.167689,1.7334227 L 2.110212,0.77555559 1.252789,4.7521197 5.124999,3.5063067 4.071706,2.5523437 c 0.42616,-0.365616 0.901817,-0.663755 1.429688,-0.891461 0.767175,-0.324575 1.600883,-0.48689 2.500837,-0.48689 0.899955,0 1.726096,0.162315 2.478516,0.48689 0.767174,0.324569 1.423712,0.789084 1.969586,1.39397 0.545873,0.590136 0.97366,1.305821 1.283481,2.146766 0.30982,0.84094 0.464845,1.770239 0.464845,2.788222 0,1.017983 -0.155025,1.9475628 -0.464845,2.7885063 -0.309821,0.840939 -0.737608,1.563914 -1.283481,2.1688 -0.545874,0.590136 -1.202412,1.05465 -1.969586,1.393977 -0.75242,0.324568 -1.578561,0.486884 -2.478516,0.486884 -0.899954,0 -1.733662,-0.162316 -2.500837,-0.486884 C 4.748974,14.001797 4.100003,13.537283 3.554129,12.947147 3.008255,12.342261 2.580466,11.619286 2.270646,10.778347 1.960827,9.9374035 1.805804,9.0078237 1.805804,7.9898407 c 0,-0.842554 0.108047,-1.62335 0.320311,-2.344586 L 0.675223,6.1120527 C 0.559554,6.7011897 0.5,7.3263017 0.5,7.9898407 c 0,1.268787 0.206605,2.3974063 0.619698,3.3858823 0.413095,0.98847 0.958901,1.829469 1.637555,2.522877 0.693407,0.678652 1.490113,1.202316 2.390067,1.571149 0.914708,0.354083 1.866437,0.53125 2.854911,0.53125 0.988474,0 1.932636,-0.177167 2.832588,-0.53125 0.914709,-0.368833 1.711414,-0.892497 2.390067,-1.571149 0.693407,-0.693408 1.246784,-1.534407 1.659877,-2.522877 0.413093,-0.988476 0.61942,-2.1170953 0.61942,-3.3858823 0,-1.254036 -0.206327,-2.375087 -0.61942,-3.363558 C 14.47167,3.6230557 13.918293,2.7820577 13.224886,2.1034007 12.546233,1.4247487 11.749528,0.90837855 10.834819,0.55429659 9.934867,0.18546359 8.990705,0.00100059 8.002231,0.00100059 Z M 8.560546,2.8581447 c -0.316572,0 -0.571429,0.254859 -0.571429,0.571427 v 4.571429 H 5.131974 c -0.316571,0 -0.571428,0.254859 -0.571428,0.571432 0,0.316568 0.254857,0.571427 0.571428,0.571427 h 3.428572 c 0.316571,0 0.571428,-0.254859 0.571428,-0.571427 v -5.142861 c 0,-0.316568 -0.254857,-0.571427 -0.571428,-0.571427 z"
     id="path1021"
     inkscape:connector-curvature="0"
     sodipodi:nodetypes="scccccccsccsscccsccssccscccsccsscccssscsssssss" />
</svg>
