<?xml version="1.0" encoding="UTF-8" standalone="no"?>
<!-- Created with Inkscape (http://www.inkscape.org/) -->

<svg
   xmlns:dc="http://purl.org/dc/elements/1.1/"
   xmlns:cc="http://creativecommons.org/ns#"
   xmlns:rdf="http://www.w3.org/1999/02/22-rdf-syntax-ns#"
   xmlns:svg="http://www.w3.org/2000/svg"
   xmlns="http://www.w3.org/2000/svg"
   xmlns:xlink="http://www.w3.org/1999/xlink"
   xmlns:sodipodi="http://sodipodi.sourceforge.net/DTD/sodipodi-0.dtd"
   xmlns:inkscape="http://www.inkscape.org/namespaces/inkscape"
   version="1.2"
   width="16"
   height="16"
   id="svg2"
   inkscape:version="0.92.3 (2405546, 2018-03-11)"
   sodipodi:docname="emblem-synchronizing.svg">
  <sodipodi:namedview
     pagecolor="#ffffff"
     bordercolor="#666666"
     borderopacity="1"
     objecttolerance="10"
     gridtolerance="10"
     guidetolerance="10"
     inkscape:pageopacity="0"
     inkscape:pageshadow="2"
     inkscape:window-width="1920"
     inkscape:window-height="1009"
     id="namedview20"
     showgrid="false"
     inkscape:zoom="59.285715"
     inkscape:cx="2.8686023"
     inkscape:cy="7.9999999"
     inkscape:current-layer="svg2"
     inkscape:window-x="0"
     inkscape:window-y="34"
     inkscape:window-maximized="1" />
  <defs
     id="defs4">
    <linearGradient
       x1="2035.1652"
       y1="3208.0737"
       x2="2035.1652"
       y2="3241.9966"
       id="linearGradient11527-6"
       xlink:href="#linearGradient27416-1-5"
       gradientUnits="userSpaceOnUse"
       gradientTransform="matrix(0.57484957,0,0,0.42975531,-1164.0142,-1377.7717)" />
    <linearGradient
       id="linearGradient27416-1-5">
      <stop
         id="stop27420-2-2"
         style="stop-color:#55c1ec;stop-opacity:1"
         offset="0" />
      <stop
         id="stop27422-3-2"
         style="stop-color:#3689e6;stop-opacity:1"
         offset="1" />
    </linearGradient>
    <linearGradient
       id="linearGradient4011-0-8-3">
      <stop
         id="stop4013-2-3-6"
         style="stop-color:#ffffff;stop-opacity:1"
         offset="0" />
      <stop
         id="stop4015-7-1-68"
         style="stop-color:#ffffff;stop-opacity:0.23529412"
         offset="0.507761" />
      <stop
         id="stop4017-13-5-6"
         style="stop-color:#ffffff;stop-opacity:0.15686275"
         offset="0.83456558" />
      <stop
         id="stop4019-92-5-3"
         style="stop-color:#ffffff;stop-opacity:0.39215687"
         offset="1" />
    </linearGradient>
    <linearGradient
       x1="71.204407"
       y1="6.2375584"
       x2="71.204407"
       y2="44.340794"
       id="linearGradient12398"
       xlink:href="#linearGradient4011-0-8-3"
       gradientUnits="userSpaceOnUse"
       gradientTransform="matrix(0.35135153,0,0,0.35135153,-17.203685,-0.9093047)" />
  </defs>
  <metadata
     id="metadata7">
    <rdf:RDF>
      <cc:Work
         rdf:about="">
        <dc:format>image/svg+xml</dc:format>
        <dc:type
           rdf:resource="http://purl.org/dc/dcmitype/StillImage" />
        <dc:title></dc:title>
      </cc:Work>
    </rdf:RDF>
  </metadata>
  <rect
     transform="matrix(0,-1,-1,0,0,0)"
     style="display:inline;fill:#1988ee;fill-opacity:1;stroke:none;stroke-width:0.03348214;enable-background:new"
     id="rect4418"
     width="15"
     height="15"
     x="-15.5"
     y="-15.5"
     rx="7.5"
     ry="7.5" />
  <g
     style="color:#000000;fill:#ffffff;fill-opacity:1"
     transform="matrix(0.66666189,0,0,0.66666189,-659.32889,20.333281)"
     id="g4">
    <path
       inkscape:connector-curvature="0"
       d="m 1001,-26 c -0.529,0 -1.031,0.098 -1.494,0.295 -0.46,0.188 -0.868,0.463 -1.207,0.82 l -0.002,0.004 -0.002,0.002 c -0.33,0.359 -0.586,0.79 -0.766,1.28 a 4.551,4.551 0 0 0 -0.27,1.6 c 0,0.58 0.087,1.122 0.27,1.612 0.18,0.482 0.436,0.908 0.766,1.266 l 0.002,0.002 0.002,0.002 c 0.338,0.356 0.743,0.636 1.201,0.832 l 0.004,0.002 0.004,0.002 c 0.462,0.188 0.964,0.281 1.492,0.281 0.528,0 1.028,-0.093 1.49,-0.281 v -0.002 a 3.47,3.47 0 0 0 1.19,-0.834 c 0.34,-0.358 0.6,-0.786 0.781,-1.27 0.184,-0.49 0.272,-1.031 0.272,-1.613 h 0.01 c 0,-0.573 -0.087,-1.109 -0.27,-1.598 a 3.692,3.692 0 0 0 -0.781,-1.283 3.332,3.332 0 0 0 -1.196,-0.824 A 3.796,3.796 0 0 0 1001,-26 Z m 0,1 c 0.406,0 0.771,0.073 1.102,0.215 l 0.01,0.004 0.01,0.002 c 0.33,0.135 0.607,0.326 0.838,0.576 v 0.01 c 0.24,0.253 0.43,0.564 0.568,0.94 v 0.005 c 0.13,0.351 0.194,0.753 0.2,1.202 V -22 c 0,0.482 -0.073,0.9 -0.208,1.262 v 0.002 a 2.708,2.708 0 0 1 -0.57,0.931 l -0.01,0.004 v 0.004 c -0.233,0.253 -0.514,0.45 -0.848,0.594 A 2.888,2.888 0 0 1 1001,-19 c -0.41,0 -0.776,-0.072 -1.11,-0.207 h -0.003 c -0.325,-0.14 -0.6,-0.337 -0.838,-0.582 l -0.05,-0.07 -0.009,-0.006 A 2.798,2.798 0 0 1 998.467,-20.736 3.595,3.595 0 0 1 998.26,-22 c 0,-0.471 0.07,-0.886 0.207,-1.25 l 0.002,-0.002 v -0.004 c 0.138,-0.376 0.324,-0.684 0.554,-0.936 l 0.012,-0.01 c 0.24,-0.25 0.52,-0.443 0.85,-0.578 l 0.006,-0.004 0.008,-0.002 c 0.331,-0.14 0.695,-0.214 1.101,-0.214 z m 7,14 h -1 c 0,-0.865 -0.069,-1.3 -0.235,-1.833 -0.165,-0.533 -0.41,-0.904 -0.814,-1.21 -0.809,-0.61 -2.11,-0.933 -4.922,-0.933 -2.812,0 -4.165,0.322 -4.975,0.933 -0.405,0.305 -0.65,0.676 -0.816,1.21 -0.166,0.534 -0.235,0.968 -0.237,1.833 l -1,-0.002 c 10e-4,-0.914 0.068,-1.44 0.282,-2.128 0.215,-0.688 0.594,-1.277 1.169,-1.711 1.15,-0.867 2.696,-1.134 5.577,-1.134 2.881,0 4.376,0.267 5.525,1.135 0.574,0.433 0.953,1.024 1.166,1.712 0.214,0.688 0.28,1.213 0.28,2.128 z"
       font-weight="400"
       letter-spacing="0"
       overflow="visible"
       style="font-weight:400;line-height:125%;font-family:Ubuntu;-inkscape-font-specification:'Ubuntu, Normal';font-variant-ligatures:normal;font-variant-position:normal;font-variant-caps:normal;font-variant-numeric:normal;font-variant-alternates:normal;font-feature-settings:normal;text-indent:0;text-align:start;text-decoration:none;text-decoration-line:none;text-decoration-style:solid;text-decoration-color:#000000;letter-spacing:0;word-spacing:0;text-transform:none;text-orientation:mixed;white-space:normal;shape-padding:0;overflow:visible;isolation:auto;mix-blend-mode:normal;fill:#ffffff;fill-opacity:1"
       word-spacing="0"
       id="path2" />
  </g>
</svg>
