<?xml version="1.0" encoding="UTF-8" standalone="no"?>
<svg
   xmlns:dc="http://purl.org/dc/elements/1.1/"
   xmlns:cc="http://creativecommons.org/ns#"
   xmlns:rdf="http://www.w3.org/1999/02/22-rdf-syntax-ns#"
   xmlns:svg="http://www.w3.org/2000/svg"
   xmlns="http://www.w3.org/2000/svg"
   xmlns:sodipodi="http://sodipodi.sourceforge.net/DTD/sodipodi-0.dtd"
   xmlns:inkscape="http://www.inkscape.org/namespaces/inkscape"
   width="16"
   height="16"
   version="1.1"
   id="svg8"
   sodipodi:docname="address-book-new.svg"
   inkscape:version="0.92.3 (2405546, 2018-03-11)">
  <metadata
     id="metadata14">
    <rdf:RDF>
      <cc:Work
         rdf:about="">
        <dc:format>image/svg+xml</dc:format>
        <dc:type
           rdf:resource="http://purl.org/dc/dcmitype/StillImage" />
      </cc:Work>
    </rdf:RDF>
  </metadata>
  <defs
     id="defs12" />
  <sodipodi:namedview
     pagecolor="#ffffff"
     bordercolor="#666666"
     borderopacity="1"
     objecttolerance="10"
     gridtolerance="10"
     guidetolerance="10"
     inkscape:pageopacity="0"
     inkscape:pageshadow="2"
     inkscape:window-width="770"
     inkscape:window-height="480"
     id="namedview10"
     showgrid="false"
     inkscape:zoom="14.75"
     inkscape:cx="8"
     inkscape:cy="8"
     inkscape:window-x="0"
     inkscape:window-y="34"
     inkscape:window-maximized="0"
     inkscape:current-layer="svg8" />
  <g
     fill="#4d4d4d"
     font-weight="400"
     transform="translate(-212 -180)"
     id="g6"
     style="fill:#4d4d4d;fill-opacity:1">
    <path
       d="M220 181c-.529 0-1.032.098-1.494.295-.46.188-.868.463-1.207.82l-.002.004-.002.002c-.33.359-.586.79-.766 1.28a4.551 4.551 0 0 0-.27 1.6c0 .58.087 1.122.27 1.612.18.482.436.908.766 1.266l.002.002.002.002c.338.356.743.636 1.201.832l.004.002.004.002c.462.188.964.281 1.492.281s1.028-.093 1.49-.281v-.002a3.47 3.47 0 0 0 1.19-.834c.34-.358.6-.786.78-1.27.185-.49.272-1.031.272-1.613h.008c0-.573-.087-1.109-.27-1.598a3.692 3.692 0 0 0-.78-1.283 3.332 3.332 0 0 0-1.196-.824A3.78 3.78 0 0 0 220 181zm0 1c.406 0 .77.073 1.102.215l.01.004.01.002c.33.135.607.326.837.576v.01c.24.253.431.564.569.94v.005c.13.351.194.753.199 1.202V185c0 .482-.072.9-.207 1.262v.002a2.708 2.708 0 0 1-.57.931l-.01.004v.004c-.234.253-.514.45-.848.594A2.889 2.889 0 0 1 220 188c-.41 0-.777-.072-1.11-.207h-.003c-.325-.14-.6-.337-.838-.582l-.051-.07-.008-.006a2.798 2.798 0 0 1-.523-.871 3.595 3.595 0 0 1-.208-1.264c0-.471.071-.886.208-1.25l.002-.002v-.004c.137-.376.324-.684.554-.936l.012-.01c.24-.25.52-.443.85-.578l.006-.004.008-.002c.33-.14.695-.214 1.101-.214zM220.03 191.025c-2.882 0-4.43.266-5.579 1.133-.575.434-.954 1.025-1.168 1.713-.214.688-.281 1.212-.283 2.127l1 .002c.002-.865.072-1.3.238-1.834.166-.534.412-.903.817-1.209.81-.61 2.162-.934 4.974-.934.77 0 1.407.031 1.971.079v-1.014a27.464 27.464 0 0 0-1.97-.063z"
       font-family="Ubuntu"
       letter-spacing="0"
       overflow="visible"
       word-spacing="0"
       id="path2"
       style="fill:#4d4d4d;fill-opacity:1" />
    <path
       d="m225 191v2h-2v1h2v2h1v-2h2v-1h-2v-2z"
       font-family="sans-serif"
       overflow="visible"
       id="path4"
       style="fill:#4d4d4d;fill-opacity:1" />
  </g>
</svg>
