<?xml version="1.0" encoding="UTF-8" standalone="no"?>
<svg
   xmlns:dc="http://purl.org/dc/elements/1.1/"
   xmlns:cc="http://creativecommons.org/ns#"
   xmlns:rdf="http://www.w3.org/1999/02/22-rdf-syntax-ns#"
   xmlns:svg="http://www.w3.org/2000/svg"
   xmlns="http://www.w3.org/2000/svg"
   xmlns:sodipodi="http://sodipodi.sourceforge.net/DTD/sodipodi-0.dtd"
   xmlns:inkscape="http://www.inkscape.org/namespaces/inkscape"
   height="16"
   width="16"
   version="1.1"
   id="svg4"
   sodipodi:docname="auto-type.svg"
   inkscape:version="0.92.4 (5da689c313, 2019-01-14)">
  <metadata
     id="metadata10">
    <rdf:RDF>
      <cc:Work
         rdf:about="">
        <dc:format>image/svg+xml</dc:format>
        <dc:type
           rdf:resource="http://purl.org/dc/dcmitype/StillImage" />
        <dc:title></dc:title>
      </cc:Work>
    </rdf:RDF>
  </metadata>
  <defs
     id="defs8" />
  <sodipodi:namedview
     pagecolor="#ffffff"
     bordercolor="#666666"
     borderopacity="1"
     objecttolerance="10"
     gridtolerance="10"
     guidetolerance="10"
     inkscape:pageopacity="0"
     inkscape:pageshadow="2"
     inkscape:window-width="1920"
     inkscape:window-height="1016"
     id="namedview6"
     showgrid="true"
     inkscape:zoom="52.4375"
     inkscape:cx="8.8896499"
     inkscape:cy="8"
     inkscape:window-x="0"
     inkscape:window-y="27"
     inkscape:window-maximized="1"
     inkscape:current-layer="svg4">
    <inkscape:grid
       type="xygrid"
       id="grid822" />
  </sodipodi:namedview>
  <path
     inkscape:connector-curvature="0"
     id="path821"
     d="m 11.000007,13.5 0.556641,-0.707031 c 0.430349,-0.54511 0.87618,-1.101848 1.267578,-1.677735 0.428539,-0.631133 0.813761,-1.2448548 1.154297,-1.8398438 0.323716,-0.565363 0.560451,-1.1442411 0.742187,-1.5468751 L 14.7793,7.5996091 14.72071,7.4707031 C 14.538974,7.0680691 14.302239,6.4891921 13.978523,5.9238281 13.617578,5.2960481 13.231834,4.6825194 12.824226,4.0839844 h 0.0019 C 12.435208,3.5071464 11.987639,2.9513864 11.556645,2.4062494 L 11.000004,1.7011713 v 1.9355472 l 0.0625,0.08398 c 0.254014,0.3327589 0.523118,0.6644629 0.753909,1.0019577 h 0.0019 c 0.297997,0.435318 0.576808,0.8825559 0.839847,1.3398439 l 0.002,0.0019 c 0.281176,0.502034 0.544408,1.012403 0.789066,1.533206 v 0.0019 c -0.205555,0.436675 -0.527527,1.077617 -0.789063,1.533206 v 0.002 c -0.263445,0.457775 -0.545725,0.9058079 -0.8438,1.3417969 h 0.0019 c -0.230863,0.337008 -0.501733,0.66842 -0.755856,1.001957 l -0.0625,0.08398 z"
     style="color:#000000;font-style:normal;font-variant:normal;font-weight:normal;font-stretch:normal;font-size:medium;line-height:normal;font-family:sans-serif;font-variant-ligatures:normal;font-variant-position:normal;font-variant-caps:normal;font-variant-numeric:normal;font-variant-alternates:normal;font-feature-settings:normal;text-indent:0;text-align:start;text-decoration:none;text-decoration-line:none;text-decoration-style:solid;text-decoration-color:#000000;letter-spacing:normal;word-spacing:normal;text-transform:none;writing-mode:lr-tb;direction:ltr;text-orientation:mixed;dominant-baseline:auto;baseline-shift:baseline;text-anchor:start;white-space:normal;shape-padding:0;clip-rule:nonzero;display:inline;overflow:visible;visibility:visible;opacity:1;isolation:auto;mix-blend-mode:normal;color-interpolation:sRGB;color-interpolation-filters:linearRGB;solid-color:#000000;solid-opacity:1;vector-effect:none;fill:#4d4d4d;fill-opacity:1;fill-rule:nonzero;stroke:none;stroke-width:0.625;stroke-linecap:butt;stroke-linejoin:miter;stroke-miterlimit:4;stroke-dasharray:none;stroke-dashoffset:0;stroke-opacity:1;color-rendering:auto;image-rendering:auto;shape-rendering:auto;text-rendering:auto;enable-background:accumulate" />
  <path
     style="color:#232629;fill:#4d4d4d;fill-opacity:1;stroke:none"
     d="m 3,-1.8e-7 v 1 H 5 V 15 H 3 v 1 H 8 V 15 H 6 V 0.99999982 h 2 v -1 z"
     class="ColorScheme-Text"
     id="path4"
     inkscape:connector-curvature="0"
     sodipodi:nodetypes="ccccccccccccc" />
</svg>
