<svg xmlns="http://www.w3.org/2000/svg" width="16" height="16" version="1.1">
 <path style="fill:#4d4d4d" d="M 6,0 5,0.25 V 1 H 6 Z M 6,1 V 2 H 5 V 1 h -0.00586 C 3.7351406,1.014 2.8145,0.97076563 2.0625,1.3847656 1.6865,1.5927656 1.3876562,1.9438125 1.2226562,2.3828125 1.0586563,2.8208125 1,3.343 1,4 V 7 H 2 V 7 C 2,7 2.0621562,5.994375 2.1601562,5.734375 2.2571562,5.474375 2.363875,5.3637187 2.546875,5.2617188 2.913875,5.0597188 3.7418594,5.014 5.0058594,5 H 11 c 1.26,0.014 2.087125,0.060719 2.453125,0.2617188 0.183,0.102 0.289719,0.2126562 0.386719,0.4726562 C 13.937844,5.994375 13.998047,7 13.998047,7 v 5 c 0,0.592 -0.0602,1.005625 -0.158203,1.265625 -0.097,0.26 -0.203719,0.371656 -0.386719,0.472656 C 13.087125,13.940281 12.259,13.985 11,14 H 5 C 3.74,13.985 2.913875,13.940281 2.546875,13.738281 2.363875,13.637281 2.2571562,13.525625 2.1601562,13.265625 2.0621563,13.005625 2,12.592 2,12 V 11 H 1 v 1 c 0,0.657 0.058656,1.178188 0.2226562,1.617188 C 1.3876563,14.056188 1.6865,14.405281 2.0625,14.613281 2.8155,15.028281 3.7361406,14.985 4.9941406,15 h 6.0117184 c 1.258,-0.015 2.178641,0.02828 2.931641,-0.386719 0.389571,-0.220977 0.686892,-0.574435 0.837891,-0.996093 C 14.940391,13.178187 15,12.627 15,12 V 4 C 15,3.342 14.940391,2.8208125 14.775391,2.3828125 14.624014,1.9608756 14.326853,1.6069146 13.9375,1.3847656 13.1845,0.96876563 12.263859,1.015 11.005859,1 H 11 V 2 H 10 V 1 Z m 4,0 h 1 V 0 l -1,0.25 z"/>
 <path d="m 5.3618498,6.035 c -0.267,-0.013 -0.559,0.188 -0.567,0.465 V 8 h -3.5 C 1.0230698,8.01027 0.80511977,8.228224 0.79484977,8.5 v 0.9999998 c -0.003,0.03126 -0.003,0.06274 0,0.094 0.044,0.229 0.26700003,0.4100002 0.50000003,0.406 h 3.5 V 11.5 c 0.011,0.369 0.524,0.606 0.813,0.375 l 3,-2.5000002 c 0.21183,-0.205126 0.21183,-0.5448738 0,-0.7499998 l -3,-2.5 c -0.0702,-0.05558 -0.15648,-0.08713 -0.246,-0.09 z" overflow="visible" style="fill:#4d4d4d"/>
</svg>
