<?xml version="1.0" encoding="UTF-8" standalone="no"?>
<svg
   xmlns:dc="http://purl.org/dc/elements/1.1/"
   xmlns:cc="http://creativecommons.org/ns#"
   xmlns:rdf="http://www.w3.org/1999/02/22-rdf-syntax-ns#"
   xmlns:svg="http://www.w3.org/2000/svg"
   xmlns="http://www.w3.org/2000/svg"
   xmlns:sodipodi="http://sodipodi.sourceforge.net/DTD/sodipodi-0.dtd"
   xmlns:inkscape="http://www.inkscape.org/namespaces/inkscape"
   width="16"
   height="16"
   version="1.1"
   id="svg6"
   sodipodi:docname="database-change-key.svg"
   inkscape:version="0.92.4 (5da689c313, 2019-01-14)">
  <metadata
     id="metadata12">
    <rdf:RDF>
      <cc:Work
         rdf:about="">
        <dc:format>image/svg+xml</dc:format>
        <dc:type
           rdf:resource="http://purl.org/dc/dcmitype/StillImage" />
        <dc:title></dc:title>
      </cc:Work>
    </rdf:RDF>
  </metadata>
  <defs
     id="defs10" />
  <sodipodi:namedview
     pagecolor="#ffffff"
     bordercolor="#666666"
     borderopacity="1"
     objecttolerance="10"
     gridtolerance="10"
     guidetolerance="10"
     inkscape:pageopacity="0"
     inkscape:pageshadow="2"
     inkscape:window-width="1920"
     inkscape:window-height="1016"
     id="namedview8"
     showgrid="true"
     inkscape:zoom="41.7193"
     inkscape:cx="5.6547564"
     inkscape:cy="10.612437"
     inkscape:window-x="0"
     inkscape:window-y="27"
     inkscape:window-maximized="1"
     inkscape:current-layer="svg6">
    <inkscape:grid
       type="xygrid"
       id="grid822" />
  </sodipodi:namedview>
  <g
     label="status"
     transform="translate(-1133.0002,107)"
     id="g4">
    <path
       d="m 1135.4455,-104 c -0.5204,0 -0.9408,0.0477 -1.3047,0.19141 -0.3638,0.14368 -0.6621,0.41047 -0.832,0.73437 -0.3398,0.6478 -0.2973,1.40258 -0.3086,2.43164 v 0.004 3.27734 0.004 c 0.012,1.02902 -0.031,1.78385 0.3086,2.43164 0.1698,0.32389 0.4682,0.59068 0.832,0.73437 0.3639,0.1437 0.7843,0.19141 1.3047,0.19141 h 3.1113 c 0.5204,0 0.9409,-0.0477 1.3047,-0.19141 0.3639,-0.14368 0.6602,-0.41047 0.8301,-0.73437 0.2954,-0.56311 0.2967,-1.24151 0.3008,-2.07617 l 1.9453,-0.004 0.5625,-0.49414 0.5,0.5 0.5,-0.5 0.5,0.5 0.5,-0.5 1,1 2.5,-2.5 -2,-2 -6.0078,0.002 c -0,-0.83464 -0.01,-1.51307 -0.3008,-2.07617 -0.1698,-0.3239 -0.4682,-0.59068 -0.832,-0.73437 -0.3639,-0.14384 -0.7824,-0.19155 -1.3028,-0.19155 z m 0,1 h 3.1113 c 0.4518,0 0.7562,0.0522 0.9356,0.12305 0.1794,0.0709 0.2441,0.13346 0.3144,0.26757 0.1407,0.26824 0.1819,0.94434 0.1934,1.97852 v 0.63281 l 6.5859,-0.002 1,1 -1.0859,1.08594 -1,-1 -0.5,0.5 -0.5,-0.5 -0.5,0.5 -0.4551,-0.45508 -0.9844,0.86328 -2.5605,0.0059 v 0.63086 c -0.011,1.03414 -0.053,1.71031 -0.1934,1.97852 -0.07,0.1341 -0.1349,0.1967 -0.3144,0.26757 -0.1795,0.0709 -0.4838,0.12305 -0.9356,0.12305 h -3.1113 c -0.4518,0 -0.7581,-0.0522 -0.9375,-0.12305 -0.1794,-0.0709 -0.2422,-0.13346 -0.3125,-0.26757 -0.1402,-0.26744 -0.1836,-0.94361 -0.1953,-1.97266 v -0.006 -3.26172 -0.006 c 0.012,-1.02902 0.055,-1.70523 0.1953,-1.97266 0.07,-0.13409 0.1331,-0.1967 0.3125,-0.26757 0.1795,-0.0709 0.4857,-0.12305 0.9375,-0.12305 z m 0.5547,3 a 1,1 0 0 0 -1,1 1,1 0 0 0 1,1 1,1 0 0 0 1,-1 1,1 0 0 0 -1,-1 z"
       style="fill:#4d4d4d"
       id="path2" />
  </g>
  <path
     inkscape:connector-curvature="0"
     style="fill:#4d4d4d;fill-opacity:1;stroke:none;stroke-width:0.71428567"
     d="m 11.983538,0.0114398 a 2.4999935,2.4999935 0 0 0 -2.5000002,2.5 2.4999935,2.4999935 0 0 0 0.4994421,1.4955356 L 10.494978,3.4949777 a 1.7857142,1.7857142 0 0 1 -0.297154,-0.9835379 1.7857142,1.7857142 0 0 1 1.785714,-1.7857143 1.7857142,1.7857142 0 0 1 0.983538,0.297154 l 0.511998,-0.5119977 a 2.4999935,2.4999935 0 0 0 -1.495536,-0.499442 z m 2.000558,1.0044643 -0.511998,0.5119978 A 1.7857142,1.7857142 0 0 1 13.769252,2.5114398 1.7857142,1.7857142 0 0 1 11.983538,4.297154 1.7857142,1.7857142 0 0 1 11,4 l -0.511998,0.5119977 a 2.4999935,2.4999935 0 0 0 1.495536,0.499442 2.4999935,2.4999935 0 0 0 2.5,-2.4999999 2.4999935,2.4999935 0 0 0 -0.499442,-1.4955357 z"
     class="ColorScheme-Highlight"
     id="path10" />
</svg>
