<?xml version="1.0" encoding="UTF-8" standalone="no"?>
<svg
   xmlns:dc="http://purl.org/dc/elements/1.1/"
   xmlns:cc="http://creativecommons.org/ns#"
   xmlns:rdf="http://www.w3.org/1999/02/22-rdf-syntax-ns#"
   xmlns:svg="http://www.w3.org/2000/svg"
   xmlns="http://www.w3.org/2000/svg"
   xmlns:sodipodi="http://sodipodi.sourceforge.net/DTD/sodipodi-0.dtd"
   xmlns:inkscape="http://www.inkscape.org/namespaces/inkscape"
   width="16"
   height="16"
   version="1.1"
   id="svg6"
   sodipodi:docname="edit-undo-symbolic-rtl.svg"
   inkscape:version="0.92.3 (2405546, 2018-03-11)">
  <metadata
     id="metadata12">
    <rdf:RDF>
      <cc:Work
         rdf:about="">
        <dc:format>image/svg+xml</dc:format>
        <dc:type
           rdf:resource="http://purl.org/dc/dcmitype/StillImage" />
      </cc:Work>
    </rdf:RDF>
  </metadata>
  <defs
     id="defs10" />
  <sodipodi:namedview
     pagecolor="#ffffff"
     bordercolor="#666666"
     borderopacity="1"
     objecttolerance="10"
     gridtolerance="10"
     guidetolerance="10"
     inkscape:pageopacity="0"
     inkscape:pageshadow="2"
     inkscape:window-width="770"
     inkscape:window-height="480"
     id="namedview8"
     showgrid="false"
     inkscape:zoom="14.75"
     inkscape:cx="8"
     inkscape:cy="8"
     inkscape:window-x="0"
     inkscape:window-y="34"
     inkscape:window-maximized="0"
     inkscape:current-layer="svg6" />
  <g
     transform="matrix(-1,0,0,1,87.20117,-160)"
     id="g4"
     style="fill:#4d4d4d;fill-opacity:1">
    <path
       d="m79.99997 164.00005c-2.68877 3e-3 -5.1384 1.54515-6.30273 3.96875l-1.19922-0.76758c-0.0945 0.6622-0.16757 1.35201-0.21875 2.06836-0.0472 0.71183-0.0735 1.40955-0.0781 2.0957 0.61561-0.29412 1.23786-0.60962 1.86524-0.94921 0.63022-0.34521 1.22978-0.69663 1.79882-1.05469v-2e-3l-1.31835-0.84571c0.97329-2.1376 3.10437-3.51074 5.45312-3.51367 3.31371 0 6 2.68629 6 6h1c0-3.86599-3.13401-7-7-7z"
       style="fill:#4d4d4d;fill-opacity:1"
       id="path2" />
  </g>
</svg>
