<svg xmlns="http://www.w3.org/2000/svg" width="16" height="16" version="1.1">
 <g style="fill:#4d4d4d" transform="translate(-555.0004,-170)">
  <path style="fill:#4d4d4d" d="M 3 1 C 2.4459408 1 2 1.4459408 2 2 L 2 15 C 2 15.554059 2.4459408 16 3 16 C 3.5540592 16 4 15.554059 4 15 L 4 2 C 4 1.4459408 3.5540592 1 3 1 z M 11.958984 1.375 C 11.191154 1.2991 10.544012 1.5703688 10.013672 1.9179688 C 9.4833419 2.2655687 9.0381463 2.6867575 8.5976562 2.9921875 C 8.1571562 3.2976075 7.7510963 3.4867031 7.2539062 3.4707031 C 6.7567062 3.4547031 6.1145112 3.2244175 5.2382812 2.5234375 L 4.5 1.9316406 L 4.5 10.369141 L 4.671875 10.505859 C 5.865945 11.461119 6.8669625 11.758634 7.7265625 11.621094 C 8.5861725 11.483564 9.2169763 10.960399 9.7851562 10.505859 C 10.353336 10.051309 10.857119 9.6659119 11.417969 9.5761719 C 11.978819 9.4864719 12.683069 9.6429694 13.761719 10.505859 L 14.5 11.095703 L 14.5 2.6582031 L 14.330078 2.5234375 C 13.437528 1.8093875 12.674004 1.44569 11.958984 1.375 z M 11.501953 2.2792969 C 11.619155 2.2666013 11.742064 2.2665369 11.871094 2.2792969 C 12.298984 2.3215969 12.885537 2.6181444 13.591797 3.1464844 L 13.591797 9.3632812 C 12.729427 8.8405813 11.942991 8.5728675 11.275391 8.6796875 C 10.415781 8.8172175 9.7849769 9.3403819 9.2167969 9.7949219 C 8.6486169 10.249472 8.1428812 10.634869 7.5820312 10.724609 C 7.0564513 10.808709 6.3776363 10.625407 5.4101562 9.8984375 L 5.4101562 3.5644531 C 6.0460262 3.9455131 6.6895394 4.3616862 7.2246094 4.3789062 C 7.9774594 4.4031063 8.5983144 4.0967012 9.1152344 3.7382812 C 9.6321644 3.3798613 10.075282 2.9670175 10.513672 2.6796875 C 10.842464 2.4641825 11.150347 2.3173837 11.501953 2.2792969 z" transform="translate(555.0004,170)"/>
 </g>
</svg>
