<?xml version="1.0" encoding="UTF-8" standalone="no"?>
<svg
   xmlns:dc="http://purl.org/dc/elements/1.1/"
   xmlns:cc="http://creativecommons.org/ns#"
   xmlns:rdf="http://www.w3.org/1999/02/22-rdf-syntax-ns#"
   xmlns:svg="http://www.w3.org/2000/svg"
   xmlns="http://www.w3.org/2000/svg"
   xmlns:sodipodi="http://sodipodi.sourceforge.net/DTD/sodipodi-0.dtd"
   xmlns:inkscape="http://www.inkscape.org/namespaces/inkscape"
   height="16"
   style="enable-background:new"
   version="1.1"
   width="16"
   id="svg8"
   sodipodi:docname="help-info-symbolic.svg"
   inkscape:version="0.92.3 (2405546, 2018-03-11)">
  <metadata
     id="metadata14">
    <rdf:RDF>
      <cc:Work
         rdf:about="">
        <dc:format>image/svg+xml</dc:format>
        <dc:type
           rdf:resource="http://purl.org/dc/dcmitype/StillImage" />
      </cc:Work>
    </rdf:RDF>
  </metadata>
  <defs
     id="defs12" />
  <sodipodi:namedview
     pagecolor="#ffffff"
     bordercolor="#4d4d4d"
     borderopacity="1"
     objecttolerance="10"
     gridtolerance="10"
     guidetolerance="10"
     inkscape:pageopacity="0"
     inkscape:pageshadow="2"
     inkscape:window-width="1658"
     inkscape:window-height="862"
     id="namedview10"
     showgrid="false"
     inkscape:zoom="14.75"
     inkscape:cx="0.47457627"
     inkscape:cy="8"
     inkscape:window-x="0"
     inkscape:window-y="34"
     inkscape:window-maximized="0"
     inkscape:current-layer="svg8" />
  <title
     id="title2">
  Paper Symbolic Icon Theme
 </title>
  <g
     transform="translate(-485.0006,39.00672)"
     id="g6"
     style="fill:#4d4d4d;fill-opacity:1">
    <path
       d="m 493.0004,-38.00336 c -3.86603,0 -7,3.13412 -7,7 0,3.86603 3.13397,7 7,7 3.86603,0 7,-3.13397 7,-7 0,-3.86588 -3.13397,-7 -7,-7 z m 0,2.75 c 0.69036,0 1.25,0.55964 1.25,1.25 0,0.69036 -0.55964,1.25 -1.25,1.25 -0.69036,0 -1.25,-0.55964 -1.25,-1.25 0,-0.69036 0.55964,-1.25 1.25,-1.25 z m -1,3.25 1,0 1,0 0,5 -2,0 0,-5 z"
       style="fill:#4d4d4d;fill-opacity:1"
       id="path4" />
  </g>
</svg>
