<svg xmlns="http://www.w3.org/2000/svg" width="16" height="16" version="1.1">
 <g transform="matrix(1.3333333,0,0,1.231111,-1646.6427,386.33774)" style="fill:#4d4d4d">
  <path style="fill:#4d4d4d" d="m 1237.2321,-313.40614 h -0.4687 c -0.7782,0 -1.4063,0.67927 -1.4063,1.52302 v 9.13809 c 0,0.84375 0.6281,1.52301 1.4063,1.52301 h 8.4375 c 0.779,0 1.4062,-0.67926 1.4062,-1.52301 v -9.13809 c 0,-0.84375 -0.6272,-1.52302 -1.4062,-1.52302 h -0.4688 l 0.017,0.82475 c 0.5193,0 1.0693,0.2876 1.0709,0.8501 l 0.019,6.63202 h -3 c 0,1.125 -0.8183,1.84656 -1.8571,1.84656 -1.0387,0 -1.8929,-0.72156 -1.8929,-1.84656 h -3 l 0.04,-6.6667 c 0,-0.56248 0.548,-0.81542 1.0674,-0.81542 h 7.5506 l -0.015,-0.82475 z"/>
 </g>
</svg>
