<?xml version="1.0" encoding="UTF-8" standalone="no"?>
<svg
   xmlns:dc="http://purl.org/dc/elements/1.1/"
   xmlns:cc="http://creativecommons.org/ns#"
   xmlns:rdf="http://www.w3.org/1999/02/22-rdf-syntax-ns#"
   xmlns:svg="http://www.w3.org/2000/svg"
   xmlns="http://www.w3.org/2000/svg"
   xmlns:sodipodi="http://sodipodi.sourceforge.net/DTD/sodipodi-0.dtd"
   xmlns:inkscape="http://www.inkscape.org/namespaces/inkscape"
   width="16"
   height="16"
   version="1.1"
   id="svg6"
   sodipodi:docname="mail-mailbox.svg"
   inkscape:version="0.92.3 (2405546, 2018-03-11)">
  <metadata
     id="metadata12">
    <rdf:RDF>
      <cc:Work
         rdf:about="">
        <dc:format>image/svg+xml</dc:format>
        <dc:type
           rdf:resource="http://purl.org/dc/dcmitype/StillImage" />
      </cc:Work>
    </rdf:RDF>
  </metadata>
  <defs
     id="defs10" />
  <sodipodi:namedview
     pagecolor="#ffffff"
     bordercolor="#666666"
     borderopacity="1"
     objecttolerance="10"
     gridtolerance="10"
     guidetolerance="10"
     inkscape:pageopacity="0"
     inkscape:pageshadow="2"
     inkscape:window-width="770"
     inkscape:window-height="480"
     id="namedview8"
     showgrid="false"
     inkscape:zoom="14.75"
     inkscape:cx="8"
     inkscape:cy="8"
     inkscape:window-x="0"
     inkscape:window-y="34"
     inkscape:window-maximized="0"
     inkscape:current-layer="svg6" />
  <g
     transform="matrix(1.3333333,0,0,1.231111,-1646.6427,386.33774)"
     style="fill:#4d4d4d;fill-opacity:1"
     id="g4">
    <path
       d="m1237.2321-313.40614h-0.4687c-0.7782 0-1.4063 0.67927-1.4063 1.52302v9.13809c0 0.84375 0.6281 1.52301 1.4063 1.52301h8.4375c0.779 0 1.4062-0.67926 1.4062-1.52301v-9.13809c0-0.84375-0.6272-1.52302-1.4062-1.52302h-0.4688l0.017 0.82475c0.5193 0 1.0693 0.2876 1.0709 0.8501l0.019 6.63202h-3c0 1.125-0.8183 1.84656-1.8571 1.84656-1.0387 0-1.8929-0.72156-1.8929-1.84656h-3l0.04-6.6667c0-0.56248 0.548-0.81542 1.0674-0.81542h7.5506l-0.015-0.82475z"
       style="fill:#4d4d4d;fill-opacity:1"
       id="path2" />
  </g>
</svg>
