<svg xmlns="http://www.w3.org/2000/svg" version="1.1" viewBox="0 0 24 24">
 <defs>
  <style id="current-color-scheme" type="text/css">
   .ColorScheme-Text { color:#4d4d4d; }
  </style>
 </defs>
 <path fill="#4d4d4d" class="ColorScheme-Text" d="m 4,3.9999997 v 4 H 5.333333 V 5.3333327 H 8 V 3.9999997 H 5.333333 Z m 12,0 v 1.333333 h 2.666666 v 2.666667 H 20 v -4 z m -6.666667,2.666666 c -1.473333,0 -2.666666,1.193334 -2.666666,2.666667 C 6.666667,10.806667 7.86,12 9.333333,12 10.806667,12 12,10.806667 12,9.3333327 12,7.8599997 10.806667,6.6666657 9.333333,6.6666657 Z m 4,0 V 12 h 4 V 6.6666657 Z M 8,13.333333 v 4 h 2.666667 v -4 z m 7.333333,0 -2,4 h 4 z M 4,16 v 4 H 8 V 18.666667 H 5.333333 V 16 Z m 14.666666,0 v 2.666667 H 16 V 20 h 4 v -4 z"/>
</svg>
