<?xml version="1.0" encoding="UTF-8" standalone="no"?>
<svg
   xmlns:dc="http://purl.org/dc/elements/1.1/"
   xmlns:cc="http://creativecommons.org/ns#"
   xmlns:rdf="http://www.w3.org/1999/02/22-rdf-syntax-ns#"
   xmlns:svg="http://www.w3.org/2000/svg"
   xmlns="http://www.w3.org/2000/svg"
   xmlns:sodipodi="http://sodipodi.sourceforge.net/DTD/sodipodi-0.dtd"
   xmlns:inkscape="http://www.inkscape.org/namespaces/inkscape"
   height="16"
   width="16"
   version="1.1"
   id="svg4"
   sodipodi:docname="password-generator.svg"
   inkscape:version="0.92.4 (5da689c313, 2019-01-14)">
  <metadata
     id="metadata10">
    <rdf:RDF>
      <cc:Work
         rdf:about="">
        <dc:format>image/svg+xml</dc:format>
        <dc:type
           rdf:resource="http://purl.org/dc/dcmitype/StillImage" />
      </cc:Work>
    </rdf:RDF>
  </metadata>
  <defs
     id="defs8" />
  <sodipodi:namedview
     pagecolor="#ffffff"
     bordercolor="#666666"
     borderopacity="1"
     objecttolerance="10"
     gridtolerance="10"
     guidetolerance="10"
     inkscape:pageopacity="0"
     inkscape:pageshadow="2"
     inkscape:window-width="1920"
     inkscape:window-height="1016"
     id="namedview6"
     showgrid="true"
     inkscape:zoom="44.661628"
     inkscape:cx="6.2527709"
     inkscape:cy="8"
     inkscape:window-x="0"
     inkscape:window-y="27"
     inkscape:window-maximized="1"
     inkscape:current-layer="svg4">
    <inkscape:grid
       type="xygrid"
       id="grid823" />
  </sodipodi:namedview>
  <path
     id="path812"
     overflow="visible"
     font-weight="400"
     d="M 5.994,2 C 4.736,2.015 3.815,1.97 3.062,2.385 2.672991,2.6073004 2.376163,2.9612236 2.225,3.383 2.06,3.82 2,4.343 2,5 V 7 H 3 V 5 C 3,4.408 3.063,3.994 3.16,3.734 3.258,3.474 3.361,3.363 3.545,3.262 3.91,3.06 4.74,3.015 6,3 H 8.9999996 V 2 H 5.998 Z m 3.0059996,0 v 1 h 1 C 11.258,3.015 12.087,3.06 12.453,3.262 c 0.183,0.1 0.29,0.212 0.387,0.472 C 12.937,3.994 13,4.408 13,5 v 2 h 1 V 5 C 14,4.342 13.94,3.821 13.775,3.383 13.623586,2.9610631 13.326385,2.6071175 12.937,2.385 12.185,1.969 11.264,2.015 10.006,2 H 10.002 Z M 2,7 v 4 c 0,0.658 0.06,1.179 0.225,1.617 0.164,0.439 0.461,0.79 0.837,0.998 0.753,0.416 1.674,0.37 2.932,0.385 H 8.9999996 V 13 H 6 C 4.741,12.985 3.91,12.94 3.545,12.738 3.361,12.638 3.258,12.526 3.16,12.266 3.063,12.006 3,11.592 3,11 V 7 Z m 11,0 v 4 c 0,0.592 -0.063,1.006 -0.16,1.266 -0.098,0.26 -0.202,0.371 -0.385,0.472 C 12.089,12.94 11.258,12.985 9.9999996,13 h -1 v 1 H 10.006 c 1.258,-0.015 2.179,0.03 2.932,-0.385 0.389009,-0.2223 0.685836,-0.576224 0.837,-0.998 C 13.94,12.179 14,11.657 14,11 V 7 Z"
     inkscape:connector-curvature="0"
     style="color:#000000;font-weight:400;font-family:sans-serif;overflow:visible;fill:#4d4d4d"
     sodipodi:nodetypes="cccsccscccccccccccssccsccccccsccccccccscccscsccccccscc" />
  <circle
     style="opacity:1;fill:#4d4d4d;fill-opacity:1;stroke:none;stroke-width:1.25930524;stroke-linecap:square;stroke-linejoin:round;stroke-miterlimit:4;stroke-dasharray:none;stroke-opacity:1"
     id="path825"
     cx="10.5"
     cy="5.5"
     r="1.5" />
  <circle
     r="1.5"
     cy="10.5"
     cx="5.5"
     id="circle827"
     style="opacity:1;fill:#4d4d4d;fill-opacity:1;stroke:none;stroke-width:1.25930524;stroke-linecap:square;stroke-linejoin:round;stroke-miterlimit:4;stroke-dasharray:none;stroke-opacity:1" />
</svg>
