<?xml version="1.0" encoding="UTF-8" standalone="no"?>
<svg
   xmlns:dc="http://purl.org/dc/elements/1.1/"
   xmlns:cc="http://creativecommons.org/ns#"
   xmlns:rdf="http://www.w3.org/1999/02/22-rdf-syntax-ns#"
   xmlns:svg="http://www.w3.org/2000/svg"
   xmlns="http://www.w3.org/2000/svg"
   xmlns:sodipodi="http://sodipodi.sourceforge.net/DTD/sodipodi-0.dtd"
   xmlns:inkscape="http://www.inkscape.org/namespaces/inkscape"
   width="16.005"
   height="16"
   version="1.1"
   id="svg8"
   sodipodi:docname="tools-check-spelling.svg"
   inkscape:version="0.92.3 (2405546, 2018-03-11)">
  <metadata
     id="metadata14">
    <rdf:RDF>
      <cc:Work
         rdf:about="">
        <dc:format>image/svg+xml</dc:format>
        <dc:type
           rdf:resource="http://purl.org/dc/dcmitype/StillImage" />
      </cc:Work>
    </rdf:RDF>
  </metadata>
  <defs
     id="defs12" />
  <sodipodi:namedview
     pagecolor="#ffffff"
     bordercolor="#666666"
     borderopacity="1"
     objecttolerance="10"
     gridtolerance="10"
     guidetolerance="10"
     inkscape:pageopacity="0"
     inkscape:pageshadow="2"
     inkscape:window-width="770"
     inkscape:window-height="480"
     id="namedview10"
     showgrid="false"
     inkscape:zoom="14.75"
     inkscape:cx="8.0024996"
     inkscape:cy="8"
     inkscape:window-x="0"
     inkscape:window-y="34"
     inkscape:window-maximized="0"
     inkscape:current-layer="svg8" />
  <g
     transform="translate(-592.995 -105)"
     id="g6"
     style="fill:#4d4d4d;fill-opacity:1">
    <path
       fill="#4d4d4d"
       d="M597.299 107l-2.857 8h1.279l.605-1.715h3.182l.607 1.715h1.344l-3.017-8zm.61 1.871l1.206 3.272h-2.394zM603 110v1h2.5c.214 0 .5.307.5.5v.5h-2.5c-.46 0-.868.192-1.125.484A1.509 1.509 0 0 0 602 113.5c.003.36.135.726.39 1.016.257.289.656.484 1.11.484h3.5v-.422c.008-.047 0-.078 0-.078v-3a1.5 1.5 0 0 0-1.5-1.5zm.5 3h2.5v1h-2.5c-.199 0-.283-.055-.36-.14a.572.572 0 0 1-.14-.36.56.56 0 0 1 .125-.36c.073-.082.164-.14.375-.14z"
       id="path2"
       style="fill:#4d4d4d;fill-opacity:1" />
    <path
       fill="#4d4d4d"
       d="M595.5 115.793l-2.354 2.353a.5.5 0 1 0 .708.708l1.646-1.647 2 2 2-2 2 2 2-2 2 2 2.354-2.353a.5.5 0 1 0-.708-.708l-1.646 1.647-2-2-2 2-2-2-2 2z"
       id="path4"
       style="fill:#4d4d4d;fill-opacity:1" />
  </g>
</svg>
