<?xml version="1.0" encoding="UTF-8" standalone="no"?>
<svg
   xmlns:dc="http://purl.org/dc/elements/1.1/"
   xmlns:cc="http://creativecommons.org/ns#"
   xmlns:rdf="http://www.w3.org/1999/02/22-rdf-syntax-ns#"
   xmlns:svg="http://www.w3.org/2000/svg"
   xmlns="http://www.w3.org/2000/svg"
   xmlns:sodipodi="http://sodipodi.sourceforge.net/DTD/sodipodi-0.dtd"
   xmlns:inkscape="http://www.inkscape.org/namespaces/inkscape"
   viewBox="0 0 24 24"
   version="1.1"
   id="svg6"
   sodipodi:docname="tool-node-editor.svg"
   inkscape:version="0.92.3 (2405546, 2018-03-11)">
  <metadata
     id="metadata10">
    <rdf:RDF>
      <cc:Work
         rdf:about="">
        <dc:format>image/svg+xml</dc:format>
        <dc:type
           rdf:resource="http://purl.org/dc/dcmitype/StillImage" />
        <dc:title></dc:title>
      </cc:Work>
    </rdf:RDF>
  </metadata>
  <sodipodi:namedview
     pagecolor="#ffffff"
     bordercolor="#4d4d4d"
     borderopacity="1"
     objecttolerance="10"
     gridtolerance="10"
     guidetolerance="10"
     inkscape:pageopacity="0"
     inkscape:pageshadow="2"
     inkscape:window-width="1290"
     inkscape:window-height="1002"
     id="namedview8"
     showgrid="false"
     inkscape:zoom="6.0510748"
     inkscape:cx="0.45762712"
     inkscape:cy="12"
     inkscape:window-x="0"
     inkscape:window-y="34"
     inkscape:window-maximized="0"
     inkscape:current-layer="svg6" />
  <defs
     id="defs3051">
    <style
       type="text/css"
       id="current-color-scheme">
      .ColorScheme-Text {
        color:#4d4d4d;
      }
      </style>
  </defs>
  <path
     style="fill:currentColor;fill-opacity:1;stroke:none"
     d="M 5.5 4 C 4.669 4 4 4.669 4 5.5 C 4 6.15424 4.418077 6.7021971 5 6.9082031 L 5 17 L 4 17 L 4 20 L 7 20 L 7 17 L 6 17 L 6 6.9082031 C 6.424456 6.7579421 6.7567461 6.422663 6.9082031 6 L 17 6 L 17 7 L 20 7 L 20 4 L 17 4 L 17 5 L 6.9082031 5 C 6.7021971 4.418077 6.15424 4 5.5 4 z M 5.5 5 C 5.777 5 6 5.223 6 5.5 C 6 5.777 5.777 6 5.5 6 C 5.223 6 5 5.777 5 5.5 C 5 5.223 5.223 5 5.5 5 z M 18 5 L 19 5 L 19 6 L 18 6 L 18 5 z M 7 7 L 7 14 L 9 11.5 L 12 11.5 L 7 7 z M 5 18 L 6 18 L 6 19 L 5 19 L 5 18 z "
     class="ColorScheme-Text"
     id="path4" />
</svg>
