<?xml version="1.0" encoding="UTF-8" standalone="no"?>
<svg
   xmlns:osb="http://www.openswatchbook.org/uri/2009/osb"
   xmlns:dc="http://purl.org/dc/elements/1.1/"
   xmlns:cc="http://creativecommons.org/ns#"
   xmlns:rdf="http://www.w3.org/1999/02/22-rdf-syntax-ns#"
   xmlns:svg="http://www.w3.org/2000/svg"
   xmlns="http://www.w3.org/2000/svg"
   xmlns:sodipodi="http://sodipodi.sourceforge.net/DTD/sodipodi-0.dtd"
   xmlns:inkscape="http://www.inkscape.org/namespaces/inkscape"
   width="16"
   height="16"
   version="1.1"
   id="svg15"
   sodipodi:docname="url-copy.svg"
   inkscape:version="0.92.4 (5da689c313, 2019-01-14)">
  <metadata
     id="metadata19">
    <rdf:RDF>
      <cc:Work
         rdf:about="">
        <dc:format>image/svg+xml</dc:format>
        <dc:type
           rdf:resource="http://purl.org/dc/dcmitype/StillImage" />
        <dc:title></dc:title>
      </cc:Work>
    </rdf:RDF>
  </metadata>
  <sodipodi:namedview
     pagecolor="#ffffff"
     bordercolor="#666666"
     borderopacity="1"
     objecttolerance="10"
     gridtolerance="10"
     guidetolerance="10"
     inkscape:pageopacity="0"
     inkscape:pageshadow="2"
     inkscape:window-width="1920"
     inkscape:window-height="1016"
     id="namedview17"
     showgrid="false"
     inkscape:zoom="14.75"
     inkscape:cx="-6.9491525"
     inkscape:cy="8"
     inkscape:window-x="0"
     inkscape:window-y="27"
     inkscape:window-maximized="1"
     inkscape:current-layer="g832" />
  <defs
     id="defs9">
    <linearGradient
       id="linearGradient5606"
       osb:paint="solid">
      <stop
         id="stop5608"
         offset="0"
         style="stop-color:#000000" />
    </linearGradient>
    <linearGradient
       id="linearGradient4526"
       osb:paint="solid">
      <stop
         id="stop4528"
         offset="0"
         style="stop-color:#ffffff" />
    </linearGradient>
    <linearGradient
       id="linearGradient3600-4"
       osb:paint="gradient">
      <stop
         id="stop3602-7"
         offset="0"
         style="stop-color:#f4f4f4" />
      <stop
         id="stop3604-6"
         offset="1"
         style="stop-color:#dbdbdb" />
    </linearGradient>
  </defs>
  <g
     transform="translate(-512.00004,-160)"
     id="g13">
    <path
       style="fill:#4d4d4d"
       d="M 7.6601562 0 L 7.6601562 1 L 10 1 C 11.25862 1.0152 12.089098 1.0598989 12.455078 1.2617188 C 12.638498 1.3628787 12.742304 1.474575 12.839844 1.734375 C 12.937254 1.994165 13 2.40761 13 3 L 13 13 C 13 13.59239 12.9374 14.005725 12.839844 14.265625 C 12.742244 14.525535 12.638488 14.637091 12.455078 14.738281 C 12.089118 14.940201 11.25852 14.98529 10 15 L 5.0058594 15 L 5 15 C 3.74137 14.9848 2.9109019 14.940101 2.5449219 14.738281 C 2.3615019 14.637121 2.2576962 14.525425 2.1601562 14.265625 C 2.0626062 14.005835 2 13.59239 2 13 L 2 9.3554688 L 1 9.3554688 L 1 13 C 1 13.65761 1.059899 14.178577 1.2246094 14.617188 C 1.3892894 15.055798 1.68614 15.405711 2.0625 15.613281 C 2.81522 16.028421 3.7360406 15.98493 4.9941406 16 L 4.9960938 16 L 10.001953 16 L 10.005859 16 C 11.264049 15.9855 12.18475 16.0306 12.9375 15.615234 C 13.31387 15.407574 13.610731 15.055846 13.775391 14.617188 C 13.93993 14.178517 14 13.65761 14 13 L 14 3 C 14 2.34239 13.940101 1.8214225 13.775391 1.3828125 C 13.610711 0.9442025 13.31386 0.59428875 12.9375 0.38671875 C 12.18478 -0.02841125 11.263949 0.01507 10.005859 0 L 10.003906 0 L 7.6601562 0 z "
       transform="translate(512.00004,160)"
       id="path11" />
  </g>
  <g
     id="g832"
     font-weight="400"
     style="color:#000000;font-weight:400;font-family:sans-serif;fill:#4d4d4d"
     transform="matrix(0.625,0,0,0.625,-0.875,-0.0195312)">
    <path
       d="m 9.88,0.83125016 c -4.414,0 -8,3.58599984 -8,7.99999984 0,4.414 3.586,8 8,8 4.414,0 8,-3.586 8,-8 0,-4.414 -3.586,-7.99999984 -8,-7.99999984 z M 9.84,1.83325 l -0.02,0.617 0.915,0.137 0.618,-0.598 a 6.932,6.932 0 0 1 1.732001,0.625 l -0.215001,0.346 0.61,0.54 -0.61,0.51 0.238,0.61 1.356,-0.644 0.848,0.644 0.044,-0.139 c 0.184,0.232 0.35,0.477 0.504,0.73 l -0.854999,0.155 -0.508,-0.543 -1.558002,0.102 -0.949999,1.492 0.645,1.592 2.101001,0.644 0.406999,2.475 0.507,1.287 0.358,-0.203 a 7.002,7.002 0 0 1 -6.127,3.619 c -3.862,0 -7,-3.138 -7,-7 0,-0.812 0.145,-1.589 0.4,-2.314 l 0.034,0.136 1.084,0.305 1.423,1.05 0.034,1.5260007 0.916,1.2539993 0.54,3.39 0.983,0.61 -0.27,-1.254 1.66,-2.305 0.712,-1.558 -1.66,-1.56 -1.797,-0.846 -0.745,0.439 -0.882,-1.322 -0.508,0.238 -0.44,-0.746 0.78,-0.406 0.744,0.44 1.289,-1.593 1.863,-1.152 -0.508,-0.95 -1.525,0.544 -0.19,-0.211 a 6.947,6.947 0 0 1 3.024,-0.713 z"
       font-weight="400"
       overflow="visible"
       style="color:#000000;font-weight:400;line-height:normal;font-family:sans-serif;font-variant-ligatures:normal;font-variant-position:normal;font-variant-caps:normal;font-variant-numeric:normal;font-variant-alternates:normal;font-feature-settings:normal;text-indent:0;text-align:start;text-decoration:none;text-decoration-line:none;text-decoration-style:solid;text-decoration-color:#000000;text-transform:none;white-space:normal;shape-padding:0;overflow:visible;isolation:auto;mix-blend-mode:normal;fill:#4d4d4d;fill-opacity:1;stroke-width:1;marker:none"
       id="path2"
       inkscape:connector-curvature="0" />
  </g>
</svg>
