<svg xmlns="http://www.w3.org/2000/svg" width="16" height="16" version="1.1">
 <g transform="translate(-181.0002,-747)">
  <g transform="matrix(0.75119209,0,0,-0.75119209,47.031901,1321.6907)">
   <path style="fill:#4d4d4d" d="m 183.82177,756.01006 a 1.0001,1.0001 0 0 0 -0.5,1.71875 l 5,5 0.71875,0.6875 0.71875,-0.6875 5,-5 a 1.016466,1.016466 0 1 0 -1.4375,-1.4375 l -4.28125,4.28125 -4.28125,-4.28125 a 1.0001,1.0001 0 0 0 -0.9375,-0.28125 z"/>
   <path d="m 194.23546,752.74251 a 1.0001,1.0001 0 0 0 0.5,-1.71875 l -5,-5 -0.71875,-0.6875 -0.71875,0.6875 -5,5 a 1.016466,1.016466 0 1 0 1.4375,1.4375 l 4.28125,-4.28125 4.28125,4.28125 a 1.0001,1.0001 0 0 0 0.9375,0.28125 z" style="fill:#4d4d4d"/>
  </g>
 </g>
</svg>
