<?xml version="1.0" encoding="UTF-8" standalone="no"?>
<svg
   xmlns:dc="http://purl.org/dc/elements/1.1/"
   xmlns:cc="http://creativecommons.org/ns#"
   xmlns:rdf="http://www.w3.org/1999/02/22-rdf-syntax-ns#"
   xmlns:svg="http://www.w3.org/2000/svg"
   xmlns="http://www.w3.org/2000/svg"
   xmlns:sodipodi="http://sodipodi.sourceforge.net/DTD/sodipodi-0.dtd"
   xmlns:inkscape="http://www.inkscape.org/namespaces/inkscape"
   viewBox="0 0 16 16"
   version="1.1"
   id="svg9"
   sodipodi:docname="visibility.svg"
   inkscape:version="0.92.3 (2405546, 2018-03-11)">
  <metadata
     id="metadata13">
    <rdf:RDF>
      <cc:Work
         rdf:about="">
        <dc:format>image/svg+xml</dc:format>
        <dc:type
           rdf:resource="http://purl.org/dc/dcmitype/StillImage" />
      </cc:Work>
    </rdf:RDF>
  </metadata>
  <sodipodi:namedview
     pagecolor="#ffffff"
     bordercolor="#4d4d4d"
     borderopacity="1"
     objecttolerance="10"
     gridtolerance="10"
     guidetolerance="10"
     inkscape:pageopacity="0"
     inkscape:pageshadow="2"
     inkscape:window-width="969"
     inkscape:window-height="659"
     id="namedview11"
     showgrid="false"
     inkscape:zoom="14.75"
     inkscape:cx="8"
     inkscape:cy="8"
     inkscape:window-x="0"
     inkscape:window-y="34"
     inkscape:window-maximized="0"
     inkscape:current-layer="svg9" />
  <defs
     id="defs3051">
    <style
       type="text/css"
       id="current-color-scheme">
      .ColorScheme-Text {
        color:#4d4d4d;
      }
      </style>
  </defs>
  <g
     transform="translate(-421.71429,-531.79074)"
     id="g7"
     style="fill:#4d4d4d;fill-opacity:1">
    <g
       transform="matrix(0.75,0,0,0.74999813,421.46429,-241.22897)"
       id="g5"
       style="fill:#4d4d4d;fill-opacity:1">
      <path
         style="fill:#4d4d4d;fill-opacity:1;stroke:none"
         d="M 8 3 A 8.9999925 9.0000023 0 0 0 0.12304688 7.6679688 C 0.2519919 8.0317178 0.48048563 8.3445725 0.77929688 8.5761719 A 7.9999935 8.0000021 0 0 1 8 4 A 3.9999996 4.0000004 0 0 0 4 8 A 3.9999996 4.0000004 0 0 0 8 12 A 3.9999996 4.0000004 0 0 0 12 8 A 3.9999996 4.0000004 0 0 0 8.3496094 4.0175781 A 7.9999935 8.0000021 0 0 1 15.220703 8.5761719 C 15.522218 8.3424725 15.752612 8.0260772 15.880859 7.6582031 A 8.9999925 9.0000023 0 0 0 8 3 z M 8 5 A 2.9999996 3.0000002 0 0 1 11 8 A 2.9999996 3.0000002 0 0 1 8 11 A 2.9999996 3.0000002 0 0 1 5 8 A 2.9999996 3.0000002 0 0 1 8 5 z M 8 6 A 1.9999999 2.0000003 0 0 0 6 8 A 1.9999999 2.0000003 0 0 0 8 10 A 1.9999999 2.0000003 0 0 0 10 8 A 1.9999999 2.0000003 0 0 0 9.9101562 7.4121094 A 0.9999999 1 0 0 1 9 8 A 0.9999999 1 0 0 1 8 7 A 0.9999999 1 0 0 1 8.5898438 6.0898438 A 1.9999999 2.0000003 0 0 0 8 6 z "
         transform="matrix(1.3333333,0,0,1.3333367,0.33333333,1030.6955)"
         class="ColorScheme-Text"
         id="rect4170" />
    </g>
  </g>
</svg>
