<?xml version="1.0" encoding="UTF-8" standalone="no"?>
<svg
   xmlns:dc="http://purl.org/dc/elements/1.1/"
   xmlns:cc="http://creativecommons.org/ns#"
   xmlns:rdf="http://www.w3.org/1999/02/22-rdf-syntax-ns#"
   xmlns:svg="http://www.w3.org/2000/svg"
   xmlns="http://www.w3.org/2000/svg"
   xmlns:sodipodi="http://sodipodi.sourceforge.net/DTD/sodipodi-0.dtd"
   xmlns:inkscape="http://www.inkscape.org/namespaces/inkscape"
   width="24"
   height="24"
   version="1.1"
   id="svg4"
   sodipodi:docname="zoom-fit-drawing.svg"
   inkscape:version="0.92.3 (2405546, 2018-03-11)">
  <metadata
     id="metadata10">
    <rdf:RDF>
      <cc:Work
         rdf:about="">
        <dc:format>image/svg+xml</dc:format>
        <dc:type
           rdf:resource="http://purl.org/dc/dcmitype/StillImage" />
        <dc:title />
      </cc:Work>
    </rdf:RDF>
  </metadata>
  <defs
     id="defs8" />
  <sodipodi:namedview
     pagecolor="#ffffff"
     bordercolor="#666666"
     borderopacity="1"
     objecttolerance="10"
     gridtolerance="10"
     guidetolerance="10"
     inkscape:pageopacity="0"
     inkscape:pageshadow="2"
     inkscape:window-width="1920"
     inkscape:window-height="1009"
     id="namedview6"
     showgrid="true"
     inkscape:zoom="34.791667"
     inkscape:cx="6.8694611"
     inkscape:cy="12"
     inkscape:window-x="0"
     inkscape:window-y="34"
     inkscape:window-maximized="1"
     inkscape:current-layer="g824">
    <inkscape:grid
       type="xygrid"
       id="grid1453" />
  </sodipodi:namedview>
  <path
     d="M 8.656667,2 C 6.56,2.025 5.025,1.95 3.77,2.6416666 A 3.1333334,3.1333334 0 0 0 2.375,4.305 C 2.1,5.0333334 2,5.905 2,7 v 3.333334 H 3.6666666 V 7 c 0,-0.9866666 0.105,-1.6766666 0.2666668,-2.11 C 4.0966666,4.4566666 4.2683334,4.2716666 4.575,4.1033334 5.1833334,3.7666666 6.5666666,3.6916666 8.666667,3.6666666 h 1.666667 V 2 H 8.663333 Z m 5.009999,0 v 1.6666666 h 1.666668 c 2.096666,0.025 3.478332,0.1 4.088332,0.4366668 C 19.726666,4.27 19.905,4.4566666 20.066666,4.89 20.228334,5.3233334 20.333334,6.0133334 20.333334,7 v 3.333334 H 22 V 7 C 22,5.9033334 21.9,5.035 21.625,4.305 A 3.1333334,3.1333334 0 0 0 20.228334,2.6416666 C 18.975,1.9483334 17.44,2.025 15.343334,2 h -0.0066 z M 2,13.666666 V 17 c 0,1.096666 0.1,1.965 0.375,2.695 0.2733334,0.731666 0.7683334,1.316666 1.395,1.663334 C 5.025,22.051666 6.56,21.975 8.656667,22 h 1.676667 V 20.333334 H 8.666667 C 6.5683334,20.308334 5.1833334,20.233334 4.575,19.896666 4.2683334,19.73 4.0966666,19.543334 3.9333334,19.11 3.7716666,18.676666 3.6666666,17.986666 3.6666666,17 v -3.333334 z m 18.333334,0 V 17 c 0,0.986666 -0.105,1.676666 -0.266668,2.11 -0.163332,0.433334 -0.336666,0.618334 -0.641666,0.786666 -0.61,0.336668 -1.995,0.411668 -4.091666,0.436668 H 13.666666 V 22 h 1.676668 C 17.44,21.975 18.975,22.05 20.23,21.358334 A 3.1333334,3.1333334 0 0 0 21.625,19.695 C 21.9,18.965 22,18.095 22,17 v -3.333334 z"
     font-weight="400"
     overflow="visible"
     id="path2"
     inkscape:connector-curvature="0"
     style="color:#000000;font-weight:400;font-family:sans-serif;overflow:visible;fill:#4d4d4d;stroke-width:1.66666675" />
  <g
     id="g1500"
     transform="matrix(1.3333333,0,0,1.3333333,1.2279377,1.732934)">
    <g
       id="g824"
       transform="matrix(0.92982617,0,0,0.92982617,0.29697557,0.28474803)">
      <g
         id="g821"
         transform="translate(-0.11880143,-0.10725461)">
        <path
           sodipodi:nodetypes="cccscscccccccscsccccccc"
           inkscape:connector-curvature="0"
           id="path1455"
           d="m 9.0664577,6.9502997 c -0.5241666,0.00625 -0.9069531,-0.01276 -1.2207031,0.1601562 -0.1620873,0.092625 -0.2866248,0.2402754 -0.3496094,0.4160157 -0.06875,0.1820837 -0.09375,0.4000781 -0.09375,0.6738281 V 9.0342841 10.7003 c 0,0.274166 0.025,0.491328 0.09375,0.673828 0.068334,0.182916 0.1929428,0.329348 0.3496094,0.416016 0.31375,0.173332 0.6965365,0.153906 1.2207031,0.160156 h 0.4199218 1.2519525 c 0.524167,-0.0062 0.906953,0.01276 1.220704,-0.160156 0.162087,-0.09262 0.286624,-0.240276 0.349609,-0.416016 0.06875,-0.1825 0.09375,-0.400078 0.09375,-0.673828 V 9.8663149 8.2002997 c 0,-0.2741663 -0.025,-0.4913281 -0.09375,-0.6738281 C 12.245556,7.3506643 12.12128,7.2030049 11.959036,7.1104559 11.645702,6.9371232 11.262499,6.9565497 10.738332,6.9502997 h -0.0019 -0.417969 -1.2499991 z"
           style="color:#000000;font-weight:400;font-family:sans-serif;overflow:visible;fill:#4d4d4d;stroke-width:0.41666669" />
        <path
           style="color:#000000;font-weight:400;font-family:sans-serif;overflow:visible;fill:#4d4d4d;stroke-width:0.41666669"
           d="M 6.2380364,4.2146135 C 5.7138698,4.2208635 5.3310833,4.2018535 5.0173333,4.3747697 4.855246,4.4673947 4.7307085,4.6150451 4.6677239,4.7907854 c -0.06875,0.1820837 -0.09375,0.4000781 -0.09375,0.6738281 v 0.8339844 1.6660159 c 0,0.274166 0.025,0.491328 0.09375,0.673828 0.068334,0.182916 0.1929428,0.329348 0.3496094,0.416016 0.31375,0.173332 0.6965365,0.153906 1.2207031,0.160156 h 0.4199218 1.2519525 c 0.524167,-0.0062 0.906953,0.01276 1.220704,-0.160156 0.162087,-0.09262 0.286624,-0.240276 0.349609,-0.416016 0.06875,-0.1825 0.09375,-0.400078 0.09375,-0.673828 V 7.1306287 5.4646135 c 0,-0.2741663 -0.025,-0.4913281 -0.09375,-0.6738281 C 9.4171347,4.6149781 9.2928587,4.4673187 9.1306147,4.3747697 8.8172807,4.201437 8.4340777,4.2208635 7.9099107,4.2146135 h -0.0019 -0.417969 -1.2499991 z"
           id="path817"
           inkscape:connector-curvature="0"
           sodipodi:nodetypes="cccscscccccccscsccccccc" />
      </g>
    </g>
  </g>
</svg>
