<?xml version="1.0" encoding="UTF-8" standalone="no"?>
<svg
   xmlns:dc="http://purl.org/dc/elements/1.1/"
   xmlns:cc="http://creativecommons.org/ns#"
   xmlns:rdf="http://www.w3.org/1999/02/22-rdf-syntax-ns#"
   xmlns:svg="http://www.w3.org/2000/svg"
   xmlns="http://www.w3.org/2000/svg"
   xmlns:xlink="http://www.w3.org/1999/xlink"
   xmlns:sodipodi="http://sodipodi.sourceforge.net/DTD/sodipodi-0.dtd"
   xmlns:inkscape="http://www.inkscape.org/namespaces/inkscape"
   width="256"
   height="256"
   version="1.1"
   viewBox="0 0 67.73 67.73"
   id="svg47"
   sodipodi:docname="iso-image-burn.svg"
   inkscape:version="0.92.3 (2405546, 2018-03-11)">
  <metadata
     id="metadata51">
    <rdf:RDF>
      <cc:Work
         rdf:about="">
        <dc:format>image/svg+xml</dc:format>
        <dc:type
           rdf:resource="http://purl.org/dc/dcmitype/StillImage" />
        <dc:title />
      </cc:Work>
    </rdf:RDF>
  </metadata>
  <sodipodi:namedview
     pagecolor="#ffffff"
     bordercolor="#666666"
     borderopacity="1"
     objecttolerance="10"
     gridtolerance="10"
     guidetolerance="10"
     inkscape:pageopacity="0"
     inkscape:pageshadow="2"
     inkscape:window-width="1920"
     inkscape:window-height="1009"
     id="namedview49"
     showgrid="false"
     inkscape:zoom="3.2617188"
     inkscape:cx="57.860109"
     inkscape:cy="91.209581"
     inkscape:window-x="0"
     inkscape:window-y="34"
     inkscape:window-maximized="1"
     inkscape:current-layer="g4852" />
  <defs
     id="defs19">
    <linearGradient
       id="linearGradient4338-7">
      <stop
         offset="0"
         style="stop-color:#f2f2f2"
         id="stop2" />
      <stop
         offset="1"
         style="stop-color:#f9f9f9"
         id="stop4" />
    </linearGradient>
    <linearGradient
       id="linearGradient4226-3"
       x1="529.655"
       x2="-35.31"
       y1="401.584"
       y2="119.093"
       gradientTransform="matrix(0,-0.11988932,0.11988589,0,0.36277985,292.54831)"
       gradientUnits="userSpaceOnUse"
       xlink:href="#linearGradient4338-7" />
    <linearGradient
       id="linearGradient4358"
       x1="88"
       x2="488"
       y1="88"
       y2="488"
       gradientUnits="userSpaceOnUse"
       xlink:href="#linearGradient4360" />
    <linearGradient
       id="linearGradient4360">
      <stop
         style="stop-color:#000000;stop-opacity:0.58823532"
         offset="0"
         id="stop9" />
      <stop
         offset=".88"
         style="stop-color:#000000;stop-opacity:0"
         id="stop11" />
      <stop
         style="stop-color:#000000"
         offset="1"
         id="stop13" />
    </linearGradient>
    <filter
       id="filter4346"
       width="1.026"
       height="1.022"
       x="-.01"
       y="-.01"
       style="color-interpolation-filters:sRGB">
      <feGaussianBlur
         stdDeviation="2.12"
         id="feGaussianBlur16" />
    </filter>
    <filter
       id="filter1061"
       width="1.096"
       height="1.096"
       x="-0.050000001"
       y="-0.050000001"
       style="color-interpolation-filters:sRGB">
      <feGaussianBlur
         stdDeviation="1.032"
         id="feGaussianBlur4839" />
    </filter>
    <radialGradient
       id="radialGradient972"
       cx="-16.058001"
       cy="262.27802"
       r="21.167"
       fx="-16.058001"
       fy="262.27802"
       gradientTransform="matrix(1.902357,-0.02368669,0.02441152,1.9605704,57.451028,-253.50522)"
       gradientUnits="userSpaceOnUse"
       xlink:href="#linearGradient3263" />
    <linearGradient
       id="linearGradient3263"
       x1="12.274"
       x2="35.390999"
       y1="32.416"
       y2="14.203"
       gradientUnits="userSpaceOnUse">
      <stop
         offset="0"
         style="stop-color:#dedbde"
         id="stop4830" />
      <stop
         offset=".5"
         style="stop-color:#e6e6e6"
         id="stop4832" />
      <stop
         offset="1"
         style="stop-color:#d2d2d2"
         id="stop4834" />
    </linearGradient>
    <linearGradient
       id="linearGradient1029"
       x1="-53.233002"
       x2="-55.555"
       y1="33.450001"
       y2="135.44901"
       gradientTransform="matrix(0.32265584,0,0,0.32265584,52.88822,220.83281)"
       gradientUnits="userSpaceOnUse"
       xlink:href="#linearGradient1027" />
    <linearGradient
       id="linearGradient1027">
      <stop
         offset="0"
         style="stop-color:#ffffff"
         id="stop4825" />
      <stop
         offset="1"
         style="stop-color:#ffffff;stop-opacity:0"
         id="stop4827" />
    </linearGradient>
  </defs>
  <g
     transform="translate(0,-229.26666)"
     id="g45">
    <path
       style="opacity:0.2;fill:none;stroke:#000000;stroke-width:1.05833328"
       d="m 20.705011,233.28165 c -9.338926,0 -10.343783,0.95922 -10.298013,10.31704 v 19.31629 19.3163 c -0.04577,9.35781 0.959087,10.31704 10.298013,10.31704 h 25.970643 c 9.338924,0 10.298012,-0.95912 10.298012,-10.31704 v -19.3163 -19.31629 c 0,-9.35793 -0.959088,-10.31704 -10.298012,-10.31704 z"
       id="path21" />
    <path
       d="M 189.84323,74 C 119.24979,74 111.65402,81.250835 112,151.98706 V 298 444.01294 C 111.65402,514.74917 119.24979,522 189.84323,522 H 386.15677 C 456.75021,522 462.16345,514.72616 464,444.01294 V 298 151.98706 C 464,81.249993 456.75021,74 386.15677,74 Z"
       transform="matrix(0.13229167,0,0,0.13229167,-4.4096684,223.75665)"
       style="opacity:0.1;filter:url(#filter4346)"
       id="path23" />
    <path
       style="opacity:0.3;fill:url(#linearGradient4358);filter:url(#filter4380)"
       d="M 189.84323,74 C 119.24979,74 111.65402,81.250835 112,151.98706 V 298 444.01294 C 111.65402,514.74917 119.24979,522 189.84323,522 H 386.15677 C 456.75021,522 464,514.75001 464,444.01294 V 298 151.98706 C 464,81.249993 456.75021,74 386.15677,74 Z"
       transform="matrix(0.13229167,0,0,0.13229167,-4.4096684,223.75665)"
       id="path25" />
    <path
       d="m 20.705011,233.28165 c -9.338926,0 -10.343783,0.95922 -10.298013,10.31704 v 19.31629 19.3163 c -0.04577,9.35781 0.959087,10.31704 10.298013,10.31704 h 25.970643 c 9.338924,0 10.298012,-0.95912 10.298012,-10.31704 v -19.3163 -19.31629 c 0,-9.35793 -0.959088,-10.31704 -10.298012,-10.31704 z"
       style="fill:url(#linearGradient4226-3)"
       id="path27" />
    <path
       d="m 20.705079,233.28165 c -9.338926,0 -10.343851,0.95939 -10.298081,10.3172 v 0.52916 c -0.04577,-9.35781 0.959155,-10.3172 10.298081,-10.3172 h 25.970506 c 9.338927,0 10.298081,0.95928 10.298081,10.3172 v -0.52916 c 0,-9.35793 -0.959154,-10.3172 -10.298081,-10.3172 z"
       style="opacity:0.6;fill:#ffffff"
       id="path29" />
    <rect
       style="fill:none"
       width="25.4"
       height="25.4"
       x="250.48"
       y="-46.39"
       transform="rotate(90)"
       id="rect31" />
    <rect
       style="fill:none"
       width="25.4"
       height="25.4"
       x="250.48"
       y="-46.39"
       transform="rotate(90)"
       id="rect33" />
    <g
       style="stroke:#808080;stroke-width:1.12749219;enable-background:new"
       transform="matrix(1.4080207,0,0,1.4079632,-439.40534,51.911569)"
       id="g37">
      <path
         d="m 127.33398,64.21875 c -34.732018,0 -62.953121,28.217346 -62.953121,62.94922 0,34.73187 28.221103,62.96484 62.953121,62.96484 34.73203,0 62.95118,-28.23297 62.95118,-62.96484 0,-34.731874 -28.21915,-62.94922 -62.95118,-62.94922 z m 0,6.005859 c 31.4892,0 56.94532,25.453964 56.94532,56.943361 0,31.48939 -25.45612,56.95898 -56.94532,56.95898 -31.489196,0 -56.960933,-25.46959 -56.960933,-56.95898 0,-31.489397 25.471737,-56.943361 56.960933,-56.943361 z m 0,37.962891 c -10.45032,0 -18.98242,8.53057 -18.98242,18.98047 0,10.44989 8.5321,18.99609 18.98242,18.99609 10.45033,0 18.98047,-8.5462 18.98047,-18.99609 0,-10.4499 -8.53014,-18.98047 -18.98047,-18.98047 z m 0,6.00586 c 7.20765,0 12.98829,5.76726 12.98829,12.97461 0,7.20735 -5.78064,12.99023 -12.98829,12.99023 -7.20764,0 -12.99023,-5.78288 -12.99023,-12.99023 0,-7.20735 5.78259,-12.97461 12.99023,-12.97461 z"
         transform="matrix(0.14178702,0,0,0.14179281,317.94582,131.83168)"
         style="opacity:0.5;fill:#808080"
         id="path35" />
    </g>
    <path
       d="m 33.690332,233.28165 v 59.26667 h 12.985253 c 9.338924,0 10.055122,-0.96217 10.298081,-10.31695 v -19.31639 -19.31639 c 0,-9.35792 -0.959157,-10.31694 -10.298081,-10.31694 z"
       style="opacity:0.1;fill:#ffffff"
       id="path39" />
    <path
       d="m 10.406998,262.91498 v 19.31639 c -0.04577,9.35782 0.959156,10.31695 10.298081,10.31695 h 25.970506 c 9.338924,0 10.055122,-0.96217 10.298081,-10.31695 v -19.31639 z"
       style="opacity:0.2;fill:#ffffff"
       id="path41" />
    <path
       d="m 41.098666,292.54832 15.875,-15.875 v 5.94886 c -0.01384,8.99472 -1.006126,9.92614 -10.100231,9.92614 z"
       style="opacity:0.4;fill:#ffffff"
       id="path43" />
  </g>
  <g
     transform="matrix(0.69894634,0,0,0.69894634,24.731368,-134.47734)"
     id="g4852">
    <path
       inkscape:connector-curvature="0"
       d="m 33.304977,234.63174 c -14.653545,0 -26.457142,11.80359 -26.457142,26.45714 -1e-6,14.65354 11.803599,26.45953 26.457142,26.45953 14.653537,0 26.459525,-11.80599 26.459525,-26.45953 0,-14.65355 -11.80598,-26.45714 -26.459525,-26.45714 z m 0,1.29094 c 13.961678,0 25.168585,11.20452 25.168585,25.1662 0,13.96167 -11.206915,25.1686 -25.168585,25.1686 -13.961676,0 -25.166202,-11.20693 -25.166201,-25.1686 0,-13.96168 11.204521,-25.1662 25.166201,-25.1662 z m 0,15.07924 c -5.939372,0 -10.086963,4.57307 -10.086963,10.08696 0,5.43392 4.334804,10.08935 10.086963,10.08935 5.646421,0 10.089347,-4.54865 10.089347,-10.08935 0,-5.41735 -4.142084,-10.08696 -10.089347,-10.08696 z m 0,1.28856 c 5.280614,0 8.798407,4.02792 8.798407,8.7984 0,4.85512 -3.840991,8.79841 -8.798407,8.79841 -5.059689,0 -8.798405,-4.04664 -8.798405,-8.79841 0,-4.87985 3.509902,-8.7984 8.798405,-8.7984 z"
       style="fill-opacity:1;fill:#000000;opacity:0.2;stroke:#000000;stroke-opacity:1;stroke-width:0.37852736;stroke-miterlimit:4;stroke-dasharray:none"
       id="path4844" />
    <path
       inkscape:connector-curvature="0"
       style="opacity:0.3;fill:#070707;filter:url(#filter1061)"
       d="m 59.118366,261.08978 c 0,-14.30761 -11.504852,-25.81247 -25.812461,-25.81247 -14.307613,0 -25.812466,11.50486 -25.812466,25.81247 -1e-6,14.30761 11.504855,25.81246 25.812466,25.81246 14.307602,0 25.812461,-11.50485 25.812461,-25.81246 z m -16.368879,0 c 0,5.19791 -4.141664,9.44359 -9.443582,9.44359 -5.405924,0 -9.443587,-4.35075 -9.443587,-9.44359 0,-5.19688 3.829648,-9.44359 9.443587,-9.44359 5.613937,0 9.443582,4.34968 9.443582,9.44359 z"
       id="path4846" />
    <path
       inkscape:connector-curvature="0"
       d="m 59.118366,261.08978 c 0,-14.30761 -11.504852,-25.81247 -25.812461,-25.81247 -14.307613,0 -25.812466,11.50486 -25.812466,25.81247 -1e-6,14.30761 11.504855,25.81246 25.812466,25.81246 14.307602,0 25.812461,-11.50485 25.812461,-25.81246 z m -16.368879,0 c 0,5.19791 -4.141664,9.44359 -9.443582,9.44359 -5.405924,0 -9.443587,-4.35075 -9.443587,-9.44359 0,-5.19688 3.829648,-9.44359 9.443587,-9.44359 5.613937,0 9.443582,4.34968 9.443582,9.44359 z"
       style="fill:url(#radialGradient972)"
       id="path4848" />
    <path
       inkscape:connector-curvature="0"
       d="m 33.390856,235.27732 c -13.578317,0 -24.638888,10.37108 -25.725499,23.65911 h 0.463818 c 1.084076,-13.03898 11.930716,-23.19718 25.261681,-23.19718 13.330964,0 24.176977,10.1582 25.261054,23.19718 h 0.461926 C 58.027441,245.6484 46.969171,235.27732 33.390856,235.27732 Z m 0,16.22227 c -4.882002,0 -8.452955,3.19676 -9.3608,7.43684 h 0.466339 c 0.889123,-3.99962 4.248921,-6.97491 8.894461,-6.97491 4.630135,0 7.985911,3.03381 8.8869,6.97491 h 0.467599 c -0.918084,-4.18264 -4.482022,-7.43684 -9.354499,-7.43684 z"
       style="fill:url(#linearGradient1029);opacity:0.5"
       id="path4850" />
  </g>
</svg>
