<svg width="908" height="256" viewBox="0 0 908 256" fill="none" xmlns="http://www.w3.org/2000/svg">
<g clip-path="url(#clip0)">
<g filter="url(#filter0_d)">
<path d="M165.685 11.947C239.74 11.947 250.324 22.5042 250.324 96.4908V155.742C250.324 229.728 239.74 240.285 165.685 240.285H90.3152C16.2595 240.285 5.67584 229.728 5.67584 155.742V96.4908C5.67584 22.5042 16.2595 11.947 90.3152 11.947H165.685Z" fill="url(#paint0_linear)"/>
</g>
<path d="M128.5 120C115.372 120 102.781 125.215 93.4984 134.498C84.2153 143.781 79.0001 156.371 79 169.5C78.9999 176 80.2802 182.437 82.7678 188.442C85.2554 194.448 88.9015 199.905 93.498 204.502C98.0945 209.098 103.551 212.744 109.557 215.232C115.563 217.72 122 219 128.5 219C135 219 141.437 217.72 147.443 215.232C153.449 212.744 158.905 209.098 163.502 204.502C168.098 199.905 171.745 194.448 174.232 188.442C176.72 182.437 178 176 178 169.5C178 156.371 172.785 143.781 163.502 134.498C154.219 125.215 141.628 120 128.5 120ZM146.206 132.686C146.373 132.685 146.541 132.692 146.71 132.696V132.696C147.729 132.752 148.767 133.065 149.692 133.526C152.972 135.423 154.058 139.66 152.162 142.934C150.273 146.222 146.098 147.318 142.818 145.43C139.531 143.533 138.4 139.369 140.29 136.086C141.475 134.032 143.51 132.816 145.707 132.66C145.873 132.65 146.038 132.641 146.206 132.641L146.206 132.686ZM128.709 139.972C131.467 139.972 134.18 140.432 136.719 141.105C137.17 143.868 138.817 146.382 141.42 147.893C144.023 149.403 146.992 149.551 149.605 148.537C154.681 153.53 157.987 160.329 158.472 167.886L148.742 167.978C147.84 157.723 139.19 149.703 128.709 149.703C125.698 149.703 122.886 150.44 120.32 151.61L115.555 143.008C119.532 141.036 123.967 139.913 128.709 139.913L128.709 139.972ZM112.193 145.001L117.219 153.391C112.063 157.011 108.707 163.001 108.707 169.79C108.707 176.569 112.063 182.566 117.219 186.19L112.193 194.645C106.184 190.629 101.76 184.504 99.9009 177.32C102.08 175.542 103.384 172.798 103.384 169.795C103.384 166.765 102.076 164.122 99.9009 162.353C101.76 155.169 106.184 149.009 112.193 144.998V145.001ZM93.8295 162.999C93.9971 162.998 94.1649 163.005 94.3348 163.008V163.009C95.3529 163.064 96.3917 163.377 97.3161 163.838C100.596 165.735 101.682 169.981 99.7863 173.246C97.897 176.534 93.7224 177.64 90.4422 175.742C87.1551 173.845 86.0234 169.682 87.9128 166.398C89.0978 164.344 91.1342 163.129 93.3317 162.972C93.4957 162.963 93.6624 162.96 93.8296 162.96L93.8295 162.999ZM148.742 171.61L158.472 171.795C157.986 179.357 154.679 186.144 149.604 191.142C146.991 190.147 144.03 190.313 141.42 191.787C138.813 193.297 137.169 195.812 136.718 198.566C134.178 199.303 131.467 199.634 128.709 199.634C123.967 199.634 119.532 198.547 115.555 196.567L120.318 188.029C122.885 189.226 125.695 189.908 128.709 189.908C139.19 189.908 147.84 181.867 148.742 171.634L148.742 171.61ZM146.226 193.226C146.388 193.226 146.55 193.234 146.715 193.238C148.913 193.422 150.977 194.61 152.162 196.655C154.058 199.934 152.976 204.115 149.692 206.005C146.408 207.893 142.185 206.833 140.288 203.499C138.399 200.23 139.531 196.066 142.818 194.183C143.741 193.63 144.743 193.354 145.736 193.234C145.902 193.222 146.063 193.222 146.225 193.222L146.226 193.226Z" fill="#FFF9F9"/>
<path d="M61.0055 68C66.4862 68 71.2597 64.6851 71.2597 58.8066C71.2597 53.2818 66.1768 50.674 62.3315 48.9061C59.1934 47.4475 56.4088 46.4309 56.4088 44.2652C56.4088 42.1436 58.1326 40.9502 60.3425 40.9502C62.6851 40.9502 64.3646 42.3646 65.2486 44.1768L69.9779 42.5856C68.8729 38.8287 65.2928 36 60.6519 36C54.8177 36 51.105 39.7127 51.105 44.1768C51.105 49.4364 55.6575 51.6023 59.5912 53.326C62.9945 54.8288 65.9558 56.5083 65.9558 58.9393C65.9558 61.6796 64.0994 63.0496 61.4475 63.0496C58.663 63.0496 56.0994 61.105 54.7735 58.2763L50 60.0441C51.6354 64.8618 55.9668 68 61.0055 68Z" fill="#FFF9F9"/>
<path d="M86.3418 68C89.0822 68 91.4247 66.8508 92.6623 65.3038V67.4696H97.7452V44.884H92.6623V57.6133C92.6623 61.8563 90.3197 63.1381 87.6678 63.1381C85.1043 63.1381 83.0269 61.7237 83.0269 57.5248V44.884H77.9441V58.6298C77.9441 65.6133 81.7452 68 86.3418 68Z" fill="#FFF9F9"/>
<path d="M120.916 44.3537C117.601 44.3537 114.463 45.8565 113.181 48.5084V44.8841H103.678V49.3481H108.452V63.0056H103.678V67.4697H119.855V63.0056H113.534V55.6244C113.534 51.2045 116.275 49.083 120.827 49.083H121.269V53.9006H126.22V45.547C124.894 44.8398 123.214 44.3537 120.916 44.3537Z" fill="#FFF9F9"/>
<path d="M140.727 68C143.467 68 145.81 66.8508 147.048 65.3038V67.4696H152.13V44.884H147.048V57.6133C147.048 61.8563 144.705 63.1381 142.053 63.1381C139.49 63.1381 137.412 61.7237 137.412 57.5248V44.884H132.329V58.6298C132.329 65.6133 136.13 68 140.727 68Z" fill="#FFF9F9"/>
<path d="M171.729 54.7846H179.552V49.8342H171.729V41.9226H166.602V49.8342H158.779V54.7846H166.602V62.6961H171.729V54.7846Z" fill="#FFF9F9"/>
<path d="M198.922 54.7846H206.745V49.8342H198.922V41.9226H193.795V49.8342H185.972V54.7846H193.795V62.6961H198.922V54.7846Z" fill="#FFF9F9"/>
<path opacity="0.25" d="M128 240H164.305C173.677 240 182.045 239.836 189.514 239.403C193.249 239.187 196.758 238.904 200.056 238.541C203.354 238.178 206.44 237.735 209.327 237.2C212.214 236.664 214.902 236.034 217.405 235.3C219.908 234.566 222.225 233.727 224.37 232.769C226.514 231.81 228.486 230.733 230.298 229.525C232.111 228.317 233.763 226.978 235.27 225.494C236.776 224.01 238.136 222.382 239.363 220.597C240.59 218.812 241.683 216.871 242.656 214.758C243.628 212.646 244.481 210.363 245.226 207.897C245.972 205.432 246.61 202.783 247.154 199.938C247.698 197.094 248.148 194.054 248.517 190.805C248.886 187.556 249.173 184.1 249.393 180.42C249.832 173.062 250 164.817 250 155.582V96.4179C250 87.1833 249.832 78.9383 249.393 71.5797C249.173 67.9005 248.886 64.4436 248.517 61.1947C248.148 57.9458 247.698 54.9061 247.154 52.0617C246.61 49.2174 245.972 46.5684 245.226 44.1029C244.481 41.6374 243.628 39.3544 242.656 37.2419C241.683 35.1295 240.59 33.1882 239.363 31.4029C238.136 29.6177 236.776 27.9896 235.27 26.5059C233.763 25.0221 232.111 23.6828 230.298 22.4748C228.486 21.2667 226.514 20.1896 224.37 19.2315C222.225 18.2734 219.908 17.4341 217.405 16.7001C214.902 15.9661 212.214 15.3362 209.327 14.8005C206.44 14.2649 203.354 13.8219 200.056 13.4588C196.758 13.0956 193.249 12.8131 189.514 12.5968C182.045 12.1643 173.677 12 164.305 12H128V240Z" fill="white"/>
<path opacity="0.6" fill-rule="evenodd" clip-rule="evenodd" d="M10.7906 54.0876C8.68493 65.1653 8.02282 79.3864 8.02282 97.678V156.322C8.02282 174.613 8.68493 188.835 10.7906 199.912C12.8923 210.969 16.3971 218.697 21.9342 224.185C27.4733 229.675 35.2758 233.151 46.437 235.235C57.6167 237.322 71.9655 237.977 90.4151 237.977H165.585C184.034 237.977 198.383 237.322 209.563 235.235C220.724 233.151 228.527 229.675 234.066 224.185C239.603 218.697 243.108 210.969 245.209 199.912C247.315 188.835 247.977 174.613 247.977 156.322V97.678C247.977 79.3864 247.315 65.1653 245.209 54.0876C243.108 43.0308 239.603 35.3028 234.066 29.8149C228.527 24.325 220.724 20.849 209.563 18.7653C198.383 16.6782 184.034 16.0228 165.585 16.0228H90.4151C71.9655 16.0228 57.6167 16.6782 46.437 18.7653C35.2758 20.849 27.4733 24.325 21.9342 29.8149C16.3971 35.3028 12.8923 43.0308 10.7906 54.0876ZM45.6946 14.7884C57.2671 12.6279 71.935 11.9772 90.4151 11.9772H165.585C184.065 11.9772 198.733 12.6279 210.305 14.7884C221.896 16.9523 230.581 20.6655 236.914 26.9414C243.248 33.2194 246.998 41.834 249.184 53.3321C251.365 64.8093 252.023 79.3551 252.023 97.678V156.322C252.023 174.645 251.365 189.191 249.184 200.668C246.998 212.166 243.248 220.78 236.914 227.058C230.581 233.334 221.896 237.048 210.305 239.212C198.733 241.372 184.065 242.023 165.585 242.023H90.4151C71.935 242.023 57.2671 241.372 45.6946 239.212C34.1036 237.048 25.4185 233.334 19.0863 227.058C12.7521 220.78 9.00175 212.166 6.81616 200.668C4.63455 189.191 3.9772 174.645 3.9772 156.322V97.678C3.9772 79.3551 4.63455 64.8093 6.81616 53.3321C9.00175 41.834 12.7521 33.2194 19.0863 26.9414C25.4186 20.6655 34.1036 16.9523 45.6946 14.7884Z" fill="url(#paint1_linear)"/>
<path d="M83.7313 104C81.7538 104 80.1375 103.371 78.8825 102.112C77.6275 100.834 77 98.8025 77 96.0177V83.6294H80.3657V96.0177C80.3657 97.7534 80.6604 98.9837 81.2499 99.7084C81.8393 100.414 82.6665 100.767 83.7313 100.767C85.9751 100.767 87.097 99.1839 87.097 96.0177V83.6294H90.4912V96.0177C90.4912 98.7643 89.8637 100.786 88.6087 102.083C87.3537 103.361 85.7279 104 83.7313 104Z" fill="#FFF9F9"/>
<path d="M102.02 104C100.423 104 99.1871 103.514 98.3124 102.541V103.657H95.0323V84.5163L98.3124 83V90.1812C98.7117 89.7425 99.2536 89.3896 99.9382 89.1226C100.642 88.8365 101.355 88.6935 102.077 88.6935C103.903 88.6935 105.386 89.3801 106.527 90.7534C107.668 92.1267 108.238 93.9864 108.238 96.3324C108.238 98.7738 107.687 100.662 106.584 101.997C105.481 103.332 103.96 104 102.02 104ZM101.507 100.853C102.629 100.853 103.475 100.462 104.045 99.6798C104.635 98.8787 104.93 97.7629 104.93 96.3324C104.93 94.8638 104.635 93.748 104.045 92.985C103.475 92.203 102.629 91.812 101.507 91.812C100.784 91.812 100.138 91.9646 99.5674 92.2698C99.0159 92.5559 98.5976 92.8896 98.3124 93.2711V99.4223C99.0159 100.376 100.081 100.853 101.507 100.853Z" fill="#FFF9F9"/>
<path d="M117.913 104C116.297 104 114.985 103.523 113.977 102.569C112.989 101.597 112.494 100.052 112.494 97.9346V89.0368H115.774V97.2193C115.774 99.6417 116.773 100.853 118.769 100.853C120.918 100.853 121.992 99.6608 121.992 97.2766V89.0368H125.272V103.657H121.992V102.255C121.06 103.418 119.701 104 117.913 104Z" fill="#FFF9F9"/>
<path d="M137.486 88.6935C139.083 88.6935 140.376 89.1798 141.365 90.1526C142.373 91.1063 142.877 92.6322 142.877 94.7302V103.657H139.597V95.4169C139.597 94.158 139.321 93.2425 138.769 92.6703C138.218 92.0981 137.486 91.812 136.573 91.812C134.424 91.812 133.35 92.9945 133.35 95.3597V103.657H130.07V89.0368H133.093V90.8392C133.379 90.267 133.93 89.7711 134.748 89.3515C135.584 88.9128 136.497 88.6935 137.486 88.6935Z" fill="#FFF9F9"/>
<path d="M155.376 104C152.523 104 151.097 102.674 151.097 100.023V91.9264H148.045V89.0368H151.097V84.5736L154.377 83V89.0368H159.34V91.9264H154.377V99.3937C154.377 100.519 155.062 101.082 156.431 101.082C157.23 101.082 158.066 100.853 158.941 100.395L158.542 103.342C157.705 103.781 156.65 104 155.376 104Z" fill="#FFF9F9"/>
<path d="M170.641 104C169.025 104 167.713 103.523 166.705 102.569C165.716 101.597 165.222 100.052 165.222 97.9346V89.0368H168.502V97.2193C168.502 99.6417 169.5 100.853 171.497 100.853C173.646 100.853 174.72 99.6608 174.72 97.2766V89.0368H178V103.657H174.72V102.255C173.788 103.418 172.429 104 170.641 104Z" fill="#FFF9F9"/>
<path d="M278.48 83.48C284.16 83.48 288.6 80.4 288.6 74.96C288.6 68.92 283.36 67.16 279.2 65.76C276.44 64.84 274.12 64.08 274.12 62.32C274.12 60.6 275.48 59.64 277.84 59.64C280.44 59.64 281.88 60.92 282.64 62.6L287.48 61C286.44 57.32 283.16 54.52 278.16 54.52C272.12 54.52 268.68 58.04 268.68 62.24C268.68 67.8 273.4 69.36 277.48 70.72C280.52 71.72 283.16 72.6 283.16 74.96C283.16 77.2 281.36 78.36 278.64 78.36C275.92 78.36 273.72 76.56 272.52 73.96L267.6 75.8C269.2 80.56 273.2 83.48 278.48 83.48ZM306.049 83H311.249V62.56H306.049V73.84C306.049 77.12 304.649 78.48 302.169 78.48C299.729 78.48 298.609 77.04 298.609 73.76V62.56H293.409V75.44C293.409 81.52 297.089 83.48 300.569 83.48C302.929 83.48 304.809 82.64 306.049 81.08V83ZM317.242 83H322.442V71.6C322.442 68.08 324.162 67.2 325.962 67.2C327.562 67.2 328.722 67.72 329.682 68.4L330.402 63.64C329.242 62.68 327.962 62.08 326.242 62.08C324.202 62.08 323.042 63.08 322.442 64.36V62.56H317.242V83ZM346.44 83H351.64V62.56H346.44V73.84C346.44 77.12 345.04 78.48 342.56 78.48C340.12 78.48 339 77.04 339 73.76V62.56H333.8V75.44C333.8 81.52 337.48 83.48 340.96 83.48C343.32 83.48 345.2 82.64 346.44 81.08V83ZM369.833 71.8H376.633V66.76H369.833V59.88H364.633V66.76H357.833V71.8H364.633V78.68H369.833V71.8ZM395.028 71.8H401.828V66.76H395.028V59.88H389.828V66.76H383.028V71.8H389.828V78.68H395.028V71.8ZM429.303 83.48C435.143 83.48 440.583 80.6 440.583 72.28V55H435.183V72.28C435.183 76.92 432.903 78.28 429.303 78.28C425.623 78.28 423.423 76.92 423.423 72.28V55H418.023V72.28C418.023 80.72 423.623 83.48 429.303 83.48ZM455.938 83.48C461.258 83.48 464.618 79.68 464.618 72.76C464.618 66.16 461.018 62.08 456.138 62.08C454.098 62.08 452.698 62.88 451.778 64.04V54.12L446.578 56.48V83H451.778V81.52C452.698 82.8 453.978 83.48 455.938 83.48ZM455.338 78.48C453.618 78.48 452.538 77.92 451.778 76.84V68.76C452.338 67.96 453.538 67.08 455.338 67.08C457.938 67.08 459.418 69.08 459.418 72.76C459.418 76.28 458.018 78.48 455.338 78.48ZM482.065 83H487.265V62.56H482.065V73.84C482.065 77.12 480.665 78.48 478.185 78.48C475.745 78.48 474.625 77.04 474.625 73.76V62.56H469.425V75.44C469.425 81.52 473.105 83.48 476.585 83.48C478.945 83.48 480.825 82.64 482.065 81.08V83ZM505.898 83H511.098V70.12C511.098 64 507.458 62.08 503.938 62.08C501.538 62.08 499.738 62.92 498.458 64.48V62.56H493.258V83H498.458V71.72C498.458 68.48 499.818 67.08 502.338 67.08C504.738 67.08 505.898 68.48 505.898 71.8V83ZM522.971 83.48C524.691 83.48 526.171 83.16 527.411 82.56L528.011 78.04C526.851 78.64 525.731 78.92 524.651 78.92C523.731 78.92 523.211 78.32 523.211 77.32V67.12H527.771V62.56H523.211V54.12L518.011 56.6V62.56H515.091V67.12H518.011V78.08C518.011 81.48 519.451 83.48 522.971 83.48ZM545.034 83H550.234V62.56H545.034V73.84C545.034 77.12 543.634 78.48 541.154 78.48C538.714 78.48 537.594 77.04 537.594 73.76V62.56H532.394V75.44C532.394 81.52 536.074 83.48 539.554 83.48C541.914 83.48 543.794 82.64 545.034 81.08V83Z" fill="#F3561D"/>
<path d="M282.38 135H285.62L278.06 114H274.85L267.26 135H270.5L272.21 130.17H280.7L282.38 135ZM279.74 127.41H273.17L275.75 120.27C275.99 119.58 276.29 118.62 276.47 117.9C276.62 118.62 276.95 119.61 277.19 120.27L279.74 127.41ZM299.585 135.36C300.815 135.36 301.835 135.09 302.675 134.67L303.065 131.76C302.285 132.24 301.535 132.48 300.785 132.48C299.585 132.48 299.285 131.76 299.285 130.74V122.37H302.915V119.67H299.285V113.34L296.165 114.84V119.67H293.795V122.37H296.165V131.55C296.165 133.86 297.155 135.36 299.585 135.36ZM306.512 135H309.632V125.79C309.632 123.15 311.072 122.25 312.932 122.25C314.672 122.25 315.992 123.27 315.992 125.85V135H319.112V125.85C319.112 121.05 316.802 119.31 313.592 119.31C311.912 119.31 310.622 119.88 309.632 121.14V113.34L306.512 114.78V135ZM325.065 117.27C326.115 117.27 326.955 116.43 326.955 115.38C326.955 114.33 326.115 113.49 325.065 113.49C324.015 113.49 323.175 114.33 323.175 115.38C323.175 116.43 324.015 117.27 325.065 117.27ZM323.505 135H326.625V119.67H323.505V135ZM331.15 135H334.27V126.39C334.27 123.24 336.01 122.37 337.39 122.37C338.5 122.37 339.25 122.73 339.82 123.12L340.27 120.24C339.58 119.64 338.71 119.31 337.69 119.31C336.16 119.31 334.99 119.97 334.27 121.53V119.67H331.15V135ZM348.684 135.36C350.394 135.36 351.504 134.82 352.314 133.92V135H355.434V113.34L352.314 114.78V120.75C351.534 119.94 350.364 119.31 348.684 119.31C344.934 119.31 342.324 122.28 342.324 127.32C342.324 132.36 344.814 135.36 348.684 135.36ZM349.134 132.42C346.824 132.42 345.444 130.29 345.444 127.32C345.444 124.05 346.794 122.25 349.134 122.25C350.724 122.25 351.834 123.15 352.314 123.93V130.68C351.624 131.79 350.514 132.42 349.134 132.42ZM359.92 127.59H367.27V124.59H359.92V127.59ZM378.566 135.36C382.316 135.36 384.866 132.39 384.866 127.35C384.866 122.31 382.436 119.31 378.566 119.31C376.796 119.31 375.686 120 374.876 120.9V119.67H371.756V141.03L374.876 139.59V133.68C375.626 134.61 376.766 135.36 378.566 135.36ZM378.116 132.42C376.646 132.42 375.566 131.58 374.876 130.65V123.99C375.566 122.88 376.676 122.25 378.116 122.25C380.426 122.25 381.746 124.38 381.746 127.35C381.746 130.62 380.456 132.42 378.116 132.42ZM397.362 135H400.362V125.07C400.362 119.97 397.122 119.31 394.512 119.31C391.992 119.31 390.042 120.03 388.782 120.9L389.712 123.45C390.852 122.61 392.172 122.07 394.092 122.07C396.342 122.07 397.362 122.91 397.362 125.22V126.06C396.342 125.46 394.992 125.16 393.582 125.16C390.582 125.16 387.702 126.69 387.702 130.23C387.702 133.62 390.042 135.36 393.162 135.36C395.202 135.36 396.582 134.49 397.362 133.68V135ZM393.732 132.6C391.752 132.6 390.702 131.67 390.702 130.23C390.702 128.55 392.232 127.86 394.092 127.86C395.292 127.86 396.522 128.16 397.362 128.61V130.95C396.552 131.85 395.322 132.6 393.732 132.6ZM404.568 135H407.688V126.39C407.688 123.24 409.428 122.37 410.808 122.37C411.918 122.37 412.668 122.73 413.238 123.12L413.688 120.24C412.998 119.64 412.128 119.31 411.108 119.31C409.578 119.31 408.408 119.97 407.688 121.53V119.67H404.568V135ZM421.372 135.36C422.602 135.36 423.622 135.09 424.462 134.67L424.852 131.76C424.072 132.24 423.322 132.48 422.572 132.48C421.372 132.48 421.072 131.76 421.072 130.74V122.37H424.702V119.67H421.072V113.34L417.952 114.84V119.67H415.582V122.37H417.952V131.55C417.952 133.86 418.942 135.36 421.372 135.36ZM430.159 140.82H433.339L441.439 119.67H438.319L434.509 129.69C434.299 130.26 434.209 130.56 434.089 131.04C433.969 130.56 433.879 130.26 433.669 129.69L429.889 119.67H426.799L432.529 134.73L430.159 140.82ZM458.548 135.36C462.598 135.36 465.718 133.11 465.718 129.09C465.718 124.74 462.118 123.45 459.088 122.34C456.808 121.56 454.858 120.87 454.858 119.16C454.858 117.57 456.058 116.64 458.068 116.64C460.108 116.64 461.398 117.57 461.908 118.77L464.788 117.81C464.068 115.41 461.878 113.64 458.308 113.64C454.048 113.64 451.618 116.16 451.618 119.13C451.618 122.97 454.828 124.11 457.738 125.16C460.198 126.03 462.478 126.84 462.478 129.12C462.478 131.25 460.948 132.36 458.668 132.36C456.418 132.36 454.708 131.07 453.838 129.18L450.898 130.26C451.948 133.38 454.798 135.36 458.548 135.36ZM479.084 135H482.204V119.67H479.084V128.88C479.084 131.52 477.644 132.42 475.784 132.42C474.044 132.42 472.724 131.4 472.724 128.82V119.67H469.604V128.82C469.604 133.62 471.914 135.36 475.124 135.36C476.804 135.36 478.094 134.79 479.084 133.53V135ZM486.717 135H489.837V126.39C489.837 123.24 491.577 122.37 492.957 122.37C494.067 122.37 494.817 122.73 495.387 123.12L495.837 120.24C495.147 119.64 494.277 119.31 493.257 119.31C491.727 119.31 490.557 119.97 489.837 121.53V119.67H486.717V135ZM507.678 135H510.798V119.67H507.678V128.88C507.678 131.52 506.238 132.42 504.378 132.42C502.638 132.42 501.318 131.4 501.318 128.82V119.67H498.198V128.82C498.198 133.62 500.508 135.36 503.718 135.36C505.398 135.36 506.688 134.79 507.678 133.53V135ZM524.108 117.27C525.158 117.27 525.998 116.43 525.998 115.38C525.998 114.33 525.158 113.49 524.108 113.49C523.058 113.49 522.218 114.33 522.218 115.38C522.218 116.43 523.058 117.27 524.108 117.27ZM522.548 135H525.668V119.67H522.548V135ZM536.133 135.36C539.163 135.36 541.173 133.89 541.983 131.04L539.013 130.11C538.593 131.55 537.543 132.36 536.133 132.36C533.913 132.36 532.623 130.47 532.623 127.35C532.623 124.23 533.913 122.31 536.253 122.31C537.573 122.31 538.503 123.12 538.953 124.29L541.923 123.27C541.023 120.54 538.953 119.31 536.133 119.31C532.023 119.31 529.443 122.31 529.443 127.35C529.443 132.39 532.023 135.36 536.133 135.36ZM551.961 135.36C556.251 135.36 558.981 132.39 558.981 127.35C558.981 122.31 556.251 119.31 551.961 119.31C547.671 119.31 544.971 122.31 544.971 127.35C544.971 132.39 547.671 135.36 551.961 135.36ZM551.961 132.42C549.591 132.42 548.091 130.5 548.091 127.35C548.091 124.2 549.591 122.25 551.961 122.25C554.361 122.25 555.861 124.2 555.861 127.35C555.861 130.5 554.361 132.42 551.961 132.42ZM572.222 135H575.342V125.85C575.342 121.05 573.032 119.31 569.822 119.31C568.142 119.31 566.852 119.88 565.862 121.14V119.67H562.742V135H565.862V125.79C565.862 123.15 567.302 122.25 569.162 122.25C570.902 122.25 572.222 123.27 572.222 125.85V135ZM584.445 135.36C587.925 135.36 590.205 133.83 590.205 130.89C590.205 128.13 588.465 126.81 585.165 125.7C583.545 125.07 582.195 124.56 582.195 123.54C582.195 122.64 583.035 122.13 584.355 122.13C585.975 122.13 586.935 122.85 587.475 123.42L589.725 121.62C588.735 120.42 586.995 119.31 584.355 119.31C581.385 119.31 579.015 120.81 579.015 123.54C579.015 126 580.665 127.38 583.905 128.46C585.615 129.12 587.085 129.66 587.085 130.89C587.085 132.12 585.945 132.54 584.385 132.54C582.675 132.54 581.505 131.58 580.875 130.98L578.655 132.87C579.735 134.4 582.045 135.36 584.445 135.36ZM605.35 122.37H608.8V119.67H605.35V117.78C605.35 117 605.59 116.4 606.61 116.4C607.24 116.4 607.87 116.55 608.8 116.94V114.36C607.9 113.91 606.94 113.64 605.74 113.64C604 113.64 602.23 114.39 602.23 117.21V119.67H599.95V122.37H602.23V135H605.35V122.37ZM617.439 135.36C621.729 135.36 624.459 132.39 624.459 127.35C624.459 122.31 621.729 119.31 617.439 119.31C613.149 119.31 610.449 122.31 610.449 127.35C610.449 132.39 613.149 135.36 617.439 135.36ZM617.439 132.42C615.069 132.42 613.569 130.5 613.569 127.35C613.569 124.2 615.069 122.25 617.439 122.25C619.839 122.25 621.339 124.2 621.339 127.35C621.339 130.5 619.839 132.42 617.439 132.42ZM628.221 135H631.341V126.39C631.341 123.24 633.081 122.37 634.461 122.37C635.571 122.37 636.321 122.73 636.891 123.12L637.341 120.24C636.651 119.64 635.781 119.31 634.761 119.31C633.231 119.31 632.061 119.97 631.341 121.53V119.67H628.221V135ZM655.542 135.36C660.042 135.36 663.462 133.23 663.462 127.05V114H660.342V127.05C660.342 131.25 658.242 132.36 655.542 132.36C652.842 132.36 650.772 131.25 650.772 127.05V114H647.652V127.05C647.652 133.29 651.192 135.36 655.542 135.36ZM675.02 135.36C678.95 135.36 681.38 132.51 681.38 127.32C681.38 122.28 678.77 119.31 675.02 119.31C673.34 119.31 672.17 119.97 671.39 120.84V113.34L668.27 114.78V135H671.39V133.77C672.2 134.67 673.25 135.36 675.02 135.36ZM674.63 132.42C673.25 132.42 672.08 131.79 671.39 130.68V123.99C671.87 123.21 673.04 122.25 674.63 122.25C676.97 122.25 678.26 124.05 678.26 127.32C678.26 130.44 677 132.42 674.63 132.42ZM694.445 135H697.565V119.67H694.445V128.88C694.445 131.52 693.005 132.42 691.145 132.42C689.405 132.42 688.085 131.4 688.085 128.82V119.67H684.965V128.82C684.965 133.62 687.275 135.36 690.485 135.36C692.165 135.36 693.455 134.79 694.445 133.53V135ZM711.558 135H714.678V125.85C714.678 121.05 712.368 119.31 709.158 119.31C707.478 119.31 706.188 119.88 705.198 121.14V119.67H702.078V135H705.198V125.79C705.198 123.15 706.638 122.25 708.498 122.25C710.238 122.25 711.558 123.27 711.558 125.85V135ZM723.481 135.36C724.711 135.36 725.731 135.09 726.571 134.67L726.961 131.76C726.181 132.24 725.431 132.48 724.681 132.48C723.481 132.48 723.181 131.76 723.181 130.74V122.37H726.811V119.67H723.181V113.34L720.061 114.84V119.67H717.691V122.37H720.061V131.55C720.061 133.86 721.051 135.36 723.481 135.36ZM738.244 135H741.364V119.67H738.244V128.88C738.244 131.52 736.804 132.42 734.944 132.42C733.204 132.42 731.884 131.4 731.884 128.82V119.67H728.764V128.82C728.764 133.62 731.074 135.36 734.284 135.36C735.964 135.36 737.254 134.79 738.244 133.53V135Z" fill="#5E2750"/>
<path d="M276.62 171H278.04L273.14 157H272.06L267.2 171H268.66L269.88 167.38H275.34L276.62 171ZM274.92 166.14H270.3L272.22 160.54C272.34 160.2 272.52 159.54 272.6 159.28C272.66 159.54 272.88 160.2 273 160.54L274.92 166.14ZM287.342 171H288.742V165.34C288.742 161.96 287.582 160.54 285.082 160.54C284.002 160.54 283.082 160.98 282.442 161.9V160.78H281.042V171H282.442V164.72C282.442 162.5 283.522 161.8 284.962 161.8C286.322 161.8 287.342 162.6 287.342 164.76V171ZM300.583 171.24C301.763 171.24 302.903 170.74 303.703 170.08L302.943 169.14C302.163 169.72 301.383 169.94 300.643 169.94C298.903 169.94 297.863 168.54 297.623 166.46H304.583C304.623 166.02 304.623 165.7 304.623 165.48C304.623 162.04 302.763 160.54 300.583 160.54C297.963 160.54 296.143 162.48 296.143 165.88C296.143 168.76 297.823 171.24 300.583 171.24ZM297.583 165.2C297.703 162.88 298.943 161.8 300.583 161.8C301.663 161.8 303.183 162.44 303.203 165.2H297.583ZM307.529 171H308.929V156.56L307.529 157.24V171ZM316.364 171.24C317.544 171.24 318.684 170.74 319.484 170.08L318.724 169.14C317.944 169.72 317.164 169.94 316.424 169.94C314.684 169.94 313.644 168.54 313.404 166.46H320.364C320.404 166.02 320.404 165.7 320.404 165.48C320.404 162.04 318.544 160.54 316.364 160.54C313.744 160.54 311.924 162.48 311.924 165.88C311.924 168.76 313.604 171.24 316.364 171.24ZM313.364 165.2C313.484 162.88 314.724 161.8 316.364 161.8C317.444 161.8 318.964 162.44 318.984 165.2H313.364ZM326.09 175.26C328.59 175.16 330.89 174.2 330.89 170.84V160.78H329.49V161.74C329.15 161.34 328.33 160.54 326.77 160.54C324.27 160.54 322.51 162.52 322.51 165.88C322.51 169.44 324.49 171.24 326.69 171.24C328.09 171.24 328.91 170.7 329.49 169.84V171.4C329.49 172.8 328.77 173.98 325.45 174.16L326.09 175.26ZM327.01 169.98C325.27 169.98 323.97 168.5 323.97 165.88C323.97 163.26 324.99 161.8 327.01 161.8C327.75 161.8 328.91 162.34 329.49 163.36V168.28C328.93 169.34 327.85 169.98 327.01 169.98ZM340.379 171H341.679V164.08C341.679 161.18 339.739 160.54 338.279 160.54C336.879 160.54 335.519 161.14 334.699 161.66L335.099 162.86C335.859 162.34 337.119 161.76 338.139 161.76C339.279 161.76 340.379 162.2 340.379 164.26V165.12C339.379 164.58 338.479 164.4 337.619 164.4C335.679 164.4 333.899 165.42 333.899 167.78C333.899 170.08 335.319 171.24 337.379 171.24C338.479 171.24 339.559 170.74 340.379 170V171ZM337.519 170.02C336.039 170.02 335.199 169.12 335.199 167.78C335.199 166.3 336.379 165.62 337.759 165.62C338.639 165.62 339.719 166.02 340.379 166.46V168.44C339.759 169.2 338.759 170.02 337.519 170.02ZM351.17 171H352.57V165.34C352.57 161.96 351.41 160.54 348.91 160.54C347.83 160.54 346.91 160.98 346.27 161.9V160.78H344.87V171H346.27V164.72C346.27 162.5 347.35 161.8 348.79 161.8C350.15 161.8 351.17 162.6 351.17 164.76V171ZM358.622 171.24C359.402 171.24 359.962 171.06 360.482 170.78L360.642 169.32C360.262 169.58 359.782 169.92 359.102 169.92C358.122 169.92 358.002 169.18 358.002 168.3V162.04H360.602V160.78H358.002V156.56L356.602 157.26V160.78H354.862V162.04H356.602V168.9C356.602 170.24 357.162 171.24 358.622 171.24ZM363.105 173.72L363.485 173.82C364.525 173.18 365.305 172.02 365.305 170.5C365.305 169.32 364.565 168.82 363.865 168.82C363.205 168.82 362.645 169.32 362.645 170.14C362.645 170.86 363.265 171.38 364.105 171.38C364.105 172.56 363.465 173.4 363.105 173.72ZM384.526 171H385.926V164.2C385.926 161.96 384.406 160.54 382.426 160.54C381.106 160.54 380.066 161.24 379.506 162.1C378.926 161.12 377.826 160.54 376.746 160.54C375.626 160.54 374.646 160.98 373.966 161.78V160.78H372.566V171H373.966V164.58C373.966 163 374.746 161.8 376.326 161.8C378.246 161.8 378.546 163.46 378.546 164.74V171H379.946V164.74C379.946 163.16 380.766 161.8 382.306 161.8C384.226 161.8 384.526 163.46 384.526 164.74V171ZM393.101 171.24C395.721 171.24 397.481 169.24 397.481 165.88C397.481 162.48 395.721 160.54 393.101 160.54C390.481 160.54 388.721 162.54 388.721 165.9C388.721 169.3 390.481 171.24 393.101 171.24ZM393.101 169.98C391.201 169.98 390.181 168.44 390.181 165.9C390.181 163.24 391.201 161.8 393.101 161.8C395.001 161.8 396.021 163.34 396.021 165.88C396.021 168.44 394.961 169.98 393.101 169.98ZM403.898 171.24C405.178 171.24 405.998 170.74 406.618 170.12V171H408.018V156.56L406.618 157.26V161.5C405.998 161 405.158 160.54 403.898 160.54C401.298 160.54 399.678 162.52 399.678 165.88C399.678 169.14 401.278 171.24 403.898 171.24ZM404.058 169.98C402.258 169.98 401.138 168.16 401.138 165.88C401.138 163.26 402.178 161.8 404.058 161.8C405.358 161.8 406.198 162.6 406.618 163.28V168.38C406.058 169.4 405.078 169.98 404.058 169.98ZM415.349 171.24C416.529 171.24 417.669 170.74 418.469 170.08L417.709 169.14C416.929 169.72 416.149 169.94 415.409 169.94C413.669 169.94 412.629 168.54 412.389 166.46H419.349C419.389 166.02 419.389 165.7 419.389 165.48C419.389 162.04 417.529 160.54 415.349 160.54C412.729 160.54 410.909 162.48 410.909 165.88C410.909 168.76 412.589 171.24 415.349 171.24ZM412.349 165.2C412.469 162.88 413.709 161.8 415.349 161.8C416.429 161.8 417.949 162.44 417.969 165.2H412.349ZM422.195 171H423.595V165.22C423.595 162.7 425.055 161.94 426.075 161.94C426.735 161.94 427.135 162.16 427.395 162.32L427.615 160.96C427.335 160.76 426.815 160.54 426.175 160.54C424.915 160.54 424.055 161.24 423.595 162.22V160.78H422.195V171ZM436.112 171H437.512V165.34C437.512 161.96 436.352 160.54 433.852 160.54C432.772 160.54 431.852 160.98 431.212 161.9V160.78H429.812V171H431.212V164.72C431.212 162.5 432.292 161.8 433.732 161.8C435.092 161.8 436.112 162.6 436.112 164.76V171ZM451.493 171H452.793V164.08C452.793 161.18 450.853 160.54 449.393 160.54C447.993 160.54 446.633 161.14 445.813 161.66L446.213 162.86C446.973 162.34 448.233 161.76 449.253 161.76C450.393 161.76 451.493 162.2 451.493 164.26V165.12C450.493 164.58 449.593 164.4 448.733 164.4C446.793 164.4 445.013 165.42 445.013 167.78C445.013 170.08 446.433 171.24 448.493 171.24C449.593 171.24 450.673 170.74 451.493 170V171ZM448.633 170.02C447.153 170.02 446.312 169.12 446.312 167.78C446.312 166.3 447.493 165.62 448.873 165.62C449.753 165.62 450.833 166.02 451.493 166.46V168.44C450.873 169.2 449.873 170.02 448.633 170.02ZM462.284 171H463.684V165.34C463.684 161.96 462.524 160.54 460.024 160.54C458.944 160.54 458.024 160.98 457.384 161.9V160.78H455.984V171H457.384V164.72C457.384 162.5 458.464 161.8 459.904 161.8C461.264 161.8 462.284 162.6 462.284 164.76V171ZM470.695 171.24C471.975 171.24 472.795 170.74 473.415 170.12V171H474.815V156.56L473.415 157.26V161.5C472.795 161 471.955 160.54 470.695 160.54C468.095 160.54 466.475 162.52 466.475 165.88C466.475 169.14 468.075 171.24 470.695 171.24ZM470.855 169.98C469.055 169.98 467.935 168.16 467.935 165.88C467.935 163.26 468.975 161.8 470.855 161.8C472.155 161.8 472.995 162.6 473.415 163.28V168.38C472.855 169.4 471.875 169.98 470.855 169.98ZM485.895 171.24C488.015 171.24 489.335 170.14 489.335 168.44C489.335 166.38 487.595 165.68 486.075 165.08C484.875 164.6 483.735 164.16 483.735 163.12C483.735 162.3 484.495 161.78 485.675 161.78C486.795 161.78 487.595 162.36 488.115 162.88L489.035 162.1C488.215 161.12 487.095 160.54 485.715 160.54C483.795 160.54 482.415 161.58 482.415 163.14C482.415 164.86 483.855 165.58 485.475 166.24C486.715 166.74 488.015 167.28 488.015 168.52C488.015 169.48 487.135 170 486.015 170C484.955 170 483.975 169.34 483.355 168.6L482.375 169.46C483.235 170.48 484.515 171.24 485.895 171.24ZM493.793 171H495.073L497.073 164.8C497.173 164.48 497.333 163.98 497.493 163.44C497.653 163.98 497.833 164.5 497.933 164.82L499.973 171H501.233L503.753 160.78H502.353L500.733 168.14C500.653 168.54 500.553 168.94 500.473 169.36C500.353 168.94 500.253 168.54 500.133 168.14L497.993 160.78H497.033L494.893 168.14C494.793 168.52 494.693 168.86 494.593 169.26L494.353 168.14L492.673 160.78H491.273L493.793 171ZM509.899 171.24C511.079 171.24 512.219 170.74 513.019 170.08L512.259 169.14C511.479 169.72 510.699 169.94 509.959 169.94C508.219 169.94 507.179 168.54 506.939 166.46H513.899C513.939 166.02 513.939 165.7 513.939 165.48C513.939 162.04 512.079 160.54 509.899 160.54C507.279 160.54 505.459 162.48 505.459 165.88C505.459 168.76 507.139 171.24 509.899 171.24ZM506.899 165.2C507.019 162.88 508.259 161.8 509.899 161.8C510.979 161.8 512.499 162.44 512.519 165.2H506.899ZM520.485 171.24C521.665 171.24 522.805 170.74 523.605 170.08L522.845 169.14C522.065 169.72 521.285 169.94 520.545 169.94C518.805 169.94 517.765 168.54 517.525 166.46H524.485C524.525 166.02 524.525 165.7 524.525 165.48C524.525 162.04 522.665 160.54 520.485 160.54C517.865 160.54 516.045 162.48 516.045 165.88C516.045 168.76 517.725 171.24 520.485 171.24ZM517.485 165.2C517.605 162.88 518.845 161.8 520.485 161.8C521.565 161.8 523.085 162.44 523.105 165.2H517.485ZM529.696 171.24C530.476 171.24 531.036 171.06 531.556 170.78L531.716 169.32C531.336 169.58 530.856 169.92 530.176 169.92C529.196 169.92 529.076 169.18 529.076 168.3V162.04H531.676V160.78H529.076V156.56L527.676 157.26V160.78H525.936V162.04H527.676V168.9C527.676 170.24 528.236 171.24 529.696 171.24ZM543.288 171.24C545.868 171.24 547.708 169.84 547.708 167.36C547.708 164.74 545.568 163.54 543.668 162.8C542.008 162.16 540.448 161.48 540.448 160C540.448 158.8 541.428 158.02 543.068 158.02C544.468 158.02 545.388 158.68 545.728 159.42L547.028 158.98C546.648 157.7 545.188 156.76 543.128 156.76C540.528 156.76 539.008 158.24 539.008 160.02C539.008 162.34 541.148 163.4 543.108 164.14C544.748 164.76 546.268 165.68 546.268 167.4C546.268 169.08 545.128 169.98 543.308 169.98C541.708 169.98 540.508 169.14 539.948 167.92L538.628 168.4C539.188 169.92 540.928 171.24 543.288 171.24ZM557.203 171H558.603V160.78H557.203V167.06C557.203 169.28 556.103 169.98 554.663 169.98C553.303 169.98 552.303 169.16 552.303 167.02V160.78H550.903V166.48C550.903 169.84 552.023 171.24 554.663 171.24C555.723 171.24 556.483 170.96 557.203 170.02V171ZM562.195 171H563.595V165.22C563.595 162.7 565.055 161.94 566.075 161.94C566.735 161.94 567.135 162.16 567.395 162.32L567.615 160.96C567.335 160.76 566.815 160.54 566.175 160.54C564.915 160.54 564.055 161.24 563.595 162.22V160.78H562.195V171ZM575.816 171H577.216V160.78H575.816V167.06C575.816 169.28 574.716 169.98 573.276 169.98C571.916 169.98 570.916 169.16 570.916 167.02V160.78H569.516V166.48C569.516 169.84 570.636 171.24 573.276 171.24C574.336 171.24 575.096 170.96 575.816 170.02V171ZM586.137 158.68C586.677 158.68 587.057 158.28 587.057 157.76C587.057 157.22 586.677 156.8 586.137 156.8C585.617 156.8 585.217 157.22 585.217 157.76C585.217 158.28 585.617 158.68 586.137 158.68ZM585.437 171H586.837V160.78H585.437V171ZM593.796 171.24C595.536 171.24 596.896 170.34 597.376 168.9L596.116 168.42C595.776 169.38 594.956 169.98 593.856 169.98C592.056 169.98 591.216 168.48 591.216 165.9C591.216 163.38 591.996 161.8 593.896 161.8C595.016 161.8 595.636 162.4 595.956 163.18L597.236 162.68C596.676 161.3 595.476 160.54 593.956 160.54C591.336 160.54 589.756 162.54 589.756 165.9C589.756 169.3 591.336 171.24 593.796 171.24ZM603.765 171.24C606.385 171.24 608.145 169.24 608.145 165.88C608.145 162.48 606.385 160.54 603.765 160.54C601.145 160.54 599.385 162.54 599.385 165.9C599.385 169.3 601.145 171.24 603.765 171.24ZM603.765 169.98C601.865 169.98 600.845 168.44 600.845 165.9C600.845 163.24 601.865 161.8 603.765 161.8C605.665 161.8 606.685 163.34 606.685 165.88C606.685 168.44 605.625 169.98 603.765 169.98ZM617.342 171H618.742V165.34C618.742 161.96 617.582 160.54 615.082 160.54C614.002 160.54 613.082 160.98 612.442 161.9V160.78H611.042V171H612.442V164.72C612.442 162.5 613.522 161.8 614.962 161.8C616.322 161.8 617.342 162.6 617.342 164.76V171ZM625.114 171.24C627.234 171.24 628.554 170.14 628.554 168.44C628.554 166.38 626.814 165.68 625.294 165.08C624.094 164.6 622.954 164.16 622.954 163.12C622.954 162.3 623.714 161.78 624.894 161.78C626.014 161.78 626.814 162.36 627.334 162.88L628.254 162.1C627.434 161.12 626.314 160.54 624.934 160.54C623.014 160.54 621.634 161.58 621.634 163.14C621.634 164.86 623.074 165.58 624.694 166.24C625.934 166.74 627.234 167.28 627.234 168.52C627.234 169.48 626.354 170 625.234 170C624.174 170 623.194 169.34 622.574 168.6L621.594 169.46C622.454 170.48 623.734 171.24 625.114 171.24ZM640.341 171.24C642.901 171.24 644.441 169.34 644.441 165.88C644.441 162.52 642.781 160.54 640.221 160.54C639.221 160.54 638.161 161.06 637.501 161.78V156.56L636.101 157.26V171H637.501V170.08C638.161 170.64 638.901 171.24 640.341 171.24ZM640.121 169.98C639.101 169.98 638.061 169.34 637.501 168.38V163.36C637.881 162.7 638.861 161.8 640.121 161.8C642.021 161.8 642.981 163.26 642.981 165.88C642.981 168.4 642.041 169.98 640.121 169.98ZM653.211 171H654.511V164.08C654.511 161.18 652.571 160.54 651.111 160.54C649.711 160.54 648.351 161.14 647.531 161.66L647.931 162.86C648.691 162.34 649.951 161.76 650.971 161.76C652.111 161.76 653.211 162.2 653.211 164.26V165.12C652.211 164.58 651.311 164.4 650.451 164.4C648.511 164.4 646.731 165.42 646.731 167.78C646.731 170.08 648.151 171.24 650.211 171.24C651.311 171.24 652.391 170.74 653.211 170V171ZM650.351 170.02C648.871 170.02 648.031 169.12 648.031 167.78C648.031 166.3 649.211 165.62 650.591 165.62C651.471 165.62 652.551 166.02 653.211 166.46V168.44C652.591 169.2 651.591 170.02 650.351 170.02ZM660.582 171.24C662.702 171.24 664.022 170.14 664.022 168.44C664.022 166.38 662.282 165.68 660.762 165.08C659.562 164.6 658.422 164.16 658.422 163.12C658.422 162.3 659.182 161.78 660.362 161.78C661.482 161.78 662.282 162.36 662.802 162.88L663.722 162.1C662.902 161.12 661.782 160.54 660.402 160.54C658.482 160.54 657.102 161.58 657.102 163.14C657.102 164.86 658.542 165.58 660.162 166.24C661.402 166.74 662.702 167.28 662.702 168.52C662.702 169.48 661.822 170 660.702 170C659.642 170 658.662 169.34 658.042 168.6L657.062 169.46C657.922 170.48 659.202 171.24 660.582 171.24ZM670.7 171.24C671.88 171.24 673.02 170.74 673.82 170.08L673.06 169.14C672.28 169.72 671.5 169.94 670.76 169.94C669.02 169.94 667.98 168.54 667.74 166.46H674.7C674.74 166.02 674.74 165.7 674.74 165.48C674.74 162.04 672.88 160.54 670.7 160.54C668.08 160.54 666.26 162.48 666.26 165.88C666.26 168.76 667.94 171.24 670.7 171.24ZM667.7 165.2C667.82 162.88 669.06 161.8 670.7 161.8C671.78 161.8 673.3 162.44 673.32 165.2H667.7ZM681.066 171.24C682.346 171.24 683.166 170.74 683.786 170.12V171H685.186V156.56L683.786 157.26V161.5C683.166 161 682.326 160.54 681.066 160.54C678.466 160.54 676.846 162.52 676.846 165.88C676.846 169.14 678.446 171.24 681.066 171.24ZM681.226 169.98C679.426 169.98 678.306 168.16 678.306 165.88C678.306 163.26 679.346 161.8 681.226 161.8C682.526 161.8 683.366 162.6 683.786 163.28V168.38C683.226 169.4 682.246 169.98 681.226 169.98ZM697.066 171.24C699.686 171.24 701.446 169.24 701.446 165.88C701.446 162.48 699.686 160.54 697.066 160.54C694.446 160.54 692.686 162.54 692.686 165.9C692.686 169.3 694.446 171.24 697.066 171.24ZM697.066 169.98C695.166 169.98 694.146 168.44 694.146 165.9C694.146 163.24 695.166 161.8 697.066 161.8C698.966 161.8 699.986 163.34 699.986 165.88C699.986 168.44 698.926 169.98 697.066 169.98ZM710.643 171H712.043V165.34C712.043 161.96 710.883 160.54 708.383 160.54C707.303 160.54 706.383 160.98 705.743 161.9V160.78H704.343V171H705.743V164.72C705.743 162.5 706.823 161.8 708.263 161.8C709.623 161.8 710.643 162.6 710.643 164.76V171ZM724.304 171.24C726.884 171.24 728.724 169.84 728.724 167.36C728.724 164.74 726.584 163.54 724.684 162.8C723.024 162.16 721.464 161.48 721.464 160C721.464 158.8 722.444 158.02 724.084 158.02C725.484 158.02 726.404 158.68 726.744 159.42L728.044 158.98C727.664 157.7 726.204 156.76 724.144 156.76C721.544 156.76 720.024 158.24 720.024 160.02C720.024 162.34 722.164 163.4 724.124 164.14C725.764 164.76 727.284 165.68 727.284 167.4C727.284 169.08 726.144 169.98 724.324 169.98C722.724 169.98 721.524 169.14 720.964 167.92L719.644 168.4C720.204 169.92 721.944 171.24 724.304 171.24ZM738.219 171H739.619V160.78H738.219V167.06C738.219 169.28 737.119 169.98 735.679 169.98C734.319 169.98 733.319 169.16 733.319 167.02V160.78H731.919V166.48C731.919 169.84 733.039 171.24 735.679 171.24C736.739 171.24 737.499 170.96 738.219 170.02V171ZM743.21 171H744.61V165.22C744.61 162.7 746.07 161.94 747.09 161.94C747.75 161.94 748.15 162.16 748.41 162.32L748.63 160.96C748.35 160.76 747.83 160.54 747.19 160.54C745.93 160.54 745.07 161.24 744.61 162.22V160.78H743.21V171ZM756.832 171H758.232V160.78H756.832V167.06C756.832 169.28 755.732 169.98 754.292 169.98C752.932 169.98 751.932 169.16 751.932 167.02V160.78H750.532V166.48C750.532 169.84 751.652 171.24 754.292 171.24C755.352 171.24 756.112 170.96 756.832 170.02V171ZM766.733 171H768.133V157H766.733V171ZM775.378 171.24C777.118 171.24 778.478 170.34 778.958 168.9L777.698 168.42C777.358 169.38 776.538 169.98 775.438 169.98C773.638 169.98 772.798 168.48 772.798 165.9C772.798 163.38 773.578 161.8 775.478 161.8C776.598 161.8 777.218 162.4 777.538 163.18L778.818 162.68C778.258 161.3 777.058 160.54 775.538 160.54C772.918 160.54 771.338 162.54 771.338 165.9C771.338 169.3 772.918 171.24 775.378 171.24ZM785.347 171.24C787.967 171.24 789.727 169.24 789.727 165.88C789.727 162.48 787.967 160.54 785.347 160.54C782.727 160.54 780.967 162.54 780.967 165.9C780.967 169.3 782.727 171.24 785.347 171.24ZM785.347 169.98C783.447 169.98 782.427 168.44 782.427 165.9C782.427 163.24 783.447 161.8 785.347 161.8C787.247 161.8 788.267 163.34 788.267 165.88C788.267 168.44 787.207 169.98 785.347 169.98ZM798.924 171H800.324V165.34C800.324 161.96 799.164 160.54 796.664 160.54C795.584 160.54 794.664 160.98 794.024 161.9V160.78H792.624V171H794.024V164.72C794.024 162.5 795.104 161.8 796.544 161.8C797.904 161.8 798.924 162.6 798.924 164.76V171ZM806.696 171.24C808.816 171.24 810.136 170.14 810.136 168.44C810.136 166.38 808.396 165.68 806.876 165.08C805.676 164.6 804.536 164.16 804.536 163.12C804.536 162.3 805.296 161.78 806.476 161.78C807.596 161.78 808.396 162.36 808.916 162.88L809.836 162.1C809.016 161.12 807.896 160.54 806.516 160.54C804.596 160.54 803.216 161.58 803.216 163.14C803.216 164.86 804.656 165.58 806.276 166.24C807.516 166.74 808.816 167.28 808.816 168.52C808.816 169.48 807.936 170 806.816 170C805.756 170 804.776 169.34 804.156 168.6L803.176 169.46C804.036 170.48 805.316 171.24 806.696 171.24ZM821.923 171.24C824.483 171.24 826.023 169.34 826.023 165.88C826.023 162.52 824.363 160.54 821.803 160.54C820.803 160.54 819.743 161.06 819.083 161.78V156.56L817.683 157.26V171H819.083V170.08C819.743 170.64 820.483 171.24 821.923 171.24ZM821.703 169.98C820.683 169.98 819.643 169.34 819.083 168.38V163.36C819.463 162.7 820.443 161.8 821.703 161.8C823.603 161.8 824.563 163.26 824.563 165.88C824.563 168.4 823.623 169.98 821.703 169.98ZM830.133 174.88H831.513L836.733 160.78H835.233L832.613 168.04L832.253 169.08C832.133 168.72 832.033 168.38 831.913 168.04L829.333 160.78H827.913L831.653 170.68L830.133 174.88ZM848.112 171.24C850.692 171.24 852.532 169.84 852.532 167.36C852.532 164.74 850.392 163.54 848.492 162.8C846.832 162.16 845.272 161.48 845.272 160C845.272 158.8 846.252 158.02 847.892 158.02C849.292 158.02 850.212 158.68 850.552 159.42L851.852 158.98C851.472 157.7 850.012 156.76 847.952 156.76C845.352 156.76 843.832 158.24 843.832 160.02C843.832 162.34 845.972 163.4 847.932 164.14C849.572 164.76 851.092 165.68 851.092 167.4C851.092 169.08 849.952 169.98 848.132 169.98C846.532 169.98 845.332 169.14 844.772 167.92L843.452 168.4C844.012 169.92 845.752 171.24 848.112 171.24ZM861.707 171H863.007V164.08C863.007 161.18 861.067 160.54 859.607 160.54C858.207 160.54 856.847 161.14 856.027 161.66L856.427 162.86C857.187 162.34 858.447 161.76 859.467 161.76C860.607 161.76 861.707 162.2 861.707 164.26V165.12C860.707 164.58 859.807 164.4 858.947 164.4C857.007 164.4 855.227 165.42 855.227 167.78C855.227 170.08 856.647 171.24 858.707 171.24C859.807 171.24 860.887 170.74 861.707 170V171ZM858.847 170.02C857.367 170.02 856.527 169.12 856.527 167.78C856.527 166.3 857.707 165.62 859.087 165.62C859.967 165.62 861.047 166.02 861.707 166.46V168.44C861.087 169.2 860.087 170.02 858.847 170.02ZM878.158 171H879.558V164.2C879.558 161.96 878.038 160.54 876.058 160.54C874.738 160.54 873.698 161.24 873.138 162.1C872.558 161.12 871.458 160.54 870.378 160.54C869.258 160.54 868.278 160.98 867.598 161.78V160.78H866.198V171H867.598V164.58C867.598 163 868.378 161.8 869.958 161.8C871.878 161.8 872.178 163.46 872.178 164.74V171H873.578V164.74C873.578 163.16 874.398 161.8 875.938 161.8C877.858 161.8 878.158 163.46 878.158 164.74V171ZM276.34 202H277.74V188H276.34V194.06H269.5V188H268.1V202H269.5V195.38H276.34V202ZM285.388 202.24C286.568 202.24 287.708 201.74 288.508 201.08L287.748 200.14C286.968 200.72 286.188 200.94 285.448 200.94C283.708 200.94 282.668 199.54 282.428 197.46H289.388C289.428 197.02 289.428 196.7 289.428 196.48C289.428 193.04 287.568 191.54 285.388 191.54C282.768 191.54 280.948 193.48 280.948 196.88C280.948 199.76 282.628 202.24 285.388 202.24ZM282.388 196.2C282.508 193.88 283.748 192.8 285.388 192.8C286.468 192.8 287.988 193.44 288.008 196.2H282.388ZM293.558 202H294.838L296.838 195.8C296.938 195.48 297.098 194.98 297.258 194.44C297.418 194.98 297.598 195.5 297.698 195.82L299.738 202H300.998L303.518 191.78H302.118L300.498 199.14C300.418 199.54 300.318 199.94 300.238 200.36C300.118 199.94 300.018 199.54 299.898 199.14L297.758 191.78H296.798L294.658 199.14C294.558 199.52 294.458 199.86 294.358 200.26L294.118 199.14L292.438 191.78H291.038L293.558 202ZM306.84 189.68C307.38 189.68 307.76 189.28 307.76 188.76C307.76 188.22 307.38 187.8 306.84 187.8C306.32 187.8 305.92 188.22 305.92 188.76C305.92 189.28 306.32 189.68 306.84 189.68ZM306.14 202H307.54V191.78H306.14V202ZM313.719 202.24C314.499 202.24 315.059 202.06 315.579 201.78L315.739 200.32C315.359 200.58 314.879 200.92 314.199 200.92C313.219 200.92 313.099 200.18 313.099 199.3V193.04H315.699V191.78H313.099V187.56L311.699 188.26V191.78H309.959V193.04H311.699V199.9C311.699 201.24 312.259 202.24 313.719 202.24ZM321.102 202.24C321.882 202.24 322.442 202.06 322.962 201.78L323.122 200.32C322.742 200.58 322.262 200.92 321.582 200.92C320.602 200.92 320.482 200.18 320.482 199.3V193.04H323.082V191.78H320.482V187.56L319.082 188.26V191.78H317.342V193.04H319.082V199.9C319.082 201.24 319.642 202.24 321.102 202.24Z" fill="black"/>
</g>
<defs>
<filter id="filter0_d" x="-4.32416" y="5.94696" width="264.648" height="248.338" filterUnits="userSpaceOnUse" color-interpolation-filters="sRGB">
<feFlood flood-opacity="0" result="BackgroundImageFix"/>
<feColorMatrix in="SourceAlpha" type="matrix" values="0 0 0 0 0 0 0 0 0 0 0 0 0 0 0 0 0 0 127 0"/>
<feOffset dy="4"/>
<feGaussianBlur stdDeviation="5"/>
<feColorMatrix type="matrix" values="0 0 0 0 0 0 0 0 0 0 0 0 0 0 0 0 0 0 0.4 0"/>
<feBlend mode="normal" in2="BackgroundImageFix" result="effect1_dropShadow"/>
<feBlend mode="normal" in="SourceGraphic" in2="effect1_dropShadow" result="shape"/>
</filter>
<linearGradient id="paint0_linear" x1="185.085" y1="256.596" x2="70.915" y2="-4.36299" gradientUnits="userSpaceOnUse">
<stop stop-color="#F37E40"/>
<stop offset="1" stop-color="#F34F17"/>
</linearGradient>
<linearGradient id="paint1_linear" x1="132.067" y1="14" x2="132.067" y2="240" gradientUnits="userSpaceOnUse">
<stop stop-color="white"/>
<stop offset="0.125" stop-color="white" stop-opacity="0.0980392"/>
<stop offset="0.925" stop-opacity="0.0980392"/>
<stop offset="1" stop-opacity="0.498039"/>
</linearGradient>
<clipPath id="clip0">
<rect width="908" height="256" fill="white"/>
</clipPath>
</defs>
</svg>
