<?xml version="1.0" encoding="UTF-8" standalone="no"?>
<svg
   xmlns:osb="http://www.openswatchbook.org/uri/2009/osb"
   xmlns:dc="http://purl.org/dc/elements/1.1/"
   xmlns:cc="http://creativecommons.org/ns#"
   xmlns:rdf="http://www.w3.org/1999/02/22-rdf-syntax-ns#"
   xmlns:svg="http://www.w3.org/2000/svg"
   xmlns="http://www.w3.org/2000/svg"
   xmlns:sodipodi="http://sodipodi.sourceforge.net/DTD/sodipodi-0.dtd"
   xmlns:inkscape="http://www.inkscape.org/namespaces/inkscape"
   height="16"
   id="svg7384"
   version="1.1"
   width="16.000031"
   sodipodi:docname="screenshot-app.svg"
   inkscape:version="0.92.3 (2405546, 2018-03-11)">
  <sodipodi:namedview
     pagecolor="#ffffff"
     bordercolor="#666666"
     borderopacity="1"
     objecttolerance="10"
     gridtolerance="10"
     guidetolerance="10"
     inkscape:pageopacity="0"
     inkscape:pageshadow="2"
     inkscape:window-width="1300"
     inkscape:window-height="878"
     id="namedview15"
     showgrid="true"
     inkscape:zoom="43.625"
     inkscape:cx="4.7059661"
     inkscape:cy="4.3323782"
     inkscape:window-x="0"
     inkscape:window-y="34"
     inkscape:window-maximized="0"
     inkscape:current-layer="svg7384">
    <inkscape:grid
       type="xygrid"
       id="grid831" />
  </sodipodi:namedview>
  <metadata
     id="metadata20854">
    <rdf:RDF>
      <cc:Work
         rdf:about="">
        <dc:title></dc:title>
        <dc:format>image/svg+xml</dc:format>
        <dc:type
           rdf:resource="http://purl.org/dc/dcmitype/StillImage" />
      </cc:Work>
    </rdf:RDF>
  </metadata>
  <defs
     id="defs7386">
    <linearGradient
       id="linearGradient5606"
       osb:paint="solid">
      <stop
         id="stop5608"
         offset="0"
         style="stop-color:#000000;stop-opacity:1;" />
    </linearGradient>
    <linearGradient
       id="linearGradient4526"
       osb:paint="solid">
      <stop
         id="stop4528"
         offset="0"
         style="stop-color:#ffffff;stop-opacity:1;" />
    </linearGradient>
  </defs>
  <g
     id="layer9"
     label="status"
     style="display:inline"
     transform="translate(-613.00017,187.00006)" />
  <g
     id="layer2"
     transform="translate(-371.99997,-179.99994)" />
  <g
     id="layer3"
     style="display:inline"
     transform="translate(-371.99997,-179.99994)" />
  <g
     id="layer1"
     transform="translate(-371.99997,-179.99994)" />
  <path
     style="opacity:1;fill:#808080;fill-opacity:1;stroke:none;stroke-width:1;stroke-linecap:round;stroke-linejoin:miter;stroke-miterlimit:4;stroke-dasharray:none;stroke-opacity:1"
     d="M 2 1 L 2 3 L 3 3 L 3 1 L 2 1 z M 5 1 L 5 2 L 7 2 L 7 1 L 5 1 z M 9 1 L 9 2 L 11 2 L 11 1 L 9 1 z M 13 1 L 13 2 L 15 2 L 15 1 L 13 1 z M 14 4 L 14 6 L 15 6 L 15 4 L 14 4 z M 2 5 L 2 7 L 3 7 L 3 5 L 2 5 z M 2 9 L 2 11 L 3 11 L 3 9 L 2 9 z M 12 10 L 12 12 L 10 12 L 10 13 L 12 13 L 12 15 L 13 15 L 13 13 L 15 13 L 15 12 L 13 12 L 13 10 L 12 10 z M 2 13 L 2 15 L 3 15 L 3 13 L 2 13 z M 5 14 L 5 15 L 7 15 L 7 14 L 5 14 z "
     id="rect833" />
</svg>
