<?xml version="1.0" encoding="UTF-8" standalone="no"?>
<svg
   xmlns:osb="http://www.openswatchbook.org/uri/2009/osb"
   xmlns:dc="http://purl.org/dc/elements/1.1/"
   xmlns:cc="http://creativecommons.org/ns#"
   xmlns:rdf="http://www.w3.org/1999/02/22-rdf-syntax-ns#"
   xmlns:svg="http://www.w3.org/2000/svg"
   xmlns="http://www.w3.org/2000/svg"
   xmlns:sodipodi="http://sodipodi.sourceforge.net/DTD/sodipodi-0.dtd"
   xmlns:inkscape="http://www.inkscape.org/namespaces/inkscape"
   height="16"
   id="svg7384"
   version="1.1"
   width="16"
   sodipodi:docname="kgoldrunner-symbolic.svg"
   inkscape:version="0.92.3 (2405546, 2018-03-11)">
  <sodipodi:namedview
     pagecolor="#ffffff"
     bordercolor="#666666"
     borderopacity="1"
     objecttolerance="10"
     gridtolerance="10"
     guidetolerance="10"
     inkscape:pageopacity="0"
     inkscape:pageshadow="2"
     inkscape:window-width="1481"
     inkscape:window-height="809"
     id="namedview27"
     showgrid="false"
     inkscape:zoom="14.75"
     inkscape:cx="-16.20339"
     inkscape:cy="8"
     inkscape:window-x="0"
     inkscape:window-y="34"
     inkscape:window-maximized="0"
     inkscape:current-layer="svg7384" />
  <metadata
     id="metadata20854">
    <rdf:RDF>
      <cc:Work
         rdf:about="">
        <dc:title></dc:title>
        <dc:format>image/svg+xml</dc:format>
        <dc:type
           rdf:resource="http://purl.org/dc/dcmitype/StillImage" />
      </cc:Work>
    </rdf:RDF>
  </metadata>
  <defs
     id="defs7386">
    <linearGradient
       id="linearGradient5606"
       osb:paint="solid">
      <stop
         id="stop5608"
         offset="0"
         style="stop-color:#000000;stop-opacity:1;" />
    </linearGradient>
    <linearGradient
       id="linearGradient4526"
       osb:paint="solid">
      <stop
         id="stop4528"
         offset="0"
         style="stop-color:#ffffff;stop-opacity:1;" />
    </linearGradient>
    <linearGradient
       id="linearGradient3600-4"
       osb:paint="gradient">
      <stop
         id="stop3602-7"
         offset="0"
         style="stop-color:#f4f4f4;stop-opacity:1" />
      <stop
         id="stop3604-6"
         offset="1"
         style="stop-color:#dbdbdb;stop-opacity:1" />
    </linearGradient>
  </defs>
  <g
     id="layer9"
     label="status"
     style="display:inline"
     transform="translate(-753.0002,147)" />
  <g
     id="layer2"
     style="display:inline"
     transform="translate(-512,-220)" />
  <g
     id="layer4"
     style="display:inline"
     transform="translate(-512,-220)" />
  <g
     id="g1812"
     style="display:inline"
     transform="translate(-512,-220)" />
  <g
     id="g6217"
     style="display:inline"
     transform="translate(-512,-220)" />
  <g
     id="layer3"
     style="display:inline"
     transform="translate(-512,-220)" />
  <g
     id="layer1"
     style="display:inline"
     transform="translate(-512,-220)" />
  <path
     style="fill:#808080;fill-opacity:1;stroke-width:0.03139102"
     d="m 1.76334,13.966565 c -0.38951,-0.127 -0.64469,-0.4832 -0.64264,-0.89704 10e-4,-0.22092 0.0568,-0.38798 0.18585,-0.55715 0.0708,-0.0928 0.82978,-0.67807 1.91989,-1.48042 l 0.35417,-0.26067 0.15148,0.14169 c 0.18685,0.17478 0.34366,0.25674 0.58587,0.3062 0.16793,0.0343 0.2743,0.0265 1.06065,-0.0777 0.4807,-0.0637 0.89263,-0.11152 0.91541,-0.10624 0.0537,0.0124 -3.70851,2.81613 -3.88327,2.89388 -0.17251,0.0767 -0.47354,0.0942 -0.64741,0.0375 z m 7.49701,-1.22665 v -0.0785 h 1.56955 1.56955 v 0.0785 0.0785 H 10.8299 9.26035 Z m -1.97763,-0.47086 v -0.0785 h 2.26015 2.26015 v 0.0785 0.0785 H 9.54287 7.28272 Z m 2.63684,-0.47087 v -0.0785 h 1.56955 1.56955 v 0.0785 0.0785 H 11.48911 9.91956 Z M 4.23409,11.017155 C 3.7262,10.835665 3.45989,10.303955 3.62616,9.8033656 3.69736,9.5889862 3.97151,9.3019362 4.17501,9.2286762 c 0.0777,-0.028 0.83911,-0.14265 1.69205,-0.25485 0.85294,-0.11219 1.55426,-0.20772 1.55849,-0.21228 0.004,-0.005 -0.26016,-0.37556 -0.58753,-0.8244494 -0.91374,-1.25292 -1.01921,-1.46399 -0.99326,-1.98771 0.0158,-0.31855 0.12189,-0.57775 0.35225,-0.86054 0.33023,-0.4054 1.40716,-1.20251 2.08756,-1.54516 l 0.22755,-0.11459 0.91,0.60031 c 0.50051,0.33016 0.96728,0.62051 1.03728,0.6452 0.46062,0.16252 0.96947,-0.16291 1.01959,-0.65206 0.0396,-0.38612 -0.0914,-0.58041 -0.62995,-0.93434 -0.2177,-0.14309 -0.39583,-0.27449 -0.39583,-0.29199 0,-0.0206 0.11879,-0.0257 0.33745,-0.0144 0.34434,0.0178 0.54705,0.0699 0.82553,0.2119 0.18973,0.0968 0.53504,0.45072 0.62706,0.64275 0.0901,0.18796 0.10719,0.43479 0.14107,2.03436 l 0.0225,1.06121 1.47955,0.73899 c 0.81376,0.40644 1.51966,0.7764494 1.56868,0.8222394 0.283,0.26436 0.24397,0.7245 -0.0796,0.93863 -0.10737,0.0711 -0.16521,0.0864 -0.32645,0.0864 -0.1935,0 -0.2171,-0.0105 -1.88575,-0.84247 -0.92939,-0.4633697 -1.72296,-0.8730194 -1.76349,-0.9103394 -0.0405,-0.0373 -0.10113,-0.12139 -0.13467,-0.18681 -0.0546,-0.10645 -0.063,-0.21267 -0.0804,-1.01072 -0.0107,-0.49047 -0.0297,-0.90834 -0.0422,-0.9286 -0.0256,-0.0414 -0.906,0.33068 -1.63345,0.6903 -0.47704,0.23583 -1.09717,0.59618 -1.1176,0.64944 -0.007,0.0192 0.34014,0.52064 0.77223,1.11438 0.43209,0.5937294 0.81677,1.1430894 0.85486,1.2207794 0.0995,0.20302 0.0989,0.55219 -10e-4,0.7762094 -0.0845,0.1889194 -0.29389,0.3958794 -0.48686,0.4812394 -0.096,0.0425 -0.80089,0.14721 -2.51644,0.3739 -1.31068,0.17319 -2.44678,0.31427 -2.52467,0.31352 -0.0779,-7.5e-4 -0.19272,-0.0196 -0.25519,-0.042 z M 5.21091,8.8658662 c 0,-0.0241 0.57063,-2.1200194 0.58006,-2.1305194 0.004,-0.005 0.0651,0.0872 0.13489,0.20473 0.0698,0.11749 0.36127,0.53677 0.64771,0.93172 0.28644,0.3949594 0.5208,0.7301394 0.5208,0.7448494 0,0.0147 -0.0247,0.0273 -0.0549,0.0279 -0.0302,6.4e-4 -0.454,0.0544 -0.94173,0.11949 -0.48774,0.0651 -0.8868,0.11092 -0.8868,0.10184 z m 8.61683,-3.5124294 c -0.29026,-0.0864 -0.51433,-0.22142 -0.73852,-0.44516 -0.33901,-0.33832 -0.50142,-0.72803 -0.50142,-1.20319 0,-0.4812 0.16269,-0.87463 0.50226,-1.21455 0.53386,-0.53442 1.32681,-0.64636 2.03162,-0.28679 0.17589,0.0897 0.48348,0.3798 0.60721,0.57263 0.58932,0.91837 0.17752,2.15291 -0.84495,2.53313 -0.28253,0.10506 -0.78105,0.1258 -1.0562,0.0439 z m -11.85011,-0.0532 v -0.0785 h 1.56956 1.56955 v 0.0785 0.0785 H 3.54719 1.97763 Z M 0,4.8293668 v -0.0785 h 2.26015 2.26016 v 0.0785 0.0785 H 2.26015 0 Z m 10.40612,-0.37163 c -0.0691,-0.04 -0.63381,-0.40862 -1.255,-0.81923 l -1.12943,-0.74655 -1.45697,0.22675 c -0.91834,0.14292 -1.50779,0.22102 -1.59444,0.21125 -0.38026,-0.0429 -0.61691,-0.46639 -0.46447,-0.83123 0.13042,-0.31215 0.13752,-0.31427 2.03758,-0.60951 1.45647,-0.22632 1.66327,-0.2519 1.77231,-0.21923 0.10696,0.032 2.64967,1.68089 2.80791,1.82082 0.22322,0.19739 0.23518,0.62289 0.0243,0.86319 -0.16063,0.18302 -0.51832,0.23304 -0.74175,0.10374 z m -7.77974,-0.0417 c -0.0115,-0.0115 -0.0209,-0.0468 -0.0209,-0.0785 0,-0.055 0.069,-0.0575 1.58525,-0.0575 h 1.58525 v 0.0785 0.0785 H 4.21166 c -0.86038,0 -1.57374,-0.009 -1.58525,-0.0209 z"
     id="path817"
     inkscape:connector-curvature="0" />
</svg>
