<?xml version="1.0" encoding="UTF-8" standalone="no"?>
<svg
   xmlns:osb="http://www.openswatchbook.org/uri/2009/osb"
   xmlns:dc="http://purl.org/dc/elements/1.1/"
   xmlns:cc="http://creativecommons.org/ns#"
   xmlns:rdf="http://www.w3.org/1999/02/22-rdf-syntax-ns#"
   xmlns:svg="http://www.w3.org/2000/svg"
   xmlns="http://www.w3.org/2000/svg"
   xmlns:sodipodi="http://sodipodi.sourceforge.net/DTD/sodipodi-0.dtd"
   xmlns:inkscape="http://www.inkscape.org/namespaces/inkscape"
   height="16"
   id="svg7384"
   version="1.1"
   width="16"
   sodipodi:docname="pdfshuffler-symbolic.svg"
   inkscape:version="0.92.3 (2405546, 2018-03-11)">
  <sodipodi:namedview
     pagecolor="#ffffff"
     bordercolor="#666666"
     borderopacity="1"
     objecttolerance="10"
     gridtolerance="10"
     guidetolerance="10"
     inkscape:pageopacity="0"
     inkscape:pageshadow="2"
     inkscape:window-width="1920"
     inkscape:window-height="1009"
     id="namedview30"
     showgrid="false"
     inkscape:zoom="41.7193"
     inkscape:cx="9.2820065"
     inkscape:cy="6.7005748"
     inkscape:window-x="0"
     inkscape:window-y="34"
     inkscape:window-maximized="1"
     inkscape:current-layer="svg7384" />
  <metadata
     id="metadata20854">
    <rdf:RDF>
      <cc:Work
         rdf:about="">
        <dc:title></dc:title>
        <dc:format>image/svg+xml</dc:format>
        <dc:type
           rdf:resource="http://purl.org/dc/dcmitype/StillImage" />
      </cc:Work>
    </rdf:RDF>
  </metadata>
  <defs
     id="defs7386">
    <linearGradient
       id="linearGradient5606"
       osb:paint="solid">
      <stop
         id="stop5608"
         offset="0"
         style="stop-color:#000000;stop-opacity:1;" />
    </linearGradient>
    <linearGradient
       id="linearGradient4526"
       osb:paint="solid">
      <stop
         id="stop4528"
         offset="0"
         style="stop-color:#ffffff;stop-opacity:1;" />
    </linearGradient>
    <linearGradient
       id="linearGradient3600-4"
       osb:paint="gradient">
      <stop
         id="stop3602-7"
         offset="0"
         style="stop-color:#f4f4f4;stop-opacity:1" />
      <stop
         id="stop3604-6"
         offset="1"
         style="stop-color:#dbdbdb;stop-opacity:1" />
    </linearGradient>
  </defs>
  <g
     id="layer9"
     label="status"
     style="display:inline"
     transform="translate(-793.0002,127)" />
  <g
     id="layer2"
     style="display:inline"
     transform="translate(-552,-240)" />
  <g
     id="layer4"
     style="display:inline"
     transform="translate(-552,-240)" />
  <g
     id="g1812"
     style="display:inline"
     transform="translate(-552,-240)" />
  <g
     id="g6217"
     style="display:inline"
     transform="translate(-552,-240)" />
  <g
     id="layer3"
     style="display:inline"
     transform="translate(-552,-240)" />
  <g
     id="g1833"
     style="display:inline"
     transform="translate(-552,-240)">
    <path
       d="m 555.99414,241 c -1.2582,0.0145 -2.17889,-0.0306 -2.93164,0.38477 -0.1894,0.10449 -0.35759,0.24583 -0.5,0.41601 H 552.5 v 0.0879 c -0.11056,0.14835 -0.20685,0.31154 -0.27539,0.49414 C 552.05994,242.82148 552,243.34239 552,244 v 8 c 0,0.65761 0.0599,1.17858 0.22461,1.61719 0.16468,0.43861 0.46153,0.78852 0.83789,0.99609 0.75272,0.41513 1.67354,0.37165 2.93164,0.38672 h 0.002 8.00586 0.004 c 1.25819,-0.0145 2.17889,0.0306 2.93164,-0.38477 0.37637,-0.20766 0.67322,-0.55938 0.83789,-0.99804 C 567.93992,253.17852 568,252.65761 568,252 v -8 c 0,-0.65761 -0.0599,-1.17858 -0.22461,-1.61719 -0.0685,-0.18245 -0.16493,-0.34429 -0.27539,-0.49219 v -0.0898 h -0.0625 c -0.1422,-0.16917 -0.31105,-0.30985 -0.5,-0.41406 -0.75272,-0.41513 -1.67355,-0.37165 -2.93164,-0.38672 h -0.002 -8.00586 z M 553,244 h 14 v 8 c 0,0.59239 -0.0626,1.00573 -0.16016,1.26562 -0.0976,0.25991 -0.20135,0.37147 -0.38476,0.47266 C 566.08912,253.9402 565.25852,253.98529 564,254 H 556.00586 556 c -1.25863,-0.0152 -2.0891,-0.0599 -2.45508,-0.26172 -0.18342,-0.10116 -0.28722,-0.21286 -0.38476,-0.47266 C 553.06261,253.00583 553,252.59239 553,252 Z"
       id="path2732-8-1-77"
       style="color:#000000;font-style:normal;font-variant:normal;font-weight:normal;font-stretch:normal;font-size:medium;line-height:normal;font-family:sans-serif;font-variant-ligatures:normal;font-variant-position:normal;font-variant-caps:normal;font-variant-numeric:normal;font-variant-alternates:normal;font-feature-settings:normal;text-indent:0;text-align:start;text-decoration:none;text-decoration-line:none;text-decoration-style:solid;text-decoration-color:#000000;letter-spacing:normal;word-spacing:normal;text-transform:none;writing-mode:lr-tb;direction:ltr;text-orientation:mixed;dominant-baseline:auto;baseline-shift:baseline;text-anchor:start;white-space:normal;shape-padding:0;clip-rule:nonzero;display:inline;overflow:visible;visibility:visible;opacity:1;isolation:auto;mix-blend-mode:normal;color-interpolation:sRGB;color-interpolation-filters:linearRGB;solid-color:#000000;solid-opacity:1;vector-effect:none;fill:#808080;fill-opacity:1;fill-rule:nonzero;stroke:none;stroke-width:1.00000012;stroke-linecap:butt;stroke-linejoin:miter;stroke-miterlimit:4;stroke-dasharray:none;stroke-dashoffset:0;stroke-opacity:1;marker:none;color-rendering:auto;image-rendering:auto;shape-rendering:auto;text-rendering:auto;enable-background:accumulate" />
    <path
       d="m 556,246 h 1 l -2,5 h -1 z"
       id="rect4009"
       style="opacity:1;fill:#808080;fill-opacity:1;stroke:none;stroke-width:0.5;stroke-linecap:butt;stroke-linejoin:round;stroke-miterlimit:4;stroke-dasharray:none;stroke-opacity:1" />
    <path
       d="m 557,246 h -1 l 2,5 h 1 z"
       id="rect4009-7"
       style="display:inline;opacity:1;fill:#808080;fill-opacity:1;stroke:none;stroke-width:0.5;stroke-linecap:butt;stroke-linejoin:round;stroke-miterlimit:4;stroke-dasharray:none;stroke-opacity:1" />
    <rect
       height="0.5"
       id="rect4042"
       style="opacity:1;fill:#808080;fill-opacity:1;stroke:none;stroke-width:0.5;stroke-linecap:butt;stroke-linejoin:round;stroke-miterlimit:4;stroke-dasharray:none;stroke-opacity:1"
       transform="scale(1,-1)"
       width="2"
       x="555.5"
       y="-249.5" />
    <rect
       height="0.5"
       id="rect4042-3"
       style="display:inline;opacity:1;fill:#808080;fill-opacity:1;stroke:none;stroke-width:0.5;stroke-linecap:butt;stroke-linejoin:round;stroke-miterlimit:4;stroke-dasharray:none;stroke-opacity:1"
       width="1.5"
       x="554"
       y="250.5" />
    <rect
       height="0.5"
       id="rect4042-3-2"
       style="display:inline;opacity:1;fill:#808080;fill-opacity:1;stroke:none;stroke-width:0.5;stroke-linecap:butt;stroke-linejoin:round;stroke-miterlimit:4;stroke-dasharray:none;stroke-opacity:1"
       width="1.5"
       x="557.5"
       y="250.5" />
    <path
       style="opacity:0.5;fill:#808080;fill-opacity:1;stroke:none;stroke-width:0.5;stroke-linecap:butt;stroke-linejoin:round;stroke-miterlimit:4;stroke-dasharray:none;stroke-opacity:1"
       d="m 8,6 v 1 h 2.957031 L 11.367188,6.5859375 11.943359,6 Z M 8,8 V 9 H 8.984375 L 9.1210938,8.8613281 9.6816406,8.2929688 9.9707031,8 Z m 5.048828,0 -1.013672,1 H 14 V 8 Z m -2.029297,2 -1.013672,1 H 14 V 10 Z M 2,12 v 1 H 12 V 12 H 8.7890625 c -0.081986,0.04325 -0.080059,0.04778 -0.1933594,0.103516 -0.362929,0.178531 -0.8584077,0.398818 -1.4179687,0.576172 L 6.6542969,12.845703 6.8203125,12.322266 C 6.8567588,12.20735 6.8981924,12.108979 6.9375,12 Z"
       transform="translate(552,240)"
       id="rect4074"
       inkscape:connector-curvature="0"
       sodipodi:nodetypes="cccccccccccccccccccccccccccccccccc" />
  </g>
  <g
     id="layer1"
     style="display:inline"
     transform="translate(-552,-240)" />
  <path
     d="m 11.394036,7.0371745 -0.746899,0.7572503 v 0 l -0.37345,0.3786261 v 0 l -0.3734491,0.378626 v 0 L 9.5267913,8.9303021 v 0 l -0.3734491,0.378626 v 0 L 8.7806304,9.6875532 v 0 L 8.4071812,10.066179 v 0 0 L 8.124692,10.444805 c -0.038438,0.06918 -0.055551,0.092 -0.1198006,0.22259 -0.1188204,0.241521 -0.2650681,0.571577 -0.3830595,0.943607 L 7.5116443,11.959307 7.8599498,11.849119 C 8.2322903,11.731105 8.5620574,11.584858 8.803556,11.46606 9.0450555,11.347259 9.1772672,11.268906 9.2154597,11.244946 l 0.017,-0.01109 3.5799343,-3.5296471 -0.757251,-0.7572512 v 0 L 11.766735,6.6585459 v 0 z m -2.7879288,3.3662155 0.4614537,0.461454 -0.067301,0.06656 c 0.00262,-0.0018 -0.1433238,0.08601 -0.3638362,0.194489 -0.081104,0.0399 -0.2027427,0.08427 -0.315766,0.127933 L 8.2171301,11.15029 c 0.043662,-0.113016 0.088026,-0.234645 0.1279328,-0.315766 0.1085112,-0.220557 0.1959427,-0.365711 0.194489,-0.363836 z"
     id="path1901-3"
     style="color:#000000;display:inline;overflow:visible;visibility:visible;fill:#808080;fill-opacity:1;fill-rule:nonzero;stroke:none;stroke-width:1.51450205;marker:none;enable-background:accumulate"
     inkscape:connector-curvature="0"
     sodipodi:nodetypes="ccccccccccccccccccccccccccccccccccccccc" />
</svg>
