<?xml version="1.0" encoding="UTF-8" standalone="no"?>
<!-- Created with Inkscape (http://www.inkscape.org/) -->

<svg
   xmlns:dc="http://purl.org/dc/elements/1.1/"
   xmlns:cc="http://creativecommons.org/ns#"
   xmlns:rdf="http://www.w3.org/1999/02/22-rdf-syntax-ns#"
   xmlns:svg="http://www.w3.org/2000/svg"
   xmlns="http://www.w3.org/2000/svg"
   xmlns:xlink="http://www.w3.org/1999/xlink"
   xmlns:sodipodi="http://sodipodi.sourceforge.net/DTD/sodipodi-0.dtd"
   xmlns:inkscape="http://www.inkscape.org/namespaces/inkscape"
   width="16"
   height="16"
   viewBox="0 0 4.2333333 4.2333334"
   version="1.1"
   id="svg1037"
   inkscape:version="0.92.3 (2405546, 2018-03-11)"
   sodipodi:docname="1CD8_rundll32.0.svg">
  <defs
     id="defs1031">
    <radialGradient
       cx="5.6491151"
       cy="9.9571075"
       r="12.671875"
       fx="5.118885"
       fy="9.9571075"
       id="radialGradient3107-17"
       xlink:href="#linearGradient2867-449-88-871-390-598-476-591-434-148-57-177-8-3"
       gradientUnits="userSpaceOnUse"
       gradientTransform="matrix(-1.9132589e-7,7.8004159,-9.5764203,-2.3414749e-7,129.08903,164.10192)" />
    <linearGradient
       id="linearGradient2867-449-88-871-390-598-476-591-434-148-57-177-8-3">
      <stop
         offset="0"
         style="stop-color:#90dbec;stop-opacity:1"
         id="stop3750-1-0" />
      <stop
         offset="0.26238"
         style="stop-color:#55c1ec;stop-opacity:1"
         id="stop3752-3-7" />
      <stop
         offset="0.704952"
         style="stop-color:#3689e6;stop-opacity:1"
         id="stop3754-1-8" />
      <stop
         offset="1"
         style="stop-color:#2b63a0;stop-opacity:1"
         id="stop3756-1-6" />
    </linearGradient>
  </defs>
  <sodipodi:namedview
     id="base"
     pagecolor="#ffffff"
     bordercolor="#666666"
     borderopacity="1.0"
     inkscape:pageopacity="0.0"
     inkscape:pageshadow="2"
     inkscape:zoom="51.875041"
     inkscape:cx="4.1927734"
     inkscape:cy="9.2288974"
     inkscape:document-units="px"
     inkscape:current-layer="layer1"
     showgrid="true"
     units="px"
     inkscape:window-width="1920"
     inkscape:window-height="1009"
     inkscape:window-x="0"
     inkscape:window-y="34"
     inkscape:window-maximized="1">
    <inkscape:grid
       type="xygrid"
       id="grid1672" />
  </sodipodi:namedview>
  <metadata
     id="metadata1034">
    <rdf:RDF>
      <cc:Work
         rdf:about="">
        <dc:format>image/svg+xml</dc:format>
        <dc:type
           rdf:resource="http://purl.org/dc/dcmitype/StillImage" />
        <dc:title></dc:title>
      </cc:Work>
    </rdf:RDF>
  </metadata>
  <g
     inkscape:label="Livello 1"
     inkscape:groupmode="layer"
     id="layer1"
     transform="translate(0,-292.76665)">
    <path
       style="color:#000000;display:inline;overflow:visible;visibility:visible;fill:#808080;fill-opacity:1;fill-rule:nonzero;stroke:none;stroke-width:0.03131374;stroke-opacity:1;marker:none;enable-background:accumulate"
       d="m 2.4746383,293.23257 c -0.374648,0 -0.7024076,0.17837 -0.8846316,0.44377 0.00212,-0.002 0.00411,-0.004 0.00624,-0.005 0.059171,-0.0475 0.1205771,-0.0929 0.1867463,-0.13328 0.2880477,-0.17571 0.6086767,-0.25896 0.9276565,-0.26185 0.021265,-1.3e-4 0.042548,-2e-5 0.063788,5.2e-4 0.034773,0.009 0.07078,0.0163 0.1039005,0.0287 -0.1240861,-0.0468 -0.260497,-0.0726 -0.4037017,-0.0726 z m 0.4037017,0.0726 c 0.025268,0.01 0.04758,0.0234 0.071778,0.0347 -0.3864115,-0.047 -0.7887157,0.0263 -1.1407838,0.24105 -0.8190549,0.49964 -1.0959562,1.60218 -0.5944843,2.42366 0.043845,0.0718 0.093886,0.13782 0.1465927,0.20094 h 0.1397269 c -0.07199,-0.0771 -0.1373001,-0.16197 -0.1940282,-0.25461 -0.4726681,-0.7719 -0.2132346,-1.80707 0.5559114,-2.27766 0.2710163,-0.16582 0.5734835,-0.24281 0.8735219,-0.24109 0.1571633,9.1e-4 0.313667,0.0234 0.4646189,0.066 0.00212,0.002 0.00474,0.003 0.00682,0.005 -0.093845,-0.0836 -0.2055899,-0.15126 -0.3296764,-0.19802 z m 0.3296772,0.19802 c 0.023572,0.021 0.042396,0.0458 0.063622,0.0687 -0.4472963,-0.1517 -0.955433,-0.11669 -1.3822057,0.14443 -0.7453007,0.456 -0.9969891,1.46043 -0.5391428,2.20812 0.063808,0.10421 0.1396363,0.19725 0.2231136,0.28104 h 0.1540823 c -0.1094089,-0.0946 -0.2060937,-0.20656 -0.284863,-0.33471 -0.4290942,-0.69811 -0.194911,-1.63515 0.5004452,-2.06212 0.2389121,-0.1467 0.505041,-0.21764 0.7699125,-0.22066 0.2337102,-0.003 0.4664595,0.0476 0.6786616,0.14539 0.012491,0.0214 0.02804,0.0412 0.038656,0.0635 -0.052484,-0.11055 -0.1284354,-0.21012 -0.2222815,-0.29373 z m 0.2222815,0.29373 c 0.00246,0.005 0.00331,0.011 0.00566,0.0162 -0.4500872,-0.23445 -1.0097216,-0.24179 -1.4663833,0.0386 -0.6715516,0.41235 -0.8981034,1.31864 -0.4838842,1.99254 0.087248,0.14195 0.1981435,0.26209 0.3235189,0.36118 h 0.1838337 c -0.1641986,-0.10293 -0.3081121,-0.24174 -0.4149365,-0.41473 -0.3855313,-0.62431 -0.1765431,-1.46327 0.4450206,-1.84662 0.215739,-0.13305 0.4561487,-0.19687 0.6953469,-0.19885 0.2710914,-0.002 0.5406044,0.0749 0.7707864,0.22091 3.44e-4,10e-4 0.00114,0.003 0.00146,0.004 -0.013816,-0.0601 -0.034176,-0.11815 -0.060418,-0.17343 z m 0.060418,0.17343 c 0.00454,0.0198 0.00385,0.041 0.00695,0.0613 -0.4213283,-0.28594 -0.9925125,-0.32538 -1.4480321,-0.0444 -0.5978105,0.3687 -0.7991328,1.17693 -0.4285431,1.77704 0.1182277,0.19146 0.2835214,0.33991 0.4721088,0.44128 h 0.2867772 c -0.2680834,-0.0765 -0.5110259,-0.24465 -0.6663866,-0.49475 -0.3419834,-0.55051 -0.1582138,-1.29139 0.3895541,-1.63111 0.1954729,-0.12123 0.4139641,-0.17815 0.6308514,-0.17772 0.2788552,5.2e-4 0.5550394,0.0959 0.7761541,0.27126 -3.704e-4,0.0203 -0.00419,0.0396 -0.00591,0.0595 -0.3775747,-0.31667 -0.9370438,-0.38143 -1.3744667,-0.11014 -0.5240787,0.32503 -0.7002414,1.03518 -0.3732847,1.5615 0.3141129,0.50565 0.9997865,0.67552 1.5076605,0.35947 0.4872175,-0.30319 0.6507525,-0.96435 0.3456141,-1.45377 -0.2922733,-0.46879 -0.9288743,-0.62603 -1.3998487,-0.3318 -0.4503614,0.28135 -0.6013034,0.89344 -0.3179848,1.34596 0.2704278,0.43194 0.8579628,0.57666 1.2920366,0.30426 0.4135102,-0.25951 0.5518942,-0.82262 0.2903974,-1.23824 -0.2485771,-0.39509 -0.7871372,-0.52717 -1.1843082,-0.27658 -0.3766662,0.23765 -0.5024405,0.75166 -0.262768,1.13038 0.2267176,0.35825 0.716273,0.4778 1.0765379,0.24904 0.3398313,-0.21579 0.4530251,-0.68085 0.2351804,-1.02266 -0.2048481,-0.32142 -0.6453288,-0.42833 -0.9686843,-0.22141 -0.3030083,0.19391 -0.4037298,0.60995 -0.2077178,0.91485 0.1829643,0.2846 0.5745147,0.37895 0.8609556,0.19386 0.2662015,-0.17202 0.3543445,-0.53901 0.1801717,-0.80699 -0.1610604,-0.24781 -0.5036661,-0.32969 -0.7531851,-0.16644 -0.2294184,0.1501 -0.3049488,0.46816 -0.1526261,0.69922 0.1391277,0.21104 0.4327039,0.28037 0.6452903,0.13898 0.1926698,-0.12815 0.2557452,-0.3973 0.1252878,-0.59141 -0.1171501,-0.17431 -0.3618428,-0.23111 -0.537478,-0.1116 -0.1559764,0.10614 -0.2065124,0.3264 -0.09795,0.48355 0.095099,0.13766 0.290888,0.18198 0.4295416,0.0844 0.1193771,-0.084 0.1575559,-0.25543 0.070945,-0.37557 -0.072909,-0.10114 -0.2199958,-0.13315 -0.3216048,-0.0575 -0.082959,0.0617 -0.1087966,0.18443 -0.044273,0.26747 0.050411,0.0649 0.1488386,0.0848 0.2132522,0.0314 0.046954,-0.0389 0.060978,-0.11327 0.019016,-0.15895 -0.013451,-0.0146 -0.034012,-0.0247 -0.053635,-0.0264 -0.019624,-0.002 -0.037142,0.003 -0.050515,0.0185 -0.00595,0.007 -0.011038,0.0196 -0.011028,0.0296 1.51e-5,0.01 0.00201,0.0148 0.00982,0.0188 -0.00494,-0.002 0.00442,-6.5e-4 0.00553,-10e-4 5.557e-4,-2.6e-4 -0.00188,1.3e-4 -0.00429,0.005 -0.00241,0.005 -4.498e-4,0.0117 -5.821e-4,0.0115 l 0.043524,-0.0258 c 0.0059,0.01 0.00806,0.0252 0.00238,0.0367 -0.00569,0.0115 -0.01497,0.0167 -0.022844,0.0198 -0.015745,0.006 -0.029325,0.008 -0.046604,-10e-4 -0.025643,-0.013 -0.037427,-0.0401 -0.037458,-0.0638 -3.62e-5,-0.0237 0.0085,-0.0461 0.023842,-0.0633 0.024723,-0.0277 0.060034,-0.0382 0.092708,-0.0352 0.032673,0.003 0.063885,0.0181 0.086383,0.0426 0.063552,0.0692 0.043526,0.17617 -0.024008,0.23211 -0.088183,0.073 -0.2185549,0.0468 -0.2854462,-0.0393 -0.08309,-0.10693 -0.05057,-0.2612 0.054052,-0.33904 0.1255762,-0.0934 0.3039887,-0.0546 0.3927583,0.0685 0.1039217,0.14415 0.058793,0.34673 -0.082846,0.44643 -0.1626995,0.11452 -0.3896168,0.0631 -0.5002372,-0.097 -0.1251897,-0.18122 -0.067514,-0.43246 0.1110989,-0.554 0.1997238,-0.13591 0.4754252,-0.0719 0.6078828,0.1252 0.1466556,0.21822 0.076336,0.51827 -0.1392277,0.66165 -0.2367016,0.15743 -0.5612001,0.0808 -0.7154864,-0.15321 -0.1682274,-0.25518 -0.08535,-0.60418 0.1671481,-0.76937 0.2736526,-0.17904 0.6471056,-0.0897 0.823215,0.18121 0.1898631,0.29212 0.094312,0.69 -0.1951099,0.87702 -0.3105888,0.20069 -0.7329312,0.0988 -0.9308605,-0.20905 -0.2115398,-0.32906 -0.1033923,-0.77587 0.222947,-0.98471 0.347514,-0.22239 0.8188004,-0.10799 1.0385477,0.23681 0.2332442,0.36597 0.1125498,0.86182 -0.2507012,1.09247 -0.3844314,0.24411 -0.9047964,0.11707 -1.1463594,-0.26464 -0.2549687,-0.40289 -0.1215793,-0.94769 0.2785799,-1.20016 0.4213441,-0.26584 0.9906272,-0.12622 1.254005,0.29239 0.2767079,0.4398 0.1308135,1.03365 -0.3062507,1.30793 -0.4582527,0.28759 -1.0766251,0.13533 -1.361817,-0.32019 -0.2984584,-0.4767 -0.1399211,-1.11956 0.3340463,-1.41566 0.4951584,-0.30933 1.1625408,-0.14447 1.4695458,0.34795 0.3202175,0.51361 0.1490266,1.20548 -0.3618421,1.52339 -0.085034,0.0529 -0.1750213,0.0915 -0.267137,0.11904 h 0.1273685 c 0.074947,0 0.148081,-0.007 0.2186615,-0.0195 -0.014766,0.003 -0.030789,0.002 -0.045771,0.004 0.00668,-0.004 0.013676,-0.007 0.020307,-0.0111 0.5609431,-0.34687 0.7497294,-1.10605 0.4009554,-1.66928 -0.02595,-0.0419 -0.055071,-0.0809 -0.085509,-0.11842 0.036563,0.0174 0.071245,0.0373 0.1051488,0.0581 0.0076,0.0114 0.01605,0.022 0.023302,0.0337 0.3449135,0.55699 0.1855457,1.2954 -0.3302598,1.67868 -0.029586,0.008 -0.057573,0.0187 -0.088172,0.0243 0.1411605,-0.0256 0.2721473,-0.0755 0.3872656,-0.14472 -0.00746,0.004 -0.016214,0.007 -0.023802,0.0115 0.3383545,-0.38724 0.4411708,-0.94823 0.2432947,-1.43097 0.016081,0.017 0.03389,0.0326 0.048642,0.0505 -0.1309402,-0.1592 -0.3155704,-0.28105 -0.530238,-0.34495 0.011647,-0.0554 0.016936,-0.11232 0.016936,-0.17077 0,-0.0638 -0.00728,-0.12605 -0.021095,-0.18621 z m 0.5343991,0.70192 c 0.01696,0.0206 0.030373,0.0435 0.04548,0.0653 0.1216954,0.4155 0.043006,0.86815 -0.2006438,1.22067 -0.036418,0.029 -0.072347,0.0586 -0.1129715,0.083 0.2877957,-0.17293 0.4763529,-0.4661 0.4763529,-0.79995 0,-0.21328 -0.077277,-0.40982 -0.2082176,-0.56902 z m -2.8582426,-1.03795 c -0.04981,0 -0.098417,0.005 -0.1453859,0.0131 4.683e-4,-9e-5 9.869e-4,-4e-5 0.00146,-1.2e-4 -0.5753885,0.68978 -0.7064438,1.69605 -0.2600629,2.5125 -0.02251,-0.006 -0.045429,-0.0112 -0.067284,-0.0185 -0.4180452,-0.80598 -0.2963081,-1.78061 0.2448757,-2.47147 0.026804,-0.008 0.052918,-0.0173 0.081015,-0.0224 -0.3287819,0.0599 -0.5761341,0.31909 -0.5761341,0.62973 0,0.0141 6.482e-4,0.0281 0.00183,0.042 -0.00117,-0.0139 -0.00179,-0.0279 -0.00179,-0.042 0,-0.0195 0.00454,-0.0379 0.00645,-0.0569 0.046663,-0.12281 0.1016164,-0.24262 0.1672719,-0.35702 0.012758,-0.0134 0.023646,-0.0282 0.037574,-0.0406 0.027614,-0.0246 0.058558,-0.046 0.090336,-0.0664 -0.1261128,0.19014 -0.2244028,0.39621 -0.2928939,0.61213 -4.789e-4,-0.003 -0.00139,-0.005 -0.00183,-0.008 0.00442,0.0272 0.010761,0.0539 0.018433,0.08 -0.03525,0.0212 -0.068963,0.0443 -0.1010707,0.069 0.016929,-0.0129 0.035281,-0.0242 0.053011,-0.0362 -0.1407989,0.52326 -0.1092085,1.09128 0.1218345,1.60374 -0.022412,-0.0113 -0.04658,-0.0201 -0.067949,-0.0328 -0.206559,-0.48979 -0.2403987,-1.02514 -0.1190882,-1.52451 0.00327,-0.003 0.00613,-0.006 0.00936,-0.008 -0.064651,0.05 -0.122492,0.10682 -0.172266,0.16918 0.00906,-0.0111 0.01956,-0.0213 0.029044,-0.0321 -0.076208,0.42215 -0.0506,0.86284 0.091792,1.27876 -0.00144,-10e-4 -0.00323,-0.002 -0.00466,-0.003 0.1956191,0.17427 0.466182,0.28179 0.7659596,0.28179 h 0.024009 c -0.021747,-0.0313 -0.044431,-0.0617 -0.064454,-0.0945 -0.48502295,-0.79661 -0.31640305,-1.82656 0.333214,-2.45055 -0.064253,-0.0169 -0.1321923,-0.0261 -0.2025997,-0.0261 z m 0.0087,5.1e-4 c 0.022442,2.6e-4 0.044393,0.002 0.066285,0.004 -0.6378506,0.66168 -0.7935189,1.70967 -0.2978455,2.52557 0.0065,0.0107 0.01425,0.0202 0.02093,0.0307 -0.021602,-0.002 -0.043588,-0.003 -0.064787,-0.006 -0.4994301,-0.82337 -0.3529436,-1.87601 0.2754176,-2.55487 z m 0.1957758,0.0259 c 0.017684,0.005 0.03434,0.0114 0.05143,0.0172 -0.6485745,0.60599 -0.8203533,1.62316 -0.3433669,2.40657 0.025591,0.042 0.053926,0.0815 0.082388,0.12088 h 0.1335686 c -0.044025,-0.0554 -0.085996,-0.113 -0.1236237,-0.17464 -0.46083685,-0.75492 -0.28212945,-1.73768 0.3608434,-2.30599 1.946e-4,-1.3e-4 4.286e-4,-2.6e-4 6.217e-4,-5.2e-4 -0.050436,-0.0266 -0.1045521,-0.0483 -0.1618624,-0.0635 z m -1.178982,1.02252 c -0.099627,0.12578 -0.1664263,0.27393 -0.189243,0.43446 0.00508,-0.0357 0.013122,-0.0705 0.022428,-0.10494 -0.00669,0.1856 0.0054,0.37215 0.037116,0.55678 -0.017717,-0.0436 -0.035723,-0.0872 -0.046312,-0.13357 -0.00719,-0.0314 -0.012674,-0.0634 -0.016356,-0.0959 0.025772,0.22745 0.1395345,0.43105 0.3107029,0.58354 -0.026598,-0.0237 -0.048064,-0.0515 -0.071777,-0.0776 -0.1085106,-0.36406 -0.1347664,-0.74354 -0.081889,-1.11199 0.011743,-0.017 0.022562,-0.0345 0.035327,-0.0508 z"
       id="rect4519"
       inkscape:connector-curvature="0" />
  </g>
</svg>
