<?xml version="1.0" encoding="UTF-8" standalone="no"?>
<!-- Created with Inkscape (http://www.inkscape.org/) -->

<svg
   xmlns:dc="http://purl.org/dc/elements/1.1/"
   xmlns:cc="http://creativecommons.org/ns#"
   xmlns:rdf="http://www.w3.org/1999/02/22-rdf-syntax-ns#"
   xmlns:svg="http://www.w3.org/2000/svg"
   xmlns="http://www.w3.org/2000/svg"
   xmlns:xlink="http://www.w3.org/1999/xlink"
   xmlns:sodipodi="http://sodipodi.sourceforge.net/DTD/sodipodi-0.dtd"
   xmlns:inkscape="http://www.inkscape.org/namespaces/inkscape"
   width="16"
   height="16"
   viewBox="0 0 4.2333333 4.2333334"
   version="1.1"
   id="svg1037"
   inkscape:version="0.92.3 (2405546, 2018-03-11)"
   sodipodi:docname="1CD8_rundll32.0.svg">
  <defs
     id="defs1031">
    <radialGradient
       cx="5.6491151"
       cy="9.9571075"
       r="12.671875"
       fx="5.118885"
       fy="9.9571075"
       id="radialGradient3107-17"
       xlink:href="#linearGradient2867-449-88-871-390-598-476-591-434-148-57-177-8-3"
       gradientUnits="userSpaceOnUse"
       gradientTransform="matrix(-1.9132589e-7,7.8004159,-9.5764203,-2.3414749e-7,129.08903,164.10192)" />
    <linearGradient
       id="linearGradient2867-449-88-871-390-598-476-591-434-148-57-177-8-3">
      <stop
         offset="0"
         style="stop-color:#90dbec;stop-opacity:1"
         id="stop3750-1-0" />
      <stop
         offset="0.26238"
         style="stop-color:#55c1ec;stop-opacity:1"
         id="stop3752-3-7" />
      <stop
         offset="0.704952"
         style="stop-color:#3689e6;stop-opacity:1"
         id="stop3754-1-8" />
      <stop
         offset="1"
         style="stop-color:#2b63a0;stop-opacity:1"
         id="stop3756-1-6" />
    </linearGradient>
  </defs>
  <sodipodi:namedview
     id="base"
     pagecolor="#ffffff"
     bordercolor="#666666"
     borderopacity="1.0"
     inkscape:pageopacity="0.0"
     inkscape:pageshadow="2"
     inkscape:zoom="51.875041"
     inkscape:cx="4.1927734"
     inkscape:cy="7.6867299"
     inkscape:document-units="px"
     inkscape:current-layer="layer1"
     showgrid="true"
     units="px"
     inkscape:window-width="1920"
     inkscape:window-height="1009"
     inkscape:window-x="0"
     inkscape:window-y="34"
     inkscape:window-maximized="1">
    <inkscape:grid
       type="xygrid"
       id="grid1672" />
  </sodipodi:namedview>
  <metadata
     id="metadata1034">
    <rdf:RDF>
      <cc:Work
         rdf:about="">
        <dc:format>image/svg+xml</dc:format>
        <dc:type
           rdf:resource="http://purl.org/dc/dcmitype/StillImage" />
        <dc:title></dc:title>
      </cc:Work>
    </rdf:RDF>
  </metadata>
  <g
     inkscape:label="Livello 1"
     inkscape:groupmode="layer"
     id="layer1"
     transform="translate(0,-292.76665)">
    <path
       style="fill:#808080;fill-opacity:1;stroke-width:0.12199901"
       d="m 2.1166667,292.89894 c -1.0960391,0 -1.98437503,0.88847 -1.98437503,1.98438 0,1.09592 0.88833593,1.98437 1.98437503,1.98437 1.0960391,0 1.984375,-0.88845 1.984375,-1.98437 0,-1.09591 -0.8883359,-1.98438 -1.984375,-1.98438 z m -5.167e-4,0.25322 c 0.9546405,0 1.7280598,0.77354 1.7280598,1.72806 0,0.95452 -0.7734193,1.72857 -1.7280598,1.72857 -0.9545214,0 -1.72857669,-0.77405 -1.72857669,-1.72857 0,-0.9544 0.77405529,-1.72806 1.72857669,-1.72806 z m -0.5157308,0.76274 c -0.1538394,0 -0.278536,0.12458 -0.278536,0.27854 v 1.51205 c 0,0.15384 0.1246966,0.27854 0.278536,0.27854 0.1540854,0 0.278536,-0.1247 0.278536,-0.27854 v -0.32195 h 0.5400187 v -10e-4 c 0.4052808,0 0.7338053,-0.32852 0.7338053,-0.7338 0,-0.4054 -0.3284028,-0.73381 -0.7338053,-0.73381 z m 0.2764689,0.51728 h 0.00207 0.5400187 0.00207 c 0.1198033,0 0.217041,0.0968 0.217041,0.21653 0,0.11981 -0.097238,0.21704 -0.217041,0.21704 h -0.00207 -0.5400187 -0.00207 z"
       id="path4"
       inkscape:connector-curvature="0" />
  </g>
</svg>
