<svg width="16" height="16" version="1.1" xmlns="http://www.w3.org/2000/svg">
 <path d="m11.523767 2.3875608 0.126824 0.16914-0.617226 2.37808-0.234686 0.0393-1.4966189-2.37807 0.107859-0.2085zm-4.9336868 0 0.103989 0.21366-1.760848 2.51019-0.234557-0.061-0.352996-2.51019 0.130567-0.15263zm6.2676118 0.0475 2.642308 3.435-0.101537 0.21675h-3.69923l-0.125278-0.17392 1.056923-3.435zm-4.7561538 0 2.6423088 3.435-0.101538 0.21675h-5.2846169l-0.1015379-0.21675 2.6423069-3.435zm-4.9592301 0 0.226816 0.0428 1.0569231 3.435-0.125277 0.17392h-3.6992322l-0.101538-0.21672zm12.256155 4.1802096 0.09676 0.22204-6.8699988 7.6626896-0.218172-0.14192 3.1707688-7.6626896 0.121408-0.0801zm-4.756154 0 0.121924 0.18294-2.6423098 6.6057796h-0.243846l-2.642307-6.6057796 0.121922-0.18294zm-6.3415388 0 0.121406 0.0801 3.170768 7.6626896-0.21817 0.14192-6.8700002-7.6626896 0.09676-0.22204z" style="fill-rule:evenodd;fill:#808080"/>
</svg>
