<svg width="16" height="16" version="1.1" xmlns="http://www.w3.org/2000/svg">
 <g transform="translate(-452.00003,-140)">
  <path d="m457.6621 140c-0.83879 0.01-1.45125-0.0191-1.95313 0.25781-0.25093 0.13845-0.45077 0.37165-0.56054 0.66406-0.10977 0.29242-0.14844 0.63974-0.14844 1.07813v12c0 0.43839 0.0387 0.78571 0.14844 1.07812 0.10977 0.29242 0.30961 0.52757 0.56054 0.66602 0.50188 0.2769 1.11434 0.24616 1.95313 0.25586h5.67588c0.83879-0.01 1.45125 0.021 1.95312-0.25586 0.25094-0.13845 0.45078-0.3736 0.56055-0.66602 0.10967-0.29241 0.14834-0.63973 0.14834-1.07812v-12c0-0.43839-0.0387-0.78571-0.14844-1.07813-0.10976-0.29241-0.30961-0.52561-0.56054-0.66406-0.50188-0.2769-1.11434-0.24811-1.95313-0.25781h-5.67387zm2.33789 1.30273 4.24023 4.23829-2.93945 2.46875 2.93945 2.46875-4.24023 4.23828v-5.61328l-2.42773 2.03906-0.64454-0.76563 2.81836-2.36718-2.81836-2.36719 0.64454-0.76563 2.42773 2.03907zm1 2.41407v3.24023l1.75977-1.48047zm0 5.3457v3.24023l1.75977-1.75976z" style="fill:#808080"/>
 </g>
</svg>
