<svg width="16" height="16" version="1.1" xmlns="http://www.w3.org/2000/svg">
 <g transform="translate(-552,-300)">
  <path d="m560 305c-1.65685 0-3 1.34315-3 3 2e-3 1.40576 0.97903 2.62193 2.35156 2.92578 0.39666 0.10442 0.40949 0.0515 0.57418 0.0723 0.0247 9.6e-4 0.0495 2e-3 0.0743 2e-3 1.65685 0 3-1.34315 3-3s-1.34315-3-3-3zm0 1.5c0.82843 0 1.5 0.67157 1.5 1.5s-0.67157 1.5-1.5 1.5-1.5-0.67157-1.5-1.5 0.67157-1.5 1.5-1.5z" style="fill:#808080;opacity:.5"/>
  <path d="m560 300a8 8 0 0 0-8 8 8 8 0 0 0 8 8 8 8 0 0 0 8-8 8 8 0 0 0-8-8zm0 1a7 7 0 0 1 7 7 7 7 0 0 1-7 7 7 7 0 0 1-7-7 7 7 0 0 1 7-7z" style="fill:#808080"/>
  <path d="m560 302c-3.31371 0-6 2.68629-6 6 0 2.61164 1.67072 4.82807 4 5.65234l0.3-0.97234c-1.8213-0.79488-3.29901-2.6928-3.3-4.68 0-2.76142 2.23858-5 5-5z" style="fill:#808080;opacity:.5"/>
 </g>
</svg>
