<svg width="16" height="16" style="enable-background:new" version="1.1" xmlns="http://www.w3.org/2000/svg">
 <g transform="translate(-64,-204)">
  <path d="m74 204c-1.061833 0-1.916217 0.82178-1.986328 1.86523l-0.900391 0.90039-0.554687 0.55469-0.791016 0.79102c-0.246489-0.0651-0.500074-0.11133-0.767578-0.11133-1.662 0-3 1.338-3 3 0 0.8887 0.389896 1.67622 1 2.22461v2.27539 1.5h4v-1.5-2.27539c0.610104-0.54839 1-1.33591 1-2.22461 0-0.2675-0.04623-0.52109-0.111328-0.76758l0.791016-0.79101 0.554687-0.55469 0.900391-0.90039c0.129123-9e-3 0.253803-0.0309 0.375-0.0625l0.773437 0.77344 0.0098 0.01 0.144531 0.14453-0.291016 0.29102c-0.09377 0.0937-0.146457 0.22092-0.146484 0.35351v2c2.8e-5 0.27613 0.223869 0.49998 0.5 0.5l2 4e-3c0.676161 0.01 0.676161-1.00956 0-1l-1.5-2e-3v-1.29297l1.707031-1.70899h1.292969v1.5c-0.0096 0.67617 1.009563 0.67617 1 0v-2c-2.8e-5 -0.27613-0.223869-0.49997-0.5-0.5h-2c-0.1326 3e-5 -0.259761 0.0527-0.353516 0.14649l-0.294922 0.29492-0.144531-0.14453-0.0098-0.01-0.771485-0.77148c0.04366-0.16425 0.07422-0.33313 0.07422-0.51177 0-1.108-0.892-2-2-2zm0 1c0.554 0 1 0.446 1 1s-0.446 1-1 1-1-0.446-1-1 0.446-1 1-1zm-5 4c1.108 0 2 0.892 2 2 0 0.36693-0.104291 0.705-0.275391 1-0.169746 0.29267-0.412746 0.53593-0.701171 0.71094-0.01474 9e-3 -0.02993 0.0169-0.04492 0.0254-0.118062 0.0675-0.245136 0.11985-0.376954 0.16211-0.03902 0.0123-0.07716 0.0252-0.117187 0.0352-0.155483 0.0392-0.31604 0.0663-0.484377 0.0663s-0.328896-0.0272-0.484375-0.0664c-0.04003-0.01-0.07817-0.023-0.117187-0.0352-0.131818-0.0423-0.258892-0.0947-0.376954-0.16211-0.01499-8e-3 -0.03018-0.0166-0.04492-0.0254-0.288428-0.17501-0.531427-0.41822-0.701173-0.71089-0.1711-0.295-0.275391-0.63307-0.275391-1 0-1.108 0.892-2 2-2zm0 1c-0.554 0-1 0.446-1 1s0.446 1 1 1 1-0.446 1-1-0.446-1-1-1zm-3 8s-1 0-1 1v1h8v-1s0-1-1-1h-6z" style="fill-rule:evenodd;fill:#808080"/>
 </g>
</svg>
