<svg version="1.1" viewBox="0 0 16 16" xmlns="http://www.w3.org/2000/svg">
 <defs>
  <style type="text/css">.ColorScheme-Text { color:#808080; }</style>
 </defs>
 <path class="ColorScheme-Text" d="m3.5 2c-0.828 0-1.5 0.672-1.5 1.5 0 0.656 0.414 1.20225 1 1.40625v6.09375h-1v3h3v-3h-1v-6.09375c0.432-0.15 0.75625-0.47425 0.90625-0.90625h6.09375v1h3v-3h-3v1h-6.09375c-0.204-0.586-0.75025-1-1.40625-1zm0 1c0.276 0 0.5 0.224 0.5 0.5s-0.224 0.5-0.5 0.5-0.5-0.224-0.5-0.5 0.224-0.5 0.5-0.5zm8.5 0h1v1h-1zm-9 9h1v1h-1z" style="fill:currentColor"/>
</svg>
