<svg width="16" height="16" version="1.1" xmlns="http://www.w3.org/2000/svg">
 <g transform="matrix(.37795287 0 0 .37795287 -4.5961482 -91.469933)" style="fill:#808080">
  <g transform="translate(1.5875197,-1.4176813)" style="fill:#808080">
   <path d="m31.739781 244.7551a1.9843753 1.9843753 0 0 0-0.1899 0.0112c-10.84781 0.10388-19.653846 8.96044-19.653846 19.83214 0 10.93591 8.907852 19.84377 19.84375 19.84377 10.869099 0 19.724215-8.80189 19.832125-19.6461a1.9843753 1.9843753 0 0 0 0.01162-0.19763 1.9843753 1.9843753 0 0 0-1.984376-1.98439 1.9843753 1.9843753 0 0 0-1.984373 1.98439c0 8.79102-7.083976 15.87499-15.875001 15.87499s-15.875001-7.08397-15.875001-15.87499c0-8.79101 7.083976-15.87499 15.875001-15.87499a1.9843753 1.9843753 0 0 0 1.984377-1.98438 1.9843753 1.9843753 0 0 0-1.984377-1.98439zm0 7.93752a1.9843753 1.9843753 0 0 0-0.1899 7e-3c-6.464472 0.10312-11.716347 5.41046-11.716347 11.89852 0 6.55216 5.354115 11.90626 11.906251 11.90626 6.48539 0 11.787073-5.24779 11.894627-11.70859a1.9843753 1.9843753 0 0 0 0.01162-0.19763 1.9843753 1.9843753 0 0 0-1.984377-1.98439 1.9843753 1.9843753 0 0 0-1.984373 1.98439c0 4.40727-3.530235 7.93752-7.937502 7.93752s-7.937502-3.53025-7.937502-7.93752c0-4.40726 3.530235-7.93751 7.937502-7.93751a1.9843753 1.9843753 0 0 0 1.984377-1.98435 1.9843753 1.9843753 0 0 0-1.984377-1.98439zm0 7.93751a3.9687504 3.9687504 0 0 0-3.968749 3.96874 3.9687504 3.9687504 0 0 0 3.968749 3.96874 3.9687504 3.9687504 0 0 0 3.96875-3.96874 3.9687504 3.9687504 0 0 0-3.96875-3.96874z" style="fill:#808080"/>
  </g>
 </g>
</svg>
