<svg width="16" height="16" version="1.1" xmlns="http://www.w3.org/2000/svg">
 <defs>
  <style type="text/css">.ColorScheme-Text { color:#5c616c; } .ColorScheme-Highlight { color:#5294e2; } .ColorScheme-ButtonBackground { color:#808080; }</style>
 </defs>
 <path class="ColorScheme-ButtonBackground" d="m9.4685803 0.50879071c-0.127491-0.017596-0.261213-0.00882-0.393737 0.026696-0.530094 0.1420325-0.84154 0.68253689-0.699507 1.212611l0.513134 1.9138096-3.8283992 1.0253012-0.5127382-1.9139087c-0.141954-0.5300345-0.682033-0.8433402-1.2121069-0.7012977-0.530173 0.1420425-0.8421152 0.6843595-0.7000621 1.2144931l0.513184 1.9120267-1.9140511 0.5126408c-0.53009373 0.142033-0.84204583 0.684409-0.70000273 1.214493 0.1420432 0.530054 0.68258783 0.841478 1.2127013 0.699455l1.9140512-0.51264 1.0253774 3.8278173-1.9140511 0.512641c-0.5300937 0.142032-0.8434129 0.682042-0.7013697 1.212116 0.1420432 0.530054 0.68446 0.841983 1.2145834 0.69995l1.912169-0.513146 0.5126789 1.913909c0.1420431 0.530054 0.68446 0.841983 1.2145838 0.699951 0.530093-0.142023 0.84154-0.682537 0.699507-1.212611l-0.512679-1.913909 3.8281017-1.025301 0.512679 1.913908c0.142043 0.530055 0.682093 0.843351 1.212206 0.701318 0.530094-0.142033 0.842046-0.684409 0.700003-1.214493l-0.513184-1.912027 1.914051-0.512641c0.530094-0.142032 0.842046-0.6844093 0.700003-1.2144933-0.142034-0.530054-0.682588-0.841478-1.212702-0.699455l-1.912862 0.514087-1.025278-3.8283129 1.913853-0.5126011c0.529974-0.1420425 0.843997-0.6820813 0.701349-1.2121158-0.141656-0.5300345-0.684509-0.8419535-1.214484-0.70001l-1.911872 0.5131954-0.513134-1.9139088c-0.105995-0.39760009-0.4378487-0.67385989-0.8202227-0.72665529zm-0.06738 5.065291 1.0253767 3.827818-3.8281017 1.0253013-1.0253776-3.8278183z" style="fill:currentColor"/>
</svg>
