<?xml version="1.0" encoding="UTF-8" standalone="no"?>
<!-- Created with Inkscape (http://www.inkscape.org/) -->

<svg
   xmlns:dc="http://purl.org/dc/elements/1.1/"
   xmlns:cc="http://creativecommons.org/ns#"
   xmlns:rdf="http://www.w3.org/1999/02/22-rdf-syntax-ns#"
   xmlns:svg="http://www.w3.org/2000/svg"
   xmlns="http://www.w3.org/2000/svg"
   xmlns:xlink="http://www.w3.org/1999/xlink"
   xmlns:sodipodi="http://sodipodi.sourceforge.net/DTD/sodipodi-0.dtd"
   xmlns:inkscape="http://www.inkscape.org/namespaces/inkscape"
   width="16"
   height="16"
   id="svg8438"
   version="1.1"
   inkscape:version="0.92.3 (2405546, 2018-03-11)"
   sodipodi:docname="corebird-symbolic.svg">
  <defs
     id="defs8440">
    <linearGradient
       id="linearGradient7343-2-3-0">
      <stop
         id="stop7345-3-5-2"
         offset="0"
         style="stop-color:#388ccc;stop-opacity:1;" />
      <stop
         id="stop7347-8-3-0"
         offset="1"
         style="stop-color:#78b1dc;stop-opacity:1;" />
    </linearGradient>
    <radialGradient
       inkscape:collect="always"
       xlink:href="#linearGradient4051"
       id="radialGradient6513"
       gradientUnits="userSpaceOnUse"
       gradientTransform="matrix(0.13751789,0.44306231,-0.54409782,0.15189019,360.31067,-46.531649)"
       cx="226.45587"
       cy="450.74283"
       fx="226.45587"
       fy="450.74283"
       r="30.253544" />
    <linearGradient
       id="linearGradient4051">
      <stop
         id="stop4053"
         offset="0"
         style="stop-color:#d0e2f1;stop-opacity:1" />
      <stop
         id="stop4055"
         offset="1"
         style="stop-color:#9ac1e2;stop-opacity:1" />
    </linearGradient>
    <radialGradient
       r="30.253544"
       fy="450.74283"
       fx="226.45587"
       cy="450.74283"
       cx="226.45587"
       gradientTransform="matrix(0.13751789,0.44306231,-0.54409782,0.15189019,574.26317,352.38433)"
       gradientUnits="userSpaceOnUse"
       id="radialGradient8417"
       xlink:href="#linearGradient4051"
       inkscape:collect="always" />
  </defs>
  <sodipodi:namedview
     id="base"
     pagecolor="#ffffff"
     bordercolor="#666666"
     borderopacity="1.0"
     inkscape:pageopacity="0.0"
     inkscape:pageshadow="2"
     inkscape:zoom="15.839192"
     inkscape:cx="-31.450206"
     inkscape:cy="-1.4462247"
     inkscape:document-units="px"
     inkscape:current-layer="g7488-3-8"
     showgrid="false"
     fit-margin-top="0"
     fit-margin-left="0"
     fit-margin-right="0"
     fit-margin-bottom="0"
     inkscape:window-width="1920"
     inkscape:window-height="1009"
     inkscape:window-x="0"
     inkscape:window-y="34"
     inkscape:window-maximized="1" />
  <metadata
     id="metadata8443">
    <rdf:RDF>
      <cc:Work
         rdf:about="">
        <dc:format>image/svg+xml</dc:format>
        <dc:type
           rdf:resource="http://purl.org/dc/dcmitype/StillImage" />
        <dc:title />
      </cc:Work>
    </rdf:RDF>
  </metadata>
  <g
     inkscape:label="Capa 1"
     inkscape:groupmode="layer"
     id="layer1"
     transform="translate(-347.95251,-514.91595)">
    <g
       style="display:inline;enable-background:new"
       id="g7681"
       transform="matrix(0.94623834,0,0,0.94623834,218.78412,401.93622)">
      <g
         transform="matrix(0.55877312,0,0,0.55931783,61.077361,88.785543)"
         id="g7488-3-8"
         style="display:inline;enable-background:new">
        <path
           style="fill:#808080;fill-opacity:1;stroke-width:0.44444445"
           d="M 4.4453125 1.6660156 A 4.4444444 4.4444444 0 0 0 0 6.109375 A 4.4444444 4.4444444 0 0 0 3.6386719 10.478516 C 3.6660725 10.544538 3.6968169 10.609182 3.7402344 10.669922 C 3.7444642 10.679925 3.7490419 10.682451 3.7539062 10.689453 C 3.7719889 10.712454 3.7898946 10.737716 3.8105469 10.761719 L 7.3730469 14.71875 C 7.553995 14.91945 7.7759327 14.9996 7.9941406 15 L 7.9980469 15 L 8.0019531 15 C 8.2202668 14.9997 8.443962 14.91925 8.625 14.71875 L 12.189453 10.761719 C 12.210127 10.739718 12.226079 10.714456 12.244141 10.689453 C 12.248899 10.679456 12.255324 10.676924 12.259766 10.669922 C 12.303217 10.608848 12.331969 10.544351 12.359375 10.478516 A 4.4444444 4.4444444 0 0 0 16 6.109375 A 4.4444444 4.4444444 0 0 0 11.554688 1.6660156 A 4.4444444 4.4444444 0 0 0 8 3.4511719 A 4.4444444 4.4444444 0 0 0 4.4453125 1.6660156 z M 4.4453125 5.2207031 A 1.3333333 1.3333333 0 0 1 5.7773438 6.5546875 A 1.3333333 1.3333333 0 0 1 4.4453125 7.8886719 A 1.3333333 1.3333333 0 0 1 3.1113281 6.5546875 A 1.3333333 1.3333333 0 0 1 4.4453125 5.2207031 z M 11.554688 5.2207031 A 1.3333333 1.3333333 0 0 1 12.888672 6.5546875 A 1.3333333 1.3333333 0 0 1 11.554688 7.8886719 A 1.3333333 1.3333333 0 0 1 10.222656 6.5546875 A 1.3333333 1.3333333 0 0 1 11.554688 5.2207031 z "
           transform="matrix(1.8913154,0,0,1.8894735,134.99197,54.733219)"
           id="circle963" />
      </g>
    </g>
  </g>
</svg>
