<svg width="16" height="16" version="1.1" viewBox="0 0 16 16" xmlns="http://www.w3.org/2000/svg">
 <g transform="translate(-516,-507.99841)">
  <path d="m520.88889 507.99841c-0.24622 0-0.44445 0.19822-0.44445 0.44444v1.47223c0.28394-0.0738 0.58283-0.13889 0.88889-0.13889h0.88889v-1.33334c0-0.24622-0.19822-0.44444-0.44444-0.44444zm2.66667 0c-0.24623 0-0.44445 0.19822-0.44445 0.44444v1.33334h1.77778v-1.33334c0-0.24622-0.19822-0.44444-0.44445-0.44444zm2.66666 0c-0.24622 0-0.44444 0.19822-0.44444 0.44444v1.33334h0.88889c0.30604 0 0.60497 0.0652 0.88889 0.13889v-1.47223c0-0.24622-0.19823-0.44444-0.44445-0.44444zm-4.88889 2.66667c-1.47733 0-2.66666 1.18933-2.66666 2.66666v5.33334c0 1.47733 1.18933 2.66666 2.66666 2.66666h5.33334c1.47733 0 2.66666-1.18933 2.66666-2.66666v-5.33334c0-1.47733-1.18933-2.66666-2.66666-2.66666zm-4.88889 1.77777c-0.24622 0-0.44444 0.19823-0.44444 0.44445v0.88889c0 0.24622 0.19822 0.44444 0.44444 0.44444h1.33334v-0.88889c0-0.30606 0.0652-0.60495 0.13889-0.88889zm4.88889 0h5.33334c0.49244 0 0.88889 0.39645 0.88889 0.88889v5.33334c0 0.49244-0.39645 0.88889-0.88889 0.88889h-5.33334c-0.49244 0-0.88889-0.39645-0.88889-0.88889v-5.33334c0-0.49244 0.39645-0.88889 0.88889-0.88889zm8.75005 0c0.0738 0.28394 0.13884 0.58283 0.13884 0.88889v0.88889h1.33334c0.24622 0 0.44444-0.19822 0.44444-0.44444v-0.88889c0-0.24622-0.19822-0.44445-0.44444-0.44445zm-8.75005 0.88889v5.33334h5.33334v-5.33334zm-4.88889 1.77778c-0.24622 0-0.44444 0.19822-0.44444 0.44445v0.88888c0 0.24623 0.19822 0.44445 0.44444 0.44445h1.33334v-1.77778zm13.77778 0v1.77778h1.33334c0.24622 0 0.44444-0.19822 0.44444-0.44445v-0.88888c0-0.24623-0.19822-0.44445-0.44444-0.44445zm-13.77778 2.66667c-0.24622 0-0.44444 0.19822-0.44444 0.44444v0.88889c0 0.24622 0.19822 0.44445 0.44444 0.44445h1.47223c-0.0738-0.28394-0.13889-0.58283-0.13889-0.88889v-0.88889zm13.77778 0v0.88889c0 0.30606-0.0649 0.60495-0.13884 0.88889h1.47218c0.24622 0 0.44444-0.19823 0.44444-0.44445v-0.88889c0-0.24622-0.19822-0.44444-0.44444-0.44444zm-9.77778 4.30555v1.47223c0 0.24621 0.19823 0.44444 0.44445 0.44444h0.88889c0.24622 0 0.44444-0.19823 0.44444-0.44444v-1.33334h-0.88889c-0.30606 0-0.60495-0.0652-0.88889-0.13889zm7.11112 0c-0.28392 0.0738-0.58285 0.13889-0.88889 0.13889h-0.88889v1.33334c0 0.24621 0.19822 0.44444 0.44444 0.44444h0.88889c0.24622 0 0.44445-0.19823 0.44445-0.44444zm-4.44445 0.13889v1.33334c0 0.24621 0.19822 0.44444 0.44445 0.44444h0.88888c0.24623 0 0.44445-0.19823 0.44445-0.44444v-1.33334z" style="fill:#808080"/>
 </g>
</svg>
