<svg width="16" height="16" version="1.1" xmlns="http://www.w3.org/2000/svg">
 <g transform="translate(-652,-219.99994)">
  <path d="m653 222c-0.554 0-1 0.446-1 1v3c0 0.554 0.446 1 1 1h5c0.554 0 1-0.446 1-1v-3c0-0.554-0.446-1-1-1zm0.5 1h2c0.277 0 0.5 0.223 0.5 0.5v2c0 0.277-0.223 0.5-0.5 0.5h-2c-0.277 0-0.5-0.223-0.5-0.5v-2c0-0.277 0.223-0.5 0.5-0.5z" style="fill:#808080;opacity:.5"/>
  <path d="m661 222c-0.554 0-1 0.446-1 1v3c0 0.554 0.446 1 1 1h5c0.554 0 1-0.446 1-1v-3c0-0.554-0.446-1-1-1zm2.5 1h2c0.277 0 0.5 0.223 0.5 0.5v2c0 0.277-0.223 0.5-0.5 0.5h-2c-0.277 0-0.5-0.223-0.5-0.5v-2c0-0.277 0.223-0.5 0.5-0.5z" style="fill:#808080"/>
  <path d="m653 228c-0.554 0-1 0.446-1 1v3c0 0.554 0.446 1 1 1h5c0.554 0 1-0.446 1-1v-3c0-0.554-0.446-1-1-1zm2.5 1h2c0.277 0 0.5 0.223 0.5 0.5v2c0 0.277-0.223 0.5-0.5 0.5h-2c-0.277 0-0.5-0.223-0.5-0.5v-2c0-0.277 0.223-0.5 0.5-0.5z" style="fill:#808080"/>
  <path d="m661 228c-0.554 0-1 0.446-1 1v3c0 0.554 0.446 1 1 1h5c0.554 0 1-0.446 1-1v-3c0-0.554-0.446-1-1-1zm0.5 1h2c0.277 0 0.5 0.223 0.5 0.5v2c0 0.277-0.223 0.5-0.5 0.5h-2c-0.277 0-0.5-0.223-0.5-0.5v-2c0-0.277 0.223-0.5 0.5-0.5z" style="fill:#808080;opacity:.5"/>
 </g>
</svg>
