<svg width="16" height="16" version="1.1" viewBox="0 0 4.23 4.23" xmlns="http://www.w3.org/2000/svg">
 <g transform="translate(0,-292.76665)">
  <g transform="matrix(.09375 0 0 .09375 -1.0607606 270.2901)" style="fill:#808080">
   <path transform="matrix(.26458333 0 0 .26458333 21.33969 248.60338)" d="m-32.556092-14.262155v22.222221a44.444442 44.444442 0 0 1 44.444442 44.444442 44.444442 44.444442 0 0 1-44.444442 44.444442v22.22222a66.666663 66.666663 0 0 0 66.666663-66.666662 66.666663 66.666663 0 0 0-66.666663-66.666663z" style="fill:#808080"/>
   <g transform="matrix(-.58796292 0 0 .58796292 63.878668 234.24652)" style="fill:#808080">
    <path d="m15 18v10a20 20 0 0 1 20 20 20 20 0 0 1-20 20v10a30 30 0 0 0 30-30 30 30 0 0 0-30-30z" style="fill:#808080"/>
   </g>
  </g>
 </g>
</svg>
