<svg width="16" height="16" version="1.1" xmlns="http://www.w3.org/2000/svg">
 <g transform="translate(-452,-140)">
  <path d="m460 140c-1.43719-8.2e-4 -2.59548 0.26776-3.53711 0.69922-0.19253 0.0849-0.3801 0.17695-0.56055 0.2793-0.0489 0.0286-0.0932 0.0602-0.14062 0.0898-0.11916 0.0722-0.23898 0.14417-0.35156 0.22461-0.0931 0.0665-0.17671 0.14019-0.26368 0.21094-0.61254 0.49828-1.06089 1.10259-1.39453 1.75976-0.0166 0.033-0.0388 0.0645-0.0547 0.0977-0.0164 0.0341-0.0273 0.0692-0.043 0.10351-0.20436 0.44371-0.37317 0.902-0.47266 1.37891-0.0186 0.0893-0.0217 0.18147-0.0371 0.27148-0.0451 0.24538-0.0797 0.48765-0.10156 0.72657-2e-3 0.0216-4e-3 0.0428-6e-3 0.0645-0.0241 0.28728-0.017 0.54917-0.0137 0.81836 2e-3 0.0999-7.9e-4 0.19901 4e-3 0.29883 0.0132 0.28766 0.0348 0.54468 0.0703 0.79492 0.0213 0.17484 0.0492 0.34669 0.0781 0.51953 5e-3 0.023 7e-3 0.0557 0.0117 0.0781v2e-3l0.0215 0.0976c0.031 0.16986 0.0542 0.3429 0.0918 0.50977l0.10938 0.48828 8e-3 -2e-3 1.05469 5.00781 1.17382-0.20703c0.66034-0.11709 1.13106-0.21985 1.34961-0.39453 0.10972-0.0877 0.17262-0.18253 0.20508-0.35156 0.0325-0.16904 0.0242-0.41548-0.0469-0.75196l-0.79102-3.74023c-0.0711-0.33649-0.16295-0.56845-0.26367-0.7168s-0.20256-0.21859-0.34375-0.26367c-0.28239-0.0902-0.75932-0.024-1.42383 0.0937l-0.16211 0.0293c-0.18209-1.06859-0.21795-2.17204-0.01-3.16992 0.24666-1.18237 0.80309-2.20573 1.83007-2.93946 1.01145-0.72263 2.51511-1.08713 4.00977-1.08398 1.49466-3e-3 2.99832 0.36135 4.00977 1.08398 1.02698 0.73373 1.58341 1.75709 1.83007 2.93946 0.20795 0.99788 0.17233 2.10133-0.01 3.16992l-0.16211-0.0293c-0.66451-0.1177-1.14144-0.18395-1.42383-0.0937-0.14119 0.0451-0.24303 0.11532-0.34375 0.26367s-0.19257 0.38031-0.26367 0.7168l-0.79102 3.74023c-0.0711 0.33648-0.0794 0.58292-0.0469 0.75196 0.0325 0.16903 0.0954 0.26386 0.20508 0.35156 0.21855 0.17468 0.68927 0.27744 1.34961 0.39453l1.17382 0.20703 1.05469-5.00781 8e-3 2e-3 0.10938-0.48828c0.0376-0.16687 0.0608-0.3399 0.0918-0.50977l0.0215-0.0976v-2e-3c5e-3 -0.0224 7e-3 -0.0551 0.0117-0.0781 0.0289-0.17284 0.0568-0.34469 0.0781-0.51953 0.0355-0.25024 0.0571-0.50726 0.0703-0.79492 5e-3 -0.0998 2e-3 -0.19893 4e-3 -0.29883 3e-3 -0.26919 0.0104-0.53108-0.0137-0.81836-2e-3 -0.0217-4e-3 -0.0428-6e-3 -0.0645-0.0219-0.23892-0.0565-0.48119-0.10156-0.72657-0.0154-0.09-0.0185-0.18218-0.0371-0.27148-0.0995-0.47691-0.2683-0.9352-0.47266-1.37891-0.0157-0.0343-0.0266-0.0694-0.043-0.10351-0.0159-0.0332-0.0381-0.0647-0.0547-0.0977-0.33364-0.65717-0.78199-1.26148-1.39453-1.75976-0.087-0.0708-0.17058-0.14444-0.26368-0.21094-0.11258-0.0804-0.2324-0.15241-0.35156-0.22461-0.0474-0.0296-0.0917-0.0612-0.14062-0.0898-0.18045-0.10235-0.36802-0.1944-0.56055-0.2793-0.94117-0.43146-2.09946-0.70004-3.53665-0.69922z" style="fill:#808080"/>
 </g>
</svg>
