<svg width="16" height="16" style="isolation:isolate" viewBox="0 0 16 16" xmlns="http://www.w3.org/2000/svg">
 <defs>
  <clipPath id="_clipPath_iWUsIyE4qRFvtwiYuHbGFIfmw1HdbGtQ">
   <rect width="16" height="16"/>
  </clipPath>
 </defs>
 <g clip-path="url(#_clipPath_iWUsIyE4qRFvtwiYuHbGFIfmw1HdbGtQ)">
  <rect width="16" height="16" fill-opacity="0" style="fill:rgb(0,0,0)"/>
  <path d="m5.764 0.643c-0.628-0.015-1.228 0.121-1.764 0.431-1.155 0.666-1.749 1.992-1.839 3.557-1.31 0.861-2.161 2.038-2.161 3.371s0.851 2.51 2.161 3.37c0.09 1.565 0.685 2.891 1.84 3.558 1.154 0.666 2.599 0.518 3.999-0.186 1.4 0.704 2.846 0.852 4 0.186 1.154-0.667 1.749-1.992 1.839-3.557 1.31-0.861 2.161-2.038 2.161-3.371s-0.851-2.511-2.161-3.371c-0.09-1.565-0.685-2.891-1.839-3.557-1.155-0.667-2.601-0.519-4.001 0.186-0.75-0.377-1.511-0.601-2.235-0.617zm4.472 0.632c0.529-0.014 1.019 0.099 1.448 0.347 0.826 0.477 1.33 1.406 1.485 2.616-0.732-0.381-1.573-0.678-2.491-0.877-0.631-0.695-1.308-1.275-2.003-1.718 0.542-0.227 1.069-0.355 1.561-0.368zm-4.472 0c0.492 0.013 1.018 0.141 1.56 0.368-0.695 0.443-1.373 1.023-2.003 1.718-0.918 0.199-1.759 0.496-2.49 0.877 0.154-1.21 0.66-2.139 1.486-2.616 0.428-0.248 0.918-0.36 1.447-0.347zm2.235 0.698c0.541 0.306 1.084 0.712 1.607 1.2-0.519-0.064-1.056-0.098-1.606-0.098s-1.087 0.034-1.607 0.098c0.523-0.488 1.065-0.894 1.606-1.2zm1e-3 1.736c0.821 0 1.609 0.082 2.346 0.228 0.495 0.566 0.961 1.207 1.372 1.918 0.411 0.712 0.733 1.435 0.975 2.147-0.242 0.711-0.564 1.435-0.975 2.146-0.411 0.712-0.876 1.353-1.372 1.918-0.737 0.146-1.524 0.229-2.346 0.229s-1.609-0.083-2.346-0.229c-0.496-0.565-0.962-1.206-1.372-1.917-0.411-0.712-0.733-1.436-0.975-2.147 0.242-0.712 0.564-1.435 0.975-2.147 0.41-0.711 0.876-1.352 1.372-1.918 0.737-0.146 1.524-0.228 2.346-0.228zm-3.379 0.488c-0.315 0.417-0.612 0.865-0.888 1.341-0.275 0.477-0.513 0.959-0.717 1.441-0.162-0.697-0.243-1.37-0.237-1.992 0.535-0.315 1.158-0.582 1.842-0.79zm6.757 0c0.685 0.208 1.307 0.475 1.843 0.79 5e-3 0.622-0.075 1.294-0.237 1.992-0.203-0.482-0.442-0.964-0.717-1.44-0.276-0.476-0.574-0.925-0.889-1.342zm-4.577 0.731-0.594 2.61-1.034 0.156-0.246 0.922 1.071-0.162-0.457 2.006h4.457l0.43-1.229h-2.763l0.243-1.067 1.075-0.162 0.246-0.922-1.112 0.168 0.528-2.32h-1.844zm7.043 0.479c0.97 0.738 1.522 1.64 1.522 2.595 0 0.954-0.552 1.856-1.522 2.595-0.036-0.824-0.199-1.701-0.486-2.595 0.287-0.894 0.45-1.771 0.486-2.595zm-11.689 0c0.037 0.824 0.2 1.701 0.486 2.595-0.286 0.894-0.449 1.77-0.486 2.594-0.969-0.738-1.521-1.64-1.521-2.594s0.552-1.856 1.521-2.595zm0.861 3.617c0.204 0.482 0.442 0.964 0.717 1.441 0.276 0.476 0.573 0.924 0.888 1.342-0.684-0.209-1.307-0.475-1.842-0.791-6e-3 -0.621 0.075-1.294 0.237-1.992zm9.968 0c0.162 0.698 0.242 1.37 0.237 1.992-0.536 0.316-1.158 0.582-1.843 0.791 0.315-0.418 0.613-0.866 0.888-1.342s0.515-0.959 0.718-1.441zm-10.153 2.742c0.731 0.38 1.572 0.678 2.49 0.877 0.63 0.694 1.308 1.274 2.003 1.717-1.125 0.471-2.181 0.498-3.007 0.021s-1.332-1.406-1.486-2.615zm10.338 0c-0.155 1.209-0.66 2.138-1.486 2.615s-1.883 0.45-3.008-0.021c0.695-0.443 1.372-1.023 2.003-1.717 0.918-0.199 1.759-0.497 2.491-0.877zm-6.775 1.064c0.519 0.064 1.056 0.098 1.606 0.098s1.087-0.034 1.606-0.098c-0.524 0.489-1.065 0.895-1.607 1.2-0.541-0.305-1.082-0.711-1.605-1.2z" fill="#808080"/>
 </g>
</svg>
