<svg width="16" height="16" version="1.1" xmlns="http://www.w3.org/2000/svg">
 <path d="m11 1a10 10 0 0 0-10 10 10 10 0 0 0 0.6035156 3.392578 10 10 0 0 0 3.3964844 0.607422 10 10 0 0 0 5.513672-1.664062 2 2 0 0 1-0.513672-1.335938 2 2 0 0 1 2-2 2 2 0 0 1 1.333984 0.513672 10 10 0 0 0 1.666016-5.513672 10 10 0 0 0-0.603516-3.3925781 10 10 0 0 0-3.396484-0.6074219zm-0.003906 0.9980469h0.003906c0.867661 0.0034839 1.718133 0.2065392 2.548828 0.4570312 0.248952 0.8296927 0.450429 1.6786615 0.453125 2.5449219v0.0019531c-3.24e-4 1.444458-0.368902 2.8808678-1.035156 4.1621094a3 3 0 0 0-0.966797-0.1640625 3 3 0 0 0-3 3 3 3 0 0 0 0.1640625 0.96875c-1.2802511 0.665407-2.7169638 1.032529-4.1601563 1.033203-0.8689512-0.003112-1.7208059-0.206167-2.5527343-0.457031-0.2491373-0.83031-0.450615-1.67997-0.453125-2.546875 5.289e-4 -2.3558825 0.9708529-4.6974155 2.6367187-6.3632814 1.6654115-1.6654114 4.0060963-2.6356612 6.3613284-2.6367187z" fill="#808080"/>
 <path d="m15.477089 0.00679278c-2.928208 2.8181775-6.0120721 5.4309545-9.2641984 7.8682072l0.6992188 0.6992188c3.1670076-2.4018906 6.2245606-5.033179 9.0834436-7.7946644z" fill="#808080"/>
</svg>
