<svg width="16" height="16" version="1.1" xmlns="http://www.w3.org/2000/svg">
 <path d="m8 0.50000025c-4.1365835 0-7.5 3.3634166-7.5 7.5 0 4.1365838 3.3634165 7.4999998 7.5 7.4999998 4.136583 0 7.500001-3.363417 7.500001-7.4999998 0-4.1365832-3.363418-7.4999998-7.500001-7.5zm0 0.93750005c3.629921 2e-7 6.562501 2.9325792 6.562501 6.5624999 0 3.6299208-2.93258 6.5624998-6.562501 6.5624998-3.6299209 0-6.5625-2.932579-6.5625-6.5624998 0-3.6299209 2.9325791-6.5624999 6.5625-6.5624999z" style="fill:#808080"/>
 <path d="m8 2.2578128c-3.1657705 0-5.7421876 2.576417-5.7421876 5.7421874 0 3.1657708 2.5764171 5.7421878 5.7421876 5.7421878 3.165771-1e-6 5.742188-2.576418 5.742188-5.7421878 0-3.1657702-2.576417-5.7421872-5.742188-5.7421874zm0 0.9375c2.659108 2e-7 4.804688 2.1455797 4.804688 4.8046874 0 2.6591078-2.14558 4.8046868-4.804688 4.8046878-2.6591079 0-4.8046876-2.14558-4.8046876-4.8046878s2.1455797-4.8046874 4.8046876-4.8046874z" style="fill:#808080"/>
 <path d="m11.443723 8.0854643a3.4438774 3.4438774 0 0 1-3.4438782 3.4438777 3.4438774 3.4438774 0 0 1-3.4438775-3.4438777 3.4438774 3.4438774 0 0 1 3.4438775-3.4438775 3.4438774 3.4438774 0 0 1 3.4438782 3.4438775z" style="fill:#808080"/>
</svg>
