<svg width="16" height="16" version="1.1" xmlns="http://www.w3.org/2000/svg">
 <path d="m13.127883 5.7608113c-0.571257 0-1.036676-0.4654185-1.036676-1.0366757s0.459991-1.0366757 1.036676-1.0366757c0.571257 0 1.036676 0.4599909 1.036676 1.0366757 0 0.5712572-0.465419 1.0366757-1.036676 1.0366757m-4.9441562 7.9317907c0 0.571258-0.4654186 1.036676-1.0366757 1.036676-0.5712572 0-1.0366758-0.465418-1.0366758-1.036676 0-0.571257 0.459991-1.038032 1.0366758-1.038032 0.5712571 0.0065 1.0366757 0.465418 1.0366757 1.038032m4.9441562-10.764059c-0.993255 0-1.79505 0.8005742-1.79505 1.7950501 0 0.7205168 0.421997 1.335195 1.036676 1.6210949-0.067846 1.1859353-0.949834 1.5839157-2.4906003 2.1677921-0.6526715 0.2415291-1.3665394 0.515624-1.9813533 0.9254095v-4.3540381h1.8198816l-2.6087864-4.5838978-2.6086506 4.5838978h1.9006174v6.9937628c-0.6146782 0.286307-1.0434603 0.900985-1.0434603 1.627336 0 0.993255 0.8005742 1.79505 1.7950502 1.79505 0.9932547 0 1.7950501-0.800574 1.7950501-1.79505 0-0.720516-0.4219975-1.335195-1.0366757-1.621095 0.067845-1.185935 0.9498338-1.58378 2.4907353-2.1676565 1.515528-0.5712573 3.391314-1.2795619 3.465808-3.5527855 0.621463-0.286307 1.055672-0.9064128 1.055672-1.6273366 0-1.0000393-0.801931-1.8075337-1.79505-1.8075337" style="fill:#808080"/>
</svg>
