<svg width="16" height="16" version="1.1" xmlns="http://www.w3.org/2000/svg">
 <path d="m6.809681 15.475026c-0.659181-0.06181-1.9438615-0.289788-2.0109645-0.356888-0.04424-0.04424 0.06386-0.160532 0.1997875-0.214924 0.08015-0.03211 0.304463-0.08259 0.498463-0.11226 1.289322-0.197185 1.79739-0.498803 2.012297-1.194594 0.154696-0.500845 0.257114-2.23668 0.251965-4.2704519-4e-3 -1.5932829-0.03675-2.2254819-0.134611-2.6011979-0.02786-0.106958-0.04632-0.198794-0.04103-0.20409 0.0053-5e-3 0.096 0.01361 0.201575 0.04201 0.201796 0.05426 0.50857 0.0417 0.634967-0.02592 0.03803-0.02029 0.07716-0.02902 0.08696-0.01918 0.0098 0.0098-0.0079 0.131062-0.03941 0.269463-0.08553 0.37605-0.122096 1.156463-0.123109 2.6274989-0.0012 1.6841539 0.09946 3.5898769 0.215033 4.0725749 0.04584 0.19145 0.169676 0.449746 0.293389 0.611942 0.239807 0.314401 0.8108654 0.549105 1.651756 0.678863 0.499808 0.07712 0.741866 0.159994 0.803453 0.275075 0.03433 0.06415 0.02492 0.07506-0.09301 0.107879-0.273442 0.07608-0.985572 0.211119-1.4053736 0.266494-0.5077584 0.06697-2.4651384 0.09813-3.0021314 0.04783zm1.059254-9.0406428c-0.293053-0.05872-0.407308-0.14937-0.712098-0.564913-0.828729-1.129864-1.751461-2.174425-3.5465315-4.014786-0.585748-0.600527-1.07966-1.11869-1.097583-1.151482-0.02477-0.04529-0.01471-0.0692 0.04202-0.09955 0.257434-0.137776 10.729742-0.138419 10.987118-6.22e-4 0.04124 0.02203 0.07498 0.05853 0.07498 0.08096 0 0.02246-0.389588 0.43426498-0.865752 0.91511998-1.742727 1.759913-2.7765269 2.921022-3.684496 4.138242-0.321744 0.431326-0.404249 0.520007-0.557982 0.599729-0.204492 0.106054-0.42719 0.139954-0.639674 0.09736z" style="fill:#808080"/>
</svg>
