<svg width="16" height="16" style="enable-background:new" version="1.1" xmlns="http://www.w3.org/2000/svg">
 <defs>
  <filter id="filter1085" x="-.3" y="-.11" width="1.608" height="1.215" style="color-interpolation-filters:sRGB">
   <feGaussianBlur stdDeviation=".804"/>
  </filter>
 </defs>
 <g transform="translate(-618.99999,-286)">
  <g transform="matrix(.32471675 0 0 .32471675 602.69229 209.4539)" style="fill:#808080">
   <path d="m53.300915 241.58369c0.353281 3.8895 3.186889 4.78926 3.340953 8.94447 0.08176 1.75488-2.227692 5.78877-2.204145 8.12238 0.01181 1.10592 0.550546 2.14425 1.461009 2.78519 1.725084 1.21379 5.344793 1.7052 10.172327 1.7052h0.288413c-4.077057 0-7.134417 1.08171-8.591322 2.05205-0.768928 0.51241-1.223805 1.3432-1.233648 2.22731 0.178392 5.9185 1.000731 12.78195 7.782925 12.96592 7.805208-0.0876 9.402294-12.22606 9.462875-17.24528-0.09728-3.38035-8.622904-21.55724-20.479387-21.55724zm43.114499 0c-11.856482 0-20.382091 18.17689-20.479387 21.55724 0.06058 5.01922 1.657666 17.15753 9.462875 17.24528 6.782199-0.18414 7.604543-7.04742 7.782924-12.96592-0.0098-0.88411-0.464749-1.7149-1.233645-2.22731-1.456909-0.97034-4.514272-2.05205-8.591324-2.05205h0.288414c4.827509 0 8.447244-0.49141 10.172328-1.7052 0.910434-0.64094 1.449356-1.67927 1.461007-2.78519 0.02363-2.33361-2.285914-6.3675-2.204146-8.12238 0.154073-4.15521 2.987687-5.05497 3.340954-8.94447zm-37.725186 3.23306a1.0778619 1.0778619 0 0 1 1.077862 1.07786 1.0778619 1.0778619 0 0 1-1.077862 1.07787 1.0778619 1.0778619 0 0 1-1.077863-1.07787 1.0778619 1.0778619 0 0 1 1.077863-1.07786zm32.335873 0a1.0778621 1.0778621 0 0 1 1.077863 1.07786 1.0778621 1.0778621 0 0 1-1.077863 1.07787 1.0778621 1.0778621 0 0 1-1.077862-1.07787 1.0778621 1.0778621 0 0 1 1.077862-1.07786zm-28.563355 4.98511a1.616793 1.616793 0 0 1 1.616793 1.61679 1.616793 1.616793 0 0 1-1.616793 1.6168 1.616793 1.616793 0 0 1-1.616794-1.6168 1.616793 1.616793 0 0 1 1.616794-1.61679zm24.790837 0a1.6167933 1.6167933 0 0 1 1.616794 1.61679 1.6167933 1.6167933 0 0 1-1.616794 1.6168 1.6167933 1.6167933 0 0 1-1.616794-1.6168 1.6167933 1.6167933 0 0 1 1.616794-1.61679zm-27.485493 5.79351a2.1557242 2.1557242 0 0 1 2.155725 2.15573 2.1557242 2.1557242 0 0 1-2.155725 2.15573 2.1557242 2.1557242 0 0 1-2.155725-2.15573 2.1557242 2.1557242 0 0 1 2.155725-2.15573zm30.180149 0a2.1557243 2.1557243 0 0 1 2.155725 2.15573 2.1557243 2.1557243 0 0 1-2.155725 2.15573 2.1557243 2.1557243 0 0 1-2.155725-2.15573 2.1557243 2.1557243 0 0 1 2.155725-2.15573zm-28.563356 11.85702a1.6167931 1.6167931 0 0 1 1.616794 1.61679 1.6167931 1.6167931 0 0 1-1.616794 1.6168 1.6167931 1.6167931 0 0 1-1.616793-1.6168 1.6167931 1.6167931 0 0 1 1.616793-1.61679zm26.946562 0a1.6167932 1.6167932 0 0 1 1.616794 1.61679 1.6167932 1.6167932 0 0 1-1.616794 1.6168 1.6167932 1.6167932 0 0 1-1.616794-1.6168 1.6167932 1.6167932 0 0 1 1.616794-1.61679zm-24.251906 6.46717a2.1557242 2.1557242 0 0 1 2.155726 2.15572 2.1557242 2.1557242 0 0 1-2.155726 2.15573 2.1557242 2.1557242 0 0 1-2.155724-2.15573 2.1557242 2.1557242 0 0 1 2.155724-2.15572zm21.55725 0a2.1557243 2.1557243 0 0 1 2.155725 2.15572 2.1557243 2.1557243 0 0 1-2.155725 2.15573 2.1557243 2.1557243 0 0 1-2.155725-2.15573 2.1557243 2.1557243 0 0 1 2.155725-2.15572z" style="fill:#808080"/>
   <circle cx="22.482" cy="275.954" r="0" style="fill:#808080"/>
   <path d="m74.858162 252.36204c-1.785861 0-3.233587 1.44775-3.233587 3.23358 0 2.15574 2.155726 2.15574 1.07786 4.31148v8.62286c0 1.19428 0.961456 2.15574 2.155727 2.15574 1.194269 0 2.155725-0.96146 2.155725-2.15574v-8.62286c-1.077865-2.15574 1.077861-2.15574 1.077861-4.31148 0-1.78583-1.447726-3.23358-3.233586-3.23358z" style="fill:#808080"/>
   <path transform="matrix(3.0796071,0,0,3.0796071,50.221308,235.73191)" d="m1 1.9003906c0.1147163 1.2629858 1.0339572 1.5550306 1.0839844 2.9042969 0.0265488 0.5698389-0.7224899 1.8789565-0.7148438 2.6367187 0.0038349 0.3591108 0.1789668 0.696173 0.4746094 0.9042969 0.5601637 0.394138 1.7351532 0.5546875 3.3027344 0.5546875h0.09375c-1.3238887 0-2.3159811 0.35093-2.7890625 0.6660156-0.2496838 0.1663882-0.3971945 0.4355708-0.4003907 0.7226558 0.0579269 1.921837 0.3250518 4.1512 2.5273438 4.210938 1.7128697-0.019224 2.4923845-1.821827 2.8320312-3.494141 0.1221054 0.202561 0.3347811 0.34375 0.5898438 0.34375 0.2550622 0 0.4677383-0.141189 0.5898438-0.34375 0.3396466 1.672303 1.1191613 3.474884 2.8320312 3.494141 2.202294-0.059793 2.46942-2.289101 2.527344-4.210938-0.003182-0.287085-0.150717-0.5562676-0.400391-0.7226558-0.473083-0.3150856-1.465175-0.6660156-2.789062-0.6660156h0.09375c1.567573 0 2.74257-0.1605495 3.302734-0.5546875 0.295633-0.2081239 0.470826-0.5451861 0.474609-0.9042969 0.007673-0.7577622-0.741395-2.0668798-0.714843-2.6367187 0.05003-1.3492663 0.969272-1.6413111 1.083984-2.9042969-3.1202 0-5.5020189 3.8444033-6.3203125 5.8984375-0.2855477-0.6444738 0.3710937-0.6688148 0.3710937-1.3496093 0-0.2889682-0.1177549-0.550375-0.3066406-0.7402344 0.0364184-0.417385 0.0976585-0.8606369 0.2285156-1.2695313 0.1075305-0.3360071 0.254302-0.6312881 0.4394532-0.8320312 0.1851512-0.2007432 0.3971705-0.3126787 0.6855466-0.3085938l0.00586-0.3476562c-0.3874879-0.0054877-0.7123337 0.1630869-0.9492191 0.4199219-0.2368854 0.2568347-0.3983708 0.5965029-0.515625 0.9628906-0.119354 0.372952-0.1917173 0.7726812-0.234375 1.1484375-0.124692-0.0522114-0.2606557-0.0820313-0.4042969-0.0820313-0.1435073 0-0.2796984 0.027959-0.4042969 0.0800782-0.0426935-0.375092-0.1133129-0.7742987-0.2324219-1.1464844-0.1172539-0.3663877-0.2787393-0.7060559-0.515625-0.9628906-0.2368857-0.256835-0.5597791-0.4254129-0.9472656-0.4199219l0.0039063 0.3476562c0.2883767-0.0040589 0.5003954 0.1078506 0.6855469 0.3085938 0.1851512 0.2007431 0.3319231 0.4960241 0.4394531 0.8320312 0.1306328 0.4081935 0.1914716 0.8507439 0.2285156 1.2675781-0.1900126 0.1900134-0.3085938 0.452243-0.3085937 0.7421876 0 0.6807945 0.6566416 0.7051355 0.3710937 1.3496093-0.818292-2.0540342-3.2001121-5.8984375-6.3203125-5.8984375zm1.75 1.0488282a0.34999981 0.34999981 0 0 1 0.3496094 0.3515624 0.34999981 0.34999981 0 0 1-0.3496094 0.3496094 0.34999981 0.34999981 0 0 1-0.3496094-0.3496094 0.34999981 0.34999981 0 0 1 0.3496094-0.3515624zm10.5 0a0.34999988 0.34999988 0 0 1 0.349609 0.3515624 0.34999988 0.34999988 0 0 1-0.349609 0.3496094 0.34999988 0.34999988 0 0 1-0.349609-0.3496094 0.34999988 0.34999988 0 0 1 0.349609-0.3515624zm-9.2753906 1.6191406a0.52499977 0.52499977 0 0 1 0.5253906 0.5253906 0.52499977 0.52499977 0 0 1-0.5253906 0.5253906 0.52499977 0.52499977 0 0 1-0.5253906-0.5253906 0.52499977 0.52499977 0 0 1 0.5253906-0.5253906zm8.0507816 0a0.52499987 0.52499987 0 0 1 0.52539 0.5253906 0.52499987 0.52499987 0 0 1-0.52539 0.5253906 0.52499987 0.52499987 0 0 1-0.525391-0.5253906 0.52499987 0.52499987 0 0 1 0.525391-0.5253906zm-8.9257816 1.8808594a0.69999976 0.69999976 0 0 1 0.7011718 0.7011718 0.69999976 0.69999976 0 0 1-0.7011718 0.6992188 0.69999976 0.69999976 0 0 1-0.6992188-0.6992188 0.69999976 0.69999976 0 0 1 0.6992188-0.7011718zm9.8007816 0a0.69999979 0.69999979 0 0 1 0.699218 0.7011718 0.69999979 0.69999979 0 0 1-0.699218 0.6992188 0.69999979 0.69999979 0 0 1-0.701172-0.6992188 0.69999979 0.69999979 0 0 1 0.701172-0.7011718zm-9.3125004 3.8515622a0.5249998 0.5249998 0 0 1 0.0371094 0 0.5249998 0.5249998 0 0 1 0.5253906 0.523438 0.5249998 0.5249998 0 0 1-0.5253906 0.52539 0.5249998 0.5249998 0 0 1-0.5253906-0.52539 0.5249998 0.5249998 0 0 1 0.4882812-0.523438zm8.7500004 0a0.52499983 0.52499983 0 0 1 0.037109 0 0.52499983 0.52499983 0 0 1 0.525391 0.523438 0.52499983 0.52499983 0 0 1-0.525391 0.52539 0.52499983 0.52499983 0 0 1-0.525391-0.52539 0.52499983 0.52499983 0 0 1 0.488282-0.523438zm-7.837891 2.09961a0.69999976 0.69999976 0 0 1 0.6992188 0.699218 0.69999976 0.69999976 0 0 1-0.6992188 0.701172 0.69999976 0.69999976 0 0 1-0.6992188-0.701172 0.69999976 0.69999976 0 0 1 0.6992188-0.699218zm7 0a0.69999979 0.69999979 0 0 1 0.699219 0.699218 0.69999979 0.69999979 0 0 1-0.699219 0.701172 0.69999979 0.69999979 0 0 1-0.699219-0.701172 0.69999979 0.69999979 0 0 1 0.699219-0.699218z" style="fill:#808080"/>
   <path transform="matrix(1.0184527 0 0 1.0184527 -.83718089 -4.4301654)" d="m74.323864 252.13954c-1.753504 0-3.174999 1.42152-3.174999 3.175 0 2.11668 2.116667 2.11668 1.058331 4.23336v8.46663c0 1.17264 0.944036 2.11668 2.116668 2.11668 1.172631 0 2.116667-0.94404 2.116667-2.11668v-8.46663c-1.058336-2.11668 1.058332-2.11668 1.058332-4.23336 0-1.75348-1.421496-3.175-3.174999-3.175z" style="fill:#808080;filter:url(#filter1085);opacity:.3"/>
  </g>
 </g>
</svg>
