<svg width="16" height="16" version="1.1" xmlns="http://www.w3.org/2000/svg">
 <path d="m5.910156 6.3624783c-0.097259 0.00879-0.1933206 0.02894-0.2890625 0.060547-0.765936 0.2528586-1.1564312 1.1649232-0.8691406 2.0351561 0.2872906 0.8702338 1.1442207 1.3719994 1.9101563 1.1191407 0.7659347-0.2528581 1.1544787-1.1649238 0.8671874-2.0351563-0.2513785-0.7614544-0.938328-1.2411888-1.6191406-1.1796875zm4.179687 0c-0.6808121-0.0615013-1.3677608 0.4182331-1.6191401 1.1796875-0.2872912 0.8702325 0.1012513 1.7822982 0.8671875 2.0351563 0.7659346 0.2528587 1.6228646-0.2489069 1.9101556-1.1191407 0.28729-0.870233-0.103205-1.7822975-0.86914-2.0351562-0.09574-0.031607-0.191804-0.051761-0.289063-0.060547z" style="fill:#808080"/>
 <ellipse cx="8" cy="8" rx="7.013" ry="7.013" style="fill:none;stroke-linecap:square;stroke:#808080"/>
</svg>
