<svg width="16" height="16" version="1.1" viewBox="0 0 4.23 4.23" xmlns="http://www.w3.org/2000/svg">
 <g transform="translate(0,-292.76666)">
  <g transform="matrix(.06684211 0 0 .06684211 -2.2144672 295.0128)" style="fill:#808080">
   <g transform="translate(1.6046261,-14.510535)" style="fill:#808080">
    <path d="m40.431345-5.2387792c-2.189112 0-8.3938 9.8781499-8.877979 13.500001-0.0193 0.1088265-0.03056 0.2234419-0.02774 0.355867-0.0027 0.1326661 8e-3 0.2454324 0.02774 0.3522889 0.481027 3.6190797 6.688237 13.500017 8.877979 13.500017 2.189744 0 8.396953-9.880937 8.87798-13.500017 0.0193-0.106937 0.03056-0.220467 0.02774-0.3522889 0.0027-0.1326662-8e-3 -0.2481662-0.02774-0.355867-0.484179-3.6218507-6.688855-13.500001-8.87798-13.500001z" style="fill:#808080"/>
    <path d="m63.192104 2.6778251c-2.189129 0-8.393816 9.8781609-8.87798 13.500017-0.0193 0.108826-0.03056 0.223441-0.02773 0.355867-0.0027 0.132666 8e-3 0.245432 0.02773 0.352288 0.481015 3.619077 6.688236 13.500001 8.87798 13.500001 2.189739 0 8.396948-9.880924 8.87798-13.500001 0.0193-0.106816 0.03056-0.220466 0.02774-0.352288 0.0027-0.132546-8e-3 -0.248207-0.02774-0.355867-0.484179-3.621856-6.688867-13.500017-8.87798-13.500017z" style="fill:#808080"/>
    <path d="m85.952376-5.2387792c-2.189125 0-8.393813 9.8781499-8.877992 13.500001-0.0193 0.1088265-0.03056 0.2234419-0.02774 0.355867-0.0027 0.1326661 0.0093 0.2454324 0.02774 0.3522889 0.481028 3.6190797 6.688236 13.500017 8.877992 13.500017 2.189743 0 8.396953-9.880937 8.877979-13.500017 0.0193-0.106937 0.03056-0.220467 0.02774-0.3522889 0.0027-0.1326662-8e-3 -0.2481662-0.02774-0.355867-0.484175-3.6218507-6.688867-13.500001-8.877979-13.500001z" style="fill:#808080"/>
   </g>
  </g>
 </g>
</svg>
