<svg width="16" height="16" version="1.1" viewBox="0 0 16 16" xmlns="http://www.w3.org/2000/svg">
 <g style="fill:#808080">
  <path d="m8.2109375 0.54492188a1.5 1.5 0 0 0-1.4902344 1.3320312c-0.5803506 0.1934451-1.1540545 0.443283-1.7089843 0.7636719-1.5833304 0.9141362-2.7908057 2.2222172-3.5039063 3.6640625a1.5 1.5 0 0 0-1.2734375 1.4824219 1.5 1.5 0 0 0 0.5546875 1.1640625c-0.05967916 1.0706351 0.16289208 2.1304521 0.7167969 3.0898441 0.5116688 0.886236 1.2431969 1.567992 2.1054687 2.048828a1.5 1.5 0 0 0 1.4628907 1.175781 1.5 1.5 0 0 0 1.0175781-0.398437c1.7097594 0.198063 3.5975696-0.172297 5.3085941-1.160157 0.35221-0.203349 0.678375-0.432448 0.992187-0.671875a1.5 1.5 0 0 0 0.710938 0.179688 1.5 1.5 0 0 0 1.5-1.5 1.5 1.5 0 0 0-0.220704-0.783203c1.067141-1.5991393 1.494104-3.4496783 1.095704-5.1523441a1.5 1.5 0 0 0 0.708984-1.2734375 1.5 1.5 0 0 0-1.5-1.5 1.5 1.5 0 0 0-0.671875 0.1582031c-1.132383-1.1167129-2.721391-1.7027675-4.4375-1.734375a1.5 1.5 0 0 0-1.3671875-0.88476562zm1.390625 2.0566406c1.4478755 0.0402818 2.7566195 0.545671 3.6523435 1.4589844a1.5 1.5 0 0 0-0.066406 0.4453125 1.5 1.5 0 0 0 1.128906 1.4511718c0.347331 1.3722325 0.016059 2.9245454-0.884765 4.2949218a1.5 1.5 0 0 0-0.328125-0.037109 1.5 1.5 0 0 0-1.5 1.5 1.5 1.5 0 0 0 0.05664 0.408203c-0.266611 0.201252-0.54449 0.394454-0.845703 0.568359-1.3968222 0.806456-2.8869833 1.136801-4.2402342 1.050782a1.5 1.5 0 0 0-1.5-1.476563 1.5 1.5 0 0 0-1.203125 0.607422c-0.552284-0.366803-1.0164146-0.840859-1.3496094-1.417969-0.3848695-0.666613-0.5607365-1.413639-0.5585938-2.1855468a1.5 1.5 0 0 0 1.2714844-1.4824218 1.5 1.5 0 0 0-0.5644531-1.1699219c0.6129983-1.1427545 1.6031564-2.1961921 2.9277343-2.9609375 0.47769-0.2757944 0.9667029-0.4893478 1.4570313-0.65625a1.5 1.5 0 0 0 1.15625 0.5449219 1.5 1.5 0 0 0 1.390625-0.9433594z" style="fill:#808080"/>
 </g>
</svg>
