<svg width="16" height="16" version="1.1" viewBox="0 0 16 16" xmlns="http://www.w3.org/2000/svg">
 <g transform="matrix(.23323615 0 0 .26228979 0 .24944967)" style="fill:#808080">
  <path d="m66.26561 1.2305977c-0.481685-0.045161-0.990053 0.1639537-1.35133 0.6456615-0.240868 0.3612807-0.484628 0.8403669-0.605077 1.2016477-0.361277 0.7225618-0.606839 1.4475782-0.96812 2.1701402-1.806404 3.6128085-4.695712 6.1400879-8.067666 8.1873459-3.492383 2.047259-7.341399 3.25005-11.435915 3.972612-0.481708 0.120427-0.84887 0.0038-1.21015-0.116578-3.251528-1.445123-6.378072-1.326007-9.388746 0.600824-0.361281 0.240854-0.718946 0.36255-1.321081 0.242123-0.36128-0.120427-0.727853-0.121696-1.089135-0.242123-4.33537-0.842988-7.70806-3.255042-10.477881-6.626998-1.324695-1.4451227-2.283231-3.2474276-3.12622-5.1742592l-0.363045-0.7263691c-0.120429 0.1204271-0.121015 0.2433932-0.121015 0.4842464-0.120429 4.8170779-0.242621 9.6347149-0.363045 14.572221 0 0.240854-5.9e-4 0.485515-0.121015 0.726369-0.602135 1.20427-0.958035 2.400675-0.958035 3.604943 0 0.120427-5.91e-4 0.243394-0.121015 0.484247l-0.48406-0.484247c-2.047258-1.806403-4.33981-3.005388-7.1096303-3.246242-3.251528-0.240854-6.0157032 1.562762-7.0995459 4.573436-0.48170785 1.324696-0.60389888 2.891307-0.36304496 4.456858 0.72256178 4.455797 2.8923348 7.945097 6.6255703 10.474064 2.0472586 1.445123 4.4495648 2.289297 6.9785308 1.928017 0.361282 0 0.727266 0.0013 0.96812 0.242123 4.576225 3.25153 9.637068 5.658427 15.056281 7.344397 3.131101 0.963416 6.379836 1.570588 9.751791 1.811442 3.251528 0.240864 6.37866 4.2e-5 9.509761-0.842948 2.288113-0.602135 4.336281-1.450115 6.383543-2.654386 0.22197-0.0753 0.430258-0.304904 0.645413-0.394568 0.154692-0.09826 1.852486-1.443876 2.692581-2.241884 0.92101-0.874867 2.561485-2.77993 2.561485-2.77993 1.926833-2.528967 3.372956-5.302218 4.336372-8.312892 1.926822-5.298787 2.653418-10.831204 2.894271-16.49127 0.240868-4.937506-0.123352-9.8806888-0.605073-14.697767-0.120408-0.6021348-0.243191-1.3207638-0.48406-1.8024717-0.240852-0.5419108-0.688103-0.8426245-1.169814-0.8877845zm-27.611584 16.778231c4.094517 0 7.714118 3.497124 7.59369 7.712068 0.120429 4.094516-3.499761 7.7031-7.714705 7.7031-4.214943 0-7.704621-3.493275-7.704621-7.828645 0-4.335371 3.731119-7.706949 7.825636-7.586523zm-14.925181 0.726369c2.649393 0.120427 4.453181 1.564073 5.65745 3.972612 0.240853 0.240854-0.121014 0.721209-0.121014 1.443771-1.565551-2.288112-3.73062-3.124589-5.657451-2.161172 0.963415 0 1.56605 0.236965 2.168185 0.959524 0.481705 0.602135 0.714829 1.327151 0.473975 2.17014-0.240852 1.20427-1.438479 2.043326-2.763175 1.802472-1.445124-0.240854-2.167598-1.32711-2.04717-3.013087-0.842989 0.842989-1.083843 3.13343 0 4.698981 1.204269 1.806404 3.611956 2.64804 6.020495 1.44377l-0.24203 0.242123c-2.047261 1.445126-4.337458 1.684667-6.625571 0.600824-2.288111-1.204269-3.489853-3.129539-3.61028-5.658505-0.120427-3.492382 2.772496-6.742307 6.746586-6.501453zm16.52863 3.102762c-0.429021 0.02446-0.818321 0.118493-1.119389 0.269026 1.926832 0.240854 2.772672 1.810086 2.652245 3.25521s-1.449151 2.528841-2.894275 2.528841c-1.324696 0-2.763175-1.087525-2.763175-3.25521-1.083843 1.926831-0.726178 4.693779 1.32108 6.259329 2.047258 1.565551 4.940181 1.451553 6.746586-0.475279 1.806404-1.926831 1.927419-4.821862 0.121015-6.86912-1.083843-1.264483-2.777024-1.786182-4.064087-1.712797zm-33.954788 2.537809c0.7677222 0.01506 1.525712 0.380441 2.127847 1.103005 1.4451236 1.685977 1.3241086 4.213382-0.121015 5.658505-1.2042694 1.20427-3.0110857 1.208119-4.2153554-0.116578-0.7225617-0.722561-1.0790503-1.687121-1.0790502-2.770963 0-1.083843 0.3564886-2.044554 1.0790502-2.887542 0.6623483-0.662348 1.4408018-1.00148 2.2085234-0.986427zm40.78205 13.863787c1.56555 0.361281 3.129161 1.931782 3.731295 3.497333-1.411551 1.491237-3.470377 1.879112-5.41542 2.286718-2.343126 0.491028-4.812022 0.366399-7.220561 0.125545-1.083842-0.120428-2.173478-0.361239-3.25732-0.842947-0.481708-0.240854-1.081402-0.602093-1.56311-0.842947-0.361281-0.120427-0.727266-0.247241-0.96812-0.367668h-0.121015c-0.602135-0.120427-0.360105-0.959525 0.24203-0.959525h0.121015l1.089135 0.358701c2.528966 0.842989 5.296669 0.845527 7.825635 0.484246 1.565551-0.240854 3.13269-0.604632 4.457385-1.327193 0.602135-0.361281 1.324609-0.842947 2.047171-0.842947-0.361281-0.240854-0.728442-0.480398-1.21015-0.600824-0.602135-0.120427-0.360105-1.088919 0.24203-0.968492z" style="fill:#808080"/>
 </g>
</svg>
