<svg width="16" height="16" version="1.1" xmlns="http://www.w3.org/2000/svg">
 <g transform="translate(-303 -213.99)">
  <path d="m305.5 214.48995c-1.0907 0-2 0.9093-2 2v11c0 1.0907 0.9093 1.99999 2 2l7.5002 5e-5 1.4998-1.00005h-10v-4h4v4h1v-4h8v-1h-8v-3h3v8h1v-8.00005l4 5e-5v-1l-4-5e-5v-3.99995h4v12l1.0002-3.46875-2e-4 -7.53125c-3e-5 -1.0907-0.9093-2-2-2zm-1 1h4v4h-4zm5 0h3v4h-3zm-5 5h4v3h-4zm14.0002 3.53125-1.0002 3.46875v1h-3l-1.4998 1.00005h3.5c1.0907 0 2-0.9093 2-2z" style="fill:#808080"/>
 </g>
</svg>
