<svg width="16" height="16.021" version="1.1" xmlns="http://www.w3.org/2000/svg">
 <g transform="translate(-348,-163.97852)">
  <path d="m355.5 163.97852c-1.41179 0-2.5 0.84433-2.5 2.54296v5.9336c0 1.69862 1.08821 2.54492 2.5 2.54492s2.5-0.84901 2.5-2.54492v-5.9336c0-1.69591-1.08821-2.54296-2.5-2.54296zm0 1c0.50567 0 0.85935 0.14158 1.0918 0.36132s0.4082 0.54758 0.4082 1.18164v5.9336c0 0.63406-0.17575 0.9619-0.4082 1.18164s-0.58613 0.36328-1.0918 0.36328c-0.50631 0-0.85971-0.14211-1.0918-0.36133s-0.4082-0.54783-0.4082-1.18359v-5.9336c0-0.63576 0.17612-0.96242 0.4082-1.18164 0.23209-0.21922 0.58549-0.36132 1.0918-0.36132z" style="fill:#808080"/>
  <rect x="355" y="175.5" width="1" height="4" style="fill:#808080"/>
  <path d="m355.5 179c-0.83331 0-1.66831 0.15904-2.5 0.45833v0.54166h5v-0.54166c-0.83348-0.29292-1.6667-0.45833-2.5-0.45833z" style="fill:#808080"/>
  <path d="m351 171v1.5c0 2.493 2.007 4.5 4.5 4.5s4.5-2.007 4.5-4.5v-1.5h-1v1.5c0 1.939-1.561 3.5-3.5 3.5s-3.5-1.561-3.5-3.5v-1.5z" style="fill:#808080"/>
 </g>
</svg>
