<svg width="16" height="16" version="1.1" xmlns="http://www.w3.org/2000/svg">
 <g transform="translate(-472,-300)">
  <path d="m477.5 301c-0.277 0-0.5 0.223-0.5 0.5v3.5h-3.5c-0.277 0-0.5 0.223-0.5 0.5s0.223 0.5 0.5 0.5h3.5v4h-3.5c-0.277 0-0.5 0.223-0.5 0.5s0.223 0.5 0.5 0.5h3.5v3.5c0 0.277 0.223 0.5 0.5 0.5s0.5-0.223 0.5-0.5v-3.5h4v3.5c0 0.277 0.223 0.5 0.5 0.5s0.5-0.223 0.5-0.5v-3.5h3.5c0.277 0 0.5-0.223 0.5-0.5s-0.223-0.5-0.5-0.5h-3.5v-4h3.5c0.277 0 0.5-0.223 0.5-0.5s-0.223-0.5-0.5-0.5h-3.5v-3.5c0-0.277-0.223-0.5-0.5-0.5s-0.5 0.223-0.5 0.5v3.5h-4v-3.5c0-0.277-0.223-0.5-0.5-0.5zm0.5 5h4v4h-4z" style="fill:#808080"/>
 </g>
</svg>
