<svg width="16" height="16" version="1.1" xmlns="http://www.w3.org/2000/svg">
 <path d="m7.222157 15.461034c-1.1113786-0.115516-2.4266447-0.58243-3.3189631-1.178077-0.7065984-0.471698-1.3977353-1.114791-1.8827011-1.751896-0.8285717-1.088427-1.347304-2.412067-1.4937264-3.8114998-0.05230459-0.4998684-0.02501601-1.4329181 0.05629752-1.924176 0.25812302-1.5595949 0.99684879-2.9996706 2.1095606-4.1124066 1.1245499-1.1245354 2.5339604-1.8452288 4.1349714-2.1143861 0.5470374-0.0917745 1.8734839-0.0914201 2.371431 8.5043e-4 2.1891051 0.40582641 3.9267381 1.5385826 5.0992371 3.3242114 0.230144 0.3504429 0.329147 0.5333535 0.302218 0.5581928-0.0082 0.00709-1.108587 0.3104024-2.445242 0.6731763-1.33665 0.3626323-3.5647074 0.9677044-4.9512359 1.344581-3.0271817 0.8228853-3.7145054 1.0063629-3.7288335 0.9954847-0.0290558-0.0212603 0.0868805-0.5485903 0.1958121-0.8892534 0.1298624-0.4061097 0.4351417-1.0421512 0.5237978-1.0913336 0.059235-0.031891 6.6248455-1.8222676 7.2087165-1.9646771 0.08529-0.02126 0.149461-0.055278 0.142587-0.076892-0.02303-0.071931-0.54758-0.414224-0.914306-0.5968157-0.443481-0.2207545-0.9920554-0.4133386-1.4818268-0.520066-0.3160294-0.0687421-0.4783812-0.080081-1.1479538-0.080081-0.8798863 0-1.193651 0.048191-1.8915465 0.2909137-0.8636652 0.3004809-1.5413457 0.726292-2.1891459 1.3757275-0.6734769 0.6751606-1.0952184 1.3562388-1.3950172 2.2529333-0.2334006 0.6980865-0.3037939 1.2016753-0.2807085 2.0082255 0.020587 0.7196658 0.088837 1.1137989 0.298617 1.7246817 0.6161306 1.79424 2.1271132 3.194701 3.9677843 3.677631 0.5941417 0.15591 0.9989552 0.196659 1.7197996 0.173272 0.902766-0.02835 1.5758021-0.198076 2.3637238-0.591571 0.864329-0.431835 1.68825-1.159898 2.217032-1.959079 0.271637-0.410574 0.592564-1.043391 0.550464-1.085486-0.02019-0.02126-0.969164 0.230321-3.7649993 0.994279-0.9476273 0.259024-2.1604049 0.58693-2.6950605 0.728949l-0.9721021 0.258315-0.1960177-0.112326c-0.2658298-0.152012-0.6120905-0.410079-0.8484659-0.63218-0.2140784-0.201265-0.559749-0.60128-0.5381332-0.622895 0.00747-0.0071 0.7387538-0.208352 1.6250994-0.446504 0.886346-0.238117 2.2970939-0.620699 3.1349961-0.8501696 0.8379013-0.2296127 2.1029152-0.572579 2.8111422-0.7625056 0.708228-0.1899266 1.768961-0.4769425 2.357188-0.6378131 0.588223-0.1608707 1.094229-0.2965832 1.124458-0.3011896 0.147937-0.024804 0.126747 0.9610072-0.03809 1.7686913-0.101731 0.4985566-0.361322 1.2629406-0.591278 1.7410886-0.724698 1.506904-1.964996 2.758293-3.450779 3.481715-1.286273 0.626262-2.7150739 0.884399-4.0988255 0.740501zm-3.4196181-5.682207c-0.1726525-0.4057554-0.2619535-0.7668994-0.349511-1.4135356-0.0084659-0.0623643 0.0143151-0.088585 0.1017454-0.1162237 0.1127547-0.0357882 2.0354783-0.5554644 4.8281158-1.3050012 0.8179521-0.2193368 2.1482609-0.5778232 2.9562349-0.7962388 2.123492-0.5739964 3.56506-0.9564716 3.625383-0.9618576 0.09383-0.00709 0.411375 0.962708 0.491346 1.502546l0.02445 0.1651227-1.408614 0.3733333c-0.774741 0.2055176-2.12682 0.5684687-3.00462 0.8069754-0.877801 0.2384712-2.0285593 0.5482358-2.5572359 0.6883066-0.5286766 0.1399647-1.7700115 0.4738598-2.758523 0.7417767-0.9885117 0.2678812-1.8148826 0.4871482-1.8363793 0.4871482-0.021509 0-0.072076-0.0776-0.1124004-0.17221z" style="fill:#808080"/>
</svg>
