<svg width="16" height="16" version="1.1" xmlns="http://www.w3.org/2000/svg">
 <defs>
  <clipPath id="clipPath-162844874">
   <g transform="translate(0,-1004.3622)">
    <path transform="matrix(15.333333,0,0,11.5,414.99999,878.8622)" d="m-24 13c0 1.105-0.672 2-1.5 2s-1.5-0.895-1.5-2 0.672-2 1.5-2 1.5 0.895 1.5 2z" style="fill:#1890d0"/>
   </g>
  </clipPath>
 </defs>
 <g transform="translate(0,-1036.3622)">
  <g transform="matrix(.62497559 0 0 .64952062 -6.8166088 1028.0581)" style="fill:#808080">
   <g clip-path="url(#clipPath-162844874)" style="fill:#808080">
    <g style="fill:#808080">
     <path d="m27.305 14.07-0.336 0.305v1.121l0.293 0.27h1.563v1.082l-10.328 9.48v-10.547h1.715l0.352-0.32v-1.133l-0.324-0.23h-9.04l-0.293 0.27v1.16l0.297 0.27h1.574v19.426l0.293 0.27h1.785l21.652-20.223v-0.891l-0.336-0.305h-8.867m-4e-3 -4e-3" style="fill:#808080"/>
    </g>
   </g>
  </g>
 </g>
</svg>
