<svg width="16" height="16" version="1.1" viewBox="0 0 4.23 4.23" xmlns="http://www.w3.org/2000/svg">
 <g transform="translate(0,-292.76665)">
  <path d="m1.545707 292.95514-0.3765225 1.03491h-1.113e-4l-0.63990653 1.75801h0.4259857l0.54420813-1.49392h0.3202318l-0.5442082 1.49396 0.4258372 1.1e-4 0.5071013-1.39373c0.072989-0.20038-0.041819-0.36439-0.2549234-0.36439h-0.3580807l0.3957814-1.0876c-0.1321744-0.0141-0.3472085 0.0156-0.4453929 0.0527zm1.1158752 1.03491-0.6580517 1.80829h-2.964e-4l-0.3691384 1.01435a2.0101486 2.0101486 0 0 0 0.4064678 0.055l0.4073956-1.11962h0.5653587c0.099223 0 0.208169-0.0763 0.2420846-0.16947l0.445652-1.22415c0.072915-0.20045-0.041856-0.36439-0.2551091-0.36439zm0.3314008 0.26309h0.32012l-0.4482499 1.22987h-0.3201202z" display="block" overflow="visible" style="display:block;fill:#808080"/>
 </g>
</svg>
