<svg width="16" height="16" version="1.1" xmlns="http://www.w3.org/2000/svg">
 <g transform="matrix(.04830176 0 0 .04830176 -4.7755744 -3.4243409)" style="fill:#808080">
  <path transform="matrix(1.5420696,0,0,1.5420696,44.103062,31.609172)" d="m156.24023 240.28516h9.44532c9.25696 0 17.52167-0.16447 24.89843-0.59766 3.68838-0.21659 7.15505-0.49967 10.41211-0.86328 3.25707-0.36361 6.30468-0.8073 9.15625-1.34375 2.85158-0.53645 5.50661-1.16724 7.97852-1.90235 2.47191-0.7351 4.76084-1.57558 6.87891-2.53515s4.06541-2.03819 5.85546-3.24805c1.79006-1.20985 3.4223-2.55115 4.91016-4.03711 1.48786-1.48595 2.83148-3.11642 4.04297-4.90429 1.21149-1.78788 2.291-3.73205 3.25195-5.84766s1.80283-4.40194 2.53907-6.87109c0.73623-2.46916 1.36696-5.12218 1.90429-7.97071 0.53734-2.84852 0.98144-5.89278 1.34571-9.14648 0.36426-3.25371 0.64821-6.71569 0.86523-10.40039 0.42395-7.19813 0.57837-15.30847 0.58594-24.29688-2.26446 2.01899-4.94554 4.44845-6.81055 5.9961-14.797 12.27895-23.93948 13.41588-40.0918 3.49804-12.10127-7.43027-24.64593-13.33178-38.51172-16.56445-21.07881-4.91418-40.68558-12.63648-55.02929-30.04102-2.77938-3.37274-7.05334-6.42707-10.996096-5.92968-19.327922 2.43828-34.516986-6.72227-49.689453-16.343753-1.749597 14.442283 6.348235 25.300593 13.74414 36.126953 14.784028 21.6417 35.007181 38.60473 51.652339 58.51758 13.59318 16.26174 37.91589 24.99374 41.66211 48.70508z" style="fill:#808080"/>
  <path transform="matrix(20.703179,0,0,20.703179,422.00307,79.346811)" d="m-5.8300781 2.7421875c-0.5030955-0.033142-1.0326818 0.0639517-1.5449219 0.3007813-0.3129466 0.1446637-0.6047059 0.4605622-0.9648438 0.3320312-1.9438562-0.6938065-3.6632162 0.504985-5.5078122 0.6308594-0.494272 0.033715-0.818698 0.3405125-0.742188 0.9082031 1.130068 0.7169432 2.261538 1.398363 3.701172 1.2167969 0.293675-0.037048 0.611338 0.1921419 0.81836 0.4433594 1.0683861 1.2963715 2.5295605 1.8703454 4.0996089 2.2363281 1.0327881 0.2407844 1.9677814 0.6809337 2.8691406 1.2343751 1.2031003 0.738727 1.8822253 0.654828 2.984375-0.2597658 0.16131966-0.1338683 0.34400059-0.2846323 0.5078125-0.4199218 3.724e-5 -0.026338 0.001953-0.043756 0.001953-0.070312v-3.0273443c-0.54084428-0.2439827-1.0852496-0.4730126-1.6660155-0.6152343-1.0339471-0.253198-1.8112138-0.8086123-2.4414063-1.7109376-0.5092517-0.7291452-1.2767418-1.1439821-2.1152343-1.1992187zm-0.1699219 0.4355469a2.3737417 2.3737417 0 0 1 2.3730469 2.3730468 2.3737417 2.3737417 0 0 1-2.3730469 2.375 2.3737417 2.3737417 0 0 1-2.3730469-2.375 2.3737417 2.3737417 0 0 1 2.3730469-2.3730468z" style="fill:#808080"/>
  <g style="fill:#808080">
   <path d="m297.784 194.273c-4.813 21.63 12.915 43.978-8.715 39.164-21.63-4.813-35.262-26.25-30.449-47.88s26.25-35.262 47.88-30.449-3.903 17.536-8.716 39.165z" style="fill:#808080"/>
  </g>
 </g>
</svg>
