<svg width="16" height="16" style="enable-background:new" version="1.1" xmlns="http://www.w3.org/2000/svg">
 <g transform="translate(-112,-180)">
  <path d="m123.28105 180.00525c-0.27821 0.0752-0.37465 0.49932-0.15625 0.68727l3.1875 3.18646c0.21982 0.23021 0.69212 0.0371 0.6875-0.28116v-3.21769c-0.0122-0.20318-0.20269-0.37897-0.40625-0.37488h-3.1875c-0.0413-7e-3 -0.0837-7e-3 -0.125 0z" style="fill:#808080"/>
  <path d="m113.84375 180.00525c-0.4813 0.0874-0.85238 0.53322-0.84375 0.99967v13.99541c6e-5 0.52341 0.51276 0.99962 1.0625 0.99967h11.875c0.54975-5e-5 1.06245-0.47626 1.0625-0.99967v-7.50033c6e-3 -0.26397-0.1196-0.61972-0.31245-0.80945l-6.40625-6.40414c-0.19927-0.18364-0.47275-0.28728-0.75-0.28116h-5.46875c-0.0654-6e-3 -0.15331-6e-3 -0.21875 0zm0.40625 1.24475h5.25l6.25 6.25v7.25h-11.5z" style="fill:#808080"/>
  <g transform="translate(.50011965 .74269933)">
   <path d="m116.5 186.5v5a3 0.97898524 0 0 0 0 0.0215 3 0.97898524 0 0 0 3 0.97852 3 0.97898524 0 0 0 3-0.97852 3 0.97898524 0 0 0-4e-3 -0.0215h4e-3v-5h-1v4.7207a3 0.97898524 0 0 1-2.0625 0.27149 3 0.97898524 0 0 1-1.9375-0.23438v-4.75781z" style="fill:#808080"/>
   <path d="m116.5 191.5v-5a3 0.97898524 0 0 1 0-0.0215 3 0.97898524 0 0 1 3-0.97852 3 0.97898524 0 0 1 3 0.97852 3 0.97898524 0 0 1-4e-3 0.0215h4e-3v5h-1v-4.7207a3 0.97898524 0 0 0-2.0625-0.27149 3 0.97898524 0 0 0-1.9375 0.23438v4.75781z" style="fill:#808080"/>
   <path d="m116.5 189.5v-1.0999c-2.4e-4 -7e-3 -2.4e-4 -0.0643 0-0.0715 7.9e-4 -0.5405 1.3437-0.82862 3-0.82862s2.99921 0.33812 3 0.87862c-1e-3 7e-3 -2e-3 0.0143-4e-3 0.0215l4e-3 -0.05v1.1499h-1v-0.82045c-0.5-0.1294-1.2313-0.17862-2-0.17955-0.71051 7.9e-4 -1.5 0.0502-2 0.14245v0.85755z" style="fill:#808080"/>
   <path d="m116.5 188.49998v1.0999c-2.4e-4 7e-3 -2.4e-4 0.0643 0 0.0715 7.9e-4 0.5405 1.3437 0.82862 3 0.82862s2.99921-0.33812 3-0.87862c-1e-3 -7e-3 -2e-3 -0.0143-4e-3 -0.0215l4e-3 0.05v-1.1499h-1v0.82045c-0.5 0.1294-1.2313 0.17862-2 0.17955-0.71051-7.9e-4 -1.5-0.0502-2-0.14245v-0.85755z" style="fill:#808080"/>
  </g>
 </g>
</svg>
