<svg width="16" height="16" version="1.1" xmlns="http://www.w3.org/2000/svg">
 <g transform="translate(-781,238.99987)" style="fill:#808080">
  <path transform="translate(781,-238.99987)" d="m2 2v1c0 0.55016 0.45347 1 1 1 4.97056 0 9 4.02944 9 9 0 0.55016 0.45347 1 1 1h1v-1c0-6.07513-4.92487-11-11-11h-1zm0 4v1c0 0.55016 0.45347 1 1 1 2.76143 0 5 2.23857 5 5 0 0.55016 0.45347 1 1 1h1v-1c0-3.866-3.134-7-7-7h-1zm2 4c-1.1045703 0-2 0.895453-2 2s0.8954297 2 2 2 2-0.895453 2-2-0.8954297-2-2-2z" style="fill:#808080"/>
 </g>
</svg>
