<svg width="16" height="16" version="1.1" xmlns="http://www.w3.org/2000/svg">
 <g transform="translate(15.525483,-2.955085)">
  <g transform="matrix(-.26492814 0 0 .26492814 16.774586 -59.207504)" style="fill:#808080">
   <path d="m121.92 264.91793c0 2.76987-2.09931 8.14138-5.69016 11.23403-2.76875 2.38461-6.81896 2.92101-9.03271 2.92101-5.08481 0-3.69086-9.24943-3.69086-14.15504s4.12205-8.8824 9.20687-8.8824c5.08481 0 9.20687 3.97679 9.20686 8.8824z" style="fill:#808080"/>
  </g>
  <path d="m0.47454748 10.976683c0 0.733834-0.556166 2.156901-1.507483 2.976227-0.73352 0.631748-1.806535 0.773858-2.393019 0.773858-1.347109 0-0.977813-2.450456-0.977813-3.750085 0-1.2996279 1.092047-2.353209 2.439159-2.353209 1.34711 0 2.439159 1.0535811 2.439156 2.353209z" style="fill:#808080"/>
  <path d="m-7.5379103 5.239852a5.6076453 5.6076453 0 0 0-5.6076457 5.607647 5.6076453 5.6076453 0 0 0 5.6076457 5.607647 5.6076453 5.6076453 0 0 0 5.6076458-5.607647 5.6076453 5.6076453 0 0 0-5.6076458-5.607647zm-1.6439603 5.912277a0.45401661 0.8647935 0 0 1 0.4539783 0.864832 0.45401661 0.8647935 0 0 1-0.4539783 0.86468 0.45401661 0.8647935 0 0 1-0.4539783-0.86468 0.45401661 0.8647935 0 0 1 0.4539783-0.864832zm3.4627483 0a0.45401661 0.8647935 0 0 1 0.4539778 0.864832 0.45401661 0.8647935 0 0 1-0.4539778 0.86468 0.45401661 0.8647935 0 0 1-0.453978-0.86468 0.45401661 0.8647935 0 0 1 0.453978-0.864832z" style="fill:#808080"/>
 </g>
</svg>
