<svg width="16" height="16" version="1.0" xmlns="http://www.w3.org/2000/svg">
 <path d="m5.4375 0.25a0.73822721 0.73822721 0 0 0-0.5 0.21679688l-2.2128906 2.2128906a0.73822721 0.73822721 0 1 0 1.0429687 1.0449219l0.9550781-0.9550782v7.4257808a0.73822721 0.73822721 0 0 0 0 0.050782 0.73822721 0.73822721 0 0 0 0.0585938 0.277344c0.1557292 1.658642 1.5805261 3.013671 3.2617188 3.013671 1.7780246 0 3.3222652-1.501119 3.3222652-3.291015 0-0.8949484-0.411418-1.71015-1.009765-2.3183596-0.5983479-0.6082076-1.4116162-1.0351563-2.3125002-1.0351563-0.7002349 0-1.3113593 0.3027956-1.8457032 0.703125v-6.6074218a0.73822721 0.73822721 0 0 0-0.7597656-0.73828125zm2.1660156 4.4453125a0.73865579 0.73865579 0 1 0 0.1171875 1.4726563c1.7502942-0.1394694 3.3865609 0.8557939 4.0664059 2.4746093 0.67992 1.6188439 0.244901 3.4845789-1.080078 4.6367189-1.3249755 1.152136-3.2314042 1.321962-4.7402341 0.423828-1.5087386-0.898136-2.2679095-2.655127-1.8867188-4.3691406a0.73828381 0.73828381 0 1 0-1.4414062-0.3203125c-0.5183231 2.3306251 0.5207426 4.7377341 2.5722656 5.9589841 2.0515792 1.221206 4.6631944 0.986552 6.4648435-0.580078 1.801647-1.566628 2.397186-4.121017 1.472657-6.3222655-0.92446-2.2012764-3.1649526-3.5646439-5.5449224-3.375zm0.4394532 3.6738281c0.4148005 0 0.8952657 0.2232421 1.2597656 0.59375s0.5859375 0.8624664 0.5859375 1.2832034c0 0.841473-0.9923582 1.814453-1.8457031 1.814453-0.8536334 0-1.8457032-0.973381-1.8457032-1.814453 0-0.4210379 0.2234002-0.9127754 0.5878906-1.2832034 0.3644906-0.3704279 0.8427271-0.59375 1.2578126-0.59375z" style="fill:#808080"/>
</svg>
