<svg width="16" height="16" version="1.1" xmlns="http://www.w3.org/2000/svg">
 <path d="m3.7612192 2.2393698c-0.6530721 0.022677-1.2837184 0.3223937-1.7667722 0.7792252-0.4909266 0.4642393-0.8427376 1.1024504-0.9140599 1.7886994-0.035603 0.342803-0.00104 0.693694 0.1084498 1.019187 0.1095004 0.325418 0.2945877 0.625474 0.5405008 0.857197 0.2899351 0.272882 0.6527697 0.445493 0.9857559 0.659263 0.1665676 0.106583 0.3264605 0.225638 0.4643785 0.370394 0.1379149 0.144 0.2531905 0.31559 0.3163389 0.50846 0.056168 0.170834 0.068923 0.355653 0.044175 0.534009-0.025512 0.17915-0.088951 0.35263-0.181867 0.505474-0.1857675 0.306142-0.4855287 0.5287183-0.8143876 0.6479623-0.3813596 0.1379533-0.8012648 0.1447563-1.1688998 0.3186143-0.2909103 0.137953-0.53585052 0.377991-0.68846812 0.669733-0.152542 0.291779-0.212841 0.710135-0.175718 1.040126 0.04357 0.387741 0.222965 0.75598 0.49070302 1.029732 0.2676624 0.273637 0.6218718 0.45222 0.993106 0.511445 0.5444002 0.08617 1.3138073-0.09449 1.7091893-0.492699 0.1979905-0.198803 0.3479849-0.447761 0.4327306-0.720718 0.084004-0.272126 0.1012497-0.641915 0.046503-0.922393-0.041994-0.2143-0.1229934-0.417752-0.1987427-0.621733-0.07649-0.203338-0.1492422-0.411741-0.1672441-0.629215-0.032239-0.3847566-0.078913-0.7754846 0.167074-1.0649586 0.2452384-0.289512 0.589474-0.667616 0.9517074-0.751635 0.2339905-0.0548 0.4769797-0.06727 0.7132187-0.02646 0.236239 0.04195 0.4649796 0.138708 0.6562199 0.288 0.1912414 0.150047 0.3442352 0.540888 0.4289804 0.774123 0.085491 0.232441 0.1004999 0.4949663 0.032243 0.7334926-0.068994 0.244536-0.40516 0.455207-0.5566539 0.656202-0.150743 0.201071-0.3097353 0.402746-0.3997318 0.640479-0.098997 0.261921-0.1087484 0.556497-0.041242 0.828737 0.068243 0.272125 0.2107404 0.521234 0.398982 0.723703 0.2077417 0.224126 0.6586504 0.391484 0.9443868 0.482986 0.2864874 0.09222 0.5782236 0.108851 0.8774595 0.108851 0.2992377 0 0.6119739-0.01512 0.8984614-0.108851 0.2857384-0.09146 0.7363459-0.258897 0.9440867-0.482986 0.1882413-0.202582 0.3307353-0.451464 0.3989823-0.723703 0.06751-0.272126 0.05775-0.567005-0.04124-0.828737-0.09-0.237733-0.2489891-0.439484-0.3997329-0.640479-0.151492-0.201071-0.4873568-0.411742-0.5563546-0.656202-0.068242-0.2384883-0.053247-0.5009766 0.032256-0.7334926 0.084739-0.233197 0.2377382-0.624114 0.4289801-0.774123 0.1912416-0.149292 0.4199824-0.246048 0.6562214-0.288 0.236238-0.04271 0.479227-0.03024 0.713217 0.02646 0.362235 0.08391 0.70647 0.462123 0.951708 0.751634 0.245989 0.289512 0.199398 0.680202 0.16715 1.0649586-0.018 0.217323-0.09075 0.425953-0.167242 0.629216-0.07574 0.204094-0.156745 0.407244-0.198744 0.621732-0.05475 0.280441-0.0375 0.650116 0.0465 0.922393 0.08474 0.272882 0.234739 0.521953 0.432732 0.720718 0.395232 0.398211 1.16479 0.578948 1.709265 0.492699 0.371233-0.05934 0.725218-0.237732 0.992956-0.511445 0.267738-0.273638 0.44698-0.641991 0.490478-1.029732 0.0375-0.329953-0.02324-0.748385-0.175489-1.040126-0.152995-0.29178-0.397483-0.531704-0.688469-0.669733-0.367487-0.173858-0.787469-0.180661-1.169201-0.3186143-0.328486-0.119055-0.628472-0.3420473-0.814464-0.6479623-0.092252-0.153071-0.155992-0.326173-0.181492-0.505474-0.02475-0.178394-0.01205-0.362835 0.04425-0.534009 0.063-0.192756 0.17849-0.364347 0.316486-0.50846 0.137987-0.144756 0.297737-0.263811 0.464228-0.370394 0.332986-0.213921 0.695969-0.386268 0.985456-0.659263 0.245991-0.231685 0.431232-0.531704 0.540726-0.857197 0.1095-0.325417 0.143996-0.67646 0.108748-1.019187-0.07125-0.686248-0.423733-1.3244591-0.914211-1.7886984-0.482977-0.4569449-1.113699-0.7584378-1.766921-0.7792252-0.326235-0.011339-0.65397 0.048-0.954706 0.1802835-0.300737 0.1319055-0.574475 0.3375118-0.782215 0.5990929-0.23849 0.3000944-0.388485 0.6637228-0.5257271 1.0251972-0.1372504 0.362078-0.2669875 0.732737-0.4747279 1.055962-0.3427355 0.533971-0.8842117 0.887811-1.5014334 0.887811-0.617223 0-1.1586993-0.353764-1.5014331-0.887811-0.2077417-0.32315-0.3374846-0.693695-0.4747291-1.055962-0.1372502-0.3613232-0.2872358-0.7252161-0.5257273-1.0251972-0.2077418-0.2615433-0.4814782-0.4671496-0.7822137-0.5990929-0.300737-0.1319055-0.6284719-0.1904882-0.954709-0.1802835zm4.2388093 4.4983176c0.4141941 0 0.7499663 0.335623 0.7499663 0.749972 0 0.414199-0.3357724 0.749972-0.7499663 0.749972-0.4141953 0-0.7499659-0.335622-0.7499659-0.749972 0-0.414198 0.3357705-0.749972 0.7499659-0.749972z" style="fill:#808080"/>
</svg>
