<?xml version="1.0" encoding="UTF-8" standalone="no"?>
<svg
   xmlns:dc="http://purl.org/dc/elements/1.1/"
   xmlns:cc="http://creativecommons.org/ns#"
   xmlns:rdf="http://www.w3.org/1999/02/22-rdf-syntax-ns#"
   xmlns:svg="http://www.w3.org/2000/svg"
   xmlns="http://www.w3.org/2000/svg"
   xmlns:sodipodi="http://sodipodi.sourceforge.net/DTD/sodipodi-0.dtd"
   xmlns:inkscape="http://www.inkscape.org/namespaces/inkscape"
   width="16"
   height="16.001"
   version="1.1"
   id="svg6"
   sodipodi:docname="mine-symbolic.svg"
   inkscape:version="0.92.3 (2405546, 2018-03-11)">
  <metadata
     id="metadata12">
    <rdf:RDF>
      <cc:Work
         rdf:about="">
        <dc:format>image/svg+xml</dc:format>
        <dc:type
           rdf:resource="http://purl.org/dc/dcmitype/StillImage" />
      </cc:Work>
    </rdf:RDF>
  </metadata>
  <defs
     id="defs10" />
  <sodipodi:namedview
     pagecolor="#ffffff"
     bordercolor="#666666"
     borderopacity="1"
     objecttolerance="10"
     gridtolerance="10"
     guidetolerance="10"
     inkscape:pageopacity="0"
     inkscape:pageshadow="2"
     inkscape:window-width="1920"
     inkscape:window-height="1009"
     id="namedview8"
     showgrid="false"
     inkscape:zoom="14.749079"
     inkscape:cx="8"
     inkscape:cy="8.0004997"
     inkscape:window-x="0"
     inkscape:window-y="34"
     inkscape:window-maximized="1"
     inkscape:current-layer="svg6" />
  <g
     style="fill:#ed333b;enable-background:new"
     transform="matrix(0.39473684,0,0,0.39473684,-27.92182,-93.446348)"
     id="g71">
    <path
       style="fill:#808080;fill-opacity:1;stroke-width:0.39473683"
       d="m -17.273438,-3.5703125 c -0.437368,0 -0.791015,0.3516941 -0.791015,0.7890625 v 0.9160156 a 5.9210526,5.9210526 0 0 0 -2.078125,0.8574219 l -0.646484,-0.6464844 c -0.309267,-0.3092661 -0.805969,-0.3092661 -1.115235,0 l -0.558594,0.5585938 c -0.309266,0.30926615 -0.309266,0.8079213 0,1.11718748 l 0.646485,0.64648437 a 5.9210526,5.9210526 0 0 0 -0.865235,2.07812505 h -0.908203 c -0.437368,0 -0.789062,0.351694 -0.789062,0.7890624 v 0.7890626 c 0,0.4373684 0.351694,0.7890624 0.789062,0.7890624 h 0.916016 a 5.9210526,5.9210526 0 0 0 0.857422,2.078125 l -0.646485,0.6445313 c -0.309266,0.3092662 -0.309266,0.8079213 0,1.1171875 l 0.558594,0.5585938 c 0.309266,0.3092661 0.805968,0.3092661 1.115235,0 l 0.646484,-0.6464844 a 5.9210526,5.9210526 0 0 0 2.078125,0.8652344 v 0.9101562 c 0,0.437368 0.353647,0.789063 0.791015,0.789063 h 0.789063 c 0.437368,0 0.789063,-0.351695 0.789063,-0.789063 V 9.7246094 a 5.9210526,5.9210526 0 0 0 2.078124,-0.8574219 l 0.644532,0.6445313 c 0.309266,0.3092661 0.805968,0.3092661 1.115234,0 l 0.558594,-0.5585938 c 0.309266,-0.3092662 0.309266,-0.8079213 0,-1.1171875 l -0.644531,-0.6425781 a 5.9210526,5.9210526 0 0 0 0.865234,-2.0800782 h 0.908203 c 0.4373685,0 0.7910158,-0.351694 0.7910158,-0.7890624 V 3.5351562 c 0,-0.4373684 -0.3536473,-0.7890624 -0.7910158,-0.7890624 h -0.914062 a 5.9210526,5.9210526 0 0 0 -0.859375,-2.08007818 l 0.644531,-0.64453124 c 0.309266,-0.30926618 0.309266,-0.80792133 0,-1.11718748 l -0.558594,-0.5585938 c -0.309266,-0.3092661 -0.805968,-0.3092661 -1.115234,0 l -0.646485,0.6464844 a 5.9210526,5.9210526 0 0 0 -2.076171,-0.8632813 V -2.78125 c 0,-0.4373684 -0.351695,-0.7890625 -0.789063,-0.7890625 z"
       transform="matrix(2.5333333,0,0,2.5333333,133.76184,247.04474)"
       id="circle61"
       inkscape:connector-curvature="0" />
  </g>
</svg>
