<svg width="16" height="16" version="1.0" xmlns="http://www.w3.org/2000/svg">
 <path d="m11.384766 0.63671875c-1.3959688-0.00426149-2.8144679 0.39885425-3.9335941 0.99609375-4.3887241 2.342112-7.4511719 8.2226563-7.4511719 8.2226563 6.4866733 6.9063562 11.626953 4.0722652 11.626953 4.0722652 4.968515-2.372954 4.347656-10.800781 4.347656-10.800781-1.037047-1.80465-2.795027-2.4847553-4.589843-2.4902344zm-6.3105472 4.4316406c1.6072756 0 5.2023962 0.0039062 6.1289062 0.0039062 0.449891 0 0.553366 0.0463528 0.914063 0.1679688 0.630485 0.3206334 0.866028 1.0193305 0.892578 1.6523437 0.01865 1.0469601 0.004865 2.0934139 0.009765 3.1406249h-1.728515v-2.8066405c0-0.5769307-0.038917-1.1660156-0.69336-1.1660156-0.727439 0-0.555494 0.7068837-0.558594 1.1582031-0.020319 0.9383399 0.005001 1.875859 0 2.814453h-1.9863276v-2.8281249c0-0.6553344-0.0753947-1.1445312-0.7441406-1.1445312-0.5829026 0-0.5078126 0.6004893-0.5078126 1.109375-0.028842 0.9540168 0.0069201 1.908818 0 2.8632811h-1.7265624v-4.9648436z" style="fill-rule:evenodd;fill:#808080"/>
</svg>
