<svg width="16" height="16" version="1.1" xmlns="http://www.w3.org/2000/svg">
 <path d="m6.9140394 0.06779606c-2.733795 1.578357-3.670371 5.0740756-2.092014 7.8078706 0.384587 0.666127 0.884253 1.223166 1.457754 1.665511l-1.1875 4.7488413h-2.814815v1.777778h11.851851v-1.777778h-2.814814l-0.898726-3.594329c0.757951-0.08553 1.51135-0.322265 2.21412-0.7280093l-2.438658-4.223378 0.340277-0.515626 0.396413-0.600117a0.88888894 0.88888894 0 0 0 0.979168 0.06077 0.88888894 0.88888894 0 0 0 0.32523-1.214121 0.88888894 0.88888894 0 0 0-1.214119-0.325231 0.88888894 0.88888894 0 0 0-0.423614 0.960069l-0.6851846 0.0411-0.616318 0.03703z" style="fill:#808080"/>
</svg>
