<svg width="16" height="16" version="1.1" viewBox="0 0 16 16" xmlns="http://www.w3.org/2000/svg">
 <defs>
  <clipPath id="clipPath-899682928">
   <g transform="translate(0,-1004.3622)">
    <path transform="matrix(15.333333,0,0,11.5,414.99999,878.8622)" d="m-24 13c0 1.105-0.672 2-1.5 2s-1.5-0.895-1.5-2 0.672-2 1.5-2 1.5 0.895 1.5 2z" style="fill:#1890d0"/>
   </g>
  </clipPath>
 </defs>
 <g transform="matrix(.57683369 0 0 .57683369 -5.8440169 -5.8428465)" style="fill:#ffffff">
  <g clip-path="url(#clipPath-899682928)" style="fill:#808080">
   <g style="fill:#808080">
    <path d="m20.13 11.01c-2.125-0.047-4.281 0.477-4.816 2.473-0.121 0.484-0.309 1.484-0.316 1.949v5.43h1.996c0.016-1.82-0.02-3.602 0-5.43 0.07-1.156 1.691-2.449 3-2.441 0.016 1.852-0.027 3.73 0 5.574 0.113 1.5 0.996 2.426 2.863 2.426 0.992-0.02 1.996 0 2.984 0 1.508-0.266 2.152-1.523 2.152-3v-5c1.371-0.094 2.941 1.207 3 2.41 0.023 1.824-8e-3 3.578 0 5.387 0.719 0 1.281 0.074 2 0.074v-5.465c-0.07-0.59-0.273-1.348-0.613-1.922-0.883-1.691-2.945-2.605-4.891-2.465-0.566-0.066-1.344 0.293-1.5 0.805 0.012 2.176 0.02 4.406 0 6.582-0.063 0.91-0.715 1.594-1.996 1.594-1.227 0-1.238-0.145-1.695-0.688-0.305-0.609-0.27-1.543-0.305-2.316 0-1.766-0.016-3.426 0-5.184-0.602-0.668-1.125-0.754-1.867-0.801m0 8e-3" style="fill-rule:evenodd;fill:#808080"/>
    <path d="m32.609 33.13c-0.063 0-0.289-0.043-0.34-0.012 0 0-0.559 0.672-0.867 0.887-0.27 0.191-0.52 0.734-0.906 0.93-0.148 0.074-0.223 0.07-0.496 0.07h-3.422l0.027 1h2.969c0.066 0 0.273 0.02 0.41-0.012 0.359-0.078 0.605-0.207 1.02-0.438 0.438-0.266 1.82-1.832 1.82-1.832 0.145-0.09 0.184-0.27 0.09-0.402l-0.043-0.059c-0.059-0.086-0.156-0.129-0.258-0.133m-4e-3 0" style="fill-rule:evenodd;fill:#808080"/>
    <path d="m31.848 20.527v13.793c2.883-0.297 5.152-3.27 5.152-6.895s-2.27-6.598-5.152-6.895m0-4e-3" style="fill-rule:evenodd;fill:#808080"/>
    <path d="m16.15 20.598v13.793c-2.887-0.297-5.152-3.27-5.152-6.895s2.273-6.598 5.152-6.895m0-4e-3" style="fill-rule:evenodd;fill:#808080"/>
    <path d="m27 35.5c0 0.828-1.121 1.5-2.5 1.5-1.383 0-2.5-0.672-2.5-1.5s1.117-1.5 2.5-1.5c1.379 0 2.5 0.672 2.5 1.5" style="fill-rule:evenodd;fill:#808080"/>
    <path d="m31.363 20.305h0.773c0.199 0 0.363 0.129 0.363 0.285v13.43c0 0.16-0.164 0.285-0.363 0.285h-0.773c-0.199 0-0.363-0.125-0.363-0.285v-13.43c0-0.156 0.164-0.285 0.363-0.285" style="fill-rule:evenodd;fill:#808080"/>
    <path d="m15.824 20.285h0.848c0.18 0 0.324 0.129 0.324 0.289v13.523c0 0.156-0.145 0.285-0.324 0.285h-0.848c-0.18 0-0.324-0.129-0.324-0.285v-13.523c0-0.16 0.145-0.289 0.324-0.289" style="fill-rule:evenodd;fill:#808080"/>
   </g>
  </g>
 </g>
</svg>
