<svg width="16" height="16" version="1.1" xmlns="http://www.w3.org/2000/svg">
 <path d="m6.939062-1.2e-7c-0.446302 0-0.805729 0.425577-0.805729 0.95416696v1.291666c0 0.04893 6e-3 0.0958 0.01198 0.142709-1.263575 0.4135901-2.140603 1.3115561-2.144792 2.4114581h-5.21e-4v10.438008c0 0.422108 0.333222 0.761992 0.746875 0.761992h5.972917c0.413653 0 0.746875-0.339884 0.746875-0.761979v-10.438018h-5.21e-4c-0.0042-1.099902-0.881217-1.997868-2.144792-2.4114581 0.0059-0.04691 0.01198-0.09378 0.01198-0.142709v-1.291666c-1e-6 -0.52858996-0.359427-0.95416696-0.80573-0.95416696zm0.794271 7.466667a0.8 1.2 0 0 1 0.8 1.2 0.8 1.2 0 0 1-0.0036 0.104687l1.21823-1.24375 0.282812 0.277083-1.765625 1.802084h1.601563v0.393229h-1.297963a1.0666667 1.4 0 0 1 0.218229 0.6588541l1.24375 1.269271-0.282812 0.277083-0.98073-1.000521a1.0666667 1.4 0 0 1-1.033854 1.06198 1.0666667 1.4 0 0 1-1.033854-1.06198l-0.980729 1.000521-0.282812-0.277083 1.243749-1.269271a1.0666667 1.4 0 0 1 0.217188-0.6588541h-1.296875v-0.393229h1.601562l-1.765624-1.801563 0.282812-0.277083 1.218229 1.243229a0.8 1.2 0 0 1-0.0036-0.104687 0.8 1.2 0 0 1 0.8-1.2z" style="fill:#808080"/>
</svg>
