<svg width="16" height="16" version="1.1" xmlns="http://www.w3.org/2000/svg">
 <path d="m2.5 15.443949c0.074683 0.0038 0.1403339 0.01512 0.2173228 0.0189 0.4201134 0.02646 0.9267099 0.02646 1.4179918 0.03402l0.023433-5.2232c0.00869-1.9596471-0.1018583-4.7197609 0.3485102-6.0314837 0.7511584-1.5195968 2.3429329-2.3375244 4.038633-2.0750362 1.6881252 0.2611654 2.9697292 1.5907654 3.1823502 3.3011905 0.0469 0.3771969 0.05866 2.6350113 0.02835 5.4138714l-0.05046 4.617789c0.543016-0.0076 1.088111-0.01134 1.546213-0.0378 0.07646-0.0038 0.141619-0.01134 0.215849-0.0189l-0.03477-5.09234c-0.038667-5.62114-0.035908-5.573707-0.540501-6.6749101-0.498645-1.0878236-1.445658-2.0947653-2.453628-2.60897-1.1591127-0.59134492-2.8263076-0.73927562-4.0562226-0.35981102-1.5594595 0.48090712-2.7702311 1.5556535-3.44849 3.0610393-0.4232088 0.9392881-0.4335647 1.1035086-0.4339767 6.6143998z" style="fill:#808080"/>
</svg>
