<svg width="16" height="16" version="1.1" xmlns="http://www.w3.org/2000/svg">
 <g transform="translate(-1152.9998,-73.000015)" label="status">
  <path d="m1161.6408 74.66797c-2.159 0.0016-3.993 1.33123-4.8691 3.23242l-0.061 0.12891-0.1386 0.0098c-1.9941 0.14525-3.5723 1.87034-3.5723 3.96875 0 2.19289 1.7161 3.99219 3.8379 3.99219h9.2852c1.591 0 2.8769-1.35038 2.8769-2.98828 0-1.24205-0.7469-2.28507-1.8047-2.73438l-0.1367-0.05859-0.01-0.14844c-0.1356-2.9931-2.4869-5.40018-5.4043-5.40234zm0 1c2.3676 0.0022 4.2913 1.9522 4.4043 4.44726v0.0098l0.051 0.77539 0.7031 0.29688c0.701 0.29774 1.1953 0.97292 1.1953 1.81445 0.01 1.11411-0.8459 1.98828-1.871 1.98828h-9.2852c-1.5562 0-2.8379-1.32108-2.8379-2.99219 0-1.59695 1.1845-2.8663 2.6445-2.97265l0.7227-0.05078 0.3105-0.66211v-0.0039c0.7282-1.58041 2.2126-2.64878 3.961-2.65039z" style="fill:#808080"/>
 </g>
</svg>
