<svg width="16" height="16" version="1.1" xmlns="http://www.w3.org/2000/svg">
 <path d="m7.555177 15.495776c0.021543-3e-3 0.037795-0.0076 0.043238-0.01512 0.011339-0.01512 0.00605-0.05669-0.011339-0.09071-0.014362-0.02646-0.016252-0.048-0.00529-0.0548 0.00416-0.0026 0.043276-0.0076 0.08708-0.0076 0.089537-0.0038 0.1340976-0.0189 0.168-0.04536 0.050305-0.04157 0.05862-0.104692 0.023055-0.176126-0.02759-0.05556-0.078765-0.120944-0.1417701-0.181417-0.098872-0.09487-0.1804724-0.147779-0.2864126-0.185953-0.085493-0.03024-0.1001574-0.04384-0.1165228-0.10507-0.00378-0.01512-0.01852-0.04271-0.032504-0.0635-0.044561-0.06539-0.066973-0.168566-0.085153-0.391937-0.019654-0.243401-0.023433-0.401763-0.026835-1.124447l-0.00333-0.738141 0.037946-0.07559c0.069317-0.138331 0.1325859-0.277795 0.1493292-0.329197 0.028346-0.08655 0.042671-0.176882 0.061304-0.386343 0.034394-0.384378 0.07166-0.504227 0.3718677-1.190703 0.2528169-0.5780302 0.4151401-0.9774885 0.5147533-1.2666602 0.092183-0.2675905 0.1682645-0.4246677 0.2384126-0.4921322 0.025323-0.022677 0.062022-0.043087 0.084586-0.043087 0.036661 0 0.092901 0.048378 0.1393512 0.1201889 0.04543 0.070299 0.1419968 0.2747717 0.2051527 0.4345323 0.1134614 0.2868661 0.2039055 0.5761134 0.2880756 0.9209572 0.1092284 0.44761 0.1692851 0.627516 0.3032693 0.90875 0.098343 0.206362 0.1128947 0.255118 0.1344007 0.449159 0.02532 0.228662 0.07434 0.412838 0.149707 0.562734 0.02948 0.05896 0.05363 0.09373 0.09725 0.140599 0.05397 0.0582 0.06051 0.0703 0.08239 0.151937 0.01134 0.04195 0.05684 0.199937 0.101404 0.351496 0.127597 0.433927 0.2095 0.737499 0.303345 1.124182 0.05435 0.224126 0.09698 0.380674 0.13765 0.506003 0.04362 0.134552 0.04656 0.164788 0.02797 0.288756-0.0155 0.103559-0.01398 0.167055 0.0068 0.24189 0.03814 0.137575 0.126274 0.220725 0.274583 0.25852 0.113877 0.03024 0.19011 0.03402 0.506819 0.03402 0.311433 3.02e-4 0.35161-0.0023 0.431388-0.03024 0.04626-0.01512 0.08606-0.04724 0.09921-0.08013 0.0053-0.01134 0.01172-0.04611 0.01398-0.07294 0.0057-0.05972 0.01134-0.06614 0.05019-0.05631 0.03213 0.0076 0.05443 0.0023 0.07861-0.0189 0.06301-0.05858 0.06637-0.235465 0.0057-0.294425-0.04721-0.04573-0.122116-0.06161-0.337133-0.07105-0.221594-0.01134-0.298432-0.02646-0.407358-0.08693-0.06584-0.03779-0.115956-0.08126-0.134324-0.119055-0.0076-0.01512-0.02079-0.06274-0.0291-0.104693-0.0083-0.04195-0.02268-0.09827-0.03175-0.125102-0.02305-0.06841-0.112214-0.249827-0.214979-0.438765-0.155641-0.286111-0.207836-0.411213-0.269027-0.645506-0.02116-0.08164-0.07703-0.281953-0.123742-0.444888-0.04671-0.162898-0.0909-0.325417-0.09823-0.360945-0.0189-0.0926-0.02154-0.182551-0.01172-0.392806 0.01058-0.22148 0.01058-0.383093 1.81e-4 -0.447799-0.0042-0.02646-0.02192-0.09751-0.03893-0.158362-0.04596-0.162897-0.05276-0.212031-0.05295-0.379993-2.08e-4 -0.192756 0.0155-0.345827 0.08481-0.829721 0.07109-0.4959492 0.08836-0.6742295 0.0929-0.9595082 0.0019-0.1182992 0.0053-0.2173228 0.0076-0.2199685 0.0023-0.00265 0.153827-0.057071 0.336567-0.1213228 0.18274-0.064252 0.37217-0.1311496 0.420953-0.1492914 0.423311-0.1557165 0.624264-0.2668346 0.834251-0.4606488 0.481742-0.4446992 0.790231-1.0848378 1.077585-2.2360818 0.140863-0.5643213 0.205455-0.9246614 0.238148-1.3285418 0.0064-0.07748 0.01398-0.2486929 0.0257-0.5598614 0.01398-0.3824881 0.03553-0.4565669 0.221707-0.7733291 0.07835-0.1334173 0.156397-0.2823307 0.184101-0.351496 0.01096-0.026457 0.02683-0.084661 0.03515-0.1266142 0.0083-0.041953 0.01776-0.082394 0.02117-0.089953 0.0068-0.015118 0.161272-0.093354 0.288491-0.1447559 0.09514-0.038551 0.284302-0.1322834 0.338803-0.167811 0.02268-0.015118 0.06255-0.043843 0.08867-0.065008 0.02608-0.022677 0.05072-0.040819 0.05465-0.043465 0.0042-0.0034 0.03798 0.00756 0.08549 0.030236 0.04309 0.018898 0.102576 0.042709 0.132208 0.052158 0.04989 0.015118 0.0627 0.015118 0.174198 0.015118 0.135459 3.023e-4 0.186293-0.00756 0.272353-0.050268 0.09539-0.045732 0.12412-0.081638 0.136479-0.1704567 0.01172-0.084661-7.18e-4 -0.1315276-0.05412-0.2040945-0.01361-0.018898-0.0072-0.030236 0.02948-0.056693 0.05061-0.037795 0.059-0.061606 0.059-0.1772599 0-0.1235905-0.0027-0.1292598-0.106054-0.2362204-0.09218-0.095244-0.166677-0.1931339-0.2208-0.2891339-0.100271-0.1783937-0.135193-0.2256378-0.184554-0.2490708-0.0562-0.026457-0.200693-0.037795-0.644103-0.045354-0.465457-0.00756-0.613331-0.018898-0.7508-0.054425-0.113272-0.030236-0.18051-0.066898-0.309845-0.176126-0.08617-0.072945-0.09653-0.075968-0.269745-0.076346-0.15394-3.023e-4 -0.246236 0.00756-0.380013 0.034016-0.101669 0.018898-0.162142 0.018898-0.205833 0.00378-0.01739-0.00756-0.06731-0.026457-0.110853-0.047622-0.04356-0.018906-0.09345-0.041205-0.110878-0.046496-0.123704-0.039307-0.233802-0.026457-0.327685 0.041953-0.08598 0.061228-0.144151 0.1424882-0.258142 0.3594331-0.03935 0.074835-0.105864 0.1972913-0.147855 0.2721259-0.16029 0.2861103-0.210935 0.440126-0.217549 0.6618709-0.0053 0.1708346 0.0091 0.2411338 0.09853 0.4887685 0.04838 0.1337953 0.04834 0.1334173 0.0483 0.5214236-1.1e-5 0.2226142-0.0029 0.382337-0.0083 0.4496882-0.02835 0.3643464-0.06187 0.6618708-0.09955 0.8835401-0.03923 0.2309292-0.06573 0.3065197-0.1296 0.3707717-0.08039 0.080882-0.194532 0.1073386-0.465668 0.1073386-0.229077 0-0.332938-0.015118-0.440292-0.070299-0.1768198-0.088443-0.397987-0.3084115-0.592625-0.5894194-0.0823183-0.1186771-0.1556033-0.2388661-0.2731466-0.4472315-0.3426142-0.6074834-0.5257928-0.8387149-0.8930306-1.1273196-0.2212913-0.1738583-0.3320315-0.3394016-0.4229253-0.6315969-0.092409-0.2970708-0.2317228-0.5104629-0.4539666-0.6949417-0.2676662-0.2222362-0.4983647-0.2982047-0.9078123-0.2985827-0.1665638-3.023e-4 -0.2386394 0.00756-0.3468094 0.034016-0.2269229 0.057827-0.3802054 0.1742362-0.4725997 0.3586771-0.03515 0.070299-0.054123 0.1455119-0.121852 0.4863874-0.068409 0.344315-0.1060535 0.4768252-0.1762771 0.620674-0.048907 0.1001575-0.1021985 0.1738583-0.1877292 0.2592756-0.1036346 0.1035591-0.1752945 0.1390866-0.2384882 0.1182992-0.051893-0.0188976-0.078803-0.0612283-0.2721637-0.4470425-0.1777512-0.3545197-0.2248819-0.4442078-0.2971465-0.564737-0.1247622-0.207874-0.2290393-0.3023622-0.3710362-0.335622-0.040819-0.011339-0.075024-0.011339-0.1981606-0.011339-0.1717795 7.559e-4 -0.1913953 0.00378-0.3198614 0.059339-0.3370961 0.1447559-0.598972 0.3590551-0.6806287 0.5571023-0.043313 0.1050709-0.2105575 0.6289512-0.3100346 0.971263-0.056731 0.1950236-0.079597 0.2585197-0.1275213 0.3545197-0.060472 0.1209449-0.09222 0.1613858-0.2470299 0.3152126-0.1016315 0.1009134-0.1597981 0.1644094-0.1999371 0.2184567-0.146305 0.1965354-0.273751 0.4300346-0.426009 0.7805102-0.231194 0.5321575-0.311396 0.8054551-0.336756 1.1473512-0.01096 0.1462677-0.0045 0.4765228 0.01625 0.8208755 0.02041 0.3424252 0.01965 0.4858961-0.0032 0.557367-0.01663 0.052535-0.06694 0.1545826-0.104315 0.2120315-0.05 0.076724-0.07948 0.1009133-0.310488 0.2528503-0.08217 0.054047-0.157229 0.1092284-0.196347 0.144378-0.164069 0.1470236-0.272088 0.3322205-0.28611 0.4899779-0.0045 0.052158 0.0053 0.086551 0.02646 0.091843 0.04052 0.011338 0.276019-0.1012914 0.565814-0.2679685 0.152013-0.087307 0.241965-0.1455118 0.354746-0.2294174 0.114218-0.084661 0.151181-0.1077165 0.181002-0.1126299 0.01776-0.00302 0.02268-0.00113 0.0291 0.011339 0.03848 0.071811 0.193436 0.7046929 0.319143 1.3033701 0.112668 0.5365039 0.136366 0.7225322 0.136479 1.0721763 9.1e-5 0.27515-0.01739 0.468208-0.06074 0.669543-0.03795 0.176504-0.04244 0.226772-0.03851 0.431396 0.0036 0.187464 0.01096 0.291779 0.05786 0.832856 0.04528 0.521122 0.05378 0.737462 0.04195 1.067225-0.01323 0.37493-0.06599 1.178608-0.09902 1.513701-0.02154 0.216945-0.03704 0.292914-0.08489 0.417222-0.04702 0.121701-0.0641 0.185197-0.06811 0.253985-0.0061 0.102425 0.01739 0.164787 0.08682 0.23433 0.08651 0.08655 0.20897 0.11074 0.4844901 0.09562 0.3739465-0.0189 0.4333606-0.03779 0.414463-0.119055-0.00945-0.04044-0.00718-0.06425 0.00643-0.07143 0.0068-0.0038 0.035905-0.0076 0.064932-0.0076 0.068258-7.6e-5 0.1245354-0.01134 0.1444535-0.02268 0.00869-0.0076 0.023055-0.02268 0.031748-0.03969 0.01285-0.02268 0.015874-0.0378 0.015874-0.07559 0-0.04233-0.00249-0.05216-0.022299-0.08882-0.026457-0.04913-0.095698-0.120945-0.1709859-0.177259-0.228737-0.171213-0.3894311-0.362835-0.4145801-0.494854-0.040025-0.209764-0.033638-0.815698 0.015496-1.493858 0.026835-0.371528 0.037039-0.547881 0.044372-0.778999 0.00756-0.238866 0.012472-0.266078 0.072756-0.405354 0.032126-0.0737 0.068901-0.202961 0.094942-0.33222 0.03137-0.154961 0.037039-0.204095 0.037039-0.307654-5.67e-5 -0.106205-0.01285-0.173858-0.049512-0.264945-0.03137-0.07748-0.037039-0.119055-0.028347-0.212409 0.021539-0.238441 0.06712-0.459468 0.1363991-0.662655 0.052876-0.1549607 0.099061-0.2604095 0.2102929-0.4803024 0.1532598-0.3027402 0.2099906-0.4352882 0.2318362-0.541304 0.037417-0.1817952 0.043502-0.5470488 0.011717-0.7201133-0.00605-0.034016-0.010961-0.088819-0.010583-0.1235906 2.003e-4 -0.055937 0.00242-0.068032 0.01852-0.1031811 0.023055-0.050268 0.067616-0.09222 0.1128944-0.1058268 0.06017-0.018898 0.093884-0.00756 0.1326237 0.034016 0.047735 0.052913 0.083187 0.1402205 0.1601385 0.3944315 0.079408 0.2622992 0.1965355 0.6225638 0.3231874 0.9937889 0.2830111 0.8297198 0.3501355 1.0939088 0.4272 1.6815498 0.060661 0.46235 0.107452 0.642255 0.2504693 0.962683 0.045392 0.10167 0.2142236 0.43612 0.3229229 0.639686 0.2225763 0.41673 0.3366803 0.716371 0.4401751 1.155892 0.064592 0.274394 0.1058267 0.403616 0.1665259 0.52252 0.028347 0.05594 0.040517 0.07143 0.1006867 0.130394 0.075893 0.07446 0.077518 0.07861 0.054538 0.130016-0.010961 0.02268-0.014362 0.04687-0.01663 0.104314-0.00367 0.09789 0.00643 0.133796 0.046753 0.169701 0.037417 0.03402 0.1333039 0.08013 0.1887874 0.09298 0.05382 0.01134 0.2040189 0.02268 0.356296 0.02268 0.1182237 2.27e-4 0.2419654 0.01134 0.2514898 0.0189 0.00869 0.0076 6.05e-5 0.02646-0.054047 0.112252-0.065424 0.103559-0.081033 0.137197-0.081109 0.173481-9.07e-5 0.03893 0.026457 0.09071 0.077518 0.151181 0.110589 0.131149 0.238715 0.187086 0.4955905 0.215055 0.1485355 0.01512 0.4349632 0.02268 0.5095446 0.01134zm-0.9809915-1.238173c-0.064101-0.03402-0.137537-0.09487-0.2573102-0.214678-0.122041-0.122078-0.1691339-0.178393-0.2509228-0.301228-0.1584756-0.237732-0.2759811-0.556346-0.4449827-1.206652-0.1424504-0.548107-0.212485-0.892384-0.2486929-1.222261-0.015874-0.142866-0.015496-0.615421 6.047e-4 -0.820196 0.013984-0.181795 0.02041-0.56296 0.010961-0.6776688-0.00378-0.047244-0.011339-0.1296378-0.01663-0.1836851-0.029102-0.295559-0.022299-0.7987275 0.012095-0.8983937 0.00605-0.018898 0.011716-0.022677 0.025323-0.026457 0.027591-0.0034 0.096038 0.018898 0.2172851 0.075591 0.185726 0.084283 0.3159307 0.1228346 0.4672478 0.1390866 0.1530331 0.015118 0.3516851-0.015118 0.4803893-0.073323 0.026835-0.011339 0.051175-0.022677 0.054085-0.018898 0.010205 0.00756 0.013984 0.1024252 0.019653 0.4777701 0.00718 0.4772787 0.014362 0.5799689 0.063421 0.9395529 0.041839 0.305764 0.04645 0.359811 0.046828 0.54652 3.704e-4 0.185575-0.00491 0.237354-0.040857 0.399005-0.035527 0.159118-0.044523 0.244913-0.044447 0.417864 6.05e-5 0.197292 0.018898 0.35452 0.067351 0.567005 0.1205291 0.526526 0.1347779 0.985587 0.047093 1.51782-0.034772 0.21052-0.1145197 0.55287-0.1345134 0.576983-0.010583 0.01134-0.029102 0.0076-0.074306-0.01512z" style="fill:#808080"/>
</svg>
