<svg width="16" height="16" version="1.1" xmlns="http://www.w3.org/2000/svg">
 <g transform="translate(-572,-320)">
  <path d="m575.99414 321c-1.25819 0.0145-2.17883-0.0286-2.93164 0.38672-0.37641 0.20768-0.67518 0.55747-0.83984 0.99609-0.16465 0.43862-0.22266 0.9596-0.22266 1.61719v8c0 0.65759 0.058 1.17857 0.22266 1.61719s0.46343 0.79036 0.83984 0.99804c0.75281 0.41535 1.67345 0.37023 2.93164 0.38477h8.012c1.25819-0.0145 2.17883 0.0306 2.93164-0.38477 0.37641-0.20768 0.67518-0.55942 0.83984-0.99804 0.16438-0.43862 0.22238-0.9596 0.22238-1.61719v-6c0-0.65759-0.058-1.17857-0.22266-1.61719-0.0205-0.0546-0.0479-0.10399-0.0742-0.15429-0.01-0.0185-0.0178-0.038-0.0273-0.0566-0.1727-0.33876-0.42547-0.61453-0.73828-0.78711-0.75287-0.41535-1.67351-0.37023-2.9317-0.38477h-3.03906l-2.02149-2h-2.94922zm0.0117 1h2.5293l1.76562 1.74609-1.26756 1.25391h-3.0392c-1.25819 0.0145-2.17883-0.0306-2.93164 0.38477-0.0222 0.0122-0.0409 0.0297-0.0625 0.043v-1.42777c0-0.59241 0.0626-1.0057 0.16016-1.26563 0.0976-0.25995 0.20334-0.37147 0.38672-0.47265 0.36675-0.20235 1.19544-0.24713 2.45898-0.26172zm5.45898 2h2.52735c1.26354 0.0146 2.09222 0.0594 2.45898 0.26172 0.18338 0.10118 0.28915 0.2127 0.38672 0.47265 0.09772 0.25995 0.16213 0.67322 0.16213 1.26563v6c0 0.59241-0.0627 1.00569-0.16016 1.26562-0.0976 0.25995-0.20332 0.37148-0.38672 0.47266-0.36611 0.20202-1.19322 0.24702-2.45312 0.26172h-8c-1.2599-0.0147-2.087-0.0597-2.45312-0.26172-0.18341-0.10118-0.28915-0.21271-0.38672-0.47266-0.0976-0.25993-0.16016-0.67321-0.16016-1.26562v-4c0-0.59241 0.0644-1.00568 0.16211-1.26563 0.0976-0.25995 0.20334-0.37147 0.38672-0.47265 0.36676-0.20232 1.19544-0.24712 2.45898-0.26172h3.43555z" style="fill:#808080"/>
 </g>
</svg>
