<svg width="16" height="16" version="1.1" xmlns="http://www.w3.org/2000/svg">
 <g transform="translate(-492,-220)">
  <path transform="translate(492,220)" d="m3.9941406 1c-1.2582 0.0145-2.1788906-0.03060437-2.9316406 0.3847656-0.37637 0.20766-0.67323062 0.5593869-0.83789062 0.9980469-0.16467 0.43867-0.22460938 0.9595775-0.22460938 1.6171875v8c0 0.65761 0.059899375 1.178578 0.22460938 1.617188 0.16467999 0.43861 0.46153062 0.788523 0.83789062 0.996093 0.75272 0.41513 1.6735406 0.371649 2.9316406 0.386719h0.0019532 8.0058592 0.003906c1.25819-0.0145 2.178891 0.030604 2.931641-0.384766 0.37637-0.20766 0.673221-0.559387 0.837891-0.998046 0.16453-0.438671 0.224609-0.959578 0.224609-1.617188v-8c0-0.65761-0.059899-1.1785775-0.224609-1.6171875-0.16468-0.43861-0.461531-0.7885237-0.837891-0.9960937-0.75272-0.41513005-1.673551-0.3716488-2.931641-0.3867188h-0.001953-8.0058591-0.0039063zm0.0058594 1h8c1.25862 0.0152 2.089098 0.0598988 2.455078 0.2617188 0.18342 0.1011599 0.287226 0.2128562 0.384766 0.4726562 0.09741 0.25979 0.160156 0.673235 0.160156 1.265625v3.890625c-1.005856 1.1814764-2.316573 2.1039299-3.777344 2.628906-1.3715998 0.49293-2.8994654 0.638458-4.2910154 0.205078-0.3554754-0.110712-0.6978986-0.261208-1.0214844-0.445312 0.5741451-0.3594447 1.1317606-0.7448379 1.6699219-1.1562501 0.73727-0.56362 1.4528938-1.1919763 1.9023438-2.0039063 0.22472-0.40596 0.3783887-0.8560393 0.4179687-1.3183594 0.0396-0.46232-0.0387831-0.9374693-0.2519531-1.3496093-0.18032-0.34862-0.4540038-0.6466407-0.7773437-0.8691407-0.3233501-0.2224899-0.693695-0.3700487-1.078125-0.4492187-0.76885-0.15834-1.5738694-0.0398956-2.3183594 0.2089844-1.00645 0.33645-1.9425306 0.9188081-2.6191406 1.7363281-0.67661 0.81751-1.0790807 1.87766-1.0253907 2.9375 0.0585 1.15341 0.6508938 2.242277 1.4960938 3.029297 0.007158 0.006665 0.0162459 0.010953 0.0234375 0.017578-0.741472 0.511487-1.51704 0.971355-2.3242188 1.371094-0.0096025-0.140785-0.0253906-0.264104-0.0253906-0.433594v-8c0-0.59239 0.0625962-1.005725 0.1601562-1.265625 0.0976-0.25991 0.2013557-0.3714662 0.3847657-0.4726562 0.36596-0.2019201 1.1965481-0.2470188 2.4550781-0.2617188zm2.0195312 2.0332031c0.2821501-0.0107 0.5681951 0.0361944 0.828125 0.1464844 0.25994 0.11026 0.4925825 0.2854456 0.6640626 0.5097656 0.19754 0.25841 0.3099706 0.5763206 0.3378906 0.9003907 0.0279 0.32406-0.0262825 0.6536175-0.1328125 0.9609374-0.21312 0.6146301-0.6296232 1.1352807-1.0644531 1.6191407-0.4861939 0.541021-1.0086468 1.0488054-1.5546876 1.5292969-0.0169566-0.0150969-0.0360025-0.0276138-0.0527343-0.0429688-0.53692-0.49273-0.9537413-1.1203631-1.1757813-1.8144531-0.25715-0.80385-0.2406787-1.7119407 0.1445313-2.4628907 0.1926-0.37547 0.4744156-0.7064025 0.8222656-0.9453124 0.34785-0.2389101 0.7619137-0.3843707 1.1835937-0.4003907zm8.9804688 6.6660159v1.300781c0 0.59239-0.062596 1.005725-0.160156 1.265625-0.0976 0.25991-0.201356 0.371466-0.384766 0.472656-0.36596 0.20192-1.196558 0.247009-2.455078 0.261719h-7.9941406-0.0058594c-1.25863-0.0152-2.0890981-0.059899-2.4550781-0.261719-0.18342-0.10116-0.2872257-0.212856-0.3847657-0.472656-0.0633602-0.168738-0.1045613-0.429064-0.1308593-0.734375 0.9484795-0.307541 1.8775965-0.67163 2.7753906-1.105469 0.7590145 0.567032 1.6445894 0.961304 2.5644531 1.201172 1.63324 0.42589 3.3775494 0.416966 5.0058594-0.027344 1.326786-0.362075 2.564666-1.024862 3.625-1.90039z" style="fill:#808080"/>
 </g>
</svg>
