<svg width="16" height="16" version="1.1" xmlns="http://www.w3.org/2000/svg">
 <path d="m5.9624045 1.0021991c-0.2082238 0-0.3726684 0.00992-0.5600618 0.013228-0.2445717 0.00662-0.50617 0.00662-0.7309475 0.016536-0.015907 0.00661-0.034746 0.013228-0.0504 0.019842l-0.2589706 0.1187246-0.0608474 0.3042514-1.2294464 6.1479627-0.4659779 2.3238862-0.8557529 4.268184c0.066771 0.05919 0.1319297 0.119386 0.2076092 0.170646 0.1099829 0.07441 0.2296337 0.140551 0.3597731 0.199747 0.1301403 0.05887 0.270777 0.110457 0.4226558 0.155764 0.1518813 0.04531 0.3150126 0.084 0.4902188 0.116739 0.1752062 0.03308 0.3624602 0.06019 0.562582 0.08268 0.2001209 0.02315 0.4131209 0.03968 0.6397438 0.05291 0.08743 0.0067 0.2035579 0.0031 0.2950906 0.0067 0.1087536-0.528967 0.1786423-0.857625 0.3816149-1.875776l0.4729379-2.372268 0.105605-0.529828 0.5822625-4.63e-4c0.800388-6.94e-4 1.9128186-0.05324 2.4218118-0.115086 1.8513266-0.22389 3.1747496-0.8303749 4.2749236-1.9587178 0.59791-0.6132322 1.015501-1.2695222 1.351971-2.1247998 0.170493-0.4333929 0.30869-1.0122974 0.370815-1.5088226a5.012196 7.2938216 75.38042 0 0-0.011774-0.2811868 5.012196 7.2938216 75.38042 0 0-0.092525-0.4929866 5.012196 7.2938216 75.38042 0 0-0.108245-0.3381491 5.012196 7.2938216 75.38042 0 0-0.212046-0.4585598 5.012196 7.2938216 75.38042 0 0-0.27937-0.4320039 5.012196 7.2938216 75.38042 0 0-0.343813-0.4014136 5.012196 7.2938216 75.38042 0 0-0.404895-0.3664907 5.012196 7.2938216 75.38042 0 0-0.135964-0.0965667c-0.549763-0.3709222-1.361371-0.6994807-1.819629-0.6303958-0.231734-0.0033075-0.432296-0.0165357-0.688106-0.0165357zm1.2067657 1.7850631h1.0866417c1.0714346 0 1.6952893 0.040677 2.0239971 0.1319526 0.229984 0.063827 0.500823 0.2305035 0.662305 0.4070685 0.266061 0.2910231 0.375442 0.6834083 0.345613 1.2393947-0.03049 0.5682889-0.214044 1.1301619-0.557181 1.7051641-0.643491 1.0783071-1.4876819 1.5980475-2.9284716 1.8028225v-1.33e-4c-0.2087 0.029767-0.5929795 0.047626-1.0176387 0.048282l-0.6822261 6.943e-4 0.5334207-2.6676898z" style="fill:#808080"/>
</svg>
