<svg width="16" height="16" version="1.1" xmlns="http://www.w3.org/2000/svg">
 <path d="m6.7292313 3.1864963e-5c-0.6084417-0.001470005-1.1999664 0.048300995-1.7391513 0.1486533-0.7000958 0.2314413-1.284399 0.534397-1.6856234 1.2713137-0.4318362 0.6989626-0.5840918 1.6488682-0.5976807 2.3393672-0.010312 0.5377903-0.1047988 1.8408745 0.9154194 3.2345287 0.3742079 0.448412 0.9256405 0.9242303 1.5854369 1.1937334 1.5380851 0.4754849 2.0163846-0.5757786 2.7950851-2.1261526-0.1865976 0.8253878-0.2756377 1.6759999-0.9175907 2.3840343 0.5199656 0.8244954 1.3748291 1.2426715 2.1825787 1.9682811 0.1612605 0.146511 0.4157047 0.229009 0.180115 0.601837-0.3424593 0.577455-0.7021451 0.947351-1.0676858 1.405864-0.2393949 0.326012-0.3951193 0.549132-0.4745286 0.807455-0.073049 0.571954-0.021282 1.075674 0.2786779 1.623777 0.1389246 0.295512 0.3092176 0.575415 0.5450525 0.84688 0.245142 0.301485 0.4050149 0.374931 0.8110742 0.225326 0.3409098-0.122757 0.6505395-0.273117 0.9203025-0.55102 0.120051-0.201936 0.14935-0.64415-0.195125-0.828075-0.125253-0.0814-0.25998-0.166282-0.3446856-0.259867-0.1492958-0.164953-0.2975275-0.325248-0.3166516-0.579418-0.0127985-0.169768 0.2253265-0.454997 0.2253265-0.454997 0.8978387-0.830012 1.8912987-1.641307 2.3514847-2.163768 1.011519-1.1750372 1.505795-3.1222468 1.379458-4.9986383 0.025302-1.414573-0.566335-2.9780152-1.548369-4.1910003-0.610172-0.6949858-1.286407-1.2111952-2.2635914-1.4599316-0.9442567-0.2906868-2.0052588-0.4357017-3.0193283-0.4381829zm4.2906467 5.1199821a0.63999634 0.63999634 0 0 1 0.639997 0.6400014 0.63999634 0.63999634 0 0 1-0.639997 0.6399966 0.63999634 0.63999634 0 0 1-0.640001-0.6399966 0.63999634 0.63999634 0 0 1 0.640001-0.6400014zm-0.54795 3.2003554c0.08191-0.00637 0.153346 0.059819 0.296399 0.1848176l2.018008 1.669709c-0.275735-0.0077-0.637324 0.09279-1.03821 0.05751-0.87131-0.07668-1.9121927-0.3199377-1.9968537-0.6347553-0.047761-0.4368295 0.044721-0.7780482 0.4718167-1.1241117 0.115123-0.099205 0.185127-0.148217 0.24884-0.1531696z" style="fill:#808080"/>
</svg>
