<svg width="16" height="16" version="1.1" xmlns="http://www.w3.org/2000/svg">
 <path d="m7.8571694 1.06e-6a5.1428573 5.2000001 0 0 0-5.1428326 5.199999 5.1428573 5.2000001 0 0 0 0.025559 0.5143386h-0.8827264c-0.474857 0-0.8571694 0.3680802-0.8571694 0.825369v5.7777563c0 0.457287 0.3823124 0.825367 0.8571694 0.825367h0.8571674v2.05717c0 0.443199 0.352848 0.799999 0.7911773 0.799999h2.7691183l1.1869484-1.714337h0.7911751l1.1867658 1.714337h2.7693023c0.438329 0 0.791177-0.3568 0.791177-0.799999v-2.05717h0.85717c0.474857 0 0.857167-0.36808 0.857167-0.825367v-5.7777563c0-0.4572888-0.38231-0.825369-0.857167-0.825369h-0.88455a5.1428573 5.2000001 0 0 0 0.02738-0.5143386 5.1428573 5.2000001 0 0 0-5.1428316-5.199999zm0 1.7143368c1.8935455 0 3.4284916 1.4683055 3.4284916 3.2795957-7.13e-4 0.091226-0.0059 0.4474058-0.0145 0.7204051h-6.8275782c-0.00879-0.2729949-0.014065-0.6291614-0.015164-0.7204051 0-1.8112902 1.5351285-3.2795957 3.4286782-3.2795957zm-1.4286767 1.4284944a0.85714284 0.85714284 0 0 0-0.8569871 0.8571673 0.85714284 0.85714284 0 0 0 0.8569871 0.8571696 0.85714284 0.85714284 0 0 0 0.8571674-0.8571696 0.85714284 0.85714284 0 0 0-0.8571674-0.8571673zm2.8571687 0a0.85714284 0.85714284 0 0 0-0.8571694 0.8571673 0.85714284 0.85714284 0 0 0 0.8571694 0.8571696 0.85714284 0.85714284 0 0 0 0.8571706-0.8571696 0.85714284 0.85714284 0 0 0-0.8571706-0.8571673zm-1.4193012 4.5641544c0.4835973 0 0.875551 0.3921361 0.875551 0.8757334v0.3501844h0.2917279c0.112258-0.014505 0.2069345 0.104698 0.2288609 0.227573 0.00308 0.017582 0.00483 0.035251 0.00483 0.052569v1.5713245c0 0.138608-0.1042804 0.25-0.2336386 0.25h-2.3347377c-0.1293561 0-0.2336387-0.111401-0.2336387-0.25v-1.5713247c0-0.1386083 0.1042804-0.2801462 0.2336387-0.2801462h0.291728v-0.3501843c0-0.4835974 0.3921361-0.8757335 0.8757356-0.8757335zm0 0.3503668c-0.2720257 0-0.4957066 0.2067587-0.5226108 0.4716903-0.00179 0.017582-0.00286 0.035537-0.00286 0.053668v0.3501843h1.0352946c0.00102-5.011e-4 0.015384-0.00681 0.015384-0.00681v-0.3433857c0-0.2901589-0.2352078-0.5253667-0.5253667-0.5253667z" style="fill:#808080"/>
</svg>
