<svg width="16" height="16" version="1.1" viewBox="0 0 16 16" xmlns="http://www.w3.org/2000/svg">
 <path d="m2.5 0.79296875s-0.6033993-0.006894-1.2226562 0.30273435c-0.61925701 0.3096285-1.2773438 1.030599-1.2773438 2.1972657v5.2070312l7.5 7.5 7.707031-7.7070312-7.4999998-7.5zm0 1h4.7929688l6.5000002 6.5-6.292969 6.2929692-6.5-6.5000005v-4.7929687c0-0.8333334 0.3419132-1.1123629 0.7226562-1.3027344 0.3807431-0.1903715 0.7773438-0.1972657 0.7773438-0.1972656zm1 1c-0.8225052 0-1.5 0.6774947-1.5 1.5 0 0.8225052 0.6774948 1.5 1.5 1.5s1.5-0.6774948 1.5-1.5c0-0.8225053-0.6774948-1.5-1.5-1.5zm0 1c0.2820548 0 0.5 0.2179452 0.5 0.5 0 0.2820547-0.2179452 0.5-0.5 0.5s-0.5-0.2179453-0.5-0.5c0-0.2820548 0.2179452-0.5000001 0.5-0.5z" fill="#808080"/>
</svg>
