<svg width="16" height="16" version="1.1" xmlns="http://www.w3.org/2000/svg">
 <g transform="matrix(.12931034 0 0 .12931034 -11.913793 -12.948275)" style="enable-background:new;fill:#808080">
  <path d="m152 104c-13.296 0-24 5.352-24 12v16h24v4h-44c-6.648 0-12 10.704-12 24v4c0 13.296 5.352 24 12 24h16v-12s0-16 16-16h32s8 0 8-8v-36c0-6.648-10.704-12-24-12zm-12 8c2.20914 0 4 1.79086 4 4s-1.79086 4-4 4-4-1.79086-4-4 1.79086-4 4-4z" style="fill:#808080"/>
  <path d="m156 220c13.296 0 24-5.352 24-12v-16h-24v-4h44c6.648 0 12-10.704 12-24v-4c0-13.296-5.352-24-12-24h-16v16c0 12-12 12-12 12h-32c-12 0-12 12-12 12v32c0 6.648 10.704 12 24 12zm12-12c-2.20914 0-4-1.79086-4-4s1.79086-4 4-4 4 1.79086 4 4-1.79086 4-4 4z" style="fill:#808080"/>
 </g>
</svg>
