<svg width="16" height="16" version="1.1" xmlns="http://www.w3.org/2000/svg">
 <path d="m12.555868 15.8347c-0.415498-0.145093-1.015075-0.67918-3.2604994-2.904373-1.513256-1.499622-2.8537735-2.891926-2.9789258-3.0939991-0.3731257-0.6024668-0.2292798-0.8709488 1.2487823-2.3308053 1.9192365-1.8955979 1.5072235-2.0207622 5.0646209 1.5385532 3.075651 3.0773082 3.313113 3.3955822 3.317682 4.4467372 3e-3 0.699454-0.409647 1.591488-0.906079 1.958516-0.769009 0.568553-1.594499 0.696542-2.485581 0.385371zm1.90643-3.365234c0.04788-0.24699-4.6844914-5.0376069-4.9763524-5.0376069-0.102782 0-0.219795 0.085794-0.260033 0.1906442-0.05472 0.1425997 0.552262 0.8160656 2.4083684 2.6721737 1.440506 1.440505 2.545887 2.460095 2.634946 2.430436 0.08439-0.02809 0.171263-0.143138 0.193071-0.255647zm-11.321282-7.498362c-2.7070347-2.7127536-3.1347499-3.2575995-3.1409943-4.0011467-0.0032892003-0.3993603 0.3699242-0.8477635 0.7728119-0.9283424 0.81006662-0.162012 1.0496436 0.0157781 4.0620955 3.0142342 1.5716115 1.5643202 2.8401967 2.8961245 2.8190771 2.9595688-0.1209702 0.3634115-0.5069983 0.133388-1.5937506-0.9496632l-1.1479022-1.1439979-0.5023904 0.5118981-0.5023905 0.5118992 1.1723208 1.1763256c0.8188386 0.8216371 1.1514984 1.2305887 1.103262 1.3562885-0.037985 0.098988-0.1346949 0.1799629-0.2149161 0.1799629-0.080216 0-1.3524721-1.2091616-2.8272232-2.6870271zm0.7066436-2.117693c-0.1480301-0.1575697-0.3169943-0.2864936-0.3754749-0.2864936-0.058478 0-0.2998676 0.2163783-0.5364125 0.4808374l-0.4300843 0.4808372 0.2972103 0.3140052 0.2972104 0.3140061 0.5083488-0.5083499 0.5083479-0.5083488zm-1.6065565-0.6629175 0.4804676-0.4895606-0.5652028-0.528682c-0.4816108-0.45049026-0.6333767-0.52867806-1.0261537-0.52867806-0.54140422 0-0.64404562 0.1590917-0.46082032 0.71426866 0.1232905 0.3735761 0.84826882 1.3222167 1.0104744 1.3222167 0.044423 0 0.296977-0.2203043 0.5612348-0.4895647z" style="fill:#808080"/>
</svg>
