<?xml version="1.0" encoding="UTF-8" standalone="no"?>
<!-- Created with Inkscape (http://www.inkscape.org/) -->

<svg
   xmlns:dc="http://purl.org/dc/elements/1.1/"
   xmlns:cc="http://creativecommons.org/ns#"
   xmlns:rdf="http://www.w3.org/1999/02/22-rdf-syntax-ns#"
   xmlns:svg="http://www.w3.org/2000/svg"
   xmlns="http://www.w3.org/2000/svg"
   xmlns:sodipodi="http://sodipodi.sourceforge.net/DTD/sodipodi-0.dtd"
   xmlns:inkscape="http://www.inkscape.org/namespaces/inkscape"
   width="256"
   height="256"
   viewBox="0 0 67.733332 67.733335"
   version="1.1"
   id="svg1488"
   inkscape:version="0.91 r13725"
   sodipodi:docname="QOwnNotes-symbolic.svg">
  <defs
     id="defs1482">
    <clipPath
       clipPathUnits="userSpaceOnUse"
       id="clipPath1025">
      <path
         id="path1027"
         d="M 111.94141,84 C 99.359506,84.145 90.1531,83.713998 82.625,87.867188 c -3.7641,2.0768 -6.751838,5.574737 -8.398438,9.960937 C 72.580062,102.21433 72,107.4241 72,114 v 42 h 160 v -26 c 0,-6.5759 -0.57996,-11.78566 -2.22656,-16.17188 -0.205,-0.5455 -0.47919,-1.03993 -0.74219,-1.54296 -0.1,-0.1848 -0.17844,-0.38051 -0.27344,-0.56641 -1.727,-3.38752 -4.25471,-6.14522 -7.38281,-7.87109 C 213.8463,99.694146 204.64049,100.1454 192.05859,100 H 192 151.66797 L 135.45312,84 h -23.49218 z"
         style="color:#000000;font-style:normal;font-variant:normal;font-weight:normal;font-stretch:normal;font-size:medium;line-height:normal;font-family:sans-serif;font-variant-ligatures:none;font-variant-position:normal;font-variant-caps:normal;font-variant-numeric:normal;font-variant-alternates:normal;font-feature-settings:normal;text-indent:0;text-align:start;text-decoration:none;text-decoration-line:none;text-decoration-style:solid;text-decoration-color:#000000;letter-spacing:normal;word-spacing:normal;text-transform:none;writing-mode:lr-tb;direction:ltr;baseline-shift:baseline;text-anchor:start;white-space:normal;shape-padding:0;clip-rule:nonzero;display:inline;overflow:visible;visibility:visible;opacity:1;isolation:auto;mix-blend-mode:normal;color-interpolation:sRGB;color-interpolation-filters:linearRGB;solid-color:#000000;solid-opacity:1;fill:#e3dfd5;fill-opacity:1;fill-rule:nonzero;stroke:none;stroke-width:4.00000048;stroke-linecap:butt;stroke-linejoin:miter;stroke-miterlimit:4;stroke-dasharray:none;stroke-dashoffset:0;stroke-opacity:1;marker:none;color-rendering:auto;image-rendering:auto;shape-rendering:auto;text-rendering:auto;enable-background:accumulate"
         inkscape:connector-curvature="0" />
    </clipPath>
    <clipPath
       clipPathUnits="userSpaceOnUse"
       id="clipPath1082-3">
      <path
         sodipodi:nodetypes="sssssssss"
         inkscape:connector-curvature="0"
         id="path1084-6"
         d="M 361.9375,-212 C 507.2348,-212 528,-191.28677 528,-46.125 V 70.125 C 528,215.28618 507.2348,236 361.9375,236 H 214.0625 C 68.7652,236 48,215.28618 48,70.125 V -46.125 C 48,-191.28677 68.7652,-212 214.0625,-212 Z"
         style="display:inline;opacity:1;fill:#8c59d9;fill-opacity:1;stroke:none;stroke-width:2;stroke-linecap:round;stroke-linejoin:round;stroke-miterlimit:4;stroke-dasharray:none;stroke-dashoffset:0;stroke-opacity:1;enable-background:new" />
    </clipPath>
  </defs>
  <sodipodi:namedview
     id="base"
     pagecolor="#ffffff"
     bordercolor="#666666"
     borderopacity="1.0"
     inkscape:pageopacity="0.0"
     inkscape:pageshadow="2"
     inkscape:zoom="1.6210938"
     inkscape:cx="103.22271"
     inkscape:cy="144.96203"
     inkscape:document-units="px"
     inkscape:current-layer="layer1"
     showgrid="true"
     units="px"
     inkscape:window-width="1920"
     inkscape:window-height="1054"
     inkscape:window-x="0"
     inkscape:window-y="26"
     inkscape:window-maximized="1">
    <inkscape:grid
       type="xygrid"
       id="grid2168" />
  </sodipodi:namedview>
  <metadata
     id="metadata1485">
    <rdf:RDF>
      <cc:Work
         rdf:about="">
        <dc:format>image/svg+xml</dc:format>
        <dc:type
           rdf:resource="http://purl.org/dc/dcmitype/StillImage" />
        <dc:title></dc:title>
      </cc:Work>
    </rdf:RDF>
  </metadata>
  <g
     inkscape:label="Livello 1"
     inkscape:groupmode="layer"
     id="layer1"
     transform="translate(0,-229.26666)">
    <path
       inkscape:connector-curvature="0"
       style="color:#4d4d4d;clip-rule:nonzero;display:inline;overflow:visible;visibility:visible;opacity:0.38999999;isolation:auto;mix-blend-mode:normal;color-interpolation:sRGB;color-interpolation-filters:linearRGB;solid-color:#000000;solid-opacity:1;fill:#808080;fill-opacity:1;fill-rule:nonzero;stroke:none;stroke-width:1;stroke-linecap:butt;stroke-linejoin:miter;stroke-miterlimit:4;stroke-dasharray:none;stroke-dashoffset:0;stroke-opacity:1;color-rendering:auto;image-rendering:auto;shape-rendering:auto;text-rendering:auto;enable-background:accumulate"
       id="path4225"
       d="m 33.866666,247.59647 a 11.575522,12.117376 0 0 0 -11.575525,12.11734 11.575522,12.117376 0 0 0 0.132485,1.73442 8.2682302,8.6552689 0 0 0 -0.132485,-0.005 8.2682302,8.6552689 0 0 0 -8.268225,8.65536 8.2682302,8.6552689 0 0 0 8.268225,8.65519 l 21.497411,0 a 9.9218759,10.386323 0 0 0 9.921865,-10.3863 9.9218759,10.386323 0 0 0 -8.381265,-10.2511 11.575522,12.117376 0 0 0 -11.462486,-10.52152 z m 0,1.73104 a 9.9218759,10.386323 0 0 1 0.991554,0.0515 9.9218759,10.386323 0 0 1 4.608885,1.76491 9.9218759,10.386323 0 0 1 0.0037,0 9.9218759,10.386323 0 0 1 2.16719,2.11307 9.9218759,10.386323 0 0 1 0,0.005 9.9218759,10.386323 0 0 1 2.008915,4.72996 9.9218759,10.386323 0 0 1 0.141974,1.72419 8.2682302,8.6552689 0 0 1 1.647171,0.17225 8.2682302,8.6552689 0 0 1 0.797781,0.21274 8.2682302,8.6552689 0 0 1 0.0037,0 8.2682302,8.6552689 0 0 1 0.771918,0.29738 8.2682302,8.6552689 0 0 1 0.0037,0 8.2682302,8.6552689 0 0 1 0.739634,0.37542 8.2682302,8.6552689 0 0 1 0.0077,0.005 8.2682302,8.6552689 0 0 1 0.69764,0.44977 8.2682302,8.6552689 0 0 1 0.0077,0.005 8.2682302,8.6552689 0 0 1 0.652425,0.52043 8.2682302,8.6552689 0 0 1 0.0037,0.005 8.2682302,8.6552689 0 0 1 0.600739,0.5852 8.2682302,8.6552689 0 0 1 0.0038,0.005 8.2682302,8.6552689 0 0 1 1.023852,1.35238 8.2682302,8.6552689 0 0 1 0.0037,0.005 8.2682302,8.6552689 0 0 1 0.406939,0.74716 8.2682302,8.6552689 0 0 1 0.0037,0.005 8.2682302,8.6552689 0 0 1 0.335916,0.7844 8.2682302,8.6552689 0 0 1 0.0037,0.005 8.2682302,8.6552689 0 0 1 0.258355,0.81825 8.2682302,8.6552689 0 0 1 0,0.005 8.2682302,8.6552689 0 0 1 0.180862,0.8419 8.2682302,8.6552689 0 0 1 0,0.005 8.2682302,8.6552689 0 0 1 0.10007,0.85537 8.2682302,8.6552689 0 0 1 0.01898,0.61097 8.2682302,8.6552689 0 0 1 -8.268219,8.6552 l -21.497398,0 a 6.614584,6.9242151 0 0 1 -6.614593,-6.92415 6.614584,6.9242151 0 0 1 0.03235,-0.68974 6.614584,6.9242151 0 0 1 6.582294,-6.2345 6.614584,6.9242151 0 0 1 0.494136,0.0221 6.614584,6.9242151 0 0 1 0,0.004 6.614584,6.9242151 0 0 1 1.912035,0.45345 9.9218759,10.386323 0 0 1 -0.565227,-1.98464 9.9218759,10.386323 0 0 1 -0.122641,-0.87906 9.9218759,10.386323 0 0 1 -0.0225,-0.19948 9.9218759,10.386323 0 0 1 -0.04219,-0.87915 9.9218759,10.386323 0 0 1 0.04852,-1.03791 9.9218759,10.386323 0 0 1 9.873421,-9.34839 z" />
  </g>
</svg>
