<svg width="16" height="16" version="1.1" viewBox="0 0 16 16" xmlns="http://www.w3.org/2000/svg">
 <path d="m8.7792969 1.9980469c-0.051556-0.0055494-0.1028131 0.0098601-0.1425781 0.0449219-0.0397651 0.0350898-0.0633921 0.085636-0.0683594 0.140625l-0.2265625 2.4863281c-0.010353 0.1144062 0.0690353 0.2174449 0.1757812 0.2285156 0.6183579 0.0642099 1.2136499 0.2429923 1.7714839 0.53125 0.026537 0.0137332 0.056997 0.0195312 0.085938 0.0195313 0.021595 0 0.041689-0.0039553 0.0625-0.0117188 0.048602-0.0181895 0.088975-0.0557489 0.111328-0.1054688l1.011719-2.25c0.046615-0.1035317 0.006784-0.2274556-0.089844-0.2773437-0.847327-0.4377817-1.7533594-0.7091627-2.6914061-0.8066406zm-1.8632813 0.0371093c-0.9335499 0.1357348-1.828228 0.4449011-2.6601562 0.9179688-0.0947197 0.0538679-0.1302746 0.1796521-0.0800782 0.28125l1.0917969 2.2070312c0.0348761 0.070488 0.1023058 0.1093751 0.171875 0.109375 0.0306931 0 0.0608762-0.0069576 0.0898438-0.0234374 0.5480305-0.3115762 1.1372292-0.5141095 1.7519531-0.6035157 0.1062492-0.0154429 0.180421-0.1204452 0.1660156-0.234375l-0.3125-2.4765625c-0.0144053-0.1139017-0.1127622-0.1930651-0.21875-0.1777344zm5.9863284 1.796875c-0.051216 0.0056895-0.098389 0.0333467-0.13086 0.0761719l-1.470703 1.9375c-0.032471 0.0428533-0.046323 0.0974389-0.041015 0.1523438 0.005255 0.0549049 0.030338 0.1057594 0.070312 0.140625 0.48288 0.4209375 0.888336 0.922558 1.207031 1.4941406 0.036393 0.0651908 0.101877 0.1015625 0.167969 0.1015625 0.033909 0 0.06842-0.0092856 0.09961-0.0292969l2-1.28125c0.044157-0.0283353 0.075289-0.0733935 0.08789-0.1269531 0.012549-0.0535596 0.004973-0.1107814-0.021484-0.1582031-0.481886-0.8642126-1.096362-1.6254218-1.826172-2.2617188-0.039974-0.0348095-0.091153-0.0504432-0.142578-0.0449219zm-10.041016 0.2070313c-0.0516344-0.0035314-0.101958 0.0143461-0.140625 0.0507813-0.7068553 0.6660896-1.2937579 1.4508255-1.7441406 2.3339843-0.02467994 0.0484587-0.03010878 0.1072133-0.015625 0.1601563 0.01448378 0.052971 0.0465939 0.0965894 0.0917969 0.1230468l2.0449218 1.1992188c0.0295689 0.0173487 0.0622465 0.0253906 0.09375 0.0253906 0.0686803 0 0.1346537-0.0402043 0.1699219-0.109375 0.2976756-0.5837463 0.6867115-1.1023563 1.1542969-1.5429687 0.0387454-0.0363791 0.0611851-0.087449 0.0644531-0.1425781 0.0033203-0.0550731-0.0128878-0.1108919-0.046875-0.1523438l-1.5390625-1.875c-0.0339872-0.0414519-0.0813872-0.0667531-0.1328125-0.0703125zm12.53125 3.7910156-2.224609 0.7460938c-0.102354 0.0343611-0.159006 0.1520491-0.126953 0.2617187 0.159583 0.5461341 0.240234 1.1164148 0.240234 1.6953124 0 0.08523-0.001833 0.172015-0.005859 0.265625-0.002406 0.055129 0.016062 0.109611 0.050781 0.150391 0.034693 0.040807 0.08334 0.065837 0.134766 0.068359l2.328124 0.115234c0.003085 1.41e-4 0.00478 0 0.007813 0 0.103112 0 0.188497-0.087671 0.193359-0.199218 0.005987-0.138874 0.009766-0.269869 0.009766-0.400391-5.2e-5 -0.8748347-0.123089-1.7380681-0.365234-2.5664061-0.032105-0.1097257-0.139939-0.171164-0.242188-0.1367188zm-10.779297 0.2402344c-0.0422389 0.0052621-0.0828942 0.0253397-0.1152343 0.0585937-0.0647326 0.0664521-0.0793058 0.1711618-0.0371094 0.2558594l1.7207031 3.4570314c-0.0063268 0.066592-0.0097656 0.1353-0.0097656 0.203125 0 0.521526 0.1892265 1.010155 0.5332031 1.378906 0.3440028 0.368779 0.8006218 0.572266 1.2871094 0.572266s0.9450859-0.203543 1.2890625-0.572266c0.3440028-0.368751 0.5332031-0.85738 0.5332031-1.378906 0-0.521527-0.1892265-1.012108-0.5332031-1.38086-0.3435142-0.368255-0.8013802-0.57172-1.2871094-0.572265h-0.0019531c-0.0328398 4.4e-5 -0.0670704 8.4e-5 -0.0996094 0.001953l-3.1542969-1.9941406c-0.0386016-0.0244536-0.082761-0.034559-0.125-0.0292969zm-4.0957031 0.0664063c-0.04969974-0.0144059-0.1037574-0.0079353-0.1484375 0.0195312-0.04468009 0.0274665-0.0763273 0.0736738-0.08984374 0.1269531-0.18481194 0.7306639-0.27929688 1.4873854-0.27929688 2.2499999 0 0.130522 0.003726361 0.261517 0.009765625 0.400391 0.00483664 0.111575 0.090195151 0.199219 0.19335938 0.199218 0.0030327 0 0.00673292 1.69e-4 0.00976562 0l2.3261719-0.115234c0.0514252-0.002522 0.1001248-0.02758 0.1347656-0.068359 0.0346931-0.04078 0.0531865-0.095262 0.0507813-0.150391-0.0040523-0.093638-0.0058594-0.180423-0.0058594-0.265625 0-0.505046 0.0616581-1.0044598 0.1835938-1.486328 0.0280002-0.1109309-0.0332408-0.2257303-0.1367188-0.2558594l-2.2480469-0.6542968z" fill="#808080"/>
</svg>
