<svg width="16" height="16" version="1.1" xmlns="http://www.w3.org/2000/svg">
 <g transform="translate(16.067797,3.3056748)" style="fill:#808080">
  <path d="m-13.076275-1.3985252c-2.351378 2.5552891-1.781514 7.3173023 1.272149 10.635775 3.0536644 3.3184829 7.4349383 3.9369789 9.7863203 1.3816899 2.351383-2.5552889 1.783137-7.3174934-1.27053-10.635967-3.0536627-3.3184835-7.4365573-3.9367976-9.7879393-1.3814984zm2.132185 1.0614735c1.8475632-2.0077768 5.2446042-1.5710393 7.5880923 0.9756806 2.343496 2.54672 2.745384 6.2383572 0.897818 8.2461442-1.847562 2.0077669-5.245493 1.5720169-7.5889883-0.974713-2.343494-2.5467296-2.744485-6.2393248-0.896922-8.2471118z" style="clip-rule:evenodd;fill-rule:evenodd;fill:#808080;image-rendering:optimizeQuality;shape-rendering:geometricPrecision"/>
  <rect x="-4.5" y="-.49" width="1.969" height="1.969" rx=".348" ry=".348" style="clip-rule:evenodd;fill:#808080;image-rendering:optimizeQuality;shape-rendering:geometricPrecision"/>
  <rect x="-15.57" y="2.1" width="4.637" height="4.637" rx=".82" ry=".82" style="clip-rule:evenodd;fill:#808080;image-rendering:optimizeQuality;shape-rendering:geometricPrecision"/>
  <rect x="-3.58" y="8.17" width="2.801" height="2.801" rx=".496" ry=".496" style="clip-rule:evenodd;fill:#808080;image-rendering:optimizeQuality;shape-rendering:geometricPrecision"/>
 </g>
</svg>
