<svg width="16" height="16" version="1.1" xmlns="http://www.w3.org/2000/svg">
 <g transform="translate(0,-1036.3622)">
  <path transform="translate(0,1036.3622)" d="m0.50390625 0.50390625-0.00195313 7.4863282c-0.00199895 4.1156556-0.00104323 7.4845526 0.00195313 7.4980466 0.00427 0.011 1.5092902 0.011719 7.5 0.011719h7.4960938v-7.4980469-7.4980468h-7.4980469-7.4980468zm0.99218755 2.5351562h2.1328124c0.7979206 0 1.3924298 0.1664667 1.7851563 0.5 0.3927265 0.3334667 0.5898439 0.8384521 0.5898437 1.5117187 0 0.4394667-0.1028798 0.8038835-0.3085937 1.09375-0.202597 0.2898667-0.4990622 0.4893625-0.8886719 0.6015626 0.202597 0.0685999 0.3997142 0.2150531 0.5898438 0.4394531 0.1932464 0.2244 0.3868318 0.5330479 0.5800781 0.9257812l0.9570313 1.9082029h-1.0136719l-0.8925781-1.7910154c-0.2306489-0.4675333-0.4556468-0.7769541-0.6738282-0.9296875-0.2150645-0.1527333-0.5087872-0.2285156-0.8828125-0.2285156h-1.0292969v2.9492185h-0.9453124v-6.9804685zm9.1542972 0.1074219h0.757812l-0.486328 1.9414062h1.365234l0.492188-1.9414062h0.748047l-0.482422 1.9414062h1.458984v0.71875h-1.640625l-0.384765 1.5625h1.488281v0.7148438h-1.669922l-0.486328 1.9355466h-0.748047l0.482422-1.9355466h-1.371094l-0.4804686 1.9355466h-0.7539063l0.4863281-1.9355466h-1.4726562v-0.7148438h1.6464844l0.3925781-1.5625h-1.5058594v-0.71875h1.6874999l0.476563-1.9414062zm-8.2089848 0.6699218v2.4765626h1.1875c0.4550641 0 0.798648-0.1037 1.0292969-0.3125 0.2337658-0.2119334 0.3496094-0.5213542 0.3496094-0.9296876 0-0.4083333-0.1158436-0.7162082-0.3496094-0.921875-0.2306489-0.2088666-0.5742328-0.3124999-1.0292969-0.3125h-1.1875zm8.3085938 1.9902344-0.392578 1.5625h1.36914l0.382813-1.5625h-1.359375zm-8.7441406 6.6953124h2.8125 2.8125v0.466797 0.466797h-2.8125-2.8125v-0.466797-0.466797z" style="fill:#808080"/>
 </g>
</svg>
