<svg width="16" height="16" version="1.1" xmlns="http://www.w3.org/2000/svg">
 <g transform="translate(-331.99997,-199.99994)">
  <path d="m339.43945 201c-1.29452 0-2.58858 0.22836-3.80468 0.67188l-0.17188 0.0625-1.08984 5.44726c-0.18575 0.9277-0.37005 1.88304-0.37305 2.86719-3e-3 0.98487 0.17877 1.98492 0.61328 2.88867 0.43478 0.90434 1.11635 1.69034 1.9668 2.23242 0.85024 0.54193 1.85243 0.83008 2.85937 0.83008s2.00914-0.28815 2.85938-0.83008c0.85045-0.54208 1.53006-1.32808 1.96484-2.23242 0.43451-0.90375 0.61628-1.90379 0.61328-2.88867-3e-3 -0.98416-0.18532-1.93949-0.37109-2.86719l-1.0918-5.44726-0.17187-0.0625c-1.21609-0.44352-2.50825-0.67188-3.80274-0.67188zm-0.43945 1.02148v2.97852h1v-2.97266c0.86925 0.0617 1.72813 0.25294 2.55859 0.52344l0.9668 4.82813c0.18469 0.92229 0.34888 1.80974 0.35156 2.67187 3e-3 0.85996-0.15696 1.71119-0.51367 2.45313-0.35617 0.74082-0.91852 1.38564-1.60351 1.82226-0.68544 0.43689-1.50422 0.67383-2.32032 0.67383-0.81609 0-1.63693-0.23701-2.32226-0.67383-0.685-0.43662-1.24735-1.08144-1.60352-1.82226-0.35672-0.74196-0.51633-1.59325-0.51367-2.45313 3e-3 -0.86182 0.16879-1.74931 0.35352-2.67187l0.96679-4.82813c0.86898-0.28304 1.7691-0.47817 2.67969-0.5293z" style="fill:#808080"/>
 </g>
</svg>
