<svg width="16" height="16" style="isolation:isolate" viewBox="0 0 16 16" xmlns="http://www.w3.org/2000/svg">
 <path d="m0.738786 2.902375v-2.902375h8.46438q1.234829 0 2.205805 0.369393t1.635884 0.986808q0.664908 0.617414 1.01847 1.435356t0.353562 1.704485q0 0.812665-0.174143 1.424802-0.174142 0.612138-0.506596 1.087072t-0.817942 0.83905-1.10818 0.65963q0.538259 0.274407 0.949868 0.83905 0.41161 0.564644 0.622692 1.461742l0.538258 2.079156h1.319262l0.021108 3.113456h-4.6438l-0.633245-3.799472q-0.094987-0.675462-0.290238-1.166227-0.19525-0.490765-0.522427-0.802111t-0.796834-0.459103-1.113456-0.147757h-1.361478v3.482849h1.467019v2.891821h-6.627969v-2.891821h1.656992v-10.205804h-1.656992zm7.261214 0h-2.100264v3.873351h2.100264q0.601583 0 1.081794-0.110818t0.823219-0.348285 0.527705-0.596306q0.184696-0.358839 0.184696-0.854882 0-0.92876-0.664907-1.44591-0.664908-0.51715-1.952507-0.51715z" fill="#808080" fill-rule="evenodd"/>
</svg>
