<svg width="16" height="16" version="1.1" xmlns="http://www.w3.org/2000/svg">
 <path d="m3.7746182 0.49998253-0.8377242 0.83771827 0.1057552 0.1059298c-1.1523882 1.3550572-1.7893812 3.0749029-1.7926492 4.856007 0 3.9894214 3.107424 7.2524364 7.0337201 7.5025354v0.249401c-2.2532778 0.06053-4.3656835 0.543094-4.3656835 1.448444h9.7014214c0-0.90535-2.112237-1.387971-4.3655114-1.448444v-0.251438c1.6071324-0.105639 3.1411904-0.724484 4.3737534-1.771472l0.07077 0.07072 0.83756-0.837721-1.645517-1.6455204a5.3207804 5.320781 0 0 0 1.166627-3.316446 5.3207804 5.320781 0 0 0-5.3206051-5.3207602 5.3207804 5.320781 0 0 0-3.3197898 1.1634233zm0.144955 1.8203916 0.662678 0.6626723a5.3207804 5.320781 0 0 0-1.1666244 3.3165912 5.3207804 5.320781 0 0 0 5.3209431 5.3209644 5.3207804 5.320781 0 0 0 3.3194491-1.163773l0.688238 0.688398c-1.119529 0.920891-2.523739 1.42755-3.9755706 1.429965-3.465941 0-6.2755334-2.8096134-6.2755334-6.2755544 2.44e-4 -1.4526345 0.5060533-2.8582412 1.4264202-3.9792635zm4.6910508 0.9039827c1.393411 0.00163 2.207475 0.7911266 2.207475 0.7911266l-1.342343 1.2337332c-0.9197091-0.395346-1.709145 0.313365-1.6051592 1.312248 0.10398 0.998883 0.8134563 1.209957 1.6023014 1.105744 0.7888488-0.104183 0.263835-0.761879 0.263835-0.761879l-0.3154495 0.07857-0.4989002-0.526302 2.6562675-0.837893c0.364955 2.628746-0.63545 3.757393-2.791293 3.755123-2.155837-0.0025-2.9689295-1.632977-2.9671776-3.052262 0.00169-1.419284 1.397045-3.0999007 2.7904523-3.0981546z" style="fill:#808080"/>
</svg>
