<svg width="16" height="16" version="1.1" xmlns="http://www.w3.org/2000/svg">
 <g transform="translate(-391.99991,-179.99994)">
  <path d="m395 183c-0.65761 0-1.17853 0.0599-1.61719 0.22461-0.43866 0.16467-0.79039 0.46152-0.99804 0.83789-0.41532 0.75275-0.3702 1.67345-0.38477 2.93164v2.0119c0.0145 1.25819-0.0306 2.17889 0.38477 2.93164 0.20766 0.37637 0.55938 0.67322 0.99804 0.83789 0.43867 0.16449 0.95958 0.22443 1.61719 0.22443h6c0.65761 0 1.17852-0.0599 1.61719-0.22461 0.43866-0.16466 0.79038-0.46152 0.99804-0.83789 0.41534-0.75275 0.37025-1.67344 0.38477-2.93164v-2.0119c-0.0145-1.2582 0.0306-2.17889-0.38477-2.93164-0.20766-0.37637-0.55938-0.67323-0.99804-0.83789-0.43867-0.16449-0.95958-0.22443-1.61719-0.22443zm0 1h6c0.59239 0 1.00572 0.0626 1.26562 0.16016 0.25991 0.0976 0.37147 0.20135 0.47266 0.38476 0.20191 0.36596 0.24701 1.19655 0.26172 2.45508v1.99414c-0.0146 1.26353-0.0593 2.09217-0.26172 2.45898-0.1012 0.18341-0.21274 0.28916-0.47266 0.38672-0.25991 0.09757-0.67323 0.16016-1.26562 0.16016h-6c-0.59239 0-1.00572-0.0626-1.26562-0.16016-0.25991-0.0976-0.37147-0.20331-0.47266-0.38672-0.20191-0.36595-0.24701-1.1946-0.26172-2.45312v-2c0.0147-1.25853 0.0598-2.08912 0.26172-2.45508 0.10119-0.18341 0.21275-0.2872 0.47266-0.38476 0.2599-0.09757 0.67323-0.16016 1.26562-0.16016z" style="fill:#808080"/>
  <path d="m408 184.71875c-1.23971 0.58734-2.98131 1.54153-5 2.71094v1.14258c1.99268 1.15764 3.73306 2.10927 5 2.70898z" style="fill:#808080"/>
 </g>
</svg>
