<svg width="16" height="16" version="1.1" xmlns="http://www.w3.org/2000/svg">
 <g transform="translate(-1133.0002,-73)" label="status">
  <path d="m1140.5002 73v2h1v-2zm-3.0664 0.82227-0.8672 0.5 1.002 1.73242 0.8652-0.5zm7.1328 0-1 1.73242 0.8672 0.5 1-1.73242zm-3.5664 2.17773c-2.7614 0-5 2.23858-5 5s2.2386 5 5 5 5-2.23858 5-5-2.2386-5-5-5zm-6.6777 0.56641-0.5 0.86718 1.7324 1 0.5-0.86718zm13.3554 0-1.7324 1 0.5 0.86718 1.7324-1zm-6.6777 0.43359a4 4 0 0 1 4 4 4 4 0 0 1-4 4 4 4 0 0 1-4-4 4 4 0 0 1 4-4zm-8 3.5v1h2v-1zm14 0v1h2v-1zm-11.4453 3.06641-1.7324 1 0.5 0.86718 1.7324-1.00195zm10.8906 0-0.5 0.86718 1.7324 1 0.5-0.86718zm-8.8789 2.3789-1 1.73242 0.8672 0.5 1-1.73242zm6.8672 0-0.8672 0.5 1 1.73242 0.8672-0.5zm-3.9336 1.05469v2h1v-2z" style="fill:#808080"/>
 </g>
</svg>
