<svg width="16" height="16" version="1.1" xmlns="http://www.w3.org/2000/svg">
 <g transform="rotate(180 644.496 -155.5)" font-weight="400">
  <path d="m1276.994-326c-1.258 0.015-2.178-0.03-2.931 0.385a1.88 1.88 0 0 0-0.838 0.998c-0.165 0.438-0.225 0.96-0.225 1.617v6c0 0.658 0.06 1.179 0.225 1.617 0.165 0.439 0.461 0.79 0.838 0.998 0.753 0.416 1.673 0.37 2.931 0.385h8.004c1.258-0.015 2.18 0.03 2.932-0.385a1.88 1.88 0 0 0 0.838-0.998c0.164-0.438 0.224-0.96 0.224-1.617v-6c0-0.658-0.06-1.179-0.224-1.617a1.88 1.88 0 0 0-0.838-0.998c-0.753-0.416-1.674-0.37-2.932-0.385zm0.01 1h8c1.259 0.015 2.088 0.06 2.454 0.262 0.183 0.1 0.289 0.212 0.386 0.472s0.16 0.674 0.16 1.266v6c0 0.592-0.063 1.006-0.16 1.266-0.098 0.26-0.203 0.371-0.387 0.472-0.366 0.202-1.194 0.247-2.453 0.262h-8.004c-1.258-0.015-2.089-0.06-2.455-0.262-0.183-0.1-0.287-0.212-0.385-0.472s-0.16-0.674-0.16-1.266v-6c0-0.592 0.063-1.006 0.16-1.266 0.098-0.26 0.202-0.371 0.385-0.472 0.366-0.202 1.197-0.247 2.455-0.262z" overflow="visible" style="fill:#808080"/>
  <path d="m1280-312 3.5-2.5-0.5-0.5h-6l-0.5 0.5z" font-size="15" letter-spacing="0" word-spacing="0" style="fill:#808080"/>
 </g>
</svg>
