<?xml version="1.0" encoding="UTF-8" standalone="no"?>
<svg
   xmlns:dc="http://purl.org/dc/elements/1.1/"
   xmlns:cc="http://creativecommons.org/ns#"
   xmlns:rdf="http://www.w3.org/1999/02/22-rdf-syntax-ns#"
   xmlns:svg="http://www.w3.org/2000/svg"
   xmlns="http://www.w3.org/2000/svg"
   xmlns:sodipodi="http://sodipodi.sourceforge.net/DTD/sodipodi-0.dtd"
   xmlns:inkscape="http://www.inkscape.org/namespaces/inkscape"
   width="16"
   height="16"
   version="1.1"
   id="svg6"
   sodipodi:docname="karts-symbolic.svg"
   inkscape:version="0.92.3 (2405546, 2018-03-11)">
  <metadata
     id="metadata12">
    <rdf:RDF>
      <cc:Work
         rdf:about="">
        <dc:format>image/svg+xml</dc:format>
        <dc:type
           rdf:resource="http://purl.org/dc/dcmitype/StillImage" />
        <dc:title></dc:title>
      </cc:Work>
    </rdf:RDF>
  </metadata>
  <defs
     id="defs10" />
  <sodipodi:namedview
     pagecolor="#ffffff"
     bordercolor="#666666"
     borderopacity="1"
     objecttolerance="10"
     gridtolerance="10"
     guidetolerance="10"
     inkscape:pageopacity="0"
     inkscape:pageshadow="2"
     inkscape:window-width="1920"
     inkscape:window-height="1009"
     id="namedview8"
     showgrid="false"
     inkscape:zoom="14.75"
     inkscape:cx="8"
     inkscape:cy="8"
     inkscape:window-x="0"
     inkscape:window-y="34"
     inkscape:window-maximized="1"
     inkscape:current-layer="svg6" />
  <path
     style="fill:#4d4d4d;fill-opacity:1;stroke-width:0.1195791"
     d="m 1.1650958,13.690587 c -0.52713795,-1.17621 -0.64359995,-1.62874 -0.58258695,-2.263719 0.03127,-0.325391 0.163252,-0.736151 0.2933,-0.912801 0.13004895,-0.17664 0.33426795,-0.7247496 0.45381895,-1.2180096 0.330389,-1.36317 0.760121,-2.4406905 1.899458,-4.7627505 0.498827,-1.01665 1.74299,-1.9430999 3.243488,-2.4152099 1.194408,-0.37581 3.3222571,-0.37974 4.6593872,-0.009 1.635721,0.454 3.33935,1.5403099 3.276947,2.0895299 -0.01588,0.13975 0.148523,0.60063 0.365337,1.02418 1.103213,2.1551805 1.059721,3.9902605 -0.152879,6.4502811 -0.26938,0.546489 -0.477978,0.808189 -0.734887,0.921939 -0.197306,0.0874 -1.704003,0.34817 -3.348215,0.57957 -1.6442132,0.23141 -4.2771942,0.61024 -5.8510682,0.84186 -1.573873,0.23161 -2.934841,0.42111 -3.024372,0.42111 -0.08953,0 -0.313508,-0.33632 -0.497728,-0.74737 z m 5.110228,-3.7732296 c 1.917096,-0.5268 3.0988951,-1.90984 2.8348111,-3.3175305 -0.1406501,-0.74972 -0.4515381,-0.84361 -3.0878521,-0.93246 -1.265015,-0.0426 -2.443392,-0.10999 -2.618615,-0.14966 -0.298207,-0.0675 -0.345562,-0.0159 -0.740347,0.80679 -0.428849,0.8936905 -1.086475,2.7928105 -1.227616,3.5451605 l -0.07775,0.4144696 2.019205,-0.0626 c 1.500881,-0.0465 2.244833,-0.12462 2.898168,-0.3041496 z"
     id="path817"
     inkscape:connector-curvature="0" />
</svg>
