<?xml version="1.0" encoding="UTF-8" standalone="no"?>
<svg
   xmlns:dc="http://purl.org/dc/elements/1.1/"
   xmlns:cc="http://creativecommons.org/ns#"
   xmlns:rdf="http://www.w3.org/1999/02/22-rdf-syntax-ns#"
   xmlns:svg="http://www.w3.org/2000/svg"
   xmlns="http://www.w3.org/2000/svg"
   xmlns:sodipodi="http://sodipodi.sourceforge.net/DTD/sodipodi-0.dtd"
   xmlns:inkscape="http://www.inkscape.org/namespaces/inkscape"
   width="16"
   height="16"
   version="1.1"
   id="svg10"
   sodipodi:docname="sweeper-symbolic.svg"
   inkscape:version="0.92.3 (2405546, 2018-03-11)">
  <metadata
     id="metadata16">
    <rdf:RDF>
      <cc:Work
         rdf:about="">
        <dc:format>image/svg+xml</dc:format>
        <dc:type
           rdf:resource="http://purl.org/dc/dcmitype/StillImage" />
      </cc:Work>
    </rdf:RDF>
  </metadata>
  <defs
     id="defs14" />
  <sodipodi:namedview
     pagecolor="#ffffff"
     bordercolor="#666666"
     borderopacity="1"
     objecttolerance="10"
     gridtolerance="10"
     guidetolerance="10"
     inkscape:pageopacity="0"
     inkscape:pageshadow="2"
     inkscape:window-width="1920"
     inkscape:window-height="1009"
     id="namedview12"
     showgrid="false"
     inkscape:zoom="14.75"
     inkscape:cx="8"
     inkscape:cy="8"
     inkscape:window-x="0"
     inkscape:window-y="34"
     inkscape:window-maximized="1"
     inkscape:current-layer="svg10" />
  <path
     style="fill:#808080;fill-opacity:1;fill-rule:evenodd;stroke:none;stroke-width:0.40583372;stroke-linecap:round;stroke-linejoin:miter;stroke-miterlimit:4;stroke-dashoffset:0;stroke-opacity:1"
     d="M 14.884634,5.2098249e-4 C 14.281434,-0.01899202 13.649605,0.28784408 13.372294,0.74190258 L 11.631791,4.4377371 c -0.0557,0.091221 -0.09928,0.1848819 -0.13366,0.2790303 L 10.015522,3.924653 C 9.8347307,4.5963746 9.987829,4.9590652 9.7499782,5.6837635 L 9.4734616,5.5349799 C 9.273233,5.4271727 9.018923,5.4910765 8.903326,5.6774219 L 8.598751,6.1700665 C 8.483117,6.3568997 8.551201,6.5944658 8.75143,6.7024193 l 0.03605,0.019513 C 6.853264,6.8838865 4.404598,10.470597 1,12.024971 3.7301,14.666637 7.755104,16.053496 9.5693658,15.998421 11.80786,13.8654 12.453593,10.343911 12.22125,8.5726057 l 0.511963,0.276103 c 0.200229,0.107807 0.454539,0.0439 0.570136,-0.142442 l 0.304576,-0.492645 c 0.115633,-0.186833 0.04755,-0.4243989 -0.15268,-0.532206 L 13.203757,7.545803 C 13.711279,7.0682319 14.287971,6.9378389 14.799626,6.4808536 L 13.263397,5.6601532 C 13.327457,5.5884442 13.38692,5.510394 13.439224,5.4250263 L 15.909633,2.1692499 C 16.279367,1.5637736 16.171937,0.47121388 15.464238,0.13584088 15.28376,0.05047288 15.085883,0.00754548 14.884802,0.00120388 Z M 14.789064,0.69868208 A 0.54127762,0.50532877 0 0 1 15.307037,1.0733242 0.54127762,0.50532877 0 0 1 14.924188,1.6921178 0.54127762,0.50532877 0 0 1 14.2614,1.3350371 a 0.54127762,0.50532877 0 0 1 0.38264,-0.61884242 0.54127762,0.50532877 0 0 1 0.144999,-0.019513 z"
     id="path7966"
     inkscape:connector-curvature="0" />
</svg>
