<svg width="16" height="16" version="1.1" xmlns="http://www.w3.org/2000/svg">
 <path d="m7.6472095 11.113062c1.7731525 0 3.2105715-1.4303269 3.2105715-3.2105712 0 0 0.02131-0.3015818-0.07099-0.6421085h-4.9305137c0.1331066-0.3718138 0.3718509-0.7053965 0.6960352-0.9280599 0.745855-0.5888508 1.875431-0.3747252 2.5107685 0.2859435h1.526279c-0.495637-1.1334009-1.6260115-1.9263469-2.9421805-1.9263469-1.7731523 0-3.2105709 1.4374189-3.2105709 3.2105718 0 0 0 0.3299596 0.063858 0.6421085h4.9326054c-0.277559 0.7015787-0.9403595 1.2701075-1.7106435 1.276712-0.03854 0.00213-0.07694 0.00213-0.115369 0.00142-0.516354-0.0104689-1.017386-0.2553306-1.3657535-0.6358369h-1.5363068c0.4956496 1.1334016 1.6260242 1.9263476 2.9421833 1.9263476zm0.694291 4.886918 0.03578-2.311101c2.3899625-0.297872 4.3307075-2.041635 4.9192815-4.3284021h-1.512088c-0.620115 1.6506211-2.262038 2.9379521-4.0564435 2.9259441-0.04349 0.0014-0.08756 0.0021-0.13099 0.0014-0.651486-0.0036-1.2918633-0.16563-1.8723199-0.455609-1.0455392-0.470625-1.8218665-1.40075-2.2012235-2.4717227h-1.5234853c0.5885881 2.2867737 2.5293285 4.0305297 4.9192887 4.3283957v2.311115zm4.9550395-9.5554753c-0.588573-2.2867731-2.52932-4.0305301-4.9192795-4.3284024v-2.1161023h-1.457986v2.1161023c-2.3899529 0.2978723-4.330701 2.0416293-4.9192745 4.3284024h1.5021246c0.5894026-1.7387386 2.4111169-2.9891084 4.2529339-2.9245189 1.7932555-0.00909 3.4200145 1.2719849 4.0265505 2.9245189z" style="fill:#808080"/>
</svg>
