<svg width="16" height="16" style="enable-background:new" version="1.1" xmlns="http://www.w3.org/2000/svg">
 <g transform="translate(-465.0004,355.00336)">
  <path class="warning" d="m473.0004-354.50336c-0.76016 0.75012-1.48818 1.60348-2.25725 2.34979h-2.89296v2.89296c-0.74643 0.7691-1.59958 1.49707-2.34979 2.25725 0.75038 0.76042 1.60327 1.51776 2.34979 2.28944v2.86077h2.89096c0.76981 0.74672 1.49843 1.59895 2.25925 2.34979 0.76106-0.751 1.5191-1.60297 2.29144-2.34979h2.85877v-2.86077c0.74656-0.77164 1.59937-1.52905 2.34979-2.28944-0.75017-0.76022-1.60341-1.48811-2.34979-2.25725v-2.89296h-2.86077c-0.77164-0.74656-1.52906-1.59937-2.28944-2.34979zm-1.03004 3.37983h2.06008v5.15021h-2.06008v-2.06411zm0 6.17623h2.06008v2.06008h-2.06008z" style="fill:#808080"/>
 </g>
</svg>
