<svg width="16" height="16" version="1.1" xmlns="http://www.w3.org/2000/svg">
 <g transform="translate(-552,-319.99994)">
  <path d="m558.75586 321c-0.48485 1.0101-0.95009 2.03328-1.39453 3.07031-0.44445 1.02357-0.89561 2.1011-1.35352 3.23242-0.2098 0.53405-0.4328 1.13327-0.64843 1.69727h-0.85938c-0.831 0-1.5 0.669-1.5 1.5 0 0.74119 0.53361 1.34896 1.23828 1.47266-0.36109 0.96894-0.72149 1.93381-1.11914 3.02734h2.6582l1.06836-3h7.35938c0.12199 0.33907 0.24149 0.67202 0.36719 1.01953 0.22895 0.633 0.47067 1.2936 0.72656 1.98047h1.51562c-0.41034-1.08092-0.77559-2.04944-1.14062-3.01758 0.74736-0.0867 1.32617-0.71105 1.32617-1.48242 0-0.831-0.669-1.5-1.5-1.5h-0.9707c-0.21556-0.55206-0.43194-1.11772-0.64453-1.63672-0.44445-1.13131-0.88955-2.21492-1.33399-3.25195-0.44445-1.03704-0.91574-2.07429-1.41406-3.11133h-1.19727zm1.73437 1.57617c0.51179 1.15825 1.01126 2.33651 1.4961 3.53516 0.3611 0.89271 0.73747 1.89134 1.11328 2.88867h-5.18555c0.31844-0.87809 0.63703-1.7549 0.95508-2.58594 0.34411-0.8818 0.70044-1.73298 1.07031-2.55468v-0.0156c0.18202-0.42526 0.36522-0.84762 0.55078-1.26758zm-5.99023 7.42383h11.06641c0.24027 0 0.43359 0.19332 0.43359 0.43359v0.13282c0 0.24027-0.19332 0.43359-0.43359 0.43359h-11.06641c-0.277 0-0.5-0.223-0.5-0.5s0.223-0.5 0.5-0.5z" style="fill:#808080"/>
  <rect transform="scale(-1,1)" x="-562" y="330" width="8" height="1" rx=".5" ry=".5" style="fill:#808080;opacity:.5"/>
 </g>
</svg>
