<svg width="16" height="16" version="1.1" xmlns="http://www.w3.org/2000/svg">
 <g transform="translate(-532,-299.99994)">
  <path d="m534 301c-0.554 0-1 0.446-1 1v4c0 0.554 0.446 1 1 1h12c0.554 0 1-0.446 1-1v-4c0-0.554-0.446-1-1-1zm7.5 1h4c0.277 0 0.5 0.223 0.5 0.5v3c0 0.277-0.223 0.5-0.5 0.5h-4c-0.277 0-0.5-0.223-0.5-0.5v-3c0-0.277 0.223-0.5 0.5-0.5z" style="fill:#808080"/>
  <path d="m534 309c-0.554 0-1 0.446-1 1v4c0 0.554 0.446 1 1 1h12c0.554 0 1-0.446 1-1v-4c0-0.554-0.446-1-1-1zm0.5 1h4c0.277 0 0.5 0.223 0.5 0.5v3c0 0.277-0.223 0.5-0.5 0.5h-4c-0.277 0-0.5-0.223-0.5-0.5v-3c0-0.277 0.223-0.5 0.5-0.5z" style="fill:#808080;opacity:.5"/>
 </g>
</svg>
