<svg width="16" height="16" version="1.1" viewBox="0 0 4.23 4.23" xmlns="http://www.w3.org/2000/svg">
 <g transform="translate(0,-292.76665)">
  <g transform="matrix(.01081181 0 0 .01081181 -.26360576 292.20512)" style="enable-background:new;fill:#808080">
   <g transform="matrix(1.2463937,0,0,-1.2463937,67.228557,198.82457)" style="fill:#808080">
    <path d="m0 0-24.56 42.513 49.098 0.013z" style="fill:#808080"/>
   </g>
   <g transform="matrix(1.2463937,0,0,-1.2463937,67.214596,198.82083)" style="fill:#808080">
    <path d="M 0,0 24.549,42.52 49.098,0 Z" style="fill:#808080"/>
   </g>
   <g transform="matrix(1.2463937,0,0,-1.2463937,97.826649,251.82483)" style="fill:#808080">
    <path d="m0 0-24.56 42.513 49.098 0.013z" style="fill:#808080"/>
   </g>
   <g transform="matrix(1.2463937,0,0,-1.2463937,97.812689,251.82124)" style="fill:#808080">
    <path d="M 0,0 24.549,42.52 49.098,0 Z" style="fill:#808080"/>
   </g>
   <g transform="matrix(1.2463937,0,0,-1.2463937,128.42412,304.82887)" style="fill:#808080">
    <path d="m0 0-24.56 42.513 49.098 0.013z" style="fill:#808080"/>
   </g>
   <g transform="matrix(1.2463937,0,0,-1.2463937,128.41016,304.82524)" style="fill:#808080">
    <path d="M 0,0 24.549,42.52 49.098,0 Z" style="fill:#808080"/>
   </g>
   <g transform="matrix(1.2463937,0,0,-1.2463937,159.02172,357.83286)" style="fill:#808080">
    <path d="m0 0-24.56 42.513 49.098 0.013z" style="fill:#808080"/>
   </g>
   <g transform="matrix(1.2463937,0,0,-1.2463937,159.00763,357.82913)" style="fill:#808080">
    <path d="M 0,0 24.549,42.52 49.098,0 Z" style="fill:#808080"/>
   </g>
   <g transform="matrix(1.2463937,0,0,-1.2463937,220.21728,357.83286)" style="fill:#808080">
    <path d="m0 0-24.56 42.513 49.098 0.013z" style="fill:#808080"/>
   </g>
   <g transform="matrix(1.2463937,0,0,-1.2463937,189.60461,304.82524)" style="fill:#808080">
    <path d="M 0,0 24.549,42.52 49.098,0 Z" style="fill:#808080"/>
   </g>
   <g transform="matrix(1.2463937,0,0,-1.2463937,250.81602,304.82338)" style="fill:#808080">
    <path d="m0 0-24.56 42.513 49.098 0.013z" style="fill:#808080"/>
   </g>
   <g transform="matrix(1.2463937,0,0,-1.2463937,220.20332,251.81573)" style="fill:#808080">
    <path d="M 0,0 24.549,42.52 49.099,0 Z" style="fill:#808080"/>
   </g>
   <g transform="matrix(1.2463937,0,0,-1.2463937,281.4141,251.82672)" style="fill:#808080">
    <path d="m0 0-24.56 42.513 49.099 0.013z" style="fill:#808080"/>
   </g>
   <g transform="matrix(1.2463937,0,0,-1.2463937,250.80205,198.8191)" style="fill:#808080">
    <path d="M 0,0 24.549,42.52 49.098,0 Z" style="fill:#808080"/>
   </g>
   <g transform="matrix(1.2463937,0,0,-1.2463937,250.93779,304.76803)" style="fill:#808080">
    <path d="m0 0-24.561 42.513 49.099 0.013z" style="fill:#808080"/>
   </g>
   <g transform="matrix(1.2463937,0,0,-1.2463937,220.3256,251.76028)" style="fill:#808080">
    <path d="M 0,0 24.549,42.52 49.098,0 Z" style="fill:#808080"/>
   </g>
   <g transform="matrix(1.2463937,0,0,-1.2463937,281.53587,251.76577)" style="fill:#808080">
    <path d="m0 0-24.559 42.513 49.098 0.013z" style="fill:#808080"/>
   </g>
   <g transform="matrix(1.2463937,0,0,-1.2463937,250.9232,198.75814)" style="fill:#808080">
    <path d="M 0,0 24.549,42.52 49.098,0 Z" style="fill:#808080"/>
   </g>
   <g transform="matrix(1.2463937,0,0,-1.2463937,312.13582,198.76363)" style="fill:#808080">
    <path d="m0 0-24.561 42.513 49.098 0.013z" style="fill:#808080"/>
   </g>
   <g transform="matrix(1.2463937,0,0,-1.2463937,311.89727,198.82083)" style="fill:#808080">
    <path d="M 0,0 24.549,42.52 49.1,0 Z" style="fill:#808080"/>
   </g>
   <g transform="matrix(1.2463937,0,0,-1.2463937,373.08735,198.76124)" style="fill:#808080">
    <path d="m0 0-24.543 42.522 49.098-6e-3z" style="fill:#808080"/>
   </g>
   <g transform="matrix(1.2463937,0,0,-1.2463937,250.77947,304.59206)" style="fill:#808080">
    <path d="m0 0 24.786 42.383 24.312-42.656z" style="fill:#808080"/>
   </g>
   <g transform="matrix(1.2463937,0,0,-1.2463937,281.30216,357.76096)" style="fill:#808080">
    <path d="M 0,0 24.549,42.52 49.1,0 Z" style="fill:#808080"/>
   </g>
   <g transform="matrix(1.2463937,0,0,-1.2463937,342.5118,357.76644)" style="fill:#808080">
    <path d="m0 0-24.559 42.513 49.098 0.013z" style="fill:#808080"/>
   </g>
   <g transform="matrix(1.2463937,0,0,-1.2463937,342.4971,357.75562)" style="fill:#808080">
    <path d="M 0,0 24.549,42.52 49.098,0 Z" style="fill:#808080"/>
   </g>
   <g transform="matrix(1.2463937,0,0,-1.2463937,281.31674,357.76644)" style="fill:#808080">
    <path d="m0 0-24.56 42.513 49.097 0.013z" style="fill:#808080"/>
   </g>
  </g>
 </g>
</svg>
