<svg width="16" height="16" version="1.1" xmlns="http://www.w3.org/2000/svg">
 <g transform="translate(-592,-219.99994)">
  <path d="m595.99414 221c-1.2582 0.0145-2.17889-0.0306-2.93164 0.38477-0.37637 0.20766-0.67323 0.55938-0.83789 0.99804-0.16467 0.43867-0.22461 0.95958-0.22461 1.61719v2h0.53125c0.25969 0 0.46875 0.223 0.46875 0.5v4c0 0.277-0.21354 0.54804-0.46875 0.5h-0.53125v2s0.0599 1.17853 0.22461 1.61719c0.16467 0.43866 0.46152 0.79039 0.83789 0.99804 0.75275 0.41532 1.67345 0.3702 2.93164 0.38477h8.0119c1.25819-0.0145 2.17889 0.0306 2.93164-0.38477 0.37637-0.20766 0.67322-0.55938 0.83789-0.99804 0.16323-0.43867 0.22443-0.95958 0.22443-1.61719v-2h-0.53125c-0.25969 0-0.46875-0.223-0.46875-0.5v-4c0-0.277 0.20906-0.5 0.46875-0.5h0.53125v-2c0-0.65761-0.0599-1.17852-0.22461-1.61719-0.16466-0.43866-0.46152-0.79038-0.83789-0.99804-0.75275-0.41534-1.67344-0.37025-2.93164-0.38477h-8.0079zm-0.49414 4h2.5c0.0693 0 0.13545 0.0138 0.19531 0.0391 0.45651 0.0929 0.80469 0.47615 0.80469 0.9609v2c0 0.554-0.446 1-1 1h-1.5c-0.277 0-0.5 0.223-0.5 0.5v1c0 0.277 0.223 0.5 0.5 0.5h2c0.277 0 0.5 0.223 0.5 0.5s-0.223 0.5-0.5 0.5h-2.5c-0.554 0-1-0.446-1-1v-2c0-0.554 0.446-1 1-1h1.5c0.277 0 0.5-0.223 0.5-0.5v-1c0-0.277-0.22361-0.48157-0.5-0.5h-2c-0.277 0-0.5-0.223-0.5-0.5s0.223-0.5 0.5-0.5zm6.5 0h2c0.554 0 1 0.446 1 1v2c0 0.18637-0.46463 0.35094-0.55273 0.5 0.0881 0.14906 0.55273 0.31363 0.55273 0.5v2c0 0.554-0.446 1-1 1h-2c-0.554 0-1-0.446-1-1v-2c0-0.18637 0.46463-0.35094 0.55273-0.5-0.08807-0.14906-0.55273-0.31363-0.55273-0.5v-2c0-0.554 0.446-1 1-1zm0.5 1c-0.277 0-0.5 0.223-0.5 0.5v1c0 0.277 0.223 0.5 0.5 0.5h1c0.277 0 0.5-0.223 0.5-0.5v-1c0-0.277-0.223-0.5-0.5-0.5zm0 3c-0.277 0-0.5 0.223-0.5 0.5v1c0 0.277 0.223 0.5 0.5 0.5h1c0.277 0 0.5-0.223 0.5-0.5v-1c0-0.277-0.223-0.5-0.5-0.5z" style="fill:#808080"/>
 </g>
</svg>
