<svg width="16" height="16" version="1.1" viewBox="0 0 16 16" xmlns="http://www.w3.org/2000/svg">
 <path d="m4.7481825 3.3306641c-0.035528 6.803e-4 -0.075213 0.00378-0.1210205 0.00756-0.1735559 0.011338-3.4486566 0.6243023-3.6570896 0.6847748-0.220384 0.063874-0.408556 0.1991811-0.454473 0.3269291-0.07831 0.2177008 0.148611 0.9251905 0.448157 1.4002771 1.194977 1.4190236 2.52172 1.7795907 3.8219568 2.5442267 0.1492157 0.174992 0.2081764 0.259276-0.936548 0.766224-1.7890848 0.792189-2.3681608 1.4660032-2.7108168 2.4628532-0.101216 0.294425-0.14819501 1.073462-0.07688 1.26943 0.0926 0.253984 0.148422 0.305386 1.877031-0.02268 1.7364696-0.329575 1.592874-0.34885 1.7376866-0.485896 0.1179591-0.111874 0.1246867-0.138709 0.1762016-0.667427 0.029858-0.303118 0.090973-0.894576 0.1359496-1.051313 0.1042394-0.363969 0.3665008-0.7440762 0.6520932-0.9450712 1.0831219-0.762293 3.1217121-0.382186 4.2248768 0.7875402 0.4156758 0.440769 0.6766978 1.069871 0.8850098 1.753474 0.120189 0.394394 0.242268 0.565644 0.431819 0.603364 0.174387 0.03402 0.178658-0.0189 2.388132-0.439446 1.229038-0.233197 1.740522-0.34696 1.812832-0.403124 0.155338-0.120945 0.155981-0.417071 0.0011-0.906369-0.265626-0.84068-0.726422-1.3995212-1.57993-2.0461232-0.422237-0.319748-0.955408-0.622261-1.858144-1.054526-0.858637-0.411137-1.267574-0.522406-1.267574-0.650078 0-0.1058271 0.337209-0.1526932 1.018322-0.3564097 1.49241-0.4466268 2.21156-1.0731591 2.21156-2.2332472 0-0.5090646-0.09608-0.9198992-0.245481-1.0532032-0.198727-0.1772598-0.547623-0.1829291-1.381961-0.030236-2.6744652 0.4836284-2.4902927 0.4647685-2.6147071 0.6661039-0.065839 0.1065827-0.062967 0.1315276 0.058053 0.6153827 0.069317 0.2774173 0.1251024 0.6244913 0.1246866 0.7049953-0.00106 0.1712126-0.223559 0.4573228-0.3323716 0.5593322-0.2662677 0.2494489-0.869794 0.4191496-1.4880151 0.4191496-0.747738 0-1.3111219-0.2570078-1.8707301-0.8529637-0.4043633-0.4306375-0.6107974-0.8473304-0.8862758-1.6140831-0.2419275-0.6733984-0.275074-0.7611591-0.5237102-0.7568504z" style="fill:#808080"/>
</svg>
