<svg width="16" height="16" version="1.1" xmlns="http://www.w3.org/2000/svg">
 <path d="m9.2145849 0.80163172c-2.1695961 0-4.0825019 1.0992378-5.2120629 2.7711874l-0.012094 0.034016h-0.5355439c-0.4979036 0-0.9014661 0.4036913-0.9014661 0.9016063-1.5275436 0.375685-2.053418 1.3522015-2.053418 1.3522015h3.2403178c3.9328818 1.0928504 2.2499641 3.9971151 0.5660145 4.9833831-1.7529105 1.02667-2.6292472-1.202041-2.6292472-1.202041-0.6511177 2.429026 0.8513669 4.858015 0.8513669 4.858015l11.479684-3.346582c0.930573-1.096063 1.491946-2.5152762 1.491946-4.0656762 0-3.4713826-2.814119-6.2855054-6.2854971-6.2855054zm-0.1604031 7.5946204a0.54733167 0.54733167 0 0 1 0.5474116 0.5474266 0.54733167 0.54733167 0 0 1-0.5474116 0.547276 0.54733167 0.54733167 0 0 1-0.547268-0.547276 0.54733167 0.54733167 0 0 1 0.547268-0.5474266z" style="fill:#808080"/>
</svg>
