<svg xmlns="http://www.w3.org/2000/svg" xmlns:xlink="http://www.w3.org/1999/xlink" width="256" height="256" version="1.1" viewBox="0 0 67.73 67.73">
 <defs>
  <linearGradient id="linearGradient4226" x1="529.655" x2="-35.31" y1="401.584" y2="119.093" gradientTransform="matrix(0,-0.11988932,-0.11988589,0,67.016455,292.54831)" gradientUnits="userSpaceOnUse" xlink:href="#linearGradient4338-3"/>
  <linearGradient id="linearGradient4338-3">
   <stop offset="0" style="stop-color:#76c22b"/>
   <stop offset="1" style="stop-color:#a6d74f"/>
  </linearGradient>
  <linearGradient id="linearGradient4358" x1="88" x2="488" y1="88" y2="488" gradientUnits="userSpaceOnUse" xlink:href="#linearGradient4360"/>
  <linearGradient id="linearGradient4360">
   <stop style="stop-color:#000000;stop-opacity:0.58823532" offset="0"/>
   <stop offset=".88" style="stop-color:#000000;stop-opacity:0"/>
   <stop style="stop-color:#000000" offset="1"/>
  </linearGradient>
  <filter id="filter4346" width="1.026" height="1.022" x="-.01" y="-.01" style="color-interpolation-filters:sRGB">
   <feGaussianBlur stdDeviation="2.12"/>
  </filter>
 </defs>
 <g transform="translate(0,-229.26666)">
  <path d="M 189.84323,74 C 119.24979,74 111.65402,81.250835 112,151.98706 V 298 444.01294 C 111.65402,514.74917 119.24979,522 189.84323,522 H 386.15677 C 456.75021,522 462.16345,514.72616 464,444.01294 V 298 151.98706 C 464,81.249993 456.75021,74 386.15677,74 Z" transform="matrix(0.13229167,0,0,0.13229167,-4.4096684,223.75665)" style="opacity:0.1;filter:url(#filter4346)"/>
  <path style="opacity:0.3;fill:url(#linearGradient4358);filter:url(#filter4380)" d="M 189.84323,74 C 119.24979,74 111.65402,81.250835 112,151.98706 V 298 444.01294 C 111.65402,514.74917 119.24979,522 189.84323,522 H 386.15677 C 456.75021,522 464,514.75001 464,444.01294 V 298 151.98706 C 464,81.249993 456.75021,74 386.15677,74 Z" transform="matrix(0.13229167,0,0,0.13229167,-4.4096684,223.75665)"/>
  <path d="m 46.674225,233.28165 c 9.338927,0 10.343782,0.95922 10.298012,10.31704 v 19.31629 19.3163 c 0.04577,9.35781 -0.959085,10.31704 -10.298012,10.31704 H 20.703581 c -9.338923,0 -10.298011,-0.95912 -10.298011,-10.31704 v -19.3163 -19.31629 c 0,-9.35793 0.959088,-10.31704 10.298011,-10.31704 z" style="fill:url(#linearGradient4226)"/>
  <path style="opacity:0.2" d="m 31.573665,255.77123 v 6.87917 c 0,0.29316 0.236009,0.52917 0.529167,0.52917 h 3.175001 c 0.293158,0 0.529166,-0.23601 0.529166,-0.52917 v -6.87917 z m 1.058334,4.23334 h 2.116667 v 2.11666 h -2.116667 z"/>
  <path d="m 33.690332,233.54623 h -2.116667 v 2.11667 h 2.116667 z m 0,2.11667 v 2.11667 h 2.116667 v -2.11667 z m 0,2.11667 h -2.116667 v 2.11666 h 2.116667 z m 0,2.11666 v 2.11667 h 2.116667 v -2.11667 z m 0,2.11667 h -2.116667 v 2.11666 h 2.116667 z m 0,2.11666 v 2.11667 h 2.116667 v -2.11667 z m 0,2.11667 h -2.116667 v 2.11667 h 2.116667 z m 0,2.11667 v 2.11666 h 2.116667 v -2.11666 z m 0,2.11666 h -2.116667 v 2.11667 h 2.116667 z m 0,2.11667 v 2.11667 h 2.116667 v -2.11667 z" style="opacity:0.2"/>
  <path d="m 31.573665,255.50665 v 6.87917 c 0,0.29315 0.236009,0.52916 0.529167,0.52916 h 3.175001 c 0.293158,0 0.529166,-0.23601 0.529166,-0.52916 v -6.87917 z m 1.058334,4.23333 h 2.116667 v 2.11667 h -2.116667 z" style="fill:#ffffff"/>
  <path style="fill:#ffffff" d="m 33.690332,233.28165 h -2.116667 v 2.11667 h 2.116667 z m 0,2.11667 v 2.11666 h 2.116667 v -2.11666 z m 0,2.11666 h -2.116667 v 2.11667 h 2.116667 z m 0,2.11667 v 2.11666 h 2.116667 v -2.11666 z m 0,2.11666 h -2.116667 v 2.11667 h 2.116667 z m 0,2.11667 v 2.11667 h 2.116667 v -2.11667 z m 0,2.11667 h -2.116667 v 2.11666 h 2.116667 z m 0,2.11666 v 2.11667 h 2.116667 v -2.11667 z m 0,2.11667 h -2.116667 v 2.11667 h 2.116667 z m 0,2.11667 v 2.11666 h 2.116667 v -2.11666 z"/>
  <path d="m 42.407472,272.12954 3.210277,-3.21028 c 0.49389,-0.49389 0.49389,-1.25942 0,-1.7533 -0.49389,-0.49389 -1.259416,-0.49389 -1.753306,0 l -3.654777,3.65477 c -1.95086,-0.98777 -4.17336,-1.55575 -6.519334,-1.55575 -2.370667,0 -4.593167,0.56798 -6.568723,1.55575 l -3.679471,-3.65477 c -0.493889,-0.49389 -1.259416,-0.49389 -1.753307,0 -0.49389,0.49388 -0.49389,1.25941 0,1.7533 l 3.234974,3.23497 c -3.65478,2.6917 -6.050141,7.01323 -6.050141,11.92742 h 29.633335 c 0,-4.91419 -2.39536,-9.26042 -6.099527,-11.95211 z m -14.008807,6.66044 h -2.116666 v -2.11666 h 2.116666 z m 12.700001,0 h -2.116667 v -2.11666 h 2.116667 z" style="opacity:0.5;fill:#0c2809"/>
  <path d="m 33.690332,233.28165 v 59.26667 h 12.985253 c 9.338924,0 10.055122,-0.96217 10.298081,-10.31695 v -19.31639 -19.31639 c 0,-9.35792 -0.959157,-10.31694 -10.298081,-10.31694 z" style="opacity:0.07999998;fill:#ffffff"/>
  <path d="m 10.406998,262.91498 v 19.31639 c -0.04577,9.35782 0.959156,10.31695 10.29808,10.31695 h 25.970507 c 9.338924,0 10.055122,-0.96217 10.298081,-10.31695 v -19.31639 z" style="opacity:0.07999998;fill:#ffffff"/>
  <path d="m 41.098666,292.54832 15.875,-15.875 v 5.94886 c -0.01384,8.99472 -1.006126,9.92614 -10.100231,9.92614 z" style="opacity:0.07999998;fill:#ffffff"/>
  <path d="m 10.406998,281.70195 v 0.52917 c -0.04577,9.35781 0.959154,10.3172 10.29808,10.3172 h 25.970507 c 9.338924,0 10.055122,-0.96243 10.298081,-10.3172 v -0.52917 c -0.242959,9.35477 -0.959157,10.3172 -10.298081,10.3172 H 20.705078 c -9.338926,0 -10.34385,-0.95939 -10.29808,-10.3172 z" style="opacity:0.2"/>
  <path d="m 20.705078,233.28165 c -9.338925,0 -10.34385,0.95939 -10.29808,10.3172 v 0.52916 c -0.04577,-9.35781 0.959155,-10.3172 10.29808,-10.3172 h 25.970507 c 9.338927,0 10.298081,0.95928 10.298081,10.3172 v -0.52916 c 0,-9.35793 -0.959154,-10.3172 -10.298081,-10.3172 z" style="opacity:0.4;fill:#ffffff"/>
 </g>
</svg>
