<svg xmlns="http://www.w3.org/2000/svg" xmlns:xlink="http://www.w3.org/1999/xlink" width="256" height="256" version="1.1" viewBox="0 0 67.73 67.73">
 <defs>
  <linearGradient id="linearGradient1144" x1="208" x2="96" y1="28" y2="284" gradientTransform="matrix(-0.26458333,0,0,0.26458333,73.905961,221.63997)" gradientUnits="userSpaceOnUse" xlink:href="#linearGradient4338"/>
  <linearGradient id="linearGradient4338">
   <stop offset="0" style="stop-color:#000000"/>
   <stop offset="1" style="stop-color:#333333"/>
  </linearGradient>
  <linearGradient id="linearGradient4226" x1="529.655" x2="-35.31" y1="401.584" y2="119.093" gradientTransform="matrix(0,-0.11988932,-0.11988589,0,67.016455,292.5483)" gradientUnits="userSpaceOnUse" xlink:href="#linearGradient7723-3"/>
  <linearGradient id="linearGradient7723-3">
   <stop offset="0" style="stop-color:#00c8ff"/>
   <stop offset="1" style="stop-color:#6bdfff"/>
  </linearGradient>
  <linearGradient id="linearGradient4358" x1="88" x2="488" y1="88" y2="488" gradientUnits="userSpaceOnUse" xlink:href="#linearGradient4360"/>
  <linearGradient id="linearGradient4360">
   <stop style="stop-color:#000000;stop-opacity:0.58823532" offset="0"/>
   <stop offset=".88" style="stop-color:#000000;stop-opacity:0"/>
   <stop style="stop-color:#000000" offset="1"/>
  </linearGradient>
  <filter id="filter4346" width="1.026" height="1.022" x="-.01" y="-.01" style="color-interpolation-filters:sRGB">
   <feGaussianBlur stdDeviation="2.12"/>
  </filter>
 </defs>
 <g transform="translate(0,-229.26665)">
  <path d="M 189.84323,74 C 119.24979,74 111.65402,81.250835 112,151.98706 V 298 444.01294 C 111.65402,514.74917 119.24979,522 189.84323,522 H 386.15677 C 456.75021,522 462.16345,514.72616 464,444.01294 V 298 151.98706 C 464,81.249993 456.75021,74 386.15677,74 Z" transform="matrix(0.13229167,0,0,0.13229167,-4.4096684,223.75664)" style="opacity:0.1;filter:url(#filter4346)"/>
  <path style="opacity:0.3;fill:url(#linearGradient4358);filter:url(#filter4380)" d="M 189.84323,74 C 119.24979,74 111.65402,81.250835 112,151.98706 V 298 444.01294 C 111.65402,514.74917 119.24979,522 189.84323,522 H 386.15677 C 456.75021,522 464,514.75001 464,444.01294 V 298 151.98706 C 464,81.249993 456.75021,74 386.15677,74 Z" transform="matrix(0.13229167,0,0,0.13229167,-4.4096684,223.75664)"/>
  <path d="m 46.674225,233.28164 c 9.338927,0 10.343782,0.95922 10.298012,10.31704 v 19.31629 19.3163 c 0.04577,9.35781 -0.959085,10.31704 -10.298012,10.31704 H 20.703581 c -9.338922,0 -10.29801,-0.95912 -10.29801,-10.31704 v -19.3163 -19.31629 c 0,-9.35793 0.959088,-10.31704 10.29801,-10.31704 z" style="fill:url(#linearGradient4226)"/>
  <path d="m 46.674548,235.3983 c 2.298502,0 4.03334,0.07 5.204852,0.26666 1.171514,0.19665 1.676542,0.47317 1.968354,0.76429 0.291814,0.29113 0.566095,0.78897 0.760161,1.95647 0.194067,1.16749 0.259305,2.90139 0.248047,5.20278 v 0.005 19.3213 19.3213 0.005 c 0.01125,2.3014 -0.05398,4.03529 -0.248047,5.20278 -0.194066,1.1675 -0.468347,1.66535 -0.760161,1.95648 -0.291812,0.29112 -0.79684,0.56764 -1.968354,0.76429 -1.171512,0.19666 -2.90635,0.26666 -5.204852,0.26666 H 33.689295 20.705073 c -2.298498,0 -4.033336,-0.07 -5.204848,-0.26665 -1.171514,-0.19665 -1.676546,-0.47317 -1.968357,-0.7643 -0.291814,-0.29112 -0.566092,-0.78897 -0.760159,-1.95647 -0.187719,-1.12931 -0.253007,-2.80069 -0.247014,-4.99091 -2.1e-5,-0.0105 -4.5e-4,-0.0199 -5.03e-4,-0.03 -5.03e-4,-0.0647 -0.0016,-0.12395 -0.0016,-0.19223 v -19.31614 -15.875 l 0.001,-0.001 v -3.44527 -0.005 c -0.01125,-2.30139 0.05398,-4.03528 0.248046,-5.20278 0.194067,-1.1675 0.468345,-1.66534 0.760159,-1.95647 0.291812,-0.29112 0.796843,-0.56764 1.968357,-0.76429 1.171512,-0.19666 2.90635,-0.26666 5.204848,-0.26666 h 12.984292 z" style="fill:url(#linearGradient1144)"/>
  <path d="m 10.406998,281.70194 v 0.52917 c -0.04577,9.35781 0.959155,10.3172 10.29808,10.3172 h 25.970507 c 9.338924,0 10.055122,-0.96243 10.298081,-10.3172 v -0.52917 c -0.242959,9.35477 -0.959157,10.3172 -10.298081,10.3172 H 20.705078 c -9.338925,0 -10.34385,-0.95939 -10.29808,-10.3172 z" style="opacity:0.2"/>
  <path style="fill:#00c8ff" class="st1" d="m 21.659893,251.11103 c 0,-0.13582 0.27164,-0.23284 0.426863,-0.23284 1.241777,-0.0582 3.085042,-0.097 5.005917,-0.097 5.374569,0 7.47007,2.94922 7.47007,6.73277 0,4.9283 -3.570112,7.0432 -7.955141,7.0432 -0.737304,0 -0.989542,-0.0388 -1.513417,-0.0388 v 7.45066 c 0,0.15523 -0.05821,0.23284 -0.232833,0.23284 h -2.968625 c -0.155221,0 -0.232834,-0.0582 -0.232834,-0.23284 z m 3.453697,10.30287 c 0.446262,0.0388 0.795512,0.0388 1.571625,0.0388 2.270125,0 4.404429,-0.79551 4.404429,-3.88056 0,-2.46415 -1.532819,-3.70593 -4.113388,-3.70593 -0.776113,0 -1.513416,0.0388 -1.862666,0.0582 z m 16.686388,-2.30893 c -1.532818,0 -2.056693,0.77611 -2.056693,1.4164 0,0.6985 0.34925,1.18358 2.405943,2.25073 3.046238,1.47461 3.996974,2.89101 3.996974,4.96711 0,3.10444 -2.36714,4.77308 -5.568599,4.77308 -1.688041,0 -3.14325,-0.34925 -3.977568,-0.83432 -0.135819,-0.0582 -0.155223,-0.15522 -0.155223,-0.31044 v -2.85221 c 0,-0.19403 0.09701,-0.25224 0.232833,-0.15522 1.222375,0.79551 2.619375,1.14476 3.899958,1.14476 1.532822,0 2.173113,-0.64029 2.173113,-1.51341 0,-0.6985 -0.446264,-1.31939 -2.405946,-2.32834 -2.755194,-1.31939 -3.899958,-2.65818 -3.899958,-4.8895 0,-2.50296 1.959681,-4.57906 5.355166,-4.57906 1.66864,0 2.832807,0.25224 3.473099,0.54328 0.155223,0.097 0.194026,0.25224 0.194026,0.38806 v 2.65818 c 0,0.15522 -0.09701,0.25224 -0.291041,0.19403 -0.853721,-0.54328 -2.114902,-0.87313 -3.376084,-0.87313 z"/>
  <path d="m 10.406998,262.91497 v 19.31639 c -0.04577,9.35782 0.959156,10.31695 10.29808,10.31695 h 25.970507 c 9.338924,0 10.055122,-0.96217 10.298081,-10.31695 v -19.31639 z" style="opacity:0.05;fill:#ffffff"/>
  <path d="m 33.688972,233.28164 v 59.26667 h 12.985253 c 9.338924,0 10.055122,-0.96217 10.298081,-10.31695 v -19.31639 -19.31639 c 0,-9.35793 -0.959157,-10.31694 -10.298081,-10.31694 z" style="opacity:0.05;fill:#ffffff"/>
  <path d="m 41.098666,292.54831 15.875,-15.875 v 5.94886 c -0.01384,8.99472 -1.006126,9.92614 -10.100231,9.92614 z" style="opacity:0.1;fill:#ffffff"/>
  <path d="m 20.705078,233.28164 c -9.338925,0 -10.34385,0.95939 -10.29808,10.3172 v 0.52916 c -0.04577,-9.35781 0.959155,-10.3172 10.29808,-10.3172 h 25.970507 c 9.338927,0 10.298081,0.95928 10.298081,10.3172 v -0.52916 c 0,-9.35793 -0.959154,-10.3172 -10.298081,-10.3172 z" style="opacity:0.4;fill:#ffffff"/>
 </g>
</svg>
