<svg xmlns="http://www.w3.org/2000/svg" xmlns:xlink="http://www.w3.org/1999/xlink" width="256" height="256" version="1.1" viewBox="0 0 67.73 67.73">
 <defs>
  <linearGradient id="linearGradient4226" x1="529.655" x2="-35.31" y1="401.584" y2="119.093" gradientTransform="matrix(0,-0.11988932,0.11988589,0,0.36278009,292.5483)" gradientUnits="userSpaceOnUse" xlink:href="#linearGradient4338"/>
  <linearGradient id="linearGradient4338">
   <stop style="stop-color:#f2f2f2" offset="0"/>
   <stop style="stop-color:#f9f9f9" offset="1"/>
  </linearGradient>
  <linearGradient id="linearGradient4358" x1="88" x2="488" y1="88" y2="488" gradientUnits="userSpaceOnUse" xlink:href="#linearGradient4360"/>
  <linearGradient id="linearGradient4360">
   <stop offset="0" style="stop-color:#000000;stop-opacity:0.58823532"/>
   <stop style="stop-color:#000000;stop-opacity:0" offset=".88"/>
   <stop offset="1" style="stop-color:#000000"/>
  </linearGradient>
  <filter style="color-interpolation-filters:sRGB" id="filter4346" width="1.026" height="1.022" x="-.01" y="-.01">
   <feGaussianBlur stdDeviation="2.12"/>
  </filter>
 </defs>
 <g transform="translate(0,-229.26665)">
  <path d="m 20.705011,233.28164 c -9.338925,0 -10.343783,0.95922 -10.298012,10.31704 v 19.31629 19.3163 c -0.04577,9.35781 0.959087,10.31704 10.298012,10.31704 h 25.970643 c 9.338924,0 10.298012,-0.95912 10.298012,-10.31704 v -19.3163 -19.31629 c 0,-9.35793 -0.959088,-10.31704 -10.298012,-10.31704 z" style="opacity:0.2;fill:none;stroke:#000000;stroke-width:1.05833328"/>
  <path style="opacity:0.1;filter:url(#filter4346)" d="M 189.84323,74 C 119.24979,74 111.65402,81.250835 112,151.98706 V 298 444.01294 C 111.65402,514.74917 119.24979,522 189.84323,522 H 386.15677 C 456.75021,522 462.16345,514.72616 464,444.01294 V 298 151.98706 C 464,81.249993 456.75021,74 386.15677,74 Z" transform="matrix(0.13229167,0,0,0.13229167,-4.4096684,223.75664)"/>
  <path d="M 189.84323,74 C 119.24979,74 111.65402,81.250835 112,151.98706 V 298 444.01294 C 111.65402,514.74917 119.24979,522 189.84323,522 H 386.15677 C 456.75021,522 464,514.75001 464,444.01294 V 298 151.98706 C 464,81.249993 456.75021,74 386.15677,74 Z" transform="matrix(0.13229167,0,0,0.13229167,-4.4096684,223.75664)" style="opacity:0.3;fill:url(#linearGradient4358);filter:url(#filter4380)"/>
  <path style="fill:url(#linearGradient4226)" d="m 20.705011,233.28164 c -9.338925,0 -10.343783,0.95922 -10.298012,10.31704 v 19.31629 19.3163 c -0.04577,9.35781 0.959087,10.31704 10.298012,10.31704 h 25.970643 c 9.338924,0 10.298012,-0.95912 10.298012,-10.31704 v -19.3163 -19.31629 c 0,-9.35793 -0.959088,-10.31704 -10.298012,-10.31704 z"/>
  <path style="opacity:0.6;fill:#ffffff" d="m 20.705079,233.28164 c -9.338926,0 -10.343851,0.95939 -10.29808,10.3172 v 0.52916 c -0.04577,-9.35781 0.959154,-10.3172 10.29808,-10.3172 h 25.970506 c 9.338927,0 10.298081,0.95928 10.298081,10.3172 v -0.52916 c 0,-9.35793 -0.959154,-10.3172 -10.298081,-10.3172 z"/>
  <path d="m 33.689557,255.24207 v 7.93747 l 4.762482,4.76248" style="opacity:0.5;fill:none;stroke:#808080;stroke-width:1.5874939px"/>
  <rect width="25.4" height="25.4" x="250.48" y="-46.39" transform="rotate(90)" style="fill:none"/>
  <rect width="25.4" height="25.4" x="250.48" y="-46.39" transform="rotate(90)" style="fill:none"/>
  <path style="opacity:0.5;fill:#808080" d="m 33.689816,250.47955 a 12.699952,12.699952 0 0 0 -11.244276,6.81303 l -1.455208,-0.72761 v 5.29167 l 4.233333,-3.175 -1.348756,-0.67438 a 11.112458,11.112458 0 0 1 9.814907,-5.94021 11.112458,11.112458 0 0 1 11.111982,11.11251 11.112458,11.112458 0 0 1 -11.111982,11.1125 A 11.112458,11.112458 0 0 1 22.58455,263.3904 l -1.576131,0.15761 a 12.699952,12.699952 0 0 0 12.681397,12.33155 12.699952,12.699952 0 0 0 12.699482,-12.7 12.699952,12.699952 0 0 0 -12.699482,-12.70001 z"/>
  <path style="opacity:0.1;fill:#ffffff" d="m 33.690332,233.28164 v 59.26667 h 12.985253 c 9.338924,0 10.055122,-0.96217 10.298081,-10.31695 v -19.31639 -19.31639 c 0,-9.35792 -0.959157,-10.31694 -10.298081,-10.31694 z"/>
  <path style="opacity:0.2;fill:#ffffff" d="m 10.406999,262.91497 v 19.31639 c -0.04577,9.35782 0.959155,10.31695 10.29808,10.31695 h 25.970506 c 9.338924,0 10.055122,-0.96217 10.298081,-10.31695 v -19.31639 z"/>
  <path style="opacity:0.4;fill:#ffffff" d="m 41.098666,292.54831 15.875,-15.875 v 5.94886 c -0.01384,8.99472 -1.006126,9.92614 -10.100231,9.92614 z"/>
 </g>
</svg>
