<svg xmlns="http://www.w3.org/2000/svg" xmlns:xlink="http://www.w3.org/1999/xlink" width="256" height="256" version="1.1" viewBox="0 0 67.73 67.73">
 <defs>
  <linearGradient id="linearGradient4272" x1="256" x2="391.768" y1="142" y2="147.692" gradientTransform="matrix(0.03400761,0.17667339,-0.12990691,0.0250056,52.253435,212.23186)" gradientUnits="userSpaceOnUse" spreadMethod="reflect" xlink:href="#linearGradient6210"/>
  <linearGradient id="linearGradient6210">
   <stop style="stop-color:#2f5fdd" offset="0"/>
   <stop style="stop-color:#2f5fdd;stop-opacity:0" offset="1"/>
  </linearGradient>
  <linearGradient id="linearGradient4262" x1="256" x2="416" y1="142" y2="142" gradientTransform="matrix(0.13229166,0,0,0.13229166,-0.17633535,258.68165)" gradientUnits="userSpaceOnUse" spreadMethod="reflect" xlink:href="#linearGradient6210"/>
  <linearGradient id="linearGradient4258" x1="256" x2="416" y1="142" y2="142" gradientTransform="matrix(0.13229166,0,0,0.13229166,-0.17633535,248.62748)" gradientUnits="userSpaceOnUse" spreadMethod="reflect" xlink:href="#linearGradient6210"/>
  <linearGradient id="linearGradient4254" x1="256" x2="416" y1="142" y2="142" gradientTransform="matrix(0.09948333,0,0,0.13229166,13.471931,229.57748)" gradientUnits="userSpaceOnUse" spreadMethod="reflect" xlink:href="#linearGradient6210"/>
  <linearGradient id="linearGradient4268" x1="256" x2="416" y1="142" y2="142" gradientTransform="matrix(0.17991667,0,0,0.13229167,-260.13508,136.2907)" gradientUnits="userSpaceOnUse" spreadMethod="reflect" xlink:href="#linearGradient6210"/>
  <linearGradient id="linearGradient4226" x1="529.655" x2="-35.31" y1="401.584" y2="119.093" gradientTransform="matrix(0,-0.11988932,0.11988589,0,0.36277965,292.54831)" gradientUnits="userSpaceOnUse" xlink:href="#linearGradient4338-5"/>
  <linearGradient id="linearGradient4338-5">
   <stop offset="0" style="stop-color:#f2f2f2"/>
   <stop offset="1" style="stop-color:#f9f9f9"/>
  </linearGradient>
  <linearGradient id="linearGradient4358" x1="88" x2="488" y1="88" y2="488" gradientUnits="userSpaceOnUse" xlink:href="#linearGradient4360"/>
  <linearGradient id="linearGradient4360">
   <stop style="stop-color:#000000;stop-opacity:0.58823532" offset="0"/>
   <stop offset=".88" style="stop-color:#000000;stop-opacity:0"/>
   <stop style="stop-color:#000000" offset="1"/>
  </linearGradient>
  <filter id="filter4346" width="1.026" height="1.022" x="-.01" y="-.01" style="color-interpolation-filters:sRGB">
   <feGaussianBlur stdDeviation="2.12"/>
  </filter>
 </defs>
 <g transform="translate(0,-229.26666)">
  <path style="opacity:0.2;fill:none;stroke:#000000;stroke-width:1.05833328" d="m 20.70501,233.28165 c -9.338925,0 -10.343782,0.95922 -10.298012,10.31704 v 19.31629 19.3163 c -0.04577,9.35781 0.959087,10.31704 10.298012,10.31704 h 25.970644 c 9.338924,0 10.298012,-0.95912 10.298012,-10.31704 v -19.3163 -19.31629 c 0,-9.35793 -0.959088,-10.31704 -10.298012,-10.31704 z"/>
  <path d="M 189.84323,74 C 119.24979,74 111.65402,81.250835 112,151.98706 V 298 444.01294 C 111.65402,514.74917 119.24979,522 189.84323,522 H 386.15677 C 456.75021,522 462.16345,514.72616 464,444.01294 V 298 151.98706 C 464,81.249993 456.75021,74 386.15677,74 Z" transform="matrix(0.13229167,0,0,0.13229167,-4.4096684,223.75665)" style="opacity:0.1;filter:url(#filter4346)"/>
  <path style="opacity:0.3;fill:url(#linearGradient4358);filter:url(#filter4380)" d="M 189.84323,74 C 119.24979,74 111.65402,81.250835 112,151.98706 V 298 444.01294 C 111.65402,514.74917 119.24979,522 189.84323,522 H 386.15677 C 456.75021,522 464,514.75001 464,444.01294 V 298 151.98706 C 464,81.249993 456.75021,74 386.15677,74 Z" transform="matrix(0.13229167,0,0,0.13229167,-4.4096684,223.75665)"/>
  <path d="m 20.70501,233.28165 c -9.338925,0 -10.343782,0.95922 -10.298012,10.31704 v 19.31629 19.3163 c -0.04577,9.35781 0.959087,10.31704 10.298012,10.31704 h 25.970644 c 9.338924,0 10.298012,-0.95912 10.298012,-10.31704 v -19.3163 -19.31629 c 0,-9.35793 -0.959088,-10.31704 -10.298012,-10.31704 z" style="fill:url(#linearGradient4226)"/>
  <path d="m 20.705078,233.28165 c -9.338925,0 -10.34385,0.95939 -10.29808,10.3172 v 0.52916 c -0.04577,-9.35781 0.959155,-10.3172 10.29808,-10.3172 h 25.970507 c 9.338927,0 10.298081,0.95928 10.298081,10.3172 v -0.52916 c 0,-9.35793 -0.959154,-10.3172 -10.298081,-10.3172 z" style="opacity:0.6;fill:#ffffff"/>
  <rect style="opacity:0.5;fill:url(#linearGradient4268)" width="57.573" height=".529" x="-242.86" y="154.81" transform="rotate(-60.463827)"/>
  <rect width="31.835" height=".529" x="23.02" y="248.1" style="opacity:0.5;fill:url(#linearGradient4254)"/>
  <rect style="opacity:0.5;fill:url(#linearGradient4258)" width="42.333" height=".529" x="12.52" y="267.15"/>
  <rect width="42.333" height=".529" x="12.52" y="277.2" style="opacity:0.5;fill:url(#linearGradient4262)"/>
  <path d="m 38.655712,239.57433 9.557915,49.65445 -0.519626,0.10002 -9.539248,-49.55747 z" style="opacity:0.5;fill:url(#linearGradient4272)"/>
  <path d="m 28.991551,267.14123 h 10.700383 l -2.643417,-14.23966 z m -10.117887,10.59042 0.387111,-2.10391 h 2.535575 l 15.523145,-27.52943 h 3.251729 l 5.109866,27.52943 h 2.825907 l -0.38711,2.10391 H 37.609828 l 0.387112,-2.10391 h 3.21302 l -1.169627,-6.36276 H 27.791509 l -3.575714,6.36276 h 3.174307 l -0.387112,2.10391 z" style="fill:#2f5fdd"/>
  <path d="m 33.690332,233.28165 v 0.52916 58.73751 h 12.985253 c 9.338924,0 10.055122,-0.96217 10.298081,-10.31695 v -19.31639 -19.31639 c 0,-9.35792 -0.959157,-10.31694 -10.298081,-10.31694 z" style="opacity:0.1;fill:#ffffff"/>
  <path d="m 10.406998,262.91498 v 19.31639 c -0.04577,9.35782 0.959156,10.31695 10.29808,10.31695 h 25.970507 c 9.338924,0 10.055122,-0.96217 10.298081,-10.31695 v -19.31639 z" style="opacity:0.2;fill:#ffffff"/>
  <path d="m 41.098666,292.54832 15.875,-15.875 v 5.94886 c -0.01384,8.99472 -1.006126,9.92614 -10.100231,9.92614 z" style="opacity:0.4;fill:#ffffff"/>
 </g>
</svg>
