<svg xmlns="http://www.w3.org/2000/svg" xmlns:xlink="http://www.w3.org/1999/xlink" width="256" height="256" version="1.1" viewBox="0 0 67.73 67.73">
 <defs>
  <linearGradient id="linearGradient4226" x1="529.655" x2="-35.31" y1="401.584" y2="119.093" gradientTransform="matrix(0,-0.11988932,-0.11988589,0,67.016454,292.54831)" gradientUnits="userSpaceOnUse" xlink:href="#linearGradient4246"/>
  <linearGradient id="linearGradient4246">
   <stop offset="0" style="stop-color:#8c59d9"/>
   <stop offset="1" style="stop-color:#8f76e4"/>
  </linearGradient>
  <linearGradient id="linearGradient4358" x1="88" x2="488" y1="88" y2="488" gradientUnits="userSpaceOnUse" xlink:href="#linearGradient4360"/>
  <linearGradient id="linearGradient4360">
   <stop style="stop-color:#000000;stop-opacity:0.58823532" offset="0"/>
   <stop offset=".88" style="stop-color:#000000;stop-opacity:0"/>
   <stop style="stop-color:#000000" offset="1"/>
  </linearGradient>
  <filter id="filter4346" width="1.026" height="1.022" x="-.01" y="-.01" style="color-interpolation-filters:sRGB">
   <feGaussianBlur stdDeviation="2.12"/>
  </filter>
 </defs>
 <g transform="translate(0,-229.26666)">
  <path d="M 189.84323,74 C 119.24979,74 111.65402,81.250835 112,151.98706 V 298 444.01294 C 111.65402,514.74917 119.24979,522 189.84323,522 H 386.15677 C 456.75021,522 462.16345,514.72616 464,444.01294 V 298 151.98706 C 464,81.249993 456.75021,74 386.15677,74 Z" transform="matrix(0.13229167,0,0,0.13229167,-4.4096684,223.75665)" style="opacity:0.1;filter:url(#filter4346)"/>
  <path style="opacity:0.3;fill:url(#linearGradient4358);filter:url(#filter4380)" d="M 189.84323,74 C 119.24979,74 111.65402,81.250835 112,151.98706 V 298 444.01294 C 111.65402,514.74917 119.24979,522 189.84323,522 H 386.15677 C 456.75021,522 464,514.75001 464,444.01294 V 298 151.98706 C 464,81.249993 456.75021,74 386.15677,74 Z" transform="matrix(0.13229167,0,0,0.13229167,-4.4096684,223.75665)"/>
  <path d="m 46.674225,233.28165 c 9.338927,0 10.343782,0.95922 10.298012,10.31704 v 19.31629 19.3163 c 0.04577,9.35781 -0.959085,10.31704 -10.298012,10.31704 H 20.703582 c -9.338923,0 -10.298011,-0.95912 -10.298011,-10.31704 v -19.3163 -19.31629 c 0,-9.35793 0.959088,-10.31704 10.298011,-10.31704 z" style="fill:url(#linearGradient4226)"/>
  <g style="stroke:#ffffff;enable-background:new" transform="matrix(0.26458333,0,0,0.26458333,-6.5269744,221.63998)">
   <path style="fill:none;stroke:#ffffff;stroke-width:8" d="m 152,100 c -20.00687,0 -38.49398,10.67354 -48.49742,28 -10.003437,17.32646 -10.003437,38.67354 0,56 10.00344,17.32646 28.49055,28 48.49742,28 h 88"/>
   <path style="fill:none;stroke:#ffffff;stroke-width:8" d="m 167.23403,119.01454 c -14.95033,-6.15793 -32.13768,-2.70962 -43.55567,8.7386 -11.41799,11.44822 -14.82085,28.64463 -8.62342,43.57862 C 121.25237,186.26575 135.83113,196 152,196 h 88"/>
   <path style="fill:none;stroke:#ffffff;stroke-width:8" d="m 168.97056,139.02943 c -7.68097,-7.68097 -19.56333,-9.24531 -28.97056,-3.81404 -9.40723,5.43127 -13.99365,16.50386 -11.18222,26.99627 C 131.62921,172.70406 141.13746,180 152,180 h 88"/>
  </g>
  <path d="m 33.690332,233.28165 v 59.26667 h 12.985253 c 9.338924,0 10.055122,-0.96217 10.298081,-10.31695 v -19.31639 -19.31639 c 0,-9.35792 -0.959157,-10.31694 -10.298081,-10.31694 z" style="opacity:0.07999998;fill:#ffffff"/>
  <path d="m 10.406998,262.91498 v 19.31639 c -0.04577,9.35782 0.959156,10.31695 10.298081,10.31695 h 25.970506 c 9.338924,0 10.055122,-0.96217 10.298081,-10.31695 v -19.31639 z" style="opacity:0.07999998;fill:#ffffff"/>
  <path d="m 41.098666,292.54832 15.875,-15.875 v 5.94886 c -0.01384,8.99472 -1.006126,9.92614 -10.100231,9.92614 z" style="opacity:0.07999998;fill:#ffffff"/>
  <path d="m 10.406998,281.70195 v 0.52917 c -0.04577,9.35781 0.959155,10.3172 10.298081,10.3172 h 25.970506 c 9.338924,0 10.055122,-0.96243 10.298081,-10.3172 v -0.52917 c -0.242959,9.35477 -0.959157,10.3172 -10.298081,10.3172 H 20.705079 c -9.338926,0 -10.343851,-0.95939 -10.298081,-10.3172 z" style="opacity:0.2"/>
  <path d="m 20.705079,233.28165 c -9.338926,0 -10.343851,0.95939 -10.298081,10.3172 v 0.52916 c -0.04577,-9.35781 0.959155,-10.3172 10.298081,-10.3172 h 25.970506 c 9.338927,0 10.298081,0.95928 10.298081,10.3172 v -0.52916 c 0,-9.35793 -0.959154,-10.3172 -10.298081,-10.3172 z" style="opacity:0.4;fill:#ffffff"/>
 </g>
</svg>
