<svg xmlns="http://www.w3.org/2000/svg" xmlns:xlink="http://www.w3.org/1999/xlink" width="256" height="256" version="1.1" viewBox="0 0 67.73 67.73">
 <defs>
  <linearGradient id="linearGradient4226" x1="529.655" x2="-35.31" y1="401.584" y2="119.093" gradientTransform="matrix(0,-0.11988932,-0.11988589,0,67.016455,292.81288)" gradientUnits="userSpaceOnUse" xlink:href="#linearGradient4338-3"/>
  <linearGradient id="linearGradient4338-3">
   <stop offset="0" style="stop-color:#d24625"/>
   <stop offset="1" style="stop-color:#ec532f"/>
  </linearGradient>
  <linearGradient id="linearGradient4358" x1="88" x2="488" y1="88" y2="488" gradientUnits="userSpaceOnUse" xlink:href="#linearGradient4360"/>
  <linearGradient id="linearGradient4360">
   <stop style="stop-color:#000000;stop-opacity:0.58823532" offset="0"/>
   <stop offset=".88" style="stop-color:#000000;stop-opacity:0"/>
   <stop style="stop-color:#000000" offset="1"/>
  </linearGradient>
  <filter id="filter4346" width="1.026" height="1.022" x="-.01" y="-.01" style="color-interpolation-filters:sRGB">
   <feGaussianBlur stdDeviation="2.12"/>
  </filter>
 </defs>
 <g transform="translate(0,-229.26665)">
  <path d="M 189.84323,74 C 119.24979,74 111.65402,81.250835 112,151.98706 V 298 444.01294 C 111.65402,514.74917 119.24979,522 189.84323,522 H 386.15677 C 456.75021,522 462.16345,514.72616 464,444.01294 V 298 151.98706 C 464,81.249993 456.75021,74 386.15677,74 Z" transform="matrix(0.13229167,0,0,0.13229167,-4.4096684,224.02122)" style="opacity:0.1;filter:url(#filter4346)"/>
  <path style="opacity:0.3;fill:url(#linearGradient4358);filter:url(#filter4380)" d="M 189.84323,74 C 119.24979,74 111.65402,81.250835 112,151.98706 V 298 444.01294 C 111.65402,514.74917 119.24979,522 189.84323,522 H 386.15677 C 456.75021,522 464,514.75001 464,444.01294 V 298 151.98706 C 464,81.249993 456.75021,74 386.15677,74 Z" transform="matrix(0.13229167,0,0,0.13229167,-4.4096684,224.02122)"/>
  <path d="m 46.674225,233.54622 c 9.338927,0 10.343782,0.95922 10.298012,10.31704 v 19.31629 19.3163 c 0.04577,9.35781 -0.959085,10.31704 -10.298012,10.31704 H 20.703582 c -9.338924,0 -10.298012,-0.95912 -10.298012,-10.31704 v -19.3163 -19.31629 c 0,-9.35793 0.959088,-10.31704 10.298012,-10.31704 z" style="fill:url(#linearGradient4226)"/>
  <path d="m 34.360059,248.36288 c -5.160857,0.91906 -10.324505,2.13842 -15.48536,3.04065 0,7.85069 -0.0034,15.7047 0,23.55876 5.133923,0.89886 10.270583,2.09804 15.394409,3.03393 h 1.537891 v -29.63334 z m -7.765418,9.33122 c 1.018204,-0.0216 1.995228,0.12494 2.788978,0.84284 1.520473,1.84503 1.118402,5.23857 -1.135848,6.34277 -0.800804,0.40922 -1.718144,0.35327 -2.589506,0.32504 -0.0035,1.37937 -0.0071,2.75837 -0.0036,4.13773 -0.6985,-0.06 -1.40008,-0.11977 -2.09858,-0.17621 -0.03175,-3.76767 -0.03923,-7.36462 0.0031,-11.13229 0.993391,-0.12377 2.01727,-0.31826 3.035474,-0.33988 z m -0.117306,2.04432 c -0.277852,-0.007 -0.562073,0.0181 -0.822687,0.03 -0.01058,1.18533 -0.01725,2.36681 0.05684,3.54862 0.702027,-0.0847 1.61218,-0.0138 2.014347,-0.74052 0.33514,-0.71261 0.356174,-1.62314 -0.04599,-2.31459 -0.293245,-0.4079 -0.73942,-0.51107 -1.20251,-0.52348 z" style="fill:#ffffff"/>
  <path d="m 36.865848,252.59622 v 3.51761 c 0.496015,-0.1065 1.034892,-0.3068 1.586985,-0.34003 v 4.75992 h 1.058333 3.672644 c -0.168074,1.44406 -0.811832,2.9283 -2.085144,3.68298 -1.248833,0.83961 -2.835818,0.85043 -4.232818,0.41651 0.0035,0.69144 -0.0035,2.08823 0,2.77968 h 8.466151 v 1.05833 h -8.466151 v 2.11667 h 8.466151 v 1.05833 h -8.466151 v 3.175 h 10.582818 v -22.225 z m 2.645318,2.53628 c 2.250191,0.23304 4.11077,2.09821 4.355806,4.34289 h -4.355806 z" style="fill:#ffffff"/>
  <path d="m 33.690332,233.54622 v 59.26667 h 12.985253 c 9.338924,0 10.055122,-0.96217 10.298081,-10.31695 v -19.31639 -19.31639 c 0,-9.35792 -0.959157,-10.31694 -10.298081,-10.31694 z" style="opacity:0.07999998;fill:#ffffff"/>
  <path d="m 10.406998,263.17955 v 19.31639 c -0.04577,9.35782 0.959156,10.31695 10.298081,10.31695 h 25.970506 c 9.338924,0 10.055122,-0.96217 10.298081,-10.31695 v -19.31639 z" style="opacity:0.07999998;fill:#ffffff"/>
  <path d="m 41.098666,292.81289 15.875,-15.875 v 5.94886 c -0.01384,8.99472 -1.006126,9.92614 -10.100231,9.92614 z" style="opacity:0.07999998;fill:#ffffff"/>
  <path d="m 10.406998,281.96652 v 0.52917 c -0.04577,9.35781 0.959154,10.3172 10.298081,10.3172 h 25.970506 c 9.338924,0 10.055122,-0.96243 10.298081,-10.3172 v -0.52917 c -0.242959,9.35477 -0.959157,10.3172 -10.298081,10.3172 H 20.705079 c -9.338927,0 -10.343851,-0.95939 -10.298081,-10.3172 z" style="opacity:0.2"/>
  <path d="m 20.705079,233.54622 c -9.338926,0 -10.343851,0.95939 -10.298081,10.3172 v 0.52916 c -0.04577,-9.35781 0.959155,-10.3172 10.298081,-10.3172 h 25.970506 c 9.338927,0 10.298081,0.95928 10.298081,10.3172 v -0.52916 c 0,-9.35793 -0.959154,-10.3172 -10.298081,-10.3172 z" style="opacity:0.4;fill:#ffffff"/>
 </g>
</svg>
