<svg xmlns="http://www.w3.org/2000/svg" xmlns:xlink="http://www.w3.org/1999/xlink" width="256" height="256" version="1.1" viewBox="0 0 67.73 67.73">
 <defs>
  <linearGradient id="linearGradient4226" x1="529.655" x2="-35.31" y1="401.584" y2="119.093" gradientTransform="matrix(0,-0.11988932,-0.11988589,0,67.016455,292.5483)" gradientUnits="userSpaceOnUse" xlink:href="#linearGradient4246"/>
  <linearGradient id="linearGradient4246">
   <stop offset="0" style="stop-color:#da1636"/>
   <stop offset="1" style="stop-color:#f22c42"/>
  </linearGradient>
  <linearGradient id="linearGradient4358" x1="88" x2="488" y1="88" y2="488" gradientUnits="userSpaceOnUse" xlink:href="#linearGradient4360"/>
  <linearGradient id="linearGradient4360">
   <stop style="stop-color:#000000;stop-opacity:0.58823532" offset="0"/>
   <stop offset=".88" style="stop-color:#000000;stop-opacity:0"/>
   <stop style="stop-color:#000000" offset="1"/>
  </linearGradient>
  <filter id="filter4346" width="1.026" height="1.022" x="-.01" y="-.01" style="color-interpolation-filters:sRGB">
   <feGaussianBlur stdDeviation="2.12"/>
  </filter>
 </defs>
 <g transform="translate(0,-229.26665)">
  <path d="M 189.84323,74 C 119.24979,74 111.65402,81.250835 112,151.98706 V 298 444.01294 C 111.65402,514.74917 119.24979,522 189.84323,522 H 386.15677 C 456.75021,522 462.16345,514.72616 464,444.01294 V 298 151.98706 C 464,81.249993 456.75021,74 386.15677,74 Z" transform="matrix(0.13229167,0,0,0.13229167,-4.4096684,223.75664)" style="opacity:0.1;filter:url(#filter4346)"/>
  <path style="opacity:0.3;fill:url(#linearGradient4358);filter:url(#filter4380)" d="M 189.84323,74 C 119.24979,74 111.65402,81.250835 112,151.98706 V 298 444.01294 C 111.65402,514.74917 119.24979,522 189.84323,522 H 386.15677 C 456.75021,522 464,514.75001 464,444.01294 V 298 151.98706 C 464,81.249993 456.75021,74 386.15677,74 Z" transform="matrix(0.13229167,0,0,0.13229167,-4.4096684,223.75664)"/>
  <path d="m 46.674225,233.28164 c 9.338927,0 10.343782,0.95922 10.298012,10.31704 v 19.31629 19.3163 c 0.04577,9.35781 -0.959085,10.31704 -10.298012,10.31704 H 20.703582 c -9.338923,0 -10.298011,-0.95912 -10.298011,-10.31704 v -19.3163 -19.31629 c 0,-9.35793 0.959088,-10.31704 10.298011,-10.31704 z" style="fill:url(#linearGradient4226)"/>
  <path d="m 36.139655,246.34413 -12.087901,14.31579 c 3.148275,0.50492 8.464815,4.48528 7.662895,9.7716 1.63354,-3.9205 -1.36637,-8.70249 -4.247338,-10.63304 l 10.543792,-12.5929 c -0.564727,-0.41581 -1.010124,-0.62384 -1.871448,-0.86145 z m -4.066348,0.99809 c -0.470164,0.002 -0.822907,0.0712 -0.804346,0.0712 l -3.860967,4.42529 c -2.168152,0.1188 -4.277037,0.26744 -6.326386,0.47534 -1.455333,0.14851 -2.613674,1.3068 -2.82158,2.85124 -0.297005,2.70277 -0.445409,5.55403 -0.445409,8.4944 0,2.94037 0.148404,5.7916 0.445409,8.52406 0.207906,1.72305 1.366247,2.58435 2.82158,2.85124 4.039296,0.65342 9.890506,0.0298 9.890506,-5.52426 0,-5.19762 -8.524222,-7.42524 -11.43489,-5.9996 l 13.454343,-16.06805 c -0.311856,-0.078 -0.636161,-0.10176 -0.91826,-0.10089 z m 8.877729,4.55583 c 0,0 -7.573113,16.81083 -8.31563,18.53347 -1.12863,2.55426 -2.673074,4.42543 -4.900625,5.07885 1.960245,0.0891 3.920363,0.11863 5.940009,0.11863 4.424996,0 8.642986,-0.20787 12.593178,-0.59398 1.454925,-0.1485 2.643378,-1.3365 2.821583,-2.85124 0.32712,-2.73246 0.475067,-5.58369 0.475067,-8.52406 0,-2.94037 -0.147947,-5.79163 -0.475067,-8.4944 -0.178205,-1.54444 -1.366245,-2.70273 -2.821583,-2.85124 -1.722641,-0.1782 -3.504777,-0.32693 -5.316932,-0.41603 z" style="clip-rule:evenodd;fill:#ffffff;fill-rule:evenodd"/>
  <path d="m 33.690332,233.28164 v 59.26667 h 12.985253 c 9.338924,0 10.055122,-0.96217 10.298081,-10.31695 v -19.31639 -19.31639 c 0,-9.35792 -0.959157,-10.31694 -10.298081,-10.31694 z" style="opacity:0.07999998;fill:#ffffff"/>
  <path d="m 10.406998,262.91497 v 19.31639 c -0.04577,9.35782 0.959156,10.31695 10.298081,10.31695 h 25.970506 c 9.338924,0 10.055122,-0.96217 10.298081,-10.31695 v -19.31639 z" style="opacity:0.07999998;fill:#ffffff"/>
  <path d="m 41.098666,292.54831 15.875,-15.875 v 5.94886 c -0.01384,8.99472 -1.006126,9.92614 -10.100231,9.92614 z" style="opacity:0.07999998;fill:#ffffff"/>
  <path d="m 10.406998,281.70194 v 0.52917 c -0.04577,9.35781 0.959155,10.3172 10.298081,10.3172 h 25.970506 c 9.338924,0 10.055122,-0.96243 10.298081,-10.3172 v -0.52917 c -0.242959,9.35477 -0.959157,10.3172 -10.298081,10.3172 H 20.705079 c -9.338926,0 -10.343851,-0.95939 -10.298081,-10.3172 z" style="opacity:0.2"/>
  <path d="m 20.705079,233.28164 c -9.338926,0 -10.343851,0.95939 -10.298081,10.3172 v 0.52916 c -0.04577,-9.35781 0.959155,-10.3172 10.298081,-10.3172 h 25.970506 c 9.338927,0 10.298081,0.95928 10.298081,10.3172 v -0.52916 c 0,-9.35793 -0.959154,-10.3172 -10.298081,-10.3172 z" style="opacity:0.4;fill:#ffffff"/>
 </g>
</svg>
