<svg xmlns="http://www.w3.org/2000/svg" xmlns:xlink="http://www.w3.org/1999/xlink" width="256" height="256" version="1.1" viewBox="0 0 67.73 67.73">
 <defs>
  <linearGradient id="linearGradient4226" x1="529.655" x2="-35.31" y1="401.584" y2="119.093" gradientTransform="matrix(0,-0.11988932,0.11988589,0,0.36278005,292.5483)" gradientUnits="userSpaceOnUse" xlink:href="#linearGradient4338"/>
  <linearGradient id="linearGradient4338">
   <stop offset="0" style="stop-color:#f2f2f2"/>
   <stop offset="1" style="stop-color:#f9f9f9"/>
  </linearGradient>
  <linearGradient id="linearGradient4358" x1="88" x2="488" y1="88" y2="488" gradientUnits="userSpaceOnUse" xlink:href="#linearGradient4360"/>
  <linearGradient id="linearGradient4360">
   <stop style="stop-color:#000000;stop-opacity:0.58823532" offset="0"/>
   <stop offset=".88" style="stop-color:#000000;stop-opacity:0"/>
   <stop style="stop-color:#000000" offset="1"/>
  </linearGradient>
  <filter id="filter4346" width="1.026" height="1.022" x="-.01" y="-.01" style="color-interpolation-filters:sRGB">
   <feGaussianBlur stdDeviation="2.12"/>
  </filter>
 </defs>
 <g transform="translate(0,-229.26665)">
  <path style="opacity:0.2;fill:none;stroke:#000000;stroke-width:1.05833328" d="m 20.705011,233.28164 c -9.338925,0 -10.343783,0.95922 -10.298013,10.31704 v 19.31629 19.3163 c -0.04577,9.35781 0.959088,10.31704 10.298013,10.31704 h 25.970643 c 9.338924,0 10.298012,-0.95912 10.298012,-10.31704 v -19.3163 -19.31629 c 0,-9.35793 -0.959088,-10.31704 -10.298012,-10.31704 z"/>
  <path d="M 189.84323,74 C 119.24979,74 111.65402,81.250835 112,151.98706 V 298 444.01294 C 111.65402,514.74917 119.24979,522 189.84323,522 H 386.15677 C 456.75021,522 462.16345,514.72616 464,444.01294 V 298 151.98706 C 464,81.249993 456.75021,74 386.15677,74 Z" transform="matrix(0.13229167,0,0,0.13229167,-4.4096684,223.75664)" style="opacity:0.1;filter:url(#filter4346)"/>
  <path style="opacity:0.3;fill:url(#linearGradient4358);filter:url(#filter4380)" d="M 189.84323,74 C 119.24979,74 111.65402,81.250835 112,151.98706 V 298 444.01294 C 111.65402,514.74917 119.24979,522 189.84323,522 H 386.15677 C 456.75021,522 464,514.75001 464,444.01294 V 298 151.98706 C 464,81.249993 456.75021,74 386.15677,74 Z" transform="matrix(0.13229167,0,0,0.13229167,-4.4096684,223.75664)"/>
  <path d="m 20.705011,233.28164 c -9.338925,0 -10.343783,0.95922 -10.298013,10.31704 v 19.31629 19.3163 c -0.04577,9.35781 0.959088,10.31704 10.298013,10.31704 h 25.970643 c 9.338924,0 10.298012,-0.95912 10.298012,-10.31704 v -19.3163 -19.31629 c 0,-9.35793 -0.959088,-10.31704 -10.298012,-10.31704 z" style="fill:url(#linearGradient4226)"/>
  <path d="m 20.705079,233.28164 c -9.338926,0 -10.343851,0.95939 -10.298081,10.3172 v 0.52916 c -0.04577,-9.35781 0.959155,-10.3172 10.298081,-10.3172 h 25.970506 c 9.338927,0 10.298081,0.95928 10.298081,10.3172 v -0.52916 c 0,-9.35793 -0.959154,-10.3172 -10.298081,-10.3172 z" style="opacity:0.6;fill:#ffffff"/>
  <path d="m 45.649764,267.84135 q -0.138568,3.00881 -1.6232,5.3249 -1.484641,2.29621 -4.176779,3.56309 -2.672345,1.26688 -6.116691,1.26688 -5.681202,0 -8.947404,-3.70164 -3.266191,-3.70175 -3.266191,-10.45184 v -1.42529 q 0,-4.23618 1.464836,-7.40339 1.484633,-3.18699 4.255955,-4.90914 2.771315,-1.74203 6.413619,-1.74203 5.24571,0 8.432724,2.77136 3.187026,2.75156 3.622511,7.60132 h -6.928289 q -0.07916,-2.63271 -1.32628,-3.7809 -1.247095,-1.14811 -3.800666,-1.14811 -2.593157,0 -3.800665,1.93996 -1.207498,1.93997 -1.266891,6.1959 v 2.03887 q 0,4.61229 1.148117,6.59178 1.167918,1.9795 3.998624,1.9795 2.39521,0 3.662098,-1.12835 1.266889,-1.12825 1.346065,-3.58287 z" style="fill:#2f5fdd"/>
  <path d="m 33.690332,233.28164 v 59.26667 h 12.985253 c 9.338924,0 10.055122,-0.96217 10.298081,-10.31695 v -19.31639 -19.31639 c 0,-9.35792 -0.959157,-10.31694 -10.298081,-10.31694 z" style="opacity:0.1;fill:#ffffff"/>
  <path d="m 10.406998,262.91497 v 19.31639 c -0.04577,9.35782 0.959156,10.31695 10.298081,10.31695 h 25.970506 c 9.338924,0 10.055122,-0.96217 10.298081,-10.31695 v -19.31639 z" style="opacity:0.2;fill:#ffffff"/>
  <path d="m 41.098666,292.54831 15.875,-15.875 v 5.94886 c -0.01384,8.99472 -1.006126,9.92614 -10.100231,9.92614 z" style="opacity:0.4;fill:#ffffff"/>
 </g>
</svg>
