<svg xmlns="http://www.w3.org/2000/svg" xmlns:xlink="http://www.w3.org/1999/xlink" width="256" height="256" version="1.1" viewBox="0 0 67.73 67.73">
 <defs>
  <linearGradient id="linearGradient4226" x1="529.655" x2="-35.31" y1="401.584" y2="119.093" gradientTransform="matrix(0,-0.11988932,0.11988589,0,0.36278005,292.54831)" gradientUnits="userSpaceOnUse" xlink:href="#linearGradient4338-9"/>
  <linearGradient id="linearGradient4338-9">
   <stop offset="0" style="stop-color:#f2f2f2"/>
   <stop offset="1" style="stop-color:#f9f9f9"/>
  </linearGradient>
  <linearGradient id="linearGradient4358" x1="88" x2="488" y1="88" y2="488" gradientUnits="userSpaceOnUse" xlink:href="#linearGradient4360"/>
  <linearGradient id="linearGradient4360">
   <stop style="stop-color:#000000;stop-opacity:0.58823532" offset="0"/>
   <stop offset=".88" style="stop-color:#000000;stop-opacity:0"/>
   <stop style="stop-color:#000000" offset="1"/>
  </linearGradient>
  <filter id="filter4346" width="1.026" height="1.022" x="-.01" y="-.01" style="color-interpolation-filters:sRGB">
   <feGaussianBlur stdDeviation="2.12"/>
  </filter>
 </defs>
 <g transform="translate(0,-229.26666)">
  <path style="opacity:0.2;fill:none;stroke:#000000;stroke-width:1.05833328" d="m 20.70501,233.28165 c -9.338924,0 -10.343782,0.95922 -10.298012,10.31704 v 19.31629 19.3163 c -0.04577,9.35781 0.959088,10.31704 10.298012,10.31704 h 25.970643 c 9.338924,0 10.298012,-0.95912 10.298012,-10.31704 v -19.3163 -19.31629 c 0,-9.35793 -0.959088,-10.31704 -10.298012,-10.31704 z"/>
  <path d="M 189.84323,74 C 119.24979,74 111.65402,81.250835 112,151.98706 V 298 444.01294 C 111.65402,514.74917 119.24979,522 189.84323,522 H 386.15677 C 456.75021,522 462.16345,514.72616 464,444.01294 V 298 151.98706 C 464,81.249993 456.75021,74 386.15677,74 Z" transform="matrix(0.13229167,0,0,0.13229167,-4.4096684,223.75665)" style="opacity:0.1;filter:url(#filter4346)"/>
  <path style="opacity:0.3;fill:url(#linearGradient4358);filter:url(#filter4380)" d="M 189.84323,74 C 119.24979,74 111.65402,81.250835 112,151.98706 V 298 444.01294 C 111.65402,514.74917 119.24979,522 189.84323,522 H 386.15677 C 456.75021,522 464,514.75001 464,444.01294 V 298 151.98706 C 464,81.249993 456.75021,74 386.15677,74 Z" transform="matrix(0.13229167,0,0,0.13229167,-4.4096684,223.75665)"/>
  <path d="m 20.70501,233.28165 c -9.338924,0 -10.343782,0.95922 -10.298012,10.31704 v 19.31629 19.3163 c -0.04577,9.35781 0.959088,10.31704 10.298012,10.31704 h 25.970643 c 9.338924,0 10.298012,-0.95912 10.298012,-10.31704 v -19.3163 -19.31629 c 0,-9.35793 -0.959088,-10.31704 -10.298012,-10.31704 z" style="fill:url(#linearGradient4226)"/>
  <path d="m 20.705078,233.28165 c -9.338925,0 -10.34385,0.95939 -10.29808,10.3172 v 0.52916 c -0.04577,-9.35781 0.959155,-10.3172 10.29808,-10.3172 h 25.970506 c 9.338927,0 10.298081,0.95928 10.298081,10.3172 v -0.52916 c 0,-9.35793 -0.959154,-10.3172 -10.298081,-10.3172 z" style="opacity:0.6;fill:#ffffff"/>
  <path d="m 48.034815,264.81629 c -1.181505,0.006 -2.208361,0.29074 -3.068198,0.71138 -0.315479,-0.62478 -0.63096,-1.18151 -0.686631,-1.58977 -0.06186,-0.47632 -0.136091,-0.76705 -0.06186,-1.33615 0.07423,-0.5691 0.40827,-1.37945 0.402082,-1.44132 -0.0062,-0.0618 -0.07423,-0.35259 -0.754679,-0.35877 -0.680443,-0.006 -1.268103,0.1299 -1.336146,0.30929 -0.06805,0.17939 -0.197948,0.58766 -0.284552,1.0083 -0.11753,0.61859 -1.360895,2.82694 -2.072272,3.9837 -0.228875,-0.45156 -0.426823,-0.84746 -0.470125,-1.16294 -0.06186,-0.47631 -0.136091,-0.76705 -0.06186,-1.33615 0.07423,-0.5691 0.408266,-1.37945 0.402082,-1.44131 -0.0062,-0.0619 -0.07423,-0.35259 -0.754676,-0.35878 -0.68045,-0.006 -1.268111,0.1299 -1.336154,0.30929 -0.06804,0.17939 -0.142274,0.60003 -0.284551,1.0083 -0.142275,0.40827 -1.793907,4.09506 -2.226916,5.04768 -0.222692,0.48868 -0.414454,0.8784 -0.550543,1.14439 0,0 0,0 0,0 0,0 -0.0062,0.0186 -0.02474,0.0495 -0.117531,0.22887 -0.185576,0.35259 -0.185576,0.35259 0,0 0,0 0,0.006 -0.09279,0.16702 -0.191765,0.32167 -0.241253,0.32167 -0.03711,0 -0.105159,-0.44538 0.01236,-1.0516 0.247439,-1.28048 0.835097,-3.27233 0.828911,-3.34038 0,-0.0371 0.111345,-0.38352 -0.383524,-0.56291 -0.482497,-0.17939 -0.655704,0.11753 -0.699006,0.11753 -0.0433,0 -0.07423,0.10516 -0.07423,0.10516 0,0 0.538174,-2.23929 -1.026858,-2.23929 -0.977366,0 -2.325889,1.07016 -2.993965,2.03516 -0.420639,0.22887 -1.317593,0.71756 -2.276403,1.24336 -0.364969,0.20413 -0.742307,0.40827 -1.094902,0.60003 -0.02476,-0.0247 -0.04949,-0.0557 -0.07423,-0.0804 -1.89288,-2.02278 -5.39409,-3.45172 -5.245627,-6.16732 0.05567,-0.98974 0.395896,-3.58781 6.724052,-6.74261 5.208511,-2.56714 9.353051,-1.85576 10.070614,-0.27837 1.026856,2.25167 -2.22073,6.43332 -7.602448,7.03954 -2.053712,0.22888 -3.130053,-0.56292 -3.402235,-0.85984 -0.284551,-0.3093 -0.32785,-0.32785 -0.433011,-0.26599 -0.173205,0.0928 -0.06186,0.37115 0,0.53198 0.160834,0.42064 0.822724,1.16295 1.942367,1.52792 0.98974,0.32166 3.396046,0.50105 6.309598,-0.62478 3.259961,-1.26192 5.808544,-4.76931 5.060051,-7.70761 -0.748491,-2.98159 -5.697197,-3.96515 -10.379909,-2.30115 -2.783647,0.98975 -5.802355,2.54859 -7.9736,4.57756 -2.57951,2.41249 -2.98778,4.50951 -2.82076,5.3879 0.60003,3.11768 4.899216,5.14665 6.618893,6.64982 -0.0866,0.0495 -0.16702,0.0928 -0.235063,0.12991 -0.859838,0.42682 -4.138356,2.14031 -4.954892,3.95277 -0.927883,2.05372 0.148463,3.52596 0.859838,3.7239 2.208358,0.61241 4.478575,-0.48868 5.697196,-2.30733 1.218618,-1.81865 1.070155,-4.18166 0.50724,-5.26418 -0.0062,-0.0124 -0.01236,-0.0247 -0.02474,-0.0371 0.222694,-0.1299 0.451569,-0.26599 0.674264,-0.3959 0.439198,-0.2598 0.872207,-0.50105 1.243362,-0.699 -0.21032,0.57529 -0.364972,1.26192 -0.439198,2.25166 -0.09279,1.16295 0.383524,2.6723 1.008298,3.26615 0.278365,0.2598 0.606213,0.26599 0.816539,0.26599 0.729929,0 1.057783,-0.60622 1.422749,-1.32378 0.445383,-0.87839 0.847465,-1.89907 0.847465,-1.89907 0,0 -0.501057,2.75891 0.859838,2.75891 0.494869,0 0.995927,-0.64334 1.218619,-0.97119 0,0.006 0,0.006 0,0.006 0,0 0.01236,-0.0186 0.03712,-0.0619 0.04949,-0.0804 0.08042,-0.12991 0.08042,-0.12991 0,0 0,-0.006 0,-0.0124 0.197945,-0.34641 0.643332,-1.13202 1.305218,-2.43724 0.853652,-1.68256 1.676377,-3.78576 1.676377,-3.78576 0,0 0.07423,0.51343 0.32785,1.36708 0.148461,0.50106 0.457753,1.0516 0.705189,1.58359 -0.197948,0.27836 -0.321665,0.43301 -0.321665,0.43301 0,0 0,0 0.0062,0.006 -0.160833,0.21032 -0.33404,0.4392 -0.525802,0.66189 -0.674259,0.80416 -1.478423,1.72586 -1.589767,1.99185 -0.129905,0.31548 -0.09897,0.54436 0.14846,0.72994 0.179388,0.13609 0.501055,0.15464 0.828905,0.13609 0.606216,-0.0433 1.033045,-0.19177 1.243362,-0.28456 0.327856,-0.11753 0.711377,-0.29692 1.07016,-0.56291 0.66189,-0.48869 1.063972,-1.18769 1.026854,-2.10938 -0.01857,-0.50725 -0.185577,-1.01449 -0.38971,-1.4908 0.06186,-0.0866 0.117533,-0.17321 0.179392,-0.25981 1.045411,-1.52791 1.855764,-3.20429 1.855764,-3.20429 0,0 0.07423,0.51343 0.327851,1.36708 0.123719,0.43301 0.377338,0.90314 0.60003,1.3609 -0.983555,0.79797 -1.589771,1.72586 -1.806279,2.33207 -0.389708,1.12583 -0.0866,1.63307 0.488685,1.75061 0.259808,0.0557 0.63096,-0.068 0.90314,-0.18558 0.346408,-0.11134 0.754676,-0.30311 1.144389,-0.58766 0.661889,-0.48868 1.299032,-1.16913 1.261922,-2.09083 -0.01855,-0.42064 -0.129908,-0.83509 -0.284551,-1.23717 0.835093,-0.34641 1.911434,-0.53817 3.284701,-0.37734 2.944479,0.34641 3.525951,2.18361 3.414607,2.95685 -0.111348,0.77324 -0.729938,1.19388 -0.934072,1.32378 -0.204131,0.1299 -0.272174,0.1732 -0.253619,0.26599 0.02474,0.13609 0.123719,0.12991 0.296923,0.10516 0.241247,-0.0433 1.546471,-0.62477 1.602142,-2.04753 0.09279,-1.81864 -1.63926,-3.80431 -4.70127,-3.78575 z m -22.714557,7.65812 c -0.97737,1.06397 -2.338263,1.46606 -2.925921,1.12584 -0.63096,-0.36497 -0.383524,-1.93619 0.816536,-3.06202 0.729933,-0.68663 1.670188,-1.32378 2.294964,-1.71349 0.142272,-0.0866 0.352594,-0.21032 0.606216,-0.36496 0.0433,-0.0247 0.06804,-0.0371 0.06804,-0.0371 v 0 c 0.04949,-0.0309 0.09897,-0.0618 0.14846,-0.0928 0.439198,1.60833 0.01857,3.0249 -1.008298,4.14454 z m 7.113763,-4.83736 c -0.340223,0.82891 -1.0516,2.95067 -1.484609,2.83314 -0.371155,-0.099 -0.60003,-1.7073 -0.07423,-3.29708 0.265991,-0.79798 0.828908,-1.7506 1.156759,-2.12175 0.531987,-0.59385 1.119645,-0.7918 1.261919,-0.55055 0.179393,0.31548 -0.649515,2.61663 -0.859837,3.13624 z m 5.8704,2.80839 c -0.142274,0.0742 -0.278362,0.12372 -0.340222,0.0866 -0.0433,-0.0247 0.06186,-0.12372 0.06186,-0.12372 0,0 0.736118,-0.79179 1.026855,-1.15057 0.167019,-0.21032 0.364967,-0.45776 0.575289,-0.73612 0,0.0247 0,0.0557 0,0.0804 0,0.94644 -0.915511,1.58359 -1.323782,1.84339 z m 4.528066,-1.03304 c -0.105158,-0.0742 -0.0866,-0.32166 0.265994,-1.0949 0.136088,-0.30311 0.457756,-0.81035 1.008298,-1.29903 0.06186,0.19795 0.105161,0.3897 0.09897,0.5691 -0.0062,1.19387 -0.859838,1.63926 -1.373265,1.82483 z" style="fill:#e97cc8"/>
  <path d="m 33.690331,233.28165 v 59.26667 h 12.985253 c 9.338924,0 10.055122,-0.96217 10.298081,-10.31695 v -19.31639 -19.31639 c 0,-9.35792 -0.959157,-10.31694 -10.298081,-10.31694 z" style="opacity:0.1;fill:#ffffff"/>
  <path d="m 10.406998,262.91498 v 19.31639 c -0.04577,9.35782 0.959156,10.31695 10.29808,10.31695 h 25.970506 c 9.338924,0 10.055122,-0.96217 10.298081,-10.31695 v -19.31639 z" style="opacity:0.2;fill:#ffffff"/>
  <path d="m 41.098665,292.54832 15.875,-15.875 v 5.94886 c -0.01384,8.99472 -1.006126,9.92614 -10.100231,9.92614 z" style="opacity:0.4;fill:#ffffff"/>
 </g>
</svg>
