<svg xmlns="http://www.w3.org/2000/svg" xmlns:xlink="http://www.w3.org/1999/xlink" width="256" height="256" version="1.1" viewBox="0 0 67.73 67.73">
 <defs>
  <linearGradient id="linearGradient4226" x1="529.655" x2="-35.31" y1="401.584" y2="119.093" gradientTransform="matrix(0,-0.11988932,0.11988589,0,0.36278005,292.5483)" gradientUnits="userSpaceOnUse" xlink:href="#linearGradient4338"/>
  <linearGradient id="linearGradient4338">
   <stop offset="0" style="stop-color:#f2f2f2"/>
   <stop offset="1" style="stop-color:#f9f9f9"/>
  </linearGradient>
  <linearGradient id="linearGradient4358" x1="88" x2="488" y1="88" y2="488" gradientUnits="userSpaceOnUse" xlink:href="#linearGradient4360"/>
  <linearGradient id="linearGradient4360">
   <stop style="stop-color:#000000;stop-opacity:0.58823532" offset="0"/>
   <stop offset=".88" style="stop-color:#000000;stop-opacity:0"/>
   <stop style="stop-color:#000000" offset="1"/>
  </linearGradient>
  <filter id="filter4346" width="1.026" height="1.022" x="-.01" y="-.01" style="color-interpolation-filters:sRGB">
   <feGaussianBlur stdDeviation="2.12"/>
  </filter>
 </defs>
 <g transform="translate(0,-229.26665)">
  <path style="opacity:0.2;fill:none;stroke:#000000;stroke-width:1.05833328" d="m 20.705011,233.28164 c -9.338925,0 -10.343783,0.95922 -10.298013,10.31704 v 19.31629 19.3163 c -0.04577,9.35781 0.959088,10.31704 10.298013,10.31704 h 25.970643 c 9.338924,0 10.298012,-0.95912 10.298012,-10.31704 v -19.3163 -19.31629 c 0,-9.35793 -0.959088,-10.31704 -10.298012,-10.31704 z"/>
  <path d="M 189.84323,74 C 119.24979,74 111.65402,81.250835 112,151.98706 V 298 444.01294 C 111.65402,514.74917 119.24979,522 189.84323,522 H 386.15677 C 456.75021,522 462.16345,514.72616 464,444.01294 V 298 151.98706 C 464,81.249993 456.75021,74 386.15677,74 Z" transform="matrix(0.13229167,0,0,0.13229167,-4.4096684,223.75664)" style="opacity:0.1;filter:url(#filter4346)"/>
  <path style="opacity:0.3;fill:url(#linearGradient4358);filter:url(#filter4380)" d="M 189.84323,74 C 119.24979,74 111.65402,81.250835 112,151.98706 V 298 444.01294 C 111.65402,514.74917 119.24979,522 189.84323,522 H 386.15677 C 456.75021,522 464,514.75001 464,444.01294 V 298 151.98706 C 464,81.249993 456.75021,74 386.15677,74 Z" transform="matrix(0.13229167,0,0,0.13229167,-4.4096684,223.75664)"/>
  <path d="m 20.705011,233.28164 c -9.338925,0 -10.343783,0.95922 -10.298013,10.31704 v 19.31629 19.05171 c -0.04577,9.35782 0.959572,10.2219 10.298013,10.31704 l 25.970643,0.26459 c 9.33844,0.0951 10.298012,-0.95912 10.298012,-10.31704 v -19.3163 -19.31629 c 0,-9.35793 -0.959088,-10.31704 -10.298012,-10.31704 z" style="fill:url(#linearGradient4226)"/>
  <path d="m 20.705079,233.28164 c -9.338926,0 -10.343851,0.95939 -10.298081,10.3172 v 0.52916 c -0.04577,-9.35781 0.959155,-10.3172 10.298081,-10.3172 h 25.970506 c 9.338927,0 10.298081,0.95928 10.298081,10.3172 v -0.52916 c 0,-9.35793 -0.959154,-10.3172 -10.298081,-10.3172 z" style="opacity:0.6;fill:#ffffff"/>
  <path d="m 19.931999,248.10104 v 2.11667 h 1.5875 c 0.734713,0 1.334375,-0.0487 1.918229,0.13849 0.583853,0.18722 1.054018,0.69872 1.29346,1.46193 0.478875,1.52642 0.49012,4.27394 0.491443,10.05417 -7.94e-4,2.19993 -0.01463,3.85615 -0.04703,5.27874 h 0.02429 l -0.0083,0.53744 c -0.03551,2.24909 -0.100706,4.52989 -0.22996,5.31389 -0.129257,0.784 -0.396356,1.19655 -0.648023,1.48673 -0.283509,0.32688 -0.617495,0.61764 -1.064535,0.80822 -0.447042,0.19057 -0.981958,0.28457 -1.703771,0.31987 -0.745445,0.0365 -1.235723,0.0114 -1.613339,0 v 2.11719 H 34.74863 v -2.11719 c -0.386035,0.009 -0.899782,0.03 -1.60972,0 -1.32021,-0.0558 -2.078064,-0.45852 -2.663404,-1.04386 -0.393875,-0.39388 -0.668499,-0.92847 -0.803569,-1.77405 -0.135083,-0.84558 -0.182584,-3.11245 -0.214987,-5.11029 v -0.005 -1.06247 -2.64583 h 1.5875 c 2.167958,0 3.944988,0.47866 4.959903,1.79886 l 0.03514,0.046 0.02479,0.0527 c 0.693621,1.48575 0.765069,3.06614 0.777213,4.45244 h 0.817534 1.322916 v -7.67292 -0.26458 -5.82084 H 37.65903 36.864764 l -0.0011,0.61134 c -0.0011,1.63206 -0.59019,2.88092 -1.643311,3.64009 -1.053095,0.75916 -2.571957,1.57491 -4.175948,1.04024 h -1.5875 v -4.7625 -3.175 -3.70417 h 4.7625 c 4.20165,0 5.997401,-0.0304 7.147883,0.64183 l 0.04548,0.0269 0.03979,0.0351 c 1.352603,1.20665 2.082769,2.50042 2.44533,3.8778 0.320619,1.21804 0.357134,2.5066 0.363802,3.88503 h 2.128552 v -10.58333 z" style="fill:#aea795"/>
  <path d="m 33.690332,233.28164 v 59.26667 h 12.985253 c 9.338924,0 10.055122,-0.96217 10.298081,-10.31695 v -19.31639 -19.31639 c 0,-9.35792 -0.959157,-10.31694 -10.298081,-10.31694 z" style="opacity:0.1;fill:#ffffff"/>
  <path d="m 10.406998,262.91497 v 19.31639 c -0.04577,9.35782 0.959156,10.31695 10.298081,10.31695 h 25.970506 c 9.338924,0 10.055122,-0.96217 10.298081,-10.31695 v -19.31639 z" style="opacity:0.2;fill:#ffffff"/>
  <path d="m 41.098666,292.54831 15.875,-15.875 v 5.94886 c -0.01384,8.99472 -1.006126,9.92614 -10.100231,9.92614 z" style="opacity:0.4;fill:#ffffff"/>
 </g>
</svg>
