<svg xmlns="http://www.w3.org/2000/svg" xmlns:xlink="http://www.w3.org/1999/xlink" width="256" height="256" version="1.1" viewBox="0 0 67.73 67.73">
 <defs>
  <linearGradient id="linearGradient4226" x1="529.655" x2="-35.31" y1="401.584" y2="119.093" gradientTransform="matrix(0,-0.11988932,0.11988589,0,0.36278005,292.5483)" gradientUnits="userSpaceOnUse" xlink:href="#linearGradient4338"/>
  <linearGradient id="linearGradient4338">
   <stop offset="0" style="stop-color:#f2f2f2"/>
   <stop offset="1" style="stop-color:#f9f9f9"/>
  </linearGradient>
  <linearGradient id="linearGradient4358" x1="88" x2="488" y1="88" y2="488" gradientUnits="userSpaceOnUse" xlink:href="#linearGradient4360"/>
  <linearGradient id="linearGradient4360">
   <stop style="stop-color:#000000;stop-opacity:0.58823532" offset="0"/>
   <stop offset=".88" style="stop-color:#000000;stop-opacity:0"/>
   <stop style="stop-color:#000000" offset="1"/>
  </linearGradient>
  <filter id="filter4346" width="1.026" height="1.022" x="-.01" y="-.01" style="color-interpolation-filters:sRGB">
   <feGaussianBlur stdDeviation="2.12"/>
  </filter>
 </defs>
 <g transform="translate(0,-229.26665)">
  <path style="opacity:0.2;fill:none;stroke:#000000;stroke-width:1.05833328" d="m 20.70501,233.28164 c -9.338924,0 -10.343782,0.95922 -10.298012,10.31704 v 19.31629 19.3163 c -0.04577,9.35781 0.959088,10.31704 10.298012,10.31704 h 25.970643 c 9.338924,0 10.298012,-0.95912 10.298012,-10.31704 v -19.3163 -19.31629 c 0,-9.35793 -0.959088,-10.31704 -10.298012,-10.31704 z"/>
  <path d="M 189.84323,74 C 119.24979,74 111.65402,81.250835 112,151.98706 V 298 444.01294 C 111.65402,514.74917 119.24979,522 189.84323,522 H 386.15677 C 456.75021,522 462.16345,514.72616 464,444.01294 V 298 151.98706 C 464,81.249993 456.75021,74 386.15677,74 Z" transform="matrix(0.13229167,0,0,0.13229167,-4.4096684,223.75664)" style="opacity:0.1;filter:url(#filter4346)"/>
  <path style="opacity:0.3;fill:url(#linearGradient4358);filter:url(#filter4380)" d="M 189.84323,74 C 119.24979,74 111.65402,81.250835 112,151.98706 V 298 444.01294 C 111.65402,514.74917 119.24979,522 189.84323,522 H 386.15677 C 456.75021,522 464,514.75001 464,444.01294 V 298 151.98706 C 464,81.249993 456.75021,74 386.15677,74 Z" transform="matrix(0.13229167,0,0,0.13229167,-4.4096684,223.75664)"/>
  <path d="m 20.70501,233.28164 c -9.338924,0 -10.343782,0.95922 -10.298012,10.31704 v 19.31629 19.3163 c -0.04577,9.35781 0.959088,10.31704 10.298012,10.31704 h 25.970643 c 9.338924,0 10.298012,-0.95912 10.298012,-10.31704 v -19.3163 -19.31629 c 0,-9.35793 -0.959088,-10.31704 -10.298012,-10.31704 z" style="fill:url(#linearGradient4226)"/>
  <path d="m 20.705078,233.28164 c -9.338925,0 -10.34385,0.95939 -10.29808,10.3172 v 0.52916 c -0.04577,-9.35781 0.959155,-10.3172 10.29808,-10.3172 h 25.970506 c 9.338927,0 10.298081,0.95928 10.298081,10.3172 v -0.52916 c 0,-9.35793 -0.959154,-10.3172 -10.298081,-10.3172 z" style="opacity:0.6;fill:#ffffff"/>
  <g style="font-size:35px;line-height:125%;font-family:Lobster;text-align:center;letter-spacing:0px;word-spacing:0px;text-anchor:middle;fill:#7839b7" transform="matrix(1.0885714,0,0,1.0885714,-0.05617775,228.34527)">
   <path style="fill:#7839b7" d="M 28.137527,45.125 27.573563,21.216309 q -2.460938,0.922851 -3.845215,2.888183 -1.367188,1.965332 -1.367188,4.887695 0,0.666504 0.06836,1.09375 0.08545,0.410157 0.170898,0.666504 0.08545,0.239258 0.153809,0.375977 0.08545,0.136719 0.08545,0.239258 -0.905762,0 -1.606445,-0.170899 -0.700684,-0.187988 -1.1792,-0.581054 Q 19.592606,30.222656 19.336258,29.573242 19.097,28.923828 19.097,27.966797 q 0,-1.16211 0.495606,-2.290039 0.512695,-1.12793 1.384277,-2.136231 0.888672,-1.0083 2.067871,-1.862793 1.196289,-0.854492 2.546387,-1.469726 1.367187,-0.632324 2.836914,-0.974121 1.486816,-0.358887 2.956543,-0.358887 0.393066,0 0.717773,0.01709 0.341797,0.01709 0.683594,0.05127 l 0.307617,21.533203 7.365723,-21.430664 h 2.443847 l -9.724121,26.079102 z"/>
  </g>
  <path d="m 33.690331,233.28164 v 59.26667 h 12.985253 c 9.338924,0 10.055122,-0.96217 10.298081,-10.31695 v -19.31639 -19.31639 c 0,-9.35792 -0.959157,-10.31694 -10.298081,-10.31694 z" style="opacity:0.1;fill:#ffffff"/>
  <path d="m 10.406998,262.91497 v 19.31639 c -0.04577,9.35782 0.959156,10.31695 10.29808,10.31695 h 25.970506 c 9.338924,0 10.055122,-0.96217 10.298081,-10.31695 v -19.31639 z" style="opacity:0.2;fill:#ffffff"/>
  <path d="m 41.098665,292.54831 15.875,-15.875 v 5.94886 c -0.01384,8.99472 -1.006126,9.92614 -10.100231,9.92614 z" style="opacity:0.4;fill:#ffffff"/>
 </g>
</svg>
