<svg xmlns="http://www.w3.org/2000/svg" xmlns:xlink="http://www.w3.org/1999/xlink" width="256" height="256" version="1.1" viewBox="0 0 67.73 67.73">
 <defs>
  <linearGradient id="linearGradient4226" x1="529.655" x2="-35.31" y1="401.584" y2="119.093" gradientTransform="matrix(0,-0.11988932,0.11988589,0,0.36277965,292.5483)" gradientUnits="userSpaceOnUse" xlink:href="#linearGradient4338"/>
  <linearGradient id="linearGradient4338">
   <stop offset="0" style="stop-color:#f2f2f2"/>
   <stop offset="1" style="stop-color:#f9f9f9"/>
  </linearGradient>
  <linearGradient id="linearGradient4358" x1="88" x2="488" y1="88" y2="488" gradientUnits="userSpaceOnUse" xlink:href="#linearGradient4360"/>
  <linearGradient id="linearGradient4360">
   <stop style="stop-color:#000000;stop-opacity:0.58823532" offset="0"/>
   <stop offset=".88" style="stop-color:#000000;stop-opacity:0"/>
   <stop style="stop-color:#000000" offset="1"/>
  </linearGradient>
  <filter id="filter4346" width="1.026" height="1.022" x="-.01" y="-.01" style="color-interpolation-filters:sRGB">
   <feGaussianBlur stdDeviation="2.12"/>
  </filter>
 </defs>
 <g transform="translate(0,-229.26665)">
  <path style="opacity:0.2;fill:none;stroke:#000000;stroke-width:1.05833328" d="m 20.70501,233.28164 c -9.338925,0 -10.343782,0.95922 -10.298012,10.31704 v 19.31629 19.3163 c -0.04577,9.35781 0.959087,10.31704 10.298012,10.31704 h 25.970644 c 9.338924,0 10.298012,-0.95912 10.298012,-10.31704 v -19.3163 -19.31629 c 0,-9.35793 -0.959088,-10.31704 -10.298012,-10.31704 z"/>
  <path d="M 189.84323,74 C 119.24979,74 111.65402,81.250835 112,151.98706 V 298 444.01294 C 111.65402,514.74917 119.24979,522 189.84323,522 H 386.15677 C 456.75021,522 462.16345,514.72616 464,444.01294 V 298 151.98706 C 464,81.249993 456.75021,74 386.15677,74 Z" transform="matrix(0.13229167,0,0,0.13229167,-4.4096684,223.75664)" style="opacity:0.1;filter:url(#filter4346)"/>
  <path style="opacity:0.3;fill:url(#linearGradient4358);filter:url(#filter4380)" d="M 189.84323,74 C 119.24979,74 111.65402,81.250835 112,151.98706 V 298 444.01294 C 111.65402,514.74917 119.24979,522 189.84323,522 H 386.15677 C 456.75021,522 464,514.75001 464,444.01294 V 298 151.98706 C 464,81.249993 456.75021,74 386.15677,74 Z" transform="matrix(0.13229167,0,0,0.13229167,-4.4096684,223.75664)"/>
  <path d="m 20.70501,233.28164 c -9.338925,0 -10.343782,0.95922 -10.298012,10.31704 v 19.31629 19.3163 c -0.04577,9.35781 0.959087,10.31704 10.298012,10.31704 h 25.970644 c 9.338924,0 10.298012,-0.95912 10.298012,-10.31704 v -19.3163 -19.31629 c 0,-9.35793 -0.959088,-10.31704 -10.298012,-10.31704 z" style="fill:url(#linearGradient4226)"/>
  <path d="m 20.705078,233.28164 c -9.338925,0 -10.34385,0.95939 -10.29808,10.3172 v 0.52916 c -0.04577,-9.35781 0.959155,-10.3172 10.29808,-10.3172 h 25.970507 c 9.338927,0 10.298081,0.95928 10.298081,10.3172 v -0.52916 c 0,-9.35793 -0.959154,-10.3172 -10.298081,-10.3172 z" style="opacity:0.6;fill:#ffffff"/>
  <path d="m 33.028158,249.68581 c -1.175924,0 -2.254037,0.13456 -3.233975,0.40405 -0.955442,0.26947 -1.690179,0.55125 -2.204646,0.84522 l 0.697954,1.98438 c 1.347415,-0.73495 2.841859,-1.10232 4.483254,-1.10232 0.587964,0 1.1515,0.049 1.690466,0.14695 0.538966,0.098 1.004581,0.28184 1.396555,0.55133 0.416473,0.26948 0.747202,0.63684 0.992188,1.10232 0.244984,0.44097 0.367225,1.0045 0.367225,1.69046 0,0.75945 -0.146882,1.44523 -0.440864,2.0577 -0.293979,0.58796 -0.66135,1.1515 -1.102324,1.69046 -0.44097,0.51447 -0.918905,1.02904 -1.433374,1.54351 -0.514468,0.48997 -0.99208,1.01654 -1.433052,1.58001 -0.440972,0.56346 -0.808343,1.17596 -1.102324,1.83742 -0.29398,0.63696 -0.441187,1.37202 -0.441187,2.20496 0,0.29399 0.01231,0.58775 0.03682,0.88173 0.0245,0.26949 0.06114,0.52694 0.110136,0.77192 h 1.91106 c -0.0245,-0.12249 -0.03682,-0.24505 -0.03682,-0.36755 v -0.62464 c 0,-0.80844 0.159205,-1.5435 0.477684,-2.20496 0.31848,-0.66146 0.722813,-1.27396 1.212783,-1.83743 0.489968,-0.58795 1.004544,-1.1515 1.543509,-1.69046 0.563465,-0.53897 1.090039,-1.10218 1.580008,-1.69014 0.489969,-0.58797 0.8943,-1.2251 1.212779,-1.91106 0.31848,-0.68595 0.477686,-1.46998 0.477686,-2.35193 0,-0.63695 -0.110243,-1.28609 -0.330729,-1.94755 -0.220486,-0.66146 -0.58818,-1.24931 -1.102646,-1.76378 -0.51447,-0.53896 -1.212568,-0.96762 -2.094512,-1.2861 -0.857447,-0.34298 -1.935232,-0.5145 -3.233654,-0.5145 z m -0.477683,22.41594 c -0.636961,0 -1.139214,0.19617 -1.506692,0.58815 -0.342978,0.39197 -0.514503,0.86958 -0.514503,1.43305 0,0.56346 0.171525,1.04107 0.514503,1.43305 0.367478,0.39197 0.869731,0.58814 1.506692,0.58814 0.636958,0 1.126893,-0.19617 1.46987,-0.58814 0.367479,-0.39198 0.551001,-0.86959 0.551001,-1.43305 0,-0.56347 -0.183522,-1.04108 -0.551001,-1.43305 -0.342977,-0.39198 -0.832912,-0.58815 -1.46987,-0.58815 z" style="opacity:0.5;fill:#808080"/>
  <path d="m 33.690332,233.28164 v 59.26667 h 12.985253 c 9.338924,0 10.055122,-0.96217 10.298081,-10.31695 v -19.31639 -19.31639 c 0,-9.35792 -0.959157,-10.31694 -10.298081,-10.31694 z" style="opacity:0.1;fill:#ffffff"/>
  <path d="m 10.406998,262.91497 v 19.31639 c -0.04577,9.35782 0.959155,10.31695 10.29808,10.31695 h 25.970507 c 9.338924,0 10.055122,-0.96217 10.298081,-10.31695 v -19.31639 z" style="opacity:0.2;fill:#ffffff"/>
  <path d="m 41.098666,292.54831 15.875,-15.875 v 5.94886 c -0.01384,8.99472 -1.006126,9.92614 -10.100231,9.92614 z" style="opacity:0.4;fill:#ffffff"/>
 </g>
</svg>
