<svg xmlns="http://www.w3.org/2000/svg" xmlns:xlink="http://www.w3.org/1999/xlink" width="256" height="256" version="1.1" viewBox="0 0 67.73 67.73">
 <defs>
  <clipPath id="clipPath1101" clipPathUnits="userSpaceOnUse">
   <path d="m 39.9973,106.92432 c 0,-35.29673 3.625418,-39.09461 38.99353,-38.92162 h 73.00647 73.00647 c 35.36812,-0.17299 38.99353,3.62489 38.99353,38.92162 v 98.15676 c 0,35.29672 -3.625,38.92162 -38.99353,38.92162 H 151.9973 78.99083 c -35.368533,0 -38.99353,-3.6249 -38.99353,-38.92162 z" style="fill:url(#linearGradient1105)"/>
  </clipPath>
  <linearGradient id="linearGradient4226" x1="529.655" x2="-35.31" y1="401.584" y2="119.093" gradientTransform="matrix(0.11988932,0,0,0.11988589,4.1870906,232.36478)" gradientUnits="userSpaceOnUse" xlink:href="#linearGradient4338-3-3"/>
  <linearGradient id="linearGradient4338-3-3">
   <stop offset="0" style="stop-color:#331d3b"/>
   <stop offset="1" style="stop-color:#281d2c"/>
  </linearGradient>
  <linearGradient id="linearGradient4358" x1="88" x2="488" y1="88" y2="488" gradientUnits="userSpaceOnUse" xlink:href="#linearGradient4360"/>
  <linearGradient id="linearGradient4360">
   <stop offset="0" style="stop-color:#000000;stop-opacity:0.58823532"/>
   <stop style="stop-color:#000000;stop-opacity:0" offset=".88"/>
   <stop offset="1" style="stop-color:#000000"/>
  </linearGradient>
  <filter style="color-interpolation-filters:sRGB" id="filter4346" width="1.026" height="1.022" x="-.01" y="-.01">
   <feGaussianBlur stdDeviation="2.12"/>
  </filter>
 </defs>
 <g transform="translate(0,-229.26665)">
  <path style="opacity:0.1;filter:url(#filter4346)" d="M 189.84323,74 C 119.24979,74 111.65402,81.250835 112,151.98706 V 298 444.01294 C 111.65402,514.74917 119.24979,522 189.84323,522 H 386.15677 C 456.75021,522 462.16345,514.72616 464,444.01294 V 298 151.98706 C 464,81.249993 456.75021,74 386.15677,74 Z" transform="matrix(0,-0.13229167,0.13229167,0,-5.6024919,304.05549)"/>
  <path d="M 189.84323,74 C 119.24979,74 111.65402,81.250835 112,151.98706 V 298 444.01294 C 111.65402,514.74917 119.24979,522 189.84323,522 H 386.15677 C 456.75021,522 464,514.75001 464,444.01294 V 298 151.98706 C 464,81.249993 456.75021,74 386.15677,74 Z" transform="matrix(0,-0.13229167,0.13229167,0,-5.6024919,304.05549)" style="opacity:0.3;fill:url(#linearGradient4358);filter:url(#filter4380)"/>
  <path style="fill:url(#linearGradient4226)" d="m 63.453758,252.70701 c 0,-9.33893 -0.959226,-10.34378 -10.317038,-10.29801 H 33.820425 14.504129 C 5.1463137,242.3632 4.1870907,243.36808 4.1870907,252.70701 v 25.97064 c 0,9.33893 0.9591145,10.29802 10.3170383,10.29802 H 33.820425 53.13672 c 9.357923,0 10.317038,-0.95909 10.317038,-10.29802 z"/>
  <path d="m 23.237886,252.99162 v 25.4 c 0,0 12.037194,-5.20675 22.56388,-12.70802 0,-0.002 -0.0013,-0.004 -0.0027,-0.007 -0.0013,-0.003 -0.0027,-0.006 -0.0047,-0.008 -0.0021,-0.003 -0.004,-0.006 -0.0054,-0.008 -0.0019,-0.003 -0.0027,-0.006 -0.0027,-0.008 -11.10361,-7.74051 -22.548431,-12.66049 -22.548431,-12.66049 z" style="opacity:0.6;fill:#ffffff"/>
  <path style="opacity:0.1;fill:#ffffff" d="m 31.997302,68.0027 v 16 h 24 v -16 z m 215.999998,0 v 16 h 24 v -16 z m -215.999998,24 v 16 h 24 v -16 z m 215.999998,0 v 16 h 24 v -16 z m -215.999998,24 v 16 h 24 v -16 z m 215.999998,0 v 16 h 24 v -16 z m -215.999998,24 v 16 h 24 v -16 z m 215.999998,0 v 16 h 24 v -16 z m -215.999998,24 v 16 h 24 v -16 z m 215.999998,0 v 16 h 24 v -16 z m -215.999998,24 v 16 h 24 v -16 z m 215.999998,0 v 16 h 24 v -16 z m -215.999998,24 v 16 h 24 v -16 z m 215.999998,0 v 16 h 24 v -16 z m -215.999998,24 v 16 h 24 v -16 z m 215.999998,0 v 16 h 24 v -16 z" clip-path="url(#clipPath1101)" transform="matrix(0.26458333,0,0,0.26458333,-6.3955279,224.41662)"/>
  <path style="opacity:0.03999999;fill:#ffffff" d="M 4.1870907,265.69233 H 63.453758 v 12.98525 c 0,9.33893 -0.962171,10.05513 -10.316943,10.29809 H 33.820425 14.504033 c -9.3579254,0 -10.3169423,-0.95916 -10.3169423,-10.29809 z"/>
  <path style="opacity:0.03999999;fill:#ffffff" d="m 33.820425,242.409 h 19.31639 c 9.357815,-0.0458 10.316943,0.95915 10.316943,10.29808 v 25.9705 c 0,9.33893 -0.962171,10.05513 -10.316943,10.29809 h -19.31639 z"/>
  <path style="opacity:0.2;fill:#ffffff" d="M 14.503972,242.4088 C 5.1461581,242.363 4.1872883,243.36795 4.1872883,252.70688 v 0.52917 c 0,-9.33893 0.9588698,-10.34385 10.3166837,-10.29808 h 19.316651 19.316134 c 9.357815,-0.0458 10.317199,0.95915 10.317199,10.29808 v -0.52917 c 0,-9.33893 -0.959384,-10.34385 -10.317199,-10.29808 H 33.820623 Z"/>
  <path style="opacity:0.2" d="m 4.1872883,278.14874 v 0.52916 c 0,9.33893 0.9587585,10.29757 10.3166837,10.29757 h 19.316651 19.316134 c 9.357923,0 10.317199,-0.95864 10.317199,-10.29757 v -0.52916 c 0,9.33892 -0.959276,10.29756 -10.317199,10.29756 H 33.820623 14.503972 c -9.3579252,0 -10.3166837,-0.95864 -10.3166837,-10.29756 z"/>
 </g>
</svg>
