<!-- Created with Inkscape (http://www.inkscape.org/) -->
<svg width="16" height="16" version="1.1" xmlns="http://www.w3.org/2000/svg">
 <g transform="translate(-31.97559,-220.36218)">
  <path transform="matrix(.49737385 -.91547058 .91547058 .49737385 35.89359 232.91345)" d="m8.0244098 6.00002a3 3 0 1 1-6 0 3 3 0 1 1 6 0z" style="fill:#bebebe;opacity:.25"/>
  <path transform="matrix(.49737385 -.91547058 .91547058 .49737385 28.176238 232.91607)" d="m8.0244098 6.00002a3 3 0 1 1-6 0 3 3 0 1 1 6 0z" style="fill:#bebebe;opacity:.5"/>
  <path transform="matrix(.49737385 -.91547058 .91547058 .49737385 32.094699 226.09141)" d="m8.0244098 6.00002a3 3 0 1 1-6 0 3 3 0 1 1 6 0z" style="fill:#bebebe;opacity:.75"/>
 </g>
</svg>
