<!-- Created with Inkscape (http://www.inkscape.org/) -->
<svg width="16" height="16" version="1.1" xmlns="http://www.w3.org/2000/svg" xmlns:xlink="http://www.w3.org/1999/xlink">
 <g transform="translate(-31.97559,-220.36218)">
  <path d="m36 222.36526v11.99131h-1v-11.99131" style="fill:#bebebe;opacity:.82999998"/>
  <path d="m37 222.36526v11.99131h-1v-11.99131" style="fill:#bebebe;opacity:.73999999"/>
  <path d="m37 222.36526h1v11.99131h-1" style="fill:#bebebe;opacity:.65"/>
  <path d="m38 222.36526h1v11.99131h-1" style="fill:#bebebe;opacity:.56999966"/>
  <path d="m39 222.36526h1v11.99131h-1" style="fill:#bebebe;opacity:.49000005"/>
  <path d="m40 222.36526h1v11.99131h-1" style="fill:#bebebe;opacity:.4"/>
  <path d="m41 222.36526h1v11.99131h-1" style="fill:#bebebe;opacity:.32000002"/>
  <path d="m42 222.36526h1v11.99131h-1" style="fill:#bebebe;opacity:.23999999"/>
  <path d="m43 222.36526h1v11.99131h-1" style="fill:#bebebe;opacity:.16000001"/>
  <path d="m44 222.36526h1v11.99131h-1.000004" style="fill:#bebebe;opacity:.07000002"/>
  <path d="m35.003906 222.3622v11.99437h-1v-11.99437" style="fill:#bebebe;opacity:.93999999"/>
  <path d="m32.003906 220.36523v0.5 15.4961h15.996094v-15.9961h-15.996094zm1 1h13.996094v13.9961h-13.996094v-13.9961z" style="fill:#bebebe;opacity:.7"/>
 </g>
</svg>
