<?xml version="1.0" encoding="UTF-8" standalone="no"?>
<svg
   xmlns:dc="http://purl.org/dc/elements/1.1/"
   xmlns:cc="http://creativecommons.org/ns#"
   xmlns:rdf="http://www.w3.org/1999/02/22-rdf-syntax-ns#"
   xmlns:svg="http://www.w3.org/2000/svg"
   xmlns="http://www.w3.org/2000/svg"
   xmlns:sodipodi="http://sodipodi.sourceforge.net/DTD/sodipodi-0.dtd"
   xmlns:inkscape="http://www.inkscape.org/namespaces/inkscape"
   width="16"
   height="16"
   version="1.1"
   id="svg8"
   sodipodi:docname="view-reveal-symbolic.svg"
   inkscape:version="0.92.4 (5da689c313, 2019-01-14)">
  <metadata
     id="metadata14">
    <rdf:RDF>
      <cc:Work
         rdf:about="">
        <dc:format>image/svg+xml</dc:format>
        <dc:type
           rdf:resource="http://purl.org/dc/dcmitype/StillImage" />
        <dc:title></dc:title>
      </cc:Work>
    </rdf:RDF>
  </metadata>
  <defs
     id="defs12" />
  <sodipodi:namedview
     pagecolor="#ffffff"
     bordercolor="#666666"
     borderopacity="1"
     objecttolerance="10"
     gridtolerance="10"
     guidetolerance="10"
     inkscape:pageopacity="0"
     inkscape:pageshadow="2"
     inkscape:window-width="1920"
     inkscape:window-height="1016"
     id="namedview10"
     showgrid="false"
     inkscape:zoom="56.240783"
     inkscape:cx="8.0005"
     inkscape:cy="8"
     inkscape:window-x="0"
     inkscape:window-y="27"
     inkscape:window-maximized="1"
     inkscape:current-layer="g6" />
  <g
     fill="#666"
     transform="translate(-717 -89)"
     id="g6">
    <path
       d="m 725,92 c -0.1508,0.0018 -0.30137,0.01217 -0.451,0.031 -1.37131,0.07052 -2.70479,0.474166 -3.885,1.176 l -0.023,0.016 0.82,0.82 c 0.0286,-0.0157 0.0566,-0.03238 0.084,-0.05 -0.0154,0.02948 -0.0304,0.05915 -0.045,0.089 l 1.139,1.139 c 0.33502,-1.021697 1.2858,-1.714743 2.361,-1.721 0.66667,0 0.66667,1 0,1 -0.834,0 -1.5,0.666 -1.5,1.5 -6e-5,0.02545 -0.002,0.05086 -0.006,0.076 l 3.43,3.43 c 1.27997,-0.702236 2.07568,-2.046049 2.076,-3.506 -0.002,-0.705873 -0.19069,-1.398656 -0.547,-2.008 1.282,0.677 2.355,1.676 3.213,3.008 -0.73564,1.153233 -1.72561,2.12268 -2.894,2.834 -0.33,0.2 -0.669,0.363 -1.014,0.506 l 0.834,0.834 c 0.25,-0.118 0.5,-0.234 0.744,-0.377 1.3409,-0.77383 2.46491,-1.873419 3.268,-3.197 0.115,-0.203 0.174,-0.403 0.174,-0.6 0,-0.197 -0.059,-0.397 -0.174,-0.6 -0.80567,-1.320479 -1.92917,-2.418196 -3.268,-3.193 -1.1701,-0.695584 -2.49087,-1.098332 -3.85,-1.174 C 725.32482,92.012137 725.16252,92.001116 725,92 Z m -4.359,1.223 c -1.26145,0.673342 -2.69271,2.246559 -3.244,3.177 -0.10978,0.181207 -0.1698,0.388174 -0.174,0.6 0,0.197 0.058,0.397 0.174,0.6 0.80539,1.320357 1.92854,2.41806 3.267,3.193 1.369,0.804 2.814,1.207 4.336,1.207 0.776,0 2.92712,-0.47575 3.592,-0.826 l -0.834,-0.834 c -0.64837,0.31115 -2.3,0.549 -2.758,0.549 -1.33071,0.006 -2.63675,-0.35908 -3.771,-1.055 -1.16875,-0.711199 -2.15908,-1.680655 -2.895,-2.834 0.54395,-0.850819 2.33133,-2.335165 3.127,-2.957 z m 0.398,2.234 c -0.0253,0.179904 -0.0384,0.361324 -0.039,0.543 0,2.209139 1.79086,4 4,4 0.18105,-0.0014 0.0602,-0.01027 0.541,-0.041 0.48077,-0.03073 1.383,-0.453 1.383,-0.453 L 721.5,94.082 Z"
       id="path2"
       style="fill:#808080;fill-opacity:1"
       inkscape:connector-curvature="0"
       sodipodi:nodetypes="cccccccccscccccccccccscccccccccscccccccccczccc" />
  </g>
</svg>
