<?xml version="1.0" encoding="UTF-8" standalone="no"?>
<svg
   xmlns:dc="http://purl.org/dc/elements/1.1/"
   xmlns:cc="http://creativecommons.org/ns#"
   xmlns:rdf="http://www.w3.org/1999/02/22-rdf-syntax-ns#"
   xmlns:svg="http://www.w3.org/2000/svg"
   xmlns="http://www.w3.org/2000/svg"
   xmlns:sodipodi="http://sodipodi.sourceforge.net/DTD/sodipodi-0.dtd"
   xmlns:inkscape="http://www.inkscape.org/namespaces/inkscape"
   width="256"
   height="256"
   version="1.1"
   viewBox="0 0 67.73 67.73"
   id="svg47"
   sodipodi:docname="calculator.svg"
   inkscape:version="0.92.3 (2405546, 2018-03-11)">
  <metadata
     id="metadata51">
    <rdf:RDF>
      <cc:Work
         rdf:about="">
        <dc:format>image/svg+xml</dc:format>
        <dc:type
           rdf:resource="http://purl.org/dc/dcmitype/StillImage" />
        <dc:title />
      </cc:Work>
    </rdf:RDF>
  </metadata>
  <sodipodi:namedview
     pagecolor="#ffffff"
     bordercolor="#666666"
     borderopacity="1"
     objecttolerance="10"
     gridtolerance="10"
     guidetolerance="10"
     inkscape:pageopacity="0"
     inkscape:pageshadow="2"
     inkscape:window-width="1920"
     inkscape:window-height="1009"
     id="namedview49"
     showgrid="false"
     inkscape:zoom="3.5499954"
     inkscape:cx="126.29421"
     inkscape:cy="126.68164"
     inkscape:window-x="0"
     inkscape:window-y="34"
     inkscape:window-maximized="1"
     inkscape:current-layer="g45" />
  <defs
     id="defs23">
    <linearGradient
       id="linearGradient1108"
       x1="296"
       x2="296"
       y1="-212"
       y2="236"
       gradientUnits="userSpaceOnUse">
      <stop
         style="stop-color:#ffffff"
         offset="0"
         id="stop2" />
      <stop
         style="stop-color:#ffffff;stop-opacity:.09803922"
         offset=".125"
         id="stop4" />
      <stop
         style="stop-color:#000000;stop-opacity:.09803922"
         offset=".925"
         id="stop6" />
      <stop
         style="stop-color:#000000;stop-opacity:.49803922"
         offset="1"
         id="stop8" />
    </linearGradient>
    <clipPath
       id="clipPath1082-3-367">
      <path
         d="M 361.9375,-212 C 507.2348,-212 528,-191.28677 528,-46.125 V 70.125 C 528,215.28618 507.2348,236 361.9375,236 H 214.0625 C 68.7652,236 48,215.28618 48,70.125 V -46.125 C 48,-191.28677 68.7652,-212 214.0625,-212 Z"
         style="fill:#8c59d9"
         id="path11" />
    </clipPath>
    <filter
       id="filter933"
       width="1.023"
       height="1.025"
       x="-.01"
       y="-.01"
       style="color-interpolation-filters:sRGB">
      <feGaussianBlur
         stdDeviation="1.16"
         id="feGaussianBlur14" />
    </filter>
    <filter
       id="filter983"
       width="1.046"
       height="1.05"
       x="-.02"
       y="-.03"
       style="color-interpolation-filters:sRGB">
      <feGaussianBlur
         stdDeviation="2.32"
         id="feGaussianBlur17" />
    </filter>
    <filter
       style="color-interpolation-filters:sRGB"
       id="filter878"
       width="1.104"
       height="1.056"
       x="-.05"
       y="-.03">
      <feGaussianBlur
         stdDeviation="2.602"
         id="feGaussianBlur20" />
    </filter>
  </defs>
  <g
     transform="translate(0,-229.26666)"
     id="g45">
    <path
       d="m162.53675 5.5680001c72.64865 0 83.03125 10.356615 83.03125 82.937505v58.125005c0 72.58059-10.3826 82.9375-83.03125 82.9375h-73.937496c-72.648654 0-83.031254-10.35691-83.031254-82.9375v-58.125005c0-72.58089 10.3826-82.937505 83.031254-82.937505z"
       transform="matrix(.26458333 0 0 .26458333 -1.8735229e-8 232.67026)"
       style="filter:url(#filter983);opacity:.2"
       id="path25" />
    <path
       d="m162.53675 3.5680001c72.64865 0 83.03125 10.356615 83.03125 82.937505v58.125005c0 72.58059-10.3826 82.9375-83.03125 82.9375h-73.937496c-72.648654 0-83.031254-10.35691-83.031254-82.9375v-58.125005c0-72.58089 10.3826-82.937505 83.031254-82.937505z"
       transform="matrix(.26458333 0 0 .26458333 -1.8735229e-8 232.67026)"
       style="filter:url(#filter933);opacity:.1"
       id="path27" />
    <path
       d="m23.441883 233.61429c-19.221622 0-21.968685 2.74019-21.968685 21.94388v15.37891c0 19.20362 2.7470629 21.94388 21.968685 21.94388h9.781314v-59.26667z"
       style="fill:#77767b"
       id="path29" />
    <path
       d="m 152,44 v 224 h 36.96875 C 261.6174,268 272,257.64309 272,185.0625 v -58.125 C 272,54.356615 261.6174,44 188.96875,44 Z"
       transform="matrix(0.23283018,0,0,0.25041466,-2.5226724,224.1892)"
       style="opacity:0.4;filter:url(#filter878)"
       id="path31" />
    <path
       d="m33.223197 233.61429v59.26667h9.781316c19.221622 0 21.968685-2.74026 21.968685-21.94388v-15.37891c0-19.20369-2.747063-21.94388-21.968685-21.94388z"
       style="fill:#ff7800"
       id="path33" />
    <path
       inkscape:connector-curvature="0"
       id="path1086"
       d="M 1.4731984,263.24763 H 33.223197"
       style="display:inline;fill:none;fill-rule:evenodd;stroke:#5e5c64;stroke-width:0.80412543;stroke-linecap:butt;stroke-linejoin:miter;stroke-miterlimit:4;stroke-dasharray:none;stroke-opacity:1;enable-background:new" />
    <path
       d="m1.4731984 263.24763v7.68945c0 19.20362 2.7470629 21.94388 21.968685 21.94388h9.781314v-29.63333z"
       style="fill:#ffffff;opacity:.1"
       id="path35" />
    <path
       d="m361.9375-212c145.2973 0 166.0625 20.71323 166.0625 165.875v116.25c0 145.16118-20.7652 165.875-166.0625 165.875h-147.875c-145.2973 0-166.0625-20.71382-166.0625-165.875v-116.25c0-145.16177 20.7652-165.875 166.0625-165.875z"
       clip-path="url(#clipPath1082-3-367)"
       transform="matrix(.13229167 0 0 .13229167 -4.8768016 261.66013)"
       style="fill:none;opacity:.5;stroke-linecap:round;stroke-linejoin:round;stroke-width:8;stroke:url(#linearGradient1108)"
       id="path37" />
    <path
       inkscape:connector-curvature="0"
       id="path862"
       style="fill:#000000;fill-opacity:1;opacity:0.2"
       d="m 41.689864,274.2805 v 2.11667 h 14.816667 v -2.11667 z m 0,6.35001 v 2.11666 h 14.816667 v -2.11666 z" />
    <path
       d="m 41.689864,273.75136 v 2.11667 h 14.816667 v -2.11667 z m 0,6.35001 v 2.11666 h 14.816667 v -2.11666 z"
       style="fill:#ffffff"
       id="path43"
       inkscape:connector-curvature="0" />
    <path
       inkscape:connector-curvature="0"
       id="path858"
       style="fill:#000000;fill-opacity:1;opacity:0.2"
       d="m 24.756528,250.0185 v -2.11667 H 9.9398668 v 2.11667 z" />
    <path
       d="m 24.756528,249.4893 v -2.11667 H 9.9398668 v 2.11667 z"
       style="fill:#ffffff;fill-opacity:1"
       id="path41"
       inkscape:connector-curvature="0" />
    <path
       inkscape:connector-curvature="0"
       id="path860"
       style="fill:#000000;stroke-width:1;fill-opacity:1;opacity:0.2"
       d="m 16.289866,271.18499 v 6.35 H 9.9398649 v 2.11666 h 6.3500011 v 6.35 h 2.116666 v -6.35 h 6.349999 v -2.11666 h -6.349999 v -6.35 z" />
    <path
       d="m 16.289866,270.65596 v 6.35 H 9.9398649 v 2.11666 h 6.3500011 v 6.35 h 2.116666 v -6.35 h 6.349999 v -2.11666 h -6.349999 v -6.35 z"
       style="fill:#ffffff;stroke-width:1;fill-opacity:1"
       id="path39"
       inkscape:connector-curvature="0" />
  </g>
</svg>
