<svg xmlns="http://www.w3.org/2000/svg" width="256" height="256" version="1.1" viewBox="0 0 256 256">
 <defs>
  <linearGradient id="linearGradient1108" x1="296" x2="296" y1="-212" y2="236" gradientUnits="userSpaceOnUse">
   <stop offset="0" style="stop-color:#ffffff"/>
   <stop offset=".125" style="stop-color:#ffffff;stop-opacity:.09803922"/>
   <stop offset=".925" style="stop-color:#000000;stop-opacity:.09803922"/>
   <stop offset="1" style="stop-color:#000000;stop-opacity:.49803922"/>
  </linearGradient>
  <clipPath id="clipPath1082-3">
   <path style="fill:#8c59d9" d="M 361.9375,-212 C 507.2348,-212 528,-191.28677 528,-46.125 V 70.125 C 528,215.28618 507.2348,236 361.9375,236 H 214.0625 C 68.7652,236 48,215.28618 48,70.125 V -46.125 C 48,-191.28677 68.7652,-212 214.0625,-212 Z"/>
  </clipPath>
  <filter style="color-interpolation-filters:sRGB" id="filter931" width="1.023" height="1.025" x="-.01" y="-.01">
   <feGaussianBlur stdDeviation="1.16"/>
  </filter>
  <filter style="color-interpolation-filters:sRGB" id="filter925" width="1.046" height="1.05" x="-.02" y="-.03">
   <feGaussianBlur stdDeviation="2.32"/>
  </filter>
 </defs>
 <g transform="translate(-2.6968134,-1.9716796)">
  <path style="opacity:0.2;filter:url(#filter925)" d="m 165.23356,20.403668 c 72.64865,0 83.03125,10.356616 83.03125,82.937502 v 58.125 c 0,72.58059 -10.3826,82.9375 -83.03125,82.9375 h -73.937497 c -72.64865,0 -83.03125,-10.35691 -83.03125,-82.9375 v -58.125 c 0,-72.580886 10.3826,-82.937502 83.03125,-82.937502 z"/>
  <path style="opacity:0.1;filter:url(#filter931)" d="m 165.23356,19.403668 c 72.64865,0 83.03125,10.356616 83.03125,82.937502 v 58.125 c 0,72.58059 -10.3826,82.9375 -83.03125,82.9375 h -73.937497 c -72.64865,0 -83.03125,-10.35691 -83.03125,-82.9375 v -58.125 c 0,-72.580886 10.3826,-82.937502 83.03125,-82.937502 z"/>
  <path style="fill:#f7f7f7" d="m 165.23356,18.403668 c 72.64865,0 83.03125,10.356616 83.03125,82.937502 v 58.125 c 0,72.58059 -10.3826,82.9375 -83.03125,82.9375 h -73.937497 c -72.64865,0 -83.03125,-10.35691 -83.03125,-82.9375 v -58.125 c 0,-72.580886 10.3826,-82.937502 83.03125,-82.937502 z"/>
  <path d="m 214.0625,-216 c -72.83873,0 -115.522633,4.88257 -140.34375,29.67188 -24.821117,24.7893 -29.71875,67.4315 -29.71875,140.20312 v 116.25 c 0,72.77132 4.897641,115.41375 29.71875,140.20312 24.821109,24.78938 67.50502,29.67188 140.34375,29.67188 h 147.875 c 72.83873,0 115.52264,-4.8825 140.34375,-29.67188 24.82111,-24.78937 29.71875,-67.4318 29.71875,-140.20312 v -116.25 c 0,-72.77162 -4.89763,-115.41382 -29.71875,-140.20312 -24.82112,-24.78931 -67.50502,-29.67188 -140.34375,-29.67188 z m 0,8 h 147.875 c 72.45857,0 112.8056,5.47428 134.69141,27.33203 21.8858,21.85776 27.37109,62.15282 27.37109,134.54297 v 116.25 c 0,72.38986 -5.48528,112.68514 -27.37109,134.54297 -21.88582,21.85783 -62.23284,27.33203 -134.69141,27.33203 h -147.875 c -72.45857,0 -112.80559,-5.4742 -134.691406,-27.33203 -21.885816,-21.85783 -27.371094,-62.15311 -27.371094,-134.54297 v -116.25 c 0,-72.39015 5.485286,-112.68521 27.371094,-134.54297 21.885806,-21.85775 62.232836,-27.33203 134.691406,-27.33203 z" clip-path="url(#clipPath1082-3)" transform="matrix(0.5,0,0,0.5,-15.735187,124.40367)" style="font-variation-settings:normal;inline-size:0;opacity:0.4;fill:url(#linearGradient1108);stop-color:#000000"/>
  <g transform="matrix(1.0783661,0,0,1.0783661,-9.7028476,-9.3075835)">
   <path style="isolation:isolate" fill="#ea4335" d="m 201.01081,115.66968 h -69.128 v 28.662 h 39.791 c -3.71,18.21 -19.221,28.663 -39.791,28.663 -24.279,0 -43.836997,-19.558 -43.836997,-43.837 0,-24.279 19.557997,-43.837003 43.836997,-43.837003 10.454,0 19.895,3.709 27.314,9.779 l 21.581,-21.581 c -13.151,-11.466001 -30.011,-18.547001 -48.895,-18.547001 a 73.973,73.973 0 0 0 -74.185996,74.186004 73.972,73.972 0 0 0 74.185996,74.186 c 37.093,0 70.814,-26.977 70.814,-74.186 0,-4.384 -0.674,-9.105 -1.686,-13.488 z"/>
   <path style="isolation:isolate" fill="#fbbc05" d="m 201.01081,115.66968 h -69.128 v 28.662 h 39.791 c -3.71,18.21 -19.221,28.663 -39.791,28.663 -24.279,0 -43.836997,-19.558 -43.836997,-43.837 0,-4.81 0.767,-9.434 2.187,-13.758 -13.411,-10.178 -9.786,-7.553 -24.932999,-19.127003 -4.871,9.897003 -7.603,21.056003 -7.603,32.885003 a 73.972,73.972 0 0 0 74.185996,74.186 c 37.093,0 70.814,-26.977 70.814,-74.186 0,-4.384 -0.674,-9.105 -1.686,-13.488 z"/>
   <path style="isolation:isolate" fill="#34a853" d="m 201.01081,115.66968 h -69.128 v 28.662 h 39.791 c -3.71,18.21 -19.221,28.663 -39.791,28.663 -19.548,0 -36.035997,-12.679 -41.718997,-30.292 -8.717,6.644 -16.217,12.519 -25.007999,19.046 12.011999,24.685 37.298996,41.595 66.726996,41.595 37.093,0 70.814,-26.977 70.814,-74.186 0,-4.384 -0.674,-9.105 -1.686,-13.488 z"/>
   <path style="isolation:isolate" fill="#4285f4" d="m 201.01081,115.66968 h -69.128 v 28.662 h 39.791 c -2.026,9.943 -7.57,17.574 -15.535,22.453 5.308,4.312 18.995,15 23.617,18.526 13.886,-12.659 22.941,-31.69 22.941,-56.153 0,-4.384 -0.674,-9.105 -1.686,-13.488 z"/>
  </g>
 </g>
</svg>
