<svg xmlns="http://www.w3.org/2000/svg" xmlns:xlink="http://www.w3.org/1999/xlink" width="256" height="256" version="1.1" viewBox="0 0 67.73 67.73">
 <defs>
  <linearGradient id="linearGradient1108" x1="296" x2="296" y1="-212" y2="236" gradientUnits="userSpaceOnUse">
   <stop offset="0" style="stop-color:#ffffff"/>
   <stop offset=".125" style="stop-color:#ffffff;stop-opacity:.09803922"/>
   <stop offset=".925" style="stop-color:#000000;stop-opacity:.09803922"/>
   <stop offset="1" style="stop-color:#000000;stop-opacity:.49803922"/>
  </linearGradient>
  <clipPath id="clipPath1082-3-367">
   <path style="fill:#8c59d9" d="M 361.9375,-212 C 507.2348,-212 528,-191.28677 528,-46.125 V 70.125 C 528,215.28618 507.2348,236 361.9375,236 H 214.0625 C 68.7652,236 48,215.28618 48,70.125 V -46.125 C 48,-191.28677 68.7652,-212 214.0625,-212 Z"/>
  </clipPath>
  <linearGradient id="linearGradient4273" x1="448" x2="448" y1="256" y2="496" gradientUnits="userSpaceOnUse" spreadMethod="reflect">
   <stop offset="0" style="stop-color:#000000"/>
   <stop offset="1" style="stop-color:#000000;stop-opacity:0"/>
  </linearGradient>
  <filter style="color-interpolation-filters:sRGB" id="filter4569" width="1.023" height="1.025" x="-.01" y="-.01">
   <feGaussianBlur stdDeviation="1.16"/>
  </filter>
  <filter style="color-interpolation-filters:sRGB" id="filter929" width="1.046" height="1.05" x="-.02" y="-.03">
   <feGaussianBlur stdDeviation="2.32"/>
  </filter>
  <linearGradient id="linearGradient974" x1="58.569" x2="59.047" y1="263.304" y2="263.305" gradientUnits="userSpaceOnUse" spreadMethod="pad" xlink:href="#linearGradient4273"/>
 </defs>
 <g transform="translate(0,-229.26666)">
  <path style="opacity:0.2;filter:url(#filter929)" d="m 162.53675,5.5680001 c 72.64865,0 83.03125,10.3566149 83.03125,82.9375049 v 58.125005 c 0,72.58059 -10.3826,82.9375 -83.03125,82.9375 h -73.937496 c -72.648654,0 -83.031254,-10.35691 -83.031254,-82.9375 v -58.125005 c 0,-72.58089 10.3826,-82.9375049 83.031254,-82.9375049 z" transform="matrix(0.26458333,0,0,0.26458333,-1.8735229e-8,232.67026)"/>
  <path style="opacity:0.1;filter:url(#filter4569)" d="m 162.53675,3.5680001 c 72.64865,0 83.03125,10.3566149 83.03125,82.9375049 v 58.125005 c 0,72.58059 -10.3826,82.9375 -83.03125,82.9375 h -73.937496 c -72.648654,0 -83.031254,-10.35691 -83.031254,-82.9375 v -58.125005 c 0,-72.58089 10.3826,-82.9375049 83.031254,-82.9375049 z" transform="matrix(0.26458333,0,0,0.26458333,-1.8735229e-8,232.67026)"/>
  <path style="fill:#3584e4;paint-order:markers fill stroke" d="m 17.311115,292.6971 c -4.367158,-0.24453 -7.299874,-0.82672 -9.4694005,-1.87985 -3.1615771,-1.53468 -4.7715464,-3.99265 -5.61731,-8.57606 -0.6347049,-3.43962 -0.7824475,-7.94006 -0.7095077,-21.6126 0.054211,-10.16191 0.1068425,-11.88628 0.44619,-14.61874 0.7918612,-6.37613 2.8424991,-9.43173 7.3273156,-10.91822 2.2243446,-0.73726 4.2774496,-1.06353 8.0800766,-1.28403 2.80085,-0.16241 31.819999,-0.0841 33.544709,0.0906 2.90445,0.29409 5.207953,0.76082 6.80981,1.37978 l 0.867658,0.33527 v 27.64233 27.64233 l -0.920244,0.33299 c -1.878828,0.67985 -3.633418,1.03554 -6.599468,1.33784 -1.459643,0.14877 -3.704488,0.1745 -16.9325,0.19411 -8.387372,0.0124 -15.95967,-0.0172 -16.827329,-0.0657 z"/>
  <path style="fill:#f8e45c;paint-order:markers fill stroke" d="m 58.564758,242.5918 c 0,-3.78878 0.03498,-6.90816 0.0339,-6.95245 -8.31e-4,-0.0338 0.172682,0.0348 0.980499,0.57048 2.923456,1.90401 4.301481,4.74859 4.939394,10.03529 0.08559,0.70934 0.187999,1.72748 0.227573,2.26254 l 0.07195,0.97283 h -3.126653 -3.126653 z"/>
  <path style="fill:#2ec27e;paint-order:markers fill stroke" d="m 58.573261,256.31659 v -6.8361 h 3.094687 l 3.140237,0.009 c 0,0 0.03981,0.46666 0.04197,0.7006 0.0047,0.51455 0.04956,3.46669 0.04998,6.8361 l 8.1e-4,6.1262 h -3.163823 -3.163822 v -6.8361 z"/>
  <path style="fill:#c061cb;paint-order:markers fill stroke" d="m 58.560466,270.04426 v -6.97097 h 3.170218 3.17022 l -8.11e-4,6.40792 c -5.41e-4,3.52437 -0.03143,6.66131 -0.0687,6.97098 l -0.06777,0.56304 h -3.101518 -3.101518 v -6.97097 z"/>
  <path style="fill:#f66151;paint-order:markers fill stroke" d="m 58.578851,283.9257 v -6.89046 h 3.123929 3.123933 l -0.07106,1.078 c -0.398353,6.04295 -1.811969,9.82059 -4.497662,11.78523 -0.434485,0.31784 -0.590891,0.42216 -1.185948,0.77239 -0.15553,0.0915 -0.493191,0.22334 -0.493191,0.22334 z"/>
  <path style="opacity:0.5;fill:none;stroke:url(#linearGradient1108);stroke-width:8;stroke-linecap:round;stroke-linejoin:round" d="m 361.9375,-212 c 112.45171,0 150.31037,12.40695 161.68034,85.31055 C 526.93885,-105.39532 528,-78.939951 528,-46.125 V 70.125 C 528,215.28618 507.2348,236 361.9375,236 H 214.0625 C 68.7652,236 48,215.28618 48,70.125 V -46.125 C 48,-191.28677 68.7652,-212 214.0625,-212 Z" clip-path="url(#clipPath1082-3-367)" transform="matrix(0.13229167,0,0,0.13229167,-4.876802,261.66013)"/>
  <path d="m 58.585235,235.62497 -0.01654,55.28952 0.539089,-0.2496 -0.06082,-54.81454 z" style="opacity:0.4;fill:url(#linearGradient974)"/>
 </g>
 <g style="enable-background:new" transform="matrix(1.1338728,0,0,1.1338728,-126.03541,-280.16779)">
  <g style="display:none">
   <text style="font-size:5.33333349px;line-height:125%;font-family:Cantarell" x="-.05" y="128.65" xml:space="preserve">
    <tspan x="-.05" y="128.65" style="font-size:5.33333349px">apps</tspan>
   </text>
   <text x="-.25" y="137.23" xml:space="preserve" style="font-weight:bold;font-size:5.33333349px;line-height:125%;font-family:Cantarell">
    <tspan x="-.25" y="137.23" style="font-size:5.33333349px">org.gnome.Contacts</tspan>
   </text>
   <rect style="fill:#f0f0f0" width="128" height="128" x="0" y="172"/>
   <rect width="16" height="16" x="160" y="172" style="fill:#f0f0f0"/>
   <text style="font-weight:bold;font-size:4px;line-height:125%;font-family:Cantarell" x="0" y="164" xml:space="preserve">
    <tspan style="font-size:4px" x="0" y="164">Hicolor</tspan>
   </text>
   <text x="160" y="164" xml:space="preserve" style="font-weight:bold;font-size:4px;line-height:125%;font-family:Cantarell">
    <tspan x="160" y="164" style="font-size:4px">Symbolic</tspan>
   </text>
  </g>
  <g style="display:none">
   <circle cx="64" cy="236" r="59.504" style="opacity:0.1;fill:none;stroke:#000000;stroke-width:0.99000001;stroke-dasharray:0.99000001, 0.99000001"/>
   <rect width="87.01" height="111.01" x="20.5" y="180.5" rx="8.701" ry="7.929" style="opacity:0.1;fill:none;stroke:#000000;stroke-width:0.99000001;stroke-dasharray:0.99000001, 0.99000001"/>
   <rect width="103.01" height="103.01" x="12.49" y="184.5" rx="7.924" ry="7.924" style="opacity:0.1;fill:none;stroke:#000000;stroke-width:0.99000001;stroke-dasharray:0.99000001, 0.99000001"/>
   <rect width="111.01" height="87.01" x="8.49" y="200.5" rx="7.929" ry="8.701" style="opacity:0.1;fill:none;stroke:#000000;stroke-width:0.99000001;stroke-dasharray:0.99000001, 0.99000001"/>
   <path d="M 2.6203015e-5,288.99999 H 128.00003" style="fill:none;stroke:#62a0ea;stroke-width:2"/>
  </g>
  <g>
   <g style="enable-background:new" transform="matrix(0.5,0,0,0.5,126.25001,119.25)">
    <path style="fill:#ffffff" d="m 18.54553,315.67485 q 0,2.7859 1.17777,4.39403 1.20043,1.60812 3.2389,1.60812 2.01581,0 3.21624,-1.60812 1.20043,-1.63077 1.20043,-4.39403 0,-2.7406 -1.22308,-4.32607 -1.20043,-1.60812 -3.23889,-1.60812 -1.99317,0 -3.1936,1.60812 -1.17777,1.58547 -1.17777,4.32607 z m 9.28633,6.81753 q -0.67949,1.60813 -2.19701,2.51411 -1.49487,0.88333 -3.51069,0.88333 -3.89573,0 -6.34188,-2.80855 -2.42351,-2.8312 -2.42351,-7.36112 0,-4.52992 2.44615,-7.36112 2.44616,-2.83119 6.31924,-2.83119 2.01582,0 3.51069,0.90598 1.51752,0.90598 2.19701,2.5141 v -2.96709 h 4.73377 V 321.677 q 2.80855,-0.43034 4.41667,-2.6953 1.60812,-2.28761 1.60812,-5.8436 0,-2.26496 -0.65684,-4.23547 -0.65684,-1.99317 -1.99316,-3.64659 -2.15172,-2.76325 -5.39061,-4.25812 -3.21624,-1.49488 -6.97607,-1.49488 -2.62736,0 -5.02821,0.70214 -2.40086,0.67949 -4.43932,2.01581 -3.35214,2.21967 -5.23206,5.753 -1.85727,3.51069 -1.85727,7.61027 0,3.37479 1.20043,6.34188 1.2230799,2.94445 3.51069,5.20941 2.26496,2.21966 5.18676,3.37479 2.94444,1.17778 6.27393,1.17778 2.85385,0 5.7077,-1.06453 2.85385,-1.06453 4.86966,-2.8765 l 2.42351,3.66923 q -2.8312,2.19701 -6.18334,3.35214 -3.32949,1.17778 -6.77223,1.17778 -4.19017,0 -7.90471,-1.49487 -3.71453,-1.47222 -6.61368,-4.30342 -2.89915,-2.8312 -4.41667,-6.54574 -1.51752,-3.73718 -1.51752,-8.01795 0,-4.12223 1.54017,-7.85941 1.54017,-3.73719 4.39402,-6.56839 2.85385,-2.80855 6.63633,-4.34872 3.80514,-1.54017 7.88206,-1.54017 5.07351,0 9.21839,1.94786 4.14487,1.92522 6.93077,5.5718 1.69872,2.21967 2.55941,4.82437 0.88333,2.58205 0.88333,5.4359 0,6.13804 -3.69188,9.53548 -3.69189,3.39744 -10.41882,3.39744 h -0.88333 z"/>
    <rect width="0" height="0" x="0" y="0" transform="matrix(0.46666665,0,0,0.46666665,-30.19041,255.67852)" style="fill:#f8e45c;stroke:#000000;stroke-width:4.07800007;stroke-linejoin:round;stroke-opacity:0.3"/>
   </g>
  </g>
 </g>
</svg>
