<?xml version="1.0" encoding="UTF-8" standalone="no"?>
<svg
   xmlns:dc="http://purl.org/dc/elements/1.1/"
   xmlns:cc="http://creativecommons.org/ns#"
   xmlns:rdf="http://www.w3.org/1999/02/22-rdf-syntax-ns#"
   xmlns:svg="http://www.w3.org/2000/svg"
   xmlns="http://www.w3.org/2000/svg"
   xmlns:sodipodi="http://sodipodi.sourceforge.net/DTD/sodipodi-0.dtd"
   xmlns:inkscape="http://www.inkscape.org/namespaces/inkscape"
   height="16"
   width="16.002"
   version="1.1"
   id="svg8"
   sodipodi:docname="mail-move.svg"
   inkscape:version="0.92.3 (2405546, 2018-03-11)">
  <metadata
     id="metadata14">
    <rdf:RDF>
      <cc:Work
         rdf:about="">
        <dc:format>image/svg+xml</dc:format>
        <dc:type
           rdf:resource="http://purl.org/dc/dcmitype/StillImage" />
      </cc:Work>
    </rdf:RDF>
  </metadata>
  <defs
     id="defs12" />
  <sodipodi:namedview
     pagecolor="#ffffff"
     bordercolor="#666666"
     borderopacity="1"
     objecttolerance="10"
     gridtolerance="10"
     guidetolerance="10"
     inkscape:pageopacity="0"
     inkscape:pageshadow="2"
     inkscape:window-width="768"
     inkscape:window-height="480"
     id="namedview10"
     showgrid="false"
     inkscape:zoom="14.75"
     inkscape:cx="9.5166277"
     inkscape:cy="8"
     inkscape:window-x="366"
     inkscape:window-y="98"
     inkscape:window-maximized="0"
     inkscape:current-layer="svg8" />
  <g
     color="#000"
     transform="translate(-713 -48.948)"
     id="g6"
     style="fill:#808080;fill-opacity:1">
    <path
       d="M716.5 53c-.83 0-1.5.669-1.5 1.5v7c0 .831.67 1.5 1.5 1.5h11c.831 0 1.5-.669 1.5-1.5v-7c0-.831-.669-1.5-1.5-1.5zm.475 1h10.049L722 57.871zm11.025.512V61.5c0 .277-.223.5-.5.5h-11a.499.499 0 0 1-.5-.5v-6.986l5.692 4.382c.015.013.034.016.05.026.018.01.036.019.055.027.038.017.075.03.115.037.03.006.058.006.088.006.03 0 .059 0 .088-.006a.49.49 0 0 0 .115-.037c.02-.009.037-.016.055-.027.017-.01.035-.013.05-.026z"
       fill="#666"
       overflow="visible"
       style="isolation:auto;mix-blend-mode:normal;marker:none;fill:#808080;fill-opacity:1"
       id="path2" />
    <path
       d="M713 51v1h1v-1zm2 0v1h1v-1zm2 0v1h1v-1zm2 0v1h1v-1zm2 0v1h1v-1zm2 0v1h1v-1zm2 0v1h1v-1zm-12 2v1h1v-1zm0 2v1h1v-1zm0 2v1h1v-1zm0 2v.5c0 .177.036.343.092.5H714v-1z"
       fill="#666"
       overflow="visible"
       style="isolation:auto;mix-blend-mode:normal;marker:none;fill:#808080;fill-opacity:1"
       id="path4" />
  </g>
</svg>
