<?xml version="1.0" encoding="UTF-8" standalone="no"?>
<svg
   xmlns:dc="http://purl.org/dc/elements/1.1/"
   xmlns:cc="http://creativecommons.org/ns#"
   xmlns:rdf="http://www.w3.org/1999/02/22-rdf-syntax-ns#"
   xmlns:svg="http://www.w3.org/2000/svg"
   xmlns="http://www.w3.org/2000/svg"
   xmlns:sodipodi="http://sodipodi.sourceforge.net/DTD/sodipodi-0.dtd"
   xmlns:inkscape="http://www.inkscape.org/namespaces/inkscape"
   height="22"
   width="22"
   version="1.1"
   id="svg6"
   sodipodi:docname="mail-archive.svg"
   inkscape:version="0.92.3 (2405546, 2018-03-11)">
  <metadata
     id="metadata12">
    <rdf:RDF>
      <cc:Work
         rdf:about="">
        <dc:format>image/svg+xml</dc:format>
        <dc:type
           rdf:resource="http://purl.org/dc/dcmitype/StillImage" />
        <dc:title></dc:title>
      </cc:Work>
    </rdf:RDF>
  </metadata>
  <defs
     id="defs10" />
  <sodipodi:namedview
     pagecolor="#ffffff"
     bordercolor="#666666"
     borderopacity="1"
     objecttolerance="10"
     gridtolerance="10"
     guidetolerance="10"
     inkscape:pageopacity="0"
     inkscape:pageshadow="2"
     inkscape:window-width="1519"
     inkscape:window-height="996"
     id="namedview8"
     showgrid="false"
     inkscape:zoom="14.75"
     inkscape:cx="13.79661"
     inkscape:cy="8"
     inkscape:window-x="0"
     inkscape:window-y="34"
     inkscape:window-maximized="0"
     inkscape:current-layer="svg6" />
  <g
     transform="matrix(1.5486793,0,0,1.5486793,-1910.6189,486.15246)"
     id="g4"
     style="color:#bebebe;fill:#808080;fill-opacity:1">
    <path
       style="fill:#808080;fill-opacity:1;marker:none"
       d="M 4,2 H 3.5 C 2.67,2 2,2.669 2,3.5 v 9 C 2,13.331 2.67,14 3.5,14 h 9 c 0.831,0 1.5,-0.669 1.5,-1.5 v -9 C 14,2.669 13.331,2 12.5,2 H 12 v 1 c 0.554,0 1,0.446 1,1 v 6 H 10 C 10,11.108 9.108,12 8,12 6.892,12 6,11.108 6,10 H 3 V 4 C 3,3.446 3.446,3 4,3 Z"
       id="path832"
       transform="translate(1233,-315)"
       inkscape:connector-curvature="0" />
  </g>
  <path
     d="m 5.9823567,0 v 1.3274298 h 1.3274287 7.9619916 1.330018 V 0 Z m 0,2.6548595 v 1.3274297 h 1.3274287 7.9619916 1.330018 V 2.6548595 Z m 0,2.65486 V 11.946868 H 16.601795 V 5.3097195 Z M 7.3097854,6.6371482 11.292075,8.6282929 15.271777,6.6371482 V 7.9645785 L 11.292075,9.9557232 7.3097854,7.9645785 Z"
     style="opacity:1;fill:#808080;fill-opacity:1;stroke-width:1.32742977;enable-background:new"
     id="path4"
     inkscape:connector-curvature="0" />
</svg>
