<svg width="16" height="16" version="1.1" xmlns="http://www.w3.org/2000/svg">
 <g transform="translate(-511.99997,-319.99994)">
  <path d="m515.99414 321c-1.2582 0.0145-2.17889-0.0306-2.93164 0.38477-0.37637 0.20766-0.67323 0.55938-0.83789 0.99804-0.16467 0.43867-0.22461 0.95958-0.22461 1.61719v8c0 0.65761 0.0599 1.17853 0.22461 1.61719 0.16467 0.43866 0.46152 0.79039 0.83789 0.99804 0.75275 0.41532 1.67345 0.3702 2.93164 0.38477h8.0119c1.25819-0.0145 2.17889 0.0306 2.93164-0.38477 0.37637-0.20766 0.67322-0.55938 0.83789-0.99804 0.16431-0.43867 0.22443-0.95958 0.22443-1.61719v-8c0-0.65761-0.0599-1.17852-0.22461-1.61719-0.16466-0.43866-0.46152-0.79038-0.83789-0.99804-0.75275-0.41534-1.67344-0.37025-2.93164-0.38477h-8.0079zm-0.52148 2.99609a0.50005 0.50005 0 0 1 0.32812 0.10352l2 1.5a0.50005 0.50005 0 0 1 0 0.80078l-2 1.5a0.50078015 0.50078015 0 0 1-0.60156-0.80078l1.4668-1.09961-1.4668-1.09961a0.50005 0.50005 0 0 1 0.27344-0.9043zm2.52734 4.00391h3v1h-3z" style="fill:#4d4d4d"/>
 </g>
</svg>
