<svg xmlns="http://www.w3.org/2000/svg" xmlns:xlink="http://www.w3.org/1999/xlink" width="256" height="256" version="1.1" viewBox="0 0 67.73 67.73">
 <defs>
  <linearGradient id="linearGradient1108" x1="296" x2="296" y1="-212" y2="236" gradientUnits="userSpaceOnUse" xlink:href="#linearGradient1013"/>
  <linearGradient id="linearGradient1013">
   <stop offset="0" style="stop-color:#ffffff"/>
   <stop style="stop-color:#ffffff;stop-opacity:0.09803922" offset=".125"/>
   <stop style="stop-color:#000000;stop-opacity:0.09803922" offset=".925"/>
   <stop offset="1" style="stop-color:#000000;stop-opacity:0.49803922"/>
  </linearGradient>
  <clipPath id="clipPath1082-3-53" clipPathUnits="userSpaceOnUse">
   <path d="M 361.9375,-212 C 507.2348,-212 528,-191.28677 528,-46.125 V 70.125 C 528,215.28618 507.2348,236 361.9375,236 H 214.0625 C 68.7652,236 48,215.28618 48,70.125 V -46.125 C 48,-191.28677 68.7652,-212 214.0625,-212 Z" style="fill:#8c59d9"/>
  </clipPath>
  <linearGradient id="linearGradient878" x1="32" x2="272" y1="156" y2="156" gradientTransform="matrix(0.13485389,0.23357379,-0.23357379,0.13485389,49.806383,206.09448)" gradientUnits="userSpaceOnUse" xlink:href="#linearGradient876"/>
  <linearGradient id="linearGradient876">
   <stop style="stop-color:#97313d" offset="0"/>
   <stop style="stop-color:#ad3743" offset="1"/>
  </linearGradient>
  <filter style="color-interpolation-filters:sRGB" id="filter4569" width="1.023" height="1.025" x="-.01" y="-.01">
   <feGaussianBlur stdDeviation="1.16"/>
  </filter>
  <filter style="color-interpolation-filters:sRGB" id="filter958" width="1.046" height="1.05" x="-.02" y="-.03">
   <feGaussianBlur stdDeviation="2.32"/>
  </filter>
 </defs>
 <g transform="translate(0,-229.26666)">
  <path style="opacity:0.2;filter:url(#filter958)" d="m 188.96876,45.999995 c 72.64865,0 83.03125,10.356615 83.03125,82.937505 v 58.125 c 0,72.58059 -10.3826,82.9375 -83.03125,82.9375 h -73.9375 C 42.382606,270 32.000006,259.64309 32.000006,187.0625 v -58.125 c 0,-72.58089 10.3826,-82.937505 83.031254,-82.937505 z" transform="matrix(0.26970778,0,0,0.26970778,-7.1289177,220.56049)"/>
  <path d="m 188.96876,43.999995 c 72.64865,0 83.03125,10.356615 83.03125,82.937505 v 58.125 c 0,72.58059 -10.3826,82.9375 -83.03125,82.9375 h -73.9375 C 42.382606,268 32.000006,257.64309 32.000006,185.0625 v -58.125 c 0,-72.58089 10.3826,-82.937505 83.031254,-82.937505 z" transform="matrix(0.26970778,0,0,0.26970778,-7.1289177,220.56049)" style="opacity:0.1;filter:url(#filter4569)"/>
  <path style="fill:url(#linearGradient878)" d="m 43.837418,232.42763 c 19.593907,0 22.394178,2.79326 22.394178,22.36889 v 15.67677 c -3e-6,19.57555 -2.800271,22.36889 -22.394178,22.36889 h -19.94152 c -19.5939037,0 -22.3941717,-2.79334 -22.3941717,-22.36889 l -1e-6,-15.67677 c 1e-6,-19.57563 2.8002695,-22.36889 22.3941757,-22.36889 z"/>
  <path d="M 361.9375,-212 C 507.2348,-212 528,-191.28677 528,-46.125 V 70.125 C 528,215.28618 507.2348,236 361.9375,236 H 214.0625 C 68.7652,236 48,215.28618 48,70.125 V -46.125 C 48,-191.28677 68.7652,-212 214.0625,-212 Z" clip-path="url(#clipPath1082-3-53)" transform="matrix(0.13485389,0,0,0.13485389,-4.9712547,261.01666)" style="opacity:0.4;fill:none;stroke:url(#linearGradient1108);stroke-width:8;stroke-linecap:round;stroke-linejoin:round"/>
  <path style="fill:#ffffff" d="m 46.347317,247.53346 c 0,0 -0.701225,0.31792 -2.311423,1.65601 -1.969178,1.63589 -3.188629,1.504 -4.629261,1.2625 l -0.01125,0.0125 c -0.274434,-0.12525 -0.551874,-0.24274 -0.833372,-0.34799 v -0.0125 c -1.189673,-0.84721 -2.144832,-1.61717 -2.38048,-4.16631 -0.19277,-2.08373 -0.463367,-2.80542 -0.463367,-2.80542 -0.785028,-0.34119 -1.851973,-0.34109 -1.851973,-0.34109 0,0 -1.067235,1e-4 -1.851668,0.34137 0,0 -0.271319,0.72111 -0.463585,2.80521 -0.235595,2.549 -1.191304,3.31866 -2.380461,4.16629 l -0.002,0.015 c -0.281242,0.10525 -0.557888,0.22274 -0.833312,0.34794 l -0.01125,-0.0125 c -1.440524,0.24175 -2.660421,0.37292 -4.629691,-1.26282 -1.609601,-1.33727 -2.311313,-1.65602 -2.311313,-1.65602 -0.794556,0.31205 -1.548814,1.06626 -1.548814,1.06626 0,0 -0.754609,0.75455 -1.06792,1.55074 0,0 0.318638,0.70186 1.655957,2.3113 1.635977,1.96898 1.504318,3.1893 1.262973,4.62927 l 0.01125,0.0125 c -0.124748,0.27472 -0.242695,0.55192 -0.348345,0.83299 h -0.01125 c -0.847034,1.18975 -1.61712,2.14485 -4.166243,2.38072 -2.083823,0.1925 -2.806055,0.46394 -2.806055,0.46394 -0.341043,0.78448 -0.341103,1.84983 -0.341103,1.84983 0,0 5.67e-4,1.06763 0.3416,1.85189 0,0 0.72098,0.27159 2.80521,0.46322 2.549063,0.23574 3.317899,1.19214 4.166173,2.38074 h 0.01125 c 0.105473,0.2815 0.22312,0.55832 0.3479,0.83339 l -0.01125,0.0125 c 0.242395,1.44034 0.373292,2.65994 -1.262518,4.62887 -1.337318,1.60982 -1.656154,2.31255 -1.656154,2.31255 0.314471,0.79614 1.067967,1.54959 1.067967,1.54959 0,0 0.754864,0.75484 1.550859,1.06786 0,0 0.701653,-0.31757 2.311176,-1.65569 1.969325,-1.63562 3.189394,-1.50312 4.629598,-1.2627 l 0.01125,-0.0125 c 0.275574,0.125 0.552043,0.24299 0.833452,0.34789 l -0.002,0.015 c 1.189992,0.84713 2.144984,1.61699 2.380919,4.16586 0.192496,2.08378 0.463783,2.80617 0.463783,2.80617 0.785403,0.34034 1.851068,0.34084 1.851068,0.34084 0,0 1.067719,-2.7e-4 1.851727,-0.34199 0,0 0.271595,-0.72024 0.463536,-2.80469 0.235869,-2.54885 1.192562,-3.31796 2.380619,-4.16604 l -0.002,-0.015 c 0.281239,-0.10525 0.558141,-0.22349 0.833367,-0.34799 l 0.01125,0.0125 c 1.440384,-0.2425 2.660026,-0.37319 4.629293,1.26257 1.609601,1.33727 2.312306,1.65627 2.312306,1.65627 0.796338,-0.31477 1.549929,-1.06828 1.549929,-1.06828 0,0 0.754852,-0.75481 1.067992,-1.55084 0,0 -0.317613,-0.70164 -1.656137,-2.31113 -1.635962,-1.96901 -1.50337,-3.18915 -1.26259,-4.629 l -0.01125,-0.0125 c 0.125022,-0.27554 0.24297,-0.55199 0.347978,-0.83323 h 0.017 c 0.847205,-1.18958 1.617211,-2.14463 4.166356,-2.38055 2.084115,-0.1925 2.806632,-0.46386 2.806632,-0.46386 0.340241,-0.78531 0.340318,-1.85109 0.340318,-1.85109 0,0 -1.65e-4,-1.06718 -0.341138,-1.85186 0,0 -0.721272,-0.27129 -2.805614,-0.46332 -2.549276,-0.23549 -3.318547,-1.19127 -4.166626,-2.38029 h -0.01125 c -0.105173,-0.28122 -0.22227,-0.55829 -0.348005,-0.83326 l 0.01125,-0.0125 c -0.24182,-1.43982 -0.37337,-2.65982 1.262518,-4.62898 1.337379,-1.60946 1.656692,-2.31187 1.656692,-2.31187 -0.314214,-0.79596 -1.068477,-1.55019 -1.068477,-1.55019 0,0 -0.754892,-0.75476 -1.550975,-1.06788 z m -5.918958,21.66221 c -3.624707,3.62442 -9.501226,3.62447 -13.125946,7e-5 -3.62471,-3.62444 -3.62465,-9.50054 6e-5,-13.12496 3.62463,-3.62438 9.501149,-3.62443 13.125856,2e-5 3.624712,3.6244 3.624662,9.50052 3e-5,13.12487 z"/>
 </g>
</svg>
