<svg xmlns="http://www.w3.org/2000/svg" xmlns:xlink="http://www.w3.org/1999/xlink" width="256" height="256" version="1.1" viewBox="0 0 67.73 67.73">
 <defs>
  <linearGradient id="linearGradient1108" x1="296" x2="296" y1="-212" y2="236" gradientUnits="userSpaceOnUse" xlink:href="#linearGradient1013"/>
  <linearGradient id="linearGradient1013">
   <stop offset="0" style="stop-color:#ffffff"/>
   <stop style="stop-color:#ffffff;stop-opacity:0.09803922" offset=".125"/>
   <stop style="stop-color:#000000;stop-opacity:0.09803922" offset=".925"/>
   <stop offset="1" style="stop-color:#000000;stop-opacity:0.49803922"/>
  </linearGradient>
  <clipPath id="clipPath1082-3-361" clipPathUnits="userSpaceOnUse">
   <path d="M 361.9375,-212 C 507.2348,-212 528,-191.28677 528,-46.125 V 70.125 C 528,215.28618 507.2348,236 361.9375,236 H 214.0625 C 68.7652,236 48,215.28618 48,70.125 V -46.125 C 48,-191.28677 68.7652,-212 214.0625,-212 Z" style="fill:#8c59d9"/>
  </clipPath>
  <linearGradient id="linearGradient1044" x1="88" x2="256" y1="28" y2="284" gradientTransform="matrix(0.2697078,0,0,0.2697078,-7.1289181,220.56055)" gradientUnits="userSpaceOnUse" xlink:href="#linearGradient4632-92-3-0-8-1-9"/>
  <filter style="color-interpolation-filters:sRGB" id="filter4569" width="1.023" height="1.025" x="-.01" y="-.01">
   <feGaussianBlur stdDeviation="1.16"/>
  </filter>
  <filter style="color-interpolation-filters:sRGB" id="filter939" width="1.046" height="1.05" x="-.02" y="-.03">
   <feGaussianBlur stdDeviation="2.32"/>
  </filter>
  <linearGradient id="linearGradient4632-92-3-0-8-1-9">
   <stop offset="0" style="stop-color:#fafafa"/>
   <stop offset="1" style="stop-color:#e1e1e1"/>
  </linearGradient>
  <filter style="color-interpolation-filters:sRGB" id="filter975" width="1.094" height="1.098" x="-.05" y="-.05">
   <feGaussianBlur stdDeviation=".821"/>
  </filter>
 </defs>
 <g transform="translate(0,-229.26666)" style="opacity:0.998">
  <path style="opacity:0.2;filter:url(#filter939)" d="m 162.53675,5.5680001 c 72.64865,0 83.03125,10.3566149 83.03125,82.9375049 v 58.125005 c 0,72.58059 -10.3826,82.9375 -83.03125,82.9375 h -73.937496 c -72.648654,0 -83.031254,-10.35691 -83.031254,-82.9375 v -58.125005 c 0,-72.58089 10.3826,-82.9375049 83.031254,-82.9375049 z" transform="matrix(0.26970779,0,0,0.26970779,-1.7233046e-8,231.46532)"/>
  <path d="m 43.837432,232.42757 c 19.593908,0 22.394177,2.79327 22.394177,22.36887 v 15.67683 c 0,19.5755 -2.800269,22.36887 -22.394177,22.36887 h -19.941521 c -19.5939096,0 -22.3941778,-2.79337 -22.3941778,-22.36887 v -15.67683 c 0,-19.5756 2.8002682,-22.36887 22.3941778,-22.36887 z" style="opacity:0.1;fill:none;stroke:#000000;stroke-width:1.07883;stroke-linecap:round;stroke-linejoin:round"/>
  <path d="m 162.53675,3.5680001 c 72.64865,0 83.03125,10.3566149 83.03125,82.9375049 v 58.125005 c 0,72.58059 -10.3826,82.9375 -83.03125,82.9375 h -73.937496 c -72.648654,0 -83.031254,-10.35691 -83.031254,-82.9375 v -58.125005 c 0,-72.58089 10.3826,-82.9375049 83.031254,-82.9375049 z" transform="matrix(0.26970779,0,0,0.26970779,-1.7233046e-8,231.46532)" style="opacity:0.1;filter:url(#filter4569)"/>
  <path style="fill:url(#linearGradient1044)" d="m 43.83743,232.42757 c 19.593908,0 22.394177,2.79327 22.394177,22.36887 v 15.67683 c 0,19.5755 -2.800269,22.36887 -22.394177,22.36887 h -19.941522 c -19.5939082,0 -22.3941765,-2.79337 -22.3941765,-22.36887 v -15.67683 c 0,-19.5756 2.8002683,-22.36887 22.3941765,-22.36887 z"/>
  <path d="m 361.9375,-212 c 145.2973,0 166.0625,20.71323 166.0625,165.875 v 116.25 c 0,145.16118 -20.7652,165.875 -166.0625,165.875 h -147.875 c -145.2973,0 -166.0625,-20.71382 -166.0625,-165.875 v -116.25 c 0,-145.16177 20.7652,-165.875 166.0625,-165.875 z" clip-path="url(#clipPath1082-3-361)" transform="matrix(0.13485395,0,0,0.13485395,-4.9712563,261.01673)" style="opacity:0.4;fill:none;stroke:url(#linearGradient1108);stroke-width:8;stroke-linecap:round;stroke-linejoin:round"/>
  <path style="opacity:0.1;fill:#ffffff" d="m 33.866668,232.42757 v 60.41457 h 9.970762 c 19.593908,0 22.394177,-2.79337 22.394177,-22.36887 v -15.67683 c 0,-19.5756 -2.800269,-22.36887 -22.394177,-22.36887 z"/>
  <path style="opacity:0.1;fill:#ffffff" d="m 23.895908,292.84214 c -19.5939082,0 -22.3941765,-2.82143 -22.3941765,-22.59425 v -7.91737 h 64.7298755 v 7.91737 c 0,19.77282 -2.800269,22.59425 -22.394177,22.59425 z"/>
  <g transform="matrix(1.1237826,0,0,1.1237826,7.0494712,235.36322)" style="opacity:0.4;filter:url(#filter975)">
   <path d="m 35.15,33.513 c 0,0 8.765,17.827 3.349,-1.126 0,0 -4.126,-13.753 -9.512,-22.197 0,0 -4.831,-9.927 -10.872,-3.439 0,0 -12.752,13.474 -14.319,29.16 0,0 -1.657,8.983 9.007,3.281 l 14.434,-7.144 c 0,0 10.703,-5.677 -1.531,-2.041 l -12.101,4.374 c 0,0 -5.277,2.52 -2.989,-2.333 0,0 5.03,-12.32 8.092,-15.601 0,0 3.572,-6.864 6.488,-0.407 10e-4,-10e-4 5.838,8.296 9.954,17.473 z"/>
   <path d="m 43.497,18.43 -1.837,-1.352 1.985,-2.696 c 0.373,-0.507 1.087,-0.616 1.594,-0.242 v 0 c 0.507,0.373 0.616,1.087 0.242,1.594 z"/>
   <path d="m 32.564,34.991 -3.44,-2.532 12.419,-16.87 c 0.347,-0.472 1.011,-0.572 1.482,-0.225 l 1.732,1.275 c 0.472,0.347 0.572,1.011 0.225,1.482 z"/>
   <path d="m 27.942,41.657 -3.81,-2.805 c -0.236,-0.174 -0.286,-0.505 -0.113,-0.741 l 6.239,-8.475 c 0.174,-0.236 0.505,-0.286 0.741,-0.113 l 3.81,2.805 c 0.236,0.174 0.286,0.505 0.113,0.741 l -6.239,8.475 c -0.173,0.236 -0.505,0.287 -0.741,0.113 z"/>
   <path d="m 24.093,38.824 -1.369,5.6 c -0.045,0.183 0.154,0.329 0.315,0.232 l 4.94,-2.97 z"/>
  </g>
  <g transform="matrix(1.1237826,0,0,1.1237826,6.549426,234.88671)">
   <g>
    <path d="m 35.15,33.513 c 0,0 8.765,17.827 3.349,-1.126 0,0 -4.126,-13.753 -9.512,-22.197 0,0 -4.831,-9.927 -10.872,-3.439 0,0 -12.752,13.474 -14.319,29.16 0,0 -1.657,8.983 9.007,3.281 l 14.434,-7.144 c 0,0 10.703,-5.677 -1.531,-2.041 l -12.101,4.374 c 0,0 -5.277,2.52 -2.989,-2.333 0,0 5.03,-12.32 8.092,-15.601 0,0 3.572,-6.864 6.488,-0.407 10e-4,-10e-4 5.838,8.296 9.954,17.473 z" style="fill:#00bbf2"/>
    <g>
     <path d="m 43.497,18.43 -1.837,-1.352 1.985,-2.696 c 0.373,-0.507 1.087,-0.616 1.594,-0.242 v 0 c 0.507,0.373 0.616,1.087 0.242,1.594 z" style="fill:#bec9b4"/>
     <path d="m 32.564,34.991 -3.44,-2.532 12.419,-16.87 c 0.347,-0.472 1.011,-0.572 1.482,-0.225 l 1.732,1.275 c 0.472,0.347 0.572,1.011 0.225,1.482 z" style="fill:#6ab61e"/>
     <path d="m 30.68,33.604 -1.556,-1.145 12.492,-16.969 c 0.307,-0.417 0.893,-0.506 1.31,-0.199 l 0.801,0.59 z" style="fill:#a3de6a"/>
     <path d="m 27.942,41.657 -3.81,-2.805 c -0.236,-0.174 -0.286,-0.505 -0.113,-0.741 l 6.239,-8.475 c 0.174,-0.236 0.505,-0.286 0.741,-0.113 l 3.81,2.805 c 0.236,0.174 0.286,0.505 0.113,0.741 l -6.239,8.475 c -0.173,0.236 -0.505,0.287 -0.741,0.113 z" style="fill:#5e605c"/>
     <path d="m 25.57,39.911 -1.439,-1.059 c -0.236,-0.174 -0.286,-0.505 -0.113,-0.741 l 6.239,-8.475 c 0.174,-0.236 0.505,-0.286 0.741,-0.113 l 1.439,1.059 z" style="fill:#6e706b"/>
     <path d="m 24.093,38.824 -1.369,5.6 c -0.045,0.183 0.154,0.329 0.315,0.232 l 4.94,-2.97 z" style="fill:#bec9b4"/>
    </g>
   </g>
  </g>
 </g>
</svg>
