<svg xmlns="http://www.w3.org/2000/svg" xmlns:xlink="http://www.w3.org/1999/xlink" width="256" height="256" version="1.1" viewBox="0 0 67.73 67.73">
 <defs>
  <linearGradient id="linearGradient1108" x1="296" x2="296" y1="-212" y2="236" gradientUnits="userSpaceOnUse" xlink:href="#linearGradient1013"/>
  <linearGradient id="linearGradient1013">
   <stop style="stop-color:#ffffff" offset="0"/>
   <stop offset=".125" style="stop-color:#ffffff;stop-opacity:0.09803922"/>
   <stop offset=".925" style="stop-color:#000000;stop-opacity:0.09803922"/>
   <stop style="stop-color:#000000;stop-opacity:0.49803922" offset="1"/>
  </linearGradient>
  <clipPath id="clipPath1082-3-361" clipPathUnits="userSpaceOnUse">
   <path style="fill:#8c59d9" d="M 361.9375,-212 C 507.2348,-212 528,-191.28677 528,-46.125 V 70.125 C 528,215.28618 507.2348,236 361.9375,236 H 214.0625 C 68.7652,236 48,215.28618 48,70.125 V -46.125 C 48,-191.28677 68.7652,-212 214.0625,-212 Z"/>
  </clipPath>
  <filter id="filter4569" width="1.023" height="1.025" x="-.01" y="-.01" style="color-interpolation-filters:sRGB">
   <feGaussianBlur stdDeviation="1.16"/>
  </filter>
  <filter id="filter939" width="1.046" height="1.05" x="-.02" y="-.03" style="color-interpolation-filters:sRGB">
   <feGaussianBlur stdDeviation="2.32"/>
  </filter>
  <linearGradient id="linearGradient954" x1="7.5" x2="64.112" y1="230.789" y2="294.501" gradientTransform="matrix(1.0193681,0,0,1.0193681,0,-5.7113166)" gradientUnits="userSpaceOnUse" xlink:href="#linearGradient3688"/>
  <linearGradient id="linearGradient3688">
   <stop offset="0" style="stop-color:#ad0d0d"/>
   <stop offset="1" style="stop-color:#e02f11"/>
  </linearGradient>
  <filter id="filter1065" width="1.096" height="1.096" x="-.05" y="-.05" style="color-interpolation-filters:sRGB">
   <feGaussianBlur stdDeviation=".953"/>
  </filter>
 </defs>
 <g transform="translate(0,-229.26666)">
  <path d="m 162.53675,5.5680001 c 72.64865,0 83.03125,10.3566149 83.03125,82.9375049 v 58.125005 c 0,72.58059 -10.3826,82.9375 -83.03125,82.9375 H 88.599254 C 15.9506,229.56801 5.568,219.2111 5.568,146.63051 V 88.505505 c 0,-72.58089 10.3826,-82.9375049 83.031254,-82.9375049 z" transform="matrix(0.26970779,0,0,0.26970779,-1.9098094e-8,231.46531)" style="opacity:0.2;filter:url(#filter939)"/>
  <path style="opacity:0.1;fill:none;stroke:#000000;stroke-width:1.07883108;stroke-linecap:round;stroke-linejoin:round" d="m 43.837429,232.42763 c 19.593907,0 22.394176,2.79326 22.394176,22.36889 v 15.67677 c 0,19.57555 -2.800269,22.36889 -22.394176,22.36889 H 23.89591 c -19.5939088,0 -22.394177,-2.79334 -22.394177,-22.36889 v -15.67677 c 0,-19.57563 2.8002682,-22.36889 22.394177,-22.36889 z"/>
  <path style="opacity:0.1;filter:url(#filter4569)" d="m 162.53675,3.5680001 c 72.64865,0 83.03125,10.3566149 83.03125,82.9375049 v 58.125005 c 0,72.58059 -10.3826,82.9375 -83.03125,82.9375 H 88.599254 C 15.9506,227.56801 5.568,217.2111 5.568,144.63051 V 86.505505 c 0,-72.58089 10.3826,-82.9375049 83.031254,-82.9375049 z" transform="matrix(0.26970779,0,0,0.26970779,-1.9098094e-8,231.46531)"/>
  <path d="m 43.837427,232.42763 c 19.593907,0 22.394175,2.79326 22.394175,22.36889 v 15.67677 c 0,19.57555 -2.800268,22.36889 -22.394175,22.36889 h -19.94152 c -19.5939074,0 -22.3941756,-2.79334 -22.3941756,-22.36889 v -15.67677 c 0,-19.57563 2.8002682,-22.36889 22.3941756,-22.36889 z" style="fill:url(#linearGradient954)"/>
  <path style="opacity:0.4;fill:none;stroke:url(#linearGradient1108);stroke-width:8;stroke-linecap:round;stroke-linejoin:round" d="M 361.9375,-212 C 507.2348,-212 528,-191.28677 528,-46.125 V 70.125 C 528,215.28618 507.2348,236 361.9375,236 H 214.0625 C 68.7652,236 48,215.28618 48,70.125 V -46.125 C 48,-191.28677 68.7652,-212 214.0625,-212 Z" clip-path="url(#clipPath1082-3-361)" transform="matrix(0.1348539,0,0,0.1348539,-4.9712559,261.01666)"/>
  <path d="m 23.895907,292.84218 c -19.5939074,0 -22.3941756,-2.79326 -22.3941756,-22.36889 v -7.83838 H 66.231602 v 7.83838 c 0,19.57563 -2.800268,22.36889 -22.394175,22.36889 z" style="opacity:0.1;fill:#ffffff"/>
  <path d="m 33.866666,232.42763 v 60.41455 h 9.970761 c 19.593907,0 22.394175,-2.79334 22.394175,-22.36889 v -15.67677 c 0,-19.57563 -2.800268,-22.36889 -22.394175,-22.36889 z" style="opacity:0.1;fill:#ffffff"/>
  <g transform="matrix(2.2510744,0,0,2.2510744,-39.880552,-297.1344)">
   <path d="M 128,240.28516 C 117.24908,200.22304 35.393054,135.48005 5.6757812,128.70703 v 26.37695 c 32.4434948,3.32376 78.9631758,40.7792 102.0273388,85.20118 z" transform="matrix(0.11753647,0,0,0.11753647,17.716223,233.84448)" style="opacity:0.2;fill:#ffffff"/>
   <path d="m 204.38867,13.90625 c -1.15003,-0.157338 -2.18576,-0.363321 -3.39258,-0.498047 -3.25706,-0.363609 -6.72373,-0.646692 -10.41211,-0.863281 -7.37676,-0.433179 -15.64147,-0.597656 -24.89843,-0.597656 H 137.83789 C 66.944543,72.524723 24.0746,85.506294 5.8789062,88.097656 5.83729,90.996289 5.6757812,93.369933 5.6757812,96.490234 V 112.00781 C 18.708298,109.81025 43.563971,103.92992 70.587891,87.003906 109.11788,62.871141 155.17969,17.056641 155.17969,17.056641 142.54657,41.83729 138.86911,127.28865 138.625,240.28516 h 27.06055 c 9.25696,0 17.52167,-0.16447 24.89843,-0.59766 3.68838,-0.21659 7.15505,-0.49967 10.41211,-0.86328 3.25707,-0.36362 6.30468,-0.8073 9.15625,-1.34375 2.85158,-0.53645 5.50661,-1.16724 7.97852,-1.90235 2.47191,-0.7351 4.76084,-1.57558 6.87891,-2.53515 1.98809,-0.90069 3.79769,-1.92833 5.49609,-3.04883 0.0325,-0.35437 0.20312,-0.65768 0.20312,-1.02148 -14.97115,-30.87731 -24.75451,-75.51723 -32.0996,-115.38477 -5.96774,-45.285925 2.0262,-84.394745 5.77929,-99.68164 z" transform="matrix(0.11753647,0,0,0.11753647,17.716223,233.84448)" style="opacity:0.2;fill:#f7d2d4"/>
   <path d="m 153.3457,240.28516 h 12.33985 c 4.81002,0 8.64852,-0.20699 12.9375,-0.31055 17.93953,-26.33434 51.47114,-64.98825 71.70117,-86.43164 v -27.42774 c -28.27951,28.16603 -73.9215,74.47745 -96.97852,114.16993 z" transform="matrix(0.11753647,0,0,0.11753647,17.716223,233.84448)" style="opacity:0.05;fill:#f1f1f1;fill-rule:evenodd"/>
   <path d="M 250.32422,107.85156 V 96.490234 c 0,-9.248329 -0.16557,-17.505574 -0.59961,-24.875 -0.21702,-3.684712 -0.50097,-7.146679 -0.86523,-10.40039 -0.36427,-3.253712 -0.80837,-6.297958 -1.34571,-9.146485 -0.53733,-2.848527 -1.16806,-5.501544 -1.90429,-7.970703 -0.73624,-2.469159 -1.57812,-4.755486 -2.53907,-6.871094 -0.96095,-2.115607 -2.04046,-4.059783 -3.25195,-5.847656 -1.21149,-1.787872 -2.55511,-3.418343 -4.04297,-4.904297 -1.48786,-1.485953 -3.1201,-2.827257 -4.91016,-4.037109 -1.79005,-1.209852 -3.73739,-2.288481 -5.85546,-3.248047 -2.11807,-0.959566 -4.407,-1.800059 -6.87891,-2.535156 -0.69101,-0.205492 -1.51052,-0.342009 -2.23047,-0.53125 l -7.2793,3.919922 C 178.4901,38.399171 81.293325,93.447892 5.859375,88.90625 5.8257037,91.544598 5.6757812,93.670562 5.6757812,96.490234 V 140.99609 C 27.713647,144.289 198.69645,167.66286 250.32422,107.85156 Z" transform="matrix(0.11753647,0,0,0.11753647,17.716223,233.84448)" style="opacity:0.05;fill:#f1f1f1;fill-rule:evenodd"/>
  </g>
  <path d="m 31.121724,238.82283 c -0.821118,0 -0.98308,0.0385 -1.313389,0.31527 -0.657603,0.55119 -1.032356,2.24722 -1.028562,4.71311 0.0038,2.5496 0.353017,4.97616 1.155149,8.13368 l 0.506371,1.97039 -0.474721,1.48169 c -1.507797,4.81827 -3.693826,9.83267 -6.915087,15.84178 -4.881952,9.10704 -8.654826,13.88797 -11.28251,14.31275 -0.42279,0.0685 -0.44307,0.0507 -0.44307,-0.25227 -1e-6,-1.53701 2.914383,-5.38031 6.155534,-8.11792 1.65564,-1.39844 -0.271036,-0.46383 -2.500192,1.21374 -2.246408,1.69056 -4.107209,3.88258 -4.683902,5.51703 -0.4100728,1.16223 -0.3233297,1.57317 0.427247,1.95461 1.341084,0.68152 2.023548,0.70833 3.1648,0.14182 2.21844,-1.10116 5.152271,-4.58605 8.418366,-9.99373 1.05903,-1.75343 1.391348,-2.19104 1.66152,-2.19104 0.09521,0 1.096039,-0.27745 2.215358,-0.61476 4.473673,-1.3482 9.845506,-2.43638 15.111918,-3.07377 l 1.756463,-0.22063 0.886143,0.44134 c 2.307772,1.15771 5.523372,2.28102 7.880352,2.74277 1.59412,0.3123 3.66997,0.36985 4.367424,0.126 0.43946,-0.15354 1.354963,-0.69628 1.354974,-0.87461 -1.788885,0.83897 -4.485225,-0.19772 -6.513597,-0.79626 -1.337368,-0.42133 -4.280533,-1.57203 -4.446545,-1.73394 3.563485,-0.68972 10.247765,-0.8427 10.966032,1.6236 0.210436,0 0.156355,-0.99005 -0.07912,-1.38714 -0.441042,-0.74373 -1.719057,-1.34416 -3.5604,-1.68664 -1.490803,-0.27728 -5.023321,-0.35489 -7.785407,-0.17345 l -2.452722,0.15764 -0.88614,-0.53593 c -5.081228,-3.07804 -7.772329,-6.55039 -10.206479,-13.14631 -0.365284,-0.98983 -0.389859,-1.12562 -0.269018,-1.7497 0.425492,-2.19723 0.820354,-9.62098 0.522192,-9.80455 -0.543052,2.43261 -0.982221,4.86575 -1.53493,7.06181 -0.114165,0 -0.448686,-1.71175 -0.712081,-3.70429 -0.28657,-2.16791 -0.18251,-5.10072 0.205719,-6.10029 0.155564,-0.40052 0.358471,-0.76552 0.458896,-0.80389 0.995092,0.28541 1.548924,1.07351 1.693169,2.28562 0.14119,0 0.177435,-0.23154 0.205719,-0.97729 0.06218,-1.64002 -0.377336,-2.09648 -2.025473,-2.09648 z m 0.3956,18.09586 c 0.0564,-0.0191 0.08847,0.10395 0.158237,0.29951 0.08588,0.24082 0.56665,1.22733 1.060209,2.19104 2.123649,4.14653 4.475342,6.86599 7.864528,9.09524 0.171706,0.11291 0.277794,0.24163 0.237355,0.28372 -0.04044,0.042 -0.730314,0.19063 -1.519105,0.33101 -5.37898,0.95781 -12.07564,2.97275 -15.333455,4.60279 -0.05182,0.0272 -0.09494,-0.0245 -0.09494,-0.11048 0,-0.0854 0.320231,-0.75251 0.727901,-1.4817 3.070639,-5.49243 5.13397,-9.93158 6.297951,-13.58768 0.369253,-1.1598 0.507323,-1.59366 0.601311,-1.62357 z" style="fill:#0f0000;filter:url(#filter1065);opacity:0.3"/>
  <path style="fill:#dbdbdb" d="m 31.121724,238.82283 c -0.821118,0 -0.98308,0.0385 -1.313389,0.31527 -0.657603,0.55119 -1.032356,2.24722 -1.028562,4.71311 0.0038,2.5496 0.353017,4.97616 1.155149,8.13368 l 0.506371,1.97039 -0.474721,1.48169 c -1.507797,4.81827 -3.693826,9.83267 -6.915087,15.84178 -4.881952,9.10704 -8.654826,13.88797 -11.28251,14.31275 -0.42279,0.0685 -0.44307,0.0507 -0.44307,-0.25227 -1e-6,-1.53701 2.914383,-5.38031 6.155534,-8.11792 1.65564,-1.39844 -0.271036,-0.46383 -2.500192,1.21374 -2.246408,1.69056 -4.107209,3.88258 -4.683902,5.51703 -0.4100728,1.16223 -0.3233297,1.57317 0.427247,1.95461 1.341084,0.68152 2.023548,0.70833 3.1648,0.14182 2.21844,-1.10116 5.152271,-4.58605 8.418366,-9.99373 1.05903,-1.75343 1.391348,-2.19104 1.66152,-2.19104 0.09521,0 1.096039,-0.27745 2.215358,-0.61476 4.473673,-1.3482 9.845506,-2.43638 15.111918,-3.07377 l 1.756463,-0.22063 0.886143,0.44134 c 2.307772,1.15771 5.523372,2.28102 7.880352,2.74277 1.59412,0.3123 3.66997,0.36985 4.367424,0.126 0.43946,-0.15354 1.354963,-0.69628 1.354974,-0.87461 -1.788885,0.83897 -4.485225,-0.19772 -6.513597,-0.79626 -1.337368,-0.42133 -4.280533,-1.57203 -4.446545,-1.73394 3.563485,-0.68972 10.247765,-0.8427 10.966032,1.6236 0.210436,0 0.156355,-0.99005 -0.07912,-1.38714 -0.441042,-0.74373 -1.719057,-1.34416 -3.5604,-1.68664 -1.490803,-0.27728 -5.023321,-0.35489 -7.785407,-0.17345 l -2.452722,0.15764 -0.88614,-0.53593 c -5.081228,-3.07804 -7.772329,-6.55039 -10.206479,-13.14631 -0.365284,-0.98983 -0.389859,-1.12562 -0.269018,-1.7497 0.425492,-2.19723 0.820354,-9.62098 0.522192,-9.80455 -0.543052,2.43261 -0.982221,4.86575 -1.53493,7.06181 -0.114165,0 -0.448686,-1.71175 -0.712081,-3.70429 -0.28657,-2.16791 -0.18251,-5.10072 0.205719,-6.10029 0.155564,-0.40052 0.358471,-0.76552 0.458896,-0.80389 0.995092,0.28541 1.548924,1.07351 1.693169,2.28562 0.14119,0 0.177435,-0.23154 0.205719,-0.97729 0.06218,-1.64002 -0.377336,-2.09648 -2.025473,-2.09648 z m 0.3956,18.09586 c 0.0564,-0.0191 0.08847,0.10395 0.158237,0.29951 0.08588,0.24082 0.56665,1.22733 1.060209,2.19104 2.123649,4.14653 4.475342,6.86599 7.864528,9.09524 0.171706,0.11291 0.277794,0.24163 0.237355,0.28372 -0.04044,0.042 -0.730314,0.19063 -1.519105,0.33101 -5.37898,0.95781 -12.07564,2.97275 -15.333455,4.60279 -0.05182,0.0272 -0.09494,-0.0245 -0.09494,-0.11048 0,-0.0854 0.320231,-0.75251 0.727901,-1.4817 3.070639,-5.49243 5.13397,-9.93158 6.297951,-13.58768 0.369253,-1.1598 0.507323,-1.59366 0.601311,-1.62357 z"/>
 </g>
</svg>
