<svg xmlns="http://www.w3.org/2000/svg" xmlns:xlink="http://www.w3.org/1999/xlink" width="256" height="256" version="1.1" viewBox="0 0 67.73 67.73">
 <defs>
  <linearGradient id="linearGradient1108" x1="296" x2="296" y1="-212" y2="236" gradientUnits="userSpaceOnUse" xlink:href="#linearGradient1013"/>
  <linearGradient id="linearGradient1013">
   <stop offset="0" style="stop-color:#ffffff"/>
   <stop style="stop-color:#ffffff;stop-opacity:0.09803922" offset=".125"/>
   <stop style="stop-color:#000000;stop-opacity:0.09803922" offset=".925"/>
   <stop offset="1" style="stop-color:#000000;stop-opacity:0.49803922"/>
  </linearGradient>
  <clipPath id="clipPath1082-3-361" clipPathUnits="userSpaceOnUse">
   <path d="M 361.9375,-212 C 507.2348,-212 528,-191.28677 528,-46.125 V 70.125 C 528,215.28618 507.2348,236 361.9375,236 H 214.0625 C 68.7652,236 48,215.28618 48,70.125 V -46.125 C 48,-191.28677 68.7652,-212 214.0625,-212 Z" style="fill:#8c59d9"/>
  </clipPath>
  <linearGradient id="linearGradient4245">
   <stop offset="0" style="stop-color:#e8e8e8"/>
   <stop offset="1" style="stop-color:#f5f5f5"/>
  </linearGradient>
  <linearGradient id="linearGradient1044" x1="88" x2="256" y1="28" y2="284" gradientTransform="matrix(0.26970778,0,0,0.26970778,-7.1289169,220.56047)" gradientUnits="userSpaceOnUse" xlink:href="#linearGradient4245"/>
  <filter style="color-interpolation-filters:sRGB" id="filter4569" width="1.023" height="1.025" x="-.01" y="-.01">
   <feGaussianBlur stdDeviation="1.16"/>
  </filter>
  <filter style="color-interpolation-filters:sRGB" id="filter939" width="1.046" height="1.05" x="-.02" y="-.03">
   <feGaussianBlur stdDeviation="2.32"/>
  </filter>
  <filter style="color-interpolation-filters:sRGB" id="filter914" width="1.101" height="1.092" x="-.05" y="-.05">
   <feGaussianBlur stdDeviation="1.121"/>
  </filter>
 </defs>
 <g transform="translate(0,-229.26666)">
  <path style="opacity:0.2;filter:url(#filter939)" d="m 162.53675,5.5680001 c 72.64865,0 83.03125,10.3566149 83.03125,82.9375049 v 58.125005 c 0,72.58059 -10.3826,82.9375 -83.03125,82.9375 H 88.599254 C 15.9506,229.56801 5.568,219.2111 5.568,146.63051 V 88.505505 c 0,-72.58089 10.3826,-82.9375049 83.031254,-82.9375049 z" transform="matrix(0.26970779,0,0,0.26970779,-1.9098095e-8,231.46531)"/>
  <path d="m 43.837427,232.42762 c 19.593907,0 22.394175,2.79326 22.394175,22.3689 v 15.67676 c 0,19.57556 -2.800268,22.3689 -22.394175,22.3689 H 23.895909 c -19.5939079,0 -22.394176,-2.79334 -22.394176,-22.3689 v -15.67676 c 0,-19.57564 2.8002681,-22.3689 22.394176,-22.3689 z" style="opacity:0.1;fill:none;stroke:#000000;stroke-width:1.07883108;stroke-linecap:round;stroke-linejoin:round"/>
  <path d="m 162.53675,3.5680001 c 72.64865,0 83.03125,10.3566149 83.03125,82.9375049 v 58.125005 c 0,72.58059 -10.3826,82.9375 -83.03125,82.9375 H 88.599254 C 15.9506,227.56801 5.568,217.2111 5.568,144.63051 V 86.505505 c 0,-72.58089 10.3826,-82.9375049 83.031254,-82.9375049 z" transform="matrix(0.26970779,0,0,0.26970779,-1.9098095e-8,231.46531)" style="opacity:0.1;filter:url(#filter4569)"/>
  <path style="fill:url(#linearGradient1044)" d="m 43.837425,232.42762 c 19.593907,0 22.394175,2.79326 22.394175,22.3689 v 15.67676 c 0,19.57556 -2.800268,22.3689 -22.394175,22.3689 H 23.895906 c -19.5939065,0 -22.3941746,-2.79334 -22.3941746,-22.3689 v -15.67676 c 0,-19.57564 2.8002681,-22.3689 22.3941746,-22.3689 z"/>
  <path style="opacity:0.2;fill:#ffffff" d="m 33.866665,232.42762 v 60.41456 h 9.97076 c 19.593907,0 22.394175,-2.79334 22.394175,-22.3689 v -15.67676 c 0,-19.57564 -2.800268,-22.3689 -22.394175,-22.3689 z"/>
  <path style="opacity:0.25;fill:#ffffff" d="m 23.895906,292.84218 c -19.5939065,0 -22.3941746,-2.79326 -22.3941746,-22.3689 V 262.6349 H 66.2316 v 7.83838 c 0,19.57564 -2.800268,22.3689 -22.394175,22.3689 z"/>
  <path d="m 46.633107,234.19274 c -1.578592,0 -4.640489,3.74104 -5.78818,4.33167 -1.149762,0.59062 -10.238323,7.28487 -11.098054,8.46629 -0.861807,1.18128 -2.009308,1.67348 -3.252298,1.57505 -1.245058,-0.0983 -5.174771,-0.1388 -6.515129,0.64846 -1.338285,0.78786 -7.452019,7.22814 -8.983587,8.01537 -1.530574,0.78734 -3.5277325,1.19047 -4.4844176,1.28901 -0.9565012,0.0983 -4.1254551,3.73144 -4.9864334,4.42069 -0.00317,0.002 -0.019838,0.0106 -0.023178,0.0131 v 7.52074 c 0,2.44694 0.043719,4.63167 0.1585587,6.58149 0.05742,0.97492 0.1327679,1.89099 0.2291463,2.75187 0.096379,0.86087 0.2139286,1.66685 0.3560986,2.42052 0.1421699,0.75367 0.3088008,1.45538 0.5035949,2.10868 0.1947942,0.65329 0.4173846,1.25813 0.6716358,1.81788 0.2542511,0.55976 0.5402063,1.0741 0.860747,1.54714 0.3205407,0.47304 0.675686,0.90481 1.0693493,1.29797 0.3936631,0.39316 0.8259307,0.74767 1.2995489,1.06777 0.4736183,0.3201 0.9888336,0.60581 1.5492397,0.85969 0.5604058,0.25389 1.165974,0.47608 1.8200008,0.67058 0.654025,0.19449 1.356299,0.36114 2.110778,0.50307 0.75448,0.14194 1.560864,0.25936 2.422629,0.35557 0.861766,0.0963 1.77914,0.17132 2.755024,0.22862 1.951767,0.11461 4.138585,0.15803 6.587823,0.15803 h 13.447989 c 0.05532,-1.59521 0.0193,-3.34321 0.151711,-4.60294 0.191482,-1.77193 0.860637,-16.63695 3.348169,-20.5747 2.487217,-3.93735 9.596221,-8.66489 12.083645,-9.1569 2.487426,-0.49223 2.009112,-1.47677 2.009112,-2.36257 0,-0.88588 -0.38269,-2.8549 -1.052491,-3.15011 -0.669596,-0.2952 -3.282091,1.47833 -4.14307,1.67514 -0.860975,0.19692 -4.974766,0.49239 -5.549028,-0.492 -0.573843,-0.98381 4.640201,-11.0251 5.309346,-12.20638 0.669143,-1.18145 0.95743,-2.75689 -0.287619,-4.43017 -1.242988,-1.67382 -2.102639,-3.34712 -2.581187,-3.34712 z m -21.803662,20.71694 c 0.648862,-0.0103 1.091475,0.0553 1.091475,0.0553 0.363157,0.81727 -1.33149,3.38708 -2.905154,3.73746 -1.573209,0.35009 -5.204247,5.48843 -5.325148,4.32059 -0.121401,-1.16776 1.452425,-5.02154 3.268099,-6.77324 1.134747,-1.09488 2.789293,-1.32302 3.870728,-1.34011 z" style="fill:#1c354f;filter:url(#filter914);opacity:0.3"/>
  <path style="fill:#608ab5" d="m 46.633107,234.19274 c -1.578592,0 -4.640489,3.74104 -5.78818,4.33167 -1.149762,0.59062 -10.238323,7.28487 -11.098054,8.46629 -0.861807,1.18128 -2.009308,1.67348 -3.252298,1.57505 -1.245058,-0.0983 -5.174771,-0.1388 -6.515129,0.64846 -1.338285,0.78786 -7.452019,7.22814 -8.983587,8.01537 -1.530574,0.78734 -3.5277325,1.19047 -4.4844176,1.28901 -0.9565012,0.0983 -4.1254551,3.73144 -4.9864334,4.42069 -0.00317,0.002 -0.019838,0.0106 -0.023178,0.0131 v 7.52074 c 0,2.44694 0.043719,4.63167 0.1585587,6.58149 0.05742,0.97492 0.1327679,1.89099 0.2291463,2.75187 0.096379,0.86087 0.2139286,1.66685 0.3560986,2.42052 0.1421699,0.75367 0.3088008,1.45538 0.5035949,2.10868 0.1947942,0.65329 0.4173846,1.25813 0.6716358,1.81788 0.2542511,0.55976 0.5402063,1.0741 0.860747,1.54714 0.3205407,0.47304 0.675686,0.90481 1.0693493,1.29797 0.3936631,0.39316 0.8259307,0.74767 1.2995489,1.06777 0.4736183,0.3201 0.9888336,0.60581 1.5492397,0.85969 0.5604058,0.25389 1.165974,0.47608 1.8200008,0.67058 0.654025,0.19449 1.356299,0.36114 2.110778,0.50307 0.75448,0.14194 1.560864,0.25936 2.422629,0.35557 0.861766,0.0963 1.77914,0.17132 2.755024,0.22862 1.951767,0.11461 4.138585,0.15803 6.587823,0.15803 h 13.447989 c 0.05532,-1.59521 0.0193,-3.34321 0.151711,-4.60294 0.191482,-1.77193 0.860637,-16.63695 3.348169,-20.5747 2.487217,-3.93735 9.596221,-8.66489 12.083645,-9.1569 2.487426,-0.49223 2.009112,-1.47677 2.009112,-2.36257 0,-0.88588 -0.38269,-2.8549 -1.052491,-3.15011 -0.669596,-0.2952 -3.282091,1.47833 -4.14307,1.67514 -0.860975,0.19692 -4.974766,0.49239 -5.549028,-0.492 -0.573843,-0.98381 4.640201,-11.0251 5.309346,-12.20638 0.669143,-1.18145 0.95743,-2.75689 -0.287619,-4.43017 -1.242988,-1.67382 -2.102639,-3.34712 -2.581187,-3.34712 z m -21.803662,20.71694 c 0.648862,-0.0103 1.091475,0.0553 1.091475,0.0553 0.363157,0.81727 -1.33149,3.38708 -2.905154,3.73746 -1.573209,0.35009 -5.204247,5.48843 -5.325148,4.32059 -0.121401,-1.16776 1.452425,-5.02154 3.268099,-6.77324 1.134747,-1.09488 2.789293,-1.32302 3.870728,-1.34011 z"/>
  <path d="M 361.9375,-212 C 507.2348,-212 528,-191.28677 528,-46.125 V 70.125 C 528,215.28618 507.2348,236 361.9375,236 H 214.0625 C 68.7652,236 48,215.28618 48,70.125 V -46.125 C 48,-191.28677 68.7652,-212 214.0625,-212 Z" clip-path="url(#clipPath1082-3-361)" transform="matrix(0.1348539,0,0,0.1348539,-4.9712558,261.01666)" style="opacity:0.4;fill:none;stroke:url(#linearGradient1108);stroke-width:8;stroke-linecap:round;stroke-linejoin:round"/>
 </g>
</svg>
