<svg xmlns="http://www.w3.org/2000/svg" xmlns:xlink="http://www.w3.org/1999/xlink" style="enable-background:new" width="256" height="256" version="1.0">
 <defs>
  <filter id="filter925" width="1.046" height="1.05" x="-.02" y="-.03" style="color-interpolation-filters:sRGB">
   <feGaussianBlur stdDeviation="2.32"/>
  </filter>
  <filter id="filter931" width="1.023" height="1.025" x="-.01" y="-.01" style="color-interpolation-filters:sRGB">
   <feGaussianBlur stdDeviation="1.16"/>
  </filter>
  <filter id="filter1736" width="1.024" height="1.024" x="-.01" y="-.01" style="color-interpolation-filters:sRGB">
   <feGaussianBlur stdDeviation=".147"/>
  </filter>
  <filter id="filter1748" width="1.027" height="1.021" x="-.01" y="-.01" style="color-interpolation-filters:sRGB">
   <feGaussianBlur stdDeviation=".599"/>
  </filter>
  <linearGradient id="linearGradient1108" x1="296" x2="296" y1="-212" y2="236" gradientUnits="userSpaceOnUse" xlink:href="#linearGradient1013"/>
  <linearGradient id="linearGradient1013">
   <stop style="stop-color:#ffffff" offset="0"/>
   <stop offset=".125" style="stop-color:#ffffff;stop-opacity:0.09803922"/>
   <stop offset=".925" style="stop-color:#000000;stop-opacity:0.09803922"/>
   <stop style="stop-color:#000000;stop-opacity:0.49803922" offset="1"/>
  </linearGradient>
  <clipPath id="clipPath1082-3-0" clipPathUnits="userSpaceOnUse">
   <path style="fill:#8c59d9" d="M 361.9375,-212 C 507.2348,-212 528,-191.28677 528,-46.125 V 70.125 C 528,215.28618 507.2348,236 361.9375,236 H 214.0625 C 68.7652,236 48,215.28618 48,70.125 V -46.125 C 48,-191.28677 68.7652,-212 214.0625,-212 Z"/>
  </clipPath>
 </defs>
 <g transform="translate(0,-44)">
  <g>
   <g>
    <path style="opacity:0.2;filter:url(#filter925)" d="m 162.53675,62.431991 c 72.64865,0 83.03125,10.356615 83.03125,82.937499 v 58.125 c 0,72.58059 -10.3826,82.9375 -83.03125,82.9375 h -73.9375 c -72.64865,0 -83.0312501,-10.35691 -83.0312501,-82.9375 v -58.125 c 0,-72.580884 10.3826001,-82.937499 83.0312501,-82.937499 z"/>
    <path d="m 162.53675,61.431991 c 72.64865,0 83.03125,10.356615 83.03125,82.937499 v 58.125 c 0,72.58059 -10.3826,82.9375 -83.03125,82.9375 h -73.9375 c -72.64865,0 -83.0312501,-10.35691 -83.0312501,-82.9375 v -58.125 c 0,-72.580884 10.3826001,-82.937499 83.0312501,-82.937499 z" style="opacity:0.1;filter:url(#filter931)"/>
   </g>
   <g>
    <path d="m 162.53675,60.431991 c 72.64865,0 83.03125,10.356615 83.03125,82.937499 v 58.125 c 0,72.58059 -10.3826,82.9375 -83.03125,82.9375 h -73.9375 c -72.64865,0 -83.0312501,-10.35691 -83.0312501,-82.9375 v -58.125 c 0,-72.580884 10.3826001,-82.937499 83.0312501,-82.937499 z" style="fill:#c8c4b7"/>
   </g>
  </g>
 </g>
 <path d="m 88.59924,240.43199 c -72.64865,0 -83.03125,-10.35258 -83.03125,-82.905 v -29.05114 h 240.00002 v 29.05114 c 0,72.55242 -10.3826,82.905 -83.03126,82.905 z" style="opacity:0.25;fill:#ffffff"/>
 <g transform="matrix(3.7795275,0,0,3.7795275,0.1171873,-866.95855)">
  <path d="m 51.670894,234.56725 c -0.583944,0.0743 -1.356107,1.47592 -1.952164,2.71597 -1.358771,2.82682 -2.763778,5.90779 -4.023182,9.71556 -1.252421,3.78671 -1.436748,3.64285 -0.174902,11.03078 1.321119,-0.11349 4.195708,0.18272 5.506317,0.62175 0.134848,-0.33304 0.238002,-0.86412 0.355994,-1.21848 1.851719,-5.56406 1.285289,-13.55655 1.133561,-19.93827 -0.05332,-2.24279 -0.391372,-2.98573 -0.845624,-2.92731 z M 24.243585,248.4823 c -1.907522,0.39609 3.17935,7.08165 4.635387,8.75824 1.320668,1.52062 4.414839,3.99322 6.893572,5.99732 0.531148,0.42939 1.003554,0.80025 1.451246,1.15055 0,0 0.300239,0.31047 0.443272,0.139 0.80857,-0.97084 3.36178,-4.65666 4.449503,-5.26316 l -0.186581,-0.21865 c -3.822621,-4.24491 -9.579268,-7.61185 -16.409647,-10.31413 -0.588963,-0.233 -1.004245,-0.30569 -1.27674,-0.24907 z" style="opacity:0.5;filter:url(#filter1736)"/>
  <path style="fill:#895c33" d="m 51.670893,234.56725 c -0.583943,0.0743 -1.356106,1.47592 -1.952163,2.71597 -1.358771,2.82682 -2.763778,5.90779 -4.023182,9.71556 -1.252421,3.78671 -1.436748,3.64285 -0.174902,11.03078 1.321119,-0.11349 4.195708,0.18272 5.506318,0.62175 0.134847,-0.33304 0.238,-0.86412 0.355994,-1.21848 1.851718,-5.56406 1.285288,-13.55655 1.13356,-19.93827 -0.05332,-2.24279 -0.391372,-2.98573 -0.845625,-2.92731 z M 24.243585,248.4823 c -1.907522,0.39609 3.17935,7.08165 4.635387,8.75824 1.320668,1.52062 4.414839,3.99322 6.893572,5.99732 0.531148,0.42939 1.003554,0.80025 1.451246,1.15055 0,0 0.30024,0.31047 0.443272,0.139 0.80857,-0.97084 3.36178,-4.65666 4.449503,-5.26316 l -0.186581,-0.21865 c -3.82262,-4.24491 -9.579268,-7.61185 -16.409647,-10.31413 -0.588963,-0.233 -1.004245,-0.30569 -1.27674,-0.24907 z"/>
  <path d="m 69.792019,222.28777 h 2.53516 c 9.25696,0 17.52167,-0.16447 24.89843,-0.59766 3.688381,-0.21659 7.155051,-0.49967 10.412111,-0.86328 1.95994,-0.21881 3.69852,-0.52907 5.50977,-0.8086 2.44686,-0.52976 5.2736,-1.14045 7.11719,-1.5039 1.60278,-0.31332 3.19794,-0.72575 4.77734,-1.21289 4.8786,-1.50663 9.58271,-3.8058 13.80664,-6.6875 l 0.0293,-0.002 c 0.20383,-0.144 0.37653,-0.31791 0.57812,-0.4629 0.40163,-0.28312 0.75726,-0.612 1.15235,-0.90234 0.58781,-0.50868 1.26066,-0.9391 1.80859,-1.48633 1.48786,-1.48595 2.83148,-3.11642 4.04297,-4.90429 1.21149,-1.78788 2.291,-3.73205 3.25195,-5.84766 0.96095,-2.11561 1.80283,-4.40194 2.53907,-6.87109 0.73623,-2.46916 1.36696,-5.12218 1.90429,-7.97071 0.41834,-2.21771 0.73517,-4.65952 1.04688,-7.12109 -1.12717,-4.01587 -3.23447,-8.04362 -6.64063,-11.95703 -13.94178,-16.01704 -29.4234,-35.91112 -33.41406,-59.40039 -0.83384,-3.38646 -2.47798,-6.208747 -4.7207,-8.498047 -7.5812,-7.00142 -20.841131,-7.78083 -29.853521,-6.54492 l 0.002,0.006 c -16.20081,3.85761 -25.82162,14.118467 -30.48632,27.408197 -0.56001,3.23346 -0.61263,6.74306 -0.0801,10.49609 1.84204,12.9814 7.32184,22.43332 8.03125,35.78711 0.96163,18.09846 -10.91866,30.79419 -2.66992,46.10547 0.18009,0.37811 0.26851,0.73313 0.4707,1.11524 1.71443,3.24109 4.66155,6.43152 8.66016,9.89062 0.64745,0.56017 1.38773,1.02307 2.14257,1.47461 0.93791,0.57411 2.07158,0.93587 3.14844,1.35938 z" transform="matrix(0.26458333,0,0,0.26458333,23.46767,234.21062)" style="opacity:0.5;filter:url(#filter1748)"/>
  <path style="fill:#c37e3f" d="m 41.933475,293.02426 h 0.670761 c 2.449237,0 4.635942,-0.0435 6.58771,-0.15813 0.975884,-0.0573 1.893107,-0.13221 2.754871,-0.22841 0.518567,-0.0579 0.978567,-0.13998 1.457793,-0.21394 0.647399,-0.14017 1.395307,-0.30175 1.88309,-0.39791 0.424069,-0.0829 0.846122,-0.19202 1.264005,-0.32091 1.290796,-0.39863 2.535425,-1.00695 3.653006,-1.7694 l 0.0078,-5.3e-4 c 0.05393,-0.0381 0.09962,-0.0841 0.152961,-0.12248 0.106264,-0.0749 0.200358,-0.16192 0.304892,-0.23874 0.155525,-0.13459 0.33355,-0.24847 0.478523,-0.39326 0.393663,-0.39316 0.749162,-0.82455 1.069702,-1.29759 0.320541,-0.47305 0.606161,-0.98744 0.860412,-1.5472 0.254252,-0.55975 0.476999,-1.16468 0.671796,-1.81797 0.194794,-0.6533 0.361675,-1.35524 0.503843,-2.10892 0.110686,-0.58677 0.194514,-1.23283 0.276987,-1.88412 -0.29823,-1.06253 -0.855787,-2.12821 -1.757,-3.16363 -3.688762,-4.23784 -7.784941,-9.50148 -8.840803,-15.71635 -0.22062,-0.89601 -0.655632,-1.64274 -1.249019,-2.24845 -2.005859,-1.85245 -5.514216,-2.05867 -7.898744,-1.73167 l 5.29e-4,0.002 c -4.286464,1.02066 -6.83197,3.73552 -8.066172,7.25176 -0.148169,0.85552 -0.162092,1.7841 -0.02119,2.77709 0.487373,3.43466 1.937237,5.93548 2.124935,9.46867 0.254431,4.78855 -2.888896,8.14763 -0.706416,12.19874 0.04765,0.10004 0.07104,0.19397 0.124539,0.29507 0.45361,0.85754 1.233368,1.70168 2.291334,2.6169 0.171304,0.14821 0.36717,0.27068 0.566888,0.39015 0.248156,0.1519 0.548106,0.24762 0.833025,0.35967 z"/>
  <path style="fill:none" d="m 53.936248,261.65822 c -1.845411,-7.49065 -18.748117,-4.67717 -17.227489,6.03916 0.486645,3.42953 1.93709,5.92752 2.124211,9.45545 0.311433,5.87111 -4.516925,9.58907 1.704823,15.07804 3.142167,2.77212 11.29321,0.47561 14.750722,-0.21021 6.630112,-1.31512 12.839607,-8.52024 7.482247,-14.66993 -3.686082,-4.23105 -7.78007,-9.48698 -8.834514,-15.69251 z"/>
  <path style="fill:#8e8e8e" d="m 51.267272,274.95714 c -3.729223,0.75146 -8.661324,2.26441 -10.484115,4.91702 2.610625,-1.91969 6.500767,-3.94912 10.484115,-4.91702 z"/>
  <path style="fill:#8e8e8e" d="m 59.028041,274.89823 c -0.3594,-0.30408 -0.77006,-0.52046 -1.257806,-0.6165 -1.138089,-0.22467 -2.584884,0.0149 -4.155302,0.23771 v 5.3e-4 c -0.03185,0.005 -0.08282,0.0165 -0.11524,0.0212 1.973263,-0.26257 3.867677,-0.1842 5.528348,0.35708 z"/>
  <path d="m 242.84766,200.81836 c 0.0458,-0.23329 0.11369,-0.42419 0.1582,-0.66016 0.40744,-2.15988 0.7134,-4.54446 1.01953,-6.93554 -0.0105,-0.034 -0.0343,-0.0676 -0.0449,-0.10157 -0.32197,2.69771 -0.68516,5.29116 -1.13281,7.69727 z" transform="matrix(0.26458333,0,0,0.26458333,-0.04080321,229.45027)" style="fill:#8e8e8e"/>
  <path d="m 228.11523,228.79492 c 0.61951,-0.16398 0.92283,-0.62961 1.34366,-0.97671 0.30033,-0.26604 0.21783,-0.20514 0.30033,-0.26604 0.53095,-0.43415 1.06203,-0.97549 1.5357,-1.37053 1.45959,-1.45772 2.77832,-3.05859 3.9668,-4.8125 1.18847,-1.7539 2.24676,-3.66092 3.18945,-5.73633 0.94269,-2.07541 1.76995,-4.31799 2.49219,-6.74023 0.039,-0.13076 0.0632,-0.29007 0.10156,-0.42188 0.0279,-0.10637 0.0257,-0.23816 0.0566,-0.34179 0.67525,-2.26463 1.23901,-4.7276 1.7461,-7.31055 0.44765,-2.40611 0.81084,-4.99956 1.13281,-7.69727 -1.16457,-3.73249 -3.22259,-7.46727 -6.44336,-11.09961 -3.66971,-5.1928 -8.62761,-8.40596 -14.28516,-10.25 2.06224,1.74482 3.57883,4.4267 4.20117,8.8125 0.94398,6.65254 -8.02309,17.87934 -9.80664,27.4375 1.98453,7.10548 4.96859,13.48333 9.03581,19.02657 z" transform="matrix(0.26458333,0,0,0.26458333,-0.04080321,229.45027)" style="fill:#8e8e8e"/>
  <path d="m 158.98633,240.43164 h 3.55078 c 6.04002,0 11.03706,-0.21764 16.24609,-0.39062 -0.49163,-4.16505 -1.02639,-9.35382 -1.61328,-12.90821 -0.0681,-0.41427 -0.13978,-0.82765 -0.21484,-1.23633 -2.63577,-10.81115 -23.09662,-10.05525 -25.2832,-25.46484 -0.45345,-3.19548 0.21426,-6.09857 1.71679,-8.72852 0.22874,-0.40036 0.63978,-0.73722 0.90625,-1.125 -4.49116,3.30252 -8.2885,6.53859 -10.11914,9.22852 -0.0257,4.41075 -6.25418,14.86131 0.5586,27.74609 1.71372,3.24114 4.65953,6.42544 8.65624,9.88477 1.39987,1.21149 3.1054,2.11575 4.97461,2.8418 z" transform="matrix(0.26458333,0,0,0.26458333,-0.04080321,229.45027)" style="fill:#8e8e8e"/>
  <path style="fill:none" d="m 47.325869,293.47051 c -0.395638,-2.75792 -0.3662,-5.55448 -1.834418,-7.61692 -1.471923,-2.06765 -3.024149,-3.81734 -4.948341,-5.68248"/>
  <path style="fill:none" d="m 60.213361,289.9347 c -1.518177,-1.93116 -2.711064,-4.75587 -3.095498,-7.46508 -0.298075,-2.10064 -0.03406,-5.90257 0.652536,-8.18806"/>
  <path style="fill:none" d="m 46.835381,289.54524 c -0.351689,-3.20754 -6.146591,-2.83842 -6.746297,-7.06474 -0.716147,-5.04689 9.129931,-7.33718 13.525708,-7.96094 3.265395,-0.46334 5.998626,-0.9976 6.524779,2.71036 0.249767,1.76018 -2.122525,4.7304 -2.594425,7.25934"/>
  <path d="m 178.7832,240.04102 c 2.62267,-0.0871 5.75631,-0.053 8.17969,-0.19532 3.6183,-0.21247 7.01771,-0.49095 10.21289,-0.84765 3.19518,-0.35671 6.18503,-0.7921 8.98242,-1.31836 2.7974,-0.52626 5.40318,-1.1441 7.82813,-1.86524 2.42494,-0.72113 4.67022,-1.54499 6.74805,-2.48633 2.07782,-0.94133 3.98809,-2.00063 5.74414,-3.1875 0.5968,-0.40336 1.07512,-0.91201 1.63671,-1.3457 -4.06724,-5.54359 -8.48422,-13.66988 -10.46875,-20.77539 -0.70753,-2.53262 -1.25521,-5.09561 -1.61523,-7.63281 -1.1266,-7.9395 -0.1282,-22.30916 2.4668,-30.94727 -4.30061,-0.8468 -9.77237,0.0582 -15.70703,0.90039 -13.83148,1.96286 -41.93724,8.29188 -49.4043,21.36133 7.27254,7.04935 13.13994,13.66182 18.70312,21.47656 2.64415,3.7146 4.00328,8.05823 4.86328,12.7168 0.0963,0.39579 0.16704,0.80792 0.21485,1.23633 0.58703,3.55512 1.12313,8.74451 1.61523,12.91016 z" transform="matrix(0.26458333,0,0,0.26458333,-0.04080321,229.45027)" style="fill:#e4e4e4"/>
  <path style="fill:#3f3f3f" d="m 45.491451,285.85359 c -1.471923,-2.06765 -3.024149,-3.81734 -4.948341,-5.68248 -0.39753,0.69586 -0.573993,1.46395 -0.454026,2.30939 0.578534,4.07712 5.99177,3.87754 6.689149,6.73794 -0.227536,-1.23258 -0.587196,-2.38203 -1.286782,-3.36485 z"/>
  <path style="fill:#3f3f3f" d="m 57.770399,274.28156 c -0.686599,2.28549 -0.950611,6.08742 -0.652536,8.18806 0.09525,0.67128 0.240114,1.34951 0.427315,2.01963 0.4719,-2.52894 2.844191,-5.49915 2.594425,-7.25934 -0.273116,-1.92473 -1.140926,-2.70642 -2.369175,-2.94836 z"/>
  <path style="fill:none" d="m 50.853913,273.0156 c 1.039408,0.57316 5.681795,0.79616 5.457907,-0.86037 -0.220472,-1.63129 -0.476684,-3.00692 -0.825577,-3.89214 -0.348922,-0.8852 -1.040979,-2.5581 -2.045364,-3.17824 -0.631137,-0.38967 -2.148446,-0.44956 -2.950974,-0.0951 -0.802526,0.35442 -1.637393,4.18273 -1.470079,5.37239 0.218518,1.55434 0.794701,2.08048 1.834108,2.65363 z"/>
  <path style="fill:#ffffff" d="m 50.489883,264.98961 c -0.802518,0.35444 -1.637386,4.18278 -1.470075,5.37241 0.21851,1.55429 0.794701,2.0805 1.834105,2.65358 1.039408,0.57316 5.681795,0.79616 5.457907,-0.86037 -0.220472,-1.63129 -0.476684,-3.00692 -0.825577,-3.89214 -0.348922,-0.8852 -1.040979,-2.5581 -2.045364,-3.17824 -0.631137,-0.38967 -2.148446,-0.44956 -2.950974,-0.0951 z"/>
  <circle style="fill:#3f3f3f" cx="13.039" cy="274.843" r="1.494" transform="rotate(-8.0762508)"/>
  <path style="fill:none" d="m 43.111257,275.85954 c 2.029592,-1.33846 3.648317,-2.73276 2.786679,-5.79846 -0.335666,-1.19457 -2.225829,-3.02773 -3.328692,-3.53774 -2.785443,-1.28818 -4.09036,1.82103 -3.53896,4.17455 0.409714,1.74917 2.051384,6.50012 4.080973,5.16165 z"/>
  <path style="fill:#ffffff" d="m 45.897936,270.06108 c -0.335666,-1.19457 -2.225829,-3.02773 -3.328692,-3.53774 -2.785443,-1.28818 -4.09036,1.82103 -3.53896,4.17455 0.409714,1.74917 2.051384,6.50012 4.080973,5.16165 2.029592,-1.33846 3.648317,-2.73276 2.786679,-5.79846 z"/>
  <circle style="fill:#3f3f3f" cx="5.075" cy="274.843" r="1.494" transform="rotate(-8.0762508)"/>
  <path style="opacity:0.4;fill:none;stroke:url(#linearGradient1108);stroke-width:8;stroke-linecap:round;stroke-linejoin:round" d="M 361.9375,-212 C 507.2348,-212 528,-191.28677 528,-46.125 V 70.125 C 528,215.28618 507.2348,236 361.9375,236 H 214.0625 C 68.7652,236 48,215.28618 48,70.125 V -46.125 C 48,-191.28677 68.7652,-212 214.0625,-212 Z" clip-path="url(#clipPath1082-3-0)" transform="matrix(0.13229167,0,0,0.13229167,-4.9078063,261.77625)"/>
 </g>
</svg>
