<svg xmlns="http://www.w3.org/2000/svg" xmlns:xlink="http://www.w3.org/1999/xlink" width="256" height="256" version="1.1" viewBox="0 0 67.73 67.73">
 <defs>
  <linearGradient id="linearGradient1108" x1="296" x2="296" y1="-212" y2="236" gradientUnits="userSpaceOnUse" xlink:href="#linearGradient1013"/>
  <linearGradient id="linearGradient1013">
   <stop offset="0" style="stop-color:#ffffff"/>
   <stop style="stop-color:#ffffff;stop-opacity:0.09803922" offset=".125"/>
   <stop style="stop-color:#000000;stop-opacity:0.09803922" offset=".925"/>
   <stop offset="1" style="stop-color:#000000;stop-opacity:0.49803922"/>
  </linearGradient>
  <clipPath id="clipPath1082-3-361" clipPathUnits="userSpaceOnUse">
   <path d="M 361.9375,-212 C 507.2348,-212 528,-191.28677 528,-46.125 V 70.125 C 528,215.28618 507.2348,236 361.9375,236 H 214.0625 C 68.7652,236 48,215.28618 48,70.125 V -46.125 C 48,-191.28677 68.7652,-212 214.0625,-212 Z" style="fill:#8c59d9"/>
  </clipPath>
  <filter style="color-interpolation-filters:sRGB" id="filter4569" width="1.023" height="1.025" x="-.01" y="-.01">
   <feGaussianBlur stdDeviation="1.16"/>
  </filter>
  <filter style="color-interpolation-filters:sRGB" id="filter939" width="1.046" height="1.05" x="-.02" y="-.03">
   <feGaussianBlur stdDeviation="2.32"/>
  </filter>
 </defs>
 <g transform="translate(0,-229.26666)">
  <path style="opacity:0.2;filter:url(#filter939)" d="m 162.53675,5.5680001 c 72.64865,0 83.03125,10.3566149 83.03125,82.9375049 v 58.125005 c 0,72.58059 -10.3826,82.9375 -83.03125,82.9375 H 88.599254 C 15.9506,229.56801 5.568,219.2111 5.568,146.63051 V 88.505505 c 0,-72.58089 10.3826,-82.9375049 83.031254,-82.9375049 z" transform="matrix(0.26970779,0,0,0.26970779,-1.9098094e-8,231.46531)"/>
  <path d="m 43.837429,232.42763 c 19.593907,0 22.394176,2.79326 22.394176,22.36889 v 15.67677 c 0,19.57555 -2.800269,22.36889 -22.394176,22.36889 H 23.89591 c -19.5939088,0 -22.394177,-2.79334 -22.394177,-22.36889 v -15.67677 c 0,-19.57563 2.8002682,-22.36889 22.394177,-22.36889 z" style="opacity:0.1;fill:none;stroke:#000000;stroke-width:1.07883108;stroke-linecap:round;stroke-linejoin:round"/>
  <path d="m 162.53675,3.5680001 c 72.64865,0 83.03125,10.3566149 83.03125,82.9375049 v 58.125005 c 0,72.58059 -10.3826,82.9375 -83.03125,82.9375 H 88.599254 C 15.9506,227.56801 5.568,217.2111 5.568,144.63051 V 86.505505 c 0,-72.58089 10.3826,-82.9375049 83.031254,-82.9375049 z" transform="matrix(0.26970779,0,0,0.26970779,-1.9098094e-8,231.46531)" style="opacity:0.1;filter:url(#filter4569)"/>
  <path style="fill:#a4c639" d="m 43.837427,232.42763 c 19.593907,0 22.394175,2.79326 22.394175,22.36889 v 15.67677 c 0,19.57555 -2.800268,22.36889 -22.394175,22.36889 h -19.94152 c -19.5939074,0 -22.3941756,-2.79334 -22.3941756,-22.36889 v -15.67677 c 0,-19.57563 2.8002682,-22.36889 22.3941756,-22.36889 z"/>
  <path d="M 361.9375,-212 C 507.2348,-212 528,-191.28677 528,-46.125 V 70.125 C 528,215.28618 507.2348,236 361.9375,236 H 214.0625 C 68.7652,236 48,215.28618 48,70.125 V -46.125 C 48,-191.28677 68.7652,-212 214.0625,-212 Z" clip-path="url(#clipPath1082-3-361)" transform="matrix(0.1348539,0,0,0.1348539,-4.9712559,261.01666)" style="opacity:0.4;fill:none;stroke:url(#linearGradient1108);stroke-width:8;stroke-linecap:round;stroke-linejoin:round"/>
  <g transform="matrix(1.0193681,0,0,1.0193681,-0.60642308,-5.048177)" style="fill:#e8e8e8">
   <path d="m 15.22056,259.20085 c -1.626797,0 -2.936454,1.12176 -2.936454,2.51754 v 12.58485 c 0,1.39384 1.309657,2.51556 2.936454,2.51556 1.626793,0 2.936453,-1.12172 2.936453,-2.51753 V 261.7176 c 0,-1.39578 -1.30966,-2.51752 -2.936453,-2.51752 z" style="fill:#e8e8e8"/>
   <path d="m 97.933594,27.830078 c -0.327098,0.01923 -0.65837,0.07121 -0.988282,0.16211 -2.639563,0.707525 -4.193591,3.401431 -3.486328,6.041015 l 6.232422,23.255859 C 68.656555,72.19121 68.630859,110.67383 68.630859,110.67383 v 62.80469 c 0,11.66063 8.799001,21.05078 19.732422,21.05078 h 9.863281 v 19.73242 c 0,5.46051 5.631378,9.86328 11.091798,9.86328 5.46781,0 11.09961,-4.40277 11.09961,-9.86328 v -19.73047 h 14.79687 v 19.73047 c -0.008,5.46051 5.63178,9.86328 11.09961,9.86328 5.46042,0 11.09766,-4.40277 11.09766,-9.86328 V 194.5293 h 9.86719 c 10.93562,0 19.73242,-9.39015 19.73242,-21.05078 v -62.80469 c 0,0 -0.0275,-38.479431 -31.07031,-53.380861 l 6.23047,-23.259766 c 0.71027,-2.640038 -0.84289,-5.333641 -3.48438,-6.041015 -2.64142,-0.70749 -5.33462,0.848394 -6.04492,3.488281 l -5.98633,22.36914 c -5.50481,-1.500434 -11.73491,-2.36914 -18.83789,-2.36914 -7.10335,0 -13.33288,0.870774 -18.83398,2.371093 l -5.98633,-22.373046 c -0.53271,-1.979188 -2.18288,-3.348578 -4.0918,-3.611328 h -0.0039 c -0.317399,-0.04195 -0.641652,-0.05634 -0.96875,-0.03711 z m 0.287109,48.3125 a 7.3989386,7.3989386 0 0 1 7.398437,7.398438 7.3989386,7.3989386 0 0 1 -7.398437,7.398437 7.3989386,7.3989386 0 0 1 -7.398437,-7.398437 7.3989386,7.3989386 0 0 1 7.398437,-7.398438 z m 59.191407,0 a 7.3989387,7.3989387 0 0 1 7.39844,7.398438 7.3989387,7.3989387 0 0 1 -7.39844,7.398437 7.3989387,7.3989387 0 0 1 -7.39844,-7.398437 7.3989387,7.3989387 0 0 1 7.39844,-7.398438 z M 85.642578,105.73828 h 84.347652 c 1.22971,0 2.22071,1.64971 2.22071,3.69922 0,2.04951 -0.991,3.69922 -2.22071,3.69922 H 85.642578 c -1.228224,0 -2.220703,-1.64971 -2.220703,-3.69922 0,-2.04951 0.992479,-3.69922 2.220703,-3.69922 z" transform="matrix(0.26458333,0,0,0.26458333,0,229.26666)" style="fill:#e8e8e8"/>
   <path d="m 52.415641,259.20085 c -1.626797,0 -2.936453,1.12176 -2.936453,2.51754 v 12.58485 c 0,1.39384 1.309656,2.51556 2.936453,2.51556 1.626795,0 2.936455,-1.12172 2.936455,-2.51753 v -12.58485 c 0,-1.39381 -1.30966,-2.51557 -2.936455,-2.51557 z" style="fill:#e8e8e8"/>
  </g>
  <path style="opacity:0.1;fill:#ffffff" d="m 33.866666,232.42763 v 60.41455 h 9.970761 c 19.593907,0 22.394175,-2.79334 22.394175,-22.36889 v -15.67677 c 0,-19.57563 -2.800268,-22.36889 -22.394175,-22.36889 z"/>
  <path style="opacity:0.1;fill:#ffffff" d="m 23.895907,292.84218 c -19.5939074,0 -22.3941756,-2.79326 -22.3941756,-22.36889 v -7.83838 H 66.231602 v 7.83838 c 0,19.57563 -2.800268,22.36889 -22.394175,22.36889 z"/>
 </g>
</svg>
