<svg width="256" height="256" version="1.1" viewBox="0 0 67.73 67.73" xmlns="http://www.w3.org/2000/svg" xmlns:xlink="http://www.w3.org/1999/xlink">
 <defs>
  <linearGradient id="linearGradient1108" x1="296" x2="296" y1="-212" y2="236" gradientUnits="userSpaceOnUse">
   <stop style="stop-color:#ffffff" offset="0"/>
   <stop style="stop-color:#ffffff;stop-opacity:.09803922" offset=".125"/>
   <stop style="stop-color:#000000;stop-opacity:.09803922" offset=".925"/>
   <stop style="stop-color:#000000;stop-opacity:.49803922" offset="1"/>
  </linearGradient>
  <clipPath id="clipPath1082-3-361">
   <path d="M 361.9375,-212 C 507.2348,-212 528,-191.28677 528,-46.125 V 70.125 C 528,215.28618 507.2348,236 361.9375,236 H 214.0625 C 68.7652,236 48,215.28618 48,70.125 V -46.125 C 48,-191.28677 68.7652,-212 214.0625,-212 Z" style="fill:#8c59d9"/>
  </clipPath>
  <filter id="filter4569" x="-.01" y="-.01" width="1.023" height="1.025" style="color-interpolation-filters:sRGB">
   <feGaussianBlur stdDeviation="1.16"/>
  </filter>
  <filter id="filter939" x="-.02" y="-.03" width="1.046" height="1.05" style="color-interpolation-filters:sRGB">
   <feGaussianBlur stdDeviation="2.32"/>
  </filter>
 </defs>
 <g transform="translate(0,-229.26666)">
  <path transform="matrix(.26970779 0 0 .26970779 -1.9098094e-8 231.46531)" d="m162.53675 5.5680001c72.64865 0 83.03125 10.356615 83.03125 82.937505v58.125005c0 72.58059-10.3826 82.9375-83.03125 82.9375h-73.937496c-72.648654 0-83.031254-10.35691-83.031254-82.9375v-58.125005c0-72.58089 10.3826-82.937505 83.031254-82.937505z" style="filter:url(#filter939);opacity:.2"/>
  <path d="m43.837429 232.42763c19.593907 0 22.394176 2.79326 22.394176 22.36889v15.67677c0 19.57555-2.800269 22.36889-22.394176 22.36889h-19.941519c-19.593909 0-22.394177-2.79334-22.394177-22.36889v-15.67677c0-19.57563 2.8002682-22.36889 22.394177-22.36889z" style="fill:none;opacity:.1;stroke-linecap:round;stroke-linejoin:round;stroke-width:1.0788311;stroke:#000000"/>
  <path transform="matrix(.26970779 0 0 .26970779 -1.9098094e-8 231.46531)" d="m162.53675 3.5680001c72.64865 0 83.03125 10.356615 83.03125 82.937505v58.125005c0 72.58059-10.3826 82.9375-83.03125 82.9375h-73.937496c-72.648654 0-83.031254-10.35691-83.031254-82.9375v-58.125005c0-72.58089 10.3826-82.937505 83.031254-82.937505z" style="filter:url(#filter4569);opacity:.1"/>
  <path d="m43.837427 232.42763c19.593907 0 22.394175 2.79326 22.394175 22.36889v15.67677c0 19.57555-2.800268 22.36889-22.394175 22.36889h-19.94152c-19.593907 0-22.394176-2.79334-22.394176-22.36889v-15.67677c0-19.57563 2.8002682-22.36889 22.394176-22.36889z" style="fill:#a4c639"/>
  <path transform="matrix(.1348539 0 0 .1348539 -4.9712559 261.01666)" d="M 361.9375,-212 C 507.2348,-212 528,-191.28677 528,-46.125 V 70.125 C 528,215.28618 507.2348,236 361.9375,236 H 214.0625 C 68.7652,236 48,215.28618 48,70.125 V -46.125 C 48,-191.28677 68.7652,-212 214.0625,-212 Z" clip-path="url(#clipPath1082-3-361)" style="fill:none;opacity:.4;stroke-linecap:round;stroke-linejoin:round;stroke-width:8;stroke:url(#linearGradient1108)"/>
  <g transform="matrix(1.0193681 0 0 1.0193681 -.60642308 -5.048177)" style="fill:#e8e8e8">
   <path d="m15.22056 259.20085c-1.626797 0-2.936454 1.12176-2.936454 2.51754v12.58485c0 1.39384 1.309657 2.51556 2.936454 2.51556 1.626793 0 2.936453-1.12172 2.936453-2.51753v-12.58367c0-1.39578-1.30966-2.51752-2.936453-2.51752z" style="fill:#e8e8e8"/>
   <path transform="matrix(.26458333 0 0 .26458333 0 229.26666)" d="m97.933594 27.830078c-0.327098 0.01923-0.65837 0.07121-0.988282 0.16211-2.639563 0.707525-4.193591 3.401431-3.486328 6.041015l6.232422 23.255859c-31.034851 14.902148-31.060547 53.384768-31.060547 53.384768v62.80469c0 11.66063 8.799001 21.05078 19.732422 21.05078h9.863281v19.73242c0 5.46051 5.631378 9.86328 11.091798 9.86328 5.46781 0 11.09961-4.40277 11.09961-9.86328v-19.73047h14.79687v19.73047c-8e-3 5.46051 5.63178 9.86328 11.09961 9.86328 5.46042 0 11.09766-4.40277 11.09766-9.86328v-19.73242h9.86719c10.93562 0 19.73242-9.39015 19.73242-21.05078v-62.80469s-0.0275-38.479431-31.07031-53.380861l6.23047-23.259766c0.71027-2.640038-0.84289-5.333641-3.48438-6.041015-2.64142-0.70749-5.33462 0.848394-6.04492 3.488281l-5.98633 22.36914c-5.50481-1.500434-11.73491-2.36914-18.83789-2.36914-7.10335 0-13.33288 0.870774-18.83398 2.371093l-5.98633-22.373046c-0.53271-1.979188-2.18288-3.348578-4.0918-3.611328h-0.0039c-0.317399-0.04195-0.641652-0.05634-0.96875-0.03711zm0.287109 48.3125a7.3989386 7.3989386 0 0 1 7.398437 7.398438 7.3989386 7.3989386 0 0 1-7.398437 7.398437 7.3989386 7.3989386 0 0 1-7.398437-7.398437 7.3989386 7.3989386 0 0 1 7.398437-7.398438zm59.191407 0a7.3989387 7.3989387 0 0 1 7.39844 7.398438 7.3989387 7.3989387 0 0 1-7.39844 7.398437 7.3989387 7.3989387 0 0 1-7.39844-7.398437 7.3989387 7.3989387 0 0 1 7.39844-7.398438zm-71.769532 29.595702h84.347652c1.22971 0 2.22071 1.64971 2.22071 3.69922s-0.991 3.69922-2.22071 3.69922h-84.347652c-1.228224 0-2.220703-1.64971-2.220703-3.69922s0.992479-3.69922 2.220703-3.69922z" style="fill:#e8e8e8"/>
   <path d="m52.415641 259.20085c-1.626797 0-2.936453 1.12176-2.936453 2.51754v12.58485c0 1.39384 1.309656 2.51556 2.936453 2.51556 1.626795 0 2.936455-1.12172 2.936455-2.51753v-12.58485c0-1.39381-1.30966-2.51557-2.936455-2.51557z" style="fill:#e8e8e8"/>
  </g>
  <path d="m33.866666 232.42763v60.41455h9.970761c19.593907 0 22.394175-2.79334 22.394175-22.36889v-15.67677c0-19.57563-2.800268-22.36889-22.394175-22.36889z" style="fill:#ffffff;opacity:.1"/>
  <path d="m23.895907 292.84218c-19.593907 0-22.394176-2.79326-22.394176-22.36889v-7.83838h64.729871v7.83838c0 19.57563-2.800268 22.36889-22.394175 22.36889z" style="fill:#ffffff;opacity:.1"/>
 </g>
</svg>
