<svg xmlns="http://www.w3.org/2000/svg" xmlns:xlink="http://www.w3.org/1999/xlink" width="256" height="256" version="1.1" viewBox="0 0 67.73 67.73">
 <defs>
  <linearGradient id="linearGradient1108" x1="296" x2="296" y1="-212" y2="236" gradientUnits="userSpaceOnUse" xlink:href="#linearGradient1013"/>
  <linearGradient id="linearGradient1013">
   <stop style="stop-color:#ffffff" offset="0"/>
   <stop offset=".125" style="stop-color:#ffffff;stop-opacity:0.09803922"/>
   <stop offset=".925" style="stop-color:#000000;stop-opacity:0.09803922"/>
   <stop style="stop-color:#000000;stop-opacity:0.49803922" offset="1"/>
  </linearGradient>
  <clipPath id="clipPath1082-3-361" clipPathUnits="userSpaceOnUse">
   <path style="fill:#8c59d9" d="M 361.9375,-212 C 507.2348,-212 528,-191.28677 528,-46.125 V 70.125 C 528,215.28618 507.2348,236 361.9375,236 H 214.0625 C 68.7652,236 48,215.28618 48,70.125 V -46.125 C 48,-191.28677 68.7652,-212 214.0625,-212 Z"/>
  </clipPath>
  <linearGradient id="linearGradient4245">
   <stop style="stop-color:#9c039e" offset="0"/>
   <stop style="stop-color:#e050e2" offset="1"/>
  </linearGradient>
  <filter id="filter4569" width="1.023" height="1.025" x="-.01" y="-.01" style="color-interpolation-filters:sRGB">
   <feGaussianBlur stdDeviation="1.16"/>
  </filter>
  <filter id="filter939" width="1.046" height="1.05" x="-.02" y="-.03" style="color-interpolation-filters:sRGB">
   <feGaussianBlur stdDeviation="2.32"/>
  </filter>
  <linearGradient id="linearGradient1537" x1="88" x2="256" y1="28" y2="284" gradientTransform="matrix(0.26970781,0,0,0.26970781,-7.1289179,220.5605)" gradientUnits="userSpaceOnUse" xlink:href="#linearGradient4245"/>
  <filter id="filter2450" width="1.098" height="1.095" x="-.05" y="-.05" style="color-interpolation-filters:sRGB">
   <feGaussianBlur stdDeviation="3.924"/>
  </filter>
 </defs>
 <g transform="translate(0,-229.26666)">
  <path d="m 162.53675,5.5680001 c 72.64865,0 83.03125,10.3566149 83.03125,82.9375049 v 58.125005 c 0,72.58059 -10.3826,82.9375 -83.03125,82.9375 H 88.599254 C 15.9506,229.56801 5.568,219.2111 5.568,146.63051 V 88.505505 c 0,-72.58089 10.3826,-82.9375049 83.031254,-82.9375049 z" transform="matrix(0.26970779,0,0,0.26970779,-1.9098094e-8,231.46531)" style="opacity:0.2;filter:url(#filter939)"/>
  <path style="opacity:0.1;fill:none;stroke:#000000;stroke-width:1.07883108;stroke-linecap:round;stroke-linejoin:round" d="m 43.837429,232.42763 c 19.593907,0 22.394176,2.79326 22.394176,22.36889 v 15.67677 c 0,19.57555 -2.800269,22.36889 -22.394176,22.36889 H 23.89591 c -19.5939088,0 -22.394177,-2.79334 -22.394177,-22.36889 v -15.67677 c 0,-19.57563 2.8002682,-22.36889 22.394177,-22.36889 z"/>
  <path style="opacity:0.1;filter:url(#filter4569)" d="m 162.53675,3.5680001 c 72.64865,0 83.03125,10.3566149 83.03125,82.9375049 v 58.125005 c 0,72.58059 -10.3826,82.9375 -83.03125,82.9375 H 88.599254 C 15.9506,227.56801 5.568,217.2111 5.568,144.63051 V 86.505505 c 0,-72.58089 10.3826,-82.9375049 83.031254,-82.9375049 z" transform="matrix(0.26970779,0,0,0.26970779,-1.9098094e-8,231.46531)"/>
  <path d="m 43.837427,232.42763 c 19.593907,0 22.394175,2.79326 22.394175,22.36889 v 15.67677 c 0,19.57555 -2.800268,22.36889 -22.394175,22.36889 h -19.94152 c -19.5939074,0 -22.3941756,-2.79334 -22.3941756,-22.36889 v -15.67677 c 0,-19.57563 2.8002682,-22.36889 22.3941756,-22.36889 z" style="fill:url(#linearGradient1537)"/>
  <path d="m 33.866666,232.42763 v 60.41455 h 9.970761 c 19.593907,0 22.394175,-2.79334 22.394175,-22.36889 v -15.67677 c 0,-19.57563 -2.800268,-22.36889 -22.394175,-22.36889 z" style="opacity:0.1;fill:#090000"/>
  <path d="m 23.895907,292.84218 c -19.5939074,0 -22.3941756,-2.79325 -22.3941756,-22.36884 v -7.83837 H 66.231602 v 7.83837 c 0,19.57559 -2.800268,22.36884 -22.394175,22.36884 z" style="opacity:0.1;fill:#181818"/>
  <path style="fill:none;stroke:#060303;stroke-width:0.49609375;stroke-linecap:round;stroke-linejoin:round"/>
  <path style="fill:none;stroke:#060303;stroke-width:0.49609375;stroke-linecap:round;stroke-linejoin:round"/>
  <path d="M 5.6757812 138.78711 C 5.6550116 138.86215 5.6159869 138.93667 5.5957031 139.01172 C 5.5957031 139.01172 5.6751301 138.95946 5.6757812 138.95898 L 5.6757812 138.78711 z" transform="matrix(0.26458333,0,0,0.26458333,0,229.26666)" style="fill:#ffffff"/>
  <path style="fill:#0f0f0f;filter:url(#filter2450);opacity:0.3" d="M 8.5703125 200.51367 C 9.0918981 203.22078 9.6866968 205.77394 10.390625 208.13477 C 11.126855 210.60392 11.968738 212.89025 12.929688 215.00586 C 13.890637 217.12147 14.970148 219.06564 16.181641 220.85352 C 17.393134 222.64139 18.736749 224.27185 20.224609 225.75781 C 21.71247 227.24377 23.344712 228.58506 25.134766 229.79492 C 26.924819 231.00478 28.872165 232.0834 30.990234 233.04297 C 33.108304 234.00254 35.39723 234.84302 37.869141 235.57812 C 40.341052 236.31323 42.99608 236.94402 45.847656 237.48047 C 48.699233 238.01692 51.74684 238.4606 55.003906 238.82422 C 58.260972 239.18783 61.727635 239.47091 65.416016 239.6875 C 72.792777 240.12069 81.057489 240.28516 90.314453 240.28516 L 148.06836 240.28516 C 150.80379 231.02599 151.59249 219.81817 144.40234 210.41406 C 132.58403 194.92359 103.41286 148.72982 129.19922 134.17188 C 129.19922 134.17188 148.27561 159.18934 168.57422 161.57422 C 168.57423 161.57422 176.86888 183.43695 195.21875 172.4668 C 201.76666 168.91215 204.45319 153.94513 197.8457 144.40039 L 192.64258 136.77734 C 192.64258 136.77734 178.95494 93.864907 166.6875 81.464844 C 166.6875 81.464844 166.41417 61.326487 170.66016 51.328125 C 170.66016 51.328125 162.65631 52.210363 160.29492 56.503906 C 160.29492 56.503906 157.92805 43.337191 160.29492 40.96875 C 160.29492 40.96875 140.9706 53.570094 139.5625 61.681641 C 139.5625 61.681641 84.509561 45.236988 46.273438 82.392578 C 46.273438 82.392578 72.182638 80.477794 77.371094 82.392578 C 77.371094 82.392578 23.937323 112.95113 15.255859 144.31641 L 15.255859 144.47852 C 15.395335 144.37609 31.197427 132.77302 35.904297 134.16797 C 29.727482 147.48869 22.451109 167.3348 16.115234 187.38867 C 16.179723 188.24133 12.606761 194.06384 8.5703125 200.51367 z" transform="matrix(0.26458333,0,0,0.26458333,0,229.26666)"/>
  <path d="M 8.5703125 200.51367 C 9.0918981 203.22078 9.6866968 205.77394 10.390625 208.13477 C 11.126855 210.60392 11.968738 212.89025 12.929688 215.00586 C 13.890637 217.12147 14.970148 219.06564 16.181641 220.85352 C 17.393134 222.64139 18.736749 224.27185 20.224609 225.75781 C 21.71247 227.24377 23.344712 228.58506 25.134766 229.79492 C 26.924819 231.00478 28.872165 232.0834 30.990234 233.04297 C 33.108304 234.00254 35.39723 234.84302 37.869141 235.57812 C 40.341052 236.31323 42.99608 236.94402 45.847656 237.48047 C 48.699233 238.01692 51.74684 238.4606 55.003906 238.82422 C 58.260972 239.18783 61.727635 239.47091 65.416016 239.6875 C 72.792777 240.12069 81.057489 240.28516 90.314453 240.28516 L 148.06836 240.28516 C 150.80379 231.02599 151.59249 219.81817 144.40234 210.41406 C 132.58403 194.92359 103.41286 148.72982 129.19922 134.17188 C 129.19922 134.17188 148.27561 159.18934 168.57422 161.57422 C 168.57423 161.57422 176.86888 183.43695 195.21875 172.4668 C 201.76666 168.91215 204.45319 153.94513 197.8457 144.40039 L 192.64258 136.77734 C 192.64258 136.77734 178.95494 93.864907 166.6875 81.464844 C 166.6875 81.464844 166.41417 61.326487 170.66016 51.328125 C 170.66016 51.328125 162.65631 52.210363 160.29492 56.503906 C 160.29492 56.503906 157.92805 43.337191 160.29492 40.96875 C 160.29492 40.96875 140.9706 53.570094 139.5625 61.681641 C 139.5625 61.681641 84.509561 45.236988 46.273438 82.392578 C 46.273438 82.392578 72.182638 80.477794 77.371094 82.392578 C 77.371094 82.392578 23.937323 112.95113 15.255859 144.31641 L 15.255859 144.47852 C 15.395335 144.37609 31.197427 132.77302 35.904297 134.16797 C 29.727482 147.48869 22.451109 167.3348 16.115234 187.38867 C 16.179723 188.24133 12.606761 194.06384 8.5703125 200.51367 z" transform="matrix(0.26458333,0,0,0.26458333,0,229.26666)" style="fill:#f3f3f3"/>
  <path style="opacity:0.4;fill:none;stroke:url(#linearGradient1108);stroke-width:8;stroke-linecap:round;stroke-linejoin:round" d="M 361.9375,-212 C 507.2348,-212 528,-191.28677 528,-46.125 V 70.125 C 528,215.28618 507.2348,236 361.9375,236 H 214.0625 C 68.7652,236 48,215.28618 48,70.125 V -46.125 C 48,-191.28677 68.7652,-212 214.0625,-212 Z" clip-path="url(#clipPath1082-3-361)" transform="matrix(0.1348539,0,0,0.1348539,-4.9712559,261.01666)"/>
 </g>
</svg>
