<svg xmlns="http://www.w3.org/2000/svg" xmlns:xlink="http://www.w3.org/1999/xlink" width="256" height="256" version="1.1" viewBox="0 0 67.73 67.73">
 <defs>
  <linearGradient id="linearGradient1159" x1="196" x2="132" y1="160" y2="160" gradientTransform="matrix(0.26970778,0,0,0.26970778,-7.1289177,220.56049)" gradientUnits="userSpaceOnUse" xlink:href="#linearGradient4319"/>
  <filter style="color-interpolation-filters:sRGB" id="filter1178" width="1.027" height="1.021" x="-.01" y="-.01">
   <feGaussianBlur stdDeviation=".658"/>
  </filter>
  <linearGradient id="linearGradient1193" x1="160" x2="160" y1="76" y2="236" gradientUnits="userSpaceOnUse" xlink:href="#linearGradient1191"/>
  <linearGradient id="linearGradient1191">
   <stop style="stop-color:#000000;stop-opacity:0" offset="0"/>
   <stop offset=".519" style="stop-color:#000000"/>
   <stop style="stop-color:#000000;stop-opacity:0" offset="1"/>
  </linearGradient>
  <linearGradient id="linearGradient1108" x1="296" x2="296" y1="-212" y2="236" gradientUnits="userSpaceOnUse" xlink:href="#linearGradient1013"/>
  <linearGradient id="linearGradient1013">
   <stop offset="0" style="stop-color:#ffffff"/>
   <stop style="stop-color:#ffffff;stop-opacity:0.09803922" offset=".125"/>
   <stop style="stop-color:#000000;stop-opacity:0.09803922" offset=".925"/>
   <stop offset="1" style="stop-color:#000000;stop-opacity:0.49803922"/>
  </linearGradient>
  <clipPath id="clipPath1082-3-452" clipPathUnits="userSpaceOnUse">
   <path d="M 361.9375,-212 C 507.2348,-212 528,-191.28677 528,-46.125 V 70.125 C 528,215.28618 507.2348,236 361.9375,236 H 214.0625 C 68.7652,236 48,215.28618 48,70.125 V -46.125 C 48,-191.28677 68.7652,-212 214.0625,-212 Z" style="fill:#8c59d9"/>
  </clipPath>
  <linearGradient id="linearGradient4319">
   <stop style="stop-color:#fed965" offset="0"/>
   <stop style="stop-color:#fed965;stop-opacity:0" offset="1"/>
  </linearGradient>
  <filter style="color-interpolation-filters:sRGB" id="filter1112" width="1.046" height="1.05" x="-.02" y="-.03">
   <feGaussianBlur stdDeviation="2.32"/>
  </filter>
  <filter style="color-interpolation-filters:sRGB" id="filter4569" width="1.023" height="1.025" x="-.01" y="-.01">
   <feGaussianBlur stdDeviation="1.16"/>
  </filter>
 </defs>
 <g transform="translate(0,-229.26666)">
  <path d="m 188.96876,43.999995 c 72.64865,0 83.03125,10.356615 83.03125,82.937505 v 58.125 c 0,72.58059 -10.3826,82.9375 -83.03125,82.9375 h -73.9375 C 42.382606,268 32.000006,257.64309 32.000006,185.0625 v -58.125 c 0,-72.58089 10.3826,-82.937505 83.031254,-82.937505 z" transform="matrix(0.26970778,0,0,0.26970778,-7.1289177,220.56049)" style="opacity:0.1;filter:url(#filter4569)"/>
  <path style="opacity:0.2;filter:url(#filter1112)" d="m 188.96876,45.999995 c 72.64865,0 83.03125,10.356615 83.03125,82.937505 v 58.125 c 0,72.58059 -10.3826,82.9375 -83.03125,82.9375 h -73.9375 C 42.382606,270 32.000006,259.64309 32.000006,187.0625 v -58.125 c 0,-72.58089 10.3826,-82.937505 83.031254,-82.937505 z" transform="matrix(0.26970778,0,0,0.26970778,-7.1289177,220.56049)"/>
  <path style="fill:#f07c24" d="m 43.837426,232.42763 c 19.593907,0 22.394175,2.79326 22.394175,22.36889 v 15.67677 c 0,19.57555 -2.800268,22.36888 -22.394175,22.36888 h -19.94152 c -19.5939063,0 -22.3941744,-2.79333 -22.3941744,-22.36888 v -15.67677 c 0,-19.57563 2.8002681,-22.36889 22.3941744,-22.36889 z"/>
  <path style="fill:#f8a94b" d="M 33.866662,238.36122 A 24.273702,24.273702 0 0 0 9.5929626,262.63492 24.273702,24.273702 0 0 0 33.866662,286.9086 24.273702,24.273702 0 0 0 58.140367,262.63492 24.273702,24.273702 0 0 0 33.866662,238.36122 Z m 0.830917,4.37415 c 0.347572,-0.0122 0.725234,-0.0122 1.122857,0 2.385714,0.0746 5.445102,0.64309 6.492617,2.23325 0.865264,1.31335 -0.273304,2.65822 -0.90827,3.72538 -1.571654,2.64147 -2.956171,5.50581 -4.478957,8.20436 -0.413721,0.73319 -1.946053,3.24987 -2.939395,1.99368 -2.113316,-2.67286 -2.734847,-8.27137 -3.049183,-11.56045 -0.100204,-1.04886 -0.447248,-2.68236 0.04989,-3.66051 0.427873,-0.84212 1.958637,-0.76878 2.772211,-0.86585 0.273168,-0.0324 0.590642,-0.0575 0.938214,-0.0699 z m -8.680943,1.70923 c 0.440469,0.0269 0.864485,0.16514 1.250114,0.45415 1.382008,1.03621 1.785213,3.22275 2.230744,4.75592 0.577839,1.98899 1.368165,3.80023 1.751662,5.86133 0.16895,0.90754 1.262368,3.14669 0.02742,3.70043 -0.892275,0.40034 -2.259281,-0.59468 -3.041703,-0.93821 -2.746244,-1.20593 -5.580418,-3.06526 -7.947346,-4.91812 -3.745933,-2.93218 -0.854856,-5.34157 1.98123,-7.39589 0.964035,-0.69834 2.426428,-1.60059 3.747849,-1.51961 z m 20.246381,2.51521 c 2.266373,-0.22245 3.697349,2.22999 4.885674,3.74285 0.891133,1.13474 2.477469,3.79309 1.621917,5.24251 -0.565891,0.95853 -1.859375,1.14298 -2.807149,1.49715 -2.463898,0.92083 -4.971759,1.87896 -7.558083,2.46279 -1.010896,0.2281 -5.110853,1.69527 -5.803931,0.77354 -0.339278,-0.45121 0.184933,-1.302 0.391752,-1.71674 0.800674,-1.60571 1.99203,-2.84086 2.929411,-4.33423 1.293845,-2.06169 2.872933,-3.8367 4.339225,-5.75403 0.569003,-0.74399 0.93014,-1.80887 2.001184,-1.91384 z m -29.296622,8.4988 c 3.268929,-0.13048 7.322025,2.37411 9.998426,3.7728 0.973941,0.50899 2.300176,0.83405 3.084127,1.64186 1.29198,1.33168 -0.905788,2.22128 -1.928826,2.42038 -3.296422,0.64172 -6.628842,1.01479 -9.928561,1.61193 -1.071334,0.19388 -3.178331,0.6567 -4.037303,-0.27199 -2.141446,-2.31551 -1.136675,-8.59068 2.168369,-9.11262 0.210302,-0.0332 0.425843,-0.0536 0.643768,-0.0624 z m 35.252761,4.59123 c 0.298884,0.0122 0.583057,0.0689 0.838406,0.18716 2.932435,1.35904 1.603055,8.43971 -1.232659,9.22989 -1.936951,0.53969 -4.247994,-0.63407 -5.966119,-1.41731 -2.221754,-1.01283 -4.551225,-1.66106 -6.674765,-2.90445 -0.639281,-0.37443 -2.121988,-1.25529 -1.604439,-2.16087 0.582351,-1.01894 2.442207,-1.1006 3.430953,-1.31501 2.800323,-0.60709 5.637493,-0.8653 8.486314,-1.22516 0.79447,-0.1003 1.825681,-0.43362 2.722309,-0.39425 z m -23.450269,4.32426 c 0.62529,-0.0312 1.173274,0.0375 1.564511,0.262 1.479106,0.8486 -0.459186,3.07433 -0.948183,3.95994 -1.565052,2.83431 -3.617376,5.80296 -5.599324,8.35906 -0.765549,0.98734 -1.799739,2.13107 -3.193904,1.40233 -2.211499,-1.15621 -4.001908,-4.20736 -4.93559,-6.41277 -0.357299,-0.84393 -0.889568,-2.04489 -0.257016,-2.87951 1.479672,-1.95188 5.595913,-2.5446 7.762696,-3.23633 1.156424,-0.36915 3.730938,-1.36091 5.60681,-1.45472 z m 8.209337,1.26008 c 0.892443,0.10602 2.048976,0.91283 2.575089,1.21519 2.685045,1.54335 5.606595,3.13478 7.872484,5.22004 0.493586,0.45428 1.33781,0.6407 1.724213,1.18025 0.540142,0.75423 0.138552,2.37531 -0.336859,3.07914 -1.204196,1.78286 -6.714543,5.78738 -8.573646,3.39103 -2.226016,-2.86887 -2.903011,-6.86726 -3.725391,-10.33778 -0.189686,-0.80014 -1.129968,-2.91374 -0.306917,-3.57569 0.2052,-0.16494 0.473548,-0.20751 0.771027,-0.17228 z m -3.795263,0.79101 c 0.08964,-0.0143 0.174965,-0.0122 0.259513,0.008 0.650877,0.1527 0.922716,1.13865 1.170263,1.65686 0.843152,1.76497 1.252755,3.53219 1.629393,5.45708 0.38735,1.97898 1.891784,6.01831 0.788495,7.88995 -1.001596,1.69935 -5.732005,1.03246 -7.308564,0.65874 -1.282084,-0.30377 -3.37254,-0.54173 -4.109656,-1.7841 -0.571184,-0.9631 0.177799,-1.91947 0.603852,-2.75973 1.054907,-2.08084 2.223406,-4.07529 3.296206,-6.15077 0.471286,-0.91164 2.326022,-4.75971 3.670498,-4.97551 z"/>
  <path style="opacity:0.1;fill:#ffffff" d="m 1.5017316,262.6349 v 7.83839 c 0,19.57555 2.8002681,22.36888 22.3941744,22.36888 h 19.94152 c 19.593907,0 22.394175,-2.79333 22.394175,-22.36888 v -7.83839 z"/>
  <path d="M 361.9375,-212 C 507.2348,-212 528,-191.28677 528,-46.125 V 70.125 C 528,215.28618 507.2348,236 361.9375,236 H 214.0625 C 68.7652,236 48,215.28618 48,70.125 V -46.125 C 48,-191.28677 68.7652,-212 214.0625,-212 Z" clip-path="url(#clipPath1082-3-452)" transform="matrix(0.13485389,0,0,0.13485389,-4.9712557,261.01666)" style="opacity:0.4;fill:none;stroke:url(#linearGradient1108);stroke-width:8;stroke-linecap:round;stroke-linejoin:round"/>
  <path d="m 194.32031,84.566406 c -1.87857,-0.0209 -4.37616,0.272105 -7.69922,0.771485 l -53.27148,8.455078 C 119.99932,96.635739 120.04514,97.519984 120,108.79883 V 130.88477 142 200.31445 c -0.55679,-0.39 -1.10598,-0.78219 -1.68164,-1.16797 v 0.004 c -4.24148,-2.84237 -8.76205,-4.86522 -14.83398,-4.86523 -7.605519,0 -12.141098,2.91223 -14.886724,6.74804 -2.745605,3.83581 -3.65625,8.67073 -3.65625,12.40821 0,4.5069 1.538792,9.31691 4.876953,12.98242 3.33817,3.6655 8.470411,6.23232 15.849611,6.23242 8.3328,0 14.19429,-2.32681 17.50781,-6.87109 2.6089,-3.57788 4.05156,-8.35783 4.56641,-14.25391 v -0.01 -0.006 c 0.0721,-0.7153 0.1244,-1.45005 0.16992,-2.20703 0.0699,-1.16546 0.0547,-3.3457 0.0547,-3.3457 v -70.07227 c 0,-10.01023 -4.9e-4,-10.60779 13.35351,-12.89062 l 37.29883,-6.16797 C 191.9972,115.0814 192,116.30873 192,123.81641 V 130 188.12305 c -0.54184,-0.37965 -1.07687,-0.76155 -1.63672,-1.13672 v 0.004 c -4.24148,-2.84237 -8.76009,-4.86521 -14.83203,-4.86523 -7.60555,0 -12.14304,2.91224 -14.88867,6.74805 -2.7456,3.83581 -3.65625,8.6707 -3.65625,12.4082 0,4.50688 1.54074,9.31693 4.8789,12.98242 3.33817,3.6655 8.47036,6.23426 15.84961,6.23438 8.3328,0 14.1943,-2.32877 17.50782,-6.87305 2.6089,-3.57788 4.04961,-8.35586 4.56445,-14.25195 v -0.01 -0.008 c 0.0721,-0.71533 0.12443,-1.44811 0.16992,-2.20508 0.0699,-1.16547 0.0566,-3.34766 0.0566,-3.34766 V 116.30859 96.316406 c 0,-8.77962 -0.0577,-11.68721 -5.69336,-11.75 z" transform="matrix(0.26970778,0,0,0.26970778,-7.1289177,220.56049)" style="opacity:0.4;fill:url(#linearGradient1193);filter:url(#filter1197)"/>
  <path d="m 194.32031,83.566406 c -1.87857,-0.0209 -4.37616,0.272105 -7.69922,0.771485 l -53.27148,8.455078 C 119.99932,95.635739 120.04514,96.519984 120,107.79883 V 129.88477 141 199.31445 c -0.55679,-0.39 -1.10598,-0.78219 -1.68164,-1.16797 v 0.004 c -4.24148,-2.84237 -8.76205,-4.86522 -14.83398,-4.86523 -7.605519,0 -12.141098,2.91223 -14.886724,6.74804 -2.745605,3.83581 -3.65625,8.67073 -3.65625,12.40821 0,4.5069 1.538792,9.31691 4.876953,12.98242 3.33817,3.6655 8.470411,6.23232 15.849611,6.23242 8.3328,0 14.19429,-2.32681 17.50781,-6.87109 2.6089,-3.57788 4.05156,-8.35783 4.56641,-14.25391 v -0.01 -0.006 c 0.0721,-0.7153 0.1244,-1.45005 0.16992,-2.20703 0.0699,-1.16546 0.0547,-3.3457 0.0547,-3.3457 v -70.07227 c 0,-10.01023 -4.9e-4,-10.60779 13.35351,-12.89062 l 37.29883,-6.16797 C 191.9972,114.0814 192,115.30873 192,122.81641 V 129 187.12305 c -0.54184,-0.37965 -1.07687,-0.76155 -1.63672,-1.13672 v 0.004 c -4.24148,-2.84237 -8.76009,-4.86521 -14.83203,-4.86523 -7.60555,0 -12.14304,2.91224 -14.88867,6.74805 -2.7456,3.83581 -3.65625,8.6707 -3.65625,12.4082 0,4.50688 1.54074,9.31693 4.8789,12.98242 3.33817,3.6655 8.47036,6.23426 15.84961,6.23438 8.3328,0 14.1943,-2.32877 17.50782,-6.87305 2.6089,-3.57788 4.04961,-8.35586 4.56445,-14.25195 v -0.01 -0.008 c 0.0721,-0.71533 0.12443,-1.44811 0.16992,-2.20508 0.0699,-1.16547 0.0566,-3.34766 0.0566,-3.34766 V 115.30859 95.316406 c 0,-8.77962 -0.0577,-11.68721 -5.69336,-11.75 z" transform="matrix(0.26970778,0,0,0.26970778,-7.1289177,220.56049)" style="opacity:0.1;filter:url(#filter1178)"/>
  <path style="fill:#fef8f8" d="m 45.280781,242.82929 c -0.506664,-0.006 -1.180282,0.0734 -2.076537,0.20807 l -14.367735,2.28041 c -3.600676,0.76671 -3.588318,1.0052 -3.600491,4.04719 v 5.95675 2.99787 15.72786 c -0.150172,-0.10519 -0.298291,-0.21096 -0.453551,-0.31501 v 10e-4 c -1.143961,-0.76661 -2.363195,-1.31219 -4.000842,-1.31219 -2.051267,0 -3.274548,0.78545 -4.015065,1.81999 -0.740511,1.03455 -0.986119,2.33857 -0.986119,3.3466 0,1.21554 0.415024,2.51284 1.315352,3.50146 0.900331,0.98861 2.284536,1.6809 4.274763,1.68093 2.247421,0 3.828312,-0.62756 4.721995,-1.85319 0.703637,-0.96498 1.092736,-2.25417 1.231594,-3.84439 v -0.003 -0.002 c 0.01945,-0.19292 0.03355,-0.39108 0.04583,-0.59525 0.01884,-0.31433 0.01476,-0.90236 0.01476,-0.90236 v -18.89904 c 0,-2.69983 -1.33e-4,-2.861 3.601545,-3.4767 l 10.059784,-1.66355 c 3.608165,-0.47208 3.608919,-0.14106 3.608919,1.88382 v 1.66776 15.67624 c -0.146137,-0.10239 -0.290438,-0.20539 -0.441436,-0.30658 v 0.001 c -1.143958,-0.76661 -2.362663,-1.31219 -4.000312,-1.31219 -2.051278,0 -3.275074,0.78545 -4.015592,1.82 -0.740508,1.03455 -0.986118,2.33855 -0.986118,3.34659 0,1.21554 0.415549,2.51285 1.315876,3.50146 0.900332,0.98861 2.284524,1.68143 4.274765,1.68146 2.247421,0 3.828311,-0.62809 4.721994,-1.85372 0.703641,-0.96498 1.092211,-2.25364 1.23107,-3.84386 v -0.003 -0.002 c 0.01945,-0.19292 0.03356,-0.39056 0.04583,-0.59472 0.01884,-0.31434 0.01527,-0.90289 0.01527,-0.90289 v -20.90072 -5.39204 c 0,-2.36794 -0.01556,-3.15214 -1.535544,-3.16907 z"/>
  <path style="opacity:0.1;fill:url(#linearGradient1159)" d="m 25.919241,246.2728 c -0.67382,0.52897 -0.676251,1.3503 -0.683223,3.09216 v 5.95675 2.99787 15.72786 c -0.150172,-0.10519 -0.298291,-0.21096 -0.453551,-0.31501 v 10e-4 c -1.143961,-0.76661 -2.363195,-1.31219 -4.000842,-1.31219 -2.051268,0 -3.274548,0.78545 -4.015065,1.81999 -0.740511,1.03455 -0.986119,2.33857 -0.986119,3.3466 0,1.21554 0.415024,2.51284 1.315352,3.50146 0.900331,0.98861 2.284536,1.6809 4.274763,1.68093 2.247421,0 3.828312,-0.62756 4.721995,-1.85319 0.703637,-0.96498 1.092736,-2.25417 1.231594,-3.84439 v -0.003 -0.002 c 0.01945,-0.19292 0.03355,-0.39108 0.04583,-0.59525 0.01884,-0.31433 0.01476,-0.90236 0.01476,-0.90236 v -18.89904 c 0,-2.69983 -1.33e-4,-2.861 3.601545,-3.4767 l 10.059784,-1.66355 c 0.918342,-0.12015 1.600872,-0.18769 2.111309,-0.18911 z m 18.470241,5.43209 c 0.261649,0.3199 0.265493,0.86621 0.265493,1.71043 v 1.66776 15.67624 c -0.146137,-0.10239 -0.290438,-0.20539 -0.441436,-0.30658 v 10e-4 c -1.143957,-0.76661 -2.362663,-1.31219 -4.000312,-1.31219 -2.051277,0 -3.275073,0.78545 -4.015592,1.82 -0.740508,1.03455 -0.986118,2.33856 -0.986118,3.34659 0,1.21554 0.41555,2.51285 1.315876,3.50146 0.900333,0.98861 2.284524,1.68143 4.274765,1.68146 2.247421,0 3.828312,-0.62809 4.721995,-1.85372 0.703641,-0.96498 1.09221,-2.25364 1.231069,-3.84386 v -0.003 -0.002 c 0.01945,-0.19293 0.03356,-0.39057 0.04583,-0.59473 0.01884,-0.31434 0.01527,-0.90289 0.01527,-0.90289 v -19.87251 z"/>
  <path style="fill:#ffffff" d="m 45.280781,242.82929 c -0.506664,-0.006 -1.180282,0.0734 -2.076537,0.20807 l -14.367735,2.28041 c -3.600676,0.76671 -3.588318,1.0052 -3.600491,4.04719 v 0.53942 c 0.01217,-3.04199 -1.85e-4,-3.28048 3.600491,-4.0472 l 14.367735,-2.2804 c 0.896255,-0.13469 1.569873,-0.21371 2.076537,-0.20808 1.519984,0.0169 1.535544,0.80114 1.535544,3.16907 v -0.53941 c 0,-2.36794 -0.01556,-3.15214 -1.535544,-3.16907 z m -5.067554,26.31231 c -2.051277,0 -3.275073,0.78546 -4.015592,1.82 -0.740508,1.03455 -0.986118,2.33856 -0.986118,3.34659 0,0.0754 0.0063,0.15168 0.0095,0.22757 0.04634,-0.95559 0.309978,-2.10337 0.976638,-3.03474 0.740519,-1.03455 1.964315,-1.82 4.015592,-1.82 1.637649,0 2.856352,0.54558 4.000312,1.31219 v -10e-4 c 0.150998,0.10118 0.295299,0.20419 0.441437,0.30658 v -0.53941 c -0.146138,-0.1024 -0.290439,-0.2054 -0.441437,-0.30659 v 0.001 c -1.14396,-0.76661 -2.362663,-1.31218 -4.000312,-1.31219 z m -19.431602,3.27969 c -2.051268,0 -3.274548,0.78545 -4.015065,1.82 -0.740511,1.03455 -0.986119,2.33857 -0.986119,3.34659 0,0.0754 0.0063,0.15167 0.0095,0.22757 0.04634,-0.95559 0.309976,-2.10337 0.976637,-3.03474 0.740517,-1.03455 1.963796,-1.82 4.015064,-1.82 1.637647,0 2.856881,0.54558 4.000842,1.31219 v -10e-4 c 0.15526,0.10405 0.303379,0.20983 0.453551,0.31501 v -0.53941 c -0.150172,-0.10519 -0.298291,-0.21097 -0.453551,-0.31501 v 0.001 c -1.143961,-0.76661 -2.363195,-1.31218 -4.000842,-1.31219 z"/>
 </g>
</svg>
