<svg width="256" height="256" version="1.1" viewBox="0 0 67.73 67.73" xmlns="http://www.w3.org/2000/svg" xmlns:xlink="http://www.w3.org/1999/xlink">
 <defs>
  <linearGradient id="linearGradient1108" x1="296" x2="296" y1="-212" y2="236" gradientUnits="userSpaceOnUse">
   <stop style="stop-color:#ffffff" offset="0"/>
   <stop style="stop-color:#ffffff;stop-opacity:.09803922" offset=".125"/>
   <stop style="stop-color:#000000;stop-opacity:.09803922" offset=".925"/>
   <stop style="stop-color:#000000;stop-opacity:.49803922" offset="1"/>
  </linearGradient>
  <clipPath id="clipPath1082-3-361">
   <path d="M 361.9375,-212 C 507.2348,-212 528,-191.28677 528,-46.125 V 70.125 C 528,215.28618 507.2348,236 361.9375,236 H 214.0625 C 68.7652,236 48,215.28618 48,70.125 V -46.125 C 48,-191.28677 68.7652,-212 214.0625,-212 Z" style="fill:#8c59d9"/>
  </clipPath>
  <linearGradient id="linearGradient1044" x1="88" x2="256" y1="28" y2="284" gradientTransform="matrix(.26970781 0 0 .26970781 -7.1289179 220.5605)" gradientUnits="userSpaceOnUse">
   <stop style="stop-color:#5884f4" offset="0"/>
   <stop style="stop-color:#80a3fa" offset="1"/>
  </linearGradient>
  <filter id="filter4569" x="-.01" y="-.01" width="1.023" height="1.025" style="color-interpolation-filters:sRGB">
   <feGaussianBlur stdDeviation="1.16"/>
  </filter>
  <filter id="filter939" x="-.02" y="-.03" width="1.046" height="1.05" style="color-interpolation-filters:sRGB">
   <feGaussianBlur stdDeviation="2.32"/>
  </filter>
  <clipPath id="b">
   <use overflow="visible" xlink:href="#a"/>
  </clipPath>
  <filter id="filter964" x="-.05" y="-.04" width="1.103" height="1.09" style="color-interpolation-filters:sRGB">
   <feGaussianBlur stdDeviation=".896"/>
  </filter>
 </defs>
 <g transform="translate(0,-229.26666)">
  <path transform="matrix(.26970779 0 0 .26970779 -1.9098094e-8 231.46531)" d="m162.53675 5.5680001c72.64865 0 83.03125 10.356615 83.03125 82.937505v58.125005c0 72.58059-10.3826 82.9375-83.03125 82.9375h-73.937496c-72.648654 0-83.031254-10.35691-83.031254-82.9375v-58.125005c0-72.58089 10.3826-82.937505 83.031254-82.937505z" style="filter:url(#filter939);opacity:.2"/>
  <path d="m43.837429 232.42763c19.593907 0 22.394176 2.79326 22.394176 22.36889v15.67677c0 19.57555-2.800269 22.36889-22.394176 22.36889h-19.941519c-19.593909 0-22.394177-2.79334-22.394177-22.36889v-15.67677c0-19.57563 2.8002682-22.36889 22.394177-22.36889z" style="fill:none;opacity:.1;stroke-linecap:round;stroke-linejoin:round;stroke-width:1.0788311;stroke:#000000"/>
  <path transform="matrix(.26970779 0 0 .26970779 -1.9098094e-8 231.46531)" d="m162.53675 3.5680001c72.64865 0 83.03125 10.356615 83.03125 82.937505v58.125005c0 72.58059-10.3826 82.9375-83.03125 82.9375h-73.937496c-72.648654 0-83.031254-10.35691-83.031254-82.9375v-58.125005c0-72.58089 10.3826-82.937505 83.031254-82.937505z" style="filter:url(#filter4569);opacity:.1"/>
  <path d="m43.837427 232.42763c19.593907 0 22.394175 2.79326 22.394175 22.36889v15.67677c0 19.57555-2.800268 22.36889-22.394175 22.36889h-19.94152c-19.593907 0-22.394176-2.79334-22.394176-22.36889v-15.67677c0-19.57563 2.8002682-22.36889 22.394176-22.36889z" style="fill:url(#linearGradient1044)"/>
  <path transform="matrix(.26970779 0 0 .26970779 3.67534 226.78896)" d="m0 37v-26l17 13z" clip-path="url(#b)" style="fill:#fbbc05"/>
  <path transform="matrix(.26970779 0 0 .26970779 3.67534 226.78896)" d="m0 11 17 13 7-6.1 24-3.9v-14h-48z" clip-path="url(#b)" style="fill:#ea4335"/>
  <path transform="matrix(.26970779 0 0 .26970779 3.67534 226.78896)" d="m0 37 30-23 7.9 1 10.1-15v48h-48z" clip-path="url(#b)" style="fill:#34a853"/>
  <path transform="matrix(.26970779 0 0 .26970779 3.67534 226.78896)" d="m48 48-31-24-4-3 35-10z" clip-path="url(#b)" style="fill:#4285f4"/>
  <path d="m33.866666 232.42763v60.41455h9.970761c19.593907 0 22.394175-2.79334 22.394175-22.36889v-15.67677c0-19.57563-2.800268-22.36889-22.394175-22.36889z" style="fill:#ffffff;opacity:.1"/>
  <path transform="matrix(.26458333 0 0 .26458333 0 229.26666)" d="m5.6757812 125.7207v30.02149c0 9.24829 0.1655716 17.50559 0.5996094 24.875 0.217019 3.6847 0.5009694 7.14668 0.8652344 10.40039 0.364265 3.2537 0.8083677 6.29796 1.3457031 9.14648 0.5373354 2.84853 1.1680667 5.50155 1.9042969 7.97071 0.73623 2.46915 1.578113 4.75548 2.539063 6.87109 0.960949 2.11561 2.04046 4.05978 3.251953 5.84766 1.211493 1.78787 2.555108 3.41833 4.042968 4.90429 1.487861 1.48596 3.120103 2.82725 4.910157 4.03711 1.790053 1.20986 3.737399 2.28848 5.855468 3.24805 2.11807 0.95957 4.406996 1.80005 6.878907 2.53515 2.471911 0.73511 5.126939 1.3659 7.978515 1.90235 2.851577 0.53645 5.899184 0.98013 9.15625 1.34375 1.28793 0.14378 2.763037 0.22222 4.117188 0.3418 8.642462 0.39891 18.299159 0.55468 29.128906 0.55468h69.81445c25.51088 0 44.47798-0.9038 58.75-3.82812 0.41794-0.1156 0.90852-0.19316 1.31641-0.31446 2.47191-0.7351 4.76084-1.57558 6.87891-2.53515s4.06541-2.03819 5.85546-3.24805c1.79006-1.20986 3.4223-2.55115 4.91016-4.03711s2.83148-3.11642 4.04297-4.90429c1.21149-1.78788 2.291-3.73205 3.25195-5.84766s1.80283-4.40194 2.53907-6.87109c0.73623-2.46916 1.36696-5.12218 1.90429-7.97071 0.53734-2.84852 0.98144-5.89278 1.34571-9.14648 0.36426-3.25371 0.64821-6.71569 0.86523-10.40039 0.43404-7.36941 0.59961-15.62671 0.59961-24.875v-30.02149h-244.64844z" style="fill:#ffffff;opacity:.1"/>
  <g transform="translate(-.13815938 1.9046237)" style="filter:url(#filter964);opacity:.3">
   <g transform="matrix(.26458333 0 0 .26458333 -19.355017 195.18373)">
    <path d="m183.68 231.818h-33.889l-6.443 19.329h-20.553l34.92-93.808h17.911l35.114 93.808h-20.553zm-28.671-15.656h23.452l-11.791-35.113z"/>
    <path d="m258.675 251.147c-0.86-1.675-1.481-3.758-1.868-6.25-4.51 5.025-10.374 7.538-17.589 7.538-6.83 0-12.489-1.975-16.977-5.927-4.489-3.952-6.732-8.934-6.732-14.948 0-7.387 2.738-13.057 8.214-17.009 5.477-3.952 13.39-5.949 23.742-5.992h8.569v-3.995c0-3.221-0.828-5.798-2.48-7.731-1.654-1.933-4.263-2.899-7.828-2.899-3.136 0-5.595 0.752-7.377 2.255-1.783 1.504-2.674 3.565-2.674 6.185h-18.62c0-4.037 1.246-7.773 3.737-11.21 2.491-3.436 6.013-6.131 10.566-8.086 4.552-1.954 9.665-2.932 15.334-2.932 8.59 0 15.409 2.159 20.456 6.475 5.047 4.317 7.57 10.384 7.57 18.201v30.217c0.043 6.615 0.967 11.619 2.771 15.012v1.095h-18.814zm-15.399-12.95c2.748 0 5.283-0.612 7.603-1.836 2.319-1.225 4.037-2.867 5.154-4.929v-11.983h-6.958c-9.321 0-14.282 3.221-14.883 9.664l-0.064 1.095c0 2.32 0.815 4.231 2.448 5.734 1.632 1.504 3.865 2.255 6.7 2.255z"/>
   </g>
   <g transform="matrix(.26458333 0 0 .26458333 -19.355017 195.18373)">
    <path d="m157.872 304.65c0-1.697-0.081-3.477-0.323-5.176h4.205c4.043-2.102 7.117-4.205 10.028-6.873h-25.313c-3.639 0-5.904 0.16-8.411 0.484v-8.814c2.345 0.322 4.69 0.404 8.411 0.404h29.518c3.073 0 4.61-0.082 6.227-0.324l4.286 5.418c-2.103 1.779-2.103 1.779-3.235 2.75-6.065 5.258-10.675 8.654-16.579 12.051v0.566h21.35c3.882 0 7.198-0.162 9.866-0.486v9.139c-2.588-0.324-6.146-0.484-9.866-0.484h-21.35v14.232c0 6.955-2.668 9.139-11.484 9.139-2.75 0-5.822-0.162-9.785-0.484-0.485-3.154-0.809-4.207-2.588-8.574 4.125 0.566 8.491 0.971 11.322 0.971s3.72-0.564 3.72-2.184v-13.1h-22.24c-3.72 0-7.117 0.16-9.866 0.484v-9.139c2.912 0.324 6.146 0.486 9.866 0.486h22.24zm-1.294-35.744c0-2.428-0.081-4.207-0.404-6.146h9.866c-0.323 1.859-0.404 3.639-0.404 6.146v1.777h22.078c4.125 0 6.146-0.08 9.219-0.322-0.243 2.021-0.324 3.721-0.324 6.389v6.551c0 2.264 0.162 4.205 0.405 6.146h-8.896v-10.756h-52.566v10.756h-8.896c0.323-1.861 0.404-3.641 0.404-6.146v-6.551c0-2.588-0.081-4.447-0.404-6.389 3.073 0.242 5.256 0.322 9.3 0.322h20.622z"/>
    <path d="m236.396 323.008c-5.176 4.529-7.925 6.471-12.374 8.977-4.448 2.508-7.359 3.803-13.263 5.742-2.103-4.123-3.235-5.58-5.984-8.248 6.065-1.375 8.977-2.346 13.182-4.367 4.287-2.021 6.712-3.721 11.403-7.521zm-5.984-52.404c0-3.881-0.081-5.418-0.485-7.359h9.058c-0.404 2.184-0.485 3.479-0.485 7.439v2.023h9.381v-2.023c0-4.123-0.081-5.498-0.485-7.439h9.139c-0.485 2.346-0.566 3.721-0.566 7.359v2.104h10.514c3.882 0 6.227-0.082 7.926-0.244-0.243 1.699-0.324 3.803-0.324 6.875v29.6c3.073-0.082 4.367-0.162 6.47-0.486v9.221c-2.588-0.324-5.499-0.486-9.543-0.486h-55.72c-3.963 0-7.036 0.162-9.462 0.486v-9.221c2.103 0.324 3.396 0.404 6.389 0.486v-29.68c0-2.832-0.081-4.771-0.323-6.795 2.345 0.162 4.367 0.244 7.844 0.244h10.675v-2.104zm0 10.109h-9.462v9.705h9.462zm0 17.469h-9.462v10.756h9.462zm17.468-7.764v-9.705h-9.381v9.705zm0 18.52v-10.756h-9.381v10.756zm6.793 8.652c4.61 3.559 6.955 5.014 11.16 7.035 4.853 2.346 8.169 3.479 14.719 4.934-2.588 3.234-3.154 4.125-5.257 8.572-6.308-1.859-9.704-3.314-14.638-6.064-4.448-2.508-7.116-4.367-12.535-8.896zm10.675-27.172v-9.705h-9.381v9.705zm0 18.52v-10.756h-9.381v10.756z"/>
   </g>
  </g>
  <g transform="translate(-.13815938 1.9046237)">
   <g transform="matrix(.26458333 0 0 .26458333 -19.355017 195.18373)">
    <path d="m183.68 231.818h-33.889l-6.443 19.329h-20.553l34.92-93.808h17.911l35.114 93.808h-20.553zm-28.671-15.656h23.452l-11.791-35.113z" style="fill:#ffffff"/>
    <path d="m258.675 251.147c-0.86-1.675-1.481-3.758-1.868-6.25-4.51 5.025-10.374 7.538-17.589 7.538-6.83 0-12.489-1.975-16.977-5.927-4.489-3.952-6.732-8.934-6.732-14.948 0-7.387 2.738-13.057 8.214-17.009 5.477-3.952 13.39-5.949 23.742-5.992h8.569v-3.995c0-3.221-0.828-5.798-2.48-7.731-1.654-1.933-4.263-2.899-7.828-2.899-3.136 0-5.595 0.752-7.377 2.255-1.783 1.504-2.674 3.565-2.674 6.185h-18.62c0-4.037 1.246-7.773 3.737-11.21 2.491-3.436 6.013-6.131 10.566-8.086 4.552-1.954 9.665-2.932 15.334-2.932 8.59 0 15.409 2.159 20.456 6.475 5.047 4.317 7.57 10.384 7.57 18.201v30.217c0.043 6.615 0.967 11.619 2.771 15.012v1.095h-18.814zm-15.399-12.95c2.748 0 5.283-0.612 7.603-1.836 2.319-1.225 4.037-2.867 5.154-4.929v-11.983h-6.958c-9.321 0-14.282 3.221-14.883 9.664l-0.064 1.095c0 2.32 0.815 4.231 2.448 5.734 1.632 1.504 3.865 2.255 6.7 2.255z" style="fill:#ffffff"/>
   </g>
   <g transform="matrix(.26458333 0 0 .26458333 -19.355017 195.18373)">
    <path d="m157.872 304.65c0-1.697-0.081-3.477-0.323-5.176h4.205c4.043-2.102 7.117-4.205 10.028-6.873h-25.313c-3.639 0-5.904 0.16-8.411 0.484v-8.814c2.345 0.322 4.69 0.404 8.411 0.404h29.518c3.073 0 4.61-0.082 6.227-0.324l4.286 5.418c-2.103 1.779-2.103 1.779-3.235 2.75-6.065 5.258-10.675 8.654-16.579 12.051v0.566h21.35c3.882 0 7.198-0.162 9.866-0.486v9.139c-2.588-0.324-6.146-0.484-9.866-0.484h-21.35v14.232c0 6.955-2.668 9.139-11.484 9.139-2.75 0-5.822-0.162-9.785-0.484-0.485-3.154-0.809-4.207-2.588-8.574 4.125 0.566 8.491 0.971 11.322 0.971s3.72-0.564 3.72-2.184v-13.1h-22.24c-3.72 0-7.117 0.16-9.866 0.484v-9.139c2.912 0.324 6.146 0.486 9.866 0.486h22.24zm-1.294-35.744c0-2.428-0.081-4.207-0.404-6.146h9.866c-0.323 1.859-0.404 3.639-0.404 6.146v1.777h22.078c4.125 0 6.146-0.08 9.219-0.322-0.243 2.021-0.324 3.721-0.324 6.389v6.551c0 2.264 0.162 4.205 0.405 6.146h-8.896v-10.756h-52.566v10.756h-8.896c0.323-1.861 0.404-3.641 0.404-6.146v-6.551c0-2.588-0.081-4.447-0.404-6.389 3.073 0.242 5.256 0.322 9.3 0.322h20.622z" style="fill:#ffffff"/>
    <path d="m236.396 323.008c-5.176 4.529-7.925 6.471-12.374 8.977-4.448 2.508-7.359 3.803-13.263 5.742-2.103-4.123-3.235-5.58-5.984-8.248 6.065-1.375 8.977-2.346 13.182-4.367 4.287-2.021 6.712-3.721 11.403-7.521zm-5.984-52.404c0-3.881-0.081-5.418-0.485-7.359h9.058c-0.404 2.184-0.485 3.479-0.485 7.439v2.023h9.381v-2.023c0-4.123-0.081-5.498-0.485-7.439h9.139c-0.485 2.346-0.566 3.721-0.566 7.359v2.104h10.514c3.882 0 6.227-0.082 7.926-0.244-0.243 1.699-0.324 3.803-0.324 6.875v29.6c3.073-0.082 4.367-0.162 6.47-0.486v9.221c-2.588-0.324-5.499-0.486-9.543-0.486h-55.72c-3.963 0-7.036 0.162-9.462 0.486v-9.221c2.103 0.324 3.396 0.404 6.389 0.486v-29.68c0-2.832-0.081-4.771-0.323-6.795 2.345 0.162 4.367 0.244 7.844 0.244h10.675v-2.104zm0 10.109h-9.462v9.705h9.462zm0 17.469h-9.462v10.756h9.462zm17.468-7.764v-9.705h-9.381v9.705zm0 18.52v-10.756h-9.381v10.756zm6.793 8.652c4.61 3.559 6.955 5.014 11.16 7.035 4.853 2.346 8.169 3.479 14.719 4.934-2.588 3.234-3.154 4.125-5.257 8.572-6.308-1.859-9.704-3.314-14.638-6.064-4.448-2.508-7.116-4.367-12.535-8.896zm10.675-27.172v-9.705h-9.381v9.705zm0 18.52v-10.756h-9.381v10.756z" style="fill:#ffffff"/>
   </g>
  </g>
  <path transform="matrix(.1348539 0 0 .1348539 -4.9712559 261.01666)" d="M 361.9375,-212 C 507.2348,-212 528,-191.28677 528,-46.125 V 70.125 C 528,215.28618 507.2348,236 361.9375,236 H 214.0625 C 68.7652,236 48,215.28618 48,70.125 V -46.125 C 48,-191.28677 68.7652,-212 214.0625,-212 Z" clip-path="url(#clipPath1082-3-361)" style="fill:none;opacity:.4;stroke-linecap:round;stroke-linejoin:round;stroke-width:8;stroke:url(#linearGradient1108)"/>
 </g>
</svg>
