<svg xmlns="http://www.w3.org/2000/svg" xmlns:xlink="http://www.w3.org/1999/xlink" width="256" height="256" version="1.0" style="enable-background:new">
 <defs>
  <filter style="color-interpolation-filters:sRGB" id="filter925" width="1.046" height="1.05" x="-.02" y="-.03">
   <feGaussianBlur stdDeviation="2.32"/>
  </filter>
  <filter style="color-interpolation-filters:sRGB" id="filter931" width="1.023" height="1.025" x="-.01" y="-.01">
   <feGaussianBlur stdDeviation="1.16"/>
  </filter>
  <linearGradient id="linearGradient1108" x1="296" x2="296" y1="-212" y2="236" gradientUnits="userSpaceOnUse" xlink:href="#linearGradient1013"/>
  <linearGradient id="linearGradient1013">
   <stop offset="0" style="stop-color:#ffffff"/>
   <stop style="stop-color:#ffffff;stop-opacity:0.09803922" offset=".125"/>
   <stop style="stop-color:#000000;stop-opacity:0.09803922" offset=".925"/>
   <stop offset="1" style="stop-color:#000000;stop-opacity:0.49803922"/>
  </linearGradient>
  <clipPath id="clipPath1082-3" clipPathUnits="userSpaceOnUse">
   <path d="M 361.9375,-212 C 507.2348,-212 528,-191.28677 528,-46.125 V 70.125 C 528,215.28618 507.2348,236 361.9375,236 H 214.0625 C 68.7652,236 48,215.28618 48,70.125 V -46.125 C 48,-191.28677 68.7652,-212 214.0625,-212 Z" style="fill:#8c59d9"/>
  </clipPath>
  <linearGradient id="linearGradient3263" x1="12.274" x2="35.391" y1="32.416" y2="14.203" gradientUnits="userSpaceOnUse">
   <stop style="stop-color:#dedbde" offset="0"/>
   <stop style="stop-color:#e6e6e6" offset=".5"/>
   <stop style="stop-color:#d2d2d2" offset="1"/>
  </linearGradient>
  <filter style="color-interpolation-filters:sRGB" id="filter1506" width="1.096" height="1.096" x="-.05" y="-.05">
   <feGaussianBlur stdDeviation=".924"/>
  </filter>
  <linearGradient id="linearGradient2658-3-5" x1="12.274" x2="35.391" y1="32.416" y2="14.203" gradientTransform="matrix(0,2.2857343,-2.2857343,0,116.80047,10.50981)" gradientUnits="userSpaceOnUse" xlink:href="#linearGradient3263"/>
 </defs>
 <g transform="translate(0,-44)">
  <g>
   <g>
    <path d="m 162.53675,62.431991 c 72.64865,0 83.03125,10.356615 83.03125,82.937499 v 58.125 c 0,72.58059 -10.3826,82.9375 -83.03125,82.9375 h -73.9375 c -72.64865,0 -83.0312501,-10.35691 -83.0312501,-82.9375 v -58.125 c 0,-72.580884 10.3826001,-82.937499 83.0312501,-82.937499 z" style="opacity:0.2;filter:url(#filter925)"/>
    <path style="opacity:0.1;filter:url(#filter931)" d="m 162.53675,61.431991 c 72.64865,0 83.03125,10.356615 83.03125,82.937499 v 58.125 c 0,72.58059 -10.3826,82.9375 -83.03125,82.9375 h -73.9375 c -72.64865,0 -83.0312501,-10.35691 -83.0312501,-82.9375 v -58.125 c 0,-72.580884 10.3826001,-82.937499 83.0312501,-82.937499 z"/>
   </g>
   <g>
    <path style="fill:#4d4d4d" d="m 162.53675,60.431991 c 72.64865,0 83.03125,10.356615 83.03125,82.937499 v 58.125 c 0,72.58059 -10.3826,82.9375 -83.03125,82.9375 h -73.9375 c -72.64865,0 -83.0312501,-10.35691 -83.0312501,-82.9375 v -58.125 c 0,-72.580884 10.3826001,-82.937499 83.0312501,-82.937499 z"/>
   </g>
   <g>
    <path d="M 361.9375,-212 C 507.2348,-212 528,-191.28677 528,-46.125 V 70.125 C 528,215.28618 507.2348,236 361.9375,236 H 214.0625 C 68.7652,236 48,215.28618 48,70.125 V -46.125 C 48,-191.28677 68.7652,-212 214.0625,-212 Z" clip-path="url(#clipPath1082-3)" transform="matrix(0.5,0,0,0.5,-18.432,166.43199)" style="opacity:0.4;fill:none;stroke:url(#linearGradient1108);stroke-width:8;stroke-linecap:round;stroke-linejoin:round"/>
   </g>
  </g>
 </g>
 <path style="opacity:0.05;fill:#ffffff" d="m 5.568,127.7184 v 34.77626 c 0,34.05298 2.59272,53.50424 14.27344,64.45039 11.68073,10.9462 32.43205,13.37095 68.7578,13.37095 h 73.93751 c 36.32576,0 57.07708,-2.42475 68.75781,-13.37095 C 242.97529,215.9989 245.568,196.54764 245.568,162.49466 V 127.7184 Z"/>
 <g transform="matrix(3.7795275,0,0,3.7795275,4.6309369e-6,-866.51967)">
  <g style="opacity:0.3;filter:url(#filter1506)" transform="translate(-2.1382046,1.0378084)">
   <g transform="matrix(0.57877604,0,0,0.57877604,-0.16122624,224.47136)">
    <g transform="translate(-1.4379823,-1.1807599)">
     <g transform="translate(1.4379748,1.0110961)">
      <path d="m 69.171875,25.707031 c 0.270298,0.05214 0.544285,0.09538 0.810547,0.158203 0.936012,2.297477 1.624502,5.167348 2.552734,7.478516 -2.56998,1.643276 -5.032051,3.351968 -7.314453,5.275391 0,0.168893 1.948026,1.784328 3.755859,3.367187 l 3.292969,2.88086 -4.291015,2.847656 c -2.285774,1.522231 -3.586705,2.39395 -4.322266,2.810547 -0.207315,0.117416 -0.358951,0.19239 -0.484375,0.246093 0.275914,-0.01364 0.5463,-0.03906 0.828125,-0.03906 8.699575,0 14.634766,6.741048 14.634766,14.634766 0,8.054885 -6.418707,14.634765 -14.634766,14.634765 -8.377229,0 -14.634766,-6.742694 -14.634766,-14.634765 0,-7.671151 5.391833,-13.992243 13.421875,-14.576172 -0.01307,-0.026 -0.02734,-0.05058 -0.02734,-0.0918 0,-0.157751 0.538511,-1.530262 1.197265,-3.019531 0.658752,-1.489265 1.118787,-2.725614 1.029297,-2.777344 C 62.59691,42.59982 61.063432,41.162776 58.4043,38.61914 c 1.954992,-2.064897 3.478113,-3.765541 4.986328,-5.796875 L 60.099609,28.865234 C 58.461948,26.893331 58.268667,26.724979 57.490234,25.896484 38.441555,28.986425 24,45.414581 24,65.367188 c -3e-6,22.171627 17.828371,40.000002 40,40.000002 22.171624,-10e-6 40,-17.828373 40,-40.000002 C 104,44.950297 88.877911,28.227904 69.171875,25.707031 Z" transform="translate(-2.62456,-0.16353528)"/>
     </g>
    </g>
   </g>
  </g>
  <g transform="translate(-2.1382046,1.0378084)">
   <g transform="matrix(0.57877604,0,0,0.57877604,-0.16122624,224.47136)">
    <path d="m 61.375433,50.569767 c -8.078048,0 -14.634146,6.556097 -14.634146,14.634146 0,8.078048 6.556098,14.634146 14.634146,14.634146 8.078047,0 14.634146,-6.556098 14.634146,-14.634146 0,-8.078049 -6.556099,-14.634146 -14.634146,-14.634146 z m 0,7.317072 c 4.039024,0 7.317073,3.278049 7.317073,7.317074 0,4.039024 -3.278049,7.317072 -7.317073,7.317072 -4.039024,0 -7.317073,-3.278048 -7.317073,-7.317072 0,-4.039025 3.278049,-7.317074 7.317073,-7.317074 z" style="fill:none"/>
    <g transform="translate(-1.4379823,-1.1807599)">
     <g transform="translate(1.4379748,1.0110961)">
      <path d="m 69.171875,25.707031 c 0.270298,0.05214 0.544285,0.09538 0.810547,0.158203 0.936012,2.297477 1.624502,5.167348 2.552734,7.478516 -2.56998,1.643276 -5.032051,3.351968 -7.314453,5.275391 0,0.168893 1.948026,1.784328 3.755859,3.367187 l 3.292969,2.88086 -4.291015,2.847656 c -2.285774,1.522231 -3.586705,2.39395 -4.322266,2.810547 -0.207315,0.117416 -0.358951,0.19239 -0.484375,0.246093 0.275914,-0.01364 0.5463,-0.03906 0.828125,-0.03906 8.699575,0 14.634766,6.741048 14.634766,14.634766 0,8.054885 -6.418707,14.634765 -14.634766,14.634765 -8.377229,0 -14.634766,-6.742694 -14.634766,-14.634765 0,-7.671151 5.391833,-13.992243 13.421875,-14.576172 -0.01307,-0.026 -0.02734,-0.05058 -0.02734,-0.0918 0,-0.157751 0.538511,-1.530262 1.197265,-3.019531 0.658752,-1.489265 1.118787,-2.725614 1.029297,-2.777344 C 62.59691,42.59982 61.063432,41.162776 58.4043,38.61914 c 1.954992,-2.064897 3.478113,-3.765541 4.986328,-5.796875 L 60.099609,28.865234 C 58.461948,26.893331 58.268667,26.724979 57.490234,25.896484 38.441555,28.986425 24,45.414581 24,65.367188 c -3e-6,22.171627 17.828371,40.000002 40,40.000002 22.171624,-10e-6 40,-17.828373 40,-40.000002 C 104,44.950297 88.877911,28.227904 69.171875,25.707031 Z" transform="translate(-2.62456,-0.16353528)" style="fill:url(#linearGradient2658-3-5)"/>
      <path d="m 61.375433,50.569767 c -8.078048,0 -14.634146,6.556097 -14.634146,14.634146 0,8.078048 6.556098,14.634146 14.634146,14.634146 8.078047,0 14.634146,-6.556098 14.634146,-14.634146 0,-8.078049 -6.556099,-14.634146 -14.634146,-14.634146 z m 0,7.317072 c 4.039024,0 7.317073,3.278049 7.317073,7.317074 0,4.039024 -3.278049,7.317072 -7.317073,7.317072 -4.039024,0 -7.317073,-3.278048 -7.317073,-7.317072 0,-4.039025 3.278049,-7.317074 7.317073,-7.317074 z" style="fill:none"/>
     </g>
    </g>
   </g>
  </g>
 </g>
</svg>
