<svg width="256" height="256" style="enable-background:new" version="1.0" xmlns="http://www.w3.org/2000/svg" xmlns:xlink="http://www.w3.org/1999/xlink">
 <defs>
  <filter id="filter925" x="-.02" y="-.03" width="1.046" height="1.05" style="color-interpolation-filters:sRGB">
   <feGaussianBlur stdDeviation="2.32"/>
  </filter>
  <filter id="filter931" x="-.01" y="-.01" width="1.023" height="1.025" style="color-interpolation-filters:sRGB">
   <feGaussianBlur stdDeviation="1.16"/>
  </filter>
  <linearGradient id="linearGradient1108" x1="296" x2="296" y1="-212" y2="236" gradientUnits="userSpaceOnUse">
   <stop style="stop-color:#ffffff" offset="0"/>
   <stop style="stop-color:#ffffff;stop-opacity:.09803922" offset=".125"/>
   <stop style="stop-color:#000000;stop-opacity:.09803922" offset=".925"/>
   <stop style="stop-color:#000000;stop-opacity:.49803922" offset="1"/>
  </linearGradient>
  <clipPath id="clipPath1082-3">
   <path d="M 361.9375,-212 C 507.2348,-212 528,-191.28677 528,-46.125 V 70.125 C 528,215.28618 507.2348,236 361.9375,236 H 214.0625 C 68.7652,236 48,215.28618 48,70.125 V -46.125 C 48,-191.28677 68.7652,-212 214.0625,-212 Z" style="fill:#8c59d9"/>
  </clipPath>
  <filter id="filter1506" x="-.05" y="-.05" width="1.096" height="1.096" style="color-interpolation-filters:sRGB">
   <feGaussianBlur stdDeviation=".924"/>
  </filter>
  <linearGradient id="linearGradient2658-3-5" x1="12.274" x2="35.391" y1="32.416" y2="14.203" gradientTransform="matrix(0,2.2857343,-2.2857343,0,116.80047,10.50981)" gradientUnits="userSpaceOnUse">
   <stop style="stop-color:#dedbde" offset="0"/>
   <stop style="stop-color:#e6e6e6" offset=".5"/>
   <stop style="stop-color:#d2d2d2" offset="1"/>
  </linearGradient>
 </defs>
 <g transform="translate(0,-44)">
  <path d="m162.53675 62.431991c72.64865 0 83.03125 10.356615 83.03125 82.937499v58.125c0 72.58059-10.3826 82.9375-83.03125 82.9375h-73.9375c-72.64865 0-83.03125-10.35691-83.03125-82.9375v-58.125c0-72.580884 10.3826-82.937499 83.03125-82.937499z" style="filter:url(#filter925);opacity:.2"/>
  <path d="m162.53675 61.431991c72.64865 0 83.03125 10.356615 83.03125 82.937499v58.125c0 72.58059-10.3826 82.9375-83.03125 82.9375h-73.9375c-72.64865 0-83.03125-10.35691-83.03125-82.9375v-58.125c0-72.580884 10.3826-82.937499 83.03125-82.937499z" style="filter:url(#filter931);opacity:.1"/>
  <path d="m162.53675 60.431991c72.64865 0 83.03125 10.356615 83.03125 82.937499v58.125c0 72.58059-10.3826 82.9375-83.03125 82.9375h-73.9375c-72.64865 0-83.03125-10.35691-83.03125-82.9375v-58.125c0-72.580884 10.3826-82.937499 83.03125-82.937499z" style="fill:#4d4d4d"/>
  <path transform="matrix(.5 0 0 .5 -18.432 166.43199)" d="M 361.9375,-212 C 507.2348,-212 528,-191.28677 528,-46.125 V 70.125 C 528,215.28618 507.2348,236 361.9375,236 H 214.0625 C 68.7652,236 48,215.28618 48,70.125 V -46.125 C 48,-191.28677 68.7652,-212 214.0625,-212 Z" clip-path="url(#clipPath1082-3)" style="fill:none;opacity:.4;stroke-linecap:round;stroke-linejoin:round;stroke-width:8;stroke:url(#linearGradient1108)"/>
 </g>
 <path d="m5.568 127.7184v34.77626c0 34.05298 2.59272 53.50424 14.27344 64.45039 11.68073 10.9462 32.43205 13.37095 68.7578 13.37095h73.93751c36.32576 0 57.07708-2.42475 68.75781-13.37095 11.68073-10.94615 14.27344-30.39741 14.27344-64.45039v-34.77626z" style="fill:#ffffff;opacity:.05"/>
 <g transform="matrix(3.7795275,0,0,3.7795275,4.6309369e-6,-866.51967)">
  <g transform="translate(-2.1382046,1.0378084)" style="filter:url(#filter1506);opacity:.3">
   <g transform="matrix(.57877604 0 0 .57877604 -.16122624 224.47136)">
    <g transform="translate(-1.4379823,-1.1807599)">
     <g transform="translate(1.4379748,1.0110961)">
      <path transform="translate(-2.62456 -.16353528)" d="m69.171875 25.707031c0.270298 0.05214 0.544285 0.09538 0.810547 0.158203 0.936012 2.297477 1.624502 5.167348 2.552734 7.478516-2.56998 1.643276-5.032051 3.351968-7.314453 5.275391 0 0.168893 1.948026 1.784328 3.755859 3.367187l3.292969 2.88086-4.291015 2.847656c-2.285774 1.522231-3.586705 2.39395-4.322266 2.810547-0.207315 0.117416-0.358951 0.19239-0.484375 0.246093 0.275914-0.01364 0.5463-0.03906 0.828125-0.03906 8.699575 0 14.634766 6.741048 14.634766 14.634766 0 8.054885-6.418707 14.634765-14.634766 14.634765-8.377229 0-14.634766-6.742694-14.634766-14.634765 0-7.671151 5.391833-13.992243 13.421875-14.576172-0.01307-0.026-0.02734-0.05058-0.02734-0.0918 0-0.157751 0.538511-1.530262 1.197265-3.019531 0.658752-1.489265 1.118787-2.725614 1.029297-2.777344-2.389421-2.302523-3.922899-3.739567-6.582031-6.283203 1.954992-2.064897 3.478113-3.765541 4.986328-5.796875l-3.291019-3.957031c-1.637661-1.971903-1.830942-2.140255-2.609375-2.96875-19.048679 3.089941-33.490234 19.518097-33.490234 39.470704-3e-6 22.171627 17.828371 40.000002 40 40.000002 22.171624-1e-5 40-17.828373 40-40.000002 0-20.416891-15.122089-37.139284-34.828125-39.660157z"/>
     </g>
    </g>
   </g>
  </g>
  <g transform="translate(-2.1382046,1.0378084)">
   <g transform="matrix(.57877604 0 0 .57877604 -.16122624 224.47136)">
    <path d="m61.375433 50.569767c-8.078048 0-14.634146 6.556097-14.634146 14.634146 0 8.078048 6.556098 14.634146 14.634146 14.634146 8.078047 0 14.634146-6.556098 14.634146-14.634146 0-8.078049-6.556099-14.634146-14.634146-14.634146zm0 7.317072c4.039024 0 7.317073 3.278049 7.317073 7.317074 0 4.039024-3.278049 7.317072-7.317073 7.317072s-7.317073-3.278048-7.317073-7.317072c0-4.039025 3.278049-7.317074 7.317073-7.317074z" style="fill:none"/>
    <g transform="translate(-1.4379823,-1.1807599)">
     <g transform="translate(1.4379748,1.0110961)">
      <path transform="translate(-2.62456 -.16353528)" d="m69.171875 25.707031c0.270298 0.05214 0.544285 0.09538 0.810547 0.158203 0.936012 2.297477 1.624502 5.167348 2.552734 7.478516-2.56998 1.643276-5.032051 3.351968-7.314453 5.275391 0 0.168893 1.948026 1.784328 3.755859 3.367187l3.292969 2.88086-4.291015 2.847656c-2.285774 1.522231-3.586705 2.39395-4.322266 2.810547-0.207315 0.117416-0.358951 0.19239-0.484375 0.246093 0.275914-0.01364 0.5463-0.03906 0.828125-0.03906 8.699575 0 14.634766 6.741048 14.634766 14.634766 0 8.054885-6.418707 14.634765-14.634766 14.634765-8.377229 0-14.634766-6.742694-14.634766-14.634765 0-7.671151 5.391833-13.992243 13.421875-14.576172-0.01307-0.026-0.02734-0.05058-0.02734-0.0918 0-0.157751 0.538511-1.530262 1.197265-3.019531 0.658752-1.489265 1.118787-2.725614 1.029297-2.777344-2.389421-2.302523-3.922899-3.739567-6.582031-6.283203 1.954992-2.064897 3.478113-3.765541 4.986328-5.796875l-3.291019-3.957031c-1.637661-1.971903-1.830942-2.140255-2.609375-2.96875-19.048679 3.089941-33.490234 19.518097-33.490234 39.470704-3e-6 22.171627 17.828371 40.000002 40 40.000002 22.171624-1e-5 40-17.828373 40-40.000002 0-20.416891-15.122089-37.139284-34.828125-39.660157z" style="fill:url(#linearGradient2658-3-5)"/>
      <path d="m61.375433 50.569767c-8.078048 0-14.634146 6.556097-14.634146 14.634146 0 8.078048 6.556098 14.634146 14.634146 14.634146 8.078047 0 14.634146-6.556098 14.634146-14.634146 0-8.078049-6.556099-14.634146-14.634146-14.634146zm0 7.317072c4.039024 0 7.317073 3.278049 7.317073 7.317074 0 4.039024-3.278049 7.317072-7.317073 7.317072s-7.317073-3.278048-7.317073-7.317072c0-4.039025 3.278049-7.317074 7.317073-7.317074z" style="fill:none"/>
     </g>
    </g>
   </g>
  </g>
 </g>
</svg>
