<svg xmlns="http://www.w3.org/2000/svg" xmlns:xlink="http://www.w3.org/1999/xlink" width="256" height="256" version="1.1" viewBox="0 0 67.73 67.73">
 <defs>
  <linearGradient id="linearGradient2191">
   <stop style="stop-color:#aadd96" offset="0"/>
   <stop style="stop-color:#02a170" offset="1"/>
  </linearGradient>
  <linearGradient id="linearGradient1108" x1="296" x2="296" y1="-212" y2="236" gradientUnits="userSpaceOnUse" xlink:href="#linearGradient1013"/>
  <linearGradient id="linearGradient1013">
   <stop offset="0" style="stop-color:#ffffff"/>
   <stop style="stop-color:#ffffff;stop-opacity:0.09803922" offset=".125"/>
   <stop style="stop-color:#000000;stop-opacity:0.09803922" offset=".925"/>
   <stop offset="1" style="stop-color:#000000;stop-opacity:0.49803922"/>
  </linearGradient>
  <clipPath id="clipPath1082-3-361" clipPathUnits="userSpaceOnUse">
   <path d="M 361.9375,-212 C 507.2348,-212 528,-191.28677 528,-46.125 V 70.125 C 528,215.28618 507.2348,236 361.9375,236 H 214.0625 C 68.7652,236 48,215.28618 48,70.125 V -46.125 C 48,-191.28677 68.7652,-212 214.0625,-212 Z" style="fill:#8c59d9"/>
  </clipPath>
  <filter style="color-interpolation-filters:sRGB" id="filter4569" width="1.023" height="1.025" x="-.01" y="-.01">
   <feGaussianBlur stdDeviation="1.16"/>
  </filter>
  <filter style="color-interpolation-filters:sRGB" id="filter939" width="1.046" height="1.05" x="-.02" y="-.03">
   <feGaussianBlur stdDeviation="2.32"/>
  </filter>
  <radialGradient id="radialGradient2195" cx="31.272" cy="247.711" r="32.365" fx="31.272" fy="247.711" gradientTransform="matrix(2.4039791,-0.66748142,0.37889165,1.3646038,-137.76082,-68.447972)" gradientUnits="userSpaceOnUse" xlink:href="#linearGradient2191"/>
  <filter style="color-interpolation-filters:sRGB" id="filter2273" width="1.146" height="1.106" x="-.07" y="-.05">
   <feGaussianBlur stdDeviation=".728"/>
  </filter>
  <filter style="color-interpolation-filters:sRGB" id="filter2277" width="1.092" height="1.286" x="-.05" y="-.14">
   <feGaussianBlur stdDeviation=".728"/>
  </filter>
  <filter style="color-interpolation-filters:sRGB" id="filter2281" width="1.164" height="1.101" x="-.08" y="-.05">
   <feGaussianBlur stdDeviation=".728"/>
  </filter>
  <filter style="color-interpolation-filters:sRGB" id="filter2388" width="1.24" height="1.24" x="-.12" y="-.12">
   <feGaussianBlur stdDeviation=".228"/>
  </filter>
 </defs>
 <g transform="translate(0,-229.26666)">
  <path style="opacity:0.2;filter:url(#filter939)" d="m 162.53675,5.5680001 c 72.64865,0 83.03125,10.3566149 83.03125,82.9375049 v 58.125005 c 0,72.58059 -10.3826,82.9375 -83.03125,82.9375 H 88.599254 C 15.9506,229.56801 5.568,219.2111 5.568,146.63051 V 88.505505 c 0,-72.58089 10.3826,-82.9375049 83.031254,-82.9375049 z" transform="matrix(0.26970779,0,0,0.26970779,-1.9098094e-8,231.46531)"/>
  <path d="m 43.837429,232.42763 c 19.593907,0 22.394176,2.79326 22.394176,22.36889 v 15.67677 c 0,19.57555 -2.800269,22.36889 -22.394176,22.36889 H 23.89591 c -19.5939088,0 -22.394177,-2.79334 -22.394177,-22.36889 v -15.67677 c 0,-19.57563 2.8002682,-22.36889 22.394177,-22.36889 z" style="opacity:0.1;fill:none;stroke:#000000;stroke-width:1.07883108;stroke-linecap:round;stroke-linejoin:round"/>
  <path d="m 162.53675,3.5680001 c 72.64865,0 83.03125,10.3566149 83.03125,82.9375049 v 58.125005 c 0,72.58059 -10.3826,82.9375 -83.03125,82.9375 H 88.599254 C 15.9506,227.56801 5.568,217.2111 5.568,144.63051 V 86.505505 c 0,-72.58089 10.3826,-82.9375049 83.031254,-82.9375049 z" transform="matrix(0.26970779,0,0,0.26970779,-1.9098094e-8,231.46531)" style="opacity:0.1;filter:url(#filter4569)"/>
  <path style="fill:url(#radialGradient2195)" d="m 43.837427,232.42763 c 19.593907,0 22.394175,2.79326 22.394175,22.36889 v 15.67677 c 0,19.57555 -2.800268,22.36889 -22.394175,22.36889 h -19.94152 c -19.5939074,0 -22.3941756,-2.79334 -22.3941756,-22.36889 v -15.67677 c 0,-19.57563 2.8002682,-22.36889 22.3941756,-22.36889 z"/>
  <path d="M 361.9375,-212 C 507.2348,-212 528,-191.28677 528,-46.125 V 70.125 C 528,215.28618 507.2348,236 361.9375,236 H 214.0625 C 68.7652,236 48,215.28618 48,70.125 V -46.125 C 48,-191.28677 68.7652,-212 214.0625,-212 Z" clip-path="url(#clipPath1082-3-361)" transform="matrix(0.1348539,0,0,0.1348539,-4.9712559,261.01666)" style="opacity:0.4;fill:none;stroke:url(#linearGradient1108);stroke-width:8;stroke-linecap:round;stroke-linejoin:round"/>
  <g transform="translate(0.99503206,8.8557854)" style="stroke:#fcfcfc">
   <path d="m 44.524349,245.5851 c 0.640858,-3.26172 0.282473,-5.73713 -1.232314,-6.72084 -0.504927,-0.32792 -1.110289,-0.4714 -1.791592,-0.44553 -3.679044,0.13967 -9.615321,5.20531 -14.465455,12.67385 -5.748307,8.85163 -7.791099,17.72269 -4.559556,19.82128 1.533966,0.99618 3.978328,0.29 6.739802,-1.67784" style="fill:none;stroke:#000000;stroke-width:1.5166924;stroke-linecap:round;filter:url(#filter2273);opacity:0.3"/>
   <path style="fill:none;stroke:#fcfcfc;stroke-width:1.5166924;stroke-linecap:round" d="m 44.524349,245.5851 c 0.640858,-3.26172 0.282473,-5.73713 -1.232314,-6.72084 -0.504927,-0.32792 -1.110289,-0.4714 -1.791592,-0.44553 -3.679044,0.13967 -9.615321,5.20531 -14.465455,12.67385 -5.748307,8.85163 -7.791099,17.72269 -4.559556,19.82128 1.533966,0.99618 3.978328,0.29 6.739802,-1.67784"/>
   <path d="m 47.47242,260.06004 c 2.728339,-1.05842 4.406004,-2.50711 4.493202,-4.17092 0.201659,-3.84788 -8.172315,-7.41026 -18.712194,-7.96263 -0.988114,-0.0518 -1.959745,-0.079 -2.910155,-0.0758 -9.187283,0.031 -16.358673,2.55117 -16.541427,6.03833 -0.08703,1.66054 1.425838,3.27071 4.019235,4.60695" style="fill:none;stroke:#000000;stroke-width:1.5166924;stroke-linecap:round;filter:url(#filter2277);opacity:0.3"/>
   <path style="fill:none;stroke:#fcfcfc;stroke-width:1.5166924;stroke-linecap:round" d="m 47.47242,260.06004 c 2.728339,-1.05842 4.406004,-2.50711 4.493202,-4.17092 0.201659,-3.84788 -8.172315,-7.41026 -18.712194,-7.96263 -0.988114,-0.0518 -1.959745,-0.079 -2.910155,-0.0758 -9.187283,0.031 -16.358673,2.55117 -16.541427,6.03833 -0.08703,1.66054 1.425838,3.27071 4.019235,4.60695"/>
   <path d="m 30.276919,239.8501 c -1.866708,-1.54881 -3.617448,-2.38053 -5.024045,-2.27503 -0.374504,0.0281 -0.720862,0.12038 -1.042725,0.28437 -3.433202,1.74931 -2.336425,10.79647 2.455145,20.20045 4.791571,9.40399 11.458823,15.60808 14.892024,13.85878 3.301659,-1.68228 2.410529,-10.11262 -1.924303,-19.11981" style="fill:none;stroke:#000000;stroke-width:1.5166924;stroke-linecap:round;filter:url(#filter2281);opacity:0.3"/>
   <path style="fill:none;stroke:#fcfcfc;stroke-width:1.5166924;stroke-linecap:round" d="m 30.276919,239.8501 c -1.866708,-1.54881 -3.617448,-2.38053 -5.024045,-2.27503 -0.374504,0.0281 -0.720862,0.12038 -1.042725,0.28437 -3.433202,1.74931 -2.336425,10.79647 2.455145,20.20045 4.791571,9.40399 11.458823,15.60808 14.892024,13.85878 3.301659,-1.68228 2.410529,-10.11262 -1.924303,-19.11981"/>
   <path style="fill:#010000;opacity:0.3;filter:url(#filter2388)" d="m 35.282004,255.15929 a 2.2750387,2.2750387 0 0 1 -4.550077,0 2.2750387,2.2750387 0 1 1 4.550077,0 z"/>
   <path style="fill:#ffffff" d="m 35.282004,255.15929 a 2.2750387,2.2750387 0 0 1 -4.550077,0 2.2750387,2.2750387 0 1 1 4.550077,0 z"/>
  </g>
  <path style="opacity:0.1;fill:#ffffff" d="m 33.866666,232.42763 v 60.41455 h 9.970761 c 19.593907,0 22.394175,-2.79334 22.394175,-22.36889 v -15.67677 c 0,-19.57563 -2.800268,-22.36889 -22.394175,-22.36889 z"/>
  <path style="opacity:0.1;fill:#ffffff" d="m 23.895907,292.84218 c -19.5939074,0 -22.3941756,-2.64319 -22.3941756,-21.16712 v -7.41727 H 66.231602 v 7.41727 c 0,18.52393 -2.800268,21.16712 -22.394175,21.16712 z"/>
 </g>
</svg>
