<?xml version="1.0" encoding="UTF-8" standalone="no"?>
<!-- Created with Inkscape (http://www.inkscape.org/) -->

<svg
   xmlns:dc="http://purl.org/dc/elements/1.1/"
   xmlns:cc="http://creativecommons.org/ns#"
   xmlns:rdf="http://www.w3.org/1999/02/22-rdf-syntax-ns#"
   xmlns:svg="http://www.w3.org/2000/svg"
   xmlns="http://www.w3.org/2000/svg"
   xmlns:xlink="http://www.w3.org/1999/xlink"
   xmlns:sodipodi="http://sodipodi.sourceforge.net/DTD/sodipodi-0.dtd"
   xmlns:inkscape="http://www.inkscape.org/namespaces/inkscape"
   inkscape:export-ydpi="96"
   inkscape:export-xdpi="96"
   width="256"
   height="256"
   id="svg11300"
   sodipodi:version="0.32"
   inkscape:version="0.92.3 (2405546, 2018-03-11)"
   sodipodi:docname="App Icon Template.svg"
   inkscape:output_extension="org.inkscape.output.svg.inkscape"
   version="1.0"
   style="display:inline;enable-background:new"
   inkscape:export-filename="/home/sam/suru-template.png">
  <title
     id="title3004">Suru App Icon Template</title>
  <sodipodi:namedview
     stroke="#ef2929"
     fill="#f57900"
     id="base"
     pagecolor="#ffffff"
     bordercolor="#000000"
     borderopacity="0.25490196"
     inkscape:pageopacity="0"
     inkscape:pageshadow="2"
     inkscape:zoom="1"
     inkscape:cx="-245.65339"
     inkscape:cy="77.881268"
     inkscape:current-layer="layer10"
     showgrid="false"
     inkscape:grid-bbox="true"
     inkscape:document-units="px"
     inkscape:showpageshadow="false"
     inkscape:window-width="1920"
     inkscape:window-height="1009"
     inkscape:window-x="0"
     inkscape:window-y="34"
     width="400px"
     height="300px"
     inkscape:snap-nodes="true"
     inkscape:snap-bbox="true"
     gridtolerance="10000"
     inkscape:object-nodes="true"
     inkscape:snap-grids="true"
     showguides="true"
     inkscape:guide-bbox="true"
     inkscape:window-maximized="1"
     inkscape:bbox-paths="true"
     inkscape:snap-bbox-midpoints="true"
     inkscape:snap-global="true"
     inkscape:object-paths="true"
     inkscape:snap-intersection-paths="true"
     inkscape:snap-smooth-nodes="true"
     inkscape:pagecheckerboard="false"
     showborder="true">
    <inkscape:grid
       spacingy="1"
       spacingx="1"
       id="grid5883"
       type="xygrid"
       enabled="true"
       visible="true"
       empspacing="4"
       snapvisiblegridlinesonly="true"
       originx="0"
       originy="0" />
    <inkscape:grid
       type="xygrid"
       id="grid11592"
       empspacing="2"
       visible="true"
       enabled="false"
       spacingx="0.5"
       spacingy="0.5"
       color="#ff0000"
       opacity="0.1254902"
       empcolor="#ff0000"
       empopacity="0.25098039"
       snapvisiblegridlinesonly="true"
       originx="0"
       originy="0" />
  </sodipodi:namedview>
  <defs
     id="defs3">
    <clipPath
       clipPathUnits="userSpaceOnUse"
       id="clipPath9430">
      <path
         sodipodi:nodetypes="sssssssss"
         inkscape:connector-curvature="0"
         id="path9432"
         d="m 166.0625,-196 h 179.875 C 491.2348,-196 512,-175.28677 512,-30.125 v 148.25 C 512,263.28618 491.2348,284 345.9375,284 H 166.0625 C 20.7652,284 0,263.28618 0,118.125 V -30.125 C 0,-175.28677 20.7652,-196 166.0625,-196 Z"
         style="color:#000000;display:inline;overflow:visible;visibility:visible;fill:#ffffff;fill-opacity:1;fill-rule:nonzero;stroke:none;stroke-width:1;marker:none;enable-background:new" />
    </clipPath>
    <clipPath
       clipPathUnits="userSpaceOnUse"
       id="clipPath1082">
      <path
         sodipodi:nodetypes="sssssssss"
         inkscape:connector-curvature="0"
         id="path1084"
         d="M 361.9375,-212 C 507.2348,-212 528,-191.28677 528,-46.125 V 70.125 C 528,215.28618 507.2348,236 361.9375,236 H 214.0625 C 68.7652,236 48,215.28618 48,70.125 V -46.125 C 48,-191.28677 68.7652,-212 214.0625,-212 Z"
         style="display:inline;opacity:1;fill:#8c59d9;fill-opacity:1;stroke:none;stroke-width:2;stroke-linecap:round;stroke-linejoin:round;stroke-miterlimit:4;stroke-dasharray:none;stroke-dashoffset:0;stroke-opacity:1;enable-background:new" />
    </clipPath>
    <filter
       inkscape:collect="always"
       style="color-interpolation-filters:sRGB"
       id="filter925"
       x="-0.0232"
       width="1.0464"
       y="-0.024857143"
       height="1.0497143">
      <feGaussianBlur
         inkscape:collect="always"
         stdDeviation="2.32"
         id="feGaussianBlur927" />
    </filter>
    <filter
       inkscape:collect="always"
       style="color-interpolation-filters:sRGB"
       id="filter931"
       x="-0.0116"
       width="1.0232"
       y="-0.012428571"
       height="1.024857">
      <feGaussianBlur
         inkscape:collect="always"
         stdDeviation="1.16"
         id="feGaussianBlur933" />
    </filter>
    <linearGradient
       inkscape:collect="always"
       xlink:href="#linearGradient1013"
       id="linearGradient1108"
       x1="296"
       y1="-212"
       x2="296"
       y2="236"
       gradientUnits="userSpaceOnUse" />
    <linearGradient
       id="linearGradient1013"
       inkscape:collect="always">
      <stop
         id="stop1005"
         offset="0"
         style="stop-color:#ffffff;stop-opacity:1;" />
      <stop
         style="stop-color:#ffffff;stop-opacity:0.09803922"
         offset="0.125"
         id="stop1007" />
      <stop
         style="stop-color:#000000;stop-opacity:0.09803922"
         offset="0.92500001"
         id="stop1009" />
      <stop
         id="stop1011"
         offset="1"
         style="stop-color:#000000;stop-opacity:0.49803922" />
    </linearGradient>
    <clipPath
       clipPathUnits="userSpaceOnUse"
       id="clipPath1082-3">
      <path
         sodipodi:nodetypes="sssssssss"
         inkscape:connector-curvature="0"
         id="path1084-6"
         d="M 361.9375,-212 C 507.2348,-212 528,-191.28677 528,-46.125 V 70.125 C 528,215.28618 507.2348,236 361.9375,236 H 214.0625 C 68.7652,236 48,215.28618 48,70.125 V -46.125 C 48,-191.28677 68.7652,-212 214.0625,-212 Z"
         style="display:inline;opacity:1;fill:#8c59d9;fill-opacity:1;stroke:none;stroke-width:2;stroke-linecap:round;stroke-linejoin:round;stroke-miterlimit:4;stroke-dasharray:none;stroke-dashoffset:0;stroke-opacity:1;enable-background:new" />
    </clipPath>
    <linearGradient
       gradientTransform="matrix(7.6723551,0,0,7.6723551,19.927762,100.11061)"
       inkscape:collect="always"
       xlink:href="#linearGradient10707"
       id="linearGradient10705"
       x1="3.5097475"
       y1="22.810303"
       x2="8.2490902"
       y2="28.935303"
       gradientUnits="userSpaceOnUse" />
    <linearGradient
       id="linearGradient10707">
      <stop
         id="stop10709"
         offset="0"
         style="stop-color:#ffffff;stop-opacity:1;" />
      <stop
         id="stop10711"
         offset="1"
         style="stop-color:#ffffff;stop-opacity:0;" />
    </linearGradient>
  </defs>
  <metadata
     id="metadata4">
    <rdf:RDF>
      <cc:Work
         rdf:about="">
        <dc:format>image/svg+xml</dc:format>
        <dc:type
           rdf:resource="http://purl.org/dc/dcmitype/StillImage" />
        <dc:creator>
          <cc:Agent>
            <dc:title>Sam Hewitt</dc:title>
          </cc:Agent>
        </dc:creator>
        <dc:source />
        <cc:license
           rdf:resource="http://creativecommons.org/licenses/by-sa/4.0/" />
        <dc:title>Suru App Icon Template</dc:title>
        <dc:subject>
          <rdf:Bag />
        </dc:subject>
        <dc:date />
        <dc:rights>
          <cc:Agent>
            <dc:title />
          </cc:Agent>
        </dc:rights>
        <dc:publisher>
          <cc:Agent>
            <dc:title />
          </cc:Agent>
        </dc:publisher>
        <dc:identifier />
        <dc:relation />
        <dc:language />
        <dc:coverage />
        <dc:description />
        <dc:contributor>
          <cc:Agent>
            <dc:title />
          </cc:Agent>
        </dc:contributor>
      </cc:Work>
      <cc:Work
         rdf:about="">
        <dc:format>image/svg+xml</dc:format>
        <dc:type
           rdf:resource="http://purl.org/dc/dcmitype/StillImage" />
      </cc:Work>
      <cc:License
         rdf:about="http://creativecommons.org/licenses/by-sa/4.0/">
        <cc:permits
           rdf:resource="http://creativecommons.org/ns#Reproduction" />
        <cc:permits
           rdf:resource="http://creativecommons.org/ns#Distribution" />
        <cc:requires
           rdf:resource="http://creativecommons.org/ns#Notice" />
        <cc:requires
           rdf:resource="http://creativecommons.org/ns#Attribution" />
        <cc:permits
           rdf:resource="http://creativecommons.org/ns#DerivativeWorks" />
        <cc:requires
           rdf:resource="http://creativecommons.org/ns#ShareAlike" />
      </cc:License>
    </rdf:RDF>
  </metadata>
  <g
     style="display:inline"
     inkscape:groupmode="layer"
     inkscape:label="Icon"
     id="layer1"
     transform="translate(0,-44)">
    <g
       style="display:inline"
       inkscape:label="Baseplate"
       id="layer7"
       inkscape:groupmode="layer" />
    <g
       inkscape:groupmode="layer"
       id="layer8"
       inkscape:label="Small"
       style="display:inline">
      <g
         inkscape:groupmode="layer"
         id="layer5"
         inkscape:label="Shadow" />
      <g
         inkscape:groupmode="layer"
         id="layer3"
         inkscape:label="Shape"
         style="display:inline" />
      <g
         inkscape:groupmode="layer"
         id="layer12"
         inkscape:label="Pictogram" />
      <g
         inkscape:groupmode="layer"
         id="layer4"
         inkscape:label="Highlights"
         style="display:inline" />
      <g
         inkscape:groupmode="layer"
         id="layer2"
         inkscape:label="Border"
         style="display:inline" />
    </g>
    <g
       inkscape:groupmode="layer"
       id="layer9"
       inkscape:label="Hires"
       style="display:inline">
      <g
         inkscape:groupmode="layer"
         id="layer6"
         inkscape:label="Drop Shadow"
         style="display:inline">
        <path
           sodipodi:nodetypes="sssssssss"
           inkscape:connector-curvature="0"
           id="path923"
           d="m 162.53675,62.431991 c 72.64865,0 83.03125,10.356615 83.03125,82.937499 v 58.125 c 0,72.58059 -10.3826,82.9375 -83.03125,82.9375 h -73.9375 c -72.64865,0 -83.0312501,-10.35691 -83.0312501,-82.9375 v -58.125 c 0,-72.580884 10.3826001,-82.937499 83.0312501,-82.937499 z"
           style="display:inline;opacity:0.2;fill:#000000;fill-opacity:1;stroke:none;stroke-width:2;stroke-linecap:round;stroke-linejoin:round;stroke-miterlimit:4;stroke-dasharray:none;stroke-dashoffset:0;stroke-opacity:1;filter:url(#filter925);enable-background:new" />
        <path
           style="display:inline;opacity:0.1;fill:#000000;fill-opacity:1;stroke:none;stroke-width:2;stroke-linecap:round;stroke-linejoin:round;stroke-miterlimit:4;stroke-dasharray:none;stroke-dashoffset:0;stroke-opacity:1;filter:url(#filter931);enable-background:new"
           d="m 162.53675,61.431991 c 72.64865,0 83.03125,10.356615 83.03125,82.937499 v 58.125 c 0,72.58059 -10.3826,82.9375 -83.03125,82.9375 h -73.9375 c -72.64865,0 -83.0312501,-10.35691 -83.0312501,-82.9375 v -58.125 c 0,-72.580884 10.3826001,-82.937499 83.0312501,-82.937499 z"
           id="path929"
           inkscape:connector-curvature="0"
           sodipodi:nodetypes="sssssssss" />
      </g>
      <g
         inkscape:groupmode="layer"
         id="layer10"
         inkscape:label="Background"
         style="display:inline">
        <path
           style="display:inline;opacity:1;fill:#f7f7f7;fill-opacity:1;stroke:none;stroke-width:2;stroke-linecap:round;stroke-linejoin:round;stroke-miterlimit:4;stroke-dasharray:none;stroke-dashoffset:0;stroke-opacity:1;enable-background:new"
           d="m 162.53675,60.431991 c 72.64865,0 83.03125,10.356615 83.03125,82.937499 v 58.125 c 0,72.58059 -10.3826,82.9375 -83.03125,82.9375 h -73.9375 c -72.64865,0 -83.0312501,-10.35691 -83.0312501,-82.9375 v -58.125 c 0,-72.580884 10.3826001,-82.937499 83.0312501,-82.937499 z"
           id="rect877"
           inkscape:connector-curvature="0"
           sodipodi:nodetypes="sssssssss" />
      </g>
      <g
         inkscape:groupmode="layer"
         id="layer13"
         inkscape:label="Pictogram"
         style="display:inline" />
      <g
         inkscape:groupmode="layer"
         id="layer11"
         inkscape:label="Outline"
         style="display:inline">
        <path
           sodipodi:nodetypes="sssssssss"
           inkscape:connector-curvature="0"
           id="path1068"
           d="M 361.9375,-212 C 507.2348,-212 528,-191.28677 528,-46.125 V 70.125 C 528,215.28618 507.2348,236 361.9375,236 H 214.0625 C 68.7652,236 48,215.28618 48,70.125 V -46.125 C 48,-191.28677 68.7652,-212 214.0625,-212 Z"
           style="display:inline;opacity:0.4;fill:none;fill-opacity:1;stroke:url(#linearGradient1108);stroke-width:8;stroke-linecap:round;stroke-linejoin:round;stroke-miterlimit:4;stroke-dasharray:none;stroke-dashoffset:0;stroke-opacity:1;enable-background:new"
           clip-path="url(#clipPath1082-3)"
           transform="matrix(0.5,0,0,0.5,-18.432,166.43199)" />
      </g>
    </g>
  </g>
  <g
     style="enable-background:new"
     id="g1624"
     transform="matrix(0.49036244,0,0,0.49036244,25.795813,-9.3863577)">
    <path
       inkscape:connector-curvature="0"
       style="opacity:0.8;fill:#eab305;fill-opacity:1;fill-rule:evenodd;stroke:#eab305;stroke-width:8.15723133;stroke-linecap:square;stroke-linejoin:round;stroke-miterlimit:4;stroke-dasharray:none;stroke-opacity:1"
       d="m 121.48948,326.37323 12.78779,3.82963 4.96486,-16.67487 7.82293,10.69468 2.16247,-59.29142 10.62534,61.44198 6.39387,-7.6593 c 0,0 3.59055,9.47136 3.59055,7.6593 0,-1.81208 7.25037,-41.44796 7.25037,-41.44796 l 8.3408,43.69785 6.39393,-25.22777 v 19.14823 l 6.39386,-3.82965 v 13.29416 l 16.27884,-63.59174 2.90288,57.95688 11.70928,-23.45637 7.47241,23.45637 14.93201,-41.79318 4.24971,41.79318 11.06341,-14.87967 8.11827,11.05002 6.3939,-3.82965 v 30.63715 l -6.3939,-3.82962 -6.39389,13.56632 -9.41878,-13.56632 c 0,0 -9.18949,60.57269 -9.18949,56.74305 0,-3.82966 -6.96732,-52.91343 -6.96732,-52.91343 l -13.43373,16.23597 -5.74798,-16.23597 -12.78781,30.6372 -6.39392,-26.80754 -9.33899,15.79706 -3.44876,-15.79706 c 0,0 -5.24434,21.63228 -5.24434,20.02607 0,-1.60621 -1.14959,-16.19641 -1.14959,-16.19641 0,0 -10.86616,51.96882 -10.86616,48.13922 0,-3.82965 -1.92163,-51.96888 -1.92163,-51.96888 l -11.63822,19.62671 -1.14958,-15.79705 -10.32026,47.3523 -4.0663,-45.90719 -11.11793,6.45341 -0.0714,-11.72818 -12.78781,-5.60185 z"
       id="path1626"
       sodipodi:nodetypes="cccccccscccccccccccccccccccscccccccscsccccccccc" />
    <path
       sodipodi:nodetypes="cccccccscccccccccccccccccccscccccccscsccccccccc"
       id="path6815"
       d="m 121.48948,326.37323 12.78779,3.82963 4.96486,-16.67487 7.82293,10.69468 2.16247,-59.29142 10.62534,61.44198 6.39387,-7.6593 c 0,0 3.59055,9.47136 3.59055,7.6593 0,-1.81208 7.25037,-41.44796 7.25037,-41.44796 l 8.3408,43.69785 6.39393,-25.22777 v 19.14823 l 6.39386,-3.82965 v 13.29416 l 16.27884,-63.59174 2.90288,57.95688 11.70928,-23.45637 7.47241,23.45637 14.93201,-41.79318 4.24971,41.79318 11.06341,-14.87967 8.11827,11.05002 6.3939,-3.82965 v 30.63715 l -6.3939,-3.82962 -6.39389,13.56632 -9.41878,-13.56632 c 0,0 -9.18949,60.57269 -9.18949,56.74305 0,-3.82966 -6.96732,-52.91343 -6.96732,-52.91343 l -13.43373,16.23597 -5.74798,-16.23597 -12.78781,30.6372 -6.39392,-26.80754 -9.33899,15.79706 -3.44876,-15.79706 c 0,0 -5.24434,21.63228 -5.24434,20.02607 0,-1.60621 -1.14959,-16.19641 -1.14959,-16.19641 0,0 -10.86616,51.96882 -10.86616,48.13922 0,-3.82965 -1.92163,-51.96888 -1.92163,-51.96888 l -11.63822,19.62671 -1.14958,-15.79705 -10.32026,47.3523 -4.0663,-45.90719 -11.11793,6.45341 -0.0714,-11.72818 -12.78781,-5.60185 z"
       style="opacity:0.8;fill:#f60000;fill-opacity:1;fill-rule:evenodd;stroke:none;stroke-width:8.3272047px;stroke-linecap:butt;stroke-linejoin:miter;stroke-opacity:1"
       inkscape:connector-curvature="0" />
    <path
       inkscape:connector-curvature="0"
       id="path1644"
       d="m 125.48438,55.316406 c -15.36148,0.02663 -30.766654,4.798022 -42.490239,14.53125 -11.074752,9.194552 -18.691611,22.94249 -19.501953,40.537114 -7.259912,1.56324 -13.678867,6.2988 -18.460938,12.92773 -5.905934,8.18683 -9.46289,19.31271 -9.462891,31.55273 0,12.24003 3.556957,23.36395 9.462891,31.55079 5.905934,8.18683 14.309264,13.48828 23.708984,13.48828 h 2.435547 v -2.43555 -42.60352 -45.04296 h -0.01367 C 72.061722,94.670129 78.493647,83.506106 87.871094,75.720703 97.995465,67.31518 111.71944,62.973109 125.49805,62.949219 c 13.7786,-0.02388 27.50816,4.27086 37.64257,12.662109 9.62159,7.96663 16.15926,19.517723 16.82032,35.347652 v 43.90625 42.60352 2.43555 h 2.43554 c 9.39972,0 17.80305,-5.30145 23.70899,-13.48828 5.90593,-8.18684 9.46289,-19.31076 9.46289,-31.55079 0,-12.24002 -3.55696,-23.3659 -9.46289,-31.55273 -4.79725,-6.64997 -11.241,-11.39734 -18.5293,-12.94531 C 186.73949,92.687711 179.10066,78.915299 168.00781,69.730469 156.26592,60.008229 140.84583,55.28977 125.48438,55.316406 Z m 43.25195,52.929684 a 3.7626108,3.7626108 0 0 0 -3.70508,3.81641 v 85.13867 a 3.762695,3.762695 0 1 0 7.52539,0 V 112.0625 a 3.7626108,3.7626108 0 0 0 -3.82031,-3.81641 z m -88.078127,0.53125 a 3.7626108,3.7626108 0 0 0 -3.705078,3.81446 v 85.14062 a 3.7626108,3.7626108 0 1 0 7.523437,0 V 112.5918 a 3.7626108,3.7626108 0 0 0 -3.818359,-3.81446 z"
       style="color:#000000;font-style:normal;font-variant:normal;font-weight:normal;font-stretch:normal;font-size:medium;line-height:normal;font-family:sans-serif;font-variant-ligatures:normal;font-variant-position:normal;font-variant-caps:normal;font-variant-numeric:normal;font-variant-alternates:normal;font-feature-settings:normal;text-indent:0;text-align:start;text-decoration:none;text-decoration-line:none;text-decoration-style:solid;text-decoration-color:#000000;letter-spacing:normal;word-spacing:normal;text-transform:none;writing-mode:lr-tb;direction:ltr;text-orientation:mixed;dominant-baseline:auto;baseline-shift:baseline;text-anchor:start;white-space:normal;shape-padding:0;clip-rule:nonzero;display:inline;overflow:visible;visibility:visible;opacity:1;isolation:auto;mix-blend-mode:normal;color-interpolation:sRGB;color-interpolation-filters:linearRGB;solid-color:#000000;solid-opacity:1;vector-effect:none;fill:#234db8;fill-opacity:1;fill-rule:nonzero;stroke:none;stroke-width:4.87133884;stroke-linecap:butt;stroke-linejoin:miter;stroke-miterlimit:4;stroke-dasharray:none;stroke-dashoffset:0;stroke-opacity:1;color-rendering:auto;image-rendering:auto;shape-rendering:auto;text-rendering:auto;enable-background:accumulate"
       transform="matrix(2.0393079,0,0,2.0393079,-52.606338,19.111815)" />
    <path
       sodipodi:nodetypes="cccc"
       id="path9728"
       d="m 74.808616,252.12609 c -27.180314,14.05571 -32.496982,29.88404 -36.805689,47.42501 0,0 21.075141,-30.20699 36.103836,-37.42077 z"
       style="fill:url(#linearGradient10705);fill-opacity:1;fill-rule:evenodd;stroke:none;stroke-width:4.8091898px;stroke-linecap:butt;stroke-linejoin:miter;stroke-opacity:1"
       inkscape:connector-curvature="0" />
  </g>
</svg>
