<svg xmlns="http://www.w3.org/2000/svg" xmlns:xlink="http://www.w3.org/1999/xlink" width="256" height="256" version="1.0" style="enable-background:new">
 <defs>
  <filter style="color-interpolation-filters:sRGB" id="filter925" width="1.046" height="1.05" x="-.02" y="-.03">
   <feGaussianBlur stdDeviation="2.32"/>
  </filter>
  <filter style="color-interpolation-filters:sRGB" id="filter931" width="1.023" height="1.025" x="-.01" y="-.01">
   <feGaussianBlur stdDeviation="1.16"/>
  </filter>
  <linearGradient id="linearGradient1108" x1="296" x2="296" y1="-212" y2="236" gradientUnits="userSpaceOnUse" xlink:href="#linearGradient1013"/>
  <linearGradient id="linearGradient1013">
   <stop offset="0" style="stop-color:#ffffff"/>
   <stop style="stop-color:#ffffff;stop-opacity:0.09803922" offset=".125"/>
   <stop style="stop-color:#000000;stop-opacity:0.09803922" offset=".925"/>
   <stop offset="1" style="stop-color:#000000;stop-opacity:0.49803922"/>
  </linearGradient>
  <clipPath id="clipPath1082-3" clipPathUnits="userSpaceOnUse">
   <path d="M 361.9375,-212 C 507.2348,-212 528,-191.28677 528,-46.125 V 70.125 C 528,215.28618 507.2348,236 361.9375,236 H 214.0625 C 68.7652,236 48,215.28618 48,70.125 V -46.125 C 48,-191.28677 68.7652,-212 214.0625,-212 Z" style="fill:#8c59d9"/>
  </clipPath>
 </defs>
 <g transform="translate(0,-44)">
  <g>
   <g>
    <path d="m 162.53675,62.431991 c 72.64865,0 83.03125,10.356615 83.03125,82.937499 v 58.125 c 0,72.58059 -10.3826,82.9375 -83.03125,82.9375 h -73.9375 c -72.64865,0 -83.0312501,-10.35691 -83.0312501,-82.9375 v -58.125 c 0,-72.580884 10.3826001,-82.937499 83.0312501,-82.937499 z" style="opacity:0.2;filter:url(#filter925)"/>
    <path style="opacity:0.1;filter:url(#filter931)" d="m 162.53675,61.431991 c 72.64865,0 83.03125,10.356615 83.03125,82.937499 v 58.125 c 0,72.58059 -10.3826,82.9375 -83.03125,82.9375 h -73.9375 c -72.64865,0 -83.0312501,-10.35691 -83.0312501,-82.9375 v -58.125 c 0,-72.580884 10.3826001,-82.937499 83.0312501,-82.937499 z"/>
   </g>
   <g>
    <path style="fill:#336b99" d="m 162.53675,60.431991 c 72.64865,0 83.03125,10.356615 83.03125,82.937499 v 58.125 c 0,72.58059 -10.3826,82.9375 -83.03125,82.9375 h -73.9375 c -72.64865,0 -83.0312501,-10.35691 -83.0312501,-82.9375 v -58.125 c 0,-72.580884 10.3826001,-82.937499 83.0312501,-82.937499 z"/>
    <g transform="matrix(1.2838047,0,0,1.2838047,-62.545128,-27.841543)" style="stroke:#ffffff;enable-background:new">
     <path style="fill:#ffffff" d="M 241.76367 205.46094 C 242.11909 204.01202 242.5148 202.64204 242.81055 201.07422 C 243.15619 199.24192 243.40501 197.19078 243.67578 195.18945 L 132.59375 195.18945 C 108.73524 195.18945 86.708551 182.47263 74.779297 161.81055 C 62.850036 141.14847 62.850036 115.71481 74.779297 95.052734 C 86.708551 74.390655 108.73524 61.673828 132.59375 61.673828 L 132.59375 51.404297 C 105.08243 51.404297 79.640438 66.092466 65.884766 89.917969 C 52.129108 113.74347 52.129108 143.11981 65.884766 166.94531 C 79.640438 190.77081 105.08243 205.46094 132.59375 205.46094 L 241.76367 205.46094 z" transform="matrix(0.77893468,0,0,0.77893468,48.718569,55.959869)"/>
     <path style="fill:#ffffff" d="M 244.72852 184.91992 C 244.8035 183.8867 244.91738 182.96761 244.98047 181.89648 C 245.10694 179.7492 245.07168 176.95205 245.1543 174.64844 L 132.59375 174.64844 C 113.89714 174.64844 97.072551 163.41516 89.90625 146.14648 C 82.739949 128.87781 86.666121 109.03289 99.869141 95.794922 C 113.07215 82.55697 132.90774 78.576643 150.19531 85.697266 L 154.10742 76.203125 C 146.19528 72.944174 137.83226 71.591531 129.62109 72.027344 C 115.93581 72.753708 102.66887 78.443147 92.597656 88.541016 C 76.483725 104.69762 71.675596 129.00802 80.421875 150.08398 C 89.168154 171.15996 109.77502 184.91992 132.59375 184.91992 L 244.72852 184.91992 z" transform="matrix(0.77893468,0,0,0.77893468,48.718569,55.959869)"/>
     <path style="fill:#ffffff" d="m 151.15039,128.01953 c -4.51922,0.13343 -9.041,1.35987 -13.15039,3.73242 -10.95836,6.32682 -16.32187,19.27167 -13.04688,31.49414 C 128.22812,175.46856 139.34637,184 152,184 h 88 v -8 h -88 c -9.07145,0 -16.9705,-6.06188 -19.31836,-14.82422 -2.34786,-8.76234 1.46226,-17.96037 9.31836,-22.49609 7.8561,-4.53572 17.7281,-3.23674 24.14258,3.17773 l 5.65625,-5.65625 c -5.59217,-5.59216 -13.1164,-8.40401 -20.64844,-8.18164 z"/>
    </g>
   </g>
   <g>
    <path d="m 361.9375,-212 c 145.2973,0 166.0625,20.71323 166.0625,165.875 v 116.25 c 0,145.16118 -20.7652,165.875 -166.0625,165.875 h -147.875 c -145.2973,0 -166.0625,-20.71382 -166.0625,-165.875 v -116.25 c 0,-145.16177 20.7652,-165.875 166.0625,-165.875 z" clip-path="url(#clipPath1082-3)" transform="matrix(0.5,0,0,0.5,-18.432,166.43199)" style="opacity:0.4;fill:none;stroke:url(#linearGradient1108);stroke-width:8;stroke-linecap:round;stroke-linejoin:round"/>
   </g>
  </g>
 </g>
</svg>
