<svg xmlns="http://www.w3.org/2000/svg" xmlns:xlink="http://www.w3.org/1999/xlink" width="256" height="256" version="1.1" viewBox="0 0 67.73 67.73">
 <defs>
  <linearGradient id="linearGradient2059" x1="168" x2="168" y1="284" y2="28" gradientTransform="matrix(0.26970778,0,0,0.26970778,-7.1289177,220.56049)" gradientUnits="userSpaceOnUse" xlink:href="#linearGradient3797-5"/>
  <linearGradient id="linearGradient3797-5">
   <stop offset="0" style="stop-color:#e6eaef"/>
   <stop offset="1" style="stop-color:#e6eaef"/>
  </linearGradient>
  <filter style="color-interpolation-filters:sRGB" id="filter1132" width="1.046" height="1.05" x="-.02" y="-.03">
   <feGaussianBlur stdDeviation="2.32"/>
  </filter>
  <filter style="color-interpolation-filters:sRGB" id="filter4569" width="1.023" height="1.025" x="-.01" y="-.01">
   <feGaussianBlur stdDeviation="1.16"/>
  </filter>
  <linearGradient id="linearGradient1108-7" x1="296" x2="296" y1="-212" y2="236" gradientUnits="userSpaceOnUse" xlink:href="#linearGradient1013"/>
  <linearGradient id="linearGradient1013">
   <stop offset="0" style="stop-color:#ffffff"/>
   <stop style="stop-color:#ffffff;stop-opacity:0.09803922" offset=".125"/>
   <stop style="stop-color:#000000;stop-opacity:0.09803922" offset=".925"/>
   <stop offset="1" style="stop-color:#000000;stop-opacity:0.49803922"/>
  </linearGradient>
  <clipPath id="clipPath1082-3-93" clipPathUnits="userSpaceOnUse">
   <path d="M 361.9375,-212 C 507.2348,-212 528,-191.28677 528,-46.125 V 70.125 C 528,215.28618 507.2348,236 361.9375,236 H 214.0625 C 68.7652,236 48,215.28618 48,70.125 V -46.125 C 48,-191.28677 68.7652,-212 214.0625,-212 Z" style="fill:#8c59d9"/>
  </clipPath>
  <filter style="color-interpolation-filters:sRGB" id="filter1656" width="1.1" height="1.093" x="-.05" y="-.05">
   <feGaussianBlur stdDeviation=".952"/>
  </filter>
 </defs>
 <g transform="translate(0,-229.26666)">
  <path d="m 43.837425,232.42763 c 19.593907,0 22.394175,2.79326 22.394175,22.36889 v 15.67677 c 0,19.57555 -2.800268,22.36888 -22.394175,22.36888 h -19.94152 c -19.5939058,0 -22.3941739,-2.79333 -22.3941739,-22.36888 v -15.67677 c 0,-19.57563 2.8002681,-22.36889 22.3941739,-22.36889 z" style="opacity:0.115;fill:none;stroke:#000000;stroke-width:1.0788312;stroke-linecap:round;stroke-linejoin:round"/>
  <path d="m 188.96876,43.999995 c 72.64865,0 83.03125,10.356615 83.03125,82.937505 v 58.125 c 0,72.58059 -10.3826,82.9375 -83.03125,82.9375 h -73.9375 C 42.382606,268 32.000006,257.64309 32.000006,185.0625 v -58.125 c 0,-72.58089 10.3826,-82.937505 83.031254,-82.937505 z" transform="matrix(0.26970778,0,0,0.26970778,-7.1289177,220.56049)" style="opacity:0.1;filter:url(#filter4569)"/>
  <path style="opacity:0.2;filter:url(#filter1132)" d="m 188.96876,45.999995 c 72.64865,0 83.03125,10.356615 83.03125,82.937505 v 58.125 c 0,72.58059 -10.3826,82.9375 -83.03125,82.9375 h -73.9375 C 42.382606,270 32.000006,259.64309 32.000006,187.0625 v -58.125 c 0,-72.58089 10.3826,-82.937505 83.031254,-82.937505 z" transform="matrix(0.26970778,0,0,0.26970778,-7.1289177,220.56049)"/>
  <path style="fill:url(#linearGradient2059)" d="m 43.837425,232.42763 c 19.593907,0 22.394175,2.79326 22.394175,22.36889 v 15.67677 c 0,19.57555 -2.800268,22.36888 -22.394175,22.36888 h -19.94152 c -19.5939058,0 -22.3941739,-2.79333 -22.3941739,-22.36888 v -15.67677 c 0,-19.57563 2.8002681,-22.36889 22.3941739,-22.36889 z"/>
  <path style="opacity:0.25;fill:#ffffff" d="m 0.9525,262.56205 v 7.96544 c 0,19.89285 2.846163,22.73147 22.761203,22.73147 h 20.268349 c 19.91504,0 22.761202,-2.83862 22.761202,-22.73147 v -7.96544 z"/>
  <path style="opacity:0.25;fill:#ffffff" d="m 34.339496,293.25889 h 9.631198 c 2.486392,0 4.706268,-0.0442 6.687644,-0.16069 0.990687,-0.0582 1.921825,-0.13436 2.796662,-0.23212 0.874839,-0.0978 1.693417,-0.21706 2.459341,-0.36129 0.765925,-0.14424 1.479058,-0.31385 2.143006,-0.51149 0.663948,-0.19765 1.278747,-0.42364 1.847655,-0.68163 0.568907,-0.25801 1.091957,-0.54801 1.572758,-0.87331 0.480805,-0.3253 0.919221,-0.68593 1.318856,-1.08546 0.399633,-0.39954 0.760526,-0.83793 1.085928,-1.31864 0.325403,-0.48071 0.615357,-1.00344 0.873465,-1.57227 0.258107,-0.56883 0.484235,-1.18356 0.681986,-1.84745 0.19775,-0.66388 0.367161,-1.3772 0.511487,-2.14309 0.144327,-0.7659 0.263612,-1.58441 0.361452,-2.45924 0.09784,-0.87483 0.174108,-1.80566 0.232399,-2.79637 0.116583,-1.98143 0.161055,-4.20159 0.161055,-6.68819 v -15.9312 c 0,-2.48661 -0.04448,-4.70675 -0.161055,-6.68819 -0.05829,-0.99071 -0.134558,-1.92154 -0.232399,-2.79637 -0.09784,-0.87484 -0.217125,-1.69334 -0.361452,-2.45924 -0.144326,-0.76589 -0.313737,-1.4792 -0.511487,-2.14309 -0.197751,-0.66389 -0.423879,-1.27862 -0.681986,-1.84745 -0.258108,-0.56882 -0.548062,-1.09156 -0.873465,-1.57227 -0.325402,-0.48071 -0.686295,-0.9191 -1.085928,-1.31863 -0.399635,-0.39954 -0.838051,-0.76017 -1.318856,-1.08547 -0.480801,-0.3253 -1.003851,-0.6153 -1.572758,-0.87331 -0.568908,-0.25799 -1.183707,-0.48398 -1.847655,-0.68163 -0.663948,-0.19764 -1.377081,-0.36725 -2.143006,-0.51149 -0.765924,-0.14423 -1.584502,-0.26353 -2.459341,-0.36129 -0.874837,-0.0978 -1.805975,-0.17387 -2.796662,-0.23211 -1.981376,-0.11647 -4.201252,-0.1607 -6.687644,-0.1607 h -9.631198 z"/>
  <path d="M 361.9375,-212 C 507.2348,-212 528,-191.28677 528,-46.125 V 70.125 C 528,215.28618 507.2348,236 361.9375,236 H 214.0625 C 68.7652,236 48,215.28618 48,70.125 V -46.125 C 48,-191.28677 68.7652,-212 214.0625,-212 Z" clip-path="url(#clipPath1082-3-93)" transform="matrix(0.13485389,0,0,0.13485389,-4.9712548,261.01665)" style="opacity:0.6;fill:none;stroke:url(#linearGradient1108-7);stroke-width:8;stroke-linecap:round;stroke-linejoin:round"/>
  <g style="font-size:49.39538574px;line-height:1.25;letter-spacing:0px;word-spacing:0px;fill:#101d22;filter:url(#filter1656);opacity:0.3" transform="matrix(0.92949705,0,0,1.0758506,-1.5298388,0.58029208)">
   <path style="fill:#101d22" d="m 15.350492,218.98605 h 28.45132 c 4.741886,0 8.376586,1.1743 10.904102,3.52286 2.549883,2.34857 3.824824,5.25633 3.824824,8.72327 0,2.90777 -0.90588,5.40173 -2.717637,7.48191 -1.207842,1.38677 -2.974865,2.48278 -5.301072,3.288 3.534047,0.84995 6.128665,2.31501 7.783851,4.39519 1.677555,2.0578 2.516332,4.65242 2.516332,7.78385 0,2.54988 -0.592735,4.84253 -1.778207,6.87797 -1.185472,2.03543 -2.807107,3.6459 -4.864909,4.83136 -1.27494,0.73813 -3.198536,1.27493 -5.770785,1.61046 -3.422212,0.44735 -5.692502,0.67102 -6.810872,0.67102 H 15.350492 Z"/>
  </g>
  <g transform="matrix(0.92949705,0,0,1.0758506,-1.5298388,0.58029208)" style="font-size:49.39538574px;line-height:1.25;letter-spacing:0px;word-spacing:0px;fill:#008cc3">
   <path d="m 15.350492,218.98605 h 28.45132 c 4.741886,0 8.376586,1.1743 10.904102,3.52286 2.549883,2.34857 3.824824,5.25633 3.824824,8.72327 0,2.90777 -0.90588,5.40173 -2.717637,7.48191 -1.207842,1.38677 -2.974865,2.48278 -5.301072,3.288 3.534047,0.84995 6.128665,2.31501 7.783851,4.39519 1.677555,2.0578 2.516332,4.65242 2.516332,7.78385 0,2.54988 -0.592735,4.84253 -1.778207,6.87797 -1.185472,2.03543 -2.807107,3.6459 -4.864909,4.83136 -1.27494,0.73813 -3.198536,1.27493 -5.770785,1.61046 -3.422212,0.44735 -5.692502,0.67102 -6.810872,0.67102 H 15.350492 Z" style="fill:#008cc3"/>
  </g>
  <g style="font-size:44.35470581px;line-height:1.25;font-family:'Arial Black';letter-spacing:0px;word-spacing:0px;fill:#9bd6f3">
   <path style="fill:#9bd6f3" d="M 76.160156 66.115234 L 76.160156 186.11523 L 113.4043 186.11523 L 113.4043 137.08398 L 113.4043 112.85547 L 113.4043 91.900391 L 164.27539 91.900391 L 167.83984 66.115234 L 76.160156 66.115234 z" transform="matrix(0.26458333,0,0,0.26458333,0,229.26666)"/>
  </g>
  <g style="font-size:40.17645645px;line-height:1.25;font-family:'Arial Black';letter-spacing:0px;word-spacing:0px;fill:#ffffff">
   <path style="fill:#ffffff" d="M 166.27734 77.419922 L 84.796875 77.419922 L 84.796875 186.11523 L 118.5332 186.11523 L 118.5332 141.70312 L 157.38867 141.70312 L 160.42383 119.75586 L 118.5332 119.75586 L 118.5332 100.77539 L 163.04688 100.77539 L 166.27734 77.419922 z" transform="matrix(0.26458333,0,0,0.26458333,0,229.26666)"/>
  </g>
 </g>
</svg>
