<svg width="256" height="256" version="1.1" viewBox="0 0 256 256" xmlns="http://www.w3.org/2000/svg" xmlns:xlink="http://www.w3.org/1999/xlink">
 <defs>
  <linearGradient id="linearGradient1108" x1="296" x2="296" y1="-212" y2="236" gradientUnits="userSpaceOnUse">
   <stop style="stop-color:#ffffff" offset="0"/>
   <stop style="stop-color:#ffffff;stop-opacity:.09803922" offset=".125"/>
   <stop style="stop-color:#000000;stop-opacity:.09803922" offset=".925"/>
   <stop style="stop-color:#000000;stop-opacity:.49803922" offset="1"/>
  </linearGradient>
  <clipPath id="clipPath1082-3-361">
   <path d="M 361.9375,-212 C 507.2348,-212 528,-191.28677 528,-46.125 V 70.125 C 528,215.28618 507.2348,236 361.9375,236 H 214.0625 C 68.7652,236 48,215.28618 48,70.125 V -46.125 C 48,-191.28677 68.7652,-212 214.0625,-212 Z" style="fill:#8c59d9"/>
  </clipPath>
  <linearGradient id="linearGradient1044" x1="88" x2="256" y1="28" y2="284" gradientTransform="matrix(1.0193681,0,0,1.0193681,-26.943941,-32.905179)" gradientUnits="userSpaceOnUse">
   <stop style="stop-color:#e8e8e8" offset="0"/>
   <stop style="stop-color:#f5f5f5" offset="1"/>
  </linearGradient>
  <filter id="filter4569" x="-.01" y="-.01" width="1.023" height="1.025" style="color-interpolation-filters:sRGB">
   <feGaussianBlur stdDeviation="1.16"/>
  </filter>
  <filter id="filter939" x="-.02" y="-.03" width="1.046" height="1.05" style="color-interpolation-filters:sRGB">
   <feGaussianBlur stdDeviation="2.32"/>
  </filter>
  <linearGradient id="SVGID_1_" x1="210.768" x2="301.232" y1="256" y2="256" gradientUnits="userSpaceOnUse">
   <stop style="stop-color:#37AADA" offset="0"/>
   <stop style="stop-color:#37AADA" offset="1"/>
  </linearGradient>
  <linearGradient id="SVGID_2_" x1="178.874" x2="333.383" y1="137.86" y2="137.86" gradientUnits="userSpaceOnUse">
   <stop style="stop-color:#37AADA" offset="0"/>
   <stop style="stop-color:#37AADA" offset="1"/>
  </linearGradient>
  <linearGradient id="SVGID_3_" x1="174.036" x2="338.231" y1="382.971" y2="382.971" gradientUnits="userSpaceOnUse">
   <stop style="stop-color:#37AADA" offset="0"/>
   <stop style="stop-color:#37AADA" offset="1"/>
  </linearGradient>
  <linearGradient id="SVGID_4_" x1="153.288" x2="358.84" y1="95.73" y2="95.73" gradientUnits="userSpaceOnUse">
   <stop style="stop-color:#37AADA" offset="0"/>
   <stop style="stop-color:#37AADA" offset="1"/>
  </linearGradient>
  <linearGradient id="SVGID_5_" x1="150.868" x2="361.265" y1="420.688" y2="420.688" gradientUnits="userSpaceOnUse">
   <stop style="stop-color:#37AADA" offset="0"/>
   <stop style="stop-color:#37AADA" offset="1"/>
  </linearGradient>
  <linearGradient id="SVGID_6_" x1="127.703" x2="384.297" y1="53.613" y2="53.613" gradientUnits="userSpaceOnUse">
   <stop style="stop-color:#37AADA" offset="0"/>
   <stop style="stop-color:#37AADA" offset="1"/>
  </linearGradient>
  <linearGradient id="SVGID_7_" x1="127.703" x2="384.297" y1="458.387" y2="458.387" gradientUnits="userSpaceOnUse">
   <stop style="stop-color:#37AADA" offset="0"/>
   <stop style="stop-color:#37AADA" offset="1"/>
  </linearGradient>
  <filter id="filter1064" x="-.05" y="-.05" width="1.096" height="1.096" style="color-interpolation-filters:sRGB">
   <feGaussianBlur stdDeviation="9.2"/>
  </filter>
 </defs>
 <path transform="matrix(1.019368,0,0,1.019368,-7.2181772e-8,8.3098661)" d="m162.53675 5.5680001c72.64865 0 83.03125 10.356615 83.03125 82.937505v58.125005c0 72.58059-10.3826 82.9375-83.03125 82.9375h-73.937496c-72.648654 0-83.031254-10.35691-83.031254-82.9375v-58.125005c0-72.58089 10.3826-82.937505 83.031254-82.937505z" style="filter:url(#filter939);opacity:.2"/>
 <path d="m165.68477 11.946967c74.05571 0 84.6394 10.557203 84.6394 84.543835v59.250778c0 73.98633-10.58369 84.54383-84.6394 84.54383h-75.369521c-74.055717 0-84.639408-10.5575-84.639408-84.54383v-59.250778c0-73.986632 10.583691-84.543835 84.639408-84.543835z" style="fill:none;opacity:.1;stroke-linecap:round;stroke-linejoin:round;stroke-width:4.0774717;stroke:#000000"/>
 <path transform="matrix(1.019368,0,0,1.019368,-7.2181772e-8,8.3098661)" d="m162.53675 3.5680001c72.64865 0 83.03125 10.356615 83.03125 82.937505v58.125005c0 72.58059-10.3826 82.9375-83.03125 82.9375h-73.937496c-72.648654 0-83.031254-10.35691-83.031254-82.9375v-58.125005c0-72.58089 10.3826-82.937505 83.031254-82.937505z" style="filter:url(#filter4569);opacity:.1"/>
 <path d="m165.68476 11.946967c74.05571 0 84.6394 10.557203 84.6394 84.543835v59.250778c0 73.98633-10.58369 84.54383-84.6394 84.54383h-75.369522c-74.055712 0-84.639403-10.5575-84.639403-84.54383v-59.250778c0-73.986632 10.583691-84.543835 84.639403-84.543835z" style="fill:url(#linearGradient1044)"/>
 <path transform="matrix(.50968403 0 0 .50968403 -18.788999 120)" d="M 361.9375,-212 C 507.2348,-212 528,-191.28677 528,-46.125 V 70.125 C 528,215.28618 507.2348,236 361.9375,236 H 214.0625 C 68.7652,236 48,215.28618 48,70.125 V -46.125 C 48,-191.28677 68.7652,-212 214.0625,-212 Z" clip-path="url(#clipPath1082-3-361)" style="fill:none;opacity:.4;stroke-linecap:round;stroke-linejoin:round;stroke-width:8;stroke:url(#linearGradient1108)"/>
 <path d="m129.54217 11.946967v228.33844h37.20966c73.12207 0 83.57233-10.5575 83.57233-84.54383v-59.250778c0-73.986632-10.45026-84.543835-83.57233-84.543835z" style="fill:#463a3a;opacity:.1"/>
 <path d="m90.315238 240.28541c-74.055712 0-84.639403-10.5572-84.639403-84.54383v-29.62537h244.64832v29.62537c0 73.98663-10.58369 84.54383-84.6394 84.54383z" style="fill:#463a3a;opacity:.1"/>
 <g transform="matrix(.43478261 0 0 .43478261 16.69565 15.711652)" style="filter:url(#filter1064);opacity:.3">
  <path d="m247.92 354.325v-82.736l-27.15 26.616-9.936-10.136 34.623-33.941-34.688-34.916 10.069-10.003 27.084 27.261v-78.795l53.31 61.652-35.635 34.934 35.474 35.706zm14.195-83.429v43.952l19.821-24.001zm0-75.106v42.008l19.66-19.273z"/>
  <path d="m256.419 137.688c24.33 0 47.02 7.098 66.163 19.29l10.801-16.063c-22.227-14.268-48.647-22.549-76.964-22.549-28.566 0-55.197 8.433-77.545 22.932l10.796 16.056c19.266-12.422 42.171-19.666 66.749-19.666z"/>
  <path d="m338.231 378.294-10.795-16.054c-20.108 14.18-44.597 22.544-71.017 22.544-26.669 0-51.371-8.522-71.584-22.947l-10.799 16.061c23.297 16.5 51.727 26.208 82.383 26.208 30.408 0 58.622-9.556 81.812-25.812z"/>
  <path d="m153.289 103.247 10.778 16.029c26.433-17.538 58.113-27.771 92.143-27.771 33.905 0 65.478 10.159 91.853 27.58l10.778-16.029c-29.456-19.498-64.738-30.873-102.631-30.873-38.018 0-73.407 11.448-102.921 31.064z"/>
  <path d="m256.209 425.731c-35.075 0-67.654-10.871-94.563-29.407l-10.778 16.029c29.991 20.615 66.279 32.7 105.342 32.7 38.938 0 75.121-12.007 105.056-32.502l-10.778-16.03c-26.855 18.417-59.328 29.21-94.279 29.21z"/>
  <path d="m256 45.322c43.481 0 83.926 13.243 117.519 35.903l10.778-16.029c-36.673-24.739-80.828-39.196-128.297-39.196s-91.624 14.457-128.297 39.196l10.778 16.029c33.593-22.66 74.038-35.903 117.519-35.903z"/>
  <path d="m384.297 446.804-10.778-16.029c-33.592 22.661-74.038 35.903-117.519 35.903s-83.926-13.243-117.519-35.903l-10.778 16.029c36.673 24.739 80.828 39.196 128.297 39.196s91.624-14.457 128.297-39.196z"/>
  <path d="m137.688 255.581c0-24.33 7.098-47.02 19.29-66.163l-16.063-10.801c-14.268 22.227-22.549 48.647-22.549 76.964 0 28.566 8.433 55.197 22.932 77.545l16.056-10.796c-12.422-19.266-19.666-42.171-19.666-66.749z"/>
  <path d="m378.294 173.769-16.054 10.795c14.18 20.108 22.544 44.597 22.544 71.017 0 26.669-8.522 51.371-22.947 71.584l16.061 10.799c16.5-23.297 26.208-51.727 26.208-82.383 0-30.408-9.556-58.622-25.812-81.812z"/>
  <path d="m103.247 358.712 16.029-10.778c-17.538-26.433-27.771-58.113-27.771-92.143 0-33.905 10.159-65.478 27.58-91.853l-16.029-10.778c-19.498 29.456-30.873 64.738-30.873 102.631 0 38.017 11.448 73.406 31.064 102.921z"/>
  <path d="m425.731 255.791c0 35.075-10.871 67.654-29.407 94.563l16.029 10.778c20.615-29.991 32.7-66.279 32.7-105.342 0-38.938-12.007-75.121-32.502-105.056l-16.03 10.778c18.417 26.855 29.21 59.328 29.21 94.279z"/>
  <path d="m45.322 256c0-43.481 13.243-83.926 35.903-117.519l-16.029-10.778c-24.739 36.673-39.196 80.828-39.196 128.297s14.457 91.624 39.196 128.297l16.029-10.778c-22.66-33.593-35.903-74.038-35.903-117.519z"/>
  <path d="m446.804 127.703-16.029 10.778c22.661 33.592 35.903 74.038 35.903 117.519s-13.243 83.926-35.903 117.519l16.029 10.778c24.739-36.673 39.196-80.828 39.196-128.297s-14.457-91.624-39.196-128.297z"/>
 </g>
 <g transform="matrix(.43478261 0 0 .43478261 16.69565 15.711652)">
  <path d="m247.92 354.325v-82.736l-27.15 26.616-9.936-10.136 34.623-33.941-34.688-34.916 10.069-10.003 27.084 27.261v-78.795l53.31 61.652-35.635 34.934 35.474 35.706zm14.195-83.429v43.952l19.821-24.001zm0-75.106v42.008l19.66-19.273z" style="fill:url(#SVGID_1_)"/>
  <path d="m256.419 137.688c24.33 0 47.02 7.098 66.163 19.29l10.801-16.063c-22.227-14.268-48.647-22.549-76.964-22.549-28.566 0-55.197 8.433-77.545 22.932l10.796 16.056c19.266-12.422 42.171-19.666 66.749-19.666z" style="fill:url(#SVGID_2_)"/>
  <path d="m338.231 378.294-10.795-16.054c-20.108 14.18-44.597 22.544-71.017 22.544-26.669 0-51.371-8.522-71.584-22.947l-10.799 16.061c23.297 16.5 51.727 26.208 82.383 26.208 30.408 0 58.622-9.556 81.812-25.812z" style="fill:url(#SVGID_3_)"/>
  <path d="m153.289 103.247 10.778 16.029c26.433-17.538 58.113-27.771 92.143-27.771 33.905 0 65.478 10.159 91.853 27.58l10.778-16.029c-29.456-19.498-64.738-30.873-102.631-30.873-38.018 0-73.407 11.448-102.921 31.064z" style="fill:url(#SVGID_4_)"/>
  <path d="m256.209 425.731c-35.075 0-67.654-10.871-94.563-29.407l-10.778 16.029c29.991 20.615 66.279 32.7 105.342 32.7 38.938 0 75.121-12.007 105.056-32.502l-10.778-16.03c-26.855 18.417-59.328 29.21-94.279 29.21z" style="fill:url(#SVGID_5_)"/>
  <path d="m256 45.322c43.481 0 83.926 13.243 117.519 35.903l10.778-16.029c-36.673-24.739-80.828-39.196-128.297-39.196s-91.624 14.457-128.297 39.196l10.778 16.029c33.593-22.66 74.038-35.903 117.519-35.903z" style="fill:url(#SVGID_6_)"/>
  <path d="m384.297 446.804-10.778-16.029c-33.592 22.661-74.038 35.903-117.519 35.903s-83.926-13.243-117.519-35.903l-10.778 16.029c36.673 24.739 80.828 39.196 128.297 39.196s91.624-14.457 128.297-39.196z" style="fill:url(#SVGID_7_)"/>
  <path d="m137.688 255.581c0-24.33 7.098-47.02 19.29-66.163l-16.063-10.801c-14.268 22.227-22.549 48.647-22.549 76.964 0 28.566 8.433 55.197 22.932 77.545l16.056-10.796c-12.422-19.266-19.666-42.171-19.666-66.749z" style="fill:#ffffff"/>
  <path d="m378.294 173.769-16.054 10.795c14.18 20.108 22.544 44.597 22.544 71.017 0 26.669-8.522 51.371-22.947 71.584l16.061 10.799c16.5-23.297 26.208-51.727 26.208-82.383 0-30.408-9.556-58.622-25.812-81.812z" style="fill:#ffffff"/>
  <path d="m103.247 358.712 16.029-10.778c-17.538-26.433-27.771-58.113-27.771-92.143 0-33.905 10.159-65.478 27.58-91.853l-16.029-10.778c-19.498 29.456-30.873 64.738-30.873 102.631 0 38.017 11.448 73.406 31.064 102.921z" style="fill:#ffffff"/>
  <path d="m425.731 255.791c0 35.075-10.871 67.654-29.407 94.563l16.029 10.778c20.615-29.991 32.7-66.279 32.7-105.342 0-38.938-12.007-75.121-32.502-105.056l-16.03 10.778c18.417 26.855 29.21 59.328 29.21 94.279z" style="fill:#ffffff"/>
  <path d="m45.322 256c0-43.481 13.243-83.926 35.903-117.519l-16.029-10.778c-24.739 36.673-39.196 80.828-39.196 128.297s14.457 91.624 39.196 128.297l16.029-10.778c-22.66-33.593-35.903-74.038-35.903-117.519z" style="fill:#ffffff"/>
  <path d="m446.804 127.703-16.029 10.778c22.661 33.592 35.903 74.038 35.903 117.519s-13.243 83.926-35.903 117.519l16.029 10.778c24.739-36.673 39.196-80.828 39.196-128.297s-14.457-91.624-39.196-128.297z" style="fill:#ffffff"/>
 </g>
</svg>
