<?xml version="1.0" encoding="UTF-8" standalone="no"?>
<svg
   xmlns:dc="http://purl.org/dc/elements/1.1/"
   xmlns:cc="http://creativecommons.org/ns#"
   xmlns:rdf="http://www.w3.org/1999/02/22-rdf-syntax-ns#"
   xmlns:svg="http://www.w3.org/2000/svg"
   xmlns="http://www.w3.org/2000/svg"
   xmlns:sodipodi="http://sodipodi.sourceforge.net/DTD/sodipodi-0.dtd"
   xmlns:inkscape="http://www.inkscape.org/namespaces/inkscape"
   width="256"
   height="256"
   version="1.1"
   viewBox="0 0 67.73 67.73"
   id="svg45"
   sodipodi:docname="brave.svg"
   inkscape:version="0.92.3 (2405546, 2018-03-11)">
  <metadata
     id="metadata49">
    <rdf:RDF>
      <cc:Work
         rdf:about="">
        <dc:format>image/svg+xml</dc:format>
        <dc:type
           rdf:resource="http://purl.org/dc/dcmitype/StillImage" />
      </cc:Work>
    </rdf:RDF>
  </metadata>
  <sodipodi:namedview
     pagecolor="#ffffff"
     bordercolor="#666666"
     borderopacity="1"
     objecttolerance="10"
     gridtolerance="10"
     guidetolerance="10"
     inkscape:pageopacity="0"
     inkscape:pageshadow="2"
     inkscape:window-width="770"
     inkscape:window-height="480"
     id="namedview47"
     showgrid="false"
     inkscape:zoom="0.921875"
     inkscape:cx="128"
     inkscape:cy="128"
     inkscape:window-x="970"
     inkscape:window-y="156"
     inkscape:window-maximized="0"
     inkscape:current-layer="g43" />
  <defs
     id="defs23">
    <linearGradient
       id="linearGradient1108-7"
       x1="296"
       x2="296"
       y1="-212"
       y2="236"
       gradientUnits="userSpaceOnUse">
      <stop
         style="stop-color:#ffffff"
         offset="0"
         id="stop2" />
      <stop
         style="stop-color:#ffffff;stop-opacity:.09803922"
         offset=".125"
         id="stop4" />
      <stop
         style="stop-color:#000000;stop-opacity:.09803922"
         offset=".925"
         id="stop6" />
      <stop
         style="stop-color:#000000;stop-opacity:.49803922"
         offset="1"
         id="stop8" />
    </linearGradient>
    <clipPath
       id="clipPath1082-3-69">
      <path
         d="M 361.9375,-212 C 507.2348,-212 528,-191.28677 528,-46.125 V 70.125 C 528,215.28618 507.2348,236 361.9375,236 H 214.0625 C 68.7652,236 48,215.28618 48,70.125 V -46.125 C 48,-191.28677 68.7652,-212 214.0625,-212 Z"
         style="fill:#8c59d9"
         id="path11" />
    </clipPath>
    <filter
       id="filter958"
       x="-.02"
       y="-.03"
       width="1.046"
       height="1.05"
       style="color-interpolation-filters:sRGB">
      <feGaussianBlur
         stdDeviation="2.32"
         id="feGaussianBlur14" />
    </filter>
    <filter
       id="filter4569"
       x="-.01"
       y="-.01"
       width="1.023"
       height="1.025"
       style="color-interpolation-filters:sRGB">
      <feGaussianBlur
         stdDeviation="1.16"
         id="feGaussianBlur17" />
    </filter>
    <filter
       id="filter4027"
       x="-.05"
       y="-.05"
       width="1.093"
       height="1.099"
       style="color-interpolation-filters:sRGB">
      <feGaussianBlur
         stdDeviation=".818"
         id="feGaussianBlur20" />
    </filter>
  </defs>
  <g
     transform="translate(0,-229.26666)"
     id="g43">
    <path
       transform="matrix(.26970778 0 0 .26970778 -7.1289177 220.56049)"
       d="m188.96876 43.999995c72.64865 0 83.03125 10.356615 83.03125 82.937505v58.125c0 72.58059-10.3826 82.9375-83.03125 82.9375h-73.9375c-72.648654 0-83.031254-10.35691-83.031254-82.9375v-58.125c0-72.58089 10.3826-82.937505 83.031254-82.937505z"
       style="filter:url(#filter4569);opacity:.1"
       id="path25" />
    <path
       transform="matrix(.26970778 0 0 .26970778 -7.1289177 220.56049)"
       d="m188.96876 45.999995c72.64865 0 83.03125 10.356615 83.03125 82.937505v58.125c0 72.58059-10.3826 82.9375-83.03125 82.9375h-73.9375c-72.648654 0-83.031254-10.35691-83.031254-82.9375v-58.125c0-72.58089 10.3826-82.937505 83.031254-82.937505z"
       style="filter:url(#filter958);opacity:.2"
       id="path27" />
    <path
       d="m 43.485321,232.24772 c 19.593907,0 22.394175,2.79326 22.394175,22.36889 v 15.67677 c 0,19.57555 -2.800268,22.36888 -22.394175,22.36888 h -19.94152 c -19.593906,0 -22.394174,-2.79333 -22.394174,-22.36888 v -15.67677 c 0,-19.57563 2.8002682,-22.36889 22.394174,-22.36889 z"
       style="fill:#ed5000;fill-opacity:1"
       id="path29"
       inkscape:connector-curvature="0" />
    <path
       transform="matrix(.13485389 0 0 .13485389 -4.9712555 261.01666)"
       d="M 361.9375,-212 C 507.2348,-212 528,-191.28677 528,-46.125 V 70.125 C 528,215.28618 507.2348,236 361.9375,236 H 214.0625 C 68.7652,236 48,215.28618 48,70.125 V -46.125 C 48,-191.28677 68.7652,-212 214.0625,-212 Z"
       clip-path="url(#clipPath1082-3-69)"
       style="fill:none;opacity:.6;stroke-linecap:round;stroke-linejoin:round;stroke-width:8;stroke:url(#linearGradient1108-7)"
       id="path31" />
    <g
       transform="rotate(-180,32.740687,259.26532)"
       id="g37">
      <path
         d="m 31.96681,225.86837 v 60.41455 h 9.970762 c 19.593907,0 22.394175,-2.79334 22.394175,-22.36889 v -15.67677 c 0,-19.57563 -2.800268,-22.36889 -22.394175,-22.36889 z"
         style="opacity:0.1;fill:#ffffff"
         id="path33"
         inkscape:connector-curvature="0" />
    </g>
    <path
       d="m32.823296 281.69874c-0.486663-0.37973-2.060178-1.62853-3.496701-2.7751-1.436522-1.1466-2.989805-2.3745-3.451748-2.72865-1.072787-0.8225-1.016192-0.87808 2.848313-2.79688 3.969041-1.97072 4.835638-2.2252 6.213561-1.82457 1.483355 0.43127 7.719881 3.4801 7.719881 3.77397 0 0.13225-0.932035 0.94278-2.071185 1.80095-1.139155 0.8582-2.749033 2.1393-3.577503 2.84693-1.90123 1.62385-2.90705 2.39375-3.127303 2.39375-0.09485 0-0.570653-0.3107-1.057315-0.6904zm-10.922067-9.4145c-1.23161-1.13085-2.075815-2.64355-2.084937-3.7359-0.0033-0.36328 0.27692-1.41085 0.622122-2.32798 0.345195-0.9171 0.62763-1.87215 0.62763-2.12232 0-0.26035-1.668085-2.04233-3.900435-4.16675-2.145236-2.0415-4.060866-4.02208-4.256948-4.40128-0.515983-0.9978-0.111325-2.18467 1.621805-4.75692 1.845965-2.73968 4.979848-6.79276 5.362998-6.93598 0.16165-0.0605 1.774363 0.155 3.583816 0.4787l3.28992 0.58857 3.551273-1.01185 3.551276-1.01187 3.538983 1.00837 3.538973 1.00835 3.384452-0.59977c2.765861-0.49018 3.454868-0.54135 3.769736-0.28005 0.546035 0.45317 5.129876 6.6066 6.084638 8.16815 0.52273 0.85493 0.811723 1.66958 0.839515 2.3665 0.04232 1.06183 0.03862 1.06638-4.158038 5.09813-2.31023 2.21945-4.199098 4.17867-4.197483 4.35387 0.0013 0.17525 0.28536 1.12693 0.63056 2.11495 0.753633 2.15708 0.780938 2.9347 0.146675 4.17795-0.6688 1.31095-2.614697 3.0541-3.409328 3.0541-0.35079 0-1.790587-0.57847-3.19954-1.28552-1.889825-0.94838-3.008048-1.71643-4.263343-2.9283-0.935878-0.90353-1.701595-1.8311-1.701595-2.06133 0-0.23025 1.242707-1.57625 2.76158-2.99125 1.699235-1.58302 2.761583-2.76187 2.761583-3.06445 0-0.27047-0.395408-1.51562-0.878688-2.76697-1.03007-2.6672-1.093615-3.54078-0.313815-4.31425 0.31068-0.30815 2.456941-1.29153 4.769471-2.1853 2.312538-0.89375 4.204846-1.70283 4.205136-1.79793 6.62e-4 -0.26732-2.137521-0.52547-4.376889-0.5284-1.702117-2e-3 -2.379405 0.13325-4.254065 0.85145-1.26308 0.48383-2.365831 1.07173-2.543803 1.35618-0.26205 0.41882-0.165525 1.182 0.581885 4.6007 1.014425 4.64002 1.085705 4.3536-1.206083 4.84622-1.70942 0.36743-3.236663 0.36463-5.02559-0.01-2.285756-0.47765-2.215998-0.19675-1.201553-4.83702 0.746-3.41225 0.843645-4.18268 0.583123-4.6007-0.184625-0.29623-1.330551-0.88605-2.794853-1.4385-2.242808-0.84618-2.651246-0.92398-4.239301-0.8074-2.956593 0.217-4.14876 0.40062-4.014318 0.61815 0.0707 0.1145 2.047953 0.96037 4.393908 1.88 4.389683 1.72072 5.015343 2.14205 5.020886 3.38112 0.0013 0.349-0.40878 1.7253-0.911878 3.05848-0.580015 1.537-0.859552 2.63935-0.763952 3.01262 0.08292 0.3238 1.340577 1.64005 2.79478 2.92503 1.558463 1.37712 2.644008 2.52652 2.644008 2.79955 0 0.25477-0.848763 1.25587-1.886135 2.22467-1.996666 1.86465-5.919134 4.06235-7.250511 4.06235-0.43346 0-1.070966-0.37215-1.827661-1.06697z"
       style="fill:#181800;filter:url(#filter4027);opacity:.3"
       id="path39" />
    <path
       d="m32.823296 281.69874c-0.486663-0.37973-2.060178-1.62853-3.496701-2.7751-1.436522-1.1466-2.989805-2.3745-3.451748-2.72865-1.072787-0.8225-1.016192-0.87808 2.848313-2.79688 3.969041-1.97072 4.835638-2.2252 6.213561-1.82457 1.483355 0.43127 7.719881 3.4801 7.719881 3.77397 0 0.13225-0.932035 0.94278-2.071185 1.80095-1.139155 0.8582-2.749033 2.1393-3.577503 2.84693-1.90123 1.62385-2.90705 2.39375-3.127303 2.39375-0.09485 0-0.570653-0.3107-1.057315-0.6904zm-10.922067-9.4145c-1.23161-1.13085-2.075815-2.64355-2.084937-3.7359-0.0033-0.36328 0.27692-1.41085 0.622122-2.32798 0.345195-0.9171 0.62763-1.87215 0.62763-2.12232 0-0.26035-1.668085-2.04233-3.900435-4.16675-2.145236-2.0415-4.060866-4.02208-4.256948-4.40128-0.515983-0.9978-0.111325-2.18467 1.621805-4.75692 1.845965-2.73968 4.979848-6.79276 5.362998-6.93598 0.16165-0.0605 1.774363 0.155 3.583816 0.4787l3.28992 0.58857 3.551273-1.01185 3.551276-1.01187 3.538983 1.00837 3.538973 1.00835 3.384452-0.59977c2.765861-0.49018 3.454868-0.54135 3.769736-0.28005 0.546035 0.45317 5.129876 6.6066 6.084638 8.16815 0.52273 0.85493 0.811723 1.66958 0.839515 2.3665 0.04232 1.06183 0.03862 1.06638-4.158038 5.09813-2.31023 2.21945-4.199098 4.17867-4.197483 4.35387 0.0013 0.17525 0.28536 1.12693 0.63056 2.11495 0.753633 2.15708 0.780938 2.9347 0.146675 4.17795-0.6688 1.31095-2.614697 3.0541-3.409328 3.0541-0.35079 0-1.790587-0.57847-3.19954-1.28552-1.889825-0.94838-3.008048-1.71643-4.263343-2.9283-0.935878-0.90353-1.701595-1.8311-1.701595-2.06133 0-0.23025 1.242707-1.57625 2.76158-2.99125 1.699235-1.58302 2.761583-2.76187 2.761583-3.06445 0-0.27047-0.395408-1.51562-0.878688-2.76697-1.03007-2.6672-1.093615-3.54078-0.313815-4.31425 0.31068-0.30815 2.456941-1.29153 4.769471-2.1853 2.312538-0.89375 4.204846-1.70283 4.205136-1.79793 6.62e-4 -0.26732-2.137521-0.52547-4.376889-0.5284-1.702117-2e-3 -2.379405 0.13325-4.254065 0.85145-1.26308 0.48383-2.365831 1.07173-2.543803 1.35618-0.26205 0.41882-0.165525 1.182 0.581885 4.6007 1.014425 4.64002 1.085705 4.3536-1.206083 4.84622-1.70942 0.36743-3.236663 0.36463-5.02559-0.01-2.285756-0.47765-2.215998-0.19675-1.201553-4.83702 0.746-3.41225 0.843645-4.18268 0.583123-4.6007-0.184625-0.29623-1.330551-0.88605-2.794853-1.4385-2.242808-0.84618-2.651246-0.92398-4.239301-0.8074-2.956593 0.217-4.14876 0.40062-4.014318 0.61815 0.0707 0.1145 2.047953 0.96037 4.393908 1.88 4.389683 1.72072 5.015343 2.14205 5.020886 3.38112 0.0013 0.349-0.40878 1.7253-0.911878 3.05848-0.580015 1.537-0.859552 2.63935-0.763952 3.01262 0.08292 0.3238 1.340577 1.64005 2.79478 2.92503 1.558463 1.37712 2.644008 2.52652 2.644008 2.79955 0 0.25477-0.848763 1.25587-1.886135 2.22467-1.996666 1.86465-5.919134 4.06235-7.250511 4.06235-0.43346 0-1.070966-0.37215-1.827661-1.06697z"
       style="fill:#ffffff;fill-opacity:1"
       id="path41" />
  </g>
</svg>
