<svg width="256" height="256" version="1.1" viewBox="0 0 67.73 67.73" xmlns="http://www.w3.org/2000/svg" xmlns:xlink="http://www.w3.org/1999/xlink">
 <defs>
  <linearGradient id="linearGradient1108" x1="296" x2="296" y1="-212" y2="236" gradientUnits="userSpaceOnUse">
   <stop style="stop-color:#ffffff" offset="0"/>
   <stop style="stop-color:#ffffff;stop-opacity:.09803922" offset=".125"/>
   <stop style="stop-color:#000000;stop-opacity:.09803922" offset=".925"/>
   <stop style="stop-color:#000000;stop-opacity:.49803922" offset="1"/>
  </linearGradient>
  <clipPath id="clipPath1082-3-06">
   <path d="M 361.9375,-212 C 507.2348,-212 528,-191.28677 528,-46.125 V 70.125 C 528,215.28618 507.2348,236 361.9375,236 H 214.0625 C 68.7652,236 48,215.28618 48,70.125 V -46.125 C 48,-191.28677 68.7652,-212 214.0625,-212 Z" style="fill:#8c59d9"/>
  </clipPath>
  <linearGradient id="linearGradient910" x1="160" x2="160" y1="44" y2="268" gradientTransform="matrix(.26970778 0 0 .26970778 -7.1289176 220.56049)" gradientUnits="userSpaceOnUse">
   <stop style="stop-color:#eab305" offset="0"/>
   <stop style="stop-color:#ffda64" offset="1"/>
  </linearGradient>
  <filter id="filter4569" x="-.01" y="-.01" width="1.023" height="1.025" style="color-interpolation-filters:sRGB">
   <feGaussianBlur stdDeviation="1.16"/>
  </filter>
  <filter id="filter924" x="-.02" y="-.03" width="1.046" height="1.05" style="color-interpolation-filters:sRGB">
   <feGaussianBlur stdDeviation="2.32"/>
  </filter>
 </defs>
 <g transform="translate(0,-229.26666)">
  <path transform="matrix(.26970778 0 0 .26970778 -7.1289177 220.56049)" d="m188.96876 45.999995c72.64865 0 83.03125 10.356615 83.03125 82.937505v58.125c0 72.58059-10.3826 82.9375-83.03125 82.9375h-73.9375c-72.648654 0-83.031254-10.35691-83.031254-82.9375v-58.125c0-72.58089 10.3826-82.937505 83.031254-82.937505z" style="filter:url(#filter924);opacity:.2"/>
  <path transform="matrix(.26970778 0 0 .26970778 -7.1289177 220.56049)" d="m188.96876 43.999995c72.64865 0 83.03125 10.356615 83.03125 82.937505v58.125c0 72.58059-10.3826 82.9375-83.03125 82.9375h-73.9375c-72.648654 0-83.031254-10.35691-83.031254-82.9375v-58.125c0-72.58089 10.3826-82.937505 83.031254-82.937505z" style="filter:url(#filter4569);opacity:.1"/>
  <path d="m43.837426 232.42763c19.593907 0 22.394175 2.79326 22.394175 22.36889v15.67677c0 19.57555-2.800268 22.36888-22.394175 22.36888h-19.94152c-19.593906 0-22.394174-2.79333-22.394174-22.36888v-15.67677c0-19.57563 2.8002681-22.36889 22.394174-22.36889z" style="fill:url(#linearGradient910)"/>
  <path transform="matrix(.13485389 0 0 .13485389 -4.9712555 261.01666)" d="M 361.9375,-212 C 507.2348,-212 528,-191.28677 528,-46.125 V 70.125 C 528,215.28618 507.2348,236 361.9375,236 H 214.0625 C 68.7652,236 48,215.28618 48,70.125 V -46.125 C 48,-191.28677 68.7652,-212 214.0625,-212 Z" clip-path="url(#clipPath1082-3-06)" style="fill:none;opacity:.4;stroke-linecap:round;stroke-linejoin:round;stroke-width:8;stroke:url(#linearGradient1108)"/>
  <path d="m38.331306 239.35196c-3.160576 0-5.703659 2.44605-5.912354 5.55191l-2.680027 2.68005-1.651038 1.65102-2.35448 2.35449c-0.733714-0.19351-1.488477-0.33187-2.284707-0.33187-4.946971 0-8.929563 3.98265-8.929563 8.92955 0 2.6453 1.160534 4.98932 2.976519 6.62166v11.23747h11.906088v-11.23747c1.815984-1.63234 2.976517-3.97636 2.976517-6.62166 0-0.79648-0.137586-1.55102-0.33142-2.28471l2.354479-2.35438 1.651039-1.65114 2.680026-2.67994c0.384296-0.0225 0.755428-0.0899 1.11621-0.18562l2.302146 2.30217 0.02925 0.0338 0.430194 0.42974-0.866238 0.86624c-0.279108 0.279-0.435931 0.65812-0.436045 1.05187v5.95296c9.2e-5 0.82237 0.66633 1.48824 1.488265 1.48835l5.953045 0.0118c2.012607 0.0338 2.012607-3.00495 0-2.97649l-4.464782-6e-3v-3.84857l5.081016-5.08685h3.848547v4.46484c-0.02813 2.0126 3.004979 2.0126 2.976516 0v-5.95307c-7.8e-5 -0.82237-0.666328-1.48814-1.488263-1.48825h-5.953001c-0.394643 1.1e-4 -0.773202 0.15638-1.052309 0.43651l-0.877825 0.87748-0.430193-0.42975-0.02925-0.0338-2.29634-2.29631c0.129935-0.48936 0.220948-0.99111 0.220948-1.52323 0-3.29801-2.655053-5.95307-5.953034-5.95307zm0 2.97648c1.64899 0 2.976517 1.32759 2.976517 2.97661 0 1.64899-1.327527 2.97648-2.976517 2.97648-1.649002 0-2.976528-1.32749-2.976528-2.97648 0-1.64902 1.327526-2.97661 2.976528-2.97661zm-14.882606 11.90616c3.29798 0 5.953044 2.65507 5.953044 5.95297 0 1.09236-0.310382 2.09843-0.819664 2.97659-0.50523 0.87074-1.22855 1.59512-2.087047 2.1161-0.04387 0.0225-0.08887 0.0449-0.133767 0.0787-0.351445 0.20138-0.729665 0.35662-1.122059 0.48262-0.116093 0.0338-0.229722 0.0787-0.348858 0.10125-0.462817 0.11704-0.94071 0.19687-1.441768 0.19687-0.501068 0-0.978961-0.0787-1.441746-0.198-0.119129-0.0338-0.232645-0.0676-0.348857-0.10124-0.392395-0.12605-0.770615-0.28238-1.12206-0.48262-0.04501-0.0226-0.09-0.045-0.13365-0.0787-0.858474-0.52087-1.581794-1.24481-2.087048-2.11599-0.50928-0.87748-0.819662-1.88434-0.819662-2.97649 0-3.29798 2.655052-5.95306 5.953033-5.95306zm0 2.97649c-1.648991 0-2.976516 1.32747-2.976516 2.97648 0 1.649 1.327525 2.97659 2.976516 2.97659s2.976516-1.32759 2.976516-2.97659c0-1.64901-1.327525-2.97648-2.976516-2.97648zm-8.929563 23.81219s-2.976516 0-2.976516 2.97648v2.97649h23.812157v-2.97649s0-2.97648-2.976517-2.97648z" style="fill-opacity:.94117647;fill-rule:evenodd;fill:#ffffff;opacity:.4"/>
  <path d="m38.331306 238.8229c-3.160576 0-5.703659 2.44605-5.912354 5.55191l-2.680027 2.68005-1.651038 1.65102-2.35448 2.35449c-0.733714-0.19351-1.488477-0.33187-2.284707-0.33187-4.946971 0-8.929563 3.98265-8.929563 8.92955 0 2.6453 1.160534 4.98932 2.976519 6.62166v11.23747h11.906088v-11.23747c1.815984-1.63234 2.976517-3.97636 2.976517-6.62166 0-0.79648-0.137586-1.55102-0.33142-2.28471l2.354479-2.35438 1.651039-1.65114 2.680026-2.67994c0.384296-0.0225 0.755428-0.0899 1.11621-0.18562l2.302146 2.30217 0.02925 0.0338 0.430194 0.42974-0.866238 0.86624c-0.279108 0.279-0.435931 0.65812-0.436045 1.05187v5.95296c9.2e-5 0.82237 0.66633 1.48824 1.488265 1.48835l5.953045 0.0118c2.012607 0.0338 2.012607-3.00495 0-2.97649l-4.464782-6e-3v-3.84857l5.081016-5.08685h3.848547v4.46484c-0.02813 2.0126 3.004979 2.0126 2.976516 0v-5.95307c-7.8e-5 -0.82237-0.666328-1.48814-1.488263-1.48825h-5.953001c-0.394643 1.1e-4 -0.773202 0.15638-1.052309 0.43651l-0.877825 0.87748-0.430193-0.42975-0.02925-0.0338-2.29634-2.29631c0.129935-0.48936 0.220948-0.99111 0.220948-1.52323 0-3.29801-2.655053-5.95307-5.953034-5.95307zm0 2.97648c1.64899 0 2.976517 1.32759 2.976517 2.97661 0 1.64899-1.327527 2.97648-2.976517 2.97648-1.649002 0-2.976528-1.32749-2.976528-2.97648 0-1.64902 1.327526-2.97661 2.976528-2.97661zm-14.882606 11.90616c3.29798 0 5.953044 2.65507 5.953044 5.95297 0 1.09236-0.310382 2.09843-0.819664 2.97659-0.50523 0.87074-1.22855 1.59512-2.087047 2.1161-0.04387 0.0225-0.08887 0.0449-0.133767 0.0787-0.351445 0.20138-0.729665 0.35662-1.122059 0.48262-0.116093 0.0338-0.229722 0.0787-0.348858 0.10125-0.462817 0.11704-0.94071 0.19687-1.441768 0.19687-0.501068 0-0.978961-0.0787-1.441746-0.198-0.119129-0.0338-0.232645-0.0676-0.348857-0.10124-0.392395-0.12605-0.770615-0.28238-1.12206-0.48262-0.04501-0.0226-0.09-0.045-0.13365-0.0787-0.858474-0.52087-1.581794-1.24481-2.087048-2.11599-0.50928-0.87748-0.819662-1.88434-0.819662-2.97649 0-3.29798 2.655052-5.95306 5.953033-5.95306zm0 2.97649c-1.648991 0-2.976516 1.32747-2.976516 2.97648 0 1.649 1.327525 2.97659 2.976516 2.97659s2.976516-1.32759 2.976516-2.97659c0-1.64901-1.327525-2.97648-2.976516-2.97648zm-8.929563 23.81219s-2.976516 0-2.976516 2.97648v2.97649h23.812157v-2.97649s0-2.97648-2.976517-2.97648z" style="fill-rule:evenodd;fill:#555555"/>
 </g>
</svg>
