<svg xmlns="http://www.w3.org/2000/svg" xmlns:xlink="http://www.w3.org/1999/xlink" width="256" height="256" version="1.1" viewBox="0 0 67.73 67.73">
 <defs>
  <linearGradient id="linearGradient1108" x1="296" x2="296" y1="-212" y2="236" gradientUnits="userSpaceOnUse" xlink:href="#linearGradient1013"/>
  <linearGradient id="linearGradient1013">
   <stop offset="0" style="stop-color:#ffffff"/>
   <stop style="stop-color:#ffffff;stop-opacity:0.09803922" offset=".125"/>
   <stop style="stop-color:#000000;stop-opacity:0.09803922" offset=".925"/>
   <stop offset="1" style="stop-color:#000000;stop-opacity:0.49803922"/>
  </linearGradient>
  <clipPath id="clipPath1082-3-31" clipPathUnits="userSpaceOnUse">
   <path d="M 361.9375,-212 C 507.2348,-212 528,-191.28677 528,-46.125 V 70.125 C 528,215.28618 507.2348,236 361.9375,236 H 214.0625 C 68.7652,236 48,215.28618 48,70.125 V -46.125 C 48,-191.28677 68.7652,-212 214.0625,-212 Z" style="fill:#8c59d9"/>
  </clipPath>
  <clipPath id="clipPath1205" clipPathUnits="userSpaceOnUse">
   <path d="M 115.03125,44 C 42.3826,44 32,54.356615 32,126.9375 v 58.125 c 0,13.772 0.379014,25.29352 1.482422,34.9375 H 270.51758 C 271.62099,210.35602 272,198.8345 272,185.0625 v -58.125 C 272,54.356615 261.6174,44 188.96875,44 Z" style="fill:#f1f0e9"/>
  </clipPath>
  <linearGradient id="linearGradient1183" x1="-2.352" x2="306.352" y1="264" y2="264" gradientTransform="translate(0,-4)" gradientUnits="userSpaceOnUse" xlink:href="#linearGradient1181"/>
  <linearGradient id="linearGradient1181">
   <stop style="stop-color:#000000;stop-opacity:0" offset="0"/>
   <stop offset=".5" style="stop-color:#000000;stop-opacity:0.89177489"/>
   <stop style="stop-color:#000000;stop-opacity:0" offset="1"/>
  </linearGradient>
  <filter style="color-interpolation-filters:sRGB" id="filter1171" width="1.015" height="1.053" x="-.01" y="-.03">
   <feGaussianBlur stdDeviation=".98"/>
  </filter>
  <filter style="color-interpolation-filters:sRGB" id="filter933" width="1.046" height="1.05" x="-.02" y="-.03">
   <feGaussianBlur stdDeviation="2.32"/>
  </filter>
  <filter style="color-interpolation-filters:sRGB" id="filter4569" width="1.023" height="1.025" x="-.01" y="-.01">
   <feGaussianBlur stdDeviation="1.16"/>
  </filter>
  <linearGradient id="6" x1="-41.26" x2="-2.994" y1="-.883" y2="37.956" gradientTransform="translate(-1.01,-1.022)" gradientUnits="userSpaceOnUse">
   <stop stop-color="#21c9fb"/>
   <stop offset="1" stop-color="#1a86f2"/>
  </linearGradient>
  <linearGradient id="7-3" x1="45" x2="14" y1="36" y2="12" gradientTransform="matrix(1.1087745,0,0,1.1087745,8.2935517,240.76937)" gradientUnits="userSpaceOnUse" xlink:href="#6"/>
  <filter style="color-interpolation-filters:sRGB" id="filter948" width="1.085" height="1.111" x="-.04" y="-.06">
   <feGaussianBlur stdDeviation=".608"/>
  </filter>
 </defs>
 <g transform="translate(0,-229.26666)">
  <path d="m 188.96876,43.999995 c 72.64865,0 83.03125,10.356615 83.03125,82.937505 v 58.125 c 0,72.58059 -10.3826,82.9375 -83.03125,82.9375 h -73.9375 C 42.382606,268 32.000006,257.64309 32.000006,185.0625 v -58.125 c 0,-72.58089 10.3826,-82.937505 83.031254,-82.937505 z" transform="matrix(0.26970778,0,0,0.26970778,-7.1289177,220.56049)" style="opacity:0.1;filter:url(#filter4569)"/>
  <path style="opacity:0.2;filter:url(#filter933)" d="m 188.96876,45.999995 c 72.64865,0 83.03125,10.356615 83.03125,82.937505 v 58.125 c 0,72.58059 -10.3826,82.9375 -83.03125,82.9375 h -73.9375 C 42.382606,270 32.000006,259.64309 32.000006,187.0625 v -58.125 c 0,-72.58089 10.3826,-82.937505 83.031254,-82.937505 z" transform="matrix(0.26970778,0,0,0.26970778,-7.1289177,220.56049)"/>
  <path style="fill:#f1f0e9" d="m 23.895906,292.84217 c -19.593906,0 -22.3941741,-2.79325 -22.3941741,-22.36888 v -15.67677 c 0,-3.71442 0.1022231,-6.82186 0.3998209,-9.42292 H 65.831778 c 0.297601,2.60106 0.399823,5.7085 0.399823,9.42292 v 15.67677 c 0,19.57563 -2.800268,22.36888 -22.394175,22.36888 z"/>
  <g style="enable-background:new" clip-path="url(#clipPath1205)" transform="matrix(0.26970778,0,0,-0.26970778,-7.1289177,304.70932)">
   <path style="opacity:0.4;fill:url(#linearGradient1183);filter:url(#filter1195)" d="m 0,216 h 304 v 88 H 0 Z"/>
   <rect width="304" height="88" x="0" y="220" style="opacity:0.1;filter:url(#filter1171)"/>
  </g>
  <path d="m 18.919725,252.94514 -5.322273,14.02488 h -1.307409 v 1.07883 h 3.775872 v -1.07883 h -1.208869 l 1.261089,-3.23876 h 6.257631 l 1.259594,3.23876 h -1.63314 v 1.07883 h 5.416405 v -1.07883 h -1.49418 l -5.323766,-14.02488 z m 0.327226,2.42804 2.755269,7.28377 H 16.538 Z" font-size="13.717" font-weight="400" letter-spacing="0" overflow="visible" word-spacing="0" style="fill:#5d5d5d"/>
  <path style="opacity:0.02000002" d="m 23.895906,292.84217 c -19.593906,0 -22.3941741,-2.79325 -22.3941741,-22.36888 v -15.67677 c 0,-3.71442 0.1022231,-6.82186 0.3998209,-9.42292 H 33.866664 v 47.46857 z"/>
  <path style="fill:#1eaff8" d="M 1.9078739,245.3736 C 3.1794047,234.27636 8.026332,232.42763 23.895906,232.42763 h 19.94152 c 15.869576,0 20.7165,1.84873 21.988031,12.94597 z"/>
  <path style="fill:#e3dfd5;fill-opacity:0.99607843" d="m 29.551342,254.02427 v 1.07883 h 25.891947 v -1.07883 z m 0,4.31532 v 1.07884 h 25.891947 v -1.07884 z m 0,4.29531 v 1.07883 h 25.891947 v -1.07883 z m 0,4.31533 v 1.07883 h 25.891947 v -1.07883 z m -17.261299,4.31532 v 1.07883 l 43.153246,0.02 v -1.07883 z m 0,4.31533 v 1.07883 h 43.153246 v -1.07883 z m 0,4.31532 v 1.07883 h 32.364932 v -1.07883 z"/>
  <path d="M 361.9375,-212 C 507.2348,-212 528,-191.28677 528,-46.125 V 70.125 C 528,215.28618 507.2348,236 361.9375,236 H 214.0625 C 68.7652,236 48,215.28618 48,70.125 V -46.125 C 48,-191.28677 68.7652,-212 214.0625,-212 Z" clip-path="url(#clipPath1082-3-31)" transform="matrix(0.13485389,0,0,0.13485389,-4.9712547,261.01666)" style="opacity:0.4;fill:none;stroke:url(#linearGradient1108);stroke-width:8;stroke-linecap:round;stroke-linejoin:round"/>
  <path d="m 53.772792,253.86243 -8.859365,6.43825 0.621518,0.85327 7.473402,-5.42911 c 0.258814,0.33315 0.453168,0.56758 0.649671,0.70813 l -25.768181,18.72355 2.154749,2.96903 28.078848,-20.40408 -2.154749,-2.9668 -1.050301,0.7644 c -0.08955,-0.22712 -0.276247,-0.47597 -0.52407,-0.80124 z m -26.177473,21.46733 -3.867718,4.9072 6.098259,-1.88189 z" style="fill:#090d0e;fill-rule:evenodd;filter:url(#filter948);opacity:0.3"/>
  <path style="fill:url(#7-3);fill-rule:evenodd" d="m 53.772792,253.86243 -8.859365,6.43825 0.621518,0.85327 7.473402,-5.42911 c 0.258814,0.33315 0.453168,0.56758 0.649671,0.70813 l -25.768181,18.72355 2.154749,2.96903 28.078848,-20.40408 -2.154749,-2.9668 -1.050301,0.7644 c -0.08955,-0.22712 -0.276247,-0.47597 -0.52407,-0.80124 z m -26.177473,21.46733 -3.867718,4.9072 6.098259,-1.88189 z"/>
 </g>
</svg>
