<svg width="256" height="256" version="1.1" viewBox="0 0 67.73 67.73" xmlns="http://www.w3.org/2000/svg" xmlns:xlink="http://www.w3.org/1999/xlink">
 <defs>
  <linearGradient id="linearGradient1108" x1="296" x2="296" y1="-212" y2="236" gradientUnits="userSpaceOnUse">
   <stop style="stop-color:#ffffff" offset="0"/>
   <stop style="stop-color:#ffffff;stop-opacity:.09803922" offset=".125"/>
   <stop style="stop-color:#000000;stop-opacity:.09803922" offset=".925"/>
   <stop style="stop-color:#000000;stop-opacity:.49803922" offset="1"/>
  </linearGradient>
  <clipPath id="clipPath1082-3-3675">
   <path d="M 361.9375,-212 C 507.2348,-212 528,-191.28677 528,-46.125 V 70.125 C 528,215.28618 507.2348,236 361.9375,236 H 214.0625 C 68.7652,236 48,215.28618 48,70.125 V -46.125 C 48,-191.28677 68.7652,-212 214.0625,-212 Z" style="fill:#8c59d9"/>
  </clipPath>
  <filter id="filter930" x="-.02" y="-.03" width="1.046" height="1.05" style="color-interpolation-filters:sRGB">
   <feGaussianBlur stdDeviation="2.32"/>
  </filter>
  <filter id="filter4569" x="-.01" y="-.01" width="1.023" height="1.025" style="color-interpolation-filters:sRGB">
   <feGaussianBlur stdDeviation="1.16"/>
  </filter>
 </defs>
 <g transform="translate(0,-229.26666)">
  <path transform="matrix(.26458333 0 0 .26458333 -1.8735229e-8 232.67026)" d="m162.53675 3.5680001c72.64865 0 83.03125 10.356615 83.03125 82.937505v58.125005c0 72.58059-10.3826 82.9375-83.03125 82.9375h-73.937496c-72.648654 0-83.031254-10.35691-83.031254-82.9375v-58.125005c0-72.58089 10.3826-82.937505 83.031254-82.937505z" style="filter:url(#filter4569);opacity:.1"/>
  <path transform="matrix(.26458333 0 0 .26458333 -1.8735229e-8 232.67026)" d="m162.53675 5.5680001c72.64865 0 83.03125 10.356615 83.03125 82.937505v58.125005c0 72.58059-10.3826 82.9375-83.03125 82.9375h-73.937496c-72.648654 0-83.031254-10.35691-83.031254-82.9375v-58.125005c0-72.58089 10.3826-82.937505 83.031254-82.937505z" style="filter:url(#filter930);opacity:.2"/>
  <path d="m43.004513 233.61429c19.221622 0 21.968685 2.74019 21.968685 21.94388v15.37891c0 19.20362-2.747063 21.94388-21.968685 21.94388h-19.56263c-19.221622 0-21.968685-2.74026-21.968685-21.94388v-15.37891c0-19.20369 2.747063-21.94388 21.968685-21.94388z" style="fill:#b1e929"/>
  <g transform="matrix(.98099952 0 0 .98099952 1.9251701 5.6111647)">
   <g transform="translate(2.5712498,1.9884918)">
    <g transform="matrix(1.4226327,0,0,1.430385,-31.001379,-127.16748)">
     <path transform="matrix(.18958366 0 0 .18855617 18.604712 246.903)" d="m5.5683594 131.58594v3.49414c8.4642846-5.16874 17.210905-8.64649 24.302735-8.64649 20.545935 0 39.389792 15.73359 53.542968 40.38868 0.525598 0.91281 1.826287 0.93654 2.386719 0.04492 11.281893-18.00302 24.150219-33.69812 36.992189-44.8418 12.84199-11.14362 25.64324-17.66601 36.64258-17.66601 18.31623 0 35.26035 12.47489 48.76953 32.67773 13.44283 20.10366 23.35053 47.76558 27.66992 77.68164-0.01675 0.03185 0.36914 2.13867 0.36914 2.13867l2.29102-3.77734c-4.33667-30.4487-14.19579-56.94779-28.01172-77.60938-13.8159-20.66159-31.51484-33.91797-51.08789-33.91797-12.0805 0-25.34429 6.96086-38.46875 18.34961-12.6715 10.99572-25.193507 26.24036-36.306644 43.65039-14.316182-24.05728-33.401313-39.92578-54.789062-39.92578-7.951771 0-15.902814 2.79146-24.302735 7.95899z"/>
     <path transform="matrix(.26458333 0 0 .26458333 0 229.26666)" d="m132.87695 147.85547c-9.12354 0.0126-17.45087 5.19732-21.48828 13.37891 7.35764 4.99033 13.98441 12.61004 19.58985 21.97851 6.41687-9.99831 13.49018-18.99193 20.74609-26.20898-4.54957-5.7755-11.49545-9.14696-18.84766-9.14844z" style="fill-opacity:.99047618;fill:#ffc300"/>
    </g>
    <path d="m20.16923 290.84529h18.700977c2.496675 0 4.725733-0.0443 6.715304-0.1612 0.994785-0.0584 1.929773-0.13477 2.808228-0.23283 0.878458-0.0981 1.700422-0.21774 2.469513-0.36243 0.769094-0.14468 1.485177-0.31481 2.15187-0.51308 0.666694-0.19825 1.284036-0.42494 1.855297-0.68374 0.57126-0.2588 1.096473-0.54972 1.579264-0.87602 0.482793-0.32631 0.923021-0.68808 1.324309-1.08885 0.401287-0.40078 0.763672-0.84052 1.090421-1.32272 0.326748-0.4822 0.6179-1.00657 0.877076-1.57716 0.259175-0.5706 0.486237-1.18724 0.684807-1.85319 0.198567-0.66595 0.368679-1.38149 0.513602-2.14977 0.144924-0.76827 0.264702-1.58933 0.362948-2.46687 0.09825-0.87755 0.174828-1.81127 0.23336-2.80507 0.117064-1.98759 0.161719-4.21465 0.161719-6.70898v-15.98072c0-2.49436-0.04466-4.72139-0.161719-6.70899-0.03306-0.56119-0.08646-1.06036-0.131693-1.584-1.87872-6.93877-6.891689-8.22135-19.48587-8.22135h-18.279559c-17.961087 0-20.528353 2.56082-20.528353 20.50517v14.37037c0 16.65547 2.378486 20.01863 17.058499 20.42143z" style="fill:#ffe73f;opacity:.75"/>
    <g transform="matrix(1.2476853,0,0,1.2518845,-20.107485,-74.861839)">
     <path transform="matrix(.26458333 0 0 .26458333 0 229.26666)" d="m184.55859 139.0293c-8.65612 0-18.16029 4.95994-27.56445 13.07617-9.07959 7.83613-18.05265 18.7001-26.01562 31.10742-10.25807-17.1445-23.93271-28.45312-39.257817-28.45312-6.981717 0-13.932726 2.84067-21.519084 8.33588l0.0051 2.45531c7.231623-5.1569 15.277632-8.79119 21.513985-8.79119 14.721916 0 28.223966 11.21267 38.365236 28.7832 0.37661 0.65052 1.30937 0.66862 1.71094 0.0332 8.08389-12.82991 17.30411-24.01545 26.50585-31.95703 9.20176-7.94154 18.37443-12.58984 26.25586-12.58984 13.12425 0 25.2655 8.88949 34.94532 23.28711 9.63228 14.32694 16.73117 34.04154 19.82617 55.36132-0.012 0.0227 0.26488 1.52393 0.26488 1.52393l1.64067-2.69278c-0.0964-1.64548 0.0219 0.15204 0 0-3.10738-21.69936-10.17191-40.58311-20.07153-55.30766-9.8996-14.72455-22.58066-24.17187-36.60547-24.17187z"/>
     <path transform="matrix(.26458333 0 0 .26458333 0 229.26666)" d="m132.87695 147.85547c-9.12354 0.0126-17.45087 5.19732-21.48828 13.37891 7.35764 4.99033 13.98441 12.61004 19.58985 21.97851 6.41687-9.99831 13.49018-18.99193 20.74609-26.20898-4.54957-5.7755-11.49545-9.14696-18.84766-9.14844z" style="fill-opacity:.99047618;fill:#ffc300"/>
    </g>
    <path d="m49.543105 290.28533c0.448713-0.0643 0.922029-0.11804 1.339056-0.1965 0.769094-0.14468 1.485177-0.31481 2.15187-0.51308 0.666694-0.19825 1.284037-0.42494 1.855297-0.68374s1.096473-0.54972 1.579264-0.87602c0.482793-0.32631 0.923021-0.68808 1.324309-1.08885 0.401287-0.40078 0.763672-0.84052 1.090421-1.32272 0.326748-0.4822 0.617901-1.00657 0.877077-1.57716 0.259174-0.5706 0.486236-1.18724 0.684806-1.85319 0.198567-0.66595 0.36868-1.38149 0.513602-2.14977 0.144925-0.76827 0.264702-1.58933 0.362948-2.46687 0.09825-0.87755 0.174828-1.81127 0.23336-2.80507 0.09342-1.5862 0.113776-3.44877 0.129058-5.35413v-7.53549c0-14.68174-2.100201-16.77667-16.795636-16.77667h-14.956148c-14.695435 0-16.795637 2.09493-16.795637 16.77667v11.75758c0 14.68168 2.100202 16.77668 16.795637 16.77668h14.956148c1.730395 0 3.256308-0.0365 4.654568-0.11167z" style="fill:#ff6a30;opacity:.75"/>
    <g transform="matrix(1.0193685,0,0,1.0193685,-5.8134608,-7.6487744)">
     <path transform="matrix(.26458333 0 0 .26458333 0 229.26666)" d="m184.55859 139.0293c-8.65612 0-18.16029 4.95994-27.56445 13.07617-9.07959 7.83613-18.05265 18.7001-26.01562 31.10742-10.25807-17.1445-23.93271-28.45312-39.257817-28.45312-6.981717 0-13.932726 2.84067-21.519084 8.33588l0.0051 2.45531c7.231623-5.1569 15.277632-8.79119 21.513985-8.79119 14.721916 0 28.223966 11.21267 38.365236 28.7832 0.37661 0.65052 1.30937 0.66862 1.71094 0.0332 8.08389-12.82991 17.30411-24.01545 26.50585-31.95703 9.20176-7.94154 18.37443-12.58984 26.25586-12.58984 13.12425 0 25.2655 8.88949 34.94532 23.28711 9.63228 14.32694 16.73117 34.04154 19.82617 55.36132-0.012 0.0227 0.26488 1.52393 0.26488 1.52393l1.64067-2.69278c-0.0964-1.64548 0.0219 0.15204 0 0-3.10738-21.69936-10.17191-40.58311-20.07153-55.30766-9.8996-14.72455-22.58066-24.17187-36.60547-24.17187z"/>
     <path transform="matrix(.26458333 0 0 .26458333 0 229.26666)" d="m132.87695 147.85547c-9.12354 0.0126-17.45087 5.19732-21.48828 13.37891 7.35764 4.99033 13.98441 12.61004 19.58985 21.97851 6.41687-9.99831 13.49018-18.99193 20.74609-26.20898-4.54957-5.7755-11.49545-9.14696-18.84766-9.14844z" style="fill-opacity:.99047618;fill:#ffc300"/>
    </g>
   </g>
  </g>
  <path transform="matrix(.13229167 0 0 .13229167 -4.876802 261.66013)" d="M 361.9375,-212 C 507.2348,-212 528,-191.28677 528,-46.125 V 70.125 C 528,215.28618 507.2348,236 361.9375,236 H 214.0625 C 68.7652,236 48,215.28618 48,70.125 V -46.125 C 48,-191.28677 68.7652,-212 214.0625,-212 Z" clip-path="url(#clipPath1082-3-3675)" style="fill:none;opacity:.5;stroke-linecap:round;stroke-linejoin:round;stroke-width:8;stroke:url(#linearGradient1108)"/>
 </g>
</svg>
