<svg xmlns="http://www.w3.org/2000/svg" style="clip-rule:evenodd;fill-rule:evenodd;image-rendering:optimizeQuality;shape-rendering:geometricPrecision;text-rendering:geometricPrecision" width="256" height="256" version="1.1" viewBox="0 0 256 256">
 <defs>
  <style id="style2" type="text/css">
   <![CDATA[
    .fil5 {fill:none}
    .fil1 {fill:#196FBA}
    .fil0 {fill:#25B2EE}
    .fil4 {fill:#793C7C}
    .fil3 {fill:#8C508C}
    .fil2 {fill:white}
   ]]>
  </style>
  <filter id="filter939" width="1.046" height="1.05" x="-.02" y="-.03" style="color-interpolation-filters:sRGB">
   <feGaussianBlur id="feGaussianBlur4" stdDeviation="2.32"/>
  </filter>
  <filter id="filter4569" width="1.023" height="1.025" x="-.01" y="-.01" style="color-interpolation-filters:sRGB">
   <feGaussianBlur id="feGaussianBlur7" stdDeviation="1.16"/>
  </filter>
  <linearGradient id="linearGradient1108" x1="296" x2="296" y1="-212" y2="236" gradientUnits="userSpaceOnUse">
   <stop style="stop-color:#ffffff" id="stop10" offset="0"/>
   <stop style="stop-color:#ffffff;stop-opacity:.09803922" id="stop12" offset=".125"/>
   <stop style="stop-color:#000000;stop-opacity:.09803922" id="stop14" offset=".925"/>
   <stop style="stop-color:#000000;stop-opacity:.49803922" id="stop16" offset="1"/>
  </linearGradient>
  <clipPath id="clipPath1082-3-361">
   <path style="fill:#8c59d9" d="M 361.9375,-212 C 507.2348,-212 528,-191.28677 528,-46.125 V 70.125 C 528,215.28618 507.2348,236 361.9375,236 H 214.0625 C 68.7652,236 48,215.28618 48,70.125 V -46.125 C 48,-191.28677 68.7652,-212 214.0625,-212 Z"/>
  </clipPath>
  <filter id="filter865" width="1.126" height="1.078" x="-.06" y="-.04" style="color-interpolation-filters:sRGB">
   <feGaussianBlur id="feGaussianBlur22" stdDeviation="3.255"/>
  </filter>
 </defs>
 <path style="opacity:0.2;filter:url(#filter939)" d="m 162.53675,5.5680001 c 72.64865,0 83.03125,10.3566149 83.03125,82.9375049 v 58.125005 c 0,72.58059 -10.3826,82.9375 -83.03125,82.9375 H 88.599254 C 15.9506,229.56801 5.568,219.2111 5.568,146.63051 V 88.505505 c 0,-72.58089 10.3826,-82.9375049 83.031254,-82.9375049 z" transform="matrix(1.0001275,0,0,1.0001275,-0.76809803,13.922159)"/>
 <path style="opacity:0.1;filter:url(#filter4569)" d="m 162.53675,3.5680001 c 72.64865,0 83.03125,10.3566149 83.03125,82.9375049 v 58.125005 c 0,72.58059 -10.3826,82.9375 -83.03125,82.9375 H 88.599254 C 15.9506,227.56801 5.568,217.2111 5.568,144.63051 V 86.505505 c 0,-72.58089 10.3826,-82.9375049 83.031254,-82.9375049 z" transform="matrix(1.0001275,0,0,1.0001275,-0.76809803,13.922159)"/>
 <path style="fill:#25b2ee" d="m 161.78937,17.490609 c 72.65791,0 83.04184,10.357937 83.04184,82.948071 v 58.13242 c 0,72.58984 -10.38393,82.94807 -83.04184,82.94807 H 87.842441 c -72.657913,0 -83.0418381,-10.35823 -83.0418381,-82.94807 v -58.13242 c 0,-72.590134 10.3839251,-82.948071 83.0418381,-82.948071 z"/>
 <path style="opacity:0.3;fill:#0e0e0e;filter:url(#filter865)" d="m 152.67662,247.38866 12.68564,-0.67653 c 8.58067,-0.4576 18.72997,2.24884 25.69568,1.88206 L 114.25586,125.69922 h 60.50195 L 64.87109,38.726562 V 178.74414 l 36.74805,-45.98047 z" transform="matrix(0.92872628,0,0,0.90918461,-0.4103122,8.3926647)"/>
 <path style="fill:#f7f7f7" d="m 143.3174,241.51892 h 18.47275 c 8.42964,0 15.83895,-0.18436 22.67318,-0.54422 L 111.33119,129.09579 h 59.35998 L 62.878552,43.76474 V 181.13949 L 98.93298,136.0269 143.31739,241.51893 Z"/>
 <path style="opacity:0.4;fill:none;stroke:url(#linearGradient1108);stroke-width:8;stroke-linecap:round;stroke-linejoin:round" d="M 361.9375,-212 C 507.2348,-212 528,-191.28677 528,-46.125 V 70.125 C 528,215.28618 507.2348,236 361.9375,236 H 214.0625 C 68.7652,236 48,215.28618 48,70.125 V -46.125 C 48,-191.28677 68.7652,-212 214.0625,-212 Z" clip-path="url(#clipPath1082-3-361)" transform="matrix(0.50006376,0,0,0.50006376,-19.202456,123.50414)"/>
</svg>
