<svg width="256" height="256" version="1.1" viewBox="0 0 67.73 67.73" xmlns="http://www.w3.org/2000/svg" xmlns:xlink="http://www.w3.org/1999/xlink">
 <defs>
  <linearGradient id="linearGradient1108" x1="296" x2="296" y1="-212" y2="236" gradientUnits="userSpaceOnUse">
   <stop style="stop-color:#ffffff" offset="0"/>
   <stop style="stop-color:#ffffff;stop-opacity:.09803922" offset=".125"/>
   <stop style="stop-color:#000000;stop-opacity:.09803922" offset=".925"/>
   <stop style="stop-color:#000000;stop-opacity:.49803922" offset="1"/>
  </linearGradient>
  <clipPath id="clipPath1082-3-367">
   <path d="M 361.9375,-212 C 507.2348,-212 528,-191.28677 528,-46.125 V 70.125 C 528,215.28618 507.2348,236 361.9375,236 H 214.0625 C 68.7652,236 48,215.28618 48,70.125 V -46.125 C 48,-191.28677 68.7652,-212 214.0625,-212 Z" style="fill:#8c59d9"/>
  </clipPath>
  <filter id="filter938" x="-.02" y="-.03" width="1.046" height="1.05" style="color-interpolation-filters:sRGB">
   <feGaussianBlur stdDeviation="2.32"/>
  </filter>
  <filter id="filter4569" x="-.01" y="-.01" width="1.023" height="1.025" style="color-interpolation-filters:sRGB">
   <feGaussianBlur stdDeviation="1.16"/>
  </filter>
  <linearGradient id="linearGradient2193" x1="88" x2="256" y1="28" y2="284" gradientTransform="matrix(.19843753 0 0 .19843753 2.1625684 232.38917)" gradientUnits="userSpaceOnUse">
   <stop style="stop-color:#fafafa" offset="0"/>
   <stop style="stop-color:#e1e1e1" offset="1"/>
  </linearGradient>
 </defs>
 <g transform="translate(0,-229.26666)">
  <path transform="matrix(.26458333 0 0 .26458333 -1.8735229e-8 232.67026)" d="m162.53675 3.5680001c72.64865 0 83.03125 10.356615 83.03125 82.937505v58.125005c0 72.58059-10.3826 82.9375-83.03125 82.9375h-73.937496c-72.648654 0-83.031254-10.35691-83.031254-82.9375v-58.125005c0-72.58089 10.3826-82.937505 83.031254-82.937505z" style="filter:url(#filter4569);opacity:.1"/>
  <path transform="matrix(.26458333 0 0 .26458333 -1.8735229e-8 232.67026)" d="m162.53675 5.5680001c72.64865 0 83.03125 10.356615 83.03125 82.937505v58.125005c0 72.58059-10.3826 82.9375-83.03125 82.9375h-73.937496c-72.648654 0-83.031254-10.35691-83.031254-82.9375v-58.125005c0-72.58089 10.3826-82.937505 83.031254-82.937505z" style="filter:url(#filter938);opacity:.2"/>
  <path d="m43.004513 233.61429c19.221622 0 21.968685 2.74019 21.968685 21.94388v15.37891c0 19.20362-2.747063 21.94388-21.968685 21.94388h-19.56263c-19.221622 0-21.968685-2.74026-21.968685-21.94388v-15.37891c0-19.20369 2.747063-21.94388 21.968685-21.94388z" style="fill:#545454"/>
  <path transform="matrix(.13229167 0 0 .13229167 -4.876802 261.66013)" d="M 361.9375,-212 C 507.2348,-212 528,-191.28677 528,-46.125 V 70.125 C 528,215.28618 507.2348,236 361.9375,236 H 214.0625 C 68.7652,236 48,215.28618 48,70.125 V -46.125 C 48,-191.28677 68.7652,-212 214.0625,-212 Z" clip-path="url(#clipPath1082-3-367)" style="fill:none;opacity:.4;stroke-linecap:round;stroke-linejoin:round;stroke-width:8;stroke:url(#linearGradient1108)"/>
  <g transform="matrix(1.0193681 0 0 1.0193681 .27205261 -5.1983005)">
   <path d="m39.661057 241.12043c14.416219 0 16.476513 2.05513 16.476513 16.4579v11.53419c0 14.4027-2.060294 16.4579-16.476513 16.4579h-14.671974c-14.416219 0-16.476513-2.0552-16.476513-16.4579v-11.53419c0-14.40277 2.0602936-16.4579 16.476513-16.4579z" style="fill:url(#linearGradient2193)"/>
   <g transform="matrix(.39649552 0 0 .39649331 61.219725 251.12349)" style="enable-background:new">
    <path transform="matrix(.65462587 0 0 .65462951 -155.07517 -53.250301)" d="m33.824219 124.75391v25.89648c0 6.93621 0.125644 13.1292 0.451172 18.65625s0.8522 10.38933 1.658203 14.66211c0.403001 2.13639 0.875562 4.12469 1.427734 5.97656s1.183585 3.56759 1.904297 5.1543 1.530834 3.04581 2.439453 4.38672c0.90862 1.3409 1.915355 2.56326 3.03125 3.67773 1.115896 1.11447 2.341054 2.11995 3.683594 3.02735 1.34254 0.90739 2.802073 1.71586 4.390625 2.43554s3.306223 1.35102 5.160156 1.90235c1.853933 0.55132 3.84374 1.02344 5.982422 1.42578 4.277365 0.80467 9.145163 1.32941 14.677734 1.6543 5.532572 0.32488 11.731104 0.44921 18.673829 0.44921h56.527342c6.94273 0 13.14126-0.12433 18.67383-0.44921 5.53257-0.32489 10.39842-0.84963 14.67578-1.6543 2.13868-0.40234 4.13044-0.87446 5.98438-1.42578 1.85393-0.55133 3.56965-1.18267 5.1582-1.90235s3.05004-1.52815 4.39258-2.43554c1.34254-0.9074 2.5677-1.91288 3.68359-3.02735 1.1159-1.11447 2.12263-2.33683 3.03125-3.67773 0.90862-1.34091 1.71874-2.80001 2.43945-4.38672 0.72072-1.58671 1.35213-3.30243 1.9043-5.1543s1.02473-3.84017 1.42773-5.97656c0.80601-4.27278 1.33268-9.13506 1.65821-14.66211s0.44922-11.72004 0.44922-18.65625v-24.40625c-0.20789-1.52698-0.27881-3.40433-0.54297-4.80469-0.82083-4.35135-1.92855-8.10222-3.39649-11.33398-0.73397-1.61588-1.55709-3.10319-2.48242-4.46875s-1.95147-2.60918-3.08789-3.74414-2.38276-2.161867-3.75-3.085939c-1.36723-0.924074-2.85488-1.745608-4.47266-2.478516-3.23554-1.465816-6.99357-2.571162-11.3496-3.390625-4.35604-0.819463-9.30903-1.354689-14.94336-1.685547-5.63434-0.330858-11.94716-0.455078-19.01758-0.455078h-57.568361c-7.070421 0-13.383246 0.124221-19.017578 0.455078-5.634333 0.330858-10.591236 0.866084-14.947266 1.685547-4.356045 0.819463-8.112113 1.924809-11.347656 3.390625-1.617764 0.732908-3.103464 1.554442-4.470703 2.478516-1.367239 0.924072-2.615533 1.950979-3.751954 3.085939-1.13642 1.13496-2.162568 2.37858-3.08789 3.74414-0.925338 1.36556-1.750399 2.85287-2.484375 4.46875-1.467938 3.23176-2.571743 6.98263-3.392578 11.33398-0.182229 0.96602-0.219942 2.28858-0.375 3.31446z" style="fill:#71d375"/>
    <path d="m-50.3125 80.550781-1.830078 3.140625 1.830078-3.080078z" style="fill:#e04d2b"/>
    <path transform="matrix(.65462587 0 0 .65462951 -155.07517 -53.250301)" d="m217.31055 134.29688h0.91015c-0.21035-2.93489-0.58683-5.4256-0.91015-8.05274v8.05274z" style="fill:#e04d2b"/>
    <path transform="matrix(.65462587 0 0 .65462951 -155.07517 -53.250301)" d="m120.56836 214.05859h6.0918l33.42187-13.49218 0.3125-25.75-38.71094-40.51953h95.62696v-8.05274c-0.19291-1.56749-0.27884-3.40449-0.54297-4.80469-0.82083-4.35135-1.92855-8.10222-3.39649-11.33398-0.73397-1.61588-1.55709-3.10319-2.48242-4.46875s-1.95147-2.60918-3.08789-3.74414-2.38276-2.161867-3.75-3.085939c-1.36723-0.924074-2.85488-1.745608-4.47266-2.478516-3.23554-1.465816-6.99357-2.571162-11.3496-3.390625-4.35604-0.819463-9.30903-1.354689-14.94336-1.685547-5.63434-0.330858-11.94716-0.455078-19.01758-0.455078h-57.568361c-7.070421 0-13.383246 0.124221-19.017578 0.455078-5.634333 0.330858-10.591236 0.866084-14.947266 1.685547-4.356045 0.819463-8.112113 1.924809-11.347656 3.390625-1.617764 0.732908-3.103464 1.554442-4.470703 2.478516-1.367239 0.924072-2.615533 1.950979-3.751954 3.085939-1.13642 1.13496-2.162568 2.37858-3.08789 3.74414-0.462539 0.68258-0.826746 1.49048-1.240234 2.23437 15.030463 28.37786 49.923828 92.26953 49.923828 92.26953l31.808594 13.91797z" style="fill:#e04d2b"/>
    <path transform="matrix(.65462587 0 0 .65462951 -155.07517 -53.250301)" d="m144.54297 214.05859h9.28906c6.94273 0 13.14126-0.12433 18.67383-0.44921 5.53257-0.32489 10.39842-0.84963 14.67578-1.6543 2.13868-0.40234 4.13044-0.87446 5.98438-1.42578 1.85393-0.55133 3.56965-1.18267 5.1582-1.90235s3.05004-1.52815 4.39258-2.43554c1.34254-0.9074 2.5677-1.91288 3.68359-3.02735 1.1159-1.11447 2.12263-2.33683 3.03125-3.67773 0.90862-1.34091 1.71874-2.80001 2.43945-4.38672 0.72072-1.58671 1.35213-3.30243 1.9043-5.1543s1.02473-3.84017 1.42773-5.97656c0.80601-4.27278 1.33268-9.13506 1.65821-14.66211s0.44922-11.72004 0.44922-18.65625v-16.35351h-95.62696l38.71094 40.51953-0.3125 25.75-10.7793 4.35156 0.35547 0.375-5.11523 8.76562zm15.49219-9.66601v0.0918l-2.79688 4.70507 2.79688-4.79687z" style="fill:#f9db46"/>
    <path transform="matrix(.65462587 0 0 .65462951 -155.07517 -53.250301)" d="m99.808594 214.05859h51.390626c11.32105-8.16376 18.39755-21.31741 18.40039-35.69726v-0.00195c-5e-5 -24.29734-19.81978-44.117-44.11719-44.11719-24.29741 1.9e-4 -44.11714 19.81985-44.117186 44.11719v0.0039 0.00195c0.015142 14.38668 7.108775 27.54022 18.44336 35.69336zm25.673826-68.30859c18.07754 1.4e-4 32.60934 14.53199 32.60938 32.60938-0.00336 13.11294-7.85184 24.83377-19.86133 29.94531h-25.41797c-12.04257-5.08874-19.925596-16.81686-19.939453-29.95117 0.003208-18.07462 14.533823-32.60338 32.609373-32.60352z" style="fill:#f3f3f3"/>
   </g>
   <path transform="matrix(.25955622 0 0 .25955622 -.26688358 230.0101)" d="m117.86133 214.05859h15.1875a34.379585 35.624097 0 0 0 26.8125-34.70507 34.379585 35.624097 0 0 0-34.37891-35.62305 34.379585 35.624097 0 0 0-34.378904 35.62305 34.379585 35.624097 0 0 0 26.757814 34.70507z" style="fill-opacity:.99607843;fill:#00a5ff"/>
  </g>
 </g>
</svg>
