<svg width="256" height="256" style="enable-background:new" version="1.0" xmlns="http://www.w3.org/2000/svg" xmlns:xlink="http://www.w3.org/1999/xlink">
 <defs>
  <filter id="filter4569" x="-.01" y="-.01" width="1.023" height="1.025" style="color-interpolation-filters:sRGB">
   <feGaussianBlur stdDeviation="1.16"/>
  </filter>
  <filter id="filter989" x="-.02" y="-.03" width="1.046" height="1.05" style="color-interpolation-filters:sRGB">
   <feGaussianBlur stdDeviation="2.32"/>
  </filter>
  <linearGradient id="linearGradient1108" x1="296" x2="296" y1="-212" y2="236" gradientUnits="userSpaceOnUse">
   <stop style="stop-color:#ffffff" offset="0"/>
   <stop style="stop-color:#ffffff;stop-opacity:.09803922" offset=".125"/>
   <stop style="stop-color:#000000;stop-opacity:.09803922" offset=".925"/>
   <stop style="stop-color:#000000;stop-opacity:.49803922" offset="1"/>
  </linearGradient>
  <clipPath id="clipPath1082-3">
   <path d="M 361.9375,-212 C 507.2348,-212 528,-191.28677 528,-46.125 V 70.125 C 528,215.28618 507.2348,236 361.9375,236 H 214.0625 C 68.7652,236 48,215.28618 48,70.125 V -46.125 C 48,-191.28677 68.7652,-212 214.0625,-212 Z" style="fill:#8c59d9"/>
  </clipPath>
 </defs>
 <g transform="translate(0,-44)">
  <g style="display:none">
   <text x="19.01" y="-8.26" style="font-family:'DejaVu Sans';line-height:0%" xml:space="preserve">
    <tspan x="19.01" y="-8.26" style="font-family:'DejaVu Sans';font-size:18px;line-height:1.25">apps</tspan>
   </text>
   <text x="146.49" y="-8.26" style="font-family:'DejaVu Sans';font-weight:bold;line-height:0%" xml:space="preserve">
    <tspan x="146.49" y="-8.26" style="font-family:'DejaVu Sans';font-size:18px;font-weight:bold;line-height:1.25">webbrowser-app</tspan>
   </text>
   <rect x="320" y="236" width="16" height="16" style="fill:#cdcdcd"/>
   <rect x="320" y="188" width="24" height="24" style="fill:#cdcdcd"/>
   <rect x="320" y="132" width="32" height="32" style="fill:#cdcdcd"/>
   <rect x="320" y="60" width="48" height="48" style="fill:#cdcdcd"/>
   <rect x="24" y="28" width="256" height="256" style="fill:#cdcdcd"/>
  </g>
  <path d="m162.53675 60.431986c72.64865 0 83.03125 10.356615 83.03125 82.937504v58.125c0 72.58059-10.3826 82.9375-83.03125 82.9375h-73.937496c-72.648654 0-83.031254-10.35691-83.031254-82.9375v-58.125c0-72.580889 10.3826-82.937504 83.031254-82.937504z" style="filter:url(#filter4569);opacity:.1"/>
  <path d="m162.53675 62.431986c72.64865 0 83.03125 10.356615 83.03125 82.937504v58.125c0 72.58059-10.3826 82.9375-83.03125 82.9375h-73.937496c-72.648654 0-83.031254-10.35691-83.031254-82.9375v-58.125c0-72.580889 10.3826-82.937504 83.031254-82.937504z" style="filter:url(#filter989);opacity:.2"/>
  <g transform="matrix(1.961999,0,0,1.9619881,268.6598,48.292185)" style="enable-background:new">
   <path d="m-91.773438 6.1875c-4.62848 0-8.760842 0.082239-12.449222 0.2988281-3.68838 0.2165893-6.93358 0.567071-9.78515 1.1035157-2.85158 0.5364446-5.30967 1.2591838-7.42774 2.21875-1.05903 0.4797832-2.0327 1.0181212-2.92773 1.6230472-0.89503 0.604925-1.71115 1.276554-2.45508 2.019531s-1.41574 1.557236-2.02148 2.451172c-0.60575 0.893936-1.14648 1.867977-1.62696 2.925781-0.96095 2.115607-1.68336 4.571395-2.2207 7.419922s-0.88845 6.088724-1.10547 9.773437-0.30078 7.813335-0.30078 12.4375v29.625c0 4.624145 0.0838 8.752798 0.30078 12.4375 0.21702 3.684702 0.56813 6.926868 1.10547 9.775396 0.53734 2.84852 1.25975 5.30431 2.2207 7.41992 0.48048 1.0578 1.02121 2.02989 1.62696 2.92382 0.60574 0.89394 1.27755 1.71015 2.02148 2.45313s1.56005 1.41265 2.45508 2.01758 1.8687 1.14521 2.92773 1.625c2.11807 0.95957 4.57616 1.68034 7.42774 2.21679 2.85157 0.53646 6.09677 0.88693 9.78515 1.10352s7.820742 0.30078 12.449222 0.30078h37.685547c4.628482 0 8.760839-0.0842 12.449219-0.30078 3.68838-0.21659 6.931627-0.56706 9.783203-1.10352 2.851576-0.53645 5.311618-1.25722 7.429688-2.21679 1.059035-0.47979 2.032708-1.02007 2.927734-1.625 0.895027-0.60493 1.711148-1.2746 2.455078-2.01758 0.743931-0.74298 1.415738-1.55919 2.021485-2.45313 0.605746-0.89393 1.144525-1.86602 1.625-2.92382 0.960949-2.11561 1.68532-4.5714 2.222656-7.41992 0.537335-2.848528 0.88845-6.090694 1.105469-9.775396s0.298828-7.813355 0.298828-12.4375v-29.625c0-4.624165-0.08181-8.752787-0.298828-12.4375-0.217019-3.684713-0.568134-6.92491-1.105469-9.773437-0.537336-2.848527-1.261707-5.304315-2.222656-7.419922-0.480475-1.057804-1.019254-2.031845-1.625-2.925781-0.605747-0.893936-1.277554-1.708195-2.021485-2.451172-0.74393-0.742977-1.560051-1.414606-2.455078-2.019531-0.895026-0.604926-1.868699-1.143264-2.927734-1.6230472-2.11807-0.9595662-4.578112-1.6823054-7.429688-2.21875-2.851576-0.5364447-6.094823-0.8869264-9.783203-1.1035157s-7.820737-0.2988281-12.449219-0.2988281z" style="fill:#85b4df"/>
   <path d="m-50.3125 80.550781-1.830078 3.140625 1.830078-3.080078z" style="fill:#e04d2b"/>
   <path d="m-12.222656 34.664062c-0.219868-3.067585-0.488471-5.963141-0.951172-8.416015-0.537336-2.848527-1.261707-5.304315-2.222656-7.419922-0.480475-1.057804-1.019254-2.031845-1.625-2.925781-0.605747-0.893936-1.277554-1.708195-2.021485-2.451172-0.74393-0.742977-1.560051-1.414606-2.455078-2.019531-0.895026-0.604926-1.868699-1.143264-2.927734-1.6230472-2.11807-0.9595662-4.578112-1.6823054-7.429688-2.21875-2.851576-0.5364447-6.094823-0.8869264-9.783203-1.1035157s-7.820737-0.2988281-12.449219-0.2988281h-37.685547c-4.62848 0-8.760842 0.082239-12.449222 0.2988281-3.68838 0.2165893-6.93358 0.567071-9.78515 1.1035157-2.85158 0.5364446-5.30967 1.2591838-7.42774 2.21875-1.05903 0.4797832-2.0327 1.0181212-2.92773 1.6230472-0.89503 0.604925-1.71115 1.276554-2.45508 2.019531s-1.41574 1.557236-2.02148 2.451172c-0.30279 0.446841-0.54182 0.975912-0.8125 1.46289 9.83933 18.576979 32.681637 60.402344 32.681637 60.402344l22.736328 9.949219 23.953125-9.669922 0.205078-16.857422-25.341797-26.525391z" style="fill:#608ab5"/>
   <path d="m-79.988281 120.35742h25.90039c4.628482 0 8.760839-0.0842 12.449219-0.30078 3.68838-0.21659 6.931627-0.56706 9.783203-1.10352 2.851576-0.53645 5.311618-1.25722 7.429688-2.21679 1.059035-0.47979 2.032708-1.02007 2.927734-1.625 0.895027-0.60493 1.711148-1.2746 2.455078-2.01758 0.743931-0.74298 1.415738-1.55919 2.021485-2.45313 0.605746-0.89393 1.144525-1.86602 1.625-2.92382 0.960949-2.11561 1.68532-4.5714 2.222656-7.41992 0.537335-2.848528 0.88845-6.090694 1.105469-9.775396s0.298828-7.813355 0.298828-12.4375v-29.625c0-4.624165-0.08181-8.752787-0.298828-12.4375-0.03014-0.511797-0.118832-0.862614-0.154297-1.357422h-63.195313l25.341797 26.525391-0.205078 16.857422-7.056641 2.847656 0.232422 0.246094zm29.675781-39.806639v0.06055l-1.830078 3.080078z" style="fill:#cddff0"/>
   <circle cx="-72.931" cy="63.509" r="25.114" style="fill:#779fd3;stroke-width:7.5341372;stroke:#f3f3f3"/>
  </g>
  <path transform="matrix(.5 0 0 .5 -18.432006 166.43199)" d="M 361.9375,-212 C 507.2348,-212 528,-191.28677 528,-46.125 V 70.125 C 528,215.28618 507.2348,236 361.9375,236 H 214.0625 C 68.7652,236 48,215.28618 48,70.125 V -46.125 C 48,-191.28677 68.7652,-212 214.0625,-212 Z" clip-path="url(#clipPath1082-3)" style="fill:none;opacity:.5;stroke-linecap:round;stroke-linejoin:round;stroke-width:8;stroke:url(#linearGradient1108)"/>
 </g>
</svg>
