<svg width="256" height="256" version="1.1" viewBox="0 0 67.73 67.73" xmlns="http://www.w3.org/2000/svg" xmlns:xlink="http://www.w3.org/1999/xlink">
 <defs>
  <clipPath id="clipPath1082-3-5">
   <path d="M 361.9375,-212 C 507.2348,-212 528,-191.28677 528,-46.125 V 70.125 C 528,215.28618 507.2348,236 361.9375,236 H 214.0625 C 68.7652,236 48,215.28618 48,70.125 V -46.125 C 48,-191.28677 68.7652,-212 214.0625,-212 Z" style="fill:#8c59d9"/>
  </clipPath>
  <filter id="filter4569-2" x="-.01" y="-.01" width="1.023" height="1.025" style="color-interpolation-filters:sRGB">
   <feGaussianBlur stdDeviation="1.16"/>
  </filter>
  <filter id="filter913" x="-.02" y="-.03" width="1.046" height="1.05" style="color-interpolation-filters:sRGB">
   <feGaussianBlur stdDeviation="2.32"/>
  </filter>
  <linearGradient id="linearGradient906" x1="296" x2="296" y1="-212" y2="236" gradientUnits="userSpaceOnUse">
   <stop style="stop-color:#ffffff" offset="0"/>
   <stop style="stop-color:#ffffff;stop-opacity:.09803922" offset=".125"/>
   <stop style="stop-color:#000000;stop-opacity:.09803922" offset=".925"/>
   <stop style="stop-color:#000000;stop-opacity:.49803922" offset="1"/>
  </linearGradient>
 </defs>
 <g transform="translate(0,-229.26666)">
  <path transform="matrix(.26970778 0 0 .26970778 -7.1289177 220.56049)" d="m188.96876 45.999995c72.64865 0 83.03125 10.356615 83.03125 82.937505v58.125c0 72.58059-10.3826 82.9375-83.03125 82.9375h-73.9375c-72.648654 0-83.031254-10.35691-83.031254-82.9375v-58.125c0-72.58089 10.3826-82.937505 83.031254-82.937505z" style="filter:url(#filter913);opacity:.2"/>
  <path transform="matrix(.26970778 0 0 .26970778 -7.1289177 220.56049)" d="m188.96876 43.999995c72.64865 0 83.03125 10.356615 83.03125 82.937505v58.125c0 72.58059-10.3826 82.9375-83.03125 82.9375h-73.9375c-72.648654 0-83.031254-10.35691-83.031254-82.9375v-58.125c0-72.58089 10.3826-82.937505 83.031254-82.937505z" style="filter:url(#filter4569-2);opacity:.1"/>
  <path d="m23.895905 232.42763c-9.797337 0-15.39413 0.69699-18.544517 3.84334-3.150381 3.14634-3.849657 8.73736-3.849657 18.52555v15.67677c0 9.78815 0.699276 15.3792 3.849657 18.52555 3.150387 3.14636 8.7471787 3.84333 18.544517 3.84333h19.94152c9.797339 0 15.394134-0.69697 18.544517-3.84333 3.150384-3.14635 3.849659-8.7374 3.849659-18.52555v-15.67677c0-9.78819-0.699275-15.37921-3.849659-18.52555-3.150383-3.14635-8.74718-3.84334-18.544517-3.84334z" style="fill:#4d4d4d"/>
  <path d="m1.5017313 269.93387v0.53942c0 9.78815 0.699276 15.3792 3.849657 18.52555 3.150387 3.14636 8.7471787 3.84333 18.544517 3.84333h19.94152c9.797339 0 15.394134-0.69697 18.544517-3.84333 3.150384-3.14635 3.849659-8.7374 3.849659-18.52555v-0.53942c0 9.78815-0.699275 15.3792-3.849659 18.52555-3.150383 3.14636-8.747178 3.84334-18.544517 3.84334h-19.94152c-9.797338 0-15.39413-0.69698-18.544517-3.84334-3.150381-3.14635-3.849657-8.7374-3.849657-18.52555z" style="fill:#131313;opacity:.2"/>
  <path transform="matrix(.13485389 0 0 .13485389 -4.9712557 261.01666)" d="M 361.9375,-212 C 507.2348,-212 528,-191.28677 528,-46.125 V 70.125 C 528,215.28618 507.2348,236 361.9375,236 H 214.0625 C 68.7652,236 48,215.28618 48,70.125 V -46.125 C 48,-191.28677 68.7652,-212 214.0625,-212 Z" clip-path="url(#clipPath1082-3-5)" style="fill:none;opacity:.4;stroke-linecap:round;stroke-linejoin:round;stroke-width:8;stroke:url(#linearGradient906)"/>
  <path d="m1.5017313 262.60416v9.33914c0 9.14491 0.699276 14.36853 3.849657 17.30811 3.150387 2.93959 8.7471787 3.59076 18.544517 3.59076h19.94152c9.797339 0 15.394134-0.65117 18.544517-3.59076 3.150384-2.93958 3.849659-8.1632 3.849659-17.30811v-9.33914z" style="fill:#ffffff;opacity:.05"/>
  <g transform="translate(.53936395 -.5458837)">
   <g transform="translate(1.5875197,-1.4176813)">
    <path d="m31.739781 244.7551a1.9843753 1.9843753 0 0 0-0.1899 0.0112c-10.84781 0.10388-19.653846 8.96044-19.653846 19.83214 0 10.93591 8.907852 19.84377 19.84375 19.84377 10.869099 0 19.724215-8.80189 19.832125-19.6461a1.9843753 1.9843753 0 0 0 0.01162-0.19763 1.9843753 1.9843753 0 0 0-1.984376-1.98439 1.9843753 1.9843753 0 0 0-1.984373 1.98439c0 8.79102-7.083976 15.87499-15.875001 15.87499s-15.875001-7.08397-15.875001-15.87499c0-8.79101 7.083976-15.87499 15.875001-15.87499a1.9843753 1.9843753 0 0 0 1.984377-1.98438 1.9843753 1.9843753 0 0 0-1.984377-1.98439zm0 7.93752a1.9843753 1.9843753 0 0 0-0.1899 7e-3c-6.464472 0.10312-11.716347 5.41046-11.716347 11.89852 0 6.55216 5.354115 11.90626 11.906251 11.90626 6.48539 0 11.787073-5.24779 11.894627-11.70859a1.9843753 1.9843753 0 0 0 0.01162-0.19763 1.9843753 1.9843753 0 0 0-1.984377-1.98439 1.9843753 1.9843753 0 0 0-1.984373 1.98439c0 4.40727-3.530235 7.93752-7.937502 7.93752s-7.937502-3.53025-7.937502-7.93752c0-4.40726 3.530235-7.93751 7.937502-7.93751a1.9843753 1.9843753 0 0 0 1.984377-1.98435 1.9843753 1.9843753 0 0 0-1.984377-1.98439zm0 7.93751a3.9687504 3.9687504 0 0 0-3.968749 3.96874 3.9687504 3.9687504 0 0 0 3.968749 3.96874 3.9687504 3.9687504 0 0 0 3.96875-3.96874 3.9687504 3.9687504 0 0 0-3.96875-3.96874z" style="fill:#ffffff"/>
   </g>
  </g>
 </g>
</svg>
