<svg xmlns="http://www.w3.org/2000/svg" xmlns:xlink="http://www.w3.org/1999/xlink" width="256" height="256" version="1.1" viewBox="0 0 67.73 67.73">
 <defs>
  <linearGradient id="linearGradient2059" x1="168" x2="168" y1="284" y2="28" gradientTransform="matrix(0.26970778,0,0,0.26970778,-7.1289177,220.56049)" gradientUnits="userSpaceOnUse" xlink:href="#linearGradient3797-5"/>
  <linearGradient id="linearGradient3797-5">
   <stop offset="0" style="stop-color:#e6eaef"/>
   <stop offset="1" style="stop-color:#e6eaef"/>
  </linearGradient>
  <filter style="color-interpolation-filters:sRGB" id="filter1132" width="1.046" height="1.05" x="-.02" y="-.03">
   <feGaussianBlur stdDeviation="2.32"/>
  </filter>
  <filter style="color-interpolation-filters:sRGB" id="filter4569" width="1.023" height="1.025" x="-.01" y="-.01">
   <feGaussianBlur stdDeviation="1.16"/>
  </filter>
  <linearGradient id="linearGradient1108-7" x1="296" x2="296" y1="-212" y2="236" gradientUnits="userSpaceOnUse" xlink:href="#linearGradient1013"/>
  <linearGradient id="linearGradient1013">
   <stop offset="0" style="stop-color:#ffffff"/>
   <stop style="stop-color:#ffffff;stop-opacity:0.09803922" offset=".125"/>
   <stop style="stop-color:#000000;stop-opacity:0.09803922" offset=".925"/>
   <stop offset="1" style="stop-color:#000000;stop-opacity:0.49803922"/>
  </linearGradient>
  <clipPath id="clipPath1082-3-93" clipPathUnits="userSpaceOnUse">
   <path d="M 361.9375,-212 C 507.2348,-212 528,-191.28677 528,-46.125 V 70.125 C 528,215.28618 507.2348,236 361.9375,236 H 214.0625 C 68.7652,236 48,215.28618 48,70.125 V -46.125 C 48,-191.28677 68.7652,-212 214.0625,-212 Z" style="fill:#8c59d9"/>
  </clipPath>
 </defs>
 <g transform="translate(0,-229.26666)">
  <path d="m 43.837425,232.42763 c 19.593907,0 22.394175,2.79326 22.394175,22.36889 v 15.67677 c 0,19.57555 -2.800268,22.36888 -22.394175,22.36888 h -19.94152 c -19.5939058,0 -22.3941739,-2.79333 -22.3941739,-22.36888 v -15.67677 c 0,-19.57563 2.8002681,-22.36889 22.3941739,-22.36889 z" style="opacity:0.115;fill:none;stroke:#000000;stroke-width:1.0788312;stroke-linecap:round;stroke-linejoin:round"/>
  <path d="m 188.96876,43.999995 c 72.64865,0 83.03125,10.356615 83.03125,82.937505 v 58.125 c 0,72.58059 -10.3826,82.9375 -83.03125,82.9375 h -73.9375 C 42.382606,268 32.000006,257.64309 32.000006,185.0625 v -58.125 c 0,-72.58089 10.3826,-82.937505 83.031254,-82.937505 z" transform="matrix(0.26970778,0,0,0.26970778,-7.1289177,220.56049)" style="opacity:0.1;filter:url(#filter4569)"/>
  <path style="opacity:0.2;filter:url(#filter1132)" d="m 188.96876,45.999995 c 72.64865,0 83.03125,10.356615 83.03125,82.937505 v 58.125 c 0,72.58059 -10.3826,82.9375 -83.03125,82.9375 h -73.9375 C 42.382606,270 32.000006,259.64309 32.000006,187.0625 v -58.125 c 0,-72.58089 10.3826,-82.937505 83.031254,-82.937505 z" transform="matrix(0.26970778,0,0,0.26970778,-7.1289177,220.56049)"/>
  <path style="fill:url(#linearGradient2059)" d="m 43.837425,232.42763 c 19.593907,0 22.394175,2.79326 22.394175,22.36889 v 15.67677 c 0,19.57555 -2.800268,22.36888 -22.394175,22.36888 h -19.94152 c -19.5939058,0 -22.3941739,-2.79333 -22.3941739,-22.36888 v -15.67677 c 0,-19.57563 2.8002681,-22.36889 22.3941739,-22.36889 z"/>
  <path style="opacity:0.25;fill:#ffffff" d="m 0.9525,262.56205 v 7.96544 c 0,19.89285 2.846163,22.73147 22.761203,22.73147 h 20.268349 c 19.91504,0 22.761202,-2.83862 22.761202,-22.73147 v -7.96544 z"/>
  <path style="opacity:0.25;fill:#ffffff" d="m 34.339496,293.25889 h 9.642769 c 2.489379,0 4.711922,-0.0442 6.695678,-0.16069 0.991878,-0.0582 1.924134,-0.13436 2.800022,-0.23212 0.87589,-0.0978 1.695452,-0.21706 2.462296,-0.36129 0.766845,-0.14424 1.480835,-0.31385 2.145581,-0.51149 0.664745,-0.19765 1.280283,-0.42364 1.849874,-0.68163 0.569591,-0.25801 1.093269,-0.54801 1.574648,-0.87331 0.481383,-0.3253 0.920325,-0.68593 1.32044,-1.08546 0.400114,-0.39954 0.76144,-0.83793 1.087233,-1.31864 0.325794,-0.48071 0.616096,-1.00344 0.874514,-1.57227 0.258418,-0.56883 0.484817,-1.18356 0.682806,-1.84745 0.197987,-0.66388 0.367602,-1.3772 0.512101,-2.14309 0.144501,-0.7659 0.263929,-1.58441 0.361887,-2.45924 0.09796,-0.87483 0.174317,-1.80566 0.232678,-2.79637 0.116723,-1.98143 0.161248,-4.20159 0.161248,-6.68819 v -15.9312 c 0,-2.48661 -0.04453,-4.70675 -0.161248,-6.68819 -0.05836,-0.99071 -0.13472,-1.92154 -0.232678,-2.79637 -0.09796,-0.87484 -0.217386,-1.69334 -0.361887,-2.45924 -0.144499,-0.76589 -0.314114,-1.4792 -0.512101,-2.14309 -0.197989,-0.66389 -0.424388,-1.27862 -0.682806,-1.84745 -0.258418,-0.56882 -0.54872,-1.09156 -0.874514,-1.57227 -0.325793,-0.48071 -0.687119,-0.9191 -1.087233,-1.31863 -0.400115,-0.39954 -0.839057,-0.76017 -1.32044,-1.08547 -0.481379,-0.3253 -1.005057,-0.6153 -1.574648,-0.87331 -0.569591,-0.25799 -1.185129,-0.48398 -1.849874,-0.68163 -0.664746,-0.19764 -1.378736,-0.36725 -2.145581,-0.51149 -0.766844,-0.14423 -1.586406,-0.26353 -2.462296,-0.36129 -0.875888,-0.0978 -1.808144,-0.17387 -2.800022,-0.23211 -1.983756,-0.11647 -4.206299,-0.1607 -6.695678,-0.1607 h -9.642769 z"/>
  <path d="m 34.339496,293.25889 h 9.642769 c 2.489379,0 4.711922,-0.0442 6.695678,-0.16069 0.991878,-0.0582 1.924134,-0.13436 2.800022,-0.23212 0.87589,-0.0978 1.695452,-0.21706 2.462296,-0.36129 0.766845,-0.14424 1.480835,-0.31385 2.145581,-0.51149 0.664745,-0.19765 1.280283,-0.42364 1.849874,-0.68163 0.569591,-0.25801 1.093269,-0.54801 1.574648,-0.87331 0.481383,-0.3253 0.920325,-0.68593 1.32044,-1.08546 0.400114,-0.39954 0.76144,-0.83793 1.087233,-1.31864 0.325794,-0.48071 0.616096,-1.00344 0.874514,-1.57227 0.258418,-0.56883 0.484817,-1.18356 0.682806,-1.84745 0.197987,-0.66388 0.367602,-1.3772 0.512101,-2.14309 0.144501,-0.7659 0.263929,-1.58441 0.361887,-2.45924 0.09796,-0.87483 0.174317,-1.80566 0.232678,-2.79637 0.116723,-1.98143 0.161248,-4.20159 0.161248,-6.68819 v -15.9312 c 0,-2.48661 -0.04453,-4.70675 -0.161248,-6.68819 -0.05836,-0.99071 -0.13472,-1.92154 -0.232678,-2.79637 -0.09796,-0.87484 -0.217386,-1.69334 -0.361887,-2.45924 -0.144499,-0.76589 -0.314114,-1.4792 -0.512101,-2.14309 -0.197989,-0.66389 -0.424388,-1.27862 -0.682806,-1.84745 -0.258418,-0.56882 -0.54872,-1.09156 -0.874514,-1.57227 -0.325793,-0.48071 -0.687119,-0.9191 -1.087233,-1.31863 -0.400115,-0.39954 -0.839057,-0.76017 -1.32044,-1.08547 -0.481379,-0.3253 -1.005057,-0.6153 -1.574648,-0.87331 -0.569591,-0.25799 -1.185129,-0.48398 -1.849874,-0.68163 -0.664746,-0.19764 -1.378736,-0.36725 -2.145581,-0.51149 -0.766844,-0.14423 -1.586406,-0.26353 -2.462296,-0.36129 -0.875888,-0.0978 -1.808144,-0.17387 -2.800022,-0.23211 -1.983756,-0.11647 -4.206299,-0.1607 -6.695678,-0.1607 h -9.642769 z" style="opacity:0.25;fill:#ffffff"/>
  <g transform="matrix(3.5901455,0,0,3.6446512,-1154.2025,-2132.256)">
   <path style="fill:#ff7f00" d="m 54.660156,238.77344 c 0.121707,0.0139 0.221454,0.0371 0.34375,0.0508 3.257066,0.36361 6.723729,0.64669 10.41211,0.86328 7.37676,0.43319 15.641474,0.59766 24.898437,0.59766 h 67.787107 c 0.12096,-0.19722 0.26989,-0.41734 0.68555,-0.96289 0.79515,-1.04211 1.56254,-2.13532 2.30273,-3.27539 0.74087,-1.14116 1.45284,-2.32794 2.13672,-3.56055 0.68253,-1.23343 1.33649,-2.50995 1.96094,-3.83008 0.62282,-1.31891 1.21854,-2.68135 1.78125,-4.08398 0.56312,-1.40237 1.09636,-2.84606 1.5957,-4.32618 0.49934,-1.48079 0.96887,-2.99639 1.4043,-4.54882 0.43557,-1.55258 0.836,-3.14171 1.20508,-4.76172 0.36908,-1.62001 0.70148,-3.27265 1,-4.95508 0.25645,-1.44076 0.47611,-3.61991 0.64844,-6.19531 0.17232,-2.57555 0.29722,-5.5473 0.36914,-8.56641 0.0814,-3.01898 0.0953,-6.08554 0.041,-8.85742 -0.0407,-2.77189 -0.15444,-5.24818 -0.32812,-7.08203 -0.23475,-2.43633 -0.53257,-4.88214 -0.88672,-7.33203 -0.35415,-2.4503 -0.7682,-4.90561 -1.23633,-7.36133 -0.46949,-2.45573 -0.99455,-4.91195 -1.57422,-7.36524 -0.5794,-2.45301 -1.2158,-4.90327 -1.9043,-7.3457 -0.68795,-2.44243 -1.42545,-4.87735 -2.21679,-7.30078 -0.78972,-2.42357 -1.6329,-4.83404 -2.52344,-7.23047 -0.89013,-2.39629 -1.83189,-4.77739 -2.81836,-7.13867 -0.98783,-2.36115 -2.01905,-4.70376 -3.09766,-7.02149 -1.07738,-2.31773 -2.20233,-4.61078 -3.36914,-6.87695 -1.16693,-2.26617 -2.37756,-4.50474 -3.6289,-6.71094 -1.25107,-2.20619 -2.54293,-4.381181 -3.875,-6.519528 -1.33113,-2.138212 -2.70454,-4.238692 -4.11328,-6.300781 -1.40861,-2.062225 -2.85406,-4.084675 -4.33594,-6.0625 -1.48242,-1.977554 -2.9997,-3.911591 -4.55078,-5.796875 -1.55122,-1.885285 -3.13547,-3.721393 -4.75196,-5.50586 -1.61648,-1.784737 -3.265,-3.517581 -4.94336,-5.193359 -1.58839,-1.586087 -3.0776,-3.024534 -4.52148,-4.357422 -1.44402,-1.333838 -2.84251,-2.559895 -4.24609,-3.726563 -1.40399,-1.166938 -2.81349,-2.272358 -4.28125,-3.359374 -1.46709,-1.086882 -2.99262,-2.155792 -4.62891,-3.25 -1.27278,-0.85078 -2.73782,-1.747728 -4.29297,-2.638672 -1.554876,-0.89013 -3.201786,-1.777268 -4.839842,-2.607422 -1.63792,-0.830426 -3.267022,-1.603209 -4.789062,-2.271485 C 89.956203,45.336905 88.542769,44.776401 87.335938,44.371094 85.589058,43.783554 76.065019,40.353669 66.169922,36.75 59.705489,34.395769 55.177425,32.789094 52.226562,31.808594 50.751878,31.317394 49.669008,30.983696 48.9375,30.791016 48.387953,30.652611 48.036965,30.584848 47.863281,30.595703 l 0.02734,0.01172 c -0.04071,0.0033 -0.09396,0.01364 -0.121094,0.02734 -0.08141,0.08141 -0.04174,0.397698 0.121094,0.996093 0.164186,0.598396 0.455819,1.475603 0.888672,2.666016 0.862992,2.382047 2.286912,6.023406 4.376953,11.212891 3.198904,7.943052 5.816406,14.698002 5.816406,15.011718 0,0.157401 -0.223047,0.576214 -0.583984,1.123047 -0.35958,0.549547 -0.856189,1.226552 -1.402344,1.900391 l -1.984375,2.453125 v 88.357426 c 0,28.15782 -0.02796,50.24548 -0.109375,65.29492 -0.05626,12.48002 -0.139793,16.87802 -0.232422,19.12305 z" transform="matrix(0.07369711,0,0,0.07369711,321.568,647.72909)"/>
   <path d="m 329.50722,651.2114 c -0.23449,-0.039 -0.29718,-0.10524 -0.33802,-0.35696 -0.0299,-0.18412 -0.03,-0.78725 -2.3e-4,-0.89464 0.0611,-0.22019 0.22595,-0.29293 0.66828,-0.29498 0.44736,-0.002 0.56291,0.0701 0.56695,0.35412 l 0.002,0.13538 -0.11511,0.007 c -0.11416,0.007 -0.11523,0.006 -0.12994,-0.067 -0.0279,-0.13884 -0.0382,-0.15582 -0.11332,-0.18718 -0.0886,-0.037 -0.36383,-0.0412 -0.48557,-0.007 -0.0642,0.0179 -0.0927,0.0413 -0.11484,0.0947 -0.0441,0.10638 -0.0612,0.4221 -0.0363,0.67146 0.0294,0.29561 0.0591,0.32823 0.31169,0.34284 0.32431,0.0188 0.4492,-0.0417 0.4492,-0.2173 v -0.0902 h 0.13708 0.13707 l -0.0135,0.14437 c -0.0151,0.16117 -0.0585,0.26301 -0.13286,0.31149 -0.10767,0.0701 -0.52602,0.099 -0.79254,0.0546 z m 1.98093,0.004 c -0.2861,-0.0383 -0.34567,-0.14657 -0.33049,-0.6003 0.0104,-0.30975 0.0389,-0.38144 0.17393,-0.43543 0.12522,-0.0501 0.52255,-0.0501 0.64776,0 0.14542,0.0582 0.16691,0.12103 0.16691,0.48802 0,0.3564 -0.0272,0.43834 -0.16794,0.5054 -0.0941,0.0448 -0.32363,0.0647 -0.49017,0.0423 z m 0.32266,-0.18899 c 0.0584,-0.0244 0.0813,-0.0513 0.0996,-0.11712 0.0313,-0.11268 0.0305,-0.38349 -8.8e-4,-0.47491 -0.0413,-0.1185 -0.22591,-0.16931 -0.39761,-0.10945 -0.0987,0.0344 -0.13478,0.12924 -0.13478,0.35392 0,0.20458 0.0393,0.32504 0.11613,0.35587 0.0777,0.0312 0.23323,0.0271 0.31807,-0.008 z m 2.16814,0.18785 c -0.0717,-0.009 -0.1571,-0.0366 -0.18962,-0.0606 -0.10834,-0.0802 -0.12608,-0.14695 -0.12608,-0.47477 0,-0.26238 0.006,-0.31122 0.0454,-0.37924 0.0719,-0.1237 0.16202,-0.1561 0.43426,-0.1561 0.36854,0 0.45172,0.0684 0.4822,0.39631 l 0.015,0.16133 h -0.3393 c -0.19123,0 -0.35813,0.01 -0.38245,0.0231 -0.0494,0.0264 -0.0586,0.14163 -0.0183,0.22995 0.0343,0.0753 0.10968,0.1039 0.274,0.1039 0.14425,0 0.18808,-0.0232 0.22139,-0.11713 0.0105,-0.0294 0.0389,-0.039 0.11564,-0.039 0.12116,0 0.13934,0.0285 0.0914,0.14333 -0.0255,0.0609 -0.0583,0.092 -0.12966,0.12274 -0.11626,0.0501 -0.31825,0.069 -0.49373,0.0463 z m 0.40992,-0.65882 c 0.0376,-0.0454 -0.007,-0.20113 -0.0669,-0.23317 -0.0548,-0.0293 -0.30345,-0.0293 -0.3583,0 -0.0598,0.0321 -0.10451,0.18778 -0.0668,0.23317 0.041,0.0493 0.45098,0.0493 0.49197,0 z m 3.31973,0.66007 c -0.11476,-0.0224 -0.19554,-0.0813 -0.23244,-0.16959 -0.0651,-0.15583 -0.0188,-0.33475 0.10649,-0.41112 0.094,-0.0573 0.39448,-0.0639 0.49624,-0.0108 0.095,0.0495 0.12416,0.0282 0.12416,-0.0906 0,-0.11247 -0.0453,-0.22076 -0.10139,-0.24228 -0.0618,-0.0237 -0.26492,-0.0138 -0.30209,0.0147 -0.0195,0.015 -0.0477,0.0503 -0.0627,0.0785 -0.0235,0.0442 -0.0419,0.0504 -0.13193,0.0446 l -0.10455,-0.007 0.006,-0.0781 c 0.004,-0.0471 0.0284,-0.10021 0.0619,-0.13385 0.0539,-0.0542 0.0646,-0.0558 0.36573,-0.0558 0.47468,0 0.48869,0.0187 0.49066,0.65253 l 8.8e-4,0.40713 h -0.11154 c -0.0955,0 -0.11155,-0.006 -0.11155,-0.0433 0,-0.0645 -0.0327,-0.0729 -0.0947,-0.0241 -0.0531,0.0417 -0.21446,0.0909 -0.28457,0.0866 -0.0184,-8.8e-4 -0.0702,-0.009 -0.11519,-0.018 z m 0.42925,-0.20032 c 0.0825,-0.0825 0.0825,-0.14403 0,-0.22652 -0.0564,-0.0564 -0.082,-0.0652 -0.18858,-0.0652 -0.0679,0 -0.14826,0.0114 -0.17868,0.0252 -0.11093,0.0505 -0.12796,0.22913 -0.0285,0.29879 0.0295,0.0207 0.0999,0.033 0.18879,0.033 0.12693,0 0.14858,-0.007 0.20696,-0.0652 z m -7.47511,-0.57058 v -0.76965 h 0.11154 0.11154 v 0.76965 0.76964 h -0.11154 -0.11154 z m 1.76755,0.23981 0.006,-0.52983 h 0.10039 c 0.0929,0 0.10091,0.004 0.10745,0.0613 0.008,0.0719 0.0317,0.0772 0.0869,0.0197 0.0691,-0.072 0.13278,-0.0923 0.28942,-0.0922 0.11313,6e-5 0.17095,0.0115 0.22589,0.0451 0.12176,0.0742 0.13808,0.14663 0.13808,0.6122 v 0.41343 h -0.11013 -0.11013 l -0.007,-0.401 c -0.006,-0.37279 -0.0103,-0.40428 -0.0539,-0.44785 -0.0652,-0.0651 -0.20568,-0.0804 -0.30519,-0.0331 -0.12966,0.0615 -0.14983,0.13339 -0.14983,0.534 v 0.34799 h -0.11195 -0.11194 z m 2.38185,0.42732 c 0,-0.0992 0.009,-0.11301 0.28148,-0.42783 0.33411,-0.38614 0.3342,-0.38431 -0.0195,-0.38431 h -0.22023 l 0.007,-0.0725 0.007,-0.0725 h 0.40156 0.40155 v 0.10386 c 0,0.10099 -0.008,0.11263 -0.27536,0.4191 -0.17392,0.1991 -0.27074,0.32725 -0.26282,0.34788 0.01,0.0262 0.0658,0.0327 0.28093,0.0327 h 0.26841 v 0.0781 0.0781 h -0.43503 -0.43501 z m 1.09829,-0.42732 0.006,-0.52983 h 0.1004 0.10038 l 0.006,0.52983 0.006,0.52983 h -0.11235 -0.11235 z m 0.53024,-0.23981 v -0.76965 h 0.11154 0.11155 v 0.76965 0.76964 h -0.11155 -0.11154 z m 0.52324,0.74159 c -0.006,-0.0154 -0.008,-0.35926 -0.005,-0.76407 l 0.006,-0.73602 0.10596,-0.007 0.10598,-0.007 v 0.77087 0.77087 h -0.10109 c -0.0606,0 -0.1054,-0.0112 -0.11186,-0.028 z m -1.05865,-1.42201 v -0.0892 h 0.11155 0.11154 v 0.0892 0.0892 h -0.11154 -0.11155 z" style="fill:#08a6d8"/>
  </g>
  <path d="M 361.9375,-212 C 507.2348,-212 528,-191.28677 528,-46.125 V 70.125 C 528,215.28618 507.2348,236 361.9375,236 H 214.0625 C 68.7652,236 48,215.28618 48,70.125 V -46.125 C 48,-191.28677 68.7652,-212 214.0625,-212 Z" clip-path="url(#clipPath1082-3-93)" transform="matrix(0.13485389,0,0,0.13485389,-4.9712548,261.01665)" style="opacity:0.6;fill:none;stroke:url(#linearGradient1108-7);stroke-width:8;stroke-linecap:round;stroke-linejoin:round"/>
 </g>
</svg>
