<svg xmlns="http://www.w3.org/2000/svg" width="256" height="256" version="1.1" viewBox="0 0 67.73 67.73">
 <defs>
  <filter id="filter4569" width="1.023" height="1.025" x="-.01" y="-.01" style="color-interpolation-filters:sRGB">
   <feGaussianBlur stdDeviation="1.16"/>
  </filter>
  <filter id="filter939" width="1.046" height="1.05" x="-.02" y="-.03" style="color-interpolation-filters:sRGB">
   <feGaussianBlur stdDeviation="2.32"/>
  </filter>
  <filter id="filter940" width="1.098" height="1.094" x="-.05" y="-.05" style="color-interpolation-filters:sRGB">
   <feGaussianBlur stdDeviation=".935"/>
  </filter>
 </defs>
 <g transform="translate(0,-229.26666)">
  <path d="m 162.53675,5.5680001 c 72.64865,0 83.03125,10.3566149 83.03125,82.9375049 v 58.125005 c 0,72.58059 -10.3826,82.9375 -83.03125,82.9375 H 88.599254 C 15.9506,229.56801 5.568,219.2111 5.568,146.63051 V 88.505505 c 0,-72.58089 10.3826,-82.9375049 83.031254,-82.9375049 z" transform="matrix(0.26970779,0,0,0.26970779,-1.9098094e-8,231.46531)" style="opacity:0.2;filter:url(#filter939)"/>
  <path style="opacity:0.1;fill:none;stroke:#000000;stroke-width:1.07883108;stroke-linecap:round;stroke-linejoin:round" d="m 43.837429,232.42763 c 19.593907,0 22.394176,2.79326 22.394176,22.36889 v 15.67677 c 0,19.57555 -2.800269,22.36889 -22.394176,22.36889 H 23.89591 c -19.5939088,0 -22.394177,-2.79334 -22.394177,-22.36889 v -15.67677 c 0,-19.57563 2.8002682,-22.36889 22.394177,-22.36889 z"/>
  <path style="opacity:0.1;filter:url(#filter4569)" d="m 162.53675,3.5680001 c 72.64865,0 83.03125,10.3566149 83.03125,82.9375049 v 58.125005 c 0,72.58059 -10.3826,82.9375 -83.03125,82.9375 H 88.599254 C 15.9506,227.56801 5.568,217.2111 5.568,144.63051 V 86.505505 c 0,-72.58089 10.3826,-82.9375049 83.031254,-82.9375049 z" transform="matrix(0.26970779,0,0,0.26970779,-1.9098094e-8,231.46531)"/>
  <path d="m 43.837427,232.42763 c 19.593907,0 22.394175,2.79326 22.394175,22.36889 v 15.67677 c 0,19.57555 -2.800268,22.36889 -22.394175,22.36889 h -19.94152 c -19.5939074,0 -22.3941756,-2.79334 -22.3941756,-22.36889 v -15.67677 c 0,-19.57563 2.8002682,-22.36889 22.3941756,-22.36889 z" style="fill:#696853"/>
  <g transform="translate(-0.5576396,0.17533375)">
   <g style="fill:#313127;filter:url(#filter940);opacity:0.3" transform="translate(-0.11772553,0.05932424)">
    <path d="m 34.541733,238.54452 c -0.549841,0 -1.100054,0.20485 -1.511076,0.61596 l -8.369235,8.37018 c -0.822046,0.822 -0.820881,2.19769 0.0012,3.0197 l 8.369231,8.37017 c 0.822047,0.82201 2.198937,0.8232 3.02098,0.001 l 8.369231,-8.37017 c 0.822043,-0.822 0.822043,-2.19884 0,-3.02089 l -8.36931,-8.37024 c -0.411004,-0.41097 -0.961217,-0.61593 -1.511062,-0.61593 z" style="fill:#313127"/>
    <path d="m 34.541733,265.26313 c -0.549841,0 -1.100054,0.20485 -1.511076,0.61593 l -8.369235,8.37017 c -0.822046,0.82201 -0.820881,2.19769 0.0012,3.0197 l 8.369231,8.37017 c 0.822047,0.82205 2.198937,0.8232 3.02098,0.001 l 8.369231,-8.37018 c 0.822043,-0.82204 0.822043,-2.19888 0,-3.02089 L 36.0528,265.87882 c -0.411021,-0.411 -0.96123,-0.61596 -1.511079,-0.61596 z" style="fill:#313127"/>
    <path d="m 57.443595,262.39999 c 0,-0.54982 -0.204925,-1.10003 -0.615953,-1.51104 l -8.370151,-8.36923 c -0.822021,-0.82205 -2.197682,-0.82089 -3.019707,0.001 l -8.370147,8.3692 c -0.822021,0.82204 -0.823186,2.19892 -0.0012,3.02096 l 8.370147,8.36923 c 0.822022,0.82205 2.198865,0.82205 3.020886,0 l 8.370256,-8.36934 c 0.410989,-0.41097 0.615928,-0.96118 0.615928,-1.51104 z" style="fill:#313127"/>
    <path d="m 32.633485,262.39999 c 0,-0.54982 -0.204925,-1.10003 -0.615957,-1.51104 l -8.370144,-8.36923 c -0.822025,-0.82205 -2.197685,-0.82089 -3.01971,0.001 l -8.370147,8.36924 c -0.822022,0.82204 -0.82319,2.19892 -0.0013,3.02096 l 8.370147,8.36923 c 0.822022,0.82205 2.198861,0.82205 3.020886,0 l 8.370205,-8.36927 c 0.411011,-0.41104 0.615954,-0.96125 0.615954,-1.51107 z" style="fill:#313127"/>
   </g>
   <g transform="translate(-0.11772553,0.05932424)">
    <path style="fill:#3fa7e2" d="m 34.541733,238.54452 c -0.549841,0 -1.100054,0.20485 -1.511076,0.61596 l -8.369235,8.37018 c -0.822046,0.822 -0.820881,2.19769 0.0012,3.0197 l 8.369231,8.37017 c 0.822047,0.82201 2.198937,0.8232 3.02098,0.001 l 8.369231,-8.37017 c 0.822043,-0.822 0.822043,-2.19884 0,-3.02089 l -8.36931,-8.37024 c -0.411004,-0.41097 -0.961217,-0.61593 -1.511062,-0.61593 z"/>
    <path style="fill:#3f3f3f" d="m 34.541733,265.26313 c -0.549841,0 -1.100054,0.20485 -1.511076,0.61593 l -8.369235,8.37017 c -0.822046,0.82201 -0.820881,2.19769 0.0012,3.0197 l 8.369231,8.37017 c 0.822047,0.82205 2.198937,0.8232 3.02098,0.001 l 8.369231,-8.37018 c 0.822043,-0.82204 0.822043,-2.19888 0,-3.02089 L 36.0528,265.87882 c -0.411021,-0.411 -0.96123,-0.61596 -1.511079,-0.61596 z"/>
    <path style="fill:#f1ca42" d="m 57.443595,262.39999 c 0,-0.54982 -0.204925,-1.10003 -0.615953,-1.51104 l -8.370151,-8.36923 c -0.822021,-0.82205 -2.197682,-0.82089 -3.019707,0.001 l -8.370147,8.3692 c -0.822021,0.82204 -0.823186,2.19892 -0.0012,3.02096 l 8.370147,8.36923 c 0.822022,0.82205 2.198865,0.82205 3.020886,0 l 8.370256,-8.36934 c 0.410989,-0.41097 0.615928,-0.96118 0.615928,-1.51104 z"/>
    <path style="fill:#ea72bb" d="m 32.633485,262.39999 c 0,-0.54982 -0.204925,-1.10003 -0.615957,-1.51104 l -8.370144,-8.36923 c -0.822025,-0.82205 -2.197685,-0.82089 -3.01971,0.001 l -8.370147,8.36924 c -0.822022,0.82204 -0.82319,2.19892 -0.0013,3.02096 l 8.370147,8.36923 c 0.822022,0.82205 2.198861,0.82205 3.020886,0 l 8.370205,-8.36927 c 0.411011,-0.41104 0.615954,-0.96125 0.615954,-1.51107 z"/>
   </g>
  </g>
  <path d="m 33.866666,232.42763 v 60.41455 h 9.970761 c 19.593907,0 22.394175,-2.79334 22.394175,-22.36889 v -15.67677 c 0,-19.57563 -2.800268,-22.36889 -22.394175,-22.36889 z" style="opacity:0.1;fill:#fffbfb"/>
  <path d="m 23.895907,292.84218 c -19.5939074,0 -22.3941756,-2.79325 -22.3941756,-22.36884 v -7.83837 H 66.231602 v 7.83837 c 0,19.57559 -2.800268,22.36884 -22.394175,22.36884 z" style="opacity:0.1;fill:#fffbfb"/>
 </g>
</svg>
