<svg xmlns="http://www.w3.org/2000/svg" xmlns:xlink="http://www.w3.org/1999/xlink" width="256" height="256" version="1.1" viewBox="0 0 67.73 67.73">
 <defs>
  <linearGradient id="_lgradient_2" x1="205.258" x2="225.288" y1="53.167" y2="101.615" gradientTransform="scale(0.65653231,1.5231543)" gradientUnits="userSpaceOnUse">
   <stop offset="0%" style="stop-color:rgb(0,5,9)"/>
   <stop offset="33.45%" stop-opacity=".061" style="stop-color::rgb(40,133,30)"/>
   <stop offset="57.826%" style="stop-color:rgb(40,133,30)"/>
   <stop offset="87.5%" stop-opacity="0" style="stop-color:rgb(40,133,30)"/>
   <stop offset="100%" style="stop-color:rgb(0,0,0)"/>
  </linearGradient>
  <linearGradient id="_lgradient_1" x1="76.893" x2="87.042" y1="440.096" y2="435.336" gradientTransform="scale(2.1081217,0.47435592)" gradientUnits="userSpaceOnUse">
   <stop offset="0%" stop-opacity=".118" style="stop-color::rgb(40,133,30)"/>
   <stop offset="100%" style="stop-color:rgb(0,5,9)"/>
  </linearGradient>
  <linearGradient id="linearGradient1108" x1="296" x2="296" y1="-212" y2="236" gradientUnits="userSpaceOnUse" xlink:href="#linearGradient1013"/>
  <linearGradient id="linearGradient1013">
   <stop offset="0" style="stop-color:#ffffff"/>
   <stop style="stop-color:#ffffff;stop-opacity:0.09803922" offset=".125"/>
   <stop style="stop-color:#000000;stop-opacity:0.09803922" offset=".925"/>
   <stop offset="1" style="stop-color:#000000;stop-opacity:0.49803922"/>
  </linearGradient>
  <clipPath id="clipPath1082-3-3" clipPathUnits="userSpaceOnUse">
   <path d="M 361.9375,-212 C 507.2348,-212 528,-191.28677 528,-46.125 V 70.125 C 528,215.28618 507.2348,236 361.9375,236 H 214.0625 C 68.7652,236 48,215.28618 48,70.125 V -46.125 C 48,-191.28677 68.7652,-212 214.0625,-212 Z" style="fill:#8c59d9"/>
  </clipPath>
  <filter style="color-interpolation-filters:sRGB" id="filter4569" width="1.023" height="1.025" x="-.01" y="-.01">
   <feGaussianBlur stdDeviation="1.16"/>
  </filter>
  <filter style="color-interpolation-filters:sRGB" id="filter913" width="1.046" height="1.05" x="-.02" y="-.03">
   <feGaussianBlur stdDeviation="2.32"/>
  </filter>
 </defs>
 <g transform="translate(0,-229.26666)">
  <path style="opacity:0.2;filter:url(#filter913)" d="m 162.53675,5.5680001 c 72.64865,0 83.03125,10.3566149 83.03125,82.9375049 v 58.125005 c 0,72.58059 -10.3826,82.9375 -83.03125,82.9375 H 88.599254 C 15.9506,229.56801 5.568,219.2111 5.568,146.63051 V 88.505505 c 0,-72.58089 10.3826,-82.9375049 83.031254,-82.9375049 z" transform="matrix(0.26458333,0,0,0.26458333,-1.8735229e-8,232.67026)"/>
  <path d="m 162.53675,3.5680001 c 72.64865,0 83.03125,10.3566149 83.03125,82.9375049 v 58.125005 c 0,72.58059 -10.3826,82.9375 -83.03125,82.9375 H 88.599254 C 15.9506,227.56801 5.568,217.2111 5.568,144.63051 V 86.505505 c 0,-72.58089 10.3826,-82.9375049 83.031254,-82.9375049 z" transform="matrix(0.26458333,0,0,0.26458333,-1.8735229e-8,232.67026)" style="opacity:0.1;filter:url(#filter4569)"/>
  <path style="fill:#4d4d4d" d="m 23.441883,233.61429 c -9.611188,0 -15.1016414,0.68375 -18.1921709,3.77032 -3.0905242,3.08656 -3.7765137,8.57135 -3.7765137,18.17356 v 15.37891 c 0,9.60218 0.6859903,15.087 3.7765137,18.17357 3.090529,3.08658 8.5809829,3.77031 18.1921709,3.77031 h 19.56263 c 9.61119,0 15.101644,-0.68373 18.19217,-3.77031 3.090527,-3.08657 3.776515,-8.57139 3.776515,-18.17357 v -15.37891 c 0,-9.60221 -0.685988,-15.087 -3.776515,-18.17356 -3.090526,-3.08657 -8.580982,-3.77032 -18.19217,-3.77032 z"/>
  <path style="opacity:0.2;fill:#131313" d="m 1.4731984,270.40792 v 0.52916 c 0,9.60218 0.6859903,15.087 3.7765137,18.17357 3.090529,3.08658 8.5809829,3.77031 18.1921709,3.77031 h 19.56263 c 9.61119,0 15.101644,-0.68373 18.19217,-3.77031 3.090527,-3.08657 3.776515,-8.57139 3.776515,-18.17357 v -0.52916 c 0,9.60217 -0.685988,15.08699 -3.776515,18.17356 -3.090526,3.08658 -8.58098,3.77032 -18.19217,3.77032 h -19.56263 c -9.611188,0 -15.1016419,-0.68374 -18.1921709,-3.77032 -3.0905234,-3.08657 -3.7765137,-8.57139 -3.7765137,-18.17356 z"/>
  <path d="M 361.9375,-212 C 507.2348,-212 528,-191.28677 528,-46.125 V 70.125 C 528,215.28618 507.2348,236 361.9375,236 H 214.0625 C 68.7652,236 48,215.28618 48,70.125 V -46.125 C 48,-191.28677 68.7652,-212 214.0625,-212 Z" clip-path="url(#clipPath1082-3-3)" transform="matrix(0.13229167,0,0,0.13229167,-4.8768016,261.66013)" style="opacity:0.4;fill:none;stroke:url(#linearGradient1108);stroke-width:8;stroke-linecap:round;stroke-linejoin:round"/>
  <path style="opacity:0.05;fill:#ffffff" d="m 1.4731984,261.13096 v 9.80612 c 0,9.60218 0.6859903,15.087 3.7765137,18.17357 3.090529,3.08658 8.5809829,3.77031 18.1921709,3.77031 h 19.56263 c 9.61119,0 15.101644,-0.68373 18.19217,-3.77031 3.090527,-3.08657 3.776515,-8.57139 3.776515,-18.17357 v -9.80612 z"/>
  <g transform="translate(95.390096,-13.307485)">
   <path d="m -47.002435,302.88777 -1.707092,-9.32762 0.315648,1.9849 -40.620685,0.41434 41.807871,7.05406 z" style="isolation:isolate;fill:#46a926"/>
   <path d="m -55.618591,250.09678 6.909064,43.46337 1.707092,9.32762 12.150196,-7.48056 -6.532034,-41.0898 0.004,-0.003 -0.0058,-0.008 -0.128323,-0.80936 z" style="isolation:isolate;fill:#76c22b"/>
   <path d="m -80.866985,277.22107 2.43496,-3.3147 -8.193881,-4.3479 -2.855648,1.4867 z" style="isolation:isolate;fill:#76c22b"/>
   <path d="m -56.671898,285.44908 -8.151018,-4.32408 2.64e-4,10e-4 -9.362017,-4.96729 -3.338512,3.45863 14.063398,10.08168 z" style="isolation:isolate;fill:#76c22b"/>
   <path d="m -60.416281,261.89508 -6.408208,6.63893 2.001573,12.59099 8.151018,4.32408 z" style="isolation:isolate;fill:#46a926"/>
   <path d="m -68.187358,259.95912 -10.244667,13.94725 -2.43496,3.3147 2.65e-4,2.6e-4 -6.275123,8.54261 3.176058,0.52837 6.44181,-6.67491 h 2.65e-4 l 5.29e-4,2.7e-4 3.338777,-3.45864 -0.0016,-5.3e-4 7.361237,-7.62635 2.65e-4,0.002 6.408208,-6.63893 z" style="isolation:isolate;fill:#76c22b"/>
   <path d="m -47.002435,302.88777 -1.707092,-9.32762 0.315648,1.9849 -40.620685,0.41434 41.807871,7.05406 z" style="isolation:isolate;fill:none"/>
   <g style="opacity:0.25;isolation:isolate" transform="matrix(0.26458333,0,0,0.26458333,-97.251837,243.18692)">
    <path d="m 189.919,225.641 -6.452,-35.254 1.193,7.502 -153.527,1.566 158.014,26.661 z" style="fill:url(#_lgradient_1)"/>
   </g>
   <g style="opacity:0.2;isolation:isolate" transform="matrix(0.26458333,0,0,0.26458333,-97.251837,243.18692)">
    <path d="m 139.221,70.708 -24.22,25.092 7.565,47.588 30.807,16.343 z" style="fill:url(#_lgradient_2)"/>
   </g>
  </g>
 </g>
</svg>
