<svg width="256" height="256" version="1.1" viewBox="0 0 67.73 67.73" xmlns="http://www.w3.org/2000/svg" xmlns:xlink="http://www.w3.org/1999/xlink">
 <defs>
  <linearGradient id="_lgradient_2" x1="205.258" x2="225.288" y1="53.167" y2="101.615" gradientTransform="scale(.65653231 1.5231543)" gradientUnits="userSpaceOnUse">
   <stop style="stop-color:rgb(0,5,9)" offset="0"/>
   <stop stop-opacity=".061" offset=".3345"/>
   <stop style="stop-color:rgb(40,133,30)" offset=".57826"/>
   <stop stop-opacity="0" style="stop-color:rgb(40,133,30)" offset=".875"/>
   <stop style="stop-color:rgb(0,0,0)" offset="1"/>
  </linearGradient>
  <linearGradient id="_lgradient_1" x1="76.893" x2="87.042" y1="440.096" y2="435.336" gradientTransform="scale(2.1081217 .47435592)" gradientUnits="userSpaceOnUse">
   <stop stop-opacity=".118" offset="0"/>
   <stop style="stop-color:rgb(0,5,9)" offset="1"/>
  </linearGradient>
  <linearGradient id="linearGradient1108" x1="296" x2="296" y1="-212" y2="236" gradientUnits="userSpaceOnUse">
   <stop style="stop-color:#ffffff" offset="0"/>
   <stop style="stop-color:#ffffff;stop-opacity:.09803922" offset=".125"/>
   <stop style="stop-color:#000000;stop-opacity:.09803922" offset=".925"/>
   <stop style="stop-color:#000000;stop-opacity:.49803922" offset="1"/>
  </linearGradient>
  <clipPath id="clipPath1082-3-3">
   <path d="M 361.9375,-212 C 507.2348,-212 528,-191.28677 528,-46.125 V 70.125 C 528,215.28618 507.2348,236 361.9375,236 H 214.0625 C 68.7652,236 48,215.28618 48,70.125 V -46.125 C 48,-191.28677 68.7652,-212 214.0625,-212 Z" style="fill:#8c59d9"/>
  </clipPath>
  <filter id="filter4569" x="-.01" y="-.01" width="1.023" height="1.025" style="color-interpolation-filters:sRGB">
   <feGaussianBlur stdDeviation="1.16"/>
  </filter>
  <filter id="filter913" x="-.02" y="-.03" width="1.046" height="1.05" style="color-interpolation-filters:sRGB">
   <feGaussianBlur stdDeviation="2.32"/>
  </filter>
 </defs>
 <g transform="translate(0,-229.26666)">
  <path transform="matrix(.26458333 0 0 .26458333 -1.8735229e-8 232.67026)" d="m162.53675 5.5680001c72.64865 0 83.03125 10.356615 83.03125 82.937505v58.125005c0 72.58059-10.3826 82.9375-83.03125 82.9375h-73.937496c-72.648654 0-83.031254-10.35691-83.031254-82.9375v-58.125005c0-72.58089 10.3826-82.937505 83.031254-82.937505z" style="filter:url(#filter913);opacity:.2"/>
  <path transform="matrix(.26458333 0 0 .26458333 -1.8735229e-8 232.67026)" d="m162.53675 3.5680001c72.64865 0 83.03125 10.356615 83.03125 82.937505v58.125005c0 72.58059-10.3826 82.9375-83.03125 82.9375h-73.937496c-72.648654 0-83.031254-10.35691-83.031254-82.9375v-58.125005c0-72.58089 10.3826-82.937505 83.031254-82.937505z" style="filter:url(#filter4569);opacity:.1"/>
  <path d="m23.441883 233.61429c-9.611188 0-15.101641 0.68375-18.192171 3.77032-3.0905242 3.08656-3.7765137 8.57135-3.7765137 18.17356v15.37891c0 9.60218 0.6859903 15.087 3.7765137 18.17357 3.090529 3.08658 8.5809829 3.77031 18.192171 3.77031h19.56263c9.61119 0 15.101644-0.68373 18.19217-3.77031 3.090527-3.08657 3.776515-8.57139 3.776515-18.17357v-15.37891c0-9.60221-0.685988-15.087-3.776515-18.17356-3.090526-3.08657-8.580982-3.77032-18.19217-3.77032z" style="fill:#4d4d4d"/>
  <path d="m1.4731984 270.40792v0.52916c0 9.60218 0.6859903 15.087 3.7765137 18.17357 3.090529 3.08658 8.5809829 3.77031 18.192171 3.77031h19.56263c9.61119 0 15.101644-0.68373 18.19217-3.77031 3.090527-3.08657 3.776515-8.57139 3.776515-18.17357v-0.52916c0 9.60217-0.685988 15.08699-3.776515 18.17356-3.090526 3.08658-8.58098 3.77032-18.19217 3.77032h-19.56263c-9.611188 0-15.101642-0.68374-18.192171-3.77032-3.0905234-3.08657-3.7765137-8.57139-3.7765137-18.17356z" style="fill:#131313;opacity:.2"/>
  <path transform="matrix(.13229167 0 0 .13229167 -4.8768016 261.66013)" d="M 361.9375,-212 C 507.2348,-212 528,-191.28677 528,-46.125 V 70.125 C 528,215.28618 507.2348,236 361.9375,236 H 214.0625 C 68.7652,236 48,215.28618 48,70.125 V -46.125 C 48,-191.28677 68.7652,-212 214.0625,-212 Z" clip-path="url(#clipPath1082-3-3)" style="fill:none;opacity:.4;stroke-linecap:round;stroke-linejoin:round;stroke-width:8;stroke:url(#linearGradient1108)"/>
  <path d="m1.4731984 261.13096v9.80612c0 9.60218 0.6859903 15.087 3.7765137 18.17357 3.090529 3.08658 8.5809829 3.77031 18.192171 3.77031h19.56263c9.61119 0 15.101644-0.68373 18.19217-3.77031 3.090527-3.08657 3.776515-8.57139 3.776515-18.17357v-9.80612z" style="fill:#ffffff;opacity:.05"/>
  <g transform="translate(95.390096,-13.307485)">
   <path d="m-47.002435 302.88777-1.707092-9.32762 0.315648 1.9849-40.620685 0.41434 41.807871 7.05406z" style="fill:#46a926;isolation:isolate"/>
   <path d="m-55.618591 250.09678 6.909064 43.46337 1.707092 9.32762 12.150196-7.48056-6.532034-41.0898 4e-3 -3e-3 -0.0058-8e-3 -0.128323-0.80936z" style="fill:#76c22b;isolation:isolate"/>
   <path d="m-80.866985 277.22107 2.43496-3.3147-8.193881-4.3479-2.855648 1.4867z" style="fill:#76c22b;isolation:isolate"/>
   <path d="m-56.671898 285.44908-8.151018-4.32408 2.64e-4 1e-3 -9.362017-4.96729-3.338512 3.45863 14.063398 10.08168z" style="fill:#76c22b;isolation:isolate"/>
   <path d="m-60.416281 261.89508-6.408208 6.63893 2.001573 12.59099 8.151018 4.32408z" style="fill:#46a926;isolation:isolate"/>
   <path d="m-68.187358 259.95912-10.244667 13.94725-2.43496 3.3147 2.65e-4 2.6e-4 -6.275123 8.54261 3.176058 0.52837 6.44181-6.67491h2.65e-4l5.29e-4 2.7e-4 3.338777-3.45864-0.0016-5.3e-4 7.361237-7.62635 2.65e-4 2e-3 6.408208-6.63893z" style="fill:#76c22b;isolation:isolate"/>
   <path d="m-47.002435 302.88777-1.707092-9.32762 0.315648 1.9849-40.620685 0.41434 41.807871 7.05406z" style="fill:none;isolation:isolate"/>
   <g transform="matrix(.26458333 0 0 .26458333 -97.251837 243.18692)" style="isolation:isolate;opacity:.25">
    <path d="m189.919 225.641-6.452-35.254 1.193 7.502-153.527 1.566 158.014 26.661z" style="fill:url(#_lgradient_1)"/>
   </g>
   <g transform="matrix(.26458333 0 0 .26458333 -97.251837 243.18692)" style="isolation:isolate;opacity:.2">
    <path d="m139.221 70.708-24.22 25.092 7.565 47.588 30.807 16.343z" style="fill:url(#_lgradient_2)"/>
   </g>
  </g>
 </g>
</svg>
