<svg width="256" height="256" version="1.1" viewBox="0 0 67.73 67.73" xmlns="http://www.w3.org/2000/svg" xmlns:xlink="http://www.w3.org/1999/xlink">
 <defs>
  <clipPath id="clipPath1082-3-5">
   <path d="M 361.9375,-212 C 507.2348,-212 528,-191.28677 528,-46.125 V 70.125 C 528,215.28618 507.2348,236 361.9375,236 H 214.0625 C 68.7652,236 48,215.28618 48,70.125 V -46.125 C 48,-191.28677 68.7652,-212 214.0625,-212 Z" style="fill:#8c59d9"/>
  </clipPath>
  <filter id="filter4569-2" x="-.01" y="-.01" width="1.023" height="1.025" style="color-interpolation-filters:sRGB">
   <feGaussianBlur stdDeviation="1.16"/>
  </filter>
  <filter id="filter913" x="-.02" y="-.03" width="1.046" height="1.05" style="color-interpolation-filters:sRGB">
   <feGaussianBlur stdDeviation="2.32"/>
  </filter>
  <linearGradient id="linearGradient906" x1="296" x2="296" y1="-212" y2="236" gradientUnits="userSpaceOnUse">
   <stop style="stop-color:#ffffff" offset="0"/>
   <stop style="stop-color:#ffffff;stop-opacity:.09803922" offset=".125"/>
   <stop style="stop-color:#000000;stop-opacity:.09803922" offset=".925"/>
   <stop style="stop-color:#000000;stop-opacity:.49803922" offset="1"/>
  </linearGradient>
  <linearGradient id="linearGradient3642" x1="689.505" x2="665.959" y1="201.928" y2="69.798" gradientTransform="matrix(.14776757 0 0 .14776757 -63.057274 240.09662)" gradientUnits="userSpaceOnUse">
   <stop style="stop-color:#000000" offset="0"/>
   <stop style="stop-color:#007acc;stop-opacity:0" offset=".335"/>
   <stop style="stop-color:#007acc" offset=".577"/>
   <stop style="stop-color:#007acc;stop-opacity:.06074766" offset=".875"/>
   <stop style="stop-color:#000509" offset="1"/>
  </linearGradient>
  <linearGradient id="linearGradient3564" x1="698.845" x2="737.155" y1="365.849" y2="361.806" gradientTransform="matrix(.14776757 0 0 .14776757 -60.682669 230.15845)" gradientUnits="userSpaceOnUse">
   <stop style="stop-color:#247db8;stop-opacity:.118" offset="0"/>
   <stop style="stop-color:#000509" offset="1"/>
  </linearGradient>
  <filter id="filter3666" x="-.05" y="-.05" width="1.095" height="1.097" style="color-interpolation-filters:sRGB">
   <feGaussianBlur stdDeviation="3.591"/>
  </filter>
  <filter id="filter972" x="-.05" y="-.05" width="1.094" height="1.098" style="color-interpolation-filters:sRGB">
   <feGaussianBlur stdDeviation="1.075"/>
  </filter>
 </defs>
 <g transform="translate(0,-229.26666)">
  <path transform="matrix(.26970778 0 0 .26970778 -7.1289177 220.56049)" d="m188.96876 45.999995c72.64865 0 83.03125 10.356615 83.03125 82.937505v58.125c0 72.58059-10.3826 82.9375-83.03125 82.9375h-73.9375c-72.648654 0-83.031254-10.35691-83.031254-82.9375v-58.125c0-72.58089 10.3826-82.937505 83.031254-82.937505z" style="filter:url(#filter913);opacity:.2"/>
  <path transform="matrix(.26970778 0 0 .26970778 -7.1289177 220.56049)" d="m188.96876 43.999995c72.64865 0 83.03125 10.356615 83.03125 82.937505v58.125c0 72.58059-10.3826 82.9375-83.03125 82.9375h-73.9375c-72.648654 0-83.031254-10.35691-83.031254-82.9375v-58.125c0-72.58089 10.3826-82.937505 83.031254-82.937505z" style="filter:url(#filter4569-2);opacity:.1"/>
  <path d="m23.895905 232.42763c-9.797337 0-15.39413 0.69699-18.544517 3.84334-3.150381 3.14634-3.849657 8.73736-3.849657 18.52555v15.67677c0 9.78815 0.699276 15.3792 3.849657 18.52555 3.150387 3.14636 8.7471787 3.84333 18.544517 3.84333h19.94152c9.797339 0 15.394134-0.69697 18.544517-3.84333 3.150384-3.14635 3.849659-8.7374 3.849659-18.52555v-15.67677c0-9.78819-0.699275-15.37921-3.849659-18.52555-3.150383-3.14635-8.74718-3.84334-18.544517-3.84334z" style="fill:#4d4d4d"/>
  <path d="m1.3229167 262.44541v9.39753c0 9.20209 0.7002807 14.45838 3.8551904 17.41634 3.1549157 2.95797 8.7597529 3.61321 18.571174 3.61321h19.970185c9.811423 0 15.416262-0.65524 18.571174-3.61321 3.154913-2.95796 3.855193-8.21425 3.855193-17.41634v-9.39753z" style="fill:#ffffff;opacity:.05"/>
  <path d="m1.5017313 269.93387v0.53942c0 9.78815 0.699276 15.3792 3.849657 18.52555 3.150387 3.14636 8.7471787 3.84333 18.544517 3.84333h19.94152c9.797339 0 15.394134-0.69697 18.544517-3.84333 3.150384-3.14635 3.849659-8.7374 3.849659-18.52555v-0.53942c0 9.78815-0.699275 15.3792-3.849659 18.52555-3.150383 3.14636-8.747178 3.84334-18.544517 3.84334h-19.94152c-9.797338 0-15.39413-0.69698-18.544517-3.84334-3.150381-3.14635-3.849657-8.7374-3.849657-18.52555z" style="fill:#131313;opacity:.2"/>
  <path transform="matrix(.13485389 0 0 .13485389 -4.9712557 261.01666)" d="M 361.9375,-212 C 507.2348,-212 528,-191.28677 528,-46.125 V 70.125 C 528,215.28618 507.2348,236 361.9375,236 H 214.0625 C 68.7652,236 48,215.28618 48,70.125 V -46.125 C 48,-191.28677 68.7652,-212 214.0625,-212 Z" clip-path="url(#clipPath1082-3-5)" style="fill:none;opacity:.4;stroke-linecap:round;stroke-linejoin:round;stroke-width:8;stroke:url(#linearGradient906)"/>
  <g transform="translate(.30507984 .282605)" style="fill:#110000;filter:url(#filter972);opacity:.3">
   <path d="m49.944446 288.68479-1.707119-9.32753 0.315448 1.98505-40.620497 0.41415 41.807833 7.05417z" style="fill:#110000"/>
   <path d="m41.328037 235.89396 6.90929 43.4633 1.707119 9.32753 12.150131-7.48044-6.532077-41.08977 4e-3 -3e-3 -0.0058-8e-3 -0.128431-0.80926z" style="fill:#110000"/>
   <path d="m16.079761 263.0182 2.434991-3.31467-8.193886-4.34789-2.8557817 1.48662z" style="fill:#110000"/>
   <path d="m40.274968 271.24613-8.15117-4.32393 2.95e-4 9.4e-4 -9.361883-4.96725-3.338624 3.45868 14.063316 10.08168z" style="fill:#110000"/>
   <path d="m36.530562 247.69222-6.408264 6.63886 2.0015 12.59112 8.15117 4.32393z" style="fill:#110000"/>
   <path transform="matrix(.14776757 0 0 .14776757 7.4650843 235.89396)" d="m144.10743 66.741749-69.33008 94.386721-16.47852 22.43164 2e-3 2e-3 -42.46679 57.81055 21.49414 3.57617 43.59375-45.17187h2e-3l4e-3 2e-3 22.59375-23.40625-0.01-4e-3 49.81641-51.60937 2e-3 0.0117 43.36719-44.927741z" style="fill:#110000;filter:url(#filter3666);opacity:.2"/>
   <path d="m49.944446 288.68479-1.707119-9.32753 0.315448 1.98505-40.620497 0.41415 41.807833 7.05417z" style="fill:#110000"/>
   <path d="m49.944446 288.68479-1.707119-9.32753 0.315448 1.98505-40.620497 0.41415 41.807833 7.05417z" style="fill:#110000;opacity:.25"/>
   <path d="m36.530562 247.69222-6.408264 6.63886 2.0015 12.59112 8.15117 4.32393z" style="fill:#110000;opacity:.2"/>
  </g>
  <g transform="translate(.30507984 .282605)">
   <path d="m49.944446 288.68479-1.707119-9.32753 0.315448 1.98505-40.620497 0.41415 41.807833 7.05417z" style="fill:#007acc"/>
   <path d="m41.328037 235.89396 6.90929 43.4633 1.707119 9.32753 12.150131-7.48044-6.532077-41.08977 4e-3 -3e-3 -0.0058-8e-3 -0.128431-0.80926z" style="fill:#1ba0f9"/>
   <path d="m16.079761 263.0182 2.434991-3.31467-8.193886-4.34789-2.8557817 1.48662z" style="fill:#1ba0f9"/>
   <path d="m40.274968 271.24613-8.15117-4.32393 2.95e-4 9.4e-4 -9.361883-4.96725-3.338624 3.45868 14.063316 10.08168z" style="fill:#1ba0f9"/>
   <path d="m36.530562 247.69222-6.408264 6.63886 2.0015 12.59112 8.15117 4.32393z" style="fill:#007acc"/>
   <path transform="matrix(.14776757 0 0 .14776757 7.4650843 235.89396)" d="m144.10743 66.741749-69.33008 94.386721-16.47852 22.43164 2e-3 2e-3 -42.46679 57.81055 21.49414 3.57617 43.59375-45.17187h2e-3l4e-3 2e-3 22.59375-23.40625-0.01-4e-3 49.81641-51.60937 2e-3 0.0117 43.36719-44.927741z" style="filter:url(#filter3666);opacity:.2"/>
   <path d="m28.759489 245.75622-10.244737 13.94731-2.434991 3.31467 2.95e-4 3e-4 -6.275214 8.54251 3.176136 0.52845 6.441743-6.67494h2.96e-4l6.14e-4 3e-4 3.338623-3.45869-0.0015-5.6e-4 7.36125-7.62619 2.95e-4 2e-3 6.408265-6.63886z" style="fill:#1ba0f9"/>
   <path d="m49.944446 288.68479-1.707119-9.32753 0.315448 1.98505-40.620497 0.41415 41.807833 7.05417z" style="fill-opacity:0"/>
   <path d="m49.944446 288.68479-1.707119-9.32753 0.315448 1.98505-40.620497 0.41415 41.807833 7.05417z" style="fill:url(#linearGradient3564);opacity:.25"/>
   <path d="m36.530562 247.69222-6.408264 6.63886 2.0015 12.59112 8.15117 4.32393z" style="fill:url(#linearGradient3642);opacity:.2"/>
  </g>
 </g>
</svg>
