<svg width="256" height="256" version="1.1" viewBox="0 0 67.73 67.73" xmlns="http://www.w3.org/2000/svg" xmlns:xlink="http://www.w3.org/1999/xlink">
 <defs>
  <filter id="filter1132" x="-.02" y="-.03" width="1.046" height="1.05" style="color-interpolation-filters:sRGB">
   <feGaussianBlur stdDeviation="2.32"/>
  </filter>
  <filter id="filter4569" x="-.01" y="-.01" width="1.023" height="1.025" style="color-interpolation-filters:sRGB">
   <feGaussianBlur stdDeviation="1.16"/>
  </filter>
  <linearGradient id="f" x1="181.918" x2="170.052" y1="190.647" y2="165.317" gradientTransform="matrix(.58181358 0 0 .58181358 -54.409208 175.2718)" gradientUnits="userSpaceOnUse">
   <stop stop-color="#5299dc" offset="0"/>
   <stop stop-color="#287bc8" offset="1"/>
  </linearGradient>
  <linearGradient id="e" x1="155.098" x2="197.653" y1="157.153" y2="195.477" gradientTransform="matrix(.58181358 0 0 .58181358 -54.409208 175.2718)" gradientUnits="userSpaceOnUse">
   <stop stop-color="#ebebeb" offset="0"/>
   <stop stop-color="#a0afbe" offset="1"/>
  </linearGradient>
  <filter id="filter2408" x="-.05" y="-.05" width="1.096" height="1.096" style="color-interpolation-filters:sRGB">
   <feGaussianBlur stdDeviation=".582"/>
  </filter>
  <linearGradient id="linearGradient1108" x1="296" x2="296" y1="-212" y2="236" gradientUnits="userSpaceOnUse">
   <stop style="stop-color:#ffffff" offset="0"/>
   <stop style="stop-color:#ffffff;stop-opacity:.09803922" offset=".125"/>
   <stop style="stop-color:#000000;stop-opacity:.09803922" offset=".925"/>
   <stop style="stop-color:#000000;stop-opacity:.49803922" offset="1"/>
  </linearGradient>
  <clipPath id="clipPath1082-3-367">
   <path d="M 361.9375,-212 C 507.2348,-212 528,-191.28677 528,-46.125 V 70.125 C 528,215.28618 507.2348,236 361.9375,236 H 214.0625 C 68.7652,236 48,215.28618 48,70.125 V -46.125 C 48,-191.28677 68.7652,-212 214.0625,-212 Z" style="fill:#8c59d9"/>
  </clipPath>
 </defs>
 <g transform="translate(0,-229.26666)">
  <path transform="matrix(.26458334 0 0 .26458334 -6.9934686 221.97262)" d="m188.96876 43.999995c72.64865 0 83.03125 10.356615 83.03125 82.937505v58.125c0 72.58059-10.3826 82.9375-83.03125 82.9375h-73.9375c-72.648654 0-83.031254-10.35691-83.031254-82.9375v-58.125c0-72.58089 10.3826-82.937505 83.031254-82.937505z" style="filter:url(#filter4569);opacity:.1"/>
  <path transform="matrix(.26458334 0 0 .26458334 -6.9934686 221.97262)" d="m188.96876 45.999995c72.64865 0 83.03125 10.356615 83.03125 82.937505v58.125c0 72.58059-10.3826 82.9375-83.03125 82.9375h-73.9375c-72.648654 0-83.031254-10.35691-83.031254-82.9375v-58.125c0-72.58089 10.3826-82.937505 83.031254-82.937505z" style="filter:url(#filter1132);opacity:.2"/>
  <g transform="matrix(.98100005 0 0 .98100005 .51848609 3.3925879)">
   <path transform="matrix(.26458333 0 0 .26458333 -.5285281 231.51965)" d="m81.666016 12.154297c-5.600055 0.08292-11.435543 0.10791-16.25 0.390625-3.688381 0.216589-7.155044 0.499672-10.41211 0.863281-2.37261 0.264871-4.514341 0.623791-6.669922 0.978516v19.947265h33.332032z" style="fill:#0b3b86"/>
   <path transform="matrix(.26458333 0 0 .26458333 -.5285281 231.51965)" d="m115 11.947266h-24.685547c-3.215388 0-5.668031 0.162899-8.648437 0.207031v22.179687h33.333984z" style="fill:#0d47a0"/>
   <path transform="matrix(.26458333 0 0 .26458333 -.5285281 231.51965)" d="m148.33398 11.947266h-33.33398v22.386718h33.33398z" style="fill:#1564be"/>
   <path transform="matrix(.26458333 0 0 .26458333 -.5285281 231.51965)" d="m181.66602 12.330078c-5.15159-0.163207-10.03912-0.382812-15.98047-0.382812h-17.35157v22.386718h33.33204z" style="fill:#1976d1"/>
   <path transform="matrix(.26458333 0 0 .26458333 -.5285281 231.51965)" d="m215 15.908203c-1.59058-0.397412-3.11504-0.830306-4.84766-1.15625-2.85157-0.536445-5.89918-0.980141-9.15625-1.34375-3.25706-0.363609-6.72373-0.646692-10.41211-0.863281-2.64216-0.155154-6.04309-0.123765-8.91796-0.214844v22.003906h33.33398z" style="fill:#1e86e2"/>
   <path transform="matrix(.26458333 0 0 .26458333 -.5285281 231.51965)" d="m241.42578 34.269531c-0.53604-0.962259-1.00856-2.006852-1.60742-2.890625-1.21149-1.787872-2.55511-3.418343-4.04297-4.904297-1.48786-1.485953-3.1201-2.827257-4.91016-4.037109-1.79005-1.209852-3.73739-2.288481-5.85546-3.248047s-4.407-1.800059-6.87891-2.535156c-0.96998-0.288452-2.10363-0.489438-3.13086-0.746094v18.425781h25.64062c0.33289-0.0068 0.47639-0.05268 0.78516-0.06445z" style="fill:#2195f2"/>
   <path transform="matrix(.26458333 0 0 .26458333 -.5285281 231.51965)" d="m48.333984 14.386719c-0.803552 0.132233-1.711983 0.219563-2.486328 0.365234-2.851576 0.536445-5.506605 1.167247-7.978515 1.902344-2.471911 0.735097-4.760837 1.57559-6.878907 2.535156-2.118069 0.959566-4.065415 2.038195-5.855468 3.248047s-3.422296 2.551156-4.910157 4.037109c-1.48786 1.485954-2.831476 3.116425-4.042968 4.904297-0.44024 0.649689-1.236509 2.263198-1.642579 2.955078h33.794922z" style="fill:#07275a"/>
   <rect x="12.26" y="240.6" width="8.819" height="8.819" style="fill:#0d47a0"/>
   <rect x="21.08" y="240.6" width="8.819" height="8.819" style="fill:#1564be"/>
   <rect x="29.9" y="240.6" width="8.819" height="8.819" style="fill:#1976d1"/>
   <rect x="38.72" y="240.6" width="8.819" height="8.819" style="fill:#1e86e2"/>
   <rect x="47.54" y="240.6" width="8.819" height="8.819" style="fill:#2195f2"/>
   <path transform="matrix(.26458333 0 0 .26458333 -.5285281 231.51965)" d="m248.33398 57.644531c-0.26138-1.885329-0.49272-3.839566-0.82031-5.576172-0.53733-2.848527-1.16806-5.501544-1.90429-7.970703-0.73624-2.469159-1.57812-4.755486-2.53907-6.871094-0.47539-1.046617-1.07426-1.927767-1.60937-2.892578h-26.46094v33.333985h33.33398z" style="fill:#41a1f0"/>
   <rect x="3.44" y="240.6" width="8.819" height="8.819" style="fill:#0b3b86"/>
   <rect x="3.44" y="249.42" width="8.819" height="8.819" style="fill:#0d47a0"/>
   <rect x="12.26" y="249.42" width="8.819" height="8.819" style="fill:#1564be"/>
   <rect x="21.08" y="249.42" width="8.819" height="8.819" style="fill:#1976d1"/>
   <rect x="29.9" y="249.42" width="8.819" height="8.819" style="fill:#1e86e2"/>
   <rect x="38.72" y="249.42" width="8.819" height="8.819" style="fill:#2195f2"/>
   <rect x="47.54" y="249.42" width="8.819" height="8.819" style="fill:#41a1f0"/>
   <path transform="matrix(.26458333 0 0 .26458333 -.5285281 231.51965)" d="m6.6035156 67.666016c-0.1024809 1.335843-0.2457196 2.550078-0.328125 3.949218-0.4340378 7.369426-0.5996094 15.626671-0.5996094 24.875v4.509766h9.3242188v-33.333984z" style="fill:#0b3b86"/>
   <rect x="3.44" y="258.24" width="8.819" height="8.819" style="fill:#1564be"/>
   <rect x="12.26" y="258.24" width="8.819" height="8.819" style="fill:#1976d1"/>
   <rect x="21.08" y="258.24" width="8.819" height="8.819" style="fill:#1e86e2"/>
   <rect x="29.9" y="258.24" width="8.819" height="8.819" style="fill:#2195f2"/>
   <rect x="38.72" y="258.24" width="8.819" height="8.819" style="fill:#41a1f0"/>
   <rect x="47.54" y="258.24" width="8.819" height="8.819" style="fill:#63b4f4"/>
   <path transform="matrix(.26458333 0 0 .26458333 -.5285281 231.51965)" d="m 5.6757812,101 v 33.33398 H 15 V 101 Z" style="fill:#0d47a0"/>
   <rect x="3.44" y="267.06" width="8.819" height="8.819" style="fill:#1976d1"/>
   <rect x="12.26" y="267.06" width="8.819" height="8.819" style="fill:#1e86e2"/>
   <rect x="21.08" y="267.06" width="8.819" height="8.819" style="fill:#2195f2"/>
   <rect x="29.9" y="267.06" width="8.819" height="8.819" style="fill:#41a1f0"/>
   <rect x="38.72" y="267.06" width="8.819" height="8.819" style="fill:#63b4f4"/>
   <rect x="47.54" y="267.06" width="8.819" height="8.819" style="fill:#8fc9f8"/>
   <path transform="matrix(.26458333 0 0 .26458333 -.5285281 231.51965)" d="m5.6757812 134.33398v21.40821c1e-7 4.43316 0.1997357 7.93474 0.2871094 11.92383h9.0371094v-33.33204z" style="fill:#1564be"/>
   <rect x="3.44" y="275.88" width="8.819" height="8.819" style="fill:#1e86e2"/>
   <rect x="12.26" y="275.88" width="8.819" height="8.819" style="fill:#2195f2"/>
   <rect x="21.08" y="275.88" width="8.819" height="8.819" style="fill:#41a1f0"/>
   <rect x="29.9" y="275.88" width="8.819" height="8.819" style="fill:#63b4f4"/>
   <rect x="38.72" y="275.88" width="8.819" height="8.819" style="fill:#8fc9f8"/>
   <rect x="47.54" y="275.88" width="8.819" height="8.819" style="fill:#badcf9"/>
   <path transform="matrix(.26458333 0 0 .26458333 -.5285281 231.51965)" d="m5.9628906 167.66602c0.094902 4.33278 0.086518 9.11428 0.3125 12.95117 0.2170189 3.6847 0.5009695 7.14668 0.8652344 10.40039 0.3642649 3.2537 0.8083678 6.29796 1.3457031 9.14648 0.056346 0.2987 0.1408127 0.54154 0.1992188 0.83594h6.3144531v-33.33398z" style="fill:#1976d1"/>
   <path transform="matrix(.26458333 0 0 .26458333 -.5285281 231.51965)" d="m 15,218.72852 c 0.40607,0.69188 0.741401,1.47531 1.181641,2.125 1.211492,1.78787 2.555108,3.41834 4.042968,4.90429 1.487861,1.48596 3.120104,2.82726 4.910157,4.03711 1.790053,1.20986 3.737399,2.28848 5.855468,3.24805 1.077066,0.48795 2.331125,0.86079 3.498047,1.28906 H 48.333984 V 201 H 15 Z" style="fill:#2195f2"/>
   <rect x="12.26" y="284.7" width="8.819" height="8.819" style="fill:#41a1f0"/>
   <rect x="21.08" y="284.7" width="8.819" height="8.819" style="fill:#63b4f4"/>
   <rect x="29.9" y="284.7" width="8.819" height="8.819" style="fill:#8fc9f8"/>
   <rect x="38.72" y="284.7" width="8.819" height="8.819" style="fill:#badcf9"/>
   <rect x="47.54" y="284.7" width="8.819" height="8.819" style="fill:#d2e8fb"/>
   <path transform="matrix(.26458333 0 0 .26458333 -.5285281 231.51965)" d="m 8.6855469,201 c 0.4985737,2.51313 1.0460507,4.92453 1.7050781,7.13477 0.73623,2.46915 1.578113,4.75548 2.539063,6.87109 0.727025,1.60061 1.592299,3.01261 2.460937,4.42383 L 15,201 Z" style="fill:#1e86e2"/>
   <path transform="matrix(.26458333 0 0 .26458333 -.5285281 231.51965)" d="m34.636719 234.38672c1.081929 0.39349 2.070847 0.84597 3.232422 1.1914 2.47191 0.73511 5.126939 1.3659 7.978515 1.90235 0.774345 0.14567 1.682776 0.233 2.486328 0.36523v-3.51172z" style="fill:#41a1f0"/>
   <path transform="matrix(.26458333 0 0 .26458333 -.5285281 231.51965)" d="m48.333984 237.8457c2.155581 0.35473 4.297312 0.71364 6.669922 0.97852 3.257066 0.36361 6.723729 0.64669 10.41211 0.86328 4.814457 0.28272 10.649945 0.3077 16.25 0.39062v-5.74414h-33.332032z" style="fill:#63b4f4"/>
   <path transform="matrix(.26458333 0 0 .26458333 -.5285281 231.51965)" d="m81.666016 240.07812c2.980406 0.0441 5.433049 0.20704 8.648437 0.20704h24.685547v-5.95118h-33.333984z" style="fill:#8fc9f8"/>
   <path transform="matrix(.26458333 0 0 .26458333 -.5285281 231.51965)" d="m115 240.28516h33.33398v-5.95118h-33.33398z" style="fill:#badcf9"/>
   <path transform="matrix(.26458333 0 0 .26458333 -.5285281 231.51965)" d="m148.33398 240.28516h17.35157c5.94135 0 10.82888-0.21961 15.98047-0.38282v-5.56836h-33.33204z" style="fill:#d2e8fb"/>
   <path transform="matrix(.26458333 0 0 .26458333 -.5285281 231.51965)" d="m181.66602 239.90234c2.87487-0.0911 6.2758-0.0597 8.91796-0.21484 3.68838-0.21659 7.15505-0.49967 10.41211-0.86328 3.25707-0.36361 6.30468-0.8073 9.15625-1.34375 1.73262-0.32595 3.25708-0.75884 4.84766-1.15625v-1.99024h-33.33398z" style="fill:#e0effa"/>
   <rect x="56.36" y="249.42" width="8.819" height="8.819" style="fill:#63b4f4"/>
   <rect x="56.36" y="258.24" width="8.819" height="8.819" style="fill:#8fc9f8"/>
   <path transform="matrix(.26458333 0 0 .26458333 -.5285281 231.51965)" d="m249.39648 67.666016c-0.1674-2.182172-0.31116-4.432944-0.5371-6.451172-0.1422-1.270085-0.35803-2.363166-0.5254-3.570313v10.021485z" style="fill:#63b4f4"/>
   <path transform="matrix(.26458333 0 0 .26458333 -.5285281 231.51965)" d="m250.32422 134.33398v-33.33398h-1.99024v33.33398z" style="fill:#badcf9"/>
   <rect x="56.36" y="267.06" width="8.819" height="8.819" style="fill:#badcf9"/>
   <path transform="matrix(.26458333 0 0 .26458333 -.5285281 231.51965)" d="m250.03711 167.66602c0.0874-3.98909 0.28711-7.49067 0.28711-11.92383v-21.40821h-1.99024v33.33204z" style="fill:#d2e8fb"/>
   <path transform="matrix(.26458333 0 0 .26458333 -.5285281 231.51965)" d="m247.33203 200.92188c0.0528-0.26734 0.13055-0.48695 0.18164-0.75782 0.53734-2.84852 0.98144-5.89278 1.34571-9.14648 0.36426-3.25371 0.64821-6.71569 0.86523-10.40039 0.22598-3.83689 0.2176-8.61839 0.3125-12.95117h-35.03711v33.25586z" style="fill:#d2e8fb"/>
   <path transform="matrix(.26458333 0 0 .26458333 -.5285281 231.51965)" d="m221.50586 234.33398c1.16901-0.42888 2.42506-0.80225 3.50391-1.29101 2.11807-0.95957 4.06541-2.03819 5.85546-3.24805 1.79006-1.20985 3.4223-2.55115 4.91016-4.03711 1.48786-1.48595 2.83148-3.11642 4.04297-4.90429 1.21149-1.78788 2.291-3.73205 3.25195-5.84766s1.80283-4.40194 2.53907-6.87109c0.65902-2.21024 1.2065-4.62164 1.70507-7.13477h-32.31445v33.33398z" style="fill:#e0effa"/>
   <path transform="matrix(.26458333 0 0 .26458333 -.5285281 231.51965)" d="m14.539062 34.333984c-0.535114 0.964811-1.133981 1.845961-1.609374 2.892578-0.96095 2.115608-1.802833 4.401935-2.539063 6.871094-0.7362301 2.469159-1.3669615 5.122176-1.9042969 7.970703-0.5373353 2.848527-0.9814382 5.892773-1.3457031 9.146485-0.2259481 2.018228-0.3697011 4.269-0.5371094 6.451172h8.3964844v-33.332032z" style="fill:#07275a"/>
   <path transform="matrix(.26458333 0 0 .26458333 -.5285281 231.51965)" d="m250.32422 101.03516v-4.544926c0-9.248329-0.16557-17.505574-0.59961-24.875-0.085-1.44272-0.23155-2.696823-0.33789-4.072265l-1.05274 0.123047v33.333984z" style="fill:#badcf9"/>
   <path d="m49.735402 264.87073a14.545231 14.545231 0 0 0-0.47345 0.0175c-0.0271-3e-3 -0.0506-0.0165-0.0786-0.0165h-13.39537c-0.3216 0-0.58036 0.25876-0.58036 0.58035v13.62321a14.545231 14.545231 0 0 0-0.0174 0.34036 14.545231 14.545231 0 0 0 14.54524 14.54566 14.545231 14.545231 0 0 0 14.54566-14.54522 14.545231 14.545231 0 0 0-14.54566-14.54568z" display="block" overflow="visible" style="display:block;filter:url(#filter2408);opacity:.3;paint-order:fill markers stroke"/>
   <path d="m49.735402 264.87073a14.545231 14.545231 0 0 0-0.47345 0.0175c-0.0271-3e-3 -0.0506-0.0165-0.0786-0.0165h-13.39537c-0.3216 0-0.58036 0.25876-0.58036 0.58035v13.62321a14.545231 14.545231 0 0 0-0.0174 0.34036 14.545231 14.545231 0 0 0 14.54524 14.54566 14.545231 14.545231 0 0 0 14.54566-14.54522 14.545231 14.545231 0 0 0-14.54566-14.54568z" display="block" overflow="visible" style="display:block;fill:url(#e);paint-order:fill markers stroke"/>
   <path d="m57.214192 279.41641a7.4787962 7.4787962 0 0 1-7.47879 7.47835 7.4787962 7.4787962 0 0 1-7.47837-7.47835 7.4787962 7.4787962 0 0 1 7.47837-7.47923 7.4787962 7.4787962 0 0 1 7.47923 7.47923z" display="block" overflow="visible" style="display:block;fill:url(#f);paint-order:fill markers stroke"/>
   <path d="m49.735842 271.93805a7.4787962 7.4787962 0 0 0-7.47837 7.47836 7.4787962 7.4787962 0 0 0 0.0114 0.34515 7.4787962 7.4787962 0 0 1 7.46702-7.24184 7.4787962 7.4787962 0 0 1 7.46658 7.13276 7.4787962 7.4787962 0 0 0 0.0114-0.23607 7.4787962 7.4787962 0 0 0-7.47836-7.47836z" display="block" overflow="visible" style="display:block;fill-opacity:.21499999;paint-order:fill markers stroke"/>
   <path d="m49.735842 287.4808a7.4787962 7.4787962 0 0 1-7.47837-7.47837 7.4787962 7.4787962 0 0 1 0.0114-0.34515 7.4787962 7.4787962 0 0 0 7.46702 7.24185 7.4787962 7.4787962 0 0 0 7.46658-7.13277 7.4787962 7.4787962 0 0 1 0.0114 0.23607 7.4787962 7.4787962 0 0 1-7.47792 7.47837z" display="block" overflow="visible" style="display:block;fill-opacity:.597;fill:#ffffff;paint-order:fill markers stroke"/>
   <path d="m49.008422 277.16479v2.18179h-2.1818v0.87273h2.1818v2.18181h0.87272v-2.18181h2.18181v-0.87273h-2.18181v-2.18179z" display="block" overflow="visible" style="display:block;fill-opacity:.29300005;fill:#ffffff;paint-order:fill markers stroke"/>
   <path d="m56.356888 293.52052v0.52658l1.721342-0.52658z" style="fill:#ffffff"/>
  </g>
  <path transform="matrix(.13229166 0 0 .13229166 -4.8767956 261.66012)" d="M 361.9375,-212 C 507.2348,-212 528,-191.28677 528,-46.125 V 70.125 C 528,215.28618 507.2348,236 361.9375,236 H 214.0625 C 68.7652,236 48,215.28618 48,70.125 V -46.125 C 48,-191.28677 68.7652,-212 214.0625,-212 Z" clip-path="url(#clipPath1082-3-367)" style="fill:none;opacity:.5;stroke-linecap:round;stroke-linejoin:round;stroke-width:8;stroke:url(#linearGradient1108)"/>
 </g>
</svg>
