<svg xmlns="http://www.w3.org/2000/svg" xmlns:xlink="http://www.w3.org/1999/xlink" width="256" height="256" version="1.1" viewBox="0 0 67.73 67.73">
 <defs>
  <filter style="color-interpolation-filters:sRGB" id="filter1132" width="1.046" height="1.05" x="-.02" y="-.03">
   <feGaussianBlur stdDeviation="2.32"/>
  </filter>
  <filter style="color-interpolation-filters:sRGB" id="filter4569" width="1.023" height="1.025" x="-.01" y="-.01">
   <feGaussianBlur stdDeviation="1.16"/>
  </filter>
  <linearGradient id="f" x1="181.918" x2="170.052" y1="190.647" y2="165.317" gradientTransform="matrix(0.58181358,0,0,0.58181358,-54.409208,175.2718)" gradientUnits="userSpaceOnUse" xlink:href="#c"/>
  <linearGradient id="c">
   <stop offset="0" stop-color="#5299dc"/>
   <stop offset="1" stop-color="#287bc8"/>
  </linearGradient>
  <linearGradient id="e" x1="155.098" x2="197.653" y1="157.153" y2="195.477" gradientTransform="matrix(0.58181358,0,0,0.58181358,-54.409208,175.2718)" gradientUnits="userSpaceOnUse" xlink:href="#b"/>
  <linearGradient id="b">
   <stop offset="0" stop-color="#ebebeb"/>
   <stop offset="1" stop-color="#a0afbe"/>
  </linearGradient>
  <filter style="color-interpolation-filters:sRGB" id="filter2408" width="1.096" height="1.096" x="-.05" y="-.05">
   <feGaussianBlur stdDeviation=".582"/>
  </filter>
  <linearGradient id="linearGradient1108" x1="296" x2="296" y1="-212" y2="236" gradientUnits="userSpaceOnUse" xlink:href="#linearGradient1013"/>
  <linearGradient id="linearGradient1013">
   <stop offset="0" style="stop-color:#ffffff"/>
   <stop style="stop-color:#ffffff;stop-opacity:0.09803922" offset=".125"/>
   <stop style="stop-color:#000000;stop-opacity:0.09803922" offset=".925"/>
   <stop offset="1" style="stop-color:#000000;stop-opacity:0.49803922"/>
  </linearGradient>
  <clipPath id="clipPath1082-3-367" clipPathUnits="userSpaceOnUse">
   <path d="M 361.9375,-212 C 507.2348,-212 528,-191.28677 528,-46.125 V 70.125 C 528,215.28618 507.2348,236 361.9375,236 H 214.0625 C 68.7652,236 48,215.28618 48,70.125 V -46.125 C 48,-191.28677 68.7652,-212 214.0625,-212 Z" style="fill:#8c59d9"/>
  </clipPath>
 </defs>
 <g transform="translate(0,-229.26666)">
  <path d="m 188.96876,43.999995 c 72.64865,0 83.03125,10.356615 83.03125,82.937505 v 58.125 c 0,72.58059 -10.3826,82.9375 -83.03125,82.9375 h -73.9375 C 42.382606,268 32.000006,257.64309 32.000006,185.0625 v -58.125 c 0,-72.58089 10.3826,-82.937505 83.031254,-82.937505 z" transform="matrix(0.26458334,0,0,0.26458334,-6.9934686,221.97262)" style="opacity:0.1;filter:url(#filter4569)"/>
  <path style="opacity:0.2;filter:url(#filter1132)" d="m 188.96876,45.999995 c 72.64865,0 83.03125,10.356615 83.03125,82.937505 v 58.125 c 0,72.58059 -10.3826,82.9375 -83.03125,82.9375 h -73.9375 C 42.382606,270 32.000006,259.64309 32.000006,187.0625 v -58.125 c 0,-72.58089 10.3826,-82.937505 83.031254,-82.937505 z" transform="matrix(0.26458334,0,0,0.26458334,-6.9934686,221.97262)"/>
  <g transform="matrix(0.98100005,0,0,0.98100005,0.51848609,3.3925879)">
   <path style="fill:#0b3b86" d="m 81.666016,12.154297 c -5.600055,0.08292 -11.435543,0.10791 -16.25,0.390625 -3.688381,0.216589 -7.155044,0.499672 -10.41211,0.863281 -2.37261,0.264871 -4.514341,0.623791 -6.669922,0.978516 v 19.947265 h 33.332032 z" transform="matrix(0.26458333,0,0,0.26458333,-0.5285281,231.51965)"/>
   <path style="fill:#0d47a0" d="M 115,11.947266 H 90.314453 c -3.215388,0 -5.668031,0.162899 -8.648437,0.207031 V 34.333984 H 115 Z" transform="matrix(0.26458333,0,0,0.26458333,-0.5285281,231.51965)"/>
   <path style="fill:#1564be" d="M 148.33398,11.947266 H 115 v 22.386718 h 33.33398 z" transform="matrix(0.26458333,0,0,0.26458333,-0.5285281,231.51965)"/>
   <path style="fill:#1976d1" d="m 181.66602,12.330078 c -5.15159,-0.163207 -10.03912,-0.382812 -15.98047,-0.382812 h -17.35157 v 22.386718 h 33.33204 z" transform="matrix(0.26458333,0,0,0.26458333,-0.5285281,231.51965)"/>
   <path style="fill:#1e86e2" d="m 215,15.908203 c -1.59058,-0.397412 -3.11504,-0.830306 -4.84766,-1.15625 -2.85157,-0.536445 -5.89918,-0.980141 -9.15625,-1.34375 -3.25706,-0.363609 -6.72373,-0.646692 -10.41211,-0.863281 -2.64216,-0.155154 -6.04309,-0.123765 -8.91796,-0.214844 V 34.333984 H 215 Z" transform="matrix(0.26458333,0,0,0.26458333,-0.5285281,231.51965)"/>
   <path style="fill:#2195f2" d="m 241.42578,34.269531 c -0.53604,-0.962259 -1.00856,-2.006852 -1.60742,-2.890625 -1.21149,-1.787872 -2.55511,-3.418343 -4.04297,-4.904297 -1.48786,-1.485953 -3.1201,-2.827257 -4.91016,-4.037109 -1.79005,-1.209852 -3.73739,-2.288481 -5.85546,-3.248047 -2.11807,-0.959566 -4.407,-1.800059 -6.87891,-2.535156 C 217.16088,16.365845 216.02723,16.164859 215,15.908203 v 18.425781 h 25.64062 c 0.33289,-0.0068 0.47639,-0.05268 0.78516,-0.06445 z" transform="matrix(0.26458333,0,0,0.26458333,-0.5285281,231.51965)"/>
   <path style="fill:#07275a" d="m 48.333984,14.386719 c -0.803552,0.132233 -1.711983,0.219563 -2.486328,0.365234 -2.851576,0.536445 -5.506605,1.167247 -7.978515,1.902344 -2.471911,0.735097 -4.760837,1.57559 -6.878907,2.535156 -2.118069,0.959566 -4.065415,2.038195 -5.855468,3.248047 -1.790053,1.209852 -3.422296,2.551156 -4.910157,4.037109 -1.48786,1.485954 -2.831476,3.116425 -4.042968,4.904297 -0.44024,0.649689 -1.236509,2.263198 -1.642579,2.955078 H 15 48.333984 Z" transform="matrix(0.26458333,0,0,0.26458333,-0.5285281,231.51965)"/>
   <rect style="fill:#0d47a0" width="8.819" height="8.819" x="12.26" y="240.6"/>
   <rect width="8.819" height="8.819" x="21.08" y="240.6" style="fill:#1564be"/>
   <rect style="fill:#1976d1" width="8.819" height="8.819" x="29.9" y="240.6"/>
   <rect width="8.819" height="8.819" x="38.72" y="240.6" style="fill:#1e86e2"/>
   <rect style="fill:#2195f2" width="8.819" height="8.819" x="47.54" y="240.6"/>
   <path style="fill:#41a1f0" d="m 248.33398,57.644531 c -0.26138,-1.885329 -0.49272,-3.839566 -0.82031,-5.576172 -0.53733,-2.848527 -1.16806,-5.501544 -1.90429,-7.970703 -0.73624,-2.469159 -1.57812,-4.755486 -2.53907,-6.871094 -0.47539,-1.046617 -1.07426,-1.927767 -1.60937,-2.892578 H 215 v 33.333985 h 33.33398 z" transform="matrix(0.26458333,0,0,0.26458333,-0.5285281,231.51965)"/>
   <rect width="8.819" height="8.819" x="3.44" y="240.6" style="fill:#0b3b86"/>
   <rect width="8.819" height="8.819" x="3.44" y="249.42" style="fill:#0d47a0"/>
   <rect style="fill:#1564be" width="8.819" height="8.819" x="12.26" y="249.42"/>
   <rect width="8.819" height="8.819" x="21.08" y="249.42" style="fill:#1976d1"/>
   <rect style="fill:#1e86e2" width="8.819" height="8.819" x="29.9" y="249.42"/>
   <rect width="8.819" height="8.819" x="38.72" y="249.42" style="fill:#2195f2"/>
   <rect style="fill:#41a1f0" width="8.819" height="8.819" x="47.54" y="249.42"/>
   <path style="fill:#0b3b86" d="M 6.6035156,67.666016 C 6.5010347,69.001859 6.357796,70.216094 6.2753906,71.615234 5.8413528,78.98466 5.6757812,87.241905 5.6757812,96.490234 V 101 H 15 V 67.666016 Z" transform="matrix(0.26458333,0,0,0.26458333,-0.5285281,231.51965)"/>
   <rect style="fill:#1564be" width="8.819" height="8.819" x="3.44" y="258.24"/>
   <rect width="8.819" height="8.819" x="12.26" y="258.24" style="fill:#1976d1"/>
   <rect style="fill:#1e86e2" width="8.819" height="8.819" x="21.08" y="258.24"/>
   <rect width="8.819" height="8.819" x="29.9" y="258.24" style="fill:#2195f2"/>
   <rect style="fill:#41a1f0" width="8.819" height="8.819" x="38.72" y="258.24"/>
   <rect width="8.819" height="8.819" x="47.54" y="258.24" style="fill:#63b4f4"/>
   <path style="fill:#0d47a0" d="m 5.6757812,101 v 33.33398 H 15 V 101 Z" transform="matrix(0.26458333,0,0,0.26458333,-0.5285281,231.51965)"/>
   <rect width="8.819" height="8.819" x="3.44" y="267.06" style="fill:#1976d1"/>
   <rect style="fill:#1e86e2" width="8.819" height="8.819" x="12.26" y="267.06"/>
   <rect width="8.819" height="8.819" x="21.08" y="267.06" style="fill:#2195f2"/>
   <rect style="fill:#41a1f0" width="8.819" height="8.819" x="29.9" y="267.06"/>
   <rect width="8.819" height="8.819" x="38.72" y="267.06" style="fill:#63b4f4"/>
   <rect style="fill:#8fc9f8" width="8.819" height="8.819" x="47.54" y="267.06"/>
   <path style="fill:#1564be" d="m 5.6757812,134.33398 v 21.40821 c 10e-8,4.43316 0.1997357,7.93474 0.2871094,11.92383 H 15 v -33.33204 z" transform="matrix(0.26458333,0,0,0.26458333,-0.5285281,231.51965)"/>
   <rect style="fill:#1e86e2" width="8.819" height="8.819" x="3.44" y="275.88"/>
   <rect width="8.819" height="8.819" x="12.26" y="275.88" style="fill:#2195f2"/>
   <rect style="fill:#41a1f0" width="8.819" height="8.819" x="21.08" y="275.88"/>
   <rect width="8.819" height="8.819" x="29.9" y="275.88" style="fill:#63b4f4"/>
   <rect style="fill:#8fc9f8" width="8.819" height="8.819" x="38.72" y="275.88"/>
   <rect width="8.819" height="8.819" x="47.54" y="275.88" style="fill:#badcf9"/>
   <path style="fill:#1976d1" d="m 5.9628906,167.66602 c 0.094902,4.33278 0.086518,9.11428 0.3125,12.95117 0.2170189,3.6847 0.5009695,7.14668 0.8652344,10.40039 0.3642649,3.2537 0.8083678,6.29796 1.3457031,9.14648 0.056346,0.2987 0.1408127,0.54154 0.1992188,0.83594 H 15 v -33.33398 z" transform="matrix(0.26458333,0,0,0.26458333,-0.5285281,231.51965)"/>
   <path style="fill:#2195f2" d="m 15,218.72852 c 0.40607,0.69188 0.741401,1.47531 1.181641,2.125 1.211492,1.78787 2.555108,3.41834 4.042968,4.90429 1.487861,1.48596 3.120104,2.82726 4.910157,4.03711 1.790053,1.20986 3.737399,2.28848 5.855468,3.24805 1.077066,0.48795 2.331125,0.86079 3.498047,1.28906 H 48.333984 V 201 H 15 Z" transform="matrix(0.26458333,0,0,0.26458333,-0.5285281,231.51965)"/>
   <rect style="fill:#41a1f0" width="8.819" height="8.819" x="12.26" y="284.7"/>
   <rect width="8.819" height="8.819" x="21.08" y="284.7" style="fill:#63b4f4"/>
   <rect style="fill:#8fc9f8" width="8.819" height="8.819" x="29.9" y="284.7"/>
   <rect width="8.819" height="8.819" x="38.72" y="284.7" style="fill:#badcf9"/>
   <rect style="fill:#d2e8fb" width="8.819" height="8.819" x="47.54" y="284.7"/>
   <path style="fill:#1e86e2" d="m 8.6855469,201 c 0.4985737,2.51313 1.0460507,4.92453 1.7050781,7.13477 0.73623,2.46915 1.578113,4.75548 2.539063,6.87109 0.727025,1.60061 1.592299,3.01261 2.460937,4.42383 L 15,201 Z" transform="matrix(0.26458333,0,0,0.26458333,-0.5285281,231.51965)"/>
   <path style="fill:#41a1f0" d="m 34.636719,234.38672 c 1.081929,0.39349 2.070847,0.84597 3.232422,1.1914 2.47191,0.73511 5.126939,1.3659 7.978515,1.90235 0.774345,0.14567 1.682776,0.233 2.486328,0.36523 v -3.51172 z" transform="matrix(0.26458333,0,0,0.26458333,-0.5285281,231.51965)"/>
   <path style="fill:#63b4f4" d="m 48.333984,237.8457 c 2.155581,0.35473 4.297312,0.71364 6.669922,0.97852 3.257066,0.36361 6.723729,0.64669 10.41211,0.86328 4.814457,0.28272 10.649945,0.3077 16.25,0.39062 v -5.74414 H 48.333984 Z" transform="matrix(0.26458333,0,0,0.26458333,-0.5285281,231.51965)"/>
   <path style="fill:#8fc9f8" d="m 81.666016,240.07812 c 2.980406,0.0441 5.433049,0.20704 8.648437,0.20704 H 115 v -5.95118 H 81.666016 Z" transform="matrix(0.26458333,0,0,0.26458333,-0.5285281,231.51965)"/>
   <path style="fill:#badcf9" d="m 115,240.28516 h 33.33398 v -5.95118 H 115 Z" transform="matrix(0.26458333,0,0,0.26458333,-0.5285281,231.51965)"/>
   <path style="fill:#d2e8fb" d="m 148.33398,240.28516 h 17.35157 c 5.94135,0 10.82888,-0.21961 15.98047,-0.38282 v -5.56836 h -33.33204 z" transform="matrix(0.26458333,0,0,0.26458333,-0.5285281,231.51965)"/>
   <path style="fill:#e0effa" d="m 181.66602,239.90234 c 2.87487,-0.0911 6.2758,-0.0597 8.91796,-0.21484 3.68838,-0.21659 7.15505,-0.49967 10.41211,-0.86328 3.25707,-0.36361 6.30468,-0.8073 9.15625,-1.34375 1.73262,-0.32595 3.25708,-0.75884 4.84766,-1.15625 v -1.99024 h -33.33398 z" transform="matrix(0.26458333,0,0,0.26458333,-0.5285281,231.51965)"/>
   <rect style="fill:#63b4f4" width="8.819" height="8.819" x="56.36" y="249.42"/>
   <rect width="8.819" height="8.819" x="56.36" y="258.24" style="fill:#8fc9f8"/>
   <path style="fill:#63b4f4" d="m 249.39648,67.666016 c -0.1674,-2.182172 -0.31116,-4.432944 -0.5371,-6.451172 -0.1422,-1.270085 -0.35803,-2.363166 -0.5254,-3.570313 v 10.021485 z" transform="matrix(0.26458333,0,0,0.26458333,-0.5285281,231.51965)"/>
   <path style="fill:#badcf9" d="M 250.32422,134.33398 V 101 h -1.99024 v 33.33398 z" transform="matrix(0.26458333,0,0,0.26458333,-0.5285281,231.51965)"/>
   <rect style="fill:#badcf9" width="8.819" height="8.819" x="56.36" y="267.06"/>
   <path style="fill:#d2e8fb" d="m 250.03711,167.66602 c 0.0874,-3.98909 0.28711,-7.49067 0.28711,-11.92383 v -21.40821 h -1.99024 v 33.33204 z" transform="matrix(0.26458333,0,0,0.26458333,-0.5285281,231.51965)"/>
   <path style="fill:#d2e8fb" d="m 247.33203,200.92188 c 0.0528,-0.26734 0.13055,-0.48695 0.18164,-0.75782 0.53734,-2.84852 0.98144,-5.89278 1.34571,-9.14648 0.36426,-3.25371 0.64821,-6.71569 0.86523,-10.40039 0.22598,-3.83689 0.2176,-8.61839 0.3125,-12.95117 H 215 v 33.25586 z" transform="matrix(0.26458333,0,0,0.26458333,-0.5285281,231.51965)"/>
   <path style="fill:#e0effa" d="m 221.50586,234.33398 c 1.16901,-0.42888 2.42506,-0.80225 3.50391,-1.29101 2.11807,-0.95957 4.06541,-2.03819 5.85546,-3.24805 1.79006,-1.20985 3.4223,-2.55115 4.91016,-4.03711 1.48786,-1.48595 2.83148,-3.11642 4.04297,-4.90429 1.21149,-1.78788 2.291,-3.73205 3.25195,-5.84766 0.96095,-2.11561 1.80283,-4.40194 2.53907,-6.87109 0.65902,-2.21024 1.2065,-4.62164 1.70507,-7.13477 H 215 v 33.33398 z" transform="matrix(0.26458333,0,0,0.26458333,-0.5285281,231.51965)"/>
   <path style="fill:#07275a" d="m 14.539062,34.333984 c -0.535114,0.964811 -1.133981,1.845961 -1.609374,2.892578 -0.96095,2.115608 -1.802833,4.401935 -2.539063,6.871094 -0.7362301,2.469159 -1.3669615,5.122176 -1.9042969,7.970703 -0.5373353,2.848527 -0.9814382,5.892773 -1.3457031,9.146485 -0.2259481,2.018228 -0.3697011,4.269 -0.5371094,6.451172 H 15 V 34.333984 Z" transform="matrix(0.26458333,0,0,0.26458333,-0.5285281,231.51965)"/>
   <path style="fill:#badcf9" d="m 250.32422,101.03516 v -4.544926 c 0,-9.248329 -0.16557,-17.505574 -0.59961,-24.875 -0.085,-1.44272 -0.23155,-2.696823 -0.33789,-4.072265 l -1.05274,0.123047 V 101 Z" transform="matrix(0.26458333,0,0,0.26458333,-0.5285281,231.51965)"/>
   <path style="display:block;opacity:0.3;paint-order:fill markers stroke;filter:url(#filter2408)" d="m 49.735402,264.87073 a 14.545231,14.545231 0 0 0 -0.47345,0.0175 c -0.0271,-0.003 -0.0506,-0.0165 -0.0786,-0.0165 h -13.39537 c -0.3216,0 -0.58036,0.25876 -0.58036,0.58035 v 13.62321 a 14.545231,14.545231 0 0 0 -0.0174,0.34036 14.545231,14.545231 0 0 0 14.54524,14.54566 14.545231,14.545231 0 0 0 14.54566,-14.54522 14.545231,14.545231 0 0 0 -14.54566,-14.54568 z" display="block" overflow="visible"/>
   <path d="m 49.735402,264.87073 a 14.545231,14.545231 0 0 0 -0.47345,0.0175 c -0.0271,-0.003 -0.0506,-0.0165 -0.0786,-0.0165 h -13.39537 c -0.3216,0 -0.58036,0.25876 -0.58036,0.58035 v 13.62321 a 14.545231,14.545231 0 0 0 -0.0174,0.34036 14.545231,14.545231 0 0 0 14.54524,14.54566 14.545231,14.545231 0 0 0 14.54566,-14.54522 14.545231,14.545231 0 0 0 -14.54566,-14.54568 z" display="block" overflow="visible" style="display:block;fill:url(#e);paint-order:fill markers stroke"/>
   <path d="m 57.214192,279.41641 a 7.4787962,7.4787962 0 0 1 -7.47879,7.47835 7.4787962,7.4787962 0 0 1 -7.47837,-7.47835 7.4787962,7.4787962 0 0 1 7.47837,-7.47923 7.4787962,7.4787962 0 0 1 7.47923,7.47923 z" display="block" overflow="visible" style="display:block;fill:url(#f);paint-order:fill markers stroke"/>
   <path d="m 49.735842,271.93805 a 7.4787962,7.4787962 0 0 0 -7.47837,7.47836 7.4787962,7.4787962 0 0 0 0.0114,0.34515 7.4787962,7.4787962 0 0 1 7.46702,-7.24184 7.4787962,7.4787962 0 0 1 7.46658,7.13276 7.4787962,7.4787962 0 0 0 0.0114,-0.23607 7.4787962,7.4787962 0 0 0 -7.47836,-7.47836 z" display="block" overflow="visible" style="display:block;fill-opacity:0.21499999;paint-order:fill markers stroke"/>
   <path style="display:block;fill:#ffffff;fill-opacity:0.597;paint-order:fill markers stroke" d="m 49.735842,287.4808 a 7.4787962,7.4787962 0 0 1 -7.47837,-7.47837 7.4787962,7.4787962 0 0 1 0.0114,-0.34515 7.4787962,7.4787962 0 0 0 7.46702,7.24185 7.4787962,7.4787962 0 0 0 7.46658,-7.13277 7.4787962,7.4787962 0 0 1 0.0114,0.23607 7.4787962,7.4787962 0 0 1 -7.47792,7.47837 z" display="block" overflow="visible"/>
   <path d="m 49.008422,277.16479 v 2.18179 h -2.1818 v 0.87273 h 2.1818 v 2.18181 h 0.87272 v -2.18181 h 2.18181 v -0.87273 h -2.18181 v -2.18179 z" display="block" overflow="visible" style="display:block;fill:#ffffff;fill-opacity:0.29300005;paint-order:fill markers stroke"/>
   <path style="fill:#ffffff" d="m 56.356888,293.52052 v 0.52658 l 1.721342,-0.52658 z"/>
  </g>
  <path d="M 361.9375,-212 C 507.2348,-212 528,-191.28677 528,-46.125 V 70.125 C 528,215.28618 507.2348,236 361.9375,236 H 214.0625 C 68.7652,236 48,215.28618 48,70.125 V -46.125 C 48,-191.28677 68.7652,-212 214.0625,-212 Z" clip-path="url(#clipPath1082-3-367)" transform="matrix(0.13229166,0,0,0.13229166,-4.8767956,261.66012)" style="opacity:0.5;fill:none;stroke:url(#linearGradient1108);stroke-width:8;stroke-linecap:round;stroke-linejoin:round"/>
 </g>
</svg>
