<svg xmlns="http://www.w3.org/2000/svg" xmlns:xlink="http://www.w3.org/1999/xlink" width="256" height="256" version="1.1" viewBox="0 0 67.73 67.73">
 <defs>
  <filter style="color-interpolation-filters:sRGB" id="filter913" width="1.046" height="1.05" x="-.02" y="-.03">
   <feGaussianBlur stdDeviation="2.32"/>
  </filter>
  <filter style="color-interpolation-filters:sRGB" id="filter4569" width="1.023" height="1.025" x="-.01" y="-.01">
   <feGaussianBlur stdDeviation="1.16"/>
  </filter>
  <linearGradient id="linearGradient1108" x1="296" x2="296" y1="-212" y2="236" gradientUnits="userSpaceOnUse" xlink:href="#linearGradient1013"/>
  <linearGradient id="linearGradient1013">
   <stop offset="0" style="stop-color:#ffffff"/>
   <stop style="stop-color:#ffffff;stop-opacity:0.09803922" offset=".125"/>
   <stop style="stop-color:#000000;stop-opacity:0.09803922" offset=".925"/>
   <stop offset="1" style="stop-color:#000000;stop-opacity:0.49803922"/>
  </linearGradient>
  <clipPath id="clipPath1082-3-2" clipPathUnits="userSpaceOnUse">
   <path d="M 361.9375,-212 C 507.2348,-212 528,-191.28677 528,-46.125 V 70.125 C 528,215.28618 507.2348,236 361.9375,236 H 214.0625 C 68.7652,236 48,215.28618 48,70.125 V -46.125 C 48,-191.28677 68.7652,-212 214.0625,-212 Z" style="fill:#8c59d9"/>
  </clipPath>
 </defs>
 <g transform="translate(0,-229.26666)">
  <path style="opacity:0.2;filter:url(#filter913)" d="m 162.53675,5.5680003 c 72.64865,0 83.03125,10.3566147 83.03125,82.9375047 v 58.125005 c 0,72.58059 -10.3826,82.9375 -83.03125,82.9375 H 88.599254 c -72.648654,0 -83.0312541,-10.35691 -83.0312541,-82.9375 V 88.505505 c 0,-72.58089 10.3826001,-82.9375047 83.0312541,-82.9375047 z" transform="matrix(0.26458333,0,0,0.26458333,0,232.67026)"/>
  <path d="m 162.53675,3.5680003 c 72.64865,0 83.03125,10.3566147 83.03125,82.9375047 v 58.125005 c 0,72.58059 -10.3826,82.9375 -83.03125,82.9375 H 88.599254 c -72.648654,0 -83.0312541,-10.35691 -83.0312541,-82.9375 V 86.505505 c 0,-72.58089 10.3826001,-82.9375047 83.0312541,-82.9375047 z" transform="matrix(0.26458333,0,0,0.26458333,0,232.67026)" style="opacity:0.1;filter:url(#filter4569)"/>
  <path style="fill:#4d4d4d" d="m 23.355584,233.61429 c -9.611188,0 -15.101641,0.68375 -18.19217,3.77032 -3.090525,3.08656 -3.776514,8.57135 -3.776514,18.17356 v 15.3789 c 0,9.60219 0.68599,15.08701 3.776514,18.17357 3.090528,3.08659 8.580982,3.77031 18.19217,3.77031 h 19.562629 c 9.611191,0 15.101645,-0.68372 18.192171,-3.77031 3.090527,-3.08656 3.776514,-8.57138 3.776514,-18.17357 v -15.3789 c 0,-9.60221 -0.685987,-15.087 -3.776514,-18.17356 -3.090526,-3.08657 -8.580983,-3.77032 -18.192171,-3.77032 z"/>
  <path style="opacity:0.2;fill:#131313" d="m 1.473198,270.40792 v 0.52915 c 0,9.60219 0.68599,15.08701 3.776514,18.17357 3.090529,3.08659 8.580982,3.77031 18.19217,3.77031 h 19.562631 c 9.61119,0 15.101644,-0.68372 18.19217,-3.77031 3.090527,-3.08656 3.776515,-8.57138 3.776515,-18.17357 v -0.52915 c 0,9.60217 -0.685988,15.08698 -3.776515,18.17356 -3.090526,3.08657 -8.58098,3.77032 -18.19217,3.77032 H 23.441882 c -9.611188,0 -15.101641,-0.68375 -18.19217,-3.77032 -3.090524,-3.08658 -3.776514,-8.57139 -3.776514,-18.17356 z"/>
  <path style="fill:#97e40c" d="m 29.743405,233.5909 0.0088,1.86965 v 15.60577 c 0.297894,-0.0228 0.582589,-0.0246 0.882116,-0.0346 11.537005,-0.38884 19.06602,9.44645 19.06602,9.44645 0,0 -8.635137,10.50168 -17.629931,10.50168 -0.824362,0 -1.593347,-0.0963 -2.318205,-0.22479 v 2.83704 c 0.61985,0.0787 1.26724,0.12144 1.937867,0.12144 8.370247,0 14.398458,-4.30085 20.259743,-9.36016 0.971778,0.77828 4.960617,2.70067 5.77846,3.52951 -5.572984,4.6658 -18.553884,8.39121 -25.917281,8.39121 -0.709771,0 -1.388779,-0.0219 -2.058789,-0.0863 v 16.2972 l 0.0057,0.37207 h 13.218832 c 2.402697,0 4.547457,-0.0433 6.462138,-0.15555 1.914682,-0.11236 3.59899,-0.29461 5.079275,-0.57309 1.480289,-0.27847 2.757096,-0.65373 3.856615,-1.15187 0.549756,-0.24906 1.054669,-0.5283 1.519285,-0.84232 0.464621,-0.31403 0.888682,-0.66233 1.274858,-1.048 0.386191,-0.38569 0.734581,-0.80975 1.049033,-1.27382 0.314444,-0.46405 0.594968,-0.96761 0.844391,-1.51671 0.498835,-1.09824 0.873961,-2.3743 1.152901,-3.85299 0.278939,-1.47867 0.461462,-3.16083 0.574127,-5.07359 0.112657,-1.91275 0.155546,-4.05603 0.155546,-6.45646 v -15.37841 c 0,-2.40043 -0.04292,-4.54419 -0.155546,-6.45697 -0.112665,-1.91276 -0.295188,-3.59438 -0.574127,-5.07307 -0.27894,-1.47869 -0.654066,-2.75372 -1.152901,-3.85196 -0.249423,-0.54911 -0.529947,-1.05421 -0.844391,-1.51826 -0.314452,-0.46404 -0.662842,-0.8871 -1.049033,-1.27279 -0.386176,-0.38568 -0.810237,-0.73449 -1.274858,-1.04851 -0.464616,-0.31402 -0.969529,-0.59327 -1.519285,-0.84233 -1.099519,-0.49812 -2.376326,-0.8734 -3.856615,-1.15186 -1.480285,-0.27847 -3.164593,-0.46067 -5.079275,-0.5731 -1.914681,-0.11236 -4.059441,-0.15451 -6.462138,-0.15451 z m 0.0088,40.00118 c -10.243271,-1.28863 -13.771769,-12.5951 -13.771769,-12.5951 0,0 4.609978,-6.75651 13.771769,-7.45691 v -2.47375 c -10.147847,0.81498 -18.927527,9.41183 -18.927527,9.41183 0,0 4.969215,14.39174 18.927527,15.70912 z m 1.65158,-20.12332 c -0.253604,-0.006 -0.509689,-0.006 -0.768946,0.002 -0.303398,0.0105 -0.587795,0.0491 -0.882634,0.0698 v 3.01015 c 0.54278,-0.0582 1.100804,-0.087 1.678451,-0.0868 5.314214,0 8.477517,4.15272 8.477517,4.15272 l -4.325316,3.6158 c -1.941735,-3.23688 -2.600891,-4.66162 -5.830652,-5.05189 v 9.20409 c 0.731996,0.24611 1.532496,0.38034 2.439644,0.38034 6.303327,0 12.180136,-8.14834 12.180136,-8.14834 0,0 -5.106546,-6.95039 -12.9682,-7.14788 z m -1.65158,14.91588 c -4.364457,-1.46644 -5.778459,-6.57479 -5.778459,-6.57479 0,0 2.5383,-3.01812 5.778459,-2.6293 v -2.62981 c -6.173447,0.66777 -9.896037,4.79247 -9.896037,4.79247 0,0 2.154402,8.03113 9.896037,9.41131 z"/>
  <path d="M 361.9375,-212 C 507.2348,-212 528,-191.28677 528,-46.125 V 70.125 C 528,215.28618 507.2348,236 361.9375,236 H 214.0625 C 68.7652,236 48,215.28618 48,70.125 V -46.125 C 48,-191.28677 68.7652,-212 214.0625,-212 Z" clip-path="url(#clipPath1082-3-2)" transform="matrix(0.13229167,0,0,0.13229167,-4.876802,261.66013)" style="opacity:0.4;fill:none;stroke:url(#linearGradient1108);stroke-width:8;stroke-linecap:round;stroke-linejoin:round"/>
 </g>
</svg>
