<svg width="256" height="256" version="1.1" viewBox="0 0 67.73 67.73" xmlns="http://www.w3.org/2000/svg" xmlns:xlink="http://www.w3.org/1999/xlink">
 <defs>
  <clipPath id="clipPath1082-3-535">
   <path d="M 361.9375,-212 C 507.2348,-212 528,-191.28677 528,-46.125 V 70.125 C 528,215.28618 507.2348,236 361.9375,236 H 214.0625 C 68.7652,236 48,215.28618 48,70.125 V -46.125 C 48,-191.28677 68.7652,-212 214.0625,-212 Z" style="fill:#8c59d9"/>
  </clipPath>
  <filter id="filter920-7" x="-.02" y="-.03" width="1.046" height="1.05" style="color-interpolation-filters:sRGB">
   <feGaussianBlur stdDeviation="2.32"/>
  </filter>
  <filter id="filter4569-9" x="-.01" y="-.01" width="1.023" height="1.025" style="color-interpolation-filters:sRGB">
   <feGaussianBlur stdDeviation="1.16"/>
  </filter>
  <linearGradient id="linearGradient947" x1="296" x2="296" y1="-212" y2="202.4" gradientTransform="translate(-2e-6,-2e-6)" gradientUnits="userSpaceOnUse">
   <stop style="stop-color:#ffffff" offset="0"/>
   <stop style="stop-color:#ffffff;stop-opacity:.09803922" offset=".135"/>
   <stop style="stop-color:#000000;stop-opacity:0" offset="1"/>
  </linearGradient>
  <linearGradient id="linearGradient5163" x1="167.61" x2="346.51" y1="772.97" y2="951.87" gradientTransform="matrix(.24999978 0 0 .24999978 -214.53362 33.60622)" gradientUnits="userSpaceOnUse">
   <stop style="stop-color:#fff;stop-opacity:.4" offset="0"/>
   <stop style="stop-color:#fff;stop-opacity:.6" offset="1"/>
  </linearGradient>
  <filter id="filter4520" x="-.06" y="-.06" width="1.12" height="1.12" style="color-interpolation-filters:sRGB">
   <feGaussianBlur stdDeviation="1.2"/>
  </filter>
  <linearGradient id="linearGradient1616" x1="175.59" x2="175.59" y1="822.553" y2="881.22" gradientTransform="matrix(.27272726 0 0 .27272726 16.111825 15.667282)" gradientUnits="userSpaceOnUse">
   <stop style="stop-color:#f2f2f2" offset="0"/>
   <stop style="stop-color:#808080;stop-opacity:.8" offset="1"/>
  </linearGradient>
 </defs>
 <g transform="translate(0,-229.26666)">
  <path transform="matrix(.26458333 0 0 .26458333 -1.8735226e-8 232.67026)" d="m162.53675 3.5680001c72.64865 0 83.03125 10.356615 83.03125 82.937505v58.125005c0 72.58059-10.3826 82.9375-83.03125 82.9375h-73.937496c-72.648654 0-83.031254-10.35691-83.031254-82.9375v-58.125005c0-72.58089 10.3826-82.937505 83.031254-82.937505z" style="filter:url(#filter4569-9);opacity:.1"/>
  <path transform="matrix(.26458333 0 0 .26458333 -1.8735226e-8 232.67026)" d="m162.53675 5.5680001c72.64865 0 83.03125 10.356615 83.03125 82.937505v58.125005c0 72.58059-10.3826 82.9375-83.03125 82.9375h-73.937496c-72.648654 0-83.031254-10.35691-83.031254-82.9375v-58.125005c0-72.58089 10.3826-82.937505 83.031254-82.937505z" style="filter:url(#filter920-7);opacity:.2"/>
  <path d="m43.004526 233.6143c19.22162 0 21.96868 2.74019 21.968683 21.94388v15.37891c0 19.20361-2.747066 21.94388-21.968683 21.94388h-19.562634c-19.221622 0-21.968682-2.74027-21.968682-21.94388v-15.37891c0-19.20369 2.74706-21.94388 21.968685-21.94388z" style="fill:#2d2838"/>
  <path transform="matrix(.13229167 0 0 .13229167 -4.8768 261.66013)" d="M 361.9375,-212 C 507.2348,-212 528,-191.28677 528,-46.125 V 70.125 C 528,215.28618 507.2348,236 361.9375,236 H 214.0625 C 68.7652,236 48,215.28618 48,70.125 V -46.125 C 48,-191.28677 68.7652,-212 214.0625,-212 Z" clip-path="url(#clipPath1082-3-535)" style="fill:none;opacity:.4;stroke-linecap:round;stroke-linejoin:round;stroke-width:8;stroke:url(#linearGradient947)"/>
  <g transform="matrix(.66145833 0 0 .66145833 -5.7522445 105.07905)" style="enable-background:new">
   <g style="display:none">
    <rect y="172" width="128" height="128" style="fill:#f0f0f0"/>
    <rect x="160" y="172" width="16" height="16" style="fill:#f0f0f0"/>
    <text y="164" style="font-family:Cantarell;font-size:4px;font-weight:bold;line-height:125%" xml:space="preserve">
     <tspan x="0" y="164" style="font-size:4px">Hicolor</tspan>
    </text>
    <text x="160" y="164" style="font-family:Cantarell;font-size:4px;font-weight:bold;line-height:125%" xml:space="preserve">
     <tspan x="160" y="164" style="font-size:4px">Symbolic</tspan>
    </text>
   </g>
   <g style="display:none">
    <circle cx="64" cy="236" r="59.504" style="fill:none;opacity:.1;stroke-dasharray:0.99000001, 0.99000001;stroke-width:.99000001;stroke:#000000"/>
    <rect x="20.5" y="180.5" width="87.01" height="111.01" rx="8.701" ry="7.929" style="fill:none;opacity:.1;stroke-dasharray:0.99000001, 0.99000001;stroke-width:.99000001;stroke:#000000"/>
    <rect x="12.49" y="184.5" width="103.01" height="103.01" rx="7.924" ry="7.924" style="fill:none;opacity:.1;stroke-dasharray:0.99000001, 0.99000001;stroke-width:.99000001;stroke:#000000"/>
    <rect x="8.49" y="200.5" width="111.01" height="87.01" rx="7.929" ry="8.701" style="fill:none;opacity:.1;stroke-dasharray:0.99000001, 0.99000001;stroke-width:.99000001;stroke:#000000"/>
    <path d="m2.6203015e-5 288.99999h128" style="fill:none;stroke-width:2;stroke:#62a0ea"/>
   </g>
   <g transform="translate(-5.0764875,-10.878188)">
    <circle cx="-150.534" cy="248.946" r="0" style="fill:none;stroke-width:.49999955;stroke:url(#linearGradient5163)"/>
    <g transform="translate(-4.7474225e-6,-3)" style="enable-background:new">
     <path transform="matrix(.24993183 0 0 .24993183 -67.725837 -48.782593)" d="m527.04 1123.5-24 48h48z" style="fill-opacity:.4;fill-rule:evenodd;fill:#1a1a1a;filter:url(#filter4520)"/>
     <path d="m64.000005 231-6 12h12z" style="fill-rule:evenodd;fill:#ed333b"/>
     <path d="m63.998369 231.00327-5.998364 11.99673h5.998364z" style="fill-opacity:.37344402;fill-rule:evenodd;fill:#ffffff"/>
    </g>
    <circle cx="64" cy="252" r="12" style="opacity:.2"/>
    <circle cx="64" cy="250" r="12" style="fill:url(#linearGradient1616)"/>
    <circle transform="scale(1,-1)" cx="64" cy="-249" r="11" style="fill:#cccccc"/>
    <g transform="matrix(1,0,0,-1,0,500.00001)" style="enable-background:new;stroke:#f6f5f4">
     <path d="M 64,216.00001 V 222" style="fill:none;stroke-width:2;stroke:#f6f5f4"/>
     <path d="M 64,278.00001 V 284" style="fill:none;stroke-width:2;stroke:#f6f5f4"/>
     <path d="M 97.99999,250 H 92" style="fill:none;stroke-width:2;stroke:#f6f5f4"/>
     <path d="M 35.99999,250 H 30" style="fill:none;stroke-width:2;stroke:#f6f5f4"/>
     <path d="m39.958375 225.95837 4.242634 4.24264" style="fill:none;stroke-width:2;stroke:#f6f5f4"/>
     <path d="m83.798995 269.79899 4.242634 4.24264" style="fill:none;stroke-width:2;stroke:#f6f5f4"/>
     <path d="m88.041622 225.95837-4.242634 4.24264" style="fill:none;stroke-width:2;stroke:#f6f5f4"/>
     <path d="m44.201002 269.79899-4.242634 4.24264" style="fill:none;stroke-width:2;stroke:#f6f5f4"/>
    </g>
    <g style="enable-background:new;opacity:.2;stroke:#ffffff">
     <path d="m57.366929 283.3467 0.780359-3.92313" style="fill:none;stroke:#ffffff"/>
     <path d="m69.85271 220.57644 0.780359-3.92313" style="fill:none;stroke:#ffffff"/>
     <path d="m97.346688 256.63308-3.923132-0.78036" style="fill:none;stroke:#ffffff"/>
     <path d="m34.57643 244.1473-3.923132-0.78036" style="fill:none;stroke:#ffffff"/>
     <path d="m35.730037 268.8894 3.325872-2.22229" style="fill:none;stroke:#ffffff"/>
     <path d="m88.944091 233.33291 3.325872-2.22229" style="fill:none;stroke:#ffffff"/>
     <path d="m82.889378 278.26998-2.222274-3.32588" style="fill:none;stroke:#ffffff"/>
     <path d="m47.332882 225.05592-2.222273-3.32588" style="fill:none;stroke:#ffffff"/>
     <path d="m50.988763 281.41191 1.53073-3.69551" style="fill:none;stroke:#ffffff"/>
     <path d="m75.480503 222.28362 1.530729-3.69551" style="fill:none;stroke:#ffffff"/>
     <path d="m95.411891 263.01124-3.695509-1.53073" style="fill:none;stroke:#ffffff"/>
     <path d="m36.283601 238.5195-3.695509-1.53073" style="fill:none;stroke:#ffffff"/>
     <path d="m32.588097 263.01125 3.695513-1.53074" style="fill:none;stroke:#ffffff"/>
     <path d="m91.716386 238.51951 3.695512-1.53074" style="fill:none;stroke:#ffffff"/>
     <path d="m77.011225 281.41191-1.530726-3.69552" style="fill:none;stroke:#ffffff"/>
     <path d="m52.519484 222.28363-1.530727-3.69552" style="fill:none;stroke:#ffffff"/>
     <path d="m45.110611 278.26997 2.222276-3.32587" style="fill:none;stroke:#ffffff"/>
     <path d="m80.667106 225.05591 2.222276-3.32587" style="fill:none;stroke:#ffffff"/>
     <path d="m92.269952 268.88939-3.32587-2.22227" style="fill:none;stroke:#ffffff"/>
     <path d="m39.055897 233.3329-3.32587-2.22228" style="fill:none;stroke:#ffffff"/>
     <path d="m30.653299 256.63308 3.923137-0.78036" style="fill:none;stroke:#ffffff"/>
     <path d="m93.423555 244.14731 3.923137-0.78037" style="fill:none;stroke:#ffffff"/>
     <path d="m70.633058 283.34671-0.780354-3.92314" style="fill:none;stroke:#ffffff"/>
     <path d="m58.147275 220.57645-0.780354-3.92314" style="fill:none;stroke:#ffffff"/>
    </g>
   </g>
  </g>
 </g>
</svg>
