<svg width="256" height="256" version="1.1" viewBox="0 0 67.73 67.73" xmlns="http://www.w3.org/2000/svg" xmlns:xlink="http://www.w3.org/1999/xlink">
 <defs>
  <filter id="filter1132" x="-.02" y="-.03" width="1.046" height="1.05" style="color-interpolation-filters:sRGB">
   <feGaussianBlur stdDeviation="2.32"/>
  </filter>
  <filter id="filter4569" x="-.01" y="-.01" width="1.023" height="1.025" style="color-interpolation-filters:sRGB">
   <feGaussianBlur stdDeviation="1.16"/>
  </filter>
  <linearGradient id="linearGradient1108-7" x1="296" x2="296" y1="-212" y2="236" gradientUnits="userSpaceOnUse">
   <stop style="stop-color:#ffffff" offset="0"/>
   <stop style="stop-color:#ffffff;stop-opacity:.09803922" offset=".125"/>
   <stop style="stop-color:#000000;stop-opacity:.09803922" offset=".925"/>
   <stop style="stop-color:#000000;stop-opacity:.49803922" offset="1"/>
  </linearGradient>
  <clipPath id="clipPath1082-3-93">
   <path d="M 361.9375,-212 C 507.2348,-212 528,-191.28677 528,-46.125 V 70.125 C 528,215.28618 507.2348,236 361.9375,236 H 214.0625 C 68.7652,236 48,215.28618 48,70.125 V -46.125 C 48,-191.28677 68.7652,-212 214.0625,-212 Z" style="fill:#8c59d9"/>
  </clipPath>
 </defs>
 <g transform="translate(0,-229.26666)">
  <path d="m43.837425 232.42763c19.593907 0 22.394175 2.79326 22.394175 22.36889v15.67677c0 19.57555-2.800268 22.36888-22.394175 22.36888h-19.94152c-19.593906 0-22.394174-2.79333-22.394174-22.36888v-15.67677c0-19.57563 2.8002681-22.36889 22.394174-22.36889z" style="fill:none;opacity:.115;stroke-linecap:round;stroke-linejoin:round;stroke-width:1.0788312;stroke:#000000"/>
  <path transform="matrix(.26970778 0 0 .26970778 -7.1289177 220.56049)" d="m188.96876 43.999995c72.64865 0 83.03125 10.356615 83.03125 82.937505v58.125c0 72.58059-10.3826 82.9375-83.03125 82.9375h-73.9375c-72.648654 0-83.031254-10.35691-83.031254-82.9375v-58.125c0-72.58089 10.3826-82.937505 83.031254-82.937505z" style="filter:url(#filter4569);opacity:.1"/>
  <path transform="matrix(.26970778 0 0 .26970778 -7.1289177 220.56049)" d="m188.96876 45.999995c72.64865 0 83.03125 10.356615 83.03125 82.937505v58.125c0 72.58059-10.3826 82.9375-83.03125 82.9375h-73.9375c-72.648654 0-83.031254-10.35691-83.031254-82.9375v-58.125c0-72.58089 10.3826-82.937505 83.031254-82.937505z" style="filter:url(#filter1132);opacity:.2"/>
  <path d="m0.9525 262.56205v7.96544c0 19.89285 2.846163 22.73147 22.761203 22.73147h20.268349c19.91504 0 22.761202-2.83862 22.761202-22.73147v-7.96544z" style="fill:#ffffff;opacity:.25"/>
  <path d="m34.339496 293.25889h9.631198c2.486392 0 4.706268-0.0442 6.687644-0.16069 0.990687-0.0582 1.921825-0.13436 2.796662-0.23212 0.874839-0.0978 1.693417-0.21706 2.459341-0.36129 0.765925-0.14424 1.479058-0.31385 2.143006-0.51149 0.663948-0.19765 1.278747-0.42364 1.847655-0.68163 0.568907-0.25801 1.091957-0.54801 1.572758-0.87331 0.480805-0.3253 0.919221-0.68593 1.318856-1.08546 0.399633-0.39954 0.760526-0.83793 1.085928-1.31864 0.325403-0.48071 0.615357-1.00344 0.873465-1.57227 0.258107-0.56883 0.484235-1.18356 0.681986-1.84745 0.19775-0.66388 0.367161-1.3772 0.511487-2.14309 0.144327-0.7659 0.263612-1.58441 0.361452-2.45924s0.174108-1.80566 0.232399-2.79637c0.116583-1.98143 0.161055-4.20159 0.161055-6.68819v-15.9312c0-2.48661-0.04448-4.70675-0.161055-6.68819-0.05829-0.99071-0.134558-1.92154-0.232399-2.79637-0.09784-0.87484-0.217125-1.69334-0.361452-2.45924-0.144326-0.76589-0.313737-1.4792-0.511487-2.14309-0.197751-0.66389-0.423879-1.27862-0.681986-1.84745-0.258108-0.56882-0.548062-1.09156-0.873465-1.57227-0.325402-0.48071-0.686295-0.9191-1.085928-1.31863-0.399635-0.39954-0.838051-0.76017-1.318856-1.08547-0.480801-0.3253-1.003851-0.6153-1.572758-0.87331-0.568908-0.25799-1.183707-0.48398-1.847655-0.68163-0.663948-0.19764-1.377081-0.36725-2.143006-0.51149-0.765924-0.14423-1.584502-0.26353-2.459341-0.36129-0.874837-0.0978-1.805975-0.17387-2.796662-0.23211-1.981376-0.11647-4.201252-0.1607-6.687644-0.1607h-9.631198z" style="fill:#ffffff;opacity:.25"/>
  <g transform="matrix(1.0204081 0 0 1.0204054 -.69114916 -6.8543267)">
   <path transform="matrix(.25929168 0 0 .25929237 .67732622 231.39919)" d="m145.85742 11.947266h-35.71484v26.767578h35.71484v-26.767578z" style="fill:#e4e4e4"/>
   <path transform="matrix(.25929168 0 0 .25929237 .67732622 231.39919)" d="m181.57227 12.328125c-5.12581-0.16114-9.98022-0.380859-15.88672-0.380859h-19.82813v26.767578h35.71485v-26.386719z" style="fill:#a0a0a0"/>
   <path transform="matrix(.25929168 0 0 .25929237 .67732622 231.39919)" d="m110.14258 11.947266h-19.828127c-5.906502 0-10.760908 0.219719-15.886719 0.380859v26.386719h35.714846v-26.767578z" style="fill:#a0a0a0"/>
   <path transform="matrix(.25929168 0 0 .25929237 .67732622 231.39919)" d="m74.427734 12.328125c-2.907614 0.091406-6.341777 0.060012-9.011718 0.216797-3.688381 0.216589-7.155044 0.499672-10.41211 0.863281s-6.304674 0.807305-9.15625 1.34375c-2.549354 0.47959-4.888005 1.0639-7.132812 1.701172v22.261719h35.71289v-26.386719z" style="fill:#e4e4e4"/>
   <path transform="matrix(.25929168 0 0 .25929237 .67732622 231.39919)" d="m38.714844 16.453125c-0.266119 0.075548-0.58372 0.123263-0.845703 0.201172-2.471911 0.735097-4.760837 1.57559-6.878907 2.535156-2.118069 0.959566-4.065415 2.038195-5.855468 3.248047s-3.422296 2.551156-4.910157 4.037109c-1.48786 1.485954-2.831476 3.116425-4.042968 4.904297-1.211493 1.787873-2.291004 3.732049-3.251953 5.847656-0.20818 0.458324-0.353624 1.01384-0.550782 1.488282h26.335938v-22.261719z" style="fill:#a0a0a0"/>
   <path transform="matrix(.25929168 0 0 .25929237 .67732622 231.39919)" d="m217.28516 16.453125c-2.24481-0.637272-4.58346-1.221582-7.13282-1.701172-2.85157-0.536445-5.89918-0.980141-9.15625-1.34375-3.25706-0.363609-6.72373-0.646692-10.41211-0.863281-2.66994-0.156785-6.1041-0.125391-9.01171-0.216797v26.386719h35.71289v-22.261719z" style="fill:#e4e4e4"/>
   <path transform="matrix(.25929168 0 0 .25929237 .67732622 231.39919)" d="m243.62109 38.714844c-0.19715-0.474442-0.3426-1.029958-0.55078-1.488282-0.96095-2.115607-2.04046-4.059783-3.25195-5.847656-1.21149-1.787872-2.55511-3.418343-4.04297-4.904297-1.48786-1.485953-3.1201-2.827257-4.91016-4.037109-1.79005-1.209852-3.73739-2.288481-5.85546-3.248047s-4.407-1.800059-6.87891-2.535156c-0.26198-0.077909-0.57959-0.125624-0.8457-0.201172v22.261719h26.33593z" style="fill:#a0a0a0"/>
   <rect x="19.98" y="241.44" width="9.26" height="9.26" style="fill:#e4e4e4"/>
   <rect x="29.24" y="241.44" width="9.26" height="9.26" style="fill:#363636"/>
   <rect x="10.72" y="241.44" width="9.26" height="9.26" style="fill:#f06826"/>
   <path transform="matrix(.25929168 0 0 .25929237 .67732622 231.39919)" d="m12.378906 38.714844c-0.712917 1.715568-1.411547 3.44857-1.988281 5.382812-0.7362301 2.469159-1.3669615 5.122176-1.9042969 7.970703-0.5373353 2.848527-0.9814382 5.892773-1.3457031 9.146485-0.3642649 3.253711-0.6482155 6.715678-0.8652344 10.40039-0.0490748 0.833231-0.0260044 1.956421-0.0683594 2.8125h32.507813v-35.71289h-26.335938z" style="fill:#e4e4e4"/>
   <path transform="matrix(.25929168 0 0 .25929237 .67732622 231.39919)" d="m249.79297 74.427734c-0.04236-0.856079-0.01929-1.979269-0.06836-2.8125-0.21702-3.684712-0.50097-7.146679-0.86523-10.40039-0.36427-3.253712-0.80837-6.297958-1.34571-9.146485-0.53733-2.848527-1.16806-5.501544-1.90429-7.970703-0.57674-1.934242-1.27537-3.667244-1.98829-5.382812h-26.33593v35.71289h32.50781z" style="fill:#e4e4e4"/>
   <rect x="38.5" y="241.44" width="9.26" height="9.26" style="fill:#e4e4e4"/>
   <rect x="47.76" y="241.44" width="9.26" height="9.26" style="fill:#880066"/>
   <rect x="29.24" y="250.7" width="9.26" height="9.26" style="fill:#e4e4e4"/>
   <rect x="38.5" y="250.7" width="9.26" height="9.26" style="fill:#f06826"/>
   <rect x="19.98" y="250.7" width="9.26" height="9.26" style="fill:#a0a0a0"/>
   <rect x="10.72" y="250.7" width="9.26" height="9.26" style="fill:#e4e4e4"/>
   <path transform="matrix(.25929168 0 0 .25929237 .67732622 231.39919)" d="m6.2070312 74.427734c-0.3322491 6.715431-0.53125 13.859842-0.53125 22.0625v13.652346h33.039063v-35.714846h-32.507813z" style="fill:#a0a0a0"/>
   <rect x="47.76" y="250.7" width="9.26" height="9.26" style="fill:#e4e4e4"/>
   <path transform="matrix(.25929168 0 0 .25929237 .67732622 231.39919)" d="m250.32422 110.14258v-13.652346c0-8.202658-0.199-15.347069-0.53125-22.0625h-32.50781v35.714846h33.03906z" style="fill:#a0a0a0"/>
   <rect x="19.98" y="259.96" width="9.26" height="9.26" style="fill:#e4e4e4"/>
   <rect x="29.24" y="259.96" width="9.26" height="9.26" style="fill:#a0a0a0"/>
   <rect x="10.72" y="259.96" width="9.26" height="9.26" style="fill:#880066"/>
   <path transform="matrix(.25929168 0 0 .25929237 .67732622 231.39919)" d="m5.6757812 110.14258v35.71289h33.039063v-35.71289h-33.039063z" style="fill:#e4e4e4"/>
   <path transform="matrix(.25929168 0 0 .25929237 .67732622 231.39919)" d="m250.32422 145.85547v-35.71289h-33.03906v35.71289h33.03906z" style="fill:#e4e4e4"/>
   <rect x="38.5" y="259.96" width="9.26" height="9.26" style="fill:#e4e4e4"/>
   <rect x="47.76" y="259.96" width="9.26" height="9.26" style="fill:#363636"/>
   <rect x="29.24" y="269.22" width="9.26" height="9.26" style="fill:#e4e4e4"/>
   <rect x="38.5" y="269.22" width="9.26" height="9.26" style="fill:#363636"/>
   <rect x="19.98" y="269.22" width="9.26" height="9.26" style="fill:#f06826"/>
   <rect x="10.72" y="269.22" width="9.26" height="9.26" style="fill:#e4e4e4"/>
   <path transform="matrix(.25929168 0 0 .25929237 .67732622 231.39919)" d="m5.6757812 145.85547v9.88672c1e-7 9.24829 0.1655716 17.50559 0.5996094 24.875 0.0198897 0.3377 0.0590502 0.61914 0.0800782 0.95312h32.359375v-35.71484h-33.039063z" style="fill:#a0a0a0"/>
   <rect x="47.76" y="269.22" width="9.26" height="9.26" style="fill:#e4e4e4"/>
   <path transform="matrix(.25929168 0 0 .25929237 .67732622 231.39919)" d="m249.64453 181.57031c0.02103-0.33398 0.06019-0.61542 0.08008-0.95312 0.43404-7.36941 0.59961-15.62671 0.59961-24.875v-9.88672h-33.03906v35.71484h32.35937z" style="fill:#a0a0a0"/>
   <rect x="19.98" y="278.48" width="9.26" height="9.26" style="fill:#e4e4e4"/>
   <rect x="29.24" y="278.48" width="9.26" height="9.26" style="fill:#880066"/>
   <rect x="10.72" y="278.48" width="9.26" height="9.26" style="fill:#a0a0a0"/>
   <path transform="matrix(.25929168 0 0 .25929237 .67732622 231.39919)" d="m6.3554688 181.57227c0.2083914 3.30939 0.4543439 6.49041 0.7851562 9.44531 0.3642649 3.2537 0.8083678 6.29796 1.3457031 9.14648 0.5373354 2.84853 1.1680668 5.50155 1.9042969 7.97071 0.73623 2.46915 1.578113 4.75548 2.539063 6.87109 0.37456 0.82463 0.856149 1.50566 1.267578 2.2793h24.517578v-35.71289h-32.359375z" style="fill:#e4e4e4"/>
   <path transform="matrix(.25929168 0 0 .25929237 .67732622 231.39919)" d="m241.80273 217.28516c0.41143-0.77364 0.89302-1.45467 1.26758-2.2793 0.96095-2.11561 1.80283-4.40194 2.53907-6.87109 0.73623-2.46916 1.36696-5.12218 1.90429-7.97071 0.53734-2.84852 0.98144-5.89278 1.34571-9.14648 0.33081-2.9549 0.57676-6.13592 0.78515-9.44531h-32.35937v35.71289h24.51757z" style="fill:#e4e4e4"/>
   <rect x="38.5" y="278.48" width="9.26" height="9.26" style="fill:#e4e4e4"/>
   <rect x="47.76" y="278.48" width="9.26" height="9.26" style="fill:#a0a0a0"/>
   <path transform="matrix(.25929168 0 0 .25929237 .67732622 231.39919)" d="m110.14258 240.28516h35.71484v-23h-35.71484v23z" style="fill:#e4e4e4"/>
   <path transform="matrix(.25929168 0 0 .25929237 .67732622 231.39919)" d="m145.85742 240.28516h19.82813c5.9065 0 10.76091-0.21972 15.88672-0.38086v-22.61914h-35.71485v23z" style="fill:#a0a0a0"/>
   <path transform="matrix(.25929168 0 0 .25929237 .67732622 231.39919)" d="m74.427734 239.9043c5.125811 0.16114 9.980217 0.38086 15.886719 0.38086h19.828127v-23h-35.714846v22.61914z" style="fill:#a0a0a0"/>
   <path transform="matrix(.25929168 0 0 .25929237 .67732622 231.39919)" d="m38.714844 235.7793c2.244807 0.63727 4.583458 1.22157 7.132812 1.70117 2.851576 0.53645 5.899184 0.98014 9.15625 1.34375s6.723729 0.64669 10.41211 0.86328c2.669941 0.15679 6.104104 0.12539 9.011718 0.2168v-22.61914h-35.71289v18.49414z" style="fill:#e4e4e4"/>
   <path transform="matrix(.25929168 0 0 .25929237 .67732622 231.39919)" d="m14.197266 217.28516c0.644106 1.21115 1.2451 2.47736 1.984375 3.56836 1.211492 1.78787 2.555108 3.41834 4.042968 4.90429 1.487861 1.48596 3.120104 2.82726 4.910157 4.03711 1.790053 1.20986 3.737399 2.28848 5.855468 3.24805 2.11807 0.95957 4.406996 1.80005 6.878907 2.53515 0.261983 0.07791 0.579584 0.12563 0.845703 0.20118v-18.49414h-24.517578z" style="fill:#a0a0a0"/>
   <path transform="matrix(.25929168 0 0 .25929237 .67732622 231.39919)" d="m181.57227 239.9043c2.90761-0.09141 6.34177-0.06001 9.01171-0.2168 3.68838-0.21659 7.15505-0.49967 10.41211-0.86328 3.25707-0.36361 6.30468-0.8073 9.15625-1.34375 2.54936-0.4796 4.88801-1.0639 7.13282-1.70117v-18.49414h-35.71289v22.61914z" style="fill:#e4e4e4"/>
   <path transform="matrix(.25929168 0 0 .25929237 .67732622 231.39919)" d="m217.28516 235.7793c0.26611-0.07555 0.58372-0.12327 0.8457-0.20118 2.47191-0.7351 4.76084-1.57558 6.87891-2.53515s4.06541-2.03819 5.85546-3.24805c1.79006-1.20985 3.4223-2.55115 4.91016-4.03711 1.48786-1.48595 2.83148-3.11642 4.04297-4.90429 0.73927-1.091 1.34027-2.35721 1.98437-3.56836h-24.51757v18.49414z" style="fill:#a0a0a0"/>
  </g>
  <path transform="matrix(.13485389 0 0 .13485389 -4.9712548 261.01665)" d="M 361.9375,-212 C 507.2348,-212 528,-191.28677 528,-46.125 V 70.125 C 528,215.28618 507.2348,236 361.9375,236 H 214.0625 C 68.7652,236 48,215.28618 48,70.125 V -46.125 C 48,-191.28677 68.7652,-212 214.0625,-212 Z" clip-path="url(#clipPath1082-3-93)" style="fill:none;opacity:.6;stroke-linecap:round;stroke-linejoin:round;stroke-width:8;stroke:url(#linearGradient1108-7)"/>
 </g>
</svg>
