<svg xmlns="http://www.w3.org/2000/svg" xmlns:xlink="http://www.w3.org/1999/xlink" width="256" height="256" version="1.1" viewBox="0 0 67.73 67.73">
 <defs>
  <linearGradient id="linearGradient1108" x1="296" x2="296" y1="-212" y2="236" gradientUnits="userSpaceOnUse" xlink:href="#linearGradient1013"/>
  <linearGradient id="linearGradient1013">
   <stop offset="0" style="stop-color:#ffffff"/>
   <stop style="stop-color:#ffffff;stop-opacity:0.09803922" offset=".125"/>
   <stop style="stop-color:#000000;stop-opacity:0.09803922" offset=".925"/>
   <stop offset="1" style="stop-color:#000000;stop-opacity:0.49803922"/>
  </linearGradient>
  <clipPath id="clipPath1082-3-27" clipPathUnits="userSpaceOnUse">
   <path d="M 361.9375,-212 C 507.2348,-212 528,-191.28677 528,-46.125 V 70.125 C 528,215.28618 507.2348,236 361.9375,236 H 214.0625 C 68.7652,236 48,215.28618 48,70.125 V -46.125 C 48,-191.28677 68.7652,-212 214.0625,-212 Z" style="fill:#8c59d9"/>
  </clipPath>
  <linearGradient id="linearGradient1044" x1="88" x2="256" y1="28" y2="284" gradientTransform="matrix(0.26458333,0,0,0.26458333,-6.993468,221.97263)" gradientUnits="userSpaceOnUse" xlink:href="#linearGradient4245"/>
  <linearGradient id="linearGradient4245">
   <stop offset="0" style="stop-color:#dbdbdb"/>
   <stop offset="1" style="stop-color:#f5f5f5"/>
  </linearGradient>
  <filter style="color-interpolation-filters:sRGB" id="filter4569" width="1.023" height="1.025" x="-.01" y="-.01">
   <feGaussianBlur stdDeviation="1.16"/>
  </filter>
  <filter style="color-interpolation-filters:sRGB" id="filter939" width="1.046" height="1.05" x="-.02" y="-.03">
   <feGaussianBlur stdDeviation="2.32"/>
  </filter>
  <filter style="color-interpolation-filters:sRGB" id="filter1688" width="1.096" height="1.096" x="-.05" y="-.05">
   <feGaussianBlur stdDeviation=".794"/>
  </filter>
 </defs>
 <g transform="translate(0,-229.26666)">
  <path style="opacity:0.2;filter:url(#filter939)" d="m 162.53675,5.5680001 c 72.64865,0 83.03125,10.3566149 83.03125,82.9375049 v 58.125005 c 0,72.58059 -10.3826,82.9375 -83.03125,82.9375 H 88.599254 C 15.9506,229.56801 5.568,219.2111 5.568,146.63051 V 88.505505 c 0,-72.58089 10.3826,-82.9375049 83.031254,-82.9375049 z" transform="matrix(0.26458333,0,0,0.26458333,-1.8735233e-8,232.67026)"/>
  <path d="m 43.004515,233.61429 c 19.221622,0 21.968685,2.74019 21.968685,21.94388 v 15.37891 c 0,19.20362 -2.747063,21.94388 -21.968685,21.94388 H 23.441886 C 4.220263,292.88096 1.4732,290.1407 1.4732,270.93708 v -15.37891 c 0,-19.20369 2.747063,-21.94388 21.968686,-21.94388 z" style="opacity:0.1;fill:none;stroke:#000000;stroke-width:1.05833328;stroke-linecap:round;stroke-linejoin:round"/>
  <path d="m 162.53675,3.5680001 c 72.64865,0 83.03125,10.3566149 83.03125,82.9375049 v 58.125005 c 0,72.58059 -10.3826,82.9375 -83.03125,82.9375 H 88.599254 C 15.9506,227.56801 5.568,217.2111 5.568,144.63051 V 86.505505 c 0,-72.58089 10.3826,-82.9375049 83.031254,-82.9375049 z" transform="matrix(0.26458333,0,0,0.26458333,-1.8735233e-8,232.67026)" style="opacity:0.1;filter:url(#filter4569)"/>
  <path style="fill:url(#linearGradient1044)" d="m 43.004513,233.61429 c 19.221622,0 21.968685,2.74019 21.968685,21.94388 v 15.37891 c 0,19.20362 -2.747063,21.94388 -21.968685,21.94388 h -19.56263 c -19.221622,0 -21.968684,-2.74026 -21.968684,-21.94388 v -15.37891 c 0,-19.20369 2.747062,-21.94388 21.968684,-21.94388 z"/>
  <path d="M 361.9375,-212 C 507.2348,-212 528,-191.28677 528,-46.125 V 70.125 C 528,215.28618 507.2348,236 361.9375,236 H 214.0625 C 68.7652,236 48,215.28618 48,70.125 V -46.125 C 48,-191.28677 68.7652,-212 214.0625,-212 Z" clip-path="url(#clipPath1082-3-27)" transform="matrix(0.13229167,0,0,0.13229167,-4.876801,261.66013)" style="opacity:0.4;fill:none;stroke:url(#linearGradient1108);stroke-width:8;stroke-linecap:round;stroke-linejoin:round"/>
  <path style="opacity:0.25;fill:#ffffff" d="m 23.44188,292.88096 c -19.2216229,0 -21.9686869,-2.73912 -21.9686869,-21.93528 v -7.68645 H 64.973198 v 7.68645 c 0,19.19616 -2.747062,21.93528 -21.968687,21.93528 z"/>
  <g transform="translate(-1.4022756,1.4022993)">
   <path style="fill:#ffffff" d="m 34.625472,240.72177 c -11.682024,0 -21.123196,9.44189 -21.123196,21.1239 0,11.68203 9.441172,21.1232 21.123196,21.1232 11.682027,0 21.1232,-9.44117 21.1232,-21.1232 0,-11.68201 -9.441172,-21.1239 -21.1232,-21.1239 z"/>
   <path style="opacity:0.61000001;fill:#4f4f4f;filter:url(#filter1688)" d="m 33.223197,243.40354 c -10.974436,0 -19.843749,8.86998 -19.843749,19.84441 0,10.97444 8.869313,19.84375 19.843749,19.84375 10.974438,0 19.843752,-8.86931 19.843752,-19.84375 0,-10.97443 -8.869313,-19.84441 -19.843752,-19.84441 z m -5.753077,1.87797 c 0.01691,-0.004 0.02776,-0.001 0.03244,0.005 0.03129,0.0436 -0.213192,0.31895 -0.799259,0.93965 -1.293975,1.37039 -2.105916,3.00624 -2.407048,4.84985 -0.551579,3.37728 1.14812,7.04318 4.153235,8.9574 2.660071,1.69433 6.75075,1.69348 9.404375,-0.003 0.985239,-0.62937 2.318234,-1.92719 2.776549,-2.70305 0.297266,-0.50324 0.379093,-0.53361 1.169422,-0.42777 2.574924,0.34483 4.636525,1.33959 6.411292,3.09373 1.700779,1.6812 2.746658,3.62944 3.083142,5.74249 0.113765,0.71438 0.103359,0.70468 -0.246333,-0.2258 -1.468875,-3.90872 -5.729737,-6.39231 -9.790431,-5.70739 -5.58684,0.94242 -8.844944,6.41721 -7.050302,11.84719 l 0.491342,1.4866 -0.392676,0.55161 c -1.189196,1.66984 -3.726148,3.45031 -5.840487,4.09893 -1.325478,0.40667 -3.866175,0.49047 -5.259749,0.17349 -1.572521,-0.35767 -1.722904,-0.54939 -0.304606,-0.3887 3.484661,0.39484 7.212637,-1.72264 8.822976,-5.01078 2.362606,-4.82413 -0.01859,-10.644 -5.065066,-12.38023 -0.570721,-0.19635 -1.538818,-0.4141 -2.151446,-0.4834 -1.084638,-0.12276 -1.122275,-0.14561 -1.415093,-0.87739 -0.502334,-1.25545 -0.844712,-2.99066 -0.846938,-4.2976 -0.0035,-1.51912 0.564058,-3.81908 1.262791,-5.1187 0.606269,-1.12762 2.741563,-3.44868 3.653946,-3.97114 0.152413,-0.0873 0.257179,-0.14124 0.307917,-0.15163 z" transform="matrix(1.0644761,0,0,1.0644761,-0.73982656,-18.375475)"/>
   <path d="m 34.625472,240.72177 c -11.682024,0 -21.123196,9.44189 -21.123196,21.1239 0,11.68203 9.441172,21.1232 21.123196,21.1232 11.682027,0 21.1232,-9.44117 21.1232,-21.1232 0,-11.68201 -9.441172,-21.1239 -21.1232,-21.1239 z m -6.124013,1.99906 c 0.018,-0.004 0.02955,-0.001 0.03453,0.005 0.03331,0.0464 -0.226938,0.33952 -0.850792,1.00024 -1.377405,1.45874 -2.241697,3.20007 -2.562245,5.16255 -0.587143,3.59503 1.222146,7.49729 4.421019,9.53493 2.831582,1.80358 7.186012,1.80267 10.010733,-0.003 1.048763,-0.66995 2.467704,-2.05145 2.95557,-2.87733 0.316432,-0.53569 0.403535,-0.56802 1.244821,-0.45535 2.740945,0.36706 4.93547,1.42596 6.824668,3.2932 1.810438,1.7896 2.923751,3.86345 3.28193,6.11274 0.121101,0.76044 0.110024,0.75012 -0.262215,-0.24036 -1.563582,-4.16074 -6.099168,-6.80446 -10.42168,-6.07538 -5.947057,1.00319 -9.415231,6.83097 -7.504878,12.61105 l 0.523022,1.58245 -0.417994,0.58718 c -1.265871,1.7775 -3.966396,3.67277 -6.217059,4.36321 -1.41094,0.43289 -4.115451,0.5221 -5.598877,0.18468 -1.673911,-0.38073 -1.83399,-0.58481 -0.324246,-0.41376 3.709338,0.42029 7.67768,-1.83371 9.391847,-5.33386 2.514938,-5.13517 -0.01979,-11.33028 -5.391642,-13.17846 -0.607518,-0.20901 -1.638034,-0.4408 -2.290162,-0.51457 -1.154572,-0.13067 -1.194635,-0.15499 -1.506333,-0.93396 -0.534723,-1.33639 -0.899176,-3.18348 -0.901545,-4.57469 -0.0037,-1.61707 0.600426,-4.06532 1.344211,-5.44873 0.645358,-1.20033 2.918328,-3.67104 3.889538,-4.22719 0.16224,-0.0929 0.273761,-0.15034 0.32777,-0.1614 z" style="fill:#4f4f4f"/>
  </g>
 </g>
</svg>
