<svg xmlns="http://www.w3.org/2000/svg" xmlns:xlink="http://www.w3.org/1999/xlink" width="256" height="256" version="1.1" viewBox="0 0 67.73 67.73">
 <defs>
  <filter id="filter1132" width="1.046" height="1.05" x="-.02" y="-.03" style="color-interpolation-filters:sRGB">
   <feGaussianBlur stdDeviation="2.32"/>
  </filter>
  <filter id="filter4569" width="1.023" height="1.025" x="-.01" y="-.01" style="color-interpolation-filters:sRGB">
   <feGaussianBlur stdDeviation="1.16"/>
  </filter>
  <linearGradient id="linearGradient1108-7" x1="296" x2="296" y1="-212" y2="236" gradientUnits="userSpaceOnUse" xlink:href="#linearGradient1013"/>
  <linearGradient id="linearGradient1013">
   <stop style="stop-color:#ffffff" offset="0"/>
   <stop offset=".125" style="stop-color:#ffffff;stop-opacity:0.09803922"/>
   <stop offset=".925" style="stop-color:#000000;stop-opacity:0.09803922"/>
   <stop style="stop-color:#000000;stop-opacity:0.49803922" offset="1"/>
  </linearGradient>
  <clipPath id="clipPath1082-3-93" clipPathUnits="userSpaceOnUse">
   <path style="fill:#8c59d9" d="M 361.9375,-212 C 507.2348,-212 528,-191.28677 528,-46.125 V 70.125 C 528,215.28618 507.2348,236 361.9375,236 H 214.0625 C 68.7652,236 48,215.28618 48,70.125 V -46.125 C 48,-191.28677 68.7652,-212 214.0625,-212 Z"/>
  </clipPath>
 </defs>
 <g transform="translate(0,-229.26666)">
  <path style="opacity:0.115;fill:none;stroke:#000000;stroke-width:1.0788312;stroke-linecap:round;stroke-linejoin:round" d="m 43.837425,232.42763 c 19.593907,0 22.394175,2.79326 22.394175,22.36889 v 15.67677 c 0,19.57555 -2.800268,22.36888 -22.394175,22.36888 h -19.94152 c -19.5939058,0 -22.3941739,-2.79333 -22.3941739,-22.36888 v -15.67677 c 0,-19.57563 2.8002681,-22.36889 22.3941739,-22.36889 z"/>
  <path style="opacity:0.1;filter:url(#filter4569)" d="m 188.96876,43.999995 c 72.64865,0 83.03125,10.356615 83.03125,82.937505 v 58.125 c 0,72.58059 -10.3826,82.9375 -83.03125,82.9375 h -73.9375 C 42.382606,268 32.000006,257.64309 32.000006,185.0625 v -58.125 c 0,-72.58089 10.3826,-82.937505 83.031254,-82.937505 z" transform="matrix(0.26970778,0,0,0.26970778,-7.1289177,220.56049)"/>
  <path d="m 188.96876,45.999995 c 72.64865,0 83.03125,10.356615 83.03125,82.937505 v 58.125 c 0,72.58059 -10.3826,82.9375 -83.03125,82.9375 h -73.9375 C 42.382606,270 32.000006,259.64309 32.000006,187.0625 v -58.125 c 0,-72.58089 10.3826,-82.937505 83.031254,-82.937505 z" transform="matrix(0.26970778,0,0,0.26970778,-7.1289177,220.56049)" style="opacity:0.2;filter:url(#filter1132)"/>
  <path d="m 0.9525,262.56205 v 7.96544 c 0,19.89285 2.846163,22.73147 22.761203,22.73147 h 20.268349 c 19.91504,0 22.761202,-2.83862 22.761202,-22.73147 v -7.96544 z" style="opacity:0.25;fill:#ffffff"/>
  <path d="m 34.339496,293.25889 h 9.631198 c 2.486392,0 4.706268,-0.0442 6.687644,-0.16069 0.990687,-0.0582 1.921825,-0.13436 2.796662,-0.23212 0.874839,-0.0978 1.693417,-0.21706 2.459341,-0.36129 0.765925,-0.14424 1.479058,-0.31385 2.143006,-0.51149 0.663948,-0.19765 1.278747,-0.42364 1.847655,-0.68163 0.568907,-0.25801 1.091957,-0.54801 1.572758,-0.87331 0.480805,-0.3253 0.919221,-0.68593 1.318856,-1.08546 0.399633,-0.39954 0.760526,-0.83793 1.085928,-1.31864 0.325403,-0.48071 0.615357,-1.00344 0.873465,-1.57227 0.258107,-0.56883 0.484235,-1.18356 0.681986,-1.84745 0.19775,-0.66388 0.367161,-1.3772 0.511487,-2.14309 0.144327,-0.7659 0.263612,-1.58441 0.361452,-2.45924 0.09784,-0.87483 0.174108,-1.80566 0.232399,-2.79637 0.116583,-1.98143 0.161055,-4.20159 0.161055,-6.68819 v -15.9312 c 0,-2.48661 -0.04448,-4.70675 -0.161055,-6.68819 -0.05829,-0.99071 -0.134558,-1.92154 -0.232399,-2.79637 -0.09784,-0.87484 -0.217125,-1.69334 -0.361452,-2.45924 -0.144326,-0.76589 -0.313737,-1.4792 -0.511487,-2.14309 -0.197751,-0.66389 -0.423879,-1.27862 -0.681986,-1.84745 -0.258108,-0.56882 -0.548062,-1.09156 -0.873465,-1.57227 -0.325402,-0.48071 -0.686295,-0.9191 -1.085928,-1.31863 -0.399635,-0.39954 -0.838051,-0.76017 -1.318856,-1.08547 -0.480801,-0.3253 -1.003851,-0.6153 -1.572758,-0.87331 -0.568908,-0.25799 -1.183707,-0.48398 -1.847655,-0.68163 -0.663948,-0.19764 -1.377081,-0.36725 -2.143006,-0.51149 -0.765924,-0.14423 -1.584502,-0.26353 -2.459341,-0.36129 -0.874837,-0.0978 -1.805975,-0.17387 -2.796662,-0.23211 -1.981376,-0.11647 -4.201252,-0.1607 -6.687644,-0.1607 h -9.631198 z" style="opacity:0.25;fill:#ffffff"/>
  <g transform="matrix(1.0204081,0,0,1.0204054,-0.69114916,-6.8543267)">
   <path d="M 145.85742 11.947266 L 110.14258 11.947266 L 110.14258 38.714844 L 145.85742 38.714844 L 145.85742 11.947266 z" transform="matrix(0.25929168,0,0,0.25929237,0.67732622,231.39919)" style="fill:#e4e4e4"/>
   <path d="M 181.57227 12.328125 C 176.44646 12.166985 171.59205 11.947266 165.68555 11.947266 L 145.85742 11.947266 L 145.85742 38.714844 L 181.57227 38.714844 L 181.57227 12.328125 z" transform="matrix(0.25929168,0,0,0.25929237,0.67732622,231.39919)" style="fill:#a0a0a0"/>
   <path d="M 110.14258 11.947266 L 90.314453 11.947266 C 84.407951 11.947266 79.553545 12.166985 74.427734 12.328125 L 74.427734 38.714844 L 110.14258 38.714844 L 110.14258 11.947266 z" transform="matrix(0.25929168,0,0,0.25929237,0.67732622,231.39919)" style="fill:#a0a0a0"/>
   <path d="M 74.427734 12.328125 C 71.52012 12.419531 68.085957 12.388137 65.416016 12.544922 C 61.727635 12.761511 58.260972 13.044594 55.003906 13.408203 C 51.74684 13.771812 48.699232 14.215508 45.847656 14.751953 C 43.298302 15.231543 40.959651 15.815853 38.714844 16.453125 L 38.714844 38.714844 L 74.427734 38.714844 L 74.427734 12.328125 z" transform="matrix(0.25929168,0,0,0.25929237,0.67732622,231.39919)" style="fill:#e4e4e4"/>
   <path d="M 38.714844 16.453125 C 38.448725 16.528673 38.131124 16.576388 37.869141 16.654297 C 35.39723 17.389394 33.108304 18.229887 30.990234 19.189453 C 28.872165 20.149019 26.924819 21.227648 25.134766 22.4375 C 23.344713 23.647352 21.71247 24.988656 20.224609 26.474609 C 18.736749 27.960563 17.393133 29.591034 16.181641 31.378906 C 14.970148 33.166779 13.890637 35.110955 12.929688 37.226562 C 12.721508 37.684886 12.576064 38.240402 12.378906 38.714844 L 38.714844 38.714844 L 38.714844 16.453125 z" transform="matrix(0.25929168,0,0,0.25929237,0.67732622,231.39919)" style="fill:#a0a0a0"/>
   <path d="M 217.28516 16.453125 C 215.04035 15.815853 212.7017 15.231543 210.15234 14.751953 C 207.30077 14.215508 204.25316 13.771812 200.99609 13.408203 C 197.73903 13.044594 194.27236 12.761511 190.58398 12.544922 C 187.91404 12.388137 184.47988 12.419531 181.57227 12.328125 L 181.57227 38.714844 L 217.28516 38.714844 L 217.28516 16.453125 z" transform="matrix(0.25929168,0,0,0.25929237,0.67732622,231.39919)" style="fill:#e4e4e4"/>
   <path d="M 243.62109 38.714844 C 243.42394 38.240402 243.27849 37.684886 243.07031 37.226562 C 242.10936 35.110955 241.02985 33.166779 239.81836 31.378906 C 238.60687 29.591034 237.26325 27.960563 235.77539 26.474609 C 234.28753 24.988656 232.65529 23.647352 230.86523 22.4375 C 229.07518 21.227648 227.12784 20.149019 225.00977 19.189453 C 222.8917 18.229887 220.60277 17.389394 218.13086 16.654297 C 217.86888 16.576388 217.55127 16.528673 217.28516 16.453125 L 217.28516 38.714844 L 243.62109 38.714844 z" transform="matrix(0.25929168,0,0,0.25929237,0.67732622,231.39919)" style="fill:#a0a0a0"/>
   <rect style="fill:#e4e4e4" width="9.26" height="9.26" x="19.98" y="241.44"/>
   <rect width="9.26" height="9.26" x="29.24" y="241.44" style="fill:#363636"/>
   <rect style="fill:#f06826" width="9.26" height="9.26" x="10.72" y="241.44"/>
   <path d="M 12.378906 38.714844 C 11.665989 40.430412 10.967359 42.163414 10.390625 44.097656 C 9.6543949 46.566815 9.0236635 49.219832 8.4863281 52.068359 C 7.9489928 54.916886 7.5048899 57.961132 7.140625 61.214844 C 6.7763601 64.468555 6.4924095 67.930522 6.2753906 71.615234 C 6.2263158 72.448465 6.2493862 73.571655 6.2070312 74.427734 L 38.714844 74.427734 L 38.714844 38.714844 L 12.378906 38.714844 z" transform="matrix(0.25929168,0,0,0.25929237,0.67732622,231.39919)" style="fill:#e4e4e4"/>
   <path d="M 249.79297 74.427734 C 249.75061 73.571655 249.77368 72.448465 249.72461 71.615234 C 249.50759 67.930522 249.22364 64.468555 248.85938 61.214844 C 248.49511 57.961132 248.05101 54.916886 247.51367 52.068359 C 246.97634 49.219832 246.34561 46.566815 245.60938 44.097656 C 245.03264 42.163414 244.33401 40.430412 243.62109 38.714844 L 217.28516 38.714844 L 217.28516 74.427734 L 249.79297 74.427734 z" transform="matrix(0.25929168,0,0,0.25929237,0.67732622,231.39919)" style="fill:#e4e4e4"/>
   <rect style="fill:#e4e4e4" width="9.26" height="9.26" x="38.5" y="241.44"/>
   <rect width="9.26" height="9.26" x="47.76" y="241.44" style="fill:#880066"/>
   <rect style="fill:#e4e4e4" width="9.26" height="9.26" x="29.24" y="250.7"/>
   <rect width="9.26" height="9.26" x="38.5" y="250.7" style="fill:#f06826"/>
   <rect style="fill:#a0a0a0" width="9.26" height="9.26" x="19.98" y="250.7"/>
   <rect width="9.26" height="9.26" x="10.72" y="250.7" style="fill:#e4e4e4"/>
   <path d="M 6.2070312 74.427734 C 5.8747821 81.143165 5.6757812 88.287576 5.6757812 96.490234 L 5.6757812 110.14258 L 38.714844 110.14258 L 38.714844 74.427734 L 6.2070312 74.427734 z" transform="matrix(0.25929168,0,0,0.25929237,0.67732622,231.39919)" style="fill:#a0a0a0"/>
   <rect style="fill:#e4e4e4" width="9.26" height="9.26" x="47.76" y="250.7"/>
   <path d="M 250.32422 110.14258 L 250.32422 96.490234 C 250.32422 88.287576 250.12522 81.143165 249.79297 74.427734 L 217.28516 74.427734 L 217.28516 110.14258 L 250.32422 110.14258 z" transform="matrix(0.25929168,0,0,0.25929237,0.67732622,231.39919)" style="fill:#a0a0a0"/>
   <rect width="9.26" height="9.26" x="19.98" y="259.96" style="fill:#e4e4e4"/>
   <rect style="fill:#a0a0a0" width="9.26" height="9.26" x="29.24" y="259.96"/>
   <rect width="9.26" height="9.26" x="10.72" y="259.96" style="fill:#880066"/>
   <path d="M 5.6757812 110.14258 L 5.6757812 145.85547 L 38.714844 145.85547 L 38.714844 110.14258 L 5.6757812 110.14258 z" transform="matrix(0.25929168,0,0,0.25929237,0.67732622,231.39919)" style="fill:#e4e4e4"/>
   <path d="M 250.32422 145.85547 L 250.32422 110.14258 L 217.28516 110.14258 L 217.28516 145.85547 L 250.32422 145.85547 z" transform="matrix(0.25929168,0,0,0.25929237,0.67732622,231.39919)" style="fill:#e4e4e4"/>
   <rect width="9.26" height="9.26" x="38.5" y="259.96" style="fill:#e4e4e4"/>
   <rect style="fill:#363636" width="9.26" height="9.26" x="47.76" y="259.96"/>
   <rect width="9.26" height="9.26" x="29.24" y="269.22" style="fill:#e4e4e4"/>
   <rect style="fill:#363636" width="9.26" height="9.26" x="38.5" y="269.22"/>
   <rect width="9.26" height="9.26" x="19.98" y="269.22" style="fill:#f06826"/>
   <rect style="fill:#e4e4e4" width="9.26" height="9.26" x="10.72" y="269.22"/>
   <path d="M 5.6757812 145.85547 L 5.6757812 155.74219 C 5.6757813 164.99048 5.8413528 173.24778 6.2753906 180.61719 C 6.2952803 180.95489 6.3344408 181.23633 6.3554688 181.57031 L 38.714844 181.57031 L 38.714844 145.85547 L 5.6757812 145.85547 z" transform="matrix(0.25929168,0,0,0.25929237,0.67732622,231.39919)" style="fill:#a0a0a0"/>
   <rect width="9.26" height="9.26" x="47.76" y="269.22" style="fill:#e4e4e4"/>
   <path d="M 249.64453 181.57031 C 249.66556 181.23633 249.70472 180.95489 249.72461 180.61719 C 250.15865 173.24778 250.32422 164.99048 250.32422 155.74219 L 250.32422 145.85547 L 217.28516 145.85547 L 217.28516 181.57031 L 249.64453 181.57031 z" transform="matrix(0.25929168,0,0,0.25929237,0.67732622,231.39919)" style="fill:#a0a0a0"/>
   <rect style="fill:#e4e4e4" width="9.26" height="9.26" x="19.98" y="278.48"/>
   <rect width="9.26" height="9.26" x="29.24" y="278.48" style="fill:#880066"/>
   <rect style="fill:#a0a0a0" width="9.26" height="9.26" x="10.72" y="278.48"/>
   <path d="M 6.3554688 181.57227 C 6.5638602 184.88166 6.8098127 188.06268 7.140625 191.01758 C 7.5048899 194.27128 7.9489928 197.31554 8.4863281 200.16406 C 9.0236635 203.01259 9.6543949 205.66561 10.390625 208.13477 C 11.126855 210.60392 11.968738 212.89025 12.929688 215.00586 C 13.304248 215.83049 13.785837 216.51152 14.197266 217.28516 L 38.714844 217.28516 L 38.714844 181.57227 L 6.3554688 181.57227 z" transform="matrix(0.25929168,0,0,0.25929237,0.67732622,231.39919)" style="fill:#e4e4e4"/>
   <path d="M 241.80273 217.28516 C 242.21416 216.51152 242.69575 215.83049 243.07031 215.00586 C 244.03126 212.89025 244.87314 210.60392 245.60938 208.13477 C 246.34561 205.66561 246.97634 203.01259 247.51367 200.16406 C 248.05101 197.31554 248.49511 194.27128 248.85938 191.01758 C 249.19019 188.06268 249.43614 184.88166 249.64453 181.57227 L 217.28516 181.57227 L 217.28516 217.28516 L 241.80273 217.28516 z" transform="matrix(0.25929168,0,0,0.25929237,0.67732622,231.39919)" style="fill:#e4e4e4"/>
   <rect style="fill:#e4e4e4" width="9.26" height="9.26" x="38.5" y="278.48"/>
   <rect width="9.26" height="9.26" x="47.76" y="278.48" style="fill:#a0a0a0"/>
   <path d="M 110.14258 240.28516 L 145.85742 240.28516 L 145.85742 217.28516 L 110.14258 217.28516 L 110.14258 240.28516 z" transform="matrix(0.25929168,0,0,0.25929237,0.67732622,231.39919)" style="fill:#e4e4e4"/>
   <path d="M 145.85742 240.28516 L 165.68555 240.28516 C 171.59205 240.28516 176.44646 240.06544 181.57227 239.9043 L 181.57227 217.28516 L 145.85742 217.28516 L 145.85742 240.28516 z" transform="matrix(0.25929168,0,0,0.25929237,0.67732622,231.39919)" style="fill:#a0a0a0"/>
   <path d="M 74.427734 239.9043 C 79.553545 240.06544 84.407951 240.28516 90.314453 240.28516 L 110.14258 240.28516 L 110.14258 217.28516 L 74.427734 217.28516 L 74.427734 239.9043 z" transform="matrix(0.25929168,0,0,0.25929237,0.67732622,231.39919)" style="fill:#a0a0a0"/>
   <path d="M 38.714844 235.7793 C 40.959651 236.41657 43.298302 237.00087 45.847656 237.48047 C 48.699232 238.01692 51.74684 238.46061 55.003906 238.82422 C 58.260972 239.18783 61.727635 239.47091 65.416016 239.6875 C 68.085957 239.84429 71.52012 239.81289 74.427734 239.9043 L 74.427734 217.28516 L 38.714844 217.28516 L 38.714844 235.7793 z" transform="matrix(0.25929168,0,0,0.25929237,0.67732622,231.39919)" style="fill:#e4e4e4"/>
   <path d="M 14.197266 217.28516 C 14.841372 218.49631 15.442366 219.76252 16.181641 220.85352 C 17.393133 222.64139 18.736749 224.27186 20.224609 225.75781 C 21.71247 227.24377 23.344713 228.58507 25.134766 229.79492 C 26.924819 231.00478 28.872165 232.0834 30.990234 233.04297 C 33.108304 234.00254 35.39723 234.84302 37.869141 235.57812 C 38.131124 235.65603 38.448725 235.70375 38.714844 235.7793 L 38.714844 217.28516 L 14.197266 217.28516 z" transform="matrix(0.25929168,0,0,0.25929237,0.67732622,231.39919)" style="fill:#a0a0a0"/>
   <path d="M 181.57227 239.9043 C 184.47988 239.81289 187.91404 239.84429 190.58398 239.6875 C 194.27236 239.47091 197.73903 239.18783 200.99609 238.82422 C 204.25316 238.46061 207.30077 238.01692 210.15234 237.48047 C 212.7017 237.00087 215.04035 236.41657 217.28516 235.7793 L 217.28516 217.28516 L 181.57227 217.28516 L 181.57227 239.9043 z" transform="matrix(0.25929168,0,0,0.25929237,0.67732622,231.39919)" style="fill:#e4e4e4"/>
   <path d="M 217.28516 235.7793 C 217.55127 235.70375 217.86888 235.65603 218.13086 235.57812 C 220.60277 234.84302 222.8917 234.00254 225.00977 233.04297 C 227.12784 232.0834 229.07518 231.00478 230.86523 229.79492 C 232.65529 228.58507 234.28753 227.24377 235.77539 225.75781 C 237.26325 224.27186 238.60687 222.64139 239.81836 220.85352 C 240.55763 219.76252 241.15863 218.49631 241.80273 217.28516 L 217.28516 217.28516 L 217.28516 235.7793 z" transform="matrix(0.25929168,0,0,0.25929237,0.67732622,231.39919)" style="fill:#a0a0a0"/>
  </g>
  <path style="opacity:0.6;fill:none;stroke:url(#linearGradient1108-7);stroke-width:8;stroke-linecap:round;stroke-linejoin:round" d="M 361.9375,-212 C 507.2348,-212 528,-191.28677 528,-46.125 V 70.125 C 528,215.28618 507.2348,236 361.9375,236 H 214.0625 C 68.7652,236 48,215.28618 48,70.125 V -46.125 C 48,-191.28677 68.7652,-212 214.0625,-212 Z" clip-path="url(#clipPath1082-3-93)" transform="matrix(0.13485389,0,0,0.13485389,-4.9712548,261.01665)"/>
 </g>
</svg>
