<svg width="256" height="256" style="clip-rule:evenodd;fill-rule:evenodd;image-rendering:optimizeQuality;shape-rendering:geometricPrecision;text-rendering:geometricPrecision" version="1.1" viewBox="0 0 256 256" xmlns="http://www.w3.org/2000/svg" xmlns:xlink="http://www.w3.org/1999/xlink">
 <defs>
  <style type="text/css"><![CDATA[
    .fil5 {fill:none}
    .fil1 {fill:#196FBA}
    .fil0 {fill:#25B2EE}
    .fil4 {fill:#793C7C}
    .fil3 {fill:#8C508C}
    .fil2 {fill:white}
   ]]></style>
  <filter id="filter939" x="-.02" y="-.03" width="1.046" height="1.05" style="color-interpolation-filters:sRGB">
   <feGaussianBlur stdDeviation="2.32"/>
  </filter>
  <filter id="filter4569" x="-.01" y="-.01" width="1.023" height="1.025" style="color-interpolation-filters:sRGB">
   <feGaussianBlur stdDeviation="1.16"/>
  </filter>
  <linearGradient id="linearGradient1108" x1="296" x2="296" y1="-212" y2="236" gradientUnits="userSpaceOnUse">
   <stop style="stop-color:#ffffff" offset="0"/>
   <stop style="stop-color:#ffffff;stop-opacity:.09803922" offset=".125"/>
   <stop style="stop-color:#000000;stop-opacity:.09803922" offset=".925"/>
   <stop style="stop-color:#000000;stop-opacity:.49803922" offset="1"/>
  </linearGradient>
  <clipPath id="clipPath1082-3-361">
   <path d="M 361.9375,-212 C 507.2348,-212 528,-191.28677 528,-46.125 V 70.125 C 528,215.28618 507.2348,236 361.9375,236 H 214.0625 C 68.7652,236 48,215.28618 48,70.125 V -46.125 C 48,-191.28677 68.7652,-212 214.0625,-212 Z" style="fill:#8c59d9"/>
  </clipPath>
  <filter id="filter909" x="-.05" y="-.05" width="1.096" height="1.096" style="color-interpolation-filters:sRGB">
   <feGaussianBlur stdDeviation="17.26"/>
  </filter>
 </defs>
 <path transform="matrix(1.019368,0,0,1.019368,-7.2181772e-8,8.3098661)" d="m162.53675 5.5680001c72.64865 0 83.03125 10.356615 83.03125 82.937505v58.125005c0 72.58059-10.3826 82.9375-83.03125 82.9375h-73.937496c-72.648654 0-83.031254-10.35691-83.031254-82.9375v-58.125005c0-72.58089 10.3826-82.937505 83.031254-82.937505z" style="filter:url(#filter939);opacity:.2"/>
 <path d="m165.68477 11.946967c74.05571 0 84.6394 10.557203 84.6394 84.543835v59.250778c0 73.98633-10.58369 84.54383-84.6394 84.54383h-75.369521c-74.055717 0-84.639408-10.5575-84.639408-84.54383v-59.250778c0-73.986632 10.583691-84.543835 84.639408-84.543835z" style="fill:none;opacity:.1;stroke-linecap:round;stroke-linejoin:round;stroke-width:4.0774717;stroke:#000000"/>
 <path transform="matrix(1.019368,0,0,1.019368,-7.2181772e-8,8.3098661)" d="m162.53675 3.5680001c72.64865 0 83.03125 10.356615 83.03125 82.937505v58.125005c0 72.58059-10.3826 82.9375-83.03125 82.9375h-73.937496c-72.648654 0-83.031254-10.35691-83.031254-82.9375v-58.125005c0-72.58089 10.3826-82.937505 83.031254-82.937505z" style="filter:url(#filter4569);opacity:.1"/>
 <path d="m165.68476 11.946967c74.05571 0 84.6394 10.557203 84.6394 84.543835v59.250778c0 73.98633-10.58369 84.54383-84.6394 84.54383h-75.369524c-74.055712 0-84.639404-10.5575-84.639404-84.54383v-59.250778c0-73.986632 10.583692-84.543835 84.639404-84.543835z" style="fill:#38e4e5"/>
 <path d="m90.315238 240.28541c-74.055712 0-84.639403-10.95275-84.639403-87.71148v-30.73535h244.64832v30.73535c0 76.75873-10.58369 87.71148-84.6394 87.71148z" style="fill:#ffffff;opacity:.1"/>
 <path d="m127.01285 11.946967v228.33844h37.98888c74.65333 0 85.32243-10.5575 85.32243-84.54383v-59.250778c0-73.986632-10.6691-84.543835-85.32243-84.543835z" style="fill:#ffffff;opacity:.1"/>
 <path transform="matrix(.50968403 0 0 .50968403 -18.788999 120)" d="M 361.9375,-212 C 507.2348,-212 528,-191.28677 528,-46.125 V 70.125 C 528,215.28618 507.2348,236 361.9375,236 H 214.0625 C 68.7652,236 48,215.28618 48,70.125 V -46.125 C 48,-191.28677 68.7652,-212 214.0625,-212 Z" clip-path="url(#clipPath1082-3-361)" style="fill:none;opacity:.4;stroke-linecap:round;stroke-linejoin:round;stroke-width:8;stroke:url(#linearGradient1108)"/>
 <g transform="matrix(.23174434 0 0 .23174434 17.984874 6.9585325)" style="fill:#2f0e0e;filter:url(#filter909);opacity:.3">
  <g transform="translate(-36.772553,1.6763849)" style="fill:#2f0e0e">
   <path transform="matrix(4.3151,0,0,4.3151,-60.567986,-34.286399)" d="m125.89258 26.714844c-2.91071 0.196982-5.79004 0.520259-8.62891 0.96289l-4.15039 20.808594c-7.72867 2.025446-15.002606 5.126145-21.632811 9.21875l-17.771485-11.871094c-8.349748 6.125003-15.726063 13.506581-21.841796 21.863282l12.175781 18.253906c-3.710227 6.44481-6.653696 13.453322-8.458985 20.869138l-21.802734 4.30469c-0.792566 5.04971-1.205078 10.21633-1.205078 15.47461 0 5.2745 0.413737 10.4586 1.210937 15.51758l22.226563 4.39062c1.900303 7.11919 4.806461 13.84881 8.472656 20.04102l-12.615234 18.95703c6.12732 8.36829 13.516842 15.76099 21.882812 21.89062l18.978516-12.64648c6.192209 3.6662 12.923778 6.62509 20.042968 8.52539l4.39649 22.22656c5.06129 0.7972 10.24307 1.21289 15.51757 1.21289 5.25828 0 10.42563-0.41287 15.47071-1.20312l4.30859-21.80274c7.41582-1.80528 14.42824-4.69407 20.87305-8.40429l18.23632 12.13086c8.36598-6.12269 15.75904-13.50585 21.88868-21.86719l-11.83203-17.75195c4.0926-6.63253 7.14252-13.90805 9.16796-21.63672l20.80469-4.15625c0.44495-2.83887 0.76591-5.71625 0.96289-8.62696v-13.5957c-0.19698-2.89449-0.51671-5.75548-0.95703-8.57812l-20.39258-4.07032c-1.91884-8.032255-4.99654-15.590706-9.13086-22.480465l11.37891-17.033203c-6.12037-8.347431-13.49791-15.724111-21.84766-21.839844l-17.01171 11.345703c-6.88745-4.136636-14.44626-7.161235-22.47852-9.080078l-4.06445-20.392578c-2.82265-0.440314-5.6856-0.760049-8.58008-0.957031zm9.19922 41.603515c15.54309 0 30.16279 6.045708 41.16601 17.023438l-16.03906 16.074223c-6.71595-6.699733-15.63934-10.392582-25.12695-10.392582-19.61484 0-35.574222 15.959012-35.574222 35.576172 0 19.61484 15.957062 35.57422 35.574222 35.57422 9.48761 0 18.411-3.68858 25.12695-10.39063l16.03906 16.07227c-11.00322 10.97773-25.62292 17.02539-41.16601 17.02539-15.56859 0-30.20308-6.06246-41.210941-17.07031-11.007856-11.00786-17.070312-25.64467-17.070312-41.21094 0-15.56859 6.062456-30.205035 17.070312-41.212891 11.007861-11.007856 25.644671-17.06836 41.210941-17.06836z" style="fill:#2f0e0e"/>
  </g>
 </g>
 <g transform="matrix(.23174434 0 0 .23174434 17.984874 6.9585325)" style="fill:#ffffff">
  <g transform="translate(-36.772553,1.6763849)" style="fill:#ffffff">
   <path transform="matrix(4.3151,0,0,4.3151,-60.567986,-34.286399)" d="m125.89258 26.714844c-2.91071 0.196982-5.79004 0.520259-8.62891 0.96289l-4.15039 20.808594c-7.72867 2.025446-15.002606 5.126145-21.632811 9.21875l-17.771485-11.871094c-8.349748 6.125003-15.726063 13.506581-21.841796 21.863282l12.175781 18.253906c-3.710227 6.44481-6.653696 13.453322-8.458985 20.869138l-21.802734 4.30469c-0.792566 5.04971-1.205078 10.21633-1.205078 15.47461 0 5.2745 0.413737 10.4586 1.210937 15.51758l22.226563 4.39062c1.900303 7.11919 4.806461 13.84881 8.472656 20.04102l-12.615234 18.95703c6.12732 8.36829 13.516842 15.76099 21.882812 21.89062l18.978516-12.64648c6.192209 3.6662 12.923778 6.62509 20.042968 8.52539l4.39649 22.22656c5.06129 0.7972 10.24307 1.21289 15.51757 1.21289 5.25828 0 10.42563-0.41287 15.47071-1.20312l4.30859-21.80274c7.41582-1.80528 14.42824-4.69407 20.87305-8.40429l18.23632 12.13086c8.36598-6.12269 15.75904-13.50585 21.88868-21.86719l-11.83203-17.75195c4.0926-6.63253 7.14252-13.90805 9.16796-21.63672l20.80469-4.15625c0.44495-2.83887 0.76591-5.71625 0.96289-8.62696v-13.5957c-0.19698-2.89449-0.51671-5.75548-0.95703-8.57812l-20.39258-4.07032c-1.91884-8.032255-4.99654-15.590706-9.13086-22.480465l11.37891-17.033203c-6.12037-8.347431-13.49791-15.724111-21.84766-21.839844l-17.01171 11.345703c-6.88745-4.136636-14.44626-7.161235-22.47852-9.080078l-4.06445-20.392578c-2.82265-0.440314-5.6856-0.760049-8.58008-0.957031zm9.19922 41.603515c15.54309 0 30.16279 6.045708 41.16601 17.023438l-16.03906 16.074223c-6.71595-6.699733-15.63934-10.392582-25.12695-10.392582-19.61484 0-35.574222 15.959012-35.574222 35.576172 0 19.61484 15.957062 35.57422 35.574222 35.57422 9.48761 0 18.411-3.68858 25.12695-10.39063l16.03906 16.07227c-11.00322 10.97773-25.62292 17.02539-41.16601 17.02539-15.56859 0-30.20308-6.06246-41.210941-17.07031-11.007856-11.00786-17.070312-25.64467-17.070312-41.21094 0-15.56859 6.062456-30.205035 17.070312-41.212891 11.007861-11.007856 25.644671-17.06836 41.210941-17.06836z" style="fill:#ffffff"/>
  </g>
 </g>
</svg>
