<svg width="256" height="256" version="1.1" viewBox="0 0 67.73 67.73" xmlns="http://www.w3.org/2000/svg" xmlns:xlink="http://www.w3.org/1999/xlink">
 <defs>
  <clipPath id="clipPath1082-3-5">
   <path d="M 361.9375,-212 C 507.2348,-212 528,-191.28677 528,-46.125 V 70.125 C 528,215.28618 507.2348,236 361.9375,236 H 214.0625 C 68.7652,236 48,215.28618 48,70.125 V -46.125 C 48,-191.28677 68.7652,-212 214.0625,-212 Z" style="fill:#8c59d9"/>
  </clipPath>
  <filter id="filter4569-2" x="-.01" y="-.01" width="1.023" height="1.025" style="color-interpolation-filters:sRGB">
   <feGaussianBlur stdDeviation="1.16"/>
  </filter>
  <filter id="filter913" x="-.02" y="-.03" width="1.046" height="1.05" style="color-interpolation-filters:sRGB">
   <feGaussianBlur stdDeviation="2.32"/>
  </filter>
  <linearGradient id="linearGradient906" x1="296" x2="296" y1="-212" y2="236" gradientUnits="userSpaceOnUse">
   <stop style="stop-color:#ffffff" offset="0"/>
   <stop style="stop-color:#ffffff;stop-opacity:.09803922" offset=".125"/>
   <stop style="stop-color:#000000;stop-opacity:.09803922" offset=".925"/>
   <stop style="stop-color:#000000;stop-opacity:.49803922" offset="1"/>
  </linearGradient>
  <filter id="filter918" x="-.04" y="-.06" width="1.084" height="1.113" style="color-interpolation-filters:sRGB">
   <feGaussianBlur stdDeviation=".783"/>
  </filter>
 </defs>
 <g transform="translate(0,-229.26666)">
  <path transform="matrix(.26970778 0 0 .26970778 -7.1289177 220.56049)" d="m188.96876 45.999995c72.64865 0 83.03125 10.356615 83.03125 82.937505v58.125c0 72.58059-10.3826 82.9375-83.03125 82.9375h-73.9375c-72.648654 0-83.031254-10.35691-83.031254-82.9375v-58.125c0-72.58089 10.3826-82.937505 83.031254-82.937505z" style="filter:url(#filter913);opacity:.2"/>
  <path transform="matrix(.26970778 0 0 .26970778 -7.1289177 220.56049)" d="m188.96876 43.999995c72.64865 0 83.03125 10.356615 83.03125 82.937505v58.125c0 72.58059-10.3826 82.9375-83.03125 82.9375h-73.9375c-72.648654 0-83.031254-10.35691-83.031254-82.9375v-58.125c0-72.58089 10.3826-82.937505 83.031254-82.937505z" style="filter:url(#filter4569-2);opacity:.1"/>
  <path d="m23.895905 232.42763c-9.797337 0-15.39413 0.69699-18.544517 3.84334-3.150381 3.14634-3.849657 8.73736-3.849657 18.52555v15.67677c0 9.78815 0.699276 15.3792 3.849657 18.52555 3.150387 3.14636 8.7471787 3.84333 18.544517 3.84333h19.94152c9.797339 0 15.394134-0.69697 18.544517-3.84333 3.150384-3.14635 3.849659-8.7374 3.849659-18.52555v-15.67677c0-9.78819-0.699275-15.37921-3.849659-18.52555-3.150383-3.14635-8.74718-3.84334-18.544517-3.84334z" style="fill:#4d4d4d"/>
  <path d="m1.5017313 269.93387v0.53942c0 9.78815 0.699276 15.3792 3.849657 18.52555 3.150387 3.14636 8.7471787 3.84333 18.544517 3.84333h19.94152c9.797339 0 15.394134-0.69697 18.544517-3.84333 3.150384-3.14635 3.849659-8.7374 3.849659-18.52555v-0.53942c0 9.78815-0.699275 15.3792-3.849659 18.52555-3.150383 3.14636-8.747178 3.84334-18.544517 3.84334h-19.94152c-9.797338 0-15.39413-0.69698-18.544517-3.84334-3.150381-3.14635-3.849657-8.7374-3.849657-18.52555z" style="fill:#131313;opacity:.2"/>
  <path d="m33.866665 232.43642v60.41455h9.970762c19.593907 0 22.394175-2.79334 22.394175-22.36889v-15.67677c0-19.57563-2.800268-22.36889-22.394175-22.36889z" style="fill:#f2e7e7;opacity:.1"/>
  <path transform="matrix(.13485389 0 0 .13485389 -4.9712557 261.01666)" d="M 361.9375,-212 C 507.2348,-212 528,-191.28677 528,-46.125 V 70.125 C 528,215.28618 507.2348,236 361.9375,236 H 214.0625 C 68.7652,236 48,215.28618 48,70.125 V -46.125 C 48,-191.28677 68.7652,-212 214.0625,-212 Z" clip-path="url(#clipPath1082-3-5)" style="fill:none;opacity:.4;stroke-linecap:round;stroke-linejoin:round;stroke-width:8;stroke:url(#linearGradient906)"/>
  <path d="m23.895906 292.85097c-19.593906 0-22.394175-2.79325-22.394175-22.36884v-7.83837h64.729871v7.83837c0 19.57559-2.800268 22.36884-22.394175 22.36884z" style="fill:#f2e7e7;opacity:.1"/>
  <g transform="translate(-.48016997 1.8926105)" style="fill:#c2352a">
   <g style="fill:#ffffff;filter:url(#filter918);opacity:.2">
    <path d="m37.422406 244.08333c-1.252109 3.2e-4 -5.982449 1.1253-5.356579 2.0254l5.435458 7.81144 5.433336 7.81147c0.276564 0.39874 0.778694 0.65317 1.33239 0.67512 0.608166 0.0233 1.181102-0.23721 1.484896-0.67512l5.433342-7.81147 5.433336-7.81144c0.625869-0.9001-4.238264-2.00118-5.49037-2.0015l-0.657934 0.35782-6.333861 10.13877-5.761835-9.85329z" style="fill:#ffffff"/>
    <rect x="50.17" y="244.08" width="6.664" height="33.318" rx="1.11" ry="1.19" style="fill:#ffffff"/>
    <rect x="31.85" y="244.08" width="6.664" height="33.318" rx="1.11" ry="1.19" style="fill:#ffffff"/>
    <rect x="11.86" y="244.08" width="6.664" height="33.318" rx="1.11" ry="1.19" style="fill:#ffffff"/>
    <rect transform="rotate(90)" x="244.08" y="-28.52" width="6.664" height="16.659" rx="1.11" ry="1.19" style="fill:#ffffff"/>
    <rect transform="rotate(90)" x="270.74" y="-28.52" width="6.664" height="16.659" rx="1.11" ry="1.19" style="fill:#ffffff"/>
   </g>
   <g style="fill:#d85449">
    <path d="m37.422406 244.08333c-1.252109 3.2e-4 -5.982449 1.1253-5.356579 2.0254l5.435458 7.81144 5.433336 7.81147c0.276564 0.39874 0.778694 0.65317 1.33239 0.67512 0.608166 0.0233 1.181102-0.23721 1.484896-0.67512l5.433342-7.81147 5.433336-7.81144c0.625869-0.9001-4.238264-2.00118-5.49037-2.0015l-0.657934 0.35782-6.333861 10.13877-5.761835-9.85329z" style="fill:#d85449"/>
    <rect x="50.17" y="244.08" width="6.664" height="33.318" rx="1.11" ry="1.19" style="fill:#d85449"/>
    <rect x="31.85" y="244.08" width="6.664" height="33.318" rx="1.11" ry="1.19" style="fill:#d85449"/>
    <rect x="11.86" y="244.08" width="6.664" height="33.318" rx="1.11" ry="1.19" style="fill:#d85449"/>
    <rect transform="rotate(90)" x="244.08" y="-28.52" width="6.664" height="16.659" rx="1.11" ry="1.19" style="fill:#d85449"/>
    <rect transform="rotate(90)" x="270.74" y="-28.52" width="6.664" height="16.659" rx="1.11" ry="1.19" style="fill:#d85449"/>
   </g>
  </g>
 </g>
</svg>
