<svg xmlns="http://www.w3.org/2000/svg" xmlns:xlink="http://www.w3.org/1999/xlink" width="256" height="256" version="1.1" viewBox="0 0 67.73 67.73">
 <defs>
  <linearGradient id="linearGradient1108" x1="296" x2="296" y1="-212" y2="202.4" gradientTransform="translate(-2e-6,-2e-6)" gradientUnits="userSpaceOnUse" xlink:href="#linearGradient1013"/>
  <linearGradient id="linearGradient1013">
   <stop style="stop-color:#ffffff" offset="0"/>
   <stop offset=".135" style="stop-color:#ffffff;stop-opacity:0.09803922"/>
   <stop offset="1" style="stop-color:#000000;stop-opacity:0"/>
  </linearGradient>
  <clipPath id="clipPath1082-3-92" clipPathUnits="userSpaceOnUse">
   <path style="fill:#8c59d9" d="M 361.9375,-212 C 507.2348,-212 528,-191.28677 528,-46.125 V 70.125 C 528,215.28618 507.2348,236 361.9375,236 H 214.0625 C 68.7652,236 48,215.28618 48,70.125 V -46.125 C 48,-191.28677 68.7652,-212 214.0625,-212 Z"/>
  </clipPath>
  <filter id="filter920" width="1.046" height="1.05" x="-.02" y="-.03" style="color-interpolation-filters:sRGB">
   <feGaussianBlur stdDeviation="2.32"/>
  </filter>
  <filter id="filter4569" width="1.023" height="1.025" x="-.01" y="-.01" style="color-interpolation-filters:sRGB">
   <feGaussianBlur stdDeviation="1.16"/>
  </filter>
  <filter id="filter903" width="1.096" height="1.096" x="-.05" y="-.05" style="color-interpolation-filters:sRGB">
   <feGaussianBlur stdDeviation=".847"/>
  </filter>
 </defs>
 <g transform="translate(0,-229.26666)">
  <path style="opacity:0.1;filter:url(#filter4569)" d="m 188.96876,43.999995 c 72.64865,0 83.03125,10.356615 83.03125,82.937505 v 58.125 c 0,72.58059 -10.3826,82.9375 -83.03125,82.9375 h -73.9375 C 42.382606,268 32.000006,257.64309 32.000006,185.0625 v -58.125 c 0,-72.58089 10.3826,-82.937505 83.031254,-82.937505 z" transform="matrix(0.26970778,0,0,0.26970778,-7.1289177,220.56049)"/>
  <path d="m 188.96876,45.999995 c 72.64865,0 83.03125,10.356615 83.03125,82.937505 v 58.125 c 0,72.58059 -10.3826,82.9375 -83.03125,82.9375 h -73.9375 C 42.382606,270 32.000006,259.64309 32.000006,187.0625 v -58.125 c 0,-72.58089 10.3826,-82.937505 83.031254,-82.937505 z" transform="matrix(0.26970778,0,0,0.26970778,-7.1289177,220.56049)" style="opacity:0.2;filter:url(#filter920)"/>
  <path d="m 43.837442,232.42763 c 19.593904,0 22.394169,2.79326 22.394172,22.36889 v 15.67677 c 0,19.57555 -2.800271,22.36889 -22.394172,22.36889 H 23.895917 c -19.5939042,0 -22.3941728,-2.79334 -22.3941728,-22.36889 l 5e-7,-15.67677 c 8e-7,-19.57563 2.8002679,-22.36889 22.3941743,-22.36889 z" style="fill:#53c0ff"/>
  <path style="opacity:0.4;fill:none;stroke:url(#linearGradient1108);stroke-width:8;stroke-linecap:round;stroke-linejoin:round" d="M 361.9375,-212 C 507.2348,-212 528,-191.28677 528,-46.125 V 70.125 C 528,215.28618 507.2348,236 361.9375,236 H 214.0625 C 68.7652,236 48,215.28618 48,70.125 V -46.125 C 48,-191.28677 68.7652,-212 214.0625,-212 Z" clip-path="url(#clipPath1082-3-92)" transform="matrix(0.13485389,0,0,0.13485389,-4.9712557,261.01666)"/>
  <path d="m 2.1148954,243.82542 c -0.4622048,2.89126 -0.6131636,6.48639 -0.6131639,10.9711 v 15.67677 c 0,19.57554 2.8002707,22.36888 22.3941745,22.36888 h 19.94152 c 14.587924,0 19.86448,-1.55409 21.60981,-10.42378 z" style="opacity:0.05;fill:#ffffff"/>
  <path d="m 35.474577,241.46825 c 5.210625,4.4982 6.51334,9.0576 6.51334,16.22225 l 2.13724,-5.5364 c 2.25008,2.21225 3.783635,5.1434 4.23369,8.4266 0.16565,2.52475 -0.2466,4.75985 -0.897905,6.7138 2.657885,-1.6923 6.014894,-3.62615 7.451859,-6.7138 -0.95913,-10.21645 -9.171054,-18.33125 -19.438224,-19.11245 z m -3.662125,0.1205 c -10.216449,0.95915 -18.331244,9.17095 -19.112439,19.43805 4.498245,-5.2106 9.057455,-6.51315 16.222079,-6.51315 l -5.536234,-2.13725 c 2.21226,-2.25005 5.143379,-3.7835 8.426594,-4.2335 2.524655,-0.1655 4.75983,0.2465 6.71383,0.89775 -1.69229,-2.6579 -3.626155,-6.01495 -6.71383,-7.4519 z M 20.272588,257.9753 c -2.6579,1.69225 -6.015105,3.62615 -7.452045,6.7138 0.95914,10.21645 9.17108,18.3313 19.438224,19.11245 -5.210625,-4.4982 -6.513339,-9.0576 -6.513339,-16.22225 l -2.137255,5.5364 c -2.25003,-2.2122 -3.783485,-5.1434 -4.23349,-8.4266 -0.16565,-2.5247 0.2466,-4.7598 0.897905,-6.7138 z m 34.760758,6.2675 c -4.498224,5.2106 -9.057454,6.51335 -16.222094,6.51335 l 5.53622,2.13725 c -2.21222,2.2501 -5.14338,3.7836 -8.42661,4.2337 -2.524695,0.1655 -4.759815,-0.2465 -6.713815,-0.89795 1.6923,2.6579 3.626155,6.01495 6.713815,7.4519 C 46.137297,282.7219 54.252121,274.51 55.033346,264.2428 Z" style="fill-rule:evenodd;filter:url(#filter903);opacity:0.3"/>
  <path style="fill:#ecf0f1;fill-rule:evenodd" d="m 35.474577,241.46825 c 5.210625,4.4982 6.51334,9.0576 6.51334,16.22225 l 2.13724,-5.5364 c 2.25008,2.21225 3.783635,5.1434 4.23369,8.4266 0.16565,2.52475 -0.2466,4.75985 -0.897905,6.7138 2.657885,-1.6923 6.014894,-3.62615 7.451859,-6.7138 -0.95913,-10.21645 -9.171054,-18.33125 -19.438224,-19.11245 z m -3.662125,0.1205 c -10.216449,0.95915 -18.331244,9.17095 -19.112439,19.43805 4.498245,-5.2106 9.057455,-6.51315 16.222079,-6.51315 l -5.536234,-2.13725 c 2.21226,-2.25005 5.143379,-3.7835 8.426594,-4.2335 2.524655,-0.1655 4.75983,0.2465 6.71383,0.89775 -1.69229,-2.6579 -3.626155,-6.01495 -6.71383,-7.4519 z M 20.272588,257.9753 c -2.6579,1.69225 -6.015105,3.62615 -7.452045,6.7138 0.95914,10.21645 9.17108,18.3313 19.438224,19.11245 -5.210625,-4.4982 -6.513339,-9.0576 -6.513339,-16.22225 l -2.137255,5.5364 c -2.25003,-2.2122 -3.783485,-5.1434 -4.23349,-8.4266 -0.16565,-2.5247 0.2466,-4.7598 0.897905,-6.7138 z m 34.760758,6.2675 c -4.498224,5.2106 -9.057454,6.51335 -16.222094,6.51335 l 5.53622,2.13725 c -2.21222,2.2501 -5.14338,3.7836 -8.42661,4.2337 -2.524695,0.1655 -4.759815,-0.2465 -6.713815,-0.89795 1.6923,2.6579 3.626155,6.01495 6.713815,7.4519 C 46.137297,282.7219 54.252121,274.51 55.033346,264.2428 Z"/>
 </g>
</svg>
