<svg width="256" height="256" version="1.1" viewBox="0 0 67.73 67.73" xmlns="http://www.w3.org/2000/svg" xmlns:xlink="http://www.w3.org/1999/xlink">
 <defs>
  <linearGradient id="linearGradient1108" x1="296" x2="296" y1="-212" y2="202.4" gradientTransform="translate(-2e-6,-2e-6)" gradientUnits="userSpaceOnUse">
   <stop style="stop-color:#ffffff" offset="0"/>
   <stop style="stop-color:#ffffff;stop-opacity:.09803922" offset=".135"/>
   <stop style="stop-color:#000000;stop-opacity:0" offset="1"/>
  </linearGradient>
  <clipPath id="clipPath1082-3-92">
   <path d="M 361.9375,-212 C 507.2348,-212 528,-191.28677 528,-46.125 V 70.125 C 528,215.28618 507.2348,236 361.9375,236 H 214.0625 C 68.7652,236 48,215.28618 48,70.125 V -46.125 C 48,-191.28677 68.7652,-212 214.0625,-212 Z" style="fill:#8c59d9"/>
  </clipPath>
  <filter id="filter920" x="-.02" y="-.03" width="1.046" height="1.05" style="color-interpolation-filters:sRGB">
   <feGaussianBlur stdDeviation="2.32"/>
  </filter>
  <filter id="filter4569" x="-.01" y="-.01" width="1.023" height="1.025" style="color-interpolation-filters:sRGB">
   <feGaussianBlur stdDeviation="1.16"/>
  </filter>
  <filter id="filter903" x="-.05" y="-.05" width="1.096" height="1.096" style="color-interpolation-filters:sRGB">
   <feGaussianBlur stdDeviation=".847"/>
  </filter>
 </defs>
 <g transform="translate(0,-229.26666)">
  <path transform="matrix(.26970778 0 0 .26970778 -7.1289177 220.56049)" d="m188.96876 43.999995c72.64865 0 83.03125 10.356615 83.03125 82.937505v58.125c0 72.58059-10.3826 82.9375-83.03125 82.9375h-73.9375c-72.648654 0-83.031254-10.35691-83.031254-82.9375v-58.125c0-72.58089 10.3826-82.937505 83.031254-82.937505z" style="filter:url(#filter4569);opacity:.1"/>
  <path transform="matrix(.26970778 0 0 .26970778 -7.1289177 220.56049)" d="m188.96876 45.999995c72.64865 0 83.03125 10.356615 83.03125 82.937505v58.125c0 72.58059-10.3826 82.9375-83.03125 82.9375h-73.9375c-72.648654 0-83.031254-10.35691-83.031254-82.9375v-58.125c0-72.58089 10.3826-82.937505 83.031254-82.937505z" style="filter:url(#filter920);opacity:.2"/>
  <path d="m43.837442 232.42763c19.593904 0 22.394169 2.79326 22.394172 22.36889v15.67677c0 19.57555-2.800271 22.36889-22.394172 22.36889h-19.941525c-19.593904 0-22.394173-2.79334-22.394173-22.36889l5e-7 -15.67677c8e-7 -19.57563 2.8002679-22.36889 22.394174-22.36889z" style="fill:#53c0ff"/>
  <path transform="matrix(.13485389 0 0 .13485389 -4.9712557 261.01666)" d="M 361.9375,-212 C 507.2348,-212 528,-191.28677 528,-46.125 V 70.125 C 528,215.28618 507.2348,236 361.9375,236 H 214.0625 C 68.7652,236 48,215.28618 48,70.125 V -46.125 C 48,-191.28677 68.7652,-212 214.0625,-212 Z" clip-path="url(#clipPath1082-3-92)" style="fill:none;opacity:.4;stroke-linecap:round;stroke-linejoin:round;stroke-width:8;stroke:url(#linearGradient1108)"/>
  <path d="m2.1148954 243.82542c-0.4622048 2.89126-0.6131636 6.48639-0.6131639 10.9711v15.67677c0 19.57554 2.8002707 22.36888 22.394174 22.36888h19.94152c14.587924 0 19.86448-1.55409 21.60981-10.42378z" style="fill:#ffffff;opacity:.05"/>
  <path d="m35.474577 241.46825c5.210625 4.4982 6.51334 9.0576 6.51334 16.22225l2.13724-5.5364c2.25008 2.21225 3.783635 5.1434 4.23369 8.4266 0.16565 2.52475-0.2466 4.75985-0.897905 6.7138 2.657885-1.6923 6.014894-3.62615 7.451859-6.7138-0.95913-10.21645-9.171054-18.33125-19.438224-19.11245zm-3.662125 0.1205c-10.216449 0.95915-18.331244 9.17095-19.112439 19.43805 4.498245-5.2106 9.057455-6.51315 16.222079-6.51315l-5.536234-2.13725c2.21226-2.25005 5.143379-3.7835 8.426594-4.2335 2.524655-0.1655 4.75983 0.2465 6.71383 0.89775-1.69229-2.6579-3.626155-6.01495-6.71383-7.4519zm-11.539864 16.38655c-2.6579 1.69225-6.015105 3.62615-7.452045 6.7138 0.95914 10.21645 9.17108 18.3313 19.438224 19.11245-5.210625-4.4982-6.513339-9.0576-6.513339-16.22225l-2.137255 5.5364c-2.25003-2.2122-3.783485-5.1434-4.23349-8.4266-0.16565-2.5247 0.2466-4.7598 0.897905-6.7138zm34.760758 6.2675c-4.498224 5.2106-9.057454 6.51335-16.222094 6.51335l5.53622 2.13725c-2.21222 2.2501-5.14338 3.7836-8.42661 4.2337-2.524695 0.1655-4.759815-0.2465-6.713815-0.89795 1.6923 2.6579 3.626155 6.01495 6.713815 7.4519 10.216435-0.95915 18.331259-9.17105 19.112484-19.43825z" style="fill-rule:evenodd;filter:url(#filter903);opacity:.3"/>
  <path d="m35.474577 241.46825c5.210625 4.4982 6.51334 9.0576 6.51334 16.22225l2.13724-5.5364c2.25008 2.21225 3.783635 5.1434 4.23369 8.4266 0.16565 2.52475-0.2466 4.75985-0.897905 6.7138 2.657885-1.6923 6.014894-3.62615 7.451859-6.7138-0.95913-10.21645-9.171054-18.33125-19.438224-19.11245zm-3.662125 0.1205c-10.216449 0.95915-18.331244 9.17095-19.112439 19.43805 4.498245-5.2106 9.057455-6.51315 16.222079-6.51315l-5.536234-2.13725c2.21226-2.25005 5.143379-3.7835 8.426594-4.2335 2.524655-0.1655 4.75983 0.2465 6.71383 0.89775-1.69229-2.6579-3.626155-6.01495-6.71383-7.4519zm-11.539864 16.38655c-2.6579 1.69225-6.015105 3.62615-7.452045 6.7138 0.95914 10.21645 9.17108 18.3313 19.438224 19.11245-5.210625-4.4982-6.513339-9.0576-6.513339-16.22225l-2.137255 5.5364c-2.25003-2.2122-3.783485-5.1434-4.23349-8.4266-0.16565-2.5247 0.2466-4.7598 0.897905-6.7138zm34.760758 6.2675c-4.498224 5.2106-9.057454 6.51335-16.222094 6.51335l5.53622 2.13725c-2.21222 2.2501-5.14338 3.7836-8.42661 4.2337-2.524695 0.1655-4.759815-0.2465-6.713815-0.89795 1.6923 2.6579 3.626155 6.01495 6.713815 7.4519 10.216435-0.95915 18.331259-9.17105 19.112484-19.43825z" style="fill-rule:evenodd;fill:#ecf0f1"/>
 </g>
</svg>
