<svg xmlns="http://www.w3.org/2000/svg" xmlns:xlink="http://www.w3.org/1999/xlink" width="256" height="256" version="1.1" viewBox="0 0 67.73 67.73">
 <defs>
  <linearGradient id="linearGradient1013">
   <stop offset="0" style="stop-color:#ffffff"/>
   <stop style="stop-color:#ffffff;stop-opacity:0.09803922" offset=".125"/>
   <stop style="stop-color:#000000;stop-opacity:0.09803922" offset=".925"/>
   <stop offset="1" style="stop-color:#000000;stop-opacity:0.49803922"/>
  </linearGradient>
  <filter style="color-interpolation-filters:sRGB" id="filter4569" width="1.023" height="1.025" x="-.01" y="-.01">
   <feGaussianBlur stdDeviation="1.16"/>
  </filter>
  <filter style="color-interpolation-filters:sRGB" id="filter939" width="1.046" height="1.05" x="-.02" y="-.03">
   <feGaussianBlur stdDeviation="2.32"/>
  </filter>
  <clipPath id="clipPath1082-3-31-3" clipPathUnits="userSpaceOnUse">
   <path d="M 361.9375,-212 C 507.2348,-212 528,-191.28677 528,-46.125 V 70.125 C 528,215.28618 507.2348,236 361.9375,236 H 214.0625 C 68.7652,236 48,215.28618 48,70.125 V -46.125 C 48,-191.28677 68.7652,-212 214.0625,-212 Z" style="fill:#8c59d9"/>
  </clipPath>
  <clipPath id="clipPath1205-6" clipPathUnits="userSpaceOnUse">
   <path d="M 115.03125,44 C 42.3826,44 32,54.356615 32,126.9375 v 58.125 c 0,13.772 0.379014,25.29352 1.482422,34.9375 H 270.51758 C 271.62099,210.35602 272,198.8345 272,185.0625 v -58.125 C 272,54.356615 261.6174,44 188.96875,44 Z" style="fill:#f1f0e9"/>
  </clipPath>
  <filter style="color-interpolation-filters:sRGB" id="filter1171" width="1.015" height="1.053" x="-.01" y="-.03">
   <feGaussianBlur stdDeviation=".98"/>
  </filter>
  <linearGradient id="linearGradient993" x1="296" x2="296" y1="-212" y2="236" gradientUnits="userSpaceOnUse" xlink:href="#linearGradient1013"/>
 </defs>
 <g transform="translate(0,-229.26666)">
  <path style="opacity:0.2;filter:url(#filter939)" d="m 162.53675,5.5680001 c 72.64865,0 83.03125,10.3566149 83.03125,82.9375049 v 58.125005 c 0,72.58059 -10.3826,82.9375 -83.03125,82.9375 H 88.599254 C 15.9506,229.56801 5.568,219.2111 5.568,146.63051 V 88.505505 c 0,-72.58089 10.3826,-82.9375049 83.031254,-82.9375049 z" transform="matrix(0.26458333,0,0,0.26458333,-1.8735233e-8,232.67026)"/>
  <path d="m 162.53675,3.5680001 c 72.64865,0 83.03125,10.3566149 83.03125,82.9375049 v 58.125005 c 0,72.58059 -10.3826,82.9375 -83.03125,82.9375 H 88.599254 C 15.9506,227.56801 5.568,217.2111 5.568,144.63051 V 86.505505 c 0,-72.58089 10.3826,-82.9375049 83.031254,-82.9375049 z" transform="matrix(0.26458333,0,0,0.26458333,-1.8735233e-8,232.67026)" style="opacity:0.1;filter:url(#filter4569)"/>
  <path style="fill:#4f84be" d="m 23.441884,292.88095 c -19.2216206,0 -21.9686836,-2.74018 -21.9686836,-21.94387 v -15.37891 c 0,-3.64385 0.100281,-6.69225 0.392224,-9.24389 H 64.580974 c 0.291946,2.55164 0.392226,5.60004 0.392226,9.24389 v 15.37891 c 0,19.20369 -2.747063,21.94387 -21.968685,21.94387 z"/>
  <g style="enable-background:new" clip-path="url(#clipPath1205-6)" transform="matrix(0.26458333,0,0,-0.26468236,-6.9934666,304.52699)">
   <rect width="304" height="88" x="0" y="220" style="opacity:0.1;filter:url(#filter1171)"/>
   <path style="opacity:0.1;fill:#ffffff" d="M 271.65791,197.16777 70.152046,47.044698 c 11.34206,-2.26712 25.924387,-2.9609 44.658204,-2.9609 h 73.93751 c 72.64865,0 83.03125,10.35687 83.03125,82.937462 v 58.12502 c 0,4.22116 -0.0407,8.21103 -0.1211,12.02149 z"/>
  </g>
  <path style="fill:#e96ca2" d="m 1.8716254,246.29686 c 1.247372,-10.89047 6.002208,-12.70474 21.5702586,-12.70474 h 19.562631 c 15.568054,0 20.322886,1.81427 21.570259,12.70474 z"/>
  <path d="M 361.9375,-212 C 507.2348,-212 528,-191.28677 528,-46.125 V 70.125 C 528,215.28618 507.2348,236 361.9375,236 H 214.0625 C 68.7652,236 48,215.28618 48,70.125 V -46.125 C 48,-191.28677 68.7652,-212 214.0625,-212 Z" clip-path="url(#clipPath1082-3-31-3)" transform="matrix(0.13229166,0,0,0.13229166,-4.8767996,261.66013)" style="opacity:0.4;fill:none;stroke:url(#linearGradient993);stroke-width:8;stroke-linecap:round;stroke-linejoin:round"/>
  <g transform="matrix(0.25955624,0,0,0.25955624,-27.519222,-14.924123)">
   <g transform="translate(-2.0987983,6.1686748)">
    <circle style="opacity:0.2" cx="202.79" cy="1065.333" r="41.667"/>
    <circle cx="269.456" cy="1065.333" r="41.667" style="opacity:0.2"/>
    <path style="opacity:0.2;fill-rule:evenodd" d="m 236.07208,1065.3334 v 0 c -2.0457,0 -4.1287,0.75 -5.82507,2.6309 l -33.40263,27.8407 c -0.19375,0.2084 -0.34959,0.4417 -0.51924,0.6667 -0.0467,0.083 -0.0988,0.1167 -0.14252,0.1834 -0.45308,0.6415 -0.77299,1.3066 -1.04891,1.9975 -0.10622,0.275 -0.17083,0.5416 -0.25458,0.825 -0.16333,0.5415 -0.32249,1.0874 -0.38708,1.6483 -0.0542,0.4082 -0.0292,0.825 -0.0292,1.2425 0.004,0.4084 -0.0208,0.8332 0.0292,1.2416 0.0649,0.5585 0.22375,1.0992 0.38708,1.6475 0.0833,0.2834 0.14833,0.5585 0.25458,0.825 0.27583,0.6918 0.59593,1.3643 1.04891,1.9976 0.0417,0.084 0.0971,0.1167 0.14252,0.1749 0.16957,0.2167 0.32582,0.4583 0.51924,0.6834 l 33.40263,37.0983 c 1.69637,1.8816 3.77937,2.6267 5.82507,2.63 v 0 c 0.012,0 0.0249,0 0.0417,0 0.012,0 0.0249,0 0.0417,0 v 0 c 2.04667,0 4.12788,-0.7499 5.82508,-2.63 l 33.42311,-37.0983 c 0.19375,-0.2084 0.35001,-0.45 0.51926,-0.6834 0.0449,-0.084 0.10083,-0.1087 0.1425,-0.1749 0.45333,-0.6333 0.7725,-1.3067 1.04895,-1.9985 0.10583,-0.2749 0.17124,-0.5415 0.25459,-0.8249 0.16332,-0.5416 0.31208,-1.0882 0.37666,-1.6482 0.0525,-0.4084 0.0375,-0.8251 0.0417,-1.2418 0,-0.425 0.012,-0.8334 -0.0417,-1.2425 -0.065,-0.5582 -0.21375,-1.0983 -0.37666,-1.6475 -0.0842,-0.2834 -0.14834,-0.5582 -0.25459,-0.8249 -0.27625,-0.6918 -0.59565,-1.3651 -1.04891,-1.9985 -0.0434,-0.083 -0.0955,-0.1086 -0.1425,-0.1748 -0.16958,-0.2251 -0.32543,-0.4502 -0.51934,-0.6668 l -33.42299,-27.84 c -1.69724,-1.8825 -3.77842,-2.6108 -5.82508,-2.6309 v 0 c -0.012,0 -0.025,0 -0.0417,0 -0.012,0 -0.025,0 -0.0417,0 z"/>
    <circle style="fill:#ffffff" cx="269.456" cy="1061.166" r="41.667"/>
    <circle cx="202.79" cy="1061.166" r="41.667" style="fill:#ffffff"/>
    <path d="m 236.07208,1061.1667 v 0 c -2.0457,0 -4.1287,0.75 -5.82507,2.6309 l -33.40263,27.8408 c -0.19375,0.2083 -0.34959,0.4417 -0.51924,0.6666 -0.0467,0.083 -0.0988,0.1167 -0.14252,0.1834 -0.45308,0.6416 -0.77299,1.3067 -1.04891,1.9975 -0.10622,0.2751 -0.17083,0.5417 -0.25458,0.825 -0.16333,0.5416 -0.32249,1.0875 -0.38708,1.6483 -0.0542,0.4083 -0.0292,0.825 -0.0292,1.2425 0.004,0.4084 -0.0208,0.8333 0.0292,1.2416 0.0649,0.5585 0.22375,1.0993 0.38708,1.6475 0.0833,0.2834 0.14833,0.5585 0.25458,0.825 0.27583,0.6918 0.59593,1.3643 1.04891,1.9976 0.0417,0.084 0.0971,0.1167 0.14252,0.175 0.16957,0.2167 0.32582,0.4582 0.51924,0.6833 l 33.40263,37.0983 c 1.69637,1.8817 3.77937,2.6267 5.82507,2.63 v 0 c 0.012,0 0.0249,0 0.0417,0 0.012,0 0.0249,0 0.0417,0 v 0 c 2.04667,0 4.12788,-0.7499 5.82508,-2.63 l 33.42311,-37.0983 c 0.19375,-0.2084 0.35001,-0.4499 0.51926,-0.6833 0.0449,-0.084 0.10083,-0.1088 0.1425,-0.175 0.45333,-0.6333 0.7725,-1.3066 1.04895,-1.9983 0.10583,-0.2751 0.17124,-0.5417 0.25459,-0.8251 0.16332,-0.5416 0.31208,-1.0882 0.37666,-1.6482 0.0525,-0.4084 0.0375,-0.8251 0.0417,-1.2417 0,-0.4251 0.012,-0.8335 -0.0417,-1.2425 -0.065,-0.5583 -0.21375,-1.0983 -0.37666,-1.6475 -0.0842,-0.2834 -0.14834,-0.5583 -0.25459,-0.825 -0.27625,-0.6917 -0.59565,-1.365 -1.04891,-1.9984 -0.0434,-0.084 -0.0955,-0.1087 -0.1425,-0.1749 -0.16958,-0.2251 -0.32543,-0.4501 -0.51934,-0.6667 l -33.42299,-27.84 c -1.69724,-1.8826 -3.77842,-2.6109 -5.82508,-2.6309 v 0 c -0.012,0 -0.025,0 -0.0417,0 -0.012,0 -0.025,0 -0.0417,0 z" style="fill:#fcb700;fill-rule:evenodd"/>
    <circle cx="202.79" cy="1065.333" r="12.5" style="opacity:0.6"/>
    <circle style="opacity:0.6" cx="269.456" cy="1065.333" r="12.5"/>
   </g>
  </g>
 </g>
</svg>
