<svg width="256" height="256" version="1.1" viewBox="0 0 67.73 67.73" xmlns="http://www.w3.org/2000/svg" xmlns:xlink="http://www.w3.org/1999/xlink">
 <defs>
  <radialGradient id="radialGradient4404" cx="-256" cy="-256.2" r="96" gradientTransform="matrix(0 -.22048647 -.22048647 0 -23.265473 206.80309)" gradientUnits="userSpaceOnUse">
   <stop style="stop-color:#000000;stop-opacity:0" offset="0"/>
   <stop style="stop-color:#000000;stop-opacity:0" offset=".899"/>
   <stop style="stop-color:#000000;stop-opacity:.26165804" offset=".949"/>
   <stop style="stop-color:#000000" offset="1"/>
  </radialGradient>
  <filter id="filter1013" x="-.06" y="-.06" width="1.12" height="1.12" style="color-interpolation-filters:sRGB">
   <feGaussianBlur stdDeviation="3.4"/>
  </filter>
  <linearGradient id="linearGradient4301" x1="-434" x2="-82" y1="-256" y2="-256" gradientUnits="userSpaceOnUse">
   <stop style="stop-color:#000000;stop-opacity:0" offset="0"/>
   <stop style="stop-color:#000000" offset=".499"/>
   <stop style="stop-color:#000000;stop-opacity:0" offset="1"/>
  </linearGradient>
  <filter id="filter4323" x="-.01" y="-.01" width="1.024" height="1.024" style="color-interpolation-filters:sRGB">
   <feGaussianBlur stdDeviation="1.76"/>
  </filter>
  <linearGradient id="linearGradient1108" x1="296" x2="296" y1="-212" y2="236" gradientUnits="userSpaceOnUse">
   <stop style="stop-color:#ffffff" offset="0"/>
   <stop style="stop-color:#ffffff;stop-opacity:.09803922" offset=".125"/>
   <stop style="stop-color:#000000;stop-opacity:.09803922" offset=".925"/>
   <stop style="stop-color:#000000;stop-opacity:.49803922" offset="1"/>
  </linearGradient>
  <clipPath id="clipPath1082-3-367">
   <path d="M 361.9375,-212 C 507.2348,-212 528,-191.28677 528,-46.125 V 70.125 C 528,215.28618 507.2348,236 361.9375,236 H 214.0625 C 68.7652,236 48,215.28618 48,70.125 V -46.125 C 48,-191.28677 68.7652,-212 214.0625,-212 Z" style="fill:#8c59d9"/>
  </clipPath>
  <filter id="filter974" x="-.02" y="-.03" width="1.046" height="1.05" style="color-interpolation-filters:sRGB">
   <feGaussianBlur stdDeviation="2.32"/>
  </filter>
 </defs>
 <g transform="translate(0,-229.26666)">
  <path transform="matrix(.26458333 0 0 .26458333 -1.8735229e-8 232.67026)" d="m162.53675 5.5680001c72.64865 0 83.03125 10.356615 83.03125 82.937505v58.125005c0 72.58059-10.3826 82.9375-83.03125 82.9375h-73.937496c-72.648654 0-83.031254-10.35691-83.031254-82.9375v-58.125005c0-72.58089 10.3826-82.937505 83.031254-82.937505z" style="filter:url(#filter974);opacity:.2"/>
  <path d="m43.004513 233.61429c19.221622 0 21.968685 2.74019 21.968685 21.94388v15.37891c0 19.20362-2.747063 21.94388-21.968685 21.94388h-19.56263c-19.221622 0-21.968685-2.74026-21.968685-21.94388v-15.37891c0-19.20369 2.747063-21.94388 21.968685-21.94388z" style="fill:#385455"/>
  <path d="m1.473198 263.24763v7.68945c0 19.20362 2.747063 21.94388 21.968685 21.94388h19.56263c19.221622 0 21.968685-2.74026 21.968685-21.94388v-7.68945z" style="fill:#ffffff;opacity:.2"/>
  <path transform="matrix(.13229167 0 0 .13229167 -4.876802 261.66013)" d="M 361.9375,-212 C 507.2348,-212 528,-191.28677 528,-46.125 V 70.125 C 528,215.28618 507.2348,236 361.9375,236 H 214.0625 C 68.7652,236 48,215.28618 48,70.125 V -46.125 C 48,-191.28677 68.7652,-212 214.0625,-212 Z" clip-path="url(#clipPath1082-3-367)" style="fill:none;opacity:.4;stroke-linecap:round;stroke-linejoin:round;stroke-width:8;stroke:url(#linearGradient1108)"/>
  <circle transform="matrix(0 -.13229167 -.13229167 0 -.64346902 229.38096)" cx="-258" cy="-256" r="176" style="fill-opacity:.99607843;filter:url(#filter4323);opacity:.1"/>
  <circle transform="matrix(0 -.13229167 -.13229167 0 -.64347002 229.38096)" cx="-258" cy="-256" r="176" style="fill:url(#linearGradient4301);filter:url(#filter4291);opacity:.4"/>
  <circle transform="matrix(0,-1,-1,0,0,0)" cx="-263.248" cy="-33.223" r="23.283" style="fill:#f7f7f7"/>
  <circle transform="matrix(0,-1,-1,0,0,0)" cx="-263.512" cy="-33.223" r="21.167" style="fill:#ffffff"/>
  <circle transform="matrix(0,-1,-1,0,0,0)" cx="-263.248" cy="-33.223" r="21.167" style="fill:#a2db44"/>
  <circle transform="matrix(0 -.26458333 -.26458333 0 -6.993469 221.97263)" cx="-157" cy="-152" r="68" style="filter:url(#filter1013);opacity:.1"/>
  <path d="m33.223012 242.08078a21.166702 21.166702 0 0 0-21.16648 21.16685 21.166702 21.166702 0 0 0 21.16648 21.16685 21.166702 21.166702 0 0 0 21.166852-21.16685 21.166702 21.166702 0 0 0-21.166852-21.16685zm0 7.57305a13.593797 13.593797 0 0 1 13.593792 13.5938 13.593797 13.593797 0 0 1-13.593792 13.59379 13.593797 13.593797 0 0 1-13.59379-13.59379 13.593797 13.593797 0 0 1 13.59379-13.5938z" style="fill:url(#radialGradient4404);opacity:.05"/>
  <circle transform="matrix(0,-1,-1,0,0,0)" cx="-263.248" cy="-33.223" r="17.992" style="fill:#f7f7f7"/>
  <circle transform="matrix(0,-1,-1,0,0,0)" cx="-263.248" cy="-33.223" r="15.875" style="opacity:.1"/>
  <circle transform="matrix(0,-1,-1,0,0,0)" cx="-263.248" cy="-33.223" r="8.467" style="opacity:.1"/>
  <path d="m33.223197 239.96429a23.283331 23.283331 0 0 0-23.283332 23.28334 23.283331 23.283331 0 0 0 0.010848 0.21962 23.283331 23.283331 0 0 1 23.272484-22.97379 23.283331 23.283331 0 0 1 23.272481 23.06371 23.283331 23.283331 0 0 0 0.01085-0.30954 23.283331 23.283331 0 0 0-23.283334-23.28334z" style="fill:#ffffff"/>
  <path d="m31.106531 252.66429h4.233333v11.24479l-1.411113 1.32292 1.411113 1.32292v7.27604h-4.233333v-11.24479l1.411107-1.32292-1.411107-1.32292z" style="fill:#273b3c"/>
  <path d="m33.223197 245.25596a17.991667 17.991667 0 0 0-17.991665 17.99167 17.991667 17.991667 0 0 0 0.01085 0.21911 17.991667 17.991667 0 0 1 17.980812-17.68161 17.991667 17.991667 0 0 1 17.980814 17.77256 17.991667 17.991667 0 0 0 0.01085-0.31006 17.991667 17.991667 0 0 0-17.991667-17.99167z" style="fill:#ffffff"/>
 </g>
</svg>
