<?xml version="1.0" encoding="UTF-8" standalone="no"?>
<svg
   xmlns:dc="http://purl.org/dc/elements/1.1/"
   xmlns:cc="http://creativecommons.org/ns#"
   xmlns:rdf="http://www.w3.org/1999/02/22-rdf-syntax-ns#"
   xmlns:svg="http://www.w3.org/2000/svg"
   xmlns="http://www.w3.org/2000/svg"
   xmlns:xlink="http://www.w3.org/1999/xlink"
   xmlns:sodipodi="http://sodipodi.sourceforge.net/DTD/sodipodi-0.dtd"
   xmlns:inkscape="http://www.inkscape.org/namespaces/inkscape"
   width="256"
   height="256"
   version="1.1"
   viewBox="0 0 67.73 67.73"
   id="svg141"
   sodipodi:docname="cuttlefish.svg"
   inkscape:version="0.92.3 (2405546, 2018-03-11)">
  <metadata
     id="metadata145">
    <rdf:RDF>
      <cc:Work
         rdf:about="">
        <dc:format>image/svg+xml</dc:format>
        <dc:type
           rdf:resource="http://purl.org/dc/dcmitype/StillImage" />
      </cc:Work>
    </rdf:RDF>
  </metadata>
  <sodipodi:namedview
     pagecolor="#ffffff"
     bordercolor="#666666"
     borderopacity="1"
     objecttolerance="10"
     gridtolerance="10"
     guidetolerance="10"
     inkscape:pageopacity="0"
     inkscape:pageshadow="2"
     inkscape:window-width="1920"
     inkscape:window-height="1009"
     id="namedview143"
     showgrid="false"
     inkscape:zoom="3.4825455"
     inkscape:cx="128.74028"
     inkscape:cy="128.98052"
     inkscape:window-x="0"
     inkscape:window-y="34"
     inkscape:window-maximized="1"
     inkscape:current-layer="g139" />
  <defs
     id="defs59">
    <linearGradient
       id="linearGradient1108"
       x1="296"
       x2="296"
       y1="-212"
       y2="236"
       gradientUnits="userSpaceOnUse">
      <stop
         style="stop-color:#ffffff"
         offset="0"
         id="stop2" />
      <stop
         style="stop-color:#ffffff;stop-opacity:.09803922"
         offset=".125"
         id="stop4" />
      <stop
         style="stop-color:#000000;stop-opacity:.09803922"
         offset=".925"
         id="stop6" />
      <stop
         style="stop-color:#000000;stop-opacity:.49803922"
         offset="1"
         id="stop8" />
    </linearGradient>
    <clipPath
       id="clipPath1082-3-452">
      <path
         d="M 361.9375,-212 C 507.2348,-212 528,-191.28677 528,-46.125 V 70.125 C 528,215.28618 507.2348,236 361.9375,236 H 214.0625 C 68.7652,236 48,215.28618 48,70.125 V -46.125 C 48,-191.28677 68.7652,-212 214.0625,-212 Z"
         style="fill:#8c59d9"
         id="path11" />
    </clipPath>
    <filter
       id="filter1112"
       x="-.02"
       y="-.03"
       width="1.046"
       height="1.05"
       style="color-interpolation-filters:sRGB">
      <feGaussianBlur
         stdDeviation="2.32"
         id="feGaussianBlur14" />
    </filter>
    <filter
       id="filter4569"
       x="-.01"
       y="-.01"
       width="1.023"
       height="1.025"
       style="color-interpolation-filters:sRGB">
      <feGaussianBlur
         stdDeviation="1.16"
         id="feGaussianBlur17" />
    </filter>
    <linearGradient
       id="c"
       x1="25.13"
       x2="7.07"
       y1="20.16"
       y2="4.759"
       gradientTransform="matrix(1.25,0,0,1.26667,388.57,502.26)"
       gradientUnits="userSpaceOnUse">
      <stop
         stop-color="#c0392b"
         offset="0"
         id="stop20" />
      <stop
         stop-color="#b677d3"
         offset="1"
         id="stop22" />
    </linearGradient>
    <linearGradient
       id="b"
       x1="382.21"
       x2="395.45"
       y1="532.43"
       y2="526.79"
       gradientTransform="matrix(1.08253 .63333 .625 -1.09696 -357.51 852.48)"
       gradientUnits="userSpaceOnUse"
       xlink:href="#a" />
    <linearGradient
       id="a"
       x1="390.08"
       x2="389.88"
       y1="534.08"
       y2="513.54"
       gradientTransform="matrix(-1.08253 .63333 -.625 -1.09696 1174.65 852.48)"
       gradientUnits="userSpaceOnUse">
      <stop
         stop-color="#fcfcfc"
         offset="0"
         id="stop26" />
      <stop
         stop-color="#b677d3"
         offset="1"
         id="stop28" />
    </linearGradient>
    <linearGradient
       id="g"
       x1="393.1"
       x2="388.89"
       y1="524.44"
       y2="522.66"
       gradientTransform="matrix(.95819 .56059 .55321 -.97096 -270.72 815.18)"
       gradientUnits="userSpaceOnUse"
       xlink:href="#d" />
    <linearGradient
       id="d"
       x1="400.57"
       x2="392.9"
       y1="537.6"
       y2="546.58"
       gradientTransform="matrix(1.25,0,0,1.26667,-92.14,-151.08)"
       gradientUnits="userSpaceOnUse">
      <stop
         stop-color="#ffc35a"
         offset="0"
         id="stop32" />
      <stop
         stop-color="#faae2a"
         offset="1"
         id="stop34" />
    </linearGradient>
    <linearGradient
       id="h"
       x1="392.69"
       x2="389.45"
       y1="522.9"
       y2="521.73"
       gradientTransform="matrix(-.95819 .56059 -.55321 -.97096 1087.86 815.18)"
       gradientUnits="userSpaceOnUse"
       xlink:href="#d" />
    <linearGradient
       id="f"
       x1="390.57"
       x2="386.57"
       y1="535.36"
       y2="540.75"
       gradientTransform="matrix(1.25,0,0,1.26667,-92.14,-151.08)"
       gradientUnits="userSpaceOnUse">
      <stop
         stop-color="#fdbc4b"
         offset="0"
         id="stop38" />
      <stop
         stop-color="#dde341"
         offset="1"
         id="stop40" />
    </linearGradient>
    <linearGradient
       id="n"
       x1="396.57"
       x2="389.57"
       y1="535.8"
       y2="542.8"
       gradientTransform="matrix(-1.25,0,0,1.26667,919.29,-151.08)"
       gradientUnits="userSpaceOnUse"
       xlink:href="#l" />
    <linearGradient
       id="l"
       x1="396.57"
       x2="389.57"
       y1="535.8"
       y2="542.8"
       gradientTransform="matrix(-1.25,0,0,1.26667,909.29,-152.35)"
       gradientUnits="userSpaceOnUse">
      <stop
         offset="0"
         id="stop44" />
      <stop
         stop-opacity="0"
         offset="1"
         id="stop46" />
    </linearGradient>
    <linearGradient
       id="i"
       x1="390.57"
       x2="386.57"
       y1="535.36"
       y2="540.75"
       gradientTransform="matrix(-1.25,0,0,1.26667,909.29,-151.08)"
       gradientUnits="userSpaceOnUse"
       xlink:href="#d" />
    <linearGradient
       id="m"
       x1="396.57"
       x2="389.57"
       y1="535.8"
       y2="542.8"
       gradientTransform="matrix(-1.25,0,0,1.26667,914.29,-151.08)"
       gradientUnits="userSpaceOnUse"
       xlink:href="#l" />
    <linearGradient
       id="j"
       x1="393.43"
       x2="390.56"
       y1="538.07"
       y2="539.31"
       gradientTransform="matrix(-1.25,0,0,1.26667,909.29,-151.08)"
       gradientUnits="userSpaceOnUse"
       xlink:href="#d" />
    <linearGradient
       id="k"
       x1="400.57"
       x2="392.9"
       y1="537.6"
       y2="546.58"
       gradientTransform="matrix(-1.25,0,0,1.26667,909.29,-151.08)"
       gradientUnits="userSpaceOnUse"
       xlink:href="#d" />
    <linearGradient
       id="p"
       x1="390.57"
       x2="386.57"
       y1="535.36"
       y2="540.75"
       gradientTransform="matrix(1.25,0,0,1.26667,-92.14,-151.08)"
       gradientUnits="userSpaceOnUse"
       xlink:href="#d" />
    <linearGradient
       id="e"
       x1="393.43"
       x2="390.56"
       y1="538.07"
       y2="539.31"
       gradientTransform="matrix(1.25,0,0,1.26667,-92.14,-151.08)"
       gradientUnits="userSpaceOnUse"
       xlink:href="#d" />
    <linearGradient
       id="o"
       x1="396.57"
       x2="384.57"
       y1="535.8"
       y2="547.8"
       gradientTransform="matrix(-1.25,0,0,1.26667,890.54,-167.55)"
       gradientUnits="userSpaceOnUse"
       xlink:href="#l" />
    <linearGradient
       id="linearGradient1044"
       x1="390.08"
       x2="389.88"
       y1="534.08"
       y2="513.54"
       gradientTransform="matrix(-1.08253 .63333 -.625 -1.09696 1174.65 852.48)"
       gradientUnits="userSpaceOnUse"
       xlink:href="#a" />
    <linearGradient
       id="linearGradient1046"
       x1="396.57"
       x2="389.57"
       y1="535.8"
       y2="542.8"
       gradientTransform="matrix(-1.25,0,0,1.26667,909.29,-152.35)"
       gradientUnits="userSpaceOnUse"
       xlink:href="#l" />
    <linearGradient
       id="linearGradient1048"
       x1="400.57"
       x2="392.9"
       y1="537.6"
       y2="546.58"
       gradientTransform="matrix(1.25,0,0,1.26667,-92.14,-151.08)"
       gradientUnits="userSpaceOnUse"
       xlink:href="#d" />
  </defs>
  <g
     transform="translate(0,-229.26666)"
     id="g139">
    <path
       transform="matrix(.26970778 0 0 .26970778 -7.1289177 220.56049)"
       d="m188.96876 43.999995c72.64865 0 83.03125 10.356615 83.03125 82.937505v58.125c0 72.58059-10.3826 82.9375-83.03125 82.9375h-73.9375c-72.648654 0-83.031254-10.35691-83.031254-82.9375v-58.125c0-72.58089 10.3826-82.937505 83.031254-82.937505z"
       style="filter:url(#filter4569);opacity:.1"
       id="path61" />
    <path
       transform="matrix(.26970778 0 0 .26970778 -7.1289177 220.56049)"
       d="m188.96876 45.999995c72.64865 0 83.03125 10.356615 83.03125 82.937505v58.125c0 72.58059-10.3826 82.9375-83.03125 82.9375h-73.9375c-72.648654 0-83.031254-10.35691-83.031254-82.9375v-58.125c0-72.58089 10.3826-82.937505 83.031254-82.937505z"
       style="filter:url(#filter1112);opacity:.2"
       id="path63" />
    <path
       d="m43.837426 232.42763c19.593907 0 22.394175 2.79326 22.394175 22.36889v15.67677c0 19.57555-2.800268 22.36888-22.394175 22.36888h-19.94152c-19.593906 0-22.394174-2.79333-22.394174-22.36888v-15.67677c0-19.57563 2.8002681-22.36889 22.394174-22.36889z"
       style="fill:#e98f19"
       id="path65" />
    <path
       transform="matrix(.13485389 0 0 .13485389 -4.9712557 261.01666)"
       d="M 361.9375,-212 C 507.2348,-212 528,-191.28677 528,-46.125 V 70.125 C 528,215.28618 507.2348,236 361.9375,236 H 214.0625 C 68.7652,236 48,215.28618 48,70.125 V -46.125 C 48,-191.28677 68.7652,-212 214.0625,-212 Z"
       clip-path="url(#clipPath1082-3-452)"
       style="fill:none;opacity:.4;stroke-linecap:round;stroke-linejoin:round;stroke-width:8;stroke:url(#linearGradient1108)"
       id="path67" />
    <path
       d="m1.5017316 262.6349v7.83839c0 19.57555 2.8002681 22.36888 22.394174 22.36888h19.94152c19.593907 0 22.394175-2.79333 22.394175-22.36888v-7.83839z"
       style="fill:#ffffff;opacity:.1"
       id="path69" />
    <g
       transform="matrix(.26458333 0 0 .27850835 -95.341641 122.23276)"
       id="g137">
      <g
         transform="translate(-3.3927711,22.854974)"
         id="g135">
        <path
           d="m491.73101 380.47669c-0.39926 0-0.78166 0.0507-1.18094 0.0561-3.734 10.99961-0.14055 25.13716 6.96192 28.56188 7.64801 3.68902 24.34986-3.77902 29.63034-15.00919 1.00661-2.14257 1.40026-4.25137 1.52398-6.3152-11.40452-4.6619-23.84374-7.28809-36.92967-7.28809m-6.56265 0.33179c-15.29034 1.01784-29.57973 5.4998-42.14829 12.7429 1.37778 3.68904 4.26262 6.87757 8.62085 9.40252 9.55437 5.53917 26.14938 6.40519 32.12718-4.17264 2.72178-4.81936 2.85675-11.5451 1.40026-17.97278m46.56839 16.49941c-3.43597 0-12.43924 7.0294-12.43924 10.14483 0 3.10982 7.23185 11.03334 10.66782 11.03334 3.43598 0 2.2269-10.63407 2.2269-13.74387 0-3.10982 2.9861-7.42868-0.45548-7.42868m-74.83783 9.5881c-4.56069-0.42176-10.86465 4.6844-12.383 7.52426-1.73766 3.24479-1.86138 11.71381 2.63743 14.18817 4.49884 2.47436 8.41842-3.10982 10.1617-6.3602 1.73767-3.24479 5.91033-12.34365 1.4115-14.818-0.56233-0.30929-1.17531-0.48362-1.82763-0.54547m27.66209 1.11346c-4.98805 0.0676-10.66217 1.71518-15.33534 3.92521-9.34628 4.41447-11.15706 15.66714-7.31619 24.01243 3.83522 8.3453 9.20007 11.52261 18.54638 7.10814 9.34628-4.41447 19.14808-21.06571 15.30721-29.41101-1.91762-4.17267-6.21399-5.69664-11.20206-5.62353m26.56553 3.75651c-2.01883 0.16873-4.13329 0.82105-6.32645 2.00197-8.77272 4.74062-11.84316 18.58012-7.40057 27.03228s16.49941 12.82162 25.27773 8.081c8.7727-4.74064 7.39494-19.03562 2.95235-27.4934-3.33476-6.33771-8.44653-10.12795-14.49745-9.62745m25.03029 12.73162c-5.10615 0.31493-5.50542 7.15314-5.28611 10.83653 0.21934 3.68904 1.42837 13.64268 6.53453 13.32775 5.10617-0.31491 8.62086-9.86364 8.40157-13.55269-0.21933-3.68903-4.54382-10.9265-9.64999-10.61719m-49.41387 19.31116c-6.78758-0.10673-14.21063 4.69563-17.56226 9.83555-4.46507 6.84944-6.65825 12.58544 1.12469 17.79282 7.78299 5.21299 19.92979 4.3301 24.39485-2.51934 4.46509-6.84945 6.21961-17.97839-1.56335-23.19141-1.94572-1.30465-4.13327-1.88388-6.39956-1.91762m-23.17453 1.70956c-2.78364 0-6.82131 2.12569-6.82131 5.8597 0 3.73403 1.81637 5.39858 4.60004 5.39858 2.78364 0 5.49415-1.66455 5.49415-5.39858 0-3.73401-0.48361-5.8597-3.26725-5.8597m44.38646 8.10912c-4.29637 0-8.2216 8.28344-8.2216 13.50769 0 5.22424 5.69664 5.40982 9.993 5.40982 4.29637 0 10.00988-4.2345 10.00988-9.45876 0-5.22425-7.48492-9.45875-11.78128-9.45875"
           style="fill:#bc2bc0"
           id="path123" />
        <path
           d="m399.00101 509.3565a28.141956 49.818505 14.633555 0 1-14.42423-55.53716 28.141956 49.818505 14.633555 0 1 39.89496-40.78846 28.141956 49.818505 14.633555 0 1 3.07916 1.25617 28.142181 99.636347 14.778482 0 1-9.02453 48.75019 28.142181 99.636347 14.778482 0 1-16.2604 46.81925 28.141956 49.818505 14.633555 0 1-3.26492-0.50049"
           style="fill:#fcfcfc"
           id="path125" />
        <path
           d="m381.97896 469.36264a28.141956 49.818505 14.633555 0 1 2.59371-15.54314 28.141956 49.818505 14.633555 0 1 1.28252-4.30997c9.64994 1.29903 9.86928-1.09095 15.21161-2.1538 5.96095-1.18657 17.13487 10.06047 7.46805 8.36779-9.66121-1.69268-12.48984 13.8676-25.63202 13.71014-0.4049-5e-3 -0.54548-0.062-0.92224-0.0731"
           style="fill-rule:evenodd;fill:#2c3e50"
           id="path127" />
        <path
           d="m584.47735 509.3565a49.818505 28.141956 75.36644 0 0 14.42413-55.53716 49.818505 28.141956 75.36644 0 0-39.89493-40.78846 49.818505 28.141956 75.36644 0 0-3.07917 1.25617 99.636347 28.142181 75.22152 0 0 9.02459 48.75019 99.636347 28.142181 75.22152 0 0 16.26041 46.81925 49.818505 28.141956 75.36644 0 0 3.26489-0.50049"
           style="fill:#fcfcfc"
           id="path129" />
        <g
           transform="matrix(5.6235214,0,0,5.6235214,-1805.8711,-2458.277)"
           style="fill-rule:evenodd"
           id="g133">
          <path
             d="m428.0895 520.6061a8.858952 5.00433 75.36644 0 0-0.46122-2.76395 8.858952 5.00433 75.36644 0 0-0.22806-0.76642c-1.716 0.231-1.755-0.194-2.705-0.383-1.06-0.211-3.047 1.789-1.328 1.488 1.718-0.301 2.221 2.466 4.558 2.438 0.072-1e-3 0.097-0.011 0.164-0.013"
             style="fill:#2c3e50"
             id="path131" />
        </g>
      </g>
    </g>
  </g>
</svg>
