<svg xmlns="http://www.w3.org/2000/svg" xmlns:xlink="http://www.w3.org/1999/xlink" width="256" height="256" version="1.1" viewBox="0 0 67.73 67.73">
 <defs>
  <linearGradient id="linearGradient1108" x1="296" x2="296" y1="-212" y2="236" gradientUnits="userSpaceOnUse" xlink:href="#linearGradient1013"/>
  <linearGradient id="linearGradient1013">
   <stop offset="0" style="stop-color:#ffffff"/>
   <stop style="stop-color:#ffffff;stop-opacity:0.09803922" offset=".125"/>
   <stop style="stop-color:#000000;stop-opacity:0.09803922" offset=".925"/>
   <stop offset="1" style="stop-color:#000000;stop-opacity:0.49803922"/>
  </linearGradient>
  <clipPath id="clipPath1082-3-452" clipPathUnits="userSpaceOnUse">
   <path d="M 361.9375,-212 C 507.2348,-212 528,-191.28677 528,-46.125 V 70.125 C 528,215.28618 507.2348,236 361.9375,236 H 214.0625 C 68.7652,236 48,215.28618 48,70.125 V -46.125 C 48,-191.28677 68.7652,-212 214.0625,-212 Z" style="fill:#8c59d9"/>
  </clipPath>
  <filter style="color-interpolation-filters:sRGB" id="filter1112" width="1.046" height="1.05" x="-.02" y="-.03">
   <feGaussianBlur stdDeviation="2.32"/>
  </filter>
  <filter style="color-interpolation-filters:sRGB" id="filter4569" width="1.023" height="1.025" x="-.01" y="-.01">
   <feGaussianBlur stdDeviation="1.16"/>
  </filter>
  <linearGradient id="c" x1="25.13" x2="7.07" y1="20.16" y2="4.759" gradientTransform="matrix(1.25,0,0,1.26667,388.57,502.26)" gradientUnits="userSpaceOnUse">
   <stop stop-color="#c0392b"/>
   <stop offset="1" stop-color="#b677d3"/>
  </linearGradient>
  <linearGradient id="b" x1="382.21" x2="395.45" y1="532.43" y2="526.79" gradientTransform="matrix(1.08253,0.63333,0.625,-1.09696,-357.51,852.48)" gradientUnits="userSpaceOnUse" xlink:href="#a"/>
  <linearGradient id="a" x1="390.08" x2="389.88" y1="534.08" y2="513.54" gradientTransform="matrix(-1.08253,0.63333,-0.625,-1.09696,1174.65,852.48)" gradientUnits="userSpaceOnUse">
   <stop stop-color="#fcfcfc"/>
   <stop offset="1" stop-color="#b677d3"/>
  </linearGradient>
  <linearGradient id="g" x1="393.1" x2="388.89" y1="524.44" y2="522.66" gradientTransform="matrix(0.95819,0.56059,0.55321,-0.97096,-270.72,815.18)" gradientUnits="userSpaceOnUse" xlink:href="#d"/>
  <linearGradient id="d" x1="400.57" x2="392.9" y1="537.6" y2="546.58" gradientTransform="matrix(1.25,0,0,1.26667,-92.14,-151.08)" gradientUnits="userSpaceOnUse">
   <stop stop-color="#ffc35a"/>
   <stop offset="1" stop-color="#faae2a"/>
  </linearGradient>
  <linearGradient id="h" x1="392.69" x2="389.45" y1="522.9" y2="521.73" gradientTransform="matrix(-0.95819,0.56059,-0.55321,-0.97096,1087.86,815.18)" gradientUnits="userSpaceOnUse" xlink:href="#d"/>
  <linearGradient id="f" x1="390.57" x2="386.57" y1="535.36" y2="540.75" gradientTransform="matrix(1.25,0,0,1.26667,-92.14,-151.08)" gradientUnits="userSpaceOnUse">
   <stop stop-color="#fdbc4b"/>
   <stop offset="1" stop-color="#dde341"/>
  </linearGradient>
  <linearGradient id="n" x1="396.57" x2="389.57" y1="535.8" y2="542.8" gradientTransform="matrix(-1.25,0,0,1.26667,919.29,-151.08)" gradientUnits="userSpaceOnUse" xlink:href="#l"/>
  <linearGradient id="l" x1="396.57" x2="389.57" y1="535.8" y2="542.8" gradientTransform="matrix(-1.25,0,0,1.26667,909.29,-152.35)" gradientUnits="userSpaceOnUse">
   <stop/>
   <stop offset="1" stop-opacity="0"/>
  </linearGradient>
  <linearGradient id="i" x1="390.57" x2="386.57" y1="535.36" y2="540.75" gradientTransform="matrix(-1.25,0,0,1.26667,909.29,-151.08)" gradientUnits="userSpaceOnUse" xlink:href="#d"/>
  <linearGradient id="m" x1="396.57" x2="389.57" y1="535.8" y2="542.8" gradientTransform="matrix(-1.25,0,0,1.26667,914.29,-151.08)" gradientUnits="userSpaceOnUse" xlink:href="#l"/>
  <linearGradient id="j" x1="393.43" x2="390.56" y1="538.07" y2="539.31" gradientTransform="matrix(-1.25,0,0,1.26667,909.29,-151.08)" gradientUnits="userSpaceOnUse" xlink:href="#d"/>
  <linearGradient id="k" x1="400.57" x2="392.9" y1="537.6" y2="546.58" gradientTransform="matrix(-1.25,0,0,1.26667,909.29,-151.08)" gradientUnits="userSpaceOnUse" xlink:href="#d"/>
  <linearGradient id="p" x1="390.57" x2="386.57" y1="535.36" y2="540.75" gradientTransform="matrix(1.25,0,0,1.26667,-92.14,-151.08)" gradientUnits="userSpaceOnUse" xlink:href="#d"/>
  <linearGradient id="e" x1="393.43" x2="390.56" y1="538.07" y2="539.31" gradientTransform="matrix(1.25,0,0,1.26667,-92.14,-151.08)" gradientUnits="userSpaceOnUse" xlink:href="#d"/>
  <linearGradient id="o" x1="396.57" x2="384.57" y1="535.8" y2="547.8" gradientTransform="matrix(-1.25,0,0,1.26667,890.54,-167.55)" gradientUnits="userSpaceOnUse" xlink:href="#l"/>
  <linearGradient id="linearGradient1044" x1="390.08" x2="389.88" y1="534.08" y2="513.54" gradientTransform="matrix(-1.08253,0.63333,-0.625,-1.09696,1174.65,852.48)" gradientUnits="userSpaceOnUse" xlink:href="#a"/>
  <linearGradient id="linearGradient1046" x1="396.57" x2="389.57" y1="535.8" y2="542.8" gradientTransform="matrix(-1.25,0,0,1.26667,909.29,-152.35)" gradientUnits="userSpaceOnUse" xlink:href="#l"/>
  <linearGradient id="linearGradient1048" x1="400.57" x2="392.9" y1="537.6" y2="546.58" gradientTransform="matrix(1.25,0,0,1.26667,-92.14,-151.08)" gradientUnits="userSpaceOnUse" xlink:href="#d"/>
 </defs>
 <g transform="translate(0,-229.26666)">
  <path d="m 188.96876,43.999995 c 72.64865,0 83.03125,10.356615 83.03125,82.937505 v 58.125 c 0,72.58059 -10.3826,82.9375 -83.03125,82.9375 h -73.9375 C 42.382606,268 32.000006,257.64309 32.000006,185.0625 v -58.125 c 0,-72.58089 10.3826,-82.937505 83.031254,-82.937505 z" transform="matrix(0.26970778,0,0,0.26970778,-7.1289177,220.56049)" style="opacity:0.1;filter:url(#filter4569)"/>
  <path style="opacity:0.2;filter:url(#filter1112)" d="m 188.96876,45.999995 c 72.64865,0 83.03125,10.356615 83.03125,82.937505 v 58.125 c 0,72.58059 -10.3826,82.9375 -83.03125,82.9375 h -73.9375 C 42.382606,270 32.000006,259.64309 32.000006,187.0625 v -58.125 c 0,-72.58089 10.3826,-82.937505 83.031254,-82.937505 z" transform="matrix(0.26970778,0,0,0.26970778,-7.1289177,220.56049)"/>
  <path style="fill:#e98f19" d="m 43.837426,232.42763 c 19.593907,0 22.394175,2.79326 22.394175,22.36889 v 15.67677 c 0,19.57555 -2.800268,22.36888 -22.394175,22.36888 h -19.94152 c -19.5939063,0 -22.3941744,-2.79333 -22.3941744,-22.36888 v -15.67677 c 0,-19.57563 2.8002681,-22.36889 22.3941744,-22.36889 z"/>
  <path d="M 361.9375,-212 C 507.2348,-212 528,-191.28677 528,-46.125 V 70.125 C 528,215.28618 507.2348,236 361.9375,236 H 214.0625 C 68.7652,236 48,215.28618 48,70.125 V -46.125 C 48,-191.28677 68.7652,-212 214.0625,-212 Z" clip-path="url(#clipPath1082-3-452)" transform="matrix(0.13485389,0,0,0.13485389,-4.9712557,261.01666)" style="opacity:0.4;fill:none;stroke:url(#linearGradient1108);stroke-width:8;stroke-linecap:round;stroke-linejoin:round"/>
  <path style="opacity:0.1;fill:#ffffff" d="m 1.5017316,262.6349 v 7.83839 c 0,19.57555 2.8002681,22.36888 22.3941744,22.36888 h 19.94152 c 19.593907,0 22.394175,-2.79333 22.394175,-22.36888 v -7.83839 z"/>
  <g transform="matrix(1,0,0,1.05263,-388.57044,-531.36762)">
   <path style="fill:#ffc35a" d="m 408.57,504.8 c 9.695,0 17.5,7.909 17.5,17.733 0,9.824 -7.805,11.4 -17.5,11.4 -9.695,0 -17.5,-1.576 -17.5,-11.4 0,-9.824 7.805,-17.733 17.5,-17.733"/>
   <path style="fill:url(#c)" d="m 408.57,504.8 c -0.071,0 -0.139,0.009 -0.21,0.01 -0.664,1.956 -0.025,4.47 1.238,5.079 1.36,0.656 4.33,-0.672 5.269,-2.669 0.179,-0.381 0.249,-0.756 0.271,-1.123 -2.028,-0.829 -4.24,-1.296 -6.567,-1.296 m -1.167,0.059 c -2.719,0.181 -5.26,0.978 -7.495,2.266 0.245,0.656 0.758,1.223 1.533,1.672 1.699,0.985 4.65,1.139 5.713,-0.742 0.484,-0.857 0.508,-2.053 0.249,-3.196 m 8.281,2.934 c -0.611,0 -2.212,1.25 -2.212,1.804 0,0.553 1.286,1.962 1.897,1.962 0.611,0 0.396,-1.891 0.396,-2.444 0,-0.553 0.531,-1.321 -0.081,-1.321 m -13.308,1.705 c -0.811,-0.075 -1.932,0.833 -2.202,1.338 -0.309,0.577 -0.331,2.083 0.469,2.523 0.8,0.44 1.497,-0.553 1.807,-1.131 0.309,-0.577 1.051,-2.195 0.251,-2.635 -0.1,-0.055 -0.209,-0.086 -0.325,-0.097 m 4.919,0.198 c -0.887,0.012 -1.896,0.305 -2.727,0.698 -1.662,0.785 -1.984,2.786 -1.301,4.27 0.682,1.484 1.636,2.049 3.298,1.264 1.662,-0.785 3.405,-3.746 2.722,-5.23 -0.341,-0.742 -1.105,-1.013 -1.992,-1 m 4.724,0.668 c -0.359,0.03 -0.735,0.146 -1.125,0.356 -1.56,0.843 -2.106,3.304 -1.316,4.807 0.79,1.503 2.934,2.28 4.495,1.437 1.56,-0.843 1.315,-3.385 0.525,-4.889 -0.593,-1.127 -1.502,-1.801 -2.578,-1.712 m 4.451,2.264 c -0.908,0.056 -0.979,1.272 -0.94,1.927 0.039,0.656 0.254,2.426 1.162,2.37 0.908,-0.056 1.533,-1.754 1.494,-2.41 -0.039,-0.656 -0.808,-1.943 -1.716,-1.888 m -8.787,3.434 c -1.207,-0.019 -2.527,0.835 -3.123,1.749 -0.794,1.218 -1.184,2.238 0.2,3.164 1.384,0.927 3.544,0.77 4.338,-0.448 0.794,-1.218 1.106,-3.197 -0.278,-4.124 -0.346,-0.232 -0.735,-0.335 -1.138,-0.341 m -4.121,0.304 c -0.495,0 -1.213,0.378 -1.213,1.042 0,0.664 0.323,0.96 0.818,0.96 0.495,0 0.977,-0.296 0.977,-0.96 0,-0.664 -0.086,-1.042 -0.581,-1.042 m 7.893,1.442 c -0.764,0 -1.462,1.473 -1.462,2.402 0,0.929 1.013,0.962 1.777,0.962 0.764,0 1.78,-0.753 1.78,-1.682 0,-0.929 -1.331,-1.682 -2.095,-1.682"/>
   <path style="fill:url(#b)" d="m 392.08033,527.71799 a 5.00433,8.858952 14.633555 0 1 -2.56498,-9.87587 5.00433,8.858952 14.633555 0 1 7.0943,-7.25319 5.00433,8.858952 14.633555 0 1 0.54755,0.22338 5.00437,17.717786 14.778482 0 1 -1.60478,8.66898 5.00437,17.717786 14.778482 0 1 -2.8915,8.32561 5.00433,8.858952 14.633555 0 1 -0.58058,-0.089"/>
   <path style="fill:#2c3e50;fill-rule:evenodd" d="m 389.05339,520.6061 a 5.00433,8.858952 14.633555 0 1 0.46123,-2.76395 5.00433,8.858952 14.633555 0 1 0.22806,-0.76642 c 1.716,0.231 1.755,-0.194 2.705,-0.383 1.06,-0.211 3.047,1.789 1.328,1.488 -1.718,-0.301 -2.221,2.466 -4.558,2.438 -0.072,-10e-4 -0.097,-0.011 -0.164,-0.013"/>
   <path style="fill:url(#linearGradient1044)" d="m 425.06257,527.71799 a 8.858952,5.00433 75.36644 0 0 2.56497,-9.87587 8.858952,5.00433 75.36644 0 0 -7.0943,-7.25319 8.858952,5.00433 75.36644 0 0 -0.54755,0.22338 17.717786,5.00437 75.22152 0 0 1.60479,8.66898 17.717786,5.00437 75.22152 0 0 2.8915,8.32561 8.858952,5.00433 75.36644 0 0 0.58058,-0.089"/>
   <g style="fill-rule:evenodd">
    <path style="fill:#2c3e50" d="m 428.0895,520.6061 a 8.858952,5.00433 75.36644 0 0 -0.46122,-2.76395 8.858952,5.00433 75.36644 0 0 -0.22806,-0.76642 c -1.716,0.231 -1.755,-0.194 -2.705,-0.383 -1.06,-0.211 -3.047,1.789 -1.328,1.488 1.718,-0.301 2.221,2.466 4.558,2.438 0.072,-10e-4 0.097,-0.011 0.164,-0.013"/>
    <g style="fill:#ffc35a">
     <path d="m 399.91,508.61 c 0,0 -5,-1.267 -5,1.267 0,1.267 1.25,5.067 1.25,7.6 0,2.533 2.5,-3.8 2.5,-3.8 z"/>
     <path d="m 417.32,508.6 c 0,0 5,-1.267 5,1.267 0,1.267 -1.25,5.067 -1.25,7.6 0,2.533 -2.5,-3.8 -2.5,-3.8 z"/>
    </g>
    <path style="fill:url(#g)" d="m 394.51,530.13 c 0,0 -4.386,-1.271 -3.28,-3.213 0.553,-0.971 3.171,-3.323 4.277,-5.265 1.106,-1.942 0.257,4.03 0.257,4.03 z"/>
    <path style="fill:url(#h)" d="m 422.64,530.13 c 0,0 4.386,-1.271 3.28,-3.213 -0.553,-0.971 -3.171,-3.323 -4.277,-5.265 -1.106,-1.942 -0.257,4.03 -0.257,4.03 z"/>
   </g>
   <path d="m 104.46279,368.18879 c -0.99219,0.67018 0,1.34064 -0.66146,2.01083 -0.66145,0.67019 -0.99218,0.33523 -0.99218,0.67019 0,0.33523 0.99218,1.00541 1.65364,0.33523 0.66146,-0.67019 0.66146,-1.00542 0.66146,-1.00542 0,0 0.66146,-0.67019 0.33073,-1.34065 -0.33073,-0.67018 -0.99219,-0.67018 -0.99219,-0.67018" style="fill:url(#f);fill-rule:evenodd"/>
   <g style="fill-rule:evenodd">
    <path style="opacity:0.1;fill:url(#n)" d="m 423.57,526.33 v 3.459 c 0.697,-0.284 1.578,-0.739 2.097,-1.333 z"/>
    <path style="fill:url(#i)" d="m 422.32,525.06 c 3.75,2.533 0,5.067 2.5,7.6 2.5,2.533 3.75,1.267 3.75,2.533 0,1.267 -3.75,3.8 -6.25,1.267 -2.5,-2.533 -2.5,-3.8 -2.5,-3.8 0,0 -2.5,-2.533 -1.25,-5.067 1.25,-2.533 3.75,-2.533 3.75,-2.533"/>
    <path style="opacity:0.1;fill:url(#m)" d="m 419.05,526.82 c -0.173,0.23 -0.338,0.483 -0.483,0.777 v 3.097 c 0.47,1.154 1.25,1.969 1.25,1.969 0,0 0,1.267 2.5,3.8 2.01,2.04 4.804,0.796 5.828,-0.428 l -3.328,-3.372 z"/>
    <path style="fill:url(#j)" d="m 415.11,537.93 c 0.971,3.671 6.827,4.075 8.466,2.338 1.639,-1.737 -1.782,-1.53 -2.429,-3.977 -0.647,-2.447 0.884,-1.551 -0.087,-5.222 -0.971,-3.671 -3.734,-6 -3.734,-6 l -5,2.533 z"/>
    <path style="opacity:0.1;fill:url(#linearGradient1046)" d="m 413.82,526.33 -0.25,0.633 v 5.272 l 1.533,5.69 c 0.971,3.671 6.828,4.075 8.467,2.338 1.639,-1.737 -1.752,-1.536 -2.429,-3.976 -0.474,-1.707 0.059,-1.653 0.137,-2.415 z"/>
    <path style="fill:url(#k)" d="m 408.57,531.4 v 5.067 c 0,3.8 3.75,6.333 7.5,6.333 3.75,0 -1.25,-2.533 0,-6.333 1.25,-3.8 -2.5,-11.4 -2.5,-11.4 l -5,1.267 z"/>
   </g>
   <path d="m 104.46279,368.18879 c -0.99219,0.67018 0,1.34064 -0.66146,2.01083 -0.66145,0.67019 -0.99218,0.33523 -0.99218,0.67019 0,0.33523 0.99218,1.00541 1.65364,0.33523 0.66146,-0.67019 0.66146,-1.00542 0.66146,-1.00542 0,0 0.66146,-0.67019 0.33073,-1.34065 -0.33073,-0.67018 -0.99219,-0.67018 -0.99219,-0.67018" style="fill:url(#p);fill-rule:evenodd"/>
   <g style="fill-rule:evenodd">
    <path style="fill:url(#e)" d="m 402.04,537.93 c -0.971,3.671 -6.827,4.075 -8.466,2.338 -1.639,-1.737 1.782,-1.53 2.429,-3.977 0.647,-2.447 -0.884,-1.551 0.087,-5.222 0.971,-3.671 3.734,-6 3.734,-6 l 5,2.533 z"/>
    <path style="fill:url(#linearGradient1048)" d="m 408.57,531.4 v 5.067 c 0,3.8 -3.75,6.333 -7.5,6.333 -3.75,0 1.25,-2.533 0,-6.333 -1.25,-3.8 2.5,-11.4 2.5,-11.4 l 5,1.267 z"/>
    <path style="opacity:0.1;fill:url(#o)" d="m 394.92,509.97 c 0.038,1.255 1.098,4.611 1.216,7.083 a 5.00437,17.717786 14.778482 0 1 -0.58594,2.4319 5.00437,17.717786 14.778482 0 1 -1.09862,3.66887 c -1.23,1.529 -2.812,3.038 -3.228,3.768 -0.013,0.023 -0.013,0.044 -0.024,0.067 l -0.129,0.614 0.688,1.163 c 0.417,0.353 0.947,0.638 1.438,0.861 0.12,1.014 0.125,2.029 -0.876,3.043 -2.5,2.533 -3.75,1.267 -3.75,2.533 0,1.267 3.75,3.8 6.25,1.267 0.565,-0.572 0.987,-1.071 1.326,-1.514 0.038,0.318 0.016,0.723 -0.146,1.338 -0.647,2.447 -4.068,2.239 -2.429,3.976 1.639,1.737 7.496,1.333 8.467,-2.338 l 1.143,-4.243 c 1.699,0.172 3.501,0.247 5.391,0.247 3.365,0 6.491,-0.2 9.153,-0.858 z"/>
   </g>
  </g>
  <g transform="matrix(0.26458333,0,0,0.27850835,-95.341641,122.23276)">
   <g transform="translate(-3.3927711,22.854974)">
    <path d="m 491.73101,380.47669 c -0.39926,0 -0.78166,0.0507 -1.18094,0.0561 -3.734,10.99961 -0.14055,25.13716 6.96192,28.56188 7.64801,3.68902 24.34986,-3.77902 29.63034,-15.00919 1.00661,-2.14257 1.40026,-4.25137 1.52398,-6.3152 -11.40452,-4.6619 -23.84374,-7.28809 -36.92967,-7.28809 m -6.56265,0.33179 c -15.29034,1.01784 -29.57973,5.4998 -42.14829,12.7429 1.37778,3.68904 4.26262,6.87757 8.62085,9.40252 9.55437,5.53917 26.14938,6.40519 32.12718,-4.17264 2.72178,-4.81936 2.85675,-11.5451 1.40026,-17.97278 m 46.56839,16.49941 c -3.43597,0 -12.43924,7.0294 -12.43924,10.14483 0,3.10982 7.23185,11.03334 10.66782,11.03334 3.43598,0 2.2269,-10.63407 2.2269,-13.74387 0,-3.10982 2.9861,-7.42868 -0.45548,-7.42868 m -74.83783,9.5881 c -4.56069,-0.42176 -10.86465,4.6844 -12.383,7.52426 -1.73766,3.24479 -1.86138,11.71381 2.63743,14.18817 4.49884,2.47436 8.41842,-3.10982 10.1617,-6.3602 1.73767,-3.24479 5.91033,-12.34365 1.4115,-14.818 -0.56233,-0.30929 -1.17531,-0.48362 -1.82763,-0.54547 m 27.66209,1.11346 c -4.98805,0.0676 -10.66217,1.71518 -15.33534,3.92521 -9.34628,4.41447 -11.15706,15.66714 -7.31619,24.01243 3.83522,8.3453 9.20007,11.52261 18.54638,7.10814 9.34628,-4.41447 19.14808,-21.06571 15.30721,-29.41101 -1.91762,-4.17267 -6.21399,-5.69664 -11.20206,-5.62353 m 26.56553,3.75651 c -2.01883,0.16873 -4.13329,0.82105 -6.32645,2.00197 -8.77272,4.74062 -11.84316,18.58012 -7.40057,27.03228 4.44259,8.45216 16.49941,12.82162 25.27773,8.081 8.7727,-4.74064 7.39494,-19.03562 2.95235,-27.4934 -3.33476,-6.33771 -8.44653,-10.12795 -14.49745,-9.62745 m 25.03029,12.73162 c -5.10615,0.31493 -5.50542,7.15314 -5.28611,10.83653 0.21934,3.68904 1.42837,13.64268 6.53453,13.32775 5.10617,-0.31491 8.62086,-9.86364 8.40157,-13.55269 -0.21933,-3.68903 -4.54382,-10.9265 -9.64999,-10.61719 m -49.41387,19.31116 c -6.78758,-0.10673 -14.21063,4.69563 -17.56226,9.83555 -4.46507,6.84944 -6.65825,12.58544 1.12469,17.79282 7.78299,5.21299 19.92979,4.3301 24.39485,-2.51934 4.46509,-6.84945 6.21961,-17.97839 -1.56335,-23.19141 -1.94572,-1.30465 -4.13327,-1.88388 -6.39956,-1.91762 m -23.17453,1.70956 c -2.78364,0 -6.82131,2.12569 -6.82131,5.8597 0,3.73403 1.81637,5.39858 4.60004,5.39858 2.78364,0 5.49415,-1.66455 5.49415,-5.39858 0,-3.73401 -0.48361,-5.8597 -3.26725,-5.8597 m 44.38646,8.10912 c -4.29637,0 -8.2216,8.28344 -8.2216,13.50769 0,5.22424 5.69664,5.40982 9.993,5.40982 4.29637,0 10.00988,-4.2345 10.00988,-9.45876 0,-5.22425 -7.48492,-9.45875 -11.78128,-9.45875" style="fill:#bc2bc0"/>
    <path d="m 399.00101,509.3565 a 28.141956,49.818505 14.633555 0 1 -14.42423,-55.53716 28.141956,49.818505 14.633555 0 1 39.89496,-40.78846 28.141956,49.818505 14.633555 0 1 3.07916,1.25617 28.142181,99.636347 14.778482 0 1 -9.02453,48.75019 28.142181,99.636347 14.778482 0 1 -16.2604,46.81925 28.141956,49.818505 14.633555 0 1 -3.26492,-0.50049" style="fill:#fcfcfc"/>
    <path d="m 381.97896,469.36264 a 28.141956,49.818505 14.633555 0 1 2.59371,-15.54314 28.141956,49.818505 14.633555 0 1 1.28252,-4.30997 c 9.64994,1.29903 9.86928,-1.09095 15.21161,-2.1538 5.96095,-1.18657 17.13487,10.06047 7.46805,8.36779 -9.66121,-1.69268 -12.48984,13.8676 -25.63202,13.71014 -0.4049,-0.005 -0.54548,-0.062 -0.92224,-0.0731" style="fill:#2c3e50;fill-rule:evenodd"/>
    <path d="m 584.47735,509.3565 a 49.818505,28.141956 75.36644 0 0 14.42413,-55.53716 49.818505,28.141956 75.36644 0 0 -39.89493,-40.78846 49.818505,28.141956 75.36644 0 0 -3.07917,1.25617 99.636347,28.142181 75.22152 0 0 9.02459,48.75019 99.636347,28.142181 75.22152 0 0 16.26041,46.81925 49.818505,28.141956 75.36644 0 0 3.26489,-0.50049" style="fill:#fcfcfc"/>
    <g transform="matrix(5.6235214,0,0,5.6235214,-1805.8711,-2458.277)" style="fill-rule:evenodd">
     <path d="m 428.0895,520.6061 a 8.858952,5.00433 75.36644 0 0 -0.46122,-2.76395 8.858952,5.00433 75.36644 0 0 -0.22806,-0.76642 c -1.716,0.231 -1.755,-0.194 -2.705,-0.383 -1.06,-0.211 -3.047,1.789 -1.328,1.488 1.718,-0.301 2.221,2.466 4.558,2.438 0.072,-10e-4 0.097,-0.011 0.164,-0.013" style="fill:#2c3e50"/>
    </g>
   </g>
  </g>
 </g>
</svg>
