<svg xmlns="http://www.w3.org/2000/svg" xmlns:xlink="http://www.w3.org/1999/xlink" style="enable-background:new" width="256" height="256" version="1.0">
 <defs>
  <linearGradient id="linearGradient2859" x1="296" x2="296" y1="-212" y2="236" gradientUnits="userSpaceOnUse">
   <stop style="stop-color:#ffffff" offset="0"/>
   <stop style="stop-color:#000000" offset="1"/>
  </linearGradient>
  <filter id="filter925" width="1.046" height="1.05" x="-.02" y="-.03" style="color-interpolation-filters:sRGB">
   <feGaussianBlur stdDeviation="2.32"/>
  </filter>
  <filter id="filter931" width="1.023" height="1.025" x="-.01" y="-.01" style="color-interpolation-filters:sRGB">
   <feGaussianBlur stdDeviation="1.16"/>
  </filter>
  <linearGradient id="linearGradient1108" x1="296" x2="296" y1="-212" y2="236" gradientUnits="userSpaceOnUse" xlink:href="#linearGradient1013"/>
  <linearGradient id="linearGradient1013">
   <stop style="stop-color:#ffffff" offset="0"/>
   <stop offset=".125" style="stop-color:#ffffff;stop-opacity:0.09803922"/>
   <stop offset=".925" style="stop-color:#000000;stop-opacity:0.09803922"/>
   <stop style="stop-color:#000000;stop-opacity:0.49803922" offset="1"/>
  </linearGradient>
  <clipPath id="clipPath1082-3" clipPathUnits="userSpaceOnUse">
   <path style="fill:#8c59d9" d="M 361.9375,-212 C 507.2348,-212 528,-191.28677 528,-46.125 V 70.125 C 528,215.28618 507.2348,236 361.9375,236 H 214.0625 C 68.7652,236 48,215.28618 48,70.125 V -46.125 C 48,-191.28677 68.7652,-212 214.0625,-212 Z"/>
  </clipPath>
  <linearGradient id="linearGradient2751-1" x1="45.583" x2="43.031" y1="233.095" y2="279.428" gradientTransform="matrix(3.7797136,0,0,3.7797136,-3.2470344,-862.57037)" gradientUnits="userSpaceOnUse" xlink:href="#linearGradient2859"/>
 </defs>
 <g transform="translate(0,-44)">
  <g>
   <g>
    <path style="opacity:0.2;filter:url(#filter925)" d="m 162.53675,62.431991 c 72.64865,0 83.03125,10.356615 83.03125,82.937499 v 58.125 c 0,72.58059 -10.3826,82.9375 -83.03125,82.9375 h -73.9375 c -72.64865,0 -83.0312501,-10.35691 -83.0312501,-82.9375 v -58.125 c 0,-72.580884 10.3826001,-82.937499 83.0312501,-82.937499 z"/>
    <path d="m 162.53675,61.431991 c 72.64865,0 83.03125,10.356615 83.03125,82.937499 v 58.125 c 0,72.58059 -10.3826,82.9375 -83.03125,82.9375 h -73.9375 c -72.64865,0 -83.0312501,-10.35691 -83.0312501,-82.9375 v -58.125 c 0,-72.580884 10.3826001,-82.937499 83.0312501,-82.937499 z" style="opacity:0.1;filter:url(#filter931)"/>
   </g>
   <g>
    <path d="m 162.53675,60.431991 c 72.64865,0 83.03125,10.356615 83.03125,82.937499 v 58.125 c 0,72.58059 -10.3826,82.9375 -83.03125,82.9375 h -73.9375 c -72.64865,0 -83.0312501,-10.35691 -83.0312501,-82.9375 v -58.125 c 0,-72.580884 10.3826001,-82.937499 83.0312501,-82.937499 z" style="fill:#b1b1b1"/>
    <g style="opacity:0.9;enable-background:new" transform="matrix(3.7797136,0,0,3.7797136,-3.2470303,-817.57038)">
     <g transform="translate(4.6191861,-0.26457064)">
      <path d="m 34.080631,236.60229 c -14.124306,0 -25.5875151,11.4632 -25.5875151,25.58753 0,14.12429 11.4632091,25.5875 25.5875151,25.5875 14.124307,0 25.587514,-11.46321 25.587514,-25.5875 0,-14.12433 -11.463207,-25.58753 -25.587514,-25.58753 z m 0,24.87003 c 0.396461,0 0.717487,0.32102 0.717487,0.7175 0,0.39645 -0.321026,0.71747 -0.717487,0.71747 -0.396461,0 -0.717487,-0.32102 -0.717487,-0.71747 0,-0.39648 0.321026,-0.7175 0.717487,-0.7175 z" style="opacity:0.9;fill:#20282f;fill-opacity:0.90196078"/>
      <path d="m 34.080631,252.87543 c -5.139528,0 -9.314373,4.17484 -9.314373,9.31439 0,5.13951 4.174845,9.31435 9.314373,9.31435 5.139526,0 9.314371,-4.17484 9.314371,-9.31435 0,-5.13955 -4.174845,-9.31439 -9.314371,-9.31439 z m 0,8.70062 c 0.339427,0 0.613755,0.27433 0.613755,0.61377 0,0.33941 -0.274328,0.61374 -0.613755,0.61374 -0.339428,0 -0.613755,-0.27433 -0.613755,-0.61374 0,-0.33944 0.274327,-0.61377 0.613755,-0.61377 z" style="opacity:0.9;fill-opacity:0.90196078"/>
      <path d="m 39.331297,256.93915 c -2.897973,-2.89799 -7.603361,-2.89799 -10.501336,0 -2.897971,2.89796 -2.897971,7.60334 0,10.50134 2.897978,2.89795 7.603363,2.89795 10.501336,0 2.897974,-2.898 2.897974,-7.60338 0,-10.50134 z" style="opacity:0.9;fill:#478500;fill-opacity:0.95999995"/>
      <path d="m 125.56641,51.935547 c -42.77246,0 -77.500004,34.727551 -77.500004,77.500003 0,42.77245 34.727544,77.49804 77.500004,77.49804 42.77245,0 77.49804,-34.72559 77.49804,-77.49804 0,-42.772452 -34.72559,-77.500003 -77.49804,-77.500003 z m 0,4.998047 c 40.07025,0 72.5,32.431697 72.5,72.501956 0,40.07025 -32.42975,72.5 -72.5,72.5 -40.07026,0 -72.501957,-32.42975 -72.501957,-72.5 -4e-6,-40.070259 32.431697,-72.501956 72.501957,-72.501956 z m 0.002,11.498047 c -33.114635,0 -60.000001,26.8854 -60.000001,59.999999 0,33.11464 26.885366,60 60.000001,60 33.11463,0 60,-26.88536 60,-60 0,-33.114599 -26.88537,-59.999999 -60,-59.999999 z m 0,3.86914 c 31.02257,0 56.13086,25.108293 56.13086,56.130859 0,31.0226 -25.10829,56.13086 -56.13086,56.13086 -31.022578,0 -56.13086,-25.10829 -56.13086,-56.13086 -4e-6,-31.022566 25.108282,-56.130859 56.13086,-56.130859 z" transform="matrix(0.26457031,0,0,0.26457031,0.85906781,227.94594)" style="opacity:0.2;fill:url(#linearGradient2751-1)"/>
     </g>
     <path d="m 40.584651,232.2974 c -0.05609,-6e-5 -0.0953,-0.004 -0.151705,-0.004 H 22.48627 c -2.204229,0 -4.172289,0.0431 -5.928812,0.15554 -0.878262,0.0562 -1.703866,0.12938 -2.479425,0.22375 -0.775559,0.0944 -1.501277,0.20957 -2.180282,0.3488 -0.679006,0.13923 -1.311027,0.3027 -1.8996284,0.49348 -0.5886011,0.19079 -1.1335917,0.40928 -1.6379375,0.65833 -0.5043461,0.24905 -0.9680219,0.52879 -1.3942619,0.8428 -0.4262399,0.31401 -0.8152658,0.66228 -1.1695489,1.04795 -0.3542834,0.38567 -0.6739018,0.8087 -0.9623773,1.27273 -0.2884755,0.46403 -0.5458253,0.96908 -0.7746425,1.51817 -0.2288174,0.5491 -0.4291407,1.14242 -0.6044488,1.78327 -0.175308,0.64085 -0.3252699,1.32919 -0.453218,2.06851 -0.127948,0.73931 -0.2337391,1.52942 -0.3204763,2.37389 -0.086737,0.84448 -0.1545481,1.74311 -0.2062237,2.69945 -0.1033513,1.91268 -0.1426973,4.05579 -0.1426973,6.45613 v 15.37815 c 0,2.40034 0.039346,4.54346 0.1426973,6.45614 0.051676,0.95634 0.1194864,1.85496 0.2062237,2.69944 0.086737,0.84448 0.1925283,1.6351 0.3204763,2.37442 0.1279481,0.73931 0.27791,1.42765 0.453218,2.0685 0.1753081,0.64086 0.3756314,1.23418 0.6044488,1.78327 0.2288172,0.54909 0.486167,1.05363 0.7746425,1.51766 0.2884755,0.46403 0.6080939,0.88758 0.9623773,1.27325 0.3542831,0.38567 0.743309,0.73341 1.1695489,1.04743 0.42624,0.31401 0.8899158,0.59426 1.3942619,0.84331 0.5043458,0.24906 1.0493364,0.46702 1.6379375,0.65781 0.5886014,0.19079 1.2206224,0.35426 1.8996284,0.49349 0.679005,0.13923 1.404723,0.25442 2.180282,0.3488 0.775559,0.0944 1.601163,0.16805 2.479425,0.22426 1.756523,0.11243 3.724583,0.15502 5.928812,0.15502 h 17.946676 c 0.0564,0 0.09561,-0.004 0.151705,-0.004 z" style="fill:#92dc00"/>
     <g transform="matrix(0.00217956,0,0,-0.00217956,7.5146562,276.14441)" style="fill:#acf71d;fill-opacity:0.90196079">
      <path d="m 6412,7865 c 1,-2703 0,-4915 -3,-4915 -3,0 -46,17 -95,39 -134,58 -294,109 -434,138 -113,24 -146,26 -345,26 -439,0 -707,-61 -1107,-251 -788,-375 -1324,-951 -1433,-1541 -21,-116 -20,-313 4,-426 24,-117 69,-233 131,-335 192,-320 478,-507 865,-566 140,-22 456,-14 615,15 664,120 1328,502 1741,1001 146,176 314,490 408,764 78,225 71,-95 76,3571 3,1809 8,3431 11,3603 l 6,312 h 28 c 56,0 266,-62 429,-126 441,-175 893,-442 1204,-712 502,-436 904,-1374 977,-2276 48,-608 -60,-1070 -530,-2266 -178,-452 -270,-693 -270,-706 0,-21 37,-4 76,34 122,119 362,601 561,1126 225,595 388,1178 465,1656 20,129 23,179 23,455 0,316 -7,412 -46,635 -85,488 -285,959 -624,1470 -240,362 -520,711 -990,1235 -938,1047 -1134,1384 -1281,2200 -24,136 -27,179 -31,453 l -5,302 h -215 -215 z" style="fill:#acf71d;fill-opacity:0.90196079"/>
     </g>
     <g transform="matrix(0.00217956,0,0,-0.00217956,7.5146562,275.61527)" style="fill:#77cc27;fill-opacity:0.90196079">
      <path d="m 6412,7865 c 1,-2703 0,-4915 -3,-4915 -3,0 -46,17 -95,39 -134,58 -294,109 -434,138 -113,24 -146,26 -345,26 -439,0 -707,-61 -1107,-251 -788,-375 -1324,-951 -1433,-1541 -21,-116 -20,-313 4,-426 24,-117 69,-233 131,-335 192,-320 478,-507 865,-566 140,-22 456,-14 615,15 664,120 1328,502 1741,1001 146,176 314,490 408,764 78,225 71,-95 76,3571 3,1809 8,3431 11,3603 l 6,312 h 28 c 56,0 266,-62 429,-126 441,-175 893,-442 1204,-712 502,-436 904,-1374 977,-2276 48,-608 -60,-1070 -530,-2266 -178,-452 -270,-693 -270,-706 0,-21 37,-4 76,34 122,119 362,601 561,1126 225,595 388,1178 465,1656 20,129 23,179 23,455 0,316 -7,412 -46,635 -85,488 -285,959 -624,1470 -240,362 -520,711 -990,1235 -938,1047 -1134,1384 -1281,2200 -24,136 -27,179 -31,453 l -5,302 h -215 -215 z" style="fill:#77cc27;fill-opacity:0.90196079"/>
     </g>
     <g style="fill:#ffffff;fill-opacity:0.99000001" transform="matrix(0.00217956,0,0,-0.00217956,7.5146562,275.87984)">
      <path style="fill:#ffffff;fill-opacity:0.99000001" d="m 6412,7865 c 1,-2703 0,-4915 -3,-4915 -3,0 -46,17 -95,39 -134,58 -294,109 -434,138 -113,24 -146,26 -345,26 -439,0 -707,-61 -1107,-251 -788,-375 -1324,-951 -1433,-1541 -21,-116 -20,-313 4,-426 24,-117 69,-233 131,-335 192,-320 478,-507 865,-566 140,-22 456,-14 615,15 664,120 1328,502 1741,1001 146,176 314,490 408,764 78,225 71,-95 76,3571 3,1809 8,3431 11,3603 l 6,312 h 28 c 56,0 266,-62 429,-126 441,-175 893,-442 1204,-712 502,-436 904,-1374 977,-2276 48,-608 -60,-1070 -530,-2266 -178,-452 -270,-693 -270,-706 0,-21 37,-4 76,34 122,119 362,601 561,1126 225,595 388,1178 465,1656 20,129 23,179 23,455 0,316 -7,412 -46,635 -85,488 -285,959 -624,1470 -240,362 -520,711 -990,1235 -938,1047 -1134,1384 -1281,2200 -24,136 -27,179 -31,453 l -5,302 h -215 -215 z"/>
     </g>
    </g>
   </g>
   <g>
    <path style="opacity:0.4;fill:none;stroke:url(#linearGradient1108);stroke-width:8;stroke-linecap:round;stroke-linejoin:round" d="m 361.9375,-212 c 145.2973,0 166.0625,20.71323 166.0625,165.875 v 116.25 c 0,145.16118 -20.7652,165.875 -166.0625,165.875 h -147.875 c -145.2973,0 -166.0625,-20.71382 -166.0625,-165.875 v -116.25 c 0,-145.16177 20.7652,-165.875 166.0625,-165.875 z" clip-path="url(#clipPath1082-3)" transform="matrix(0.5,0,0,0.5,-18.432,166.43199)"/>
   </g>
  </g>
 </g>
</svg>
