<svg width="256" height="256" version="1.1" viewBox="0 0 67.73 67.73" xmlns="http://www.w3.org/2000/svg" xmlns:xlink="http://www.w3.org/1999/xlink">
 <defs>
  <clipPath id="clipPath1082-3-5">
   <path d="M 361.9375,-212 C 507.2348,-212 528,-191.28677 528,-46.125 V 70.125 C 528,215.28618 507.2348,236 361.9375,236 H 214.0625 C 68.7652,236 48,215.28618 48,70.125 V -46.125 C 48,-191.28677 68.7652,-212 214.0625,-212 Z" style="fill:#8c59d9"/>
  </clipPath>
  <filter id="filter4569-2" x="-.01" y="-.01" width="1.023" height="1.025" style="color-interpolation-filters:sRGB">
   <feGaussianBlur stdDeviation="1.16"/>
  </filter>
  <filter id="filter913" x="-.02" y="-.03" width="1.046" height="1.05" style="color-interpolation-filters:sRGB">
   <feGaussianBlur stdDeviation="2.32"/>
  </filter>
  <linearGradient id="linearGradient906" x1="296" x2="296" y1="-212" y2="236" gradientUnits="userSpaceOnUse">
   <stop style="stop-color:#ffffff" offset="0"/>
   <stop style="stop-color:#ffffff;stop-opacity:.09803922" offset=".125"/>
   <stop style="stop-color:#000000;stop-opacity:.09803922" offset=".925"/>
   <stop style="stop-color:#000000;stop-opacity:.49803922" offset="1"/>
  </linearGradient>
 </defs>
 <g transform="translate(0,-229.26666)">
  <path transform="matrix(.26970778 0 0 .26970778 -7.1289177 220.56049)" d="m188.96876 45.999995c72.64865 0 83.03125 10.356615 83.03125 82.937505v58.125c0 72.58059-10.3826 82.9375-83.03125 82.9375h-73.9375c-72.648654 0-83.031254-10.35691-83.031254-82.9375v-58.125c0-72.58089 10.3826-82.937505 83.031254-82.937505z" style="filter:url(#filter913);opacity:.2"/>
  <path transform="matrix(.26970778 0 0 .26970778 -7.1289177 220.56049)" d="m188.96876 43.999995c72.64865 0 83.03125 10.356615 83.03125 82.937505v58.125c0 72.58059-10.3826 82.9375-83.03125 82.9375h-73.9375c-72.648654 0-83.031254-10.35691-83.031254-82.9375v-58.125c0-72.58089 10.3826-82.937505 83.031254-82.937505z" style="filter:url(#filter4569-2);opacity:.1"/>
  <path d="m23.895905 232.42763c-9.797337 0-15.39413 0.69699-18.544517 3.84334-3.150381 3.14634-3.849657 8.73736-3.849657 18.52555v15.67677c0 9.78815 0.699276 15.3792 3.849657 18.52555 3.150387 3.14636 8.7471787 3.84333 18.544517 3.84333h19.94152c9.797339 0 15.394134-0.69697 18.544517-3.84333 3.150384-3.14635 3.849659-8.7374 3.849659-18.52555v-15.67677c0-9.78819-0.699275-15.37921-3.849659-18.52555-3.150383-3.14635-8.74718-3.84334-18.544517-3.84334z" style="fill:#4d4d4d"/>
  <path d="m1.5017313 269.93387v0.53942c0 9.78815 0.699276 15.3792 3.849657 18.52555 3.150387 3.14636 8.7471787 3.84333 18.544517 3.84333h19.94152c9.797339 0 15.394134-0.69697 18.544517-3.84333 3.150384-3.14635 3.849659-8.7374 3.849659-18.52555v-0.53942c0 9.78815-0.699275 15.3792-3.849659 18.52555-3.150383 3.14636-8.747178 3.84334-18.544517 3.84334h-19.94152c-9.797338 0-15.39413-0.69698-18.544517-3.84334-3.150381-3.14635-3.849657-8.7374-3.849657-18.52555z" style="fill:#131313;opacity:.2"/>
  <path d="m23.813194 292.71765c-19.593907 0-22.394175-2.79326-22.394175-22.36889v-7.83838h64.729868v7.83838c0 19.57563-2.800268 22.36889-22.394172 22.36889z" style="clip-rule:evenodd;fill-rule:evenodd;fill:#ffffff;image-rendering:optimizeQuality;opacity:.1;shape-rendering:geometricPrecision"/>
  <path d="m33.783956 232.3031v60.41455h9.970757c19.593906 0 22.394174-2.79334 22.394174-22.36889v-15.67677c0-19.57563-2.800268-22.36889-22.394174-22.36889z" style="clip-rule:evenodd;fill-rule:evenodd;fill:#ffffff;image-rendering:optimizeQuality;opacity:.1;shape-rendering:geometricPrecision"/>
  <g transform="matrix(1.076722,0,0,1.076722,3.4122607,-19.150069)">
   <rect x="42.14" y="275.97" width="8.273" height="3.008" rx="0" ry="0" style="fill:#03bef3"/>
   <rect x="42.14" y="271.45" width="8.273" height="3.008" rx="0" ry="0" style="fill:#03bef3"/>
   <rect x="42.14" y="266.94" width="8.273" height="3.008" rx="0" ry="0" style="fill:#03bef3"/>
   <rect x="42.14" y="262.43" width="8.273" height="3.008" rx="0" ry="0" style="fill:#bff1fd"/>
   <rect x="42.14" y="257.98" width="8.273" height="3.008" rx="0" ry="0" style="fill:#bff1fd"/>
   <rect x="42.14" y="253.46" width="8.273" height="3.008" rx="0" ry="0" style="fill:#bff1fd"/>
   <rect x="42.14" y="248.95" width="8.273" height="3.008" rx="0" ry="0" style="fill:#bff1fd"/>
   <rect x="42.14" y="244.44" width="8.273" height="3.008" rx="0" ry="0" style="fill:#bff1fd"/>
   <rect x="33.14" y="275.97" width="8.273" height="3.008" rx="0" ry="0" style="fill:#bed53d"/>
   <rect x="33.14" y="271.45" width="8.273" height="3.008" rx="0" ry="0" style="fill:#bed53d"/>
   <rect x="33.14" y="266.94" width="8.273" height="3.008" rx="0" ry="0" style="fill:#bed53d"/>
   <rect x="33.14" y="262.43" width="8.273" height="3.008" rx="0" ry="0" style="fill:#dde79e"/>
   <rect x="33.14" y="257.98" width="8.273" height="3.008" rx="0" ry="0" style="fill:#dde79e"/>
   <rect x="24.15" y="275.97" width="8.273" height="3.008" rx="0" ry="0" style="fill:#e90e8d"/>
   <rect x="24.15" y="271.45" width="8.273" height="3.008" rx="0" ry="0" style="fill:#e90e8d"/>
   <rect x="24.15" y="266.94" width="8.273" height="3.008" rx="0" ry="0" style="fill:#e90e8d"/>
   <rect x="24.15" y="262.43" width="8.273" height="3.008" rx="0" ry="0" style="fill:#f09bc0"/>
   <rect x="24.15" y="257.98" width="8.273" height="3.008" rx="0" ry="0" style="fill:#f09bc0"/>
   <rect x="24.15" y="253.46" width="8.273" height="3.008" rx="0" ry="0" style="fill:#f09bc0"/>
   <rect x="24.15" y="248.95" width="8.273" height="3.008" rx="0" ry="0" style="fill:#f09bc0"/>
   <rect x="15.15" y="275.97" width="8.273" height="3.008" rx="0" ry="0" style="fill:#fff021"/>
   <rect x="15.15" y="271.45" width="8.273" height="3.008" rx="0" ry="0" style="fill:#fff021"/>
   <rect x="15.15" y="266.94" width="8.273" height="3.008" rx="0" ry="0" style="fill:#fff021"/>
   <rect x="6.16" y="275.97" width="8.273" height="3.008" rx="0" ry="0" style="fill:#f61d2b"/>
   <rect x="6.16" y="271.45" width="8.273" height="3.008" rx="0" ry="0" style="fill:#f71d2b"/>
   <rect x="6.16" y="266.94" width="8.273" height="3.008" rx="0" ry="0" style="fill:#f4967c"/>
   <rect x="6.16" y="262.43" width="8.273" height="3.008" rx="0" ry="0" style="fill:#f4967c"/>
  </g>
  <path transform="matrix(.13485389 0 0 .13485389 -4.9712557 261.01666)" d="M 361.9375,-212 C 507.2348,-212 528,-191.28677 528,-46.125 V 70.125 C 528,215.28618 507.2348,236 361.9375,236 H 214.0625 C 68.7652,236 48,215.28618 48,70.125 V -46.125 C 48,-191.28677 68.7652,-212 214.0625,-212 Z" clip-path="url(#clipPath1082-3-5)" style="fill:none;opacity:.4;stroke-linecap:round;stroke-linejoin:round;stroke-width:8;stroke:url(#linearGradient906)"/>
 </g>
</svg>
