<svg xmlns="http://www.w3.org/2000/svg" xmlns:xlink="http://www.w3.org/1999/xlink" width="256" height="256" version="1.1" viewBox="0 0 67.73 67.73">
 <defs>
  <linearGradient id="linearGradient1304">
   <stop style="stop-color:#1c1c1c" offset="0"/>
   <stop style="stop-color:#555555" offset="1"/>
  </linearGradient>
  <linearGradient id="linearGradient1108" x1="296" x2="296" y1="-212" y2="236" gradientUnits="userSpaceOnUse" xlink:href="#linearGradient1013"/>
  <linearGradient id="linearGradient1013">
   <stop style="stop-color:#ffffff" offset="0"/>
   <stop offset=".125" style="stop-color:#ffffff;stop-opacity:0.09803922"/>
   <stop offset=".925" style="stop-color:#000000;stop-opacity:0.09803922"/>
   <stop style="stop-color:#000000;stop-opacity:0.49803922" offset="1"/>
  </linearGradient>
  <clipPath id="clipPath1082-3-361" clipPathUnits="userSpaceOnUse">
   <path style="fill:#8c59d9" d="M 361.9375,-212 C 507.2348,-212 528,-191.28677 528,-46.125 V 70.125 C 528,215.28618 507.2348,236 361.9375,236 H 214.0625 C 68.7652,236 48,215.28618 48,70.125 V -46.125 C 48,-191.28677 68.7652,-212 214.0625,-212 Z"/>
  </clipPath>
  <filter id="filter4569" width="1.023" height="1.025" x="-.01" y="-.01" style="color-interpolation-filters:sRGB">
   <feGaussianBlur stdDeviation="1.16"/>
  </filter>
  <filter id="filter939" width="1.046" height="1.05" x="-.02" y="-.03" style="color-interpolation-filters:sRGB">
   <feGaussianBlur stdDeviation="2.32"/>
  </filter>
  <linearGradient id="linearGradient954" x1="7.5" x2="64.112" y1="230.789" y2="294.501" gradientTransform="matrix(1.0193681,0,0,1.0193681,0,-5.7113166)" gradientUnits="userSpaceOnUse" xlink:href="#linearGradient1304"/>
  <filter id="filter1010" width="1.093" height="1.099" x="-.05" y="-.05" style="color-interpolation-filters:sRGB">
   <feGaussianBlur stdDeviation=".665"/>
  </filter>
  <filter id="filter1044" width="1.12" height="1.12" x="-.06" y="-.06" style="color-interpolation-filters:sRGB">
   <feGaussianBlur stdDeviation=".992"/>
  </filter>
 </defs>
 <g transform="translate(0,-229.26666)">
  <path d="m 162.53675,5.5680001 c 72.64865,0 83.03125,10.3566149 83.03125,82.9375049 v 58.125005 c 0,72.58059 -10.3826,82.9375 -83.03125,82.9375 H 88.599254 C 15.9506,229.56801 5.568,219.2111 5.568,146.63051 V 88.505505 c 0,-72.58089 10.3826,-82.9375049 83.031254,-82.9375049 z" transform="matrix(0.26970779,0,0,0.26970779,-1.9098094e-8,231.46531)" style="opacity:0.2;filter:url(#filter939)"/>
  <path style="opacity:0.1;fill:none;stroke:#000000;stroke-width:1.07883108;stroke-linecap:round;stroke-linejoin:round" d="m 43.837429,232.42763 c 19.593907,0 22.394176,2.79326 22.394176,22.36889 v 15.67677 c 0,19.57555 -2.800269,22.36889 -22.394176,22.36889 H 23.89591 c -19.5939088,0 -22.394177,-2.79334 -22.394177,-22.36889 v -15.67677 c 0,-19.57563 2.8002682,-22.36889 22.394177,-22.36889 z"/>
  <path style="opacity:0.1;filter:url(#filter4569)" d="m 162.53675,3.5680001 c 72.64865,0 83.03125,10.3566149 83.03125,82.9375049 v 58.125005 c 0,72.58059 -10.3826,82.9375 -83.03125,82.9375 H 88.599254 C 15.9506,227.56801 5.568,217.2111 5.568,144.63051 V 86.505505 c 0,-72.58089 10.3826,-82.9375049 83.031254,-82.9375049 z" transform="matrix(0.26970779,0,0,0.26970779,-1.9098094e-8,231.46531)"/>
  <path d="m 43.837427,232.42763 c 19.593907,0 22.394175,2.79326 22.394175,22.36889 v 15.67677 c 0,19.57555 -2.800268,22.36889 -22.394175,22.36889 h -19.94152 c -19.5939074,0 -22.3941756,-2.79334 -22.3941756,-22.36889 v -15.67677 c 0,-19.57563 2.8002682,-22.36889 22.3941756,-22.36889 z" style="fill:url(#linearGradient954)"/>
  <path style="opacity:0.4;fill:none;stroke:url(#linearGradient1108);stroke-width:8;stroke-linecap:round;stroke-linejoin:round" d="M 361.9375,-212 C 507.2348,-212 528,-191.28677 528,-46.125 V 70.125 C 528,215.28618 507.2348,236 361.9375,236 H 214.0625 C 68.7652,236 48,215.28618 48,70.125 V -46.125 C 48,-191.28677 68.7652,-212 214.0625,-212 Z" clip-path="url(#clipPath1082-3-361)" transform="matrix(0.1348539,0,0,0.1348539,-4.9712559,261.01666)"/>
  <path d="m 23.895907,292.84218 c -19.5939074,0 -22.3941756,-2.79326 -22.3941756,-22.36889 v -7.83838 H 66.231602 v 7.83838 c 0,19.57563 -2.800268,22.36889 -22.394175,22.36889 z" style="opacity:0.1;fill:#ffffff"/>
  <path d="m 33.866666,232.42763 v 60.41455 h 9.970761 c 19.593907,0 22.394175,-2.79334 22.394175,-22.36889 v -15.67677 c 0,-19.57563 -2.800268,-22.36889 -22.394175,-22.36889 z" style="opacity:0.1;fill:#ffffff"/>
  <g transform="translate(0.2639912,-0.070965)">
   <path style="opacity:0.4;fill:#ffffff;filter:url(#filter1044)" d="m 53.446425,262.70587 a 19.84375,19.84375 0 1 1 -39.687499,0 19.84375,19.84375 0 1 1 39.687499,0 z"/>
   <path d="m 53.446425,262.70587 a 19.84375,19.84375 0 1 1 -39.687499,0 19.84375,19.84375 0 1 1 39.687499,0 z" style="fill:#b12828"/>
   <g style="filter:url(#filter1010);opacity:0.3">
    <path d="M 160.5 69.824219 L 138 108.79297 A 20.000003 20.000003 0 0 1 138.08984 108.83984 A 20.000003 20.000003 0 0 1 139.76367 109.93164 A 20.000003 20.000003 0 0 1 141.31836 111.1875 A 20.000003 20.000003 0 0 1 142.74219 112.5918 A 20.000003 20.000003 0 0 1 144.01758 114.13086 A 20.000003 20.000003 0 0 1 145.13281 115.78906 A 20.000003 20.000003 0 0 1 146.07812 117.55273 A 20.000003 20.000003 0 0 1 146.8418 119.40039 A 20.000003 20.000003 0 0 1 147.41797 121.31445 A 20.000003 20.000003 0 0 1 147.79883 123.27734 A 20.000003 20.000003 0 0 1 147.98242 125.26758 A 20.000003 20.000003 0 0 1 148 126.11523 L 193 126.11523 A 64.999986 64.999986 0 0 0 160.5 69.824219 z" transform="matrix(0.26458333,0,0,0.26458333,-0.2639912,229.33762)"/>
    <path d="M 95.5 69.824219 A 64.999986 64.999986 0 0 0 63 126.11523 L 108 126.11523 A 20.000003 20.000003 0 0 1 108.09961 124.11914 A 20.000003 20.000003 0 0 1 108.39648 122.14258 A 20.000003 20.000003 0 0 1 108.89062 120.20508 A 20.000003 20.000003 0 0 1 109.57617 118.32617 A 20.000003 20.000003 0 0 1 110.44336 116.52734 A 20.000003 20.000003 0 0 1 111.48828 114.82227 A 20.000003 20.000003 0 0 1 112.69727 113.23047 A 20.000003 20.000003 0 0 1 114.06055 111.76562 A 20.000003 20.000003 0 0 1 115.56055 110.44727 A 20.000003 20.000003 0 0 1 117.1875 109.2832 A 20.000003 20.000003 0 0 1 118.00977 108.81055 L 95.5 69.824219 z" transform="matrix(0.26458333,0,0,0.26458333,-0.2639912,229.33762)"/>
    <path d="M 117.99805 143.43945 L 95.5 182.4082 A 64.999986 64.999986 0 0 0 160.5 182.4082 L 137.99219 143.42188 A 20.000003 20.000003 0 0 1 137.08008 143.94531 A 20.000003 20.000003 0 0 1 135.25586 144.76172 A 20.000003 20.000003 0 0 1 133.35742 145.39453 A 20.000003 20.000003 0 0 1 131.4082 145.83203 A 20.000003 20.000003 0 0 1 129.42383 146.07422 A 20.000003 20.000003 0 0 1 127.42383 146.11719 A 20.000003 20.000003 0 0 1 125.43164 145.95898 A 20.000003 20.000003 0 0 1 123.46484 145.60352 A 20.000003 20.000003 0 0 1 121.54297 145.05273 A 20.000003 20.000003 0 0 1 119.68555 144.31445 A 20.000003 20.000003 0 0 1 117.99805 143.43945 z" transform="matrix(0.26458333,0,0,0.26458333,-0.2639912,229.33762)"/>
    <path d="m 36.909964,262.70587 a 3.3072935,3.3072935 0 1 1 -6.614587,0 3.3072935,3.3072935 0 1 1 6.614587,0 z"/>
   </g>
   <g>
    <path style="fill:#ffb800" d="M 160.5 69.824219 L 138 108.79297 A 20.000003 20.000003 0 0 1 138.08984 108.83984 A 20.000003 20.000003 0 0 1 139.76367 109.93164 A 20.000003 20.000003 0 0 1 141.31836 111.1875 A 20.000003 20.000003 0 0 1 142.74219 112.5918 A 20.000003 20.000003 0 0 1 144.01758 114.13086 A 20.000003 20.000003 0 0 1 145.13281 115.78906 A 20.000003 20.000003 0 0 1 146.07812 117.55273 A 20.000003 20.000003 0 0 1 146.8418 119.40039 A 20.000003 20.000003 0 0 1 147.41797 121.31445 A 20.000003 20.000003 0 0 1 147.79883 123.27734 A 20.000003 20.000003 0 0 1 147.98242 125.26758 A 20.000003 20.000003 0 0 1 148 126.11523 L 193 126.11523 A 64.999986 64.999986 0 0 0 160.5 69.824219 z" transform="matrix(0.26458333,0,0,0.26458333,-0.2639912,229.33762)"/>
    <path style="fill:#ffb800" d="M 95.5 69.824219 A 64.999986 64.999986 0 0 0 63 126.11523 L 108 126.11523 A 20.000003 20.000003 0 0 1 108.09961 124.11914 A 20.000003 20.000003 0 0 1 108.39648 122.14258 A 20.000003 20.000003 0 0 1 108.89062 120.20508 A 20.000003 20.000003 0 0 1 109.57617 118.32617 A 20.000003 20.000003 0 0 1 110.44336 116.52734 A 20.000003 20.000003 0 0 1 111.48828 114.82227 A 20.000003 20.000003 0 0 1 112.69727 113.23047 A 20.000003 20.000003 0 0 1 114.06055 111.76562 A 20.000003 20.000003 0 0 1 115.56055 110.44727 A 20.000003 20.000003 0 0 1 117.1875 109.2832 A 20.000003 20.000003 0 0 1 118.00977 108.81055 L 95.5 69.824219 z" transform="matrix(0.26458333,0,0,0.26458333,-0.2639912,229.33762)"/>
    <path style="fill:#ffb800" d="M 117.99805 143.43945 L 95.5 182.4082 A 64.999986 64.999986 0 0 0 160.5 182.4082 L 137.99219 143.42188 A 20.000003 20.000003 0 0 1 137.08008 143.94531 A 20.000003 20.000003 0 0 1 135.25586 144.76172 A 20.000003 20.000003 0 0 1 133.35742 145.39453 A 20.000003 20.000003 0 0 1 131.4082 145.83203 A 20.000003 20.000003 0 0 1 129.42383 146.07422 A 20.000003 20.000003 0 0 1 127.42383 146.11719 A 20.000003 20.000003 0 0 1 125.43164 145.95898 A 20.000003 20.000003 0 0 1 123.46484 145.60352 A 20.000003 20.000003 0 0 1 121.54297 145.05273 A 20.000003 20.000003 0 0 1 119.68555 144.31445 A 20.000003 20.000003 0 0 1 117.99805 143.43945 z" transform="matrix(0.26458333,0,0,0.26458333,-0.2639912,229.33762)"/>
    <path style="fill:#ffb800" d="m 36.909964,262.70587 a 3.3072935,3.3072935 0 1 1 -6.614587,0 3.3072935,3.3072935 0 1 1 6.614587,0 z"/>
   </g>
  </g>
 </g>
</svg>
