<svg width="256" height="256" version="1.1" viewBox="0 0 67.73 67.73" xmlns="http://www.w3.org/2000/svg" xmlns:xlink="http://www.w3.org/1999/xlink">
 <defs>
  <filter id="filter1229" x="-.02" y="-.02" width="1.048" height="1.048" style="color-interpolation-filters:sRGB">
   <feGaussianBlur stdDeviation=".24"/>
  </filter>
  <filter id="filter966" x="-.06" y="-.06" width="1.12" height="1.12" style="color-interpolation-filters:sRGB">
   <feGaussianBlur stdDeviation="2"/>
  </filter>
  <filter id="filter1219" x="-.02" y="-.03" width="1.045" height="1.051" style="color-interpolation-filters:sRGB">
   <feGaussianBlur stdDeviation=".792"/>
  </filter>
  <linearGradient id="linearGradient1108" x1="296" x2="296" y1="-212" y2="236" gradientUnits="userSpaceOnUse">
   <stop style="stop-color:#ffffff" offset="0"/>
   <stop style="stop-color:#ffffff;stop-opacity:.09803922" offset=".125"/>
   <stop style="stop-color:#000000;stop-opacity:.09803922" offset=".925"/>
   <stop style="stop-color:#000000;stop-opacity:.49803922" offset="1"/>
  </linearGradient>
  <clipPath id="clipPath1082-3-2">
   <path d="M 361.9375,-212 C 507.2348,-212 528,-191.28677 528,-46.125 V 70.125 C 528,215.28618 507.2348,236 361.9375,236 H 214.0625 C 68.7652,236 48,215.28618 48,70.125 V -46.125 C 48,-191.28677 68.7652,-212 214.0625,-212 Z" style="fill:#8c59d9"/>
  </clipPath>
  <filter id="filter4569" x="-.01" y="-.01" width="1.023" height="1.025" style="color-interpolation-filters:sRGB">
   <feGaussianBlur stdDeviation="1.16"/>
  </filter>
  <filter id="filter913" x="-.02" y="-.03" width="1.046" height="1.05" style="color-interpolation-filters:sRGB">
   <feGaussianBlur stdDeviation="2.32"/>
  </filter>
 </defs>
 <g transform="translate(0,-229.26666)">
  <path transform="matrix(.26458333 0 0 .26458333 -1.8735229e-8 232.67026)" d="m162.53675 5.5680001c72.64865 0 83.03125 10.356615 83.03125 82.937505v58.125005c0 72.58059-10.3826 82.9375-83.03125 82.9375h-73.937496c-72.648654 0-83.031254-10.35691-83.031254-82.9375v-58.125005c0-72.58089 10.3826-82.937505 83.031254-82.937505z" style="filter:url(#filter913);opacity:.2"/>
  <path transform="matrix(.26458333 0 0 .26458333 -1.8735229e-8 232.67026)" d="m162.53675 3.5680001c72.64865 0 83.03125 10.356615 83.03125 82.937505v58.125005c0 72.58059-10.3826 82.9375-83.03125 82.9375h-73.937496c-72.648654 0-83.031254-10.35691-83.031254-82.9375v-58.125005c0-72.58089 10.3826-82.937505 83.031254-82.937505z" style="filter:url(#filter4569);opacity:.1"/>
  <path d="m23.441883 233.61429c-9.611188 0-15.101642 0.68375-18.192171 3.77032-3.0905239 3.08656-3.7765139 8.57135-3.7765139 18.17356v15.37891c0 9.60218 0.68599 15.087 3.7765139 18.17357 3.0905289 3.08658 8.5809831 3.77031 18.192171 3.77031h19.56263c9.61119 0 15.101644-0.68373 18.19217-3.77031 3.090527-3.08657 3.776515-8.57139 3.776515-18.17357v-15.37891c0-9.60221-0.685988-15.087-3.776515-18.17356-3.090526-3.08657-8.580982-3.77032-18.19217-3.77032z" style="fill:#4d4d4d"/>
  <path d="m1.473198 270.40792v0.52916c0 9.60218 0.68599 15.087 3.7765139 18.17357 3.0905289 3.08658 8.5809831 3.77031 18.192171 3.77031h19.56263c9.61119 0 15.101644-0.68373 18.19217-3.77031 3.090527-3.08657 3.776515-8.57139 3.776515-18.17357v-0.52916c0 9.60217-0.685988 15.08699-3.776515 18.17356-3.090526 3.08658-8.58098 3.77032-18.19217 3.77032h-19.56263c-9.611188 0-15.101642-0.68374-18.192171-3.77032-3.0905239-3.08657-3.7765139-8.57139-3.7765139-18.17356z" style="fill:#131313;opacity:.2"/>
  <path transform="matrix(.13229167 0 0 .13229167 -4.876802 261.66013)" d="M 361.9375,-212 C 507.2348,-212 528,-191.28677 528,-46.125 V 70.125 C 528,215.28618 507.2348,236 361.9375,236 H 214.0625 C 68.7652,236 48,215.28618 48,70.125 V -46.125 C 48,-191.28677 68.7652,-212 214.0625,-212 Z" clip-path="url(#clipPath1082-3-2)" style="fill:none;opacity:.4;stroke-linecap:round;stroke-linejoin:round;stroke-width:8;stroke:url(#linearGradient1108)"/>
  <path transform="matrix(.26458333 0 0 .26458333 -1.8735229e-8 232.67026)" d="m163.85119 131.54067a4.0004 4.0004 0 0 0-2.17773 0.5625l-28.3125 16.3457a12 12 0 0 0-7.79297-2.88086 12 12 0 0 0-7.78516 2.88672l-28.320306-16.35156a4.0004 4.0004 0 0 0-1.89844-0.56055 4.0004 4.0004 0 0 0-2.10156 7.49023l28.314446 16.34571a12 12 0 0 0-0.20898 2.18945 12 12 0 0 0 8 11.29883v32.70117a4.0004 4.0004 0 1 0 8 0v-32.70117a12 12 0 0 0 8-11.29883 12 12 0 0 0-0.20703-2.18945l28.3125-16.34571a4.0004 4.0004 0 0 0-1.82227-7.49218z" style="fill-rule:evenodd;filter:url(#filter1219);opacity:.1"/>
  <path d="m23.441883 238.11221h19.56263c9.410414 0 13.662699 0.99619 15.200622 2.53215 1.537919 1.53594 2.534729 5.7778 2.534729 15.1784v15.37891c0 9.40055-0.996812 13.64245-2.534729 15.1784-1.537923 1.53596-5.790203 2.53214-15.200622 2.53214h-19.56263c-9.410417 0-13.662696-0.99618-15.200623-2.53214-1.5379155-1.53595-2.5347289-5.77785-2.5347289-15.1784v-15.37891c0-9.4006 0.9968108-13.64246 2.5347289-15.1784 1.5379285-1.53596 5.7902086-2.53215 15.200623-2.53215z" style="fill:none;opacity:.2;stroke-linecap:round;stroke-linejoin:round;stroke-width:.52916664;stroke:#ffffff"/>
  <path d="m23.441883 237.84763h19.56263c9.410414 0 13.662699 0.99619 15.200622 2.53214 1.537919 1.53595 2.534729 5.77781 2.534729 15.1784v15.37891c0 9.40056-0.996812 13.64246-2.534729 15.1784-1.537923 1.53596-5.790203 2.53215-15.200622 2.53215h-19.56263c-9.410417 0-13.662696-0.99619-15.200623-2.53215-1.5379155-1.53594-2.5347289-5.77784-2.5347289-15.1784v-15.37891c0-9.40059 0.9968108-13.64245 2.5347289-15.1784 1.5379285-1.53595 5.7902086-2.53214 15.200623-2.53214z" style="fill:none;stroke-linecap:round;stroke-linejoin:round;stroke-width:.52916664;stroke:#3b3b3b"/>
  <circle transform="matrix(.26458333 0 0 .26458333 -1.8735229e-8 232.67026)" cx="125.568" cy="77.568" r="40" style="filter:url(#filter966);opacity:.1"/>
  <circle cx="33.223" cy="252.664" r="10.583" style="fill:#ffffff"/>
  <circle cx="33.223" cy="252.664" r="8.996" style="fill:#cdcdcd"/>
  <g transform="matrix(.26458333 0 0 .26458333 -6.993469 220.91429)" style="enable-background:new">
   <path d="m152 244v-44" style="fill:none;stroke-linecap:round;stroke-width:8;stroke:#cdcdcd"/>
   <path d="m152 200-38.10512-22" style="fill:none;stroke-linecap:round;stroke-width:8;stroke:#cdcdcd"/>
   <path d="M 190.10512,178 152,200" style="fill:none;stroke-linecap:round;stroke-width:8;stroke:#cdcdcd"/>
  </g>
  <circle transform="matrix(.26458333 0 0 .26458333 -1.8735229e-8 232.67026)" cx="125.568" cy="157.568" r="12" style="filter:url(#filter1229);opacity:.1"/>
  <circle cx="33.223" cy="273.831" r="3.175" style="fill:#e6e6e6"/>
  <circle cx="33.223" cy="273.831" r="2.117" style="fill:#ffffff"/>
  <circle cx="33.223" cy="252.664" r="7.408" style="fill:#666666"/>
  <path d="m33.223197 245.25596-1.575096 2.36265a5.2916667 5.2916667 0 0 0-3.71657 5.04568 5.2916667 5.2916667 0 0 0 5.291666 5.29167 5.2916667 5.2916667 0 0 0 5.291667-5.29167 5.2916667 5.2916667 0 0 0-3.721738-5.05292z" style="fill:#f7f7f7"/>
  <path d="m33.223197 246.73763-1.260078 1.89012a4.2333333 4.2333333 0 0 0-2.973255 4.03654 4.2333333 4.2333333 0 0 0 4.233333 4.23334 4.2333333 4.2333333 0 0 0 4.233334-4.23334 4.2333333 4.2333333 0 0 0-2.977391-4.04233z" style="fill:#ffffff"/>
 </g>
</svg>
