<svg xmlns="http://www.w3.org/2000/svg" xmlns:xlink="http://www.w3.org/1999/xlink" width="256" height="256" version="1.1" viewBox="0 0 67.73 67.73">
 <defs>
  <linearGradient id="linearGradient3650-7-9">
   <stop style="stop-color:#5884f4" offset="0"/>
   <stop offset="1" style="stop-color:#80a3fa"/>
  </linearGradient>
  <linearGradient id="linearGradient1108" x1="296" x2="296" y1="-212" y2="236" gradientUnits="userSpaceOnUse" xlink:href="#linearGradient1013"/>
  <linearGradient id="linearGradient1013">
   <stop offset="0" style="stop-color:#ffffff"/>
   <stop style="stop-color:#ffffff;stop-opacity:0.09803922" offset=".125"/>
   <stop style="stop-color:#000000;stop-opacity:0.09803922" offset=".925"/>
   <stop offset="1" style="stop-color:#000000;stop-opacity:0.49803922"/>
  </linearGradient>
  <clipPath id="clipPath1082-3-361" clipPathUnits="userSpaceOnUse">
   <path d="M 361.9375,-212 C 507.2348,-212 528,-191.28677 528,-46.125 V 70.125 C 528,215.28618 507.2348,236 361.9375,236 H 214.0625 C 68.7652,236 48,215.28618 48,70.125 V -46.125 C 48,-191.28677 68.7652,-212 214.0625,-212 Z" style="fill:#8c59d9"/>
  </clipPath>
  <linearGradient id="linearGradient4245">
   <stop offset="0" style="stop-color:#e8e8e8"/>
   <stop offset="1" style="stop-color:#f5f5f5"/>
  </linearGradient>
  <linearGradient id="linearGradient1044" x1="88" x2="256" y1="28" y2="284" gradientTransform="matrix(0.26970781,0,0,0.26970781,-7.1289179,220.5605)" gradientUnits="userSpaceOnUse" xlink:href="#linearGradient4245"/>
  <filter style="color-interpolation-filters:sRGB" id="filter4569" width="1.023" height="1.025" x="-.01" y="-.01">
   <feGaussianBlur stdDeviation="1.16"/>
  </filter>
  <filter style="color-interpolation-filters:sRGB" id="filter939" width="1.046" height="1.05" x="-.02" y="-.03">
   <feGaussianBlur stdDeviation="2.32"/>
  </filter>
  <radialGradient id="radialGradient4101" cx="156.366" cy="21.664" r="17.375" fx="156.366" fy="21.664" gradientTransform="matrix(-2.2547931e-7,4.0203822,-4.0806977,-3.575771e-7,121.87332,-400.51557)" gradientUnits="userSpaceOnUse" xlink:href="#linearGradient3650-7-9"/>
 </defs>
 <g transform="translate(0,-229.26666)">
  <path style="opacity:0.2;filter:url(#filter939)" d="m 162.53675,5.5680001 c 72.64865,0 83.03125,10.3566149 83.03125,82.9375049 v 58.125005 c 0,72.58059 -10.3826,82.9375 -83.03125,82.9375 H 88.599254 C 15.9506,229.56801 5.568,219.2111 5.568,146.63051 V 88.505505 c 0,-72.58089 10.3826,-82.9375049 83.031254,-82.9375049 z" transform="matrix(0.26970779,0,0,0.26970779,-1.9098094e-8,231.46531)"/>
  <path d="m 43.837429,232.42763 c 19.593907,0 22.394176,2.79326 22.394176,22.36889 v 15.67677 c 0,19.57555 -2.800269,22.36889 -22.394176,22.36889 H 23.89591 c -19.5939088,0 -22.394177,-2.79334 -22.394177,-22.36889 v -15.67677 c 0,-19.57563 2.8002682,-22.36889 22.394177,-22.36889 z" style="opacity:0.1;fill:none;stroke:#000000;stroke-width:1.07883108;stroke-linecap:round;stroke-linejoin:round"/>
  <path d="m 162.53675,3.5680001 c 72.64865,0 83.03125,10.3566149 83.03125,82.9375049 v 58.125005 c 0,72.58059 -10.3826,82.9375 -83.03125,82.9375 H 88.599254 C 15.9506,227.56801 5.568,217.2111 5.568,144.63051 V 86.505505 c 0,-72.58089 10.3826,-82.9375049 83.031254,-82.9375049 z" transform="matrix(0.26970779,0,0,0.26970779,-1.9098094e-8,231.46531)" style="opacity:0.1;filter:url(#filter4569)"/>
  <path style="fill:url(#linearGradient1044)" d="m 43.837427,232.42763 c 19.593907,0 22.394175,2.79326 22.394175,22.36889 v 15.67677 c 0,19.57555 -2.800268,22.36889 -22.394175,22.36889 h -19.94152 c -19.5939074,0 -22.3941756,-2.79334 -22.3941756,-22.36889 v -15.67677 c 0,-19.57563 2.8002682,-22.36889 22.3941756,-22.36889 z"/>
  <g transform="translate(0.1530776)">
   <path style="fill:url(#radialGradient4101)" d="m 35.563187,232.42753 h -3.991359 c -5.019519,7.33429 -9.871775,14.79015 -14.780197,22.19875 -1.497426,2.57285 -2.88346,4.82616 -3.835961,7.25419 -0.601917,1.7827 -0.927648,3.66581 -0.927648,5.61856 0,10.97158 10.18681,19.8762 22.764497,19.8762 12.577688,0 22.763969,-8.90462 22.763969,-19.8762 -0.04891,-2.40223 -0.550479,-4.46897 -1.13783,-6.16377 -1.178356,-3.14624 -3.89742,-6.27658 -5.564829,-8.84768 -4.950406,-6.79008 -10.319541,-13.28384 -15.290642,-20.06005 z"/>
   <path style="fill:#8ab4ff" d="m 23.8683,243.91066 c -2.362357,3.57039 -4.713212,7.1483 -7.076669,10.71562 -0.748713,1.28642 -1.469619,2.49318 -2.122369,3.68161 -0.326375,0.59422 -0.635623,1.18392 -0.922906,1.77681 -0.287284,0.59289 -0.552561,1.18876 -0.790686,1.79577 -0.300959,0.89135 -0.532874,1.80783 -0.689547,2.74554 -0.156672,0.93771 -0.238101,1.89664 -0.238101,2.87302 0,0.68572 0.03979,1.36333 0.11747,2.03124 0.07768,0.6679 0.193481,1.32601 0.345037,1.97276 0.151556,0.64675 0.338863,1.28203 0.560486,1.90429 0.221624,0.62225 0.477517,1.23137 0.765402,1.82579 0.287885,0.59442 0.60786,1.17405 0.9582,1.7373 0.350339,0.56325 0.730949,1.11058 1.139937,1.63932 0.408987,0.52873 0.846255,1.03938 1.310084,1.53027 0.463829,0.49089 0.954306,0.96153 1.46917,1.41123 0.514864,0.4497 1.054047,0.87804 1.61614,1.28322 0.562092,0.40517 1.14706,0.78737 1.752574,1.14467 0.605514,0.35731 1.231763,0.69003 1.876892,0.99613 0.645129,0.3061 1.309211,0.58549 1.990148,0.83704 0.680938,0.25156 1.378876,0.47533 2.091816,0.66901 0.71294,0.19367 1.44076,0.35744 2.181893,0.48989 0.741135,0.13246 1.495387,0.23342 2.260912,0.30132 0.765522,0.0679 1.542229,0.10272 2.328336,0.10272 0.786107,0 1.562816,-0.0348 2.328336,-0.10272 0.76552,-0.0679 1.519782,-0.16886 2.260909,-0.30132 0.74113,-0.13245 1.468967,-0.29622 2.181896,-0.48989 0.712929,-0.19368 1.41089,-0.41745 2.091816,-0.66901 0.680926,-0.25155 1.345033,-0.53094 1.990147,-0.83704 0.645116,-0.3061 1.271394,-0.63882 1.876894,-0.99613 0.436581,-0.25762 0.848918,-0.54269 1.2632,-0.82545 -5.939572,-1.60371 -13.053129,-3.85812 -17.282897,-6.552 a 0.19071544,0.18997844 0 0 1 -0.01159,-0.005 c -7.199082,-5.29265 -8.944233,-12.41936 -6.691597,-17.78228 2.252625,-5.36293 8.494518,-8.92821 17.078508,-7.16886 2.328393,0.47721 4.639991,2.99876 6.41083,5.38099 1.071107,1.44091 1.812372,2.63812 2.329917,3.51832 -0.281829,-1.25441 -0.836874,-3.44477 -2.17768,-6.38607 -1.841072,-4.03876 -4.884193,-8.49239 -9.667339,-10.23362 -1.65969,-0.60419 -3.670513,-0.85014 -5.704954,-0.89025 -0.678145,-0.0134 -1.358637,-0.004 -2.029656,0.0221 -3.441617,0.13754 -5.980913,0.61163 -7.17096,0.85337 z"/>
  </g>
  <path style="opacity:0.1;fill:#ffffff" d="m 23.895907,292.84218 c -19.5939074,0 -22.3941756,-2.79326 -22.3941756,-22.36889 v -7.83838 H 66.231602 v 7.83838 c 0,19.57563 -2.800268,22.36889 -22.394175,22.36889 z"/>
  <path style="opacity:0.1;fill:#ffffff" d="m 33.866666,232.42763 v 60.41455 h 9.970761 c 19.593907,0 22.394175,-2.79334 22.394175,-22.36889 v -15.67677 c 0,-19.57563 -2.800268,-22.36889 -22.394175,-22.36889 z"/>
  <path d="M 361.9375,-212 C 507.2348,-212 528,-191.28677 528,-46.125 V 70.125 C 528,215.28618 507.2348,236 361.9375,236 H 214.0625 C 68.7652,236 48,215.28618 48,70.125 V -46.125 C 48,-191.28677 68.7652,-212 214.0625,-212 Z" clip-path="url(#clipPath1082-3-361)" transform="matrix(0.1348539,0,0,0.1348539,-4.9712559,261.01666)" style="opacity:0.4;fill:none;stroke:url(#linearGradient1108);stroke-width:8;stroke-linecap:round;stroke-linejoin:round"/>
 </g>
</svg>
