<svg width="256" height="256" style="enable-background:new" version="1.0" xmlns="http://www.w3.org/2000/svg" xmlns:xlink="http://www.w3.org/1999/xlink">
 <defs>
  <filter id="filter925" x="-.02" y="-.03" width="1.046" height="1.05" style="color-interpolation-filters:sRGB">
   <feGaussianBlur stdDeviation="2.32"/>
  </filter>
  <filter id="filter931" x="-.01" y="-.01" width="1.023" height="1.025" style="color-interpolation-filters:sRGB">
   <feGaussianBlur stdDeviation="1.16"/>
  </filter>
  <linearGradient id="linearGradient1108" x1="296" x2="296" y1="-212" y2="236" gradientUnits="userSpaceOnUse">
   <stop style="stop-color:#ffffff" offset="0"/>
   <stop style="stop-color:#ffffff;stop-opacity:.09803922" offset=".125"/>
   <stop style="stop-color:#000000;stop-opacity:.09803922" offset=".925"/>
   <stop style="stop-color:#000000;stop-opacity:.49803922" offset="1"/>
  </linearGradient>
  <clipPath id="clipPath1082-3">
   <path d="M 361.9375,-212 C 507.2348,-212 528,-191.28677 528,-46.125 V 70.125 C 528,215.28618 507.2348,236 361.9375,236 H 214.0625 C 68.7652,236 48,215.28618 48,70.125 V -46.125 C 48,-191.28677 68.7652,-212 214.0625,-212 Z" style="fill:#8c59d9"/>
  </clipPath>
  <filter id="filter999" x="-.05" y="-.05" width="1.096" height="1.096" style="color-interpolation-filters:sRGB">
   <feGaussianBlur stdDeviation=".926"/>
  </filter>
  <linearGradient id="linearGradient895" x1="90" x2="160" y1="76" y2="171" gradientTransform="matrix(1.09375,0,0,1.09375,-14.429018,-9.3806342)" gradientUnits="userSpaceOnUse">
   <stop style="stop-color:#dedbde" offset="0"/>
   <stop style="stop-color:#e6e6e6" offset=".5"/>
   <stop style="stop-color:#d2d2d2" offset="1"/>
  </linearGradient>
  <filter id="filter997" x="-.03" y="-.09" width="1.066" height="1.178" style="color-interpolation-filters:sRGB">
   <feGaussianBlur stdDeviation=".798"/>
  </filter>
 </defs>
 <g transform="translate(0,-44)">
  <path d="m162.53675 62.431991c72.64865 0 83.03125 10.356615 83.03125 82.937499v58.125c0 72.58059-10.3826 82.9375-83.03125 82.9375h-73.9375c-72.64865 0-83.03125-10.35691-83.03125-82.9375v-58.125c0-72.580884 10.3826-82.937499 83.03125-82.937499z" style="filter:url(#filter925);opacity:.2"/>
  <path d="m162.53675 61.431991c72.64865 0 83.03125 10.356615 83.03125 82.937499v58.125c0 72.58059-10.3826 82.9375-83.03125 82.9375h-73.9375c-72.64865 0-83.03125-10.35691-83.03125-82.9375v-58.125c0-72.580884 10.3826-82.937499 83.03125-82.937499z" style="filter:url(#filter931);opacity:.1"/>
  <path d="m162.53675 60.431991c72.64865 0 83.03125 10.356615 83.03125 82.937499v58.125c0 72.58059-10.3826 82.9375-83.03125 82.9375h-73.9375c-72.64865 0-83.03125-10.35691-83.03125-82.9375v-58.125c0-72.580884 10.3826-82.937499 83.03125-82.937499z" style="fill:#4d4d4d"/>
  <path transform="matrix(.5 0 0 .5 -18.432 166.43199)" d="M 361.9375,-212 C 507.2348,-212 528,-191.28677 528,-46.125 V 70.125 C 528,215.28618 507.2348,236 361.9375,236 H 214.0625 C 68.7652,236 48,215.28618 48,70.125 V -46.125 C 48,-191.28677 68.7652,-212 214.0625,-212 Z" clip-path="url(#clipPath1082-3)" style="fill:none;opacity:.4;stroke-linecap:round;stroke-linejoin:round;stroke-width:8;stroke:url(#linearGradient1108)"/>
 </g>
 <path d="m5.568 127.7184v34.77626c0 34.05298 2.59272 53.50424 14.27344 64.45039 11.68073 10.9462 32.43205 13.37095 68.7578 13.37095h73.93751c36.32576 0 57.07708-2.42475 68.75781-13.37095 11.68073-10.94615 14.27344-30.39741 14.27344-64.45039v-34.77626z" style="fill:#ffffff;opacity:.05"/>
 <path transform="matrix(3.7795275,0,0,3.7795275,-4.7240946,-862.10394)" d="m57.624158 262.07931c0-12.83241-10.318634-23.15104-23.151041-23.15104-12.832411 0-23.151042 10.31863-23.151042 23.15104-1e-6 12.8324 10.318633 23.15104 23.151042 23.15104 12.832404 0 23.151041-10.31864 23.151041-23.15104zm-14.681148 0c0 4.66197-3.714635 8.4699-8.469893 8.4699-4.848541 0-8.469895-3.90216-8.469895-8.4699 0-4.66105 3.434788-8.4699 8.469895-8.4699 5.035106 0 8.469893 3.9012 8.469893 8.4699z" style="filter:url(#filter999);opacity:.3"/>
 <path d="m213.068 128.43202c0-48.500452-38.99957-87.499997-87.5-87.499997-48.500451 0-87.5 38.999545-87.5 87.499997-4e-6 48.50041 38.999556 87.49999 87.5 87.49999 48.50042 0 87.5-38.99958 87.5-87.49999zm-55.48781 0c0 17.62005-14.03956 32.01222-32.01219 32.01222-18.32519 0-32.012202-14.74832-32.012202-32.01222 0-17.61657 12.981882-32.012225 32.012202-32.012225s32.01219 14.744695 32.01219 32.012225z" style="fill:#a8a8a8"/>
 <path d="m125.242 41.064306c-48.347304 0.176504-87.171018 39.103142-87.171018 87.493574-1.2e-5 48.50045 38.999556 87.49999 87.499998 87.49999 48.50042 0 87.5-38.99954 87.5-87.49999 0-0.0423-2e-3 -0.0839-2e-3 -0.12586h-55.48879c1.7e-4 0.0423 2e-3 0.0839 2e-3 0.12586 0 17.62008-14.03879 32.01358-32.01142 32.01358-18.32519 0-32.011414-14.74964-32.011414-32.01358 0-17.514 12.833074-31.836668 31.682434-32.002854z" style="fill:url(#linearGradient895)"/>
 <g transform="matrix(3.7795275,0,0,3.7795275,-1.2958606,-854.81166)">
  <g transform="matrix(.52916667 0 0 .52916667 .59555681 228.7292)" style="filter:url(#filter997);opacity:.3">
   <path d="m35.403036 84.75769h53.806862c1.254602 0 2.264624 1.197968 2.264624 2.686027v16.116153c0 1.48806-1.010022 2.68603-2.264624 2.68603h-53.806862c-1.254602 0-2.264624-1.19797-2.264624-2.68603v-16.116153c0-1.488059 1.010022-2.686027 2.264624-2.686027z"/>
   <g transform="matrix(.94035775 0 0 .94038875 32.017034 47.833934)">
    <g transform="scale(1.0000165 .99998351)">
     <path d="m12.828441 50.507592q0 1.408876-0.388393 2.475053-0.380777 1.058561-1.11187 1.774423-0.723477 0.708246-1.7820384 1.066176-1.0509457 0.357931-2.3988978 0.357931h-2.9319862v-11.133932h3.2594548q1.2261033 0 2.208509 0.350315 0.9900216 0.350316 1.6906516 1.043331 0.700631 0.685399 1.073793 1.705883 0.380777 1.020483 0.380777 2.36082zm-2.391282 0.06092q0-0.929097-0.190389-1.599265-0.182773-0.67778-0.5407039-1.119482-0.3503152-0.441702-0.8681725-0.654937-0.5102418-0.213235-1.1727945-0.213235h-1.0890235v7.250002h0.8681726q1.4926475 0 2.2389712-0.913866 0.7539396-0.913866 0.7539396-2.749213z"/>
     <path d="m18.410638 49.159639q-0.61686 0-1.028099 0.434087-0.403624 0.434086-0.464549 1.363183h2.962449q-0.0076-0.388393-0.099-0.715862-0.09139-0.327468-0.274159-0.56355-0.182773-0.243698-0.456933-0.380778t-0.639706-0.13708zm0.297006 7.173847q-0.913866 0-1.683036-0.266544t-1.325106-0.799633q-0.555935-0.540704-0.868172-1.355567-0.304622-0.822479-0.304622-1.926734 0-1.119486 0.281775-1.957196 0.281776-0.83771 0.784402-1.393645 0.510242-0.563551 1.218488-0.845326 0.715861-0.281776 1.584034-0.281776 0.845326 0 1.523109 0.258929 0.6854 0.251313 1.157564 0.746324 0.479779 0.49501 0.731092 1.218488 0.258929 0.715861 0.258929 1.644958v1.127101h-5.193804q0.01523 0.487395 0.152311 0.883404 0.144695 0.388393 0.396008 0.662553 0.258929 0.266544 0.61686 0.411239 0.365546 0.144696 0.830095 0.144696 0.388393 0 0.731092-0.03808 0.350316-0.04569 0.677784-0.129464 0.327469-0.08377 0.647322-0.20562 0.319853-0.129465 0.654937-0.297007v1.79727q-0.304622 0.159926-0.616859 0.27416-0.304622 0.106617-0.647322 0.182773-0.3427 0.07615-0.738708 0.106617-0.396009 0.03808-0.868173 0.03808z"/>
     <path d="m29.955809 45.047243h2.383666l-3.47269 11.133932h-2.574055l-3.465075-11.133932h2.383667l1.888656 6.701683q0.03808 0.129464 0.099 0.434086 0.06854 0.304622 0.13708 0.670169 0.07615 0.365546 0.144695 0.731092 0.06854 0.365547 0.106618 0.61686 0.03808-0.251313 0.106618-0.61686 0.06854-0.365546 0.144695-0.723477 0.07616-0.365546 0.144695-0.670168 0.07616-0.304622 0.114234-0.441702z"/>
     <path d="m36.535643 49.159639q-0.61686 0-1.0281 0.434087-0.403624 0.434086-0.464548 1.363183h2.962448q-0.0076-0.388393-0.099-0.715862-0.09139-0.327468-0.274159-0.56355-0.182774-0.243698-0.456933-0.380778-0.27416-0.13708-0.639706-0.13708zm0.297006 7.173847q-0.913866 0-1.683036-0.266544-0.769171-0.266544-1.325106-0.799633-0.555935-0.540704-0.868172-1.355567-0.304622-0.822479-0.304622-1.926734 0-1.119486 0.281775-1.957196t0.784402-1.393645q0.510241-0.563551 1.218487-0.845326 0.715862-0.281776 1.584034-0.281776 0.845326 0 1.52311 0.258929 0.6854 0.251313 1.157564 0.746324 0.479779 0.49501 0.731092 1.218488 0.258929 0.715861 0.258929 1.644958v1.127101h-5.193804q0.01523 0.487395 0.152311 0.883404 0.144695 0.388393 0.396008 0.662553 0.258929 0.266544 0.61686 0.411239 0.365546 0.144696 0.830094 0.144696 0.388393 0 0.731093-0.03808 0.350315-0.04569 0.677784-0.129464 0.327469-0.08377 0.647322-0.20562 0.319853-0.129465 0.654937-0.297007v1.79727q-0.304622 0.159926-0.61686 0.27416-0.304622 0.106617-0.647321 0.182773-0.3427 0.07615-0.738709 0.106617-0.396008 0.03808-0.868172 0.03808z"/>
     <path d="m50.967109 50.507592q0 1.408876-0.388393 2.475053-0.380777 1.058561-1.11187 1.774423-0.723477 0.708246-1.782038 1.066176-1.050946 0.357931-2.398898 0.357931h-2.931986v-11.133932h3.259454q1.226104 0 2.20851 0.350315 0.990021 0.350316 1.690651 1.043331 0.700631 0.685399 1.073793 1.705883 0.380777 1.020483 0.380777 2.36082zm-2.391282 0.06092q0-0.929097-0.190389-1.599265-0.182773-0.677784-0.540704-1.119486-0.350315-0.441702-0.868172-0.654937-0.510242-0.213235-1.172795-0.213235h-1.089023v7.250002h0.868172q1.492648 0 2.238972-0.913866 0.753939-0.913866 0.753939-2.749213z"/>
     <path d="m56.549303 49.159639q-0.616859 0-1.028099 0.434087-0.403624 0.434086-0.464549 1.363183h2.962449q-0.0076-0.388393-0.099-0.715862-0.09139-0.327468-0.27416-0.56355-0.182773-0.243698-0.456933-0.380778t-0.639706-0.13708zm0.297006 7.173847q-0.913865 0-1.683036-0.266544-0.76917-0.266544-1.325105-0.799633-0.555935-0.540704-0.868173-1.355567-0.304622-0.822479-0.304622-1.926734 0-1.119486 0.281775-1.957196 0.281776-0.83771 0.784402-1.393645 0.510242-0.563551 1.218488-0.845326 0.715861-0.281776 1.584034-0.281776 0.845326 0 1.52311 0.258929 0.685399 0.251313 1.157563 0.746324 0.47978 0.49501 0.731093 1.218488 0.258928 0.715861 0.258928 1.644958v1.127101h-5.193804q0.01523 0.487395 0.152311 0.883404 0.144696 0.388393 0.396009 0.662553 0.258928 0.266544 0.616859 0.411239 0.365546 0.144696 0.830095 0.144696 0.388393 0 0.731093-0.03808 0.350315-0.04569 0.677783-0.129464 0.327469-0.08377 0.647322-0.20562 0.319853-0.129465 0.654937-0.297007v1.79727q-0.304622 0.159926-0.616859 0.27416-0.304622 0.106617-0.647322 0.182773-0.3427 0.07615-0.738708 0.106617-0.396009 0.03808-0.868173 0.03808z"/>
    </g>
   </g>
  </g>
  <g transform="matrix(.52916667 0 0 .52916667 .59555681 228.7292)">
   <path d="m35.403036 84.75769h53.806862c1.254602 0 2.264624 1.197968 2.264624 2.686027v16.116153c0 1.48806-1.010022 2.68603-2.264624 2.68603h-53.806862c-1.254602 0-2.264624-1.19797-2.264624-2.68603v-16.116153c0-1.488059 1.010022-2.686027 2.264624-2.686027z" style="fill:#42a526"/>
   <g transform="matrix(.94035775 0 0 .94038875 32.017034 47.833934)">
    <g transform="scale(1.0000165 .99998351)">
     <path d="m12.828441 50.507592q0 1.408876-0.388393 2.475053-0.380777 1.058561-1.11187 1.774423-0.723477 0.708246-1.7820384 1.066176-1.0509457 0.357931-2.3988978 0.357931h-2.9319862v-11.133932h3.2594548q1.2261033 0 2.208509 0.350315 0.9900216 0.350316 1.6906516 1.043331 0.700631 0.685399 1.073793 1.705883 0.380777 1.020483 0.380777 2.36082zm-2.391282 0.06092q0-0.929097-0.190389-1.599265-0.182773-0.67778-0.5407039-1.119482-0.3503152-0.441702-0.8681725-0.654937-0.5102418-0.213235-1.1727945-0.213235h-1.0890235v7.250002h0.8681726q1.4926475 0 2.2389712-0.913866 0.7539396-0.913866 0.7539396-2.749213z" style="fill:#ffffff"/>
     <path d="m18.410638 49.159639q-0.61686 0-1.028099 0.434087-0.403624 0.434086-0.464549 1.363183h2.962449q-0.0076-0.388393-0.099-0.715862-0.09139-0.327468-0.274159-0.56355-0.182773-0.243698-0.456933-0.380778t-0.639706-0.13708zm0.297006 7.173847q-0.913866 0-1.683036-0.266544t-1.325106-0.799633q-0.555935-0.540704-0.868172-1.355567-0.304622-0.822479-0.304622-1.926734 0-1.119486 0.281775-1.957196 0.281776-0.83771 0.784402-1.393645 0.510242-0.563551 1.218488-0.845326 0.715861-0.281776 1.584034-0.281776 0.845326 0 1.523109 0.258929 0.6854 0.251313 1.157564 0.746324 0.479779 0.49501 0.731092 1.218488 0.258929 0.715861 0.258929 1.644958v1.127101h-5.193804q0.01523 0.487395 0.152311 0.883404 0.144695 0.388393 0.396008 0.662553 0.258929 0.266544 0.61686 0.411239 0.365546 0.144696 0.830095 0.144696 0.388393 0 0.731092-0.03808 0.350316-0.04569 0.677784-0.129464 0.327469-0.08377 0.647322-0.20562 0.319853-0.129465 0.654937-0.297007v1.79727q-0.304622 0.159926-0.616859 0.27416-0.304622 0.106617-0.647322 0.182773-0.3427 0.07615-0.738708 0.106617-0.396009 0.03808-0.868173 0.03808z" style="fill:#ffffff"/>
     <path d="m29.955809 45.047243h2.383666l-3.47269 11.133932h-2.574055l-3.465075-11.133932h2.383667l1.888656 6.701683q0.03808 0.129464 0.099 0.434086 0.06854 0.304622 0.13708 0.670169 0.07615 0.365546 0.144695 0.731092 0.06854 0.365547 0.106618 0.61686 0.03808-0.251313 0.106618-0.61686 0.06854-0.365546 0.144695-0.723477 0.07616-0.365546 0.144695-0.670168 0.07616-0.304622 0.114234-0.441702z" style="fill:#ffffff"/>
     <path d="m36.535643 49.159639q-0.61686 0-1.0281 0.434087-0.403624 0.434086-0.464548 1.363183h2.962448q-0.0076-0.388393-0.099-0.715862-0.09139-0.327468-0.274159-0.56355-0.182774-0.243698-0.456933-0.380778-0.27416-0.13708-0.639706-0.13708zm0.297006 7.173847q-0.913866 0-1.683036-0.266544-0.769171-0.266544-1.325106-0.799633-0.555935-0.540704-0.868172-1.355567-0.304622-0.822479-0.304622-1.926734 0-1.119486 0.281775-1.957196t0.784402-1.393645q0.510241-0.563551 1.218487-0.845326 0.715862-0.281776 1.584034-0.281776 0.845326 0 1.52311 0.258929 0.6854 0.251313 1.157564 0.746324 0.479779 0.49501 0.731092 1.218488 0.258929 0.715861 0.258929 1.644958v1.127101h-5.193804q0.01523 0.487395 0.152311 0.883404 0.144695 0.388393 0.396008 0.662553 0.258929 0.266544 0.61686 0.411239 0.365546 0.144696 0.830094 0.144696 0.388393 0 0.731093-0.03808 0.350315-0.04569 0.677784-0.129464 0.327469-0.08377 0.647322-0.20562 0.319853-0.129465 0.654937-0.297007v1.79727q-0.304622 0.159926-0.61686 0.27416-0.304622 0.106617-0.647321 0.182773-0.3427 0.07615-0.738709 0.106617-0.396008 0.03808-0.868172 0.03808z" style="fill:#ffffff"/>
     <path d="m50.967109 50.507592q0 1.408876-0.388393 2.475053-0.380777 1.058561-1.11187 1.774423-0.723477 0.708246-1.782038 1.066176-1.050946 0.357931-2.398898 0.357931h-2.931986v-11.133932h3.259454q1.226104 0 2.20851 0.350315 0.990021 0.350316 1.690651 1.043331 0.700631 0.685399 1.073793 1.705883 0.380777 1.020483 0.380777 2.36082zm-2.391282 0.06092q0-0.929097-0.190389-1.599265-0.182773-0.677784-0.540704-1.119486-0.350315-0.441702-0.868172-0.654937-0.510242-0.213235-1.172795-0.213235h-1.089023v7.250002h0.868172q1.492648 0 2.238972-0.913866 0.753939-0.913866 0.753939-2.749213z" style="fill:#ffffff"/>
     <path d="m56.549303 49.159639q-0.616859 0-1.028099 0.434087-0.403624 0.434086-0.464549 1.363183h2.962449q-0.0076-0.388393-0.099-0.715862-0.09139-0.327468-0.27416-0.56355-0.182773-0.243698-0.456933-0.380778t-0.639706-0.13708zm0.297006 7.173847q-0.913865 0-1.683036-0.266544-0.76917-0.266544-1.325105-0.799633-0.555935-0.540704-0.868173-1.355567-0.304622-0.822479-0.304622-1.926734 0-1.119486 0.281775-1.957196 0.281776-0.83771 0.784402-1.393645 0.510242-0.563551 1.218488-0.845326 0.715861-0.281776 1.584034-0.281776 0.845326 0 1.52311 0.258929 0.685399 0.251313 1.157563 0.746324 0.47978 0.49501 0.731093 1.218488 0.258928 0.715861 0.258928 1.644958v1.127101h-5.193804q0.01523 0.487395 0.152311 0.883404 0.144696 0.388393 0.396009 0.662553 0.258928 0.266544 0.616859 0.411239 0.365546 0.144696 0.830095 0.144696 0.388393 0 0.731093-0.03808 0.350315-0.04569 0.677783-0.129464 0.327469-0.08377 0.647322-0.20562 0.319853-0.129465 0.654937-0.297007v1.79727q-0.304622 0.159926-0.616859 0.27416-0.304622 0.106617-0.647322 0.182773-0.3427 0.07615-0.738708 0.106617-0.396009 0.03808-0.868173 0.03808z" style="fill:#ffffff"/>
    </g>
   </g>
  </g>
 </g>
</svg>
