<svg xmlns="http://www.w3.org/2000/svg" xmlns:xlink="http://www.w3.org/1999/xlink" width="256" height="256" version="1.1" viewBox="0 0 67.73 67.73">
 <defs>
  <linearGradient id="linearGradient1494" x1="57.714" x2="284" y1="-34" y2="544" gradientTransform="matrix(.84848487 0 0 .94117647 95.030308 0)" gradientUnits="userSpaceOnUse">
   <stop style="stop-color:#cc3335" offset="0"/>
   <stop style="stop-color:#da4d45" offset="1"/>
  </linearGradient>
  <linearGradient id="linearGradient1108" x1="296" x2="296" y1="-212" y2="236" gradientUnits="userSpaceOnUse">
   <stop offset="0" style="stop-color:#ffffff"/>
   <stop offset=".125" style="stop-color:#ffffff;stop-opacity:.09803922"/>
   <stop offset=".925" style="stop-color:#000000;stop-opacity:.09803922"/>
   <stop offset="1" style="stop-color:#000000;stop-opacity:.49803922"/>
  </linearGradient>
  <clipPath id="clipPath1082-3-367">
   <path style="fill:#8c59d9" d="M 361.9375,-212 C 507.2348,-212 528,-191.28677 528,-46.125 V 70.125 C 528,215.28618 507.2348,236 361.9375,236 H 214.0625 C 68.7652,236 48,215.28618 48,70.125 V -46.125 C 48,-191.28677 68.7652,-212 214.0625,-212 Z"/>
  </clipPath>
  <linearGradient id="linearGradient4273" x1="448" x2="448" y1="256" y2="496" gradientUnits="userSpaceOnUse" spreadMethod="reflect">
   <stop offset="0" style="stop-color:#000000"/>
   <stop offset="1" style="stop-color:#000000;stop-opacity:0"/>
  </linearGradient>
  <filter style="color-interpolation-filters:sRGB" id="filter4569" width="1.023" height="1.025" x="-.01" y="-.01">
   <feGaussianBlur stdDeviation="1.16"/>
  </filter>
  <filter style="color-interpolation-filters:sRGB" id="filter929" width="1.046" height="1.05" x="-.02" y="-.03">
   <feGaussianBlur stdDeviation="2.32"/>
  </filter>
  <linearGradient id="linearGradient974" x1="58.569" x2="59.047" y1="263.304" y2="263.305" gradientUnits="userSpaceOnUse" spreadMethod="pad" xlink:href="#linearGradient4273"/>
  <linearGradient id="linearGradient898" x1="58.569" x2="59.047" y1="263.304" y2="263.305" gradientTransform="matrix(1,0,0,1.0425451,-46.499229,-11.264188)" gradientUnits="userSpaceOnUse" spreadMethod="pad" xlink:href="#linearGradient4273"/>
  <linearGradient id="linearGradient1488" x1="58.569" x2="9.841" y1="290.914" y2="233.124" gradientUnits="userSpaceOnUse" xlink:href="#linearGradient1494"/>
  <filter style="color-interpolation-filters:sRGB" id="filter916" width="1.106" height="1.088" x="-.05" y="-.04">
   <feGaussianBlur stdDeviation=".514"/>
  </filter>
 </defs>
 <g transform="translate(0,-229.26666)">
  <path style="opacity:0.2;filter:url(#filter929)" d="m 162.53675,5.5680001 c 72.64865,0 83.03125,10.3566149 83.03125,82.9375049 v 58.125005 c 0,72.58059 -10.3826,82.9375 -83.03125,82.9375 h -73.937496 c -72.648654,0 -83.031254,-10.35691 -83.031254,-82.9375 v -58.125005 c 0,-72.58089 10.3826,-82.9375049 83.031254,-82.9375049 z" transform="matrix(0.26458333,0,0,0.26458333,-1.8735229e-8,232.67026)"/>
  <path style="opacity:0.1;filter:url(#filter4569)" d="m 162.53675,3.5680001 c 72.64865,0 83.03125,10.3566149 83.03125,82.9375049 v 58.125005 c 0,72.58059 -10.3826,82.9375 -83.03125,82.9375 h -73.937496 c -72.648654,0 -83.031254,-10.35691 -83.031254,-82.9375 v -58.125005 c 0,-72.58089 10.3826,-82.9375049 83.031254,-82.9375049 z" transform="matrix(0.26458333,0,0,0.26458333,-1.8735229e-8,232.67026)"/>
  <path style="fill:url(#linearGradient1488);paint-order:markers fill stroke" d="m 17.311115,292.6971 c -4.367158,-0.24453 -7.299874,-0.82672 -9.4694005,-1.87985 -3.1615771,-1.53468 -4.7715464,-3.99265 -5.61731,-8.57606 -0.6347049,-3.43962 -0.7824475,-7.94006 -0.7095077,-21.6126 0.054211,-10.16191 0.1068425,-11.88628 0.44619,-14.61874 0.7918612,-6.37613 2.8424991,-9.43173 7.3273156,-10.91822 2.2243446,-0.73726 4.2774496,-1.06353 8.0800766,-1.28403 2.80085,-0.16241 31.819999,-0.0841 33.544709,0.0906 2.90445,0.29409 5.207953,0.76082 6.80981,1.37978 l 0.867658,0.33527 v 27.64233 27.64233 l -0.920244,0.33299 c -1.878828,0.67985 -3.633418,1.03554 -6.599468,1.33784 -1.459643,0.14877 -3.704488,0.1745 -16.9325,0.19411 -8.387372,0.0124 -15.95967,-0.0172 -16.827329,-0.0657 z"/>
  <path style="fill:#da1636;paint-order:markers fill stroke" d="m 58.564758,242.5918 c 0,-3.78878 0.03498,-6.90816 0.0339,-6.95245 -8.31e-4,-0.0338 0.172682,0.0348 0.980499,0.57048 2.923456,1.90401 4.301481,4.74859 4.939394,10.03529 0.08559,0.70934 0.187999,1.72748 0.227573,2.26254 l 0.07195,0.97283 h -3.126653 -3.126653 z"/>
  <path style="fill:#76c22b;paint-order:markers fill stroke" d="m 58.573261,256.31659 v -6.8361 h 3.094687 l 3.140237,0.009 c 0,0 0.03981,0.46666 0.04197,0.7006 0.0047,0.51455 0.04956,3.46669 0.04998,6.8361 l 8.1e-4,6.1262 h -3.163823 -3.163822 v -6.8361 z"/>
  <path style="fill:#fdc92b;paint-order:markers fill stroke" d="m 58.560466,270.04426 v -6.97097 h 3.170218 3.17022 l -8.11e-4,6.40792 c -5.41e-4,3.52437 -0.03143,6.66131 -0.0687,6.97098 l -0.06777,0.56304 h -3.101518 -3.101518 v -6.97097 z"/>
  <path style="fill:#bcbfba;paint-order:markers fill stroke" d="m 58.578851,283.9257 v -6.89046 h 3.123929 3.123933 l -0.07106,1.078 c -0.398353,6.04295 -1.811969,9.82059 -4.497662,11.78523 -0.434485,0.31784 -0.590891,0.42216 -1.185948,0.77239 -0.15553,0.0915 -0.493191,0.22334 -0.493191,0.22334 z"/>
  <path d="m 58.585235,235.62497 -0.01654,55.28952 0.539089,-0.2496 -0.06082,-54.81454 z" style="opacity:0.4;fill:url(#linearGradient974)"/>
  <path d="m 45.681641,19.347656 c -1.443121,0.27136 -2.922111,0.521066 -4.277344,0.851563 -2.134378,0.520505 -4.195029,1.121701 -6.296875,1.818359 -2.118915,0.702313 -4.093517,1.495905 -5.933594,2.396484 -1.840077,0.90058 -3.546407,1.906545 -5.125,3.03125 -1.578592,1.124706 -3.030772,2.369452 -4.365234,3.744141 -1.334463,1.374689 -2.550517,2.880718 -3.658203,4.53125 -1.107687,1.650533 -2.105641,3.44425 -3.003907,5.396485 -0.898265,1.952234 -1.696145,4.062001 -2.402343,6.341796 -0.7061984,2.279795 -1.3220311,4.730067 -1.853516,7.363282 -0.5314849,2.633214 -0.9793896,5.450397 -1.3535156,8.46289 -0.6413182,5.163958 -1.0123716,9.374169 -1.2480469,17.095703 -0.2356753,7.721535 -0.335049,18.953649 -0.4375,38.158201 -0.1378458,25.83914 -0.067129,43.01214 0.3378906,55.34961 0.2025101,6.16874 0.4876425,11.12895 0.8730469,15.35938 0.3854044,4.23043 0.8709524,7.73027 1.4707031,10.98047 0.7991861,4.33099 1.7776269,8.16079 2.9843749,11.55859 0.603374,1.6989 1.263625,3.28903 1.986328,4.78125 0.722703,1.49222 1.507671,2.88616 2.361328,4.18945 0.853658,1.3033 1.7772,2.51632 2.773438,3.64844 0.996238,1.13212 2.066353,2.18342 3.216797,3.16211 1.150443,0.97869 2.38099,1.8855 3.697265,2.72852 1.316275,0.84301 2.717206,1.62257 4.210938,2.34765 2.050047,0.99513 4.280199,1.8777 6.730469,2.6582 2.450269,0.78051 5.121003,1.45745 8.050781,2.03907 0.384793,0.0764 0.86788,0.12025 1.261719,0.19336 z" transform="matrix(0.26457031,0,0,0.26457031,0,229.26666)" style="fill:#393939"/>
  <path style="opacity:0.5;fill:none;stroke:url(#linearGradient1108);stroke-width:8;stroke-linecap:round;stroke-linejoin:round" d="m 361.9375,-212 c 145.2973,0 166.0625,20.71323 166.0625,165.875 v 116.25 c 0,145.16118 -20.7652,165.875 -166.0625,165.875 h -147.875 c -145.2973,0 -166.0625,-20.71382 -166.0625,-165.875 v -116.25 c 0,-145.16177 20.7652,-165.875 166.0625,-165.875 z" clip-path="url(#clipPath1082-3-367)" transform="matrix(0.13229167,0,0,0.13229167,-4.876802,261.66013)"/>
  <path style="opacity:0.4;fill:url(#linearGradient898)" d="m 12.086006,234.38548 -0.01654,57.64182 0.539089,-0.26022 -0.06082,-57.14663 z"/>
  <g transform="translate(-0.55876018,4.9617069)">
   <path style="opacity:0.3;filter:url(#filter916)" d="m 24.678958,244.03459 v 28.01955 h 8.30369 c 14.530252,0 15.049722,-8.82075 15.049722,-14.00981 0,-5.18904 -0.521805,-14.26593 -15.049722,-14.00974 z m 7.006024,5.83377 h 1.297666 c 6.227551,0 8.043702,1.63475 8.043702,8.17373 0,6.53893 -1.816315,8.17368 -8.043702,8.17368 h -1.297666 z"/>
   <path style="fill:#f9f9f9" d="m 24.678958,244.03459 v 28.01955 h 8.303689 c 14.530253,0 15.049722,-8.82075 15.049722,-14.00981 0,-5.18904 -0.521803,-14.26593 -15.049722,-14.00974 z m 7.006024,5.83377 h 1.297665 c 6.227551,0 8.043704,1.63475 8.043704,8.17373 0,6.53893 -1.816317,8.17368 -8.043704,8.17368 h -1.297665 z"/>
  </g>
 </g>
</svg>
