<svg width="256" height="256" version="1.1" viewBox="0 0 67.73 67.73" xmlns="http://www.w3.org/2000/svg" xmlns:xlink="http://www.w3.org/1999/xlink">
 <defs>
  <linearGradient id="linearGradient1108" x1="296" x2="296" y1="-212" y2="236" gradientUnits="userSpaceOnUse">
   <stop style="stop-color:#ffffff" offset="0"/>
   <stop style="stop-color:#ffffff;stop-opacity:.09803922" offset=".125"/>
   <stop style="stop-color:#000000;stop-opacity:.09803922" offset=".925"/>
   <stop style="stop-color:#000000;stop-opacity:.49803922" offset="1"/>
  </linearGradient>
  <clipPath id="clipPath1082-3-367">
   <path d="M 361.9375,-212 C 507.2348,-212 528,-191.28677 528,-46.125 V 70.125 C 528,215.28618 507.2348,236 361.9375,236 H 214.0625 C 68.7652,236 48,215.28618 48,70.125 V -46.125 C 48,-191.28677 68.7652,-212 214.0625,-212 Z" style="fill:#8c59d9"/>
  </clipPath>
  <filter id="filter933" x="-.02" y="-.03" width="1.046" height="1.05" style="color-interpolation-filters:sRGB">
   <feGaussianBlur stdDeviation="2.32"/>
  </filter>
  <filter id="filter4569" x="-.01" y="-.01" width="1.023" height="1.025" style="color-interpolation-filters:sRGB">
   <feGaussianBlur stdDeviation="1.16"/>
  </filter>
  <linearGradient id="linearGradient994" x1="11.067" x2="57.501" y1="231.037" y2="295.613" gradientUnits="userSpaceOnUse">
   <stop style="stop-color:#e8e8e8" offset="0"/>
   <stop style="stop-color:#f5f5f5" offset="1"/>
  </linearGradient>
  <linearGradient id="linearGradient954" x1="1.755" x2="64.694" y1="246.889" y2="246.889" gradientUnits="userSpaceOnUse">
   <stop style="stop-color:#000000;stop-opacity:0" offset="0"/>
   <stop style="stop-color:#000000;stop-opacity:.89177489" offset=".5"/>
   <stop style="stop-color:#000000;stop-opacity:0" offset="1"/>
  </linearGradient>
 </defs>
 <g transform="translate(0,-229.26666)">
  <path transform="matrix(.26458333 0 0 .26458333 -1.8735229e-8 232.67026)" d="m162.53675 3.5680001c72.64865 0 83.03125 10.356615 83.03125 82.937505v58.125005c0 72.58059-10.3826 82.9375-83.03125 82.9375h-73.937496c-72.648654 0-83.031254-10.35691-83.031254-82.9375v-58.125005c0-72.58089 10.3826-82.937505 83.031254-82.937505z" style="filter:url(#filter4569);opacity:.1"/>
  <path transform="matrix(.26458333 0 0 .26458333 -1.8735229e-8 232.67026)" d="m162.53675 5.5680001c72.64865 0 83.03125 10.356615 83.03125 82.937505v58.125005c0 72.58059-10.3826 82.9375-83.03125 82.9375h-73.937496c-72.648654 0-83.031254-10.35691-83.031254-82.9375v-58.125005c0-72.58089 10.3826-82.937505 83.031254-82.937505z" style="filter:url(#filter933);opacity:.2"/>
  <path d="m23.441883 292.88096c-19.221622 0-21.968685-2.74018-21.968685-21.94388v-15.37891c0-3.64384 0.100281-6.69224 0.392224-9.24388h62.715552c0.291944 2.55164 0.392224 5.60004 0.392224 9.24388v15.37891c0 19.2037-2.747063 21.94388-21.968685 21.94388z" style="fill:url(#linearGradient994)"/>
  <path d="m1.8781386 246.2458s14.080543-0.0526 31.300219-0.0526l31.378125-0.0177 0.09694 0.77145 0.04078 0.65606c-21.926046-0.15274-42.10925-0.12487-62.939313-0.18522 0.049478-0.50361 0.123249-1.17194 0.123249-1.17194z" style="fill:url(#linearGradient954);opacity:.6;paint-order:markers fill stroke"/>
  <path d="m1.871623 246.31429c1.247372-10.88639 6.0022075-12.7 21.57026-12.7h19.56263c15.568054 0 20.322886 1.81361 21.570259 12.7z" style="fill:#f76363"/>
  <path d="m64.973198 273.03566-20.089214 19.8453c16.851934-0.18394 19.879386-3.13516 20.089214-19.8453z" style="fill:#ffffff;opacity:.8"/>
  <path d="m1.4732 263.24763v7.68945c0 19.20362 2.7470629 21.94388 21.968683 21.94388h19.56263c19.221622 0 21.968685-2.74026 21.968685-21.94388v-7.68945z" style="fill:#ffffff;opacity:.1"/>
  <path d="m32.612146 292.88096h9.96956c9.762213 0 15.154241-0.8233 18.292257-3.70777 3.138022-2.88451 4.017349-7.8259 4.017349-16.79633v-18.25844c0-8.97046-0.879327-13.97208-4.017349-16.85657-3.138016-2.88449-8.530044-3.64756-18.292257-3.64756h-9.96956z" style="fill:#f6f6f6;opacity:.1"/>
  <path transform="matrix(.13229167 0 0 .13229167 -4.8768018 261.66013)" d="m361.9375-212c145.2973 0 166.0625 20.71323 166.0625 165.875v116.25c0 145.16118-20.7652 165.875-166.0625 165.875h-147.875c-145.2973 0-166.0625-20.71382-166.0625-165.875v-116.25c0-145.16177 20.7652-165.875 166.0625-165.875z" clip-path="url(#clipPath1082-3-367)" style="fill:none;opacity:.4;stroke-linecap:round;stroke-linejoin:round;stroke-width:8;stroke:url(#linearGradient1108)"/>
  <path d="m18.560249 253.74197-5.22115 13.75841h-1.282567v1.05833h3.704129v-1.05833h-1.185899l1.237128-3.17722h6.138736l1.235662 3.17722h-1.60211v1.05833h5.313493v-1.05833h-1.46579l-5.222616-13.75841zm0.321009 2.38191 2.70292 7.14537h-5.360401z" font-size="13.717" font-weight="400" letter-spacing="0" overflow="visible" word-spacing="0" style="fill:#5d5d5d"/>
  <path d="m28.989864 254.8006v1.05833h25.4v-1.05833zm0 4.23333v1.05834h25.4v-1.05834zm0 4.2137v1.05833h25.4v-1.05833zm0 4.23333v1.05834h25.4v-1.05834zm-16.933332 4.23334v1.05833l42.333332 0.0196v-1.05833zm0 4.23333v1.05833h42.333332v-1.05833zm0 4.23333v1.05834h31.749999v-1.05834z" style="fill-opacity:.996078;fill:#e3dfd5"/>
 </g>
</svg>
