<svg xmlns="http://www.w3.org/2000/svg" xmlns:xlink="http://www.w3.org/1999/xlink" width="256" height="256" version="1.1" viewBox="0 0 67.73 67.73">
 <defs>
  <linearGradient id="linearGradient1108" x1="296" x2="296" y1="-212" y2="236" gradientUnits="userSpaceOnUse" xlink:href="#linearGradient1013"/>
  <linearGradient id="linearGradient1013">
   <stop offset="0" style="stop-color:#ffffff"/>
   <stop style="stop-color:#ffffff;stop-opacity:0.09803922" offset=".125"/>
   <stop style="stop-color:#000000;stop-opacity:0.09803922" offset=".925"/>
   <stop offset="1" style="stop-color:#000000;stop-opacity:0.49803922"/>
  </linearGradient>
  <clipPath id="clipPath1082-3-629" clipPathUnits="userSpaceOnUse">
   <path d="M 361.9375,-212 C 507.2348,-212 528,-191.28677 528,-46.125 V 70.125 C 528,215.28618 507.2348,236 361.9375,236 H 214.0625 C 68.7652,236 48,215.28618 48,70.125 V -46.125 C 48,-191.28677 68.7652,-212 214.0625,-212 Z" style="fill:#8c59d9"/>
  </clipPath>
  <filter style="color-interpolation-filters:sRGB" id="filter1060" width="1.048" height="1.048" x="-.02" y="-.02">
   <feGaussianBlur stdDeviation="1.531"/>
  </filter>
  <linearGradient id="linearGradient1044" x1="88" x2="256" y1="28" y2="284" gradientTransform="matrix(0.26458333,0,0,0.26458333,-6.993468,221.97263)" gradientUnits="userSpaceOnUse" xlink:href="#linearGradient4245"/>
  <linearGradient id="linearGradient4245">
   <stop offset="0" style="stop-color:#e8e8e8"/>
   <stop offset="1" style="stop-color:#f5f5f5"/>
  </linearGradient>
  <filter style="color-interpolation-filters:sRGB" id="filter4569" width="1.023" height="1.025" x="-.01" y="-.01">
   <feGaussianBlur stdDeviation="1.16"/>
  </filter>
  <filter style="color-interpolation-filters:sRGB" id="filter939" width="1.046" height="1.05" x="-.02" y="-.03">
   <feGaussianBlur stdDeviation="2.32"/>
  </filter>
 </defs>
 <g transform="translate(0,-229.26666)">
  <path style="opacity:0.2;filter:url(#filter939)" d="m 162.53675,5.5680001 c 72.64865,0 83.03125,10.3566149 83.03125,82.9375049 v 58.125005 c 0,72.58059 -10.3826,82.9375 -83.03125,82.9375 H 88.599254 C 15.9506,229.56801 5.568,219.2111 5.568,146.63051 V 88.505505 c 0,-72.58089 10.3826,-82.9375049 83.031254,-82.9375049 z" transform="matrix(0.26458333,0,0,0.26458333,-1.8735229e-8,232.67026)"/>
  <path d="m 43.004515,233.61429 c 19.221622,0 21.968685,2.74019 21.968685,21.94388 v 15.37891 c 0,19.20362 -2.747063,21.94388 -21.968685,21.94388 H 23.441886 C 4.220263,292.88096 1.4732,290.1407 1.4732,270.93708 v -15.37891 c 0,-19.20369 2.747063,-21.94388 21.968686,-21.94388 z" style="opacity:0.1;fill:none;stroke:#000000;stroke-width:1.05833328;stroke-linecap:round;stroke-linejoin:round"/>
  <path d="m 162.53675,3.5680001 c 72.64865,0 83.03125,10.3566149 83.03125,82.9375049 v 58.125005 c 0,72.58059 -10.3826,82.9375 -83.03125,82.9375 H 88.599254 C 15.9506,227.56801 5.568,217.2111 5.568,144.63051 V 86.505505 c 0,-72.58089 10.3826,-82.9375049 83.031254,-82.9375049 z" transform="matrix(0.26458333,0,0,0.26458333,-1.8735229e-8,232.67026)" style="opacity:0.1;filter:url(#filter4569)"/>
  <path style="fill:url(#linearGradient1044)" d="m 43.004513,233.61429 c 19.221622,0 21.968685,2.74019 21.968685,21.94388 v 15.37891 c 0,19.20362 -2.747063,21.94388 -21.968685,21.94388 h -19.56263 c -19.221621,0 -21.968684,-2.74026 -21.968684,-21.94388 v -15.37891 c 0,-19.20369 2.747063,-21.94388 21.968684,-21.94388 z"/>
  <path style="opacity:0.2;fill:#ffffff" d="m 33.223197,233.61429 v 59.26667 h 9.781316 c 19.221622,0 21.968685,-2.74026 21.968685,-21.94388 v -15.37891 c 0,-19.20369 -2.747063,-21.94388 -21.968685,-21.94388 z"/>
  <path style="opacity:0.25;fill:#ffffff" d="m 23.441883,292.88096 c -19.221621,0 -21.968684,-2.74019 -21.968684,-21.94388 v -7.68945 h 63.499999 v 7.68945 c 0,19.20369 -2.747063,21.94388 -21.968685,21.94388 z"/>
  <path style="opacity:0.8;fill:#ffffff" d="m 64.973198,273.03566 -20.089215,19.8453 c 16.851934,-0.18394 19.879387,-3.13516 20.089215,-19.8453 z"/>
  <path d="m 16.443583,242.10031 -5.22115,13.7584 H 9.939865 v 1.05833 h 3.70413 v -1.05833 h -1.1859 l 1.237128,-3.17722 h 6.138736 l 1.235662,3.17722 h -1.60211 v 1.05833 h 5.313495 v -1.05833 h -1.465792 l -5.222616,-13.7584 z m 0.321008,2.38191 2.70292,7.14537 h -5.3604 z" font-size="13.717" font-weight="400" letter-spacing="0" overflow="visible" word-spacing="0" style="fill:#5d5d5d"/>
  <path style="fill:#e3dfd5;fill-opacity:0.99607843" d="m 26.873197,243.15893 v 1.05834 h 29.633334 v -1.05834 z m 0,4.23334 v 1.05833 h 29.633334 v -1.05833 z m 0,4.21369 v 1.05833 h 29.633334 v -1.05833 z m 0,4.23333 v 1.05834 h 29.633334 v -1.05834 z m -16.933332,4.23334 v 1.05833 l 46.566666,0.0196 v -1.05833 z m 0,4.23333 v 1.05834 h 46.566666 v -1.05834 z m 0,4.23334 v 1.05833 h 46.566666 v -1.05833 z m 0,4.23333 v 1.05833 l 46.566666,0.0196 v -1.05833 z m 0,4.23333 v 1.05834 h 46.566666 v -1.05834 z m 0,4.23334 v 1.05833 h 35.983332 v -1.05833 z"/>
  <path style="opacity:0.1;filter:url(#filter1060)" d="m 113.44286,42.568005 c -35.298036,0 -63.999991,28.70196 -63.999991,64.000005 0,35.29804 28.701955,64 63.999991,64 15.45232,0 29.63935,-5.50209 40.70898,-14.64844 l 6.89063,6.89063 -1.41406,1.41406 31.49999,31.5 11.31445,-11.3125 -31.49999,-31.5 -1.41406,1.41406 -6.88086,-6.88086 c 9.23157,-11.09442 14.79492,-25.34465 14.79492,-40.87695 0,-35.298045 -28.70196,-64.000005 -64,-64.000005 z m 0,8.136719 c 30.90124,0 55.86523,24.962041 55.86523,55.863286 0,30.90124 -24.96399,55.86523 -55.86523,55.86523 -30.901236,0 -55.865225,-24.96399 -55.865225,-55.86523 0,-30.901245 24.963989,-55.863286 55.865225,-55.863286 z" transform="matrix(0.26458333,0,0,0.26458333,-1.8735229e-8,232.67026)"/>
  <g style="enable-background:new" transform="matrix(0.26458333,0,0,0.26458333,-9.110091,223.03096)">
   <g transform="matrix(-1,0,0,1,319.8747,3.1e-4)" style="enable-background:new">
    <path d="m 116.15722,195.99999 12.00001,-12" style="fill:none;stroke:#888888;stroke-width:11.99999905"/>
    <path style="fill:none;stroke:#3b3b3b;stroke-width:15.99999905" d="m 88.657217,223.49999 31.500013,-31.5"/>
   </g>
   <circle cx="147.875" cy="140" r="59.932" style="fill:#ffffff;fill-opacity:0.54292345;stroke:#666666;stroke-width:8.13559246"/>
  </g>
  <path d="M 361.9375,-212 C 507.2348,-212 528,-191.28677 528,-46.125 V 70.125 C 528,215.28618 507.2348,236 361.9375,236 H 214.0625 C 68.7652,236 48,215.28618 48,70.125 V -46.125 C 48,-191.28677 68.7652,-212 214.0625,-212 Z" clip-path="url(#clipPath1082-3-629)" transform="matrix(0.13229167,0,0,0.13229167,-4.876801,261.66013)" style="opacity:0.4;fill:none;stroke:url(#linearGradient1108);stroke-width:8;stroke-linecap:round;stroke-linejoin:round"/>
 </g>
</svg>
