<svg width="256" height="256" version="1.1" viewBox="0 0 67.73 67.73" xmlns="http://www.w3.org/2000/svg" xmlns:xlink="http://www.w3.org/1999/xlink">
 <defs>
  <linearGradient id="linearGradient1108" x1="296" x2="296" y1="-212" y2="236" gradientUnits="userSpaceOnUse">
   <stop style="stop-color:#ffffff" offset="0"/>
   <stop style="stop-color:#ffffff;stop-opacity:.09803922" offset=".125"/>
   <stop style="stop-color:#000000;stop-opacity:.09803922" offset=".925"/>
   <stop style="stop-color:#000000;stop-opacity:.49803922" offset="1"/>
  </linearGradient>
  <clipPath id="clipPath1082-3-361">
   <path d="M 361.9375,-212 C 507.2348,-212 528,-191.28677 528,-46.125 V 70.125 C 528,215.28618 507.2348,236 361.9375,236 H 214.0625 C 68.7652,236 48,215.28618 48,70.125 V -46.125 C 48,-191.28677 68.7652,-212 214.0625,-212 Z" style="fill:#8c59d9"/>
  </clipPath>
  <filter id="filter4569" x="-.01" y="-.01" width="1.023" height="1.025" style="color-interpolation-filters:sRGB">
   <feGaussianBlur stdDeviation="1.16"/>
  </filter>
  <filter id="filter939" x="-.02" y="-.03" width="1.046" height="1.05" style="color-interpolation-filters:sRGB">
   <feGaussianBlur stdDeviation="2.32"/>
  </filter>
  <linearGradient id="linearGradient954" x1="7.5" x2="64.112" y1="230.789" y2="294.501" gradientTransform="matrix(1.0193681,0,0,1.0193681,0,-5.7113166)" gradientUnits="userSpaceOnUse">
   <stop style="stop-color:#b30707" offset="0"/>
   <stop style="stop-color:#e42c0d" offset="1"/>
  </linearGradient>
  <linearGradient id="linearGradient3613" x1="48" x2="48" y1="20.221" y2="138.661" gradientUnits="userSpaceOnUse">
   <stop style="stop-color:#ffffff" offset="0"/>
   <stop style="stop-color:#ffffff;stop-opacity:0" offset="1"/>
  </linearGradient>
  <clipPath id="clipPath3613-1">
   <rect x="6" y="6" width="84" height="84" rx="6" ry="6" style="fill:#ffffff"/>
  </clipPath>
  <linearGradient id="linearGradient4221" x1="31.522" x2="30.87" y1="18.217" y2="78" gradientUnits="userSpaceOnUse" xlink:href="#linearGradient4223"/>
  <linearGradient id="linearGradient4223">
   <stop style="stop-color:#f5f5f5" offset="0"/>
   <stop style="stop-color:#e6e6e6" offset="1"/>
  </linearGradient>
  <linearGradient id="linearGradient1045" x1="31.522" x2="30.87" y1="18.217" y2="78" gradientTransform="matrix(2.2222221,0,0,2.2222221,-65.889423,-54.262153)" gradientUnits="userSpaceOnUse" xlink:href="#linearGradient4223"/>
  <filter id="filter1094" x="-.04" y="-.05" width="1.088" height="1.106" style="color-interpolation-filters:sRGB">
   <feGaussianBlur stdDeviation=".776"/>
  </filter>
 </defs>
 <g transform="translate(0,-229.26666)">
  <path transform="matrix(.26970779 0 0 .26970779 -1.9098094e-8 231.46531)" d="m162.53675 5.5680001c72.64865 0 83.03125 10.356615 83.03125 82.937505v58.125005c0 72.58059-10.3826 82.9375-83.03125 82.9375h-73.937496c-72.648654 0-83.031254-10.35691-83.031254-82.9375v-58.125005c0-72.58089 10.3826-82.937505 83.031254-82.937505z" style="filter:url(#filter939);opacity:.2"/>
  <path d="m43.837429 232.42763c19.593907 0 22.394176 2.79326 22.394176 22.36889v15.67677c0 19.57555-2.800269 22.36889-22.394176 22.36889h-19.941519c-19.593909 0-22.394177-2.79334-22.394177-22.36889v-15.67677c0-19.57563 2.8002682-22.36889 22.394177-22.36889z" style="fill:none;opacity:.1;stroke-linecap:round;stroke-linejoin:round;stroke-width:1.0788311;stroke:#000000"/>
  <path transform="matrix(.26970779 0 0 .26970779 -1.9098094e-8 231.46531)" d="m162.53675 3.5680001c72.64865 0 83.03125 10.356615 83.03125 82.937505v58.125005c0 72.58059-10.3826 82.9375-83.03125 82.9375h-73.937496c-72.648654 0-83.031254-10.35691-83.031254-82.9375v-58.125005c0-72.58089 10.3826-82.937505 83.031254-82.937505z" style="filter:url(#filter4569);opacity:.1"/>
  <path d="m43.837427 232.42763c19.593907 0 22.394175 2.79326 22.394175 22.36889v15.67677c0 19.57555-2.800268 22.36889-22.394175 22.36889h-19.94152c-19.593907 0-22.394176-2.79334-22.394176-22.36889v-15.67677c0-19.57563 2.8002682-22.36889 22.394176-22.36889z" style="fill:url(#linearGradient954)"/>
  <path transform="matrix(.1348539 0 0 .1348539 -4.9712559 261.01666)" d="M 361.9375,-212 C 507.2348,-212 528,-191.28677 528,-46.125 V 70.125 C 528,215.28618 507.2348,236 361.9375,236 H 214.0625 C 68.7652,236 48,215.28618 48,70.125 V -46.125 C 48,-191.28677 68.7652,-212 214.0625,-212 Z" clip-path="url(#clipPath1082-3-361)" style="fill:none;opacity:.4;stroke-linecap:round;stroke-linejoin:round;stroke-width:8;stroke:url(#linearGradient1108)"/>
  <path d="m23.895907 292.84218c-19.593907 0-22.394176-2.79326-22.394176-22.36889v-7.83838h64.729871v7.83838c0 19.57563-2.800268 22.36889-22.394175 22.36889z" style="fill:#ffffff;opacity:.1"/>
  <path d="m33.866666 232.42763v60.41455h9.970761c19.593907 0 22.394175-2.79334 22.394175-22.36889v-15.67677c0-19.57563-2.800268-22.36889-22.394175-22.36889z" style="fill:#ffffff;opacity:.1"/>
  <g transform="matrix(.26458333 0 0 .26458333 22.13344 248.60338)">
   <rect x="15" y="15" width="66" height="66" rx="12" ry="12" clip-path="url(#clipPath3613-1)" style="fill:url(#linearGradient3613);filter:url(#filter3794-7);opacity:.1;stroke-linecap:round;stroke-width:.5;stroke:#ffffff"/>
  </g>
  <g transform="translate(-.02589078 .16616535)" style="filter:url(#filter1094);opacity:.3">
   <path transform="matrix(.26458333 0 0 .26458333 21.33969 248.60338)" d="m-32.556092-14.262155v22.222221a44.444442 44.444442 0 0 1 44.444442 44.444442 44.444442 44.444442 0 0 1-44.444442 44.444442v22.22222a66.666663 66.666663 0 0 0 66.666663-66.666662 66.666663 66.666663 0 0 0-66.666663-66.666663z"/>
   <g transform="matrix(-.58796292 0 0 .58796292 63.878668 234.24652)">
    <path d="m15 18v10a20 20 0 0 1 20 20 20 20 0 0 1-20 20v10a30 30 0 0 0 30-30 30 30 0 0 0-30-30z"/>
   </g>
  </g>
  <g transform="translate(-.02589078 .16616535)">
   <path transform="matrix(.26458333 0 0 .26458333 21.33969 248.60338)" d="m-32.556092-14.262155v22.222221a44.444442 44.444442 0 0 1 44.444442 44.444442 44.444442 44.444442 0 0 1-44.444442 44.444442v22.22222a66.666663 66.666663 0 0 0 66.666663-66.666662 66.666663 66.666663 0 0 0-66.666663-66.666663z" style="fill:url(#linearGradient1045)"/>
   <g transform="matrix(-.58796292 0 0 .58796292 63.878668 234.24652)">
    <path d="m15 18v10a20 20 0 0 1 20 20 20 20 0 0 1-20 20v10a30 30 0 0 0 30-30 30 30 0 0 0-30-30z" style="fill:url(#linearGradient4221)"/>
   </g>
  </g>
 </g>
</svg>
