<svg xmlns="http://www.w3.org/2000/svg" xmlns:xlink="http://www.w3.org/1999/xlink" width="256" height="256" version="1.1" viewBox="0 0 67.73 67.73">
 <defs>
  <linearGradient id="linearGradient1108" x1="296" x2="296" y1="-212" y2="236" gradientUnits="userSpaceOnUse" xlink:href="#linearGradient1013"/>
  <linearGradient id="linearGradient1013">
   <stop style="stop-color:#ffffff" offset="0"/>
   <stop offset=".125" style="stop-color:#ffffff;stop-opacity:0.09803922"/>
   <stop offset=".925" style="stop-color:#000000;stop-opacity:0.09803922"/>
   <stop style="stop-color:#000000;stop-opacity:0.49803922" offset="1"/>
  </linearGradient>
  <clipPath id="clipPath1082-3-2" clipPathUnits="userSpaceOnUse">
   <path style="fill:#8c59d9" d="M 361.9375,-212 C 507.2348,-212 528,-191.28677 528,-46.125 V 70.125 C 528,215.28618 507.2348,236 361.9375,236 H 214.0625 C 68.7652,236 48,215.28618 48,70.125 V -46.125 C 48,-191.28677 68.7652,-212 214.0625,-212 Z"/>
  </clipPath>
  <filter id="filter4569" width="1.023" height="1.025" x="-.01" y="-.01" style="color-interpolation-filters:sRGB">
   <feGaussianBlur stdDeviation="1.16"/>
  </filter>
  <filter id="filter913" width="1.046" height="1.05" x="-.02" y="-.03" style="color-interpolation-filters:sRGB">
   <feGaussianBlur stdDeviation="2.32"/>
  </filter>
  <filter id="filter982" width="1.096" height="1.096" x="-.05" y="-.05" style="color-interpolation-filters:sRGB">
   <feGaussianBlur stdDeviation=".847"/>
  </filter>
  <linearGradient id="linearGradient2187" x1="83.614" x2="97.612" y1="30.177" y2="45.809" gradientUnits="userSpaceOnUse" xlink:href="#linearGradient2185"/>
  <linearGradient id="linearGradient2185">
   <stop offset="0" style="stop-color:#236363"/>
   <stop style="stop-color:#52b7b7" offset=".5"/>
   <stop offset="1" style="stop-color:#276666"/>
  </linearGradient>
  <linearGradient id="linearGradient1549" x1="80.982" x2="100.732" y1="29.133" y2="56.817" gradientUnits="userSpaceOnUse" xlink:href="#linearGradient1541"/>
  <linearGradient id="linearGradient1541">
   <stop offset="0" style="stop-color:#5ba1a2"/>
   <stop style="stop-color:#cbd24b" offset=".48"/>
   <stop offset=".669" style="stop-color:#bb9a43"/>
   <stop offset="1" style="stop-color:#849555;stop-opacity:0.98795182"/>
  </linearGradient>
  <filter id="filter1056" width="1.096" height="1.096" x="-.05" y="-.05" style="color-interpolation-filters:sRGB">
   <feGaussianBlur stdDeviation="1.6"/>
  </filter>
 </defs>
 <g transform="translate(0,-229.26666)">
  <path d="m 162.53675,5.5680001 c 72.64865,0 83.03125,10.3566149 83.03125,82.9375049 v 58.125005 c 0,72.58059 -10.3826,82.9375 -83.03125,82.9375 H 88.599254 C 15.9506,229.56801 5.568,219.2111 5.568,146.63051 V 88.505505 c 0,-72.58089 10.3826,-82.9375049 83.031254,-82.9375049 z" transform="matrix(0.26458333,0,0,0.26458333,-1.8735229e-8,232.67026)" style="opacity:0.2;filter:url(#filter913)"/>
  <path style="opacity:0.1;filter:url(#filter4569)" d="m 162.53675,3.5680001 c 72.64865,0 83.03125,10.3566149 83.03125,82.9375049 v 58.125005 c 0,72.58059 -10.3826,82.9375 -83.03125,82.9375 H 88.599254 C 15.9506,227.56801 5.568,217.2111 5.568,144.63051 V 86.505505 c 0,-72.58089 10.3826,-82.9375049 83.031254,-82.9375049 z" transform="matrix(0.26458333,0,0,0.26458333,-1.8735229e-8,232.67026)"/>
  <path d="m 23.441882,233.61429 c -9.611188,0 -15.1016409,0.68375 -18.19217,3.77032 -3.090525,3.08656 -3.776514,8.57135 -3.776514,18.17356 v 15.37891 c 0,9.60218 0.68599,15.087 3.776514,18.17357 3.0905286,3.08658 8.580982,3.77031 18.19217,3.77031 h 19.562631 c 9.61119,0 15.101644,-0.68373 18.19217,-3.77031 3.090527,-3.08657 3.776515,-8.57139 3.776515,-18.17357 v -15.37891 c 0,-9.60221 -0.685988,-15.087 -3.776515,-18.17356 -3.090526,-3.08657 -8.580982,-3.77032 -18.19217,-3.77032 z" style="fill:#4d4d4d"/>
  <path d="m 1.473198,270.40792 v 0.52916 c 0,9.60218 0.68599,15.087 3.776514,18.17357 3.0905286,3.08658 8.580982,3.77031 18.19217,3.77031 h 19.562631 c 9.61119,0 15.101644,-0.68373 18.19217,-3.77031 3.090527,-3.08657 3.776515,-8.57139 3.776515,-18.17357 v -0.52916 c 0,9.60217 -0.685988,15.08699 -3.776515,18.17356 -3.090526,3.08658 -8.58098,3.77032 -18.19217,3.77032 H 23.441882 c -9.611188,0 -15.1016414,-0.68374 -18.19217,-3.77032 -3.090524,-3.08657 -3.776514,-8.57139 -3.776514,-18.17356 z" style="opacity:0.2;fill:#131313"/>
  <path style="opacity:0.4;fill:none;stroke:url(#linearGradient1108);stroke-width:8;stroke-linecap:round;stroke-linejoin:round" d="M 361.9375,-212 C 507.2348,-212 528,-191.28677 528,-46.125 V 70.125 C 528,215.28618 507.2348,236 361.9375,236 H 214.0625 C 68.7652,236 48,215.28618 48,70.125 V -46.125 C 48,-191.28677 68.7652,-212 214.0625,-212 Z" clip-path="url(#clipPath1082-3-2)" transform="matrix(0.13229167,0,0,0.13229167,-4.876802,261.66013)"/>
  <path d="m 1.473198,263.08951 v 9.20122 c 0,9.00985 0.68599,14.15633 3.776514,17.0525 3.0905286,2.89618 8.580982,3.53773 18.19217,3.53773 h 19.562631 c 9.61119,0 15.101644,-0.64155 18.19217,-3.53773 3.090527,-2.89617 3.776515,-8.04265 3.776515,-17.0525 v -9.20122 z" style="opacity:0.05;fill:#ffffff"/>
  <path style="opacity:0.3;filter:url(#filter982)" d="m 54.389863,263.24763 c 0,-11.73249 -9.434179,-21.16667 -21.166665,-21.16667 -11.732489,0 -21.166665,9.43418 -21.166665,21.16667 -10e-7,11.73248 9.434178,21.16666 21.166665,21.16666 11.732483,0 21.166665,-9.43418 21.166665,-21.16666 z m -13.422763,0 c 0,4.26237 -3.396238,7.7439 -7.743902,7.7439 -4.432951,0 -7.743903,-3.56768 -7.743903,-7.7439 0,-4.26153 3.140377,-7.74391 7.743903,-7.74391 4.603525,0 7.743902,3.56681 7.743902,7.74391 z"/>
  <path d="m 33.223198,255.50373 c -4.274634,0 -7.743903,3.46927 -7.743903,7.74391 0,4.27463 3.469269,7.7439 7.743903,7.7439 4.274633,0 7.743902,-3.46927 7.743902,-7.7439 0,-4.27464 -3.469269,-7.74391 -7.743902,-7.74391 z m 0,3.87195 c 2.137317,0 3.871951,1.73464 3.871951,3.87196 0,2.13731 -1.734634,3.87195 -3.871951,3.87195 -2.137317,0 -3.871951,-1.73464 -3.871951,-3.87195 0,-2.13732 1.734634,-3.87196 3.871951,-3.87196 z" style="fill:none"/>
  <g transform="matrix(0.52916667,0,0,0.52916667,0.7453645,228.74389)">
   <path d="m 101.37543,65.203913 c 0,-22.17163 -17.82837,-39.999999 -39.999997,-39.999999 -22.171632,0 -39.999998,17.82837 -39.999998,39.999999 -3e-6,22.171628 17.828369,39.999997 39.999998,39.999997 22.171624,-10e-6 39.999997,-17.828367 39.999997,-39.999997 z m -25.365851,0 c 0,8.054886 -6.418087,14.634146 -14.634146,14.634146 -8.377229,0 -14.634146,-6.742074 -14.634146,-14.634146 0,-8.053274 5.93457,-14.634146 14.634146,-14.634146 8.699575,0 14.634146,6.740428 14.634146,14.634146 z" style="fill:url(#linearGradient1549)"/>
   <path d="m 61.375433,50.569767 c -8.078048,0 -14.634146,6.556097 -14.634146,14.634146 0,8.078048 6.556098,14.634146 14.634146,14.634146 8.078047,0 14.634146,-6.556098 14.634146,-14.634146 0,-8.078049 -6.556099,-14.634146 -14.634146,-14.634146 z m 0,7.317072 c 4.039024,0 7.317073,3.278049 7.317073,7.317074 0,4.039024 -3.278049,7.317072 -7.317073,7.317072 -4.039024,0 -7.317073,-3.278048 -7.317073,-7.317072 0,-4.039025 3.278049,-7.317074 7.317073,-7.317074 z" style="fill:none"/>
  </g>
  <g style="fill:#4d4d4d" transform="matrix(0.26458333,0,0,0.26458333,27.157326,256.5025)">
   <path d="m 101.37543,65.203913 c 0,-22.17163 -17.82837,-39.999999 -39.999997,-39.999999 -22.171632,0 -39.999998,17.82837 -39.999998,39.999999 -3e-6,22.171628 17.828369,39.999997 39.999998,39.999997 22.171624,-10e-6 39.999997,-17.828367 39.999997,-39.999997 z m -25.365851,0 c 0,8.054886 -6.418087,14.634146 -14.634146,14.634146 -8.377229,0 -14.634146,-6.742074 -14.634146,-14.634146 0,-8.053274 5.93457,-14.634146 14.634146,-14.634146 8.699575,0 14.634146,6.740428 14.634146,14.634146 z" style="fill:#050000;filter:url(#filter1056);opacity:0.3"/>
  </g>
  <g transform="matrix(0.26458333,0,0,0.26458333,27.157326,256.5025)">
   <path style="fill:url(#linearGradient2187)" d="m 101.37543,65.203913 c 0,-22.17163 -17.82837,-39.999999 -39.999997,-39.999999 -22.171632,0 -39.999998,17.82837 -39.999998,39.999999 -3e-6,22.171628 17.828369,39.999997 39.999998,39.999997 22.171624,-10e-6 39.999997,-17.828367 39.999997,-39.999997 z m -25.365851,0 c 0,8.054886 -6.418087,14.634146 -14.634146,14.634146 -8.377229,0 -14.634146,-6.742074 -14.634146,-14.634146 0,-8.053274 5.93457,-14.634146 14.634146,-14.634146 8.699575,0 14.634146,6.740428 14.634146,14.634146 z"/>
   <path style="fill:none" d="m 61.375433,50.569767 c -8.078048,0 -14.634146,6.556097 -14.634146,14.634146 0,8.078048 6.556098,14.634146 14.634146,14.634146 8.078047,0 14.634146,-6.556098 14.634146,-14.634146 0,-8.078049 -6.556099,-14.634146 -14.634146,-14.634146 z m 0,7.317072 c 4.039024,0 7.317073,3.278049 7.317073,7.317074 0,4.039024 -3.278049,7.317072 -7.317073,7.317072 -4.039024,0 -7.317073,-3.278048 -7.317073,-7.317072 0,-4.039025 3.278049,-7.317074 7.317073,-7.317074 z"/>
  </g>
 </g>
</svg>
