<svg xmlns="http://www.w3.org/2000/svg" xmlns:xlink="http://www.w3.org/1999/xlink" width="256" height="256" version="1.0" style="enable-background:new">
 <defs>
  <filter style="color-interpolation-filters:sRGB" id="filter925" width="1.046" height="1.05" x="-.02" y="-.03">
   <feGaussianBlur stdDeviation="2.32"/>
  </filter>
  <filter style="color-interpolation-filters:sRGB" id="filter931" width="1.023" height="1.025" x="-.01" y="-.01">
   <feGaussianBlur stdDeviation="1.16"/>
  </filter>
  <linearGradient id="linearGradient1108" x1="296" x2="296" y1="-212" y2="236" gradientUnits="userSpaceOnUse" xlink:href="#linearGradient1013"/>
  <linearGradient id="linearGradient1013">
   <stop offset="0" style="stop-color:#ffffff"/>
   <stop style="stop-color:#ffffff;stop-opacity:0.09803922" offset=".125"/>
   <stop style="stop-color:#000000;stop-opacity:0.09803922" offset=".925"/>
   <stop offset="1" style="stop-color:#000000;stop-opacity:0.49803922"/>
  </linearGradient>
  <clipPath id="clipPath1082-3" clipPathUnits="userSpaceOnUse">
   <path d="M 361.9375,-212 C 507.2348,-212 528,-191.28677 528,-46.125 V 70.125 C 528,215.28618 507.2348,236 361.9375,236 H 214.0625 C 68.7652,236 48,215.28618 48,70.125 V -46.125 C 48,-191.28677 68.7652,-212 214.0625,-212 Z" style="fill:#8c59d9"/>
  </clipPath>
  <filter style="color-interpolation-filters:sRGB" id="filter999" width="1.096" height="1.096" x="-.05" y="-.05">
   <feGaussianBlur stdDeviation=".926"/>
  </filter>
  <linearGradient id="linearGradient2658" x1="12.274" x2="35.391" y1="32.416" y2="14.203" gradientTransform="matrix(0,5.0000443,-5.0000443,0,241.06905,8.314925)" gradientUnits="userSpaceOnUse" xlink:href="#linearGradient3263"/>
  <linearGradient id="linearGradient3263" x1="12.274" x2="35.391" y1="32.416" y2="14.203" gradientUnits="userSpaceOnUse">
   <stop style="stop-color:#dedbde" offset="0"/>
   <stop style="stop-color:#e6e6e6" offset=".5"/>
   <stop style="stop-color:#d2d2d2" offset="1"/>
  </linearGradient>
  <linearGradient id="linearGradient1196" x1="40.764" x2="77.243" y1="45.234" y2="106" gradientTransform="matrix(0.71306675,0,0,-0.71306675,16.379047,110.17966)" gradientUnits="userSpaceOnUse" xlink:href="#linearGradient1206"/>
  <linearGradient id="linearGradient1206">
   <stop style="stop-color:#2088ed" offset="0"/>
   <stop style="stop-color:#1c83dc;stop-opacity:0.83" offset=".3"/>
   <stop style="stop-color:#1c83dc;stop-opacity:0.475" offset=".438"/>
   <stop style="stop-color:#1c83dc;stop-opacity:0" offset="1"/>
  </linearGradient>
  <filter style="color-interpolation-filters:sRGB" id="filter1172" width="1.1" height="1.092" x="-.05" y="-.05">
   <feGaussianBlur stdDeviation=".256"/>
  </filter>
  <linearGradient id="linearGradient-4-7" x1="36.137" x2="26.446" y1="21.624" y2="38.445" gradientTransform="matrix(0.68199245,0.61406885,1.0091759,-1.1208034,2.4569961,94.870444)" gradientUnits="userSpaceOnUse">
   <stop offset="0%" stop-color="#1B90FF"/>
   <stop offset="47.525%" stop-color="#53A0FD"/>
   <stop offset="100%" stop-color="#68FFAD"/>
  </linearGradient>
  <filter style="color-interpolation-filters:sRGB" id="filter1176" width="1.106" height="1.093" x="-.05" y="-.05">
   <feGaussianBlur stdDeviation=".256"/>
  </filter>
  <linearGradient id="linearGradient-5-0" x1="39.422" x2="46.438" y1="20.876" y2="33.677" gradientTransform="matrix(0.6416017,0.57770075,1.0727066,-1.1913614,2.3245801,95.215384)" gradientUnits="userSpaceOnUse">
   <stop offset="0%" stop-color="#A197FF"/>
   <stop offset="100%" stop-color="#60FFA4"/>
  </linearGradient>
  <filter style="color-interpolation-filters:sRGB" id="filter1180" width="1.137" height="1.093" x="-.07" y="-.05">
   <feGaussianBlur stdDeviation=".256"/>
  </filter>
  <linearGradient id="linearGradient-6-7" x1="44.19" x2="29.179" y1="25.124" y2="37.738" gradientTransform="matrix(0.66837145,0.60180435,1.0297424,-1.1436447,3.1788141,92.990034)" gradientUnits="userSpaceOnUse">
   <stop offset="0%" stop-color="#DD61FA"/>
   <stop offset="100%" stop-color="#FFDC5A"/>
  </linearGradient>
  <filter style="color-interpolation-filters:sRGB" id="filter1184" width="1.252" height="1.117" x="-.13" y="-.06">
   <feGaussianBlur stdDeviation=".256"/>
  </filter>
  <linearGradient id="linearGradient-7-6" x1="37.892" x2="25.419" y1="32.725" y2="41.033" gradientTransform="matrix(0.87874685,0.79122725,0.78321805,-0.86985175,6.9418701,83.186939)" gradientUnits="userSpaceOnUse">
   <stop offset="0%" stop-color="#FA6196"/>
   <stop offset="100%" stop-color="#FFD849"/>
  </linearGradient>
  <filter style="color-interpolation-filters:sRGB" id="filter1188" width="1.286" height="1.212" x="-.14" y="-.11">
   <feGaussianBlur stdDeviation=".256"/>
  </filter>
  <linearGradient id="linearGradient1190" x1="61.291" x2="77.655" y1="17.635" y2="17.635" gradientTransform="scale(0.58012938,1.7237534)" gradientUnits="userSpaceOnUse" xlink:href="#linearGradient-9-2"/>
  <linearGradient id="linearGradient-9-2" x1="61.291" x2="77.655" y1="17.635" y2="17.635" gradientTransform="scale(0.58012938,1.7237534)" gradientUnits="userSpaceOnUse">
   <stop offset="0%" stop-color="#FFFFFF"/>
   <stop offset="100%" stop-color="#EDEDED"/>
  </linearGradient>
  <filter style="color-interpolation-filters:sRGB" id="filter1017" width="1.12" height="1.08" x="-.06" y="-.04">
   <feGaussianBlur stdDeviation=".122"/>
  </filter>
  <linearGradient id="linearGradient1192" x1="48.484" x2="77.873" y1="17.635" y2="17.635" gradientTransform="scale(0.58012938,1.7237534)" gradientUnits="userSpaceOnUse" xlink:href="#linearGradient-10-9"/>
  <linearGradient id="linearGradient-10-9" x1="48.484" x2="77.873" y1="17.635" y2="17.635" gradientTransform="scale(0.58012938,1.7237534)" gradientUnits="userSpaceOnUse">
   <stop offset="0%" stop-color="#828282"/>
   <stop offset="100%" stop-color="#353535"/>
  </linearGradient>
  <linearGradient id="linearGradient-8-0" x1="24.212" x2="17.696" y1="51.153" y2="54.691" gradientTransform="matrix(1.4290308,1.2867052,0.48162039,-0.53489365,10.549191,73.789543)" gradientUnits="userSpaceOnUse">
   <stop offset="0%" stop-color="#FF9532"/>
   <stop offset="100%" stop-color="#FFFF46"/>
  </linearGradient>
 </defs>
 <g transform="translate(0,-44)">
  <g>
   <g>
    <path d="m 162.53675,62.431991 c 72.64865,0 83.03125,10.356615 83.03125,82.937499 v 58.125 c 0,72.58059 -10.3826,82.9375 -83.03125,82.9375 h -73.9375 c -72.64865,0 -83.0312501,-10.35691 -83.0312501,-82.9375 v -58.125 c 0,-72.580884 10.3826001,-82.937499 83.0312501,-82.937499 z" style="opacity:0.2;filter:url(#filter925)"/>
    <path style="opacity:0.1;filter:url(#filter931)" d="m 162.53675,61.431991 c 72.64865,0 83.03125,10.356615 83.03125,82.937499 v 58.125 c 0,72.58059 -10.3826,82.9375 -83.03125,82.9375 h -73.9375 c -72.64865,0 -83.0312501,-10.35691 -83.0312501,-82.9375 v -58.125 c 0,-72.580884 10.3826001,-82.937499 83.0312501,-82.937499 z"/>
   </g>
   <g>
    <path style="fill:#4d4d4d" d="m 162.53675,60.431991 c 72.64865,0 83.03125,10.356615 83.03125,82.937499 v 58.125 c 0,72.58059 -10.3826,82.9375 -83.03125,82.9375 h -73.9375 c -72.64865,0 -83.0312501,-10.35691 -83.0312501,-82.9375 v -58.125 c 0,-72.580884 10.3826001,-82.937499 83.0312501,-82.937499 z"/>
   </g>
   <g>
    <path d="M 361.9375,-212 C 507.2348,-212 528,-191.28677 528,-46.125 V 70.125 C 528,215.28618 507.2348,236 361.9375,236 H 214.0625 C 68.7652,236 48,215.28618 48,70.125 V -46.125 C 48,-191.28677 68.7652,-212 214.0625,-212 Z" clip-path="url(#clipPath1082-3)" transform="matrix(0.5,0,0,0.5,-18.432,166.43199)" style="opacity:0.4;fill:none;stroke:url(#linearGradient1108);stroke-width:8;stroke-linecap:round;stroke-linejoin:round"/>
   </g>
  </g>
 </g>
 <path style="opacity:0.05;fill:#ffffff" d="m 5.568,127.7184 v 34.77626 c 0,34.05298 2.59272,53.50424 14.27344,64.45039 11.68073,10.9462 32.43205,13.37095 68.7578,13.37095 h 73.93751 c 36.32576,0 57.07708,-2.42475 68.75781,-13.37095 C 242.97529,215.9989 245.568,196.54764 245.568,162.49466 V 127.7184 Z"/>
 <path style="opacity:0.3;filter:url(#filter999)" d="m 57.624158,262.07931 c 0,-12.83241 -10.318634,-23.15104 -23.151041,-23.15104 -12.832411,0 -23.151042,10.31863 -23.151042,23.15104 -10e-7,12.8324 10.318633,23.15104 23.151042,23.15104 12.832404,0 23.151041,-10.31864 23.151041,-23.15104 z m -14.681148,0 c 0,4.66197 -3.714635,8.4699 -8.469893,8.4699 -4.848541,0 -8.469895,-3.90216 -8.469895,-8.4699 0,-4.66105 3.434788,-8.4699 8.469895,-8.4699 5.035106,0 8.469893,3.9012 8.469893,8.4699 z" transform="matrix(3.7795275,0,0,3.7795275,-4.72409,-862.21994)"/>
 <path d="m 213.068,128.31602 c 0,-48.50045 -38.99956,-87.499993 -87.49999,-87.499993 -48.50046,0 -87.50001,38.999543 -87.50001,87.499993 0,48.50041 38.99956,87.49999 87.50001,87.49999 48.50042,0 87.49999,-38.99958 87.49999,-87.49999 z m -55.4878,0 c 0,17.62004 -14.03957,32.01222 -32.01219,32.01222 -18.3252,0 -32.01221,-14.74832 -32.01221,-32.01222 0,-17.61657 12.98188,-32.01222 32.01221,-32.01222 19.03032,0 32.01219,14.74469 32.01219,32.01222 z" style="fill:url(#linearGradient2658)"/>
 <g transform="matrix(2.129781,0,0,2.129781,-5.9879141,-11.151655)">
  <path style="fill:none" d="m 61.375433,50.569767 c -8.078048,0 -14.634146,6.556097 -14.634146,14.634146 0,8.078048 6.556098,14.634146 14.634146,14.634146 8.078047,0 14.634146,-6.556098 14.634146,-14.634146 0,-8.078049 -6.556099,-14.634146 -14.634146,-14.634146 z m 0,7.317072 c 4.039024,0 7.317073,3.278049 7.317073,7.317074 0,4.039024 -3.278049,7.317072 -7.317073,7.317072 -4.039024,0 -7.317073,-3.278048 -7.317073,-7.317072 0,-4.039025 3.278049,-7.317074 7.317073,-7.317074 z"/>
  <path d="m 61.375433,50.569767 c -8.078048,0 -14.634146,6.556097 -14.634146,14.634146 0,8.078048 6.556098,14.634146 14.634146,14.634146 8.078047,0 14.634147,-6.556098 14.634147,-14.634146 0,-8.078049 -6.5561,-14.634146 -14.634147,-14.634146 z m 0,7.317072 c 4.039024,0 7.317073,3.278049 7.317073,7.317074 0,4.039024 -3.278049,7.317072 -7.317073,7.317072 -4.039024,0 -7.317073,-3.278048 -7.317073,-7.317072 0,-4.039025 3.278049,-7.317074 7.317073,-7.317074 z" style="fill:none"/>
  <path d="M 63.730469,32.5625 C 52.886889,32.153854 41.851611,36.866829 35.732422,46.519531 24.778599,61.381579 30.509195,83.541914 45.763672,92.617189 a 2.0002,2.0002 0 1 0 2.044922,-3.4375 C 34.646456,81.349199 29.52422,61.597864 38.982422,48.835938 l 0.04492,-0.06055 0.04102,-0.0625 C 47.463966,35.38785 67.452097,32.924098 79.552735,42.076169 a 2.0002092,2.0002092 0 1 0 2.41211,-3.191406 C 76.7017,34.904093 70.251731,32.808257 63.730469,32.5625 Z" style="opacity:0.70999995;fill:url(#linearGradient1196)"/>
  <path d="m 33.799975,263.72883 c -1.530948,0.13714 -3.616547,1.56462 -4.37733,3.7494 -1.347701,3.87025 1.129911,8.9444 -3.276005,8.7537 6.358525,3.31196 12.919639,-4.43686 12.261729,-8.53406 -0.142322,-0.88634 -0.459404,-1.59203 -0.875247,-2.14826 z" transform="matrix(1.8897637,0,0,1.8897637,-2.6245629,-431.11402)" style="opacity:0.3;fill-rule:evenodd;filter:url(#filter1172)"/>
  <path style="fill:url(#linearGradient-4-7);fill-rule:evenodd" d="m 61.249404,67.27116 c -2.89313,0.259163 -6.834419,2.956763 -8.27212,7.085481 -2.546836,7.313858 2.135265,16.902803 -6.190875,16.542423 12.01611,6.258825 24.415065,-8.384615 23.171771,-16.127356 -0.268955,-1.674973 -0.868165,-3.00856 -1.65401,-4.059704 z"/>
  <path d="m 27.016064,276.61704 c 6.071819,2.22853 12.020246,-5.00859 11.392305,-8.91917 -0.142322,-0.88634 -0.459404,-1.59203 -0.875247,-2.14826 l -3.613444,-1.76239 c -0.766414,0.63879 -1.442914,1.45663 -1.90155,2.43131 -2.150388,4.56998 0.232645,11.10832 -5.142919,10.30701 0.04688,0.031 0.09384,0.0615 0.140854,0.0915 z" transform="matrix(1.8897637,0,0,1.8897637,-2.6245629,-431.11402)" style="opacity:0.3;fill-rule:evenodd;filter:url(#filter1176)"/>
  <path style="fill:url(#linearGradient-5-0);fill-rule:evenodd" d="M 48.429415,91.626834 C 59.903718,95.838229 71.14484,82.161779 69.95818,74.771708 69.689225,73.096735 69.090015,71.763148 68.30417,70.712004 l -6.828556,-3.3305 c -1.448341,1.207162 -2.726766,2.752686 -3.59348,4.594601 -4.063725,8.636184 0.439644,20.992099 -9.718902,19.477814 0.08859,0.05859 0.177336,0.11622 0.266181,0.172915 z"/>
  <path d="m 29.541403,277.03154 c 5.083225,-0.14726 9.406991,-5.9706 8.866966,-9.33367 -0.142322,-0.88634 -0.459404,-1.59203 -0.875247,-2.14826 l -3.585915,-1.74896 c -0.581585,0.71539 -1.05324,1.56969 -1.3131,2.52617 -1.279784,4.71069 2.085763,10.53403 -3.165277,10.67352 0.02421,0.0105 0.04839,0.0209 0.07257,0.0312 z" transform="matrix(1.8897637,0,0,1.8897637,-2.6245629,-431.11402)" style="opacity:0.3;fill-rule:evenodd;filter:url(#filter1180)"/>
  <path style="fill:url(#linearGradient-6-7);fill-rule:evenodd" d="M 53.201709,92.410139 C 62.807803,92.131854 70.9787,81.127114 69.95818,74.771708 69.689225,73.096735 69.090015,71.763148 68.30417,70.712004 l -6.776532,-3.305121 c -1.099059,1.351918 -1.990375,2.966343 -2.481449,4.773865 -2.418489,8.902091 3.941599,19.906826 -5.981626,20.170431 0.04575,0.01985 0.09145,0.0395 0.13714,0.05896 z"/>
  <path d="m 35.333064,274.35729 c 2.103344,-2.01053 3.384007,-4.73695 3.075305,-6.65942 -0.142322,-0.88634 -0.459404,-1.59203 -0.875247,-2.14826 l -3.560427,-1.73654 c -0.242777,0.65694 -0.388091,1.37248 -0.390668,2.11514 -0.01127,3.24206 2.295361,6.42221 1.751037,8.42908 z" transform="matrix(1.8897637,0,0,1.8897637,-2.6245629,-431.11402)" style="opacity:0.3;fill-rule:evenodd;filter:url(#filter1184)"/>
  <path style="fill:url(#linearGradient-7-6);fill-rule:evenodd" d="m 64.14658,87.356439 c 3.974823,-3.799425 6.394974,-8.951715 5.8116,-12.584731 -0.268955,-1.674973 -0.868165,-3.00856 -1.65401,-4.059704 l -6.728366,-3.28165 c -0.458791,1.241461 -0.7334,2.593663 -0.73827,3.997115 -0.0213,6.12673 4.33769,12.13646 3.309046,15.92897 z"/>
  <path d="m 38.25618,269.68694 c 0.190045,-0.71054 0.248547,-1.38897 0.152189,-1.98907 -0.142322,-0.88634 -0.459404,-1.59203 -0.875247,-2.14826 l -3.380923,-1.64899 c 0.05049,0.15946 0.109807,0.31761 0.17858,0.47354 0.989516,2.24344 3.494821,3.7629 3.925401,5.31278 z" transform="matrix(1.8897637,0,0,1.8897637,-2.6245629,-431.11402)" style="opacity:0.3;fill-rule:evenodd;filter:url(#filter1188)"/>
  <g transform="matrix(3.9003337,1.9873192,-1.9873192,3.9003337,495.7785,-879.32868)" style="fill:none">
   <path style="fill:url(#linearGradient1190)" d="m 10.199897,231.51083 h 1.082945 v 3.88056 h -1.082945 z m -0.2141479,4.22654 1.3656809,-0.004 c 0.158068,-4.7e-4 0.297156,0.10426 0.340384,0.2563 l 0.24753,0.87061 c 0.05328,0.18741 -0.05545,0.38253 -0.242852,0.43581 -0.03138,0.009 -0.06385,0.0135 -0.09648,0.0135 H 9.7604997 c -0.1948338,0 -0.3527778,-0.15795 -0.3527778,-0.35278 0,-0.0301 0.00385,-0.06 0.011448,-0.0891 L 9.6454741,236.001 v 0 c 0.040458,-0.15491 0.1801665,-0.26316 0.340275,-0.26363 z m 0.2141479,-4.57931 v -1.05834 c 0,-0.19483 0.157944,-0.35278 0.352778,-0.35278 h 0.37739 c 0.194833,0 0.352777,0.15795 0.352777,0.35278 v 1.05834 z"/>
   <g style="opacity:0.3;filter:url(#filter1017)">
    <path d="m 10.199897,231.51083 h 1.082945 v 3.88056 h -1.082945 z m -0.2141479,4.22654 1.3656809,-0.004 c 0.158068,-4.7e-4 0.297156,0.10426 0.340384,0.2563 l 0.24753,0.87061 c 0.05328,0.18741 -0.05545,0.38253 -0.242852,0.43581 -0.03138,0.009 -0.06385,0.0135 -0.09648,0.0135 H 9.7604997 c -0.1948338,0 -0.3527778,-0.15795 -0.3527778,-0.35278 0,-0.0301 0.00385,-0.06 0.011448,-0.0891 L 9.6454741,236.001 v 0 c 0.040458,-0.15491 0.1801665,-0.26316 0.340275,-0.26363 z m 0.2141479,-4.57931 v -1.05834 c 0,-0.19483 0.157944,-0.35278 0.352778,-0.35278 h 0.37739 c 0.194833,0 0.352777,0.15795 0.352777,0.35278 v 1.05834 z"/>
   </g>
   <g>
    <path d="m 10.199897,231.51083 h 1.082945 v 3.88056 h -1.082945 z m -0.2141479,4.22654 1.3656809,-0.004 c 0.158068,-4.7e-4 0.297156,0.10426 0.340384,0.2563 l 0.24753,0.87061 c 0.05328,0.18741 -0.05545,0.38253 -0.242852,0.43581 -0.03138,0.009 -0.06385,0.0135 -0.09648,0.0135 H 9.7604997 c -0.1948338,0 -0.3527778,-0.15795 -0.3527778,-0.35278 0,-0.0301 0.00385,-0.06 0.011448,-0.0891 L 9.6454741,236.001 v 0 c 0.040458,-0.15491 0.1801665,-0.26316 0.340275,-0.26363 z m 0.2141479,-4.57931 v -1.05834 c 0,-0.19483 0.157944,-0.35278 0.352778,-0.35278 h 0.37739 c 0.194833,0 0.352777,0.15795 0.352777,0.35278 v 1.05834 z" style="fill:url(#linearGradient1192)"/>
   </g>
  </g>
  <path style="fill:url(#linearGradient-8-0);fill-rule:evenodd" d="m 69.670579,78.530579 c 0.35914,-1.34275 0.469695,-2.624825 0.287601,-3.758871 -0.268955,-1.674973 -0.868165,-3.00856 -1.65401,-4.059704 l -6.389146,-3.116201 c 0.09541,0.301342 0.207509,0.600208 0.337474,0.894879 1.869952,4.239571 6.604386,7.110992 7.418081,10.039897 z"/>
 </g>
</svg>
