<svg xmlns="http://www.w3.org/2000/svg" xmlns:xlink="http://www.w3.org/1999/xlink" width="256" height="256" version="1.1" viewBox="0 0 67.73 67.73">
 <defs>
  <linearGradient id="linearGradient1108" x1="296" x2="296" y1="-212" y2="236" gradientUnits="userSpaceOnUse" xlink:href="#linearGradient1013"/>
  <linearGradient id="linearGradient1013">
   <stop offset="0" style="stop-color:#ffffff"/>
   <stop style="stop-color:#ffffff;stop-opacity:0.09803922" offset=".125"/>
   <stop style="stop-color:#000000;stop-opacity:0.09803922" offset=".925"/>
   <stop offset="1" style="stop-color:#000000;stop-opacity:0.49803922"/>
  </linearGradient>
  <clipPath id="clipPath1082-3-367" clipPathUnits="userSpaceOnUse">
   <path d="M 361.9375,-212 C 507.2348,-212 528,-191.28677 528,-46.125 V 70.125 C 528,215.28618 507.2348,236 361.9375,236 H 214.0625 C 68.7652,236 48,215.28618 48,70.125 V -46.125 C 48,-191.28677 68.7652,-212 214.0625,-212 Z" style="fill:#8c59d9"/>
  </clipPath>
  <clipPath id="clipPath1205-5" clipPathUnits="userSpaceOnUse">
   <path d="M 115.03125,44 C 42.3826,44 32,54.356615 32,126.9375 v 58.125 c 0,13.772 0.379014,25.29352 1.482422,34.9375 H 270.51758 C 271.62099,210.35602 272,198.8345 272,185.0625 v -58.125 C 272,54.356615 261.6174,44 188.96875,44 Z" style="fill:#f1f0e9"/>
  </clipPath>
  <linearGradient id="linearGradient1183" x1="-2.352" x2="306.352" y1="264" y2="264" gradientTransform="translate(0,-4)" gradientUnits="userSpaceOnUse" xlink:href="#linearGradient1181"/>
  <linearGradient id="linearGradient1181">
   <stop style="stop-color:#000000;stop-opacity:0" offset="0"/>
   <stop offset=".5" style="stop-color:#000000;stop-opacity:0.89177489"/>
   <stop style="stop-color:#000000;stop-opacity:0" offset="1"/>
  </linearGradient>
  <filter style="color-interpolation-filters:sRGB" id="filter1171" width="1.015" height="1.053" x="-.01" y="-.03">
   <feGaussianBlur stdDeviation=".98"/>
  </filter>
  <filter style="color-interpolation-filters:sRGB" id="filter933" width="1.046" height="1.05" x="-.02" y="-.03">
   <feGaussianBlur stdDeviation="2.32"/>
  </filter>
  <filter style="color-interpolation-filters:sRGB" id="filter4569" width="1.023" height="1.025" x="-.01" y="-.01">
   <feGaussianBlur stdDeviation="1.16"/>
  </filter>
  <linearGradient id="linearGradient4245">
   <stop offset="0" style="stop-color:#e8e8e8"/>
   <stop offset="1" style="stop-color:#f5f5f5"/>
  </linearGradient>
  <linearGradient id="linearGradient994" x1="11.067" x2="57.501" y1="231.037" y2="295.613" gradientUnits="userSpaceOnUse" xlink:href="#linearGradient4245"/>
 </defs>
 <g transform="translate(0,-229.26666)">
  <path d="m 162.53675,3.5680001 c 72.64865,0 83.03125,10.3566149 83.03125,82.9375049 v 58.125005 c 0,72.58059 -10.3826,82.9375 -83.03125,82.9375 H 88.599254 C 15.9506,227.56801 5.568,217.2111 5.568,144.63051 V 86.505505 c 0,-72.58089 10.3826,-82.9375049 83.031254,-82.9375049 z" transform="matrix(0.26458333,0,0,0.26458333,-1.8735229e-8,232.67026)" style="opacity:0.1;filter:url(#filter4569)"/>
  <path style="opacity:0.2;filter:url(#filter933)" d="m 162.53675,5.5680001 c 72.64865,0 83.03125,10.3566149 83.03125,82.9375049 v 58.125005 c 0,72.58059 -10.3826,82.9375 -83.03125,82.9375 H 88.599254 C 15.9506,229.56801 5.568,219.2111 5.568,146.63051 V 88.505505 c 0,-72.58089 10.3826,-82.9375049 83.031254,-82.9375049 z" transform="matrix(0.26458333,0,0,0.26458333,-1.8735229e-8,232.67026)"/>
  <path style="fill:url(#linearGradient994)" d="m 23.441883,292.88096 c -19.221622,0 -21.968685,-2.74018 -21.968685,-21.94388 v -15.37891 c 0,-3.64384 0.100281,-6.69224 0.392224,-9.24388 h 62.715552 c 0.291944,2.55164 0.392224,5.60004 0.392224,9.24388 v 15.37891 c 0,19.2037 -2.747063,21.94388 -21.968685,21.94388 z"/>
  <g style="enable-background:new" clip-path="url(#clipPath1205-5)" transform="matrix(0.26458333,0,0,-0.26458333,-6.993468,304.52263)">
   <path style="opacity:0.4;fill:url(#linearGradient1183);filter:url(#filter1195)" d="m 0,216 h 304 v 88 H 0 Z"/>
   <rect width="304" height="88" x="0" y="220" style="opacity:0.1;filter:url(#filter1171)"/>
  </g>
  <path style="fill:#f76363" d="m 1.871623,246.31429 c 1.247372,-10.88639 6.0022075,-12.7 21.57026,-12.7 h 19.56263 c 15.568054,0 20.322886,1.81361 21.570259,12.7 z"/>
  <path style="opacity:0.2;fill:#ffffff" d="m -84.961092,262.78 v 19.31614 c 0,9.35792 0.959157,10.3172 10.298081,10.3172 h 25.970508 c 9.338927,0 10.343849,-0.95939 10.298078,-10.3172 V 262.78 Z"/>
  <path d="m 64.973198,273.03566 -20.089214,19.8453 c 16.851934,-0.18394 19.879386,-3.13516 20.089214,-19.8453 z" style="opacity:0.8;fill:#ffffff"/>
  <g style="enable-background:new" transform="matrix(0.26458333,0,0,0.26458333,-0.42280811,217.62499)">
   <path d="m 7.166015,172.43201 v 29.06249 c 0,72.58061 10.3826,82.9375 83.031245,82.9375 h 73.9375 c 72.64865,0 83.03125,-10.35689 83.03125,-82.9375 v -29.06249 z" style="opacity:0.1;fill:#ffffff"/>
   <path style="opacity:0.1;fill:#f6f6f6" d="m 124.85652,284.432 h 37.68023 c 36.89655,0 57.27587,-3.11165 69.13609,-14.01362 11.86024,-10.90208 15.18368,-29.57817 15.18368,-63.48219 v -69.00828 c 0,-33.9041 -3.32344,-52.807857 -15.18368,-63.709867 C 219.81262,63.316034 199.4333,60.43199 162.53675,60.43199 h -37.68023 z"/>
  </g>
  <path d="M 361.9375,-212 C 507.2348,-212 528,-191.28677 528,-46.125 V 70.125 C 528,215.28618 507.2348,236 361.9375,236 H 214.0625 C 68.7652,236 48,215.28618 48,70.125 V -46.125 C 48,-191.28677 68.7652,-212 214.0625,-212 Z" clip-path="url(#clipPath1082-3-367)" transform="matrix(0.13229167,0,0,0.13229167,-4.8768018,261.66013)" style="opacity:0.4;fill:none;stroke:url(#linearGradient1108);stroke-width:8;stroke-linecap:round;stroke-linejoin:round"/>
  <path d="m 18.560249,253.74197 -5.22115,13.75841 h -1.282567 v 1.05833 h 3.704129 v -1.05833 h -1.185899 l 1.237128,-3.17722 h 6.138736 l 1.235662,3.17722 h -1.60211 v 1.05833 h 5.313493 v -1.05833 h -1.46579 l -5.222616,-13.75841 z m 0.321009,2.38191 2.70292,7.14537 h -5.360401 z" font-size="13.717" font-weight="400" letter-spacing="0" overflow="visible" word-spacing="0" style="fill:#5d5d5d"/>
  <path style="fill:#e3dfd5;fill-opacity:0.99607843" d="m 28.989864,254.8006 v 1.05833 h 25.4 v -1.05833 z m 0,4.23333 v 1.05834 h 25.4 v -1.05834 z m 0,4.2137 v 1.05833 h 25.4 v -1.05833 z m 0,4.23333 v 1.05834 h 25.4 v -1.05834 z m -16.933332,4.23334 v 1.05833 l 42.333332,0.0196 v -1.05833 z m 0,4.23333 v 1.05833 h 42.333332 v -1.05833 z m 0,4.23333 v 1.05834 h 31.749999 v -1.05834 z"/>
 </g>
</svg>
