<!-- Generator: Gravit.io -->
<svg width="256" height="256" style="isolation:isolate" viewBox="0 0 256 256" xmlns="http://www.w3.org/2000/svg">
 <defs>
  <clipPath id="_clipPath_n9p7QwJQcxATiUc7c83yQHPYXBXdtwXg">
   <rect width="256" height="256"/>
  </clipPath>
 </defs>
 <g clip-path="url(#_clipPath_n9p7QwJQcxATiUc7c83yQHPYXBXdtwXg)">
  <defs>
   <filter id="xT7zxbSrp6LvV5C9yoyWTHxMTZP0maSb" x="-200%" y="-200%" width="400%" height="400%" color-interpolation-filters="sRGB">
    <feGaussianBlur stdDeviation="1.16" xmlns="http://www.w3.org/2000/svg"/>
   </filter>
  </defs>
  <g filter="url(#xT7zxbSrp6LvV5C9yoyWTHxMTZP0maSb)" opacity=".1">
   <path d="m-26.274-32.918c0.316 0 0.361 0.048 0.361 0.387v0.271c0 0.339-0.045 0.387-0.361 0.387h-0.321c-0.316 0-0.361-0.048-0.361-0.387v-0.271c0-0.339 0.045-0.387 0.361-0.387h0.321z" fill="rgb(0,0,0)"/>
  </g>
  <defs>
   <filter id="QViaMcm6cKX1G0PB7NwG5VI7EI8jOEAJ" x="-200%" y="-200%" width="400%" height="400%" color-interpolation-filters="sRGB">
    <feGaussianBlur stdDeviation="0.42769382780024773" xmlns="http://www.w3.org/2000/svg"/>
   </filter>
  </defs>
  <g filter="url(#QViaMcm6cKX1G0PB7NwG5VI7EI8jOEAJ)" opacity=".2">
   <path d="m-26.27-32.931c0.323 0 0.369 0.05 0.369 0.397v0.277c0 0.347-0.046 0.396-0.369 0.396h-0.329c-0.322 0-0.369-0.049-0.369-0.396v-0.277c0-0.347 0.047-0.397 0.369-0.397h0.329z" fill="rgb(0,0,0)"/>
  </g>
  <path d="m165.685 11.947c74.055 0 84.639 10.557 84.639 84.544v59.251c0 73.986-10.584 84.543-84.639 84.543h-75.37c-74.055 0-84.639-10.557-84.639-84.543v-59.251c0-73.987 10.584-84.544 84.639-84.544h75.37z" fill="rgb(0,158,255)"/>
  <path d="m107.737 61.325c-5.694-0.131-11.126 1.099-15.987 3.905-10.463 6.041-15.852 18.056-16.667 32.241-11.873 7.798-19.583 18.465-19.583 30.544 0 12.08 7.71 22.747 19.583 30.544 0.815 14.184 6.21 26.2 16.672 32.241 10.462 6.04 23.555 4.698 36.245-1.686 12.689 6.382 25.789 7.725 36.25 1.686 10.462-6.04 15.846-18.053 16.662-32.236 11.876-7.797 19.588-18.467 19.588-30.549 0-12.081-7.712-22.751-19.588-30.549-0.815-14.183-6.2-26.195-16.662-32.236-10.465-6.041-23.567-4.702-36.261 1.687-6.792-3.417-13.692-5.441-20.252-5.592zm40.526 5.728c4.797-0.125 9.239 0.903 13.12 3.144 7.49 4.324 12.06 12.745 13.458 23.706-6.631-3.448-14.255-6.143-22.569-7.947-5.718-6.296-11.853-11.552-18.152-15.569 4.91-2.056 9.684-3.219 14.143-3.334zm-40.526 5e-3c4.455 0.116 9.227 1.275 14.132 3.329-6.298 4.017-12.435 9.273-18.152 15.569-8.311 1.804-15.935 4.499-22.563 7.947 1.399-10.96 5.98-19.383 13.468-23.706 3.881-2.241 8.319-3.264 13.115-3.139zm20.258 6.321c4.902 2.772 9.816 6.451 14.556 10.879-4.703-0.583-9.567-0.892-14.551-0.892-4.988 0-9.855 0.309-14.562 0.892 4.74-4.429 9.654-8.106 14.557-10.879zm5e-3 15.732c7.444 0 14.579 0.747 21.258 2.072 4.49 5.124 8.713 10.932 12.435 17.38 3.723 6.448 6.642 13.003 8.834 19.452-2.192 6.449-5.112 13.006-8.834 19.452-3.722 6.448-7.94 12.258-12.429 17.38-6.682 1.326-13.818 2.073-21.264 2.073s-14.582-0.747-21.264-2.073c-4.489-5.123-8.712-10.926-12.435-17.374s-6.641-13.008-8.834-19.458c2.192-6.449 5.111-13.004 8.834-19.452s7.946-12.256 12.435-17.38c6.682-1.325 13.818-2.072 21.264-2.072zm-30.62 4.422c-2.857 3.783-5.553 7.841-8.045 12.158-2.495 4.321-4.658 8.692-6.506 13.06-1.467-6.321-2.199-12.42-2.149-18.054 4.852-2.86 10.496-5.274 16.7-7.164zm61.235 0c6.204 1.89 11.847 4.304 16.699 7.164 0.05 5.633-0.677 11.728-2.143 18.049-1.847-4.366-4.013-8.732-6.506-13.05-2.492-4.317-5.194-8.38-8.05-12.163zm-41.478 6.631-5.385 23.646-9.373 1.42-2.23 8.355 9.71-1.474-4.14 18.185h40.384l3.9-11.14h-25.038l2.203-9.667 9.742-1.474 2.23-8.355-10.079 1.528 4.787-21.024h-16.711zm63.824 4.335c8.792 6.693 13.795 14.869 13.795 23.516s-5.003 16.824-13.795 23.516c-0.329-7.465-1.808-15.411-4.401-23.51 2.596-8.104 4.072-16.054 4.401-23.522zm-105.927 6e-3c0.329 7.465 1.806 15.41 4.401 23.51-2.594 8.101-4.073 16.045-4.401 23.51-8.789-6.691-13.79-14.865-13.79-23.51s5.001-16.819 13.79-23.51zm7.795 32.779c1.848 4.368 4.012 8.736 6.506 13.056 2.492 4.317 5.189 8.375 8.045 12.157-6.204-1.89-11.848-4.304-16.7-7.164-0.05-5.633 0.684-11.729 2.149-18.049zm90.342 0c1.466 6.321 2.194 12.416 2.143 18.049-4.852 2.86-10.495 5.275-16.699 7.164 2.856-3.782 5.552-7.84 8.045-12.157 2.493-4.318 4.663-8.69 6.511-13.056zm-92.017 24.843c6.628 3.448 14.252 6.143 22.563 7.948 5.716 6.294 11.854 11.546 18.152 15.563-10.187 4.264-19.761 4.512-27.247 0.19-7.488-4.323-12.069-12.741-13.468-23.701zm93.687 0c-1.399 10.959-5.975 19.378-13.463 23.701s-17.068 4.076-27.258-0.19c6.299-4.017 12.435-9.269 18.152-15.563 8.314-1.804 15.938-4.5 22.569-7.948zm-61.398 9.645c4.705 0.583 9.571 0.892 14.557 0.892 4.984 0 9.848-0.309 14.551-0.892-4.741 4.429-9.652 8.107-14.556 10.879-4.903-2.772-9.812-6.451-14.552-10.879z" fill="rgb(255,255,255)"/>
  <g opacity=".1">
   <path d="m250.201 84.236-205.409 153.031c11.562 2.311 26.427 3.018 45.523 3.018h75.37c74.055 0 84.639-10.557 84.639-84.543v-59.251c0-4.303-0.041-8.37-0.123-12.255z" fill="rgb(255,255,255)"/>
  </g>
  <clipPath id="_clipPath_0uATT0KvHB8fODusH9U3vUmojjLfK7GL">
   <path d="m165.685 11.947c74.055 0 84.639 10.557 84.639 84.544v59.251c0 73.986-10.584 84.543-84.639 84.543h-75.37c-74.055 0-84.639-10.557-84.639-84.543v-59.251c0-73.987 10.584-84.544 84.639-84.544h75.37z" fill="rgb(255,255,255)"/>
  </clipPath>
  <g clip-path="url(#_clipPath_0uATT0KvHB8fODusH9U3vUmojjLfK7GL)">
   <g opacity=".6">
    <linearGradient id="_lgradient_0" x1=".51666667" x2=".51666667" y2="1">
     <stop style="stop-color:rgb(255,255,255)" offset="0"/>
     <stop stop-opacity=".09803922" style="stop-color:rgb(255,255,255)" offset=".125"/>
     <stop stop-opacity=".09803922" style="stop-color:rgb(0,0,0)" offset=".92500001"/>
     <stop stop-opacity=".49803922" style="stop-color:rgb(0,0,0)" offset="1"/>
    </linearGradient>
    <path d="m165.685 11.947c74.055 0 84.639 10.557 84.639 84.544v59.251c0 73.986-10.584 84.543-84.639 84.543h-75.37c-74.055 0-84.639-10.557-84.639-84.543v-59.251c0-73.987 10.584-84.544 84.639-84.544h75.37z" fill="none" stroke="url(#_lgradient_0)" stroke-linecap="round" stroke-linejoin="round" stroke-width="4.077" vector-effect="non-scaling-stroke"/>
   </g>
  </g>
 </g>
</svg>
