<?xml version="1.0" encoding="UTF-8" standalone="no"?>
<svg
   xmlns:dc="http://purl.org/dc/elements/1.1/"
   xmlns:cc="http://creativecommons.org/ns#"
   xmlns:rdf="http://www.w3.org/1999/02/22-rdf-syntax-ns#"
   xmlns:svg="http://www.w3.org/2000/svg"
   xmlns="http://www.w3.org/2000/svg"
   xmlns:sodipodi="http://sodipodi.sourceforge.net/DTD/sodipodi-0.dtd"
   xmlns:inkscape="http://www.inkscape.org/namespaces/inkscape"
   width="256"
   height="256"
   version="1.1"
   viewBox="0 0 67.73 67.73"
   id="svg39"
   sodipodi:docname="electrum.svg"
   inkscape:version="0.92.3 (2405546, 2018-03-11)">
  <metadata
     id="metadata43">
    <rdf:RDF>
      <cc:Work
         rdf:about="">
        <dc:format>image/svg+xml</dc:format>
        <dc:type
           rdf:resource="http://purl.org/dc/dcmitype/StillImage" />
      </cc:Work>
    </rdf:RDF>
  </metadata>
  <sodipodi:namedview
     pagecolor="#ffffff"
     bordercolor="#666666"
     borderopacity="1"
     objecttolerance="10"
     gridtolerance="10"
     guidetolerance="10"
     inkscape:pageopacity="0"
     inkscape:pageshadow="2"
     inkscape:window-width="1920"
     inkscape:window-height="1009"
     id="namedview41"
     showgrid="false"
     inkscape:zoom="3.2617188"
     inkscape:cx="128"
     inkscape:cy="128"
     inkscape:window-x="0"
     inkscape:window-y="34"
     inkscape:window-maximized="1"
     inkscape:current-layer="g37" />
  <defs
     id="defs25">
    <linearGradient
       id="linearGradient1108"
       x1="296"
       x2="296"
       y1="-212"
       y2="236"
       gradientUnits="userSpaceOnUse">
      <stop
         style="stop-color:#ffffff"
         offset="0"
         id="stop2" />
      <stop
         style="stop-color:#ffffff;stop-opacity:.09803922"
         offset=".125"
         id="stop4" />
      <stop
         style="stop-color:#000000;stop-opacity:.09803922"
         offset=".925"
         id="stop6" />
      <stop
         style="stop-color:#000000;stop-opacity:.49803922"
         offset="1"
         id="stop8" />
    </linearGradient>
    <clipPath
       id="clipPath1082-3-36">
      <path
         d="M 361.9375,-212 C 507.2348,-212 528,-191.28677 528,-46.125 V 70.125 C 528,215.28618 507.2348,236 361.9375,236 H 214.0625 C 68.7652,236 48,215.28618 48,70.125 V -46.125 C 48,-191.28677 68.7652,-212 214.0625,-212 Z"
         style="fill:#8c59d9"
         id="path11" />
    </clipPath>
    <linearGradient
       id="linearGradient1048"
       x1="24"
       x2="280"
       y1="28"
       y2="284"
       gradientTransform="matrix(0.26460405,0,0,0.26460405,-7.1972316,222.2516)"
       gradientUnits="userSpaceOnUse">
      <stop
         style="stop-color:#5884f4"
         offset="0"
         id="stop14" />
      <stop
         style="stop-color:#80a3fa"
         offset="1"
         id="stop16" />
    </linearGradient>
    <filter
       id="filter998"
       x="-.02"
       y="-.03"
       width="1.046"
       height="1.05"
       style="color-interpolation-filters:sRGB">
      <feGaussianBlur
         stdDeviation="2.32"
         id="feGaussianBlur19" />
    </filter>
    <filter
       id="filter905"
       x="-.05"
       y="-.05"
       width="1.091"
       height="1.101"
       style="color-interpolation-filters:sRGB">
      <feGaussianBlur
         stdDeviation=".806"
         id="feGaussianBlur22" />
    </filter>
  </defs>
  <g
     transform="translate(0,-229.26666)"
     id="g37">
    <path
       transform="matrix(0.26460404,0,0,0.26460404,-0.20321593,232.95005)"
       d="m 162.53675,5.5680001 c 72.64865,0 83.03125,10.3566149 83.03125,82.9375049 v 58.125005 c 0,72.58059 -10.3826,82.9375 -83.03125,82.9375 H 88.599254 C 15.9506,229.56801 5.568,219.2111 5.568,146.63051 V 88.505505 c 0,-72.58089 10.3826,-82.9375049 83.031254,-82.9375049 z"
       style="opacity:0.2;filter:url(#filter998)"
       id="path27"
       inkscape:connector-curvature="0" />
    <path
       d="m 42.804662,233.89416 c 19.223126,0 21.970404,2.7404 21.970404,21.94559 v 15.38012 c 0,19.20512 -2.747278,21.9456 -21.970404,21.9456 H 23.240501 c -19.2231256,0 -21.9704036,-2.74048 -21.9704036,-21.9456 v -15.38012 c 0,-19.20519 2.7472779,-21.94559 21.9704036,-21.94559 z"
       style="fill:#5884f4;stroke-width:1.0000782;fill-opacity:1"
       id="path29"
       inkscape:connector-curvature="0" />
    <path
       transform="matrix(0.13230202,0,0,0.13230202,-5.0803997,261.94219)"
       d="M 361.9375,-212 C 507.2348,-212 528,-191.28677 528,-46.125 V 70.125 C 528,215.28618 507.2348,236 361.9375,236 H 214.0625 C 68.7652,236 48,215.28618 48,70.125 V -46.125 C 48,-191.28677 68.7652,-212 214.0625,-212 Z"
       clip-path="url(#clipPath1082-3-36)"
       style="opacity:0.4;fill:none;stroke:url(#linearGradient1108);stroke-width:8;stroke-linecap:round;stroke-linejoin:round"
       id="path31"
       inkscape:connector-curvature="0" />
    <path
       d="m 24.015688,282.27137 c -1.53507,-0.41549 -3.009301,-1.67536 -3.741921,-3.19785 -0.711902,-1.47942 -1.043258,-3.407 -0.953536,-5.54696 0.04121,-0.98285 0.112805,-1.91178 0.159105,-2.0643 0.07279,-0.23977 -0.07754,-0.35013 -1.111012,-0.81559 -2.667302,-1.20129 -4.946437,-3.13879 -5.849679,-4.97282 -0.436183,-0.88567 -0.462112,-1.01985 -0.462112,-2.39131 0,-1.41122 0.01538,-1.48412 0.534959,-2.53614 0.91577,-1.85422 2.825393,-3.49501 5.592156,-4.80494 l 1.315959,-0.62304 -0.103135,-0.72443 c -0.343931,-2.41578 0.03449,-5.44813 0.896664,-7.18513 2.04271,-4.11538 6.603757,-4.36827 11.926153,-0.66126 0.580581,0.40437 1.089244,0.68078 1.130366,0.61425 0.04112,-0.0665 0.611381,-0.47805 1.267246,-0.91447 4.116357,-2.73908 7.786251,-3.06345 10.137616,-0.89604 1.27534,1.17557 2.008862,2.83699 2.289744,5.18625 0.145105,1.21365 0.09666,3.43525 -0.09253,4.2433 -0.05794,0.24745 0.145238,0.39274 1.488548,1.06451 2.777271,1.38887 4.519375,2.93829 5.499653,4.89139 0.429544,0.85582 0.454221,0.98478 0.449475,2.34888 -0.0045,1.28754 -0.04534,1.52497 -0.378569,2.19939 -0.540346,1.09363 -1.280414,2.01465 -2.315696,2.88188 -1.022193,0.85627 -2.841625,1.97511 -3.933583,2.41892 -0.400067,0.16259 -0.75097,0.31998 -0.779787,0.34974 -0.02881,0.0298 -0.003,0.73104 0.0573,1.55839 0.341752,4.68665 -0.910099,7.8258 -3.655318,9.16608 -0.901928,0.44035 -1.022031,0.4629 -2.460295,0.46211 -1.219013,-7.8e-4 -1.698572,-0.0633 -2.474308,-0.32298 -1.521646,-0.50942 -3.240563,-1.44026 -4.831001,-2.61612 l -0.425843,-0.31484 -0.863068,0.63536 c -1.16572,0.85815 -2.913752,1.79604 -4.140981,2.2218 -1.083107,0.37576 -3.363822,0.56486 -4.17257,0.34597 z m 2.702931,-2.0019 c 1.130297,-0.23957 2.690508,-0.94948 3.96288,-1.80314 0.529818,-0.35547 0.963306,-0.65605 0.963306,-0.66796 0,-0.0119 -0.533967,-0.57586 -1.186595,-1.25323 -0.927054,-0.9622 -2.145365,-2.37274 -2.895845,-3.35277 -0.02496,-0.0326 -0.338315,-0.1027 -0.696339,-0.15578 -1.328577,-0.197 -3.02342,-0.54616 -4.224953,-0.8704 -0.680435,-0.18362 -1.264131,-0.30714 -1.297104,-0.27447 -0.03297,0.0326 -0.05853,0.97057 -0.05679,2.08426 0.0058,3.72239 0.984124,5.74504 3.047497,6.30063 0.845749,0.22773 1.281939,0.22642 2.383944,-0.007 z m 15.856416,-0.15494 c 1.112799,-0.52806 1.995652,-1.83822 2.343024,-3.47707 0.194424,-0.91727 0.267341,-3.9376 0.109306,-4.52766 -0.05956,-0.22239 -0.151352,-0.29107 -0.307411,-0.23001 -0.426135,0.16674 -3.390788,0.86394 -4.34634,1.02214 -0.529227,0.0876 -1.090113,0.18502 -1.246412,0.21645 -0.156299,0.0314 -0.692682,0.56914 -1.19196,1.1949 -0.499278,0.62576 -1.407512,1.63115 -2.018299,2.23421 -0.610787,0.60305 -1.110522,1.14556 -1.110522,1.20556 0,0.17648 1.862901,1.33015 2.985107,1.84864 1.851711,0.85554 3.654108,1.04878 4.783507,0.51284 z m -6.811845,-6.24432 0.386701,-0.48111 h -2.926199 c -2.560092,0 -2.911933,0.0258 -2.812191,0.20619 0.0627,0.11341 0.715017,0.81442 1.449585,1.55781 l 1.335578,1.35161 1.089913,-1.07669 c 0.599454,-0.59218 1.263929,-1.29319 1.476613,-1.55781 z m 1.724965,-2.55481 c 0.343071,-0.0651 0.586769,-0.33878 1.428797,-1.60482 1.052033,-1.5818 2.631641,-4.39899 3.234439,-5.76854 l 0.346385,-0.78699 -0.999157,-1.96224 c -1.156772,-2.2718 -3.188157,-5.5433 -3.623032,-5.83483 -0.607324,-0.40714 -8.494202,-0.45221 -9.24049,-0.0528 -0.507035,0.27136 -2.597785,3.63018 -3.95793,6.35847 l -0.754657,1.51375 0.375335,0.84455 c 0.753473,1.69539 2.05823,3.99122 3.463584,6.09447 l 0.752429,1.12608 0.706338,0.0762 c 0.388487,0.0419 0.891912,0.10251 1.118724,0.13464 0.553375,0.0784 6.626327,-0.0388 7.149235,-0.13795 z m -6.084497,-1.86516 c -0.09418,-0.0942 -0.171238,-0.49909 -0.171238,-0.89979 v -0.72855 h -2.061924 v -0.49015 c 0,-0.73872 0.206787,-1.02192 0.746168,-1.02192 0.294086,0 0.491848,-0.0789 0.54501,-0.21744 0.164459,-0.42857 0.09254,-4.94201 -0.08152,-5.11607 -0.09072,-0.0907 -0.394858,-0.16496 -0.675853,-0.16496 -0.578188,0 -0.628797,-0.0758 -0.55656,-0.83324 l 0.05163,-0.54137 h 2.170509 v -1.787 h 1.237154 v 0.82477 c 0,0.78363 0.0168,0.82477 0.336795,0.82477 0.313588,0 0.339634,-0.0545 0.378019,-0.79041 l 0.04123,-0.7904 h 1.237154 l 0.08078,1.67722 0.741619,0.16597 c 0.407891,0.0913 0.901276,0.29155 1.096412,0.44504 0.817279,0.64287 1.000783,1.78857 0.422872,2.64018 l -0.338813,0.49926 0.405217,0.20955 c 0.55097,0.28492 0.859259,0.93592 0.851512,1.7981 -0.01044,1.16062 -0.563539,1.93097 -1.665625,2.3198 -0.32867,0.11596 -0.759913,0.21179 -0.958319,0.21294 -0.575545,0.004 -0.686193,0.1596 -0.730968,1.03217 l -0.04215,0.82146 h -1.099692 l -0.04093,-0.85913 c -0.03831,-0.80433 -0.06201,-0.85914 -0.37146,-0.85914 -0.30945,0 -0.333146,0.0548 -0.37146,0.85914 l -0.04093,0.85913 -0.481703,0.0406 c -0.264939,0.0224 -0.558763,-0.0364 -0.652943,-0.13058 z m 3.43405,-3.51059 c 0.555664,-0.23711 0.729364,-0.55604 0.594809,-1.09215 -0.117507,-0.46819 -0.820663,-0.73706 -1.927566,-0.73706 h -0.897915 v 2.22638 l 0.859135,-0.0893 c 0.472524,-0.0491 1.089715,-0.18765 1.371537,-0.30791 z m -0.311361,-3.40535 c 0.538842,-0.48765 0.278048,-1.22183 -0.511948,-1.44123 -0.282625,-0.0785 -0.714901,-0.14306 -0.960613,-0.14348 l -0.44675,-7.8e-4 v 1.95751 l 0.819619,-0.0593 c 0.537784,-0.0389 0.915923,-0.14644 1.099692,-0.31275 z m -8.904543,7.93374 c -0.382305,-0.53857 -1.049915,-1.66758 -1.971147,-3.33345 -0.438999,-0.79383 -0.799352,-1.39625 -0.800785,-1.3387 -0.0014,0.0576 -0.212039,0.79985 -0.468012,1.64954 -0.255973,0.84969 -0.507476,1.7421 -0.558898,1.98313 l -0.09349,0.43824 0.936917,0.27877 c 0.986043,0.2934 2.551056,0.65269 2.973834,0.68273 0.236548,0.0168 0.235563,-0.002 -0.01841,-0.36026 z m 16.195157,0.16496 c 0.567028,-0.11706 1.453537,-0.33763 1.970021,-0.49016 0.747103,-0.22064 0.921771,-0.32238 0.854478,-0.49774 -0.04652,-0.12123 -0.14684,-0.50372 -0.222934,-0.84998 -0.189548,-0.86253 -0.854144,-2.89782 -0.945995,-2.89706 -0.04112,3.1e-4 -0.340518,0.52097 -0.665332,1.15695 -0.324814,0.63598 -0.822145,1.51718 -1.105182,1.95821 -0.932505,1.45304 -1.146019,1.83284 -1.030326,1.83272 0.06287,-6e-5 0.578241,-0.0959 1.14527,-0.21294 z m 6.597851,-2.3609 c 1.872278,-1.04232 3.120003,-2.19407 3.739699,-3.45204 0.437488,-0.88807 0.428557,-2.31225 -0.01991,-3.1778 -0.647856,-1.25034 -2.459051,-2.81695 -4.338053,-3.75225 -1.239851,-0.61715 -1.261629,-0.61513 -1.422304,0.13247 -0.134911,0.6277 -0.985793,3.25772 -1.481271,4.57849 l -0.233033,0.62119 0.692864,1.99058 c 0.381074,1.09482 0.800765,2.43664 0.932641,2.98181 l 0.239777,0.99122 0.497898,-0.20804 c 0.273844,-0.11442 0.900111,-0.43195 1.391702,-0.70563 z m -28.317579,0.0653 c 0.195067,-0.85796 0.993588,-3.31759 1.402865,-4.32115 l 0.290688,-0.71277 -0.441526,-1.16984 c -0.597119,-1.58209 -1.052551,-3.01635 -1.260114,-3.9684 -0.09478,-0.43472 -0.2398,-0.78922 -0.322274,-0.78777 -0.2989,0.005 -2.699159,1.36066 -3.497642,1.97507 -2.080984,1.60129 -2.850642,3.72999 -1.998154,5.52648 0.300127,0.63247 1.397808,1.83404 2.24073,2.4528 0.824199,0.60502 2.892581,1.72189 3.194499,1.72495 0.161795,0.002 0.273898,-0.20465 0.390928,-0.71937 z m 3.317094,-8.52262 c 0.507541,-1.00574 1.994159,-3.50062 2.29395,-3.84977 0.30182,-0.35151 0.172453,-0.38752 -0.667479,-0.18581 -0.412603,0.0991 -1.233128,0.29337 -1.823388,0.43175 -1.500328,0.35172 -1.511463,0.36388 -1.25526,1.37008 0.278271,1.09287 0.90425,3.09288 0.968034,3.09288 0.02782,0 0.245686,-0.38661 0.484143,-0.85913 z m 20.670619,-0.94861 c 0.67148,-2.31125 0.682911,-2.1748 -0.206062,-2.45985 -0.415821,-0.13333 -1.219971,-0.33681 -1.787,-0.45218 -0.567029,-0.11537 -1.139213,-0.2516 -1.27152,-0.30274 -0.132307,-0.0511 -0.240558,-0.0687 -0.240558,-0.039 0,0.0297 0.479397,0.85972 1.065327,1.84449 0.585931,0.98477 1.219972,2.10515 1.408982,2.48974 0.189009,0.38458 0.396289,0.64982 0.460622,0.58941 0.06433,-0.0604 0.320928,-0.81185 0.570209,-1.66988 z m -21.006663,-4.6419 c 0.893593,-0.22073 2.259441,-0.50998 3.035218,-0.64277 l 1.410504,-0.24144 0.809573,-0.9724 c 1.02054,-1.2258 1.213303,-1.43919 2.387012,-2.64249 l 0.958615,-0.98278 -0.670144,-0.49899 c -0.895355,-0.6667 -3.240766,-1.7998 -4.155406,-2.00754 -0.931487,-0.21158 -2.563353,-0.11093 -3.151561,0.19437 -1.734873,0.90047 -2.695334,3.68172 -2.424424,7.02054 0.05243,0.64616 0.113454,1.17483 0.135612,1.17483 0.02216,0 0.771409,-0.18059 1.665001,-0.40133 z m 21.951115,0.092 c 0.155977,-0.58201 0.08207,-3.46992 -0.112259,-4.38682 -0.921684,-4.34864 -4.44308,-5.06005 -9.217218,-1.8621 -0.453623,0.30386 -0.847734,0.57101 -0.875799,0.59367 -0.02807,0.0227 0.568754,0.70899 1.32627,1.52517 0.757516,0.81617 1.686911,1.85701 2.065321,2.31297 l 0.688019,0.82902 1.697172,0.3111 c 0.933445,0.1711 2.253892,0.45741 2.934326,0.63624 0.680435,0.17882 1.276334,0.33074 1.324218,0.33759 0.04789,0.007 0.124363,-0.12672 0.16995,-0.29684 z m -9.299175,-1.75263 c -1.161545,-1.27551 -2.374744,-2.47431 -2.504036,-2.47431 -0.07907,0 -0.670829,0.54126 -1.315015,1.20279 -1.922973,1.97476 -2.090002,1.75264 1.317894,1.75264 h 2.939284 z"
       style="opacity:0.3;filter:url(#filter905)"
       id="path33"
       inkscape:connector-curvature="0"
       transform="matrix(1.0000783,0,0,1.0000783,-0.20321593,0.26158625)" />
    <path
       d="m 23.814351,282.55505 c -1.535191,-0.41553 -3.009537,-1.6755 -3.742214,-3.1981 -0.711958,-1.47954 -1.04334,-3.40727 -0.953611,-5.5474 0.04121,-0.98293 0.112814,-1.91193 0.159118,-2.06446 0.0728,-0.23979 -0.07755,-0.35016 -1.111099,-0.81565 -2.667511,-1.20139 -4.946825,-3.13904 -5.850137,-4.97321 -0.436217,-0.88574 -0.462148,-1.01993 -0.462148,-2.3915 0,-1.41133 0.01538,-1.48424 0.535001,-2.53634 0.915841,-1.85436 2.825614,-3.49528 5.592593,-4.80532 l 1.316062,-0.62308 -0.103143,-0.72449 c -0.343958,-2.41597 0.03449,-5.44856 0.896734,-7.18569 2.04287,-4.1157 6.604274,-4.36861 11.927087,-0.66131 0.580626,0.4044 1.089329,0.68083 1.130454,0.61429 0.04112,-0.0665 0.611429,-0.47808 1.267345,-0.91454 4.116679,-2.73929 7.786861,-3.06369 10.13841,-0.89611 1.275439,1.17566 2.009019,2.83721 2.289923,5.18666 0.145116,1.21374 0.09667,3.43552 -0.09254,4.24363 -0.05795,0.24747 0.145249,0.39277 1.488664,1.06459 2.777488,1.38898 4.519729,2.93852 5.500083,4.89178 0.429578,0.85588 0.454257,0.98485 0.449511,2.34906 -0.0045,1.28764 -0.04534,1.52509 -0.378599,2.19956 -0.540388,1.09372 -1.280514,2.01481 -2.315877,2.88211 -1.022273,0.85633 -2.841848,1.97526 -3.933891,2.41911 -0.400098,0.1626 -0.751029,0.32 -0.779848,0.34976 -0.02881,0.0298 -0.003,0.7311 0.0573,1.55852 0.341779,4.68701 -0.91017,7.82641 -3.655604,9.16679 -0.901998,0.44039 -1.022111,0.46294 -2.460487,0.46215 -1.219109,-7.8e-4 -1.698705,-0.0633 -2.474502,-0.32301 -1.521765,-0.50946 -3.240816,-1.44037 -4.831379,-2.61632 l -0.425876,-0.31487 -0.863136,0.63541 c -1.165811,0.85822 -2.91398,1.79619 -4.141305,2.22198 -1.083192,0.37579 -3.364085,0.5649 -4.172896,0.346 z m 2.703142,-2.00206 c 1.130386,-0.23959 2.690719,-0.94956 3.96319,-1.80328 0.52986,-0.3555 0.963382,-0.6561 0.963382,-0.66801 0,-0.0119 -0.534009,-0.57591 -1.186688,-1.25333 -0.927127,-0.96228 -2.145533,-2.37293 -2.896072,-3.35304 -0.02496,-0.0326 -0.338341,-0.1027 -0.696393,-0.15579 -1.328681,-0.19701 -3.023657,-0.5462 -4.225284,-0.87047 -0.680488,-0.18363 -1.26423,-0.30716 -1.297206,-0.27449 -0.03297,0.0326 -0.05853,0.97065 -0.05679,2.08443 0.0058,3.72268 0.984201,5.74549 3.047736,6.30112 0.845815,0.22775 1.282039,0.22644 2.38413,-0.007 z m 15.857657,-0.15495 c 1.112886,-0.5281 1.995808,-1.83837 2.343207,-3.47735 0.19444,-0.91734 0.267362,-3.9379 0.109315,-4.52801 -0.05956,-0.22241 -0.151364,-0.29109 -0.307435,-0.23003 -0.426168,0.16676 -3.391053,0.86401 -4.34668,1.02222 -0.529269,0.0876 -1.090199,0.18504 -1.24651,0.21647 -0.156311,0.0314 -0.692736,0.56918 -1.192053,1.19499 -0.499317,0.62581 -1.407622,1.63128 -2.018457,2.23439 -0.610835,0.60309 -1.110609,1.14565 -1.110609,1.20565 0,0.1765 1.863047,1.33026 2.985341,1.84879 1.851856,0.8556 3.654394,1.04886 4.783881,0.51288 z m -6.812378,-6.24481 0.386731,-0.48115 h -2.926428 c -2.560292,0 -2.912161,0.0258 -2.812411,0.20621 0.0627,0.11342 0.715073,0.81448 1.449699,1.55793 l 1.335682,1.35171 1.089998,-1.07677 c 0.599501,-0.59223 1.264028,-1.29329 1.476729,-1.55793 z m 1.7251,-2.55501 c 0.343098,-0.0651 0.586815,-0.33881 1.428909,-1.60495 1.052115,-1.58192 2.631847,-4.39933 3.234692,-5.76899 l 0.346412,-0.78705 -0.999235,-1.96239 c -1.156863,-2.27198 -3.188407,-5.54374 -3.623316,-5.83529 -0.607371,-0.40717 -8.494867,-0.45225 -9.241213,-0.0528 -0.507075,0.27138 -2.597988,3.63046 -3.95824,6.35896 l -0.754716,1.51387 0.375365,0.84462 c 0.753532,1.69552 2.058391,3.99153 3.463855,6.09494 l 0.752488,1.12617 0.706393,0.0762 c 0.388517,0.0419 0.891982,0.10252 1.118811,0.13465 0.553419,0.0784 6.626846,-0.0388 7.149795,-0.13796 z m -6.084973,-1.86531 c -0.09419,-0.0942 -0.171252,-0.49913 -0.171252,-0.89986 v -0.72861 h -2.062085 v -0.49018 c 0,-0.73878 0.206803,-1.022 0.746226,-1.022 0.294109,0 0.491887,-0.0789 0.545053,-0.21746 0.164472,-0.4286 0.09255,-4.9424 -0.08153,-5.11647 -0.09073,-0.0907 -0.394889,-0.16497 -0.675906,-0.16497 -0.578233,0 -0.628846,-0.0758 -0.556604,-0.83331 l 0.05163,-0.54141 h 2.170679 v -1.78714 h 1.237251 v 0.82483 c 0,0.78369 0.0168,0.82484 0.336821,0.82484 0.313613,0 0.339661,-0.0545 0.378049,-0.79047 l 0.04123,-0.79047 h 1.237251 l 0.08079,1.67736 0.741677,0.16598 c 0.407923,0.0913 0.901347,0.29157 1.096498,0.44507 0.817343,0.64292 1.000861,1.78871 0.422905,2.64039 l -0.338839,0.4993 0.405248,0.20957 c 0.551013,0.28494 0.859327,0.93599 0.851579,1.79824 -0.01044,1.16071 -0.563583,1.93112 -1.665755,2.31998 -0.328696,0.11597 -0.759973,0.2118 -0.958394,0.21295 -0.57559,0.004 -0.686247,0.15962 -0.731026,1.03225 l -0.04215,0.82153 h -1.099778 l -0.04093,-0.8592 c -0.03831,-0.80439 -0.06202,-0.85921 -0.371489,-0.85921 -0.309474,0 -0.333172,0.0548 -0.371489,0.85921 l -0.04093,0.8592 -0.481741,0.0406 c -0.26496,0.0224 -0.558807,-0.0364 -0.652994,-0.13059 z m 3.434318,-3.51086 c 0.555708,-0.23713 0.729422,-0.55609 0.594856,-1.09224 -0.117516,-0.46822 -0.820727,-0.73712 -1.927717,-0.73712 h -0.897985 v 2.22656 l 0.859202,-0.0893 c 0.472561,-0.0491 1.0898,-0.18766 1.371644,-0.30793 z m -0.311385,-3.40562 c 0.538884,-0.48769 0.27807,-1.22192 -0.511988,-1.44134 -0.282647,-0.0785 -0.714957,-0.14307 -0.960688,-0.14349 l -0.446785,-7.8e-4 v 1.95766 l 0.819683,-0.0593 c 0.537826,-0.0389 0.915995,-0.14646 1.099778,-0.31278 z m -8.90524,7.93436 c -0.382335,-0.53861 -1.049997,-1.66771 -1.971301,-3.33371 -0.439033,-0.79389 -0.799415,-1.39636 -0.800848,-1.3388 -0.0014,0.0576 -0.212055,0.79991 -0.468048,1.64967 -0.255993,0.84975 -0.507516,1.74223 -0.558942,1.98328 l -0.0935,0.43827 0.93699,0.2788 c 0.98612,0.29342 2.551256,0.65274 2.974067,0.68278 0.236566,0.0168 0.235581,-0.002 -0.01841,-0.36029 z m 16.196425,0.16497 c 0.567072,-0.11706 1.45365,-0.33765 1.970175,-0.49019 0.747161,-0.22066 0.921843,-0.32241 0.854545,-0.49778 -0.04652,-0.12124 -0.146852,-0.50376 -0.222952,-0.85005 -0.189563,-0.8626 -0.854211,-2.89805 -0.946069,-2.89729 -0.04112,3.1e-4 -0.340544,0.52101 -0.665384,1.15704 -0.324839,0.63603 -0.822209,1.5173 -1.105268,1.95837 -0.932578,1.45315 -1.146109,1.83298 -1.030407,1.83286 0.06287,-6e-5 0.578286,-0.0959 1.14536,-0.21296 z m 6.598367,-2.36108 c 1.872425,-1.0424 3.120247,-2.19424 3.739992,-3.45231 0.437522,-0.88814 0.42859,-2.31243 -0.01991,-3.17805 -0.647907,-1.25044 -2.459243,-2.81717 -4.338392,-3.75254 -1.239948,-0.6172 -1.261728,-0.61518 -1.422416,0.13248 -0.134921,0.62775 -0.98587,3.25797 -1.481387,4.57885 l -0.233051,0.62123 0.692918,1.99074 c 0.381104,1.09491 0.800828,2.43683 0.932714,2.98204 l 0.239796,0.9913 0.497937,-0.20805 c 0.273866,-0.11443 0.900182,-0.43199 1.391811,-0.70569 z m -28.319795,0.0653 c 0.195082,-0.85803 0.993666,-3.31785 1.402975,-4.32149 l 0.29071,-0.71283 -0.44156,-1.16993 c -0.597166,-1.58221 -1.052633,-3.01659 -1.260213,-3.96871 -0.09479,-0.43476 -0.239818,-0.78928 -0.322299,-0.78783 -0.298923,0.005 -2.69937,1.36076 -3.497916,1.97522 -2.081147,1.60142 -2.850865,3.73028 -1.99831,5.52691 0.30015,0.63252 1.397917,1.83419 2.240905,2.453 0.824264,0.60506 2.892808,1.72202 3.194749,1.72508 0.161808,0.002 0.27392,-0.20466 0.390959,-0.71942 z m 3.317353,-8.52329 c 0.507581,-1.00582 1.994316,-3.5009 2.29413,-3.85007 0.301844,-0.35154 0.172467,-0.38755 -0.667531,-0.18583 -0.412636,0.0991 -1.233225,0.2934 -1.823531,0.43179 -1.500445,0.35174 -1.511581,0.3639 -1.255358,1.37018 0.278293,1.09296 0.904321,3.09313 0.96811,3.09313 0.02782,0 0.245705,-0.38664 0.48418,-0.8592 z M 43.885179,259.148 c 0.671533,-2.31143 0.682965,-2.17497 -0.206078,-2.46004 -0.415853,-0.13334 -1.220066,-0.33684 -1.78714,-0.45221 -0.567073,-0.11538 -1.139302,-0.25162 -1.271619,-0.30277 -0.132318,-0.0511 -0.240577,-0.0687 -0.240577,-0.039 0,0.0297 0.479434,0.85979 1.06541,1.84463 0.585977,0.98485 1.220068,2.10532 1.409093,2.48994 0.189023,0.38461 0.39632,0.64987 0.460658,0.58945 0.06433,-0.0604 0.320953,-0.81191 0.570253,-1.67001 z m -21.008307,-4.64226 c 0.893663,-0.22075 2.259618,-0.51002 3.035456,-0.64282 l 1.410614,-0.24146 0.809636,-0.97247 c 1.02062,-1.2259 1.213398,-1.43931 2.387199,-2.6427 l 0.95869,-0.98286 -0.670196,-0.49903 c -0.895425,-0.66675 -3.24102,-1.79994 -4.155731,-2.00769 -0.93156,-0.2116 -2.563554,-0.11094 -3.151808,0.19438 -1.735009,0.90054 -2.695545,3.68201 -2.424614,7.02109 0.05243,0.64621 0.113463,1.17492 0.135623,1.17492 0.02216,0 0.771469,-0.1806 1.665131,-0.40136 z m 21.952833,0.092 c 0.155989,-0.58206 0.08208,-3.47019 -0.112268,-4.38717 -0.921756,-4.34898 -4.443427,-5.06044 -9.217939,-1.86224 -0.453659,0.30388 -0.8478,0.57105 -0.875868,0.59372 -0.02807,0.0227 0.568799,0.70904 1.326374,1.52528 0.757576,0.81624 1.687043,1.85716 2.065483,2.31316 l 0.688073,0.82908 1.697305,0.31112 c 0.933518,0.17112 2.254068,0.45745 2.934555,0.63629 0.680488,0.17884 1.276434,0.33077 1.324322,0.33762 0.04789,0.007 0.124373,-0.12673 0.169963,-0.29686 z m -9.299903,-1.75277 c -1.161636,-1.27561 -2.37493,-2.4745 -2.504232,-2.4745 -0.07908,0 -0.670881,0.5413 -1.315118,1.20288 -1.923123,1.97492 -2.090165,1.75278 1.317998,1.75278 h 2.939514 z"
       style="fill:#eeeeee;stroke-width:1.0000782"
       id="path35"
       inkscape:connector-curvature="0" />
  </g>
</svg>
