<svg xmlns="http://www.w3.org/2000/svg" xmlns:xlink="http://www.w3.org/1999/xlink" width="256" height="256" version="1.1" viewBox="0 0 67.73 67.73">
 <defs>
  <linearGradient id="linearGradient1664">
   <stop style="stop-color:#ffffff" offset="0"/>
   <stop offset=".176" style="stop-color:#ffffff"/>
   <stop style="stop-color:#85dca8" offset=".176"/>
   <stop offset=".296" style="stop-color:#8acaa4"/>
   <stop style="stop-color:#ffffff" offset=".296"/>
   <stop offset=".424" style="stop-color:#ffffff"/>
   <stop style="stop-color:#85dca8" offset=".424"/>
   <stop offset=".544" style="stop-color:#87d8a8"/>
   <stop style="stop-color:#ecf6f0" offset=".544"/>
   <stop offset=".64" style="stop-color:#ecf6f0"/>
   <stop style="stop-color:#5ac083" offset=".64"/>
   <stop style="stop-color:#4cb28a" offset=".711"/>
   <stop offset=".856" style="stop-color:#41a692"/>
   <stop style="stop-color:#2d919f" offset="1"/>
  </linearGradient>
  <linearGradient id="linearGradient1654">
   <stop style="stop-color:#ffffff" offset="0"/>
   <stop style="stop-color:#ffffff;stop-opacity:0" offset="1"/>
  </linearGradient>
  <linearGradient id="linearGradient1013">
   <stop offset="0" style="stop-color:#ffffff"/>
   <stop style="stop-color:#ffffff;stop-opacity:0.09803922" offset=".125"/>
   <stop style="stop-color:#000000;stop-opacity:0.09803922" offset=".925"/>
   <stop offset="1" style="stop-color:#000000;stop-opacity:0.49803922"/>
  </linearGradient>
  <clipPath id="clipPath1082-3-5" clipPathUnits="userSpaceOnUse">
   <path d="M 361.9375,-212 C 507.2348,-212 528,-191.28677 528,-46.125 V 70.125 C 528,215.28618 507.2348,236 361.9375,236 H 214.0625 C 68.7652,236 48,215.28618 48,70.125 V -46.125 C 48,-191.28677 68.7652,-212 214.0625,-212 Z" style="fill:#8c59d9"/>
  </clipPath>
  <filter style="color-interpolation-filters:sRGB" id="filter4569-2" width="1.023" height="1.025" x="-.01" y="-.01">
   <feGaussianBlur stdDeviation="1.16"/>
  </filter>
  <filter style="color-interpolation-filters:sRGB" id="filter913" width="1.046" height="1.05" x="-.02" y="-.03">
   <feGaussianBlur stdDeviation="2.32"/>
  </filter>
  <linearGradient id="linearGradient906" x1="296" x2="296" y1="-212" y2="236" gradientUnits="userSpaceOnUse" xlink:href="#linearGradient1013"/>
  <linearGradient id="linearGradient1656" x1="138.056" x2="139.031" y1="110.682" y2="239.19" gradientUnits="userSpaceOnUse" xlink:href="#linearGradient1654"/>
  <linearGradient id="linearGradient1666" x1="34.396" x2="34.396" y1="242.76" y2="275.833" gradientTransform="matrix(3.7795275,0,0,3.7795275,0,-866.51966)" gradientUnits="userSpaceOnUse" xlink:href="#linearGradient1664"/>
  <clipPath id="clipPath5239-3" clipPathUnits="userSpaceOnUse">
   <circle style="fill:#389ef3" cx="343.267" cy="781.665" r="42.143"/>
  </clipPath>
  <clipPath id="clipPath5262-7" clipPathUnits="userSpaceOnUse">
   <rect width="315.714" height="87.143" x="105.71" y="733.79" rx="41.416" ry="43.571"/>
  </clipPath>
  <clipPath id="clipPath5256-3" clipPathUnits="userSpaceOnUse">
   <rect width="315.714" height="87.143" x="105.71" y="733.79" rx="41.416" ry="43.571"/>
  </clipPath>
 </defs>
 <g transform="translate(0,-229.26666)">
  <path style="opacity:0.2;filter:url(#filter913)" d="m 188.96876,45.999995 c 72.64865,0 83.03125,10.356615 83.03125,82.937505 v 58.125 c 0,72.58059 -10.3826,82.9375 -83.03125,82.9375 h -73.9375 C 42.382606,270 32.000006,259.64309 32.000006,187.0625 v -58.125 c 0,-72.58089 10.3826,-82.937505 83.031254,-82.937505 z" transform="matrix(0.26970778,0,0,0.26970778,-7.1289177,220.56049)"/>
  <path d="m 188.96876,43.999995 c 72.64865,0 83.03125,10.356615 83.03125,82.937505 v 58.125 c 0,72.58059 -10.3826,82.9375 -83.03125,82.9375 h -73.9375 C 42.382606,268 32.000006,257.64309 32.000006,185.0625 v -58.125 c 0,-72.58089 10.3826,-82.937505 83.031254,-82.937505 z" transform="matrix(0.26970778,0,0,0.26970778,-7.1289177,220.56049)" style="opacity:0.1;filter:url(#filter4569-2)"/>
  <path style="fill:#4d4d4d" d="m 23.895905,232.42763 c -9.797337,0 -15.3941297,0.69699 -18.5445167,3.84334 -3.150381,3.14634 -3.849657,8.73736 -3.849657,18.52555 v 15.67677 c 0,9.78815 0.699276,15.3792 3.849657,18.52555 3.150387,3.14636 8.7471787,3.84333 18.5445167,3.84333 h 19.94152 c 9.797339,0 15.394134,-0.69697 18.544517,-3.84333 3.150384,-3.14635 3.849659,-8.7374 3.849659,-18.52555 v -15.67677 c 0,-9.78819 -0.699275,-15.37921 -3.849659,-18.52555 -3.150383,-3.14635 -8.74718,-3.84334 -18.544517,-3.84334 z"/>
  <path style="opacity:0.2;fill:#131313" d="m 1.5017313,269.93387 v 0.53942 c 0,9.78815 0.699276,15.3792 3.849657,18.52555 3.150387,3.14636 8.7471787,3.84333 18.5445167,3.84333 h 19.94152 c 9.797339,0 15.394134,-0.69697 18.544517,-3.84333 3.150384,-3.14635 3.849659,-8.7374 3.849659,-18.52555 v -0.53942 c 0,9.78815 -0.699275,15.3792 -3.849659,18.52555 -3.150383,3.14636 -8.747178,3.84334 -18.544517,3.84334 h -19.94152 c -9.797338,0 -15.3941297,-0.69698 -18.5445167,-3.84334 -3.150381,-3.14635 -3.849657,-8.7374 -3.849657,-18.52555 z"/>
  <path d="M 361.9375,-212 C 507.2348,-212 528,-191.28677 528,-46.125 V 70.125 C 528,215.28618 507.2348,236 361.9375,236 H 214.0625 C 68.7652,236 48,215.28618 48,70.125 V -46.125 C 48,-191.28677 68.7652,-212 214.0625,-212 Z" clip-path="url(#clipPath1082-3-5)" transform="matrix(0.13485389,0,0,0.13485389,-4.9712557,261.01666)" style="opacity:0.4;fill:none;stroke:url(#linearGradient906);stroke-width:8;stroke-linecap:round;stroke-linejoin:round"/>
  <path style="opacity:0.5;fill:url(#linearGradient1656)" d="m 32.072266,233.44531 c 1.831227,0.77799 3.7147,1.51698 5.798828,2.13672 2.471748,0.735 5.12718,1.36414 7.978515,1.90039 2.851336,0.53626 5.899429,0.97842 9.15625,1.3418 3.256821,0.36338 6.721953,0.6469 10.410157,0.86328 7.376408,0.43277 15.64111,0.59766 24.898437,0.59766 h 75.371097 c 9.25733,0 17.52202,-0.16489 24.89843,-0.59766 3.68821,-0.21638 7.15334,-0.4999 10.41016,-0.86328 3.25682,-0.36338 6.30491,-0.80554 9.15625,-1.3418 2.85134,-0.53625 5.50677,-1.16539 7.97852,-1.90039 2.47174,-0.735 4.75889,-1.57554 6.87695,-2.53515 0.34304,-0.15543 0.61506,-0.36369 0.94922,-0.5254 l -19.98242,-34.85546 -154.210941,0.28906 z" transform="matrix(0.26458333,0,0,0.26458333,0,229.26666)"/>
  <path style="opacity:0.8;fill:url(#linearGradient1666)" d="m 37.214844,51.251953 c -5.54,0 -10,4.46 -10,10 V 165.14062 c 0,5.54 4.46,10 10,10 H 218.78516 c 5.54,0 10,-4.46 10,-10 V 61.251953 c 0,-5.54 -4.46,-10 -10,-10 z" transform="matrix(0.26458333,0,0,0.26458333,0,229.26666)"/>
  <circle style="fill:#2c2c2c;fill-opacity:0.51832461" cx="7.283" cy="239.109" r="1.493"/>
  <circle cx="59.794" cy="239.109" r="1.493" style="fill:#2c2c2c;fill-opacity:0.51832461"/>
  <circle style="fill:#2c2c2c;fill-opacity:0.51832461" cx="59.794" cy="285.329" r="1.493"/>
  <circle cx="7.459" cy="285.329" r="1.493" style="fill:#2c2c2c;fill-opacity:0.51832461"/>
  <circle cx="43.285" cy="284.275" r="1.493" style="fill:#253033;fill-opacity:0.89528791"/>
  <ellipse style="fill:#253033;fill-opacity:0.89528791" cx="50.31" cy="286.031" rx="1.142" ry="1.317"/>
  <circle style="fill:#253033;fill-opacity:0.89528791" cx="-23.089" cy="284.275" r="1.493" transform="scale(-1,1)"/>
  <ellipse cx="-16.064" cy="286.031" rx="1.142" ry="1.317" transform="scale(-1,1)" style="fill:#253033;fill-opacity:0.89528791"/>
  <g transform="translate(-2.7971105,-5.3720254)">
   <g transform="matrix(0.51548618,0,0,0.51548618,54.106295,125.31647)">
    <rect width="33.073" height="22.977" x="-50.4" y="256.49" style="fill:#d6d1ae"/>
    <rect width="83.533" height="23.057" x="-75.6" y="256.45" rx="10.958" ry="11.528" style="fill:#4d4d4d;fill-opacity:0.43979055"/>
    <circle cx="374.643" cy="777.005" r="95.357" clip-path="url(#clipPath5256-3)" transform="matrix(0.26458333,0,0,0.26458333,-103.57363,62.2991)" style="fill:#383846"/>
    <path style="fill:#ffffff;fill-rule:evenodd" d="m 343.26737,730.58657 a 51.078324,51.078324 0 0 0 -51.07889,51.07794 51.078324,51.078324 0 0 0 51.07889,51.07889 51.078324,51.078324 0 0 0 51.07795,-51.07889 51.078324,51.078324 0 0 0 -51.07795,-51.07794 z m -5.3311,21.05787 v 3.3655 c 0,2.06049 1.65882,3.71931 3.71931,3.71931 h 3.22359 c 2.06049,0 3.71931,-1.65882 3.71931,-3.71931 v -3.34536 a 30.498221,30.498221 0 0 1 12.12251,5.00702 l -2.37599,2.37598 c -1.45697,1.45699 -1.45698,3.80317 0,5.26016 l 2.28011,2.27914 c 1.45698,1.45698 3.8022,1.45698 5.25919,0 l 2.35969,-2.35969 a 30.498221,30.498221 0 0 1 5.04345,12.10621 h -3.3655 c -2.06049,0 -3.7193,1.65883 -3.7193,3.71932 v 3.2236 c 0,2.06049 1.65881,3.7193 3.7193,3.7193 h 3.34537 a 30.498221,30.498221 0 0 1 -5.00702,12.12347 l -2.37599,-2.37599 c -0.7285,-0.7285 -1.67839,-1.09307 -2.62912,-1.09307 -0.95072,0 -1.90158,0.36457 -2.63007,1.09307 l -2.28011,2.27915 c -1.45698,1.45698 -1.45697,3.80316 0,5.26016 l 2.35969,2.35967 a 30.498221,30.498221 0 0 1 -12.10621,5.04347 v -3.36646 c 0,-2.0605 -1.65882,-3.71933 -3.71931,-3.71933 h -3.22359 c -2.06049,0 -3.71931,1.65883 -3.71931,3.71933 v 3.34632 a 30.498221,30.498221 0 0 1 -12.12348,-5.00607 l 2.37696,-2.37693 c 1.45697,-1.457 1.45698,-3.80318 0,-5.26016 l -2.2801,-2.27915 c -0.7285,-0.7285 -1.67936,-1.09307 -2.63009,-1.09307 -0.95073,0 -1.90062,0.36457 -2.62912,1.09307 l -2.35968,2.35969 a 30.498221,30.498221 0 0 1 -5.04538,-12.10717 h 3.36742 c 2.06049,0 3.71931,-1.65882 3.71931,-3.71931 v -3.22359 c 0,-2.06049 -1.65882,-3.71932 -3.71931,-3.71932 h -3.34633 a 30.498221,30.498221 0 0 1 5.00703,-12.12347 l 2.37694,2.37695 c 1.45699,1.45698 3.80221,1.45699 5.25921,0 l 2.2801,-2.27914 c 1.45698,-1.45699 1.45697,-3.80318 0,-5.26016 l -2.36065,-2.36064 a 30.498221,30.498221 0 0 1 12.10717,-5.0425 z" clip-path="url(#clipPath5239-3)" transform="matrix(0.26458333,0,0,0.26458333,-94.880177,61.16517)"/>
    <circle style="fill:#383846" cx="153.214" cy="774.148" r="95.357" clip-path="url(#clipPath5262-7)" transform="matrix(0.26458333,0,0,0.26458333,-103.57363,62.2991)"/>
    <path d="m 343.26737,730.58657 a 51.078324,51.078324 0 0 0 -51.07889,51.07794 51.078324,51.078324 0 0 0 51.07889,51.07889 51.078324,51.078324 0 0 0 51.07795,-51.07889 51.078324,51.078324 0 0 0 -51.07795,-51.07794 z m -5.3311,21.05787 v 3.3655 c 0,2.06049 1.65882,3.71931 3.71931,3.71931 h 3.22359 c 2.06049,0 3.71931,-1.65882 3.71931,-3.71931 v -3.34536 a 30.498221,30.498221 0 0 1 12.12251,5.00702 l -2.37599,2.37598 c -1.45697,1.45699 -1.45698,3.80317 0,5.26016 l 2.28011,2.27914 c 1.45698,1.45698 3.8022,1.45698 5.25919,0 l 2.35969,-2.35969 a 30.498221,30.498221 0 0 1 5.04345,12.10621 h -3.3655 c -2.06049,0 -3.7193,1.65883 -3.7193,3.71932 v 3.2236 c 0,2.06049 1.65881,3.7193 3.7193,3.7193 h 3.34537 a 30.498221,30.498221 0 0 1 -5.00702,12.12347 l -2.37599,-2.37599 c -0.7285,-0.7285 -1.67839,-1.09307 -2.62912,-1.09307 -0.95072,0 -1.90158,0.36457 -2.63007,1.09307 l -2.28011,2.27915 c -1.45698,1.45698 -1.45697,3.80316 0,5.26016 l 2.35969,2.35967 a 30.498221,30.498221 0 0 1 -12.10621,5.04347 v -3.36646 c 0,-2.0605 -1.65882,-3.71933 -3.71931,-3.71933 h -3.22359 c -2.06049,0 -3.71931,1.65883 -3.71931,3.71933 v 3.34632 a 30.498221,30.498221 0 0 1 -12.12348,-5.00607 l 2.37696,-2.37693 c 1.45697,-1.457 1.45698,-3.80318 0,-5.26016 l -2.2801,-2.27915 c -0.7285,-0.7285 -1.67936,-1.09307 -2.63009,-1.09307 -0.95073,0 -1.90062,0.36457 -2.62912,1.09307 l -2.35968,2.35969 a 30.498221,30.498221 0 0 1 -5.04538,-12.10717 h 3.36742 c 2.06049,0 3.71931,-1.65882 3.71931,-3.71931 v -3.22359 c 0,-2.06049 -1.65882,-3.71932 -3.71931,-3.71932 h -3.34633 a 30.498221,30.498221 0 0 1 5.00703,-12.12347 l 2.37694,2.37695 c 1.45699,1.45698 3.80221,1.45699 5.25921,0 l 2.2801,-2.27914 c 1.45698,-1.45699 1.45697,-3.80318 0,-5.26016 l -2.36065,-2.36064 a 30.498221,30.498221 0 0 1 12.10717,-5.0425 z" clip-path="url(#clipPath5239-3)" transform="matrix(0.26458333,0,0,0.26458333,-154.21401,61.16517)" style="fill:#ffffff;fill-rule:evenodd"/>
   </g>
  </g>
 </g>
</svg>
