<svg width="256" height="256" version="1.1" viewBox="0 0 67.73 67.73" xmlns="http://www.w3.org/2000/svg" xmlns:xlink="http://www.w3.org/1999/xlink">
 <defs>
  <clipPath id="clipPath1082-3-5">
   <path d="M 361.9375,-212 C 507.2348,-212 528,-191.28677 528,-46.125 V 70.125 C 528,215.28618 507.2348,236 361.9375,236 H 214.0625 C 68.7652,236 48,215.28618 48,70.125 V -46.125 C 48,-191.28677 68.7652,-212 214.0625,-212 Z" style="fill:#8c59d9"/>
  </clipPath>
  <filter id="filter4569-2" x="-.01" y="-.01" width="1.023" height="1.025" style="color-interpolation-filters:sRGB">
   <feGaussianBlur stdDeviation="1.16"/>
  </filter>
  <filter id="filter913" x="-.02" y="-.03" width="1.046" height="1.05" style="color-interpolation-filters:sRGB">
   <feGaussianBlur stdDeviation="2.32"/>
  </filter>
  <linearGradient id="linearGradient906" x1="296" x2="296" y1="-212" y2="236" gradientUnits="userSpaceOnUse">
   <stop style="stop-color:#ffffff" offset="0"/>
   <stop style="stop-color:#ffffff;stop-opacity:.09803922" offset=".125"/>
   <stop style="stop-color:#000000;stop-opacity:.09803922" offset=".925"/>
   <stop style="stop-color:#000000;stop-opacity:.49803922" offset="1"/>
  </linearGradient>
  <linearGradient id="linearGradient1656" x1="138.056" x2="139.031" y1="110.682" y2="239.19" gradientUnits="userSpaceOnUse">
   <stop style="stop-color:#ffffff" offset="0"/>
   <stop style="stop-color:#ffffff;stop-opacity:0" offset="1"/>
  </linearGradient>
  <linearGradient id="linearGradient1666" x1="34.396" x2="34.396" y1="242.76" y2="275.833" gradientTransform="matrix(3.7795275,0,0,3.7795275,0,-866.51966)" gradientUnits="userSpaceOnUse">
   <stop style="stop-color:#ffffff" offset="0"/>
   <stop style="stop-color:#ffffff" offset=".176"/>
   <stop style="stop-color:#85dca8" offset=".176"/>
   <stop style="stop-color:#8acaa4" offset=".296"/>
   <stop style="stop-color:#ffffff" offset=".296"/>
   <stop style="stop-color:#ffffff" offset=".424"/>
   <stop style="stop-color:#85dca8" offset=".424"/>
   <stop style="stop-color:#87d8a8" offset=".544"/>
   <stop style="stop-color:#ecf6f0" offset=".544"/>
   <stop style="stop-color:#ecf6f0" offset=".64"/>
   <stop style="stop-color:#5ac083" offset=".64"/>
   <stop style="stop-color:#4cb28a" offset=".711"/>
   <stop style="stop-color:#41a692" offset=".856"/>
   <stop style="stop-color:#2d919f" offset="1"/>
  </linearGradient>
  <clipPath id="clipPath5239-3">
   <circle cx="343.267" cy="781.665" r="42.143" style="fill:#389ef3"/>
  </clipPath>
  <clipPath id="clipPath5262-7">
   <rect x="105.71" y="733.79" width="315.714" height="87.143" rx="41.416" ry="43.571"/>
  </clipPath>
  <clipPath id="clipPath5256-3">
   <rect x="105.71" y="733.79" width="315.714" height="87.143" rx="41.416" ry="43.571"/>
  </clipPath>
 </defs>
 <g transform="translate(0,-229.26666)">
  <path transform="matrix(.26970778 0 0 .26970778 -7.1289177 220.56049)" d="m188.96876 45.999995c72.64865 0 83.03125 10.356615 83.03125 82.937505v58.125c0 72.58059-10.3826 82.9375-83.03125 82.9375h-73.9375c-72.648654 0-83.031254-10.35691-83.031254-82.9375v-58.125c0-72.58089 10.3826-82.937505 83.031254-82.937505z" style="filter:url(#filter913);opacity:.2"/>
  <path transform="matrix(.26970778 0 0 .26970778 -7.1289177 220.56049)" d="m188.96876 43.999995c72.64865 0 83.03125 10.356615 83.03125 82.937505v58.125c0 72.58059-10.3826 82.9375-83.03125 82.9375h-73.9375c-72.648654 0-83.031254-10.35691-83.031254-82.9375v-58.125c0-72.58089 10.3826-82.937505 83.031254-82.937505z" style="filter:url(#filter4569-2);opacity:.1"/>
  <path d="m23.895905 232.42763c-9.797337 0-15.39413 0.69699-18.544517 3.84334-3.150381 3.14634-3.849657 8.73736-3.849657 18.52555v15.67677c0 9.78815 0.699276 15.3792 3.849657 18.52555 3.150387 3.14636 8.7471787 3.84333 18.544517 3.84333h19.94152c9.797339 0 15.394134-0.69697 18.544517-3.84333 3.150384-3.14635 3.849659-8.7374 3.849659-18.52555v-15.67677c0-9.78819-0.699275-15.37921-3.849659-18.52555-3.150383-3.14635-8.74718-3.84334-18.544517-3.84334z" style="fill:#4d4d4d"/>
  <path d="m1.5017313 269.93387v0.53942c0 9.78815 0.699276 15.3792 3.849657 18.52555 3.150387 3.14636 8.7471787 3.84333 18.544517 3.84333h19.94152c9.797339 0 15.394134-0.69697 18.544517-3.84333 3.150384-3.14635 3.849659-8.7374 3.849659-18.52555v-0.53942c0 9.78815-0.699275 15.3792-3.849659 18.52555-3.150383 3.14636-8.747178 3.84334-18.544517 3.84334h-19.94152c-9.797338 0-15.39413-0.69698-18.544517-3.84334-3.150381-3.14635-3.849657-8.7374-3.849657-18.52555z" style="fill:#131313;opacity:.2"/>
  <path transform="matrix(.13485389 0 0 .13485389 -4.9712557 261.01666)" d="M 361.9375,-212 C 507.2348,-212 528,-191.28677 528,-46.125 V 70.125 C 528,215.28618 507.2348,236 361.9375,236 H 214.0625 C 68.7652,236 48,215.28618 48,70.125 V -46.125 C 48,-191.28677 68.7652,-212 214.0625,-212 Z" clip-path="url(#clipPath1082-3-5)" style="fill:none;opacity:.4;stroke-linecap:round;stroke-linejoin:round;stroke-width:8;stroke:url(#linearGradient906)"/>
  <path transform="matrix(.26458333 0 0 .26458333 0 229.26666)" d="m32.072266 233.44531c1.831227 0.77799 3.7147 1.51698 5.798828 2.13672 2.471748 0.735 5.12718 1.36414 7.978515 1.90039 2.851336 0.53626 5.899429 0.97842 9.15625 1.3418s6.721953 0.6469 10.410157 0.86328c7.376408 0.43277 15.64111 0.59766 24.898437 0.59766h75.371097c9.25733 0 17.52202-0.16489 24.89843-0.59766 3.68821-0.21638 7.15334-0.4999 10.41016-0.86328s6.30491-0.80554 9.15625-1.3418c2.85134-0.53625 5.50677-1.16539 7.97852-1.90039 2.47174-0.735 4.75889-1.57554 6.87695-2.53515 0.34304-0.15543 0.61506-0.36369 0.94922-0.5254l-19.98242-34.85546-154.21094 0.28906z" style="fill:url(#linearGradient1656);opacity:.5"/>
  <path transform="matrix(.26458333 0 0 .26458333 0 229.26666)" d="m37.214844 51.251953c-5.54 0-10 4.46-10 10v103.88867c0 5.54 4.46 10 10 10h181.57032c5.54 0 10-4.46 10-10v-103.88867c0-5.54-4.46-10-10-10z" style="fill:url(#linearGradient1666);opacity:.8"/>
  <circle cx="7.283" cy="239.109" r="1.493" style="fill-opacity:.51832461;fill:#2c2c2c"/>
  <circle cx="59.794" cy="239.109" r="1.493" style="fill-opacity:.51832461;fill:#2c2c2c"/>
  <circle cx="59.794" cy="285.329" r="1.493" style="fill-opacity:.51832461;fill:#2c2c2c"/>
  <circle cx="7.459" cy="285.329" r="1.493" style="fill-opacity:.51832461;fill:#2c2c2c"/>
  <circle cx="43.285" cy="284.275" r="1.493" style="fill-opacity:.89528791;fill:#253033"/>
  <ellipse cx="50.31" cy="286.031" rx="1.142" ry="1.317" style="fill-opacity:.89528791;fill:#253033"/>
  <circle transform="scale(-1,1)" cx="-23.089" cy="284.275" r="1.493" style="fill-opacity:.89528791;fill:#253033"/>
  <ellipse transform="scale(-1,1)" cx="-16.064" cy="286.031" rx="1.142" ry="1.317" style="fill-opacity:.89528791;fill:#253033"/>
  <g transform="translate(-2.7971105,-5.3720254)">
   <g transform="matrix(.51548618 0 0 .51548618 54.106295 125.31647)">
    <rect x="-50.4" y="256.49" width="33.073" height="22.977" style="fill:#d6d1ae"/>
    <rect x="-75.6" y="256.45" width="83.533" height="23.057" rx="10.958" ry="11.528" style="fill-opacity:.43979055;fill:#4d4d4d"/>
    <circle transform="matrix(.26458333 0 0 .26458333 -103.57363 62.2991)" cx="374.643" cy="777.005" r="95.357" clip-path="url(#clipPath5256-3)" style="fill:#383846"/>
    <path transform="matrix(.26458333 0 0 .26458333 -94.880177 61.16517)" d="m343.26737 730.58657a51.078324 51.078324 0 0 0-51.07889 51.07794 51.078324 51.078324 0 0 0 51.07889 51.07889 51.078324 51.078324 0 0 0 51.07795-51.07889 51.078324 51.078324 0 0 0-51.07795-51.07794zm-5.3311 21.05787v3.3655c0 2.06049 1.65882 3.71931 3.71931 3.71931h3.22359c2.06049 0 3.71931-1.65882 3.71931-3.71931v-3.34536a30.498221 30.498221 0 0 1 12.12251 5.00702l-2.37599 2.37598c-1.45697 1.45699-1.45698 3.80317 0 5.26016l2.28011 2.27914c1.45698 1.45698 3.8022 1.45698 5.25919 0l2.35969-2.35969a30.498221 30.498221 0 0 1 5.04345 12.10621h-3.3655c-2.06049 0-3.7193 1.65883-3.7193 3.71932v3.2236c0 2.06049 1.65881 3.7193 3.7193 3.7193h3.34537a30.498221 30.498221 0 0 1-5.00702 12.12347l-2.37599-2.37599c-0.7285-0.7285-1.67839-1.09307-2.62912-1.09307-0.95072 0-1.90158 0.36457-2.63007 1.09307l-2.28011 2.27915c-1.45698 1.45698-1.45697 3.80316 0 5.26016l2.35969 2.35967a30.498221 30.498221 0 0 1-12.10621 5.04347v-3.36646c0-2.0605-1.65882-3.71933-3.71931-3.71933h-3.22359c-2.06049 0-3.71931 1.65883-3.71931 3.71933v3.34632a30.498221 30.498221 0 0 1-12.12348-5.00607l2.37696-2.37693c1.45697-1.457 1.45698-3.80318 0-5.26016l-2.2801-2.27915c-0.7285-0.7285-1.67936-1.09307-2.63009-1.09307s-1.90062 0.36457-2.62912 1.09307l-2.35968 2.35969a30.498221 30.498221 0 0 1-5.04538-12.10717h3.36742c2.06049 0 3.71931-1.65882 3.71931-3.71931v-3.22359c0-2.06049-1.65882-3.71932-3.71931-3.71932h-3.34633a30.498221 30.498221 0 0 1 5.00703-12.12347l2.37694 2.37695c1.45699 1.45698 3.80221 1.45699 5.25921 0l2.2801-2.27914c1.45698-1.45699 1.45697-3.80318 0-5.26016l-2.36065-2.36064a30.498221 30.498221 0 0 1 12.10717-5.0425z" clip-path="url(#clipPath5239-3)" style="fill-rule:evenodd;fill:#ffffff"/>
    <circle transform="matrix(.26458333 0 0 .26458333 -103.57363 62.2991)" cx="153.214" cy="774.148" r="95.357" clip-path="url(#clipPath5262-7)" style="fill:#383846"/>
    <path transform="matrix(.26458333 0 0 .26458333 -154.21401 61.16517)" d="m343.26737 730.58657a51.078324 51.078324 0 0 0-51.07889 51.07794 51.078324 51.078324 0 0 0 51.07889 51.07889 51.078324 51.078324 0 0 0 51.07795-51.07889 51.078324 51.078324 0 0 0-51.07795-51.07794zm-5.3311 21.05787v3.3655c0 2.06049 1.65882 3.71931 3.71931 3.71931h3.22359c2.06049 0 3.71931-1.65882 3.71931-3.71931v-3.34536a30.498221 30.498221 0 0 1 12.12251 5.00702l-2.37599 2.37598c-1.45697 1.45699-1.45698 3.80317 0 5.26016l2.28011 2.27914c1.45698 1.45698 3.8022 1.45698 5.25919 0l2.35969-2.35969a30.498221 30.498221 0 0 1 5.04345 12.10621h-3.3655c-2.06049 0-3.7193 1.65883-3.7193 3.71932v3.2236c0 2.06049 1.65881 3.7193 3.7193 3.7193h3.34537a30.498221 30.498221 0 0 1-5.00702 12.12347l-2.37599-2.37599c-0.7285-0.7285-1.67839-1.09307-2.62912-1.09307-0.95072 0-1.90158 0.36457-2.63007 1.09307l-2.28011 2.27915c-1.45698 1.45698-1.45697 3.80316 0 5.26016l2.35969 2.35967a30.498221 30.498221 0 0 1-12.10621 5.04347v-3.36646c0-2.0605-1.65882-3.71933-3.71931-3.71933h-3.22359c-2.06049 0-3.71931 1.65883-3.71931 3.71933v3.34632a30.498221 30.498221 0 0 1-12.12348-5.00607l2.37696-2.37693c1.45697-1.457 1.45698-3.80318 0-5.26016l-2.2801-2.27915c-0.7285-0.7285-1.67936-1.09307-2.63009-1.09307s-1.90062 0.36457-2.62912 1.09307l-2.35968 2.35969a30.498221 30.498221 0 0 1-5.04538-12.10717h3.36742c2.06049 0 3.71931-1.65882 3.71931-3.71931v-3.22359c0-2.06049-1.65882-3.71932-3.71931-3.71932h-3.34633a30.498221 30.498221 0 0 1 5.00703-12.12347l2.37694 2.37695c1.45699 1.45698 3.80221 1.45699 5.25921 0l2.2801-2.27914c1.45698-1.45699 1.45697-3.80318 0-5.26016l-2.36065-2.36064a30.498221 30.498221 0 0 1 12.10717-5.0425z" clip-path="url(#clipPath5239-3)" style="fill-rule:evenodd;fill:#ffffff"/>
   </g>
  </g>
 </g>
</svg>
