<svg width="256" height="256" version="1.1" viewBox="0 0 67.73 67.73" xmlns="http://www.w3.org/2000/svg" xmlns:xlink="http://www.w3.org/1999/xlink">
 <defs>
  <linearGradient id="linearGradient1108" x1="296" x2="296" y1="-212" y2="236" gradientUnits="userSpaceOnUse">
   <stop style="stop-color:#ffffff" offset="0"/>
   <stop style="stop-color:#ffffff;stop-opacity:.09803922" offset=".125"/>
   <stop style="stop-color:#000000;stop-opacity:.09803922" offset=".925"/>
   <stop style="stop-color:#000000;stop-opacity:.49803922" offset="1"/>
  </linearGradient>
  <clipPath id="clipPath1082-3-7-2">
   <path d="M 361.9375,-212 C 507.2348,-212 528,-191.28677 528,-46.125 V 70.125 C 528,215.28618 507.2348,236 361.9375,236 H 214.0625 C 68.7652,236 48,215.28618 48,70.125 V -46.125 C 48,-191.28677 68.7652,-212 214.0625,-212 Z" style="fill:#8c59d9"/>
  </clipPath>
  <filter id="filter907" x="-.02" y="-.03" width="1.046" height="1.05" style="color-interpolation-filters:sRGB">
   <feGaussianBlur stdDeviation="2.32"/>
  </filter>
  <filter id="filter4569" x="-.01" y="-.01" width="1.023" height="1.025" style="color-interpolation-filters:sRGB">
   <feGaussianBlur stdDeviation="1.16"/>
  </filter>
  <filter id="filter982" x="-.05" y="-.05" width="1.099" height="1.093" style="color-interpolation-filters:sRGB">
   <feGaussianBlur stdDeviation=".75"/>
  </filter>
 </defs>
 <g transform="translate(0,-229.26666)">
  <path transform="matrix(.26970778 0 0 .26970778 -7.1289177 220.56049)" d="m188.96876 43.999995c72.64865 0 83.03125 10.356615 83.03125 82.937505v58.125c0 72.58059-10.3826 82.9375-83.03125 82.9375h-73.9375c-72.648654 0-83.031254-10.35691-83.031254-82.9375v-58.125c0-72.58089 10.3826-82.937505 83.031254-82.937505z" style="filter:url(#filter4569);opacity:.1"/>
  <path transform="matrix(.26970778 0 0 .26970778 -7.1289177 220.56049)" d="m188.96876 45.999995c72.64865 0 83.03125 10.356615 83.03125 82.937505v58.125c0 72.58059-10.3826 82.9375-83.03125 82.9375h-73.9375c-72.648654 0-83.031254-10.35691-83.031254-82.9375v-58.125c0-72.58089 10.3826-82.937505 83.031254-82.937505z" style="filter:url(#filter907);opacity:.2"/>
  <path d="m43.837426 232.42763c19.593907 0 22.394175 2.79326 22.394175 22.36889v15.67677c0 19.57555-2.800268 22.36888-22.394175 22.36888h-19.94152c-19.593906 0-22.394174-2.79333-22.394174-22.36888v-15.67677c0-19.57563 2.8002681-22.36889 22.394174-22.36889z" style="fill-opacity:.99215686;fill:#7572b8"/>
  <path transform="matrix(.13485389 0 0 .13485389 -4.9712555 261.01666)" d="M 361.9375,-212 C 507.2348,-212 528,-191.28677 528,-46.125 V 70.125 C 528,215.28618 507.2348,236 361.9375,236 H 214.0625 C 68.7652,236 48,215.28618 48,70.125 V -46.125 C 48,-191.28677 68.7652,-212 214.0625,-212 Z" clip-path="url(#clipPath1082-3-7-2)" style="fill:none;opacity:.2;stroke-linecap:round;stroke-linejoin:round;stroke-width:8;stroke:url(#linearGradient1108)"/>
  <g transform="translate(.40259384 -.40155463)">
   <path d="m21.707948 279.66216s2.301935 1.08285 5.366106 1.46497c1.240902 0.15487 5.962297 0.69559 9.582327 0.68143 0 0 4.408862 4e-3 6.842525-0.34054 2.546504-0.36165 3.989026-0.82338 4.792019-1.74465 0.02109-0.21974 0.38755-0.93568-0.602324-1.62616-2.530627-1.76537-5.802038-2.24855-12.156501-3.75776-7.026808-1.76669-9.234456-3.4585-10.283736-4.68261-0.99462-1.22706 0.294502-3.77533 5.956609-5.02544 2.8668-0.69767 12.950709-1.0595 12.950709-1.0595-3.063315-2.43196-8.220906-6.55245-9.396332-7.47837-1.030959-0.81211-2.692386-2.05835-2.870876-3.17207-0.240904-1.08411 1.465558-1.60609 2.369086-1.66635 2.910993-0.20068 6.886287 0.56927 10.419645 1.27192 1.776118 0.35313 2.087942 0.30122 2.087942 0.30122 2.529558 0.12037 4.999801-1.63325 4.899397-4.42394-0.02028-2.83074-3.353046-5.10072-6.48544-5.19982-3.168812-0.0118-10.677674-0.0118-10.677674-0.0118 8.472328 1.74667 10.316186 2.62759 10.758124 3.64748 0.261744 0.60263-0.435499 1.20141-2.769617 1.08448-2.542216-0.12727-7.751072-0.74295-7.751072-0.74295-4.957853-0.76285-7.982748-1.48561-9.488766 0.48185-0.983718 1.28538 0.140562 2.85093 0.582223 3.77429 1.967478 3.43317 4.940666 5.7885 7.09951 7.44837 0.812331 0.62456 3.292435 2.00763 3.292435 2.00763-7.709237-2.10803-14.281475-0.92353-18.17632 1.1243-4.477084 2.65011-3.711202 7.12202 3.392835 11.30309 4.19605 2.46945 6.714046 3.65561 13.584034 4.49915 4.015627 0.64029 4.828716 0.90227 4.798252 1.23656-0.04305 0.47057-4.967732 0.64888-6.262228 0.73819-3.293506 0.22704-11.811315-0.13095-11.853795-0.13095z" style="fill:#382929;filter:url(#filter982);opacity:.4"/>
   <path d="m21.707948 279.66216s2.301935 1.08285 5.366106 1.46497c1.240902 0.15487 5.962297 0.69559 9.582327 0.68143 0 0 4.408862 4e-3 6.842525-0.34054 2.546504-0.36165 3.989026-0.82338 4.792019-1.74465 0.02109-0.21974 0.38755-0.93568-0.602324-1.62616-2.530627-1.76537-5.802038-2.24855-12.156501-3.75776-7.026808-1.76669-9.234456-3.4585-10.283736-4.68261-0.99462-1.22706 0.294502-3.77533 5.956609-5.02544 2.8668-0.69767 12.950709-1.0595 12.950709-1.0595-3.063315-2.43196-8.220906-6.55245-9.396332-7.47837-1.030959-0.81211-2.692386-2.05835-2.870876-3.17207-0.240904-1.08411 1.465558-1.60609 2.369086-1.66635 2.910993-0.20068 6.886287 0.56927 10.419645 1.27192 1.776118 0.35313 2.087942 0.30122 2.087942 0.30122 2.529558 0.12037 4.999801-1.63325 4.899397-4.42394-0.02028-2.83074-3.353046-5.10072-6.48544-5.19982-3.168812-0.0118-10.677674-0.0118-10.677674-0.0118 8.472328 1.74667 10.316186 2.62759 10.758124 3.64748 0.261744 0.60263-0.435499 1.20141-2.769617 1.08448-2.542216-0.12727-7.751072-0.74295-7.751072-0.74295-4.957853-0.76285-7.982748-1.48561-9.488766 0.48185-0.983718 1.28538 0.140562 2.85093 0.582223 3.77429 1.967478 3.43317 4.940666 5.7885 7.09951 7.44837 0.812331 0.62456 3.292435 2.00763 3.292435 2.00763-7.709237-2.10803-14.281475-0.92353-18.17632 1.1243-4.477084 2.65011-3.711202 7.12202 3.392835 11.30309 4.19605 2.46945 6.714046 3.65561 13.584034 4.49915 4.015627 0.64029 4.828716 0.90227 4.798252 1.23656-0.04305 0.47057-4.967732 0.64888-6.262228 0.73819-3.293506 0.22704-11.811315-0.13095-11.853795-0.13095z" style="fill:#ffffff"/>
  </g>
 </g>
</svg>
