<svg xmlns="http://www.w3.org/2000/svg" style="enable-background:new" width="256" height="256" version="1.0">
 <defs>
  <filter style="color-interpolation-filters:sRGB" id="filter4569" width="1.023" height="1.025" x="-.01" y="-.01">
   <feGaussianBlur stdDeviation="1.16"/>
  </filter>
  <filter style="color-interpolation-filters:sRGB" id="filter989" width="1.046" height="1.05" x="-.02" y="-.03">
   <feGaussianBlur stdDeviation="2.32"/>
  </filter>
  <linearGradient id="linearGradient1108" x1="296" x2="296" y1="-212" y2="236" gradientUnits="userSpaceOnUse">
   <stop offset="0" style="stop-color:#ffffff"/>
   <stop offset=".125" style="stop-color:#ffffff;stop-opacity:.09803922"/>
   <stop offset=".925" style="stop-color:#000000;stop-opacity:.09803922"/>
   <stop offset="1" style="stop-color:#000000;stop-opacity:.49803922"/>
  </linearGradient>
  <clipPath id="clipPath1082-3">
   <path style="fill:#8c59d9" d="M 361.9375,-212 C 507.2348,-212 528,-191.28677 528,-46.125 V 70.125 C 528,215.28618 507.2348,236 361.9375,236 H 214.0625 C 68.7652,236 48,215.28618 48,70.125 V -46.125 C 48,-191.28677 68.7652,-212 214.0625,-212 Z"/>
  </clipPath>
  <clipPath id="clipPath1106">
   <g style="enable-background:new;fill:#f5c211" transform="matrix(.26785714 0 0 .26785714 -4.57143 224.21429)">
    <circle style="fill:#f5c211" cx="256" cy="44" r="224"/>
    <circle style="fill:#f5c211" cx="256" cy="44" r="224"/>
   </g>
  </clipPath>
  <radialGradient id="radialGradient4851-7-7" cx="17.814" cy="24.149" r="9.125" gradientTransform="matrix(7.4290395,0,-8.2510486e-8,7.1212043,-87.91303,43.751587)" gradientUnits="userSpaceOnUse">
   <stop offset="0" style="stop-color:#ffffff"/>
   <stop offset="1" style="stop-color:#e4e4e4"/>
  </radialGradient>
  <radialGradient id="radialGradient1029" cx="124.442" cy="119.33" r="120" gradientTransform="matrix(1.4669867 .00234666 -.001493 .93333215 -57.934406 11.203586)" gradientUnits="userSpaceOnUse">
   <stop offset="0" style="stop-color:#62a0ea"/>
   <stop offset=".476" style="stop-color:#3584e4"/>
   <stop offset="1" style="stop-color:#1a5fb4"/>
  </radialGradient>
 </defs>
 <g transform="translate(0,-44)">
  <g style="display:none">
   <text style="line-height:0%;font-family:'DejaVu Sans'" x="19.01" y="-8.26" xml:space="preserve">
    <tspan style="font-size:18px;line-height:1.25;font-family:'DejaVu Sans'" x="19.01" y="-8.26">apps</tspan>
   </text>
   <text style="font-weight:bold;line-height:0%;font-family:'DejaVu Sans'" x="146.49" y="-8.26" xml:space="preserve">
    <tspan style="font-weight:bold;font-size:18px;line-height:1.25;font-family:'DejaVu Sans'" x="146.49" y="-8.26">webbrowser-app</tspan>
   </text>
   <rect style="fill:#cdcdcd" width="16" height="16" x="320" y="236"/>
   <rect style="fill:#cdcdcd" width="24" height="24" x="320" y="188"/>
   <rect style="fill:#cdcdcd" width="32" height="32" x="320" y="132"/>
   <rect style="fill:#cdcdcd" width="48" height="48" x="320" y="60"/>
   <rect style="fill:#cdcdcd" width="256" height="256" x="24" y="28"/>
  </g>
  <path style="opacity:0.1;filter:url(#filter4569)" d="m 162.53675,60.431986 c 72.64865,0 83.03125,10.356615 83.03125,82.937504 v 58.125 c 0,72.58059 -10.3826,82.9375 -83.03125,82.9375 H 88.599254 C 15.9506,284.43199 5.568,274.07508 5.568,201.49449 v -58.125 c 0,-72.580889 10.3826,-82.937504 83.031254,-82.937504 z"/>
  <path style="opacity:0.2;filter:url(#filter989)" d="m 162.53675,62.431986 c 72.64865,0 83.03125,10.356615 83.03125,82.937504 v 58.125 c 0,72.58059 -10.3826,82.9375 -83.03125,82.9375 H 88.599254 C 15.9506,286.43199 5.568,276.07508 5.568,203.49449 v -58.125 c 0,-72.580889 10.3826,-82.937504 83.031254,-82.937504 z"/>
  <path style="fill:url(#radialGradient1029)" d="m 162.53674,60.431991 c 72.64865,0 83.03125,10.356615 83.03125,82.937499 v 58.125 c 0,72.58059 -10.3826,82.9375 -83.03125,82.9375 H 88.599244 c -72.64865,0 -83.03125,-10.35691 -83.03125,-82.9375 v -58.125 c 0,-72.580884 10.3826,-82.937499 83.03125,-82.937499 z"/>
  <path d="m 86.294922,60.83984 -3.273438,3.705078 -3.271484,3.703125 5.982422,6.003906 5.984375,6.001953 v 12.722656 l 6.808594,7.542972 6.808589,7.54297 h 8.30664 v -7.60937 l 5.90235,-5.882822 5.9043,-5.882812 v -8.482422 l 3.93359,-3.90625 3.93555,-3.904297 V 60.83984 h -23.51172 z m -21,0.396484 -5.804688,0.375 c -5.965208,0.385661 -14.463712,1.606134 -18.8125,2.701172 l -2.460937,0.619141 3.542969,3.576171 3.544922,3.576172 h 19.990234 v -5.423828 z m -48.962891,18.15625 c -0.716199,0 -3.913226,6.737386 -5.496093,11.583984 C 7.3166397,101.75233 6.3033336,112.0598 5.8769531,141.41797 l -0.3320312,22.95312 3.859375,3.89063 3.8593751,3.88867 h 12.333984 l 9.869141,9.82617 9.871094,9.82617 0.15039,-11.65429 0.152344,-11.65235 6.021484,-6.04297 6.023438,-6.04296 h 7.908203 l 12.330078,-12.36914 h 11.220703 l -2.716797,-2.75586 c -1.837847,-1.86591 -2.568997,-3.00169 -2.263672,-3.51368 0.248138,-0.41608 2.633993,-3.28696 5.302735,-6.3789 2.668742,-3.09195 5.058259,-5.96512 5.308594,-6.38477 0.319291,-0.53523 -1.282644,-2.50697 -5.367188,-6.60547 l -5.824219,-5.84179 H 65.855469 v 15.74023 h -8.683594 l -3.810547,-3.7793 -3.808594,-3.77929 v -8.44532 l 6.035157,-6.05273 6.033203,-6.05273 h 9.857422 V 92.62109 L 65.443359,86.568355 59.410156,80.515621 H 39.433594 v 11.806641 h -9.855469 l -6.447266,-6.464844 c -3.54565,-3.555737 -6.604967,-6.464844 -6.798828,-6.464844 z m 219.796879,3.011719 c -0.237,0.05457 -0.53046,0.235623 -0.93164,0.539062 -0.79926,0.604532 -3.05335,1.507813 -7.39454,1.507813 h -5.92578 l -6.20507,6.1875 -6.20508,6.1875 -3.90821,-3.939453 -3.9082,-3.9375 h -24.22266 l -5.75195,5.771484 -5.75195,5.771491 v 9.81836 h 11.24219 v -6.1836 h 8.43359 v 4.38672 c 0,4.22726 -0.0675,4.45273 -1.85938,6.18946 l -1.86132,1.80273 -8.11914,0.35547 -8.11719,0.35351 -2.91797,2.73243 -2.91797,2.73242 h -7.9375 v 7.62695 l -3.0918,3.05273 -3.09179,3.05469 v 11.5625 h 12.11523 l 3.90625,-3.93554 3.9043,-3.93555 h 8.18164 V 145 l 7.64062,7.55078 3.93555,-0.19336 0.004,-3.58789 c -2.58716,-2.70065 -7.6543,-8.66406 -7.6543,-8.66406 h 4.10156 4.08985 l 3.90429,3.93555 3.90625,3.93554 h 8.98242 l -2.76953,-2.8125 -2.76953,-2.81054 3.05274,-3.0918 c 2.96491,-3.00221 3.14184,-3.08985 6.14648,-3.08985 2.97496,0 3.20717,0.11178 6.0625,2.93165 1.63299,1.6127 2.96875,3.13058 2.96875,3.37304 0,0.24246 -5.63086,0.0644 -5.63086,0.0644 0,0 -0.45351,0.51688 -3.08398,3.18751 l -2.63477,2.82421 2.79688,2.95704 c 2.84583,2.88158 2.92968,3.06054 2.92968,6.18164 v 3.21484 h -3.37304 c -1.85517,0 -3.5625,-0.01 -3.5625,-0.01 0,0 5.18342,5.84176 11.28711,11.95118 h 0.002 c 5.83733,5.84281 11.66406,11.36914 11.66406,11.36914 l 3.65625,-0.0859 c 0,0 3.26154,-3.16161 6.03516,-5.92578 l 5.77148,-5.75 -4.06054,-4.08789 -4.06055,-4.08789 h 12.05859 l -0.01,-18.97266 c -0.0151,-32.97883 -2.12165,-49.350864 -7.0918,-59.871101 -1.04875,-2.219881 -1.24801,-3.194972 -1.95898,-3.03125 z M 123.75977,104.68945 v 5.6211 h 11.48242 L 132.47461,107.5 c -2.62942,-2.66957 -2.91907,-2.81055 -5.74219,-2.81055 z m 35.41796,2.57227 -2.8125,2.76758 c -2.5961,2.55706 -2.81054,2.97512 -2.81054,5.46093 v 2.69141 h 5.62304 v -5.46094 z m -61.839838,21.33398 -2.945313,2.94336 -2.943359,2.94531 h 3.15625 c 2.120366,0 3.387375,0.27738 3.857422,0.84375 0.911827,1.09869 3.039348,1.08 3.964838,-0.0352 0.62376,-0.75158 0.30839,-1.30099 -2.17968,-3.78906 z m 52.578128,27.81446 -7.17579,7.1582 -7.17382,7.16016 v 19.71484 l 4.92968,4.9082 4.92969,4.90625 h 14 l 3.24805,3.21485 c 3.07933,3.0472 3.25,3.36021 3.25,5.97656 0,2.36503 0.28095,3.07148 1.96679,4.9375 l 1.9668,2.17773 v 23.95508 l 7.16797,7.65625 c 3.94223,4.21153 7.42255,7.67517 7.73438,7.69727 0.31183,0.0221 6.10784,-5.50299 12.8789,-12.2793 l 12.31055,-12.32031 -0.33594,-11.42969 -0.33789,-11.42773 9.92578,-9.98243 9.92578,-9.98047 h -7.84179 l -19.94532,-19.96874 v -8.14063 h -23.95312 l -1.90625,-1.9668 -1.9082,-1.96679 h -11.82813 z m -83.37891,14.05273 c -2.485812,0 -2.901923,0.2164 -5.458984,2.8125 l -2.769531,2.81055 h 10.919922 v -5.62305 z m -8.861328,17.99023 -4.060547,4.08985 -4.0625,4.08789 v 19.68164 l 8.117188,7.01172 8.117187,7.00976 0.03516,9.01563 0.0332,9.01367 -3.091797,3.05274 -3.091797,3.05468 v 25.83594 l 1.511719,1.57617 c 0.830834,0.86721 2.095408,1.57813 2.810547,1.57813 1.218738,0 1.301653,-0.22036 1.314453,-3.51367 l 0.01367,-3.51368 12.892578,-11.80664 12.894531,-11.80468 0.02344,-3.94532 0.02148,-3.94531 6.183594,-6.16406 6.183592,-6.16406 v -3.1211 c 0,-3.0378 0.082,-3.20144 3.0918,-6.17383 l 3.0918,-3.05468 v -15.69727 l -4.11524,-4.11719 -4.11718,-4.11523 H 85.2207 l -3.904297,-3.93555 -3.90625,-3.93555 h -9.867187 z m 165.587888,28.60157 -3.65234,3.26758 -3.6543,3.26562 v 12.65039 h 7.30664 v -9.5918 z" style="opacity:0.3;fill:#ffffff;paint-order:markers fill stroke"/>
  <path style="opacity:0.5;fill:none;stroke:url(#linearGradient1108);stroke-width:8;stroke-linecap:round;stroke-linejoin:round" d="M 361.9375,-212 C 507.2348,-212 528,-191.28677 528,-46.125 V 70.125 C 528,215.28618 507.2348,236 361.9375,236 H 214.0625 C 68.7652,236 48,215.28618 48,70.125 V -46.125 C 48,-191.28677 68.7652,-212 214.0625,-212 Z" clip-path="url(#clipPath1082-3)" transform="matrix(0.5,0,0,0.5,-18.432006,166.43199)"/>
  <g style="enable-background:new" transform="translate(-116.02037,-92.149213)">
   <g transform="translate(-12.573749,-0.06723732)">
    <circle style="fill:#d5d3cf" cx="64" cy="240" r="0"/>
    <path style="opacity:0.1;fill:#ffffff" d="m 100,270 h 12 v 20 h -12 z" clip-path="url(#clipPath1106)"/>
    <rect style="opacity:0.1;fill:#ffffff" width="6.824" height="3.412" x="189.33" y="238.06"/>
    <rect style="opacity:0.1;fill:#ffffff" width="6.824" height="3.412" x="240.51" y="186.87"/>
    <g transform="matrix(0.56348412,0,0,0.56348412,-272.33831,9.481243)">
     <circle style="opacity:0.66763;fill:none;stroke:#ffffff;stroke-width:16.9264;stroke-linejoin:round" cx="883.604" cy="372.218" r="36.271"/>
     <circle style="opacity:0.66763;fill:none;stroke:#ffffff;stroke-width:11.6927;stroke-linejoin:round" cx="883.604" cy="372.218" r="68.972"/>
     <circle style="opacity:0.66763;fill:none;stroke:#ffffff;stroke-width:5.995;stroke-linejoin:round" cx="883.604" cy="372.218" r="103.121"/>
    </g>
    <path style="opacity:0.3;fill:#12121c;fill-rule:evenodd" d="m 226.16211,226.64844 -64.25803,62.36533 a 102.36498,102.36498 0 0 0 10.73633,17.63397 l 9.18019,0.29657 -3.26554,6.78101 a 102.36498,102.36498 0 0 0 16.80758,14.87824 l 5.6314,-12.67234 25.70122,27.45395 a 102.36498,102.36498 0 0 0 0.65978,0.16668 z"/>
    <g transform="matrix(1.7060829,0,0,1.7060829,144.96988,-137.2837)">
     <path style="fill:url(#radialGradient4851-7-7);fill-rule:evenodd" d="m 47.589745,209.314 -47.766522,46.36163 21.77591,0.70244 -9.131831,18.96611 c -2.8097966,8.42939 9.834282,11.59041 11.941628,5.26838 l 8.42939,-18.96612 15.453872,16.50755 z"/>
     <path style="fill:#e4e6e8;fill-rule:evenodd" d="M 47.589844,37.314453 47.34375,37.552734 16.185547,111.33398 c 3.147793,1.27683 7.120849,0.58472 8.222656,-2.7207 L 32.837891,89.646484 48.292969,106.1543 Z" transform="translate(0,172)"/>
    </g>
   </g>
  </g>
 </g>
</svg>
