<svg xmlns="http://www.w3.org/2000/svg" xmlns:xlink="http://www.w3.org/1999/xlink" width="256" height="256" version="1.0" style="enable-background:new">
 <defs>
  <filter style="color-interpolation-filters:sRGB" id="filter925" width="1.046" height="1.05" x="-.02" y="-.03">
   <feGaussianBlur stdDeviation="2.32"/>
  </filter>
  <filter style="color-interpolation-filters:sRGB" id="filter931" width="1.023" height="1.025" x="-.01" y="-.01">
   <feGaussianBlur stdDeviation="1.16"/>
  </filter>
  <linearGradient id="linearGradient1108" x1="296" x2="296" y1="-212" y2="236" gradientUnits="userSpaceOnUse" xlink:href="#linearGradient1013"/>
  <linearGradient id="linearGradient1013">
   <stop offset="0" style="stop-color:#ffffff"/>
   <stop style="stop-color:#ffffff;stop-opacity:0.09803922" offset=".125"/>
   <stop style="stop-color:#000000;stop-opacity:0.09803922" offset=".925"/>
   <stop offset="1" style="stop-color:#000000;stop-opacity:0.49803922"/>
  </linearGradient>
  <clipPath id="clipPath1082-3" clipPathUnits="userSpaceOnUse">
   <path d="M 361.9375,-212 C 507.2348,-212 528,-191.28677 528,-46.125 V 70.125 C 528,215.28618 507.2348,236 361.9375,236 H 214.0625 C 68.7652,236 48,215.28618 48,70.125 V -46.125 C 48,-191.28677 68.7652,-212 214.0625,-212 Z" style="fill:#8c59d9"/>
  </clipPath>
  <linearGradient id="linearGradient2933">
   <stop offset="0" style="stop-color:#9cd93d"/>
   <stop offset="1" style="stop-color:#609a05"/>
  </linearGradient>
  <linearGradient id="linearGradient3263">
   <stop style="stop-color:#ffffff" offset="0"/>
   <stop style="stop-color:#ffffff;stop-opacity:0" offset="1"/>
  </linearGradient>
  <radialGradient id="radialGradient1779" cx="125.568" cy="172.432" r="120" fx="125.568" fy="172.432" gradientTransform="matrix(1,0,0,0.93333333,0,11.495467)" gradientUnits="userSpaceOnUse" xlink:href="#linearGradient2933"/>
  <linearGradient id="linearGradient3269" x1="3.497" x2="32.924" y1="-4.988" y2="32.489" gradientTransform="matrix(6.331028,0,0,6.0605461,-26.087109,-5.375455)" gradientUnits="userSpaceOnUse" xlink:href="#linearGradient3263"/>
 </defs>
 <g transform="translate(0,-44)">
  <g>
   <g>
    <path d="m 162.53675,62.431991 c 72.64865,0 83.03125,10.356615 83.03125,82.937499 v 58.125 c 0,72.58059 -10.3826,82.9375 -83.03125,82.9375 h -73.9375 c -72.64865,0 -83.0312501,-10.35691 -83.0312501,-82.9375 v -58.125 c 0,-72.580884 10.3826001,-82.937499 83.0312501,-82.937499 z" style="opacity:0.2;filter:url(#filter925)"/>
    <path style="opacity:0.1;filter:url(#filter931)" d="m 162.53675,61.431991 c 72.64865,0 83.03125,10.356615 83.03125,82.937499 v 58.125 c 0,72.58059 -10.3826,82.9375 -83.03125,82.9375 h -73.9375 c -72.64865,0 -83.0312501,-10.35691 -83.0312501,-82.9375 v -58.125 c 0,-72.580884 10.3826001,-82.937499 83.0312501,-82.937499 z"/>
   </g>
   <g>
    <path style="fill:url(#radialGradient1779)" d="m 162.53675,60.431991 c 72.64865,0 83.03125,10.356615 83.03125,82.937499 v 58.125 c 0,72.58059 -10.3826,82.9375 -83.03125,82.9375 h -73.9375 c -72.64865,0 -83.0312501,-10.35691 -83.0312501,-82.9375 v -58.125 c 0,-72.580884 10.3826001,-82.937499 83.0312501,-82.937499 z"/>
    <path style="opacity:0.67741939;fill:url(#linearGradient3269)" d="M 245.56836 146.32812 L 245.56836 99.369141 C 245.56836 90.29653 245.40626 82.196203 244.98047 74.966797 C 244.76757 71.352094 244.4882 67.955563 244.13086 64.763672 C 243.77352 61.571781 243.33767 58.58542 242.81055 55.791016 C 242.28342 52.996611 241.6656 50.394901 240.94336 47.972656 C 240.22112 45.550411 239.39386 43.307833 238.45117 41.232422 C 237.50848 39.157011 236.45019 37.248043 235.26172 35.494141 C 234.07324 33.740238 232.75451 32.141314 231.29492 30.683594 C 229.83533 29.225873 228.23456 27.909521 226.47852 26.722656 C 224.72247 25.535792 222.8122 24.478444 220.73438 23.537109 C 218.65655 22.595775 216.41127 21.769958 213.98633 21.048828 C 211.56138 20.327698 208.9556 19.709846 206.1582 19.183594 C 203.36081 18.657342 200.37096 18.221935 197.17578 17.865234 C 193.9806 17.508534 190.58119 17.232005 186.96289 17.019531 C 179.72629 16.594583 171.61819 16.431641 162.53711 16.431641 L 88.599609 16.431641 C 79.518528 16.431641 71.41043 16.594583 64.173828 17.019531 C 60.555527 17.232005 57.154166 17.508534 53.958984 17.865234 C 50.763803 18.221935 47.773959 18.657342 44.976562 19.183594 C 42.179166 19.709846 39.575335 20.327698 37.150391 21.048828 C 34.725446 21.769958 32.48017 22.595775 30.402344 23.537109 C 28.324517 24.478444 26.414245 25.535792 24.658203 26.722656 C 22.902161 27.909521 21.299435 29.225873 19.839844 30.683594 C 18.380252 32.141314 17.063474 33.740238 15.875 35.494141 C 14.686526 37.248043 13.626285 39.157011 12.683594 41.232422 C 11.740902 43.307833 10.915601 45.550411 10.193359 47.972656 C 9.4711176 50.394901 8.8532979 52.996611 8.3261719 55.791016 C 7.7990459 58.58542 7.3632033 61.571781 7.0058594 64.763672 C 6.6485155 67.955563 6.3691456 71.352094 6.15625 74.966797 C 5.7304589 82.196203 5.5683594 90.29653 5.5683594 99.369141 L 5.5683594 134.29102 C 5.5683594 138.35568 5.7596309 142.36557 6.1464844 146.32812 C 99.9437 117.40131 167.43968 179.00466 245.56836 146.32812 z" transform="translate(0,44)"/>
    <path style="fill:#f7f7f7;fill-rule:evenodd" d="m -43.45011,-60.18734 c 0,1.847722 -21.259453,14.121872 -22.859627,13.198012 -1.600174,-0.923861 -1.600174,-25.472162 0,-26.396023 1.600174,-0.923861 22.859627,11.35029 22.859627,13.198011 z" transform="matrix(3.9338331,0,0,3.7664033,343.81701,401.12179)"/>
   </g>
   <g>
    <path d="M 361.9375,-212 C 507.2348,-212 528,-191.28677 528,-46.125 V 70.125 C 528,215.28618 507.2348,236 361.9375,236 H 214.0625 C 68.7652,236 48,215.28618 48,70.125 v -116.25 c 0,-5.7e-5 0,-1.14e-4 0,-1.71e-4 C 48.000016,-191.28679 68.765257,-212 214.0625,-212 Z" clip-path="url(#clipPath1082-3)" transform="matrix(0.5,0,0,0.5,-18.432,166.43199)" style="opacity:0.4;fill:none;stroke:url(#linearGradient1108);stroke-width:8;stroke-linecap:round;stroke-linejoin:round"/>
   </g>
  </g>
 </g>
</svg>
