<svg xmlns="http://www.w3.org/2000/svg" xmlns:xlink="http://www.w3.org/1999/xlink" width="256" height="256" version="1.1" viewBox="0 0 256 256">
 <defs>
  <linearGradient id="linearGradient1108" x1="296" x2="296" y1="-212" y2="236" gradientUnits="userSpaceOnUse" xlink:href="#linearGradient1013"/>
  <linearGradient id="linearGradient1013">
   <stop style="stop-color:#ffffff" offset="0"/>
   <stop offset=".125" style="stop-color:#ffffff;stop-opacity:0.09803922"/>
   <stop offset=".925" style="stop-color:#000000;stop-opacity:0.09803922"/>
   <stop style="stop-color:#000000;stop-opacity:0.49803922" offset="1"/>
  </linearGradient>
  <clipPath id="clipPath1082-3-361" clipPathUnits="userSpaceOnUse">
   <path style="fill:#8c59d9" d="M 361.9375,-212 C 507.2348,-212 528,-191.28677 528,-46.125 V 70.125 C 528,215.28618 507.2348,236 361.9375,236 H 214.0625 C 68.7652,236 48,215.28618 48,70.125 V -46.125 C 48,-191.28677 68.7652,-212 214.0625,-212 Z"/>
  </clipPath>
  <linearGradient id="linearGradient1044" x1="88" x2="256" y1="28" y2="284" gradientTransform="matrix(1.0193681,0,0,1.0193681,-26.943941,-32.905179)" gradientUnits="userSpaceOnUse" xlink:href="#linearGradient4245"/>
  <linearGradient id="linearGradient4245">
   <stop style="stop-color:#e8e8e8" offset="0"/>
   <stop style="stop-color:#f5f5f5" offset="1"/>
  </linearGradient>
  <filter id="filter4569" width="1.023" height="1.025" x="-.01" y="-.01" style="color-interpolation-filters:sRGB">
   <feGaussianBlur stdDeviation="1.16"/>
  </filter>
  <filter id="filter939" width="1.046" height="1.05" x="-.02" y="-.03" style="color-interpolation-filters:sRGB">
   <feGaussianBlur stdDeviation="2.32"/>
  </filter>
  <linearGradient id="linearGradient2173" x1="39.5" x2="-3" y1="73" y2="12.85" gradientTransform="matrix(15.798777,0,0,15.798777,2971.0522,-1128.2829)" gradientUnits="userSpaceOnUse" xlink:href="#linearGradient2854"/>
  <linearGradient id="linearGradient2854">
   <stop offset="0" style="stop-color:#0a0a0a;stop-opacity:1.0000000"/>
   <stop offset="1" style="stop-color:#224354;stop-opacity:1.0000000"/>
  </linearGradient>
 </defs>
 <path d="m 162.53675,5.5680001 c 72.64865,0 83.03125,10.3566149 83.03125,82.9375049 v 58.125005 c 0,72.58059 -10.3826,82.9375 -83.03125,82.9375 H 88.599254 C 15.9506,229.56801 5.568,219.2111 5.568,146.63051 V 88.505505 c 0,-72.58089 10.3826,-82.9375049 83.031254,-82.9375049 z" transform="matrix(1.019368,0,0,1.019368,-7.2181772e-8,8.3098661)" style="opacity:0.2;filter:url(#filter939)"/>
 <path style="opacity:0.1;fill:none;stroke:#000000;stroke-width:4.07747173;stroke-linecap:round;stroke-linejoin:round" d="m 165.68477,11.946967 c 74.05571,0 84.6394,10.557203 84.6394,84.543835 v 59.250778 c 0,73.98633 -10.58369,84.54383 -84.6394,84.54383 H 90.315249 c -74.055717,0 -84.6394076,-10.5575 -84.6394076,-84.54383 V 96.490802 c 0,-73.986632 10.5836906,-84.543835 84.6394076,-84.543835 z"/>
 <path style="opacity:0.1;filter:url(#filter4569)" d="m 162.53675,3.5680001 c 72.64865,0 83.03125,10.3566149 83.03125,82.9375049 v 58.125005 c 0,72.58059 -10.3826,82.9375 -83.03125,82.9375 H 88.599254 C 15.9506,227.56801 5.568,217.2111 5.568,144.63051 V 86.505505 c 0,-72.58089 10.3826,-82.9375049 83.031254,-82.9375049 z" transform="matrix(1.019368,0,0,1.019368,-7.2181772e-8,8.3098661)"/>
 <path d="m 165.68476,11.946967 c 74.05571,0 84.6394,10.557203 84.6394,84.543835 v 59.250778 c 0,73.98633 -10.58369,84.54383 -84.6394,84.54383 H 90.315238 c -74.055712,0 -84.6394026,-10.5575 -84.6394026,-84.54383 V 96.490802 c 0,-73.986632 10.5836906,-84.543835 84.6394026,-84.543835 z" style="fill:url(#linearGradient1044)"/>
 <path style="opacity:0.4;fill:none;stroke:url(#linearGradient1108);stroke-width:8;stroke-linecap:round;stroke-linejoin:round" d="M 361.9375,-212 C 507.2348,-212 528,-191.28677 528,-46.125 V 70.125 C 528,215.28618 507.2348,236 361.9375,236 H 214.0625 C 68.7652,236 48,215.28618 48,70.125 V -46.125 C 48,-191.28677 68.7652,-212 214.0625,-212 Z" clip-path="url(#clipPath1082-3-361)" transform="matrix(0.50968403,0,0,0.50968403,-18.788999,120)"/>
 <g transform="matrix(1.0333177,0,0,1.025515,-77.957901,87.530763)">
  <path style="fill:url(#linearGradient2173);fill-rule:evenodd;stroke:url(#linearGradient2173);stroke-width:2.58892393" d="m 100.40547,-62.038808 c 24.33307,25.629373 13.774,42.024891 27.12499,72.211167 12.38978,28.012891 39.35985,7.04508 57.82391,26.850115 -18.46397,19.804875 -45.52591,-1.254461 -57.9156,26.758425 -13.35094,30.186354 -2.70028,46.673411 -27.0333,72.302791 25.62933,-24.33311 42.11639,-13.6824 72.30274,-27.03335 28.01298,-12.389747 7.0451,-39.359819 26.85021,-57.823904 19.664,18.466173 -1.22041,45.540917 26.75843,57.915524 30.193,13.35398 46.57611,2.60325 72.2111,26.94173 C 274.18955,110.4487 284.94012,94.065503 271.58619,63.872593 259.21161,35.89374 232.2285,56.68657 213.76233,37.022474 c 18.46617,-19.66417 45.44928,1.128661 57.82386,-26.850115 13.35402,-30.193003 2.60327,-46.576194 26.94176,-72.211167 -25.63508,24.338391 -42.01819,13.587819 -72.2111,26.941728 -27.97884,12.3746 -7.09443,39.4494258 -26.75843,57.915596 -19.80502,-18.4641702 1.16277,-45.434242 -26.85021,-57.823987 -30.18635,-13.350946 -46.67341,-2.700228 -72.30274,-27.033337 z"/>
 </g>
 <path d="M 128.30546,11.946967 V 240.28541 h 37.59065 c 73.87079,0 84.42805,-10.5575 84.42805,-84.54383 V 96.490802 c 0,-73.986632 -10.55726,-84.543835 -84.42805,-84.543835 z" style="opacity:0.2;fill:#ffffff"/>
 <path d="m 90.315238,240.28541 c -74.055712,0 -84.6394026,-10.67156 -84.6394026,-85.45963 V 124.8795 H 250.32416 v 29.94628 c 0,74.78807 -10.58369,85.45963 -84.6394,85.45963 z" style="opacity:0.25;fill:#ffffff"/>
</svg>
