<?xml version="1.0" encoding="UTF-8" standalone="no"?>
<svg
   xmlns:dc="http://purl.org/dc/elements/1.1/"
   xmlns:cc="http://creativecommons.org/ns#"
   xmlns:rdf="http://www.w3.org/1999/02/22-rdf-syntax-ns#"
   xmlns:svg="http://www.w3.org/2000/svg"
   xmlns="http://www.w3.org/2000/svg"
   xmlns:sodipodi="http://sodipodi.sourceforge.net/DTD/sodipodi-0.dtd"
   xmlns:inkscape="http://www.inkscape.org/namespaces/inkscape"
   width="256"
   height="256"
   version="1.1"
   viewBox="0 0 256 256"
   id="svg50"
   sodipodi:docname="exfalso.svg"
   inkscape:version="0.92.3 (2405546, 2018-03-11)">
  <metadata
     id="metadata54">
    <rdf:RDF>
      <cc:Work
         rdf:about="">
        <dc:format>image/svg+xml</dc:format>
        <dc:type
           rdf:resource="http://purl.org/dc/dcmitype/StillImage" />
      </cc:Work>
    </rdf:RDF>
  </metadata>
  <sodipodi:namedview
     pagecolor="#ffffff"
     bordercolor="#666666"
     borderopacity="1"
     objecttolerance="10"
     gridtolerance="10"
     guidetolerance="10"
     inkscape:pageopacity="0"
     inkscape:pageshadow="2"
     inkscape:window-width="770"
     inkscape:window-height="480"
     id="namedview52"
     showgrid="false"
     inkscape:zoom="0.921875"
     inkscape:cx="128"
     inkscape:cy="128"
     inkscape:window-x="0"
     inkscape:window-y="34"
     inkscape:window-maximized="0"
     inkscape:current-layer="svg50" />
  <defs
     id="defs30">
    <linearGradient
       id="linearGradient1108"
       x1="296"
       x2="296"
       y1="-212"
       y2="236"
       gradientUnits="userSpaceOnUse">
      <stop
         style="stop-color:#ffffff"
         offset="0"
         id="stop2" />
      <stop
         style="stop-color:#ffffff;stop-opacity:.09803922"
         offset=".125"
         id="stop4" />
      <stop
         style="stop-color:#000000;stop-opacity:.09803922"
         offset=".925"
         id="stop6" />
      <stop
         style="stop-color:#000000;stop-opacity:.49803922"
         offset="1"
         id="stop8" />
    </linearGradient>
    <clipPath
       id="clipPath1082-3-361">
      <path
         d="M 361.9375,-212 C 507.2348,-212 528,-191.28677 528,-46.125 V 70.125 C 528,215.28618 507.2348,236 361.9375,236 H 214.0625 C 68.7652,236 48,215.28618 48,70.125 V -46.125 C 48,-191.28677 68.7652,-212 214.0625,-212 Z"
         style="fill:#8c59d9"
         id="path11" />
    </clipPath>
    <linearGradient
       id="linearGradient1044"
       x1="88"
       x2="256"
       y1="28"
       y2="284"
       gradientTransform="matrix(1.0193681,0,0,1.0193681,-26.943941,-32.905179)"
       gradientUnits="userSpaceOnUse">
      <stop
         style="stop-color:#e8e8e8"
         offset="0"
         id="stop14" />
      <stop
         style="stop-color:#f5f5f5"
         offset="1"
         id="stop16" />
    </linearGradient>
    <filter
       id="filter4569"
       x="-.01"
       y="-.01"
       width="1.023"
       height="1.025"
       style="color-interpolation-filters:sRGB">
      <feGaussianBlur
         stdDeviation="1.16"
         id="feGaussianBlur19" />
    </filter>
    <filter
       id="filter939"
       x="-.02"
       y="-.03"
       width="1.046"
       height="1.05"
       style="color-interpolation-filters:sRGB">
      <feGaussianBlur
         stdDeviation="2.32"
         id="feGaussianBlur22" />
    </filter>
    <linearGradient
       id="linearGradient2173"
       x1="39.5"
       x2="-3"
       y1="73"
       y2="12.85"
       gradientTransform="matrix(15.798777,0,0,15.798777,2971.0522,-1128.2829)"
       gradientUnits="userSpaceOnUse">
      <stop
         style="stop-color:#0a0a0a"
         offset="0"
         id="stop25" />
      <stop
         style="stop-color:#224354"
         offset="1"
         id="stop27" />
    </linearGradient>
  </defs>
  <path
     transform="matrix(1.019368,0,0,1.019368,-7.2181772e-8,8.3098661)"
     d="m162.53675 5.5680001c72.64865 0 83.03125 10.356615 83.03125 82.937505v58.125005c0 72.58059-10.3826 82.9375-83.03125 82.9375h-73.937496c-72.648654 0-83.031254-10.35691-83.031254-82.9375v-58.125005c0-72.58089 10.3826-82.937505 83.031254-82.937505z"
     style="filter:url(#filter939);opacity:.2"
     id="path32" />
  <path
     d="m165.68477 11.946967c74.05571 0 84.6394 10.557203 84.6394 84.543835v59.250778c0 73.98633-10.58369 84.54383-84.6394 84.54383h-75.369521c-74.055717 0-84.639408-10.5575-84.639408-84.54383v-59.250778c0-73.986632 10.583691-84.543835 84.639408-84.543835z"
     style="fill:none;opacity:.1;stroke-linecap:round;stroke-linejoin:round;stroke-width:4.0774717;stroke:#000000"
     id="path34" />
  <path
     transform="matrix(1.019368,0,0,1.019368,-7.2181772e-8,8.3098661)"
     d="m162.53675 3.5680001c72.64865 0 83.03125 10.356615 83.03125 82.937505v58.125005c0 72.58059-10.3826 82.9375-83.03125 82.9375h-73.937496c-72.648654 0-83.031254-10.35691-83.031254-82.9375v-58.125005c0-72.58089 10.3826-82.937505 83.031254-82.937505z"
     style="filter:url(#filter4569);opacity:.1"
     id="path36" />
  <path
     d="m165.68476 11.946967c74.05571 0 84.6394 10.557203 84.6394 84.543835v59.250778c0 73.98633-10.58369 84.54383-84.6394 84.54383h-75.369522c-74.055712 0-84.639403-10.5575-84.639403-84.54383v-59.250778c0-73.986632 10.583691-84.543835 84.639403-84.543835z"
     style="fill:url(#linearGradient1044)"
     id="path38" />
  <path
     transform="matrix(.50968403 0 0 .50968403 -18.788999 120)"
     d="M 361.9375,-212 C 507.2348,-212 528,-191.28677 528,-46.125 V 70.125 C 528,215.28618 507.2348,236 361.9375,236 H 214.0625 C 68.7652,236 48,215.28618 48,70.125 V -46.125 C 48,-191.28677 68.7652,-212 214.0625,-212 Z"
     clip-path="url(#clipPath1082-3-361)"
     style="fill:none;opacity:.4;stroke-linecap:round;stroke-linejoin:round;stroke-width:8;stroke:url(#linearGradient1108)"
     id="path40" />
  <g
     transform="matrix(1.0333177,0,0,1.025515,-77.957901,87.530763)"
     id="g44">
    <path
       d="m100.40547-62.038808c24.33307 25.629373 13.774 42.024891 27.12499 72.211167 12.38978 28.012891 39.35985 7.04508 57.82391 26.850115-18.46397 19.804875-45.52591-1.254461-57.9156 26.758425-13.35094 30.186354-2.70028 46.673411-27.0333 72.302791 25.62933-24.33311 42.11639-13.6824 72.30274-27.03335 28.01298-12.389747 7.0451-39.359819 26.85021-57.823904 19.664 18.466173-1.22041 45.540917 26.75843 57.915524 30.193 13.35398 46.57611 2.60325 72.2111 26.94173-24.3384-25.63499-13.58783-42.018187-26.94176-72.211097-12.37458-27.978853-39.35769-7.186023-57.82386-26.850119 18.46617-19.66417 45.44928 1.128661 57.82386-26.850115 13.35402-30.193003 2.60327-46.576194 26.94176-72.211167-25.63508 24.338391-42.01819 13.587819-72.2111 26.941728-27.97884 12.3746-7.09443 39.449426-26.75843 57.915596-19.80502-18.46417 1.16277-45.434242-26.85021-57.823987-30.18635-13.350946-46.67341-2.700228-72.30274-27.033337z"
       style="fill-rule:evenodd;fill:url(#linearGradient2173);stroke-width:2.5889239;stroke:url(#linearGradient2173)"
       id="path42" />
  </g>
  <path
     d="m128.30546 11.946967v228.33844h37.59065c73.87079 0 84.42805-10.5575 84.42805-84.54383v-59.250778c0-73.986632-10.55726-84.543835-84.42805-84.543835z"
     style="fill:#ffffff;opacity:0.1"
     id="path46" />
  <path
     d="m90.315238 240.28541c-74.055712 0-84.639403-10.67156-84.639403-85.45963v-29.94628h244.64832v29.94628c0 74.78807-10.58369 85.45963-84.6394 85.45963z"
     style="fill:#ffffff;opacity:0.1"
     id="path48" />
</svg>
