<svg xmlns="http://www.w3.org/2000/svg" xmlns:xlink="http://www.w3.org/1999/xlink" width="256" height="256" version="1.1" viewBox="0 0 67.73 67.73">
 <defs>
  <linearGradient id="linearGradient3650-7-9">
   <stop style="stop-color:#8d9098" offset="0"/>
   <stop offset="1" style="stop-color:#cfcfcf"/>
  </linearGradient>
  <linearGradient id="linearGradient1108" x1="296" x2="296" y1="-212" y2="236" gradientUnits="userSpaceOnUse" xlink:href="#linearGradient1013"/>
  <linearGradient id="linearGradient1013">
   <stop offset="0" style="stop-color:#ffffff"/>
   <stop style="stop-color:#ffffff;stop-opacity:0.09803922" offset=".125"/>
   <stop style="stop-color:#000000;stop-opacity:0.09803922" offset=".925"/>
   <stop offset="1" style="stop-color:#000000;stop-opacity:0.49803922"/>
  </linearGradient>
  <clipPath id="clipPath1082-3-452" clipPathUnits="userSpaceOnUse">
   <path d="M 361.9375,-212 C 507.2348,-212 528,-191.28677 528,-46.125 V 70.125 C 528,215.28618 507.2348,236 361.9375,236 H 214.0625 C 68.7652,236 48,215.28618 48,70.125 V -46.125 C 48,-191.28677 68.7652,-212 214.0625,-212 Z" style="fill:#8c59d9"/>
  </clipPath>
  <linearGradient id="linearGradient1137" x1="282.7" x2="19.484" y1="273.085" y2="29.233" gradientTransform="matrix(0.26970778,0,0,0.26970778,-7.1289177,220.56049)" gradientUnits="userSpaceOnUse" xlink:href="#linearGradient3650-7-9"/>
  <filter style="color-interpolation-filters:sRGB" id="filter1112" width="1.046" height="1.05" x="-.02" y="-.03">
   <feGaussianBlur stdDeviation="2.32"/>
  </filter>
  <filter style="color-interpolation-filters:sRGB" id="filter4569" width="1.023" height="1.025" x="-.01" y="-.01">
   <feGaussianBlur stdDeviation="1.16"/>
  </filter>
 </defs>
 <g transform="translate(0,-229.26666)">
  <path d="m 188.96876,43.999995 c 72.64865,0 83.03125,10.356615 83.03125,82.937505 v 58.125 c 0,72.58059 -10.3826,82.9375 -83.03125,82.9375 h -73.9375 C 42.382606,268 32.000006,257.64309 32.000006,185.0625 v -58.125 c 0,-72.58089 10.3826,-82.937505 83.031254,-82.937505 z" transform="matrix(0.26970778,0,0,0.26970778,-7.1289177,220.56049)" style="opacity:0.1;filter:url(#filter4569)"/>
  <path style="opacity:0.2;filter:url(#filter1112)" d="m 188.96876,45.999995 c 72.64865,0 83.03125,10.356615 83.03125,82.937505 v 58.125 c 0,72.58059 -10.3826,82.9375 -83.03125,82.9375 h -73.9375 C 42.382606,270 32.000006,259.64309 32.000006,187.0625 v -58.125 c 0,-72.58089 10.3826,-82.937505 83.031254,-82.937505 z" transform="matrix(0.26970778,0,0,0.26970778,-7.1289177,220.56049)"/>
  <path style="fill:url(#linearGradient1137)" d="m 43.837426,232.42763 c 19.593907,0 22.394175,2.79326 22.394175,22.36889 v 15.67677 c 0,19.57555 -2.800268,22.36888 -22.394175,22.36888 h -19.94152 c -19.5939063,0 -22.3941744,-2.79333 -22.3941744,-22.36888 v -15.67677 c 0,-19.57563 2.8002681,-22.36889 22.3941744,-22.36889 z"/>
  <path style="opacity:0.1;fill:#fafdff" d="m 1.4201104,261.02806 v 9.37256 c 0,2.44694 0.043807,4.63169 0.1586466,6.58151 0.05742,0.97491 0.1325482,1.89089 0.2289266,2.75177 0.096378,0.86088 0.2138807,1.66633 0.3560506,2.42001 0.14217,0.75367 0.3090511,1.45561 0.5038453,2.10891 0.1947942,0.6533 0.4175424,1.25822 0.6717937,1.81798 0.2542511,0.55975 0.5398718,1.07415 0.8604127,1.54719 0.3205406,0.47305 0.676039,0.90444 1.0697019,1.2976 0.3936632,0.39316 0.8255275,0.74804 1.2991457,1.06815 0.4736182,0.32011 0.9888535,0.60549 1.5492592,0.85938 0.560406,0.25389 1.1660177,0.47626 1.8200442,0.67076 0.6540261,0.19449 1.3565021,0.36139 2.1109821,0.50333 0.754479,0.14193 1.560825,0.25881 2.422591,0.35501 0.861765,0.0962 1.778986,0.17162 2.754871,0.22893 1.951768,0.11461 4.138474,0.15813 6.587712,0.15813 h 19.941936 c 2.449238,0 4.635942,-0.0435 6.58771,-0.15813 0.975884,-0.0573 1.893107,-0.13272 2.754871,-0.22893 0.861766,-0.0962 1.668113,-0.21308 2.422591,-0.35501 0.754481,-0.14194 1.456957,-0.30884 2.110983,-0.50333 0.654027,-0.1945 1.259639,-0.41687 1.820045,-0.67076 0.560406,-0.25389 1.07564,-0.53927 1.549257,-0.85938 0.473621,-0.32011 0.905484,-0.67499 1.299147,-1.06815 0.393663,-0.39316 0.749162,-0.82455 1.069702,-1.2976 0.320541,-0.47304 0.606161,-0.98744 0.860412,-1.54719 0.254252,-0.55976 0.476999,-1.16468 0.671796,-1.81798 0.194794,-0.6533 0.361675,-1.35524 0.503843,-2.10891 0.142171,-0.75368 0.259673,-1.55913 0.356053,-2.42001 0.09638,-0.86088 0.171505,-1.77686 0.228925,-2.75177 0.11484,-1.94982 0.158647,-4.13457 0.158647,-6.58151 v -9.37256 H 44.719793 22.882884 Z"/>
  <path style="fill:#ff9044" d="m 34.235678,260.99707 h 12.835165 19.151466 v -8.54424 c 0,-2.19812 -0.04384,-4.16063 -0.159353,-5.91229 -0.05774,-0.87582 -0.133746,-1.699 -0.2307,-2.47241 -0.09694,-0.77341 -0.214727,-1.49709 -0.357755,-2.17421 -0.143047,-0.67712 -0.311228,-1.30757 -0.507221,-1.89454 -0.196004,-0.58698 -0.420093,-1.13049 -0.675946,-1.63344 -0.255853,-0.50295 -0.54344,-0.96536 -0.866025,-1.39041 -0.322585,-0.42506 -0.680209,-0.81265 -1.076408,-1.16595 -0.3962,-0.3533 -0.830925,-0.67235 -1.307633,-0.96003 -0.476697,-0.28767 -0.995074,-0.54401 -1.559152,-0.77219 -0.564088,-0.22818 -1.173685,-0.42809 -1.832036,-0.60292 -0.658351,-0.17482 -1.365718,-0.32459 -2.125215,-0.45218 -0.759507,-0.1276 -1.571185,-0.23305 -2.438721,-0.31955 -0.867536,-0.0865 -1.790598,-0.15392 -2.773045,-0.20546 -1.964896,-0.10306 -4.166537,-0.14238 -6.632396,-0.14237 h -9.445025 v 19.23299 z"/>
  <path style="opacity:0.1;fill:#fafdff" d="m 34.235678,292.76928 h 9.520351 c 2.449238,0 4.635942,-0.0435 6.58771,-0.15813 0.975884,-0.0573 1.893107,-0.13272 2.754871,-0.22893 0.861766,-0.0962 1.668113,-0.21308 2.422591,-0.35501 0.754481,-0.14194 1.456957,-0.30884 2.110983,-0.50333 0.654027,-0.1945 1.259639,-0.41687 1.820045,-0.67076 0.560406,-0.25389 1.07564,-0.53927 1.549257,-0.85938 0.473621,-0.32011 0.905484,-0.67499 1.299147,-1.06815 0.393663,-0.39316 0.749162,-0.82455 1.069702,-1.2976 0.320541,-0.47304 0.606161,-0.98744 0.860412,-1.54719 0.254252,-0.55976 0.476999,-1.16468 0.671796,-1.81798 0.194794,-0.6533 0.361675,-1.35524 0.503843,-2.10891 0.142171,-0.75368 0.259673,-1.55913 0.356053,-2.42001 0.09638,-0.86088 0.171505,-1.77686 0.228925,-2.75177 0.11484,-1.94982 0.158647,-4.13457 0.158647,-6.58151 v -15.67708 c 0,-2.44695 -0.04381,-4.63168 -0.158647,-6.58151 -0.05742,-0.97491 -0.132548,-1.89089 -0.228925,-2.75177 -0.09638,-0.86088 -0.213882,-1.66633 -0.356053,-2.42001 -0.142168,-0.75367 -0.309049,-1.45561 -0.503843,-2.10891 -0.194797,-0.6533 -0.417544,-1.25822 -0.671796,-1.81798 -0.254251,-0.55975 -0.539871,-1.07415 -0.860412,-1.54719 -0.32054,-0.47304 -0.676039,-0.90444 -1.069702,-1.2976 -0.393663,-0.39316 -0.825526,-0.74856 -1.299147,-1.06867 -0.473617,-0.3201 -0.988851,-0.60497 -1.549257,-0.85886 -0.560406,-0.25388 -1.166018,-0.47678 -1.820045,-0.67127 -0.654026,-0.1945 -1.356502,-0.36088 -2.110983,-0.50282 -0.754478,-0.14193 -1.560825,-0.25933 -2.422591,-0.35553 -0.861764,-0.0962 -1.778987,-0.1711 -2.754871,-0.22841 -1.951768,-0.11461 -4.138472,-0.15813 -6.58771,-0.15813 h -9.520351 v 19.57297 21.83691 z"/>
  <path d="M 361.9375,-212 C 507.2348,-212 528,-191.28677 528,-46.125 V 70.125 C 528,215.28618 507.2348,236 361.9375,236 H 214.0625 C 68.7652,236 48,215.28618 48,70.125 V -46.125 C 48,-191.28677 68.7652,-212 214.0625,-212 Z" clip-path="url(#clipPath1082-3-452)" transform="matrix(0.13485389,0,0,0.13485389,-4.9712557,261.12096)" style="opacity:0.4;fill:none;stroke:url(#linearGradient1108);stroke-width:8;stroke-linecap:round;stroke-linejoin:round"/>
  <g transform="translate(2.6496628,4.196485)">
   <path d="M 31.217006,237.27175 A 21.166667,21.166667 0 0 0 10.050337,258.43843 21.166667,21.166667 0 0 0 31.217006,279.60508 21.166667,21.166667 0 0 0 52.38367,258.43843 21.166667,21.166667 0 0 0 31.217006,237.27175 Z m 0,3.17501 a 17.991668,17.991668 0 0 1 17.991668,17.99167 17.991668,17.991668 0 0 1 -17.991668,17.99164 17.991668,17.991668 0 0 1 -17.991669,-17.99164 17.991668,17.991668 0 0 1 17.991669,-17.99167 z" style="fill:#ffffff"/>
   <circle style="fill:#ffffff" cx="31.217" cy="258.438" r="11.642"/>
   <circle cx="31.217" cy="258.438" r="8.467" style="fill:#3f3f3f"/>
  </g>
 </g>
</svg>
