<svg xmlns="http://www.w3.org/2000/svg" xmlns:xlink="http://www.w3.org/1999/xlink" width="256" height="256" version="1.1" viewBox="0 0 67.73 67.73">
 <defs>
  <linearGradient id="linearGradient1108" x1="296" x2="296" y1="-212" y2="236" gradientUnits="userSpaceOnUse" xlink:href="#linearGradient1013"/>
  <linearGradient id="linearGradient1013">
   <stop offset="0" style="stop-color:#ffffff"/>
   <stop style="stop-color:#ffffff;stop-opacity:0.09803922" offset=".125"/>
   <stop style="stop-color:#000000;stop-opacity:0.09803922" offset=".925"/>
   <stop offset="1" style="stop-color:#000000;stop-opacity:0.49803922"/>
  </linearGradient>
  <clipPath id="clipPath1082-3-361" clipPathUnits="userSpaceOnUse">
   <path d="M 361.9375,-212 C 507.2348,-212 528,-191.28677 528,-46.125 V 70.125 C 528,215.28618 507.2348,236 361.9375,236 H 214.0625 C 68.7652,236 48,215.28618 48,70.125 V -46.125 C 48,-191.28677 68.7652,-212 214.0625,-212 Z" style="fill:#8c59d9"/>
  </clipPath>
  <filter style="color-interpolation-filters:sRGB" id="filter4569" width="1.023" height="1.025" x="-.01" y="-.01">
   <feGaussianBlur stdDeviation="1.16"/>
  </filter>
  <filter style="color-interpolation-filters:sRGB" id="filter939" width="1.046" height="1.05" x="-.02" y="-.03">
   <feGaussianBlur stdDeviation="2.32"/>
  </filter>
  <linearGradient id="linearGradient3999" x1="48" x2="48" y1="90" y2="5.988" gradientTransform="matrix(2.3809523,0,0,2.3809523,11.282285,14.146205)" gradientUnits="userSpaceOnUse" xlink:href="#linearGradient3867"/>
  <linearGradient id="linearGradient3867" x1="58.65" x2="58.65" y1="122" y2="5.425" gradientUnits="userSpaceOnUse">
   <stop offset="0" style="stop-color:#be1e1e"/>
   <stop offset="1" style="stop-color:#e24a4a"/>
  </linearGradient>
 </defs>
 <g transform="translate(0,-229.26666)">
  <path style="opacity:0.2;filter:url(#filter939)" d="m 162.53675,5.5680001 c 72.64865,0 83.03125,10.3566149 83.03125,82.9375049 v 58.125005 c 0,72.58059 -10.3826,82.9375 -83.03125,82.9375 H 88.599254 C 15.9506,229.56801 5.568,219.2111 5.568,146.63051 V 88.505505 c 0,-72.58089 10.3826,-82.9375049 83.031254,-82.9375049 z" transform="matrix(0.26970779,0,0,0.26970779,-1.9098094e-8,231.46531)"/>
  <path d="m 43.837429,232.42763 c 19.593907,0 22.394176,2.79326 22.394176,22.36889 v 15.67677 c 0,19.57555 -2.800269,22.36889 -22.394176,22.36889 H 23.89591 c -19.5939088,0 -22.394177,-2.79334 -22.394177,-22.36889 v -15.67677 c 0,-19.57563 2.8002682,-22.36889 22.394177,-22.36889 z" style="opacity:0.1;fill:none;stroke:#000000;stroke-width:1.07883108;stroke-linecap:round;stroke-linejoin:round"/>
  <path d="m 162.53675,3.5680001 c 72.64865,0 83.03125,10.3566149 83.03125,82.9375049 v 58.125005 c 0,72.58059 -10.3826,82.9375 -83.03125,82.9375 H 88.599254 C 15.9506,227.56801 5.568,217.2111 5.568,144.63051 V 86.505505 c 0,-72.58089 10.3826,-82.9375049 83.031254,-82.9375049 z" transform="matrix(0.26970779,0,0,0.26970779,-1.9098094e-8,231.46531)" style="opacity:0.1;filter:url(#filter4569)"/>
  <path style="fill:#dcdcdc" d="m 43.837427,232.42763 c 19.593907,0 22.394175,2.79326 22.394175,22.36889 v 15.67677 c 0,19.57555 -2.800268,22.36889 -22.394175,22.36889 h -19.94152 c -19.5939074,0 -22.3941756,-2.79334 -22.3941756,-22.36889 v -15.67677 c 0,-19.57563 2.8002682,-22.36889 22.3941756,-22.36889 z"/>
  <path d="M 361.9375,-212 C 507.2348,-212 528,-191.28677 528,-46.125 V 70.125 C 528,215.28618 507.2348,236 361.9375,236 H 214.0625 C 68.7652,236 48,215.28618 48,70.125 V -46.125 C 48,-191.28677 68.7652,-212 214.0625,-212 Z" clip-path="url(#clipPath1082-3-361)" transform="matrix(0.1348539,0,0,0.1348539,-4.9712559,261.01666)" style="opacity:0.4;fill:none;stroke:url(#linearGradient1108);stroke-width:8;stroke-linecap:round;stroke-linejoin:round"/>
  <path style="opacity:0.1;fill:#ffffff" d="m 23.895907,292.84218 c -19.5939074,0 -22.3941756,-2.79326 -22.3941756,-22.36889 v -7.83838 H 66.231602 v 7.83838 c 0,19.57563 -2.800268,22.36889 -22.394175,22.36889 z"/>
  <g transform="translate(1.2171905,0.48222568)">
   <path style="fill:url(#linearGradient3999)" d="m 39.853516,28.431641 c -7.518358,0 -13.616755,5.735526 -14.210938,13.095703 5.879528,0.0412 10.640625,4.82581 10.640625,10.714844 0,5.914204 -4.800556,10.71289 -10.714844,10.71289 v 16.667969 c 5.914288,0 10.714844,4.798535 10.714844,10.712891 0,5.914204 -4.800556,10.714842 -10.714844,10.714842 v 16.66797 c 5.914288,0 10.714844,4.79869 10.714844,10.71289 0,5.91436 -4.800556,10.71484 -10.714844,10.71484 v 16.66602 c 5.914288,0 10.714844,4.80064 10.714844,10.71484 0,5.91432 -4.800556,10.71485 -10.714844,10.71485 v 16.66601 c 5.914288,0 10.714844,4.80049 10.714844,10.71485 0,5.88907 -4.761097,10.67218 -10.640625,10.71289 0.594142,7.36017 6.69258,13.0957 14.210938,13.0957 0,-5.91436 4.80054,-10.71484 10.714843,-10.71484 5.914247,0 10.714844,4.80048 10.714844,10.71484 h 16.666016 c 0,-5.91436 4.800597,-10.71484 10.714843,-10.71484 5.9143,0 10.712891,4.80048 10.712891,10.71484 h 16.667967 c 0,-5.91436 4.79859,-10.71484 10.71289,-10.71484 5.91429,0 10.71485,4.80048 10.71485,10.71484 h 16.66601 c 0,-5.91436 4.80056,-10.71484 10.71485,-10.71484 5.9143,0 10.71484,4.80048 10.71484,10.71484 h 16.66602 c 0,-5.91436 4.80054,-10.71484 10.71484,-10.71484 5.83861,0 10.59418,4.68229 10.71484,10.49218 6.40127,-1.05966 11.29977,-6.30343 11.83008,-12.87304 -5.87949,-0.0412 -10.64062,-4.82382 -10.64062,-10.71289 0,-5.91436 4.80055,-10.71485 10.71484,-10.71485 v -16.66601 c -5.91429,0 -10.71484,-4.80053 -10.71484,-10.71485 0,-5.9142 4.80055,-10.71484 10.71484,-10.71484 v -16.66602 c -5.91429,0 -10.71484,-4.80048 -10.71484,-10.71484 0,-5.9142 4.80055,-10.71289 10.71484,-10.71289 v -16.66797 c -5.91429,0 -10.71484,-4.800638 -10.71484,-10.714842 0,-5.914356 4.80055,-10.712891 10.71484,-10.712891 V 62.955078 c -5.91429,0 -10.71484,-4.798686 -10.71484,-10.71289 0,-5.889034 4.76113,-10.674025 10.64062,-10.714844 -0.53037,-6.569651 -5.42881,-11.813268 -11.83008,-12.873047 -0.12094,5.80989 -4.87623,10.492187 -10.71484,10.492187 -5.9143,0 -10.71484,-4.800639 -10.71484,-10.714843 h -16.66602 c 0,5.914204 -4.80054,10.714843 -10.71484,10.714843 -5.91429,0 -10.71485,-4.800639 -10.71485,-10.714843 h -16.66601 c 0,5.914204 -4.80056,10.714843 -10.71485,10.714843 -5.9143,0 -10.71289,-4.800639 -10.71289,-10.714843 H 99.376953 c 0,5.914204 -4.798591,10.714843 -10.712891,10.714843 -5.914246,0 -10.714843,-4.800639 -10.714843,-10.714843 H 61.283203 c 0,5.914204 -4.800597,10.714843 -10.714844,10.714843 -5.914303,0 -10.714843,-4.800639 -10.714843,-10.714843 z M 87.087891,64.773438 H 168.5625 l -4.15039,19.738281 H 103.89453 L 97.951172,108.20117 H 190.2832 l -4.7832,19.73828 -44.08008,36.97461 c 15.39639,0.53904 22.23624,14.13346 43.85352,-1.10351 l 3.93359,19.97851 c -19.80781,11.31878 -29.35609,8.32715 -39.51172,5.53321 -10.43905,-2.87127 -16.20955,-6.97021 -29.96875,0.043 l -7.27539,3.71485 -14.205076,-16.21485 54.490236,-48.35351 H 94.550781 L 82.167969,180.13867 H 60.853516 Z" transform="matrix(0.26458333,0,0,0.26458333,-0.57381791,228.17181)"/>
  </g>
  <path style="opacity:0.1;fill:#ffffff" d="m 33.866666,232.42763 v 60.41455 h 9.970761 c 19.593907,0 22.394175,-2.79334 22.394175,-22.36889 v -15.67677 c 0,-19.57563 -2.800268,-22.36889 -22.394175,-22.36889 z"/>
 </g>
</svg>
