<!-- Created with Inkscape (http://www.inkscape.org/) -->
<svg width="256" height="256" version="1.1" viewBox="0 0 67.733332 67.733335" xmlns="http://www.w3.org/2000/svg" xmlns:xlink="http://www.w3.org/1999/xlink">
 <defs>
  <linearGradient id="linearGradient1108" x1="296" x2="296" y1="-212" y2="236" gradientUnits="userSpaceOnUse">
   <stop style="stop-color:#ffffff" offset="0"/>
   <stop style="stop-color:#ffffff;stop-opacity:.09803922" offset=".125"/>
   <stop style="stop-color:#000000;stop-opacity:.09803922" offset=".92500001"/>
   <stop style="stop-color:#000000;stop-opacity:.49803922" offset="1"/>
  </linearGradient>
  <clipPath id="clipPath1082-3-367">
   <path d="M 361.9375,-212 C 507.2348,-212 528,-191.28677 528,-46.125 V 70.125 C 528,215.28618 507.2348,236 361.9375,236 H 214.0625 C 68.7652,236 48,215.28618 48,70.125 V -46.125 C 48,-191.28677 68.7652,-212 214.0625,-212 Z" style="fill:#8c59d9"/>
  </clipPath>
  <clipPath id="clipPath936">
   <path d="M 329.9375,16 C 475.2348,16 496,36.71323 496,181.875 v 116.25 C 496,443.28618 475.2348,464 329.9375,464 H 182.0625 C 36.7652,464 16,443.28618 16,298.125 V 181.875 C 16,36.71323 36.7652,16 182.0625,16 Z" style="fill:#438ae9"/>
  </clipPath>
  <linearGradient id="linearGradient1048" x1="24" x2="280" y1="28" y2="284" gradientTransform="matrix(2.0393079,0,0,2.0393079,-83.45773,-45.327184)" gradientUnits="userSpaceOnUse">
   <stop style="stop-color:#325fd1" offset="0"/>
   <stop style="stop-color:#6e98ff" offset="1"/>
  </linearGradient>
  <filter id="filter989" x="-.0232" y="-.024857143" width="1.0464" height="1.0497143" style="color-interpolation-filters:sRGB">
   <feGaussianBlur stdDeviation="2.32"/>
  </filter>
  <filter id="filter4569" x="-.0116" y="-.012428571" width="1.0232" height="1.024857" style="color-interpolation-filters:sRGB">
   <feGaussianBlur stdDeviation="1.16"/>
  </filter>
  <radialGradient id="radial-gradient-99" cx="-14480.522" cy="-8329.0791" r="450.875" fx="-14509.281" gradientTransform="matrix(.762 .034 -.05 1.12 11560.893 10069.103)" gradientUnits="userSpaceOnUse">
   <stop stop-color="#ffea00" offset=".045"/>
   <stop stop-color="#ffde00" offset=".12"/>
   <stop stop-color="#ffbf00" offset=".254"/>
   <stop stop-color="#ff8e00" offset=".429"/>
   <stop stop-color="#ff272d" offset=".769"/>
   <stop stop-color="#e0255a" offset=".872"/>
   <stop stop-color="#cc2477" offset=".953"/>
   <stop stop-color="#c42482" offset="1"/>
  </radialGradient>
  <radialGradient id="radial-gradient-2-4" cx="-7529.6689" cy="-7921.6079" r="791.229" gradientTransform="matrix(1.225,0,0,1.225,9921.963,9899.103)" gradientUnits="userSpaceOnUse">
   <stop stop-color="#00ccda" offset="0"/>
   <stop stop-color="#0083ff" offset=".22"/>
   <stop stop-color="#007af9" offset=".261"/>
   <stop stop-color="#0060e8" offset=".33"/>
   <stop stop-color="#005fe7" offset=".333"/>
   <stop stop-color="#2639ad" offset=".438"/>
   <stop stop-color="#401e84" offset=".522"/>
   <stop stop-color="#4a1475" offset=".566"/>
  </radialGradient>
  <linearGradient id="linearGradient4923" x1="575.66901" x2="384.23099" y1="731.18799" y2="104.96" gradientUnits="userSpaceOnUse">
   <stop stop-color="#000f43" stop-opacity=".4" offset="0"/>
   <stop stop-color="#001962" stop-opacity=".173" offset=".485"/>
   <stop stop-color="#002079" stop-opacity="0" offset="1"/>
  </linearGradient>
  <radialGradient id="radial-gradient-3-5" cx="-8260.9404" cy="-6516.5562" r="266.88599" gradientTransform="matrix(1.219 .123 -.123 1.219 10296.265 9597.23)" gradientUnits="userSpaceOnUse">
   <stop stop-color="#ffea00" offset=".003"/>
   <stop stop-color="#ff272d" offset=".497"/>
   <stop stop-color="#c42482" offset="1"/>
  </radialGradient>
  <radialGradient id="radial-gradient-4-5" cx="-8285.0869" cy="-6772.4678" r="445.67801" gradientTransform="matrix(1.219 .123 -.123 1.219 10296.265 9597.23)" gradientUnits="userSpaceOnUse">
   <stop stop-color="#ffe900" offset=".003"/>
   <stop stop-color="#ffaf0e" offset=".157"/>
   <stop stop-color="#ff7a1b" offset=".316"/>
   <stop stop-color="#ff4e26" offset=".472"/>
   <stop stop-color="#ff2c2e" offset=".621"/>
   <stop stop-color="#ff1434" offset=".762"/>
   <stop stop-color="#ff0538" offset=".892"/>
   <stop stop-color="#ff0039" offset="1"/>
  </radialGradient>
  <radialGradient id="radial-gradient-5-64" cx="-8222.0508" cy="-6359.332" r="408.95801" gradientTransform="matrix(1.219 .123 -.123 1.219 10296.265 9597.23)" gradientUnits="userSpaceOnUse">
   <stop stop-color="#ff272d" offset=".003"/>
   <stop stop-color="#c42482" offset=".497"/>
   <stop stop-color="#620700" offset=".986"/>
  </radialGradient>
  <radialGradient id="radial-gradient-6-7" cx="750.18903" cy="396.04099" r="782.17999" fx="778.1665" fy="382.2124" gradientUnits="userSpaceOnUse">
   <stop stop-color="#ffea00" offset=".156"/>
   <stop stop-color="#ffde00" offset=".231"/>
   <stop stop-color="#ffbf00" offset=".365"/>
   <stop stop-color="#ff8e00" offset=".541"/>
   <stop stop-color="#ff272d" offset=".763"/>
   <stop stop-color="#f92433" offset=".796"/>
   <stop stop-color="#e91c45" offset=".841"/>
   <stop stop-color="#cf0e62" offset=".893"/>
   <stop stop-color="#b5007f" offset=".935"/>
  </radialGradient>
  <radialGradient id="radial-gradient-7-8" cx="691.33899" cy="3.289" r="923.61499" gradientUnits="userSpaceOnUse">
   <stop stop-color="#ffea00" offset=".279"/>
   <stop stop-color="#fd0" offset=".402"/>
   <stop stop-color="#ffba00" offset=".63"/>
   <stop stop-color="#ff9100" offset=".856"/>
   <stop stop-color="#ff6711" offset=".933"/>
   <stop stop-color="#ff4a1d" offset=".994"/>
  </radialGradient>
  <linearGradient id="linearGradient4925" x1="-8944.6504" x2="-8660.2891" y1="-6677.7422" y2="-6750.2261" gradientTransform="matrix(1.219 .123 -.123 1.219 10296.265 9597.23)" gradientUnits="userSpaceOnUse">
   <stop stop-color="#c42482" stop-opacity=".5" offset="0"/>
   <stop stop-color="#ff272d" stop-opacity=".5" offset=".474"/>
   <stop stop-color="#ff2c2c" stop-opacity=".513" offset=".486"/>
   <stop stop-color="#ff7a1a" stop-opacity=".72" offset=".675"/>
   <stop stop-color="#ffb20d" stop-opacity=".871" offset=".829"/>
   <stop stop-color="#ffd605" stop-opacity=".964" offset=".942"/>
   <stop stop-color="#ffe302" offset="1"/>
  </linearGradient>
  <linearGradient id="linearGradient4927" x1="245.347" x2="190.77499" y1="-1082.012" y2="-1221.859" gradientTransform="matrix(.995 .1 -.1 .995 -173.696 1313.941)" gradientUnits="userSpaceOnUse">
   <stop stop-color="#891551" stop-opacity=".6" offset="0"/>
   <stop stop-color="#c42482" stop-opacity="0" offset="1"/>
  </linearGradient>
  <linearGradient id="linearGradient4929" x1="22.040001" x2="116.148" y1="718.82703" y2="825.71399" gradientTransform="matrix(.995 .1 -.1 .995 305.439 -246.471)" gradientUnits="userSpaceOnUse">
   <stop stop-color="#891551" stop-opacity=".5" offset=".005"/>
   <stop stop-color="#ff272d" stop-opacity=".5" offset=".484"/>
   <stop stop-color="#ff272d" stop-opacity="0" offset="1"/>
  </linearGradient>
  <linearGradient id="linearGradient4931" x1="200.104" x2="200.17101" y1="904.61603" y2="829.83502" gradientTransform="matrix(.995 .1 -.1 .995 305.439 -246.471)" gradientUnits="userSpaceOnUse">
   <stop stop-color="#c42482" offset="0"/>
   <stop stop-color="#c42482" stop-opacity=".81" offset=".083"/>
   <stop stop-color="#c42482" stop-opacity=".565" offset=".206"/>
   <stop stop-color="#c42482" stop-opacity=".362" offset=".328"/>
   <stop stop-color="#c42482" stop-opacity=".204" offset=".447"/>
   <stop stop-color="#c42482" stop-opacity=".091" offset=".562"/>
   <stop stop-color="#c42482" stop-opacity=".023" offset=".673"/>
   <stop stop-color="#c42482" stop-opacity="0" offset=".773"/>
  </linearGradient>
  <linearGradient id="linearGradient4933" x1="655.53101" x2="961.18701" y1="38.119999" y2="721.61499" gradientUnits="userSpaceOnUse">
   <stop stop-color="#fff14f" offset="0"/>
   <stop stop-color="#ffee4c" offset=".268"/>
   <stop stop-color="#ffe643" offset=".452"/>
   <stop stop-color="#ffd834" offset=".612"/>
   <stop stop-color="#ffc41e" offset=".757"/>
   <stop stop-color="#ffab02" offset=".892"/>
   <stop stop-color="#ffa900" offset=".902"/>
   <stop stop-color="#ffa000" offset=".949"/>
   <stop stop-color="#ff9100" offset="1"/>
  </linearGradient>
  <linearGradient id="linearGradient4935" x1="715.88501" x2="571.09802" y1="431.20999" y2="819.96002" gradientUnits="userSpaceOnUse">
   <stop stop-color="#ff8e00" offset="0"/>
   <stop stop-color="#ff8e00" stop-opacity=".858" offset=".04"/>
   <stop stop-color="#ff8e00" stop-opacity=".729" offset=".084"/>
   <stop stop-color="#ff8e00" stop-opacity=".628" offset=".13"/>
   <stop stop-color="#ff8e00" stop-opacity=".557" offset=".178"/>
   <stop stop-color="#ff8e00" stop-opacity=".514" offset=".227"/>
   <stop stop-color="#ff8e00" stop-opacity=".5" offset=".282"/>
   <stop stop-color="#ff8e00" stop-opacity=".478" offset=".389"/>
   <stop stop-color="#ff8e00" stop-opacity=".416" offset=".524"/>
   <stop stop-color="#ff8e00" stop-opacity=".314" offset=".676"/>
   <stop stop-color="#ff8e00" stop-opacity=".172" offset=".838"/>
   <stop stop-color="#ff8e00" stop-opacity="0" offset="1"/>
  </linearGradient>
 </defs>
 <g transform="translate(0,-229.26666)">
  <g transform="matrix(.12974173 0 0 .12974173 3.8344818 227.85345)" style="enable-background:new">
   <path transform="matrix(2.0393079,0,0,2.0393079,-29.55473,37.126102)" d="m162.53675 3.5680001c72.64865 0 83.03125 10.356615 83.03125 82.937505v58.125005c0 72.58059-10.3826 82.9375-83.03125 82.9375h-73.937496c-72.648654 0-83.031254-10.35691-83.031254-82.9375v-58.125005c0-72.58089 10.3826-82.937505 83.031254-82.937505z" style="filter:url(#filter4569);opacity:.1"/>
   <path transform="matrix(2.0393079,0,0,2.0393079,-29.55473,10.892486)" d="m5.5683594 101.36914v56.125c0 9.07257 0.1620995 17.17296 0.5878906 24.40234 0.2128956 3.6147 0.4922655 7.01124 0.8496094 10.20313 0.3573439 3.19188 0.7931865 6.18021 1.3203125 8.97461s1.1449457 5.39611 1.8671871 7.81836c0.722242 2.42224 1.547543 4.66482 2.490235 6.74023 0.942691 2.07541 2.002932 3.98242 3.191406 5.73633s2.505252 3.35478 3.964844 4.8125c1.459591 1.45773 3.062317 2.77211 4.818359 3.95898 1.756042 1.18688 3.666314 2.24616 5.744141 3.1875 2.077826 0.94135 4.323102 1.7652 6.748047 2.48633 2.424944 0.72114 5.028775 1.33898 7.826171 1.86524 2.797397 0.52626 5.787241 0.96165 8.982422 1.31836 3.195182 0.3567 6.596543 0.63518 10.214844 0.84765 7.236602 0.42496 15.3447 0.58594 24.425781 0.58594h73.937501c9.08108 0 17.18918-0.16098 24.42578-0.58594 3.6183-0.21247 7.01771-0.49095 10.21289-0.84765 3.19518-0.35671 6.18503-0.7921 8.98242-1.31836 2.7974-0.52626 5.40318-1.1441 7.82813-1.86524 2.42494-0.72113 4.67022-1.54498 6.74805-2.48633 2.07782-0.94134 3.98809-2.00062 5.74414-3.1875 1.75604-1.18687 3.35681-2.50125 4.8164-3.95898 1.45959-1.45772 2.77832-3.05859 3.9668-4.8125 1.18847-1.75391 2.24676-3.66092 3.18945-5.73633s1.76995-4.31799 2.49219-6.74023c0.72224-2.42225 1.34006-5.02396 1.86719-7.81836 0.52712-2.7944 0.96297-5.78273 1.32031-8.97461 0.35734-3.19189 0.63671-6.58843 0.84961-10.20313 0.42579-7.22938 0.58789-15.32977 0.58789-24.40234v-56.125c0-72.58089-10.3826-82.937499-83.03125-82.937499h-73.937501c-72.648654 0-83.03125 10.356609-83.03125 82.937499z" style="filter:url(#filter989);opacity:.2"/>
   <path d="m301.90773 44.402363c148.15296 0 169.32628 21.120327 169.32628 169.13511v118.53478c0 148.01417-21.17332 169.1351-169.32628 169.1351h-150.78132c-148.15296 0-169.32628-21.12093-169.32628-169.1351v-118.53478c0-148.01478 21.17332-169.13511 169.32628-169.13511z" style="fill:url(#linearGradient1048)"/>
   <g transform="matrix(1.0196539,0,0,1.0196539,-34.51434,28.0879)" clip-path="url(#clipPath936)" style="enable-background:new;fill:#ffffff;opacity:.4">
    <g transform="matrix(1.5675676,0,0,1.5675676,-1030.1622,795.05406)" style="fill:#ffffff;opacity:.6">
     <path transform="matrix(1.2758621,0,0,1.2758621,660.27533,-517.9477)" d="m62.628906 239.7168c0.537338 0.03519 0.997659 0.09677 1.544922 0.1289 0.424157 0.02491 1.001475 0.01204 1.431641 0.03516l-0.03711-7.44922 26-24v-8l12.000001-12v-6l6-6v-16l-8-8h-16.000001l-8-8h-20l-8 8v20l16.052735 14.06836-0.052735 17.93164-6 6v26l3.060547 3.28516z" style="fill:#ffffff"/>
     <path transform="matrix(1.2758621,0,0,1.2758621,660.27533,-517.9477)" d="m97.568359 84.431641-6 6h6l2 2h2.000001l2-2-6.000001-6z" style="fill:#ffffff"/>
     <path transform="matrix(1.2758621,0,0,1.2758621,660.27533,-517.9477)" d="m16.216797 35.080078c-0.104286 0.148777-0.239436 0.263003-0.341797 0.414063-1.188474 1.753902-2.248715 3.66287-3.191406 5.738281-0.942692 2.075411-1.767993 4.317989-2.490235 6.740234-0.7222414 2.422245-1.3400611 5.023955-1.8671871 7.81836s-0.9629686 5.780765-1.3203125 8.972656-0.6367138 6.588422-0.8496094 10.203125c-0.4257911 7.229406-0.5878906 15.329732-0.5878906 24.402344v21.062499l7.9999996 8h12l20 20v-24l12-12h8l12-12h12l-6-5.999999 12-14-12-12h-18v16h-8l-8-8v-8l12-12h10v-8l-12-12h-20v12h-10l-13.351562-13.351563z" style="fill:#ffffff"/>
     <path d="m881.72414-374.5h-30.62069l-17.86206 17.86207v25.51724l12.75862 12.75862h17.86207l7.65517 7.65518v7.65517l5.10345 5.10345v30.62069l19.37931 20.48276 32-32-0.34483-29.31035 25.51724-25.51724h-10.2069l-25.51724-25.51724v-10.2069h-30.62069z" style="fill:#ffffff"/>
     <path transform="matrix(1.2758621,0,0,1.2758621,660.27533,-517.9477)" d="m245.56836 120.43164v-21.062499c0-9.072612-0.1621-17.172938-0.58789-24.402344-0.2129-3.614703-0.49227-7.011234-0.84961-10.203125s-0.79319-6.178251-1.32031-8.972656c-0.52713-2.794405-1.14495-5.396115-1.86719-7.81836s-1.5495-4.664823-2.49219-6.740234c-0.60009-1.321158-1.33342-2.463336-2.03125-3.652344l-2.85156 2.851563h-12l-12 12-8-8h-24l-12 12v10h12v-6h8v8l-4 4-16 0.271484-6 5.728516h-8v8l-6 6v11.999999h12l8-7.999999h8v3.999999l8 8h4v-4l-8-7.999999h8l8 7.999999h10l-6-5.999999 6-6h6l6 6h-6l-6 5.999999 5.89062 5.89258 0.10938 6.10742h-8l24 24h4l4-4 8-8-8-8h12z" style="fill:#ffffff"/>
     <path d="m856.2069-422.98275v-7.65518l7.65518-7.65517v15.31035z" style="fill:#ffffff"/>
     <path d="m935.31035-272.43103v-16l10.2069-9.51724v25.51724z" style="fill:#ffffff"/>
     <path transform="matrix(1.2758621,0,0,1.2758621,660.27533,-517.9477)" d="m133.56836 16.431641h-44.968751c-0.771166 0-1.317022 0.048385-2.074218 0.050781l-6.957032 7.949219 12 12v12.541015l14.000001 15.458985h8v-8l12-12v-8l8-8v-12z" style="fill:#ffffff"/>
     <path transform="matrix(1.2758621,0,0,1.2758621,660.27533,-517.9477)" d="m65.568359 16.986328c-0.418854 0.022565-0.981377 0.008942-1.394531 0.033203-3.618301 0.212474-7.019662 0.489003-10.214844 0.845703-3.195181 0.356701-6.185025 0.792107-8.982422 1.31836-2.498598 0.470042-4.78985 1.041582-6.990234 1.666015l7.582031 7.582032h20v-11.445313z" style="fill:#ffffff"/>
     <path d="m817.93104-440.84482h7.65518l7.65517 7.65517-15.31035 1e-5z" style="fill:#ffffff"/>
     <path d="m749.03449-356.63794h-7.65518l-7.65517 7.65517 15.31035 1e-5z" style="fill:#ffffff"/>
    </g>
   </g>
   <g transform="matrix(1.0196539,0,0,1.0196539,43.999019,82.129559)" style="enable-background:new">
    <rect x="99" y="-37" width="160" height="448" style="fill:#ffffff;opacity:.1"/>
   </g>
   <path d="m-18.19987 272.80486v59.26739c0 148.01417 21.17332 169.1351 169.32628 169.1351h150.78132c148.15296 0 169.32628-21.12093 169.32628-169.1351v-59.26739z" style="fill:#ffffff;opacity:.1"/>
   <path transform="matrix(1.0196539,0,0,1.0196539,-67.14326,260.56901)" d="M 361.9375,-212 C 507.2348,-212 528,-191.28677 528,-46.125 V 70.125 C 528,215.28618 507.2348,236 361.9375,236 H 214.0625 C 68.7652,236 48,215.28618 48,70.125 V -46.125 C 48,-191.28677 68.7652,-212 214.0625,-212 Z" clip-path="url(#clipPath1082-3-367)" style="fill:none;opacity:.5;stroke-linecap:round;stroke-linejoin:round;stroke-width:8;stroke:url(#linearGradient1108)"/>
   <g transform="matrix(.37647475 0 0 .37647475 33.881357 86.826286)" style="enable-background:new">
    <path d="m805.285 93.558c-23.947 27.884-35.1 90.639-10.818 154.256s61.5 49.8 84.7 114.673c30.623 85.6 16.369 200.589 16.369 200.589s36.814 106.609 62.468-6.633c56.783-212.703-152.719-410.506-152.719-462.885z" style="fill:url(#radial-gradient-99)"/>
    <path d="m513.072 976.638c245.236 0 443.9-199.739 443.9-446.028s-198.664-446.027-443.662-446.027-443.66 199.739-443.66 446.027c-0.475 246.527 198.423 446.028 443.422 446.028z" style="fill:url(#radial-gradient-2-4)" data-name="&lt;Path&gt"/>
    <path d="m845.675 805.636a246.888 246.888 0 0 1-30.123 18.183 704 704 0 0 0 38.3-62.961c9.46-10.47 18.126-20.648 25.188-31.653 3.437-5.407 7.313-12.079 11.416-19.819 24.921-44.9 52.4-117.563 53.179-192.2v-0.18c0.018-1.837 0.029-3.675 0.014-5.515a257.6 257.6 0 0 0-5.712-55.748c0.2 1.431 0.376 2.861 0.556 4.291-0.221-1.1-0.407-2.212-0.644-3.314 0.366 2.034 0.66 4 0.976 5.983 5.094 43.217 1.466 85.372-16.682 116.45-0.286 0.454-0.58 0.879-0.869 1.323 9.41-47.234 12.558-99.387 2.088-151.6 0 0-4.187-25.383-35.376-102.441-17.952-44.353-49.833-80.716-78-107.207-24.69-30.546-47.114-51.045-59.475-64.06-25.821-27.189-36.643-47.569-41.087-60.867-3.853-1.932-53.135-49.807-57.05-51.631-21.511 33.352-89.162 137.675-56.981 235.146 14.584 44.172 51.467 90.017 90.067 115.736 1.695 1.936 22.969 25.042 33.086 77.157 10.446 53.842 4.954 95.855-16.546 157.983-25.286 54.505-90.067 108.388-150.724 113.9-129.676 11.781-177.149-65.108-177.149-65.108 46.336 18.525 97.568 14.65 128.724-4.556 31.4-19.425 50.394-33.827 65.81-28.148 15.2 5.653 27.3-10.756 16.442-27.767a78.5 78.5 0 0 0-79.4-34.573c-31.433 5.109-60.226 30.009-101.412 5.894a85.528 85.528 0 0 1-7.729-5.062c-2.715-1.785 8.826 2.717 6.133 0.688-8.015-4.354-22.2-13.842-25.88-17.217-0.613-0.562 6.219 2.179 5.606 1.616-38.51-31.712-33.7-53.134-32.49-66.57 0.969-10.749 7.964-24.523 19.751-30.11 5.693 3.107 9.24 5.479 9.24 5.479s-2.428-4.961-3.741-7.576c0.46-0.2 0.9-0.147 1.358-0.342 4.664 2.251 14.977 8.1 20.407 11.667 7.072 4.988 9.326 9.436 9.326 9.436s1.862-1.025 0.485-5.375c-0.5-1.784-2.647-7.453-9.652-13.174l0.438 0.049a81.2 81.2 0 0 1 11.867 8.241c1.975-7.181 5.527-14.679 4.746-28.092-0.477-9.431-0.257-11.873-1.919-15.515-1.488-3.128 0.834-4.348 3.418-1.1a32.826 32.826 0 0 0-2.208-7.4l0.022-0.244c3.225-11.236 68.248-40.461 72.981-43.877a67.355 67.355 0 0 0 19.132-20.8c3.617-5.763 6.337-13.848 7-26.112 0.355-8.844-3.759-14.734-69.507-21.618-17.981-1.771-28.531-14.8-34.526-26.823-1.094-2.59-2.209-4.937-3.325-7.282a58 58 0 0 1-2.558-8.431c10.749-30.873 28.81-56.977 55.367-76.7 1.447-1.318-5.782 0.338-4.336-0.98 1.687-1.538 12.706-5.977 14.787-6.977 2.542-1.2-10.882-6.9-22.732-5.512-12.069 1.36-14.632 2.8-21.073 5.531 2.673-2.661 11.173-6.149 9.18-6.126-13.011 1.995-29.179 9.558-43 18.124a10.731 10.731 0 0 1 0.835-4.348c-6.441 2.732-22.26 13.788-26.865 23.142a44.329 44.329 0 0 0 0.266-5.4 84.483 84.483 0 0 0-13.195 13.818l-0.241 0.219c-37.358-15.05-70.233-16.024-98.053-9.276-6.086-6.112-9.059-1.644-22.907-32.069-0.941-1.832 0.722 1.809 0 0-2.278-5.9 1.389 7.872 0 0-23.284 18.372-53.92 39.193-68.626 53.89-0.182 0.586 17.156-4.9 0 0-6.008 1.716-5.6 5.281-6.513 37.5-0.22 2.443-0.025 5.179-0.223 7.378-11.748 14.968-19.749 27.643-22.775 34.211-15.193 26.18-31.926 66.992-48.146 131.551a334.364 334.364 0 0 1 25.784-50.401c-13.488 34.267-26.527 88.078-29.134 170.945a483.614 483.614 0 0 1 12.533-50.66 473.038 473.038 0 0 0 34.74 201.061c9.329 22.821 24.76 57.455 51.029 95.4 82.533 86.839 198.945 140.9 327.852 140.9 134.572 1e-3 255.415-58.878 338.455-152.375z" style="fill:url(#linearGradient4923)"/>
    <path d="m746.1 868.708c162.87-18.86 234.969-186.7 142.381-190-83.633-2.673-219.527 198.9-142.381 190z" style="fill:url(#radial-gradient-3-5)"/>
    <path d="m900.207 644.424c112.056-65.214 82.839-206.08 82.839-206.08s-43.246 50.238-72.625 130.32c-29.021 79.299-77.584 115.148-10.214 75.76z" style="fill:url(#radial-gradient-4-5)"/>
    <path d="m544.474 952.062c156.227 49.851 290.5-73.22 207.733-114.32-75.251-37.066-281.883 90.748-207.733 114.32z" style="fill:url(#radial-gradient-5-64)"/>
    <path d="m911.849 704.234c3.8-5.363 8.94-22.535 13.48-30.211 27.582-44.523 27.777-80.023 27.777-80.836 16.659-83.219 15.148-117.2 4.9-180.043-8.251-50.6-44.322-123.092-75.57-158-32.2-35.965-9.514-24.247-40.692-50.518-27.327-30.293-53.823-60.291-68.253-72.355-104.276-87.177-101.92-105.694-99.912-108.851-0.339 0.371-0.837 0.922-1.472 1.643-1.235-4.923-2.107-9.063-2.107-9.063s-57 57-69 152c-7.834 62.021 15.383 126.676 49 168a381.367 381.367 0 0 0 59 58v-0.026c25.4 36.477 39.38 81.489 39.38 129.909 0 121.244-98.341 219.531-219.652 219.531a220.455 220.455 0 0 1-49.134-5.519c-57.236-10.908-90.288-39.781-106.772-59.382-9.447-11.234-13.464-19.423-13.464-19.423 51.283 18.371 107.986 14.528 142.468-4.518 34.749-19.265 55.774-33.546 72.837-27.915 16.82 5.606 30.211-10.667 18.2-27.536-11.771-16.845-42.4-40.97-87.878-34.286-34.789 5.067-66.657 29.76-112.24 5.845a96.313 96.313 0 0 1-8.554-5.02c-3.005-1.771 9.768 2.695 6.787 0.682-8.87-4.318-24.573-13.728-28.643-17.074-0.679-0.557 6.883 2.161 6.2 1.6-42.621-31.449-37.3-52.693-35.959-66.018 1.073-10.66 8.814-24.32 21.859-29.86 6.3 3.081 10.226 5.433 10.226 5.433s-2.688-4.92-4.141-7.513c0.509-0.194 0.994-0.145 1.5-0.339 5.162 2.232 16.576 8.029 22.586 11.57 7.827 4.947 10.322 9.358 10.322 9.358s2.061-1.016 0.536-5.33c-0.557-1.769-2.929-7.391-10.682-13.065l0.485 0.049a90.851 90.851 0 0 1 13.134 8.173c2.186-7.121 6.118-14.557 5.253-27.859-0.528-9.352-0.284-11.775-2.124-15.386-1.647-3.1 0.924-4.312 3.782-1.088a30.038 30.038 0 0 0-2.444-7.343l0.025-0.242c3.57-11.143 75.535-40.125 80.773-43.513a70.31 70.31 0 0 0 21.175-20.63c4-5.715 7.014-13.733 7.748-25.895 0.246-5.48-1.441-9.817-20.5-13.965-11.439-2.49-29.136-4.913-56.433-7.474-19.9-1.756-31.577-14.676-38.212-26.6-1.211-2.569-2.445-4.9-3.68-7.222a53.108 53.108 0 0 1-2.831-8.36 158.47 158.47 0 0 1 61.279-76.063c1.6-1.308-6.4 0.335-4.8-0.972 1.868-1.525 14.063-5.927 16.367-6.919 2.813-1.186-12.044-6.84-25.159-5.466-13.357 1.349-16.194 2.776-23.323 5.486 2.959-2.639 12.366-6.1 10.161-6.075-14.4 1.978-32.3 9.479-47.6 17.973a9.676 9.676 0 0 1 0.924-4.312c-7.129 2.709-24.637 13.674-29.734 22.95a39.488 39.488 0 0 0 0.294-5.354 88.678 88.678 0 0 0-14.6 13.7l-0.267 0.218c-41.347-14.925-77.732-15.891-108.522-9.2-6.736-6.061-17.566-15.226-32.892-45.4-1.041-1.817-1.6 3.755-2.4 1.961-5.955-13.813-9.553-36.444-8.962-52.046 0 0-12.318 5.614-22.513 29.06-1.893 4.215-3.107 6.54-4.32 8.865-0.558 0.678 1.265-7.7 0.974-7.244-1.772 3-6.356 7.192-8.371 12.618-1.384 4.021-3.325 6.273-4.564 11.288l-0.291 0.46c-0.1-1.478 0.367-6.081 0.027-5.137a236.1 236.1 0 0 0-12.308 29.841c-5.489 18.046-11.879 42.61-12.892 74.565-0.244 2.423-0.027 5.136-0.247 7.317-13 14.844-21.858 27.413-25.207 33.928-16.807 25.971-35.327 66.445-53.28 130.468a319.143 319.143 0 0 1 28.538-49.989c-14.929 33.983-29.36 87.348-32.245 169.53a438.522 438.522 0 0 1 13.872-50.24c-2.578 54.8 3.805 122.74 38.449 199.393 20.57 45.087 67.921 136.649 183.62 208.1l-0.01 7e-3s39.36 29.3 107.017 51.259c5 1.814 10.065 3.6 15.234 5.333-1.622-0.655-3.191-1.344-4.715-2.052a484.883 484.883 0 0 0 138.8 20.4c175.18 0.149 226.846-70.2 226.846-70.2s-0.182 0.137-0.513 0.377q3.708-3.491 7.143-7.257c-27.639 26.1-90.715 27.832-114.3 25.949 40.223-11.813 66.691-21.806 118.175-41.519q9.037-3.35 18.482-7.64c0.681-0.3 1.368-0.625 2.052-0.936 1.249-0.582 2.486-1.132 3.747-1.744a349.205 349.205 0 0 0 70.262-43.987c51.7-41.3 62.949-81.557 68.829-108.1-0.82 2.544-3.375 8.475-5.17 12.316-13.315 28.482-42.841 45.959-74.908 60.948a688.993 688.993 0 0 0 42.388-62.434c10.467-10.383 13.733-26.625 21.549-37.539z" style="fill:url(#radial-gradient-6-7)"/>
    <path d="m848.921 802.982c21.08-23.241 40.01-49.824 54.349-79.968 36.9-77.582 93.952-206.58 49.018-341.306-35.513-106.483-84.272-164.708-146.181-221.586-100.544-92.366-128.625-133.601-128.625-158.122 0 0-116.089 129.409-65.742 264.381s153.46 130.024 221.679 270.874c80.275 165.745-64.949 346.614-185.044 397.238 7.353-1.633 266.97-60.383 280.614-208.882-0.309 2.731-6.159 43.803-80.068 77.371z" style="fill:url(#radial-gradient-7-8)"/>
    <path d="m512.592 321.373c0.393-8.77-4.156-14.66-76.682-21.463-29.839-2.755-41.265-30.334-44.748-41.941-10.61 27.565-14.991 56.49-12.636 91.477 1.61 22.92 17.009 47.521 24.37 61.965 0 0 1.636-2.126 2.391-2.912 13.861-14.431 71.936-36.419 77.392-39.541 6.014-3.799 28.903-20.523 29.913-47.585z" style="fill:url(#linearGradient4925)"/>
    <path d="m193.314 158.471c-1.041-1.818-1.6 3.754-2.4 1.961-5.955-13.813-9.578-36.2-8.72-52.022 0 0-12.318 5.614-22.513 29.06-1.893 4.215-3.107 6.54-4.32 8.865-0.558 0.678 1.265-7.7 0.974-7.244-1.771 3-6.355 7.192-8.346 12.375-1.651 4.239-3.349 6.515-4.613 11.772-0.389 1.429 0.392-6.323 0.052-5.379-23.711 45.825-28.237 115.114-25.738 112.184 50.478-53.9 108.325-66.683 108.325-66.683-6.155-4.534-19.528-17.625-32.7-44.889z" style="fill:url(#linearGradient4927)"/>
    <path d="m384.844 722.1c-69.724-29.769-148.992-71.755-146-167.138 4.075-125.619 117.145-100.791 117.145-100.791-4.267 1.039-15.675 9.162-19.718 17.82-4.273 10.827-12.069 35.276 11.551 60.9 37.089 40.192-76.2 95.356 98.663 199.567 4.41 2.4-40.991-1.43-61.639-10.358z" style="fill:url(#linearGradient4929)"/>
    <path d="m360.074 659.5c49.442 17.207 107.04 14.189 141.523-4.858 23.085-12.851 52.7-33.434 70.922-28.353-15.777-6.236-27.726-9.15-42.1-9.862-2.448 0-5.382-0.052-8.048-0.32a136.228 136.228 0 0 0-15.757 0.863c-8.9 0.818-18.766 6.433-27.735 5.532-0.485-0.049 8.7-3.774 7.953-3.605-4.752 0.991-9.915 1.205-15.37 1.881-3.467 0.386-6.449 0.82-9.891 0.963-102.982 8.733-190.017-55.813-190.017-55.813-7.408 24.95 33.166 74.3 88.521 93.572z" style="fill:url(#linearGradient4931)"/>
    <path d="m848.738 803.646c104.162-102.27 156.862-226.585 134.583-366.019 0 0 8.9 71.5-24.848 144.628 16.213-71.393 18.1-160.114-24.975-251.988-57.493-122.631-152.048-187.158-188.147-214.078-54.695-40.789-77.368-82.319-77.777-90.889-16.339 33.477-65.766 148.2-5.31 247 56.64 92.564 145.865 120.039 208.328 204.947 115.075 156.42-21.854 326.399-21.854 326.399z" style="fill:url(#linearGradient4933)"/>
    <path d="M 833.814,537.551 C 797.412,462.35 751.978,429.55 709,394 c 5,7 6.232,9.473 9,14 37.827,40.316 93.607,138.656 53.11,262.107 C 694.881,902.482 389.967,793.057 358,762.319 370.932,896.808 596.036,961.164 742.6,873.949 826,795 893.468,660.788 833.814,537.551 Z" style="fill:url(#linearGradient4935)"/>
   </g>
  </g>
 </g>
</svg>
