<svg xmlns="http://www.w3.org/2000/svg" xmlns:xlink="http://www.w3.org/1999/xlink" width="256" height="256" version="1.1" viewBox="0 0 67.73 67.73">
 <defs>
  <filter style="color-interpolation-filters:sRGB" id="filter1132" width="1.046" height="1.05" x="-.02" y="-.03">
   <feGaussianBlur stdDeviation="2.32"/>
  </filter>
  <filter style="color-interpolation-filters:sRGB" id="filter4569" width="1.023" height="1.025" x="-.01" y="-.01">
   <feGaussianBlur stdDeviation="1.16"/>
  </filter>
  <linearGradient id="linearGradient1108-7" x1="296" x2="296" y1="-212" y2="236" gradientUnits="userSpaceOnUse" xlink:href="#linearGradient1013"/>
  <linearGradient id="linearGradient1013">
   <stop offset="0" style="stop-color:#ffffff"/>
   <stop style="stop-color:#ffffff;stop-opacity:0.09803922" offset=".125"/>
   <stop style="stop-color:#000000;stop-opacity:0.09803922" offset=".925"/>
   <stop offset="1" style="stop-color:#000000;stop-opacity:0.49803922"/>
  </linearGradient>
  <clipPath id="clipPath1082-3-93" clipPathUnits="userSpaceOnUse">
   <path d="M 361.9375,-212 C 507.2348,-212 528,-191.28677 528,-46.125 V 70.125 C 528,215.28618 507.2348,236 361.9375,236 H 214.0625 C 68.7652,236 48,215.28618 48,70.125 V -46.125 C 48,-191.28677 68.7652,-212 214.0625,-212 Z" style="fill:#8c59d9"/>
  </clipPath>
  <filter style="color-interpolation-filters:sRGB" id="filter1014" width="1.117" height="1.081" x="-.06" y="-.04">
   <feGaussianBlur stdDeviation=".157"/>
  </filter>
 </defs>
 <g transform="translate(0,-229.26666)">
  <path d="m 43.837425,232.42763 c 19.593907,0 22.394175,2.79326 22.394175,22.36889 v 15.67677 c 0,19.57555 -2.800268,22.36888 -22.394175,22.36888 h -19.94152 c -19.5939058,0 -22.3941739,-2.79333 -22.3941739,-22.36888 v -15.67677 c 0,-19.57563 2.8002681,-22.36889 22.3941739,-22.36889 z" style="opacity:0.115;fill:none;stroke:#000000;stroke-width:1.0788312;stroke-linecap:round;stroke-linejoin:round"/>
  <path d="m 188.96876,43.999995 c 72.64865,0 83.03125,10.356615 83.03125,82.937505 v 58.125 c 0,72.58059 -10.3826,82.9375 -83.03125,82.9375 h -73.9375 C 42.382606,268 32.000006,257.64309 32.000006,185.0625 v -58.125 c 0,-72.58089 10.3826,-82.937505 83.031254,-82.937505 z" transform="matrix(0.26970778,0,0,0.26970778,-7.1289177,220.56049)" style="opacity:0.1;filter:url(#filter4569)"/>
  <path style="opacity:0.2;filter:url(#filter1132)" d="m 188.96876,45.999995 c 72.64865,0 83.03125,10.356615 83.03125,82.937505 v 58.125 c 0,72.58059 -10.3826,82.9375 -83.03125,82.9375 h -73.9375 C 42.382606,270 32.000006,259.64309 32.000006,187.0625 v -58.125 c 0,-72.58089 10.3826,-82.937505 83.031254,-82.937505 z" transform="matrix(0.26970778,0,0,0.26970778,-7.1289177,220.56049)"/>
  <path style="fill:#e2380a" d="m 43.837425,232.42763 c 19.593907,0 22.394175,2.79326 22.394175,22.36889 v 15.67677 c 0,19.57555 -2.800268,22.36888 -22.394175,22.36888 h -19.94152 c -19.5939058,0 -22.3941739,-2.79333 -22.3941739,-22.36888 v -15.67677 c 0,-19.57563 2.8002681,-22.36889 22.3941739,-22.36889 z"/>
  <path style="opacity:0.1;fill:#ffffff" d="m 0.9525,262.56205 v 7.96544 c 0,19.89285 2.846163,22.73147 22.761203,22.73147 h 20.268349 c 19.91504,0 22.761202,-2.83862 22.761202,-22.73147 v -7.96544 z"/>
  <path style="opacity:0.1;fill:#ffffff" d="m 34.339496,293.25889 h 9.642769 c 2.489379,0 4.711922,-0.0442 6.695678,-0.16069 0.991878,-0.0582 1.924134,-0.13436 2.800022,-0.23212 0.87589,-0.0978 1.695452,-0.21706 2.462296,-0.36129 0.766845,-0.14424 1.480835,-0.31385 2.145581,-0.51149 0.664745,-0.19765 1.280283,-0.42364 1.849874,-0.68163 0.569591,-0.25801 1.093269,-0.54801 1.574648,-0.87331 0.481383,-0.3253 0.920325,-0.68593 1.32044,-1.08546 0.400114,-0.39954 0.76144,-0.83793 1.087233,-1.31864 0.325794,-0.48071 0.616096,-1.00344 0.874514,-1.57227 0.258418,-0.56883 0.484817,-1.18356 0.682806,-1.84745 0.197987,-0.66388 0.367602,-1.3772 0.512101,-2.14309 0.144501,-0.7659 0.263929,-1.58441 0.361887,-2.45924 0.09796,-0.87483 0.174317,-1.80566 0.232678,-2.79637 0.116723,-1.98143 0.161248,-4.20159 0.161248,-6.68819 v -15.9312 c 0,-2.48661 -0.04453,-4.70675 -0.161248,-6.68819 -0.05836,-0.99071 -0.13472,-1.92154 -0.232678,-2.79637 -0.09796,-0.87484 -0.217386,-1.69334 -0.361887,-2.45924 -0.144499,-0.76589 -0.314114,-1.4792 -0.512101,-2.14309 -0.197989,-0.66389 -0.424388,-1.27862 -0.682806,-1.84745 -0.258418,-0.56882 -0.54872,-1.09156 -0.874514,-1.57227 -0.325793,-0.48071 -0.687119,-0.9191 -1.087233,-1.31863 -0.400115,-0.39954 -0.839057,-0.76017 -1.32044,-1.08547 -0.481379,-0.3253 -1.005057,-0.6153 -1.574648,-0.87331 -0.569591,-0.25799 -1.185129,-0.48398 -1.849874,-0.68163 -0.664746,-0.19764 -1.378736,-0.36725 -2.145581,-0.51149 -0.766844,-0.14423 -1.586406,-0.26353 -2.462296,-0.36129 -0.875888,-0.0978 -1.808144,-0.17387 -2.800022,-0.23211 -1.983756,-0.11647 -4.206299,-0.1607 -6.695678,-0.1607 h -9.642769 z"/>
  <path d="M 361.9375,-212 C 507.2348,-212 528,-191.28677 528,-46.125 V 70.125 C 528,215.28618 507.2348,236 361.9375,236 H 214.0625 C 68.7652,236 48,215.28618 48,70.125 V -46.125 C 48,-191.28677 68.7652,-212 214.0625,-212 Z" clip-path="url(#clipPath1082-3-93)" transform="matrix(0.13485389,0,0,0.13485389,-4.9712548,261.01665)" style="opacity:0.6;fill:none;stroke:url(#linearGradient1108-7);stroke-width:8;stroke-linecap:round;stroke-linejoin:round"/>
  <g transform="translate(4.0597912,0.35734611)">
   <g style="opacity:0.3;filter:url(#filter1014)" transform="matrix(4.2159436,0,0,4.2159436,-1367.9235,-2509.0571)">
    <path d="m 333.6492,655.96009 c -0.35375,0 -0.64213,-0.28838 -0.64213,-0.64213 0,-0.35374 0.28454,-0.64212 0.64213,-0.64212 0.35375,0 0.64212,0.28453 0.64212,0.64212 0,0.35375 -0.28837,0.64213 -0.64212,0.64213 m -3.06068,4.91015 c 0,0.35375 -0.28837,0.64213 -0.64212,0.64213 -0.35375,0 -0.64213,-0.28838 -0.64213,-0.64213 0,-0.35375 0.28454,-0.64213 0.64213,-0.64213 0.35375,0.004 0.64212,0.28838 0.64212,0.64213 m 3.06068,-6.6635 c -0.61521,0 -1.11122,0.49602 -1.11122,1.11122 0,0.44603 0.26146,0.82669 0.64212,1.00357 -0.0384,0.7344 -0.5883,0.98049 -1.54187,1.34193 -0.40374,0.14995 -0.84592,0.31914 -1.22658,0.57291 v -2.69539 h 1.12661 l -1.61493,-2.83766 -1.61493,2.83766 h 1.17659 v 4.32954 c -0.38066,0.17688 -0.64597,0.55754 -0.64597,1.00741 0,0.61521 0.49601,1.11122 1.11122,1.11122 0.61522,0 1.11123,-0.49601 1.11123,-1.11122 0,-0.44603 -0.26147,-0.82669 -0.64213,-1.00356 0.0385,-0.73441 0.5883,-0.98049 1.54187,-1.34193 0.9382,-0.35374 2.09941,-0.79208 2.14555,-2.19938 0.38451,-0.17687 0.65366,-0.56138 0.65366,-1.00741 0,-0.61905 -0.49601,-1.11891 -1.11122,-1.11891"/>
   </g>
   <g transform="matrix(4.2159436,0,0,4.2159436,-1367.9235,-2509.0571)">
    <path d="m 333.6492,655.96009 c -0.35375,0 -0.64213,-0.28838 -0.64213,-0.64213 0,-0.35374 0.28454,-0.64212 0.64213,-0.64212 0.35375,0 0.64212,0.28453 0.64212,0.64212 0,0.35375 -0.28837,0.64213 -0.64212,0.64213 m -3.06068,4.91015 c 0,0.35375 -0.28837,0.64213 -0.64212,0.64213 -0.35375,0 -0.64213,-0.28838 -0.64213,-0.64213 0,-0.35375 0.28454,-0.64213 0.64213,-0.64213 0.35375,0.004 0.64212,0.28838 0.64212,0.64213 m 3.06068,-6.6635 c -0.61521,0 -1.11122,0.49602 -1.11122,1.11122 0,0.44603 0.26146,0.82669 0.64212,1.00357 -0.0384,0.7344 -0.5883,0.98049 -1.54187,1.34193 -0.40374,0.14995 -0.84592,0.31914 -1.22658,0.57291 v -2.69539 h 1.12661 l -1.61493,-2.83766 -1.61493,2.83766 h 1.17659 v 4.32954 c -0.38066,0.17688 -0.64597,0.55754 -0.64597,1.00741 0,0.61521 0.49601,1.11122 1.11122,1.11122 0.61522,0 1.11123,-0.49601 1.11123,-1.11122 0,-0.44603 -0.26147,-0.82669 -0.64213,-1.00356 0.0385,-0.73441 0.5883,-0.98049 1.54187,-1.34193 0.9382,-0.35374 2.09941,-0.79208 2.14555,-2.19938 0.38451,-0.17687 0.65366,-0.56138 0.65366,-1.00741 0,-0.61905 -0.49601,-1.11891 -1.11122,-1.11891" style="fill:#ffffff"/>
   </g>
  </g>
 </g>
</svg>
