<svg xmlns="http://www.w3.org/2000/svg" xmlns:xlink="http://www.w3.org/1999/xlink" width="256" height="256" version="1.1" viewBox="0 0 67.73 67.73">
 <defs>
  <linearGradient id="linearGradient1108" x1="296" x2="296" y1="-212" y2="236" gradientUnits="userSpaceOnUse" xlink:href="#linearGradient1013"/>
  <linearGradient id="linearGradient1013">
   <stop style="stop-color:#ffffff" offset="0"/>
   <stop offset=".125" style="stop-color:#ffffff;stop-opacity:0.09803922"/>
   <stop offset=".925" style="stop-color:#000000;stop-opacity:0.09803922"/>
   <stop style="stop-color:#000000;stop-opacity:0.49803922" offset="1"/>
  </linearGradient>
  <clipPath id="clipPath1082-3-36753" clipPathUnits="userSpaceOnUse">
   <path style="fill:#8c59d9" d="M 361.9375,-212 C 507.2348,-212 528,-191.28677 528,-46.125 V 70.125 C 528,215.28618 507.2348,236 361.9375,236 H 214.0625 C 68.7652,236 48,215.28618 48,70.125 V -46.125 C 48,-191.28677 68.7652,-212 214.0625,-212 Z"/>
  </clipPath>
  <filter id="filter904" width="1.046" height="1.05" x="-.02" y="-.03" style="color-interpolation-filters:sRGB">
   <feGaussianBlur stdDeviation="2.32"/>
  </filter>
  <filter id="filter4569" width="1.023" height="1.025" x="-.01" y="-.01" style="color-interpolation-filters:sRGB">
   <feGaussianBlur stdDeviation="1.16"/>
  </filter>
 </defs>
 <g transform="translate(0,-229.26666)">
  <path style="opacity:0.1;filter:url(#filter4569)" d="m 162.53675,3.5680001 c 72.64865,0 83.03125,10.3566149 83.03125,82.9375049 v 58.125005 c 0,72.58059 -10.3826,82.9375 -83.03125,82.9375 H 88.599254 C 15.9506,227.56801 5.568,217.2111 5.568,144.63051 V 86.505505 c 0,-72.58089 10.3826,-82.9375049 83.031254,-82.9375049 z" transform="matrix(0.26458333,0,0,0.26458333,-1.8735229e-8,232.67026)"/>
  <path d="m 162.53675,5.5680001 c 72.64865,0 83.03125,10.3566149 83.03125,82.9375049 v 58.125005 c 0,72.58059 -10.3826,82.9375 -83.03125,82.9375 H 88.599254 C 15.9506,229.56801 5.568,219.2111 5.568,146.63051 V 88.505505 c 0,-72.58089 10.3826,-82.9375049 83.031254,-82.9375049 z" transform="matrix(0.26458333,0,0,0.26458333,-1.8735229e-8,232.67026)" style="opacity:0.2;filter:url(#filter904)"/>
  <path d="m 43.004515,233.61429 c 19.221622,0 21.968685,2.74019 21.968685,21.94388 v 15.37891 c 0,19.20362 -2.747063,21.94388 -21.968685,21.94388 h -19.56263 c -19.2216222,0 -21.9686851,-2.74026 -21.9686851,-21.94388 v -15.37891 c 0,-19.20369 2.7470629,-21.94388 21.9686851,-21.94388 z" style="fill:#dc730e"/>
  <path d="m 23.441093,292.88175 c -19.2216227,0 -21.9686867,-2.82913 -21.9686867,-22.65611 v -7.93903 H 64.972412 v 7.93903 c 0,19.82698 -2.747062,22.65611 -21.968687,22.65611 z" style="opacity:0.25;fill:#ffffff"/>
  <path d="M 95.300781 16.431641 C 95.263128 16.470596 95.221264 16.504021 95.183594 16.542969 C 95.254649 18.302188 95.412688 21.58594 95.800781 23.800781 C 96.580517 28.247282 98.277154 33.700776 99.355469 36.341797 C 100.43378 38.982666 101.22759 40.648199 102.83789 43.451172 C 104.44816 46.254107 107.17665 50.320088 109.06641 53.066406 C 110.95621 55.812762 112.51361 58.246731 114.13477 60.353516 C 115.75601 62.460186 116.73802 63.637513 118.56836 65.90625 C 120.39864 68.174949 122.91381 71.304028 125.08008 73.613281 C 127.24634 75.922421 131.44922 79.644531 131.44922 79.644531 L 136.89453 84.197266 L 142.3418 79.644531 C 142.3418 79.644531 146.54463 75.922421 148.71094 73.613281 C 150.87716 71.304028 153.39233 68.174949 155.22266 65.90625 C 157.053 63.637513 158.03508 62.460186 159.65625 60.353516 C 161.27745 58.246731 162.8329 55.812762 164.72266 53.066406 C 166.61237 50.320088 169.34088 46.254107 170.95117 43.451172 C 172.56143 40.648199 173.35719 38.982666 174.43555 36.341797 C 175.51386 33.700776 177.2105 28.247282 177.99023 23.800781 C 178.12917 23.00795 178.19907 21.94927 178.28906 20.951172 C 178.14831 20.689629 178.03629 20.375696 177.88867 20.125 C 177.25132 19.041787 176.55211 18.06566 175.78516 17.183594 C 175.64111 17.017923 175.46332 16.897286 175.31445 16.738281 C 171.08202 16.635217 167.2875 16.431641 162.53711 16.431641 L 95.300781 16.431641 z M 20.953125 29.767578 C 20.600444 30.089519 20.177207 30.346663 19.839844 30.683594 C 18.380252 32.141314 17.063474 33.740238 15.875 35.494141 C 14.686526 37.248043 13.626285 39.157011 12.683594 41.232422 C 11.740903 43.307833 10.915601 45.550411 10.193359 47.972656 C 9.4711184 50.394901 8.8532978 52.996611 8.3261719 55.791016 C 7.7990459 58.58542 7.3632033 61.571781 7.0058594 64.763672 C 6.6485155 67.955563 6.3691456 71.352094 6.15625 74.966797 C 5.7304589 82.196202 5.5683594 90.296531 5.5683594 99.369141 L 5.5683594 157.49414 C 5.5683594 166.56672 5.7304589 174.6671 6.15625 181.89648 C 6.3691456 185.51118 6.6485155 188.90772 7.0058594 192.09961 C 7.3632033 195.29149 7.7990459 198.27982 8.3261719 201.07422 C 8.8532978 203.86862 9.4711184 206.47033 10.193359 208.89258 C 10.915601 211.31482 11.740903 213.5574 12.683594 215.63281 C 13.372026 217.14845 14.195983 218.47991 15.013672 219.82227 C 17.384191 219.65931 21.806623 219.30027 24.791016 218.41211 C 30.782435 216.62897 38.132921 212.75118 41.691406 210.28516 C 45.249896 207.81917 47.49277 206.00094 51.269531 202.31836 C 55.046288 198.63581 60.526117 192.39596 64.226562 188.07422 C 67.927011 183.75248 71.206209 180.19378 74.044922 176.48633 C 76.883634 172.77884 78.470469 170.52954 81.527344 166.34375 C 84.584226 162.15796 88.798683 156.40913 91.910156 151.45508 C 95.021626 146.50102 100.03711 136.88867 100.03711 136.88867 L 106.17188 124.43359 L 100.03711 111.97656 C 100.03711 111.97656 95.021626 102.36417 91.910156 97.410156 C 88.798683 92.456103 84.584222 86.707273 81.527344 82.521484 C 78.470469 78.335695 76.883634 76.088349 74.044922 72.380859 C 71.206209 68.67337 67.927011 65.11467 64.226562 60.792969 C 60.526117 56.471268 55.046292 50.231411 51.269531 46.548828 C 47.492774 42.866283 45.249896 41.046106 41.691406 38.580078 C 38.132921 36.11405 30.782435 32.236231 24.791016 30.453125 C 23.722674 30.135163 22.297958 29.97385 20.953125 29.767578 z M 127.42383 176.01172 L 118.17969 180.56445 C 118.17969 180.56445 111.04589 184.28656 107.36914 186.5957 C 103.69253 188.90496 99.424889 192.03208 96.318359 194.30078 C 93.21183 196.56952 91.544525 197.74684 88.792969 199.85352 C 86.041412 201.9603 83.400761 204.39429 80.193359 207.14062 C 76.986041 209.88694 72.354168 213.95488 69.621094 216.75781 C 66.888095 219.56079 65.53726 221.22437 63.707031 223.86523 C 61.876867 226.50625 58.99919 231.9617 57.675781 236.4082 C 57.439901 237.20103 57.320673 238.25776 57.167969 239.25586 C 57.17076 239.25892 57.173003 239.26257 57.175781 239.26562 C 59.454153 239.47701 61.694999 239.70014 64.173828 239.8457 C 71.41043 240.27066 79.51853 240.43164 88.599609 240.43164 L 162.53711 240.43164 C 171.61819 240.43164 179.72629 240.27066 186.96289 239.8457 C 190.58119 239.63323 193.9806 239.35475 197.17578 238.99805 C 197.34532 238.97912 197.48396 238.94711 197.65234 238.92773 C 197.51106 238.05296 197.3903 237.14268 197.17188 236.4082 C 195.84846 231.9617 192.97078 226.50625 191.14062 223.86523 C 189.31049 221.22437 187.95964 219.56079 185.22656 216.75781 C 182.49356 213.95488 177.86365 209.88694 174.65625 207.14062 C 171.44878 204.39429 168.80812 201.9603 166.05664 199.85352 C 163.30501 197.74684 161.63583 196.56952 158.5293 194.30078 C 155.42284 192.03208 151.15519 188.90496 147.47852 186.5957 C 143.80184 184.28656 136.66797 180.56445 136.66797 180.56445 L 127.42383 176.01172 z" transform="matrix(0.26458333,0,0,0.26458333,0,229.26666)" style="fill:#dedede"/>
  <path style="opacity:0.5;fill:none;stroke:url(#linearGradient1108);stroke-width:8;stroke-linecap:round;stroke-linejoin:round" d="M 361.9375,-212 C 507.2348,-212 528,-191.28677 528,-46.125 V 70.125 C 528,215.28618 507.2348,236 361.9375,236 H 214.0625 C 68.7652,236 48,215.28618 48,70.125 V -46.125 C 48,-191.28677 68.7652,-212 214.0625,-212 Z" clip-path="url(#clipPath1082-3-36753)" transform="matrix(0.13229167,0,0,0.13229167,-4.8768016,261.66013)"/>
  <path d="m 64.950567,252.6913 c -0.143981,0.021 -0.273616,0.0211 -0.393774,0.0568 -0.608788,0.18119 -1.35563,0.57522 -1.717209,0.82579 -0.361575,0.25057 -0.589309,0.43506 -0.973066,0.80925 -0.383752,0.37418 -0.940716,1.00833 -1.316715,1.44745 -0.376005,0.43914 -0.708914,0.80049 -0.997358,1.17719 -0.288427,0.37673 -0.450066,0.60563 -0.760677,1.03095 -0.310599,0.42531 -0.73856,1.00919 -1.054713,1.51257 -0.316156,0.50338 -0.825791,1.48001 -0.825791,1.48001 l -0.623219,1.26556 0.623219,1.26607 c 0,0 0.509635,0.97662 0.825791,1.48001 0.316153,0.50337 0.744114,1.08725 1.054713,1.51257 0.310611,0.42532 0.47225,0.65371 0.760677,1.03043 0.288444,0.37672 0.621353,0.73858 0.997358,1.17771 0.375999,0.43912 0.932958,1.07326 1.316715,1.44745 0.383757,0.37418 0.611491,0.55919 0.973066,0.80977 0.361579,0.25057 1.108421,0.64409 1.717209,0.82527 0.108551,0.0323 0.253508,0.0489 0.390157,0.0698 0.0076,-0.007 0.01614,-0.0131 0.02429,-0.0196 0.0049,-0.52493 0.03566,-0.93235 0.03566,-1.48415 v -15.3789 c 0,-0.87073 -0.04375,-1.53766 -0.05633,-2.34198 z" style="fill:#dedede"/>
 </g>
</svg>
