<svg width="256" height="256" version="1.1" viewBox="0 0 67.73 67.73" xmlns="http://www.w3.org/2000/svg" xmlns:xlink="http://www.w3.org/1999/xlink">
 <defs>
  <linearGradient id="linearGradient1108" x1="296" x2="296" y1="-212" y2="236" gradientUnits="userSpaceOnUse">
   <stop style="stop-color:#ffffff" offset="0"/>
   <stop style="stop-color:#ffffff;stop-opacity:.09803922" offset=".125"/>
   <stop style="stop-color:#000000;stop-opacity:.09803922" offset=".925"/>
   <stop style="stop-color:#000000;stop-opacity:.49803922" offset="1"/>
  </linearGradient>
  <clipPath id="clipPath1082-3-36753">
   <path d="M 361.9375,-212 C 507.2348,-212 528,-191.28677 528,-46.125 V 70.125 C 528,215.28618 507.2348,236 361.9375,236 H 214.0625 C 68.7652,236 48,215.28618 48,70.125 V -46.125 C 48,-191.28677 68.7652,-212 214.0625,-212 Z" style="fill:#8c59d9"/>
  </clipPath>
  <filter id="filter904" x="-.02" y="-.03" width="1.046" height="1.05" style="color-interpolation-filters:sRGB">
   <feGaussianBlur stdDeviation="2.32"/>
  </filter>
  <filter id="filter4569" x="-.01" y="-.01" width="1.023" height="1.025" style="color-interpolation-filters:sRGB">
   <feGaussianBlur stdDeviation="1.16"/>
  </filter>
 </defs>
 <g transform="translate(0,-229.26666)">
  <path transform="matrix(.26458333 0 0 .26458333 -1.8735229e-8 232.67026)" d="m162.53675 3.5680001c72.64865 0 83.03125 10.356615 83.03125 82.937505v58.125005c0 72.58059-10.3826 82.9375-83.03125 82.9375h-73.937496c-72.648654 0-83.031254-10.35691-83.031254-82.9375v-58.125005c0-72.58089 10.3826-82.937505 83.031254-82.937505z" style="filter:url(#filter4569);opacity:.1"/>
  <path transform="matrix(.26458333 0 0 .26458333 -1.8735229e-8 232.67026)" d="m162.53675 5.5680001c72.64865 0 83.03125 10.356615 83.03125 82.937505v58.125005c0 72.58059-10.3826 82.9375-83.03125 82.9375h-73.937496c-72.648654 0-83.031254-10.35691-83.031254-82.9375v-58.125005c0-72.58089 10.3826-82.937505 83.031254-82.937505z" style="filter:url(#filter904);opacity:.2"/>
  <path d="m43.004515 233.61429c19.221622 0 21.968685 2.74019 21.968685 21.94388v15.37891c0 19.20362-2.747063 21.94388-21.968685 21.94388h-19.56263c-19.221622 0-21.968685-2.74026-21.968685-21.94388v-15.37891c0-19.20369 2.7470629-21.94388 21.968685-21.94388z" style="fill:#dc730e"/>
  <path d="m23.441093 292.88175c-19.221623 0-21.968687-2.82913-21.968687-22.65611v-7.93903h63.500006v7.93903c0 19.82698-2.747062 22.65611-21.968687 22.65611z" style="fill:#ffffff;opacity:.25"/>
  <path transform="matrix(.26458333 0 0 .26458333 0 229.26666)" d="m95.300781 16.431641c-0.037653 0.038955-0.079517 0.07238-0.117187 0.111328 0.071055 1.759219 0.229094 5.042971 0.617187 7.257812 0.779736 4.446501 2.476373 9.899995 3.554688 12.541016 1.078311 2.640869 1.872121 4.306402 3.482421 7.109375 1.61027 2.802935 4.33876 6.868916 6.22852 9.615234 1.8898 2.746356 3.4472 5.180325 5.06836 7.28711 1.62124 2.10667 2.60325 3.283997 4.43359 5.552734 1.83028 2.268699 4.34545 5.397778 6.51172 7.707031 2.16626 2.30914 6.36914 6.03125 6.36914 6.03125l5.44531 4.552735 5.44727-4.552735s4.20283-3.72211 6.36914-6.03125c2.16622-2.309253 4.68139-5.438332 6.51172-7.707031 1.83034-2.268737 2.81242-3.446064 4.43359-5.552734 1.6212-2.106785 3.17665-4.540754 5.06641-7.28711 1.88971-2.746318 4.61822-6.812299 6.22851-9.615234 1.61026-2.802973 2.40602-4.468506 3.48438-7.109375 1.07831-2.641021 2.77495-8.094515 3.55468-12.541016 0.13894-0.792831 0.20884-1.851511 0.29883-2.849609-0.14075-0.261543-0.25277-0.575476-0.40039-0.826172-0.63735-1.083213-1.33656-2.05934-2.10351-2.941406-0.14405-0.165671-0.32184-0.286308-0.47071-0.445313-4.23243-0.103064-8.02695-0.30664-12.77734-0.30664h-67.236329zm-74.347656 13.335937c-0.352681 0.321941-0.775918 0.579085-1.113281 0.916016-1.459592 1.45772-2.77637 3.056644-3.964844 4.810547-1.188474 1.753902-2.248715 3.66287-3.191406 5.738281s-1.767993 4.317989-2.490235 6.740234c-0.7222406 2.422245-1.3400612 5.023955-1.8671871 7.81836-0.527126 2.794404-0.9629686 5.780765-1.3203125 8.972656s-0.6367138 6.588422-0.8496094 10.203125c-0.4257911 7.229405-0.5878906 15.329734-0.5878906 24.402344v58.124999c0 9.07258 0.1620995 17.17296 0.5878906 24.40234 0.2128956 3.6147 0.4922655 7.01124 0.8496094 10.20313 0.3573439 3.19188 0.7931865 6.18021 1.3203125 8.97461 0.5271259 2.7944 1.1449465 5.39611 1.8671871 7.81836 0.722242 2.42224 1.547544 4.66482 2.490235 6.74023 0.688432 1.51564 1.512389 2.8471 2.330078 4.18946 2.370519-0.16296 6.792951-0.522 9.777344-1.41016 5.991419-1.78314 13.341905-5.66093 16.90039-8.12695 3.55849-2.46599 5.801364-4.28422 9.578125-7.9668 3.776757-3.68255 9.256586-9.9224 12.957031-14.24414 3.700449-4.32174 6.979647-7.88044 9.81836-11.58789 2.838712-3.70749 4.425547-5.95679 7.482422-10.14258 3.056882-4.18579 7.271339-9.93462 10.382812-14.88867 3.11147-4.95406 8.126954-14.56641 8.126954-14.56641l6.13477-12.45508-6.13477-12.45703s-5.015484-9.61239-8.126954-14.566404c-3.111473-4.954053-7.325934-10.702883-10.382812-14.888672-3.056875-4.185789-4.64371-6.433135-7.482422-10.140625-2.838713-3.707489-6.117911-7.266189-9.81836-11.58789-3.700445-4.321701-9.18027-10.561558-12.957031-14.244141-3.776757-3.682545-6.019635-5.502722-9.578125-7.96875-3.558485-2.466028-10.908971-6.343847-16.90039-8.126953-1.068342-0.317962-2.493058-0.479275-3.837891-0.685547zm106.4707 146.24414-9.24414 4.55273s-7.1338 3.72211-10.81055 6.03125c-3.67661 2.30926-7.944251 5.43638-11.050781 7.70508-3.106529 2.26874-4.773834 3.44606-7.52539 5.55274-2.751557 2.10678-5.392208 4.54077-8.59961 7.2871-3.207318 2.74632-7.839191 6.81426-10.572265 9.61719-2.732999 2.80298-4.083834 4.46656-5.914063 7.10742-1.830164 2.64102-4.707841 8.09647-6.03125 12.54297-0.23588 0.79283-0.355108 1.84956-0.507812 2.84766 0.002791 0.00306 0.005034 0.00671 0.007812 0.00976 2.278372 0.21139 4.519218 0.43452 6.998047 0.58008 7.236602 0.42496 15.344702 0.58594 24.425781 0.58594h73.937501c9.08108 0 17.18918-0.16098 24.42578-0.58594 3.6183-0.21247 7.01771-0.49095 10.21289-0.84765 0.16954-0.01893 0.30818-0.05094 0.47656-0.07032-0.14128-0.87477-0.26204-1.78505-0.48046-2.51953-1.32342-4.4465-4.2011-9.90195-6.03126-12.54297-1.83013-2.64086-3.18098-4.30444-5.91406-7.10742-2.733-2.80293-7.36291-6.87087-10.57031-9.61719-3.20747-2.74633-5.84813-5.18032-8.59961-7.2871-2.75163-2.10668-4.42081-3.284-7.52734-5.55274-3.10646-2.2687-7.37411-5.39582-11.05078-7.70508-3.67668-2.30914-10.81055-6.03125-10.81055-6.03125l-9.24414-4.55273z" style="fill:#dedede"/>
  <path transform="matrix(.13229167 0 0 .13229167 -4.8768016 261.66013)" d="M 361.9375,-212 C 507.2348,-212 528,-191.28677 528,-46.125 V 70.125 C 528,215.28618 507.2348,236 361.9375,236 H 214.0625 C 68.7652,236 48,215.28618 48,70.125 V -46.125 C 48,-191.28677 68.7652,-212 214.0625,-212 Z" clip-path="url(#clipPath1082-3-36753)" style="fill:none;opacity:.5;stroke-linecap:round;stroke-linejoin:round;stroke-width:8;stroke:url(#linearGradient1108)"/>
  <path d="m64.950567 252.6913c-0.143981 0.021-0.273616 0.0211-0.393774 0.0568-0.608788 0.18119-1.35563 0.57522-1.717209 0.82579-0.361575 0.25057-0.589309 0.43506-0.973066 0.80925-0.383752 0.37418-0.940716 1.00833-1.316715 1.44745-0.376005 0.43914-0.708914 0.80049-0.997358 1.17719-0.288427 0.37673-0.450066 0.60563-0.760677 1.03095-0.310599 0.42531-0.73856 1.00919-1.054713 1.51257-0.316156 0.50338-0.825791 1.48001-0.825791 1.48001l-0.623219 1.26556 0.623219 1.26607s0.509635 0.97662 0.825791 1.48001c0.316153 0.50337 0.744114 1.08725 1.054713 1.51257 0.310611 0.42532 0.47225 0.65371 0.760677 1.03043 0.288444 0.37672 0.621353 0.73858 0.997358 1.17771 0.375999 0.43912 0.932958 1.07326 1.316715 1.44745 0.383757 0.37418 0.611491 0.55919 0.973066 0.80977 0.361579 0.25057 1.108421 0.64409 1.717209 0.82527 0.108551 0.0323 0.253508 0.0489 0.390157 0.0698 0.0076-7e-3 0.01614-0.0131 0.02429-0.0196 0.0049-0.52493 0.03566-0.93235 0.03566-1.48415v-15.3789c0-0.87073-0.04375-1.53766-0.05633-2.34198z" style="fill:#dedede"/>
 </g>
</svg>
