<svg width="256" height="256" version="1.1" viewBox="0 0 67.73 67.73" xmlns="http://www.w3.org/2000/svg" xmlns:xlink="http://www.w3.org/1999/xlink">
 <defs>
  <linearGradient id="linearGradient1108" x1="296" x2="296" y1="-212" y2="236" gradientUnits="userSpaceOnUse">
   <stop style="stop-color:#ffffff" offset="0"/>
   <stop style="stop-color:#ffffff;stop-opacity:.09803922" offset=".125"/>
   <stop style="stop-color:#000000;stop-opacity:.09803922" offset=".925"/>
   <stop style="stop-color:#000000;stop-opacity:.49803922" offset="1"/>
  </linearGradient>
  <clipPath id="clipPath1082-3-361">
   <path d="M 361.9375,-212 C 507.2348,-212 528,-191.28677 528,-46.125 V 70.125 C 528,215.28618 507.2348,236 361.9375,236 H 214.0625 C 68.7652,236 48,215.28618 48,70.125 V -46.125 C 48,-191.28677 68.7652,-212 214.0625,-212 Z" style="fill:#8c59d9"/>
  </clipPath>
  <filter id="filter4569" x="-.01" y="-.01" width="1.023" height="1.025" style="color-interpolation-filters:sRGB">
   <feGaussianBlur stdDeviation="1.16"/>
  </filter>
  <filter id="filter939" x="-.02" y="-.03" width="1.046" height="1.05" style="color-interpolation-filters:sRGB">
   <feGaussianBlur stdDeviation="2.32"/>
  </filter>
  <filter id="filter913" x="-.05" y="-.05" width="1.095" height="1.097" style="color-interpolation-filters:sRGB">
   <feGaussianBlur stdDeviation=".769"/>
  </filter>
 </defs>
 <g transform="translate(0,-229.26666)">
  <path transform="matrix(.26970779 0 0 .26970779 -1.9098094e-8 231.46531)" d="m162.53675 5.5680001c72.64865 0 83.03125 10.356615 83.03125 82.937505v58.125005c0 72.58059-10.3826 82.9375-83.03125 82.9375h-73.937496c-72.648654 0-83.031254-10.35691-83.031254-82.9375v-58.125005c0-72.58089 10.3826-82.937505 83.031254-82.937505z" style="filter:url(#filter939);opacity:.2"/>
  <path d="m43.837429 232.42763c19.593907 0 22.394176 2.79326 22.394176 22.36889v15.67677c0 19.57555-2.800269 22.36889-22.394176 22.36889h-19.941519c-19.593909 0-22.394177-2.79334-22.394177-22.36889v-15.67677c0-19.57563 2.8002682-22.36889 22.394177-22.36889z" style="fill:none;opacity:.1;stroke-linecap:round;stroke-linejoin:round;stroke-width:1.0788311;stroke:#000000"/>
  <path transform="matrix(.26970779 0 0 .26970779 -1.9098094e-8 231.46531)" d="m162.53675 3.5680001c72.64865 0 83.03125 10.356615 83.03125 82.937505v58.125005c0 72.58059-10.3826 82.9375-83.03125 82.9375h-73.937496c-72.648654 0-83.031254-10.35691-83.031254-82.9375v-58.125005c0-72.58089 10.3826-82.937505 83.031254-82.937505z" style="filter:url(#filter4569);opacity:.1"/>
  <path d="m43.837426 232.42763c19.593907 0 22.394175 2.79326 22.394175 22.36889v15.67677c0 19.57555-2.800268 22.36889-22.394175 22.36889h-19.94152c-19.593907 0-22.394175-2.79334-22.394175-22.36889v-15.67677c0-19.57563 2.8002682-22.36889 22.394175-22.36889z" style="fill:#5f5c59"/>
  <path d="m33.866666 232.42763v60.41455h9.970761c19.593907 0 22.394175-2.79334 22.394175-22.36889v-15.67677c0-19.57563-2.800268-22.36889-22.394175-22.36889z" style="fill:#ffffff;opacity:.1"/>
  <path transform="matrix(.1348539 0 0 .1348539 -4.9712559 261.01666)" d="M 361.9375,-212 C 507.2348,-212 528,-191.28677 528,-46.125 V 70.125 C 528,215.28618 507.2348,236 361.9375,236 H 214.0625 C 68.7652,236 48,215.28618 48,70.125 V -46.125 C 48,-191.28677 68.7652,-212 214.0625,-212 Z" clip-path="url(#clipPath1082-3-361)" style="fill:none;opacity:.4;stroke-linecap:round;stroke-linejoin:round;stroke-width:8;stroke:url(#linearGradient1108)"/>
  <path d="m14.463889 280.41412v-1.94028h2.928055c1.807006 0 3.090135-0.16207 3.351389-0.42333 0.608312-0.60831 0.608312-28.88391 0-29.49222-0.261254-0.26126-1.544383-0.42333-3.351389-0.42333h-2.928055v-3.88056h38.805555v14.81667h-3.072971l-0.214533-2.29736c-0.301426-3.22792-0.915828-5.02893-2.16881-6.35748-1.79378-1.90196-3.800743-2.28127-12.070215-2.28127h-7.167914v13.11186l4.226285-0.11774c4.07612-0.11355 4.261-0.15247 5.203473-1.0952 0.820772-0.82101 1.005419-1.35745 1.153575-3.35139l0.17639-2.37392 1.675693-0.10753 1.675694-0.10752v17.67755h-3.175l-0.0199-1.49931c-0.0278-2.09457-0.693922-3.77803-1.827387-4.61838-0.801412-0.59416-1.655148-0.74211-5.027083-0.87118l-4.061743-0.15547v6.55837c0 7.71677-0.257591 7.28874 4.38653 7.28874h3.021803v3.88056h-21.519442z" style="filter:url(#filter913);opacity:.3"/>
  <path d="m14.463889 280.41412v-1.94028h2.928055c1.807006 0 3.090135-0.16207 3.351389-0.42333 0.608312-0.60831 0.608312-28.88391 0-29.49222-0.261254-0.26126-1.544383-0.42333-3.351389-0.42333h-2.928055v-3.88056h38.805555v14.81667h-3.072971l-0.214533-2.29736c-0.301426-3.22792-0.915828-5.02893-2.16881-6.35748-1.79378-1.90196-3.800743-2.28127-12.070215-2.28127h-7.167914v13.11186l4.226285-0.11774c4.07612-0.11355 4.261-0.15247 5.203473-1.0952 0.820772-0.82101 1.005419-1.35745 1.153575-3.35139l0.17639-2.37392 1.675693-0.10753 1.675694-0.10752v17.67755h-3.175l-0.0199-1.49931c-0.0278-2.09457-0.693922-3.77803-1.827387-4.61838-0.801412-0.59416-1.655148-0.74211-5.027083-0.87118l-4.061743-0.15547v6.55837c0 7.71677-0.257591 7.28874 4.38653 7.28874h3.021803v3.88056h-21.519442z" style="fill:#ffcea7"/>
 </g>
</svg>
