<svg width="256" height="256" version="1.1" viewBox="0 0 67.73 67.73" xmlns="http://www.w3.org/2000/svg" xmlns:xlink="http://www.w3.org/1999/xlink">
 <defs>
  <linearGradient id="linearGradient1108-7" x1="296" x2="296" y1="-212" y2="236" gradientUnits="userSpaceOnUse">
   <stop style="stop-color:#ffffff" offset="0"/>
   <stop style="stop-color:#ffffff;stop-opacity:.09803922" offset=".125"/>
   <stop style="stop-color:#000000;stop-opacity:.09803922" offset=".925"/>
   <stop style="stop-color:#000000;stop-opacity:.49803922" offset="1"/>
  </linearGradient>
  <clipPath id="clipPath1082-3-36753">
   <path d="M 361.9375,-212 C 507.2348,-212 528,-191.28677 528,-46.125 V 70.125 C 528,215.28618 507.2348,236 361.9375,236 H 214.0625 C 68.7652,236 48,215.28618 48,70.125 V -46.125 C 48,-191.28677 68.7652,-212 214.0625,-212 Z" style="fill:#8c59d9"/>
  </clipPath>
  <linearGradient id="linearGradient4134" x1="211.404" x2="211.404" y1="344.742" y2="375.678" gradientTransform="matrix(.9804643 0 0 .9804643 -179.95032 -89.258974)" gradientUnits="userSpaceOnUse" xlink:href="#linearGradient4289"/>
  <linearGradient id="linearGradient4289">
   <stop style="stop-color:#ffffff" offset="0"/>
   <stop style="stop-color:#dbfffe" offset="1"/>
  </linearGradient>
  <linearGradient id="linearGradient4143" x1="333.765" x2="336.966" y1="309.522" y2="352.066" gradientTransform="matrix(.13229166 0 0 .13229166 -.64346832 229.38096)" gradientUnits="userSpaceOnUse" xlink:href="#linearGradient4289"/>
  <filter id="filter4500" x="-.01" y="-.01" width="1.021" height="1.028" style="color-interpolation-filters:sRGB">
   <feGaussianBlur stdDeviation="1.346"/>
  </filter>
  <linearGradient id="linearGradient4479" x1="211.404" x2="232.776" y1="344.742" y2="375.408" gradientTransform="matrix(7.4113839,0,0,7.4113839,-1355.3904,-2406.6168)" gradientUnits="userSpaceOnUse">
   <stop style="stop-color:#000000;stop-opacity:0" offset="0"/>
   <stop style="stop-color:#000000" offset=".67"/>
   <stop style="stop-color:#000000;stop-opacity:0" offset="1"/>
  </linearGradient>
  <filter id="filter958" x="-.02" y="-.03" width="1.046" height="1.05" style="color-interpolation-filters:sRGB">
   <feGaussianBlur stdDeviation="2.32"/>
  </filter>
  <filter id="filter4569" x="-.01" y="-.01" width="1.023" height="1.025" style="color-interpolation-filters:sRGB">
   <feGaussianBlur stdDeviation="1.16"/>
  </filter>
  <linearGradient id="linearGradient1713" x1="12.057" x2="21.399" y1="273.055" y2="273.055" gradientUnits="userSpaceOnUse">
   <stop style="stop-color:#3fe2e1" offset="0"/>
   <stop style="stop-color:#3fe2e1;stop-opacity:0" offset="1"/>
  </linearGradient>
 </defs>
 <g inkscape:label="Fractal" transform="translate(0,-229.26666)">
  <path transform="matrix(.26458333 0 0 .26458333 -1.8735229e-8 232.67026)" d="m162.53675 3.5680001c72.64865 0 83.03125 10.356615 83.03125 82.937505v58.125005c0 72.58059-10.3826 82.9375-83.03125 82.9375h-73.937496c-72.648654 0-83.031254-10.35691-83.031254-82.9375v-58.125005c0-72.58089 10.3826-82.937505 83.031254-82.937505z" style="filter:url(#filter4569);opacity:.1"/>
  <path transform="matrix(.26458333 0 0 .26458333 -1.8735229e-8 232.67026)" d="m162.53675 5.5680001c72.64865 0 83.03125 10.356615 83.03125 82.937505v58.125005c0 72.58059-10.3826 82.9375-83.03125 82.9375h-73.937496c-72.648654 0-83.031254-10.35691-83.031254-82.9375v-58.125005c0-72.58089 10.3826-82.937505 83.031254-82.937505z" style="filter:url(#filter958);opacity:.2"/>
  <path d="m43.004513 233.61429c19.221622 0 21.968685 2.74019 21.968685 21.94388v15.37891c0 19.20362-2.747063 21.94388-21.968685 21.94388h-19.56263c-19.221622 0-21.968685-2.74026-21.968685-21.94388v-15.37891c0-19.20369 2.7470629-21.94388 21.968685-21.94388z" style="fill:#46ecea"/>
  <path d="m64.941159 252.37749-53.315092 39.72006c3.00092 0.59984 6.85916 0.78341 11.815816 0.78341h19.56263c19.221622 0 21.968685-2.74026 21.968685-21.94388v-15.37891c0-1.11685-0.01077-2.1725-0.03204-3.18068z" style="fill:#ffffff;opacity:.15"/>
  <path transform="matrix(.13229167 0 0 .13229167 -.64346832 229.38096)" d="m132.66406 147.40039c-14.29675-0.17869-23.90367 3.03093-28.83398 8.94727-5.17678 6.16289-7.83008 16.27482-7.83008 30.32617v128.11914c0 14.05139 2.6533 24.16133 7.83008 30.32422 4.93031 5.91635 14.53612 8.94922 28.83398 8.94922h33.95703l44.78321 31.61132 44.7832-31.61132h123.14844c14.29779 0 23.90344-3.03287 28.83398-8.94922 5.17678-6.16289 7.83008-16.27283 7.83008-30.32422v-128.11914c0-14.05135-2.6533-24.16328-7.83008-30.32617-4.9302-5.91634-14.53619-8.94727-28.83398-8.94727h-181.75z" style="fill:url(#linearGradient4479);filter:url(#filter4482);opacity:.2"/>
  <path transform="matrix(.13229167 0 0 .13229167 -.64346832 229.38096)" d="m132.66406 147.40039c-14.29675-0.17869-23.90367 3.03093-28.83398 8.94727-5.17678 6.16289-7.83008 16.27482-7.83008 30.32617v128.11914c0 14.05139 2.6533 24.16133 7.83008 30.32422 4.93031 5.91635 14.53612 8.94922 28.83398 8.94922h33.95703l44.78321 31.61132 44.7832-31.61132h123.14844c14.29779 0 23.90344-3.03287 28.83398-8.94922 5.17678-6.16289 7.83008-16.27283 7.83008-30.32422v-128.11914c0-14.05135-2.6533-24.16328-7.83008-30.32617-4.9302-5.91634-14.53619-8.94727-28.83398-8.94727h-181.75z" style="filter:url(#filter4500);opacity:.1"/>
  <path d="m12.056532 256.89763v13.86323c0 1.85889 0.35075 3.19635 1.035595 4.01165 0.652239 0.78268 1.923267 1.1839 3.814755 1.1839h4.492233l5.924184 4.18218 5.924703-4.18218h16.291513c1.891479 0 3.162482-0.40122 3.814754-1.1839 0.684842-0.8153 1.035595-2.15276 1.035595-4.01165v-13.86323z" style="fill:url(#linearGradient4143)"/>
  <path d="m16.906867 248.43096c-1.891341-0.0236-3.162263 0.42269-3.814502 1.20538-0.684845 0.8153-1.035833 2.15293-1.035833 4.0118v16.4606l9.342548 5.8477 5.924412 4.18194 5.924396-4.18194h1.1e-5l21.141965-16.05361v-6.25469c0-1.85888-0.350959-3.1965-1.035804-4.0118-0.652224-0.78268-1.923026-1.20538-3.814506-1.20538h-24.043996z" style="fill:url(#linearGradient4134)"/>
  <path d="m12.056532 270.10874v0.65209c0 1.85888 0.350988 3.1965 1.035833 4.0118 0.652239 0.78268 1.936002 1.40509 3.814502 1.18381h4.492213z" style="fill:url(#linearGradient1713);opacity:.1"/>
  <path d="m16.906882 248.43096c-1.891341-0.0236-3.162515 0.42293-3.814755 1.20561-0.684844 0.8153-1.035595 2.15277-1.035595 4.01164v0.52917c0-1.85887 0.350751-3.19634 1.035595-4.01164 0.65224-0.78269 1.923414-1.22925 3.814755-1.20561h32.632633c1.891479 0 3.16253 0.42293 3.814754 1.20561 0.684845 0.8153 1.035595 2.15276 1.035595 4.01164v-0.52917c0-1.85887-0.35075-3.19634-1.035595-4.01164-0.652224-0.78268-1.923275-1.20561-3.814754-1.20561h-24.04401z" style="fill:#ffffff"/>
  <path transform="matrix(.13229167 0 0 .13229167 -4.8768014 261.66013)" d="M 361.9375,-212 C 507.2348,-212 528,-191.28677 528,-46.125 V 70.125 C 528,215.28618 507.2348,236 361.9375,236 H 214.0625 C 68.7652,236 48,215.28618 48,70.125 V -46.125 C 48,-191.28677 68.7652,-212 214.0625,-212 Z" clip-path="url(#clipPath1082-3-36753)" style="fill:none;opacity:.6;stroke-linecap:round;stroke-linejoin:round;stroke-width:8;stroke:url(#linearGradient1108-7)"/>
  <path transform="matrix(.26458333 0 0 .26458333 0 229.26666)" d="m142.55078 72.431641c-7.69949 1.906036-13.50566 4.248156-19.11523 7.826171-9.41453 6.005027-16.07226 14.1647-19.33008 23.689458-3.80438 11.12269-2.087 23.7615 4.56055 33.55664 2.39465 3.52845 6.27705 7.49208 9.36523 9.56054 2.42397 1.6235 6.93001 3.62177 10.00586 4.4375 3.99039 1.05971 10.89058 1.0628 14.71875 0.00782 9.37473-2.58369 16.21356-8.90086 18.32031-16.91993 2.45357-9.3391-2.3765-19.06931-10.82617-21.80664-3.18742-1.0326-7.42018-0.84247-10.14453 0.45508-6.07502 2.89349-8.31235 9.64556-4.69141 14.1582 2.46944 3.07775 7.39705 3.23468 9.23828 0.29493 0.36749-0.58674 0.66736-1.4857 0.66797-1.99805 0.00159-1.15555-1.37718-2.56836-2.50781-2.56836-0.9815 0-1.75471 0.78543-1.47461 1.49609 0.23861 0.60541 0.94017 0.68071 0.81836 0.08789-0.04707-0.22869 0.14533-0.41601 0.42773-0.41601 0.34081 0 0.51368 0.33122 0.51368 0.98633 0 1.41891-1.35777 2.1388-2.87891 1.52539-1.95686-0.78902-2.64069-3.27078-1.5293-5.55078 0.69408-1.42394 1.94779-2.30783 3.97461-2.80469 3.40692-0.83513 7.56632 1.4728 9.16211 5.08398 0.64568 1.46177 0.74009 2.15842 0.61328 4.57422-0.18422 3.5096-1.3891 6.07323-3.95117 8.40625-2.06128 1.87699-3.82414 2.78572-6.66406 3.4375-2.69197 0.6186-4.26563 0.62128-7.2207 0.01172-7.71116-1.59058-13.69234-7.52454-15.48243-15.35742-0.78431-3.43189-0.54703-9.03678 0.52149-12.30859 4.03229-12.346857 15.24774-20.149343 29.10351-20.246099 8.30705-0.057978 15.91366 2.302309 22.9336 7.115235 7.38357 5.062144 13.44574 13.702764 15.91406 22.681644 0.59943 2.18053 0.97851 4.41242 1.22461 6.66211 1.86533 17.05158-6.16424 35.49999-20.9043 46.53906-0.917 0.68674-1.25171 0.94972-1.86328 1.41601h21.18555c1.78722 0 3.42777-0.09485 4.92187-0.2832 1.49411-0.18835 2.84173-0.46935 4.04297-0.84375 1.20125-0.37439 2.25542-0.84227 3.16406-1.40039 0.90865-0.55812 1.6708-1.20773 2.28711-1.94727 0.6471-0.77036 1.21673-1.66262 1.70508-2.67968 0.48835-1.01707 0.89703-2.15824 1.22461-3.42188s0.57348-2.65006 0.73828-4.16015c0.1648-1.5101 0.24805-3.14397 0.24805-4.9004v-41.0371-23.640629c0-1.756422-0.08325-3.390296-0.24805-4.900391s-0.4107-2.896514-0.73828-4.160156c-0.32758-1.263643-0.73626-2.40481-1.22461-3.421875s-1.05798-1.909326-1.70508-2.679688c-0.61627-0.73954-1.37847-1.39517-2.28711-1.960937s-1.9628-1.043149-3.16406-1.427735c-1.20125-0.384585-2.54885-0.675097-4.04297-0.871093-1.49411-0.195997-3.13465-0.296875-4.92187-0.296875h-11.93164-32.75391z" style="fill:#487bbb"/>
 </g>
</svg>
