<svg xmlns="http://www.w3.org/2000/svg" xmlns:xlink="http://www.w3.org/1999/xlink" width="256" height="256" version="1.1" viewBox="0 0 67.73 67.73">
 <defs>
  <linearGradient id="linearGradient3650-7-9">
   <stop style="stop-color:#5884f4" offset="0"/>
   <stop offset="1" style="stop-color:#80a3fa"/>
  </linearGradient>
  <linearGradient id="linearGradient1108-7" x1="296" x2="296" y1="-212" y2="236" gradientUnits="userSpaceOnUse" xlink:href="#linearGradient1013"/>
  <linearGradient id="linearGradient1013">
   <stop offset="0" style="stop-color:#ffffff"/>
   <stop style="stop-color:#ffffff;stop-opacity:0.09803922" offset=".125"/>
   <stop style="stop-color:#000000;stop-opacity:0.09803922" offset=".925"/>
   <stop offset="1" style="stop-color:#000000;stop-opacity:0.49803922"/>
  </linearGradient>
  <clipPath id="clipPath1082-3-69" clipPathUnits="userSpaceOnUse">
   <path d="M 361.9375,-212 C 507.2348,-212 528,-191.28677 528,-46.125 V 70.125 C 528,215.28618 507.2348,236 361.9375,236 H 214.0625 C 68.7652,236 48,215.28618 48,70.125 V -46.125 C 48,-191.28677 68.7652,-212 214.0625,-212 Z" style="fill:#8c59d9"/>
  </clipPath>
  <linearGradient id="linearGradient985" x1="24" x2="376" y1="28" y2="380" gradientTransform="matrix(0.26970778,0,0,0.26970778,-7.1289177,220.56049)" gradientUnits="userSpaceOnUse" xlink:href="#linearGradient3650-7-9"/>
  <filter style="color-interpolation-filters:sRGB" id="filter958" width="1.046" height="1.05" x="-.02" y="-.03">
   <feGaussianBlur stdDeviation="2.32"/>
  </filter>
  <filter style="color-interpolation-filters:sRGB" id="filter4569" width="1.023" height="1.025" x="-.01" y="-.01">
   <feGaussianBlur stdDeviation="1.16"/>
  </filter>
  <filter style="color-interpolation-filters:sRGB" id="filter986" width="1.077" height="1.128" x="-.04" y="-.06">
   <feGaussianBlur stdDeviation=".678"/>
  </filter>
 </defs>
 <g transform="translate(0,-229.26666)">
  <path d="m 188.96876,43.999995 c 72.64865,0 83.03125,10.356615 83.03125,82.937505 v 58.125 c 0,72.58059 -10.3826,82.9375 -83.03125,82.9375 h -73.9375 C 42.382606,268 32.000006,257.64309 32.000006,185.0625 v -58.125 c 0,-72.58089 10.3826,-82.937505 83.031254,-82.937505 z" transform="matrix(0.26970778,0,0,0.26970778,-7.1289177,220.56049)" style="opacity:0.1;filter:url(#filter4569)"/>
  <path style="opacity:0.2;filter:url(#filter958)" d="m 188.96876,45.999995 c 72.64865,0 83.03125,10.356615 83.03125,82.937505 v 58.125 c 0,72.58059 -10.3826,82.9375 -83.03125,82.9375 h -73.9375 C 42.382606,270 32.000006,259.64309 32.000006,187.0625 v -58.125 c 0,-72.58089 10.3826,-82.937505 83.031254,-82.937505 z" transform="matrix(0.26970778,0,0,0.26970778,-7.1289177,220.56049)"/>
  <path style="fill:url(#linearGradient985)" d="m 43.837426,232.42763 c 19.593907,0 22.394175,2.79326 22.394175,22.36889 v 15.67677 c 0,19.57555 -2.800268,22.36888 -22.394175,22.36888 h -19.94152 c -19.5939063,0 -22.3941745,-2.79333 -22.3941745,-22.36888 v -15.67677 c 0,-19.57563 2.8002682,-22.36889 22.3941745,-22.36889 z"/>
  <path style="opacity:0.1;fill:#ffffff" d="m 66.198941,251.55423 -54.3477,40.48936 c 3.059042,0.61146 6.992009,0.79858 12.044665,0.79858 h 19.94152 c 19.593907,0 22.394175,-2.79333 22.394175,-22.36888 v -15.67677 c 0,-1.13848 -0.01098,-2.21458 -0.03266,-3.24229 z"/>
  <path d="M 361.9375,-212 C 507.2348,-212 528,-191.28677 528,-46.125 V 70.125 C 528,215.28618 507.2348,236 361.9375,236 H 214.0625 C 68.7652,236 48,215.28618 48,70.125 V -46.125 C 48,-191.28677 68.7652,-212 214.0625,-212 Z" clip-path="url(#clipPath1082-3-69)" transform="matrix(0.13485389,0,0,0.13485389,-4.9712555,261.01666)" style="opacity:0.6;fill:none;stroke:url(#linearGradient1108-7);stroke-width:8;stroke-linecap:round;stroke-linejoin:round"/>
  <path d="m 20.137155,270.92817 c -0.976166,-0.68374 -2.650934,-3.33953 -2.316708,-3.67375 0.08646,-0.0864 2.177055,-0.0366 4.645794,0.11073 l 4.488612,0.26787 v 1.45412 c 0,0.79978 -0.24905,1.70318 -0.553414,2.00756 -0.803642,0.80364 -5.040044,0.69115 -6.264284,-0.16637 z m 23.512364,0.16636 c -0.304377,-0.30438 -0.553414,-1.23826 -0.553414,-2.07531 v -1.52187 l 2.651778,-0.0196 c 1.458477,-0.0112 3.533782,-0.1907 4.611785,-0.39926 1.154583,-0.22341 1.960009,-0.20579 1.960009,0.0431 0,0.87289 -1.416228,3.11401 -2.405873,3.8072 -1.224241,0.85749 -5.460643,0.96998 -6.264285,0.16637 z m -25.149237,-6.56437 c -2.66289,-0.71572 -4.637422,-2.08507 -4.826834,-3.3474 -0.124428,-0.82922 0.121967,-0.91654 2.536483,-0.89879 3.335768,0.0252 5.006667,-0.81124 8.744996,-4.37414 3.13197,-2.98497 3.628483,-3.11508 7.378243,-1.93307 2.306943,0.72721 2.616496,0.72721 4.923443,0 1.353947,-0.42677 2.912475,-0.77598 3.463397,-0.77598 0.599151,0 2.372329,1.27089 4.412503,3.16255 3.712333,3.44211 6.261035,4.51837 9.334695,3.94172 1.506168,-0.28254 1.610429,-0.22732 1.466384,0.77643 -0.327395,2.28136 -4.997395,4.10994 -10.496311,4.10994 -3.238373,0 -5.839567,-0.85783 -8.589528,-2.8327 l -2.052863,-1.47425 -2.052863,1.47425 c -1.129074,0.81082 -2.919174,1.7799 -3.978001,2.15346 -2.335948,0.82419 -7.232319,0.83274 -10.263744,0.0168 z m -0.960803,-12.12057 c 0.173667,-3.24275 0.402924,-5.99366 0.50945,-6.11314 0.398568,-0.44704 1.01048,1.17082 1.552799,4.10546 0.307909,1.66621 0.860803,3.624 1.228653,4.35069 0.764865,1.51097 0.56846,1.80982 -1.854056,2.8212 l -1.752618,0.73169 z m 32.591379,4.95501 -1.958228,-0.88889 0.868976,-1.52218 c 0.477939,-0.83719 1.116137,-2.88541 1.418219,-4.55162 0.530553,-2.92636 1.142138,-4.5563 1.540437,-4.10546 0.366239,0.41456 0.793318,11.97725 0.442016,11.96715 -0.194246,-0.006 -1.234393,-0.4101 -2.31142,-0.899 z" style="filter:url(#filter986);opacity:0.3"/>
  <path style="fill:#ffffff" d="m 20.137155,270.92817 c -0.976166,-0.68374 -2.650934,-3.33953 -2.316708,-3.67375 0.08646,-0.0864 2.177055,-0.0366 4.645794,0.11073 l 4.488612,0.26787 v 1.45412 c 0,0.79978 -0.24905,1.70318 -0.553414,2.00756 -0.803642,0.80364 -5.040044,0.69115 -6.264284,-0.16637 z m 23.512364,0.16636 c -0.304377,-0.30438 -0.553414,-1.23826 -0.553414,-2.07531 v -1.52187 l 2.651778,-0.0196 c 1.458477,-0.0112 3.533782,-0.1907 4.611785,-0.39926 1.154583,-0.22341 1.960009,-0.20579 1.960009,0.0431 0,0.87289 -1.416228,3.11401 -2.405873,3.8072 -1.224241,0.85749 -5.460643,0.96998 -6.264285,0.16637 z m -25.149237,-6.56437 c -2.66289,-0.71572 -4.637422,-2.08507 -4.826834,-3.3474 -0.124428,-0.82922 0.121967,-0.91654 2.536483,-0.89879 3.335768,0.0252 5.006667,-0.81124 8.744996,-4.37414 3.13197,-2.98497 3.628483,-3.11508 7.378243,-1.93307 2.306943,0.72721 2.616496,0.72721 4.923443,0 1.353947,-0.42677 2.912475,-0.77598 3.463397,-0.77598 0.599151,0 2.372329,1.27089 4.412503,3.16255 3.712333,3.44211 6.261035,4.51837 9.334695,3.94172 1.506168,-0.28254 1.610429,-0.22732 1.466384,0.77643 -0.327395,2.28136 -4.997395,4.10994 -10.496311,4.10994 -3.238373,0 -5.839567,-0.85783 -8.589528,-2.8327 l -2.052863,-1.47425 -2.052863,1.47425 c -1.129074,0.81082 -2.919174,1.7799 -3.978001,2.15346 -2.335948,0.82419 -7.232319,0.83274 -10.263744,0.0168 z m -0.960803,-12.12057 c 0.173667,-3.24275 0.402924,-5.99366 0.50945,-6.11314 0.398568,-0.44704 1.01048,1.17082 1.552799,4.10546 0.307909,1.66621 0.860803,3.624 1.228653,4.35069 0.764865,1.51097 0.56846,1.80982 -1.854056,2.8212 l -1.752618,0.73169 z m 32.591379,4.95501 -1.958228,-0.88889 0.868976,-1.52218 c 0.477939,-0.83719 1.116137,-2.88541 1.418219,-4.55162 0.530553,-2.92636 1.142138,-4.5563 1.540437,-4.10546 0.366239,0.41456 0.793318,11.97725 0.442016,11.96715 -0.194246,-0.006 -1.234393,-0.4101 -2.31142,-0.899 z"/>
 </g>
</svg>
