<svg xmlns="http://www.w3.org/2000/svg" xmlns:xlink="http://www.w3.org/1999/xlink" width="256" height="256" version="1.1" viewBox="0 0 67.73 67.73">
 <defs>
  <linearGradient id="linearGradient1108" x1="296" x2="296" y1="-212" y2="236" gradientUnits="userSpaceOnUse" xlink:href="#linearGradient1013"/>
  <linearGradient id="linearGradient1013">
   <stop offset="0" style="stop-color:#ffffff"/>
   <stop style="stop-color:#ffffff;stop-opacity:0.09803922" offset=".125"/>
   <stop style="stop-color:#000000;stop-opacity:0" offset=".925"/>
   <stop offset="1" style="stop-color:#000000;stop-opacity:0"/>
  </linearGradient>
  <clipPath id="clipPath1082-3-78" clipPathUnits="userSpaceOnUse">
   <path d="M 361.9375,-212 C 507.2348,-212 528,-191.28677 528,-46.125 V 70.125 C 528,215.28618 507.2348,236 361.9375,236 H 214.0625 C 68.7652,236 48,215.28618 48,70.125 V -46.125 C 48,-191.28677 68.7652,-212 214.0625,-212 Z" style="fill:#8c59d9"/>
  </clipPath>
  <filter style="color-interpolation-filters:sRGB" id="filter953" width="1.046" height="1.05" x="-.02" y="-.03">
   <feGaussianBlur stdDeviation="2.32"/>
  </filter>
  <filter style="color-interpolation-filters:sRGB" id="filter4569" width="1.023" height="1.025" x="-.01" y="-.01">
   <feGaussianBlur stdDeviation="1.16"/>
  </filter>
 </defs>
 <g transform="translate(0,-229.26666)">
  <path d="m 162.53675,3.5680001 c 72.64865,0 83.03125,10.3566149 83.03125,82.9375049 v 58.125005 c 0,72.58059 -10.3826,82.9375 -83.03125,82.9375 H 88.599254 C 15.9506,227.56801 5.568,217.2111 5.568,144.63051 V 86.505505 c 0,-72.58089 10.3826,-82.9375049 83.031254,-82.9375049 z" transform="matrix(0.26970779,0,0,0.26970779,-1.9098094e-8,231.46531)" style="opacity:0.1;filter:url(#filter4569)"/>
  <path style="opacity:0.2;filter:url(#filter953)" d="m 162.53675,5.5680001 c 72.64865,0 83.03125,10.3566149 83.03125,82.9375049 v 58.125005 c 0,72.58059 -10.3826,82.9375 -83.03125,82.9375 H 88.599254 C 15.9506,229.56801 5.568,219.2111 5.568,146.63051 V 88.505505 c 0,-72.58089 10.3826,-82.9375049 83.031254,-82.9375049 z" transform="matrix(0.26970779,0,0,0.26970779,-1.9098094e-8,231.46531)"/>
  <path d="m 43.837427,232.42763 c 19.593907,0 22.394175,2.79326 22.394175,22.36889 v 15.67677 c 0,19.57555 -2.800268,22.36889 -22.394175,22.36889 h -19.94152 c -19.5939078,0 -22.394176,-2.79334 -22.394176,-22.36889 v -15.67677 c 0,-19.57563 2.8002682,-22.36889 22.394176,-22.36889 z" style="opacity:0.2;fill:#cba606;stroke:#000000;stroke-width:1.07883108;stroke-linecap:round;stroke-linejoin:round"/>
  <path style="fill:#cba606" d="m 43.837427,232.42763 c 19.593907,0 22.394175,2.79326 22.394175,22.36889 v 15.67677 c 0,19.57555 -2.800268,22.36889 -22.394175,22.36889 h -19.94152 c -19.5939078,0 -22.394176,-2.79334 -22.394176,-22.36889 v -15.67677 c 0,-19.57563 2.8002682,-22.36889 22.394176,-22.36889 z"/>
  <path d="M 361.9375,-212 C 507.2348,-212 528,-191.28677 528,-46.125 V 70.125 C 528,215.28618 507.2348,236 361.9375,236 H 214.0625 C 68.7652,236 48,215.28618 48,70.125 V -46.125 C 48,-191.28677 68.7652,-212 214.0625,-212 Z" clip-path="url(#clipPath1082-3-78)" transform="matrix(0.1348539,0,0,0.1348539,-4.9712562,261.01666)" style="opacity:0.5;fill:none;stroke:url(#linearGradient1108);stroke-width:8;stroke-linecap:round;stroke-linejoin:round"/>
  <path d="m 42.832873,235.47101 c 17.61982,0 20.13796,2.51184 20.13796,20.11522 v 14.09734 c 0,17.60331 -2.51814,20.11522 -20.13796,20.11522 H 24.900462 c -17.6198209,0 -20.1379619,-2.51191 -20.1379619,-20.11522 v -14.09734 c 0,-17.60338 2.518141,-20.11522 20.1379619,-20.11522 z" style="fill:#e4d487"/>
  <path style="opacity:0.4" d="M 66.238281 197.49609 C 64.990795 197.53956 63.614513 198.43258 62.238281 200.31641 C 60.776591 202.30829 60.378838 204.88482 60.935547 208.79297 C 61.626705 213.60023 61.326332 214.62967 58.8125 215.91992 C 55.577062 217.57267 54.88694 222.48759 57.535156 225.01953 C 60.164963 227.53915 62.670998 226.87965 63.576172 223.42773 C 64.860633 218.51023 72.059265 217.93608 76.976562 222.35352 C 79.074321 224.23738 80.787109 225.19306 80.787109 224.46875 C 80.787109 223.74837 78.60424 221.12499 75.9375 218.65234 C 71.858109 214.86144 71.099609 213.2457 71.099609 208.36523 C 71.099609 201.47825 68.990446 197.41064 66.238281 197.49609 z" transform="matrix(0.26458333,0,0,0.26458333,0,229.26666)"/>
  <path style="opacity:0.4" d="M 45.480469 179.00195 C 44.336629 178.8863 42.958794 179.49524 41.429688 180.9668 C 38.195024 184.06053 38.683456 190.28142 42.349609 192.74023 C 46.550709 195.56029 48.171039 194.74012 48.703125 189.54297 C 49.357682 183.13327 47.988144 179.26662 45.480469 179.00391 L 45.480469 179.00195 z" transform="matrix(0.26458333,0,0,0.26458333,0,229.26666)"/>
  <path style="opacity:0.4" d="M 18 127.64844 L 18 123.48633 C 17.652769 124.60332 17.626209 125.74142 17.919922 127.35938 C 17.938102 127.45951 17.980786 127.54864 18 127.64844 z" transform="matrix(0.26458333,0,0,0.26458333,0,229.26666)"/>
  <path style="opacity:0.4" d="M 18.03125 154.08594 C 19.051185 153.30643 18.861274 152.57376 18 151.66211 L 18 152.75586 C 18 153.25036 18.030179 153.59772 18.03125 154.08594 z" transform="matrix(0.26458333,0,0,0.26458333,0,229.26666)"/>
  <path style="opacity:0.4" d="M 168.92188 23.619141 C 166.4802 23.58699 164.50346 23.449219 161.88867 23.449219 L 159.28125 23.449219 C 157.42147 24.893533 155.84299 25.067719 152.43555 24.546875 C 144.77826 23.37953 145.76345 26.460079 154.24023 30.183594 C 158.82116 32.194643 161.76845 34.490963 162.77148 36.8125 C 167.60313 48.014415 170.93187 54.046827 172.60156 54.658203 C 175.97762 55.898795 177.98992 53.406244 178.74219 47.039062 C 179.60441 39.7318 182.07544 38.182925 186.51562 42.177734 C 188.24045 43.726471 190.65011 44.998047 191.86719 44.998047 C 195.66511 44.998047 198.4707 46.522768 198.4707 48.580078 C 198.4707 49.666541 199.75625 52.27792 201.32812 54.394531 C 203.64625 57.507426 205.21867 58.253906 209.54883 58.253906 C 214.86368 58.253906 218.12308 59.253089 224.77734 62.927734 C 224.88132 62.971199 224.98587 63.00404 225.08984 63.042969 A 122.32084 122.32084 0 0 0 168.92188 23.619141 z" transform="matrix(0.26458333,0,0,0.26458333,0,229.26666)"/>
  <path style="opacity:0.4" d="M 238 146.81836 L 238 124.64258 C 236.75793 123.77665 235.85352 122.77929 235.85352 121.625 C 235.85352 120.97005 233.66307 118.27267 230.99023 115.63672 C 227.95668 112.65097 226.4029 110.01067 226.85547 108.64062 C 227.27115 107.39236 226.37881 105.38184 224.80078 104.01758 C 223.26551 102.68461 222.00586 100.54115 222.00586 99.257812 C 222.00586 97.20825 220.70424 96.950471 211.2793 97.177734 L 200.55078 97.447266 L 200.73633 108.02344 C 201.05608 126.54256 203.81283 131.34858 212.32031 128.24805 C 216.21623 126.82252 225.78811 127.90097 228.50977 130.05859 C 229.49449 130.84069 230.91789 133.68079 231.66992 136.37109 C 232.4285 139.05637 235.22928 143.71081 237.9082 146.70117 C 237.94788 146.7456 237.96086 146.77433 238 146.81836 z" transform="matrix(0.26458333,0,0,0.26458333,0,229.26666)"/>
  <path style="opacity:0.4" d="M 122.55664 23.449219 L 94.111328 23.449219 C 92.470287 23.449219 91.269699 23.542446 89.697266 23.554688 A 122.32084 122.32084 0 0 0 73.453125 30.271484 C 74.071085 32.228599 73.350322 34.436898 71.099609 36.386719 C 69.576664 37.708155 68.328125 39.762399 68.328125 40.962891 C 68.328125 44.630544 71.642644 50.261848 74.291016 51.080078 C 77.807696 52.170472 76.627241 55.922947 72.101562 57.996094 C 70.00998 58.955338 67.436725 61.721525 66.384766 64.136719 C 65.326834 66.560076 63.771457 68.942042 62.927734 69.4375 C 62.08979 69.938098 61.398438 71.831139 61.398438 73.646484 C 61.398438 76.18542 62.560691 77.414917 66.371094 78.9375 C 69.098749 80.031635 72.364808 80.828329 73.630859 80.705078 C 80.915056 80.019283 81.423376 84.265441 75.056641 92.558594 C 71.674425 96.962121 70.047903 98.068027 67.742188 97.511719 C 65.595499 96.999177 64.420058 97.588497 63.441406 99.730469 C 62.413915 101.98817 60.727507 102.75245 56.195312 103.06445 C 51.736744 103.37286 49.741951 104.28009 48.072266 106.71875 C 46.849052 108.49864 45.088068 109.94531 44.152344 109.94531 C 43.214231 109.94531 41.010585 111.14328 39.253906 112.59961 C 35.679827 115.56612 34.284392 115.86556 33.03125 113.92383 C 31.375009 111.35413 27.802265 112.65295 22.484375 117.74609 C 19.728261 120.38396 18.491506 121.90522 18 123.48633 L 18 127.64844 C 19.315143 134.47937 23.016812 140.51682 27.261719 142.63867 C 31.019952 144.51487 31.093278 144.71834 28.814453 147.12695 C 27.503791 148.51393 25.255983 150.00217 23.822266 150.4375 C 19.681732 151.69737 22.01237 153.27675 29.400391 154.2168 C 36.962282 155.17612 39.311955 157.91371 35.779297 161.65234 C 33.809449 163.7366 33.918619 164.13033 37.080078 166.11133 C 43.257293 169.98901 48.171061 167.61733 42.373047 163.55664 C 38.646406 160.94457 41.251863 159.88176 46.720703 161.77734 C 51.081446 163.28753 51.944709 163.20323 54.519531 160.96484 C 59.809917 156.38375 65.558476 163.16102 60.720703 168.27344 C 57.644383 171.53275 58.573081 175.45954 62.560547 176.00391 C 64.321965 176.23484 67.979752 177.88007 70.695312 179.64844 C 73.410642 181.40909 76.370747 182.85742 77.263672 182.85742 C 78.156706 182.85742 80.677548 184.64957 82.867188 186.83984 C 87.307452 191.2738 89.771593 191.83536 91.025391 188.71094 C 92.529843 184.95462 91.924026 183.01775 87.869141 178.5957 C 84.646031 175.07443 79.404297 165.71563 79.404297 163.4707 C 79.404297 162.08762 84.732164 163.27768 87.716797 165.30078 C 89.582236 166.57989 92.602954 168.22517 94.431641 168.96875 C 96.376446 169.76241 98.394805 172.23533 99.318359 174.9375 C 100.75577 179.18195 101.32551 179.54883 106.41406 179.54883 L 111.94141 179.54883 L 112.7793 189.48633 C 113.78213 201.44301 114.74384 203.86688 118.84766 204.85156 C 121.86889 205.57973 125.0918 210.2568 125.0918 213.91406 C 125.0918 214.88491 122.91982 217.27382 120.26562 219.21094 C 116.9751 221.61498 115.55717 223.65635 115.77734 225.65625 C 116.05083 228.1566 115.48351 228.55098 111.94141 228.28906 C 110.72346 228.20673 109.04681 228.4179 107.3418 228.7832 L 123.62109 228.7832 C 124.42041 227.93675 125.04433 227.32838 125.97852 226.30664 C 130.91419 220.90025 134.71196 218.65039 138.87695 218.65039 C 140.46694 218.65039 146.13701 217.18987 151.48242 215.40234 C 161.57391 212.01967 165.51954 212.14285 165.14648 215.83008 C 164.37596 223.49991 169.3109 223.24205 177.35352 215.20508 C 180.70491 211.86099 183.76847 209.43927 184.16602 209.81836 C 185.70129 211.29392 182.93626 218.46585 179.70703 221.37109 C 176.18034 224.54572 175.72181 226.68041 177.91992 228.39648 C 179.935 228.32263 182.39524 228.35478 184.2793 228.24414 C 187.59607 228.04937 190.71171 227.79573 193.64062 227.46875 C 196.56954 227.14177 199.31072 226.74217 201.875 226.25977 C 204.43928 225.77736 206.82792 225.21182 209.05078 224.55078 C 211.27365 223.88974 213.33165 223.13243 215.23633 222.26953 C 217.141 221.40664 218.89225 220.43757 220.50195 219.34961 C 221.37967 218.75638 222.11285 218.03461 222.9082 217.36914 A 122.32084 122.32084 0 0 0 231.71875 205.39062 C 232.47065 203.66149 233.16821 201.85504 233.75977 199.87109 C 234.42182 197.6507 234.98946 195.26661 235.47266 192.70508 C 235.95585 190.14354 236.35603 187.40441 236.68359 184.47852 C 237.01116 181.55262 237.26578 178.43847 237.46094 175.125 C 237.61365 172.5322 237.58757 169.21583 237.67188 166.37305 C 236.22206 167.04653 235.23123 165.19525 235.5918 161.01367 L 236.01953 155.99805 L 231.43164 156.85352 C 228.89353 157.33533 225.7141 159.20665 224.28906 161.06055 C 222.25873 163.69567 221.31005 164.08285 219.78711 162.87695 C 218.72302 162.03325 217.86133 160.25319 217.86133 158.93164 C 217.86133 157.6102 216.5513 156.14178 214.96094 155.66016 C 213.36479 155.17834 211.18155 152.77421 210.11133 150.30859 C 208.39267 146.36965 208.43601 145.16543 210.43555 140.38281 C 212.4601 135.53266 212.47681 134.73133 210.61133 132.93945 C 208.89884 131.29823 208.01235 131.24326 205.76172 132.5918 C 203.49869 133.94407 202.4293 133.84381 199.73828 132.04102 C 197.94643 130.83516 194.80787 129.83789 192.77734 129.83789 C 188.64903 129.83789 187.40234 127.83023 187.40234 121.18945 C 187.40234 115.05494 183.74448 112.8299 175.03516 113.63086 C 168.99251 114.18947 167.65965 113.7858 162.78516 110.03711 C 159.77009 107.71784 155.01065 102.14073 152.19727 97.626953 C 149.38369 93.11363 146.35754 88.398277 145.4707 87.150391 C 144.19857 85.347329 144.51081 83.616397 147 78.703125 L 150.14258 72.525391 L 143.50195 73.423828 C 131.68576 75.018751 129.29254 76.548827 134.375 79.277344 C 136.35641 80.336745 136.44316 80.880034 134.91406 82.648438 C 133.91085 83.800324 133.44081 85.625999 133.875 86.708984 C 134.30917 87.783844 133.75767 90.32973 132.65625 92.353516 C 131.54939 94.38384 130.62683 97.229372 130.58984 98.691406 C 130.47423 103.24751 122.66965 106.87372 113.97266 106.39062 C 100.79868 105.66242 99.727607 105.87116 95.048828 110.21289 C 89.201888 115.64396 88.450226 118.1694 91.171875 123.20898 C 93.807846 128.10177 98.493625 130.0522 106.60352 129.64844 C 113.85712 129.30185 114.67502 129.91788 113.01758 134.72461 C 111.60482 138.79796 106.87109 140.3638 103.66016 137.81836 C 101.18909 135.8535 92.670138 137.37154 90.058594 140.24609 C 88.96368 141.4442 87.338049 144.60007 86.451172 147.24219 C 84.922066 151.8048 84.474819 152.08731 77.625 152.74805 C 70.787245 153.41457 70.126286 153.19516 65.208984 148.66211 C 59.723004 143.61017 58.79357 139.74416 61.435547 133.08984 C 62.609827 130.14268 63.477847 129.6584 66.609375 130.23633 C 72.81102 131.36898 75.257812 129.21407 75.257812 122.58984 C 75.257812 119.38065 74.633894 116.37646 73.869141 115.92383 C 73.110563 115.47327 72.486328 113.77031 72.486328 112.13672 C 72.486328 110.50324 71.703988 108.39998 70.755859 107.47656 C 69.367374 106.13203 69.569095 105.40795 71.783203 103.84375 C 73.29998 102.77267 75.795184 102.05131 77.324219 102.23242 C 78.84716 102.42518 83.062634 101.75574 86.689453 100.77344 C 91.930909 99.359441 93.472186 98.291741 94.181641 95.53125 C 95.526975 90.295962 98.810297 86.09375 101.5625 86.09375 C 105.91099 86.09375 106.00378 75.86832 101.7793 60.994141 C 101.15556 58.798084 99.436019 57.403978 96.402344 56.652344 C 93.943599 56.039758 91.270209 54.362706 90.462891 52.921875 C 89.661551 51.480968 88.188079 50.306641 87.191406 50.306641 C 86.194348 50.306641 84.243189 49.112615 82.867188 47.65625 C 81.478699 46.18847 78.611175 45.005859 76.427734 45.005859 C 71.259714 45.005859 71.174257 41.445374 76.300781 39.570312 C 81.713492 37.586174 90.141113 40.185764 92.177734 44.466797 C 94.936207 50.271509 97.999687 47.849791 98.984375 39.080078 C 100.20144 28.234081 103.94433 25.117188 115.74219 25.117188 L 124.22656 25.117188 L 122.55664 23.449219 z" transform="matrix(0.26458333,0,0,0.26458333,0,229.26666)"/>
  <path style="opacity:0.1;fill:#ffffff" d="m 1.501775,262.63479 v 7.83839 c 0,19.57555 2.8002683,22.36888 22.394174,22.36888 h 19.941522 c 19.593907,0 22.394175,-2.79333 22.394175,-22.36888 v -7.83839 l -32.226697,2.4166 z"/>
  <path d="m 64.166373,255.9427 c -1.595947,0.86787 -15.007979,7.93909 -30.299578,7.93909 -15.256458,0 -28.629924,-7.03107 -30.2784153,-7.92639 -0.035164,0.47362 1.0142362,1.07745 1.001335,1.5522 0.010672,2.05059 0.2051503,4.6904 0.1665681,6.30093 5.9026902,2.6906 16.5076152,6.57692 29.1103672,6.57692 12.627564,0 23.202801,-4.04441 29.095691,-6.73404 4.49e-4,-2.00757 0.40176,-4.30499 0.402439,-6.34879 -0.0056,-0.47881 0.829731,-0.88191 0.801481,-1.35992 z" style="opacity:0.2"/>
  <path style="fill:#cba606" d="m 64.209526,255.30026 c -1.595947,0.86787 -15.007979,7.93909 -30.299578,7.93909 -15.256458,0 -28.6299235,-7.03107 -30.2784148,-7.92639 a 30.350392,30.350392 0 0 0 -0.072108,1.42274 30.350392,30.350392 0 0 0 0.6520448,6.10135 c 5.902689,2.6906 17.095581,6.90596 29.698333,6.90596 12.627564,0 23.839315,-4.23321 29.732205,-6.92284 a 30.350392,30.350392 0 0 0 0.618206,-6.08447 30.350392,30.350392 0 0 0 -0.0508,-1.43544 z"/>
 </g>
</svg>
