<svg width="256" height="256" version="1.1" viewBox="0 0 67.73 67.73" xmlns="http://www.w3.org/2000/svg" xmlns:xlink="http://www.w3.org/1999/xlink">
 <defs>
  <linearGradient id="linearGradient1108" x1="296" x2="296" y1="-212" y2="236" gradientUnits="userSpaceOnUse">
   <stop style="stop-color:#ffffff" offset="0"/>
   <stop style="stop-color:#ffffff;stop-opacity:.09803922" offset=".125"/>
   <stop style="stop-color:#000000;stop-opacity:.09803922" offset=".925"/>
   <stop style="stop-color:#000000;stop-opacity:.49803922" offset="1"/>
  </linearGradient>
  <clipPath id="clipPath1082-3-361">
   <path d="M 361.9375,-212 C 507.2348,-212 528,-191.28677 528,-46.125 V 70.125 C 528,215.28618 507.2348,236 361.9375,236 H 214.0625 C 68.7652,236 48,215.28618 48,70.125 V -46.125 C 48,-191.28677 68.7652,-212 214.0625,-212 Z" style="fill:#8c59d9"/>
  </clipPath>
  <filter id="filter4569" x="-.01" y="-.01" width="1.023" height="1.025" style="color-interpolation-filters:sRGB">
   <feGaussianBlur stdDeviation="1.16"/>
  </filter>
  <filter id="filter939" x="-.02" y="-.03" width="1.046" height="1.05" style="color-interpolation-filters:sRGB">
   <feGaussianBlur stdDeviation="2.32"/>
  </filter>
  <clipPath id="b">
   <use overflow="visible" xlink:href="#a"/>
  </clipPath>
  <radialGradient id="radialGradient908" cx="33.867" cy="241.126" r="32.365" gradientTransform="matrix(-5.9492939e-4,1.0111056,-1.2611154,-7.4203635e-4,337.97427,208.49588)" gradientUnits="userSpaceOnUse">
   <stop style="stop-color:#c5f2ff" offset="0"/>
   <stop style="stop-color:#6fb8f6" offset=".5"/>
   <stop style="stop-color:#0968cc" offset="1"/>
  </radialGradient>
  <filter id="filter1372" x="-.04" y="-.06" width="1.08" height="1.12" style="color-interpolation-filters:sRGB">
   <feGaussianBlur stdDeviation="7.338"/>
  </filter>
 </defs>
 <g transform="translate(0,-229.26666)">
  <path transform="matrix(.26970779 0 0 .26970779 -1.9098094e-8 231.46531)" d="m162.53675 5.5680001c72.64865 0 83.03125 10.356615 83.03125 82.937505v58.125005c0 72.58059-10.3826 82.9375-83.03125 82.9375h-73.937496c-72.648654 0-83.031254-10.35691-83.031254-82.9375v-58.125005c0-72.58089 10.3826-82.937505 83.031254-82.937505z" style="filter:url(#filter939);opacity:.2"/>
  <path d="m43.837429 232.42763c19.593907 0 22.394176 2.79326 22.394176 22.36889v15.67677c0 19.57555-2.800269 22.36889-22.394176 22.36889h-19.941519c-19.593909 0-22.394177-2.79334-22.394177-22.36889v-15.67677c0-19.57563 2.8002682-22.36889 22.394177-22.36889z" style="fill:none;opacity:.1;stroke-linecap:round;stroke-linejoin:round;stroke-width:1.0788311;stroke:#000000"/>
  <path transform="matrix(.26970779 0 0 .26970779 -1.9098094e-8 231.46531)" d="m162.53675 3.5680001c72.64865 0 83.03125 10.356615 83.03125 82.937505v58.125005c0 72.58059-10.3826 82.9375-83.03125 82.9375h-73.937496c-72.648654 0-83.031254-10.35691-83.031254-82.9375v-58.125005c0-72.58089 10.3826-82.937505 83.031254-82.937505z" style="filter:url(#filter4569);opacity:.1"/>
  <path d="m43.837427 232.42763c19.593907 0 22.394175 2.79326 22.394175 22.36889v15.67677c0 19.57555-2.800268 22.36889-22.394175 22.36889h-19.94152c-19.593908 0-22.394176-2.79334-22.394176-22.36889v-15.67677c0-19.57563 2.8002682-22.36889 22.394176-22.36889z" style="fill:url(#radialGradient908)"/>
  <path transform="matrix(.26970779 0 0 .26970779 3.67534 226.78896)" d="m0 37v-26l17 13z" clip-path="url(#b)" style="fill:#fbbc05"/>
  <path transform="matrix(.26970779 0 0 .26970779 3.67534 226.78896)" d="m0 11 17 13 7-6.1 24-3.9v-14h-48z" clip-path="url(#b)" style="fill:#ea4335"/>
  <path transform="matrix(.26970779 0 0 .26970779 3.67534 226.78896)" d="m0 37 30-23 7.9 1 10.1-15v48h-48z" clip-path="url(#b)" style="fill:#34a853"/>
  <path transform="matrix(.26970779 0 0 .26970779 3.67534 226.78896)" d="m48 48-31-24-4-3 35-10z" clip-path="url(#b)" style="fill:#4285f4"/>
  <path d="m33.866666 232.42763v60.41455h9.970761c19.593907 0 22.394175-2.79334 22.394175-22.36889v-15.67677c0-19.57563-2.800268-22.36889-22.394175-22.36889z" style="fill:#ffffff;opacity:.1"/>
  <path transform="matrix(.26458333 0 0 .26458333 0 229.26666)" d="m5.6757812 125.7207v30.02149c0 9.24829 0.1655716 17.50559 0.5996094 24.875 0.217019 3.6847 0.5009694 7.14668 0.8652344 10.40039 0.364265 3.2537 0.8083677 6.29796 1.3457031 9.14648 0.5373354 2.84853 1.1680667 5.50155 1.9042969 7.97071 0.73623 2.46915 1.578113 4.75548 2.539063 6.87109 0.960949 2.11561 2.04046 4.05978 3.251953 5.84766 1.211493 1.78787 2.555108 3.41833 4.042968 4.90429 1.487861 1.48596 3.120103 2.82725 4.910157 4.03711 1.790053 1.20986 3.737399 2.28848 5.855468 3.24805 2.11807 0.95957 4.406996 1.80005 6.878907 2.53515 2.471911 0.73511 5.126939 1.3659 7.978515 1.90235 2.851577 0.53645 5.899184 0.98013 9.15625 1.34375 1.28793 0.14378 2.763037 0.22222 4.117188 0.3418 8.642462 0.39891 18.299159 0.55468 29.128906 0.55468h69.81445c25.51088 0 44.47798-0.9038 58.75-3.82812 0.41794-0.1156 0.90852-0.19316 1.31641-0.31446 2.47191-0.7351 4.76084-1.57558 6.87891-2.53515s4.06541-2.03819 5.85546-3.24805c1.79006-1.20986 3.4223-2.55115 4.91016-4.03711s2.83148-3.11642 4.04297-4.90429c1.21149-1.78788 2.291-3.73205 3.25195-5.84766s1.80283-4.40194 2.53907-6.87109c0.73623-2.46916 1.36696-5.12218 1.90429-7.97071 0.53734-2.84852 0.98144-5.89278 1.34571-9.14648 0.36426-3.25371 0.64821-6.71569 0.86523-10.40039 0.43404-7.36941 0.59961-15.62671 0.59961-24.875v-30.02149h-244.64844z" style="fill:#ffffff;opacity:.1"/>
  <path transform="matrix(.1348539 0 0 .1348539 -4.9712559 261.01666)" d="M 361.9375,-212 C 507.2348,-212 528,-191.28677 528,-46.125 V 70.125 C 528,215.28618 507.2348,236 361.9375,236 H 214.0625 C 68.7652,236 48,215.28618 48,70.125 V -46.125 C 48,-191.28677 68.7652,-212 214.0625,-212 Z" clip-path="url(#clipPath1082-3-361)" style="fill:none;opacity:.4;stroke-linecap:round;stroke-linejoin:round;stroke-width:8;stroke:url(#linearGradient1108)"/>
  <g transform="matrix(.14724667 0 0 .14724667 -3.8285472 224.93978)">
   <g style="fill:#221b1b;filter:url(#filter1372);opacity:.3">
    <g transform="translate(207.5254,182.3724)" style="fill:#221b1b">
     <path d="m-43.484 213.302c-8.245 14.017-27.382 7.509-16.683-14.241 18.793-41.714 61.047-145.716 83.93-196.997 6.666-15.529 24.409-5.539 19.13 7.495-26.529 61.372-62.148 153.51-86.377 203.743" style="fill:#221b1b"/>
    </g>
    <g transform="translate(268.094,215.2304)" style="fill:#221b1b">
     <path d="m10.849 118.111c-7.237 11.995-26.371 3.468-15.672-18.282 18.793-41.714 61.046-145.714 83.93-196.997 6.666-15.529 24.409-5.537 19.13 7.495-26.529 61.37-63.159 157.549-87.388 207.784" style="fill:#221b1b"/>
    </g>
    <g transform="translate(244.8145,219.3655)" style="fill:#221b1b">
     <path d="m-10.034 106.132c-7.237 16.036-25.36 8.518-14.66-13.23 18.79-41.715 26.699-66.922 49.583-118.203 6.666-15.529 24.409-5.537 19.13 7.495-26.529 61.369-29.824 73.702-54.053 123.938" style="fill:#221b1b"/>
    </g>
    <g transform="translate(134.8389,237.7106)" style="fill:#221b1b">
     <path transform="matrix(1.7968714,0,0,1.7968714,-108.83799,-208.32535)" d="m5.7207031 94.617188c-0.0019193 0.685187-0.0449219 1.176664-0.0449219 1.873046v12.589846c12.703123 4.02957 31.221441 9.55804 42.796875 17.66015-8.916059 6.28009-21.323423 12.3284-42.796875 17.31055v11.69141c0 2.0129 0.1141265 3.49399 0.1308594 5.41406 20.795443-4.92217 37.559502-13.57821 56.357421-25.44922 5.53629 4.34867 9.014551 8.07392 13.44336 12.58399 1.439168-2.65072 4.918617-10.12198 6.183594-12.08985-4.631383-4.51562-6.553827-7.16099-10.240235-9.83008 4.436044-3.17774 4.499519-4.07676 15.09961-13.42968-2.213848-4.18394-3.427618-8.29177-5.642579-12.36719-5.130027 5.51291-9.009693 9.94152-20.068359 17.27148-15.118068-7.94519-29.095488-15.94853-55.21875-23.228512z" style="fill:#221b1b"/>
    </g>
    <g transform="translate(224.2919,273.5047)" style="fill:#221b1b">
     <path d="m-28.444-50.712c3.274-7.438 5.338-12.45 10.225-23.535-18.74-36.992-21.427-52.753-38.75-84.263-7.385-12.56-24.001-3.595-17.631 8.377 17.507 35.382 28.011 60.539 46.156 99.421" style="fill:#221b1b"/>
    </g>
    <g transform="translate(377.241,274.5592)" style="fill:#221b1b">
     <path transform="matrix(1.7968714,0,0,1.7968714,-351.24009,-245.17395)" d="m250.27344 157.83984c0.00241-0.76585 0.05078-1.31776 0.05078-2.09765v-12.97657c-12.60814-3.98875-31.03962-9.38574-42.71289-17.55664 8.90343-6.27155 21.29411-12.31259 42.71289-17.29101v-11.427736c0-2.108758-0.1183-3.664947-0.13672-5.671875-20.75221 4.926212-37.49767 13.570511-56.26758 25.423831-5.53629-4.34867-9.01455-8.07588-13.44336-12.58594-1.43917 2.65072-4.91861 10.12393-6.18359 12.0918 4.63138 4.51562 6.55383 7.15904 10.24023 9.82812-4.43604 3.17775-4.49952 4.07677-15.09961 13.42969 2.21385 4.18394 3.42762 8.29177 5.64258 12.36719 5.13003-5.51292 9.0097-9.94097 20.06836-17.27149 15.30076 8.04229 28.43714 16.37514 55.12891 23.73828z" style="fill:#221b1b"/>
     <path transform="matrix(1.7968714,0,0,1.7968714,-351.24009,-245.17395)" d="m250.27344 157.83984c0.00241-0.76585 0.05078-1.31776 0.05078-2.09765v-12.97657c-12.60814-3.98875-31.03962-9.38574-42.71289-17.55664 8.90343-6.27155 21.29411-12.31259 42.71289-17.29101v-11.427736c0-2.108758-0.1183-3.664947-0.13672-5.671875-20.75221 4.926212-37.49767 13.570511-56.26758 25.423831-5.53629-4.34867-9.01455-8.07588-13.44336-12.58594-1.43917 2.65072-4.91861 10.12393-6.18359 12.0918 4.63138 4.51562 6.55383 7.15904 10.24023 9.82812-4.43604 3.17775-4.49952 4.07677-15.09961 13.42969 2.21385 4.18394 3.42762 8.29177 5.64258 12.36719 5.13003-5.51292 9.0097-9.94097 20.06836-17.27149 15.30076 8.04229 28.43714 16.37514 55.12891 23.73828z" style="fill:#221b1b"/>
    </g>
    <g transform="translate(287.3369,241.3139)" style="fill:#221b1b">
     <path d="m28.111 42.546c-3.274 7.438-5.338 12.45-10.225 23.535 18.741 36.992 21.427 52.753 38.751 84.263 7.385 12.56 24.001 3.595 17.631-8.377-17.508-35.382-28.012-60.539-46.157-99.421" style="fill:#221b1b"/>
    </g>
    <g transform="translate(207.5254,182.3724)" style="fill:#221b1b">
     <path d="m-43.484 213.302c-8.245 14.017-27.382 7.509-16.683-14.241 18.793-41.714 61.047-145.716 83.93-196.997 6.666-15.529 24.409-5.539 19.13 7.495-26.529 61.372-62.148 153.51-86.377 203.743" style="fill:#221b1b"/>
    </g>
    <g transform="translate(268.094,215.2304)" style="fill:#221b1b">
     <path d="m10.849 118.111c-7.237 11.995-26.371 3.468-15.672-18.282 18.793-41.714 61.046-145.714 83.93-196.997 6.666-15.529 24.409-5.537 19.13 7.495-26.529 61.37-63.159 157.549-87.388 207.784" style="fill:#221b1b"/>
    </g>
    <g transform="translate(244.8145,219.3655)" style="fill:#221b1b">
     <path d="m-10.034 106.132c-7.237 16.036-25.36 8.518-14.66-13.23 18.79-41.715 26.699-66.922 49.583-118.203 6.666-15.529 24.409-5.537 19.13 7.495-26.529 61.369-29.824 73.702-54.053 123.938" style="fill:#221b1b"/>
    </g>
    <g transform="translate(134.8389,237.7106)" style="fill:#221b1b">
     <path transform="matrix(1.7968714,0,0,1.7968714,-108.83799,-208.32535)" d="m5.7207031 94.617188c-0.0019193 0.685187-0.0449219 1.176664-0.0449219 1.873046v12.589846c12.703123 4.02957 31.221441 9.55804 42.796875 17.66015-8.916059 6.28009-21.323423 12.3284-42.796875 17.31055v11.69141c0 2.0129 0.1141265 3.49399 0.1308594 5.41406 20.795443-4.92217 37.559502-13.57821 56.357421-25.44922 5.53629 4.34867 9.014551 8.07392 13.44336 12.58399 1.439168-2.65072 4.918617-10.12198 6.183594-12.08985-4.631383-4.51562-6.553827-7.16099-10.240235-9.83008 4.436044-3.17774 4.499519-4.07676 15.09961-13.42968-2.213848-4.18394-3.427618-8.29177-5.642579-12.36719-5.130027 5.51291-9.009693 9.94152-20.068359 17.27148-15.118068-7.94519-29.095488-15.94853-55.21875-23.228512z" style="fill:#221b1b"/>
    </g>
    <g transform="translate(224.2919,273.5047)" style="fill:#221b1b">
     <path d="m-28.444-50.712c3.274-7.438 5.338-12.45 10.225-23.535-18.74-36.992-21.427-52.753-38.75-84.263-7.385-12.56-24.001-3.595-17.631 8.377 17.507 35.382 28.011 60.539 46.156 99.421" style="fill:#221b1b"/>
    </g>
    <g transform="translate(287.3369,241.3139)" style="fill:#221b1b">
     <path d="m28.111 42.546c-3.274 7.438-5.338 12.45-10.225 23.535 18.741 36.992 21.427 52.753 38.751 84.263 7.385 12.56 24.001 3.595 17.631-8.377-17.508-35.382-28.012-60.539-46.157-99.421" style="fill:#221b1b"/>
    </g>
   </g>
   <g transform="translate(207.5254,182.3724)" style="fill:#ffffff">
    <path d="m-43.484 213.302c-8.245 14.017-27.382 7.509-16.683-14.241 18.793-41.714 61.047-145.716 83.93-196.997 6.666-15.529 24.409-5.539 19.13 7.495-26.529 61.372-62.148 153.51-86.377 203.743" style="fill:#ffffff"/>
   </g>
   <g transform="translate(268.094,215.2304)" style="fill:#ffffff">
    <path d="m10.849 118.111c-7.237 11.995-26.371 3.468-15.672-18.282 18.793-41.714 61.046-145.714 83.93-196.997 6.666-15.529 24.409-5.537 19.13 7.495-26.529 61.37-63.159 157.549-87.388 207.784" style="fill:#ffffff"/>
   </g>
   <g transform="translate(244.8145,219.3655)" style="fill:#ffffff">
    <path d="m-10.034 106.132c-7.237 16.036-25.36 8.518-14.66-13.23 18.79-41.715 26.699-66.922 49.583-118.203 6.666-15.529 24.409-5.537 19.13 7.495-26.529 61.369-29.824 73.702-54.053 123.938" style="fill:#ffffff"/>
   </g>
   <g transform="translate(134.8389,237.7106)" style="fill:#ffffff">
    <path transform="matrix(1.7968714,0,0,1.7968714,-108.83799,-208.32535)" d="m5.7207031 94.617188c-0.0019193 0.685187-0.0449219 1.176664-0.0449219 1.873046v12.589846c12.703123 4.02957 31.221441 9.55804 42.796875 17.66015-8.916059 6.28009-21.323423 12.3284-42.796875 17.31055v11.69141c0 2.0129 0.1141265 3.49399 0.1308594 5.41406 20.795443-4.92217 37.559502-13.57821 56.357421-25.44922 5.53629 4.34867 9.014551 8.07392 13.44336 12.58399 1.439168-2.65072 4.918617-10.12198 6.183594-12.08985-4.631383-4.51562-6.553827-7.16099-10.240235-9.83008 4.436044-3.17774 4.499519-4.07676 15.09961-13.42968-2.213848-4.18394-3.427618-8.29177-5.642579-12.36719-5.130027 5.51291-9.009693 9.94152-20.068359 17.27148-15.118068-7.94519-29.095488-15.94853-55.21875-23.228512z" style="fill:#ffffff"/>
   </g>
   <g transform="translate(224.2919,273.5047)" style="fill:#ffffff">
    <path d="m-28.444-50.712c3.274-7.438 5.338-12.45 10.225-23.535-18.74-36.992-21.427-52.753-38.75-84.263-7.385-12.56-24.001-3.595-17.631 8.377 17.507 35.382 28.011 60.539 46.156 99.421" style="fill:#ffffff"/>
   </g>
   <g transform="translate(377.241,274.5592)">
    <path transform="matrix(1.7968714,0,0,1.7968714,-351.24009,-245.17395)" d="m250.27344 157.83984c0.00241-0.76585 0.05078-1.31776 0.05078-2.09765v-12.97657c-12.60814-3.98875-31.03962-9.38574-42.71289-17.55664 8.90343-6.27155 21.29411-12.31259 42.71289-17.29101v-11.427736c0-2.108758-0.1183-3.664947-0.13672-5.671875-20.75221 4.926212-37.49767 13.570511-56.26758 25.423831-5.53629-4.34867-9.01455-8.07588-13.44336-12.58594-1.43917 2.65072-4.91861 10.12393-6.18359 12.0918 4.63138 4.51562 6.55383 7.15904 10.24023 9.82812-4.43604 3.17775-4.49952 4.07677-15.09961 13.42969 2.21385 4.18394 3.42762 8.29177 5.64258 12.36719 5.13003-5.51292 9.0097-9.94097 20.06836-17.27149 15.30076 8.04229 28.43714 16.37514 55.12891 23.73828z" style="fill:#ffffff"/>
    <path transform="matrix(1.7968714,0,0,1.7968714,-351.24009,-245.17395)" d="m250.27344 157.83984c0.00241-0.76585 0.05078-1.31776 0.05078-2.09765v-12.97657c-12.60814-3.98875-31.03962-9.38574-42.71289-17.55664 8.90343-6.27155 21.29411-12.31259 42.71289-17.29101v-11.427736c0-2.108758-0.1183-3.664947-0.13672-5.671875-20.75221 4.926212-37.49767 13.570511-56.26758 25.423831-5.53629-4.34867-9.01455-8.07588-13.44336-12.58594-1.43917 2.65072-4.91861 10.12393-6.18359 12.0918 4.63138 4.51562 6.55383 7.15904 10.24023 9.82812-4.43604 3.17775-4.49952 4.07677-15.09961 13.42969 2.21385 4.18394 3.42762 8.29177 5.64258 12.36719 5.13003-5.51292 9.0097-9.94097 20.06836-17.27149 15.30076 8.04229 28.43714 16.37514 55.12891 23.73828z" style="fill:#ffffff"/>
   </g>
   <g transform="translate(287.3369,241.3139)" style="fill:#ffffff">
    <path d="m28.111 42.546c-3.274 7.438-5.338 12.45-10.225 23.535 18.741 36.992 21.427 52.753 38.751 84.263 7.385 12.56 24.001 3.595 17.631-8.377-17.508-35.382-28.012-60.539-46.157-99.421" style="fill:#ffffff"/>
   </g>
   <g transform="translate(207.5254,182.3724)" style="fill:#ffffff">
    <path d="m-43.484 213.302c-8.245 14.017-27.382 7.509-16.683-14.241 18.793-41.714 61.047-145.716 83.93-196.997 6.666-15.529 24.409-5.539 19.13 7.495-26.529 61.372-62.148 153.51-86.377 203.743" style="fill:#ffffff"/>
   </g>
   <g transform="translate(268.094,215.2304)" style="fill:#ffffff">
    <path d="m10.849 118.111c-7.237 11.995-26.371 3.468-15.672-18.282 18.793-41.714 61.046-145.714 83.93-196.997 6.666-15.529 24.409-5.537 19.13 7.495-26.529 61.37-63.159 157.549-87.388 207.784" style="fill:#ffffff"/>
   </g>
   <g transform="translate(244.8145,219.3655)" style="fill:#ffffff">
    <path d="m-10.034 106.132c-7.237 16.036-25.36 8.518-14.66-13.23 18.79-41.715 26.699-66.922 49.583-118.203 6.666-15.529 24.409-5.537 19.13 7.495-26.529 61.369-29.824 73.702-54.053 123.938" style="fill:#ffffff"/>
   </g>
   <g transform="translate(134.8389,237.7106)" style="fill:#ffffff">
    <path transform="matrix(1.7968714,0,0,1.7968714,-108.83799,-208.32535)" d="m5.7207031 94.617188c-0.0019193 0.685187-0.0449219 1.176664-0.0449219 1.873046v12.589846c12.703123 4.02957 31.221441 9.55804 42.796875 17.66015-8.916059 6.28009-21.323423 12.3284-42.796875 17.31055v11.69141c0 2.0129 0.1141265 3.49399 0.1308594 5.41406 20.795443-4.92217 37.559502-13.57821 56.357421-25.44922 5.53629 4.34867 9.014551 8.07392 13.44336 12.58399 1.439168-2.65072 4.918617-10.12198 6.183594-12.08985-4.631383-4.51562-6.553827-7.16099-10.240235-9.83008 4.436044-3.17774 4.499519-4.07676 15.09961-13.42968-2.213848-4.18394-3.427618-8.29177-5.642579-12.36719-5.130027 5.51291-9.009693 9.94152-20.068359 17.27148-15.118068-7.94519-29.095488-15.94853-55.21875-23.228512z" style="fill:#ffffff"/>
   </g>
   <g transform="translate(224.2919,273.5047)" style="fill:#ffffff">
    <path d="m-28.444-50.712c3.274-7.438 5.338-12.45 10.225-23.535-18.74-36.992-21.427-52.753-38.75-84.263-7.385-12.56-24.001-3.595-17.631 8.377 17.507 35.382 28.011 60.539 46.156 99.421" style="fill:#ffffff"/>
   </g>
   <g transform="translate(287.3369,241.3139)" style="fill:#ffffff">
    <path d="m28.111 42.546c-3.274 7.438-5.338 12.45-10.225 23.535 18.741 36.992 21.427 52.753 38.751 84.263 7.385 12.56 24.001 3.595 17.631-8.377-17.508-35.382-28.012-60.539-46.157-99.421" style="fill:#ffffff"/>
   </g>
  </g>
 </g>
</svg>
