<svg width="256" height="256" version="1.1" viewBox="0 0 67.73 67.73" xmlns="http://www.w3.org/2000/svg" xmlns:xlink="http://www.w3.org/1999/xlink">
 <defs>
  <linearGradient id="linearGradient1108" x1="296" x2="296" y1="-212" y2="202.4" gradientUnits="userSpaceOnUse">
   <stop style="stop-color:#ffffff" offset="0"/>
   <stop style="stop-color:#ffffff;stop-opacity:.09803922" offset=".135"/>
   <stop style="stop-color:#ffffff;stop-opacity:0" offset="1"/>
  </linearGradient>
  <clipPath id="clipPath1082-3-3675">
   <path d="M 361.9375,-212 C 507.2348,-212 528,-191.28677 528,-46.125 V 70.125 C 528,215.28618 507.2348,236 361.9375,236 H 214.0625 C 68.7652,236 48,215.28618 48,70.125 V -46.125 C 48,-191.28677 68.7652,-212 214.0625,-212 Z" style="fill:#8c59d9"/>
  </clipPath>
  <filter id="filter910" x="-.02" y="-.03" width="1.046" height="1.05" style="color-interpolation-filters:sRGB">
   <feGaussianBlur stdDeviation="2.32"/>
  </filter>
  <filter id="filter4569" x="-.01" y="-.01" width="1.023" height="1.025" style="color-interpolation-filters:sRGB">
   <feGaussianBlur stdDeviation="1.16"/>
  </filter>
 </defs>
 <g transform="translate(0,-229.26666)">
  <g transform="matrix(.12974173 0 0 .12974173 3.8344818 227.85345)" style="enable-background:new">
   <path d="m301.90773 44.402363c148.15296 0 169.32628 21.120327 169.32628 169.1351v118.53478c0 148.01417-21.17332 169.1351-169.32628 169.1351h-150.78132c-148.15297 0-169.32628-21.12093-169.32628-169.1351v-118.53478c0-148.01477 21.17331-169.1351 169.32628-169.1351z" style="fill:none;opacity:.2;stroke-linecap:round;stroke-linejoin:round;stroke-width:8.1572313;stroke:#000000"/>
   <path transform="matrix(2.0393079,0,0,2.0393079,-29.55473,37.126102)" d="m162.53675 3.5680001c72.64865 0 83.03125 10.356615 83.03125 82.937505v58.125005c0 72.58059-10.3826 82.9375-83.03125 82.9375h-73.937496c-72.648654 0-83.031254-10.35691-83.031254-82.9375v-58.125005c0-72.58089 10.3826-82.937505 83.031254-82.937505z" style="filter:url(#filter4569);opacity:.1"/>
   <path transform="matrix(2.0393079,0,0,2.0393079,-29.55473,37.126102)" d="m162.53675 5.5680001c72.64865 0 83.03125 10.356615 83.03125 82.937505v58.125005c0 72.58059-10.3826 82.9375-83.03125 82.9375h-73.937496c-72.648654 0-83.031254-10.35691-83.031254-82.9375v-58.125005c0-72.58089 10.3826-82.937505 83.031254-82.937505z" style="filter:url(#filter910);opacity:.2"/>
   <path d="m301.90773 44.402363c148.15296 0 169.32628 21.120327 169.32628 169.1351v118.53478c0 148.01417-21.17332 169.1351-169.32628 169.1351h-150.78132c-148.15297 0-169.32628-21.12093-169.32628-169.1351v-118.53478c0-148.01477 21.17331-169.1351 169.32628-169.1351z" style="fill:#f7f7f7"/>
   <path transform="matrix(1.0196539,0,0,1.0196539,-67.14326,260.569)" d="M 361.9375,-212 C 507.2348,-212 528,-191.28677 528,-46.125 V 70.125 C 528,215.28618 507.2348,236 361.9375,236 H 214.0625 C 68.7652,236 48,215.28618 48,70.125 V -46.125 C 48,-191.28677 68.7652,-212 214.0625,-212 Z" clip-path="url(#clipPath1082-3-3675)" style="fill:none;opacity:.5;stroke-linecap:round;stroke-linejoin:round;stroke-width:8;stroke:url(#linearGradient1108)"/>
   <path d="m226.51704 130.0533c-51.43801 0-92.84836 41.41062-92.84836 92.84807v46.42445h-11.60606v66.00927l4.71493-6.16434c6.74696-9.06093 24.73033-22.00264 38.80776-27.56404 7.41663-2.93375 25.22453-6.14398 45.33611-8.34191 30.30163-3.4059 87.55171-0.72777 108.44403-23.93742v-46.42446c0-51.43755-41.41039-92.84817-92.84841-92.84817zm7.61648 11.24351c4.40067 0.26977 8.71381 0.76854 13.0568 1.81416 15.60284 3.74976 17.36444 7.36138 2.17626 4.35008-23.89675-4.73458-55.63666 5.90129-75.07662 25.38827-5.81291 5.82708-13.14647 15.47621-16.32099 21.39898-6.54075 12.2039-5.51171 4.34325 1.45077-10.51839 12.72955-27.17149 43.90949-44.23191 74.71391-42.43442zm-7.61648 35.18093c25.71903 0 46.42423 20.70489 46.42423 46.42363v46.42445h-92.8484v-46.42445c0-25.71874 20.70519-46.42363 46.42417-46.42363zm104.45446 113.23141-12.33141 10.15485c-6.70248 5.70575-17.1915 13.50886-23.5748 17.40908-13.06415 7.98389-44.03737 19.22261-53.3153 19.22261-3.48976 0-5.5356 0.84288-4.71493 2.1784 1.54653 2.50895 20.09046 1.37593 39.53309-2.53592 6.38336-1.28805 21.1955-7.07724 33.00468-13.05672l21.39865-10.88071v-11.24327zm0 25.02536-6.52842 9.06704c-21.65357 29.84759-56.91334 46.38597-105.90515 49.32583-32.72309 1.96258-20.74232 5.68547 18.49714 5.80011 26.58105 0.0359 32.5725-0.76854 48.6003-6.16424 10.02729-3.37221 18.35382-5.94854 18.85983-5.44268 1.8259 1.82768-17.79159 18.0619-28.65245 23.57472-20.80962 10.56214-34.9799 13.52706-72.53776 15.23259-26.68002 1.21407-37.63344 2.58988-42.79729 5.44268-6.57536 3.62171-2.23053 3.87123 81.60502 3.98584h88.8588z" style="fill:#0093dd"/>
  </g>
 </g>
</svg>
