<svg xmlns="http://www.w3.org/2000/svg" xmlns:xlink="http://www.w3.org/1999/xlink" width="256" height="256" version="1.1" viewBox="0 0 67.73 67.73">
 <defs>
  <linearGradient id="linearGradient1645">
   <stop offset="0" style="stop-color:#000000;stop-opacity:0.65"/>
   <stop offset="1" style="stop-color:#050000;stop-opacity:0"/>
  </linearGradient>
  <linearGradient id="linearGradient1625">
   <stop style="stop-color:#ffffff" offset="0"/>
   <stop style="stop-color:#ffffff;stop-opacity:0" offset="1"/>
  </linearGradient>
  <linearGradient id="linearGradient1601">
   <stop style="stop-color:#ffeb3e" offset="0"/>
   <stop offset=".53" style="stop-color:#a49204"/>
   <stop style="stop-color:#edd400" offset="1"/>
  </linearGradient>
  <linearGradient id="linearGradient3650-7-9">
   <stop style="stop-color:#5d88bb" offset="0"/>
   <stop offset="1" style="stop-color:#6c9bcc"/>
  </linearGradient>
  <linearGradient id="linearGradient1108" x1="296" x2="296" y1="-212" y2="236" gradientUnits="userSpaceOnUse" xlink:href="#linearGradient1013"/>
  <linearGradient id="linearGradient1013">
   <stop offset="0" style="stop-color:#ffffff"/>
   <stop style="stop-color:#ffffff;stop-opacity:0.09803922" offset=".125"/>
   <stop style="stop-color:#000000;stop-opacity:0.09803922" offset=".925"/>
   <stop offset="1" style="stop-color:#000000;stop-opacity:0.49803922"/>
  </linearGradient>
  <clipPath id="clipPath1082-3-3675" clipPathUnits="userSpaceOnUse">
   <path d="M 361.9375,-212 C 507.2348,-212 528,-191.28677 528,-46.125 V 70.125 C 528,215.28618 507.2348,236 361.9375,236 H 214.0625 C 68.7652,236 48,215.28618 48,70.125 V -46.125 C 48,-191.28677 68.7652,-212 214.0625,-212 Z" style="fill:#8c59d9"/>
  </clipPath>
  <linearGradient id="linearGradient933" x1="160" x2="160" y1="28" y2="284" gradientTransform="matrix(0.26458333,0,0,0.26458333,-7.0338545,221.97263)" gradientUnits="userSpaceOnUse" xlink:href="#linearGradient3650-7-9"/>
  <filter style="color-interpolation-filters:sRGB" id="filter930" width="1.046" height="1.05" x="-.02" y="-.03">
   <feGaussianBlur stdDeviation="2.32"/>
  </filter>
  <filter style="color-interpolation-filters:sRGB" id="filter4569" width="1.023" height="1.025" x="-.01" y="-.01">
   <feGaussianBlur stdDeviation="1.16"/>
  </filter>
  <linearGradient id="linearGradient1603" x1="5.355" x2="26.443" y1="245.011" y2="262.562" gradientUnits="userSpaceOnUse" xlink:href="#linearGradient1601"/>
  <linearGradient id="linearGradient1627" x1="15.974" x2="16.371" y1="246.547" y2="260.227" gradientUnits="userSpaceOnUse" xlink:href="#linearGradient1645"/>
  <linearGradient id="linearGradient1631" x1="15.974" x2="16.037" y1="246.547" y2="253.331" gradientTransform="rotate(-180,16.450443,253.99861)" gradientUnits="userSpaceOnUse" xlink:href="#linearGradient1625"/>
 </defs>
 <g transform="translate(0,-229.26666)">
  <path d="m 162.53675,3.5680001 c 72.64865,0 83.03125,10.3566149 83.03125,82.9375049 v 58.125005 c 0,72.58059 -10.3826,82.9375 -83.03125,82.9375 H 88.599254 C 15.9506,227.56801 5.568,217.2111 5.568,144.63051 V 86.505505 c 0,-72.58089 10.3826,-82.9375049 83.031254,-82.9375049 z" transform="matrix(0.26458333,0,0,0.26458333,-1.8735229e-8,232.67026)" style="opacity:0.1;filter:url(#filter4569)"/>
  <path style="opacity:0.2;filter:url(#filter930)" d="m 162.53675,5.5680001 c 72.64865,0 83.03125,10.3566149 83.03125,82.9375049 v 58.125005 c 0,72.58059 -10.3826,82.9375 -83.03125,82.9375 H 88.599254 C 15.9506,229.56801 5.568,219.2111 5.568,146.63051 V 88.505505 c 0,-72.58089 10.3826,-82.9375049 83.031254,-82.9375049 z" transform="matrix(0.26458333,0,0,0.26458333,-1.8735229e-8,232.67026)"/>
  <path d="m 23.431162,246.12291 c 0.654217,-0.009 1.093348,0.14718 1.318972,0.43454 0.23689,0.29936 0.358735,0.79035 0.358735,1.47286 v 11.93697 c 0,0.68252 -0.121845,1.1735 -0.358735,1.47284 -0.225624,0.28738 -0.664704,0.43455 -1.318972,0.43455 H 9.4697267 c -0.654269,0 -1.094565,-0.14717 -1.320189,-0.43455 -0.236892,-0.29934 -0.357525,-0.79032 -0.357525,-1.47284 v -11.93697 c 0,-0.68251 0.120633,-1.1735 0.357525,-1.47286 0.225608,-0.28736 0.66592,-0.43454 1.320189,-0.43454 z" style="fill:url(#linearGradient1603)"/>
  <g style="stroke:#232323;opacity:0.65">
   <path d="M 13.407099,246.18737 V 261.9865" style="fill:none;stroke:#232323;stroke-width:0.26921302px;opacity:0.75"/>
   <path d="m 13.325493,250.83417 -5.7124499,-0.0845" style="fill:none;stroke:#232323;stroke-width:0.26921302px;opacity:0.75"/>
   <path d="m 13.243886,254.38264 -5.9572689,-0.0845 v 0 l 0.163213,0.25345" style="fill:none;stroke:#232323;stroke-width:0.26921302px;opacity:0.75"/>
   <path d="M 13.407099,258.10008 7.3682241,257.93111" style="fill:none;stroke:#232323;stroke-width:0.26921302px;opacity:0.75"/>
   <path d="m 19.445978,263.00035 c 0,0 -0.244823,-10.72989 -0.08161,-12.08169 l 6.202088,0.0845" style="fill:none;stroke:#232323;stroke-width:0.26921302px;opacity:0.75"/>
   <path d="m 19.282762,254.46713 h 6.936545" style="fill:none;stroke:#232323;stroke-width:0.26921302px;opacity:0.75"/>
   <path d="m 19.527581,257.76213 6.61012,-0.0845" style="fill:none;stroke:#232323;stroke-width:0.26921302px;opacity:0.75"/>
  </g>
  <path style="fill:url(#linearGradient933)" d="m 23.401593,233.6142 c -19.2216217,0 -21.9686845,2.74019 -21.9686845,21.94388 v 15.3789 c 0,19.20362 2.7470628,21.94388 21.9686845,21.94388 h 19.56263 c 19.221622,0 21.968685,-2.74026 21.968685,-21.94388 v -15.3789 c 0,-19.20369 -2.747063,-21.94388 -21.968685,-21.94388 z M 9.4293196,246.123 H 23.390741 c 0.654217,-0.009 1.093159,0.14723 1.318783,0.43459 0.23689,0.29936 0.359151,0.79027 0.359151,1.47278 v 11.93674 c 0,0.68252 -0.122261,1.17344 -0.359151,1.47278 -0.225624,0.28738 -0.664515,0.4346 -1.318783,0.4346 H 9.4293196 c -0.6542691,0 -1.094709,-0.14722 -1.320333,-0.4346 -0.236892,-0.29934 -0.3576008,-0.79026 -0.3576008,-1.47278 v -11.93674 c 0,-0.68251 0.1207088,-1.17342 0.3576008,-1.47278 0.2256081,-0.28736 0.6660639,-0.43459 1.320333,-0.43459 z"/>
  <path style="fill:none;stroke:url(#linearGradient1627);stroke-width:0.31855577;filter:url(#filter1647)" d="m 23.431162,246.12291 c 0.654217,-0.009 1.093348,0.14718 1.318972,0.43454 0.23689,0.29936 0.358735,0.79035 0.358735,1.47286 v 11.93697 c 0,0.68252 -0.121845,1.1735 -0.358735,1.47284 -0.225624,0.28738 -0.664704,0.43455 -1.318972,0.43455 H 9.4697267 c -0.654269,0 -1.094565,-0.14717 -1.320189,-0.43455 -0.236892,-0.29934 -0.357525,-0.79032 -0.357525,-1.47284 v -11.93697 c 0,-0.68251 0.120633,-1.1735 0.357525,-1.47286 0.225608,-0.28736 0.66592,-0.43454 1.320189,-0.43454 z"/>
  <path d="m 9.4697158,261.8743 c -0.65421,0.009 -1.09334,-0.14718 -1.31897,-0.43454 -0.23689,-0.29936 -0.35873,-0.79035 -0.35873,-1.47286 v -11.93697 c 0,-0.68252 0.12184,-1.1735 0.35873,-1.47284 0.22563,-0.28738 0.66471,-0.43455 1.31897,-0.43455 H 23.431156 c 0.65427,0 1.09456,0.14717 1.32019,0.43455 0.23689,0.29934 0.35752,0.79032 0.35752,1.47284 v 11.93697 c 0,0.68251 -0.12063,1.1735 -0.35752,1.47286 -0.22561,0.28736 -0.66592,0.43454 -1.32019,0.43454 z" style="fill:none;stroke:url(#linearGradient1631);stroke-width:0.31855577;opacity:0.65;filter:url(#filter1655)"/>
  <path style="opacity:0.1;fill:#ffffff" d="m 23.401593,292.88086 c -19.2216234,0 -21.9686874,-2.73912 -21.9686874,-21.93528 v -7.68645 H 64.932911 v 7.68645 c 0,19.19616 -2.747062,21.93528 -21.968687,21.93528 z"/>
  <path d="M 361.9375,-212 C 507.2348,-212 528,-191.28677 528,-46.125 V 70.125 C 528,215.28618 507.2348,236 361.9375,236 H 214.0625 C 68.7652,236 48,215.28618 48,70.125 V -46.125 C 48,-191.28677 68.7652,-212 214.0625,-212 Z" clip-path="url(#clipPath1082-3-3675)" transform="matrix(0.13229167,0,0,0.13229167,-4.876802,261.66013)" style="opacity:0.5;fill:none;stroke:url(#linearGradient1108);stroke-width:8;stroke-linecap:round;stroke-linejoin:round"/>
  <g style="font-size:10.58333302px;line-height:1.25;letter-spacing:0px;word-spacing:0px;fill:#ffffff;opacity:0.3" transform="matrix(0.40255154,0,0,0.40255154,52.163437,179.14448)">
   <path style="fill:#ffffff" d="m -34.794813,260.35335 v 0.89917 q -0.403076,-0.2067 -0.837158,-0.31006 -0.434082,-0.10335 -0.89917,-0.10335 -0.707967,0 -1.064534,0.21704 -0.3514,0.21704 -0.3514,0.65113 0,0.33072 0.253215,0.52193 0.253214,0.18603 1.018025,0.35656 l 0.325562,0.0723 q 1.012858,0.21704 1.436605,0.61495 0.428914,0.39274 0.428914,1.10071 0,0.80615 -0.640788,1.27641 -0.63562,0.47025 -1.751831,0.47025 -0.465088,0 -0.971517,-0.093 -0.501261,-0.0879 -1.059367,-0.26872 v -0.98185 q 0.5271,0.27388 1.038697,0.41341 0.511596,0.13436 1.012858,0.13436 0.671793,0 1.033528,-0.22738 0.361735,-0.23254 0.361735,-0.65112 0,-0.38758 -0.263549,-0.59428 -0.258383,-0.20671 -1.14205,-0.39791 l -0.330729,-0.0775 q -0.883667,-0.18603 -1.276408,-0.56844 -0.39274,-0.38757 -0.39274,-1.05936 0,-0.81649 0.578776,-1.26091 0.578776,-0.44442 1.64331,-0.44442 0.5271,0 0.992188,0.0775 0.465087,0.0775 0.857828,0.23254 z"/>
   <path style="fill:#ffffff" d="m -28.459282,261.29386 q 0.356567,-0.64078 0.852661,-0.94567 0.496094,-0.3049 1.167887,-0.3049 0.904338,0 1.395264,0.63562 0.490926,0.63046 0.490926,1.79834 v 3.49333 h -0.956014 v -3.46232 q 0,-0.83199 -0.294556,-1.23507 -0.294555,-0.40307 -0.899169,-0.40307 -0.738973,0 -1.167888,0.49092 -0.428914,0.49093 -0.428914,1.33842 v 3.27112 h -0.956014 v -3.46232 q 0,-0.83716 -0.294556,-1.23507 -0.294555,-0.40307 -0.909505,-0.40307 -0.728638,0 -1.157552,0.49609 -0.428914,0.49093 -0.428914,1.33325 v 3.27112 h -0.956014 v -5.78776 h 0.956014 v 0.89917 q 0.325561,-0.53227 0.780314,-0.78548 0.454752,-0.25322 1.080037,-0.25322 0.630453,0 1.069702,0.3204 0.444418,0.32039 0.656291,0.93017 z"/>
   <path style="fill:#ffffff" d="m -20.020521,263.0612 q -1.152385,0 -1.596802,0.26355 -0.444417,0.26355 -0.444417,0.89917 0,0.50643 0.330729,0.80615 0.335897,0.29456 0.909505,0.29456 0.790649,0 1.266073,-0.55811 0.48059,-0.56327 0.48059,-1.49345 v -0.21187 z m 1.896525,-0.39274 v 3.30212 h -0.950847 v -0.8785 q -0.325561,0.5271 -0.81132,0.78032 -0.485758,0.24804 -1.188557,0.24804 -0.888835,0 -1.415935,-0.49609 -0.521932,-0.50126 -0.521932,-1.33842 0,-0.97669 0.651123,-1.47278 0.656291,-0.49609 1.953369,-0.49609 h 1.333252 v -0.093 q 0,-0.65629 -0.434082,-1.01286 -0.428914,-0.36173 -1.209228,-0.36173 -0.496094,0 -0.966349,0.11885 -0.470256,0.11886 -0.904338,0.35657 v -0.8785 q 0.521932,-0.20154 1.012858,-0.29972 0.490926,-0.10336 0.956014,-0.10336 1.255737,0 1.875855,0.65113 0.620117,0.65112 0.620117,1.97404 z"/>
   <path style="fill:#ffffff" d="m -12.806491,261.07166 q -0.160197,-0.093 -0.351399,-0.13436 -0.186036,-0.0465 -0.413412,-0.0465 -0.806152,0 -1.240234,0.5271 -0.428915,0.52193 -0.428915,1.50378 v 3.04891 h -0.956014 v -5.78776 h 0.956014 v 0.89917 q 0.299724,-0.5271 0.780315,-0.78031 0.48059,-0.25839 1.167887,-0.25839 0.09819,0 0.217041,0.0155 0.118856,0.0103 0.26355,0.0362 z"/>
   <path style="fill:#ffffff" d="m -10.85829,258.53951 v 1.64331 h 1.9585369 v 0.73897 H -10.85829 v 3.14193 q 0,0.70797 0.191203,0.90951 0.19637,0.20153 0.7906494,0.20153 h 0.9766845 v 0.79582 h -0.9766845 q -1.1007084,0 -1.5192874,-0.40824 -0.418579,-0.41341 -0.418579,-1.49862 v -3.14193 h -0.697632 v -0.73897 h 0.697632 v -1.64331 z"/>
   <path style="fill:#ffffff" d="m -0.10959259,260.40503 v 0.88883 q -0.40307616,-0.2222 -0.81131997,-0.33073 -0.40307614,-0.11368 -0.81648764,-0.11368 -0.9250081,0 -1.4366047,0.58911 -0.5115967,0.58394 -0.5115967,1.64331 0,1.05937 0.5115967,1.64848 0.5115966,0.58394 1.4366047,0.58394 0.4134115,0 0.81648764,-0.10852 0.40824381,-0.11369 0.81131997,-0.3359 v 0.8785 q -0.39790852,0.18604 -0.82682289,0.27906 -0.42374672,0.093 -0.90433752,0.093 -1.3074137,0 -2.0773925,-0.82165 -0.7699789,-0.82166 -0.7699789,-2.21692 0,-1.41594 0.7751465,-2.22726 0.7803141,-0.81132 2.1342366,-0.81132 0.4392497,0 0.85782874,0.093 0.41857909,0.0879 0.81131997,0.26872 z"/>
   <path style="fill:#ffffff" d="m 4.184719,263.0612 q -1.1523844,0 -1.5968017,0.26355 Q 2.1435,263.5883 2.1435,264.22392 q 0,0.50643 0.3307291,0.80615 0.3358968,0.29456 0.9095052,0.29456 0.7906494,0 1.2660726,-0.55811 0.4805908,-0.56327 0.4805908,-1.49345 v -0.21187 z m 1.896525,-0.39274 v 3.30212 H 5.1303977 v -0.8785 q -0.3255616,0.5271 -0.81132,0.78032 -0.4857585,0.24804 -1.1885579,0.24804 -0.8888346,0 -1.4159342,-0.49609 -0.521932,-0.50126 -0.521932,-1.33842 0,-0.97669 0.6511231,-1.47278 0.6562906,-0.49609 1.953369,-0.49609 h 1.333252 v -0.093 q 0,-0.65629 -0.4340821,-1.01286 -0.4289143,-0.36173 -1.2092284,-0.36173 -0.4960938,0 -0.9663493,0.11885 -0.4702555,0.11886 -0.9043375,0.35657 v -0.8785 q 0.5219319,-0.20154 1.012858,-0.29972 0.4909261,-0.10336 0.956014,-0.10336 1.2557372,0 1.8758544,0.65113 0.6201172,0.65112 0.6201172,1.97404 z"/>
   <path style="fill:#ffffff" d="m 11.398748,261.07166 q -0.160197,-0.093 -0.3514,-0.13436 -0.186035,-0.0465 -0.413412,-0.0465 -0.8061519,0 -1.2402339,0.5271 -0.4289144,0.52193 -0.4289144,1.50378 v 3.04891 H 8.0087738 v -5.78776 h 0.9560139 v 0.89917 q 0.2997233,-0.5271 0.7803141,-0.78031 0.4805912,-0.25839 1.1678872,-0.25839 0.09819,0 0.217041,0.0155 0.118856,0.0103 0.26355,0.0362 z"/>
   <path style="fill:#ffffff" d="m 16.028957,261.06132 v -3.13159 h 0.950847 v 8.04085 h -0.950847 v -0.86816 q -0.299723,0.51676 -0.759643,0.76998 -0.454753,0.24804 -1.095541,0.24804 -1.049031,0 -1.710489,-0.83716 -0.656291,-0.83715 -0.656291,-2.20141 0,-1.36426 0.656291,-2.20142 0.661458,-0.83716 1.710489,-0.83716 0.640788,0 1.095541,0.25322 0.45992,0.24805 0.759643,0.76481 z m -3.240112,2.02055 q 0,1.04903 0.428914,1.64848 0.434082,0.59428 1.188558,0.59428 0.754476,0 1.188558,-0.59428 0.434082,-0.59945 0.434082,-1.64848 0,-1.04903 -0.434082,-1.64331 -0.434082,-0.59945 -1.188558,-0.59945 -0.754476,0 -1.188558,0.59945 -0.428914,0.59428 -0.428914,1.64331 z"/>
  </g>
  <g transform="matrix(0.40255154,0,0,0.40255154,52.295621,179.01222)" style="font-size:10.58333302px;line-height:1.25;letter-spacing:0px;word-spacing:0px">
   <path d="m -34.794813,260.35335 v 0.89917 q -0.403076,-0.2067 -0.837158,-0.31006 -0.434082,-0.10335 -0.89917,-0.10335 -0.707967,0 -1.064534,0.21704 -0.3514,0.21704 -0.3514,0.65113 0,0.33072 0.253215,0.52193 0.253214,0.18603 1.018025,0.35656 l 0.325562,0.0723 q 1.012858,0.21704 1.436605,0.61495 0.428914,0.39274 0.428914,1.10071 0,0.80615 -0.640788,1.27641 -0.63562,0.47025 -1.751831,0.47025 -0.465088,0 -0.971517,-0.093 -0.501261,-0.0879 -1.059367,-0.26872 v -0.98185 q 0.5271,0.27388 1.038697,0.41341 0.511596,0.13436 1.012858,0.13436 0.671793,0 1.033528,-0.22738 0.361735,-0.23254 0.361735,-0.65112 0,-0.38758 -0.263549,-0.59428 -0.258383,-0.20671 -1.14205,-0.39791 l -0.330729,-0.0775 q -0.883667,-0.18603 -1.276408,-0.56844 -0.39274,-0.38757 -0.39274,-1.05936 0,-0.81649 0.578776,-1.26091 0.578776,-0.44442 1.64331,-0.44442 0.5271,0 0.992188,0.0775 0.465087,0.0775 0.857828,0.23254 z"/>
   <path d="m -28.459282,261.29386 q 0.356567,-0.64078 0.852661,-0.94567 0.496094,-0.3049 1.167887,-0.3049 0.904338,0 1.395264,0.63562 0.490926,0.63046 0.490926,1.79834 v 3.49333 h -0.956014 v -3.46232 q 0,-0.83199 -0.294556,-1.23507 -0.294555,-0.40307 -0.899169,-0.40307 -0.738973,0 -1.167888,0.49092 -0.428914,0.49093 -0.428914,1.33842 v 3.27112 h -0.956014 v -3.46232 q 0,-0.83716 -0.294556,-1.23507 -0.294555,-0.40307 -0.909505,-0.40307 -0.728638,0 -1.157552,0.49609 -0.428914,0.49093 -0.428914,1.33325 v 3.27112 h -0.956014 v -5.78776 h 0.956014 v 0.89917 q 0.325561,-0.53227 0.780314,-0.78548 0.454752,-0.25322 1.080037,-0.25322 0.630453,0 1.069702,0.3204 0.444418,0.32039 0.656291,0.93017 z"/>
   <path d="m -20.020521,263.0612 q -1.152385,0 -1.596802,0.26355 -0.444417,0.26355 -0.444417,0.89917 0,0.50643 0.330729,0.80615 0.335897,0.29456 0.909505,0.29456 0.790649,0 1.266073,-0.55811 0.48059,-0.56327 0.48059,-1.49345 v -0.21187 z m 1.896525,-0.39274 v 3.30212 h -0.950847 v -0.8785 q -0.325561,0.5271 -0.81132,0.78032 -0.485758,0.24804 -1.188557,0.24804 -0.888835,0 -1.415935,-0.49609 -0.521932,-0.50126 -0.521932,-1.33842 0,-0.97669 0.651123,-1.47278 0.656291,-0.49609 1.953369,-0.49609 h 1.333252 v -0.093 q 0,-0.65629 -0.434082,-1.01286 -0.428914,-0.36173 -1.209228,-0.36173 -0.496094,0 -0.966349,0.11885 -0.470256,0.11886 -0.904338,0.35657 v -0.8785 q 0.521932,-0.20154 1.012858,-0.29972 0.490926,-0.10336 0.956014,-0.10336 1.255737,0 1.875855,0.65113 0.620117,0.65112 0.620117,1.97404 z"/>
   <path d="m -12.806491,261.07166 q -0.160197,-0.093 -0.351399,-0.13436 -0.186036,-0.0465 -0.413412,-0.0465 -0.806152,0 -1.240234,0.5271 -0.428915,0.52193 -0.428915,1.50378 v 3.04891 h -0.956014 v -5.78776 h 0.956014 v 0.89917 q 0.299724,-0.5271 0.780315,-0.78031 0.48059,-0.25839 1.167887,-0.25839 0.09819,0 0.217041,0.0155 0.118856,0.0103 0.26355,0.0362 z"/>
   <path d="m -10.85829,258.53951 v 1.64331 h 1.9585369 v 0.73897 H -10.85829 v 3.14193 q 0,0.70797 0.191203,0.90951 0.19637,0.20153 0.7906494,0.20153 h 0.9766845 v 0.79582 h -0.9766845 q -1.1007084,0 -1.5192874,-0.40824 -0.418579,-0.41341 -0.418579,-1.49862 v -3.14193 h -0.697632 v -0.73897 h 0.697632 v -1.64331 z"/>
   <path d="m -0.10959259,260.40503 v 0.88883 q -0.40307616,-0.2222 -0.81131997,-0.33073 -0.40307614,-0.11368 -0.81648764,-0.11368 -0.9250081,0 -1.4366047,0.58911 -0.5115967,0.58394 -0.5115967,1.64331 0,1.05937 0.5115967,1.64848 0.5115966,0.58394 1.4366047,0.58394 0.4134115,0 0.81648764,-0.10852 0.40824381,-0.11369 0.81131997,-0.3359 v 0.8785 q -0.39790852,0.18604 -0.82682289,0.27906 -0.42374672,0.093 -0.90433752,0.093 -1.3074137,0 -2.0773925,-0.82165 -0.7699789,-0.82166 -0.7699789,-2.21692 0,-1.41594 0.7751465,-2.22726 0.7803141,-0.81132 2.1342366,-0.81132 0.4392497,0 0.85782874,0.093 0.41857909,0.0879 0.81131997,0.26872 z"/>
   <path d="m 4.184719,263.0612 q -1.1523844,0 -1.5968017,0.26355 Q 2.1435,263.5883 2.1435,264.22392 q 0,0.50643 0.3307291,0.80615 0.3358968,0.29456 0.9095052,0.29456 0.7906494,0 1.2660726,-0.55811 0.4805908,-0.56327 0.4805908,-1.49345 v -0.21187 z m 1.896525,-0.39274 v 3.30212 H 5.1303977 v -0.8785 q -0.3255616,0.5271 -0.81132,0.78032 -0.4857585,0.24804 -1.1885579,0.24804 -0.8888346,0 -1.4159342,-0.49609 -0.521932,-0.50126 -0.521932,-1.33842 0,-0.97669 0.6511231,-1.47278 0.6562906,-0.49609 1.953369,-0.49609 h 1.333252 v -0.093 q 0,-0.65629 -0.4340821,-1.01286 -0.4289143,-0.36173 -1.2092284,-0.36173 -0.4960938,0 -0.9663493,0.11885 -0.4702555,0.11886 -0.9043375,0.35657 v -0.8785 q 0.5219319,-0.20154 1.012858,-0.29972 0.4909261,-0.10336 0.956014,-0.10336 1.2557372,0 1.8758544,0.65113 0.6201172,0.65112 0.6201172,1.97404 z"/>
   <path d="m 11.398748,261.07166 q -0.160197,-0.093 -0.3514,-0.13436 -0.186035,-0.0465 -0.413412,-0.0465 -0.8061519,0 -1.2402339,0.5271 -0.4289144,0.52193 -0.4289144,1.50378 v 3.04891 H 8.0087738 v -5.78776 h 0.9560139 v 0.89917 q 0.2997233,-0.5271 0.7803141,-0.78031 0.4805912,-0.25839 1.1678872,-0.25839 0.09819,0 0.217041,0.0155 0.118856,0.0103 0.26355,0.0362 z"/>
   <path d="m 16.028957,261.06132 v -3.13159 h 0.950847 v 8.04085 h -0.950847 v -0.86816 q -0.299723,0.51676 -0.759643,0.76998 -0.454753,0.24804 -1.095541,0.24804 -1.049031,0 -1.710489,-0.83716 -0.656291,-0.83715 -0.656291,-2.20141 0,-1.36426 0.656291,-2.20142 0.661458,-0.83716 1.710489,-0.83716 0.640788,0 1.095541,0.25322 0.45992,0.24805 0.759643,0.76481 z m -3.240112,2.02055 q 0,1.04903 0.428914,1.64848 0.434082,0.59428 1.188558,0.59428 0.754476,0 1.188558,-0.59428 0.434082,-0.59945 0.434082,-1.64848 0,-1.04903 -0.434082,-1.64331 -0.434082,-0.59945 -1.188558,-0.59945 -0.754476,0 -1.188558,0.59945 -0.428914,0.59428 -0.428914,1.64331 z"/>
  </g>
 </g>
</svg>
