<svg width="256" height="256" version="1.1" viewBox="0 0 67.73 67.73" xmlns="http://www.w3.org/2000/svg" xmlns:xlink="http://www.w3.org/1999/xlink">
 <defs>
  <linearGradient id="linearGradient2059" x1="168" x2="168" y1="284" y2="28" gradientTransform="matrix(.26970778 0 0 .26970778 -7.1289177 220.56049)" gradientUnits="userSpaceOnUse">
   <stop style="stop-color:#772853" offset="0"/>
   <stop style="stop-color:#a1316f" offset="1"/>
  </linearGradient>
  <filter id="filter1132" x="-.02" y="-.03" width="1.046" height="1.05" style="color-interpolation-filters:sRGB">
   <feGaussianBlur stdDeviation="2.32"/>
  </filter>
  <filter id="filter4569" x="-.01" y="-.01" width="1.023" height="1.025" style="color-interpolation-filters:sRGB">
   <feGaussianBlur stdDeviation="1.16"/>
  </filter>
  <linearGradient id="linearGradient1108-7" x1="296" x2="296" y1="-212" y2="236" gradientUnits="userSpaceOnUse">
   <stop style="stop-color:#ffffff" offset="0"/>
   <stop style="stop-color:#ffffff;stop-opacity:.09803922" offset=".125"/>
   <stop style="stop-color:#000000;stop-opacity:.09803922" offset=".925"/>
   <stop style="stop-color:#000000;stop-opacity:.49803922" offset="1"/>
  </linearGradient>
  <clipPath id="clipPath1082-3-93">
   <path d="M 361.9375,-212 C 507.2348,-212 528,-191.28677 528,-46.125 V 70.125 C 528,215.28618 507.2348,236 361.9375,236 H 214.0625 C 68.7652,236 48,215.28618 48,70.125 V -46.125 C 48,-191.28677 68.7652,-212 214.0625,-212 Z" style="fill:#8c59d9"/>
  </clipPath>
  <linearGradient id="linearGradient1639" x1="34.107" x2="34.117" y1="248.32" y2="277.587" gradientUnits="userSpaceOnUse">
   <stop style="stop-color:#e6eaef" offset="0"/>
   <stop style="stop-color:#e6eaef" offset="1"/>
  </linearGradient>
  <filter id="filter1655" x="-.04" y="-.06" width="1.083" height="1.115" style="color-interpolation-filters:sRGB">
   <feGaussianBlur stdDeviation=".728"/>
  </filter>
 </defs>
 <g transform="translate(0,-229.26666)">
  <path d="m43.837425 232.42763c19.593907 0 22.394175 2.79326 22.394175 22.36889v15.67677c0 19.57555-2.800268 22.36888-22.394175 22.36888h-19.94152c-19.593906 0-22.394174-2.79333-22.394174-22.36888v-15.67677c0-19.57563 2.8002681-22.36889 22.394174-22.36889z" style="fill:none;opacity:.115;stroke-linecap:round;stroke-linejoin:round;stroke-width:1.0788312;stroke:#000000"/>
  <path transform="matrix(.26970778 0 0 .26970778 -7.1289177 220.56049)" d="m188.96876 43.999995c72.64865 0 83.03125 10.356615 83.03125 82.937505v58.125c0 72.58059-10.3826 82.9375-83.03125 82.9375h-73.9375c-72.648654 0-83.031254-10.35691-83.031254-82.9375v-58.125c0-72.58089 10.3826-82.937505 83.031254-82.937505z" style="filter:url(#filter4569);opacity:.1"/>
  <path transform="matrix(.26970778 0 0 .26970778 -7.1289177 220.56049)" d="m188.96876 45.999995c72.64865 0 83.03125 10.356615 83.03125 82.937505v58.125c0 72.58059-10.3826 82.9375-83.03125 82.9375h-73.9375c-72.648654 0-83.031254-10.35691-83.031254-82.9375v-58.125c0-72.58089 10.3826-82.937505 83.031254-82.937505z" style="filter:url(#filter1132);opacity:.2"/>
  <path d="m43.837425 232.42763c19.593907 0 22.394175 2.79326 22.394175 22.36889v15.67677c0 19.57555-2.800268 22.36888-22.394175 22.36888h-19.94152c-19.593906 0-22.394174-2.79333-22.394174-22.36888v-15.67677c0-19.57563 2.8002681-22.36889 22.394174-22.36889z" style="fill:url(#linearGradient2059)"/>
  <path d="m0.9525 262.56205v7.96544c0 19.89285 2.846163 22.73147 22.761203 22.73147h20.268349c19.91504 0 22.761202-2.83862 22.761202-22.73147v-7.96544z" style="fill:#ffffff;opacity:.1"/>
  <path d="m34.339496 293.25889h9.631198c2.486392 0 4.706268-0.0442 6.687644-0.16069 0.990687-0.0582 1.921825-0.13436 2.796662-0.23212 0.874839-0.0978 1.693417-0.21706 2.459341-0.36129 0.765925-0.14424 1.479058-0.31385 2.143006-0.51149 0.663948-0.19765 1.278747-0.42364 1.847655-0.68163 0.568907-0.25801 1.091957-0.54801 1.572758-0.87331 0.480805-0.3253 0.919221-0.68593 1.318856-1.08546 0.399633-0.39954 0.760526-0.83793 1.085928-1.31864 0.325403-0.48071 0.615357-1.00344 0.873465-1.57227 0.258107-0.56883 0.484235-1.18356 0.681986-1.84745 0.19775-0.66388 0.367161-1.3772 0.511487-2.14309 0.144327-0.7659 0.263612-1.58441 0.361452-2.45924s0.174108-1.80566 0.232399-2.79637c0.116583-1.98143 0.161055-4.20159 0.161055-6.68819v-15.9312c0-2.48661-0.04448-4.70675-0.161055-6.68819-0.05829-0.99071-0.134558-1.92154-0.232399-2.79637-0.09784-0.87484-0.217125-1.69334-0.361452-2.45924-0.144326-0.76589-0.313737-1.4792-0.511487-2.14309-0.197751-0.66389-0.423879-1.27862-0.681986-1.84745-0.258108-0.56882-0.548062-1.09156-0.873465-1.57227-0.325402-0.48071-0.686295-0.9191-1.085928-1.31863-0.399635-0.39954-0.838051-0.76017-1.318856-1.08547-0.480801-0.3253-1.003851-0.6153-1.572758-0.87331-0.568908-0.25799-1.183707-0.48398-1.847655-0.68163-0.663948-0.19764-1.377081-0.36725-2.143006-0.51149-0.765924-0.14423-1.584502-0.26353-2.459341-0.36129-0.874837-0.0978-1.805975-0.17387-2.796662-0.23211-1.981376-0.11647-4.201252-0.1607-6.687644-0.1607h-9.631198z" style="fill:#ffffff;opacity:.1"/>
  <path transform="matrix(.13485389 0 0 .13485389 -4.9712548 261.01665)" d="M 361.9375,-212 C 507.2348,-212 528,-191.28677 528,-46.125 V 70.125 C 528,215.28618 507.2348,236 361.9375,236 H 214.0625 C 68.7652,236 48,215.28618 48,70.125 V -46.125 C 48,-191.28677 68.7652,-212 214.0625,-212 Z" clip-path="url(#clipPath1082-3-93)" style="fill:none;opacity:.6;stroke-linecap:round;stroke-linejoin:round;stroke-width:8;stroke:url(#linearGradient1108-7)"/>
  <rect x="12.7" y="247.42" width="42.333" height="30.427" rx="1.027" ry="1.071" style="fill:#00132b;filter:url(#filter1655);opacity:.3"/>
  <rect x="12.7" y="247.42" width="42.333" height="30.427" rx="1.027" ry="1.071" style="fill:url(#linearGradient1639);opacity:.7"/>
  <rect x="19.32" y="262.91" width="29.087" height="5.801" rx="1.058" ry="1.058" style="fill:#ffffff;opacity:.7"/>
  <path d="m24.118765 256.06586h0.40005l0.316089-1.4224c0.01482-0.0741 0.04445-0.19756 0.0642-0.29634 0.01482 0.0988 0.04445 0.22719 0.05927 0.30128l0.325967 1.41746h0.395111l0.642055-2.52378h-0.464255l-0.335845 1.46192c-0.01975 0.084-0.03457 0.15804-0.04939 0.24694-0.01482-0.0889-0.0247-0.16792-0.04445-0.24694l-0.335845-1.46192h-0.385233l-0.330906 1.46192c-0.01975 0.079-0.02963 0.14816-0.04445 0.23212-0.0099-0.084-0.02469-0.1531-0.04445-0.22719l-0.345722-1.46685h-0.464256z" style="opacity:.8"/>
  <path d="m29.06375 254.68791c0-0.82974-0.484011-1.20509-1.071739-1.20509-0.716138 0-1.180394 0.48895-1.180394 1.31868 0 0.77047 0.439561 1.32362 1.180394 1.32362 0.360539 0 0.661812-0.14816 0.869245-0.3556l-0.291395-0.31609c-0.172861 0.16299-0.360538 0.22719-0.572911 0.22719-0.380294 0-0.617361-0.2667-0.686505-0.68156h1.738489c0.01482-0.12348 0.01482-0.23707 0.01482-0.31115zm-1.763183-0.11854c0.04939-0.40005 0.271639-0.65193 0.691444-0.65193 0.2667 0 0.563034 0.16298 0.582789 0.65193z" style="opacity:.8"/>
  <path d="m31.223202 255.6263v-3.12632h-1.318683l0.227189 0.43462h0.597605v2.6917h-0.726016v0.43956h1.940983v-0.43956z" style="opacity:.8"/>
  <path d="m34.06916 256.12512c0.523522 0 0.874183-0.24694 1.012472-0.69144l-0.464255-0.14817c-0.07902 0.23707-0.261762 0.37536-0.543278 0.37536-0.40005 0-0.612422-0.32103-0.612422-0.85443 0-0.52352 0.207433-0.85937 0.627238-0.85937 0.271639 0 0.429684 0.13829 0.508706 0.33091l0.464256-0.16298c-0.153106-0.42475-0.493889-0.63218-0.972962-0.63218-0.696383 0-1.135944 0.49883-1.135944 1.32362 0 0.83467 0.434622 1.31868 1.116189 1.31868z" style="opacity:.8"/>
  <path d="m37.053406 256.12512c0.730956 0 1.195211-0.50376 1.195211-1.32362 0-0.81492-0.464255-1.31868-1.195211-1.31868-0.730955 0-1.195211 0.5087-1.195211 1.32362 0 0.81986 0.464256 1.31868 1.195211 1.31868zm0-0.46425c-0.449439 0-0.691444-0.33585-0.691444-0.85443 0-0.53834 0.242005-0.85937 0.691444-0.85937 0.454378 0 0.696384 0.33585 0.696384 0.85443 0 0.52352-0.251884 0.85937-0.696384 0.85937z" style="opacity:.8"/>
  <path d="m40.763669 253.48282c-0.261761 0-0.449438 0.1778-0.558094 0.37535-0.05927-0.18274-0.22225-0.37535-0.474133-0.37535-0.237067 0-0.40005 0.13829-0.493889 0.39017v-0.33091h-0.434623v2.52378h0.464256v-1.52612c0-0.35066 0.123472-0.58773 0.340783-0.58773 0.207434 0 0.261762 0.22225 0.261762 0.53834v1.57551h0.464255v-1.52612c0-0.35066 0.103717-0.58773 0.321028-0.58773 0.212372 0 0.261761 0.18274 0.261761 0.57291v1.54094h0.464256v-1.66935c0-0.66181-0.202495-0.91369-0.617362-0.91369z" style="opacity:.8"/>
  <path d="m44.256621 254.68791c0-0.82974-0.484011-1.20509-1.071738-1.20509-0.716139 0-1.180395 0.48895-1.180395 1.31868 0 0.77047 0.439561 1.32362 1.180395 1.32362 0.360538 0 0.661811-0.14816 0.869244-0.3556l-0.291394-0.31609c-0.172862 0.16299-0.360539 0.22719-0.572912 0.22719-0.380294 0-0.617361-0.2667-0.686505-0.68156h1.738489c0.01482-0.12348 0.01482-0.23707 0.01482-0.31115zm-1.763183-0.11854c0.04939-0.40005 0.271639-0.65193 0.691445-0.65193 0.2667 0 0.563033 0.16298 0.582788 0.65193z" style="opacity:.8"/>
  <path d="m21.035156 263.92773v3.96875h0.263672v-3.96875z" style="opacity:.8"/>
 </g>
</svg>
