<svg width="256" height="256" version="1.1" viewBox="0 0 67.73 67.73" xmlns="http://www.w3.org/2000/svg" xmlns:xlink="http://www.w3.org/1999/xlink">
 <defs>
  <linearGradient id="linearGradient1108" x1="296" x2="296" y1="-212" y2="236" gradientUnits="userSpaceOnUse">
   <stop style="stop-color:#ffffff" offset="0"/>
   <stop style="stop-color:#ffffff;stop-opacity:.09803922" offset=".125"/>
   <stop style="stop-color:#000000;stop-opacity:.09803922" offset=".925"/>
   <stop style="stop-color:#000000;stop-opacity:.49803922" offset="1"/>
  </linearGradient>
  <clipPath id="clipPath1082-3-06">
   <path d="M 361.9375,-212 C 507.2348,-212 528,-191.28677 528,-46.125 V 70.125 C 528,215.28618 507.2348,236 361.9375,236 H 214.0625 C 68.7652,236 48,215.28618 48,70.125 V -46.125 C 48,-191.28677 68.7652,-212 214.0625,-212 Z" style="fill:#8c59d9"/>
  </clipPath>
  <linearGradient id="linearGradient910" x1="160" x2="160" y1="44" y2="268" gradientTransform="matrix(.26970778 0 0 .26970778 -7.1289176 220.56049)" gradientUnits="userSpaceOnUse">
   <stop style="stop-color:#eab305" offset="0"/>
   <stop style="stop-color:#ffda64" offset="1"/>
  </linearGradient>
  <filter id="filter4569" x="-.01" y="-.01" width="1.023" height="1.025" style="color-interpolation-filters:sRGB">
   <feGaussianBlur stdDeviation="1.16"/>
  </filter>
  <filter id="filter924" x="-.02" y="-.03" width="1.046" height="1.05" style="color-interpolation-filters:sRGB">
   <feGaussianBlur stdDeviation="2.32"/>
  </filter>
  <filter id="filter1707" x="-.04" y="-.07" width="1.075" height="1.133" style="color-interpolation-filters:sRGB">
   <feGaussianBlur stdDeviation=".99"/>
  </filter>
 </defs>
 <g transform="translate(0,-229.26666)">
  <path transform="matrix(.26970778 0 0 .26970778 -7.1289177 220.56049)" d="m188.96876 45.999995c72.64865 0 83.03125 10.356615 83.03125 82.937505v58.125c0 72.58059-10.3826 82.9375-83.03125 82.9375h-73.9375c-72.648654 0-83.031254-10.35691-83.031254-82.9375v-58.125c0-72.58089 10.3826-82.937505 83.031254-82.937505z" style="filter:url(#filter924);opacity:.2"/>
  <path transform="matrix(.26970778 0 0 .26970778 -7.1289177 220.56049)" d="m188.96876 43.999995c72.64865 0 83.03125 10.356615 83.03125 82.937505v58.125c0 72.58059-10.3826 82.9375-83.03125 82.9375h-73.9375c-72.648654 0-83.031254-10.35691-83.031254-82.9375v-58.125c0-72.58089 10.3826-82.937505 83.031254-82.937505z" style="filter:url(#filter4569);opacity:.1"/>
  <path d="m43.837426 232.42763c19.593907 0 22.394175 2.79326 22.394175 22.36889v15.67677c0 19.57555-2.800268 22.36888-22.394175 22.36888h-19.94152c-19.593906 0-22.394174-2.79333-22.394174-22.36888v-15.67677c0-19.57563 2.8002681-22.36889 22.394174-22.36889z" style="fill:url(#linearGradient910)"/>
  <path transform="matrix(.13485389 0 0 .13485389 -4.9712555 261.01666)" d="M 361.9375,-212 C 507.2348,-212 528,-191.28677 528,-46.125 V 70.125 C 528,215.28618 507.2348,236 361.9375,236 H 214.0625 C 68.7652,236 48,215.28618 48,70.125 V -46.125 C 48,-191.28677 68.7652,-212 214.0625,-212 Z" clip-path="url(#clipPath1082-3-06)" style="fill:none;opacity:.4;stroke-linecap:round;stroke-linejoin:round;stroke-width:8;stroke:url(#linearGradient1108)"/>
  <g transform="matrix(.79375 0 0 .79375 -17.48394 259.8319)">
   <g transform="translate(1.5018149,-1.042262)" style="filter:url(#filter1707);opacity:.4">
    <path d="m40.431345-5.2387792c-2.189112 0-8.3938 9.8781499-8.877979 13.500001-0.0193 0.1088265-0.03056 0.2234419-0.02774 0.355867-0.0027 0.1326661 8e-3 0.2454324 0.02774 0.3522889 0.481027 3.6190797 6.688237 13.500017 8.877979 13.500017 2.189744 0 8.396953-9.880937 8.87798-13.500017 0.0193-0.106937 0.03056-0.220467 0.02774-0.3522889 0.0027-0.1326662-8e-3 -0.2481662-0.02774-0.355867-0.484179-3.6218507-6.688855-13.500001-8.87798-13.500001z"/>
    <path d="m63.192104 2.6778251c-2.189129 0-8.393816 9.8781609-8.87798 13.500017-0.0193 0.108826-0.03056 0.223441-0.02773 0.355867-0.0027 0.132666 8e-3 0.245432 0.02773 0.352288 0.481015 3.619077 6.688236 13.500001 8.87798 13.500001 2.189739 0 8.396948-9.880924 8.87798-13.500001 0.0193-0.106816 0.03056-0.220466 0.02774-0.352288 0.0027-0.132546-8e-3 -0.248207-0.02774-0.355867-0.484179-3.621856-6.688867-13.500017-8.87798-13.500017z"/>
    <path d="m85.952376-5.2387792c-2.189125 0-8.393813 9.8781499-8.877992 13.500001-0.0193 0.1088265-0.03056 0.2234419-0.02774 0.355867-0.0027 0.1326661 0.0093 0.2454324 0.02774 0.3522889 0.481028 3.6190797 6.688236 13.500017 8.877992 13.500017 2.189743 0 8.396953-9.880937 8.877979-13.500017 0.0193-0.106937 0.03056-0.220467 0.02774-0.3522889 0.0027-0.1326662-8e-3 -0.2481662-0.02774-0.355867-0.484175-3.6218507-6.688867-13.500001-8.877979-13.500001z"/>
   </g>
   <path d="m100.38517-30.197017c-0.410158-0.378243-0.827052-0.749039-1.301432-1.069657-0.596686-0.403288-1.2458-0.762834-1.951823-1.082683-0.706023-0.319862-1.469-0.600025-2.29297-0.845052-0.82397-0.24504-1.70898-0.455307-2.659503-0.634117-0.950527-0.178822-1.966397-0.326715-3.052084-0.447924-1.08569-0.121197-2.241243-0.215559-3.470703-0.287748-2.45892-0.144403-5.213827-0.199219-8.29948-0.199219h-25.123048c-3.085654 0-5.841209 0.0548-8.300129 0.199219-1.22946 0.07219-2.384364 0.166551-3.470053 0.287748-1.085688 0.121197-2.101558 0.269102-3.052083 0.447924-0.950526 0.17881-1.836186 0.389077-2.660156 0.634117-0.82397 0.245027-1.586293 0.52519-2.292316 0.845052-0.706024 0.319849-1.35579 0.679395-1.952474 1.082683-0.596685 0.403276-1.140766 0.850381-1.636719 1.345701-0.495954 0.49532-0.943174 1.038803-1.347005 1.634759s-0.76432 1.244019-1.084636 1.949228c-0.320316 0.705197-0.600944 1.467301-0.846354 2.290356-0.245411 0.823055-0.455003 1.707389-0.634115 2.656907-0.179112 0.949506-0.327797 1.964259-0.449218 3.048832-0.121424 1.08456-0.216072 2.238551-0.288412 3.466797-0.144679 2.456466-0.199869 5.2088806-0.199869 8.2916656v19.750651c0 3.08276 0.05519 5.835187 0.199869 8.291667 0.07234 1.228233 0.16699 2.382223 0.288412 3.466797 0.121424 1.08456 0.270106 2.099313 0.449218 3.04882 0.179112 0.949516 0.388704 1.83385 0.634115 2.656906 0.24541 0.82304 0.526038 1.585157 0.846354 2.290354 0.320316 0.70521 0.680805 1.35326 1.084636 1.94923 0.403831 0.595956 0.851051 1.13944 1.347005 1.63476 0.059 0.05896 0.134288 0.10255 0.194662 0.160163z" style="fill:#fffcf4;opacity:.1"/>
   <path d="m29.945501-30.921626c-0.368035 0.284673-0.74824 0.557901-1.073568 0.882812-0.495954 0.495318-0.943174 1.038809-1.347005 1.634766-0.403831 0.595958-0.764319 1.244016-1.084635 1.949219-0.320317 0.705202-0.600945 1.467311-0.846355 2.290364s-0.455003 1.707392-0.634114 2.656901c-0.179112 0.949509-0.327797 1.964258-0.449219 3.048829-0.121422 1.08457-0.216072 2.238559-0.288412 3.466796-0.144679 2.456476-0.199869 5.2088906-0.199869 8.2916666v19.750652c0 3.082763 0.05519 5.835196 0.199869 8.291666 0.07234 1.228234 0.16699 2.382227 0.288412 3.466797 0.121422 1.084567 0.270107 2.09932 0.449219 3.048827 0.179111 0.94951 0.388704 1.83385 0.634114 2.656903 0.24541 0.82305 0.526038 1.58516 0.846355 2.290364 0.320316 0.705203 0.680804 1.35326 1.084635 1.94922 0.403831 0.595956 0.851051 1.139446 1.347005 1.634763 0.495953 0.49532 1.040034 0.94242 1.636719 1.345703 0.596684 0.403287 1.24645 0.762827 1.952474 1.082684 0.706023 0.319856 1.468347 0.600016 2.292317 0.84505 0.823971 0.245036 1.709631 0.4553 2.660156 0.634116 0.950526 0.178817 1.966395 0.326714 3.052084 0.447917 1.085688 0.121203 2.240592 0.215563 3.470052 0.28776 2.45892 0.144397 5.214476 0.19922 8.30013 0.19922h25.123046c3.085654 0 5.840561-0.05482 8.299481-0.19922 1.22946-0.0722 2.385013-0.166557 3.470703-0.28776 1.085687-0.121203 2.101557-0.2691 3.052083-0.447917 0.950524-0.178816 1.835534-0.38908 2.659504-0.634116 0.82397-0.245034 1.586946-0.525194 2.29297-0.84505 0.706023-0.319857 1.355136-0.679397 1.951823-1.082684 0.490793-0.331716 0.924225-0.713303 1.346355-1.10677z" style="fill:#fffcf5;opacity:.1"/>
   <g transform="translate(1.5018149,-1.042262)">
    <path d="m40.431345-5.2387792c-2.189112 0-8.3938 9.8781499-8.877979 13.500001-0.0193 0.1088265-0.03056 0.2234419-0.02774 0.355867-0.0027 0.1326661 8e-3 0.2454324 0.02774 0.3522889 0.481027 3.6190797 6.688237 13.500017 8.877979 13.500017 2.189744 0 8.396953-9.880937 8.87798-13.500017 0.0193-0.106937 0.03056-0.220467 0.02774-0.3522889 0.0027-0.1326662-8e-3 -0.2481662-0.02774-0.355867-0.484179-3.6218507-6.688855-13.500001-8.87798-13.500001z" style="fill:#d41a1a"/>
    <path d="m63.192104 2.6778251c-2.189129 0-8.393816 9.8781609-8.87798 13.500017-0.0193 0.108826-0.03056 0.223441-0.02773 0.355867-0.0027 0.132666 8e-3 0.245432 0.02773 0.352288 0.481015 3.619077 6.688236 13.500001 8.87798 13.500001 2.189739 0 8.396948-9.880924 8.87798-13.500001 0.0193-0.106816 0.03056-0.220466 0.02774-0.352288 0.0027-0.132546-8e-3 -0.248207-0.02774-0.355867-0.484179-3.621856-6.688867-13.500017-8.87798-13.500017z" style="fill:#d41a1a"/>
    <path d="m85.952376-5.2387792c-2.189125 0-8.393813 9.8781499-8.877992 13.500001-0.0193 0.1088265-0.03056 0.2234419-0.02774 0.355867-0.0027 0.1326661 0.0093 0.2454324 0.02774 0.3522889 0.481028 3.6190797 6.688236 13.500017 8.877992 13.500017 2.189743 0 8.396953-9.880937 8.877979-13.500017 0.0193-0.106937 0.03056-0.220467 0.02774-0.3522889 0.0027-0.1326662-8e-3 -0.2481662-0.02774-0.355867-0.484175-3.6218507-6.688867-13.500001-8.877979-13.500001z" style="fill:#d41a1a"/>
   </g>
  </g>
 </g>
</svg>
