<svg xmlns="http://www.w3.org/2000/svg" xmlns:xlink="http://www.w3.org/1999/xlink" width="256" height="256" version="1.1" viewBox="0 0 67.73 67.73">
 <defs>
  <linearGradient id="linearGradient884">
   <stop style="stop-color:#e3dfd5" offset="0"/>
   <stop style="stop-color:#ffffff" offset="1"/>
  </linearGradient>
  <linearGradient id="linearGradient1108" x1="296" x2="296" y1="-212" y2="236" gradientUnits="userSpaceOnUse">
   <stop style="stop-color:#ffffff" offset="0"/>
   <stop style="stop-color:#ffffff;stop-opacity:.09803922" offset=".125"/>
   <stop style="stop-color:#000000;stop-opacity:.09803922" offset=".925"/>
   <stop style="stop-color:#000000;stop-opacity:.49803922" offset="1"/>
  </linearGradient>
  <clipPath id="clipPath1082-3-626">
   <path d="M 361.9375,-212 C 507.2348,-212 528,-191.28677 528,-46.125 V 70.125 C 528,215.28618 507.2348,236 361.9375,236 H 214.0625 C 68.7652,236 48,215.28618 48,70.125 V -46.125 C 48,-191.28677 68.7652,-212 214.0625,-212 Z" style="fill:#8c59d9"/>
  </clipPath>
  <filter id="filter930" width="1.046" height="1.05" x="-.02" y="-.03" style="color-interpolation-filters:sRGB">
   <feGaussianBlur stdDeviation="2.32"/>
  </filter>
  <filter id="filter4569" width="1.023" height="1.025" x="-.01" y="-.01" style="color-interpolation-filters:sRGB">
   <feGaussianBlur stdDeviation="1.16"/>
  </filter>
  <filter id="filter1010" width="1.075" height="1.134" x="-.04" y="-.07" style="color-interpolation-filters:sRGB">
   <feGaussianBlur stdDeviation=".743"/>
  </filter>
  <linearGradient id="linearGradient886" x1="60.995" x2="19.066" y1="289.635" y2="242.664" gradientUnits="userSpaceOnUse" xlink:href="#linearGradient884"/>
 </defs>
 <g transform="translate(0,-229.26666)">
  <path d="m 188.96876,43.999995 c 72.64865,0 83.03125,10.356615 83.03125,82.937505 v 58.125 c 0,72.58059 -10.3826,82.9375 -83.03125,82.9375 h -73.9375 c -72.648654,0 -83.031254,-10.35691 -83.031254,-82.9375 v -58.125 c 0,-72.58089 10.3826,-82.937505 83.031254,-82.937505 z" transform="matrix(0.26970778,0,0,0.26970778,-7.1289177,220.56049)" style="opacity:0.1;filter:url(#filter4569)"/>
  <path d="m 188.96876,45.999995 c 72.64865,0 83.03125,10.356615 83.03125,82.937505 v 58.125 c 0,72.58059 -10.3826,82.9375 -83.03125,82.9375 h -73.9375 c -72.648654,0 -83.031254,-10.35691 -83.031254,-82.9375 v -58.125 c 0,-72.58089 10.3826,-82.937505 83.031254,-82.937505 z" transform="matrix(0.26970778,0,0,0.26970778,-7.1289177,220.56049)" style="opacity:0.2;filter:url(#filter930)"/>
  <path d="m 43.837426,232.42763 c 19.593907,0 22.394175,2.79326 22.394175,22.36889 v 15.67677 c 0,19.57555 -2.800268,22.36888 -22.394175,22.36888 h -19.94152 c -19.593906,0 -22.394175,-2.79333 -22.394175,-22.36888 v -15.67677 c 0,-19.57563 2.8002681,-22.36889 22.394175,-22.36889 z" style="fill:url(#linearGradient886)"/>
  <path d="m 1.5017307,262.6349 v 7.83839 c 0,19.57555 2.8002681,22.36888 22.3941743,22.36888 h 19.94152 c 19.593907,0 22.394175,-2.79333 22.394175,-22.36888 v -7.83839 z" style="opacity:0.2;fill:#ffffff"/>
  <path d="m 198.2207,13.177734 c -2.47134,-0.236092 -4.9315,-0.473956 -7.63672,-0.632812 -7.37676,-0.433179 -15.64147,-0.597656 -24.89843,-0.597656 h -38.63477 v 228.337894 h 38.63477 c 9.25696,0 17.52167,-0.16447 24.89843,-0.59766 3.68838,-0.21659 7.15505,-0.49967 10.41211,-0.86328 3.25707,-0.36361 6.30468,-0.8073 9.15625,-1.34375 2.85158,-0.53645 5.50661,-1.16724 7.97852,-1.90235 2.47191,-0.7351 4.76084,-1.57558 6.87891,-2.53515 2.11807,-0.95957 4.06541,-2.03819 5.85546,-3.24805 1.79006,-1.20985 3.4223,-2.55115 4.91016,-4.03711 1.48786,-1.48595 2.83148,-3.11642 4.04297,-4.90429 1.21149,-1.78788 2.291,-3.73205 3.25195,-5.84766 0.96095,-2.11561 1.80283,-4.40194 2.53907,-6.87109 0.73623,-2.46916 1.36696,-5.12218 1.90429,-7.97071 0.53734,-2.84852 0.98144,-5.89278 1.34571,-9.14648 0.30112,-2.68972 0.51587,-5.61494 0.71484,-8.59766 0.0771,-3.6758 0.28125,-6.8367 0.28125,-10.88281 v -75.371098 c 0,-59.530748 -7.41641,-78.015371 -51.63477,-82.988282 z" transform="matrix(0.26458333,0,0,0.26458333,0,229.26666)" style="opacity:0.2;fill:#ffffff"/>
  <path d="m 44.34417,249.2999 a 13.335,13.335 0 0 0 -13.335004,13.33499 13.335,13.335 0 0 0 13.335004,13.335 13.335,13.335 0 0 0 13.334996,-13.335 13.335,13.335 0 0 0 -13.334996,-13.33499 z m -24.765003,3.81003 a 9.525,9.525 0 0 0 -9.525001,9.52496 9.525,9.525 0 0 0 9.525001,9.52501 9.525,9.525 0 0 0 9.524997,-9.52501 9.525,9.525 0 0 0 -9.524997,-9.52496 z m 24.765003,0 a 9.525,9.525 0 0 1 9.524996,9.52496 9.525,9.525 0 0 1 -9.524996,9.52501 9.525,9.525 0 0 1 -9.525005,-9.52501 9.525,9.525 0 0 1 9.525005,-9.52496 z m -24.765003,3.80998 a 5.7150001,5.7150001 0 0 1 5.714998,5.71498 5.7150001,5.7150001 0 0 1 -5.714998,5.71502 5.7150001,5.7150001 0 0 1 -5.715001,-5.71502 5.7150001,5.7150001 0 0 1 5.715001,-5.71498 z" style="opacity:0.4;filter:url(#filter1010)"/>
  <path d="m 44.34417,249.2999 a 13.335,13.335 0 0 0 -13.335004,13.33499 13.335,13.335 0 0 0 13.335004,13.335 13.335,13.335 0 0 0 13.334996,-13.335 13.335,13.335 0 0 0 -13.334996,-13.33499 z m -24.765003,3.81003 a 9.525,9.525 0 0 0 -9.525001,9.52496 9.525,9.525 0 0 0 9.525001,9.52501 9.525,9.525 0 0 0 9.524997,-9.52501 9.525,9.525 0 0 0 -9.524997,-9.52496 z m 24.765003,0 a 9.525,9.525 0 0 1 9.524996,9.52496 9.525,9.525 0 0 1 -9.524996,9.52501 9.525,9.525 0 0 1 -9.525005,-9.52501 9.525,9.525 0 0 1 9.525005,-9.52496 z m -24.765003,3.80998 a 5.7150001,5.7150001 0 0 1 5.714998,5.71498 5.7150001,5.7150001 0 0 1 -5.714998,5.71502 5.7150001,5.7150001 0 0 1 -5.715001,-5.71502 5.7150001,5.7150001 0 0 1 5.715001,-5.71498 z" style="fill:#ed3146"/>
  <path style="font-variation-settings:normal;inline-size:0;opacity:0.5;fill:url(#linearGradient1108);stop-color:#000000" d="m 214.0625,-216 c -72.83873,0 -115.522633,4.88257 -140.34375,29.67188 -24.821117,24.7893 -29.71875,67.4315 -29.71875,140.20312 v 116.25 c 0,72.77132 4.897641,115.41375 29.71875,140.20312 24.821109,24.78938 67.50502,29.67188 140.34375,29.67188 h 147.875 c 72.83873,0 115.52264,-4.8825 140.34375,-29.67188 24.82111,-24.78937 29.71875,-67.4318 29.71875,-140.20312 v -116.25 c 0,-72.77162 -4.89763,-115.41382 -29.71875,-140.20312 -24.82112,-24.78931 -67.50502,-29.67188 -140.34375,-29.67188 z m 0,8 h 147.875 c 72.45857,0 112.8056,5.47428 134.69141,27.33203 21.8858,21.85776 27.37109,62.15282 27.37109,134.54297 v 116.25 c 0,72.38986 -5.48528,112.68514 -27.37109,134.54297 -21.88582,21.85783 -62.23284,27.33203 -134.69141,27.33203 h -147.875 c -72.45857,0 -112.80559,-5.4742 -134.691406,-27.33203 -21.885816,-21.85783 -27.371094,-62.15311 -27.371094,-134.54297 v -116.25 c 0,-72.39015 5.485286,-112.68521 27.371094,-134.54297 21.885806,-21.85775 62.232836,-27.33203 134.691406,-27.33203 z" clip-path="url(#clipPath1082-3-626)" transform="matrix(0.13485389,0,0,0.13485389,-4.9712556,261.01666)"/>
 </g>
</svg>
