<svg width="256" height="256" version="1.1" viewBox="0 0 67.73 67.73" xmlns="http://www.w3.org/2000/svg" xmlns:xlink="http://www.w3.org/1999/xlink">
 <defs>
  <linearGradient id="linearGradient1108" x1="296" x2="296" y1="-212" y2="236" gradientUnits="userSpaceOnUse">
   <stop style="stop-color:#ffffff" offset="0"/>
   <stop style="stop-color:#ffffff;stop-opacity:.09803922" offset=".125"/>
   <stop style="stop-color:#000000;stop-opacity:.09803922" offset=".925"/>
   <stop style="stop-color:#000000;stop-opacity:.49803922" offset="1"/>
  </linearGradient>
  <clipPath id="clipPath1082">
   <path d="M 361.9375,-212 C 507.2348,-212 528,-191.28677 528,-46.125 V 70.125 C 528,215.28618 507.2348,236 361.9375,236 H 214.0625 C 68.7652,236 48,215.28618 48,70.125 V -46.125 C 48,-191.28677 68.7652,-212 214.0625,-212 Z" style="fill:#8c59d9"/>
  </clipPath>
  <filter id="filter1015" x="-.02" y="-.03" width="1.046" height="1.05" style="color-interpolation-filters:sRGB">
   <feGaussianBlur stdDeviation="2.32"/>
  </filter>
  <linearGradient id="linearGradient4305" x1="32" x2="32" y1="1017.87" y2="1015.362" gradientTransform="matrix(2,0,0,1.8000001,-2,-816.28975)" gradientUnits="userSpaceOnUse" spreadMethod="reflect">
   <stop style="stop-color:#cc0000" offset="0"/>
   <stop style="stop-color:#cc0000;stop-opacity:0" offset="1"/>
  </linearGradient>
 </defs>
 <g transform="translate(0,-229.26666)">
  <path d="m43.837429 232.36713c19.593906 0 22.394174 2.79326 22.394174 22.36889v15.67676c0 19.57555-2.800268 22.36889-22.394174 22.36889h-19.94152c-19.593908 0-22.394176-2.79334-22.394176-22.36889v-15.67676c0-19.57563 2.8002684-22.36889 22.394176-22.36889z" style="fill:none;opacity:.2;stroke-linecap:round;stroke-linejoin:round;stroke-width:1.0788312;stroke:#000000"/>
  <path transform="matrix(.26970778 0 0 .26970778 -7.1289177 220.49999)" d="m188.96876 45.999995c72.64865 0 83.03125 10.356615 83.03125 82.937505v58.125c0 72.58059-10.3826 82.9375-83.03125 82.9375h-73.9375c-72.648654 0-83.031254-10.35691-83.031254-82.9375v-58.125c0-72.58089 10.3826-82.937505 83.031254-82.937505z" style="filter:url(#filter1015);opacity:.2"/>
  <path d="m43.837426 232.36713c19.593907 0 22.394175 2.79326 22.394175 22.36889v15.67676c0 19.57555-2.800268 22.36889-22.394175 22.36889h-19.94152c-19.593906 0-22.394174-2.79334-22.394174-22.36889v-15.67676c0-19.57563 2.8002681-22.36889 22.394174-22.36889z" style="fill:#f1f0e9"/>
  <path d="m23.895906 232.36713c-19.593906 0-22.394174 2.79326-22.394174 22.36889v15.67676c0 19.57555 2.8002681 22.36889 22.394174 22.36889h9.970758v-60.41454z" style="fill:#02171f;opacity:.05"/>
  <g transform="matrix(.26970778 0 0 .26970778 -7.1289177 220.49999)" style="enable-background:new">
   <path d="m72 108v-8.000001h144.66665v8.000001z" style="fill-opacity:.99607843;fill:#c8c4b7"/>
   <path d="m160 124v-8h79.33333v8z" style="fill-opacity:.99738566;fill:#aea795"/>
   <path d="m72 116v64l72 5e-5v-64.00005z" style="fill:#c8c4b7"/>
   <path d="m160 140v-8h40v8z" style="fill-opacity:.99738566;fill:#aea795"/>
   <path d="m160 155.92689v-7.92689h79.33333v7.92689z" style="fill-opacity:.99607843;fill:#c8c4b7"/>
   <g style="stroke-width:1.962;stroke:#000000">
    <path d="m119.83805 216.79582q0 2.3858 0.58598 4.35303 0.58599 1.92537 1.67424 3.30662 1.13012 1.33939 2.72064 2.0928 1.59053 0.75341 3.59962 0.75341 1.96723 0 3.55776-0.75341t2.67878-2.0928q1.13011-1.38125 1.7161-3.30662 0.58598-1.96723 0.58598-4.35303 0-2.38579-0.58598-4.31116-0.58599-1.96724-1.7161-3.30663-1.08825-1.38125-2.67878-2.13465-1.59053-0.75341-3.55776-0.75341-2.00909 0-3.59962 0.75341-1.59052 0.7534-2.72064 2.13465-1.08825 1.38125-1.67424 3.30663-0.58598 1.92537-0.58598 4.31116zm22.64409 0q0 3.72519-1.13011 6.57139-1.08825 2.84621-3.01363 4.77159-1.88352 1.88352-4.43673 2.84621-2.55322 0.96268-5.44128 0.96268-2.88807 0-5.48314-0.96268-2.55322-0.96269-4.47859-2.84621-1.88352-1.92538-3.01363-4.77159-1.13012-2.8462-1.13012-6.57139 0-3.72518 1.13012-6.52953 1.13011-2.84621 3.05548-4.77159 1.96724-1.92537 4.52045-2.88806 2.55322-0.96269 5.39943-0.96269 2.8462 0 5.39942 0.96269 2.55321 0.96269 4.43673 2.88806 1.92538 1.92538 3.05549 4.77159 1.13011 2.80435 1.13011 6.52953z" style="stroke-width:1.962;stroke:#000000"/>
    <path d="m161.11853 231.94769q-3.26477 0-5.85984-1.00454t-4.39488-2.92992q-1.79981-1.96723-2.7625-4.77158-0.96268-2.80436-0.96268-6.44583t1.08825-6.44582q1.13011-2.80435 3.05549-4.72973 1.92538-1.96723 4.52045-2.97177 2.59507-1.00455 5.56685-1.00455 1.7998 0 3.26476 0.29299 1.46496 0.25114 2.55322 0.58599t1.79981 0.71155 1.00454 0.54413l-1.54867 4.31117q-1.00454-0.62784-2.88806-1.17197-1.84167-0.58599-4.01818-0.58599-1.88352 0-3.5159 0.6697-1.63239 0.62784-2.84621 1.92538-1.17197 1.29753-1.84167 3.26476-0.66969 1.96724-0.66969 4.56231 0 2.30208 0.50227 4.22745 0.54413 1.92538 1.63238 3.34848 1.08826 1.38125 2.7625 2.17651 1.67424 0.75341 4.01818 0.75341 2.80435 0 4.5623-0.54413 1.75795-0.58598 2.72064-1.08825l1.4231 4.31117q-0.50227 0.33484-1.38124 0.66969-0.83712 0.33485-2.00909 0.6697-1.17197 0.29299-2.63693 0.46041-1.46496 0.20928-3.1392 0.20928z" style="stroke-width:1.962;stroke:#000000"/>
    <path d="m182.95363 202.02066q6.2784 0 9.58502 2.30208 3.34848 2.30208 3.34848 7.0318 0 5.9017-5.81798 7.9945 0.79526 0.96269 1.79981 2.34393 1.00454 1.38125 2.05094 3.01364 1.0464 1.59052 2.00909 3.30662 0.96269 1.67424 1.71609 3.30662h-5.90169q-0.79527-1.50681-1.7161-3.01363-0.92083-1.54867-1.88352-2.97177-0.92083-1.46496-1.84166-2.72064-0.92083-1.29754-1.7161-2.30208-0.58598 0.0418-1.00454 0.0418t-0.79527 0h-2.55321v10.96627h-5.27386v-28.58764q1.92538-0.41856 4.10189-0.54413 2.17651-0.16742 3.89261-0.16742zm0.3767 4.5623q-1.67424 0-3.09734 0.12557v9.37574h2.30208q1.92537 0 3.39033-0.20928t2.42765-0.75341q1.00455-0.54412 1.50682-1.46496 0.50227-0.92083 0.50227-2.34393 0-1.33939-0.50227-2.26023-0.50227-0.92083-1.46496-1.46496-0.92083-0.54412-2.21837-0.7534-1.29754-0.25114-2.84621-0.25114z" style="stroke-width:1.962;stroke:#000000"/>
   </g>
   <path d="m72 243.84696v-54.10226h167.99998v54.10226z" style="fill:#6fffff;opacity:.55040003"/>
   <path d="m125.42423 132c-4.55633 0-8.25 3.69364-8.25 8.25 0 4.55635 3.69367 8.25 8.25 8.25 4.55634 0 8.25-3.69365 8.25-8.25 0-4.55636-3.69365-8.25-8.25-8.25zm-24.84741 7.43628-16.57682 28.56372h37.68961l-11.01562-21.11207-3.10473 5.95094z" style="fill:#e7e7df"/>
   <path d="m160 171.92689v-7.92689h79.33333v7.92689z" style="fill-opacity:.99607843;fill:#c8c4b7"/>
   <path d="m72 92v-8h167.99998v8z" style="fill-opacity:.99607843;fill:#c8c4b7"/>
  </g>
  <path transform="matrix(.13485389 0 0 .13485389 -4.9712557 260.95615)" d="M 361.9375,-212 C 507.2348,-212 528,-191.28677 528,-46.125 V 70.125 C 528,215.28618 507.2348,236 361.9375,236 H 214.0625 C 68.7652,236 48,215.28618 48,70.125 V -46.125 C 48,-191.28677 68.7652,-212 214.0625,-212 Z" clip-path="url(#clipPath1082)" style="fill:none;opacity:.5;stroke-linecap:round;stroke-linejoin:round;stroke-width:8;stroke:url(#linearGradient1108)"/>
  <g transform="matrix(.74745201 0 0 .57348425 -13.969762 -315.1993)">
   <rect x="20" y="1011.36" width="88" height="9" style="fill:url(#linearGradient4305);opacity:.8"/>
   <rect x="20" y="1015.36" width="88" height="1" style="fill:#ffffff;opacity:.8"/>
  </g>
 </g>
</svg>
