<svg xmlns="http://www.w3.org/2000/svg" xmlns:xlink="http://www.w3.org/1999/xlink" width="256" height="256" version="1.0" style="enable-background:new">
 <defs>
  <filter style="color-interpolation-filters:sRGB" id="filter925" width="1.046" height="1.05" x="-.02" y="-.03">
   <feGaussianBlur stdDeviation="2.32"/>
  </filter>
  <filter style="color-interpolation-filters:sRGB" id="filter931" width="1.023" height="1.025" x="-.01" y="-.01">
   <feGaussianBlur stdDeviation="1.16"/>
  </filter>
  <linearGradient id="linearGradient1108" x1="296" x2="296" y1="-212" y2="236" gradientUnits="userSpaceOnUse" xlink:href="#linearGradient1013"/>
  <linearGradient id="linearGradient1013">
   <stop offset="0" style="stop-color:#ffffff"/>
   <stop style="stop-color:#ffffff;stop-opacity:0.09803922" offset=".125"/>
   <stop style="stop-color:#000000;stop-opacity:0.09803922" offset=".925"/>
   <stop offset="1" style="stop-color:#000000;stop-opacity:0.49803922"/>
  </linearGradient>
  <clipPath id="clipPath1082-3" clipPathUnits="userSpaceOnUse">
   <path d="M 361.9375,-212 C 507.2348,-212 528,-191.28677 528,-46.125 V 70.125 C 528,215.28618 507.2348,236 361.9375,236 H 214.0625 C 68.7652,236 48,215.28618 48,70.125 V -46.125 C 48,-191.28677 68.7652,-212 214.0625,-212 Z" style="fill:#8c59d9"/>
  </clipPath>
  <filter style="color-interpolation-filters:sRGB" id="filter2090" width="1.086" height="1.109" x="-.04" y="-.06">
   <feGaussianBlur stdDeviation="1.101"/>
  </filter>
  <linearGradient id="linearGradient4351" x1="32.35" x2="21.213" y1="28.083" y2="30.293" gradientTransform="matrix(1.3344393,0,0,1.3344393,-3.3690755,227.10065)" gradientUnits="userSpaceOnUse" xlink:href="#linearGradient8534"/>
  <linearGradient id="linearGradient8534">
   <stop offset="0"/>
   <stop style="stop-opacity:0" offset="1"/>
  </linearGradient>
 </defs>
 <g transform="translate(0,-44)">
  <g>
   <g>
    <path d="m 162.53675,62.431991 c 72.64865,0 83.03125,10.356615 83.03125,82.937499 v 58.125 c 0,72.58059 -10.3826,82.9375 -83.03125,82.9375 h -73.9375 c -72.64865,0 -83.0312501,-10.35691 -83.0312501,-82.9375 v -58.125 c 0,-72.580884 10.3826001,-82.937499 83.0312501,-82.937499 z" style="opacity:0.2;filter:url(#filter925)"/>
    <path style="opacity:0.1;filter:url(#filter931)" d="m 162.53675,61.431991 c 72.64865,0 83.03125,10.356615 83.03125,82.937499 v 58.125 c 0,72.58059 -10.3826,82.9375 -83.03125,82.9375 h -73.9375 c -72.64865,0 -83.0312501,-10.35691 -83.0312501,-82.9375 v -58.125 c 0,-72.580884 10.3826001,-82.937499 83.0312501,-82.937499 z"/>
   </g>
   <g>
    <path style="fill:#e7e7df" d="m 162.53675,60.431991 c 72.64865,0 83.03125,10.356615 83.03125,82.937499 v 58.125 c 0,72.58059 -10.3826,82.9375 -83.03125,82.9375 h -73.9375 c -72.64865,0 -83.0312501,-10.35691 -83.0312501,-82.9375 v -58.125 c 0,-72.580884 10.3826001,-82.937499 83.0312501,-82.937499 z"/>
   </g>
   <g>
    <path d="M 361.9375,-212 C 507.2348,-212 528,-191.28677 528,-46.125 V 70.125 C 528,215.28618 507.2348,236 361.9375,236 H 214.0625 C 68.7652,236 48,215.28618 48,70.125 V -46.125 C 48,-191.28677 68.7652,-212 214.0625,-212 Z" clip-path="url(#clipPath1082-3)" transform="matrix(0.5,0,0,0.5,-18.432,166.43199)" style="opacity:0.4;fill:none;stroke:url(#linearGradient1108);stroke-width:8;stroke-linecap:round;stroke-linejoin:round"/>
   </g>
  </g>
 </g>
 <path style="opacity:0.25;fill:#ffffff" d="m 88.59924,240.43199 c -72.64865,0 -83.03125,-10.35258 -83.03125,-82.905 v -29.05114 h 240.00002 v 29.05114 c 0,72.55242 -10.3826,82.905 -83.03126,82.905 z"/>
 <g transform="matrix(3.0017019,0,0,3.0017019,33.02075,-651.90431)" style="opacity:0.3;filter:url(#filter2090)">
  <path d="m 12.380846,240.52258 c 0,0 4.199679,9.08985 14.024561,8.83344 20.589272,-0.5419 24.199706,-11.81532 24.716248,-13.44185 0.51652,-1.62648 1.306923,-1.3801 1.489653,0.1229 6.715072,63.97564 -46.6016511,36.52631 -48.4951718,25.62997 10.5891558,-3.25302 8.1686758,-6.97326 8.1686758,-6.97326 z" style="fill-rule:evenodd"/>
  <path d="M 113.9668,74.640625 A 26.371084,28.367858 0 0 0 91.177734,88.789062 23.415044,24.229482 0 0 0 70.318359,75.566406 23.415044,24.229482 0 0 0 46.902344,99.794922 23.415044,24.229482 0 0 0 70.318359,124.02539 23.415044,24.229482 0 0 0 89.529297,113.63086 26.371084,28.367858 0 0 0 113.9668,131.37695 26.371084,28.367858 0 0 0 140.33789,103.00977 26.371084,28.367858 0 0 0 113.9668,74.640625 Z" transform="matrix(0.26458333,0,0,0.26458333,0,229.26666)"/>
  <ellipse cx="-97.563" cy="242.372" rx="7.046" ry="8.727" transform="rotate(-24.043433)"/>
  <ellipse cx="19.718" cy="256.156" rx="2.091" ry="2.203"/>
  <ellipse cx="31.755" cy="256.972" rx="2.418" ry="2.285"/>
  <path d="m 22.751694,266.76028 c 8.992654,1.79863 13.572173,0.13113 16.252371,-1.93864 -0.707696,-0.91409 -1.916671,-1.91665 -1.916671,-1.91665 0,0 3.140362,0.87264 4.24616,2.30001 1.102637,1.42324 0.409436,2.30016 0.120844,4.12124 -0.642413,-1.59946 -1.841501,-2.1993 -2.003838,-2.83478 -2.410358,3.33197 -8.415566,3.19357 -16.698866,0.26882 z" style="fill-rule:evenodd"/>
  <g transform="matrix(-0.15326305,-0.52024985,0.52024985,-0.15326305,34.731331,266.25769)">
   <path d="m -23.364209,23.568336 3.710098,3.469175 C -11.307128,20.656664 -2.5600338,6.9381374 -2.5600338,6.9381374 -0.58371893,4.6957251 -2.6769537,3.1876548 -4.7249404,4.5402186 c 0,0 -12.9703626,10.1148664 -18.6392686,19.0281174 z"/>
   <path d="m -30.449715,32.813894 2.24632,1.93382 8.492766,-7.367031 0.275061,-0.705828 1.094405,-0.01782 c -0.4375,-1.5625 -2.941514,-4.383455 -4.816514,-4.383455 l 0.08202,1.090075 -0.669991,0.380027 z"/>
   <path d="m -45.341208,42.769835 c 10.443958,0 18.370039,1.24373 19.870605,-6.354738 1.209249,-6.123314 -7.210534,-9.057368 -11.38287,-3.590861 -4.019277,5.265971 -8.487735,9.945599 -8.487735,9.945599 z"/>
  </g>
 </g>
 <g transform="matrix(3.0017019,0,0,3.0017019,33.02075,-651.90431)">
  <path style="fill:#60594c;fill-rule:evenodd" d="m 12.380846,240.52258 c 0,0 4.199679,9.08985 14.024561,8.83344 20.589272,-0.5419 24.199706,-11.81532 24.716248,-13.44185 0.51652,-1.62648 1.306923,-1.3801 1.489653,0.1229 6.715072,63.97564 -46.6016511,36.52631 -48.4951718,25.62997 10.5891558,-3.25302 8.1686758,-6.97326 8.1686758,-6.97326 z"/>
  <path d="M 113.9668,74.640625 A 26.371084,28.367858 0 0 0 91.177734,88.789062 23.415044,24.229482 0 0 0 70.318359,75.566406 23.415044,24.229482 0 0 0 46.902344,99.794922 23.415044,24.229482 0 0 0 70.318359,124.02539 23.415044,24.229482 0 0 0 89.529297,113.63086 26.371084,28.367858 0 0 0 113.9668,131.37695 26.371084,28.367858 0 0 0 140.33789,103.00977 26.371084,28.367858 0 0 0 113.9668,74.640625 Z" transform="matrix(0.26458333,0,0,0.26458333,0,229.26666)" style="fill:#ffffff"/>
  <ellipse cx="-97.563" cy="242.372" rx="7.046" ry="8.727" transform="rotate(-24.043433)"/>
  <ellipse cx="19.718" cy="256.156" rx="2.091" ry="2.203" style="fill:#474747"/>
  <ellipse style="fill:#474747" cx="31.755" cy="256.972" rx="2.418" ry="2.285"/>
  <path style="fill:url(#linearGradient4351);fill-rule:evenodd" d="m 22.751694,266.76028 c 8.992654,1.79863 13.572173,0.13113 16.252371,-1.93864 -0.707696,-0.91409 -1.916671,-1.91665 -1.916671,-1.91665 0,0 3.140362,0.87264 4.24616,2.30001 1.102637,1.42324 0.409436,2.30016 0.120844,4.12124 -0.642413,-1.59946 -1.841501,-2.1993 -2.003838,-2.83478 -2.410358,3.33197 -8.415566,3.19357 -16.698866,0.26882 z"/>
  <g transform="matrix(-0.15326305,-0.52024985,0.52024985,-0.15326305,34.731331,266.25769)">
   <path style="fill:#d17716;stroke:#d17716;stroke-width:2.46045303;stroke-linecap:round" d="m -23.364209,23.568336 3.710098,3.469175 C -11.307128,20.656664 -2.5600338,6.9381374 -2.5600338,6.9381374 -0.58371893,4.6957251 -2.6769537,3.1876548 -4.7249404,4.5402186 c 0,0 -12.9703626,10.1148664 -18.6392686,19.0281174 z"/>
   <path style="fill:#bdbdbd;stroke:#bdbdbd;stroke-width:2.46045303;stroke-linecap:round" d="m -30.449715,32.813894 2.24632,1.93382 8.492766,-7.367031 0.275061,-0.705828 1.094405,-0.01782 c -0.4375,-1.5625 -2.941514,-4.383455 -4.816514,-4.383455 l 0.08202,1.090075 -0.669991,0.380027 z"/>
   <path style="fill:#4b4b4b" d="m -45.341208,42.769835 c 10.443958,0 18.370039,1.24373 19.870605,-6.354738 1.209249,-6.123314 -7.210534,-9.057368 -11.38287,-3.590861 -4.019277,5.265971 -8.487735,9.945599 -8.487735,9.945599 z"/>
  </g>
 </g>
</svg>
