<svg width="256" height="256" style="enable-background:new" version="1.0" xmlns="http://www.w3.org/2000/svg" xmlns:xlink="http://www.w3.org/1999/xlink">
 <defs>
  <filter id="filter925" x="-.02" y="-.03" width="1.046" height="1.05" style="color-interpolation-filters:sRGB">
   <feGaussianBlur stdDeviation="2.32"/>
  </filter>
  <filter id="filter931" x="-.01" y="-.01" width="1.023" height="1.025" style="color-interpolation-filters:sRGB">
   <feGaussianBlur stdDeviation="1.16"/>
  </filter>
  <linearGradient id="linearGradient1108" x1="296" x2="296" y1="-212" y2="236" gradientUnits="userSpaceOnUse">
   <stop style="stop-color:#ffffff" offset="0"/>
   <stop style="stop-color:#ffffff;stop-opacity:.09803922" offset=".125"/>
   <stop style="stop-color:#000000;stop-opacity:.09803922" offset=".925"/>
   <stop style="stop-color:#000000;stop-opacity:.49803922" offset="1"/>
  </linearGradient>
  <clipPath id="clipPath1082-3">
   <path d="M 361.9375,-212 C 507.2348,-212 528,-191.28677 528,-46.125 V 70.125 C 528,215.28618 507.2348,236 361.9375,236 H 214.0625 C 68.7652,236 48,215.28618 48,70.125 V -46.125 C 48,-191.28677 68.7652,-212 214.0625,-212 Z" style="fill:#8c59d9"/>
  </clipPath>
  <filter id="filter2090" x="-.04" y="-.06" width="1.086" height="1.109" style="color-interpolation-filters:sRGB">
   <feGaussianBlur stdDeviation="1.101"/>
  </filter>
  <linearGradient id="linearGradient4351" x1="32.35" x2="21.213" y1="28.083" y2="30.293" gradientTransform="matrix(1.3344393,0,0,1.3344393,-3.3690755,227.10065)" gradientUnits="userSpaceOnUse">
   <stop offset="0"/>
   <stop style="stop-opacity:0" offset="1"/>
  </linearGradient>
 </defs>
 <g transform="translate(0,-44)">
  <path d="m162.53675 62.431991c72.64865 0 83.03125 10.356615 83.03125 82.937499v58.125c0 72.58059-10.3826 82.9375-83.03125 82.9375h-73.9375c-72.64865 0-83.03125-10.35691-83.03125-82.9375v-58.125c0-72.580884 10.3826-82.937499 83.03125-82.937499z" style="filter:url(#filter925);opacity:.2"/>
  <path d="m162.53675 61.431991c72.64865 0 83.03125 10.356615 83.03125 82.937499v58.125c0 72.58059-10.3826 82.9375-83.03125 82.9375h-73.9375c-72.64865 0-83.03125-10.35691-83.03125-82.9375v-58.125c0-72.580884 10.3826-82.937499 83.03125-82.937499z" style="filter:url(#filter931);opacity:.1"/>
  <path d="m162.53675 60.431991c72.64865 0 83.03125 10.356615 83.03125 82.937499v58.125c0 72.58059-10.3826 82.9375-83.03125 82.9375h-73.9375c-72.64865 0-83.03125-10.35691-83.03125-82.9375v-58.125c0-72.580884 10.3826-82.937499 83.03125-82.937499z" style="fill:#e7e7df"/>
  <path transform="matrix(.5 0 0 .5 -18.432 166.43199)" d="M 361.9375,-212 C 507.2348,-212 528,-191.28677 528,-46.125 V 70.125 C 528,215.28618 507.2348,236 361.9375,236 H 214.0625 C 68.7652,236 48,215.28618 48,70.125 V -46.125 C 48,-191.28677 68.7652,-212 214.0625,-212 Z" clip-path="url(#clipPath1082-3)" style="fill:none;opacity:.4;stroke-linecap:round;stroke-linejoin:round;stroke-width:8;stroke:url(#linearGradient1108)"/>
 </g>
 <path d="m88.59924 240.43199c-72.64865 0-83.03125-10.35258-83.03125-82.905v-29.05114h240.00002v29.05114c0 72.55242-10.3826 82.905-83.03126 82.905z" style="fill:#ffffff;opacity:.25"/>
 <g transform="matrix(3.0017019,0,0,3.0017019,33.02075,-651.90431)" style="filter:url(#filter2090);opacity:.3">
  <path d="m12.380846 240.52258s4.199679 9.08985 14.024561 8.83344c20.589272-0.5419 24.199706-11.81532 24.716248-13.44185 0.51652-1.62648 1.306923-1.3801 1.489653 0.1229 6.715072 63.97564-46.601651 36.52631-48.495172 25.62997 10.589156-3.25302 8.1686758-6.97326 8.1686758-6.97326z" style="fill-rule:evenodd"/>
  <path transform="matrix(.26458333 0 0 .26458333 0 229.26666)" d="m113.9668 74.640625a26.371084 28.367858 0 0 0-22.789066 14.148437 23.415044 24.229482 0 0 0-20.859375-13.222656 23.415044 24.229482 0 0 0-23.416015 24.228516 23.415044 24.229482 0 0 0 23.416015 24.230468 23.415044 24.229482 0 0 0 19.210938-10.39453 26.371084 28.367858 0 0 0 24.437503 17.74609 26.371084 28.367858 0 0 0 26.37109-28.36718 26.371084 28.367858 0 0 0-26.37109-28.369145z"/>
  <ellipse transform="rotate(-24.043433)" cx="-97.563" cy="242.372" rx="7.046" ry="8.727"/>
  <ellipse cx="19.718" cy="256.156" rx="2.091" ry="2.203"/>
  <ellipse cx="31.755" cy="256.972" rx="2.418" ry="2.285"/>
  <path d="m22.751694 266.76028c8.992654 1.79863 13.572173 0.13113 16.252371-1.93864-0.707696-0.91409-1.916671-1.91665-1.916671-1.91665s3.140362 0.87264 4.24616 2.30001c1.102637 1.42324 0.409436 2.30016 0.120844 4.12124-0.642413-1.59946-1.841501-2.1993-2.003838-2.83478-2.410358 3.33197-8.415566 3.19357-16.698866 0.26882z" style="fill-rule:evenodd"/>
  <g transform="matrix(-.15326305 -.52024985 .52024985 -.15326305 34.731331 266.25769)">
   <path d="m-23.364209 23.568336 3.710098 3.469175c8.346983-6.380847 17.094077-20.099374 17.094077-20.099374 1.9763149-2.2424123-0.1169199-3.7504826-2.1649066-2.3979188 0 0-12.970363 10.114866-18.639269 19.028117z"/>
   <path d="m-30.449715 32.813894 2.24632 1.93382 8.492766-7.367031 0.275061-0.705828 1.094405-0.01782c-0.4375-1.5625-2.941514-4.383455-4.816514-4.383455l0.08202 1.090075-0.669991 0.380027z"/>
   <path d="m-45.341208 42.769835c10.443958 0 18.370039 1.24373 19.870605-6.354738 1.209249-6.123314-7.210534-9.057368-11.38287-3.590861-4.019277 5.265971-8.487735 9.945599-8.487735 9.945599z"/>
  </g>
 </g>
 <g transform="matrix(3.0017019,0,0,3.0017019,33.02075,-651.90431)">
  <path d="m12.380846 240.52258s4.199679 9.08985 14.024561 8.83344c20.589272-0.5419 24.199706-11.81532 24.716248-13.44185 0.51652-1.62648 1.306923-1.3801 1.489653 0.1229 6.715072 63.97564-46.601651 36.52631-48.495172 25.62997 10.589156-3.25302 8.1686758-6.97326 8.1686758-6.97326z" style="fill-rule:evenodd;fill:#60594c"/>
  <path transform="matrix(.26458333 0 0 .26458333 0 229.26666)" d="m113.9668 74.640625a26.371084 28.367858 0 0 0-22.789066 14.148437 23.415044 24.229482 0 0 0-20.859375-13.222656 23.415044 24.229482 0 0 0-23.416015 24.228516 23.415044 24.229482 0 0 0 23.416015 24.230468 23.415044 24.229482 0 0 0 19.210938-10.39453 26.371084 28.367858 0 0 0 24.437503 17.74609 26.371084 28.367858 0 0 0 26.37109-28.36718 26.371084 28.367858 0 0 0-26.37109-28.369145z" style="fill:#ffffff"/>
  <ellipse transform="rotate(-24.043433)" cx="-97.563" cy="242.372" rx="7.046" ry="8.727"/>
  <ellipse cx="19.718" cy="256.156" rx="2.091" ry="2.203" style="fill:#474747"/>
  <ellipse cx="31.755" cy="256.972" rx="2.418" ry="2.285" style="fill:#474747"/>
  <path d="m22.751694 266.76028c8.992654 1.79863 13.572173 0.13113 16.252371-1.93864-0.707696-0.91409-1.916671-1.91665-1.916671-1.91665s3.140362 0.87264 4.24616 2.30001c1.102637 1.42324 0.409436 2.30016 0.120844 4.12124-0.642413-1.59946-1.841501-2.1993-2.003838-2.83478-2.410358 3.33197-8.415566 3.19357-16.698866 0.26882z" style="fill-rule:evenodd;fill:url(#linearGradient4351)"/>
  <g transform="matrix(-.15326305 -.52024985 .52024985 -.15326305 34.731331 266.25769)">
   <path d="m-23.364209 23.568336 3.710098 3.469175c8.346983-6.380847 17.094077-20.099374 17.094077-20.099374 1.9763149-2.2424123-0.1169199-3.7504826-2.1649066-2.3979188 0 0-12.970363 10.114866-18.639269 19.028117z" style="fill:#d17716;stroke-linecap:round;stroke-width:2.460453;stroke:#d17716"/>
   <path d="m-30.449715 32.813894 2.24632 1.93382 8.492766-7.367031 0.275061-0.705828 1.094405-0.01782c-0.4375-1.5625-2.941514-4.383455-4.816514-4.383455l0.08202 1.090075-0.669991 0.380027z" style="fill:#bdbdbd;stroke-linecap:round;stroke-width:2.460453;stroke:#bdbdbd"/>
   <path d="m-45.341208 42.769835c10.443958 0 18.370039 1.24373 19.870605-6.354738 1.209249-6.123314-7.210534-9.057368-11.38287-3.590861-4.019277 5.265971-8.487735 9.945599-8.487735 9.945599z" style="fill:#4b4b4b"/>
  </g>
 </g>
</svg>
