<svg width="256" height="256" version="1.1" viewBox="0 0 67.73 67.73" xmlns="http://www.w3.org/2000/svg" xmlns:xlink="http://www.w3.org/1999/xlink">
 <defs>
  <clipPath id="clipPath1082-3-5">
   <path d="M 361.9375,-212 C 507.2348,-212 528,-191.28677 528,-46.125 V 70.125 C 528,215.28618 507.2348,236 361.9375,236 H 214.0625 C 68.7652,236 48,215.28618 48,70.125 V -46.125 C 48,-191.28677 68.7652,-212 214.0625,-212 Z" style="fill:#8c59d9"/>
  </clipPath>
  <filter id="filter4569-2" x="-.01" y="-.01" width="1.023" height="1.025" style="color-interpolation-filters:sRGB">
   <feGaussianBlur stdDeviation="1.16"/>
  </filter>
  <filter id="filter913" x="-.02" y="-.03" width="1.046" height="1.05" style="color-interpolation-filters:sRGB">
   <feGaussianBlur stdDeviation="2.32"/>
  </filter>
  <linearGradient id="linearGradient906" x1="296" x2="296" y1="-212" y2="236" gradientUnits="userSpaceOnUse">
   <stop style="stop-color:#ffffff" offset="0"/>
   <stop style="stop-color:#ffffff;stop-opacity:.09803922" offset=".125"/>
   <stop style="stop-color:#000000;stop-opacity:.09803922" offset=".925"/>
   <stop style="stop-color:#000000;stop-opacity:.49803922" offset="1"/>
  </linearGradient>
 </defs>
 <g transform="translate(0,-229.26666)">
  <path transform="matrix(.26970778 0 0 .26970778 -7.1289177 220.56049)" d="m188.96876 45.999995c72.64865 0 83.03125 10.356615 83.03125 82.937505v58.125c0 72.58059-10.3826 82.9375-83.03125 82.9375h-73.9375c-72.648654 0-83.031254-10.35691-83.031254-82.9375v-58.125c0-72.58089 10.3826-82.937505 83.031254-82.937505z" style="filter:url(#filter913);opacity:.2"/>
  <path transform="matrix(.26970778 0 0 .26970778 -7.1289177 220.56049)" d="m188.96876 43.999995c72.64865 0 83.03125 10.356615 83.03125 82.937505v58.125c0 72.58059-10.3826 82.9375-83.03125 82.9375h-73.9375c-72.648654 0-83.031254-10.35691-83.031254-82.9375v-58.125c0-72.58089 10.3826-82.937505 83.031254-82.937505z" style="filter:url(#filter4569-2);opacity:.1"/>
  <path d="m23.895905 232.42763c-9.797337 0-15.39413 0.69699-18.544517 3.84334-3.150381 3.14634-3.849657 8.73736-3.849657 18.52555v15.67677c0 9.78815 0.699276 15.3792 3.849657 18.52555 3.150387 3.14636 8.7471787 3.84333 18.544517 3.84333h19.94152c9.797339 0 15.394134-0.69697 18.544517-3.84333 3.150384-3.14635 3.849659-8.7374 3.849659-18.52555v-15.67677c0-9.78819-0.699275-15.37921-3.849659-18.52555-3.150383-3.14635-8.74718-3.84334-18.544517-3.84334z" style="fill:#333333"/>
  <path d="m1.5017313 269.93387v0.53942c0 9.78815 0.699276 15.3792 3.849657 18.52555 3.150387 3.14636 8.7471787 3.84333 18.544517 3.84333h19.94152c9.797339 0 15.394134-0.69697 18.544517-3.84333 3.150384-3.14635 3.849659-8.7374 3.849659-18.52555v-0.53942c0 9.78815-0.699275 15.3792-3.849659 18.52555-3.150383 3.14636-8.747178 3.84334-18.544517 3.84334h-19.94152c-9.797338 0-15.39413-0.69698-18.544517-3.84334-3.150381-3.14635-3.849657-8.7374-3.849657-18.52555z" style="fill:#131313;opacity:.2"/>
  <path transform="matrix(.13485389 0 0 .13485389 -4.9712557 261.01666)" d="M 361.9375,-212 C 507.2348,-212 528,-191.28677 528,-46.125 V 70.125 C 528,215.28618 507.2348,236 361.9375,236 H 214.0625 C 68.7652,236 48,215.28618 48,70.125 V -46.125 C 48,-191.28677 68.7652,-212 214.0625,-212 Z" clip-path="url(#clipPath1082-3-5)" style="fill:none;opacity:.4;stroke-linecap:round;stroke-linejoin:round;stroke-width:8;stroke:url(#linearGradient906)"/>
  <g transform="translate(4.1067582,3.0850152)">
   <g transform="matrix(.35277777 0 0 -.35277777 29.759908 238.77237)">
    <path d="m0 0c-33.347 0-60.388-27.035-60.388-60.388 0-26.68 17.303-49.316 41.297-57.301 3.018-0.559 4.126 1.31 4.126 2.905 0 1.439-0.056 6.197-0.082 11.243-16.8-3.653-20.345 7.125-20.345 7.125-2.747 6.979-6.705 8.836-6.705 8.836-5.479 3.748 0.413 3.671 0.413 3.671 6.064-0.426 9.257-6.224 9.257-6.224 5.386-9.231 14.127-6.562 17.573-5.019 0.543 3.902 2.107 6.567 3.834 8.075-13.413 1.526-27.513 6.705-27.513 29.844 0 6.592 2.359 11.979 6.222 16.208-0.627 1.522-2.694 7.664 0.586 15.982 0 0 5.071 1.622 16.61-6.191 4.817 1.338 9.983 2.009 15.115 2.033 5.132-0.024 10.302-0.695 15.128-2.033 11.526 7.813 16.59 6.191 16.59 6.191 3.287-8.318 1.22-14.46 0.593-15.982 3.872-4.229 6.214-9.616 6.214-16.208 0-23.195-14.127-28.301-27.574-29.796 2.166-1.874 4.096-5.549 4.096-11.183 0-8.08-0.069-14.583-0.069-16.572 0-1.608 1.086-3.491 4.147-2.898 23.982 7.994 41.263 30.622 41.263 57.294 0 33.353-27.037 60.388-60.388 60.388" style="fill-rule:evenodd;fill:#ffffff"/>
   </g>
   <g transform="matrix(.35277777 0 0 -.35277777 16.525238 269.35933)">
    <path d="m0 0c-0.133-0.301-0.605-0.391-1.035-0.184-0.439 0.197-0.684 0.606-0.542 0.907 0.13 0.308 0.602 0.394 1.04 0.188 0.438-0.197 0.688-0.61 0.537-0.911" style="fill:#ffffff"/>
   </g>
   <g transform="matrix(.35277777 0 0 -.35277777 17.388237 270.32189)">
    <path d="m0 0c-0.288-0.267-0.852-0.143-1.233 0.279-0.396 0.421-0.469 0.985-0.177 1.255 0.297 0.267 0.843 0.142 1.238-0.279 0.396-0.426 0.473-0.985 0.172-1.255" style="fill:#ffffff"/>
   </g>
   <g transform="matrix(.35277777 0 0 -.35277777 18.228167 271.54867)">
    <path d="m0 0c-0.37-0.258-0.976-0.017-1.35 0.52-0.37 0.538-0.37 1.182 9e-3 1.44 0.374 0.258 0.971 0.025 1.35-0.507 0.369-0.546 0.369-1.19-9e-3 -1.453" style="fill:#ffffff"/>
   </g>
   <g transform="matrix(.35277777 0 0 -.35277777 19.378822 272.73415)">
    <path d="m0 0c-0.331-0.365-1.036-0.267-1.552 0.231-0.528 0.487-0.675 1.178-0.344 1.543 0.336 0.366 1.045 0.263 1.565-0.231 0.524-0.486 0.683-1.182 0.331-1.543" style="fill:#ffffff"/>
   </g>
   <g transform="matrix(.35277777 0 0 -.35277777 20.966322 273.42245)">
    <path d="m0 0c-0.147-0.473-0.825-0.687-1.509-0.486-0.683 0.207-1.13 0.76-0.992 1.238 0.142 0.477 0.824 0.7 1.513 0.485 0.682-0.206 1.13-0.756 0.988-1.237" style="fill:#ffffff"/>
   </g>
   <g transform="matrix(.35277777 0 0 -.35277777 22.709892 273.54994)">
    <path d="m0 0c0.017-0.498-0.563-0.911-1.281-0.92-0.722-0.017-1.307 0.387-1.315 0.877 0 0.503 0.568 0.911 1.289 0.924 0.718 0.014 1.307-0.387 1.307-0.881" style="fill:#ffffff"/>
   </g>
   <g transform="matrix(.35277777 0 0 -.35277777 24.332174 273.27397)">
    <path d="m0 0c0.086-0.485-0.413-0.984-1.126-1.117-0.701-0.129-1.35 0.172-1.439 0.653-0.087 0.498 0.42 0.997 1.121 1.126 0.714 0.124 1.353-0.168 1.444-0.662" style="fill:#ffffff"/>
   </g>
  </g>
 </g>
</svg>
