<svg xmlns="http://www.w3.org/2000/svg" xmlns:xlink="http://www.w3.org/1999/xlink" width="256" height="256" version="1.1" viewBox="0 0 67.73 67.73">
 <defs>
  <linearGradient id="linearGradient1013">
   <stop offset="0" style="stop-color:#ffffff"/>
   <stop style="stop-color:#ffffff;stop-opacity:0.09803922" offset=".125"/>
   <stop style="stop-color:#000000;stop-opacity:0.09803922" offset=".925"/>
   <stop offset="1" style="stop-color:#000000;stop-opacity:0.49803922"/>
  </linearGradient>
  <clipPath id="clipPath1082-3-5" clipPathUnits="userSpaceOnUse">
   <path d="M 361.9375,-212 C 507.2348,-212 528,-191.28677 528,-46.125 V 70.125 C 528,215.28618 507.2348,236 361.9375,236 H 214.0625 C 68.7652,236 48,215.28618 48,70.125 V -46.125 C 48,-191.28677 68.7652,-212 214.0625,-212 Z" style="fill:#8c59d9"/>
  </clipPath>
  <filter style="color-interpolation-filters:sRGB" id="filter4569-2" width="1.023" height="1.025" x="-.01" y="-.01">
   <feGaussianBlur stdDeviation="1.16"/>
  </filter>
  <filter style="color-interpolation-filters:sRGB" id="filter913" width="1.046" height="1.05" x="-.02" y="-.03">
   <feGaussianBlur stdDeviation="2.32"/>
  </filter>
  <linearGradient id="linearGradient906" x1="296" x2="296" y1="-212" y2="236" gradientUnits="userSpaceOnUse" xlink:href="#linearGradient1013"/>
  <filter style="color-interpolation-filters:sRGB" id="filter1466" width="1.09" height="1.103" x="-.04" y="-.05">
   <feGaussianBlur stdDeviation=".891"/>
  </filter>
 </defs>
 <g transform="translate(0,-229.26666)">
  <path style="opacity:0.2;filter:url(#filter913)" d="m 188.96876,45.999995 c 72.64865,0 83.03125,10.356615 83.03125,82.937505 v 58.125 c 0,72.58059 -10.3826,82.9375 -83.03125,82.9375 h -73.9375 C 42.382606,270 32.000006,259.64309 32.000006,187.0625 v -58.125 c 0,-72.58089 10.3826,-82.937505 83.031254,-82.937505 z" transform="matrix(0.26970778,0,0,0.26970778,-7.1289177,220.56049)"/>
  <path d="m 188.96876,43.999995 c 72.64865,0 83.03125,10.356615 83.03125,82.937505 v 58.125 c 0,72.58059 -10.3826,82.9375 -83.03125,82.9375 h -73.9375 C 42.382606,268 32.000006,257.64309 32.000006,185.0625 v -58.125 c 0,-72.58089 10.3826,-82.937505 83.031254,-82.937505 z" transform="matrix(0.26970778,0,0,0.26970778,-7.1289177,220.56049)" style="opacity:0.1;filter:url(#filter4569-2)"/>
  <path style="fill:#128379" d="m 23.895905,232.42763 c -9.797337,0 -15.3941297,0.69699 -18.5445167,3.84334 -3.150381,3.14634 -3.849657,8.73736 -3.849657,18.52555 v 15.67677 c 0,9.78815 0.699276,15.3792 3.849657,18.52555 3.150387,3.14636 8.7471787,3.84333 18.5445167,3.84333 h 19.94152 c 9.797339,0 15.394134,-0.69697 18.544517,-3.84333 3.150384,-3.14635 3.849659,-8.7374 3.849659,-18.52555 v -15.67677 c 0,-9.78819 -0.699275,-15.37921 -3.849659,-18.52555 -3.150383,-3.14635 -8.74718,-3.84334 -18.544517,-3.84334 z"/>
  <path style="opacity:0.2;fill:#131313" d="m 1.5017313,269.93387 v 0.53942 c 0,9.78815 0.699276,15.3792 3.849657,18.52555 3.150387,3.14636 8.7471787,3.84333 18.5445167,3.84333 h 19.94152 c 9.797339,0 15.394134,-0.69697 18.544517,-3.84333 3.150384,-3.14635 3.849659,-8.7374 3.849659,-18.52555 v -0.53942 c 0,9.78815 -0.699275,15.3792 -3.849659,18.52555 -3.150383,3.14636 -8.747178,3.84334 -18.544517,3.84334 h -19.94152 c -9.797338,0 -15.3941297,-0.69698 -18.5445167,-3.84334 -3.150381,-3.14635 -3.849657,-8.7374 -3.849657,-18.52555 z"/>
  <path d="M 361.9375,-212 C 507.2348,-212 528,-191.28677 528,-46.125 V 70.125 C 528,215.28618 507.2348,236 361.9375,236 H 214.0625 C 68.7652,236 48,215.28618 48,70.125 V -46.125 C 48,-191.28677 68.7652,-212 214.0625,-212 Z" clip-path="url(#clipPath1082-3-5)" transform="matrix(0.13485389,0,0,0.13485389,-4.9712557,261.01666)" style="opacity:0.4;fill:none;stroke:url(#linearGradient906);stroke-width:8;stroke-linecap:round;stroke-linejoin:round"/>
  <path style="opacity:0.05;fill:#ffffff" d="m 1.5017313,262.60416 v 9.33914 c 0,9.14491 0.699276,14.36853 3.849657,17.30811 3.150387,2.93959 8.7471787,3.59076 18.5445167,3.59076 h 19.94152 c 9.797339,0 15.394134,-0.65117 18.544517,-3.59076 3.150384,-2.93958 3.849659,-8.1632 3.849659,-17.30811 v -9.33914 z"/>
  <path style="fill:#060606;filter:url(#filter1466);opacity:0.3" d="m 56.149214,251.26146 c -0.196082,-0.50974 -0.784696,-0.74525 -1.255364,-0.54917 -0.353096,0.15701 -0.588431,0.5101 -0.588431,0.8632 0,0.11758 0,0.23533 0.07851,0.31365 0.902271,2.39316 1.412191,4.98222 1.412191,7.72827 0,11.10222 -8.277447,20.32119 -19.026372,21.69413 v -10.23901 c 0.66675,-0.11757 1.294433,-0.31384 1.922114,-0.50973 v 8.5911 c 8.748304,-2.11838 15.299531,-10.04274 15.299531,-19.53649 0,-7.57125 -4.19751,-14.20118 -10.395643,-17.61417 -0.470669,-0.27459 -1.059285,-0.0783 -1.294806,0.4316 -0.07832,0.11776 -0.07832,0.27459 -0.07832,0.4316 0,0.35291 0.196081,0.66675 0.470669,0.82376 5.609891,3.09916 9.415239,9.1014 9.415239,15.96647 0,7.72828 -4.786126,14.31894 -11.572875,16.9865 v -7.6105 c 1.177044,-0.3531 2.040062,-1.45145 2.040062,-2.78532 0,-1.09836 -0.549177,-2.00081 -1.451446,-2.51074 0.66675,-6.59067 3.687588,-4.8252 3.687588,-6.94358 v -1.2163 c 0,-3.13841 -7.257603,-13.37741 -10.670603,-13.61274 h -0.627685 c -3.412999,0.23552 -10.670417,10.47433 -10.670417,13.61274 v 1.21612 c 0,2.07913 2.981399,0.3529 3.687588,6.94357 -0.863202,0.50993 -1.412379,1.45145 -1.412379,2.51074 0,1.29461 0.863204,2.39296 2.040062,2.78532 v 7.61069 c -6.747496,-2.66774 -11.572876,-9.2584 -11.572876,-16.98669 0,-6.86506 3.805349,-12.86731 9.415239,-15.96646 0.431602,-0.23534 0.627684,-0.78451 0.392163,-1.25537 -0.117388,-0.35291 -0.470669,-0.54898 -0.823764,-0.54898 -0.156828,0 -0.313841,0.0391 -0.470669,0.11757 -6.198319,3.41299 -10.396203,10.04292 -10.396203,17.61417 0,9.49375 6.551415,17.41811 15.378038,19.57575 v -8.59129 c 0.627683,0.19607 1.255365,0.39235 1.922301,0.50991 v 10.23901 c -10.74874,-1.41219 -19.026188,-10.5921 -19.026188,-21.73338 0,-2.70681 0.509922,-5.29586 1.412192,-7.72827 0.196267,-0.47066 -0.03907,-1.01984 -0.509922,-1.21611 -0.11776,-0.0391 -0.235334,-0.0783 -0.353095,-0.0783 -0.392348,0 -0.745442,0.23534 -0.90227,0.62768 -1.020031,2.62831 -1.569207,5.45288 -1.569207,8.39502 0,12.82825 10.121244,23.26334 22.831723,23.77344 v -12.04354 c 0.353096,0.0391 0.980779,0.0391 0.980779,0.0391 0,0 0.627681,0 0.980776,-0.0391 v 12.04354 c 12.710481,-0.5101 22.831723,-10.94519 22.831723,-23.77344 -0.03907,-2.94214 -0.549175,-5.76671 -1.529953,-8.35595 z m -17.888769,13.57369 c 0.353095,-0.3531 0.823764,-0.58861 1.372939,-0.58861 0.549362,0 1.020032,0.23551 1.372941,0.58861 0.353281,0.3529 0.588615,0.82377 0.588615,1.37294 0,0.54917 -0.235334,1.02003 -0.58843,1.37294 -0.353094,0.35328 -0.823764,0.58861 -1.372939,0.58861 -0.549362,0 -1.020031,-0.23533 -1.373126,-0.58842 -0.353094,-0.3531 -0.588428,-0.82396 -0.588428,-1.37294 0,-0.54936 0.235334,-1.02023 0.588428,-1.37313 z m -8.787556,2.74588 c -0.353095,0.35328 -0.823763,0.58861 -1.372939,0.58861 -0.549363,0 -1.020031,-0.23533 -1.37294,-0.58842 -0.392534,-0.3531 -0.588615,-0.82396 -0.588615,-1.37294 0,-0.54936 0.235333,-1.02023 0.588429,-1.37313 0.353095,-0.3531 0.823763,-0.58861 1.372939,-0.58861 0.549363,0 1.020031,0.23551 1.373126,0.58861 0.353095,0.3529 0.588428,0.82377 0.588428,1.37294 -0.03907,0.54917 -0.235333,1.02003 -0.588428,1.37294 z"/>
  <path d="m 56.149214,251.26146 c -0.196082,-0.50974 -0.784696,-0.74525 -1.255364,-0.54917 -0.353096,0.15701 -0.588431,0.5101 -0.588431,0.8632 0,0.11758 0,0.23533 0.07851,0.31365 0.902271,2.39316 1.412191,4.98222 1.412191,7.72827 0,11.10222 -8.277447,20.32119 -19.026372,21.69413 v -10.23901 c 0.66675,-0.11757 1.294433,-0.31384 1.922114,-0.50973 v 8.5911 c 8.748304,-2.11838 15.299531,-10.04274 15.299531,-19.53649 0,-7.57125 -4.19751,-14.20118 -10.395643,-17.61417 -0.470669,-0.27459 -1.059285,-0.0783 -1.294806,0.4316 -0.07832,0.11776 -0.07832,0.27459 -0.07832,0.4316 0,0.35291 0.196081,0.66675 0.470669,0.82376 5.609891,3.09916 9.415239,9.1014 9.415239,15.96647 0,7.72828 -4.786126,14.31894 -11.572875,16.9865 v -7.6105 c 1.177044,-0.3531 2.040062,-1.45145 2.040062,-2.78532 0,-1.09836 -0.549177,-2.00081 -1.451446,-2.51074 0.66675,-6.59067 3.687588,-4.8252 3.687588,-6.94358 v -1.2163 c 0,-3.13841 -7.257603,-13.37741 -10.670603,-13.61274 h -0.627685 c -3.412999,0.23552 -10.670417,10.47433 -10.670417,13.61274 v 1.21612 c 0,2.07913 2.981399,0.3529 3.687588,6.94357 -0.863202,0.50993 -1.412379,1.45145 -1.412379,2.51074 0,1.29461 0.863204,2.39296 2.040062,2.78532 v 7.61069 c -6.747496,-2.66774 -11.572876,-9.2584 -11.572876,-16.98669 0,-6.86506 3.805349,-12.86731 9.415239,-15.96646 0.431602,-0.23534 0.627684,-0.78451 0.392163,-1.25537 -0.117388,-0.35291 -0.470669,-0.54898 -0.823764,-0.54898 -0.156828,0 -0.313841,0.0391 -0.470669,0.11757 -6.198319,3.41299 -10.396203,10.04292 -10.396203,17.61417 0,9.49375 6.551415,17.41811 15.378038,19.57575 v -8.59129 c 0.627683,0.19607 1.255365,0.39235 1.922301,0.50991 v 10.23901 c -10.74874,-1.41219 -19.026188,-10.5921 -19.026188,-21.73338 0,-2.70681 0.509922,-5.29586 1.412192,-7.72827 0.196267,-0.47066 -0.03907,-1.01984 -0.509922,-1.21611 -0.11776,-0.0391 -0.235334,-0.0783 -0.353095,-0.0783 -0.392348,0 -0.745442,0.23534 -0.90227,0.62768 -1.020031,2.62831 -1.569207,5.45288 -1.569207,8.39502 0,12.82825 10.121244,23.26334 22.831723,23.77344 v -12.04354 c 0.353096,0.0391 0.980779,0.0391 0.980779,0.0391 0,0 0.627681,0 0.980776,-0.0391 v 12.04354 c 12.710481,-0.5101 22.831723,-10.94519 22.831723,-23.77344 -0.03907,-2.94214 -0.549175,-5.76671 -1.529953,-8.35595 z m -17.888769,13.57369 c 0.353095,-0.3531 0.823764,-0.58861 1.372939,-0.58861 0.549362,0 1.020032,0.23551 1.372941,0.58861 0.353281,0.3529 0.588615,0.82377 0.588615,1.37294 0,0.54917 -0.235334,1.02003 -0.58843,1.37294 -0.353094,0.35328 -0.823764,0.58861 -1.372939,0.58861 -0.549362,0 -1.020031,-0.23533 -1.373126,-0.58842 -0.353094,-0.3531 -0.588428,-0.82396 -0.588428,-1.37294 0,-0.54936 0.235334,-1.02023 0.588428,-1.37313 z m -8.787556,2.74588 c -0.353095,0.35328 -0.823763,0.58861 -1.372939,0.58861 -0.549363,0 -1.020031,-0.23533 -1.37294,-0.58842 -0.392534,-0.3531 -0.588615,-0.82396 -0.588615,-1.37294 0,-0.54936 0.235333,-1.02023 0.588429,-1.37313 0.353095,-0.3531 0.823763,-0.58861 1.372939,-0.58861 0.549363,0 1.020031,0.23551 1.373126,0.58861 0.353095,0.3529 0.588428,0.82377 0.588428,1.37294 -0.03907,0.54917 -0.235333,1.02003 -0.588428,1.37294 z" style="fill:#ffffff"/>
 </g>
</svg>
