<svg width="256" height="256" version="1.1" viewBox="0 0 256 256" xmlns="http://www.w3.org/2000/svg" xmlns:xlink="http://www.w3.org/1999/xlink">
 <defs>
  <linearGradient id="linearGradient1108" x1="296" x2="296" y1="-212" y2="236" gradientUnits="userSpaceOnUse">
   <stop style="stop-color:#ffffff" offset="0"/>
   <stop style="stop-color:#ffffff;stop-opacity:.09803922" offset=".125"/>
   <stop style="stop-color:#000000;stop-opacity:.09803922" offset=".925"/>
   <stop style="stop-color:#000000;stop-opacity:.49803922" offset="1"/>
  </linearGradient>
  <clipPath id="clipPath1082-3-361">
   <path d="M 361.9375,-212 C 507.2348,-212 528,-191.28677 528,-46.125 V 70.125 C 528,215.28618 507.2348,236 361.9375,236 H 214.0625 C 68.7652,236 48,215.28618 48,70.125 V -46.125 C 48,-191.28677 68.7652,-212 214.0625,-212 Z" style="fill:#8c59d9"/>
  </clipPath>
  <linearGradient id="linearGradient1044" x1="88" x2="256" y1="28" y2="284" gradientTransform="matrix(1.0193681,0,0,1.0193681,-26.943941,-32.905179)" gradientUnits="userSpaceOnUse">
   <stop style="stop-color:#e8e8e8" offset="0"/>
   <stop style="stop-color:#f5f5f5" offset="1"/>
  </linearGradient>
  <filter id="filter4569" x="-.01" y="-.01" width="1.023" height="1.025" style="color-interpolation-filters:sRGB">
   <feGaussianBlur stdDeviation="1.16"/>
  </filter>
  <filter id="filter939" x="-.02" y="-.03" width="1.046" height="1.05" style="color-interpolation-filters:sRGB">
   <feGaussianBlur stdDeviation="2.32"/>
  </filter>
 </defs>
 <path transform="matrix(1.019368,0,0,1.019368,-7.2181772e-8,8.3098661)" d="m162.53675 5.5680001c72.64865 0 83.03125 10.356615 83.03125 82.937505v58.125005c0 72.58059-10.3826 82.9375-83.03125 82.9375h-73.937496c-72.648654 0-83.031254-10.35691-83.031254-82.9375v-58.125005c0-72.58089 10.3826-82.937505 83.031254-82.937505z" style="filter:url(#filter939);opacity:.2"/>
 <path d="m165.68477 11.946967c74.05571 0 84.6394 10.557203 84.6394 84.543835v59.250778c0 73.98633-10.58369 84.54383-84.6394 84.54383h-75.369521c-74.055717 0-84.639408-10.5575-84.639408-84.54383v-59.250778c0-73.986632 10.583691-84.543835 84.639408-84.543835z" style="fill:none;opacity:.1;stroke-linecap:round;stroke-linejoin:round;stroke-width:4.0774717;stroke:#000000"/>
 <path transform="matrix(1.019368,0,0,1.019368,-7.2181772e-8,8.3098661)" d="m162.53675 3.5680001c72.64865 0 83.03125 10.356615 83.03125 82.937505v58.125005c0 72.58059-10.3826 82.9375-83.03125 82.9375h-73.937496c-72.648654 0-83.031254-10.35691-83.031254-82.9375v-58.125005c0-72.58089 10.3826-82.937505 83.031254-82.937505z" style="filter:url(#filter4569);opacity:.1"/>
 <path d="m165.68476 11.946967c74.05571 0 84.6394 10.557203 84.6394 84.543835v59.250778c0 73.98633-10.58369 84.54383-84.6394 84.54383h-75.369522c-74.055712 0-84.639403-10.5575-84.639403-84.54383v-59.250778c0-73.986632 10.583691-84.543835 84.639403-84.543835z" style="fill:url(#linearGradient1044)"/>
 <path transform="matrix(.50968403 0 0 .50968403 -18.788999 120)" d="M 361.9375,-212 C 507.2348,-212 528,-191.28677 528,-46.125 V 70.125 C 528,215.28618 507.2348,236 361.9375,236 H 214.0625 C 68.7652,236 48,215.28618 48,70.125 V -46.125 C 48,-191.28677 68.7652,-212 214.0625,-212 Z" clip-path="url(#clipPath1082-3-361)" style="fill:none;opacity:.4;stroke-linecap:round;stroke-linejoin:round;stroke-width:8;stroke:url(#linearGradient1108)"/>
 <path d="m129.54217 11.946967v228.33844h37.20966c73.12207 0 83.57233-10.5575 83.57233-84.54383v-59.250778c0-73.986632-10.45026-84.543835-83.57233-84.543835z" style="fill:#ffffff;opacity:.2"/>
 <path d="m90.315238 240.28541c-74.055712 0-84.639403-10.5572-84.639403-84.54383v-29.62537h244.64832v29.62537c0 73.98663-10.58369 84.54383-84.6394 84.54383z" style="fill:#ffffff;opacity:.25"/>
 <g transform="translate(25.523779,26.725321)">
  <g transform="matrix(-2.4457691,2.4237492,-2.4237492,-2.4457691,786.1143,628.54614)" style="fill:#fcd951">
   <path transform="matrix(.26458333 0 0 .26458333 0 229.26666)" d="m143.1875 43.167969-81.507812 81.507811c-12.539876 12.54017-9.406031 15.67088 3.132812 28.21094l43.89453 43.89453c12.54008 12.53802 15.67085 15.67291 28.21094 3.13281l81.50781-81.50781v-65.837891c0-3.133984-0.78446-5.481458-2.35351-7.048828-1.567-1.567408-3.91289-2.351562-7.04688-2.351562zm44.50195 20.591797a10.296042 10.296042 0 0 1 7.13086 3.015625 10.296042 10.296042 0 0 1 0 14.560547 10.296042 10.296042 0 0 1-14.56054 0 10.296042 10.296042 0 0 1 0-14.560547 10.296042 10.296042 0 0 1 7.42968-3.015625z" style="fill:#fcd951"/>
   <path d="m39.58778 262.25427-9.806587 9.80659 1.540778 1.54078 9.806587-9.80658z" style="fill:#c2a32c"/>
   <path d="m39.58778 252.44769-14.709881 14.70988 1.540779 1.54078 14.70988-14.70988z" style="fill:#c2a32c"/>
  </g>
  <g transform="matrix(-3.4417682 .10285159 -.10285159 -3.4417682 258.14157 991.52057)" style="fill:#e7484a">
   <path transform="matrix(.26458333 0 0 .26458333 0 229.26666)" d="m143.1875 43.167969-81.507812 81.507811c-12.539876 12.54017-9.406031 15.67088 3.132812 28.21094l43.89453 43.89453c12.54008 12.53802 15.67085 15.67291 28.21094 3.13281l81.50781-81.50781v-65.837891c0-3.133984-0.78446-5.481458-2.35351-7.048828-1.567-1.567408-3.91289-2.351562-7.04688-2.351562zm44.50195 20.591797a10.296042 10.296042 0 0 1 7.13086 3.015625 10.296042 10.296042 0 0 1 0 14.560547 10.296042 10.296042 0 0 1-14.56054 0 10.296042 10.296042 0 0 1 0-14.560547 10.296042 10.296042 0 0 1 7.42968-3.015625z" style="fill:#e7484a"/>
   <path d="m39.58778 262.25427-9.806587 9.80659 1.540778 1.54078 9.806587-9.80658z" style="fill:#b23436"/>
   <path d="m39.58778 252.44769-14.709881 14.70988 1.540779 1.54078 14.70988-14.70988z" style="fill:#b23436"/>
  </g>
  <path d="m70.645372 188.60485 105.01516-0.0839c16.15665-0.0131 16.1514-4.04874 16.13928-20.20465l-0.0452-56.55398c-0.0142-16.155397-0.0148-20.191756-16.17153-20.17884l-105.01516 0.083908-42.379082 42.446862c-2.017309 2.02053-3.022595 4.03894-3.019898 6.05943 0.0014 2.01919 1.009036 4.03477 3.029575 6.05209zm-15.436499-41.92129a9.3801161 9.3801161 0 0 1-2.656269-6.53427 9.3801161 9.3801161 0 0 1 9.372454-9.38745 9.3801161 9.3801161 0 0 1 9.387439 9.37245 9.3801161 9.3801161 0 0 1-9.372454 9.38745 9.3801161 9.3801161 0 0 1-6.73117-2.83818z" style="fill:#4495cf"/>
  <path d="m118.96301 131.91161 47.75384-0.0382-6e-3 -7.50293-47.75381 0.0381z" style="fill:#2d6d9c"/>
  <path d="m95.105193 155.80759 71.630747-0.0572-6e-3 -7.50292-71.630737 0.0572z" style="fill:#2d6d9c"/>
 </g>
</svg>
