<svg xmlns="http://www.w3.org/2000/svg" xmlns:xlink="http://www.w3.org/1999/xlink" width="256" height="256" version="1.1" viewBox="0 0 67.73 67.73">
 <defs>
  <linearGradient id="linearGradient1013">
   <stop style="stop-color:#ffffff" offset="0"/>
   <stop offset=".125" style="stop-color:#ffffff;stop-opacity:0.09803922"/>
   <stop offset=".925" style="stop-color:#000000;stop-opacity:0.09803922"/>
   <stop style="stop-color:#000000;stop-opacity:0.49803922" offset="1"/>
  </linearGradient>
  <clipPath id="clipPath1082-3-5" clipPathUnits="userSpaceOnUse">
   <path style="fill:#8c59d9" d="M 361.9375,-212 C 507.2348,-212 528,-191.28677 528,-46.125 V 70.125 C 528,215.28618 507.2348,236 361.9375,236 H 214.0625 C 68.7652,236 48,215.28618 48,70.125 V -46.125 C 48,-191.28677 68.7652,-212 214.0625,-212 Z"/>
  </clipPath>
  <filter id="filter4569-2" width="1.023" height="1.025" x="-.01" y="-.01" style="color-interpolation-filters:sRGB">
   <feGaussianBlur stdDeviation="1.16"/>
  </filter>
  <filter id="filter913" width="1.046" height="1.05" x="-.02" y="-.03" style="color-interpolation-filters:sRGB">
   <feGaussianBlur stdDeviation="2.32"/>
  </filter>
  <linearGradient id="linearGradient906" x1="296" x2="296" y1="-212" y2="236" gradientUnits="userSpaceOnUse" xlink:href="#linearGradient1013"/>
  <linearGradient id="linearGradient946" x1="13.229" x2="59.531" y1="230.854" y2="294.354" gradientUnits="userSpaceOnUse" xlink:href="#linearGradient10292"/>
  <linearGradient id="linearGradient10292">
   <stop style="stop-color:rgb(102, 102, 102)" offset="0"/>
   <stop style="stop-color:rgb(51, 51, 51)" offset="1"/>
  </linearGradient>
  <filter id="filter897" width="1.093" height="1.099" x="-.05" y="-.05" style="color-interpolation-filters:sRGB">
   <feGaussianBlur stdDeviation="1.023"/>
  </filter>
  <filter id="filter915" width="1.089" height="1.104" x="-.04" y="-.05" style="color-interpolation-filters:sRGB">
   <feGaussianBlur stdDeviation=".982"/>
  </filter>
 </defs>
 <g transform="translate(0,-229.26666)">
  <path d="m 188.96876,45.999995 c 72.64865,0 83.03125,10.356615 83.03125,82.937505 v 58.125 c 0,72.58059 -10.3826,82.9375 -83.03125,82.9375 h -73.9375 C 42.382606,270 32.000006,259.64309 32.000006,187.0625 v -58.125 c 0,-72.58089 10.3826,-82.937505 83.031254,-82.937505 z" transform="matrix(0.26970778,0,0,0.26970778,-7.1289177,220.56049)" style="opacity:0.2;filter:url(#filter913)"/>
  <path style="opacity:0.1;filter:url(#filter4569-2)" d="m 188.96876,43.999995 c 72.64865,0 83.03125,10.356615 83.03125,82.937505 v 58.125 c 0,72.58059 -10.3826,82.9375 -83.03125,82.9375 h -73.9375 C 42.382606,268 32.000006,257.64309 32.000006,185.0625 v -58.125 c 0,-72.58089 10.3826,-82.937505 83.031254,-82.937505 z" transform="matrix(0.26970778,0,0,0.26970778,-7.1289177,220.56049)"/>
  <path d="m 23.895905,232.42763 c -9.797337,0 -15.3941297,0.69699 -18.5445167,3.84334 -3.150381,3.14634 -3.849657,8.73736 -3.849657,18.52555 v 15.67677 c 0,9.78815 0.699276,15.3792 3.849657,18.52555 3.150387,3.14636 8.7471787,3.84333 18.5445167,3.84333 h 19.94152 c 9.797339,0 15.394134,-0.69697 18.544517,-3.84333 3.150384,-3.14635 3.849659,-8.7374 3.849659,-18.52555 v -15.67677 c 0,-9.78819 -0.699275,-15.37921 -3.849659,-18.52555 -3.150383,-3.14635 -8.74718,-3.84334 -18.544517,-3.84334 z" style="fill:url(#linearGradient946)"/>
  <path d="m 1.5017313,269.93387 v 0.53942 c 0,9.78815 0.699276,15.3792 3.849657,18.52555 3.150387,3.14636 8.7471787,3.84333 18.5445167,3.84333 h 19.94152 c 9.797339,0 15.394134,-0.69697 18.544517,-3.84333 3.150384,-3.14635 3.849659,-8.7374 3.849659,-18.52555 v -0.53942 c 0,9.78815 -0.699275,15.3792 -3.849659,18.52555 -3.150383,3.14636 -8.747178,3.84334 -18.544517,3.84334 h -19.94152 c -9.797338,0 -15.3941297,-0.69698 -18.5445167,-3.84334 -3.150381,-3.14635 -3.849657,-8.7374 -3.849657,-18.52555 z" style="opacity:0.2;fill:#131313"/>
  <path style="opacity:0.4;fill:none;stroke:url(#linearGradient906);stroke-width:8;stroke-linecap:round;stroke-linejoin:round" d="M 361.9375,-212 C 507.2348,-212 528,-191.28677 528,-46.125 V 70.125 C 528,215.28618 507.2348,236 361.9375,236 H 214.0625 C 68.7652,236 48,215.28618 48,70.125 V -46.125 C 48,-191.28677 68.7652,-212 214.0625,-212 Z" clip-path="url(#clipPath1082-3-5)" transform="matrix(0.13485389,0,0,0.13485389,-4.9712557,261.01666)"/>
  <path style="opacity:0.1;fill:#f6f6f6" d="m 33.840208,292.84207 h 9.996038 c 9.788138,0 15.19449,-0.83924 18.340837,-3.77958 3.146356,-2.94037 4.028017,-7.97745 4.028017,-17.12161 v -18.61204 c 0,-9.14417 -0.881661,-14.24267 -4.028017,-17.18301 -3.146347,-2.94035 -8.552699,-3.71819 -18.340837,-3.71819 h -9.996038 z"/>
  <path d="m 1.5017313,260.47724 v 9.99605 c 0,9.78815 0.699276,15.3792 3.849657,18.52555 3.150387,3.14636 8.7471787,3.84333 18.5445167,3.84333 h 19.94152 c 9.797339,0 15.394134,-0.69697 18.544517,-3.84333 3.150384,-3.14635 3.849659,-8.7374 3.849659,-18.52555 v -9.99605 z" style="opacity:0.1;fill:#ffffff"/>
  <path style="opacity:0.3;fill:#0b0707;filter:url(#filter897)" d="m 42.017761,237.94045 c 16.018017,0 18.307238,2.28351 18.307238,18.28658 v 12.81573 c 0,16.00304 -2.289221,18.28658 -18.307238,18.28658 H 25.71557 c -16.0180181,0 -18.3072371,-2.28354 -18.3072371,-18.28658 v -12.81573 c 0,-16.00307 2.289219,-18.28658 18.3072371,-18.28658 z"/>
  <path d="m 42.017761,237.94045 c 16.018017,0 18.307238,2.28351 18.307238,18.28658 v 12.81573 c 0,16.00304 -2.289221,18.28658 -18.307238,18.28658 H 25.71557 c -16.0180181,0 -18.3072371,-2.28354 -18.3072371,-18.28658 v -12.81573 c 0,-16.00307 2.289219,-18.28658 18.3072371,-18.28658 z" style="fill:#fcfcfc"/>
  <path style="fill:#010101;filter:url(#filter915);opacity:0.3" d="m 6.6145833,242.40075 v 41.5606 c 0,3.77823 3.7782347,3.77823 3.7782347,3.77823 h 49.117064 z m 9.4455877,20.5366 17.912617,15.35665 H 16.060171 Z"/>
  <path d="m 6.6145833,242.40075 v 41.5606 c 0,3.77823 3.7782347,3.77823 3.7782347,3.77823 h 49.117064 z m 9.4455877,20.5366 17.912617,15.35665 H 16.060171 Z" style="fill:#6ebc2a"/>
 </g>
</svg>
