<svg width="256" height="256" version="1.1" viewBox="0 0 67.73 67.73" xmlns="http://www.w3.org/2000/svg" xmlns:xlink="http://www.w3.org/1999/xlink">
 <defs>
  <clipPath id="clipPath1082-3-5">
   <path d="M 361.9375,-212 C 507.2348,-212 528,-191.28677 528,-46.125 V 70.125 C 528,215.28618 507.2348,236 361.9375,236 H 214.0625 C 68.7652,236 48,215.28618 48,70.125 V -46.125 C 48,-191.28677 68.7652,-212 214.0625,-212 Z" style="fill:#8c59d9"/>
  </clipPath>
  <filter id="filter4569-2" x="-.01" y="-.01" width="1.023" height="1.025" style="color-interpolation-filters:sRGB">
   <feGaussianBlur stdDeviation="1.16"/>
  </filter>
  <filter id="filter913" x="-.02" y="-.03" width="1.046" height="1.05" style="color-interpolation-filters:sRGB">
   <feGaussianBlur stdDeviation="2.32"/>
  </filter>
  <linearGradient id="linearGradient906" x1="296" x2="296" y1="-212" y2="236" gradientUnits="userSpaceOnUse">
   <stop style="stop-color:#ffffff" offset="0"/>
   <stop style="stop-color:#ffffff;stop-opacity:.09803922" offset=".125"/>
   <stop style="stop-color:#000000;stop-opacity:.09803922" offset=".925"/>
   <stop style="stop-color:#000000;stop-opacity:.49803922" offset="1"/>
  </linearGradient>
  <linearGradient id="linearGradient946" x1="13.229" x2="59.531" y1="230.854" y2="294.354" gradientUnits="userSpaceOnUse">
   <stop style="stop-color:rgb(102, 102, 102)" offset="0"/>
   <stop style="stop-color:rgb(51, 51, 51)" offset="1"/>
  </linearGradient>
  <filter id="filter897" x="-.05" y="-.05" width="1.093" height="1.099" style="color-interpolation-filters:sRGB">
   <feGaussianBlur stdDeviation="1.023"/>
  </filter>
  <filter id="filter915" x="-.04" y="-.05" width="1.089" height="1.104" style="color-interpolation-filters:sRGB">
   <feGaussianBlur stdDeviation=".982"/>
  </filter>
 </defs>
 <g transform="translate(0,-229.26666)">
  <path transform="matrix(.26970778 0 0 .26970778 -7.1289177 220.56049)" d="m188.96876 45.999995c72.64865 0 83.03125 10.356615 83.03125 82.937505v58.125c0 72.58059-10.3826 82.9375-83.03125 82.9375h-73.9375c-72.648654 0-83.031254-10.35691-83.031254-82.9375v-58.125c0-72.58089 10.3826-82.937505 83.031254-82.937505z" style="filter:url(#filter913);opacity:.2"/>
  <path transform="matrix(.26970778 0 0 .26970778 -7.1289177 220.56049)" d="m188.96876 43.999995c72.64865 0 83.03125 10.356615 83.03125 82.937505v58.125c0 72.58059-10.3826 82.9375-83.03125 82.9375h-73.9375c-72.648654 0-83.031254-10.35691-83.031254-82.9375v-58.125c0-72.58089 10.3826-82.937505 83.031254-82.937505z" style="filter:url(#filter4569-2);opacity:.1"/>
  <path d="m23.895905 232.42763c-9.797337 0-15.39413 0.69699-18.544517 3.84334-3.150381 3.14634-3.849657 8.73736-3.849657 18.52555v15.67677c0 9.78815 0.699276 15.3792 3.849657 18.52555 3.150387 3.14636 8.7471787 3.84333 18.544517 3.84333h19.94152c9.797339 0 15.394134-0.69697 18.544517-3.84333 3.150384-3.14635 3.849659-8.7374 3.849659-18.52555v-15.67677c0-9.78819-0.699275-15.37921-3.849659-18.52555-3.150383-3.14635-8.74718-3.84334-18.544517-3.84334z" style="fill:url(#linearGradient946)"/>
  <path d="m1.5017313 269.93387v0.53942c0 9.78815 0.699276 15.3792 3.849657 18.52555 3.150387 3.14636 8.7471787 3.84333 18.544517 3.84333h19.94152c9.797339 0 15.394134-0.69697 18.544517-3.84333 3.150384-3.14635 3.849659-8.7374 3.849659-18.52555v-0.53942c0 9.78815-0.699275 15.3792-3.849659 18.52555-3.150383 3.14636-8.747178 3.84334-18.544517 3.84334h-19.94152c-9.797338 0-15.39413-0.69698-18.544517-3.84334-3.150381-3.14635-3.849657-8.7374-3.849657-18.52555z" style="fill:#131313;opacity:.2"/>
  <path transform="matrix(.13485389 0 0 .13485389 -4.9712557 261.01666)" d="M 361.9375,-212 C 507.2348,-212 528,-191.28677 528,-46.125 V 70.125 C 528,215.28618 507.2348,236 361.9375,236 H 214.0625 C 68.7652,236 48,215.28618 48,70.125 V -46.125 C 48,-191.28677 68.7652,-212 214.0625,-212 Z" clip-path="url(#clipPath1082-3-5)" style="fill:none;opacity:.4;stroke-linecap:round;stroke-linejoin:round;stroke-width:8;stroke:url(#linearGradient906)"/>
  <path d="m33.840208 292.84207h9.996038c9.788138 0 15.19449-0.83924 18.340837-3.77958 3.146356-2.94037 4.028017-7.97745 4.028017-17.12161v-18.61204c0-9.14417-0.881661-14.24267-4.028017-17.18301-3.146347-2.94035-8.552699-3.71819-18.340837-3.71819h-9.996038z" style="fill:#f6f6f6;opacity:.1"/>
  <path d="m1.5017313 260.47724v9.99605c0 9.78815 0.699276 15.3792 3.849657 18.52555 3.150387 3.14636 8.7471787 3.84333 18.544517 3.84333h19.94152c9.797339 0 15.394134-0.69697 18.544517-3.84333 3.150384-3.14635 3.849659-8.7374 3.849659-18.52555v-9.99605z" style="fill:#ffffff;opacity:.1"/>
  <path d="m42.017761 237.94045c16.018017 0 18.307238 2.28351 18.307238 18.28658v12.81573c0 16.00304-2.289221 18.28658-18.307238 18.28658h-16.302191c-16.018018 0-18.307237-2.28354-18.307237-18.28658v-12.81573c0-16.00307 2.289219-18.28658 18.307237-18.28658z" style="fill:#0b0707;filter:url(#filter897);opacity:.3"/>
  <path d="m42.017761 237.94045c16.018017 0 18.307238 2.28351 18.307238 18.28658v12.81573c0 16.00304-2.289221 18.28658-18.307238 18.28658h-16.302191c-16.018018 0-18.307237-2.28354-18.307237-18.28658v-12.81573c0-16.00307 2.289219-18.28658 18.307237-18.28658z" style="fill:#fcfcfc"/>
  <path d="m6.6145833 242.40075v41.5606c0 3.77823 3.7782347 3.77823 3.7782347 3.77823h49.117064zm9.4455877 20.5366 17.912617 15.35665h-17.912617z" style="fill:#010101;filter:url(#filter915);opacity:.3"/>
  <path d="m6.6145833 242.40075v41.5606c0 3.77823 3.7782347 3.77823 3.7782347 3.77823h49.117064zm9.4455877 20.5366 17.912617 15.35665h-17.912617z" style="fill:#6ebc2a"/>
 </g>
</svg>
