<svg xmlns="http://www.w3.org/2000/svg" xmlns:xlink="http://www.w3.org/1999/xlink" width="256" height="256" version="1.1" viewBox="0 0 67.73 67.73">
 <defs>
  <linearGradient id="linearGradient1108" x1="296" x2="296" y1="-212" y2="202.4" gradientUnits="userSpaceOnUse" xlink:href="#linearGradient1013"/>
  <linearGradient id="linearGradient1013">
   <stop offset="0" style="stop-color:#ffffff"/>
   <stop style="stop-color:#ffffff;stop-opacity:0.09803922" offset=".135"/>
   <stop style="stop-color:#ffffff;stop-opacity:0" offset="1"/>
  </linearGradient>
  <clipPath id="clipPath1082-3-367" clipPathUnits="userSpaceOnUse">
   <path d="M 361.9375,-212 C 507.2348,-212 528,-191.28677 528,-46.125 V 70.125 C 528,215.28618 507.2348,236 361.9375,236 H 214.0625 C 68.7652,236 48,215.28618 48,70.125 V -46.125 C 48,-191.28677 68.7652,-212 214.0625,-212 Z" style="fill:#8c59d9"/>
  </clipPath>
  <filter style="color-interpolation-filters:sRGB" id="filter910" width="1.046" height="1.05" x="-.02" y="-.03">
   <feGaussianBlur stdDeviation="2.32"/>
  </filter>
  <filter style="color-interpolation-filters:sRGB" id="filter4569" width="1.023" height="1.025" x="-.01" y="-.01">
   <feGaussianBlur stdDeviation="1.16"/>
  </filter>
 </defs>
 <g transform="translate(0,-229.26666)">
  <path d="m 43.004513,233.61429 c 19.221622,0 21.968685,2.74019 21.968685,21.94388 v 15.37891 c 0,19.20362 -2.747063,21.94388 -21.968685,21.94388 h -19.56263 c -19.221622,0 -21.968685,-2.74026 -21.968685,-21.94388 v -15.37891 c 0,-19.20369 2.747063,-21.94388 21.968685,-21.94388 z" style="opacity:0.2;fill:none;stroke:#000000;stroke-width:1.05833328;stroke-linecap:round;stroke-linejoin:round"/>
  <path d="m 162.53675,3.5680001 c 72.64865,0 83.03125,10.3566149 83.03125,82.9375049 v 58.125005 c 0,72.58059 -10.3826,82.9375 -83.03125,82.9375 H 88.599254 C 15.9506,227.56801 5.568,217.2111 5.568,144.63051 V 86.505505 c 0,-72.58089 10.3826,-82.9375049 83.031254,-82.9375049 z" transform="matrix(0.26458333,0,0,0.26458333,-1.8735229e-8,232.67026)" style="opacity:0.1;filter:url(#filter4569)"/>
  <path style="opacity:0.2;filter:url(#filter910)" d="m 162.53675,5.5680001 c 72.64865,0 83.03125,10.3566149 83.03125,82.9375049 v 58.125005 c 0,72.58059 -10.3826,82.9375 -83.03125,82.9375 H 88.599254 C 15.9506,229.56801 5.568,219.2111 5.568,146.63051 V 88.505505 c 0,-72.58089 10.3826,-82.9375049 83.031254,-82.9375049 z" transform="matrix(0.26458333,0,0,0.26458333,-1.8735229e-8,232.67026)"/>
  <path style="fill:#f7f7f7" d="m 43.004513,233.61429 c 19.221622,0 21.968685,2.74019 21.968685,21.94388 v 15.37891 c 0,19.20362 -2.747063,21.94388 -21.968685,21.94388 h -19.56263 c -19.221622,0 -21.968685,-2.74026 -21.968685,-21.94388 v -15.37891 c 0,-19.20369 2.747063,-21.94388 21.968685,-21.94388 z"/>
  <path d="M 361.9375,-212 C 507.2348,-212 528,-191.28677 528,-46.125 V 70.125 C 528,215.28618 507.2348,236 361.9375,236 H 214.0625 C 68.7652,236 48,215.28618 48,70.125 V -46.125 C 48,-191.28677 68.7652,-212 214.0625,-212 Z" clip-path="url(#clipPath1082-3-367)" transform="matrix(0.13229167,0,0,0.13229167,-4.876802,261.66013)" style="opacity:0.5;fill:none;stroke:url(#linearGradient1108);stroke-width:8;stroke-linecap:round;stroke-linejoin:round"/>
  <path d="m 25.272422,242.50372 c -1.096251,0 -2.038893,0.0764 -2.828192,0.22988 -0.767374,0.15348 -1.33749,0.31787 -1.710214,0.49327 l 0.295857,1.87464 c 0.285025,-0.10962 0.734478,-0.25189 1.348377,-0.42729 0.613903,-0.1754 1.546001,-0.26339 2.795728,-0.26339 0.876999,0 1.578318,0.14279 2.104516,0.42781 0.548127,0.2631 0.964909,0.62509 1.249934,1.08551 0.306951,0.4385 0.504018,0.94276 0.591714,1.51281 0.0877,0.54812 0.131437,1.11771 0.131437,1.70969 v 1.05252 c -0.0877,-0.0438 -0.252097,-0.0876 -0.49327,-0.13144 -0.21925,-0.0658 -0.493242,-0.12057 -0.822119,-0.16442 -0.306951,-0.0658 -0.635741,-0.10951 -0.986544,-0.13143 -0.328872,-0.0438 -0.646601,-0.066 -0.953549,-0.066 -1.030476,0 -1.984179,0.0985 -2.861181,0.29586 -0.877001,0.19732 -1.63364,0.51557 -2.269468,0.95407 -0.635823,0.41658 -1.129009,0.9535 -1.479812,1.61125 -0.350806,0.65775 -0.526266,1.44706 -0.526266,2.36791 0,0.9647 0.153331,1.7872 0.460289,2.46688 0.328872,0.65775 0.767263,1.20573 1.315389,1.64424 0.570051,0.41657 1.228157,0.72324 1.973607,0.92056 0.767376,0.19733 1.600417,0.29638 2.499344,0.29638 0.701601,0 1.381312,-0.0332 2.039061,-0.099 0.679677,-0.0438 1.293526,-0.10971 1.841651,-0.19741 0.548126,-0.0877 1.030245,-0.1641 1.446823,-0.22988 0.416573,-0.0877 0.734825,-0.16463 0.954077,-0.2304 v -10.72105 c 0,-0.89893 -0.109598,-1.7325 -0.328848,-2.49987 -0.219249,-0.76738 -0.570169,-1.42496 -1.052523,-1.97309 -0.482349,-0.57005 -1.118328,-1.00844 -1.907627,-1.31539 -0.767374,-0.32887 -1.710015,-0.49327 -2.828191,-0.49327 z m 12.184109,8.57307 v 23.26909 h 2.495156 l 0.778131,-1.00434 c 1.555597,0.90743 3.111159,1.32848 4.699164,1.32848 4.666793,0 7.421057,-3.46758 7.421057,-8.19919 0,-4.73161 -1.911953,-8.06985 -6.708378,-8.06985 -1.847273,0 -3.370426,0.45416 -4.699166,1.13473 v -8.45892 z m -11.526413,0.47076 c 0.920846,0 1.644294,0.0659 2.170495,0.19741 0.5262,0.10963 0.909791,0.21922 1.150966,0.32885 v 5.98575 c -0.438502,0.0877 -0.975421,0.16411 -1.611249,0.22988 -0.613896,0.0438 -1.337343,0.066 -2.170495,0.066 -0.679675,0 -1.293524,-0.0548 -1.841648,-0.16442 -0.526203,-0.13155 -0.986718,-0.32914 -1.381368,-0.59224 -0.372727,-0.2631 -0.668848,-0.6135 -0.888098,-1.052 -0.197324,-0.4385 -0.29586,-0.97594 -0.29586,-1.61177 0,-0.72353 0.153334,-1.30471 0.460283,-1.7432 0.306951,-0.43851 0.701603,-0.77784 1.183954,-1.01901 0.482352,-0.2631 1.00873,-0.42802 1.578785,-0.4938 0.570047,-0.0877 1.118034,-0.13143 1.644235,-0.13143 z m 19.239136,10.09425 c 2.787116,0 3.694822,2.00939 3.694822,5.05577 0,3.04638 -1.425885,4.82903 -4.083363,4.82903 -1.296331,0 -2.398379,-0.32389 -3.338218,-1.06928 v -7.93999 c 0.777798,-0.32408 2.300795,-0.87553 3.726759,-0.87553 z m -19.165302,4.42792 c -1.656077,0 -3.180249,0.25947 -4.572444,0.77813 -1.392198,0.51866 -2.593165,1.26495 -3.603189,2.23857 -1.000925,0.97363 -1.783855,2.16556 -2.348012,3.57596 -0.564157,1.41039 -0.846206,3.00282 -0.846206,4.77718 0,1.11012 0.173156,2.11987 0.518929,3.0298 0.345775,0.90993 0.855163,1.68782 1.528512,2.33387 0.67335,0.64605 1.505948,1.14693 2.497777,1.50181 0.991828,0.35487 2.138606,0.53202 3.439808,0.53202 0.609656,0 1.223947,-0.0361 1.842696,-0.10892 0.618755,-0.0637 1.218972,-0.15054 1.801331,-0.25973 0.582352,-0.11829 1.132908,-0.25028 1.651565,-0.39587 0.527762,-0.14559 1.005541,-0.29564 1.433208,-0.45033 l 0.832591,-4.29911 h -0.887047 l -0.982877,2.74337 c -0.28208,0.21838 -0.618837,0.42766 -1.010105,0.62784 -0.391271,0.19109 -0.823373,0.36372 -1.296537,0.51841 -0.464066,0.15469 -0.964425,0.27765 -1.501283,0.36864 -0.53686,0.091 -1.087411,0.13667 -1.651568,0.13667 -0.973627,0 -1.806226,-0.15005 -2.497773,-0.45033 -0.691549,-0.30027 -1.260166,-0.71432 -1.706033,-1.24208 -0.445866,-0.53686 -0.773592,-1.17425 -0.982876,-1.91129 -0.200185,-0.73704 -0.300571,-1.53751 -0.300571,-2.40195 0,-1.60148 0.214318,-3.05288 0.641986,-4.35408 0.427667,-1.30121 1.018856,-2.41134 1.774105,-3.33037 0.764341,-0.91903 1.669711,-1.62415 2.71613,-2.11551 1.046422,-0.50047 2.188687,-0.7509 3.426193,-0.7509 0.873534,0 1.710647,0.10941 2.511387,0.32779 0.80074,0.20929 1.482759,0.5094 2.046917,0.90067 v 2.37524 h 0.887574 l 0.614233,-3.99958 c -0.809839,-0.18199 -1.697146,-0.34107 -2.661674,-0.47756 -0.964525,-0.14559 -2.070142,-0.21836 -3.316747,-0.21836 z" style="fill:#ffffff"/>
  <path style="fill:#5d5d5d" d="m 25.272422,241.97456 c -1.096251,0 -2.038893,0.0764 -2.828192,0.22988 -0.767374,0.15347 -1.33749,0.31787 -1.710214,0.49327 l 0.295857,1.87464 c 0.285025,-0.10963 0.734478,-0.2519 1.348377,-0.4273 0.613903,-0.1754 1.546001,-0.26339 2.795728,-0.26339 0.876999,0 1.578318,0.14279 2.104516,0.42782 0.548127,0.2631 0.964909,0.62508 1.249934,1.08551 0.306951,0.4385 0.504018,0.94275 0.591714,1.5128 0.0877,0.54813 0.131437,1.11772 0.131437,1.70969 V 249.67 c -0.0877,-0.0438 -0.252097,-0.0876 -0.49327,-0.13143 -0.21925,-0.0658 -0.493242,-0.12058 -0.822119,-0.16442 -0.306951,-0.0658 -0.635741,-0.10951 -0.986544,-0.13144 -0.328872,-0.0438 -0.646601,-0.066 -0.953549,-0.066 -1.030476,0 -1.984179,0.0985 -2.861181,0.29586 -0.877001,0.19733 -1.63364,0.51558 -2.269468,0.95408 -0.635823,0.41657 -1.129009,0.95349 -1.479812,1.61124 -0.350806,0.65775 -0.526266,1.44706 -0.526266,2.36791 0,0.9647 0.153331,1.78721 0.460289,2.46688 0.328872,0.65775 0.767263,1.20574 1.315389,1.64424 0.570051,0.41657 1.228157,0.72324 1.973607,0.92056 0.767376,0.19733 1.600417,0.29639 2.499344,0.29639 0.701601,0 1.381312,-0.0332 2.039061,-0.099 0.679677,-0.0438 1.293526,-0.10972 1.841651,-0.19742 0.548126,-0.0877 1.030245,-0.1641 1.446823,-0.22988 0.416573,-0.0877 0.734825,-0.16462 0.954077,-0.2304 v -10.72105 c 0,-0.89893 -0.109598,-1.73249 -0.328848,-2.49987 -0.219249,-0.76737 -0.570169,-1.42496 -1.052523,-1.97308 -0.482349,-0.57005 -1.118328,-1.00844 -1.907627,-1.31539 -0.767374,-0.32888 -1.710015,-0.49327 -2.828191,-0.49327 z m 12.184109,8.57307 v 23.26909 h 2.495156 l 0.778131,-1.00434 c 1.555597,0.90742 3.111159,1.32848 4.699164,1.32848 4.666793,0 7.421057,-3.46759 7.421057,-8.1992 0,-4.73161 -1.911953,-8.06985 -6.708378,-8.06985 -1.847273,0 -3.370426,0.45416 -4.699166,1.13474 v -8.45892 z m -11.526413,0.47075 c 0.920846,0 1.644294,0.0659 2.170495,0.19741 0.5262,0.10963 0.909791,0.21923 1.150966,0.32885 v 5.98576 c -0.438502,0.0877 -0.975421,0.1641 -1.611249,0.22988 -0.613896,0.0438 -1.337343,0.066 -2.170495,0.066 -0.679675,0 -1.293524,-0.0548 -1.841648,-0.16442 -0.526203,-0.13155 -0.986718,-0.32914 -1.381368,-0.59224 -0.372727,-0.2631 -0.668848,-0.61349 -0.888098,-1.052 -0.197324,-0.4385 -0.29586,-0.97594 -0.29586,-1.61177 0,-0.72352 0.153334,-1.3047 0.460283,-1.7432 0.306951,-0.4385 0.701603,-0.77784 1.183954,-1.01901 0.482352,-0.2631 1.00873,-0.42802 1.578785,-0.49379 0.570047,-0.0877 1.118034,-0.13144 1.644235,-0.13144 z m 19.239136,10.09426 c 2.787116,0 3.694822,2.00938 3.694822,5.05576 0,3.04638 -1.425885,4.82903 -4.083363,4.82903 -1.296331,0 -2.398379,-0.32389 -3.338218,-1.06928 v -7.93998 c 0.777798,-0.32409 2.300795,-0.87553 3.726759,-0.87553 z m -19.165302,4.42791 c -1.656077,0 -3.180249,0.25947 -4.572444,0.77814 -1.392198,0.51866 -2.593165,1.26494 -3.603189,2.23857 -1.000925,0.97362 -1.783855,2.16556 -2.348012,3.57595 -0.564157,1.41039 -0.846206,3.00282 -0.846206,4.77719 0,1.11011 0.173156,2.11986 0.518929,3.02979 0.345775,0.90994 0.855163,1.68782 1.528512,2.33387 0.67335,0.64606 1.505948,1.14694 2.497777,1.50181 0.991828,0.35487 2.138606,0.53202 3.439808,0.53202 0.609656,0 1.223947,-0.0361 1.842696,-0.10892 0.618755,-0.0637 1.218972,-0.15053 1.801331,-0.25972 0.582352,-0.11829 1.132908,-0.25029 1.651565,-0.39587 0.527762,-0.14559 1.005541,-0.29565 1.433208,-0.45034 l 0.832591,-4.2991 h -0.887047 l -0.982877,2.74336 c -0.28208,0.21838 -0.618837,0.42766 -1.010105,0.62785 -0.391271,0.19108 -0.823373,0.36371 -1.296537,0.5184 -0.464066,0.15469 -0.964425,0.27765 -1.501283,0.36865 -0.53686,0.091 -1.087411,0.13667 -1.651568,0.13667 -0.973627,0 -1.806226,-0.15006 -2.497773,-0.45033 -0.691549,-0.30028 -1.260166,-0.71432 -1.706033,-1.24208 -0.445866,-0.53686 -0.773592,-1.17425 -0.982876,-1.9113 -0.200185,-0.73704 -0.300571,-1.53751 -0.300571,-2.40194 0,-1.60148 0.214318,-3.05289 0.641986,-4.35409 0.427667,-1.3012 1.018856,-2.41133 1.774105,-3.33036 0.764341,-0.91904 1.669711,-1.62415 2.71613,-2.11552 1.046422,-0.50046 2.188687,-0.7509 3.426193,-0.7509 0.873534,0 1.710647,0.10941 2.511387,0.3278 0.80074,0.20928 1.482759,0.50939 2.046917,0.90066 v 2.37524 h 0.887574 l 0.614233,-3.99958 c -0.809839,-0.18198 -1.697146,-0.34107 -2.661674,-0.47756 -0.964525,-0.14559 -2.070142,-0.21836 -3.316747,-0.21836 z"/>
 </g>
</svg>
