<svg width="256" height="256" version="1.1" viewBox="0 0 67.73 67.73" xmlns="http://www.w3.org/2000/svg" xmlns:xlink="http://www.w3.org/1999/xlink">
 <defs>
  <linearGradient id="linearGradient1108" x1="296" x2="296" y1="-212" y2="236" gradientUnits="userSpaceOnUse">
   <stop style="stop-color:#ffffff" offset="0"/>
   <stop style="stop-color:#ffffff;stop-opacity:.09803922" offset=".125"/>
   <stop style="stop-color:#000000;stop-opacity:.09803922" offset=".925"/>
   <stop style="stop-color:#000000;stop-opacity:.49803922" offset="1"/>
  </linearGradient>
  <clipPath id="clipPath1082-3-31">
   <path d="M 361.9375,-212 C 507.2348,-212 528,-191.28677 528,-46.125 V 70.125 C 528,215.28618 507.2348,236 361.9375,236 H 214.0625 C 68.7652,236 48,215.28618 48,70.125 V -46.125 C 48,-191.28677 68.7652,-212 214.0625,-212 Z" style="fill:#8c59d9"/>
  </clipPath>
  <clipPath id="clipPath1205">
   <path d="M 115.03125,44 C 42.3826,44 32,54.356615 32,126.9375 v 58.125 c 0,13.772 0.379014,25.29352 1.482422,34.9375 H 270.51758 C 271.62099,210.35602 272,198.8345 272,185.0625 v -58.125 C 272,54.356615 261.6174,44 188.96875,44 Z" style="fill:#f1f0e9"/>
  </clipPath>
  <linearGradient id="linearGradient1183" x1="-2.352" x2="306.352" y1="264" y2="264" gradientTransform="translate(0,-4)" gradientUnits="userSpaceOnUse">
   <stop style="stop-color:#000000;stop-opacity:0" offset="0"/>
   <stop style="stop-color:#000000;stop-opacity:.89177489" offset=".5"/>
   <stop style="stop-color:#000000;stop-opacity:0" offset="1"/>
  </linearGradient>
  <filter id="filter1171" x="-.01" y="-.03" width="1.015" height="1.053" style="color-interpolation-filters:sRGB">
   <feGaussianBlur stdDeviation=".98"/>
  </filter>
  <filter id="filter933" x="-.02" y="-.03" width="1.046" height="1.05" style="color-interpolation-filters:sRGB">
   <feGaussianBlur stdDeviation="2.32"/>
  </filter>
  <filter id="filter4569" x="-.01" y="-.01" width="1.023" height="1.025" style="color-interpolation-filters:sRGB">
   <feGaussianBlur stdDeviation="1.16"/>
  </filter>
 </defs>
 <g transform="translate(0,-229.26666)">
  <path transform="matrix(.26970778 0 0 .26970778 -7.1289177 220.56049)" d="m188.96876 43.999995c72.64865 0 83.03125 10.356615 83.03125 82.937505v58.125c0 72.58059-10.3826 82.9375-83.03125 82.9375h-73.9375c-72.648654 0-83.031254-10.35691-83.031254-82.9375v-58.125c0-72.58089 10.3826-82.937505 83.031254-82.937505z" style="filter:url(#filter4569);opacity:.1"/>
  <path transform="matrix(.26970778 0 0 .26970778 -7.1289177 220.56049)" d="m188.96876 45.999995c72.64865 0 83.03125 10.356615 83.03125 82.937505v58.125c0 72.58059-10.3826 82.9375-83.03125 82.9375h-73.9375c-72.648654 0-83.031254-10.35691-83.031254-82.9375v-58.125c0-72.58089 10.3826-82.937505 83.031254-82.937505z" style="filter:url(#filter933);opacity:.2"/>
  <path d="m23.895906 292.84217c-19.593906 0-22.394174-2.79325-22.394174-22.36888v-15.67677c0-3.71442 0.1022231-6.82186 0.3998209-9.42292h63.930225c0.297601 2.60106 0.399823 5.7085 0.399823 9.42292v15.67677c0 19.57563-2.800268 22.36888-22.394175 22.36888z" style="fill:#f1f0e9"/>
  <g transform="matrix(.26970778 0 0 -.26970778 -7.1289177 304.70932)" clip-path="url(#clipPath1205)" style="enable-background:new">
   <path d="m0 216h304v88h-304z" style="fill:url(#linearGradient1183);filter:url(#filter1195);opacity:.4"/>
   <rect y="220" width="304" height="88" style="filter:url(#filter1171);opacity:.1"/>
  </g>
  <path d="m18.919725 252.94514-5.322273 14.02488h-1.307409v1.07883h3.775872v-1.07883h-1.208869l1.261089-3.23876h6.257631l1.259594 3.23876h-1.63314v1.07883h5.416405v-1.07883h-1.49418l-5.323766-14.02488zm0.327226 2.42804 2.755269 7.28377h-5.46422z" font-size="13.717" font-weight="400" letter-spacing="0" overflow="visible" word-spacing="0" style="fill:#5d5d5d"/>
  <path d="m23.895906 292.84217c-19.593906 0-22.394174-2.79325-22.394174-22.36888v-15.67677c0-3.71442 0.1022231-6.82186 0.3998209-9.42292h31.965111v47.46857z" style="opacity:.02000002"/>
  <path d="m1.9078739 245.3736c1.2715308-11.09724 6.1184581-12.94597 21.988032-12.94597h19.94152c15.869576 0 20.7165 1.84873 21.988031 12.94597z" style="fill:#bc1938"/>
  <path d="m29.551342 254.02427v1.07883h25.891947v-1.07883zm0 4.31532v1.07884h25.891947v-1.07884zm0 4.29531v1.07883h25.891947v-1.07883zm0 4.31533v1.07883h25.891947v-1.07883z" style="fill-opacity:.99607843;fill:#e3dfd5"/>
  <path transform="matrix(.13485389 0 0 .13485389 -4.9712547 261.01666)" d="M 361.9375,-212 C 507.2348,-212 528,-191.28677 528,-46.125 V 70.125 C 528,215.28618 507.2348,236 361.9375,236 H 214.0625 C 68.7652,236 48,215.28618 48,70.125 V -46.125 C 48,-191.28677 68.7652,-212 214.0625,-212 Z" clip-path="url(#clipPath1082-3-31)" style="fill:none;opacity:.4;stroke-linecap:round;stroke-linejoin:round;stroke-width:8;stroke:url(#linearGradient1108)"/>
  <path d="m12.29016 270.70504v1.07883h25.891947v-1.07883zm0 4.31532v1.07884h25.891947v-1.07884zm0 4.29531v1.07883h25.891947v-1.07883zm0 4.31533v1.07883h25.891947v-1.07883z" style="fill-opacity:.99607843;fill:#e3dfd5"/>
  <path d="m50.958924 288.25491a5.7697778 5.7697778 0 0 0 1.312923-8.05337 5.7697778 5.7697778 0 0 0-0.708592-0.81101c-0.173578-0.20309-0.392607-0.39101-0.677014-0.55904l2.55653-16.75703s-6.408031 5.93111-6.53405 15.77064c-0.03608 4e-3 -0.06605 0.0122-0.100764 0.0171a5.7697778 5.7697778 0 0 0-0.244283 0.0409c-0.0655 0.0126-0.131794 0.0242-0.193836 0.0393a5.7697778 5.7697778 0 0 0-2.149947 0.94818 5.7697778 5.7697778 0 0 0-1.312912 8.05339 5.7697778 5.7697778 0 0 0 1.598998 1.49018c0.453072 0.36978 1.072972 0.63393 1.913481 0.77099 0.03811 6e-3 0.07204 9e-3 0.109557 0.0144a5.7697778 5.7697778 0 0 0 4.414908-0.98552zm-1.940889-2.69699a2.4727619 2.4727619 0 0 1-3.451447-0.56268 2.4727619 2.4727619 0 0 1 0.56268-3.45144 2.4727619 2.4727619 0 0 1 3.451448 0.56267 2.4727619 2.4727619 0 0 1-0.562681 3.45145zm0.830805-8.72193a0.82425397 0.82425397 0 0 1-1.150481-0.18755 0.82425397 0.82425397 0 0 1 0.187557-1.15049 0.82425397 0.82425397 0 0 1 1.150485 0.18756 0.82425397 0.82425397 0 0 1-0.187561 1.15048z" style="fill:#a2a2a2"/>
  <path d="m60.325225 281.51442-0.01568-0.0204a5.7697778 5.7697778 0 0 0 2.336067-3.87282c0.0067-0.0372 0.01443-0.071 0.02065-0.10911 0.136998-0.84052 0.08388-1.51157-0.122847-2.05862a5.7697778 5.7697778 0 0 0-0.904502-1.98998 5.7697778 5.7697778 0 0 0-8.053381-1.31292 5.7697778 5.7697778 0 0 0-1.581962 1.73744c-0.034 0.054-0.06607 0.11321-0.09886 0.17131a5.7697778 5.7697778 0 0 0-0.116362 0.21864c-0.01556 0.0315-0.03326 0.0571-0.04819 0.0901-9.370085-3.00568-17.029361 1.18676-17.029361 1.18676l16.700889 2.89741c0.06898 0.32285 0.178027 0.59047 0.31619 0.81971a5.7697778 5.7697778 0 0 0 0.543961 0.92949 5.7697778 5.7697778 0 0 0 8.053368 1.31291zm-1.941552-2.6965a2.4727619 2.4727619 0 0 1-0.207877 0.1342 2.4727619 2.4727619 0 0 1-0.219633 0.11235 2.4727619 2.4727619 0 0 1-0.230444 0.0904 2.4727619 2.4727619 0 0 1-0.238046 0.0661 2.4727619 2.4727619 0 0 1-0.243482 0.0434 2.4727619 2.4727619 0 0 1-0.246877 0.018 2.4727619 2.4727619 0 0 1-0.246396-6e-3 2.4727619 2.4727619 0 0 1-0.245746-0.0314 2.4727619 2.4727619 0 0 1-0.240114-0.0553 2.4727619 2.4727619 0 0 1-0.234489-0.0792 2.4727619 2.4727619 0 0 1-0.225493-0.10251 2.4727619 2.4727619 0 0 1-0.213322-0.12416 2.4727619 2.4727619 0 0 1-0.200207-0.14451 2.4727619 2.4727619 0 0 1-0.184818-0.16451 2.4727619 2.4727619 0 0 1-0.167573-0.18187 2.4727619 2.4727619 0 0 1-0.107222-0.13804 2.4727619 2.4727619 0 0 1-0.134616-0.20758 2.4727619 2.4727619 0 0 1-0.112418-0.21959 2.4727619 2.4727619 0 0 1-0.09046-0.23042 2.4727619 2.4727619 0 0 1-0.06616-0.23801 2.4727619 2.4727619 0 0 1-0.04334-0.2435 2.4727619 2.4727619 0 0 1-0.018-0.24688 2.4727619 2.4727619 0 0 1 0.0061-0.2464 2.4727619 2.4727619 0 0 1 0.03142-0.24573 2.4727619 2.4727619 0 0 1 0.05528-0.24013 2.4727619 2.4727619 0 0 1 0.07917-0.23449 2.4727619 2.4727619 0 0 1 0.102473-0.22554 2.4727619 2.4727619 0 0 1 0.124162-0.21332 2.4727619 2.4727619 0 0 1 0.14456-0.20013 2.4727619 2.4727619 0 0 1 0.16452-0.18481 2.4727619 2.4727619 0 0 1 0.181862-0.16759 2.4727619 2.4727619 0 0 1 0.13827-0.1069 2.4727619 2.4727619 0 0 1 0.207877-0.1342 2.4727619 2.4727619 0 0 1 0.219633-0.11235 2.4727619 2.4727619 0 0 1 0.230444-0.0904 2.4727619 2.4727619 0 0 1 0.237579-0.0667 2.4727619 2.4727619 0 0 1 0.243936-0.0428 2.4727619 2.4727619 0 0 1 0.246878-0.018 2.4727619 2.4727619 0 0 1 0.246396 6e-3 2.4727619 2.4727619 0 0 1 0.245735 0.0314 2.4727619 2.4727619 0 0 1 0.240125 0.0553 2.4727619 2.4727619 0 0 1 0.23449 0.0792 2.4727619 2.4727619 0 0 1 0.225487 0.10251 2.4727619 2.4727619 0 0 1 0.213328 0.12416 2.4727619 2.4727619 0 0 1 0.200207 0.14451 2.4727619 2.4727619 0 0 1 0.184818 0.16451 2.4727619 2.4727619 0 0 1 0.167572 0.18187 2.4727619 2.4727619 0 0 1 0.107223 0.13803 2.4727619 2.4727619 0 0 1 0.134479 0.20767 2.4727619 2.4727619 0 0 1 0.112413 0.21959 2.4727619 2.4727619 0 0 1 0.09047 0.23043 2.4727619 2.4727619 0 0 1 0.06616 0.23801 2.4727619 2.4727619 0 0 1 0.04334 0.2435 2.4727619 2.4727619 0 0 1 0.018 0.24688 2.4727619 2.4727619 0 0 1-0.0061 0.24639 2.4727619 2.4727619 0 0 1-0.03141 0.24575 2.4727619 2.4727619 0 0 1-0.0553 0.24011 2.4727619 2.4727619 0 0 1-0.07918 0.23449 2.4727619 2.4727619 0 0 1-0.102473 0.22554 2.4727619 2.4727619 0 0 1-0.124155 0.21333 2.4727619 2.4727619 0 0 1-0.14456 0.20013 2.4727619 2.4727619 0 0 1-0.16452 0.1848 2.4727619 2.4727619 0 0 1-0.18192 0.16751 2.4727619 2.4727619 0 0 1-0.138271 0.1069zm-8.534839-1.98194a0.82425397 0.82425397 0 0 1-1.150487-0.18756 0.82425397 0.82425397 0 0 1 0.187557-1.15049 0.82425397 0.82425397 0 0 1 1.150486 0.18757 0.82425397 0.82425397 0 0 1-0.187556 1.15048z" style="fill:#8a8a8a"/>
 </g>
</svg>
