<svg width="256" height="256" version="1.1" viewBox="0 0 67.73 67.73" xmlns="http://www.w3.org/2000/svg" xmlns:xlink="http://www.w3.org/1999/xlink">
 <defs>
  <linearGradient id="linearGradient955" x1="200" x2="200" y1="268" y2="44" gradientTransform="matrix(.26458337 0 0 .26458337 -6.9934689 221.97263)" gradientUnits="userSpaceOnUse">
   <stop style="stop-color:#e6e6e6" offset="0"/>
   <stop style="stop-color:#d3d3d3" offset="1"/>
  </linearGradient>
  <linearGradient id="linearGradient1035" x1="152" x2="152" y1="100" y2="212" gradientTransform="translate(-26.432006,-40.431995)" gradientUnits="userSpaceOnUse">
   <stop style="stop-color:#000000;stop-opacity:0" offset="0"/>
   <stop style="stop-color:#000000" offset=".5"/>
   <stop style="stop-color:#000000;stop-opacity:0" offset="1"/>
  </linearGradient>
  <filter id="filter1025" x="-.02" y="-.02" width="1.048" height="1.048" style="color-interpolation-filters:sRGB">
   <feGaussianBlur stdDeviation="1.5"/>
  </filter>
  <linearGradient id="linearGradient1108" x1="296" x2="296" y1="-212" y2="236" gradientUnits="userSpaceOnUse">
   <stop style="stop-color:#ffffff" offset="0"/>
   <stop style="stop-color:#ffffff;stop-opacity:.09803922" offset=".125"/>
   <stop style="stop-color:#000000;stop-opacity:0" offset=".925"/>
   <stop style="stop-color:#000000;stop-opacity:0" offset="1"/>
  </linearGradient>
  <clipPath id="clipPath1082-3-78">
   <path d="M 361.9375,-212 C 507.2348,-212 528,-191.28677 528,-46.125 V 70.125 C 528,215.28618 507.2348,236 361.9375,236 H 214.0625 C 68.7652,236 48,215.28618 48,70.125 V -46.125 C 48,-191.28677 68.7652,-212 214.0625,-212 Z" style="fill:#8c59d9"/>
  </clipPath>
  <linearGradient id="linearGradient947" x1="160" x2="160" y1="268" y2="44" gradientTransform="matrix(.26458337 0 0 .26458337 -6.9934689 221.97263)" gradientUnits="userSpaceOnUse">
   <stop style="stop-color:#d280b9" offset="0"/>
   <stop style="stop-color:#b549b5" offset=".529"/>
   <stop style="stop-color:#8940a8" offset="1"/>
  </linearGradient>
  <filter id="filter953" x="-.02" y="-.03" width="1.046" height="1.05" style="color-interpolation-filters:sRGB">
   <feGaussianBlur stdDeviation="2.32"/>
  </filter>
  <filter id="filter4569" x="-.01" y="-.01" width="1.023" height="1.025" style="color-interpolation-filters:sRGB">
   <feGaussianBlur stdDeviation="1.16"/>
  </filter>
 </defs>
 <g transform="translate(0,-229.26666)">
  <path transform="matrix(.26458335 0 0 .26458335 -1.873523e-8 232.67025)" d="m162.53675 3.5680001c72.64865 0 83.03125 10.356615 83.03125 82.937505v58.125005c0 72.58059-10.3826 82.9375-83.03125 82.9375h-73.937496c-72.648654 0-83.031254-10.35691-83.031254-82.9375v-58.125005c0-72.58089 10.3826-82.937505 83.031254-82.937505z" style="filter:url(#filter4569);opacity:.1"/>
  <path transform="matrix(.26458335 0 0 .26458335 -1.873523e-8 232.67025)" d="m162.53675 5.5680001c72.64865 0 83.03125 10.356615 83.03125 82.937505v58.125005c0 72.58059-10.3826 82.9375-83.03125 82.9375h-73.937496c-72.648654 0-83.031254-10.35691-83.031254-82.9375v-58.125005c0-72.58089 10.3826-82.937505 83.031254-82.937505z" style="filter:url(#filter953);opacity:.2"/>
  <path d="m43.004517 233.61429c19.221623 0 21.968686 2.74019 21.968686 21.94388v15.37891c0 19.20362-2.747063 21.94388-21.968686 21.94388h-19.562632c-19.221624 0-21.968687-2.74026-21.968687-21.94388v-15.37891c0-19.20369 2.7470632-21.94388 21.968687-21.94388z" style="fill:url(#linearGradient947)"/>
  <path d="m1.4731981 263.24763v7.68945c0 19.20362 2.7470632 21.94388 21.968687 21.94388h19.562632c19.221623 0 21.968686-2.74026 21.968686-21.94388v-7.68945z" style="fill:#ffffff;opacity:.1"/>
  <path transform="matrix(.13229168 0 0 .13229168 -4.8768024 261.66013)" d="M 361.9375,-212 C 507.2348,-212 528,-191.28677 528,-46.125 V 70.125 C 528,215.28618 507.2348,236 361.9375,236 H 214.0625 C 68.7652,236 48,215.28618 48,70.125 V -46.125 C 48,-191.28677 68.7652,-212 214.0625,-212 Z" clip-path="url(#clipPath1082-3-78)" style="fill:none;opacity:.5;stroke-linecap:round;stroke-linejoin:round;stroke-width:8;stroke:url(#linearGradient1108)"/>
  <path transform="matrix(.26458335 0 0 .26458335 -1.873523e-8 232.67025)" d="m125.56799 42.573864c-5.39372-0.05998-7.28039 0.14029-8.03906 6.66211l-0.28906 2.304687c-0.66573 4.22983-0.793 6.145174-4.79493 7.181644-0.26817 0.0599-0.53589 0.12007-0.80273 0.18359-0.0631 0.013-0.11886 0.0282-0.1836 0.041l8e-3 2e-3c-1.01036 0.24375-2.00991 0.51443-3 0.80859l0.01-0.0117c-0.16537 0.0565-0.31605 0.10151-0.47265 0.15039-0.14986 0.0458-0.29985 0.0898-0.44922 0.13672-4.02147 1.12811-5.08541-0.46762-7.787106-3.810552l-1.4043-1.851563c-1.95898-2.634363-3.36984-3.758729-4.87304-3.880859-0.18789-0.01527-0.37832-0.01507-0.57032 0-1.3439 0.105454-2.81717 0.930219-4.84765 2.132813-4.70108 2.644913-6.23474 3.759697-3.63086 9.787111l0.90039 2.14062c1.65637 4.30254 2.51833 5.96731-1.30274 9.30469l0.10157-0.0234c-0.78976 0.74858-1.55804 1.51883-2.30665 2.3086l0.0215-0.10157c-3.33739 3.82107-5.00215 2.95911-9.304688 1.30274l-2.140625-0.90235c-1.88356-0.81371-3.287448-1.22275-4.408203-1.25781-2.465666-0.0772-3.560523 1.65668-5.378906 4.88867-2.748796 4.6411-3.520685 6.37502 1.748046 10.29297l1.851563 1.4043c3.342929 2.7017 4.938662 3.76564 3.810547 7.78711-0.04698 0.14937-0.09087 0.29936-0.136719 0.449225-0.04894 0.1566-0.09193 0.30729-0.148437 0.47265l0.0098-0.01c-0.294163 0.99009-0.564847 1.98964-0.808594 3l-2e-3 -8e-3c-0.01271 0.0647-0.02795 0.12053-0.04102 0.1836-0.06352 0.26684-0.123652 0.53456-0.183594 0.80273-1.036464 4.00194-2.951806 4.1292-7.181641 4.79493l-2.304687 0.28906c-6.52182 0.75868-6.722082 2.64535-6.66211 8.03906-0.05998 5.39372 0.140285 7.2804 6.66211 8.03906l2.304687 0.28906c4.22983 0.66573 6.145182 0.793 7.181641 4.79493 0.05994 0.26818 0.120069 0.5359 0.183594 0.80273 0.01301 0.0631 0.02824 0.11886 0.04102 0.1836l2e-3 -8e-3c0.243747 1.01037 0.514431 2.00991 0.808594 3l-0.01172-0.01c0.0565 0.16537 0.101472 0.31605 0.150391 0.47265 0.04582 0.14985 0.08974 0.29986 0.136719 0.44922 1.12811 4.02147-0.467618 5.08542-3.810547 7.78711l-1.851563 1.4043c-5.268726 3.91794-4.496841 5.6499-1.748046 10.29101 2.644913 4.70108 3.759708 6.23474 9.787109 3.63086l2.140625-0.90039c4.302524-1.65637 5.967294-2.51832 9.304684 1.30274l-0.0234-0.10157c0.74858 0.78976 1.51884 1.55807 2.3086 2.30665l-0.10157-0.0215c3.82107 3.3374 2.95911 5.00215 1.30274 9.30469l-0.90235 2.14062c-2.60388 6.0274-1.07022 7.14414 3.63086 9.78907 4.6411 2.74879 6.37502 3.51873 10.29297-1.75l1.4043-1.85157c2.701686-3.34294 3.765646-4.93865 7.787106-3.81054 0.14937 0.047 0.29936 0.0909 0.44922 0.13672 0.1566 0.0489 0.30728 0.0938 0.47265 0.15039l-0.01-0.0117c0.99009 0.29416 1.98964 0.56484 3 0.80859l-8e-3 2e-3c0.0647 0.0128 0.12053 0.028 0.1836 0.041 0.26684 0.0635 0.53456 0.12365 0.80273 0.18359 4.00193 1.03647 4.12919 2.95182 4.79493 7.18164l0.28906 2.30469c0.75867 6.52182 2.64534 6.72209 8.03906 6.66211 5.39371 0.06 7.28039-0.14029 8.03906-6.66211l0.28906-2.30469c0.66576-4.22983 0.79299-6.14518 4.79493-7.18164 0.26817-0.06 0.5359-0.12007 0.80273-0.18359 0.0631-0.0131 0.11886-0.0281 0.1836-0.041l-8e-3 -2e-3c1.01037-0.24375 2.0099-0.51443 3-0.80859l-0.01 0.0117c0.16536-0.0565 0.31604-0.10151 0.47265-0.15039 0.14985-0.0458 0.29986-0.0897 0.44922-0.13672 4.02147-1.1281 5.08542 0.46761 7.78711 3.81054l1.4043 1.85157c3.91794 5.26872 5.6499 4.49685 10.29101 1.74804 4.70108-2.64491 6.23475-3.7597 3.63086-9.78711l-0.90039-2.14062c-1.65641-4.30248-2.51833-5.96729 1.30274-9.30469l-0.10157 0.0234c0.78977-0.74858 1.55807-1.51884 2.30665-2.3086l-0.0215 0.10157c3.3374-3.82106 5.00215-2.95912 9.30469-1.30274l2.14062 0.90235c6.0274 2.60387 7.14218 1.07022 9.78711-3.63086 2.74879-4.64111 3.5207-6.37503-1.74804-10.29297l-1.85157-1.4043c-3.34293-2.70168-4.93866-3.76564-3.81054-7.78711 0.047-0.14936 0.0908-0.29937 0.13672-0.44922 0.0489-0.1566 0.092-0.30728 0.14843-0.47265l-0.01 0.01c0.29416-0.99009 0.56484-1.98963 0.80859-3l2e-3 8e-3c0.0128-0.0647 0.028-0.12052 0.041-0.1836 0.0635-0.26683 0.12365-0.53455 0.18359-0.80273 1.03647-4.00193 2.9518-4.12919 7.18164-4.79493l2.30469-0.28906c6.52182-0.75867 6.72209-2.64534 6.66211-8.03906 0.06-5.3937-0.14028-7.28038-6.66211-8.03906l-2.30469-0.28906c-4.22984-0.66574-6.14517-0.79299-7.18164-4.79493-0.06-0.26816-0.12007-0.53589-0.18359-0.80273-0.0131-0.0631-0.0281-0.11887-0.041-0.1836l-2e-3 8e-3c-0.24375-1.01036-0.51442-2.0099-0.80859-3l0.0117 0.01c-0.0565-0.16536-0.10151-0.31604-0.15039-0.47265-0.0458-0.149865-0.0897-0.299855-0.13672-0.449225-1.12811-4.02147 0.46762-5.08541 3.81054-7.78711l1.85157-1.4043c5.26873-3.91794 4.49684-5.6499 1.74804-10.29101-1.81838-3.23199-2.91322-4.96776-5.3789-4.89063-1.12074 0.0351-2.52465 0.44605-4.40821 1.25977l-2.14062 0.90039c-4.30247 1.6564-5.9673 2.51834-9.30469-1.30274l0.0234 0.10157c-0.74858-0.78977-1.51883-1.55806-2.3086-2.30665l0.10157 0.0215c-3.82106-3.33739-2.95912-5.00215-1.30274-9.30469l0.90235-2.14062c2.60387-6.027406 1.07022-7.142192-3.63086-9.787111-2.32056-1.374397-3.91477-2.254938-5.41797-2.132813-1.5032 0.12213-2.91603 1.246496-4.875 3.880859l-1.4043 1.851563c-2.70169 3.342932-3.76564 4.938652-7.78711 3.810552-0.14936-0.047-0.29937-0.0909-0.44922-0.13672-0.15661-0.0489-0.30729-0.0919-0.47265-0.14844l0.01 0.01c-0.9901-0.29416-1.98963-0.56485-3-0.80859l8e-3 -2e-3c-0.0647-0.0127-0.12052-0.028-0.1836-0.041-0.26683-0.0635-0.53456-0.12366-0.80273-0.1836-4.00194-1.03647-4.12918-2.95181-4.79493-7.18164l-0.28906-2.304687c-0.75844-6.522064-2.64512-6.722331-8.03883-6.662354zm-0.0117 30.994141c4e-3 -1e-5 8e-3 -1e-5 0.0117 0 5.06531 3e-4 9.96082 0.87493 14.53516 2.48047a12 12 0 0 0 5.46484 6.87891 12 12 0 0 0 8.66992 1.29101c7.20335 6.1907 12.42982 14.70372 14.43946 24.548835 0.50642 2.48002-1.38873 4.80104-3.91993 4.80078h-12.3789c-1.76926 1.5e-4 -3.32848-1.16191-3.83399-2.85742-3.03409-10.17667-12.3486-17.126135-22.96679-17.140635-1.86552 0.0101-3.72427 0.23539-5.53711 0.67578-1.72527 0.41898-3.52028-0.34928-4.40821-1.88671l-6.17968-10.70118c-1.26291-2.1886-0.20551-4.98537 2.18945-5.79101 4.48467-1.50955 9.18217-2.28583 13.91406-2.29883zm-26.306636 10.0957c1.361096 0.0638 2.596136 0.816 3.277336 1.9961l6.17969 10.70117c0.88545 1.53347 0.65743 3.4666-0.56055 4.751955-4.21283 4.44663-6.56562 10.3318-6.57812 16.45703 7e-3 6.12872 2.3554 12.01941 6.56836 16.47071 1.21703 1.28501 1.44502 3.21699 0.56055 4.75l-6.16211 10.67578c-1.26486 2.19101-4.220436 2.67243-6.115236 0.99609-7.35823-6.50704-12.25407-15.23839-14.0625-24.74023a12 12 0 0 0 3.21094-8.1543 12 12 0 0 0-3.21289-8.15039c1.80449-9.506155 6.6973-18.242465 14.05664-24.753915 0.77978-0.68994 1.79784-1.0487 2.83789-1zm53.138646 37.904305h12.32813c2.53119-2.4e-4 4.42635 2.32077 3.91992 4.80078-2.00843 9.83928-7.23024 18.34896-14.42774 24.53906a12 12 0 0 0-2.92382-0.30273 12 12 0 0 0-5.7168 1.60351 12 12 0 0 0-5.45312 6.86133c-4.57562 1.61246-9.47418 2.49256-14.54297 2.49805-6e-3 2e-5 -0.0125 2e-5 -0.0195 0-4.72985-0.0188-9.42516-0.80071-13.90626-2.31445-2.39212-0.80764-3.44709-3.60206-2.18554-5.78907l6.16992-10.6875c0.88793-1.53742 2.68293-2.30568 4.4082-1.88671 1.81402 0.44068 3.67428 0.66578 5.54102 0.67578 10.62131-0.0108 19.93962-6.96097 22.97461-17.14063 0.50551-1.6955 2.06472-2.85757 3.83398-2.85742z" style="fill-opacity:.71428576;filter:url(#filter1025);opacity:.2"/>
  <path transform="matrix(.26458335 0 0 .26458335 -1.873523e-8 232.67025)" d="m125.56799 44.573864c-5.39372-0.05998-7.28039 0.14029-8.03906 6.66211l-0.28906 2.304687c-0.66573 4.22983-0.793 6.145174-4.79493 7.181644-0.26817 0.0599-0.53589 0.12007-0.80273 0.18359-0.0631 0.013-0.11886 0.0282-0.1836 0.041l8e-3 2e-3c-1.01036 0.24375-2.00991 0.51443-3 0.80859l0.01-0.0117c-0.16537 0.0565-0.31605 0.10151-0.47265 0.15039-0.14986 0.0458-0.29985 0.0898-0.44922 0.13672-4.02147 1.12811-5.08541-0.46762-7.787106-3.810552l-1.4043-1.851563c-1.95898-2.634363-3.36984-3.758729-4.87304-3.880859-0.18789-0.01527-0.37832-0.01507-0.57032 0-1.3439 0.105454-2.81717 0.930219-4.84765 2.132813-4.70108 2.644913-6.23474 3.759697-3.63086 9.787111l0.90039 2.14062c1.65637 4.30254 2.51833 5.96731-1.30274 9.30469l0.10157-0.0234c-0.78976 0.74858-1.55804 1.51883-2.30665 2.3086l0.0215-0.10157c-3.33739 3.82107-5.00215 2.95911-9.304688 1.30274l-2.140625-0.90235c-1.88356-0.81371-3.287448-1.22275-4.408203-1.25781-2.465666-0.0772-3.560523 1.65668-5.378906 4.88867-2.748796 4.6411-3.520685 6.37502 1.748046 10.29297l1.851563 1.4043c3.342929 2.7017 4.938662 3.76564 3.810547 7.787115-0.04698 0.14937-0.09087 0.29936-0.136719 0.44922-0.04894 0.1566-0.09193 0.30729-0.148437 0.47265l0.0098-0.01c-0.294163 0.99009-0.564847 1.98964-0.808594 3l-2e-3 -8e-3c-0.01271 0.0647-0.02795 0.12053-0.04102 0.1836-0.06352 0.26684-0.123652 0.53456-0.183594 0.80273-1.036464 4.00194-2.951806 4.1292-7.181641 4.79493l-2.304687 0.28906c-6.52182 0.75868-6.722082 2.64535-6.66211 8.03906-0.05998 5.39372 0.140285 7.2804 6.66211 8.03906l2.304687 0.28906c4.22983 0.66573 6.145182 0.793 7.181641 4.79493 0.05994 0.26818 0.120069 0.5359 0.183594 0.80273 0.01301 0.0631 0.02824 0.11886 0.04102 0.1836l2e-3 -8e-3c0.243747 1.01037 0.514431 2.00991 0.808594 3l-0.01172-0.01c0.0565 0.16537 0.101472 0.31605 0.150391 0.47265 0.04582 0.14985 0.08974 0.29986 0.136719 0.44922 1.12811 4.02147-0.467618 5.08542-3.810547 7.78711l-1.851563 1.4043c-5.268726 3.91794-4.496841 5.6499-1.748046 10.29101 2.644913 4.70108 3.759708 6.23474 9.787109 3.63086l2.140625-0.90039c4.302524-1.65637 5.967294-2.51832 9.304684 1.30274l-0.0234-0.10157c0.74858 0.78976 1.51884 1.55807 2.3086 2.30665l-0.10157-0.0215c3.82107 3.3374 2.95911 5.00215 1.30274 9.30469l-0.90235 2.14062c-2.60388 6.0274-1.07022 7.14414 3.63086 9.78907 4.6411 2.74879 6.37502 3.51873 10.29297-1.75l1.4043-1.85157c2.701686-3.34294 3.765646-4.93865 7.787106-3.81054 0.14937 0.047 0.29936 0.0909 0.44922 0.13672 0.1566 0.0489 0.30728 0.0938 0.47265 0.15039l-0.01-0.0117c0.99009 0.29416 1.98964 0.56484 3 0.80859l-8e-3 2e-3c0.0647 0.0128 0.12053 0.028 0.1836 0.041 0.26684 0.0635 0.53456 0.12365 0.80273 0.18359 4.00193 1.03647 4.12919 2.95182 4.79493 7.18164l0.28906 2.30469c0.75867 6.52182 2.64534 6.72209 8.03906 6.66211 5.39371 0.06 7.28039-0.14029 8.03906-6.66211l0.28906-2.30469c0.66576-4.22983 0.79299-6.14518 4.79493-7.18164 0.26817-0.06 0.5359-0.12007 0.80273-0.18359 0.0631-0.0131 0.11886-0.0281 0.1836-0.041l-8e-3 -2e-3c1.01037-0.24375 2.0099-0.51443 3-0.80859l-0.01 0.0117c0.16536-0.0565 0.31604-0.10151 0.47265-0.15039 0.14985-0.0458 0.29986-0.0897 0.44922-0.13672 4.02147-1.1281 5.08542 0.46761 7.78711 3.81054l1.4043 1.85157c3.91794 5.26872 5.6499 4.49685 10.29101 1.74804 4.70108-2.64491 6.23475-3.7597 3.63086-9.78711l-0.90039-2.14062c-1.65641-4.30248-2.51833-5.96729 1.30274-9.30469l-0.10157 0.0234c0.78977-0.74858 1.55807-1.51884 2.30665-2.3086l-0.0215 0.10157c3.3374-3.82106 5.00215-2.95912 9.30469-1.30274l2.14062 0.90235c6.0274 2.60387 7.14218 1.07022 9.78711-3.63086 2.74879-4.64111 3.5207-6.37503-1.74804-10.29297l-1.85157-1.4043c-3.34293-2.70168-4.93866-3.76564-3.81054-7.78711 0.047-0.14936 0.0908-0.29937 0.13672-0.44922 0.0489-0.1566 0.092-0.30728 0.14843-0.47265l-0.01 0.01c0.29416-0.99009 0.56484-1.98963 0.80859-3l2e-3 8e-3c0.0128-0.0647 0.028-0.12052 0.041-0.1836 0.0635-0.26683 0.12365-0.53455 0.18359-0.80273 1.03647-4.00193 2.9518-4.12919 7.18164-4.79493l2.30469-0.28906c6.52182-0.75867 6.72209-2.64534 6.66211-8.03906 0.06-5.3937-0.14028-7.28038-6.66211-8.03906l-2.30469-0.28906c-4.22984-0.66574-6.14517-0.79299-7.18164-4.79493-0.06-0.26816-0.12007-0.53589-0.18359-0.80273-0.0131-0.0631-0.0281-0.11887-0.041-0.1836l-2e-3 8e-3c-0.24375-1.01036-0.51442-2.0099-0.80859-3l0.0117 0.01c-0.0565-0.16536-0.10151-0.31604-0.15039-0.47265-0.0458-0.14986-0.0897-0.29985-0.13672-0.44922-1.12811-4.021475 0.46762-5.085415 3.81054-7.787115l1.85157-1.4043c5.26873-3.91794 4.49684-5.6499 1.74804-10.29101-1.81838-3.23199-2.91322-4.96776-5.3789-4.89063-1.12074 0.0351-2.52465 0.44605-4.40821 1.25977l-2.14062 0.90039c-4.30247 1.6564-5.9673 2.51834-9.30469-1.30274l0.0234 0.10157c-0.74858-0.78977-1.51883-1.55806-2.3086-2.30665l0.10157 0.0215c-3.82106-3.33739-2.95912-5.00215-1.30274-9.30469l0.90235-2.14062c2.60387-6.027406 1.07022-7.142192-3.63086-9.787111-2.32056-1.374397-3.91477-2.254938-5.41797-2.132813-1.5032 0.12213-2.91603 1.246496-4.875 3.880859l-1.4043 1.851563c-2.70169 3.342932-3.76564 4.938652-7.78711 3.810552-0.14936-0.047-0.29937-0.0909-0.44922-0.13672-0.15661-0.0489-0.30729-0.0919-0.47265-0.14844l0.01 0.01c-0.9901-0.29416-1.98963-0.56485-3-0.80859l8e-3 -2e-3c-0.0647-0.0127-0.12052-0.028-0.1836-0.041-0.26683-0.0635-0.53456-0.12366-0.80273-0.1836-4.00194-1.03647-4.12918-2.95181-4.79493-7.18164l-0.28906-2.304687c-0.75844-6.522064-2.64512-6.722331-8.03883-6.662354zm-0.0117 30.994141c4e-3 -1e-5 8e-3 -1e-5 0.0117 0 5.06531 3e-4 9.96082 0.87493 14.53516 2.48047a12 12 0 0 0 5.46484 6.87891 12 12 0 0 0 8.66992 1.29101c7.20335 6.1907 12.42982 14.703725 14.43946 24.548835 0.50642 2.48002-1.38873 4.80104-3.91993 4.80078h-12.3789c-1.76926 1.5e-4 -3.32848-1.16191-3.83399-2.85742-3.03409-10.17667-12.3486-17.126135-22.96679-17.140635-1.86552 0.0101-3.72427 0.23539-5.53711 0.67578-1.72527 0.41898-3.52028-0.34928-4.40821-1.88671l-6.17968-10.70118c-1.26291-2.1886-0.20551-4.98537 2.18945-5.79101 4.48467-1.50955 9.18217-2.28583 13.91406-2.29883zm-26.306636 10.0957c1.361096 0.0638 2.596136 0.816 3.277336 1.9961l6.17969 10.70117c0.88545 1.53347 0.65743 3.466605-0.56055 4.751955-4.21283 4.44663-6.56562 10.3318-6.57812 16.45703 7e-3 6.12872 2.3554 12.01941 6.56836 16.47071 1.21703 1.28501 1.44502 3.21699 0.56055 4.75l-6.16211 10.67578c-1.26486 2.19101-4.220436 2.67243-6.115236 0.99609-7.35823-6.50704-12.25407-15.23839-14.0625-24.74023a12 12 0 0 0 3.21094-8.1543 12 12 0 0 0-3.21289-8.15039c1.80449-9.50615 6.6973-18.242465 14.05664-24.753915 0.77978-0.68994 1.79784-1.0487 2.83789-1zm53.138646 37.904305h12.32813c2.53119-2.4e-4 4.42635 2.32077 3.91992 4.80078-2.00843 9.83928-7.23024 18.34896-14.42774 24.53906a12 12 0 0 0-2.92382-0.30273 12 12 0 0 0-5.7168 1.60351 12 12 0 0 0-5.45312 6.86133c-4.57562 1.61246-9.47418 2.49256-14.54297 2.49805-6e-3 2e-5 -0.0125 2e-5 -0.0195 0-4.72985-0.0188-9.42516-0.80071-13.90626-2.31445-2.39212-0.80764-3.44709-3.60206-2.18554-5.78907l6.16992-10.6875c0.88793-1.53742 2.68293-2.30568 4.4082-1.88671 1.81402 0.44068 3.67428 0.66578 5.54102 0.67578 10.62131-0.0108 19.93962-6.96097 22.97461-17.14063 0.50551-1.6955 2.06472-2.85757 3.83398-2.85742z" style="fill:url(#linearGradient1035);filter:url(#filter1025);opacity:.2"/>
  <path d="m33.2232 243.40542c-1.427088-0.0159-1.926269 0.0371-2.127001 1.76268l-0.07648 0.60978c-0.176142 1.11916-0.209815 1.62591-1.26866 1.90016-0.07095 0.0159-0.141787 0.0318-0.212388 0.0486-0.0167 3e-3 -0.03145 7e-3 -0.04858 0.0108l0.0021 5.3e-4c-0.267324 0.0645-0.531788 0.1361-0.79375 0.21394l0.0026-3e-3c-0.04375 0.0149-0.08362 0.0269-0.125055 0.0398-0.03965 0.0121-0.07934 0.0238-0.118856 0.0362-1.064014 0.29848-1.345515-0.12371-2.06034-1.0082l-0.371553-0.48989c-0.518315-0.69701-0.891604-0.9945-1.289326-1.02682-0.04971-4e-3 -0.100096-4e-3 -0.150896 0-0.355575 0.0279-0.745378 0.24613-1.282609 0.5643-1.243826 0.6998-1.649607 0.99477-0.960665 2.58951l0.238228 0.56637c0.438248 1.13838 0.666308 1.57885-0.344683 2.46188l0.02687-6e-3c-0.208958 0.19807-0.412233 0.40185-0.610302 0.61081l0.0057-0.0269c-0.883019 1.01099-1.323486 0.78293-2.461866 0.34468l-0.566373-0.23874c-0.49836-0.2153-0.869805-0.32352-1.166338-0.3328-0.652373-0.0204-0.942055 0.43833-1.423169 1.29347-0.727286 1.22795-0.931514 1.68672 0.462505 2.72334l0.489892 0.37156c0.884484 0.71482 1.306687 0.99633 1.008207 2.06034-0.01243 0.0395-0.02404 0.0792-0.03617 0.11886-0.01295 0.0414-0.02432 0.0813-0.03927 0.12506l0.0026-3e-3c-0.07783 0.26196-0.149448 0.52644-0.213939 0.79375l-5.3e-4 -2e-3c-0.0034 0.0171-0.0074 0.0319-0.01085 0.0487-0.0168 0.0706-0.03272 0.14143-0.04858 0.21238-0.274231 1.05885-0.780998 1.09252-1.900142 1.26866l-0.609782 0.0765c-1.725565 0.20073-1.778551 0.69992-1.762683 2.127-0.01587 1.42709 0.03712 1.92627 1.762683 2.127l0.609782 0.0765c1.119142 0.17613 1.625913 0.20981 1.900142 1.26865 0.01586 0.071 0.03177 0.14179 0.04858 0.21239 0.0034 0.0167 0.0075 0.0314 0.01085 0.0486l5.3e-4 -2e-3c0.06449 0.26733 0.136109 0.53179 0.213939 0.79375l-0.0031-3e-3c0.01495 0.0437 0.02685 0.0836 0.03979 0.12505 0.01212 0.0396 0.02374 0.0793 0.03617 0.11886 0.298479 1.06401-0.123724 1.34552-1.008207 2.06034l-0.489707 0.37113c-1.394016 1.03663-1.189789 1.49488-0.462504 2.72284 0.6998 1.24383 0.994757 1.64961 2.589506 0.96067l0.566375-0.23823c1.138376-0.43826 1.578846-0.66631 2.461864 0.34468l-0.0062-0.0269c0.198062 0.20895 0.40186 0.41224 0.610817 0.6103l-0.02687-6e-3c1.010993 0.88301 0.782932 1.32348 0.344684 2.46186l-0.238746 0.56637c-0.688945 1.59476-0.283164 1.89022 0.960665 2.59003 1.227957 0.72728 1.686723 0.931 2.723348-0.46302l0.371554-0.48989c0.714821-0.88449 0.996328-1.3067 2.060339-1.00822 0.03952 0.0124 0.07921 0.024 0.118856 0.0362 0.04143 0.0128 0.0813 0.0248 0.125055 0.0398l-0.0026-3e-3c0.261962 0.0778 0.526426 0.14944 0.79375 0.21393l-0.0021 5.3e-4c0.01712 3e-3 0.03189 7e-3 0.04858 0.0109 0.0706 0.0168 0.141437 0.0327 0.212389 0.0486 1.058845 0.27424 1.092516 0.78102 1.268659 1.90015l0.07648 0.60978c0.200731 1.72557 0.699912 1.77855 2.127001 1.76268 1.427085 0.0159 1.926269-0.0371 2.127001-1.76268l0.07648-0.60978c0.176149-1.11914 0.209812-1.62592 1.268659-1.90015 0.07095-0.0159 0.14179-0.0318 0.212389-0.0486 0.01669-3e-3 0.03145-7e-3 0.04858-0.0109l-0.0021-5.3e-4c0.267327-0.0644 0.531786-0.13611 0.79375-0.21393l-0.0026 3e-3c0.04375-0.0149 0.08362-0.0269 0.125055-0.0398 0.03965-0.0121 0.07934-0.0237 0.118856-0.0362 1.064014-0.29847 1.345518 0.12373 2.060341 1.00822l0.371553 0.48989c1.036622 1.39402 1.494871 1.18978 2.722831 0.4625 1.243826-0.6998 1.649611-0.99475 0.960665-2.58951l-0.238228-0.56637c-0.438259-1.13837-0.666308-1.57885 0.344683-2.46186l-0.02687 6e-3c0.20896-0.19806 0.41224-0.40187 0.610302-0.61082l-0.0057 0.0269c0.883021-1.01099 1.323487-0.78294 2.461867-0.34468l0.566372 0.23874c1.59475 0.68894 1.889701 0.28316 2.589506-0.96066 0.727285-1.22796 0.931519-1.68673-0.462503-2.72336l-0.489893-0.37155c-0.884485-0.71482-1.306687-0.99632-1.008206-2.06034 0.01244-0.0395 0.02401-0.0792 0.03617-0.11885 0.01294-0.0414 0.02434-0.0813 0.03927-0.12506l-0.0026 3e-3c0.07783-0.26196 0.149447-0.52642 0.21394-0.79375l5.29e-4 2e-3c0.0034-0.0171 0.0074-0.0319 0.01085-0.0486 0.0168-0.0706 0.03272-0.14143 0.04858-0.21239 0.274232-1.05884 0.780997-1.09252 1.900142-1.26866l0.609783-0.0765c1.725564-0.20073 1.778553-0.69991 1.762683-2.127 0.01588-1.42708-0.03712-1.92627-1.762683-2.127l-0.609783-0.0765c-1.119145-0.17615-1.62591-0.20981-1.900142-1.26866-0.01588-0.0709-0.03177-0.14179-0.04858-0.2124-0.0035-0.0167-0.0074-0.0315-0.01085-0.0486l-5.29e-4 2e-3c-0.06449-0.26734-0.136108-0.53179-0.21394-0.79375l0.0031 3e-3c-0.01495-0.0437-0.02686-0.0836-0.03979-0.12505-0.01212-0.0396-0.02373-0.0793-0.03617-0.11886-0.298479-1.06401 0.123725-1.34551 1.008206-2.06034l0.489894-0.37155c1.39402-1.03663 1.189789-1.49487 0.462503-2.72283-0.481113-0.85513-0.77079-1.31439-1.423168-1.29398-0.296529 9e-3 -0.66798 0.11802-1.166339 0.33331l-0.566372 0.23823c-1.138362 0.43826-1.578849 0.66631-2.461866-0.34468l0.0062 0.0269c-0.198061-0.20896-0.401857-0.41223-0.610817-0.6103l0.02687 6e-3c-1.010989-0.88303-0.782934-1.3235-0.344683-2.46188l0.238747-0.56637c0.68894-1.59475 0.283162-1.8897-0.960665-2.58951-0.613982-0.36364-1.035783-0.59661-1.433505-0.5643-0.397722 0.0323-0.771533 0.3298-1.289845 1.02681l-0.371553 0.4899c-0.714823 0.88447-0.996327 1.30668-2.060341 1.0082-0.03951-0.0125-0.07921-0.024-0.118856-0.0362-0.04144-0.0128-0.08129-0.0243-0.125055-0.0393l0.0026 3e-3c-0.261964-0.0778-0.526423-0.14945-0.793751-0.21393l0.0021-5.3e-4c-0.01712-3e-3 -0.03189-7e-3 -0.04858-0.0108-0.0706-0.0168-0.141435-0.0327-0.212389-0.0486-1.058846-0.27423-1.092512-0.781-1.268659-1.90014l-0.07648-0.60978c-0.200672-1.72557-0.699856-1.77855-2.126942-1.76269zm-0.0031 8.20054h0.0031c1.340197 7e-5 2.635467 0.23149 3.845762 0.65628a3.1750003 3.1750003 0 0 0 1.445905 1.82005 3.1750003 3.1750003 0 0 0 2.293917 0.34159c1.905886 1.63794 3.288724 3.89036 3.82044 6.49521 0.13399 0.65617-0.367434 1.27027-1.037147 1.27021h-3.275252c-0.468117 4e-5 -0.88066-0.30743-1.01441-0.75603-0.802769-2.69258-3.267233-4.53129-6.07663-4.53513-0.493585 3e-3 -0.985379 0.0623-1.465028 0.17879-0.456477 0.11087-0.931406-0.0924-1.166339-0.49918l-1.63504-2.83135c-0.334145-0.57908-0.05437-1.31905 0.579293-1.53222 1.186568-0.39939 2.429448-0.60478 3.681429-0.60822zm-6.960299 2.67116c0.360124 0.0169 0.686895 0.2159 0.867129 0.52813l1.635043 2.83134c0.234275 0.40574 0.173945 0.91722-0.148312 1.25729-1.114645 1.17651-1.737154 2.73363-1.740461 4.35427 0.0019 1.62154 0.623199 3.18013 1.737878 4.35787 0.322006 0.33999 0.382329 0.85116 0.148312 1.25677l-1.630391 2.82463c-0.334661 0.57971-1.116658 0.70709-1.61799 0.26354-1.946865-1.72164-3.242223-4.03181-3.720703-6.54585a3.1750003 3.1750003 0 0 0 0.84956-2.15748 3.1750003 3.1750003 0 0 0-0.850076-2.15646c0.477438-2.51517 1.771994-4.82665 3.719153-6.54947 0.206317-0.18255 0.475678-0.27747 0.750858-0.26458zm14.059601 10.02884h3.261857c0.669711-7e-5 1.171139 0.61404 1.037147 1.27021-0.531397 2.60331-1.913001 4.85483-3.817341 6.49263a3.1750003 3.1750003 0 0 0-0.773594-0.0802 3.1750003 3.1750003 0 0 0-1.51257 0.42426 3.1750003 3.1750003 0 0 0-1.442805 1.81539c-1.210632 0.42663-2.506711 0.65949-3.847827 0.66094h-0.0052c-1.25144-5e-3 -2.493742-0.21185-3.679366-0.61236-0.632915-0.21369-0.912043-0.95304-0.578258-1.53169l1.632459-2.82773c0.234932-0.40678 0.709858-0.61005 1.166336-0.4992 0.479959 0.1166 0.972154 0.17615 1.466062 0.1788 2.810222-3e-3 5.275691-1.84176 6.078699-4.53512 0.13375-0.4486 0.546291-0.75607 1.014407-0.75603z" style="fill:url(#linearGradient955)"/>
  <path d="m33.2232 249.48929c-6.511144 0-11.965667 4.53027-13.39143 10.60813a3.1750003 3.1750003 0 0 1 1.95802 0.99375c0.477438-2.51517 1.771994-4.82665 3.719153-6.54947 0.206316-0.18255 0.475679-0.27747 0.750858-0.26458 0.360123 0.0169 0.686894 0.2159 0.867129 0.52813l1.635043 2.83134c0.234275 0.40574 0.173945 0.91722-0.148313 1.25729-1.114644 1.17651-1.737153 2.73363-1.74046 4.35427 0.0019 1.62154 0.623199 3.18013 1.737878 4.35787 0.322007 0.33999 0.382328 0.85116 0.148312 1.25677l-1.630391 2.82463c-0.334661 0.57971-1.116657 0.70709-1.61799 0.26354-1.946865-1.72164-3.242223-4.03181-3.720703-6.54585a3.1750003 3.1750003 0 0 1-1.95802 0.99375c1.426162 6.07732 6.880161 10.6071 13.390914 10.6071 1.379964 0 2.711728-0.20545 3.96875-0.58394a3.1750003 3.1750003 0 0 1-0.119888-2.19367c-1.210632 0.42663-2.50671 0.65949-3.847827 0.66094h-0.0052c-1.251441-5e-3 -2.493742-0.21185-3.679366-0.61237-0.632914-0.21368-0.912043-0.95303-0.578258-1.53168l1.632459-2.82773c0.234932-0.40678 0.709858-0.61005 1.166336-0.4992 0.479959 0.1166 0.972153 0.17615 1.466061 0.1788 2.810223-3e-3 5.275692-1.84176 6.0787-4.53512 0.13375-0.4486 0.546291-0.75607 1.014407-0.75603h3.261819c0.669711-7e-5 1.171139 0.61404 1.037145 1.27021-0.531397 2.60331-1.912999 4.85483-3.81734 6.49263a3.1750003 3.1750003 0 0 1 1.84485 1.19682c2.667162-2.50973 4.335646-6.06887 4.335646-10.01799 0-3.94992-1.669103-7.50974-4.337205-10.01955a3.1750003 3.1750003 0 0 1-1.835547 1.1958c1.905887 1.63794 3.288721 3.89036 3.820441 6.49521 0.133991 0.65617-0.367434 1.27027-1.037147 1.27021h-3.275251c-0.468118 4e-5 -0.880661-0.30743-1.014411-0.75603-0.802769-2.69258-3.267233-4.53129-6.07663-4.53513-0.493586 3e-3 -0.98538 0.0623-1.465028 0.17879-0.456477 0.11087-0.931406-0.0924-1.166338-0.49918l-1.635041-2.83135c-0.334145-0.57908-0.05437-1.31905 0.579293-1.53222 1.186568-0.39939 2.429448-0.60478 3.681429-0.60822h0.0031c1.340197 7e-5 2.635467 0.23149 3.845761 0.65628a3.1750003 3.1750003 0 0 1 0.121439-2.18952c-1.256559-0.37819-2.5878-0.58343-3.967195-0.58343zm0 9.525a4.2333336 4.2333336 0 0 1 4.233334 4.23334 4.2333336 4.2333336 0 0 1-4.233334 4.23333 4.2333336 4.2333336 0 0 1-4.233334-4.23333 4.2333336 4.2333336 0 0 1 4.233334-4.23334z" style="opacity:.1"/>
  <path d="m40.027438 249.74664a1.5875001 1.5875001 0 0 0-1.299663 0.79219 1.5875001 1.5875001 0 0 0 0.580842 2.16836 1.5875001 1.5875001 0 0 0 2.168343-0.58085 1.5875001 1.5875001 0 0 0-0.580843-2.16887 1.5875001 1.5875001 0 0 0-0.868679-0.21083zm-20.562571 11.91349a1.5875001 1.5875001 0 0 0-1.5875 1.5875 1.5875001 1.5875001 0 0 0 1.5875 1.58749 1.5875001 1.5875001 0 0 0 1.587499-1.58749 1.5875001 1.5875001 0 0 0-1.587499-1.5875zm20.600294 11.91555a1.5875001 1.5875001 0 0 0-0.756544 0.21239 1.5875001 1.5875001 0 0 0-0.580842 2.16834 1.5875001 1.5875001 0 0 0 2.168342 0.58085 1.5875001 1.5875001 0 0 0 0.580843-2.16835 1.5875001 1.5875001 0 0 0-1.411799-0.79323z" style="fill:#b3b3b3"/>
 </g>
</svg>
