<?xml version="1.0" encoding="UTF-8" standalone="no"?>
<svg
   xmlns:dc="http://purl.org/dc/elements/1.1/"
   xmlns:cc="http://creativecommons.org/ns#"
   xmlns:rdf="http://www.w3.org/1999/02/22-rdf-syntax-ns#"
   xmlns:svg="http://www.w3.org/2000/svg"
   xmlns="http://www.w3.org/2000/svg"
   xmlns:sodipodi="http://sodipodi.sourceforge.net/DTD/sodipodi-0.dtd"
   xmlns:inkscape="http://www.inkscape.org/namespaces/inkscape"
   width="256"
   height="256"
   style="enable-background:new"
   version="1.0"
   id="svg79"
   sodipodi:docname="gnome-documents.svg"
   inkscape:version="0.92.3 (2405546, 2018-03-11)">
  <metadata
     id="metadata83">
    <rdf:RDF>
      <cc:Work
         rdf:about="">
        <dc:format>image/svg+xml</dc:format>
        <dc:type
           rdf:resource="http://purl.org/dc/dcmitype/StillImage" />
        <dc:title></dc:title>
      </cc:Work>
    </rdf:RDF>
  </metadata>
  <sodipodi:namedview
     pagecolor="#ffffff"
     bordercolor="#666666"
     borderopacity="1"
     objecttolerance="10"
     gridtolerance="10"
     guidetolerance="10"
     inkscape:pageopacity="0"
     inkscape:pageshadow="2"
     inkscape:window-width="1920"
     inkscape:window-height="1009"
     id="namedview81"
     showgrid="false"
     inkscape:zoom="3.378004"
     inkscape:cx="126.288"
     inkscape:cy="120.69431"
     inkscape:window-x="0"
     inkscape:window-y="34"
     inkscape:window-maximized="1"
     inkscape:current-layer="svg79" />
  <defs
     id="defs23">
    <filter
       id="filter925"
       x="-.02"
       y="-.03"
       width="1.046"
       height="1.05"
       style="color-interpolation-filters:sRGB">
      <feGaussianBlur
         stdDeviation="2.32"
         id="feGaussianBlur2" />
    </filter>
    <filter
       id="filter931"
       x="-.01"
       y="-.01"
       width="1.023"
       height="1.025"
       style="color-interpolation-filters:sRGB">
      <feGaussianBlur
         stdDeviation="1.16"
         id="feGaussianBlur5" />
    </filter>
    <linearGradient
       id="linearGradient1108"
       x1="296"
       x2="296"
       y1="-212"
       y2="236"
       gradientUnits="userSpaceOnUse">
      <stop
         style="stop-color:#ffffff"
         offset="0"
         id="stop8" />
      <stop
         style="stop-color:#ffffff;stop-opacity:.09803922"
         offset=".125"
         id="stop10" />
      <stop
         style="stop-color:#000000;stop-opacity:.09803922"
         offset=".925"
         id="stop12" />
      <stop
         style="stop-color:#000000;stop-opacity:.49803922"
         offset="1"
         id="stop14" />
    </linearGradient>
    <clipPath
       id="clipPath1082-3">
      <path
         d="M 361.9375,-212 C 507.2348,-212 528,-191.28677 528,-46.125 V 70.125 C 528,215.28618 507.2348,236 361.9375,236 H 214.0625 C 68.7652,236 48,215.28618 48,70.125 V -46.125 C 48,-191.28677 68.7652,-212 214.0625,-212 Z"
         style="fill:#8c59d9"
         id="path17" />
    </clipPath>
    <filter
       id="filter1576"
       x="-.04"
       y="-.02"
       width="1.079"
       height="1.034"
       style="color-interpolation-filters:sRGB">
      <feGaussianBlur
         stdDeviation=".513"
         id="feGaussianBlur20" />
    </filter>
  </defs>
  <g
     transform="translate(0,-44)"
     id="g33">
    <path
       d="m162.53675 62.431991c72.64865 0 83.03125 10.356615 83.03125 82.937499v58.125c0 72.58059-10.3826 82.9375-83.03125 82.9375h-73.9375c-72.64865 0-83.03125-10.35691-83.03125-82.9375v-58.125c0-72.580884 10.3826-82.937499 83.03125-82.937499z"
       style="filter:url(#filter925);opacity:.2"
       id="path25" />
    <path
       d="m162.53675 61.431991c72.64865 0 83.03125 10.356615 83.03125 82.937499v58.125c0 72.58059-10.3826 82.9375-83.03125 82.9375h-73.9375c-72.64865 0-83.03125-10.35691-83.03125-82.9375v-58.125c0-72.580884 10.3826-82.937499 83.03125-82.937499z"
       style="filter:url(#filter931);opacity:.1"
       id="path27" />
    <path
       d="m162.53675 60.431991c72.64865 0 83.03125 10.356615 83.03125 82.937499v58.125c0 72.58059-10.3826 82.9375-83.03125 82.9375h-73.9375c-72.64865 0-83.03125-10.35691-83.03125-82.9375v-58.125c0-72.580884 10.3826-82.937499 83.03125-82.937499z"
       style="fill:#648ec0"
       id="path29" />
    <path
       transform="matrix(.5 0 0 .5 -18.432 166.43199)"
       d="M 361.9375,-212 C 507.2348,-212 528,-191.28677 528,-46.125 V 70.125 C 528,215.28618 507.2348,236 361.9375,236 H 214.0625 C 68.7652,236 48,215.28618 48,70.125 V -46.125 C 48,-191.28677 68.7652,-212 214.0625,-212 Z"
       clip-path="url(#clipPath1082-3)"
       style="fill:none;opacity:.4;stroke-linecap:round;stroke-linejoin:round;stroke-width:8;stroke:url(#linearGradient1108)"
       id="path31" />
  </g>
  <g
     id="g900"
     style="fill:#090909;fill-opacity:1;opacity:0.2"
     transform="matrix(1.1810781,0,0,-1.1810781,-27.815308,304.47035)">
    <path
       id="path890"
       d="m 178.61697,233.49545 16.61391,-17.22927"
       inkscape:connector-curvature="0"
       style="fill:#090909;fill-opacity:1" />
    <g
       id="g898"
       transform="translate(0,0.42334222)"
       style="fill:#090909;fill-opacity:1">
      <path
         id="path892"
         style="fill:#090909;fill-opacity:1"
         d="M 74.213887,65.338905 V 234.50101 H 177.70684 l 17.89215,-16.61505 V 65.338915 Z"
         inkscape:connector-curvature="0" />
      <path
         id="path894"
         style="opacity:0.2;fill:#090909;fill-opacity:1"
         d="m 195.42764,216.89535 h -17.89215 v 16.61503 z"
         inkscape:connector-curvature="0" />
      <path
         id="path896"
         style="fill:#090909;fill-opacity:1"
         d="m 195.53942,217.74204 h -17.89214 v 16.61503 z"
         inkscape:connector-curvature="0" />
    </g>
  </g>
  <g
     transform="matrix(1.1810781,0,0,-1.1810781,-27.815308,301.17035)"
     style="fill:#e8e5e4"
     id="g45">
    <path
       d="m178.61697 233.49545 16.61391-17.22927"
       id="path35" />
    <g
       transform="translate(0 .42334222)"
       id="g43">
      <path
         d="m74.213887 65.338905v169.1621h103.49295l17.89215-16.61505v-152.54704z"
         style="fill:#e8e5e4"
         id="path37" />
      <path
         d="m195.42764 216.89535h-17.89215v16.61503z"
         style="opacity:.2"
         id="path39" />
      <path
         d="m195.53942 217.74204h-17.89214v16.61503z"
         style="fill:#f1f1f1"
         id="path41" />
    </g>
  </g>
  <rect
     x="49.21"
     y="45.82"
     width="120.365"
     height="117.112"
     style="opacity:.2"
     id="rect47" />
  <rect
     x="49.21"
     y="42.57"
     width="120.365"
     height="117.112"
     style="fill:#fdef6a"
     id="rect49" />
  <path
     d="m74.213887 68.156306v146.50478h89.631263l15.4957-14.38965v-132.11513z"
     style="fill:#0b0b0b;opacity:.2"
     id="path51" />
  <path
     d="m74.213887 65.338905v146.50478h89.631263l15.4957-14.38965v-132.11512z"
     style="fill-opacity:.95238097;fill:#ffffff"
     id="path53" />
  <path
     d="m195.59833 217.27219 17.89281-18.55547-3.25313 60.18266-43.91708-3.25311 3.25313-11.38592 9.41036-9.75889"
     style="fill:none"
     id="path55" />
  <path
     d="m164.95161 211.84409 14.38868-14.92161"
     style="fill:none"
     id="path57" />
  <path
     d="m179.34085 197.60537h-15.4957v14.38963z"
     style="opacity:.2"
     id="path59" />
  <path
     d="m180.04519 197.60537h-15.49569v14.38963z"
     style="fill:#ffffff"
     id="path61" />
  <path
     d="m89.634766 20.898438a2.2827475 2.2827475 0 0 0-2.285157 2.294921l0.242188 48.957032c-0.01349 0.168478-0.192191 2.445898-0.08203 5.287109 0.114344 2.947627 0.337952 6.370657 2.076172 9.039062 1.946471 2.98809 5.237001 5.916016 10.046874 5.916016 4.686568 0 9.057568-2.217705 11.623048-5.84375 1.88442-2.663429 2.07943-6.117848 2.17578-9.08789 0.0921-2.842515-0.11417-5.119384-0.13281-5.320313l-0.17969-16.253906a2.2833572 2.2833572 0 1 0-4.56641 0.05273l0.18555 16.304688a2.2827475 2.2827475 0 0 0 0.01 0.191406s0.20875 2.230915 0.12304 4.875c-0.0857 2.644089-0.70346 5.696571-1.34375 6.601562-1.63589 2.31216-4.67973 3.917969-7.894528 3.917969-3.091502 0-4.716007-1.533841-6.220703-3.84375-0.647681-0.994274-1.237336-4.079717-1.339843-6.722656-0.102469-2.642938 0.07617-4.861328 0.07617-4.861328a2.2827475 2.2827475 0 0 0 0.0059-0.19336l-0.224609-46.74414h21.925782v0.335937h4.56641v-2.617187a2.2827475 2.2827475 0 0 0-2.28516-2.285156z"
     style="filter:url(#filter1576);opacity:.2"
     id="path63" />
  <path
     d="m89.634766 18.898438a2.2827475 2.2827475 0 0 0-2.285157 2.294921l0.242188 48.957032c-0.013492 0.168478-0.192191 2.445898-0.082031 5.287109 0.114344 2.947627 0.337952 6.370657 2.076172 9.039062 1.946471 2.98809 5.237001 5.916016 10.046874 5.916016 4.686568 0 9.057568-2.217705 11.623048-5.84375 1.88442-2.663429 2.07943-6.117848 2.17578-9.08789 0.09207-2.842515-0.11417-5.119384-0.13281-5.320313l-0.17969-16.253906a2.2827475 2.2827475 0 1 0-4.56641 0.052734l0.18555 16.304688a2.2827475 2.2827475 0 0 0 0.00977 0.191406s0.20875 2.230915 0.12304 4.875c-0.0857 2.644089-0.70346 5.696571-1.34375 6.601562-1.63589 2.31216-4.67973 3.917969-7.894528 3.917969-3.091502 0-4.716007-1.533841-6.220703-3.84375-0.647681-0.994274-1.237336-4.079717-1.339843-6.722656-0.102469-2.642938 0.076172-4.861328 0.076172-4.861328a2.2827475 2.2827475 0 0 0 0.005859-0.19336l-0.224609-46.74414h21.925782v0.335937h4.56641v-2.617187a2.2827475 2.2827475 0 0 0-2.28516-2.285156h-26.501954z"
     style="fill:#3260a4"
     id="path65" />
  <g
     transform="translate(1.5156784,-2.5395559)"
     id="g77">
    <path
       d="m94.841127 106.13085v68.03738h62.803743"
       style="fill:none;stroke-width:3.9252336;stroke:#e7e6e4"
       id="path67" />
    <rect
       x="98.77"
       y="130.34"
       width="10.467"
       height="35.327"
       style="fill:#4eda7f"
       id="rect69" />
    <rect
       x="114.47"
       y="145.38"
       width="10.467"
       height="20.935"
       style="fill:#8e5b9e"
       id="rect71" />
    <rect
       x="130.17"
       y="116.6"
       width="10.467"
       height="49.72"
       style="fill:#f38d1e"
       id="rect73" />
    <rect
       x="145.87"
       y="124.45"
       width="10.467"
       height="41.869"
       style="fill:#e11b22"
       id="rect75" />
  </g>
</svg>
