<svg xmlns="http://www.w3.org/2000/svg" xmlns:xlink="http://www.w3.org/1999/xlink" width="256" height="256" version="1.1" viewBox="0 0 67.73 67.73">
 <defs>
  <linearGradient id="linearGradient1108" x1="296" x2="296" y1="-212" y2="236" gradientUnits="userSpaceOnUse">
   <stop style="stop-color:#ffffff" offset="0"/>
   <stop style="stop-color:#ffffff;stop-opacity:.09803922" offset=".125"/>
   <stop style="stop-color:#000000;stop-opacity:.09803922" offset=".925"/>
   <stop style="stop-color:#000000;stop-opacity:.49803922" offset="1"/>
  </linearGradient>
  <clipPath id="clipPath1082-3-27">
   <path d="M 361.9375,-212 C 507.2348,-212 528,-191.28677 528,-46.125 V 70.125 C 528,215.28618 507.2348,236 361.9375,236 H 214.0625 C 68.7652,236 48,215.28618 48,70.125 V -46.125 C 48,-191.28677 68.7652,-212 214.0625,-212 Z" style="fill:#8c59d9"/>
  </clipPath>
  <linearGradient id="linearGradient1044" x1="88" x2="256" y1="28" y2="284" gradientTransform="matrix(.26458333 0 0 .26458333 -6.993468 221.97263)" gradientUnits="userSpaceOnUse">
   <stop style="stop-color:#dbdbdb" offset="0"/>
   <stop style="stop-color:#f5f5f5" offset="1"/>
  </linearGradient>
  <filter id="filter4569" width="1.023" height="1.025" x="-.01" y="-.01" style="color-interpolation-filters:sRGB">
   <feGaussianBlur stdDeviation="1.16"/>
  </filter>
  <filter id="filter939" width="1.046" height="1.05" x="-.02" y="-.03" style="color-interpolation-filters:sRGB">
   <feGaussianBlur stdDeviation="2.32"/>
  </filter>
  <linearGradient id="linearGradient926">
   <stop style="stop-color:#000000;stop-opacity:.25877193" offset="0"/>
   <stop style="stop-color:#000000" offset=".491"/>
   <stop style="stop-color:#000000;stop-opacity:0" offset="1"/>
  </linearGradient>
  <linearGradient id="linearGradient917" x1="2.098" x2="64.311" y1="274.696" y2="274.696" gradientUnits="userSpaceOnUse" xlink:href="#linearGradient926"/>
  <linearGradient id="linearGradient925" x1="2.098" x2="64.311" y1="274.696" y2="274.696" gradientTransform="matrix(1.0159988,0,0,1,-0.45103711,-21.945513)" gradientUnits="userSpaceOnUse" xlink:href="#linearGradient926"/>
 </defs>
 <g transform="translate(0,-229.26666)">
  <path d="m 162.53675,5.5680001 c 72.64865,0 83.03125,10.3566149 83.03125,82.9375049 v 58.125005 c 0,72.58059 -10.3826,82.9375 -83.03125,82.9375 h -73.937496 c -72.648654,0 -83.031254,-10.35691 -83.031254,-82.9375 v -58.125005 c 0,-72.58089 10.3826,-82.9375049 83.031254,-82.9375049 z" transform="matrix(0.26458333,0,0,0.26458333,-1.8735233e-8,232.67026)" style="opacity:0.2;filter:url(#filter939)"/>
  <path d="m 43.004515,233.61429 c 19.221622,0 21.968685,2.74019 21.968685,21.94388 v 15.37891 c 0,19.20362 -2.747063,21.94388 -21.968685,21.94388 h -19.562629 c -19.221623,0 -21.968686,-2.74026 -21.968686,-21.94388 v -15.37891 c 0,-19.20369 2.747063,-21.94388 21.968686,-21.94388 z" style="opacity:0.1;fill:none;stroke:#000000;stroke-width:1.05833;stroke-linecap:round;stroke-linejoin:round"/>
  <path d="m 162.53675,3.5680001 c 72.64865,0 83.03125,10.3566149 83.03125,82.9375049 v 58.125005 c 0,72.58059 -10.3826,82.9375 -83.03125,82.9375 h -73.937496 c -72.648654,0 -83.031254,-10.35691 -83.031254,-82.9375 v -58.125005 c 0,-72.58089 10.3826,-82.9375049 83.031254,-82.9375049 z" transform="matrix(0.26458333,0,0,0.26458333,-1.8735233e-8,232.67026)" style="opacity:0.1;filter:url(#filter4569)"/>
  <path d="m 43.004513,233.61429 c 19.221622,0 21.968685,2.74019 21.968685,21.94388 v 15.37891 c 0,19.20362 -2.747063,21.94388 -21.968685,21.94388 h -19.56263 c -19.221622,0 -21.968684,-2.74026 -21.968684,-21.94388 v -15.37891 c 0,-19.20369 2.747062,-21.94388 21.968684,-21.94388 z" style="fill:url(#linearGradient1044)"/>
  <path style="font-variation-settings:normal;inline-size:0;opacity:0.4;fill:url(#linearGradient1108);stop-color:#000000" d="m 214.0625,-216 c -72.83873,0 -115.522633,4.88257 -140.34375,29.67188 -24.821117,24.7893 -29.71875,67.4315 -29.71875,140.20312 v 116.25 c 0,72.77132 4.897641,115.41375 29.71875,140.20312 24.821109,24.78938 67.50502,29.67188 140.34375,29.67188 h 147.875 c 72.83873,0 115.52264,-4.8825 140.34375,-29.67188 24.82111,-24.78937 29.71875,-67.4318 29.71875,-140.20312 v -116.25 c 0,-72.77162 -4.89763,-115.41382 -29.71875,-140.20312 -24.82112,-24.78931 -67.50502,-29.67188 -140.34375,-29.67188 z m 0,8 h 147.875 c 72.45857,0 112.8056,5.47428 134.69141,27.33203 21.8858,21.85776 27.37109,62.15282 27.37109,134.54297 v 116.25 c 0,72.38986 -5.48528,112.68514 -27.37109,134.54297 -21.88582,21.85783 -62.23284,27.33203 -134.69141,27.33203 h -147.875 c -72.45857,0 -112.80559,-5.4742 -134.691406,-27.33203 -21.885816,-21.85783 -27.371094,-62.15311 -27.371094,-134.54297 v -116.25 c 0,-72.39015 5.485286,-112.68521 27.371094,-134.54297 21.885806,-21.85775 62.232836,-27.33203 134.691406,-27.33203 z" clip-path="url(#clipPath1082-3-27)" transform="matrix(0.13229167,0,0,0.13229167,-4.876801,261.66013)"/>
  <path d="m 5.8476562,87.787109 c -0.083926,3.878904 -0.2792968,7.275916 -0.2792968,11.582032 v 58.124999 c 0,5.64294 0.2153334,10.26266 0.3652344,15.17774 h 239.2695262 c 0.14991,-4.91508 0.36524,-9.5348 0.36524,-15.17774 v -58.124999 c 0,-4.306116 -0.19537,-7.703128 -0.2793,-11.582032 h -239.4413962 z" transform="matrix(0.26458333,0,0,0.26458333,0,229.26666)" style="fill:#4f4f4f"/>
  <path d="m 17.500913,256.98505 a 6.7379999,6.7379999 0 0 0 -6.738275,6.73776 6.7379999,6.7379999 0 0 0 6.738275,6.73827 6.7379999,6.7379999 0 0 0 6.737758,-6.73827 6.7379999,6.7379999 0 0 0 -6.737758,-6.73776 z m 15.723848,0 a 6.7379999,6.7379999 0 0 0 -6.737759,6.73776 6.7379999,6.7379999 0 0 0 6.737759,6.73827 6.7379999,6.7379999 0 0 0 6.737759,-6.73827 6.7379999,6.7379999 0 0 0 -6.737759,-6.73776 z m 15.720746,0 a 6.7379999,6.7379999 0 0 0 -6.737759,6.73776 6.7379999,6.7379999 0 0 0 6.737759,6.73827 6.7379999,6.7379999 0 0 0 6.738275,-6.73827 6.7379999,6.7379999 0 0 0 -6.738275,-6.73776 z" style="fill:#ff6363"/>
  <rect style="fill:url(#linearGradient917);paint-order:markers fill stroke;stop-color:#000000" width="62.213" height=".55" x="2.1" y="274.42"/>
  <rect width="63.208" height=".55" x="1.68" y="252.48" style="fill:url(#linearGradient925);paint-order:markers fill stroke;stop-color:#000000"/>
 </g>
</svg>
