<svg xmlns="http://www.w3.org/2000/svg" xmlns:xlink="http://www.w3.org/1999/xlink" width="256" height="256" version="1.1" viewBox="0 0 67.73 67.73">
 <defs>
  <filter style="color-interpolation-filters:sRGB" id="filter1001" width="1.12" height="1.12" x="-.06" y="-.06">
   <feGaussianBlur stdDeviation="1.2"/>
  </filter>
  <linearGradient id="linearGradient1091" x1="128" x2="185.544" y1="100" y2="133.849" gradientTransform="translate(-26.432006,-38.431995)" gradientUnits="userSpaceOnUse" xlink:href="#linearGradient1129"/>
  <linearGradient id="linearGradient1129">
   <stop style="stop-color:#000000;stop-opacity:0" offset="0"/>
   <stop offset="1" style="stop-color:#000000"/>
  </linearGradient>
  <linearGradient id="linearGradient1121" x1="128" x2="264" y1="100" y2="180" gradientTransform="translate(-26.432006,-40.431995)" gradientUnits="userSpaceOnUse" xlink:href="#linearGradient4463"/>
  <linearGradient id="linearGradient4463">
   <stop offset="0" style="stop-color:#000000;stop-opacity:0"/>
   <stop style="stop-color:#000000" offset=".423"/>
   <stop offset="1" style="stop-color:#000000;stop-opacity:0"/>
  </linearGradient>
  <linearGradient id="linearGradient1108" x1="296" x2="296" y1="-212" y2="236" gradientUnits="userSpaceOnUse" xlink:href="#linearGradient1013"/>
  <linearGradient id="linearGradient1013">
   <stop offset="0" style="stop-color:#ffffff"/>
   <stop style="stop-color:#ffffff;stop-opacity:0.09803922" offset=".125"/>
   <stop style="stop-color:#000000;stop-opacity:0.09803922" offset=".925"/>
   <stop offset="1" style="stop-color:#000000;stop-opacity:0.49803922"/>
  </linearGradient>
  <clipPath id="clipPath1082-3-36753" clipPathUnits="userSpaceOnUse">
   <path d="M 361.9375,-212 C 507.2348,-212 528,-191.28677 528,-46.125 V 70.125 C 528,215.28618 507.2348,236 361.9375,236 H 214.0625 C 68.7652,236 48,215.28618 48,70.125 V -46.125 C 48,-191.28677 68.7652,-212 214.0625,-212 Z" style="fill:#8c59d9"/>
  </clipPath>
  <clipPath id="clipPath1064-2" clipPathUnits="userSpaceOnUse">
   <path style="fill:#a3dbf0" d="M 115.03125,44 C 42.3826,44 32,54.356615 32,126.9375 v 58.125 c 0,10.16582 0.217657,19.07051 0.767578,26.9375 3.376331,48.30069 19.790377,56 82.263672,56 h 73.9375 c 62.4733,0 78.88734,-7.69931 82.26367,-56 C 271.78234,204.13301 272,195.22832 272,185.0625 v -58.125 C 272,54.356615 261.6174,44 188.96875,44 Z"/>
  </clipPath>
  <filter style="color-interpolation-filters:sRGB" id="filter956" width="1.046" height="1.05" x="-.02" y="-.03">
   <feGaussianBlur stdDeviation="2.32"/>
  </filter>
  <filter style="color-interpolation-filters:sRGB" id="filter4569" width="1.023" height="1.025" x="-.01" y="-.01">
   <feGaussianBlur stdDeviation="1.16"/>
  </filter>
 </defs>
 <g transform="translate(0,-229.26666)">
  <path d="m 162.53675,3.5680001 c 72.64865,0 83.03125,10.3566149 83.03125,82.9375049 v 58.125005 c 0,72.58059 -10.3826,82.9375 -83.03125,82.9375 H 88.599254 C 15.9506,227.56801 5.568,217.2111 5.568,144.63051 V 86.505505 c 0,-72.58089 10.3826,-82.9375049 83.031254,-82.9375049 z" transform="matrix(0.26458333,0,0,0.26458333,-1.8735229e-8,232.67026)" style="opacity:0.1;filter:url(#filter4569)"/>
  <path style="opacity:0.2;filter:url(#filter956)" d="m 162.53675,5.5680001 c 72.64865,0 83.03125,10.3566149 83.03125,82.9375049 v 58.125005 c 0,72.58059 -10.3826,82.9375 -83.03125,82.9375 H 88.599254 C 15.9506,229.56801 5.568,219.2111 5.568,146.63051 V 88.505505 c 0,-72.58089 10.3826,-82.9375049 83.031254,-82.9375049 z" transform="matrix(0.26458333,0,0,0.26458333,-1.8735229e-8,232.67026)"/>
  <path style="fill:#a3dbf0" d="m 23.441883,233.61429 c -19.221622,0 -21.968685,2.74019 -21.968685,21.94388 v 15.37891 c 0,2.68971 0.05759,5.04574 0.203089,7.12722 l 4.030245,2.11666 h 55.033332 l 4.030245,-2.11666 c 0.145499,-2.08148 0.203089,-4.43751 0.203089,-7.12722 v -15.37891 c 0,-19.20369 -2.747063,-21.94388 -21.968685,-21.94388 z"/>
  <path style="fill:#8fbf3a" d="m 1.676287,278.0643 c 0.893321,12.77955 5.236204,14.81666 21.765596,14.81666 h 19.56263 c 16.529394,0 20.872275,-2.03711 21.765596,-14.81666 H 7.95549 Z"/>
  <g style="enable-background:new" clip-path="url(#clipPath1064-2)" transform="matrix(0.26458333,0,0,0.26458333,-6.993468,221.97263)">
   <path d="M 216,28 82,284 H 280 V 28 Z" style="opacity:0.1;fill:#ffffff"/>
   <path style="fill:#b6e2f3" d="M 168,28 72,212 h 48 L 216,28 Z"/>
   <path style="fill:#ffda64" d="m 216,28 -96,184 h 72 L 288,28 Z"/>
   <path d="m 288,28 -96,184 h 48 L 336,28 Z" style="fill:#b6e2f3"/>
  </g>
  <path d="M 361.9375,-212 C 507.2348,-212 528,-191.28677 528,-46.125 V 70.125 C 528,215.28618 507.2348,236 361.9375,236 H 214.0625 C 68.7652,236 48,215.28618 48,70.125 V -46.125 C 48,-191.28677 68.7652,-212 214.0625,-212 Z" clip-path="url(#clipPath1082-3-36753)" transform="matrix(0.13229167,0,0,0.13229167,-4.876802,261.66013)" style="opacity:0.4;fill:none;stroke:url(#linearGradient1108);stroke-width:8;stroke-linecap:round;stroke-linejoin:round"/>
  <path d="m 181.56799,51.568005 a 24,24 0 0 0 -24,24 24,24 0 0 0 24,24 24,24 0 0 0 24,-24 24,24 0 0 0 -24,-24 z m -88.365226,28.37109 -47.63477,91.628915 h 95.269526 24.73047 l -36,-69 -12.32227,23.61914 z" transform="matrix(0.26458333,0,0,0.26458333,-1.8735229e-8,232.67026)" style="opacity:0.1;fill:url(#linearGradient1121);filter:url(#filter1117)"/>
  <path style="opacity:0.3;fill:url(#linearGradient1091);filter:url(#filter1101)" d="m 93.202764,81.939095 -47.63477,91.628915 h 95.269526 24.73047 l -36,-69 -12.32227,23.61914 z" transform="matrix(0.26458333,0,0,0.26458333,-1.8735229e-8,232.67026)"/>
  <path d="m 12.056532,278.0643 12.60344,-24.24332 12.603439,24.24332 z" style="fill:#f2f2f2"/>
  <path style="fill:#f9f9f9" d="m 24.756532,278.0643 9.524999,-18.25625 9.525,18.25625 z"/>
  <circle cx="181.568" cy="77.568" r="24" transform="matrix(0.26458333,0,0,0.26458333,-1.8735229e-8,232.67026)" style="opacity:0.1;filter:url(#filter1001)"/>
  <circle style="fill:#f9f9f9" cx="48.04" cy="252.664" r="6.35"/>
  <path style="fill:#ffffff" d="m 48.039864,246.31429 a 6.35,6.35 0 0 0 -6.35,6.35 6.35,6.35 0 0 0 0.0057,0.11059 6.35,6.35 0 0 1 6.344311,-6.196 6.35,6.35 0 0 1 6.344317,6.23941 6.35,6.35 0 0 0 0.0057,-0.154 6.35,6.35 0 0 0 -6.35,-6.35 z m -23.379966,7.50652 -12.603366,24.24349 h 0.137459 l 12.465907,-23.9789 6.361365,12.23646 3.260268,-6.24923 9.387025,17.99167 h 0.137975 l -9.525,-18.25625 -3.260268,6.24923 z"/>
 </g>
</svg>
