<?xml version="1.0" encoding="UTF-8" standalone="no"?>
<svg
   xmlns:dc="http://purl.org/dc/elements/1.1/"
   xmlns:cc="http://creativecommons.org/ns#"
   xmlns:rdf="http://www.w3.org/1999/02/22-rdf-syntax-ns#"
   xmlns:svg="http://www.w3.org/2000/svg"
   xmlns="http://www.w3.org/2000/svg"
   xmlns:sodipodi="http://sodipodi.sourceforge.net/DTD/sodipodi-0.dtd"
   xmlns:inkscape="http://www.inkscape.org/namespaces/inkscape"
   width="256"
   height="256"
   version="1.1"
   viewBox="0 0 67.73 67.73"
   id="svg50"
   sodipodi:docname="gnome-power-statistics.svg"
   inkscape:version="0.92.3 (2405546, 2018-03-11)">
  <metadata
     id="metadata54">
    <rdf:RDF>
      <cc:Work
         rdf:about="">
        <dc:format>image/svg+xml</dc:format>
        <dc:type
           rdf:resource="http://purl.org/dc/dcmitype/StillImage" />
      </cc:Work>
    </rdf:RDF>
  </metadata>
  <sodipodi:namedview
     pagecolor="#ffffff"
     bordercolor="#666666"
     borderopacity="1"
     objecttolerance="10"
     gridtolerance="10"
     guidetolerance="10"
     inkscape:pageopacity="0"
     inkscape:pageshadow="2"
     inkscape:window-width="1920"
     inkscape:window-height="1009"
     id="namedview52"
     showgrid="false"
     inkscape:zoom="3.2617188"
     inkscape:cx="128"
     inkscape:cy="128"
     inkscape:window-x="0"
     inkscape:window-y="34"
     inkscape:window-maximized="1"
     inkscape:current-layer="g48" />
  <defs
     id="defs28">
    <linearGradient
       id="linearGradient1108"
       x1="296"
       x2="296"
       y1="-212"
       y2="236"
       gradientUnits="userSpaceOnUse">
      <stop
         style="stop-color:#ffffff"
         offset="0"
         id="stop2" />
      <stop
         style="stop-color:#ffffff;stop-opacity:.09803922"
         offset=".125"
         id="stop4" />
      <stop
         style="stop-color:#000000;stop-opacity:0"
         offset=".925"
         id="stop6" />
      <stop
         style="stop-color:#000000;stop-opacity:0"
         offset="1"
         id="stop8" />
    </linearGradient>
    <clipPath
       id="clipPath1082-3-360">
      <path
         d="M 361.9375,-212 C 507.2348,-212 528,-191.28677 528,-46.125 V 70.125 C 528,215.28618 507.2348,236 361.9375,236 H 214.0625 C 68.7652,236 48,215.28618 48,70.125 V -46.125 C 48,-191.28677 68.7652,-212 214.0625,-212 Z"
         style="fill:#8c59d9"
         id="path11" />
    </clipPath>
    <linearGradient
       id="linearGradient2059"
       x1="168"
       x2="168"
       y1="284"
       y2="28"
       gradientTransform="matrix(.26458333 0 0 .26458333 -6.993469 221.97263)"
       gradientUnits="userSpaceOnUse">
      <stop
         style="stop-color:#f7f7f7"
         offset="0"
         id="stop14" />
      <stop
         style="stop-color:#e6e6e6"
         offset="1"
         id="stop16" />
    </linearGradient>
    <filter
       id="filter1132"
       x="-.02"
       y="-.03"
       width="1.046"
       height="1.05"
       style="color-interpolation-filters:sRGB">
      <feGaussianBlur
         stdDeviation="2.32"
         id="feGaussianBlur19" />
    </filter>
    <filter
       id="filter4569"
       x="-.01"
       y="-.01"
       width="1.023"
       height="1.025"
       style="color-interpolation-filters:sRGB">
      <feGaussianBlur
         stdDeviation="1.16"
         id="feGaussianBlur22" />
    </filter>
    <filter
       id="filter1654"
       x="-.08"
       y="-.04"
       width="1.156"
       height="1.069"
       style="color-interpolation-filters:sRGB">
      <feGaussianBlur
         stdDeviation=".561"
         id="feGaussianBlur25" />
    </filter>
  </defs>
  <g
     transform="translate(0,-229.26666)"
     id="g48">
    <path
       d="m43.004513 233.61429c19.221622 0 21.968685 2.74019 21.968685 21.94388v15.37891c0 19.20362-2.747063 21.94388-21.968685 21.94388h-19.562631c-19.221621 0-21.968684-2.74026-21.968684-21.94388v-15.37891c0-19.20369 2.747063-21.94388 21.968684-21.94388z"
       style="fill:none;opacity:.1;stroke-linecap:round;stroke-linejoin:round;stroke-width:1.0583333;stroke:#000000"
       id="path30" />
    <path
       transform="matrix(.26458333 0 0 .26458333 -1.8735229e-8 232.67026)"
       d="m162.53675 3.5680001c72.64865 0 83.03125 10.356615 83.03125 82.937505v58.125005c0 72.58059-10.3826 82.9375-83.03125 82.9375h-73.937496c-72.648654 0-83.031254-10.35691-83.031254-82.9375v-58.125005c0-72.58089 10.3826-82.937505 83.031254-82.937505z"
       style="filter:url(#filter4569);opacity:.1"
       id="path32" />
    <path
       transform="matrix(.26458333 0 0 .26458333 -1.8735229e-8 232.67026)"
       d="m162.53675 5.5680001c72.64865 0 83.03125 10.356615 83.03125 82.937505v58.125005c0 72.58059-10.3826 82.9375-83.03125 82.9375h-73.937496c-72.648654 0-83.031254-10.35691-83.031254-82.9375v-58.125005c0-72.58089 10.3826-82.937505 83.031254-82.937505z"
       style="filter:url(#filter1132);opacity:.2"
       id="path34" />
    <path
       d="m43.004513 233.61429c19.221622 0 21.968685 2.74019 21.968685 21.94388v15.37891c0 19.20362-2.747063 21.94388-21.968685 21.94388h-19.562631c-19.221621 0-21.968684-2.74026-21.968684-21.94388v-15.37891c0-19.20369 2.747063-21.94388 21.968684-21.94388z"
       style="fill:url(#linearGradient2059)"
       id="path36" />
    <path
       transform="matrix(.13229167 0 0 .13229167 -4.876802 261.66013)"
       d="M 361.9375,-212 C 507.2348,-212 528,-191.28677 528,-46.125 V 70.125 C 528,215.28618 507.2348,236 361.9375,236 H 214.0625 C 68.7652,236 48,215.28618 48,70.125 V -46.125 C 48,-191.28677 68.7652,-212 214.0625,-212 Z"
       clip-path="url(#clipPath1082-3-360)"
       style="fill:none;opacity:.5;stroke-linecap:round;stroke-linejoin:round;stroke-width:8;stroke:url(#linearGradient1108)"
       id="path38" />
    <path
       d="m1.473198 250.84433h9.424133c11.227085-0.0891 6.427285 26.77888 14.82562 27.50892h8.374408c9.516523 0 5.702547-32.82559 12.354214-32.82559 6.294176 0 5.084929 21.46084 9.040826 21.46084 3.356708 0 2.25439-9.80682 5.302319-9.80682h4.17848"
       style="fill:none;stroke-width:.52916664;stroke:#1a7fd4"
       id="path40" />
    <path
       d="m64.973198 274.09491h-5.1908c-4.942205 0-3.706686-12.9521-7.741087-12.9521s-1.78313 4.57376-4.884166 3.617c-3.101035-0.95676-1.800545-18.13558-9.608702-18.17381h-5.199409c-9.516521 0-5.702546 32.82559-12.354212 32.82559-6.294175 0-5.084928-21.46085-9.040825-21.46085-3.356708 0-2.254391 9.80682-5.302319 9.80682h-4.17848"
       style="fill:none;stroke-width:.52916664;stroke:#da1636"
       id="path42" />
    <path
       d="m31.06554 282.66658 10.788306-23.73426-6.472981-1e-5v-15.10364l-10.788315 23.7343 6.47299-2e-5z"
       style="fill:#281e00;filter:url(#filter1654);opacity:.3"
       id="path44" />
    <path
       d="m31.06554 282.66658 10.788306-23.73426-6.472981-1e-5v-15.10364l-10.788315 23.7343 6.47299-2e-5z"
       style="fill:#272727;fill-opacity:1"
       id="path46" />
  </g>
</svg>
