<svg xmlns="http://www.w3.org/2000/svg" xmlns:xlink="http://www.w3.org/1999/xlink" width="256" height="256" version="1.1" viewBox="0 0 67.73 67.73">
 <defs>
  <linearGradient id="linearGradient1108" x1="296" x2="296" y1="-212" y2="236" gradientUnits="userSpaceOnUse" xlink:href="#linearGradient1013"/>
  <linearGradient id="linearGradient1013">
   <stop style="stop-color:#ffffff" offset="0"/>
   <stop offset=".125" style="stop-color:#ffffff;stop-opacity:0.09803922"/>
   <stop offset=".925" style="stop-color:#000000;stop-opacity:0.09803922"/>
   <stop style="stop-color:#000000;stop-opacity:0.49803922" offset="1"/>
  </linearGradient>
  <clipPath id="clipPath1082-3-2" clipPathUnits="userSpaceOnUse">
   <path style="fill:#8c59d9" d="M 361.9375,-212 C 507.2348,-212 528,-191.28677 528,-46.125 V 70.125 C 528,215.28618 507.2348,236 361.9375,236 H 214.0625 C 68.7652,236 48,215.28618 48,70.125 V -46.125 C 48,-191.28677 68.7652,-212 214.0625,-212 Z"/>
  </clipPath>
  <filter id="filter4569" width="1.023" height="1.025" x="-.01" y="-.01" style="color-interpolation-filters:sRGB">
   <feGaussianBlur stdDeviation="1.16"/>
  </filter>
  <filter id="filter913" width="1.046" height="1.05" x="-.02" y="-.03" style="color-interpolation-filters:sRGB">
   <feGaussianBlur stdDeviation="2.32"/>
  </filter>
  <filter id="filter1036" width="1.247" height="1.247" x="-.12" y="-.12" style="color-interpolation-filters:sRGB">
   <feGaussianBlur stdDeviation=".97"/>
  </filter>
  <filter id="filter1040" width="1.247" height="1.247" x="-.12" y="-.12" style="color-interpolation-filters:sRGB">
   <feGaussianBlur stdDeviation=".97"/>
  </filter>
  <filter id="filter1044" width="1.247" height="1.247" x="-.12" y="-.12" style="color-interpolation-filters:sRGB">
   <feGaussianBlur stdDeviation=".97"/>
  </filter>
  <filter id="filter1048" width="1.247" height="1.247" x="-.12" y="-.12" style="color-interpolation-filters:sRGB">
   <feGaussianBlur stdDeviation=".97"/>
  </filter>
 </defs>
 <g transform="translate(0,-229.26666)">
  <path d="m 162.53675,5.5680001 c 72.64865,0 83.03125,10.3566149 83.03125,82.9375049 v 58.125005 c 0,72.58059 -10.3826,82.9375 -83.03125,82.9375 H 88.599254 C 15.9506,229.56801 5.568,219.2111 5.568,146.63051 V 88.505505 c 0,-72.58089 10.3826,-82.9375049 83.031254,-82.9375049 z" transform="matrix(0.26458333,0,0,0.26458333,-1.8735229e-8,232.67026)" style="opacity:0.2;filter:url(#filter913)"/>
  <path style="opacity:0.1;filter:url(#filter4569)" d="m 162.53675,3.5680001 c 72.64865,0 83.03125,10.3566149 83.03125,82.9375049 v 58.125005 c 0,72.58059 -10.3826,82.9375 -83.03125,82.9375 H 88.599254 C 15.9506,227.56801 5.568,217.2111 5.568,144.63051 V 86.505505 c 0,-72.58089 10.3826,-82.9375049 83.031254,-82.9375049 z" transform="matrix(0.26458333,0,0,0.26458333,-1.8735229e-8,232.67026)"/>
  <path d="m 23.441882,233.61429 c -9.611188,0 -15.1016409,0.68375 -18.19217,3.77032 -3.090525,3.08656 -3.776514,8.57135 -3.776514,18.17356 v 15.37891 c 0,9.60218 0.68599,15.087 3.776514,18.17357 3.0905286,3.08658 8.580982,3.77031 18.19217,3.77031 h 19.562631 c 9.61119,0 15.101644,-0.68373 18.19217,-3.77031 3.090527,-3.08657 3.776515,-8.57139 3.776515,-18.17357 v -15.37891 c 0,-9.60221 -0.685988,-15.087 -3.776515,-18.17356 -3.090526,-3.08657 -8.580982,-3.77032 -18.19217,-3.77032 z" style="fill:#9b33ae"/>
  <path d="m 1.473198,270.40792 v 0.52916 c 0,9.60218 0.68599,15.087 3.776514,18.17357 3.0905286,3.08658 8.580982,3.77031 18.19217,3.77031 h 19.562631 c 9.61119,0 15.101644,-0.68373 18.19217,-3.77031 3.090527,-3.08657 3.776515,-8.57139 3.776515,-18.17357 v -0.52916 c 0,9.60217 -0.685988,15.08699 -3.776515,18.17356 -3.090526,3.08658 -8.58098,3.77032 -18.19217,3.77032 H 23.441882 c -9.611188,0 -15.1016414,-0.68374 -18.19217,-3.77032 -3.090524,-3.08657 -3.776514,-8.57139 -3.776514,-18.17356 z" style="opacity:0.2;fill:#131313"/>
  <path style="opacity:0.4;fill:none;stroke:url(#linearGradient1108);stroke-width:8;stroke-linecap:round;stroke-linejoin:round" d="M 361.9375,-212 C 507.2348,-212 528,-191.28677 528,-46.125 V 70.125 C 528,215.28618 507.2348,236 361.9375,236 H 214.0625 C 68.7652,236 48,215.28618 48,70.125 V -46.125 C 48,-191.28677 68.7652,-212 214.0625,-212 Z" clip-path="url(#clipPath1082-3-2)" transform="matrix(0.13229167,0,0,0.13229167,-4.876802,261.66013)"/>
  <g style="fill:#fdcd39" transform="matrix(0.52916667,0,0,0.52916667,1.3081952,228.98891)">
   <g style="fill:#fdcd39" transform="matrix(0,-1.2194632,1.2194632,0,-8.9070904,132.48218)">
    <g>
     <path style="opacity:0.3;stroke:#808080;stroke-width:0;stroke-linecap:round;stroke-linejoin:round;filter:url(#filter1036)" d="m 28.010729,37.395797 c -0.87078,0 -1.571802,0.701081 -1.571802,1.571856 v 15.718001 c 0,0.870832 0.701022,1.571798 1.571802,1.571798 h 15.718047 c 0.870779,0 1.571804,-0.700966 1.571804,-1.571798 V 38.967653 c 0,-0.870775 -0.701025,-1.571856 -1.571804,-1.571856 z"/>
     <path d="m 28.010729,37.395797 c -0.87078,0 -1.571802,0.701081 -1.571802,1.571856 v 15.718001 c 0,0.870832 0.701022,1.571798 1.571802,1.571798 h 15.718047 c 0.870779,0 1.571804,-0.700966 1.571804,-1.571798 V 38.967653 c 0,-0.870775 -0.701025,-1.571856 -1.571804,-1.571856 z" style="fill:#fdcd39;stroke:#808080;stroke-width:0;stroke-linecap:round;stroke-linejoin:round"/>
     <path d="m 47.881035,37.395797 c -0.87078,0 -1.571802,0.701081 -1.571802,1.571856 v 15.718001 c 0,0.870832 0.701022,1.571798 1.571802,1.571798 h 15.718047 c 0.870779,0 1.571804,-0.700966 1.571804,-1.571798 V 38.967653 c 0,-0.870775 -0.701025,-1.571856 -1.571804,-1.571856 z" style="opacity:0.3;stroke:#808080;stroke-width:0;stroke-linecap:round;stroke-linejoin:round;filter:url(#filter1040)"/>
     <path style="fill:#fdcd39;stroke:#808080;stroke-width:0;stroke-linecap:round;stroke-linejoin:round" d="m 47.881035,37.395797 c -0.87078,0 -1.571802,0.701081 -1.571802,1.571856 v 15.718001 c 0,0.870832 0.701022,1.571798 1.571802,1.571798 h 15.718047 c 0.870779,0 1.571804,-0.700966 1.571804,-1.571798 V 38.967653 c 0,-0.870775 -0.701025,-1.571856 -1.571804,-1.571856 z"/>
     <path d="m 47.501105,57.266115 c -0.870778,0 -1.5718,0.701081 -1.5718,1.571856 v 15.718001 c 0,0.870832 0.701022,1.571798 1.5718,1.571798 h 15.718049 c 0.870777,0 1.571804,-0.700966 1.571804,-1.571798 V 58.837971 c 0,-0.870775 -0.701027,-1.571856 -1.571804,-1.571856 z" style="opacity:0.3;stroke:#808080;stroke-width:0;stroke-linecap:round;stroke-linejoin:round;filter:url(#filter1044)"/>
     <path style="fill:#fdcd39;stroke:#808080;stroke-width:0;stroke-linecap:round;stroke-linejoin:round" d="m 47.501105,57.266115 c -0.870778,0 -1.5718,0.701081 -1.5718,1.571856 v 15.718001 c 0,0.870832 0.701022,1.571798 1.5718,1.571798 h 15.718049 c 0.870777,0 1.571804,-0.700966 1.571804,-1.571798 V 58.837971 c 0,-0.870775 -0.701027,-1.571856 -1.571804,-1.571856 z"/>
     <path style="opacity:0.3;stroke:#808080;stroke-width:0;stroke-linecap:round;stroke-linejoin:round;filter:url(#filter1048)" d="m 67.371411,57.266115 c -0.87078,0 -1.571802,0.701081 -1.571802,1.571856 v 15.718001 c 0,0.870832 0.701022,1.571798 1.571802,1.571798 h 15.718048 c 0.87078,0 1.571805,-0.700966 1.571805,-1.571798 V 58.837971 c 0,-0.870775 -0.701025,-1.571856 -1.571805,-1.571856 z"/>
     <path d="m 67.371411,57.266115 c -0.87078,0 -1.571802,0.701081 -1.571802,1.571856 v 15.718001 c 0,0.870832 0.701022,1.571798 1.571802,1.571798 h 15.718048 c 0.87078,0 1.571805,-0.700966 1.571805,-1.571798 V 58.837971 c 0,-0.870775 -0.701025,-1.571856 -1.571805,-1.571856 z" style="fill:#fdcd39;stroke:#808080;stroke-width:0;stroke-linecap:round;stroke-linejoin:round"/>
    </g>
   </g>
  </g>
 </g>
</svg>
