<svg xmlns="http://www.w3.org/2000/svg" xmlns:xlink="http://www.w3.org/1999/xlink" width="256" height="256" version="1.1" viewBox="0 0 67.73 67.73">
 <defs>
  <linearGradient id="linearGradient3650-7-9">
   <stop offset="0" style="stop-color:#5884f4"/>
   <stop style="stop-color:#80a3fa" offset="1"/>
  </linearGradient>
  <linearGradient id="linearGradient1108" x1="296" x2="296" y1="-212" y2="236" gradientUnits="userSpaceOnUse" xlink:href="#linearGradient1013"/>
  <linearGradient id="linearGradient1013">
   <stop style="stop-color:#ffffff" offset="0"/>
   <stop offset=".125" style="stop-color:#ffffff;stop-opacity:0.09803922"/>
   <stop offset=".925" style="stop-color:#000000;stop-opacity:0.09803922"/>
   <stop style="stop-color:#000000;stop-opacity:0.49803922" offset="1"/>
  </linearGradient>
  <clipPath id="clipPath1082-3-27" clipPathUnits="userSpaceOnUse">
   <path style="fill:#8c59d9" d="M 361.9375,-212 C 507.2348,-212 528,-191.28677 528,-46.125 V 70.125 C 528,215.28618 507.2348,236 361.9375,236 H 214.0625 C 68.7652,236 48,215.28618 48,70.125 V -46.125 C 48,-191.28677 68.7652,-212 214.0625,-212 Z"/>
  </clipPath>
  <linearGradient id="linearGradient1044" x1="88" x2="256" y1="28" y2="284" gradientTransform="matrix(0.26458333,0,0,0.26458333,-6.993468,221.97263)" gradientUnits="userSpaceOnUse" xlink:href="#linearGradient3650-7-9"/>
  <filter id="filter4569" width="1.023" height="1.025" x="-.01" y="-.01" style="color-interpolation-filters:sRGB">
   <feGaussianBlur stdDeviation="1.16"/>
  </filter>
  <filter id="filter939" width="1.046" height="1.05" x="-.02" y="-.03" style="color-interpolation-filters:sRGB">
   <feGaussianBlur stdDeviation="2.32"/>
  </filter>
  <radialGradient id="radialGradient5947" cx="7.623" cy="11.806" r="21.627" fx="7.623" fy="11.806" gradientTransform="matrix(0.94207156,0,0,0.97874922,13.750236,235.21021)" gradientUnits="userSpaceOnUse" xlink:href="#linearGradient5941"/>
  <linearGradient id="linearGradient5941">
   <stop offset="0" style="stop-color:#fcaf3e"/>
   <stop offset="1" style="stop-color:#f57900"/>
  </linearGradient>
 </defs>
 <g transform="translate(0,-229.26666)">
  <path d="m 162.53675,5.5680001 c 72.64865,0 83.03125,10.3566149 83.03125,82.9375049 v 58.125005 c 0,72.58059 -10.3826,82.9375 -83.03125,82.9375 H 88.599254 C 15.9506,229.56801 5.568,219.2111 5.568,146.63051 V 88.505505 c 0,-72.58089 10.3826,-82.9375049 83.031254,-82.9375049 z" transform="matrix(0.26458333,0,0,0.26458333,-1.8735233e-8,232.67026)" style="opacity:0.2;filter:url(#filter939)"/>
  <path style="opacity:0.1;fill:none;stroke:#000000;stroke-width:1.05833328;stroke-linecap:round;stroke-linejoin:round" d="m 43.004515,233.61429 c 19.221622,0 21.968685,2.74019 21.968685,21.94388 v 15.37891 c 0,19.20362 -2.747063,21.94388 -21.968685,21.94388 H 23.441886 C 4.220263,292.88096 1.4732,290.1407 1.4732,270.93708 v -15.37891 c 0,-19.20369 2.747063,-21.94388 21.968686,-21.94388 z"/>
  <path style="opacity:0.1;filter:url(#filter4569)" d="m 162.53675,3.5680001 c 72.64865,0 83.03125,10.3566149 83.03125,82.9375049 v 58.125005 c 0,72.58059 -10.3826,82.9375 -83.03125,82.9375 H 88.599254 C 15.9506,227.56801 5.568,217.2111 5.568,144.63051 V 86.505505 c 0,-72.58089 10.3826,-82.9375049 83.031254,-82.9375049 z" transform="matrix(0.26458333,0,0,0.26458333,-1.8735233e-8,232.67026)"/>
  <path d="m 43.004513,233.61429 c 19.221622,0 21.968685,2.74019 21.968685,21.94388 v 15.37891 c 0,19.20362 -2.747063,21.94388 -21.968685,21.94388 h -19.56263 c -19.221622,0 -21.968684,-2.74026 -21.968684,-21.94388 v -15.37891 c 0,-19.20369 2.747062,-21.94388 21.968684,-21.94388 z" style="fill:url(#linearGradient1044)"/>
  <path style="opacity:0.4;fill:none;stroke:url(#linearGradient1108);stroke-width:8;stroke-linecap:round;stroke-linejoin:round" d="M 361.9375,-212 C 507.2348,-212 528,-191.28677 528,-46.125 V 70.125 C 528,215.28618 507.2348,236 361.9375,236 H 214.0625 C 68.7652,236 48,215.28618 48,70.125 V -46.125 C 48,-191.28677 68.7652,-212 214.0625,-212 Z" clip-path="url(#clipPath1082-3-27)" transform="matrix(0.13229167,0,0,0.13229167,-4.876801,261.66013)"/>
  <path d="M 5.5683594 128.43164 L -12.410156 128.43164 L -12.410156 201.43945 C -12.688088 236.80755 -6.5858148 240.43164 50.123047 240.43164 L 88.599609 240.43164 C 79.518528 240.43164 71.41043 240.27066 64.173828 239.8457 C 60.555527 239.63323 57.154166 239.35475 53.958984 238.99805 C 50.763803 238.64134 47.773959 238.20595 44.976562 237.67969 C 42.179166 237.15343 39.575335 236.53559 37.150391 235.81445 C 34.725446 235.09332 32.48017 234.26946 30.402344 233.32812 C 28.324517 232.38679 26.414245 231.32749 24.658203 230.14062 C 22.902161 228.95376 21.299435 227.63937 19.839844 226.18164 C 18.380252 224.72392 17.063474 223.12305 15.875 221.36914 C 14.686526 219.61524 13.626285 217.70822 12.683594 215.63281 C 11.740903 213.5574 10.915601 211.31482 10.193359 208.89258 C 9.4711177 206.47033 8.8532978 203.86862 8.3261719 201.07422 C 7.799046 198.27982 7.3632032 195.29149 7.0058594 192.09961 C 6.6485155 188.90772 6.3691455 185.51118 6.15625 181.89648 C 5.730459 174.6671 5.5683594 166.56672 5.5683594 157.49414 L 5.5683594 128.43164 z" transform="matrix(0.26458333,0,0,0.26458333,0,229.26666)" style="opacity:0.07999998;fill:#ffffff"/>
  <path d="M 5.5683594 128.43164 L 5.5683594 157.49414 C 5.5683594 166.56672 5.730459 174.6671 6.15625 181.89648 C 6.3691455 185.51118 6.6485155 188.90772 7.0058594 192.09961 C 7.3632032 195.29149 7.799046 198.27982 8.3261719 201.07422 C 8.8532978 203.86862 9.4711177 206.47033 10.193359 208.89258 C 10.915601 211.31482 11.740903 213.5574 12.683594 215.63281 C 13.626285 217.70822 14.686526 219.61524 15.875 221.36914 C 17.063474 223.12305 18.380252 224.72392 19.839844 226.18164 C 21.299435 227.63937 22.902161 228.95376 24.658203 230.14062 C 26.414245 231.32749 28.324517 232.38679 30.402344 233.32812 C 32.48017 234.26946 34.725446 235.09332 37.150391 235.81445 C 39.575335 236.53559 42.179166 237.15343 44.976562 237.67969 C 47.773959 238.20595 50.763803 238.64134 53.958984 238.99805 C 57.154166 239.35475 60.555527 239.63323 64.173828 239.8457 C 71.41043 240.27066 79.518528 240.43164 88.599609 240.43164 L 162.53711 240.43164 C 171.61819 240.43164 179.72629 240.27066 186.96289 239.8457 C 190.58119 239.63323 193.9806 239.35475 197.17578 238.99805 C 200.37096 238.64134 203.36081 238.20595 206.1582 237.67969 C 208.9556 237.15343 211.56138 236.53559 213.98633 235.81445 C 216.41127 235.09332 218.65655 234.26946 220.73438 233.32812 C 222.8122 232.38679 224.72247 231.32749 226.47852 230.14062 C 228.23456 228.95376 229.83533 227.63937 231.29492 226.18164 C 232.75451 224.72392 234.07324 223.12305 235.26172 221.36914 C 236.45019 219.61524 237.50848 217.70822 238.45117 215.63281 C 239.39386 213.5574 240.22112 211.31482 240.94336 208.89258 C 241.6656 206.47033 242.28342 203.86862 242.81055 201.07422 C 243.33767 198.27982 243.77352 195.29149 244.13086 192.09961 C 244.4882 188.90772 244.76757 185.51118 244.98047 181.89648 C 245.40626 174.6671 245.56836 166.56672 245.56836 157.49414 L 245.56836 128.43164 L 5.5683594 128.43164 z" transform="matrix(0.26458333,0,0,0.26458333,0,229.26666)" style="opacity:0.07999998;fill:#ffffff"/>
  <g transform="matrix(1.0546648,0,0,1.0546648,-5.6760665,-11.30699)">
   <path d="m 17.040168,250.7644 c 0.667681,8.97253 8.712791,30.30728 13.667353,30.20758 4.882004,0.76432 7.171942,-7.64329 10.75791,-11.4649 1.243902,-0.74605 3.779536,10.62251 10.909737,10.62251 2.16829,0.15452 4.336576,-0.58811 4.411273,-2.52713 0.02991,-3.02742 -5.738293,-0.91211 -8.059972,-9.18197 -1.767585,-6.29618 -4.650524,-9.34483 -6.714089,-9.28169 -3.206396,1.16491 -7.210353,10.20577 -8.921324,11.37069 -5.81554,-5.11949 4.619197,-13.72834 2.891152,-21.63928 -1.329266,-16.11735 -20.204844,-8.30791 -18.94204,1.89419 z" style="fill:url(#radialGradient5947);fill-rule:evenodd"/>
   <path d="m 34.412449,252.00705 c -0.401854,0.17483 -0.803154,0.47715 -1.175046,0.70805 -3.124097,1.93981 -8.300034,4.31145 -12.10097,5.49353 -0.381627,0.11857 -0.42962,0.49677 -0.371323,0.75302 0.208757,0.91757 0.908661,2.11065 1.835795,3.09554 0.927134,0.98486 2.295278,1.74163 4.209485,1.76292 0.83538,0.0107 1.654981,-0.4042 2.456978,-1.03417 0.802,-0.62998 1.588469,-1.50004 2.293875,-2.51249 1.41081,-2.02491 2.501478,-4.45899 2.533324,-7.08638 0.0043,-0.35001 0.201743,-0.84771 0.317889,-1.18002 z m -1.522079,2.22808 c -0.269536,1.85453 -1.143229,3.83147 -2.238348,5.40325 -0.653363,0.93775 -1.380438,1.73272 -2.068304,2.27304 -0.687867,0.54032 -1.335113,0.80295 -1.762917,0.79818 -1.6399,-0.0178 -2.651814,-0.60562 -3.411315,-1.41241 -0.608123,-0.646 -1.010043,-1.43909 -1.353418,-2.2002 3.601361,-1.04029 7.805985,-3.03536 10.834302,-4.86186 z" style="fill:none"/>
   <path d="m 24.986066,244.15332 c -1.628558,0.0548 -3.140767,0.3461 -4.22462,0.75481 -0.67441,0.93586 -1.245995,2.07729 -1.551803,3.49013 -0.556299,-1.84161 -0.430079,-3.59484 0.43385,-5.13754 1.959636,-0.40441 4.094884,0.16842 5.342573,0.8926 z"/>
   <path d="m 32.219574,243.45011 c -1.374543,-0.87513 -2.78676,-1.48936 -3.911912,-1.76466 -1.085267,0.39095 -2.201866,1.00967 -3.25257,2.00244 0.58175,-1.8337 1.676668,-3.20884 3.261204,-3.99334 1.84528,0.77375 3.283173,2.45299 3.903278,3.75556 z"/>
   <path d="m 21.278052,258.74638 c 4.012003,-1.05044 9.109394,-3.53231 12.259732,-5.56431 -0.0465,4.59313 -4.195132,10.11143 -6.721505,10.0833 -3.554105,-0.0395 -4.762398,-2.68717 -5.538227,-4.51899 z" style="fill:#ffffff"/>
   <path d="m 25.833789,251.36942 c 0.339501,-4.28648 -1.691824,2.55536 -3.115,4.44357 -1.000136,-0.0424 -2.353881,-2.06706 -2.353881,-4.44357 0,-2.37651 1.225029,-4.30529 2.73444,-4.30529 1.50941,0 2.734441,1.92878 2.734441,4.30529 z" style="fill:#571e00;fill-opacity:0.32203393"/>
   <path d="m 31.200456,248.75136 c 0,2.21593 -1.329291,4.01437 -2.967161,4.01437 -1.637873,0 -2.96716,-1.79844 -2.96716,-4.01437 0,-2.21597 1.329287,-4.01439 2.96716,-4.01439 1.63787,0 2.967161,1.79842 2.967161,4.01439 z" style="fill:#571e00;fill-opacity:0.32203393"/>
   <path d="m 28.499008,244.99736 c -1.438174,0.14599 -2.569209,2.06472 -2.751956,4.47324 -0.607866,-1.30482 -1.524425,-2.12902 -2.460449,-2.03014 -1.436376,0.15168 -2.367769,2.39983 -2.078716,5.01807 0.167489,1.51692 0.714656,2.81147 1.419356,3.61606 1.001386,-0.80868 2.271154,-1.50139 3.727114,-2.00585 0.02884,-0.17946 0.0569,-0.36208 0.07289,-0.55179 0.07815,0.16379 0.175323,0.29446 0.263733,0.44073 0.674207,-0.21577 1.381175,-0.39604 2.120356,-0.52401 0.791593,-0.13708 1.567171,-0.20474 2.321637,-0.22218 0.373869,-0.9333 0.584795,-2.0764 0.537898,-3.30718 -0.109523,-2.87471 -1.532081,-5.07359 -3.171862,-4.90702 z" style="fill:#ffffff"/>
   <path d="m 29.178075,250.15284 a 0.71551476,1.3799214 0 1 1 -1.431027,0 0.71551476,1.3799214 0 1 1 1.431027,0 z"/>
   <path d="m 24.601983,251.32908 a 0.71551476,1.3799214 0 1 1 -1.431028,0 0.71551476,1.3799214 0 1 1 1.431028,0 z"/>
  </g>
 </g>
</svg>
