<svg width="256" height="256" version="1.1" viewBox="0 0 67.73 67.73" xmlns="http://www.w3.org/2000/svg" xmlns:xlink="http://www.w3.org/1999/xlink">
 <defs>
  <linearGradient id="linearGradient1108" x1="296" x2="296" y1="-212" y2="236" gradientUnits="userSpaceOnUse">
   <stop style="stop-color:#ffffff" offset="0"/>
   <stop style="stop-color:#ffffff;stop-opacity:.09803922" offset=".125"/>
   <stop style="stop-color:#000000;stop-opacity:.09803922" offset=".925"/>
   <stop style="stop-color:#000000;stop-opacity:.49803922" offset="1"/>
  </linearGradient>
  <clipPath id="clipPath1082-3-367">
   <path d="M 361.9375,-212 C 507.2348,-212 528,-191.28677 528,-46.125 V 70.125 C 528,215.28618 507.2348,236 361.9375,236 H 214.0625 C 68.7652,236 48,215.28618 48,70.125 V -46.125 C 48,-191.28677 68.7652,-212 214.0625,-212 Z" style="fill:#8c59d9"/>
  </clipPath>
  <linearGradient id="linearGradient4390" x1="256" x2="256" y1="232" y2="400" gradientUnits="userSpaceOnUse" xlink:href="#linearGradient4319"/>
  <linearGradient id="linearGradient4319">
   <stop style="stop-color:#fed965" offset="0"/>
   <stop style="stop-color:#fed965;stop-opacity:0" offset="1"/>
  </linearGradient>
  <linearGradient id="linearGradient4394" x1="256" x2="256" y1="232" y2="472" gradientTransform="translate(-40)" gradientUnits="userSpaceOnUse" xlink:href="#linearGradient4319"/>
  <linearGradient id="linearGradient4398" x1="256" x2="256" y1="200" y2="400" gradientTransform="translate(-80)" gradientUnits="userSpaceOnUse" xlink:href="#linearGradient4319"/>
  <linearGradient id="linearGradient4402" x1="256" x2="256" y1="152" y2="368" gradientTransform="translate(-120)" gradientUnits="userSpaceOnUse" xlink:href="#linearGradient4319"/>
  <linearGradient id="linearGradient4406" x1="256" x2="256" y1="112" y2="408" gradientTransform="translate(-160)" gradientUnits="userSpaceOnUse" xlink:href="#linearGradient4319"/>
  <linearGradient id="linearGradient4411" x1="256" x2="256" y1="160" y2="312" gradientTransform="translate(-200)" gradientUnits="userSpaceOnUse" xlink:href="#linearGradient4319"/>
  <linearGradient id="linearGradient4415" x1="256" x2="256" y1="160" y2="544" gradientTransform="translate(40)" gradientUnits="userSpaceOnUse" xlink:href="#linearGradient4319"/>
  <linearGradient id="linearGradient4419" x1="256" x2="256" y1="208" y2="456" gradientTransform="translate(80)" gradientUnits="userSpaceOnUse" xlink:href="#linearGradient4319"/>
  <linearGradient id="linearGradient4423" x1="256" x2="256" y1="176" y2="368" gradientTransform="translate(120)" gradientUnits="userSpaceOnUse" xlink:href="#linearGradient4319"/>
  <linearGradient id="linearGradient4427" x1="256" x2="256" y1="185.898" y2="376" gradientTransform="translate(160)" gradientUnits="userSpaceOnUse" xlink:href="#linearGradient4319"/>
  <linearGradient id="linearGradient4431" x1="256" x2="256" y1="128" y2="352" gradientTransform="translate(200)" gradientUnits="userSpaceOnUse" xlink:href="#linearGradient4319"/>
  <linearGradient id="linearGradient4368" x1="288" x2="288" y1="296" y2="72" gradientUnits="userSpaceOnUse" xlink:href="#linearGradient4287"/>
  <linearGradient id="linearGradient4287">
   <stop style="stop-color:#ff9169" offset="0"/>
   <stop style="stop-color:#f09778;stop-opacity:0" offset="1"/>
  </linearGradient>
  <linearGradient id="linearGradient4366" x1="216" x2="218" y1="326.102" y2="-32" gradientUnits="userSpaceOnUse" xlink:href="#linearGradient4287"/>
  <linearGradient id="linearGradient4364" x1="177.6" x2="176" y1="264" y2="136" gradientUnits="userSpaceOnUse" xlink:href="#linearGradient4287"/>
  <linearGradient id="linearGradient4362" x1="136" x2="136" y1="312" y2="80" gradientUnits="userSpaceOnUse" xlink:href="#linearGradient4287"/>
  <linearGradient id="linearGradient4360" x1="96.8" x2="96.8" y1="352" y2="162.4" gradientUnits="userSpaceOnUse" xlink:href="#linearGradient4287"/>
  <linearGradient id="linearGradient4358" x1="56" x2="56" y1="360" y2="184" gradientUnits="userSpaceOnUse" xlink:href="#linearGradient4287"/>
  <linearGradient id="linearGradient4356" x1="296" x2="296" y1="280" y2="72" gradientUnits="userSpaceOnUse" xlink:href="#linearGradient4287"/>
  <linearGradient id="linearGradient4354" x1="336" x2="336" y1="288" y2="152" gradientUnits="userSpaceOnUse" xlink:href="#linearGradient4287"/>
  <linearGradient id="linearGradient4352" x1="376" x2="376" y1="304" y2="96" gradientUnits="userSpaceOnUse" xlink:href="#linearGradient4287"/>
  <linearGradient id="linearGradient4350" x1="416" x2="416" y1="336" y2="128" gradientUnits="userSpaceOnUse" xlink:href="#linearGradient4287"/>
  <linearGradient id="linearGradient4348" x1="456" x2="456" y1="368" y2="192" gradientUnits="userSpaceOnUse" xlink:href="#linearGradient4287"/>
  <linearGradient id="linearGradient1137" x1="24" x2="280" y1="28" y2="284" gradientTransform="matrix(.26458333 0 0 .26458333 -6.993468 221.97263)" gradientUnits="userSpaceOnUse">
   <stop style="stop-color:#e72662" offset="0"/>
   <stop style="stop-color:#ec3c50" offset=".483"/>
   <stop style="stop-color:#ff7b66" offset="1"/>
  </linearGradient>
  <filter id="filter1112" x="-.02" y="-.03" width="1.046" height="1.05" style="color-interpolation-filters:sRGB">
   <feGaussianBlur stdDeviation="2.32"/>
  </filter>
  <filter id="filter4569" x="-.01" y="-.01" width="1.023" height="1.025" style="color-interpolation-filters:sRGB">
   <feGaussianBlur stdDeviation="1.16"/>
  </filter>
  <linearGradient id="linearGradient1030" x1="145.568" x2="121.568" y1="118.07" y2="118.07" gradientUnits="userSpaceOnUse">
   <stop style="stop-color:#ef5145;stop-opacity:0" offset="0"/>
   <stop style="stop-color:#ef5145" offset="1"/>
  </linearGradient>
  <filter id="filter1070" x="-.07" y="-.04" width="1.133" height="1.075" style="color-interpolation-filters:sRGB">
   <feGaussianBlur stdDeviation=".25"/>
  </filter>
 </defs>
 <g transform="translate(0,-229.26666)">
  <path transform="matrix(.26458333 0 0 .26458333 -1.8735229e-8 232.67026)" d="m162.53675 3.5680001c72.64865 0 83.03125 10.356615 83.03125 82.937505v58.125005c0 72.58059-10.3826 82.9375-83.03125 82.9375h-73.937496c-72.648654 0-83.031254-10.35691-83.031254-82.9375v-58.125005c0-72.58089 10.3826-82.937505 83.031254-82.937505z" style="filter:url(#filter4569);opacity:.1"/>
  <path transform="matrix(.26458333 0 0 .26458333 -1.8735229e-8 232.67026)" d="m162.53675 5.5680001c72.64865 0 83.03125 10.356615 83.03125 82.937505v58.125005c0 72.58059-10.3826 82.9375-83.03125 82.9375h-73.937496c-72.648654 0-83.031254-10.35691-83.031254-82.9375v-58.125005c0-72.58089 10.3826-82.937505 83.031254-82.937505z" style="filter:url(#filter1112);opacity:.2"/>
  <path d="m43.004513 233.61429c19.221622 0 21.968685 2.74019 21.968685 21.94388v15.37891c0 19.20362-2.747063 21.94388-21.968685 21.94388h-19.56263c-19.221622 0-21.968685-2.74026-21.968685-21.94388v-15.37891c0-19.20369 2.747063-21.94388 21.968685-21.94388z" style="fill:url(#linearGradient1137)"/>
  <g transform="matrix(.13229167 0 0 .13229167 -.64346802 229.38096)" style="enable-background:new;opacity:.5">
   <path transform="translate(-32,-32)" d="m272 72v16h32v-16zm0 24v16h32v-16zm0 24v16h32v-16zm0 24v16h32v-16zm0 24v16h32v-16zm0 24v16h32v-16zm0 24v16h32v-16zm0 24v16h32v-16zm0 24v16h32v-16z" style="fill:url(#linearGradient4368)"/>
   <path d="m200 40v16h32v-16zm0 24v16h32v-16zm0 24v16h32v-16zm0 24v16h32v-16zm0 24v16h32v-16zm0 24v16h32v-16zm0 24v16h32v-16zm0 24v16h32v-16zm0 24v16h32v-16z" style="fill:url(#linearGradient4366)"/>
   <path d="m160 40v16h32v-16zm0 24v16h32v-16zm0 24v16h32v-16zm0 24v16h32v-16zm0 24v16h32v-16zm0 24v16h32v-16zm0 24v16h32v-16zm0 24v16h32v-16zm0 24v16h32v-16z" style="fill:url(#linearGradient4364)"/>
   <path d="m120 40v16h32v-16zm0 24v16h32v-16zm0 24v16h32v-16zm0 24v16h32v-16zm0 24v16h32v-16zm0 24v16h32v-16zm0 24v16h32v-16zm0 24v16h32v-16zm0 24v16h32v-16z" style="fill:url(#linearGradient4362)"/>
   <path d="m80 40v16h32v-16zm0 24v16h32v-16zm0 24v16h32v-16zm0 24v16h32v-16zm0 24v16h32v-16zm0 24v16h32v-16zm0 24v16h32v-16zm0 24v16h32v-16zm0 24v16h32v-16z" style="fill:url(#linearGradient4360)"/>
   <path d="m40 40v16h32v-16zm0 24v16h32v-16zm0 24v16h32v-16zm0 24v16h32v-16zm0 24v16h32v-16zm0 24v16h32v-16zm0 24v16h32v-16zm0 24v16h32v-16zm0 24v16h32v-16z" style="fill:url(#linearGradient4358)"/>
   <path d="m280 40v16h32v-16zm0 24v16h32v-16zm0 24v16h32v-16zm0 24v16h32v-16zm0 24v16h32v-16zm0 24v16h32v-16zm0 24v16h32v-16zm0 24v16h32v-16zm0 24v16h32v-16z" style="fill:url(#linearGradient4356)"/>
   <path d="m320 40v16h32v-16zm0 24v16h32v-16zm0 24v16h32v-16zm0 24v16h32v-16zm0 24v16h32v-16zm0 24v16h32v-16zm0 24v16h32v-16zm0 24v16h32v-16zm0 24v16h32v-16z" style="fill:url(#linearGradient4354)"/>
   <path d="m360 40v16h32v-16zm0 24v16h32v-16zm0 24v16h32v-16zm0 24v16h32v-16zm0 24v16h32v-16zm0 24v16h32v-16zm0 24v16h32v-16zm0 24v16h32v-16zm0 24v16h32v-16z" style="fill:url(#linearGradient4352)"/>
   <path d="m400 40v16h32v-16zm0 24v16h32v-16zm0 24v16h32v-16zm0 24v16h32v-16zm0 24v16h32v-16zm0 24v16h32v-16zm0 24v16h32v-16zm0 24v16h32v-16zm0 24v16h32v-16z" style="fill:url(#linearGradient4350)"/>
   <path d="m440 40v16h32v-16zm0 24v16h32v-16zm0 24v16h32v-16zm0 24v16h32v-16zm0 24v16h32v-16zm0 24v16h32v-16zm0 24v16h32v-16zm0 24v16h32v-16zm0 24v16h32v-16z" style="fill:url(#linearGradient4348)"/>
  </g>
  <g transform="matrix(.13229167 0 0 .13229167 -.64346802 229.38096)" style="enable-background:new;opacity:.5">
   <path d="m240 264v16h32v-16zm0 24v16h32v-16zm0 24v16h32v-16zm0 24v16h32v-16zm0 24v16h32v-16zm0 24v16h32v-16zm0 24v16h32v-16zm0 24v16h32v-16zm0 24v16h32v-16z" style="fill:url(#linearGradient4390);opacity:.46700003"/>
   <path d="m200 264v16h32v-16zm0 24v16h32v-16zm0 24v16h32v-16zm0 24v16h32v-16zm0 24v16h32v-16zm0 24v16h32v-16zm0 24v16h32v-16zm0 24v16h32v-16zm0 24v16h32v-16z" style="fill:url(#linearGradient4394);opacity:.46700003"/>
   <path d="m160 264v16h32v-16zm0 24v16h32v-16zm0 24v16h32v-16zm0 24v16h32v-16zm0 24v16h32v-16zm0 24v16h32v-16zm0 24v16h32v-16zm0 24v16h32v-16zm0 24v16h32v-16z" style="fill:url(#linearGradient4398);opacity:.46700003"/>
   <path d="m120 264v16h32v-16zm0 24v16h32v-16zm0 24v16h32v-16zm0 24v16h32v-16zm0 24v16h32v-16zm0 24v16h32v-16zm0 24v16h32v-16zm0 24v16h32v-16zm0 24v16h32v-16z" style="fill:url(#linearGradient4402);opacity:.46700003"/>
   <path d="m80 264v16h32v-16zm0 24v16h32v-16zm0 24v16h32v-16zm0 24v16h32v-16zm0 24v16h32v-16zm0 24v16h32v-16zm0 24v16h32v-16zm0 24v16h32v-16zm0 24v16h32v-16z" style="fill:url(#linearGradient4406);opacity:.46700003"/>
   <path d="m40 264v16h32v-16zm0 24v16h32v-16zm0 24v16h32v-16zm0 24v16h32v-16zm0 24v16h32v-16zm0 24v16h32v-16zm0 24v16h32v-16zm0 24v16h32v-16zm0 24v16h32v-16z" style="fill:url(#linearGradient4411);opacity:.46700003"/>
   <path d="m280 264v16h32v-16zm0 24v16h32v-16zm0 24v16h32v-16zm0 24v16h32v-16zm0 24v16h32v-16zm0 24v16h32v-16zm0 24v16h32v-16zm0 24v16h32v-16zm0 24v16h32v-16z" style="fill:url(#linearGradient4415);opacity:.46700003"/>
   <path d="m320 264v16h32v-16zm0 24v16h32v-16zm0 24v16h32v-16zm0 24v16h32v-16zm0 24v16h32v-16zm0 24v16h32v-16zm0 24v16h32v-16zm0 24v16h32v-16zm0 24v16h32v-16z" style="fill:url(#linearGradient4419);opacity:.46700003"/>
   <path d="m360 264v16h32v-16zm0 24v16h32v-16zm0 24v16h32v-16zm0 24v16h32v-16zm0 24v16h32v-16zm0 24v16h32v-16zm0 24v16h32v-16zm0 24v16h32v-16zm0 24v16h32v-16z" style="fill:url(#linearGradient4423);opacity:.46700003"/>
   <path d="m400 264v16h32v-16zm0 24v16h32v-16zm0 24v16h32v-16zm0 24v16h32v-16zm0 24v16h32v-16zm0 24v16h32v-16zm0 24v16h32v-16zm0 24v16h32v-16zm0 24v16h32v-16z" style="fill:url(#linearGradient4427);opacity:.46700003"/>
   <path d="m440 264v16h32v-16zm0 24v16h32v-16zm0 24v16h32v-16zm0 24v16h32v-16zm0 24v16h32v-16zm0 24v16h32v-16zm0 24v16h32v-16zm0 24v16h32v-16zm0 24v16h32v-16z" style="fill:url(#linearGradient4431);opacity:.46700003"/>
  </g>
  <path d="m1.473198 263.24763v7.68945c0 19.20362 2.747063 21.94388 21.968685 21.94388h19.56263c19.221622 0 21.968685-2.74026 21.968685-21.94388v-7.68945z" style="fill:#ffffff;opacity:.1"/>
  <path transform="matrix(.13229167 0 0 .13229167 -4.876802 261.66013)" d="M 361.9375,-212 C 507.2348,-212 528,-191.28677 528,-46.125 V 70.125 C 528,215.28618 507.2348,236 361.9375,236 H 214.0625 C 68.7652,236 48,215.28618 48,70.125 V -46.125 C 48,-191.28677 68.7652,-212 214.0625,-212 Z" clip-path="url(#clipPath1082-3-367)" style="fill:none;opacity:.4;stroke-linecap:round;stroke-linejoin:round;stroke-width:8;stroke:url(#linearGradient1108)"/>
  <g transform="translate(-2.116672 -.43327633)">
   <g transform="matrix(2.4771447,0,0,2.4771447,-845.28507,-162.36137)" style="filter:url(#filter1070);opacity:.3">
    <path d="m355.5 163.97852c-1.41179 0-2.5 0.84433-2.5 2.54296v5.9336c0 1.69862 1.08821 2.54492 2.5 2.54492s2.5-0.84901 2.5-2.54492v-5.9336c0-1.69591-1.08821-2.54296-2.5-2.54296zm0 1c0.50567 0 0.85935 0.14158 1.0918 0.36132s0.4082 0.54758 0.4082 1.18164v5.9336c0 0.63406-0.17575 0.9619-0.4082 1.18164s-0.58613 0.36328-1.0918 0.36328c-0.50631 0-0.85971-0.14211-1.0918-0.36133s-0.4082-0.54783-0.4082-1.18359v-5.9336c0-0.63576 0.17612-0.96242 0.4082-1.18164 0.23209-0.21922 0.58549-0.36132 1.0918-0.36132z"/>
    <rect x="355" y="175.5" width="1" height="4"/>
    <path d="m355.5 179c-0.83331 0-1.66831 0.15904-2.5 0.45833v0.54166h5v-0.54166c-0.83348-0.29292-1.6667-0.45833-2.5-0.45833z"/>
    <path d="m351 171v1.5c0 2.493 2.007 4.5 4.5 4.5s4.5-2.007 4.5-4.5v-1.5h-1v1.5c0 1.939-1.561 3.5-3.5 3.5s-3.5-1.561-3.5-3.5v-1.5z"/>
   </g>
   <g transform="matrix(2.4771447,0,0,2.4771447,-845.28507,-162.36137)" style="fill:#ffffff">
    <path d="m355.5 163.97852c-1.41179 0-2.5 0.84433-2.5 2.54296v5.9336c0 1.69862 1.08821 2.54492 2.5 2.54492s2.5-0.84901 2.5-2.54492v-5.9336c0-1.69591-1.08821-2.54296-2.5-2.54296zm0 1c0.50567 0 0.85935 0.14158 1.0918 0.36132s0.4082 0.54758 0.4082 1.18164v5.9336c0 0.63406-0.17575 0.9619-0.4082 1.18164s-0.58613 0.36328-1.0918 0.36328c-0.50631 0-0.85971-0.14211-1.0918-0.36133s-0.4082-0.54783-0.4082-1.18359v-5.9336c0-0.63576 0.17612-0.96242 0.4082-1.18164 0.23209-0.21922 0.58549-0.36132 1.0918-0.36132z" style="fill:#ffffff"/>
    <rect x="355" y="175.5" width="1" height="4" style="fill:#ffffff"/>
    <path d="m355.5 179c-0.83331 0-1.66831 0.15904-2.5 0.45833v0.54166h5v-0.54166c-0.83348-0.29292-1.6667-0.45833-2.5-0.45833z" style="fill:#ffffff"/>
    <path d="m351 171v1.5c0 2.493 2.007 4.5 4.5 4.5s4.5-2.007 4.5-4.5v-1.5h-1v1.5c0 1.939-1.561 3.5-3.5 3.5s-3.5-1.561-3.5-3.5v-1.5z" style="fill:#ffffff"/>
   </g>
   <g transform="matrix(2.4771447,0,0,2.4771447,-845.28507,-162.36137)" style="fill:#ffffff">
    <path transform="matrix(.1068098 0 0 .1068098 341.23363 158.09655)" d="m111.18945 70.775391c-0.66917 2.420104-1.02734 5.11969-1.02734 8.101562v55.554687c0 15.90322 10.18845 23.82617 23.40625 23.82617 13.21779 0 23.40625-7.94832 23.40625-23.82617v-47.173828l-9.36328-3.371093v50.544921c0 5.93635-1.64597 9.0052-3.82227 11.0625s-5.4864 3.40039-10.2207 3.40039c-4.7403 0-8.04973-1.33038-10.22266-3.38281-2.17292-2.05243-3.82226-5.12782-3.82226-11.08008v-55.554687c0-1.933349 0.18867-3.534452 0.49804-4.921875z" style="fill:url(#linearGradient1030);opacity:.1"/>
    <rect x="355" y="175.5" width="1" height="4" style="fill:#ffffff"/>
    <path d="m355.5 179c-0.83331 0-1.66831 0.15904-2.5 0.45833v0.54166h5v-0.54166c-0.83348-0.29292-1.6667-0.45833-2.5-0.45833z" style="fill:#ffffff"/>
    <path d="m351 171v1.5c0 2.493 2.007 4.5 4.5 4.5s4.5-2.007 4.5-4.5v-1.5h-1v1.5c0 1.939-1.561 3.5-3.5 3.5s-3.5-1.561-3.5-3.5v-1.5z" style="fill:#ffffff"/>
   </g>
  </g>
 </g>
</svg>
