<svg xmlns="http://www.w3.org/2000/svg" xmlns:xlink="http://www.w3.org/1999/xlink" width="256" height="256" version="1.1" viewBox="0 0 67.73 67.73">
 <defs>
  <linearGradient id="linearGradient1108" x1="296" x2="296" y1="-212" y2="236" gradientUnits="userSpaceOnUse" xlink:href="#linearGradient1013"/>
  <linearGradient id="linearGradient1013">
   <stop offset="0" style="stop-color:#ffffff"/>
   <stop style="stop-color:#ffffff;stop-opacity:0.09803922" offset=".125"/>
   <stop style="stop-color:#000000;stop-opacity:0.09803922" offset=".925"/>
   <stop offset="1" style="stop-color:#000000;stop-opacity:0.49803922"/>
  </linearGradient>
  <clipPath id="clipPath1082-3-361" clipPathUnits="userSpaceOnUse">
   <path d="M 361.9375,-212 C 507.2348,-212 528,-191.28677 528,-46.125 V 70.125 C 528,215.28618 507.2348,236 361.9375,236 H 214.0625 C 68.7652,236 48,215.28618 48,70.125 V -46.125 C 48,-191.28677 68.7652,-212 214.0625,-212 Z" style="fill:#8c59d9"/>
  </clipPath>
  <linearGradient id="linearGradient4245">
   <stop offset="0" style="stop-color:#e8e8e8"/>
   <stop offset="1" style="stop-color:#f5f5f5"/>
  </linearGradient>
  <linearGradient id="linearGradient1044" x1="88" x2="256" y1="28" y2="284" gradientTransform="matrix(0.26970781,0,0,0.26970781,-7.1289179,220.5605)" gradientUnits="userSpaceOnUse" xlink:href="#linearGradient4245"/>
  <filter style="color-interpolation-filters:sRGB" id="filter4569" width="1.023" height="1.025" x="-.01" y="-.01">
   <feGaussianBlur stdDeviation="1.16"/>
  </filter>
  <filter style="color-interpolation-filters:sRGB" id="filter939" width="1.046" height="1.05" x="-.02" y="-.03">
   <feGaussianBlur stdDeviation="2.32"/>
  </filter>
  <radialGradient id="radialGradient3679" cx="32" cy="26" r="16" fx="32" fy="26" gradientTransform="matrix(1.1875,0,0,1.125,-6,-3.25)" gradientUnits="userSpaceOnUse" xlink:href="#linearGradient3927"/>
  <linearGradient id="linearGradient3927">
   <stop style="stop-color:#5db1eb" offset="0"/>
   <stop style="stop-color:#3ca0e6" offset=".719"/>
   <stop style="stop-color:#1b90e2" offset="1"/>
  </linearGradient>
  <linearGradient id="linearGradient3791" x1="61" x2="67.297" y1="15" y2="38.502" gradientTransform="translate(-36)" gradientUnits="userSpaceOnUse" xlink:href="#linearGradient3781"/>
  <linearGradient id="linearGradient3781">
   <stop style="stop-color:#ffffff" offset="0"/>
   <stop style="stop-color:#ffffff;stop-opacity:0" offset="1"/>
  </linearGradient>
  <radialGradient id="radialGradient3972" cx="32" cy="40" r="16" fx="32" fy="40" gradientTransform="matrix(1.1875,0,0,1.125,-6,-5)" gradientUnits="userSpaceOnUse" xlink:href="#linearGradient3957"/>
  <linearGradient id="linearGradient3957">
   <stop style="stop-color:#f14848" offset="0"/>
   <stop style="stop-color:#e42323" offset=".672"/>
   <stop style="stop-color:#c21313" offset="1"/>
  </linearGradient>
  <linearGradient id="linearGradient3974" x1="61" x2="67.297" y1="15" y2="38.502" gradientUnits="userSpaceOnUse" xlink:href="#linearGradient3781"/>
  <radialGradient id="radialGradient3984" cx="32" cy="40" r="16" fx="32" fy="40" gradientTransform="matrix(1.1875,0,0,1.125,-6,-5)" gradientUnits="userSpaceOnUse" xlink:href="#linearGradient3957"/>
  <radialGradient id="radialGradient3996" cx="32" cy="40" r="16" fx="32" fy="40" gradientTransform="matrix(1.1875,0,0,1.125,-6,-5)" gradientUnits="userSpaceOnUse" xlink:href="#linearGradient3957"/>
  <linearGradient id="linearGradient1023" x1="61" x2="67.297" y1="15" y2="38.502" gradientUnits="userSpaceOnUse" xlink:href="#linearGradient3781"/>
  <linearGradient id="linearGradient1025" x1="61" x2="67.297" y1="15" y2="38.502" gradientUnits="userSpaceOnUse" xlink:href="#linearGradient3781"/>
  <filter style="color-interpolation-filters:sRGB" id="filter1076" width="1.096" height="1.096" x="-.05" y="-.05">
   <feGaussianBlur stdDeviation="1.36"/>
  </filter>
 </defs>
 <g transform="translate(0,-229.26666)">
  <path style="opacity:0.2;filter:url(#filter939)" d="m 162.53675,5.5680001 c 72.64865,0 83.03125,10.3566149 83.03125,82.9375049 v 58.125005 c 0,72.58059 -10.3826,82.9375 -83.03125,82.9375 H 88.599254 C 15.9506,229.56801 5.568,219.2111 5.568,146.63051 V 88.505505 c 0,-72.58089 10.3826,-82.9375049 83.031254,-82.9375049 z" transform="matrix(0.26970779,0,0,0.26970779,-1.9098094e-8,231.46531)"/>
  <path d="m 43.837429,232.42763 c 19.593907,0 22.394176,2.79326 22.394176,22.36889 v 15.67677 c 0,19.57555 -2.800269,22.36889 -22.394176,22.36889 H 23.89591 c -19.5939088,0 -22.394177,-2.79334 -22.394177,-22.36889 v -15.67677 c 0,-19.57563 2.8002682,-22.36889 22.394177,-22.36889 z" style="opacity:0.1;fill:none;stroke:#000000;stroke-width:1.07883108;stroke-linecap:round;stroke-linejoin:round"/>
  <path d="m 162.53675,3.5680001 c 72.64865,0 83.03125,10.3566149 83.03125,82.9375049 v 58.125005 c 0,72.58059 -10.3826,82.9375 -83.03125,82.9375 H 88.599254 C 15.9506,227.56801 5.568,217.2111 5.568,144.63051 V 86.505505 c 0,-72.58089 10.3826,-82.9375049 83.031254,-82.9375049 z" transform="matrix(0.26970779,0,0,0.26970779,-1.9098094e-8,231.46531)" style="opacity:0.1;filter:url(#filter4569)"/>
  <path style="fill:url(#linearGradient1044)" d="m 43.837427,232.42763 c 19.593907,0 22.394175,2.79326 22.394175,22.36889 v 15.67677 c 0,19.57555 -2.800268,22.36889 -22.394175,22.36889 h -19.94152 c -19.5939074,0 -22.3941756,-2.79334 -22.3941756,-22.36889 v -15.67677 c 0,-19.57563 2.8002682,-22.36889 22.3941756,-22.36889 z"/>
  <path d="M 361.9375,-212 C 507.2348,-212 528,-191.28677 528,-46.125 V 70.125 C 528,215.28618 507.2348,236 361.9375,236 H 214.0625 C 68.7652,236 48,215.28618 48,70.125 V -46.125 C 48,-191.28677 68.7652,-212 214.0625,-212 Z" clip-path="url(#clipPath1082-3-361)" transform="matrix(0.1348539,0,0,0.1348539,-4.9712559,261.01666)" style="opacity:0.4;fill:none;stroke:url(#linearGradient1108);stroke-width:8;stroke-linecap:round;stroke-linejoin:round"/>
  <g transform="matrix(0.62254902,0,0,0.62254902,3.9843143,232.75255)" style="fill:#200000;filter:url(#filter1076);opacity:0.3">
   <path style="fill:#200000" d="m 48,32 a 16,16 0 1 1 -32,0 16,16 0 1 1 32,0 z" transform="matrix(1,0,0,-1,-2,62)"/>
   <path style="opacity:0.4;fill:#200000" d="m 30,15 c -8.284271,0 -15,6.715729 -15,15 0,3.608737 1.282987,6.912026 3.40625,9.5 C 16.881323,37.204428 16,34.46246 16,31.5 16,23.491871 22.491871,17 30.5,17 38.25256,17 44.57252,23.096036 44.96875,30.75 44.98119,30.499479 45,30.253609 45,30 45,21.715729 38.284271,15 30,15 Z"/>
   <path style="opacity:0.2;fill:#200000" d="m 30,14 c -8.836556,0 -16,7.163444 -16,16 0,8.836556 7.163444,16 16,16 8.836556,0 16,-7.163444 16,-16 0,-8.836556 -7.163444,-16 -16,-16 z m 0,0.96875 c 8.320146,0 15.03125,6.711104 15.03125,15.03125 0,8.320146 -6.711104,15.03125 -15.03125,15.03125 -8.320146,0 -15.03125,-6.711104 -15.03125,-15.03125 0,-8.320146 6.711104,-15.03125 15.03125,-15.03125 z"/>
   <g style="fill:#200000">
    <path style="fill:#200000" d="m 48,32 a 16,16 0 1 1 -32,0 16,16 0 1 1 32,0 z" transform="translate(34,-2)"/>
    <path style="opacity:0.3;fill:#200000" d="m 66,15 c -8.284271,0 -15,6.715729 -15,15 0,3.608737 1.282987,6.912026 3.40625,9.5 C 52.881323,37.204428 52,34.46246 52,31.5 52,23.491871 58.491871,17 66.5,17 74.25256,17 80.57252,23.096036 80.96875,30.75 80.98119,30.499479 81,30.253609 81,30 81,21.715729 74.284271,15 66,15 Z"/>
    <path style="opacity:0.2;fill:#200000" d="m 66,14 c -8.836556,0 -16,7.163444 -16,16 0,8.836556 7.163444,16 16,16 8.836556,0 16,-7.163444 16,-16 0,-8.836556 -7.163444,-16 -16,-16 z m 0,0.96875 c 8.320146,0 15.03125,6.711104 15.03125,15.03125 0,8.320146 -6.711104,15.03125 -15.03125,15.03125 -8.320146,0 -15.03125,-6.711104 -15.03125,-15.03125 0,-8.320146 6.711104,-15.03125 15.03125,-15.03125 z"/>
   </g>
   <g transform="translate(0,36)" style="fill:#200000">
    <path style="fill:#200000" d="m 48,32 a 16,16 0 1 1 -32,0 16,16 0 1 1 32,0 z" transform="translate(34,-2)"/>
    <path style="opacity:0.3;fill:#200000" d="m 66,15 c -8.284271,0 -15,6.715729 -15,15 0,3.608737 1.282987,6.912026 3.40625,9.5 C 52.881323,37.204428 52,34.46246 52,31.5 52,23.491871 58.491871,17 66.5,17 74.25256,17 80.57252,23.096036 80.96875,30.75 80.98119,30.499479 81,30.253609 81,30 81,21.715729 74.284271,15 66,15 Z"/>
    <path style="opacity:0.2;fill:#200000" d="m 66,14 c -8.836556,0 -16,7.163444 -16,16 0,8.836556 7.163444,16 16,16 8.836556,0 16,-7.163444 16,-16 0,-8.836556 -7.163444,-16 -16,-16 z m 0,0.96875 c 8.320146,0 15.03125,6.711104 15.03125,15.03125 0,8.320146 -6.711104,15.03125 -15.03125,15.03125 -8.320146,0 -15.03125,-6.711104 -15.03125,-15.03125 0,-8.320146 6.711104,-15.03125 15.03125,-15.03125 z"/>
   </g>
   <g transform="translate(-36,36)" style="fill:#200000">
    <path style="fill:#200000" d="m 48,32 a 16,16 0 1 1 -32,0 16,16 0 1 1 32,0 z" transform="translate(34,-2)"/>
    <path style="opacity:0.3;fill:#200000" d="m 66,15 c -8.284271,0 -15,6.715729 -15,15 0,3.608737 1.282987,6.912026 3.40625,9.5 C 52.881323,37.204428 52,34.46246 52,31.5 52,23.491871 58.491871,17 66.5,17 74.25256,17 80.57252,23.096036 80.96875,30.75 80.98119,30.499479 81,30.253609 81,30 81,21.715729 74.284271,15 66,15 Z"/>
    <path style="opacity:0.2;fill:#200000" d="m 66,14 c -8.836556,0 -16,7.163444 -16,16 0,8.836556 7.163444,16 16,16 8.836556,0 16,-7.163444 16,-16 0,-8.836556 -7.163444,-16 -16,-16 z m 0,0.96875 c 8.320146,0 15.03125,6.711104 15.03125,15.03125 0,8.320146 -6.711104,15.03125 -15.03125,15.03125 -8.320146,0 -15.03125,-6.711104 -15.03125,-15.03125 0,-8.320146 6.711104,-15.03125 15.03125,-15.03125 z"/>
   </g>
  </g>
  <g transform="matrix(0.62254902,0,0,0.62254902,3.9843143,232.75255)">
   <path d="m 48,32 a 16,16 0 1 1 -32,0 16,16 0 1 1 32,0 z" transform="matrix(1,0,0,-1,-2,62)" style="fill:url(#radialGradient3679)"/>
   <path d="m 30,15 c -8.284271,0 -15,6.715729 -15,15 0,3.608737 1.282987,6.912026 3.40625,9.5 C 16.881323,37.204428 16,34.46246 16,31.5 16,23.491871 22.491871,17 30.5,17 38.25256,17 44.57252,23.096036 44.96875,30.75 44.98119,30.499479 45,30.253609 45,30 45,21.715729 38.284271,15 30,15 Z" style="opacity:0.4;fill:url(#linearGradient3791)"/>
   <path d="m 30,14 c -8.836556,0 -16,7.163444 -16,16 0,8.836556 7.163444,16 16,16 8.836556,0 16,-7.163444 16,-16 0,-8.836556 -7.163444,-16 -16,-16 z m 0,0.96875 c 8.320146,0 15.03125,6.711104 15.03125,15.03125 0,8.320146 -6.711104,15.03125 -15.03125,15.03125 -8.320146,0 -15.03125,-6.711104 -15.03125,-15.03125 0,-8.320146 6.711104,-15.03125 15.03125,-15.03125 z" style="opacity:0.2"/>
   <g>
    <path d="m 48,32 a 16,16 0 1 1 -32,0 16,16 0 1 1 32,0 z" transform="translate(34,-2)" style="fill:url(#radialGradient3972)"/>
    <path d="m 66,15 c -8.284271,0 -15,6.715729 -15,15 0,3.608737 1.282987,6.912026 3.40625,9.5 C 52.881323,37.204428 52,34.46246 52,31.5 52,23.491871 58.491871,17 66.5,17 74.25256,17 80.57252,23.096036 80.96875,30.75 80.98119,30.499479 81,30.253609 81,30 81,21.715729 74.284271,15 66,15 Z" style="opacity:0.3;fill:url(#linearGradient1023)"/>
    <path d="m 66,14 c -8.836556,0 -16,7.163444 -16,16 0,8.836556 7.163444,16 16,16 8.836556,0 16,-7.163444 16,-16 0,-8.836556 -7.163444,-16 -16,-16 z m 0,0.96875 c 8.320146,0 15.03125,6.711104 15.03125,15.03125 0,8.320146 -6.711104,15.03125 -15.03125,15.03125 -8.320146,0 -15.03125,-6.711104 -15.03125,-15.03125 0,-8.320146 6.711104,-15.03125 15.03125,-15.03125 z" style="opacity:0.2"/>
   </g>
   <g transform="translate(0,36)">
    <path d="m 48,32 a 16,16 0 1 1 -32,0 16,16 0 1 1 32,0 z" transform="translate(34,-2)" style="fill:url(#radialGradient3984)"/>
    <path d="m 66,15 c -8.284271,0 -15,6.715729 -15,15 0,3.608737 1.282987,6.912026 3.40625,9.5 C 52.881323,37.204428 52,34.46246 52,31.5 52,23.491871 58.491871,17 66.5,17 74.25256,17 80.57252,23.096036 80.96875,30.75 80.98119,30.499479 81,30.253609 81,30 81,21.715729 74.284271,15 66,15 Z" style="opacity:0.3;fill:url(#linearGradient1025)"/>
    <path d="m 66,14 c -8.836556,0 -16,7.163444 -16,16 0,8.836556 7.163444,16 16,16 8.836556,0 16,-7.163444 16,-16 0,-8.836556 -7.163444,-16 -16,-16 z m 0,0.96875 c 8.320146,0 15.03125,6.711104 15.03125,15.03125 0,8.320146 -6.711104,15.03125 -15.03125,15.03125 -8.320146,0 -15.03125,-6.711104 -15.03125,-15.03125 0,-8.320146 6.711104,-15.03125 15.03125,-15.03125 z" style="opacity:0.2"/>
   </g>
   <g transform="translate(-36,36)">
    <path d="m 48,32 a 16,16 0 1 1 -32,0 16,16 0 1 1 32,0 z" transform="translate(34,-2)" style="fill:url(#radialGradient3996)"/>
    <path d="m 66,15 c -8.284271,0 -15,6.715729 -15,15 0,3.608737 1.282987,6.912026 3.40625,9.5 C 52.881323,37.204428 52,34.46246 52,31.5 52,23.491871 58.491871,17 66.5,17 74.25256,17 80.57252,23.096036 80.96875,30.75 80.98119,30.499479 81,30.253609 81,30 81,21.715729 74.284271,15 66,15 Z" style="opacity:0.3;fill:url(#linearGradient3974)"/>
    <path d="m 66,14 c -8.836556,0 -16,7.163444 -16,16 0,8.836556 7.163444,16 16,16 8.836556,0 16,-7.163444 16,-16 0,-8.836556 -7.163444,-16 -16,-16 z m 0,0.96875 c 8.320146,0 15.03125,6.711104 15.03125,15.03125 0,8.320146 -6.711104,15.03125 -15.03125,15.03125 -8.320146,0 -15.03125,-6.711104 -15.03125,-15.03125 0,-8.320146 6.711104,-15.03125 15.03125,-15.03125 z" style="opacity:0.2"/>
   </g>
  </g>
  <path style="opacity:0.1;fill:#ffffff" d="m 33.866666,232.42763 v 60.41455 h 9.970761 c 19.593907,0 22.394175,-2.79334 22.394175,-22.36889 v -15.67677 c 0,-19.57563 -2.800268,-22.36889 -22.394175,-22.36889 z"/>
  <path style="opacity:0.1;fill:#ffffff" d="m 23.895907,292.84218 c -19.5939074,0 -22.3941756,-2.79326 -22.3941756,-22.36889 v -7.83838 H 66.231602 v 7.83838 c 0,19.57563 -2.800268,22.36889 -22.394175,22.36889 z"/>
 </g>
</svg>
