<svg xmlns="http://www.w3.org/2000/svg" xmlns:xlink="http://www.w3.org/1999/xlink" style="clip-rule:evenodd;fill-rule:evenodd;image-rendering:optimizeQuality;shape-rendering:geometricPrecision;text-rendering:geometricPrecision" width="256" height="256" version="1.1" viewBox="0 0 256 256" xml:space="preserve">
 <defs>
  <style id="style2" type="text/css">
   <![CDATA[
    .fil5 {fill:none}
    .fil1 {fill:#196FBA}
    .fil0 {fill:#25B2EE}
    .fil4 {fill:#793C7C}
    .fil3 {fill:#8C508C}
    .fil2 {fill:white}
   ]]>
  </style>
  <filter style="color-interpolation-filters:sRGB" id="filter939" width="1.046" height="1.05" x="-.02" y="-.03">
   <feGaussianBlur id="feGaussianBlur941" stdDeviation="2.32"/>
  </filter>
  <filter style="color-interpolation-filters:sRGB" id="filter4569" width="1.023" height="1.025" x="-.01" y="-.01">
   <feGaussianBlur id="feGaussianBlur4571" stdDeviation="1.16"/>
  </filter>
  <linearGradient id="linearGradient1108" x1="296" x2="296" y1="-212" y2="236" gradientUnits="userSpaceOnUse" xlink:href="#linearGradient1013"/>
  <linearGradient id="linearGradient1013">
   <stop id="stop1005" offset="0" style="stop-color:#ffffff"/>
   <stop style="stop-color:#ffffff;stop-opacity:0.09803922" id="stop1007" offset=".125"/>
   <stop style="stop-color:#000000;stop-opacity:0.09803922" id="stop1009" offset=".925"/>
   <stop id="stop1011" offset="1" style="stop-color:#000000;stop-opacity:0.49803922"/>
  </linearGradient>
  <clipPath id="clipPath1082-3-361" clipPathUnits="userSpaceOnUse">
   <path d="M 361.9375,-212 C 507.2348,-212 528,-191.28677 528,-46.125 V 70.125 C 528,215.28618 507.2348,236 361.9375,236 H 214.0625 C 68.7652,236 48,215.28618 48,70.125 V -46.125 C 48,-191.28677 68.7652,-212 214.0625,-212 Z" style="fill:#8c59d9"/>
  </clipPath>
  <linearGradient id="linearGradient4958">
   <stop style="stop-color:#8d91db" id="stop4960" offset="0"/>
   <stop style="stop-color:#1f225f" id="stop4962" offset="1"/>
  </linearGradient>
  <radialGradient id="radialGradient3033" cx="182.984" cy="395.049" r="148.953" fx="182.984" fy="395.049" gradientTransform="matrix(1.165761,-1.2668566,3.8886482,4.2258738,-1653.0964,-1252.7344)" gradientUnits="userSpaceOnUse" xlink:href="#linearGradient3755"/>
  <linearGradient id="linearGradient3755">
   <stop style="stop-color:#008cbe" id="stop3757" offset="0"/>
   <stop style="stop-color:#b2ffff" id="stop3759" offset="1"/>
  </linearGradient>
  <filter style="color-interpolation-filters:sRGB" id="filter904" width="1.066" height="1.175" x="-.03" y="-.09">
   <feGaussianBlur id="feGaussianBlur906" stdDeviation="3.376"/>
  </filter>
 </defs>
 <path style="opacity:0.2;filter:url(#filter939)" d="m 162.53675,5.5680001 c 72.64865,0 83.03125,10.3566149 83.03125,82.9375049 v 58.125005 c 0,72.58059 -10.3826,82.9375 -83.03125,82.9375 H 88.599254 C 15.9506,229.56801 5.568,219.2111 5.568,146.63051 V 88.505505 c 0,-72.58089 10.3826,-82.9375049 83.031254,-82.9375049 z" transform="matrix(1.019368,0,0,1.019368,-7.2181772e-8,8.3098661)"/>
 <path d="m 165.68477,11.946967 c 74.05571,0 84.6394,10.557203 84.6394,84.543835 v 59.250778 c 0,73.98633 -10.58369,84.54383 -84.6394,84.54383 H 90.315249 c -74.055717,0 -84.639408,-10.5575 -84.639408,-84.54383 V 96.490802 c 0,-73.986632 10.583691,-84.543835 84.639408,-84.543835 z" style="opacity:0.1;fill:none;stroke:#000000;stroke-width:4.07747173;stroke-linecap:round;stroke-linejoin:round"/>
 <path d="m 162.53675,3.5680001 c 72.64865,0 83.03125,10.3566149 83.03125,82.9375049 v 58.125005 c 0,72.58059 -10.3826,82.9375 -83.03125,82.9375 H 88.599254 C 15.9506,227.56801 5.568,217.2111 5.568,144.63051 V 86.505505 c 0,-72.58089 10.3826,-82.9375049 83.031254,-82.9375049 z" transform="matrix(1.019368,0,0,1.019368,-7.2181772e-8,8.3098661)" style="opacity:0.1;filter:url(#filter4569)"/>
 <path style="fill:#fcaf3e" d="m 165.68476,11.946967 c 74.05571,0 84.6394,10.557203 84.6394,84.543835 v 59.250778 c 0,73.98633 -10.58369,84.54383 -84.6394,84.54383 H 90.315236 c -74.055712,0 -84.6394035,-10.5575 -84.6394035,-84.54383 V 96.490802 c 0,-73.986632 10.5836915,-84.543835 84.6394035,-84.543835 z"/>
 <path d="M 361.9375,-212 C 507.2348,-212 528,-191.28677 528,-46.125 V 70.125 C 528,215.28618 507.2348,236 361.9375,236 H 214.0625 C 68.7652,236 48,215.28618 48,70.125 V -46.125 C 48,-191.28677 68.7652,-212 214.0625,-212 Z" clip-path="url(#clipPath1082-3-361)" transform="matrix(0.50968403,0,0,0.50968403,-18.788999,120)" style="opacity:0.4;fill:none;stroke:url(#linearGradient1108);stroke-width:8;stroke-linecap:round;stroke-linejoin:round"/>
 <path style="opacity:0.1;fill:#ffffff" d="m 90.315238,240.28541 c -74.055712,0 -84.639403,-10.95275 -84.639403,-87.71148 V 121.83858 H 250.32416 v 30.73535 c 0,76.75873 -10.58369,87.71148 -84.6394,87.71148 z"/>
 <path style="opacity:0.1;fill:#ffffff" d="M 127.01285,11.946967 V 240.28541 h 37.98888 c 74.65333,0 85.32243,-10.5575 85.32243,-84.54383 V 96.490802 c 0,-73.986632 -10.6691,-84.543835 -85.32243,-84.543835 z"/>
 <g transform="matrix(0.99957582,0,0,0.99957582,0.22971615,17.947994)" style="fill:#ff003e;filter:url(#filter904);opacity:0.3">
  <path style="opacity:0.9;fill:#ff003e;fill-rule:evenodd" d="m 30.767745,73.800723 v 8.439716 16.879438 H 5.4485914 V 107.5596 H 30.767745 39.207461 V 82.240439 h 8.439717 v 42.198581 8.43973 H 72.96633 v -8.43973 -16.87942 h 16.879433 25.319157 8.43972 V 82.240439 h 8.43971 v 42.198581 8.43973 h 25.31915 v -8.43973 -16.87942 h 16.87945 16.87943 8.4397 V 82.240439 h 8.43973 v 42.198581 8.43973 h 25.31915 v -8.43973 -16.87942 h 16.87945 v -8.439723 h -25.31917 v 8.439723 16.87942 h -8.4397 V 82.240439 73.800723 h -25.31916 v 8.439716 16.879438 h -16.87943 -25.31917 v 8.439723 16.87942 h -8.4397 V 82.240439 73.800723 h -25.31916 v 8.439716 16.879438 H 89.845763 64.526613 v 8.439723 16.87942 H 56.086896 V 82.240439 73.800723 Z"/>
  <rect style="fill:#ff003e;fill-rule:evenodd" width="8.44" height="8.44" x="224.88" y="158.2"/>
  <rect style="fill:#ff003e;fill-rule:evenodd" width="8.44" height="16.879" x="208" y="149.76"/>
  <rect style="fill:#ff003e;fill-rule:evenodd" width="8.44" height="25.319" x="191.12" y="141.32"/>
  <rect style="fill:#ff003e;fill-rule:evenodd" width="8.44" height="16.879" x="174.24" y="149.76"/>
  <rect style="fill:#ff003e;fill-rule:evenodd" width="8.44" height="8.44" x="157.36" y="158.2"/>
 </g>
 <g transform="matrix(0.99957582,0,0,0.99957582,0.22971615,17.947994)">
  <path d="m 30.767745,73.800723 v 8.439716 16.879438 H 5.4485914 V 107.5596 H 30.767745 39.207461 V 82.240439 h 8.439717 v 42.198581 8.43973 H 72.96633 v -8.43973 -16.87942 h 16.879433 25.319157 8.43972 V 82.240439 h 8.43971 v 42.198581 8.43973 h 25.31915 v -8.43973 -16.87942 h 16.87945 16.87943 8.4397 V 82.240439 h 8.43973 v 42.198581 8.43973 h 25.31915 v -8.43973 -16.87942 h 16.87945 v -8.439723 h -25.31917 v 8.439723 16.87942 h -8.4397 V 82.240439 73.800723 h -25.31916 v 8.439716 16.879438 h -16.87943 -25.31917 v 8.439723 16.87942 h -8.4397 V 82.240439 73.800723 h -25.31916 v 8.439716 16.879438 H 89.845763 64.526613 v 8.439723 16.87942 H 56.086896 V 82.240439 73.800723 Z" style="opacity:0.9;fill:#eeeeec;fill-rule:evenodd"/>
  <rect width="8.44" height="8.44" x="224.88" y="158.2" style="fill:#eeeeec;fill-rule:evenodd"/>
  <rect width="8.44" height="16.879" x="208" y="149.76" style="fill:#eeeeec;fill-rule:evenodd"/>
  <rect width="8.44" height="25.319" x="191.12" y="141.32" style="fill:#eeeeec;fill-rule:evenodd"/>
  <rect width="8.44" height="16.879" x="174.24" y="149.76" style="fill:#eeeeec;fill-rule:evenodd"/>
  <rect width="8.44" height="8.44" x="157.36" y="158.2" style="fill:#eeeeec;fill-rule:evenodd"/>
 </g>
</svg>
