<?xml version="1.0" encoding="UTF-8" standalone="no"?>
<svg
   xmlns:dc="http://purl.org/dc/elements/1.1/"
   xmlns:cc="http://creativecommons.org/ns#"
   xmlns:rdf="http://www.w3.org/1999/02/22-rdf-syntax-ns#"
   xmlns:svg="http://www.w3.org/2000/svg"
   xmlns="http://www.w3.org/2000/svg"
   xmlns:xlink="http://www.w3.org/1999/xlink"
   xmlns:sodipodi="http://sodipodi.sourceforge.net/DTD/sodipodi-0.dtd"
   xmlns:inkscape="http://www.inkscape.org/namespaces/inkscape"
   width="256"
   height="256"
   version="1.1"
   viewBox="0 0 256 256"
   id="svg48"
   sodipodi:docname="goobox.svg"
   inkscape:version="0.92.3 (2405546, 2018-03-11)">
  <metadata
     id="metadata52">
    <rdf:RDF>
      <cc:Work
         rdf:about="">
        <dc:format>image/svg+xml</dc:format>
        <dc:type
           rdf:resource="http://purl.org/dc/dcmitype/StillImage" />
      </cc:Work>
    </rdf:RDF>
  </metadata>
  <sodipodi:namedview
     pagecolor="#ffffff"
     bordercolor="#666666"
     borderopacity="1"
     objecttolerance="10"
     gridtolerance="10"
     guidetolerance="10"
     inkscape:pageopacity="0"
     inkscape:pageshadow="2"
     inkscape:window-width="1920"
     inkscape:window-height="1009"
     id="namedview50"
     showgrid="false"
     inkscape:zoom="2.4171066"
     inkscape:cx="-35.725852"
     inkscape:cy="89.21597"
     inkscape:window-x="0"
     inkscape:window-y="34"
     inkscape:window-maximized="1"
     inkscape:current-layer="svg48" />
  <defs
     id="defs30">
    <linearGradient
       id="linearGradient1108"
       x1="296"
       x2="296"
       y1="-212"
       y2="236"
       gradientUnits="userSpaceOnUse">
      <stop
         style="stop-color:#ffffff"
         offset="0"
         id="stop2" />
      <stop
         style="stop-color:#ffffff;stop-opacity:.09803922"
         offset=".125"
         id="stop4" />
      <stop
         style="stop-color:#000000;stop-opacity:.09803922"
         offset=".925"
         id="stop6" />
      <stop
         style="stop-color:#000000;stop-opacity:.49803922"
         offset="1"
         id="stop8" />
    </linearGradient>
    <clipPath
       id="clipPath1082-3-361">
      <path
         d="M 361.9375,-212 C 507.2348,-212 528,-191.28677 528,-46.125 V 70.125 C 528,215.28618 507.2348,236 361.9375,236 H 214.0625 C 68.7652,236 48,215.28618 48,70.125 V -46.125 C 48,-191.28677 68.7652,-212 214.0625,-212 Z"
         style="fill:#8c59d9"
         id="path11" />
    </clipPath>
    <filter
       id="filter4569"
       width="1.023"
       height="1.025"
       x="-.01"
       y="-.01"
       style="color-interpolation-filters:sRGB">
      <feGaussianBlur
         stdDeviation="1.16"
         id="feGaussianBlur14" />
    </filter>
    <filter
       id="filter939"
       width="1.046"
       height="1.05"
       x="-.02"
       y="-.03"
       style="color-interpolation-filters:sRGB">
      <feGaussianBlur
         stdDeviation="2.32"
         id="feGaussianBlur17" />
    </filter>
    <filter
       id="filter1002"
       width="1.096"
       height="1.096"
       x="-.05"
       y="-.05"
       style="color-interpolation-filters:sRGB">
      <feGaussianBlur
         stdDeviation=".847"
         id="feGaussianBlur20" />
    </filter>
    <linearGradient
       id="linearGradient2658"
       x1="12.274"
       x2="35.391"
       y1="32.416"
       y2="14.203"
       gradientTransform="matrix(0,4.5714685,-4.5714685,0,233.29296,15.81431)"
       gradientUnits="userSpaceOnUse"
       xlink:href="#linearGradient3797-5" />
    <linearGradient
       id="linearGradient3797-5">
      <stop
         style="stop-color:#e6eaef"
         offset="0"
         id="stop24" />
      <stop
         style="stop-color:#e6eaef"
         offset="1"
         id="stop26" />
    </linearGradient>
    <linearGradient
       id="linearGradient1878"
       x1="73.634"
       x2="212.705"
       y1="60.981"
       y2="220.897"
       gradientTransform="translate(-.30798 -.5865606)"
       gradientUnits="userSpaceOnUse"
       xlink:href="#linearGradient3797-5" />
  </defs>
  <path
     d="m162.53676 18.43197c72.64865 0 83.03125 10.356615 83.03125 82.93751v58.12501c0 72.58059-10.3826 82.9375-83.03125 82.9375h-73.937502c-72.648657 0-83.031258-10.35691-83.031258-82.9375v-58.12501c0-72.580895 10.382601-82.93751 83.031258-82.93751z"
     style="filter:url(#filter939);opacity:.2"
     id="path32" />
  <path
     d="m162.53676 16.43197c72.64865 0 83.03125 10.356615 83.03125 82.937509v58.125011c0 72.58059-10.3826 82.9375-83.03125 82.9375h-73.937502c-72.648657 0-83.031258-10.35691-83.031258-82.9375v-58.125011c0-72.580894 10.382601-82.937509 83.031258-82.937509z"
     style="filter:url(#filter4569);opacity:.1"
     id="path34" />
  <path
     d="m162.53676 16.431966c72.64865 0 83.03125 10.356616 83.03125 82.937505v58.125019c0 72.58059-10.3826 82.9375-83.03125 82.9375h-73.937508c-72.648656 0-83.031257-10.35691-83.031257-82.9375v-58.125019c0-72.580889 10.382601-82.937505 83.031257-82.937505z"
     style="fill:#f36127"
     id="path36" />
  <path
     d="M 361.9375,-212 C 507.2348,-212 528,-191.28677 528,-46.125 V 70.125 C 528,215.28618 507.2348,236 361.9375,236 H 214.0625 C 68.7652,236 48,215.28618 48,70.125 V -46.125 C 48,-191.28677 68.7652,-212 214.0625,-212 Z"
     clip-path="url(#clipPath1082-3-361)"
     transform="matrix(.50000005 0 0 .50000005 -18.432009 122.432)"
     style="fill:none;opacity:.4;stroke-linecap:round;stroke-linejoin:round;stroke-width:8;stroke:url(#linearGradient1108)"
     id="path38" />
  <g
     transform="matrix(.98100004 0 0 .98100004 .62060774 5.2874392)"
     id="g46">
    <path
       d="m55.033331 262.6349c0-11.73249-9.434179-21.16667-21.166665-21.16667-11.732489 0-21.166666 9.43418-21.166666 21.16667-2e-6 11.73249 9.434179 21.16666 21.166666 21.16666 11.732483 0 21.166665-9.43418 21.166665-21.16666zm-13.422763 0c0 4.26237-3.396238 7.7439-7.743902 7.7439-4.432951 0-7.743903-3.56768-7.743903-7.7439 0-4.26153 3.140377-7.74391 7.743903-7.74391 4.603525 0 7.743902 3.56681 7.743902 7.74391z"
       transform="matrix(3.7795275 0 0 3.7795275 -.30798 -867.10621)"
       style="fill:#180000;filter:url(#filter1002);opacity:.3"
       id="path40" />
    <path
       d="m207.69201 125.52961c0-44.343272-35.65674-80.000015-79.99999-80.000015-44.34327 0-80 35.656743-80 80.000015-1e-5 44.34327 35.65674 79.99998 80 79.99998 44.34324 0 79.99999-35.65674 79.99999-79.99998zm-50.7317 0c0 16.10975-12.83618 29.26829-29.26829 29.26829-16.75446 0-29.2683-13.48415-29.2683-29.26829 0-16.10658 11.86914-29.268325 29.2683-29.268325 17.39914 0 29.26829 13.480855 29.26829 29.268325z"
       style="fill:url(#linearGradient2658)"
       id="path42" />
  </g>
  <g
     id="g896"
     transform="translate(236.57165,41.649425)">
    <path
       id="path15"
       d="m -35.874197,111.30693 c 0.05937,-0.18685 0.141573,-0.36285 0.199641,-0.5503 0.07693,-0.24829 0.120042,-0.51085 0.19453,-0.76019 h -50.356889 a 33.655714,33.65571 0 0 1 -1.220911,1.31049 z"
       style="opacity:0.1;stroke-width:1.31049716;enable-background:new"
       inkscape:connector-curvature="0" />
    <path
       id="path17"
       d="m -185.89031,109.99644 c 0.0745,0.24934 0.11768,0.5119 0.19453,0.76019 0.058,0.18745 0.14022,0.36345 0.19965,0.5503 h 51.20921 a 33.655714,33.65571 0 0 1 -0.54262,-0.50423 33.655714,33.65571 0 0 1 -0.709,-0.80626 z"
       style="opacity:0.1;stroke-width:1.31049716;enable-background:new"
       inkscape:connector-curvature="0" />
    <path
       id="path19"
       d="m -39.695633,120.87203 c 0.20656,-0.43856 0.428441,-0.86749 0.627099,-1.31049 h -61.944046 a 33.655714,33.65571 0 0 1 -0.67061,0.22268 33.655714,33.65571 0 0 1 -3.28135,0.73715 33.655714,33.65571 0 0 1 -2.89743,0.35066 z"
       style="opacity:0.1;stroke-width:1.31049716;enable-background:new"
       inkscape:connector-curvature="0" />
    <path
       id="path21"
       d="m -182.30179,119.56154 c 0.19864,0.443 0.42052,0.87193 0.62708,1.31049 h 68.24057 a 33.655714,33.65571 0 0 1 -0.61174,-0.0306 33.655714,33.65571 0 0 1 -3.32488,-0.50167 33.655714,33.65571 0 0 1 -3.05099,-0.7781 z"
       style="opacity:0.1;stroke-width:1.31049716;enable-background:new"
       inkscape:connector-curvature="0" />
    <path
       id="path23"
       d="m -154.89653,152.32396 c 0.0848,0.0576 0.16066,0.12698 0.24572,0.18427 0.59873,0.40385 1.24526,0.73864 1.85568,1.12622 h 84.219924 c 0.610417,-0.38758 1.256938,-0.72237 1.855678,-1.12622 0.08505,-0.0574 0.160916,-0.12659 0.245718,-0.18427 z"
       style="opacity:0.1;stroke-width:1.31049716;enable-background:new"
       inkscape:connector-curvature="0" />
    <path
       id="path25"
       d="m -169.63963,139.21899 c 0.38998,0.44329 0.79042,0.8762 1.1902,1.31049 h 115.52852 c 0.399781,-0.43429 0.800217,-0.8672 1.190207,-1.31049 z"
       style="opacity:0.1;stroke-width:1.31049716;enable-background:new"
       inkscape:connector-curvature="0" />
    <path
       id="path27"
       d="m -176.75522,129.80747 c 0.27568,0.42929 0.5097,0.88702 0.79347,1.3105 h 130.553175 c 0.283761,-0.42348 0.517777,-0.88121 0.793453,-1.3105 z"
       style="opacity:0.1;stroke-width:1.31049716;enable-background:new"
       inkscape:connector-curvature="0" />
    <path
       id="path29"
       d="m -50.30247,94.006838 c 0,0 -22.079321,0.05111 -23.931932,0.117682 -0.312802,-0.02857 -0.415781,0.0052 -0.422334,0.14333 -0.0052,0.09933 0.606302,5.655778 1.356575,12.34734 0.750273,6.6916 1.350635,12.28807 1.336089,12.43693 -0.02188,0.22283 -0.291717,0.0914 -1.53062,-0.75252 -1.787544,-1.21747 -2.951671,-1.74296 -4.381975,-1.97598 -3.685236,-0.6004 -6.452586,1.70576 -6.37587,5.31367 0.09003,4.23482 5.563454,8.18137 10.107721,7.28708 2.6672,-0.5249 4.380964,-3.03131 4.369169,-6.39124 -0.0013,-0.43387 -0.279673,-3.19377 -0.619419,-6.13528 -1.299634,-11.25277 -1.469199,-13.0002 -1.254186,-13.02562 0.209877,-0.0249 20.696893,1.11811 21.239281,1.18508 0.307286,0.0378 0.315961,0.10353 1.197874,7.51233 0.48926,4.11005 0.858834,7.52975 0.821616,7.59934 -0.03721,0.0697 -0.944161,-0.34879 -2.016934,-0.92913 -3.00522,-1.62572 -4.686587,-1.94201 -6.903149,-1.29769 -1.6195,0.47101 -2.413647,1.07506 -3.12779,2.37271 -1.521462,2.76457 -0.12856,6.44289 3.209696,8.47472 4.972944,2.93232 11.452855,2.00266 11.192983,-4.88877 -0.07365,-0.80775 -0.411902,-3.61663 -0.749958,-6.24277 -0.338055,-2.62617 -1.090937,-8.72032 -1.673951,-13.54266 -0.583,-4.822341 -1.788501,-9.578725 -1.842886,-9.608604 z m -21.966188,4.502279 c 0.264798,-0.0405 21.330675,0.797031 21.438922,0.852334 0.06159,0.03145 0.174558,0.589776 0.25083,1.238819 0.07627,0.64907 0.16275,1.3823 0.191974,1.63045 0.02923,0.24816 -0.02031,0.4677 -0.110081,0.48631 -0.178111,0.0367 -21.403553,-1.19179 -21.492667,-1.24395 -0.127773,-0.0748 -0.397982,-2.945747 -0.278991,-2.963963 z m -82.873592,14.761003 c -4.19116,0 -7.98828,0.84418 -10.76298,2.22683 -2.05975,1.02638 -3.57671,2.36548 -4.22328,3.90077 a 22.546434,20.041276 0 0 1 1.27979,-0.9368 c 0.7268,-0.90225 1.81376,-1.72959 3.21224,-2.42647 2.66545,-1.32819 6.38402,-2.16027 10.49423,-2.16027 v 32.55253 h 1.3105 v -32.51925 c 3.58608,0.15635 6.80498,0.94167 9.18372,2.12699 1.55581,0.77527 2.72509,1.71132 3.44005,2.73362 a 22.546434,20.041276 0 0 1 1.13133,0.86513 c -0.58602,-1.63267 -2.13943,-3.05832 -4.30262,-4.13625 -2.77471,-1.38265 -6.57183,-2.22683 -10.76298,-2.22683 z m -22.84668,6.61648 c -1.22673,-0.0141 -2.57738,0.28583 -3.81375,0.71923 0.66379,1.42329 1.29241,2.8664 2.03741,4.2412 0.80179,1.4796 1.7186,2.88285 2.61076,4.30263 1.09783,-0.50486 2.07517,-1.16586 2.74898,-2.10652 0.46504,-0.64881 0.96734,-1.95332 1.02382,-2.65938 0.11545,-1.44304 -0.37804,-2.6639 -1.41799,-3.51173 -0.22732,-0.18529 -0.65393,-0.38444 -1.34123,-0.62453 -0.84633,-0.29565 -1.14114,-0.35303 -1.848,-0.3609 z m 49.05663,0.33018 c -2.22008,-0.0255 -5.0472,0.86898 -6.34262,2.0067 -1.34744,1.18344 -1.93302,2.65321 -2.08604,5.23687 0.0105,0.053 0.0288,0.0898 0.0409,0.14078 v 28.53914 h 1.31051 v -26.43519 c 0.28859,0.16484 0.52472,0.22525 0.52472,0.22525 0.11518,0.0207 0.59467,0.11035 1.06478,0.19965 3.88347,0.73718 7.31249,-0.30514 9.06853,-2.75665 0.46505,-0.64881 0.96735,-1.95333 1.02382,-2.65939 0.11546,-1.44304 -0.37547,-2.6639 -1.41544,-3.51173 h -0.003 c -0.22723,-0.18529 -0.6513,-0.38189 -1.33859,-0.62198 -0.84635,-0.29569 -1.14116,-0.35558 -1.848,-0.36345 z m 10.48398,2.09629 a 3.2762431,3.2762431 0 0 0 -3.27625,3.27624 3.2762431,3.2762431 0 0 0 3.27625,3.27624 3.2762431,3.2762431 0 0 0 3.27624,-3.27624 3.2762431,3.2762431 0 0 0 -3.27624,-3.27624 z m 25.644264,3.47077 c -2.220061,-0.0287 -5.047184,0.97607 -6.342596,2.25242 -1.347448,1.32763 -1.933018,2.97575 -2.086048,5.87419 0.0105,0.0596 0.0289,0.1017 0.0409,0.15869 v 31.19341 c 0.7528,-0.0901 1.488546,-0.22931 2.234508,-0.34042 0.26666,-0.53416 0.564116,-1.13134 0.760193,-1.54342 0.900627,-1.89285 2.018795,-3.42619 4.305193,-5.90748 2.306554,-2.50319 3.913093,-4.98796 4.796616,-7.42273 0.492499,-1.35718 0.650715,-2.75673 0.422334,-3.73184 l -0.145897,-0.61942 -0.215001,0.27387 c -0.118337,0.14975 -0.669467,1.31559 -1.226035,2.59284 -1.209891,2.77657 -1.652576,3.60242 -2.431588,4.53811 -1.182724,1.42062 -3.959431,3.62819 -5.976576,4.75056 -0.506467,0.18081 -0.898175,0.44209 -1.213244,0.75251 v -22.17606 c 0.288007,0.18414 0.524709,0.25084 0.524709,0.25084 0.115193,0.0233 0.594691,0.12515 1.06478,0.22524 3.883474,0.82701 7.312509,-0.34176 9.068549,-3.09196 0.465043,-0.72786 0.967343,-2.19237 1.023826,-2.98446 0.115454,-1.61886 -0.375471,-2.98804 -1.415443,-3.93916 h -0.0026 c -0.227306,-0.20787 -0.65137,-0.42943 -1.338661,-0.69876 -0.846344,-0.33173 -1.141154,-0.39819 -1.84801,-0.40697 z"
       style="fill:#ababab;stroke-width:1.31049716;enable-background:new"
       inkscape:connector-curvature="0" />
  </g>
</svg>
