<svg xmlns="http://www.w3.org/2000/svg" xmlns:xlink="http://www.w3.org/1999/xlink" width="256" height="256" version="1.0" style="enable-background:new">
 <defs>
  <filter style="color-interpolation-filters:sRGB" id="filter925" width="1.046" height="1.05" x="-.02" y="-.03">
   <feGaussianBlur stdDeviation="2.32"/>
  </filter>
  <filter style="color-interpolation-filters:sRGB" id="filter931" width="1.023" height="1.025" x="-.01" y="-.01">
   <feGaussianBlur stdDeviation="1.16"/>
  </filter>
  <linearGradient id="linearGradient1108" x1="296" x2="296" y1="-212" y2="236" gradientUnits="userSpaceOnUse" xlink:href="#linearGradient1013"/>
  <linearGradient id="linearGradient1013">
   <stop offset="0" style="stop-color:#ffffff"/>
   <stop style="stop-color:#ffffff;stop-opacity:0.09803922" offset=".125"/>
   <stop style="stop-color:#000000;stop-opacity:0.09803922" offset=".925"/>
   <stop offset="1" style="stop-color:#000000;stop-opacity:0.49803922"/>
  </linearGradient>
  <clipPath id="clipPath1082-3" clipPathUnits="userSpaceOnUse">
   <path d="M 361.9375,-212 C 507.2348,-212 528,-191.28677 528,-46.125 V 70.125 C 528,215.28618 507.2348,236 361.9375,236 H 214.0625 C 68.7652,236 48,215.28618 48,70.125 V -46.125 C 48,-191.28677 68.7652,-212 214.0625,-212 Z" style="fill:#8c59d9"/>
  </clipPath>
  <filter style="color-interpolation-filters:sRGB" id="filter231" width="1.048" height="1.048" x="-.02" y="-.02">
   <feGaussianBlur stdDeviation="1.523"/>
  </filter>
 </defs>
 <g transform="translate(0,-44)">
  <g>
   <g>
    <path d="m 162.53675,62.431991 c 72.64865,0 83.03125,10.356615 83.03125,82.937499 v 58.125 c 0,72.58059 -10.3826,82.9375 -83.03125,82.9375 h -73.9375 c -72.64865,0 -83.0312501,-10.35691 -83.0312501,-82.9375 v -58.125 c 0,-72.580884 10.3826001,-82.937499 83.0312501,-82.937499 z" style="opacity:0.2;filter:url(#filter925)"/>
    <path style="opacity:0.1;filter:url(#filter931)" d="m 162.53675,61.431991 c 72.64865,0 83.03125,10.356615 83.03125,82.937499 v 58.125 c 0,72.58059 -10.3826,82.9375 -83.03125,82.9375 h -73.9375 c -72.64865,0 -83.0312501,-10.35691 -83.0312501,-82.9375 v -58.125 c 0,-72.580884 10.3826001,-82.937499 83.0312501,-82.937499 z"/>
   </g>
   <g>
    <path style="fill:#cdcdcd" d="m 162.53675,60.431991 c 72.64865,0 83.03125,10.356615 83.03125,82.937499 v 58.125 c 0,72.58059 -10.3826,82.9375 -83.03125,82.9375 h -73.9375 c -72.64865,0 -83.0312501,-10.35691 -83.0312501,-82.9375 v -58.125 c 0,-72.580884 10.3826001,-82.937499 83.0312501,-82.937499 z"/>
   </g>
   <g>
    <path d="m 129.79537,93.65475 v 38.07031 h -38.070307 l -38.070313,38.07031 h 38.070313 v 38.07032 l 38.070307,38.07031 v -38.07031 h 38.07031 l 38.07031,-38.07032 h -38.07031 v -38.07031 z" style="opacity:0.2;isolation:isolate;filter:url(#filter231)"/>
    <g style="isolation:isolate" transform="translate(0,44)">
     <path fill="#fdc92b" d="m 128,124.64 h -76.14 l 38.07,-38.07 h 38.07"/>
     <path fill="#f22c42" d="m 128,124.64 v -76.14 l 38.07,38.07 v 38.07"/>
     <path fill="#bc1938" d="m 128,124.64 38.07,-38.07 v 38.07 z"/>
     <path fill="#76c22b" d="m 89.93,124.64 v 38.071 l 38.07,38.07 v -76.141"/>
     <path fill="#28851e" d="m 128,124.64 -38.07,38.071 v -38.071 z"/>
     <path fill="#1a7fd4" d="m 128,124.64 h 76.14 l -38.07,38.071 h -38.07"/>
     <path fill="#1463a5" d="m 166.07,162.711 -38.07,-38.071 v 38.071 z"/>
     <path fill="#eab305" d="m 89.93,86.57 38.07,38.07 v -38.07 z"/>
     <path fill="#ffffff" d="m 128,124.64 v 2.72 h 73.421 l 2.719,-2.72 z" style="opacity:0.2"/>
     <path fill="#ffffff" d="m 128,48.5 v 2.719 l 38.07,38.07 v -2.719 z m -38.07,38.07 -38.07,38.07 h 2.719 l 35.351,-35.351 h 38.07 v -2.719 z" style="opacity:0.2"/>
     <path fill="#ececec" d="m 128,102.886 -6.798,14.956 -14.956,6.798 14.956,6.799 6.798,14.956 6.798,-14.956 14.956,-6.799 -14.956,-6.798 z"/>
    </g>
   </g>
   <g>
    <path d="m 361.9375,-212 c 145.2973,0 166.0625,20.71323 166.0625,165.875 v 116.25 c 0,145.16118 -20.7652,165.875 -166.0625,165.875 h -147.875 c -145.2973,0 -166.0625,-20.71382 -166.0625,-165.875 v -116.25 c 0,-145.16177 20.7652,-165.875 166.0625,-165.875 z" clip-path="url(#clipPath1082-3)" transform="matrix(0.5,0,0,0.5,-18.432,166.43199)" style="opacity:0.4;fill:none;stroke:url(#linearGradient1108);stroke-width:8;stroke-linecap:round;stroke-linejoin:round"/>
   </g>
  </g>
 </g>
</svg>
