<svg xmlns="http://www.w3.org/2000/svg" xmlns:xlink="http://www.w3.org/1999/xlink" width="256" height="256" version="1.1" viewBox="0 0 67.73 67.73">
 <defs>
  <linearGradient id="linearGradient1108" x1="296" x2="296" y1="-212" y2="236" gradientUnits="userSpaceOnUse" xlink:href="#linearGradient1013"/>
  <linearGradient id="linearGradient1013">
   <stop offset="0" style="stop-color:#ffffff"/>
   <stop style="stop-color:#ffffff;stop-opacity:0.09803922" offset=".125"/>
   <stop style="stop-color:#000000;stop-opacity:0.09803922" offset=".925"/>
   <stop offset="1" style="stop-color:#000000;stop-opacity:0.49803922"/>
  </linearGradient>
  <clipPath id="clipPath1082-3-06" clipPathUnits="userSpaceOnUse">
   <path d="M 361.9375,-212 C 507.2348,-212 528,-191.28677 528,-46.125 V 70.125 C 528,215.28618 507.2348,236 361.9375,236 H 214.0625 C 68.7652,236 48,215.28618 48,70.125 V -46.125 C 48,-191.28677 68.7652,-212 214.0625,-212 Z" style="fill:#8c59d9"/>
  </clipPath>
  <linearGradient id="linearGradient910" x1="160" x2="160" y1="44" y2="268" gradientTransform="matrix(0.26970778,0,0,0.26970778,-7.0577516,220.56049)" gradientUnits="userSpaceOnUse" xlink:href="#linearGradient908"/>
  <linearGradient id="linearGradient908">
   <stop style="stop-color:#ffbb00" offset="0"/>
   <stop style="stop-color:#fac532" offset="1"/>
  </linearGradient>
  <filter style="color-interpolation-filters:sRGB" id="filter4569" width="1.023" height="1.025" x="-.01" y="-.01">
   <feGaussianBlur stdDeviation="1.16"/>
  </filter>
  <filter style="color-interpolation-filters:sRGB" id="filter924" width="1.046" height="1.05" x="-.02" y="-.03">
   <feGaussianBlur stdDeviation="2.32"/>
  </filter>
  <radialGradient id="a" cx="32.172" cy="14.049" r="7.5" gradientTransform="matrix(2.4375443,0,0,2.4375443,380.88927,-18.465004)" gradientUnits="userSpaceOnUse">
   <stop offset="0" stop-color="#18cbff" style="stop-color:#8996dc"/>
   <stop offset=".55" stop-color="#23a1d9" style="stop-color:#7580be"/>
   <stop offset="1" stop-color="#2ba162" style="stop-color:#4453a9"/>
  </radialGradient>
  <mask>
   <g>
    <g>
     <path style="fill:#ffffff" d="m 969.75,392.05 c -1.1,-4.35 -2.35,-9 -3.65,-13.6 -2.5,-8.75 -5.35,-17.6 -8.45,-26.35 -6.45,-18.25 -14.15,-36.05 -23.15,-53.65 -3.8,-7.4 -7.95,-14.95 -12.3,-22.4 -20.3,-34.5 -45.8,-67.2 -76.35,-97.75 C 773.25,105.7 688.7,61.65 592.2,46.25 c -16.25,-2.6 -32.8,-4.4 -50.05,-5.35 -9.7,-0.55 -19.85,-0.85 -30.1,-0.85 -9.35,0 -18.6,0.25 -27.9,0.75 C 365.8,46.9 263.85,92.75 178.3,178.3 Q 40.05,316.55 40.05,512.05 c 0,130.35 46.1,241.65 138.25,333.8 70.4,70.35 151.9,113.85 243.95,130.4 20.45,3.65 40.9,6 61.9,7.1 0.15,0 0.25,0 0.4,0 8.5,0.45 16.6,0.7 24.5,0.7 1.2,0 2.1,0 3,0 10.3,0 20.5,-0.3 30.1,-0.8 2.5,-0.15 4.75,-0.3 6.95,-0.45 20.2,-1.45 39.9,-4.05 58.7,-7.7 7.95,-1.55 15.8,-3.3 23.4,-5.15 80.8,-20.3 152.15,-61.6 214.65,-124.1 48.6,-48.6 84.4,-102.5 107.35,-161.8 18.45,-47.65 28.65,-98.8 30.55,-153.5 0.2,-6.05 0.3,-12.25 0.3,-18.5 0,-0.65 0,-1.35 0,-2 0,-0.35 0,-0.65 0,-1 -0.1,-19.9 -1.25,-39.35 -3.55,-58.55 -2.4,-19.8 -5.95,-39.3 -10.75,-58.45 z"/>
    </g>
   </g>
  </mask>
  <filter style="color-interpolation-filters:sRGB" id="filter1014" width="1.096" height="1.096" x="-.05" y="-.05">
   <feGaussianBlur stdDeviation=".597"/>
  </filter>
 </defs>
 <g transform="translate(0,-229.26666)">
  <path style="opacity:0.2;filter:url(#filter924)" d="m 188.96876,45.999995 c 72.64865,0 83.03125,10.356615 83.03125,82.937505 v 58.125 c 0,72.58059 -10.3826,82.9375 -83.03125,82.9375 h -73.9375 C 42.382606,270 32.000006,259.64309 32.000006,187.0625 v -58.125 c 0,-72.58089 10.3826,-82.937505 83.031254,-82.937505 z" transform="matrix(0.26970778,0,0,0.26970778,-7.1289177,220.56049)"/>
  <path d="m 188.96876,43.999995 c 72.64865,0 83.03125,10.356615 83.03125,82.937505 v 58.125 c 0,72.58059 -10.3826,82.9375 -83.03125,82.9375 h -73.9375 C 42.382606,268 32.000006,257.64309 32.000006,185.0625 v -58.125 c 0,-72.58089 10.3826,-82.937505 83.031254,-82.937505 z" transform="matrix(0.26970778,0,0,0.26970778,-7.1289177,220.56049)" style="opacity:0.1;filter:url(#filter4569)"/>
  <path style="fill:url(#linearGradient910)" d="m 43.908592,232.42763 c 19.593907,0 22.394175,2.79326 22.394175,22.36889 v 15.67677 c 0,19.57555 -2.800268,22.36888 -22.394175,22.36888 h -19.94152 c -19.5939064,0 -22.3941745,-2.79333 -22.3941745,-22.36888 v -15.67677 c 0,-19.57563 2.8002681,-22.36889 22.3941745,-22.36889 z"/>
  <path style="opacity:0.3;fill:#ffffff" d="m 66.302767,272.61251 -20.478305,20.22966 c 17.178324,-0.18751 20.264414,-3.19588 20.478305,-20.22966 z"/>
  <g transform="matrix(0.28222223,0,0,0.28222223,-96.972231,235.14573)">
   <path d="m 478.78045,22.283817 a 14.925906,14.925906 0 1 1 -29.85181,0 14.925906,14.925906 0 1 1 29.85181,0 z" style="opacity:0.3;filter:url(#filter1014)"/>
   <path style="fill:url(#a)" d="m 477.74928,20.408817 a 14.057355,14.057355 0 1 1 -28.11471,0 14.057355,14.057355 0 1 1 28.11471,0 z"/>
   <g transform="matrix(2.7770114,0,0,2.7770114,389.51192,-660.02244)">
    <g mask="url(#circle2)" transform="matrix(0.0797781,0,0,0.0797781,-2.6891497,223.82168)">
     <g>
      <g transform="matrix(1.0716202,0,0,1.0986416,-44.089108,-36.709858)">
       <path style="fill:#59639a" d="m 230.6582,21.472656 c -1.32639,-0.797536 -2.63043,-1.611744 -4.12109,-2.287109 -2.11806,-0.959619 -4.40716,-1.800153 -6.87891,-2.535156 -2.47175,-0.735004 -5.12718,-1.364132 -7.97851,-1.900391 -2.85134,-0.536259 -5.89943,-0.97841 -9.15625,-1.341797 -0.68988,-0.07698 -1.4963,-0.113672 -2.20508,-0.183594 l -12.02734,26.751953 c -1.12691,2.518361 -0.46815,4.362248 1.98828,5.517579 l 48.74804,23.041015 c 1.49412,0.700987 2.74682,0.727193 3.75977,0.07813 L 215.31055,55.617188 Z" transform="matrix(3.9488353,0,0,3.8517125,-125.8293,106.07446)"/>
       <path style="fill:#212d74" d="m 249.5,55.171875 c -0.16139,-1.012187 -0.27472,-2.136995 -0.45703,-3.103516 -0.53728,-2.848413 -1.16609,-5.501588 -1.90235,-7.970703 -0.73625,-2.469115 -1.57991,-4.75345 -2.54101,-6.86914 -0.9611,-2.11569 -2.04015,-4.061471 -3.25195,-5.84961 -1.2118,-1.788138 -2.55656,-3.41979 -4.04493,-4.90625 -1.48837,-1.486464 -3.11989,-2.827003 -4.91015,-4.037109 -0.53031,-0.358452 -1.17611,-0.627216 -1.73438,-0.962891 l -15.34765,34.144532 27.47656,12.996093 c 0.6331,-0.441362 1.17792,-1.130613 1.62109,-2.117187 z" transform="matrix(3.9488353,0,0,3.8517125,-125.8293,106.07446)"/>
      </g>
     </g>
     <g>
      <g>
       <path style="fill:#4b5483" d="m 249.85938,57.615234 c -0.2603,-1.874575 -0.49058,-3.819444 -0.81641,-5.546875 -0.53728,-2.848413 -1.16609,-5.501588 -1.90235,-7.970703 -0.20704,-0.694363 -0.49074,-1.265963 -0.71484,-1.93164 -1.01973,-0.438668 -1.74126,-0.840499 -1.78906,-1.16211 L 224.91992,31.919922 200,86 l 25.46289,11.734375 3.08399,1.416016 c 2.28043,1.051599 3.95817,0.438635 5.00976,-1.841797 l 12.71484,-27.609375 c -0.0159,-2.98619 1.79232,-7.590164 3.5879,-12.083985 z" transform="matrix(4.2316516,0,0,4.2316516,-178.93033,79.827955)"/>
       <path d="M 775.15,493.4 667.4,443.75 v 0 L 504.2,797.95 560.86839,748.09386 730.05,599.25 c 13.65,-11.95 24.45,-26.75 32.6,-44.45 9.36667,-20.26667 13.53333,-40.73333 12.5,-61.4 z" style="fill:#c3c24b"/>
       <path d="m 772.85,214.9 -120.8,-55.7 c -9.65,-4.45 -16.7,-1.85 -21.2,7.8 L 538.8,366.85 c -4.45,9.65 -1.85,16.75 7.8,21.2 l 13.1,6.05 107.7,49.65 z" style="fill:#7580be"/>
       <path style="fill:#ede667" d="m 172.37695,145.95117 -10.53906,-4.21679 -0.4043,27.96874 z" transform="matrix(4.2316516,0,0,4.2316516,-178.93033,79.827955)"/>
       <path style="fill:#ede667" d="m 174.54883,74.267578 c -3.88737,2.989377 -6.92328,6.876744 -9.13281,11.66211 -1.97323,4.289105 -2.9667,8.589315 -2.97852,12.9375 0,0.04726 -1e-4,0.09541 0.0117,0.130859 -0.0118,0.141788 0,0.270224 0,0.423828 l -0.61133,42.312505 10.53906,4.21679 L 200,86 Z" transform="matrix(4.2316516,0,0,4.2316516,-178.93033,79.827955)"/>
      </g>
     </g>
    </g>
   </g>
   <path style="fill:#363636" d="m 493.74695,138.31448 20.46244,-17.96542 -20.08332,-8.25473 z"/>
  </g>
  <path d="M 361.9375,-212 C 507.2348,-212 528,-191.28677 528,-46.125 V 70.125 C 528,215.28618 507.2348,236 361.9375,236 H 214.0625 C 68.7652,236 48,215.28618 48,70.125 V -46.125 C 48,-191.28677 68.7652,-212 214.0625,-212 Z" clip-path="url(#clipPath1082-3-06)" transform="matrix(0.13485389,0,0,0.13485389,-4.9712555,261.01666)" style="opacity:0.4;fill:none;stroke:url(#linearGradient1108);stroke-width:8;stroke-linecap:round;stroke-linejoin:round"/>
 </g>
</svg>
