<svg width="256" height="256" style="enable-background:new" version="1.0" xmlns="http://www.w3.org/2000/svg" xmlns:xlink="http://www.w3.org/1999/xlink">
 <defs>
  <filter id="filter925" x="-.02" y="-.03" width="1.046" height="1.05" style="color-interpolation-filters:sRGB">
   <feGaussianBlur stdDeviation="2.32"/>
  </filter>
  <filter id="filter931" x="-.01" y="-.01" width="1.023" height="1.025" style="color-interpolation-filters:sRGB">
   <feGaussianBlur stdDeviation="1.16"/>
  </filter>
  <linearGradient id="linearGradient1108" x1="296" x2="296" y1="-212" y2="236" gradientUnits="userSpaceOnUse">
   <stop style="stop-color:#ffffff" offset="0"/>
   <stop style="stop-color:#ffffff;stop-opacity:.09803922" offset=".125"/>
   <stop style="stop-color:#000000;stop-opacity:.09803922" offset=".925"/>
   <stop style="stop-color:#000000;stop-opacity:.49803922" offset="1"/>
  </linearGradient>
  <clipPath id="clipPath1082-3">
   <path d="M 361.9375,-212 C 507.2348,-212 528,-191.28677 528,-46.125 V 70.125 C 528,215.28618 507.2348,236 361.9375,236 H 214.0625 C 68.7652,236 48,215.28618 48,70.125 V -46.125 C 48,-191.28677 68.7652,-212 214.0625,-212 Z" style="fill:#8c59d9"/>
  </clipPath>
  <linearGradient id="linearGradient978" x1="127.947" x2="91.947" y1="224.053" y2="188.053" gradientTransform="matrix(1.0475654 0 0 1.0475654 -21.677766 .63431793)" gradientUnits="userSpaceOnUse">
   <stop style="stop-color:#241f31" offset="0"/>
   <stop style="stop-color:#3d3846" offset="1"/>
  </linearGradient>
 </defs>
 <g transform="translate(0,-44)">
  <path d="m162.53675 62.431991c72.64865 0 83.03125 10.356615 83.03125 82.937499v58.125c0 72.58059-10.3826 82.9375-83.03125 82.9375h-73.9375c-72.64865 0-83.03125-10.35691-83.03125-82.9375v-58.125c0-72.580884 10.3826-82.937499 83.03125-82.937499z" style="filter:url(#filter925);opacity:.2"/>
  <path d="m162.53675 61.431991c72.64865 0 83.03125 10.356615 83.03125 82.937499v58.125c0 72.58059-10.3826 82.9375-83.03125 82.9375h-73.9375c-72.64865 0-83.03125-10.35691-83.03125-82.9375v-58.125c0-72.580884 10.3826-82.937499 83.03125-82.937499z" style="filter:url(#filter931);opacity:.1"/>
  <path d="m125.57581 163.23277-118.89453 68.97852c4.005009 44.82734 21.16041 52.2207 81.917969 52.2207h37.10351z" style="fill:#ed333b"/>
  <path d="m125.57581 162.86363-116.22461-67.36914c-2.871575 11.76844-3.783203 27.23737-3.783203 47.875v58.125c0 11.87995 0.329446 21.94347 1.113281 30.7168l118.89453-68.97852z" style="fill:#ff7800"/>
  <path d="m88.59925 60.43199c-51.991755 0-72.020523 5.442266-79.248047 35.0625l116.22461 67.36914-0.10937-102.43164z" style="fill:#f6d32d"/>
  <path d="m125.89417 163.04723-0.31836 0.18554 0.12695 121.19922h36.83399c60.94444 0 78.01697-7.4432 81.95312-52.64062z" style="fill:#a347ba"/>
  <path d="m125.89417 163.04723 118.5957 68.74414c0.75593-8.68005 1.07813-18.60363 1.07813-30.29688v-58.125c0-20.47565-0.89934-35.85977-3.7168-47.595703z" style="fill:#3584e4"/>
  <path d="m125.46644 60.43199 0.10937 102.80078 116.27539-67.458983c-7.16971-29.864905-27.16057-35.341797-79.31445-35.341797z" style="fill:#33d17a"/>
  <g transform="matrix(1.9999999,0,0,1.9999999,-258.93026,-301.21077)" style="enable-background:new">
   <path d="m234.02764 191.6054c-2.51975 3e-3 -4.93389 1.01445-6.70312 2.80859l-4e-3 -6e-3 -9.69922 9.69922-6.06055-6.0625c-1.41421-1.41421-2.83008 0-2.83008 0l-4.48828 4.48828s-1.41421 1.41392 0 2.82813l6.73438 6.73242-35.51163 35.51186c-3 4.5-1.5 9-6 13.5l4.5 4.5c4.5-4.5 10.58319-2.95061 13.5-6l35.51172-35.51172 6.72266 6.72266c1.41422 1.41422 2.82812 0 2.82812 0l4.48828-4.48828c1.41421-1.41421 0-2.82813 0-2.82813l-6.0625-6.0625 9.69728-9.69728c1.79391-1.77037 2.80356-4.18667 2.80468-6.70704 0-5.20699-4.22075-9.42774-9.42773-9.42773z" style="opacity:.1"/>
   <g transform="matrix(.75 0 0 .75 149.96514 50.605403)">
    <path d="m83.94727 210.05273-49.94727 49.94727c-4 6-2 12-8 18l6 6c6-6 14.110913-3.93414 18-8l49.94727-49.94727z" style="fill:#ffffff;opacity:.6"/>
    <path d="m38 262 46-46" style="fill:none;opacity:.6;stroke-linecap:round;stroke-width:8;stroke:#ffffff"/>
    <path d="m38 258.8839 46-46" style="fill:none;opacity:.6;stroke-linecap:round;stroke-width:4;stroke:#ffffff"/>
    <path d="m112.08327 185.33317c-3.35967 4e-3 -6.57806 1.35205-8.93704 3.74423l-6e-3 -6e-3 -12.930918 12.93088-8.082889-8.0829c-1.885613-1.88562-3.771233 1e-5 -3.771233 1e-5l-5.984226 5.98421s-1.885618 1.88561-5e-6 3.77123l33.941151 33.94112c1.88562 1.88562 3.77124 1e-5 3.77124 1e-5l5.98422-5.98422c1.88562-1.88562 0-3.77124 0-3.77124l-8.08262-8.08261 12.93083-12.93083-2e-3 -2e-3c2.39188-2.36049 3.73885-5.58046 3.74034-8.94095 0-6.94266-5.62813-12.57079-12.57078-12.57078z" style="fill-rule:evenodd;fill:url(#linearGradient978)"/>
   </g>
  </g>
  <path transform="matrix(.5 0 0 .5 -18.432 166.43199)" d="M 361.9375,-212 C 507.2348,-212 528,-191.28677 528,-46.125 V 70.125 C 528,215.28618 507.2348,236 361.9375,236 H 214.0625 C 68.7652,236 48,215.28618 48,70.125 V -46.125 C 48,-191.28677 68.7652,-212 214.0625,-212 Z" clip-path="url(#clipPath1082-3)" style="fill:none;opacity:.4;stroke-linecap:round;stroke-linejoin:round;stroke-width:8;stroke:url(#linearGradient1108)"/>
 </g>
</svg>
