<svg xmlns="http://www.w3.org/2000/svg" xmlns:xlink="http://www.w3.org/1999/xlink" width="256" height="256" version="1.1" viewBox="0 0 67.73 67.73">
 <defs>
  <linearGradient id="linearGradient3650-7-9">
   <stop style="stop-color:#5884f4" offset="0"/>
   <stop offset="1" style="stop-color:#80a3fa"/>
  </linearGradient>
  <linearGradient id="linearGradient1108" x1="296" x2="296" y1="-212" y2="236" gradientUnits="userSpaceOnUse" xlink:href="#linearGradient1013"/>
  <linearGradient id="linearGradient1013">
   <stop offset="0" style="stop-color:#ffffff"/>
   <stop style="stop-color:#ffffff;stop-opacity:0.09803922" offset=".125"/>
   <stop style="stop-color:#000000;stop-opacity:0.09803922" offset=".925"/>
   <stop offset="1" style="stop-color:#000000;stop-opacity:0.49803922"/>
  </linearGradient>
  <clipPath id="clipPath1082-3-361" clipPathUnits="userSpaceOnUse">
   <path d="M 361.9375,-212 C 507.2348,-212 528,-191.28677 528,-46.125 V 70.125 C 528,215.28618 507.2348,236 361.9375,236 H 214.0625 C 68.7652,236 48,215.28618 48,70.125 V -46.125 C 48,-191.28677 68.7652,-212 214.0625,-212 Z" style="fill:#8c59d9"/>
  </clipPath>
  <linearGradient id="linearGradient1044" x1="88" x2="256" y1="28" y2="284" gradientTransform="matrix(0.26970781,0,0,0.26970781,-7.1289179,220.5605)" gradientUnits="userSpaceOnUse" xlink:href="#linearGradient3650-7-9"/>
  <filter style="color-interpolation-filters:sRGB" id="filter4569" width="1.023" height="1.025" x="-.01" y="-.01">
   <feGaussianBlur stdDeviation="1.16"/>
  </filter>
  <filter style="color-interpolation-filters:sRGB" id="filter939" width="1.046" height="1.05" x="-.02" y="-.03">
   <feGaussianBlur stdDeviation="2.32"/>
  </filter>
  <filter style="color-interpolation-filters:sRGB" id="filter908" width="1.096" height="1.096" x="-.05" y="-.05">
   <feGaussianBlur stdDeviation=".677"/>
  </filter>
 </defs>
 <g transform="translate(0,-229.26666)">
  <path style="opacity:0.2;filter:url(#filter939)" d="m 162.53675,5.5680001 c 72.64865,0 83.03125,10.3566149 83.03125,82.9375049 v 58.125005 c 0,72.58059 -10.3826,82.9375 -83.03125,82.9375 H 88.599254 C 15.9506,229.56801 5.568,219.2111 5.568,146.63051 V 88.505505 c 0,-72.58089 10.3826,-82.9375049 83.031254,-82.9375049 z" transform="matrix(0.26970779,0,0,0.26970779,-1.9098094e-8,231.46531)"/>
  <path d="m 43.837429,232.42763 c 19.593907,0 22.394176,2.79326 22.394176,22.36889 v 15.67677 c 0,19.57555 -2.800269,22.36889 -22.394176,22.36889 H 23.89591 c -19.5939088,0 -22.394177,-2.79334 -22.394177,-22.36889 v -15.67677 c 0,-19.57563 2.8002682,-22.36889 22.394177,-22.36889 z" style="opacity:0.1;fill:none;stroke:#000000;stroke-width:1.07883108;stroke-linecap:round;stroke-linejoin:round"/>
  <path d="m 162.53675,3.5680001 c 72.64865,0 83.03125,10.3566149 83.03125,82.9375049 v 58.125005 c 0,72.58059 -10.3826,82.9375 -83.03125,82.9375 H 88.599254 C 15.9506,227.56801 5.568,217.2111 5.568,144.63051 V 86.505505 c 0,-72.58089 10.3826,-82.9375049 83.031254,-82.9375049 z" transform="matrix(0.26970779,0,0,0.26970779,-1.9098094e-8,231.46531)" style="opacity:0.1;filter:url(#filter4569)"/>
  <path style="fill:url(#linearGradient1044)" d="m 43.837427,232.42763 c 19.593907,0 22.394175,2.79326 22.394175,22.36889 v 15.67677 c 0,19.57555 -2.800268,22.36889 -22.394175,22.36889 h -19.94152 c -19.5939074,0 -22.3941756,-2.79334 -22.3941756,-22.36889 v -15.67677 c 0,-19.57563 2.8002682,-22.36889 22.3941756,-22.36889 z"/>
  <path d="M 361.9375,-212 C 507.2348,-212 528,-191.28677 528,-46.125 V 70.125 C 528,215.28618 507.2348,236 361.9375,236 H 214.0625 C 68.7652,236 48,215.28618 48,70.125 V -46.125 C 48,-191.28677 68.7652,-212 214.0625,-212 Z" clip-path="url(#clipPath1082-3-361)" transform="matrix(0.1348539,0,0,0.1348539,-4.9712559,261.01666)" style="opacity:0.4;fill:none;stroke:url(#linearGradient1108);stroke-width:8;stroke-linecap:round;stroke-linejoin:round"/>
  <path d="m 30.445072,279.84101 c -0.73701,-0.41793 -0.917318,-0.74909 -0.921989,-1.69335 -0.0058,-1.17836 0.732402,-1.70604 2.734096,-1.95428 1.847747,-0.22915 2.102988,-0.32635 3.016539,-1.14877 l 0.595312,-0.53593 v -11.1398 c 0,-9.87062 -0.04915,-11.20998 -0.431453,-11.75578 -0.574223,-0.81982 -1.922,-1.35384 -3.416858,-1.35384 -1.001541,0 -1.360988,-0.14151 -2.01131,-0.79184 -0.603321,-0.60332 -0.748501,-0.93402 -0.609812,-1.38906 0.257292,-0.84418 0.846529,-1.44917 1.594205,-1.63683 1.033558,-0.25941 4.089757,0.34962 5.438688,1.0838 l 1.244909,0.67757 1.427261,-0.6983 c 1.589066,-0.77745 4.390427,-1.32454 5.516211,-1.07728 0.788985,0.17329 1.56691,1.12684 1.56691,1.92065 0,0.26873 -0.232876,0.73855 -0.517501,1.04406 -0.52165,0.55993 -0.971913,0.69858 -3.23419,0.99592 -0.680982,0.0895 -1.544185,0.40346 -1.918229,0.69768 -0.621325,0.48873 -0.680081,0.70473 -0.680081,2.50012 v 1.96517 h 3.420685 c 2.756935,0 3.501361,0.0807 3.836458,0.41578 0.623943,0.62394 0.623943,13.89034 0,14.51428 -0.335235,0.33524 -1.080534,0.41578 -3.847586,0.41578 h -3.431813 l 0.07727,2.02311 c 0.06904,1.80743 0.14819,2.07593 0.742485,2.51862 0.365865,0.27252 1.318365,0.56255 2.116666,0.64449 2.029309,0.20831 2.812188,0.56151 3.172463,1.43129 0.425527,1.02731 -0.117631,2.13474 -1.191839,2.43 -1.140119,0.31338 -4.17789,-0.21222 -5.708042,-0.9876 l -1.303417,-0.66049 -1.293308,0.65537 c -0.711321,0.36045 -2.050774,0.77827 -2.976562,0.9285 -2.085843,0.33845 -2.346444,0.33507 -3.006172,-0.039 z m 14.419792,-16.61717 v -5.29167 H 42.351323 39.83778 v 5.29167 5.29167 h 2.513543 2.513541 z m -30.805059,7.25714 c -0.623943,-0.62394 -0.623943,-13.89034 0,-14.51428 0.362328,-0.36233 1.620716,-0.41578 9.789583,-0.41578 h 9.373809 v 1.19063 1.19062 H 24.75653 16.289864 v 5.29167 5.29167 h 8.466666 8.466667 v 1.19062 1.19063 h -9.373809 c -8.168867,0 -9.427255,-0.0534 -9.789583,-0.41578 z m 4.875892,-7.25714 v -2.64583 h 5.820833 5.820833 v 2.64583 2.64583 H 24.75653 18.935697 Z" transform="matrix(1.0193681,0,0,1.0193681,0,-5.7113166)" style="opacity:0.4;filter:url(#filter908)"/>
  <path style="fill:#ffffff" d="m 31.034734,279.54967 c -0.751285,-0.42602 -0.935085,-0.7636 -0.939846,-1.72615 -0.0059,-1.20118 0.746587,-1.73908 2.78705,-1.99213 1.883534,-0.23359 2.143719,-0.33267 3.074963,-1.17102 l 0.606842,-0.54631 v -11.35555 c 0,-10.0618 -0.0501,-11.4271 -0.439809,-11.98347 -0.585345,-0.8357 -1.959225,-1.38006 -3.483036,-1.38006 -1.020939,0 -1.387348,-0.14425 -2.050265,-0.80718 -0.615006,-0.615 -0.762998,-0.95211 -0.621623,-1.41596 0.262275,-0.86053 0.862925,-1.47724 1.625082,-1.66853 1.053576,-0.26444 4.168967,0.35639 5.544024,1.10479 l 1.269021,0.69069 1.454904,-0.71182 c 1.619843,-0.79251 4.475461,-1.3502 5.623049,-1.09815 0.804267,0.17665 1.597258,1.14867 1.597258,1.95785 0,0.27394 -0.237386,0.75285 -0.527524,1.06428 -0.531753,0.57078 -0.990737,0.71211 -3.296829,1.01521 -0.694172,0.0912 -1.574093,0.41128 -1.955382,0.71119 -0.633359,0.4982 -0.693253,0.71838 -0.693253,2.54855 v 2.00323 h 3.486937 c 2.810332,0 3.569176,0.0823 3.910763,0.42383 0.636028,0.63603 0.636028,14.15937 0,14.79539 -0.341728,0.34174 -1.101462,0.42384 -3.922106,0.42384 h -3.498281 l 0.07877,2.06229 c 0.07038,1.84244 0.15106,2.11614 0.756865,2.5674 0.372951,0.2778 1.343899,0.57345 2.157662,0.65697 2.068613,0.21235 2.866655,0.57239 3.233907,1.45902 0.433769,1.0472 -0.119909,2.17608 -1.214922,2.47706 -1.162201,0.31945 -4.258808,-0.21633 -5.818596,-1.00673 l -1.328661,-0.67328 -1.318357,0.66806 c -0.725098,0.36743 -2.090494,0.79335 -3.034213,0.94649 -2.126241,0.345 -2.39189,0.34156 -3.064395,-0.0398 z M 45.733809,262.61066 V 257.2165 H 43.171586 40.60936 v 5.39416 5.39416 h 2.562226 2.562223 z m -31.401693,7.39769 c -0.636027,-0.63602 -0.636027,-14.15936 0,-14.79539 0.369346,-0.36935 1.652106,-0.42383 9.979188,-0.42383 h 9.555362 v 1.21369 1.21368 h -8.63065 -8.630649 v 5.39416 5.39416 h 8.630649 8.63065 v 1.21368 1.21369 h -9.555362 c -8.327082,0 -9.609842,-0.0544 -9.979188,-0.42384 z m 4.970329,-7.39769 v -2.69708 h 5.933571 5.933571 v 2.69708 2.69707 h -5.933571 -5.933571 z"/>
  <path style="opacity:0.1;fill:#ffffff" d="m 23.895907,292.84218 c -19.5939074,0 -22.3941756,-2.79326 -22.3941756,-22.36889 v -7.83838 H 66.231602 v 7.83838 c 0,19.57563 -2.800268,22.36889 -22.394175,22.36889 z"/>
  <path style="opacity:0.1;fill:#ffffff" d="m 33.866666,232.42763 v 60.41455 h 9.970761 c 19.593907,0 22.394175,-2.79334 22.394175,-22.36889 v -15.67677 c 0,-19.57563 -2.800268,-22.36889 -22.394175,-22.36889 z"/>
 </g>
</svg>
