<svg width="256" height="256" version="1.1" viewBox="0 0 67.73 67.73" xmlns="http://www.w3.org/2000/svg" xmlns:xlink="http://www.w3.org/1999/xlink">
 <defs>
  <linearGradient id="linearGradient1108" x1="296" x2="296" y1="-212" y2="202.4" gradientTransform="translate(-2e-6,-2e-6)" gradientUnits="userSpaceOnUse">
   <stop style="stop-color:#ffffff" offset="0"/>
   <stop style="stop-color:#ffffff;stop-opacity:.09803922" offset=".135"/>
   <stop style="stop-color:#000000;stop-opacity:0" offset="1"/>
  </linearGradient>
  <clipPath id="clipPath1082-3-92">
   <path d="M 361.9375,-212 C 507.2348,-212 528,-191.28677 528,-46.125 V 70.125 C 528,215.28618 507.2348,236 361.9375,236 H 214.0625 C 68.7652,236 48,215.28618 48,70.125 V -46.125 C 48,-191.28677 68.7652,-212 214.0625,-212 Z" style="fill:#8c59d9"/>
  </clipPath>
  <filter id="filter920" x="-.02" y="-.03" width="1.046" height="1.05" style="color-interpolation-filters:sRGB">
   <feGaussianBlur stdDeviation="2.32"/>
  </filter>
  <filter id="filter4569" x="-.01" y="-.01" width="1.023" height="1.025" style="color-interpolation-filters:sRGB">
   <feGaussianBlur stdDeviation="1.16"/>
  </filter>
  <linearGradient id="linearGradient3149" x1="76.523" x2="76.523" y1="-9.023" y2="3.451" gradientTransform="matrix(.41569087 0 0 -.41620002 6.1585008 263.84664)" gradientUnits="userSpaceOnUse">
   <stop style="stop-color:#000000" offset="0"/>
   <stop style="stop-color:#000000;stop-opacity:0" offset="1"/>
  </linearGradient>
  <radialGradient id="radialGradient958" cx="33.867" cy="262.635" r="32.365" gradientTransform="matrix(1 0 0 .93333341 0 17.508974)" gradientUnits="userSpaceOnUse">
   <stop style="stop-color:#c3ff75" offset="0"/>
   <stop style="stop-color:#65d300" offset=".262"/>
   <stop style="stop-color:#51b500" offset=".705"/>
   <stop style="stop-color:#539400" offset="1"/>
  </radialGradient>
 </defs>
 <g transform="translate(0,-229.26666)">
  <path transform="matrix(.26970778 0 0 .26970778 -7.1289177 220.56049)" d="m188.96876 43.999995c72.64865 0 83.03125 10.356615 83.03125 82.937505v58.125c0 72.58059-10.3826 82.9375-83.03125 82.9375h-73.9375c-72.648654 0-83.031254-10.35691-83.031254-82.9375v-58.125c0-72.58089 10.3826-82.937505 83.031254-82.937505z" style="filter:url(#filter4569);opacity:.1"/>
  <path transform="matrix(.26970778 0 0 .26970778 -7.1289177 220.56049)" d="m188.96876 45.999995c72.64865 0 83.03125 10.356615 83.03125 82.937505v58.125c0 72.58059-10.3826 82.9375-83.03125 82.9375h-73.9375c-72.648654 0-83.031254-10.35691-83.031254-82.9375v-58.125c0-72.58089 10.3826-82.937505 83.031254-82.937505z" style="filter:url(#filter920);opacity:.2"/>
  <path d="m43.837442 232.42763c19.593904 0 22.394169 2.79326 22.394172 22.36889v15.67677c0 19.57555-2.800271 22.36889-22.394172 22.36889h-19.941525c-19.593904 0-22.394173-2.79334-22.394173-22.36889l5e-7 -15.67677c8e-7 -19.57563 2.8002679-22.36889 22.394174-22.36889z" style="fill:url(#radialGradient958)"/>
  <path transform="matrix(.13485389 0 0 .13485389 -4.9712557 261.01666)" d="M 361.9375,-212 C 507.2348,-212 528,-191.28677 528,-46.125 V 70.125 C 528,215.28618 507.2348,236 361.9375,236 H 214.0625 C 68.7652,236 48,215.28618 48,70.125 V -46.125 C 48,-191.28677 68.7652,-212 214.0625,-212 Z" clip-path="url(#clipPath1082-3-92)" style="fill:none;opacity:.4;stroke-linecap:round;stroke-linejoin:round;stroke-width:8;stroke:url(#linearGradient1108)"/>
  <g transform="translate(1.1029841 -.1878276)">
   <path d="m30.906964 250.05775c-0.334146 0-0.612604 1.29059-0.776056 3.13503a10.211987 10.211987 0 0 0-2.467773 1.03716c-1.425548-1.19476-2.539104-1.91595-2.776023-1.67902l-2.62734 2.62733c-0.236917 0.23692 0.484281 1.35048 1.679033 2.77602a10.211987 10.211987 0 0 0-1.028087 2.46777c-1.849609 0.16334-3.144103 0.44135-3.144103 0.77606v3.71345c0 0.33414 1.290594 0.6126 3.135038 0.77605a10.211987 10.211987 0 0 0 1.033526 2.47321c-1.192035 1.423-1.912037 2.53395-1.675407 2.7706l2.62734 2.62733c0.236412 0.23642 1.345968-0.48187 2.766958-1.67179a10.211987 10.211987 0 0 0 2.476838 1.02085c0.163298 1.84961 0.441347 3.1441 0.776056 3.1441h3.713448c0.334146 0 0.612604-1.2906 0.776056-3.13503a10.211987 10.211987 0 0 0 2.467774-1.03716c1.425545 1.19475 2.539103 1.91594 2.77602 1.67903l2.62734-2.62733c0.236919-0.23693-0.484279-1.35047-1.679031-2.77604a10.211987 10.211987 0 0 0 1.028087-2.46777c1.849609-0.16333 3.144103-0.44135 3.144103-0.77605v-3.71345c0-0.33414-1.290594-0.6126-3.135038-0.77606a10.211987 10.211987 0 0 0-1.033526-2.47321c1.192035-1.42298 1.912037-2.53394 1.675405-2.77058l-2.62734-2.62733c-0.236412-0.23642-1.345966 0.48186-2.766955 1.67177a10.211987 10.211987 0 0 0-2.476839-1.02084c-0.163298-1.8496-0.441349-3.1441-0.776056-3.1441zm1.856724 8.35526a4.641812 4.641812 0 0 1 4.641812 4.64182 4.641812 4.641812 0 0 1-4.641812 4.64181 4.641812 4.641812 0 0 1-4.641811-4.64181 4.641812 4.641812 0 0 1 4.641811-4.64182z" style="fill:#ffffff;opacity:.1"/>
   <path d="m30.906964 249.59357c-0.334146 0-0.612604 1.2906-0.776056 3.13504a10.211987 10.211987 0 0 0-2.467773 1.03715c-1.425548-1.19475-2.539104-1.91594-2.776023-1.67903l-2.62734 2.62735c-0.236917 0.23691 0.484281 1.35047 1.679033 2.77602a10.211987 10.211987 0 0 0-1.028087 2.46777c-1.849609 0.16333-3.144103 0.44135-3.144103 0.77605v3.71346c0 0.33414 1.290594 0.61259 3.135038 0.77605a10.211987 10.211987 0 0 0 1.033526 2.47321c-1.192035 1.423-1.912037 2.53395-1.675407 2.77059l2.62734 2.62732c0.236412 0.23642 1.345968-0.48186 2.766958-1.67177a10.211987 10.211987 0 0 0 2.476838 1.02084c0.163298 1.84961 0.441347 3.1441 0.776056 3.1441h3.713448c0.334146 0 0.612604-1.29059 0.776056-3.13503a10.211987 10.211987 0 0 0 2.467774-1.03716c1.425545 1.19476 2.539103 1.91595 2.77602 1.67902l2.62734-2.62732c0.236919-0.23693-0.484279-1.35049-1.679031-2.77603a10.211987 10.211987 0 0 0 1.028087-2.46777c1.849609-0.16334 3.144103-0.44135 3.144103-0.77605v-3.71346c0-0.33414-1.290594-0.6126-3.135038-0.77605a10.211987 10.211987 0 0 0-1.033526-2.47321c1.192035-1.423 1.912037-2.53395 1.675405-2.77058l-2.62734-2.62735c-0.236412-0.2364-1.345966 0.48188-2.766955 1.67179a10.211987 10.211987 0 0 0-2.476839-1.02084c-0.163298-1.84962-0.441349-3.14411-0.776056-3.14411zm1.856724 8.35526a4.641812 4.641812 0 0 1 4.641812 4.64181 4.641812 4.641812 0 0 1-4.641812 4.64182 4.641812 4.641812 0 0 1-4.641811-4.64182 4.641812 4.641812 0 0 1 4.641811-4.64181z" style="fill:#ecffd3"/>
   <path d="m30.945039 249.82566c-0.01263 0.014-0.03653 0.0437-0.06437 0.0988-0.06065 0.12018-0.130474 0.32628-0.194014 0.59291-0.12707 0.53328-0.237977 1.3109-0.319125 2.22663-0.0091 0.0996-0.07921 0.18328-0.175884 0.20943-0.843551 0.23021-1.655915 0.57296-2.410659 1.01449-0.08712 0.0505-0.196586 0.0411-0.273793-0.0235-0.707838-0.59323-1.33804-1.06788-1.806863-1.35718-0.23441-0.14473-0.430945-0.24307-0.559375-0.28558-0.05867-0.0195-0.097-0.0237-0.116053-0.0246l-2.573847 2.57477c9.28e-4 0.0191 0.0051 0.0574 0.02446 0.11597 0.04253 0.12842 0.140018 0.32496 0.284674 0.55937 0.289305 0.46884 0.763949 1.09903 1.357187 1.80687 0.06428 0.077 0.07369 0.18597 0.02358 0.27288-0.438447 0.75521-0.777096 1.56844-1.004517 2.41156-0.02626 0.097-0.110263 0.16719-0.210333 0.1759-0.918351 0.081-1.69804 0.19208-2.232968 0.31912-0.26746 0.0635-0.474169 0.13228-0.594732 0.1931-0.05514 0.0277-0.08572 0.0516-0.09972 0.0644v3.63819c0.01386 0.0123 0.04372 0.0365 0.09882 0.0644 0.120106 0.0607 0.326283 0.13052 0.592918 0.19402 0.533274 0.12701 1.310889 0.23798 2.226621 0.31912 0.10007 9e-3 0.18408 0.079 0.210329 0.17589 0.228662 0.84521 0.569246 1.65949 1.009962 2.41609 0.05054 0.0872 0.04112 0.1966-0.02358 0.27381-0.5919 0.70658-1.064855 1.3354-1.353561 1.80323-0.144351 0.23391-0.242276 0.43038-0.284674 0.55847-0.01935 0.0584-0.02358 0.0961-0.02446 0.11509l2.573847 2.57475c0.01889-8.9e-4 0.05675-5e-3 0.11514-0.0246 0.127877-0.0423 0.323975-0.1407 0.557561-0.28467 0.467176-0.28803 1.094953-0.76 1.800518-1.35084 0.07682-0.0646 0.185787-0.0744 0.272887-0.0244 0.758337 0.4367 1.573909 0.77371 2.419724 0.99817 0.09732 0.026 0.167983 0.11 0.17679 0.21033 0.08107 0.91835 0.192086 1.69804 0.319124 2.23297 0.06353 0.26745 0.132386 0.47417 0.193104 0.59473 0.02775 0.0551 0.05158 0.0856 0.06437 0.0996h3.638201c0.01281-0.014 0.03653-0.0437 0.06437-0.0988 0.06065-0.12017 0.130473-0.32628 0.194014-0.59291 0.12707-0.53328 0.237972-1.31089 0.319124-2.22663 0.0091-0.0996 0.07921-0.18328 0.175879-0.20942 0.843551-0.23021 1.655916-0.57297 2.41066-1.01449 0.08712-0.0505 0.196585-0.0411 0.273798 0.0235 0.707835 0.59324 1.338035 1.06787 1.806857 1.35717 0.234416 0.14474 0.430946 0.24307 0.559376 0.2856 0.05867 0.0195 0.097 0.0235 0.116052 0.0246l2.573847-2.57476c-9.28e-4 -0.0191-0.0051-0.0574-0.02446-0.11596-0.04253-0.12842-0.140017-0.32497-0.284674-0.55937-0.289305-0.46882-0.763945-1.09903-1.357182-1.80686-0.06428-0.077-0.07368-0.18598-0.02358-0.27289 0.438448-0.75521 0.777095-1.56844 1.004516-2.41156 0.02628-0.097 0.110263-0.1672 0.21033-0.1759 0.91835-0.0811 1.69804-0.19209 2.232968-0.31912 0.267461-0.0635 0.474175-0.13228 0.594731-0.19311 0.05514-0.0277 0.08572-0.0516 0.09972-0.0644v-3.63819c-0.01386-0.0123-0.04372-0.0365-0.09882-0.0644-0.120105-0.0607-0.326282-0.13053-0.592917-0.19402-0.533271-0.12702-1.31089-0.23798-2.226621-0.31912-0.10007-9e-3 -0.184077-0.0789-0.21033-0.17588-0.228661-0.84521-0.569244-1.65951-1.009956-2.4161-0.05054-0.0872-0.04112-0.19658 0.02358-0.27379 0.591902-0.7066 1.064851-1.33542 1.353558-1.80325 0.144351-0.23391 0.242275-0.43037 0.284673-0.55847 0.01935-0.0584 0.02358-0.0961 0.02446-0.11509l-2.573847-2.57477c-0.01889 8.9e-4 -0.05675 5e-3 -0.11514 0.0244-0.127877 0.0423-0.32397 0.1407-0.557561 0.28468-0.467176 0.28803-1.094947 0.76002-1.800512 1.35084-0.07684 0.0646-0.185793 0.0744-0.272888 0.0246-0.758342-0.4367-1.573914-0.77372-2.419726-0.99817-0.09732-0.026-0.167982-0.11-0.176787-0.21034-0.08109-0.91835-0.192088-1.69803-0.319125-2.23296-0.06353-0.26746-0.132386-0.47418-0.193109-0.59472-0.02775-0.0551-0.05158-0.0858-0.06437-0.0996z" style="fill:#ffffff;opacity:.05;stroke-width:.46418118;stroke:#1b0e00"/>
   <path d="m32.762713 267.46238c2.871254 0.0917 5.330044-2.77634 4.80235-5.60457-0.343007-2.75692-3.348028-4.74513-6.015738-3.97082-2.703182 0.61704-4.38109 3.80207-3.349922 6.38261 0.66487 1.88095 2.567675 3.22076 4.56331 3.19278z" style="fill:none;opacity:.05;stroke-width:.46418118;stroke:url(#linearGradient3149)"/>
  </g>
  <path d="m2.1148954 243.82542c-0.4622048 2.89126-0.6131636 6.48639-0.6131639 10.9711v15.67677c0 19.57554 2.8002707 22.36888 22.394174 22.36888h19.94152c14.587924 0 19.86448-1.55409 21.60981-10.42378z" style="fill:#ffffff;opacity:.05"/>
 </g>
</svg>
