<svg width="256" height="256" version="1.1" viewBox="0 0 67.73 67.73" xmlns="http://www.w3.org/2000/svg" xmlns:xlink="http://www.w3.org/1999/xlink">
 <defs>
  <linearGradient id="linearGradient1108" x1="296" x2="296" y1="-212" y2="236" gradientUnits="userSpaceOnUse">
   <stop style="stop-color:#ffffff" offset="0"/>
   <stop style="stop-color:#ffffff;stop-opacity:.09803922" offset=".125"/>
   <stop style="stop-color:#000000;stop-opacity:.09803922" offset=".925"/>
   <stop style="stop-color:#000000;stop-opacity:.49803922" offset="1"/>
  </linearGradient>
  <clipPath id="clipPath1082-3-53">
   <path d="M 361.9375,-212 C 507.2348,-212 528,-191.28677 528,-46.125 V 70.125 C 528,215.28618 507.2348,236 361.9375,236 H 214.0625 C 68.7652,236 48,215.28618 48,70.125 V -46.125 C 48,-191.28677 68.7652,-212 214.0625,-212 Z" style="fill:#8c59d9"/>
  </clipPath>
  <linearGradient id="linearGradient878" x1="32" x2="272" y1="156" y2="156" gradientTransform="matrix(.13485389 .23357379 -.23357379 .13485389 49.806383 206.09448)" gradientUnits="userSpaceOnUse">
   <stop style="stop-color:#97313d" offset="0"/>
   <stop style="stop-color:#ad3743" offset="1"/>
  </linearGradient>
  <filter id="filter4569" x="-.01" y="-.01" width="1.023" height="1.025" style="color-interpolation-filters:sRGB">
   <feGaussianBlur stdDeviation="1.16"/>
  </filter>
  <filter id="filter958" x="-.02" y="-.03" width="1.046" height="1.05" style="color-interpolation-filters:sRGB">
   <feGaussianBlur stdDeviation="2.32"/>
  </filter>
  <filter id="filter1491" x="-.04" y="-.04" width="1.07" height="1.074" style="color-interpolation-filters:sRGB">
   <feGaussianBlur stdDeviation=".619"/>
  </filter>
  <linearGradient id="linearGradient4216" x1="56" x2="56" y1="288" y2="83.578" gradientTransform="matrix(0 .11306981 -.11306981 0 66.430766 230.0708)" gradientUnits="userSpaceOnUse" spreadMethod="reflect">
   <stop style="stop-color:#f87eaf" offset="0"/>
   <stop style="stop-color:#f87eaf" offset=".646"/>
   <stop style="stop-color:#f87eaf" offset="1"/>
  </linearGradient>
 </defs>
 <g transform="translate(0,-229.26666)">
  <path transform="matrix(.26970778 0 0 .26970778 -7.1289177 220.56049)" d="m188.96876 45.999995c72.64865 0 83.03125 10.356615 83.03125 82.937505v58.125c0 72.58059-10.3826 82.9375-83.03125 82.9375h-73.9375c-72.648654 0-83.031254-10.35691-83.031254-82.9375v-58.125c0-72.58089 10.3826-82.937505 83.031254-82.937505z" style="filter:url(#filter958);opacity:.2"/>
  <path transform="matrix(.26970778 0 0 .26970778 -7.1289177 220.56049)" d="m188.96876 43.999995c72.64865 0 83.03125 10.356615 83.03125 82.937505v58.125c0 72.58059-10.3826 82.9375-83.03125 82.9375h-73.9375c-72.648654 0-83.031254-10.35691-83.031254-82.9375v-58.125c0-72.58089 10.3826-82.937505 83.031254-82.937505z" style="filter:url(#filter4569);opacity:.1"/>
  <path d="m43.837418 232.42763c19.593907 0 22.394178 2.79326 22.394178 22.36889v15.67677c-3e-6 19.57555-2.800271 22.36889-22.394178 22.36889h-19.94152c-19.593904 0-22.394172-2.79334-22.394172-22.36889l-1e-6 -15.67677c1e-6 -19.57563 2.8002695-22.36889 22.394176-22.36889z" style="fill:url(#linearGradient878)"/>
  <path transform="matrix(.13485389 0 0 .13485389 -4.9712547 261.01666)" d="M 361.9375,-212 C 507.2348,-212 528,-191.28677 528,-46.125 V 70.125 C 528,215.28618 507.2348,236 361.9375,236 H 214.0625 C 68.7652,236 48,215.28618 48,70.125 V -46.125 C 48,-191.28677 68.7652,-212 214.0625,-212 Z" clip-path="url(#clipPath1082-3-53)" style="fill:none;opacity:.4;stroke-linecap:round;stroke-linejoin:round;stroke-width:8;stroke:url(#linearGradient1108)"/>
  <path d="m23.496587 244.34727c-12.247451 5.42784-14.613433 19.62376-4.314443 26.30418 4.592795 3.06187 4.592795 4.5928 0.139175 5.7062-8.768059 2.22682 0.556702 6.40207 14.335083 6.40207 9.742292 0 17.814474-2.2268 18.927876-5.1495 0.417531-0.97422 0-1.80927-0.974227-1.80927-4.871145-0.13926-5.288672-2.50515-1.113405-6.68043 8.350538-8.21135 4.731973-20.73715-7.23713-25.19078-5.28867-2.08762-14.613435-1.80927-19.762929 0.41753zm24.4949 4.45363c8.072184 4.03607 7.237132 16.97939-1.113406 20.18045-8.350532 3.20101-13.778379-1.25258-13.082502-10.57736l0.27835-4.17524-4.175266 4.87112c-3.757742 4.5928-4.175266 4.73197-7.654657 2.92271-4.871145-2.64436-4.592792-5.1495 1.252581-10.71653 6.680427-6.2629 15.448487-7.23714 24.4949-2.50515zm0.139175 30.34027c-3.618566 2.08762-23.381496 2.92267-24.4949 0.97422-0.695879-1.1134 1.670106-1.53092 7.793832-1.53092 5.288672-0.13925 9.742289-0.83507 11.412398-2.08765 1.948456-1.53092 3.061862-1.53092 5.149495-0.27835 2.365984 1.53093 2.365984 1.6701 0.139175 2.9227z" style="filter:url(#filter1491);opacity:.4"/>
  <path d="m23.496587 244.34727c-12.247451 5.42784-14.613433 19.62376-4.314443 26.30418 4.592795 3.06187 4.592795 4.5928 0.139175 5.7062-8.768059 2.22682 0.556702 6.40207 14.335083 6.40207 9.742292 0 17.814474-2.2268 18.927876-5.1495 0.417531-0.97422 0-1.80927-0.974227-1.80927-4.871145-0.13926-5.288672-2.50515-1.113405-6.68043 8.350538-8.21135 4.731973-20.73715-7.23713-25.19078-5.28867-2.08762-14.613435-1.80927-19.762929 0.41753zm24.4949 4.45363c8.072184 4.03607 7.237132 16.97939-1.113406 20.18045-8.350532 3.20101-13.778379-1.25258-13.082502-10.57736l0.27835-4.17524-4.175266 4.87112c-3.757742 4.5928-4.175266 4.73197-7.654657 2.92271-4.871145-2.64436-4.592792-5.1495 1.252581-10.71653 6.680427-6.2629 15.448487-7.23714 24.4949-2.50515zm0.139175 30.34027c-3.618566 2.08762-23.381496 2.92267-24.4949 0.97422-0.695879-1.1134 1.670106-1.53092 7.793832-1.53092 5.288672-0.13925 9.742289-0.83507 11.412398-2.08765 1.948456-1.53092 3.061862-1.53092 5.149495-0.27835 2.365984 1.53093 2.365984 1.6701 0.139175 2.9227z" style="fill:#ffffff"/>
  <path d="m66.231599 262.63491v-7.83839c0-19.57555-2.80027-22.36888-22.39417-22.36888h-9.97076v30.20727z" style="fill:#ffffff;opacity:.1"/>
  <path d="m1.501732 262.63491v7.83839c0 19.57555 2.80027 22.36888 22.39417 22.36888h9.97076v-30.20727z" style="fill:#ffffff;opacity:.1"/>
  <path d="m57.837466 237.21938c-0.26275-0.29517-0.547833-0.5668-0.856862-0.81667h-1.856814v4.52279h2.713676zm0 47.12493h-2.713676v4.52279h1.856814c0.309029-0.24987 0.594112-0.5215 0.856862-0.81666zm-4.522793-47.9416h-2.713678v4.52279h2.713678zm0 47.9416h-2.713678v4.52279h2.713678zm-4.522793-47.9416h-2.713675v4.52279h2.713675zm0 47.9416h-2.713675v4.52279h2.713675zm-4.522798-47.9416h-2.713675v4.52279h2.713675zm0 47.9416h-2.713675v4.52279h2.713675zm-4.522793-47.9416h-2.713675v4.52279h2.713675zm0 47.9416h-2.713675v4.52279h2.713675zm-4.522793-47.9416h-2.713675v4.52279h2.713675zm0 47.9416h-2.713675v4.52279h2.713675zm-4.522793-47.9416h-2.713674v4.52279h2.713674zm0 47.9416h-2.713674v4.52279h2.713674zm-4.522791-47.9416h-2.713676v4.52279h2.713676zm0 47.9416h-2.713676v4.52279h2.713676zm-4.522787-47.9416h-2.713675v4.52279h2.713675zm0 47.9416h-2.713675v4.52279h2.713675zm-4.522792-47.9416h-2.713675v4.52279h2.713675zm0 47.9416h-2.713675v4.52279h2.713675zm-4.522792-47.9416h-1.856821c-0.309034 0.24987-0.594111 0.5215-0.8568549 0.81667v3.70612h2.7136759zm0 47.9416h-2.7136759v3.70613c0.2627439 0.29516 0.5478269 0.56679 0.8568549 0.81666h1.856821z" style="fill:url(#linearGradient4216);opacity:.3"/>
 </g>
</svg>
