<svg width="256" height="256" version="1.1" viewBox="0 0 67.73 67.73" xmlns="http://www.w3.org/2000/svg" xmlns:xlink="http://www.w3.org/1999/xlink">
 <defs>
  <linearGradient id="linearGradient1108" x1="296" x2="296" y1="-212" y2="236" gradientUnits="userSpaceOnUse">
   <stop style="stop-color:#ffffff" offset="0"/>
   <stop style="stop-color:#ffffff;stop-opacity:.09803922" offset=".125"/>
   <stop style="stop-color:#000000;stop-opacity:.09803922" offset=".925"/>
   <stop style="stop-color:#000000;stop-opacity:.49803922" offset="1"/>
  </linearGradient>
  <clipPath id="clipPath1082-3-367">
   <path d="M 361.9375,-212 C 507.2348,-212 528,-191.28677 528,-46.125 V 70.125 C 528,215.28618 507.2348,236 361.9375,236 H 214.0625 C 68.7652,236 48,215.28618 48,70.125 V -46.125 C 48,-191.28677 68.7652,-212 214.0625,-212 Z" style="fill:#8c59d9"/>
  </clipPath>
  <filter id="filter974" x="-.02" y="-.03" width="1.046" height="1.05" style="color-interpolation-filters:sRGB">
   <feGaussianBlur stdDeviation="2.32"/>
  </filter>
  <linearGradient id="linearGradient4009" x1="50.271" x2="32.771" y1="240.115" y2="259.015" gradientTransform="matrix(1.0724848,0,0,1.0251818,-2.7658898,-7.215374)" gradientUnits="userSpaceOnUse">
   <stop style="stop-color:#d280b9" offset="0"/>
   <stop style="stop-color:#b549b5" offset="1"/>
  </linearGradient>
  <linearGradient id="linearGradient4044" x1="50.271" x2="17.381" y1="240.115" y2="276.096" gradientTransform="matrix(1.0724848,0,0,1.0251818,-2.7658898,-7.215374)" gradientUnits="userSpaceOnUse">
   <stop style="stop-color:#ffffff" offset="0"/>
   <stop style="stop-color:#dfdfdf;stop-opacity:.99607843" offset="1"/>
  </linearGradient>
  <radialGradient id="radialGradient4052" cx="32.865" cy="262.661" r="17.646" gradientTransform="matrix(1.2112666 .00997345 -.01175556 1.4277014 -3.8556494 -112.66841)" gradientUnits="userSpaceOnUse">
   <stop style="stop-color:#1f38b7" offset="0"/>
   <stop style="stop-color:#182e76" offset="1"/>
  </radialGradient>
  <filter id="filter4064" x="-.01" y="-.01" width="1.027" height="1.021" style="color-interpolation-filters:sRGB">
   <feGaussianBlur stdDeviation=".213"/>
  </filter>
  <filter id="filter965" x="-.07" y="-.05" width="1.136" height="1.107" style="color-interpolation-filters:sRGB">
   <feGaussianBlur stdDeviation="1.065"/>
  </filter>
 </defs>
 <g transform="translate(0,-229.26666)">
  <path transform="matrix(.26458333 0 0 .26458333 -1.8735229e-8 232.67026)" d="m162.53675 5.5680001c72.64865 0 83.03125 10.356615 83.03125 82.937505v58.125005c0 72.58059-10.3826 82.9375-83.03125 82.9375h-73.937496c-72.648654 0-83.031254-10.35691-83.031254-82.9375v-58.125005c0-72.58089 10.3826-82.937505 83.031254-82.937505z" style="filter:url(#filter974);opacity:.2"/>
  <path d="m43.004513 233.61429c19.221622 0 21.968685 2.74019 21.968685 21.94388v15.37891c0 19.20362-2.747063 21.94388-21.968685 21.94388h-19.56263c-19.221622 0-21.968685-2.74026-21.968685-21.94388v-15.37891c0-19.20369 2.747063-21.94388 21.968685-21.94388z" style="fill:#dbdbdb"/>
  <path d="m1.473198 263.24763v7.68945c0 19.20362 2.747063 21.94388 21.968685 21.94388h19.56263c19.221622 0 21.968685-2.74026 21.968685-21.94388v-7.68945z" style="fill:#ffffff;opacity:.2"/>
  <path transform="matrix(.13229167 0 0 .13229167 -4.876802 261.66013)" d="M 361.9375,-212 C 507.2348,-212 528,-191.28677 528,-46.125 V 70.125 C 528,215.28618 507.2348,236 361.9375,236 H 214.0625 C 68.7652,236 48,215.28618 48,70.125 V -46.125 C 48,-191.28677 68.7652,-212 214.0625,-212 Z" clip-path="url(#clipPath1082-3-367)" style="fill:none;opacity:.4;stroke-linecap:round;stroke-linejoin:round;stroke-width:8;stroke:url(#linearGradient1108)"/>
  <g transform="translate(.35771428 .58631642)">
   <path d="m14.137218 238.79166v23.86959c0 10.02528 7.55831 19.09578 18.728268 23.86971 11.170365-4.77393 18.728264-13.84443 18.728264-23.86971v-23.86959z" style="fill:url(#linearGradient4009);opacity:.497"/>
   <path d="m14.137218 238.79166v23.86959c0 10.02528 7.55831 19.09578 18.728268 23.86971 11.170365-4.77393 18.728264-13.84443 18.728264-23.86971v-23.86959z" style="fill:none;filter:url(#filter4064);opacity:.6;stroke-width:.26458332;stroke:#030303"/>
   <path d="m14.137218 238.79166v23.86959c0 10.02528 7.55831 19.09578 18.728268 23.86971 11.170365-4.77393 18.728264-13.84443 18.728264-23.86971v-23.86959z" style="filter:url(#filter965);opacity:.2"/>
   <path d="m14.137218 238.79166v23.86959c0 10.02528 7.55831 19.09578 18.728268 23.86971 11.170365-4.77393 18.728264-13.84443 18.728264-23.86971v-23.86959z" style="fill:url(#linearGradient4044)"/>
   <path d="m15.219946 240.17173v22.48934c0 0.90735 0.0676 1.80647 0.195728 2.69443l26.11568-25.18377zm35.291076 8.65735-29.292621 28.24532c3.002077 3.30247 6.990775 6.08633 11.647327 8.07649 10.524551-4.49792 17.645294-13.04415 17.645294-22.48982z" style="fill:url(#radialGradient4052)"/>
  </g>
 </g>
</svg>
