<svg width="256" height="256" version="1.1" viewBox="0 0 67.73 67.73" xmlns="http://www.w3.org/2000/svg" xmlns:xlink="http://www.w3.org/1999/xlink">
 <defs>
  <linearGradient id="linearGradient1108" x1="296" x2="296" y1="-212" y2="236" gradientUnits="userSpaceOnUse">
   <stop style="stop-color:#ffffff" offset="0"/>
   <stop style="stop-color:#ffffff;stop-opacity:.09803922" offset=".125"/>
   <stop style="stop-color:#000000;stop-opacity:.09803922" offset=".925"/>
   <stop style="stop-color:#000000;stop-opacity:.49803922" offset="1"/>
  </linearGradient>
  <clipPath id="clipPath1082-3-7-2">
   <path d="M 361.9375,-212 C 507.2348,-212 528,-191.28677 528,-46.125 V 70.125 C 528,215.28618 507.2348,236 361.9375,236 H 214.0625 C 68.7652,236 48,215.28618 48,70.125 V -46.125 C 48,-191.28677 68.7652,-212 214.0625,-212 Z" style="fill:#8c59d9"/>
  </clipPath>
  <filter id="filter907" x="-.02" y="-.03" width="1.046" height="1.05" style="color-interpolation-filters:sRGB">
   <feGaussianBlur stdDeviation="2.32"/>
  </filter>
  <filter id="filter4569" x="-.01" y="-.01" width="1.023" height="1.025" style="color-interpolation-filters:sRGB">
   <feGaussianBlur stdDeviation="1.16"/>
  </filter>
  <filter id="filter1069" x="-.05" y="-.05" width="1.096" height="1.096" style="color-interpolation-filters:sRGB">
   <feGaussianBlur stdDeviation="1.058"/>
  </filter>
 </defs>
 <g transform="translate(0,-229.26666)">
  <path transform="matrix(.26970778 0 0 .26970778 -7.1289177 220.56049)" d="m188.96876 43.999995c72.64865 0 83.03125 10.356615 83.03125 82.937505v58.125c0 72.58059-10.3826 82.9375-83.03125 82.9375h-73.9375c-72.648654 0-83.031254-10.35691-83.031254-82.9375v-58.125c0-72.58089 10.3826-82.937505 83.031254-82.937505z" style="filter:url(#filter4569);opacity:.1"/>
  <path transform="matrix(.26970778 0 0 .26970778 -7.1289177 220.56049)" d="m188.96876 45.999995c72.64865 0 83.03125 10.356615 83.03125 82.937505v58.125c0 72.58059-10.3826 82.9375-83.03125 82.9375h-73.9375c-72.648654 0-83.031254-10.35691-83.031254-82.9375v-58.125c0-72.58089 10.3826-82.937505 83.031254-82.937505z" style="filter:url(#filter907);opacity:.2"/>
  <path d="m43.837426 232.42763c19.593907 0 22.394175 2.79326 22.394175 22.36889v15.67677c0 19.57555-2.800268 22.36888-22.394175 22.36888h-19.94152c-19.593906 0-22.394174-2.79333-22.394174-22.36888v-15.67677c0-19.57563 2.8002681-22.36889 22.394174-22.36889z" style="fill:#325148"/>
  <path transform="matrix(.13485389 0 0 .13485389 -4.9712555 261.01666)" d="M 361.9375,-212 C 507.2348,-212 528,-191.28677 528,-46.125 V 70.125 C 528,215.28618 507.2348,236 361.9375,236 H 214.0625 C 68.7652,236 48,215.28618 48,70.125 V -46.125 C 48,-191.28677 68.7652,-212 214.0625,-212 Z" clip-path="url(#clipPath1082-3-7-2)" style="fill:none;opacity:.2;stroke-linecap:round;stroke-linejoin:round;stroke-width:8;stroke:url(#linearGradient1108)"/>
  <path d="m33.785061 232.35485v60.41446h9.970746c19.59388 0 22.394145-2.79333 22.394145-22.36886v-15.67674c0-19.5756-2.800265-22.36886-22.394145-22.36886z" style="fill-opacity:.99607843;fill:#ffffff;opacity:.1"/>
  <path d="m23.814314 292.76931c-19.593881 0-22.394145-2.79325-22.394145-22.36886v-7.83836h64.729783v7.83836c0 19.57561-2.800265 22.36886-22.394145 22.36886z" style="fill-opacity:.99607843;fill:#ffffff;opacity:.1"/>
  <path d="m31.121863 288.95607c-3.920695-0.40768-8.560659-2.05467-11.708558-4.15604-2.492721-1.66401-4.930898-3.93276-6.641748-6.18023-2.9230156-3.83983-4.7529875-8.50932-5.2695335-13.44612-0.184522-1.76353-0.08822-5.0551 0.198602-6.78809 0.9106049-5.50195 3.5166595-10.58222 7.4420575-14.50762 3.967161-3.96716 8.939245-6.50959 14.587253-7.45908 1.929826-0.32442 6.609233-0.32288 8.365878 3e-3 7.722684 1.43156 13.852665 5.42768 17.988976 11.72697 0.811953 1.23654 1.161187 1.88156 1.066214 1.96924-0.02902 0.0268-3.910839 1.09545-8.626257 2.37477-4.715414 1.27932-12.575502 3.41389-17.466864 4.74348-10.679219 2.90286-13.103944 3.55019-13.15449 3.51185-0.102546-0.0778 0.306495-1.93539 0.690787-3.13713 0.458127-1.43262 1.535082-3.6765 1.84784-3.85005 0.208968-0.11595 23.370973-6.42855 25.430739-6.93092 0.30089-0.0734 0.527258-0.19537 0.503042-0.27108-0.081-0.25324-1.931745-1.46132-3.225473-2.10543-1.564502-0.77894-3.499746-1.45813-5.22755-1.83466-1.114886-0.24296-1.687621-0.28298-4.049723-0.28298-3.104042 0-4.210934 0.17032-6.672953 1.02679-3.046818 1.05989-5.437523 2.56229-7.722817 4.85327-2.375875 2.38179-3.863685 4.78459-4.921308 7.94784-0.823384 2.46267-1.071712 4.23924-0.99028 7.08457 0.07266 2.53889 0.313393 3.92925 1.053459 6.08438 2.173572 6.32959 7.503979 11.27019 13.997455 12.97383 2.095999 0.5499 3.524091 0.69364 6.067068 0.61064 3.184757-0.10395 5.559072-0.69817 8.338687-2.08695 3.049161-1.52346 5.955769-4.0919 7.821189-6.91124 0.958324-1.44838 2.090435-3.68084 1.941919-3.82936-0.07129-0.0713-3.418998 0.8128-13.282074 3.50763-3.343017 0.91339-7.621425 2.07062-9.507571 2.57161l-3.429358 0.9109-0.691504-0.39564c-0.937785-0.53655-2.159319-1.44672-2.993198-2.23026-0.755218-0.70963-1.974669-2.12111-1.898414-2.19737 0.02632-0.0263 2.606159-0.73516 5.732987-1.57522 3.12683-0.84006 8.103634-2.18968 11.059565-2.99914 2.955932-0.80947 7.418619-2.01995 9.917086-2.68996 2.498468-0.67001 6.240497-1.68255 8.315628-2.25009 2.075128-0.56754 3.860203-1.04571 3.966834-1.0626 0.521875-0.0826 0.447091 3.39014-0.134369 6.23947-0.358923 1.75884-1.274663 4.45535-2.0859 6.14219-2.556569 5.31598-6.932063 9.73071-12.173571 12.28272-4.537687 2.20933-9.578186 3.11997-14.459752 2.61237zm-12.063647-20.04558c-0.609078-1.43136-0.924113-2.70547-1.233003-4.9867-0.02986-0.2205 0.05049-0.3123 0.358935-0.41011 0.39778-0.12615 7.180712-1.95948 17.032512-4.60368 2.885552-0.77447 7.578573-2.03852 10.428933-2.809 7.491205-2.02495 12.576725-3.37418 12.789541-3.39319 0.330953-0.0296 1.451231 3.39626 1.73335 5.30061l0.0863 0.58254-4.96928 1.31702c-2.733105 0.72436-7.502939 2.00543-10.599629 2.84681-3.096688 0.84138-7.156295 1.93407-9.021348 2.42821-1.865052 0.49414-6.244204 1.67173-9.731452 2.61687-3.487247 0.94515-6.402498 1.71845-6.478334 1.71845-0.07584 0-0.254273-0.27352-0.396525-0.60783z" style="filter:url(#filter1069);opacity:.3"/>
  <path d="m31.121863 288.95607c-3.920695-0.40768-8.560659-2.05467-11.708558-4.15604-2.492721-1.66401-4.930898-3.93276-6.641748-6.18023-2.9230156-3.83983-4.7529875-8.50932-5.2695335-13.44612-0.184522-1.76353-0.08822-5.0551 0.198602-6.78809 0.9106049-5.50195 3.5166595-10.58222 7.4420575-14.50762 3.967161-3.96716 8.939245-6.50959 14.587253-7.45908 1.929826-0.32442 6.609233-0.32288 8.365878 3e-3 7.722684 1.43156 13.852665 5.42768 17.988976 11.72697 0.811953 1.23654 1.161187 1.88156 1.066214 1.96924-0.02902 0.0268-3.910839 1.09545-8.626257 2.37477-4.715414 1.27932-12.575502 3.41389-17.466864 4.74348-10.679219 2.90286-13.103944 3.55019-13.15449 3.51185-0.102546-0.0778 0.306495-1.93539 0.690787-3.13713 0.458127-1.43262 1.535082-3.6765 1.84784-3.85005 0.208968-0.11595 23.370973-6.42855 25.430739-6.93092 0.30089-0.0734 0.527258-0.19537 0.503042-0.27108-0.081-0.25324-1.931745-1.46132-3.225473-2.10543-1.564502-0.77894-3.499746-1.45813-5.22755-1.83466-1.114886-0.24296-1.687621-0.28298-4.049723-0.28298-3.104042 0-4.210934 0.17032-6.672953 1.02679-3.046818 1.05989-5.437523 2.56229-7.722817 4.85327-2.375875 2.38179-3.863685 4.78459-4.921308 7.94784-0.823384 2.46267-1.071712 4.23924-0.99028 7.08457 0.07266 2.53889 0.313393 3.92925 1.053459 6.08438 2.173572 6.32959 7.503979 11.27019 13.997455 12.97383 2.095999 0.5499 3.524091 0.69364 6.067068 0.61064 3.184757-0.10395 5.559072-0.69817 8.338687-2.08695 3.049161-1.52346 5.955769-4.0919 7.821189-6.91124 0.958324-1.44838 2.090435-3.68084 1.941919-3.82936-0.07129-0.0713-3.418998 0.8128-13.282074 3.50763-3.343017 0.91339-7.621425 2.07062-9.507571 2.57161l-3.429358 0.9109-0.691504-0.39564c-0.937785-0.53655-2.159319-1.44672-2.993198-2.23026-0.755218-0.70963-1.974669-2.12111-1.898414-2.19737 0.02632-0.0263 2.606159-0.73516 5.732987-1.57522 3.12683-0.84006 8.103634-2.18968 11.059565-2.99914 2.955932-0.80947 7.418619-2.01995 9.917086-2.68996 2.498468-0.67001 6.240497-1.68255 8.315628-2.25009 2.075128-0.56754 3.860203-1.04571 3.966834-1.0626 0.521875-0.0826 0.447091 3.39014-0.134369 6.23947-0.358923 1.75884-1.274663 4.45535-2.0859 6.14219-2.556569 5.31598-6.932063 9.73071-12.173571 12.28272-4.537687 2.20933-9.578186 3.11997-14.459752 2.61237zm-12.063647-20.04558c-0.609078-1.43136-0.924113-2.70547-1.233003-4.9867-0.02986-0.2205 0.05049-0.3123 0.358935-0.41011 0.39778-0.12615 7.180712-1.95948 17.032512-4.60368 2.885552-0.77447 7.578573-2.03852 10.428933-2.809 7.491205-2.02495 12.576725-3.37418 12.789541-3.39319 0.330953-0.0296 1.451231 3.39626 1.73335 5.30061l0.0863 0.58254-4.96928 1.31702c-2.733105 0.72436-7.502939 2.00543-10.599629 2.84681-3.096688 0.84138-7.156295 1.93407-9.021348 2.42821-1.865052 0.49414-6.244204 1.67173-9.731452 2.61687-3.487247 0.94515-6.402498 1.71845-6.478334 1.71845-0.07584 0-0.254273-0.27352-0.396525-0.60783z" style="fill:#ffffff"/>
 </g>
</svg>
