<svg xmlns="http://www.w3.org/2000/svg" xmlns:xlink="http://www.w3.org/1999/xlink" width="256" height="256" version="1.1" viewBox="0 0 67.73 67.73">
 <defs>
  <linearGradient id="linearGradient1108" x1="296" x2="296" y1="-212" y2="236" gradientUnits="userSpaceOnUse" xlink:href="#linearGradient1013"/>
  <linearGradient id="linearGradient1013">
   <stop style="stop-color:#ffffff" offset="0"/>
   <stop offset=".125" style="stop-color:#ffffff;stop-opacity:0.09803922"/>
   <stop offset=".925" style="stop-color:#000000;stop-opacity:0.09803922"/>
   <stop style="stop-color:#000000;stop-opacity:0.49803922" offset="1"/>
  </linearGradient>
  <clipPath id="clipPath1082-3-31" clipPathUnits="userSpaceOnUse">
   <path style="fill:#8c59d9" d="M 361.9375,-212 C 507.2348,-212 528,-191.28677 528,-46.125 V 70.125 C 528,215.28618 507.2348,236 361.9375,236 H 214.0625 C 68.7652,236 48,215.28618 48,70.125 V -46.125 C 48,-191.28677 68.7652,-212 214.0625,-212 Z"/>
  </clipPath>
  <clipPath id="clipPath1205" clipPathUnits="userSpaceOnUse">
   <path style="fill:#f1f0e9" d="M 115.03125,44 C 42.3826,44 32,54.356615 32,126.9375 v 58.125 c 0,13.772 0.379014,25.29352 1.482422,34.9375 H 270.51758 C 271.62099,210.35602 272,198.8345 272,185.0625 v -58.125 C 272,54.356615 261.6174,44 188.96875,44 Z"/>
  </clipPath>
  <linearGradient id="linearGradient1183" x1="-2.352" x2="306.352" y1="264" y2="264" gradientTransform="translate(0,-4)" gradientUnits="userSpaceOnUse" xlink:href="#linearGradient1181"/>
  <linearGradient id="linearGradient1181">
   <stop offset="0" style="stop-color:#000000;stop-opacity:0"/>
   <stop style="stop-color:#000000;stop-opacity:0.89177489" offset=".5"/>
   <stop offset="1" style="stop-color:#000000;stop-opacity:0"/>
  </linearGradient>
  <filter id="filter1171" width="1.015" height="1.053" x="-.01" y="-.03" style="color-interpolation-filters:sRGB">
   <feGaussianBlur stdDeviation=".98"/>
  </filter>
  <filter id="filter933" width="1.046" height="1.05" x="-.02" y="-.03" style="color-interpolation-filters:sRGB">
   <feGaussianBlur stdDeviation="2.32"/>
  </filter>
  <filter id="filter4569" width="1.023" height="1.025" x="-.01" y="-.01" style="color-interpolation-filters:sRGB">
   <feGaussianBlur stdDeviation="1.16"/>
  </filter>
  <linearGradient id="linearGradient2867-449-88-871-390-598-476-591-434-148-57-177-8-3">
   <stop style="stop-color:#90dbec" offset="0"/>
   <stop style="stop-color:#55c1ec" offset=".262"/>
   <stop style="stop-color:#3689e6" offset=".705"/>
   <stop style="stop-color:#2b63a0" offset="1"/>
  </linearGradient>
  <radialGradient id="radialGradient3107-17-3" cx="5.649" cy="9.957" r="12.672" fx="5.119" fy="9.957" gradientTransform="matrix(-1.1479553e-7,4.6802493,-5.745852,-1.4048849e-7,104.99927,217.10445)" gradientUnits="userSpaceOnUse" xlink:href="#linearGradient2867-449-88-871-390-598-476-591-434-148-57-177-8-3"/>
 </defs>
 <g transform="translate(0,-229.26666)">
  <path style="opacity:0.1;filter:url(#filter4569)" d="m 188.96876,43.999995 c 72.64865,0 83.03125,10.356615 83.03125,82.937505 v 58.125 c 0,72.58059 -10.3826,82.9375 -83.03125,82.9375 h -73.9375 C 42.382606,268 32.000006,257.64309 32.000006,185.0625 v -58.125 c 0,-72.58089 10.3826,-82.937505 83.031254,-82.937505 z" transform="matrix(0.26970778,0,0,0.26970778,-7.1289177,220.56049)"/>
  <path d="m 188.96876,45.999995 c 72.64865,0 83.03125,10.356615 83.03125,82.937505 v 58.125 c 0,72.58059 -10.3826,82.9375 -83.03125,82.9375 h -73.9375 C 42.382606,270 32.000006,259.64309 32.000006,187.0625 v -58.125 c 0,-72.58089 10.3826,-82.937505 83.031254,-82.937505 z" transform="matrix(0.26970778,0,0,0.26970778,-7.1289177,220.56049)" style="opacity:0.2;filter:url(#filter933)"/>
  <path d="m 23.895906,292.84217 c -19.593906,0 -22.3941741,-2.79325 -22.3941741,-22.36888 v -15.67677 c 0,-3.71442 0.1022231,-6.82186 0.3998209,-9.42292 H 65.831778 c 0.297601,2.60106 0.399823,5.7085 0.399823,9.42292 v 15.67677 c 0,19.57563 -2.800268,22.36888 -22.394175,22.36888 z" style="fill:#f1f0e9"/>
  <g clip-path="url(#clipPath1205)" transform="matrix(0.26970778,0,0,-0.26970778,-7.1289177,304.70932)" style="enable-background:new">
   <path d="m 0,216 h 304 v 88 H 0 Z" style="opacity:0.4;fill:url(#linearGradient1183);filter:url(#filter1195)"/>
   <rect style="opacity:0.1;filter:url(#filter1171)" width="304" height="88" x="0" y="220"/>
  </g>
  <path d="m 23.902227,292.84217 c -19.5939059,0 -22.394174,-2.79325 -22.394174,-22.36888 v -15.67677 c 0,-3.71442 0.1022231,-6.82186 0.3998209,-9.42292 H 33.872985 v 47.46857 z" style="opacity:0.02000002"/>
  <path d="M 1.9078739,245.3736 C 3.1794047,234.27636 8.026332,232.42763 23.895906,232.42763 h 19.94152 c 15.869576,0 20.7165,1.84873 21.988031,12.94597 z" style="fill:#419ce8"/>
  <path d="m 29.551342,254.02427 v 1.07883 h 25.891947 v -1.07883 z m 0,4.31532 v 1.07884 h 25.891947 v -1.07884 z m 0,4.29531 v 1.07883 h 25.891947 v -1.07883 z m 0,4.31533 v 1.07883 h 25.891947 v -1.07883 z" style="fill:#e3dfd5;fill-opacity:0.99607843"/>
  <path style="opacity:0.4;fill:none;stroke:url(#linearGradient1108);stroke-width:8;stroke-linecap:round;stroke-linejoin:round" d="M 361.9375,-212 C 507.2348,-212 528,-191.28677 528,-46.125 V 70.125 C 528,215.28618 507.2348,236 361.9375,236 H 214.0625 C 68.7652,236 48,215.28618 48,70.125 V -46.125 C 48,-191.28677 68.7652,-212 214.0625,-212 Z" clip-path="url(#clipPath1082-3-31)" transform="matrix(0.13485389,0,0,0.13485389,-4.9712547,261.01666)"/>
  <path style="fill:#e3dfd5;fill-opacity:0.99607843" d="m 12.29016,270.70504 v 1.07883 h 25.891947 v -1.07883 z m 0,4.31532 v 1.07884 l 24.623992,-0.0409 -0.06135,-1.09929 z m 0,4.29531 v 1.07883 l 24.562639,-0.0204 0.0409,-1.16063 z m 0,4.31533 v 1.07883 H 38.182107 V 283.631 Z"/>
  <path d="m 4.0919803,253.79112 v 13.8905 H 27.904481 v -13.8905 z m 2.9761895,1.95661 a 0.99227629,0.99227629 0 0 1 0.1965186,0.0168 c 1.451e-4,0 0.00145,0 0.00154,0 0.1238803,0.004 0.9023561,0.0374 1.8650688,0.0239 0.3190712,-0.008 0.6459504,-0.0265 0.9280518,-0.0265 0.248043,0 0.447605,-0.005 0.683334,0.0209 0.23573,0.0262 0.590711,0.0983 0.886582,0.39416 0.29587,0.29587 0.366471,0.65085 0.392664,0.88658 0.02617,0.23573 0.0213,0.43417 0.0213,0.68221 0,0.2647 -3e-6,0.57986 0,0.99268 8e-6,0.61132 0,0.68186 0,0.9927 0,0.24804 0.0049,0.4461 -0.0213,0.68184 -0.02619,0.23572 -0.09679,0.59109 -0.392664,0.88695 -0.295871,0.29586 -0.650852,0.36761 -0.886582,0.39378 -0.235729,0.0263 -0.435291,0.0213 -0.683334,0.0213 H 9.0666523 8.0750883 v 2.97656 a 0.99227629,0.99227629 0 1 1 -1.9838782,0 v -3.80674 a 0.99227629,0.99227629 0 0 1 0,-0.32503 v -3.6345 a 0.99227629,0.99227629 0 0 1 0.2047405,-0.79093 0.99227629,0.99227629 0 0 1 0.065007,-0.0747 0.99227629,0.99227629 0 0 1 0.054921,-0.0523 0.99227629,0.99227629 0 0 1 0.056789,-0.0468 0.99227629,0.99227629 0 0 1 0.5955362,-0.21296 z m 6.9304932,0 a 0.99227629,0.99227629 0 0 1 0.209222,0.0198 c 0.354875,-0.0288 1.171257,-0.061 2.19422,0.38407 1.278994,0.55651 2.578838,2.03737 2.586886,4.57376 0.0078,2.46322 -1.295079,3.93266 -2.559987,4.50874 -1.070754,0.48765 -1.956964,0.46506 -2.251008,0.44908 a 0.99227629,0.99227629 0 0 1 -1.104023,-0.66651 0.99227629,0.99227629 0 0 1 -0.0269,-0.096 0.99227629,0.99227629 0 0 1 -0.01682,-0.0975 0.99227629,0.99227629 0 0 1 -0.006,-0.0665 0.99227629,0.99227629 0 0 1 -0.0026,-0.0523 0.99227629,0.99227629 0 0 1 0,-0.0127 v -7.9385 a 0.99227629,0.99227629 0 0 1 0.0015,-0.0452 0.99227629,0.99227629 0 0 1 0.975499,-0.96017 z m 6.960379,0 a 0.9922762,0.9922762 0 0 1 0.176346,0.0138 h 3.807099 a 0.9922762,0.9922762 0 1 1 0,1.98424 h -2.97656 v 1.98389 h 2.97656 a 0.99269075,0.99269075 0 1 1 0,1.98537 h -2.97656 v 2.97656 a 0.9922762,0.9922762 0 1 1 -1.984251,0 v -3.80672 a 0.9922762,0.9922762 0 0 1 0,-0.33327 v -3.63487 a 0.9922762,0.9922762 0 0 1 0.269749,-0.85706 0.9922762,0.9922762 0 0 1 0.0254,-0.0254 0.9922762,0.9922762 0 0 1 0.682213,-0.28656 z m -10.899739,1.99806 c -0.1774722,0 -0.5272515,0.0185 -0.892558,0.0265 h -0.00717 c -0.5654411,0.008 -0.6907644,-0.004 -1.0845936,-0.0138 v 1.97117 h 0.9915639 c 0.4216164,0 0.7318419,0.002 0.9926877,0.002 0,-0.31092 6e-6,-0.38142 0,-0.99269 -4e-6,-0.41282 0,-0.72794 0,-0.99268 z m 4.946242,0.12965 v 5.66694 c 0.252768,-0.0378 0.309443,0.0193 0.600394,-0.11321 0.722833,-0.32921 1.404958,-0.84395 1.399174,-2.6971 -0.0062,-1.95358 -0.691774,-2.45638 -1.393569,-2.76174 -0.29234,-0.12721 -0.354284,-0.0675 -0.605999,-0.0949 z" style="fill:#44a3e9"/>
  <path d="m 43.194856,270.26833 c -0.935169,0.008 -2.112605,0.0737 -3.372723,0.28846 v 11.95985 h 2.840188 v -4.32685 c 0,0 5.596274,0.51926 5.702566,-3.57242 0,0 0.738194,-4.39686 -5.170031,-4.34904 z m 0.288457,2.13014 c 1.723283,0.006 2.174311,0.61756 2.218897,1.75293 0,2.38065 -3.039889,1.79731 -3.039889,1.79731 v -3.50586 c 0.30082,-0.0229 0.574808,-0.0453 0.820992,-0.0443 z m 8.860254,1.04289 c -0.689717,0.0312 -1.369757,0.19146 -1.974818,0.53253 -1.121031,0.66098 -1.261031,2.27403 -0.643481,3.32835 0.77171,1.13913 2.256126,1.30285 3.306156,2.08576 0.533038,0.35391 0.25858,1.25187 -0.355022,1.30916 -1.130634,0.18505 -2.267553,-0.22383 -3.28397,-0.68788 v 1.6198 c -0.140971,0.47993 0.448523,0.49186 0.776615,0.6213 1.220833,0.29616 2.543127,0.34072 3.749936,-0.0443 1.066002,-0.31382 1.832618,-1.37633 1.775118,-2.48517 -3.65e-4,-0.29695 -0.05679,-0.58378 -0.155321,-0.86537 -0.420025,-1.16439 -1.72391,-1.54406 -2.729243,-2.04137 -0.638824,-0.16367 -1.579257,-0.9627 -0.732236,-1.50886 0.951932,-0.29871 1.936135,0.14648 2.795812,0.53253 l 0.62129,-1.48665 c 0.207828,-0.4673 -0.799722,-0.46031 -1.109448,-0.66567 -0.652982,-0.18406 -1.351668,-0.27531 -2.041385,-0.24408 z" style="fill:url(#radialGradient3107-17-3)"/>
  <g class="com.sun.star.drawing.OpenBezierShape" transform="matrix(0.00306517,0,0,0.0029908,2.0447275,244.40565)">
   <g>
    <rect style="fill:none" class="BoundingBox" width="18144" height="14430" x="1349" y="932"/>
    <path style="fill:none;stroke:#339966;stroke-width:141;stroke-linecap:round;stroke-linejoin:round" d="m 1500.7499,15138.19 c 374,0 629.2501,151.81 778.2501,-196.19 142,-552 67,-2377 254,-2377 214,0 48,1905 330,2376 83,89 192,131 337,103 151,-30 282,-217 351,-521 347,-1538 137,-5857 349,-5857 254,0 70,5744 499,5924 174,52 194,-88 421,-49 262,202 443,84 778,211 476,180 404,-2079 658,-2079 254,0 152,2681 1676,2541 229,-25 485,-491 518,-1262 134,-3168 178,-12949 386,-12949 216,0 241,9386 451,12785 37,611 187,1023 321,1160 880,908 658,-2703 1039,-2703 127,0 747,1765 874,1765 127,0 208,-11824 335,-11824 127,0 327,10584 454,10584 127,0 212,-500 339,-500 127,0 176,2629 557,2629 254,0 287,-473 414,-473 59,0 261,389 533,358 167,-19 536,237 603,237 127,0 436,-193 563,-193 127,0 350,323 477,323 127,0 355,-1491 482,-1491 162,0 109,1301 538,1504 154,73 840.875,-48.156 2073.875,74.844"/>
   </g>
  </g>
 </g>
</svg>
