<svg xmlns="http://www.w3.org/2000/svg" xmlns:xlink="http://www.w3.org/1999/xlink" width="256" height="256" version="1.1" viewBox="0 0 67.73 67.73">
 <defs>
  <linearGradient id="linearGradient1108" x1="296" x2="296" y1="-212" y2="236" gradientUnits="userSpaceOnUse" xlink:href="#linearGradient1013"/>
  <linearGradient id="linearGradient1013">
   <stop style="stop-color:#ffffff" offset="0"/>
   <stop offset=".125" style="stop-color:#ffffff;stop-opacity:0.09803922"/>
   <stop offset=".925" style="stop-color:#000000;stop-opacity:0.09803922"/>
   <stop style="stop-color:#000000;stop-opacity:0.49803922" offset="1"/>
  </linearGradient>
  <clipPath id="clipPath1082-3-2" clipPathUnits="userSpaceOnUse">
   <path style="fill:#8c59d9" d="M 361.9375,-212 C 507.2348,-212 528,-191.28677 528,-46.125 V 70.125 C 528,215.28618 507.2348,236 361.9375,236 H 214.0625 C 68.7652,236 48,215.28618 48,70.125 V -46.125 C 48,-191.28677 68.7652,-212 214.0625,-212 Z"/>
  </clipPath>
  <filter id="filter4569" width="1.023" height="1.025" x="-.01" y="-.01" style="color-interpolation-filters:sRGB">
   <feGaussianBlur stdDeviation="1.16"/>
  </filter>
  <filter id="filter913" width="1.046" height="1.05" x="-.02" y="-.03" style="color-interpolation-filters:sRGB">
   <feGaussianBlur stdDeviation="2.32"/>
  </filter>
  <linearGradient id="linearGradient4338-7">
   <stop offset="0" style="stop-color:#00bb8a"/>
   <stop offset="1" style="stop-color:#22daaa"/>
  </linearGradient>
  <filter id="filter954" width="1.088" height="1.105" x="-.04" y="-.05" style="color-interpolation-filters:sRGB">
   <feGaussianBlur stdDeviation=".47"/>
  </filter>
  <clipPath id="clipPath-162844874">
   <g transform="translate(0,-1004.3622)">
    <path d="m -24,13 c 0,1.105 -0.672,2 -1.5,2 -0.828,0 -1.5,-0.895 -1.5,-2 0,-1.105 0.672,-2 1.5,-2 0.828,0 1.5,0.895 1.5,2 z" transform="matrix(15.333333,0,0,11.5,414.99999,878.8622)" style="fill:#1890d0"/>
   </g>
  </clipPath>
  <linearGradient id="linearGradient1707" x1="13.547" x2="56.828" y1="228.848" y2="294.102" gradientUnits="userSpaceOnUse" xlink:href="#linearGradient4338-7"/>
 </defs>
 <g transform="translate(0,-229.26666)">
  <path d="m 162.53675,5.5680001 c 72.64865,0 83.03125,10.3566149 83.03125,82.9375049 v 58.125005 c 0,72.58059 -10.3826,82.9375 -83.03125,82.9375 H 88.599254 C 15.9506,229.56801 5.568,219.2111 5.568,146.63051 V 88.505505 c 0,-72.58089 10.3826,-82.9375049 83.031254,-82.9375049 z" transform="matrix(0.26458333,0,0,0.26458333,-1.8735229e-8,232.67026)" style="opacity:0.2;filter:url(#filter913)"/>
  <path style="opacity:0.1;filter:url(#filter4569)" d="m 162.53675,3.5680001 c 72.64865,0 83.03125,10.3566149 83.03125,82.9375049 v 58.125005 c 0,72.58059 -10.3826,82.9375 -83.03125,82.9375 H 88.599254 C 15.9506,227.56801 5.568,217.2111 5.568,144.63051 V 86.505505 c 0,-72.58089 10.3826,-82.9375049 83.031254,-82.9375049 z" transform="matrix(0.26458333,0,0,0.26458333,-1.8735229e-8,232.67026)"/>
  <path d="m 23.441882,233.61429 c -9.611188,0 -15.1016409,0.68375 -18.19217,3.77032 -3.090525,3.08656 -3.776514,8.57135 -3.776514,18.17356 v 15.37891 c 0,9.60218 0.68599,15.087 3.776514,18.17357 3.0905286,3.08658 8.580982,3.77031 18.19217,3.77031 h 19.562631 c 9.61119,0 15.101644,-0.68373 18.19217,-3.77031 3.090527,-3.08657 3.776515,-8.57139 3.776515,-18.17357 v -15.37891 c 0,-9.60221 -0.685988,-15.087 -3.776515,-18.17356 -3.090526,-3.08657 -8.580982,-3.77032 -18.19217,-3.77032 z" style="fill:url(#linearGradient1707)"/>
  <path d="m 1.473198,270.40792 v 0.52916 c 0,9.60218 0.68599,15.087 3.776514,18.17357 3.0905286,3.08658 8.580982,3.77031 18.19217,3.77031 h 19.562631 c 9.61119,0 15.101644,-0.68373 18.19217,-3.77031 3.090527,-3.08657 3.776515,-8.57139 3.776515,-18.17357 v -0.52916 c 0,9.60217 -0.685988,15.08699 -3.776515,18.17356 -3.090526,3.08658 -8.58098,3.77032 -18.19217,3.77032 H 23.441882 c -9.611188,0 -15.1016414,-0.68374 -18.19217,-3.77032 -3.090524,-3.08657 -3.776514,-8.57139 -3.776514,-18.17356 z" style="opacity:0.2;fill:#131313"/>
  <path style="opacity:0.4;fill:none;stroke:url(#linearGradient1108);stroke-width:8;stroke-linecap:round;stroke-linejoin:round" d="M 361.9375,-212 C 507.2348,-212 528,-191.28677 528,-46.125 V 70.125 C 528,215.28618 507.2348,236 361.9375,236 H 214.0625 C 68.7652,236 48,215.28618 48,70.125 V -46.125 C 48,-191.28677 68.7652,-212 214.0625,-212 Z" clip-path="url(#clipPath1082-3-2)" transform="matrix(0.13229167,0,0,0.13229167,-4.876802,261.66013)"/>
  <path d="m 1.473198,263.08951 v 9.20122 c 0,9.00985 0.68599,14.15633 3.776514,17.0525 3.0905286,2.89618 8.580982,3.53773 18.19217,3.53773 h 19.562631 c 9.61119,0 15.101644,-0.64155 18.19217,-3.53773 3.090527,-2.89617 3.776515,-8.04265 3.776515,-17.0525 v -9.20122 z" style="opacity:0.05;fill:#ffffff"/>
  <path d="m 33.223198,255.50373 c -4.274634,0 -7.743903,3.46927 -7.743903,7.74391 0,4.27463 3.469269,7.7439 7.743903,7.7439 4.274633,0 7.743902,-3.46927 7.743902,-7.7439 0,-4.27464 -3.469269,-7.74391 -7.743902,-7.74391 z m 0,3.87195 c 2.137317,0 3.871951,1.73464 3.871951,3.87196 0,2.13731 -1.734634,3.87195 -3.871951,3.87195 -2.137317,0 -3.871951,-1.73464 -3.871951,-3.87195 0,-2.13732 1.734634,-3.87196 3.871951,-3.87196 z" style="fill:none"/>
  <g transform="translate(-1.8494823,0.77810801)">
   <rect style="fill:#d3ffe7;fill-rule:evenodd" width="37.557" height="37.557" x="-179.98" y="191.21" ry="3.984" transform="rotate(-45)"/>
   <g style="opacity:0.3;filter:url(#filter954)" transform="matrix(1.3651257,0,0,1.4187391,9.1793888,227.07328)">
    <g clip-path="url(#clipPath-162844874)">
     <g>
      <path d="m 27.305,14.07 -0.336,0.305 v 1.121 l 0.293,0.27 h 1.563 v 1.082 l -10.328,9.48 V 15.781 h 1.715 l 0.352,-0.32 V 14.328 L 20.24,14.098 H 11.2 l -0.293,0.27 v 1.16 l 0.297,0.27 h 1.574 v 19.426 l 0.293,0.27 h 1.785 L 36.508,15.271 V 14.38 l -0.336,-0.305 h -8.867 m -0.004,-0.004"/>
     </g>
    </g>
   </g>
   <g transform="matrix(1.3651257,0,0,1.4187391,9.1793888,227.07328)" style="fill:#467c5f">
    <g clip-path="url(#clipPath-162844874)" style="fill:#467c5f">
     <g style="fill:#467c5f">
      <path d="m 27.305,14.07 -0.336,0.305 v 1.121 l 0.293,0.27 h 1.563 v 1.082 l -10.328,9.48 V 15.781 h 1.715 l 0.352,-0.32 V 14.328 L 20.24,14.098 H 11.2 l -0.293,0.27 v 1.16 l 0.297,0.27 h 1.574 v 19.426 l 0.293,0.27 h 1.785 L 36.508,15.271 V 14.38 l -0.336,-0.305 h -8.867 m -0.004,-0.004" style="fill:#467c5f"/>
     </g>
    </g>
   </g>
  </g>
 </g>
</svg>
