<svg width="256" height="256" version="1.1" viewBox="0 0 67.73 67.73" xmlns="http://www.w3.org/2000/svg" xmlns:xlink="http://www.w3.org/1999/xlink">
 <defs>
  <clipPath id="clipPath1082-3-5">
   <path d="M 361.9375,-212 C 507.2348,-212 528,-191.28677 528,-46.125 V 70.125 C 528,215.28618 507.2348,236 361.9375,236 H 214.0625 C 68.7652,236 48,215.28618 48,70.125 V -46.125 C 48,-191.28677 68.7652,-212 214.0625,-212 Z" style="fill:#8c59d9"/>
  </clipPath>
  <filter id="filter4569-2" x="-.01" y="-.01" width="1.023" height="1.025" style="color-interpolation-filters:sRGB">
   <feGaussianBlur stdDeviation="1.16"/>
  </filter>
  <filter id="filter913" x="-.02" y="-.03" width="1.046" height="1.05" style="color-interpolation-filters:sRGB">
   <feGaussianBlur stdDeviation="2.32"/>
  </filter>
  <linearGradient id="linearGradient906" x1="296" x2="296" y1="-212" y2="236" gradientUnits="userSpaceOnUse">
   <stop style="stop-color:#ffffff" offset="0"/>
   <stop style="stop-color:#ffffff;stop-opacity:.09803922" offset=".125"/>
   <stop style="stop-color:#000000;stop-opacity:.09803922" offset=".925"/>
   <stop style="stop-color:#000000;stop-opacity:.49803922" offset="1"/>
  </linearGradient>
 </defs>
 <g transform="translate(0,-229.26666)">
  <path transform="matrix(.26970778 0 0 .26970778 -7.1289177 220.56049)" d="m188.96876 45.999995c72.64865 0 83.03125 10.356615 83.03125 82.937505v58.125c0 72.58059-10.3826 82.9375-83.03125 82.9375h-73.9375c-72.648654 0-83.031254-10.35691-83.031254-82.9375v-58.125c0-72.58089 10.3826-82.937505 83.031254-82.937505z" style="filter:url(#filter913);opacity:.2"/>
  <path transform="matrix(.26970778 0 0 .26970778 -7.1289177 220.56049)" d="m188.96876 43.999995c72.64865 0 83.03125 10.356615 83.03125 82.937505v58.125c0 72.58059-10.3826 82.9375-83.03125 82.9375h-73.9375c-72.648654 0-83.031254-10.35691-83.031254-82.9375v-58.125c0-72.58089 10.3826-82.937505 83.031254-82.937505z" style="filter:url(#filter4569-2);opacity:.1"/>
  <path d="m23.895905 232.42763c-9.797337 0-15.39413 0.69699-18.544517 3.84334-3.150381 3.14634-3.849657 8.73736-3.849657 18.52555v15.67677c0 9.78815 0.699276 15.3792 3.849657 18.52555 3.150387 3.14636 8.7471787 3.84333 18.544517 3.84333h19.94152c9.797339 0 15.394134-0.69697 18.544517-3.84333 3.150384-3.14635 3.849659-8.7374 3.849659-18.52555v-15.67677c0-9.78819-0.699275-15.37921-3.849659-18.52555-3.150383-3.14635-8.74718-3.84334-18.544517-3.84334z" style="fill:#4d4d4d"/>
  <path d="m1.5017313 269.93387v0.53942c0 9.78815 0.699276 15.3792 3.849657 18.52555 3.150387 3.14636 8.7471787 3.84333 18.544517 3.84333h19.94152c9.797339 0 15.394134-0.69697 18.544517-3.84333 3.150384-3.14635 3.849659-8.7374 3.849659-18.52555v-0.53942c0 9.78815-0.699275 15.3792-3.849659 18.52555-3.150383 3.14636-8.747178 3.84334-18.544517 3.84334h-19.94152c-9.797338 0-15.39413-0.69698-18.544517-3.84334-3.150381-3.14635-3.849657-8.7374-3.849657-18.52555z" style="fill:#131313;opacity:.2"/>
  <path transform="matrix(.13485389 0 0 .13485389 -4.9712557 261.01666)" d="M 361.9375,-212 C 507.2348,-212 528,-191.28677 528,-46.125 V 70.125 C 528,215.28618 507.2348,236 361.9375,236 H 214.0625 C 68.7652,236 48,215.28618 48,70.125 V -46.125 C 48,-191.28677 68.7652,-212 214.0625,-212 Z" clip-path="url(#clipPath1082-3-5)" style="fill:none;opacity:.4;stroke-linecap:round;stroke-linejoin:round;stroke-width:8;stroke:url(#linearGradient906)"/>
  <g transform="matrix(.69999996 0 0 .69999996 10.530416 78.909778)">
   <g transform="translate(.39686846 -.56696)">
    <path d="m32.37367 238.46298v49.13691h1.511905v-49.13691z" style="fill:#71ff02"/>
    <path d="m35.529763 253.39304v19.2768h1.133929v-19.27681z" style="fill:#f7ff02"/>
    <path d="m38.515775 244.88856v36.28575h1.133929v-36.28575z" style="fill:#ffaf02"/>
    <path d="m41.539585 256.22786v13.60714h1.133929v-13.60713z" style="fill:#ff3902"/>
    <path d="m44.550166 260.76357v4.53572h1.133929v-4.53572z" style="fill:#ff02f7"/>
    <path d="m47.549407 262.46447v1.13392h1.133929v-1.13392z" style="fill:#a102ff"/>
    <path d="m29.406552 246.96744v32.12798h1.133929v-32.12798z" style="fill:#fff702"/>
    <path d="m59.606848 247.15641v31.75004h1.133929v-31.75004z" style="fill:#fff702;opacity:.3"/>
    <path d="m56.596205 248.29037v29.48212h1.133929v-29.48212z" style="fill:#4aa627;opacity:.5"/>
    <path d="m53.559229 255.09394v15.87499h1.133929v-15.87499z" style="fill:#14a7d2;opacity:.75"/>
    <path d="m50.535419 256.22785v13.60716h1.133929v-13.60716z" style="fill:#0a69ee;opacity:.9"/>
    <path d="m62.630658 238.46298v49.13691h1.133929v-49.13691z" style="fill:#ff0219;opacity:.2"/>
    <path d="m65.61667 248.29037v29.48212h1.133929v-29.48212z" style="fill:#ffaf02;opacity:.2"/>
    <path d="m68.64048 255.09394v15.87499h1.133929v-15.87499z" style="fill:#c502ff;opacity:.15"/>
    <path d="m71.664289 256.22785v13.60716h1.133929v-13.60716z" style="fill:#02b0ff;opacity:.25"/>
    <path d="m74.650301 244.88856v36.28575h1.133929v-36.28575z" style="fill:#02d6ff;opacity:.5"/>
    <path d="m77.674111 260.76357v4.53572h1.133929v-4.53572z" style="fill:#ff02f7;opacity:.7"/>
    <path d="m26.382744 248.85732v28.34822h1.133929v-28.34822z" style="fill:#ffaf02"/>
    <path d="m23.358936 255.47191v15.11905h1.133929v-15.11905z" style="fill:#ff3902"/>
    <path d="m20.335128 257.36179v11.33929h1.133929v-11.33929z" style="fill:#ff02ee"/>
    <path d="m17.31132 262.46447v1.13393h1.133929v-1.13393z" style="fill:#a102ff"/>
    <path d="m14.287512 261.14155v3.77976h1.133929v-3.77976z" style="fill:#0a69ee;opacity:.9"/>
    <path d="m11.263704 256.41685v13.22917h1.133929v-13.22917z" style="fill:#14a7d2;opacity:.75"/>
    <path d="m8.2398948 245.07756v35.90774h1.1339298v-35.90774z" style="fill:#4aa627;opacity:.5"/>
    <path d="m5.2160852 253.58203v18.89881h1.1339298v-18.89881z" style="fill:#f7ff02;opacity:.5"/>
    <path d="m2.1922756 246.96744v32.12798h1.1339298v-32.12798z" style="fill:#f7ff02;opacity:.5"/>
    <path d="m-0.83153409 238.46298v49.13691h1.1339299v-49.13691z" style="fill:#f7ff02;opacity:.5"/>
    <path d="m-3.8553437 248.85732v28.34822h1.1339298v-28.34822z" style="fill:#ff3902"/>
    <path d="m-6.8791533 256.41685v13.22917h1.1339298v-13.22917z" style="fill:#14a7d2;opacity:.75"/>
    <path d="m-9.9029626 261.14155v3.77976h1.1339295v-3.77976z" style="fill:#0a69ee;opacity:.9"/>
    <path d="m-12.926771 262.46447v1.13393h1.133929v-1.13393z" style="fill:#ba0aee;opacity:.9"/>
   </g>
  </g>
  <path d="m1.5017313 262.60416v9.33914c0 9.14491 0.699276 14.36853 3.849657 17.30811 3.150387 2.93959 8.7471787 3.59076 18.544517 3.59076h19.94152c9.797339 0 15.394134-0.65117 18.544517-3.59076 3.150384-2.93958 3.849659-8.1632 3.849659-17.30811v-9.33914z" style="fill:#ffffff;opacity:.05"/>
 </g>
</svg>
