<svg xmlns="http://www.w3.org/2000/svg" xmlns:xlink="http://www.w3.org/1999/xlink" width="256" height="256" version="1.1" viewBox="0 0 67.73 67.73">
 <defs>
  <linearGradient id="linearGradient1108" x1="296" x2="296" y1="-212" y2="202.4" gradientTransform="translate(-2e-6,-2e-6)" gradientUnits="userSpaceOnUse" xlink:href="#linearGradient1013"/>
  <linearGradient id="linearGradient1013">
   <stop style="stop-color:#ffffff" offset="0"/>
   <stop offset=".135" style="stop-color:#ffffff;stop-opacity:0.09803922"/>
   <stop offset="1" style="stop-color:#000000;stop-opacity:0"/>
  </linearGradient>
  <clipPath id="clipPath1082-3-92" clipPathUnits="userSpaceOnUse">
   <path style="fill:#8c59d9" d="M 361.9375,-212 C 507.2348,-212 528,-191.28677 528,-46.125 V 70.125 C 528,215.28618 507.2348,236 361.9375,236 H 214.0625 C 68.7652,236 48,215.28618 48,70.125 V -46.125 C 48,-191.28677 68.7652,-212 214.0625,-212 Z"/>
  </clipPath>
  <filter id="filter920" width="1.046" height="1.05" x="-.02" y="-.03" style="color-interpolation-filters:sRGB">
   <feGaussianBlur stdDeviation="2.32"/>
  </filter>
  <filter id="filter4569" width="1.023" height="1.025" x="-.01" y="-.01" style="color-interpolation-filters:sRGB">
   <feGaussianBlur stdDeviation="1.16"/>
  </filter>
  <filter id="filter923" width="1.096" height="1.096" x="-.05" y="-.05" style="color-interpolation-filters:sRGB">
   <feGaussianBlur stdDeviation=".847"/>
  </filter>
 </defs>
 <g transform="translate(0,-229.26666)">
  <path style="opacity:0.1;filter:url(#filter4569)" d="m 188.96876,43.999995 c 72.64865,0 83.03125,10.356615 83.03125,82.937505 v 58.125 c 0,72.58059 -10.3826,82.9375 -83.03125,82.9375 h -73.9375 C 42.382606,268 32.000006,257.64309 32.000006,185.0625 v -58.125 c 0,-72.58089 10.3826,-82.937505 83.031254,-82.937505 z" transform="matrix(0.26970778,0,0,0.26970778,-7.1289177,220.56049)"/>
  <path d="m 188.96876,45.999995 c 72.64865,0 83.03125,10.356615 83.03125,82.937505 v 58.125 c 0,72.58059 -10.3826,82.9375 -83.03125,82.9375 h -73.9375 C 42.382606,270 32.000006,259.64309 32.000006,187.0625 v -58.125 c 0,-72.58089 10.3826,-82.937505 83.031254,-82.937505 z" transform="matrix(0.26970778,0,0,0.26970778,-7.1289177,220.56049)" style="opacity:0.2;filter:url(#filter920)"/>
  <path d="m 43.837442,232.42763 c 19.593904,0 22.394169,2.79326 22.394172,22.36889 v 15.67677 c 0,19.57555 -2.800271,22.36889 -22.394172,22.36889 H 23.895917 c -19.5939042,0 -22.3941728,-2.79334 -22.3941728,-22.36889 l 5e-7,-15.67677 c 8e-7,-19.57563 2.8002679,-22.36889 22.3941743,-22.36889 z" style="fill:#53c0ff"/>
  <path style="opacity:0.4;fill:none;stroke:url(#linearGradient1108);stroke-width:8;stroke-linecap:round;stroke-linejoin:round" d="M 361.9375,-212 C 507.2348,-212 528,-191.28677 528,-46.125 V 70.125 C 528,215.28618 507.2348,236 361.9375,236 H 214.0625 C 68.7652,236 48,215.28618 48,70.125 V -46.125 C 48,-191.28677 68.7652,-212 214.0625,-212 Z" clip-path="url(#clipPath1082-3-92)" transform="matrix(0.13485389,0,0,0.13485389,-4.9712557,261.01666)"/>
  <path d="m 2.1148954,243.82542 c -0.4622048,2.89126 -0.6131636,6.48639 -0.6131639,10.9711 v 15.67677 c 0,19.57554 2.8002707,22.36888 22.3941745,22.36888 h 19.94152 c 14.587924,0 19.86448,-1.55409 21.60981,-10.42378 z" style="opacity:0.05;fill:#ffffff"/>
  <g style="fill:#090000;filter:url(#filter923);opacity:0.3" transform="translate(-0.2856094,1.17452)">
   <path d="m 12.985622,264.10621 v 18.52085 h 18.520834 v -18.52085 z m 2.645835,2.64585 h 13.229164 v 13.22915 H 15.631457 Z" style="fill:#090000"/>
   <path d="m 36.798121,264.10621 v 18.52085 h 18.520834 v -18.52085 z m 2.645835,2.64585 h 13.229165 v 13.22915 H 39.443956 Z" style="fill:#090000"/>
   <path d="m 12.985622,240.29371 v 18.52085 h 18.520834 v -18.52085 z m 2.645835,2.64585 h 13.229164 v 13.22915 H 15.631457 Z" style="fill:#090000"/>
   <path d="m 36.798121,240.29371 v 18.52085 h 18.520834 v -18.52085 z m 2.645835,2.64585 h 13.229165 v 13.22915 H 39.443956 Z" style="fill:#090000"/>
  </g>
  <g transform="translate(-0.2856094,1.17452)">
   <path style="fill:#ffffff" d="m 12.985622,264.10621 v 18.52085 h 18.520834 v -18.52085 z m 2.645835,2.64585 h 13.229164 v 13.22915 H 15.631457 Z"/>
   <path style="fill:#ffffff" d="m 36.798121,264.10621 v 18.52085 h 18.520834 v -18.52085 z m 2.645835,2.64585 h 13.229165 v 13.22915 H 39.443956 Z"/>
   <path style="fill:#ffffff" d="m 12.985622,240.29371 v 18.52085 h 18.520834 v -18.52085 z m 2.645835,2.64585 h 13.229164 v 13.22915 H 15.631457 Z"/>
   <path style="fill:#ffffff" d="m 36.798121,240.29371 v 18.52085 h 18.520834 v -18.52085 z m 2.645835,2.64585 h 13.229165 v 13.22915 H 39.443956 Z"/>
  </g>
 </g>
</svg>
