<svg width="256" height="256" version="1.1" viewBox="0 0 67.73 67.73" xmlns="http://www.w3.org/2000/svg" xmlns:xlink="http://www.w3.org/1999/xlink">
 <defs>
  <linearGradient id="linearGradient1108" x1="296" x2="296" y1="-212" y2="236" gradientUnits="userSpaceOnUse">
   <stop style="stop-color:#ffffff" offset="0"/>
   <stop style="stop-color:#ffffff;stop-opacity:.09803922" offset=".125"/>
   <stop style="stop-color:#000000;stop-opacity:.09803922" offset=".925"/>
   <stop style="stop-color:#000000;stop-opacity:.49803922" offset="1"/>
  </linearGradient>
  <clipPath id="clipPath1082-3-361">
   <path d="M 361.9375,-212 C 507.2348,-212 528,-191.28677 528,-46.125 V 70.125 C 528,215.28618 507.2348,236 361.9375,236 H 214.0625 C 68.7652,236 48,215.28618 48,70.125 V -46.125 C 48,-191.28677 68.7652,-212 214.0625,-212 Z" style="fill:#8c59d9"/>
  </clipPath>
  <filter id="filter4569" x="-.01" y="-.01" width="1.023" height="1.025" style="color-interpolation-filters:sRGB">
   <feGaussianBlur stdDeviation="1.16"/>
  </filter>
  <filter id="filter939" x="-.02" y="-.03" width="1.046" height="1.05" style="color-interpolation-filters:sRGB">
   <feGaussianBlur stdDeviation="2.32"/>
  </filter>
  <radialGradient id="radialGradient2195" cx="31.272" cy="247.711" r="32.365" gradientTransform="matrix(2.4039791 -.66748142 .37889165 1.3646038 -137.76082 -68.447972)" gradientUnits="userSpaceOnUse">
   <stop stop-color="#0796d6" offset="0"/>
   <stop stop-color="#4987ce" offset="1"/>
  </radialGradient>
  <radialGradient id="radialGradient963" cx="31.272" cy="247.711" r="32.365" gradientTransform="matrix(2.4039791 -.66748142 .37889165 1.3646038 -137.76082 -68.447972)" gradientUnits="userSpaceOnUse">
   <stop stop-color="#0a34ff" stop-opacity="0" offset="0"/>
   <stop stop-color="#ffff0d" stop-opacity=".24" offset="1"/>
  </radialGradient>
 </defs>
 <g transform="translate(0,-229.26666)">
  <path transform="matrix(.26970779 0 0 .26970779 -1.9098094e-8 231.46531)" d="m162.53675 5.5680001c72.64865 0 83.03125 10.356615 83.03125 82.937505v58.125005c0 72.58059-10.3826 82.9375-83.03125 82.9375h-73.937496c-72.648654 0-83.031254-10.35691-83.031254-82.9375v-58.125005c0-72.58089 10.3826-82.937505 83.031254-82.937505z" style="filter:url(#filter939);opacity:.2"/>
  <path d="m43.837429 232.42763c19.593907 0 22.394176 2.79326 22.394176 22.36889v15.67677c0 19.57555-2.800269 22.36889-22.394176 22.36889h-19.941519c-19.593909 0-22.394177-2.79334-22.394177-22.36889v-15.67677c0-19.57563 2.8002682-22.36889 22.394177-22.36889z" style="fill:none;opacity:.1;stroke-linecap:round;stroke-linejoin:round;stroke-width:1.0788311;stroke:#000000"/>
  <path transform="matrix(.26970779 0 0 .26970779 -1.9098094e-8 231.46531)" d="m162.53675 3.5680001c72.64865 0 83.03125 10.356615 83.03125 82.937505v58.125005c0 72.58059-10.3826 82.9375-83.03125 82.9375h-73.937496c-72.648654 0-83.031254-10.35691-83.031254-82.9375v-58.125005c0-72.58089 10.3826-82.937505 83.031254-82.937505z" style="filter:url(#filter4569);opacity:.1"/>
  <path d="m43.837427 232.42763c19.593907 0 22.394175 2.79326 22.394175 22.36889v15.67677c0 19.57555-2.800268 22.36889-22.394175 22.36889h-19.94152c-19.593907 0-22.394176-2.79334-22.394176-22.36889v-15.67677c0-19.57563 2.8002682-22.36889 22.394176-22.36889z" style="fill:url(#radialGradient2195)"/>
  <path transform="matrix(.1348539 0 0 .1348539 -4.9712559 261.01666)" d="M 361.9375,-212 C 507.2348,-212 528,-191.28677 528,-46.125 V 70.125 C 528,215.28618 507.2348,236 361.9375,236 H 214.0625 C 68.7652,236 48,215.28618 48,70.125 V -46.125 C 48,-191.28677 68.7652,-212 214.0625,-212 Z" clip-path="url(#clipPath1082-3-361)" style="fill:none;opacity:.4;stroke-linecap:round;stroke-linejoin:round;stroke-width:8;stroke:url(#linearGradient1108)"/>
  <path d="m33.866666 232.42763v60.41455h9.970761c19.593907 0 22.394175-2.79334 22.394175-22.36889v-15.67677c0-19.57563-2.800268-22.36889-22.394175-22.36889z" style="fill:#ffffff;opacity:.1"/>
  <path d="m23.895907 292.84218c-19.593907 0-22.394176-2.77743-22.394176-22.24215v-7.79398h64.729871v7.79398c0 19.46472-2.800268 22.24215-22.394175 22.24215z" style="fill:#ffffff;opacity:.1"/>
  <path d="m43.837427 232.42763c19.593907 0 22.394175 2.79326 22.394175 22.36889v15.67677c0 19.57555-2.800268 22.36889-22.394175 22.36889h-19.94152c-19.593907 0-22.394176-2.79334-22.394176-22.36889v-15.67677c0-19.57563 2.8002682-22.36889 22.394176-22.36889z" style="fill:url(#radialGradient963)"/>
  <g transform="matrix(.3683471 0 0 .3683471 10.026762 238.96618)">
   <path d="m50.107 12.689-10.146 27.89h-3e-3l-17.248 47.377h11.482l14.665-40.26h8.63l-14.666 40.26 11.476 3e-3 13.668-37.559c1.967-5.4-1.128-9.82-6.87-9.82h-9.651l10.666-29.31c-3.563-0.379-9.358 0.422-12.004 1.42zm30.072 27.89-17.734 48.732h-8e-3l-9.948 27.336a54.171 54.171 0 0 0 10.955 1.482l10.978-30.173h15.235c2.675 0 5.61-2.056 6.524-4.567l12.01-32.99c1.965-5.402-1.127-9.82-6.875-9.82zm8.931 7.09h8.627l-12.08 33.144h-8.626z" display="block" overflow="visible" style="display:block;fill-opacity:.194"/>
   <path d="m48.055 11.899-10.147 27.89h-3e-3l-17.245 47.377h11.48l14.666-40.26h8.63l-14.666 40.261 11.476 3e-3 13.666-37.56c1.967-5.4-1.127-9.82-6.87-9.82h-9.65l10.666-29.31c-3.562-0.379-9.357 0.422-12.003 1.42zm30.072 27.89-17.734 48.732h-8e-3l-9.948 27.336a54.172 54.172 0 0 0 10.954 1.482l10.979-30.173h15.236c2.674 0 5.61-2.056 6.524-4.567l12.01-32.99c1.965-5.402-1.128-9.82-6.875-9.82zm8.931 7.09h8.627l-12.08 33.144h-8.627z" display="block" overflow="visible" style="display:block;fill:#ffffff"/>
  </g>
 </g>
</svg>
