<svg width="256" height="256" version="1.1" viewBox="0 0 67.73 67.73" xmlns="http://www.w3.org/2000/svg" xmlns:xlink="http://www.w3.org/1999/xlink">
 <defs>
  <linearGradient id="linearGradient1108" x1="296" x2="296" y1="-212" y2="236" gradientUnits="userSpaceOnUse">
   <stop style="stop-color:#ffffff" offset="0"/>
   <stop style="stop-color:#ffffff;stop-opacity:.09803922" offset=".125"/>
   <stop style="stop-color:#000000;stop-opacity:.09803922" offset=".925"/>
   <stop style="stop-color:#000000;stop-opacity:.49803922" offset="1"/>
  </linearGradient>
  <clipPath id="clipPath1082-3-361">
   <path d="M 361.9375,-212 C 507.2348,-212 528,-191.28677 528,-46.125 V 70.125 C 528,215.28618 507.2348,236 361.9375,236 H 214.0625 C 68.7652,236 48,215.28618 48,70.125 V -46.125 C 48,-191.28677 68.7652,-212 214.0625,-212 Z" style="fill:#8c59d9"/>
  </clipPath>
  <filter id="filter4569" x="-.01" y="-.01" width="1.023" height="1.025" style="color-interpolation-filters:sRGB">
   <feGaussianBlur stdDeviation="1.16"/>
  </filter>
  <filter id="filter939" x="-.02" y="-.03" width="1.046" height="1.05" style="color-interpolation-filters:sRGB">
   <feGaussianBlur stdDeviation="2.32"/>
  </filter>
  <linearGradient id="linearGradient954" x1="7.5" x2="64.112" y1="230.789" y2="294.501" gradientTransform="matrix(1.0193681,0,0,1.0193681,0,-5.7113166)" gradientUnits="userSpaceOnUse">
   <stop style="stop-color:#1c1c1c" offset="0"/>
   <stop style="stop-color:#555555" offset="1"/>
  </linearGradient>
  <linearGradient id="linearGradient4227" x1="29.625" x2="29.625" y1="43.125" y2="15.25" gradientTransform="matrix(1.2985646,0,0,1.1760865,-4.354181,223.02087)" gradientUnits="userSpaceOnUse">
   <stop style="stop-color:#5c86c9" offset="0"/>
   <stop style="stop-color:#70fcc5" offset="1"/>
  </linearGradient>
  <linearGradient id="linearGradient4324" x1="29" x2="29" y1="33.133" y2="53.18" gradientTransform="matrix(1.1760865,0,0,1.1760865,-3.803028,222.73499)" gradientUnits="userSpaceOnUse">
   <stop style="stop-color:#00547b" offset="0"/>
   <stop style="stop-color:#11415b;stop-opacity:0" offset="1"/>
  </linearGradient>
 </defs>
 <g transform="translate(0,-229.26666)">
  <path transform="matrix(.26970779 0 0 .26970779 -1.9098094e-8 231.46531)" d="m162.53675 5.5680001c72.64865 0 83.03125 10.356615 83.03125 82.937505v58.125005c0 72.58059-10.3826 82.9375-83.03125 82.9375h-73.937496c-72.648654 0-83.031254-10.35691-83.031254-82.9375v-58.125005c0-72.58089 10.3826-82.937505 83.031254-82.937505z" style="filter:url(#filter939);opacity:.2"/>
  <path d="m43.837429 232.42763c19.593907 0 22.394176 2.79326 22.394176 22.36889v15.67677c0 19.57555-2.800269 22.36889-22.394176 22.36889h-19.941519c-19.593909 0-22.394177-2.79334-22.394177-22.36889v-15.67677c0-19.57563 2.8002682-22.36889 22.394177-22.36889z" style="fill:none;opacity:.1;stroke-linecap:round;stroke-linejoin:round;stroke-width:1.0788311;stroke:#000000"/>
  <path transform="matrix(.26970779 0 0 .26970779 -1.9098094e-8 231.46531)" d="m162.53675 3.5680001c72.64865 0 83.03125 10.356615 83.03125 82.937505v58.125005c0 72.58059-10.3826 82.9375-83.03125 82.9375h-73.937496c-72.648654 0-83.031254-10.35691-83.031254-82.9375v-58.125005c0-72.58089 10.3826-82.937505 83.031254-82.937505z" style="filter:url(#filter4569);opacity:.1"/>
  <path d="m43.837427 232.42763c19.593907 0 22.394175 2.79326 22.394175 22.36889v15.67677c0 19.57555-2.800268 22.36889-22.394175 22.36889h-19.94152c-19.593907 0-22.394176-2.79334-22.394176-22.36889v-15.67677c0-19.57563 2.8002682-22.36889 22.394176-22.36889z" style="fill:url(#linearGradient954)"/>
  <path d="m29.313455 241.5432c-0.970701 0-0.22231 18.65919-2.55661 26.54922 0-2.78146-3.509882-3.1791-3.509882-3.1791-4.131854 0-4.872032-4.41261-4.872032-4.41261 0 5.28359-3.330712 5.22577-3.330712 5.22577h-13.554858v23.4574c0 1.95467 1.5736039 3.52828 3.5282592 3.52828h57.628242c1.954651 0 3.528255-1.57361 3.528255-3.52828v-23.2369c-2.069585 0-3.937134-1.91113-3.937134-1.91113-1.217405-1.21285-1.642025-2.13166-2.7174-2.13166s-1.421871 1.3231-1.421871 1.3231-0.617764 2.40731-2.738076 2.40731c-2.120314 0-3.307745-3.32614-3.307742-3.32614 0 0-1.451221-3.65689-4.038205-3.65689-2.586985 0-4.077253 3.69366-4.077253 3.69366-1.095663 4.7411-6.980717 2.94022-6.980717 2.94022-3.652213-0.36753-3.330249 3.61704-4.543554 7.71808-1.988429-16.28147-2.12801-31.46033-3.09871-31.46033z" style="fill-rule:evenodd;fill:url(#linearGradient4324)"/>
  <path d="m1.4893589 266.35374h13.931196s3.41339-0.73991 3.41339-3.48761c0 0 0.713187 2.65665 4.467614 2.65665 0 0 2.539661 0.0482 2.566618 2.96581 0.713683 0.33991 1.754404 0.10461 1.754404 0.10461 3.214896-11.33731 0.695068-23.67597 1.637874-23.78532 0.964246-0.11185-4.17e-4 15.92999 2.288288 28.85371 0.03444-0.11866 1.790096 0.0641 1.826635-0.053 1.699394-5.44739 0.841242-8.4532 4.174129-7.53956 0 0 6.20763 1.20367 7.303293-3.62917 0 0 1.464361-3.29793 3.080823-3.29793 2.317394 0 3.768135 4.52458 3.768135 4.52458s1.456557 2.56604 3.576871 2.56604c2.120318 0 3.440095-2.12409 3.440095-2.12409s0.452769-1.67847 0.77329-1.67847c0.563153 0 1.366669 1.18392 2.584075 2.4202 0 0 2.028443 1.72828 4.098028 1.72828" style="fill:none;opacity:.15;stroke-linejoin:round;stroke-width:.62800735;stroke:#000000"/>
  <path d="m1.4893612 265.72752h13.55377s3.332515 0.056 3.332515-5.22769c0 0 0.740144 4.41249 4.871998 4.41249 0 0 3.510181 0.39765 3.510181 3.17912 2.334295-7.89005 1.585849-26.54721 2.556549-26.54721s1.108632 15.17887 3.097061 31.46031c1.2133-4.10101 0.892761-8.0856 4.544976-7.71805 0 0 5.884121 1.80088 6.979784-2.94023 0 0 1.49132-3.69365 4.078306-3.69365 2.586983 0 4.037725 3.6569 4.037725 3.6569s1.186969 3.32611 3.307282 3.32611c2.120314 0 2.739157-2.4073 2.739157-2.4073s0.344933-1.32311 1.420308-1.32311 1.501467 0.91885 2.718872 2.13167c0 0 1.866687 1.91114 3.936272 1.91114" style="fill:none;stroke-linejoin:round;stroke-width:.62800735;stroke:url(#linearGradient4227)"/>
  <path transform="matrix(.1348539 0 0 .1348539 -4.9712559 261.01666)" d="M 361.9375,-212 C 507.2348,-212 528,-191.28677 528,-46.125 V 70.125 C 528,215.28618 507.2348,236 361.9375,236 H 214.0625 C 68.7652,236 48,215.28618 48,70.125 V -46.125 C 48,-191.28677 68.7652,-212 214.0625,-212 Z" clip-path="url(#clipPath1082-3-361)" style="fill:none;opacity:.4;stroke-linecap:round;stroke-linejoin:round;stroke-width:8;stroke:url(#linearGradient1108)"/>
 </g>
</svg>
