<svg xmlns="http://www.w3.org/2000/svg" xmlns:xlink="http://www.w3.org/1999/xlink" width="256" height="256" version="1.1" viewBox="0 0 67.73 67.73">
 <defs>
  <linearGradient id="linearGradient3650-7-9">
   <stop style="stop-color:#5884f4" offset="0"/>
   <stop offset="1" style="stop-color:#80a3fa"/>
  </linearGradient>
  <linearGradient id="linearGradient1108" x1="296" x2="296" y1="-212" y2="236" gradientUnits="userSpaceOnUse" xlink:href="#linearGradient1013"/>
  <linearGradient id="linearGradient1013">
   <stop offset="0" style="stop-color:#ffffff"/>
   <stop style="stop-color:#ffffff;stop-opacity:0.09803922" offset=".125"/>
   <stop style="stop-color:#000000;stop-opacity:0.09803922" offset=".925"/>
   <stop offset="1" style="stop-color:#000000;stop-opacity:0.49803922"/>
  </linearGradient>
  <clipPath id="clipPath1082-3-361" clipPathUnits="userSpaceOnUse">
   <path d="M 361.9375,-212 C 507.2348,-212 528,-191.28677 528,-46.125 V 70.125 C 528,215.28618 507.2348,236 361.9375,236 H 214.0625 C 68.7652,236 48,215.28618 48,70.125 V -46.125 C 48,-191.28677 68.7652,-212 214.0625,-212 Z" style="fill:#8c59d9"/>
  </clipPath>
  <linearGradient id="linearGradient1044" x1="88" x2="256" y1="28" y2="284" gradientTransform="matrix(0.26970781,0,0,0.26970781,-7.1289179,220.5605)" gradientUnits="userSpaceOnUse" xlink:href="#linearGradient3650-7-9"/>
  <filter style="color-interpolation-filters:sRGB" id="filter4569" width="1.023" height="1.025" x="-.01" y="-.01">
   <feGaussianBlur stdDeviation="1.16"/>
  </filter>
  <filter style="color-interpolation-filters:sRGB" id="filter939" width="1.046" height="1.05" x="-.02" y="-.03">
   <feGaussianBlur stdDeviation="2.32"/>
  </filter>
  <filter style="color-interpolation-filters:sRGB" id="filter1685" width="1.095" height="1.097" x="-.05" y="-.05">
   <feGaussianBlur stdDeviation=".782"/>
  </filter>
 </defs>
 <g transform="translate(0,-229.26666)">
  <path style="opacity:0.2;filter:url(#filter939)" d="m 162.53675,5.5680001 c 72.64865,0 83.03125,10.3566149 83.03125,82.9375049 v 58.125005 c 0,72.58059 -10.3826,82.9375 -83.03125,82.9375 H 88.599254 C 15.9506,229.56801 5.568,219.2111 5.568,146.63051 V 88.505505 c 0,-72.58089 10.3826,-82.9375049 83.031254,-82.9375049 z" transform="matrix(0.26970779,0,0,0.26970779,-1.9098094e-8,231.46531)"/>
  <path d="m 43.837429,232.42763 c 19.593907,0 22.394176,2.79326 22.394176,22.36889 v 15.67677 c 0,19.57555 -2.800269,22.36889 -22.394176,22.36889 H 23.89591 c -19.5939088,0 -22.394177,-2.79334 -22.394177,-22.36889 v -15.67677 c 0,-19.57563 2.8002682,-22.36889 22.394177,-22.36889 z" style="opacity:0.1;fill:none;stroke:#000000;stroke-width:1.07883108;stroke-linecap:round;stroke-linejoin:round"/>
  <path d="m 162.53675,3.5680001 c 72.64865,0 83.03125,10.3566149 83.03125,82.9375049 v 58.125005 c 0,72.58059 -10.3826,82.9375 -83.03125,82.9375 H 88.599254 C 15.9506,227.56801 5.568,217.2111 5.568,144.63051 V 86.505505 c 0,-72.58089 10.3826,-82.9375049 83.031254,-82.9375049 z" transform="matrix(0.26970779,0,0,0.26970779,-1.9098094e-8,231.46531)" style="opacity:0.1;filter:url(#filter4569)"/>
  <path style="fill:url(#linearGradient1044)" d="m 43.837427,232.42763 c 19.593907,0 22.394175,2.79326 22.394175,22.36889 v 15.67677 c 0,19.57555 -2.800268,22.36889 -22.394175,22.36889 h -19.94152 c -19.5939074,0 -22.3941756,-2.79334 -22.3941756,-22.36889 v -15.67677 c 0,-19.57563 2.8002682,-22.36889 22.3941756,-22.36889 z"/>
  <path d="M 361.9375,-212 C 507.2348,-212 528,-191.28677 528,-46.125 V 70.125 C 528,215.28618 507.2348,236 361.9375,236 H 214.0625 C 68.7652,236 48,215.28618 48,70.125 V -46.125 C 48,-191.28677 68.7652,-212 214.0625,-212 Z" clip-path="url(#clipPath1082-3-361)" transform="matrix(0.1348539,0,0,0.1348539,-4.9712559,261.01666)" style="opacity:0.4;fill:none;stroke:url(#linearGradient1108);stroke-width:8;stroke-linecap:round;stroke-linejoin:round"/>
  <path style="opacity:0.1;fill:#ffffff" d="m 33.866666,232.42763 v 60.41455 h 9.970761 c 19.593907,0 22.394175,-2.79334 22.394175,-22.36889 v -15.67677 c 0,-19.57563 -2.800268,-22.36889 -22.394175,-22.36889 z"/>
  <path style="opacity:0.1;fill:#ffffff" d="m 23.895907,292.84218 c -19.5939074,0 -22.3941756,-2.64319 -22.3941756,-21.16712 v -7.41727 H 66.231602 v 7.41727 c 0,18.52393 -2.800268,21.16712 -22.394175,21.16712 z"/>
  <path d="m 45.775351,243.3725 c -0.951852,2.53838 -2.059918,4.97565 -3.329052,7.1966 H 30.863985 v 4.17765 h 4.124595 v 5.90336 c -1.6e-5,0.95172 -0.05368,1.6058 -0.159081,2.45186 h -4.096037 v 4.17768 h 3.777818 c -0.634421,5.60541 -2.801358,9.48939 -6.503072,12.23912 l 3.267859,2.37853 c 4.336379,-3.17314 6.872379,-7.84888 7.612748,-14.61765 h 6.466346 v 14.45848 h 4.177632 v -14.45848 h 4.177624 v -4.17768 h -4.177624 v -8.35522 h 4.177624 v -4.17765 h -7.935043 c 1.163352,-1.79795 2.328813,-3.91926 3.492235,-6.246 z m -9.517978,0.47289 -3.174021,0.95471 c 1.163249,1.48057 2.062104,3.17147 2.696691,5.07513 l 3.333132,-1.10969 c -0.6345,-1.79793 -1.586674,-3.4353 -2.855802,-4.91605 z m -15.968012,0.45711 v 6.26645 h -6.266444 v 4.17764 h 6.266444 v 8.27369 c -2.009524,0.84631 -3.93966,1.6916 -6.266444,2.53768 l 1.109683,3.33316 c 1.903744,-0.74054 3.464549,-1.47901 5.156761,-2.21938 v 9.99529 c -2.3e-5,1.26916 -0.234079,1.90121 -0.762867,1.90121 -1.480887,0 -2.700725,-0.20921 -4.075633,-0.63236 l 0.632368,3.32904 c 1.269332,0.31737 2.643907,0.47762 4.124596,0.47762 1.26903,0 2.894042,-0.31576 3.42288,-0.95058 0.528789,-0.63475 0.836344,-1.74664 0.836344,-3.33308 v -12.37382 l 4.459126,-2.22347 -0.477315,-2.85576 v -0.004 c -1.375105,0.63473 -2.606897,1.00997 -3.981804,1.75026 v -7.00485 h 4.177632 v -4.17764 h -4.177624 v -6.26645 z m 18.917644,10.44409 h 6.148133 v 8.35523 h -6.307237 c 0.105719,-0.74053 0.159082,-1.23829 0.159082,-1.97866 z" style="filter:url(#filter1685);opacity:0.3"/>
  <path style="fill:#ffffff" d="m 45.775351,243.3725 c -0.951852,2.53838 -2.059918,4.97565 -3.329052,7.1966 H 30.863985 v 4.17765 h 4.124595 v 5.90336 c -1.6e-5,0.95172 -0.05368,1.6058 -0.159081,2.45186 h -4.096037 v 4.17768 h 3.777818 c -0.634421,5.60541 -2.801358,9.48939 -6.503072,12.23912 l 3.267859,2.37853 c 4.336379,-3.17314 6.872379,-7.84888 7.612748,-14.61765 h 6.466346 v 14.45848 h 4.177632 v -14.45848 h 4.177624 v -4.17768 h -4.177624 v -8.35522 h 4.177624 v -4.17765 h -7.935043 c 1.163352,-1.79795 2.328813,-3.91926 3.492235,-6.246 z m -9.517978,0.47289 -3.174021,0.95471 c 1.163249,1.48057 2.062104,3.17147 2.696691,5.07513 l 3.333132,-1.10969 c -0.6345,-1.79793 -1.586674,-3.4353 -2.855802,-4.91605 z m -15.968012,0.45711 v 6.26645 h -6.266444 v 4.17764 h 6.266444 v 8.27369 c -2.009524,0.84631 -3.93966,1.6916 -6.266444,2.53768 l 1.109683,3.33316 c 1.903744,-0.74054 3.464549,-1.47901 5.156761,-2.21938 v 9.99529 c -2.3e-5,1.26916 -0.234079,1.90121 -0.762867,1.90121 -1.480887,0 -2.700725,-0.20921 -4.075633,-0.63236 l 0.632368,3.32904 c 1.269332,0.31737 2.643907,0.47762 4.124596,0.47762 1.26903,0 2.894042,-0.31576 3.42288,-0.95058 0.528789,-0.63475 0.836344,-1.74664 0.836344,-3.33308 v -12.37382 l 4.459126,-2.22347 -0.477315,-2.85576 v -0.004 c -1.375105,0.63473 -2.606897,1.00997 -3.981804,1.75026 v -7.00485 h 4.177632 v -4.17764 h -4.177624 v -6.26645 z m 18.917644,10.44409 h 6.148133 v 8.35523 h -6.307237 c 0.105719,-0.74053 0.159082,-1.23829 0.159082,-1.97866 z"/>
 </g>
</svg>
