<svg width="256" height="256" version="1.1" viewBox="0 0 67.73 67.73" xmlns="http://www.w3.org/2000/svg" xmlns:xlink="http://www.w3.org/1999/xlink">
 <defs>
  <linearGradient id="linearGradient1108" x1="296" x2="296" y1="-212" y2="236" gradientUnits="userSpaceOnUse">
   <stop style="stop-color:#ffffff" offset="0"/>
   <stop style="stop-color:#ffffff;stop-opacity:.09803922" offset=".125"/>
   <stop style="stop-color:#000000;stop-opacity:.09803922" offset=".925"/>
   <stop style="stop-color:#000000;stop-opacity:.49803922" offset="1"/>
  </linearGradient>
  <clipPath id="clipPath1082-3-1">
   <path d="M 361.9375,-212 C 507.2348,-212 528,-191.28677 528,-46.125 V 70.125 C 528,215.28618 507.2348,236 361.9375,236 H 214.0625 C 68.7652,236 48,215.28618 48,70.125 V -46.125 C 48,-191.28677 68.7652,-212 214.0625,-212 Z" style="fill:#8c59d9"/>
  </clipPath>
  <linearGradient id="linearGradient878" x1="32" x2="272" y1="156" y2="156" gradientTransform="matrix(.13229167 .22913589 -.22913589 .13229167 48.860062 207.78147)" gradientUnits="userSpaceOnUse">
   <stop style="stop-color:#1a7fd4" offset="0"/>
   <stop style="stop-color:#37a6e6" offset="1"/>
  </linearGradient>
  <filter id="filter4569" x="-.01" y="-.01" width="1.023" height="1.025" style="color-interpolation-filters:sRGB">
   <feGaussianBlur stdDeviation="1.16"/>
  </filter>
  <filter id="filter958" x="-.02" y="-.03" width="1.046" height="1.05" style="color-interpolation-filters:sRGB">
   <feGaussianBlur stdDeviation="2.32"/>
  </filter>
 </defs>
 <g transform="translate(0,-229.26666)">
  <path transform="matrix(.26458333 0 0 .26458333 -1.8735229e-8 232.67026)" d="m162.53675 5.5680001c72.64865 0 83.03125 10.356615 83.03125 82.937505v58.125005c0 72.58059-10.3826 82.9375-83.03125 82.9375h-73.937496c-72.648654 0-83.031254-10.35691-83.031254-82.9375v-58.125005c0-72.58089 10.3826-82.937505 83.031254-82.937505z" style="filter:url(#filter958);opacity:.2"/>
  <path transform="matrix(.26458333 0 0 .26458333 -1.8735229e-8 232.67026)" d="m162.53675 3.5680001c72.64865 0 83.03125 10.356615 83.03125 82.937505v58.125005c0 72.58059-10.3826 82.9375-83.03125 82.9375h-73.937496c-72.648654 0-83.031254-10.35691-83.031254-82.9375v-58.125005c0-72.58089 10.3826-82.937505 83.031254-82.937505z" style="filter:url(#filter4569);opacity:.1"/>
  <path d="m43.004507 233.6143c19.22162 0 21.968685 2.74019 21.968685 21.94388v15.37891c-2e-6 19.20361-2.747065 21.94388-21.968685 21.94388h-19.562632c-19.22162 0-21.968683-2.74027-21.968682-21.94388l-1e-6 -15.37891c0-19.20369 2.747064-21.94388 21.968686-21.94388z" style="fill:url(#linearGradient878)"/>
  <path d="m33.222988 243.40339c-1.427088-0.0159-1.926269 0.0371-2.127001 1.76268l-0.07648 0.60978c-0.176141 1.11915-0.209815 1.62591-1.268659 1.90015-0.07095 0.0159-0.141787 0.0318-0.212389 0.0486-0.0167 3e-3 -0.03145 7e-3 -0.04858 0.0108l0.0021 5.3e-4c-0.267325 0.0645-0.531789 0.13611-0.79375 0.21394l0.0026-3e-3c-0.04375 0.0149-0.08362 0.0269-0.125054 0.0398-0.03965 0.0121-0.07934 0.0238-0.118856 0.0362-1.064014 0.29848-1.345515-0.12372-2.060339-1.00821l-0.371554-0.48989c-0.518314-0.69701-0.891604-0.9945-1.289325-1.02681-0.04971-4e-3 -0.100097-4e-3 -0.150897 0-0.355574 0.0279-0.745377 0.24612-1.282608 0.5643-1.243827 0.6998-1.649608 0.99476-0.960665 2.58951l0.238228 0.56637c0.438248 1.13838 0.666308 1.57885-0.344683 2.46187l0.02687-6e-3c-0.208958 0.19806-0.412232 0.40185-0.610301 0.61081l0.0057-0.0269c-0.883018 1.01099-1.323485 0.78293-2.461865 0.34468l-0.566357-0.23874c-0.498359-0.2153-0.869804-0.32352-1.166337-0.3328-0.652374-0.0204-0.942055 0.43833-1.423169 1.29346-0.727286 1.22796-0.931514 1.68673 0.462504 2.72335l0.489893 0.37156c0.884483 0.71482 1.306687 0.99632 1.008207 2.06034-0.01243 0.0395-0.02404 0.0792-0.03617 0.11885-0.01295 0.0414-0.02432 0.0813-0.03927 0.12506l0.0026-3e-3c-0.07783 0.26196-0.149449 0.52643-0.21394 0.79375l-5.29e-4 -2e-3c-0.0034 0.0171-0.0074 0.0319-0.01085 0.0486-0.01681 0.0706-0.03272 0.14144-0.04858 0.21239-0.274231 1.05885-0.780998 1.09252-1.900142 1.26866l-0.609782 0.0765c-1.725565 0.20073-1.778551 0.69992-1.762683 2.127-0.01587 1.42709 0.03712 1.92627 1.762683 2.127l0.609782 0.0765c1.119142 0.17614 1.625913 0.20982 1.900142 1.26866 0.01586 0.071 0.03177 0.14179 0.04858 0.21239 0.0034 0.0167 0.0075 0.0314 0.01085 0.0486l5.29e-4 -2e-3c0.06449 0.26733 0.13611 0.53179 0.21394 0.79375l-0.0031-3e-3c0.01495 0.0437 0.02685 0.0836 0.03979 0.12505 0.01212 0.0396 0.02374 0.0793 0.03617 0.11886 0.298479 1.06401-0.123724 1.34552-1.008207 2.06034l-0.489893 0.37155c-1.394017 1.03662-1.189789 1.49487-0.462504 2.72283 0.6998 1.24383 0.994756 1.64961 2.589506 0.96067l0.566374-0.23823c1.138377-0.43825 1.578846-0.66631 2.461864 0.34468l-0.0062-0.0269c0.198062 0.20896 0.40186 0.41224 0.610817 0.6103l-0.02687-6e-3c1.010992 0.88302 0.782931 1.32349 0.344683 2.46187l-0.238746 0.56637c-0.688944 1.59475-0.283163 1.89022 0.960665 2.59002 1.227957 0.72729 1.686724 0.931 2.723348-0.46302l0.371554-0.48989c0.714821-0.88449 0.996328-1.30669 2.060339-1.00821 0.03952 0.0124 0.07921 0.024 0.118856 0.0362 0.04143 0.0129 0.0813 0.0248 0.125055 0.0398l-0.0026-3e-3c0.261962 0.0778 0.526426 0.14945 0.79375 0.21394l-0.0021 5.3e-4c0.01712 3e-3 0.03189 7e-3 0.04858 0.0109 0.0706 0.0168 0.141436 0.0327 0.212389 0.0486 1.058844 0.27424 1.092515 0.78101 1.268659 1.90015l0.07648 0.60978c0.200732 1.72556 0.699913 1.77855 2.127002 1.76268 1.427085 0.0159 1.926269-0.0371 2.127001-1.76268l0.07648-0.60978c0.176149-1.11915 0.209812-1.62592 1.268661-1.90015 0.07095-0.0159 0.14179-0.0318 0.212389-0.0486 0.01669-3e-3 0.03145-7e-3 0.04858-0.0109l-0.0021-5.3e-4c0.267327-0.0645 0.531786-0.13611 0.79375-0.21394l-0.0026 3e-3c0.04375-0.0149 0.08362-0.0269 0.125056-0.0398 0.03965-0.0121 0.07934-0.0237 0.118856-0.0362 1.064014-0.29847 1.345517 0.12372 2.060339 1.00821l0.371555 0.48989c1.036621 1.39402 1.494869 1.18979 2.722829 0.4625 1.243828-0.69979 1.649611-0.99475 0.960665-2.5895l-0.238228-0.56637c-0.438258-1.13837-0.666308-1.57885 0.344684-2.46187l-0.02687 6e-3c0.208963-0.19806 0.412242-0.40186 0.610304-0.61082l-0.0057 0.0269c0.883021-1.01099 1.323488-0.78294 2.461869-0.34468l0.56637 0.23874c1.594752 0.68894 1.889701 0.28316 2.589506-0.96066 0.727286-1.22796 0.931518-1.68673-0.462503-2.72335l-0.489891-0.37156c-0.884487-0.71482-1.306688-0.99632-1.008208-2.06034 0.01244-0.0395 0.02402-0.0792 0.03617-0.11885 0.01294-0.0414 0.02434-0.0813 0.03927-0.12506l-0.0026 3e-3c0.07783-0.26196 0.14945-0.52642 0.213942-0.79375l5.3e-4 2e-3c0.0034-0.0171 0.0074-0.0319 0.01085-0.0486 0.0168-0.0706 0.03272-0.14143 0.04858-0.21239 0.274232-1.05884 0.780997-1.09252 1.900142-1.26866l0.609782-0.0765c1.725565-0.20073 1.778553-0.69991 1.762684-2.127 0.01587-1.42708-0.03712-1.92627-1.762684-2.127l-0.609782-0.0765c-1.119145-0.17615-1.62591-0.20981-1.900142-1.26866-0.01587-0.0709-0.03177-0.14179-0.04858-0.21239-0.0035-0.0167-0.0074-0.0315-0.01085-0.0486l-5.3e-4 2e-3c-0.06449-0.26733-0.136107-0.53179-0.213942-0.79375l0.0031 3e-3c-0.01495-0.0438-0.02686-0.0836-0.03979-0.12505-0.01212-0.0396-0.02373-0.0793-0.03617-0.11886-0.298479-1.06401 0.123724-1.34551 1.008205-2.06034l0.489895-0.37155c1.394018-1.03662 1.189789-1.49487 0.462502-2.72283-0.481113-0.85513-0.77079-1.31439-1.423167-1.29398-0.296529 9e-3 -0.667981 0.11802-1.166339 0.33331l-0.566373 0.23823c-1.138361 0.43826-1.578848 0.66631-2.461866-0.34468l0.0062 0.0269c-0.198059-0.20896-0.401857-0.41223-0.610817-0.6103l0.02687 6e-3c-1.010867-0.88302-0.782812-1.32349-0.344562-2.46187l0.238747-0.56637c0.688941-1.59475 0.283162-1.8897-0.960665-2.58951-0.613982-0.36364-1.035783-0.59661-1.433505-0.5643-0.397721 0.0323-0.771533 0.3298-1.289843 1.02681l-0.371555 0.48989c-0.714822 0.88448-0.996325 1.30669-2.060339 1.00821-0.03952-0.0125-0.07921-0.024-0.118856-0.0362-0.04144-0.0129-0.0813-0.0243-0.125056-0.0393l0.0026 3e-3c-0.261964-0.0778-0.526423-0.14945-0.79375-0.21394l0.0021-5.3e-4c-0.01712-3e-3 -0.03189-7e-3 -0.04858-0.0108-0.0706-0.0168-0.141436-0.0327-0.212389-0.0486-1.058846-0.27423-1.092511-0.781-1.268658-1.90014l-0.07648-0.60978c-0.200671-1.72557-0.699855-1.77856-2.126941-1.76269zm-0.0031 8.20053h0.0031c1.340197 8e-5 2.635467 0.23149 3.845761 0.65629a3.175 3.175 0 0 0 1.445905 1.82005 3.175 3.175 0 0 0 2.293917 0.34158c1.905886 1.63795 3.288723 3.89036 3.82044 6.49521 0.133991 0.65617-0.367435 1.27027-1.037148 1.27021h-3.275251c-0.468116 4e-5 -0.88066-0.30743-1.014409-0.75603-0.80277-2.69258-3.267233-4.53129-6.07663-4.53513-0.493585 3e-3 -0.985379 0.0623-1.465027 0.1788-0.456477 0.11086-0.931407-0.0924-1.166339-0.49919l-1.63504-2.83135c-0.334145-0.57907-0.05437-1.31905 0.579292-1.53221 1.186569-0.3994 2.429449-0.60479 3.681429-0.60823zm-6.960297 2.67116c0.360124 0.0169 0.686895 0.2159 0.867129 0.52813l1.635043 2.83135c0.234275 0.40573 0.173945 0.91721-0.148312 1.25729-1.114645 1.1765-1.737154 2.73362-1.740461 4.35426 0.0019 1.62155 0.623199 3.18013 1.737878 4.35787 0.322006 0.33999 0.382329 0.85116 0.148312 1.25677l-1.630391 2.82463c-0.334661 0.57971-1.116657 0.70709-1.61799 0.26355-1.946865-1.72165-3.242222-4.03182-3.720703-6.54585a3.175 3.175 0 0 0 0.849561-2.15749 3.175 3.175 0 0 0-0.850077-2.15646c0.477438-2.51517 1.771994-4.82665 3.719153-6.54947 0.206317-0.18255 0.475678-0.27747 0.750858-0.26458zm14.059599 10.02884h3.261818c0.669711-6e-5 1.171141 0.61404 1.037146 1.27021-0.531395 2.60331-1.912999 4.85483-3.81734 6.49263a3.175 3.175 0 0 0-0.773594-0.0801 3.175 3.175 0 0 0-1.51257 0.42426 3.175 3.175 0 0 0-1.442805 1.81539c-1.210631 0.42663-2.506709 0.65949-3.847826 0.66095h-0.0052c-1.25144-5e-3 -2.493741-0.21186-3.679365-0.61237-0.632915-0.21369-0.912043-0.95304-0.578258-1.53169l1.632458-2.82773c0.234932-0.40678 0.709859-0.61005 1.166337-0.4992 0.479959 0.1166 0.972153 0.17616 1.466061 0.1788 2.810222-3e-3 5.275691-1.84175 6.078699-4.53512 0.133749-0.4486 0.54629-0.75607 1.014407-0.75603z" style="fill-opacity:.30000001"/>
  <path transform="matrix(.13229167 0 0 .13229167 -4.876802 261.66013)" d="M 361.9375,-212 C 507.2348,-212 528,-191.28677 528,-46.125 V 70.125 C 528,215.28618 507.2348,236 361.9375,236 H 214.0625 C 68.7652,236 48,215.28618 48,70.125 V -46.125 C 48,-191.28677 68.7652,-212 214.0625,-212 Z" clip-path="url(#clipPath1082-3-1)" style="fill:none;opacity:.4;stroke-linecap:round;stroke-linejoin:round;stroke-width:8;stroke:url(#linearGradient1108)"/>
  <path d="m40.027224 249.7446a1.5875 1.5875 0 0 0-1.299662 0.7922 1.5875 1.5875 0 0 0 0.580842 2.16835 1.5875 1.5875 0 0 0 2.168343-0.58085 1.5875 1.5875 0 0 0-0.580843-2.16886 1.5875 1.5875 0 0 0-0.86868-0.21084zm-20.562568 11.91349a1.5875 1.5875 0 0 0-1.5875 1.5875 1.5875 1.5875 0 0 0 1.5875 1.5875 1.5875 1.5875 0 0 0 1.5875-1.5875 1.5875 1.5875 0 0 0-1.5875-1.5875zm20.600293 11.91555a1.5875 1.5875 0 0 0-0.756545 0.21239 1.5875 1.5875 0 0 0-0.580842 2.16834 1.5875 1.5875 0 0 0 2.168342 0.58085 1.5875 1.5875 0 0 0 0.580843-2.16835 1.5875 1.5875 0 0 0-1.411798-0.79323z" style="fill-opacity:.30000001"/>
  <path d="m33.223194 243.40388a4.6691246 4.6691246 0 0 0-4.669118 4.66907 4.6691246 4.6691246 0 0 0 4.669118 4.66915 4.6691246 4.6691246 0 0 0 4.669129-4.66915 4.6691246 4.6691246 0 0 0-4.669129-4.66907zm-9.338246 14.00737v4.66907h4.669128v16.34199h-4.669128v4.66907h18.676502v-4.66907h-4.669127v-21.01106z" style="fill:#ffffff"/>
 </g>
</svg>
