<svg width="256" height="256" style="enable-background:new" version="1.0" xmlns="http://www.w3.org/2000/svg" xmlns:xlink="http://www.w3.org/1999/xlink">
 <defs>
  <filter id="filter925" x="-.02" y="-.03" width="1.046" height="1.05" style="color-interpolation-filters:sRGB">
   <feGaussianBlur stdDeviation="2.32"/>
  </filter>
  <filter id="filter931" x="-.01" y="-.01" width="1.023" height="1.025" style="color-interpolation-filters:sRGB">
   <feGaussianBlur stdDeviation="1.16"/>
  </filter>
  <linearGradient id="linearGradient3014" x1="9.963" x2="-11.264" y1="-81.17" y2="-54.92" gradientTransform="matrix(6.2204257,0,0,6.2204257,-269.12697,717.02433)" gradientUnits="userSpaceOnUse">
   <stop style="stop-color:#00007a" offset="0"/>
   <stop style="stop-color:#3737ae" offset="1"/>
  </linearGradient>
  <linearGradient id="linearGradient1596" x1="-8.876" x2="25.906" y1="-83.973" y2="-79.973" gradientTransform="matrix(6.2204257,0,0,6.2204257,-269.12697,717.02433)" gradientUnits="userSpaceOnUse">
   <stop style="stop-color:#ffdb00" offset="0"/>
   <stop style="stop-color:#fff077" offset="1"/>
  </linearGradient>
  <linearGradient id="linearGradient1598" x1="-6.738" x2="-9.462" y1="-65.729" y2="-104.317" gradientTransform="matrix(6.2204257,0,0,6.2204257,-269.12697,717.02433)" gradientUnits="userSpaceOnUse">
   <stop style="stop-color:#ed2200" offset="0"/>
   <stop style="stop-color:#fe674e" offset="1"/>
  </linearGradient>
  <linearGradient id="linearGradient1108" x1="296" x2="296" y1="-212" y2="236" gradientUnits="userSpaceOnUse">
   <stop style="stop-color:#ffffff" offset="0"/>
   <stop style="stop-color:#ffffff;stop-opacity:.09803922" offset=".125"/>
   <stop style="stop-color:#000000;stop-opacity:.09803922" offset=".925"/>
   <stop style="stop-color:#000000;stop-opacity:.49803922" offset="1"/>
  </linearGradient>
  <clipPath id="clipPath1082-3-6">
   <path d="M 361.9375,-212 C 507.2348,-212 528,-191.28677 528,-46.125 V 70.125 C 528,215.28618 507.2348,236 361.9375,236 H 214.0625 C 68.7652,236 48,215.28618 48,70.125 V -46.125 C 48,-191.28677 68.7652,-212 214.0625,-212 Z" style="fill:#8c59d9"/>
  </clipPath>
 </defs>
 <g transform="translate(0,-44)">
  <path d="m162.53675 62.431991c72.64865 0 83.03125 10.356615 83.03125 82.937499v58.125c0 72.58059-10.3826 82.9375-83.03125 82.9375h-73.9375c-72.64865 0-83.03125-10.35691-83.03125-82.9375v-58.125c0-72.580884 10.3826-82.937499 83.03125-82.937499z" style="filter:url(#filter925);opacity:.2"/>
  <path d="m162.53675 61.431991c72.64865 0 83.03125 10.356615 83.03125 82.937499v58.125c0 72.58059-10.3826 82.9375-83.03125 82.9375h-73.9375c-72.64865 0-83.03125-10.35691-83.03125-82.9375v-58.125c0-72.580884 10.3826-82.937499 83.03125-82.937499z" style="filter:url(#filter931);opacity:.1"/>
 </g>
 <g transform="matrix(1.0666667,0,0,1.0666667,422.07846,-125.58981)">
  <path transform="matrix(.93749997 0 0 .93749997 -26.74869 24.259938)" d="m-167.76367 330.23828c0.217-0.13984 0.48285-0.24117 0.69531-0.38476 1.75604-1.18687 3.35682-2.50322 4.81641-3.96094 1.45959-1.45773 2.77832-3.05664 3.96679-4.81055 1.18848-1.7539 2.24677-3.66287 3.18946-5.73828s1.76994-4.31799 2.49218-6.74023c0.72225-2.42225 1.34007-5.02396 1.86719-7.81836 0.52713-2.79441 0.96297-5.78078 1.32031-8.97266 0.35735-3.19188 0.63672-6.58843 0.84961-10.20312 0.42579-7.22939 0.58789-15.32977 0.58789-24.40235v-58.125c0-9.07261-0.1621-17.17294-0.58789-24.40234-0.21289-3.61471-0.49226-7.01124-0.84961-10.20313-0.35734-3.19189-0.79318-6.1802-1.32031-8.97461-0.52712-2.7944-1.14494-5.39611-1.86719-7.81836-0.72224-2.42224-1.54949-4.66482-2.49218-6.74023s-2.00098-3.98243-3.18946-5.73633c-1.18847-1.7539-2.5072-3.35478-3.96679-4.8125s-3.06037-2.77212-4.81641-3.95898c-1.75604-1.18687-3.66631-2.24617-5.74414-3.1875-2.07783-0.94134-4.3231-1.7652-6.74805-2.48633-2.42494-0.72113-5.03073-1.33898-7.82812-1.86524-2.7974-0.52625-5.78724-0.96165-8.98242-1.31836-3.19519-0.3567-6.59459-0.63518-10.21289-0.84765-7.23661-0.42495-15.3447-0.58594-24.42579-0.58594h-72.65234c-6.84712 7.35828-12.59689 15.56571-16.39453 24.51758-15.12707 35.65809 11.5777 95.12606 52.0957 87.47656 21.14683-36.36629 76.40344-28.98614 99.72071 1.94336 20.65008 27.3916 19.5167 64.66093 4.08203 93.88867-1.10745 2.09711-2.36852 4.18144-3.60547 6.26758z" style="fill-rule:evenodd;fill:url(#linearGradient1596)"/>
  <path transform="matrix(.93749997 0 0 .93749997 -26.74869 24.259938)" d="m-298.95703 116.14453h-5.99024c-9.08108 0-17.18917 0.16099-24.42578 0.58594-3.6183 0.21247-7.01966 0.49095-10.21484 0.84765-3.19518 0.35671-6.18503 0.79211-8.98242 1.31836-2.7974 0.52626-5.40123 1.14411-7.82617 1.86524-2.42495 0.72113-4.67022 1.54499-6.74805 2.48633-2.07783 0.94133-3.9881 2.00063-5.74414 3.1875-1.75604 1.18686-3.35877 2.50126-4.81836 3.95898s-2.77637 3.0586-3.96485 4.8125c-1.18847 1.7539-2.24871 3.66092-3.1914 5.73633s-1.76799 4.31799-2.49024 6.74023c-0.72224 2.42225-1.34006 5.02396-1.86718 7.81836-0.52713 2.79441-0.96492 5.78272-1.32227 8.97461-0.35734 3.19189-0.63476 6.58842-0.84765 10.20313-0.4258 7.2294-0.5879 15.32973-0.5879 24.40234v58.125c0 9.07258 0.1621 17.17296 0.5879 24.40235 0.21289 3.61469 0.49031 7.01124 0.84765 10.20312 0.31269 2.79303 0.71477 5.36409 1.15625 7.85156 20.46983 14.76318 47.32155 23.80441 70.43945 20.96094 38.44442-4.72859 71.02203-59.8747 46.98438-92.48633-42.06751-0.13062-63.30287-51.67386-48.17578-87.33203 4.06484-9.58173 10.07418-17.71374 17.18164-24.66211z" style="fill-rule:evenodd;fill:url(#linearGradient1598)"/>
  <path transform="matrix(.93749997 0 0 .93749997 -26.74869 24.259938)" d="m-386.71875 289.70117c0.0673 0.67818 0.10184 1.45083 0.17578 2.11133 0.35735 3.19188 0.79514 6.17825 1.32227 8.97266 0.52712 2.7944 1.14494 5.39611 1.86718 7.81836 0.72225 2.42224 1.54755 4.66482 2.49024 6.74023s2.00293 3.98438 3.1914 5.73828c1.18848 1.75391 2.50526 3.35282 3.96485 4.81055 1.45959 1.45772 3.06232 2.77407 4.81836 3.96094s3.66631 2.2442 5.74414 3.18554 4.3231 1.76715 6.74805 2.48828c2.42494 0.72114 5.02877 1.33898 7.82617 1.86524 2.79739 0.52626 5.78724 0.96165 8.98242 1.31836 3.19518 0.3567 6.59654 0.63518 10.21484 0.84765 7.23661 0.42496 15.3447 0.58594 24.42578 0.58594h73.9375c9.08109 0 17.18918-0.16098 24.42579-0.58594 3.6183-0.21247 7.0177-0.49095 10.21289-0.84765 3.19518-0.35671 6.18502-0.7921 8.98242-1.31836 2.79739-0.52626 5.40318-1.1441 7.82812-1.86524 2.42495-0.72113 4.67022-1.54694 6.74805-2.48828 1.82698-0.82769 3.47376-1.78444 5.05078-2.80078 1.23452-2.08168 2.49575-4.16185 3.60156-6.25586 15.4347-29.22771 16.70274-66.46582-3.94726-93.85742-23.31733-30.92953-78.71366-38.36167-99.85938-1.98828 20.92073 36.49681-13.09855 80.66205-51.54297 85.39062-25.31717 3.11394-49.31888-6.96397-67.20898-23.82617z" style="fill-rule:evenodd;fill:url(#linearGradient3014)"/>
 </g>
 <path transform="matrix(.5 0 0 .5 -18.431997 122.43199)" d="M 361.9375,-212 C 507.2348,-212 528,-191.28677 528,-46.125 V 70.125 C 528,215.28618 507.2348,236 361.9375,236 H 214.0625 C 68.7652,236 48,215.28618 48,70.125 V -46.125 C 48,-191.28677 68.7652,-212 214.0625,-212 Z" clip-path="url(#clipPath1082-3-6)" style="fill:none;opacity:.4;stroke-linecap:round;stroke-linejoin:round;stroke-width:8;stroke:url(#linearGradient1108)"/>
 <g transform="translate(2.6195192e-6,1.7597401e-4)">
  <path d="m125.56816 53.438872c-5.39372-0.06009-7.28039 0.140221-8.03906 6.662098l-0.28906 2.30468c-0.66573 4.229859-0.793 6.145172-4.79493 7.18167-0.26816 0.06009-0.53589 0.120189-0.80273 0.183685-0.0631 0.01134-0.11887 0.02646-0.18361 0.04082l8e-3 2e-3c-1.01036 0.243779-2.00991 0.514431-3 0.808592l0.01-0.01134c-0.16536 0.05631-0.31604 0.10167-0.47265 0.150425-0.14985 0.04573-0.29986 0.08995-0.44922 0.136819-4.02147 1.128114-5.08541-0.467603-7.787096-3.810557l-1.40424-1.85155c-1.95898-2.634369-3.36984-3.75874-4.87304-3.880857-0.18788-0.01512-0.37832-0.01512-0.57032 0-1.343899 0.105449-2.81717 0.930218-4.847649 2.132788-4.701079 2.644913-6.234739 3.759723-3.63086 9.787124l0.900389 2.140611c1.656371 4.302539 2.51833 5.967307-1.302739 9.304706l0.101556-0.02268c-0.789762 0.748574-1.558042 1.518804-2.306649 2.308574l0.02154-0.10167c-3.337391 3.821065-5.002148 2.959106-9.304686 1.302728l-2.140862-0.902325c-1.883562-0.813732-3.287448-1.222752-4.408203-1.257826-2.465665-0.0771-3.560523 1.65668-5.378906 4.888667-2.748797 4.641109-3.520683 6.375043 1.748046 10.292976l1.851564 1.40432c3.342928 2.70168 4.93866 3.76562 3.810547 7.78711-0.04698 0.1493-0.09086 0.29934-0.136706 0.4492-0.04894 0.15647-0.09192 0.30728-0.148422 0.47267l0.0098-0.0113c-0.294161 0.99008-0.564847 1.98966-0.808592 3l-2e-3 -8e-3c-0.01285 0.0646-0.02797 0.12057-0.04101 0.18368-0.06353 0.26684-0.123666 0.53458-0.183609 0.80274-1.036464 4.00195-2.951803 4.12921-7.181639 4.79493l-2.304688 0.28914c-6.52182 0.75866-6.722082 2.64536-6.662108 8.03905-0.05998 5.39373 0.140296 7.2804 6.662108 8.03906l2.30472 0.28918c4.229828 0.66572 6.145183 0.79302 7.181639 4.79493 0.05994 0.26835 0.120076 0.5359 0.183609 0.80274 0.01285 0.0631 0.02835 0.11867 0.04101 0.18368l2e-3 -8e-3c0.243741 1.01038 0.514431 2.00992 0.808592 3l-0.01172-0.0113c0.0565 0.16517 0.101481 0.31597 0.150388 0.47263 0.04581 0.14967 0.08973 0.29972 0.136705 0.44924 1.12811 4.02145-0.467618 5.08543-3.810546 7.78711l-1.851564 1.40428c-5.268725 3.91794-4.49684 5.6499-1.748047 10.29101 2.644914 4.70109 3.759708 6.23475 9.78711 3.63088l2.140626-0.9004c4.302527-1.65637 5.967292-2.51833 9.304682 1.30273l-0.02343-0.10167c0.748581 0.78977 1.518841 1.55807 2.3086 2.30665l-0.101556-0.0227c3.821072 3.3374 2.959109 5.00217 1.302739 9.30471l-0.902347 2.14061c-2.603883 6.0274-1.070223 7.14414 3.63086 9.78905 4.641098 2.74881 6.375018 3.51874 10.292968-1.75l1.4043-1.85155c2.701676-3.34295 3.765646-4.93867 7.787106-3.81056 0.14936 0.0469 0.29937 0.0907 0.44922 0.13682 0.15658 0.0488 0.30727 0.0937 0.47265 0.15043l-0.01-0.0113c0.99009 0.29404 1.98964 0.56485 3 0.80859l-8e-3 2e-3c0.0647 0.0113 0.12052 0.0265 0.18361 0.0412 0.26683 0.0635 0.53456 0.12359 0.80273 0.18368 4.00193 1.0365 4.12919 2.95185 4.79493 7.18167l0.28906 2.30468c0.75867 6.52181 2.64534 6.72208 8.03906 6.6621 5.3937 0.0601 7.28038-0.14022 8.03906-6.6621l0.28905-2.30468c0.66576-4.22985 0.79299-6.14521 4.79494-7.18167 0.26816-0.0601 0.5359-0.12018 0.80273-0.18368 0.0631-0.0113 0.11887-0.0265 0.18361-0.0412l-8e-3 -2e-3c1.01037-0.24378 2.0099-0.51443 3-0.80859l-0.01 0.0113c0.16536-0.0563 0.31605-0.10167 0.47266-0.15043 0.14985-0.0457 0.29986-0.0896 0.44922-0.13682 4.02147-1.12807 5.08541 0.46761 7.7871 3.81056l1.4043 1.85155c3.91794 5.26874 5.6499 4.49685 10.29101 1.74803 4.70108-2.64487 6.23475-3.75968 3.63086-9.78708l-0.90039-2.14061c-1.65641-4.3025-2.51833-5.96731 1.30274-9.30471l-0.10155 0.0227c0.78978-0.74858 1.55808-1.51884 2.30666-2.30861l-0.0215 0.10167c3.3374-3.82107 5.00215-2.95915 9.3047-1.30273l2.14061 0.90232c6.02741 2.60387 7.14217 1.07021 9.78711-3.63084 2.74879-4.64111 3.52069-6.37504-1.74805-10.29297l-1.85155-1.40433c-3.34295-2.70168-4.93867-3.76561-3.81055-7.78711 0.047-0.14929 0.0908-0.29933 0.1367-0.44919 0.0489-0.15648 0.092-0.30728 0.14843-0.47267l-0.01 0.0113c0.29416-0.99009 0.56485-1.98962 0.8086-3l2e-3 8e-3c0.0128-0.0646 0.028-0.12057 0.041-0.18369 0.0635-0.26683 0.12367-0.53453 0.18361-0.80273 1.03647-4.00191 2.9518-4.12921 7.18164-4.79493l2.30469-0.28914c6.52182-0.75866 6.72209-2.64533 6.66211-8.03906 0.06-5.39368-0.1403-7.28039-6.66211-8.03905l-2.30469-0.28914c-4.22984-0.66576-6.14517-0.79298-7.18164-4.79493-0.06-0.26797-0.12008-0.5359-0.18361-0.80273-0.0132-0.0631-0.028-0.11906-0.041-0.18369l-2e-3 8e-3c-0.24374-1.01038-0.51442-2.00991-0.8086-3l0.0117 0.0113c-0.0565-0.16554-0.10151-0.31597-0.15038-0.47263-0.0458-0.14967-0.0897-0.29972-0.13671-0.44923-1.12811-4.02146 0.46762-5.0854 3.81054-7.78712l1.85157-1.40428c5.26873-3.917934 4.49684-5.649902 1.74804-10.291011-1.81838-3.231987-2.91322-4.967773-5.3789-4.890633-1.12074 0.03402-2.52465 0.44606-4.40821 1.259755l-2.14062 0.900396c-4.30247 1.656416-5.9673 2.518337-9.30469-1.302727l0.0234 0.101669c-0.74857-0.78977-1.51883-1.558034-2.3086-2.306645l0.10156 0.02268c-3.8206-3.337399-2.95866-5.002167-1.30228-9.304706l0.90235-2.140611c2.60387-6.027401 1.07022-7.142173-3.63086-9.787124-2.32056-1.374388-3.91477-2.254904-5.41797-2.132788-1.5032 0.122079-2.91603 1.246489-4.875 3.880857l-1.4043 1.851553c-2.70169 3.342917-3.76564 4.938671-7.78711 3.810558-0.14936-0.04725-0.29937-0.09071-0.44922-0.136819-0.15662-0.04876-0.30727-0.09184-0.47265-0.148536l0.01 0.01134c-0.9901-0.294047-1.98963-0.564851-3-0.808592l8e-3 -2e-3c-0.0647-0.01134-0.12053-0.02646-0.18361-0.04082-0.26683-0.0635-0.53456-0.123591-0.80273-0.183685-4.00194-1.03646-4.12918-2.951811-4.79493-7.181632l-0.28895-2.304729c-0.75844-6.52184-2.64512-6.722117-8.03883-6.662136zm-0.0117 30.994129h0.0117c5.06531 3.03e-4 9.96082 0.874923 14.53516 2.480466a12 12 0 0 0 5.46484 6.878929 12 12 0 0 0 8.66991 1.291011c7.20335 6.190683 12.42982 14.703723 14.43946 24.548823 0.50643 2.48002-1.38873 4.80102-3.91993 4.8008h-12.3789c-1.76926 1.5e-4 -3.32847-1.16194-3.83398-2.85744-3.03409-10.17668-12.3486-17.12613-22.96679-17.14065-1.86552 0.0113-3.72427 0.23547-5.53711 0.67578-1.72527 0.419-3.52028-0.34923-4.40821-1.8867l-6.17968-10.701167c-1.26291-2.188611-0.20549-4.985386 2.18945-5.79103 4.48467-1.509543 9.18217-2.28582 13.91406-2.298822zm-26.306626 10.095723c1.361096 0.06387 2.596136 0.816 3.277326 1.996082l6.17969 10.701164c0.88545 1.53347 0.65743 3.46662-0.56054 4.75196-4.21284 4.44662-6.56563 10.3318-6.57812 16.45705 7e-3 6.12869 2.35539 12.01939 6.56835 16.47069 1.21703 1.285 1.44503 3.21698 0.56055 4.75l-6.16211 10.67576c-1.26486 2.19103-4.220426 2.67247-6.115226 0.9961-7.358233-6.50703-12.254071-15.23837-14.062503-24.74022a12 12 0 0 0 3.210939-8.1543 12 12 0 0 0-3.212889-8.1504c1.80449-9.50615 6.6973-18.24245 14.056643-24.753899 0.77978-0.689952 1.79784-1.048705 2.83789-0.999987zm53.138636 37.904276h12.32813c2.53119-2.2e-4 4.42636 2.32079 3.91992 4.8008-2.00842 9.83928-7.23023 18.34896-14.42774 24.53907a12 12 0 0 0-2.92382-0.30274 12 12 0 0 0-5.7168 1.6035 12 12 0 0 0-5.45312 6.86132c-4.57561 1.61246-9.47418 2.49256-14.54297 2.49808h-0.0197c-4.72985-0.0189-9.42516-0.80073-13.90626-2.31447-2.39212-0.80765-3.44709-3.60204-2.18554-5.78907l6.16992-10.68748c0.88793-1.53743 2.68293-2.3057 4.4082-1.88674 1.81402 0.44069 3.67428 0.6658 5.54102 0.67578 10.62131-0.0113 19.93962-6.96094 22.97461-17.14061 0.50551-1.6955 2.06471-2.85759 3.83397-2.85744z" style="fill-opacity:.3"/>
  <path d="m151.28495 77.40565a5.9999999 5.9999999 0 0 0-4.9121 2.994142 5.9999999 5.9999999 0 0 0 2.1953 8.195338 5.9999999 5.9999999 0 0 0 8.19531-2.195338 5.9999999 5.9999999 0 0 0-2.19531-8.197266 5.9999999 5.9999999 0 0 0-3.2832-0.796876zm-77.716783 45.02736a5.9999999 5.9999999 0 0 0-6 6 5.9999999 5.9999999 0 0 0 6 6.00001 5.9999999 5.9999999 0 0 0 6-6.00001 5.9999999 5.9999999 0 0 0-6-6zm77.859363 45.03515a5.9999999 5.9999999 0 0 0-2.85938 0.80274 5.9999999 5.9999999 0 0 0-2.1953 8.1953 5.9999999 5.9999999 0 0 0 8.1953 2.19534 5.9999999 5.9999999 0 0 0 2.19531-8.19534 5.9999999 5.9999999 0 0 0-5.33593-2.99804z" style="fill-opacity:.3"/>
 </g>
</svg>
