<svg width="256" height="256" version="1.1" viewBox="0 0 67.73 67.73" xmlns="http://www.w3.org/2000/svg" xmlns:xlink="http://www.w3.org/1999/xlink">
 <defs>
  <linearGradient id="linearGradient938" x1="-4.446" x2="312.504" y1="232.249" y2="81.872" gradientTransform="matrix(.09224549 .25344241 -.25344241 .09224549 59.382368 209.72135)" gradientUnits="userSpaceOnUse">
   <stop style="stop-color:#5f9d20" offset="0"/>
   <stop style="stop-color:#c4ef9a" offset="1"/>
  </linearGradient>
  <filter id="filter920" x="-.02" y="-.03" width="1.046" height="1.05" style="color-interpolation-filters:sRGB">
   <feGaussianBlur stdDeviation="2.32"/>
  </filter>
  <filter id="filter4569" x="-.01" y="-.01" width="1.023" height="1.025" style="color-interpolation-filters:sRGB">
   <feGaussianBlur stdDeviation="1.16"/>
  </filter>
  <linearGradient id="linearGradient1108" x1="296" x2="296" y1="-212" y2="236" gradientUnits="userSpaceOnUse">
   <stop style="stop-color:#ffffff" offset="0"/>
   <stop style="stop-color:#ffffff;stop-opacity:.09803922" offset=".125"/>
   <stop style="stop-color:#000000;stop-opacity:.09803922" offset=".925"/>
   <stop style="stop-color:#000000;stop-opacity:.49803922" offset="1"/>
  </linearGradient>
  <clipPath id="clipPath1082-3-452">
   <path d="M 361.9375,-212 C 507.2348,-212 528,-191.28677 528,-46.125 V 70.125 C 528,215.28618 507.2348,236 361.9375,236 H 214.0625 C 68.7652,236 48,215.28618 48,70.125 V -46.125 C 48,-191.28677 68.7652,-212 214.0625,-212 Z" style="fill:#8c59d9"/>
  </clipPath>
  <filter id="filter907" x="-.06" y="-.04" width="1.114" height="1.083" style="color-interpolation-filters:sRGB">
   <feGaussianBlur stdDeviation=".733"/>
  </filter>
 </defs>
 <g transform="translate(0,-229.26666)">
  <path transform="matrix(.26970778 0 0 .26970778 -7.1289177 220.56049)" d="m188.96876 43.999995c72.64865 0 83.03125 10.356615 83.03125 82.937505v58.125c0 72.58059-10.3826 82.9375-83.03125 82.9375h-73.9375c-72.648654 0-83.031254-10.35691-83.031254-82.9375v-58.125c0-72.58089 10.3826-82.937505 83.031254-82.937505z" style="filter:url(#filter4569);opacity:.1"/>
  <path transform="matrix(.26970778 0 0 .26970778 -7.1289177 220.56049)" d="m188.96876 45.999995c72.64865 0 83.03125 10.356615 83.03125 82.937505v58.125c0 72.58059-10.3826 82.9375-83.03125 82.9375h-73.9375c-72.648654 0-83.031254-10.35691-83.031254-82.9375v-58.125c0-72.58089 10.3826-82.937505 83.031254-82.937505z" style="filter:url(#filter920);opacity:.2"/>
  <path d="m43.837442 232.42763c19.593904 0 22.394169 2.79326 22.394172 22.36889v15.67677c0 19.57555-2.800271 22.36889-22.394172 22.36889h-19.941525c-19.593904 0-22.394173-2.79334-22.394173-22.36889l5e-7 -15.67677c8e-7 -19.57563 2.8002679-22.36889 22.394174-22.36889z" style="fill:url(#linearGradient938)"/>
  <path d="m2.1148954 243.82542c-0.4622048 2.89126-0.6131636 6.48639-0.6131639 10.9711v15.67677c0 19.57554 2.8002707 22.36888 22.394174 22.36888h19.94152c14.587924 0 19.86448-1.55409 21.60981-10.42378z" style="fill:#ffffff;opacity:.05"/>
  <path transform="matrix(.13485389 0 0 .13485389 -4.9712378 261.01665)" d="M 361.9375,-212 C 507.2348,-212 528,-191.28677 528,-46.125 V 70.125 C 528,215.28618 507.2348,236 361.9375,236 H 214.0625 C 68.7652,236 48,215.28618 48,70.125 V -46.125 C 48,-191.28677 68.7652,-212 214.0625,-212 Z" clip-path="url(#clipPath1082-3-452)" style="fill:none;opacity:.4;stroke-linecap:round;stroke-linejoin:round;stroke-width:8;stroke:url(#linearGradient1108)"/>
  <path d="m31.690635 283.65359c-1.627089-0.46838-2.963453-1.82794-3.394683-3.45365-0.168305-0.63449-0.168305-1.91631 0-2.5508 0.347232-1.30903 1.364853-2.56995 2.512761-3.11353l0.608046-0.28794-0.04269-0.42835c-0.143497-1.43997-1.006676-2.04445-4.303666-3.01383-2.190489-0.64404-2.585904-0.78686-3.698795-1.336-0.920374-0.45415-1.113452-0.5888-1.747382-1.21863-0.573504-0.5698-0.7799-0.84547-1.056904-1.41167-0.507371-1.03707-0.589182-1.60766-0.591502-4.1254l-0.0019-2.12422-0.336669-0.24832c-1.545761-1.14017-1.704917-3.54979-0.325571-4.92914 1.490997-1.491 3.970452-1.22106 5.107238 0.55603 0.847229 1.32443 0.60287 3.15477-0.560864 4.20107-0.231836 0.20843-0.45836 0.37898-0.503388 0.37898-0.05271 0-0.07047 0.77398-0.04988 2.17288 0.03054 2.07439 0.04074 2.1908 0.225165 2.56833 0.379252 0.77634 1.254611 1.28892 3.276933 1.91881 2.569249 0.80027 3.819766 1.21942 4.200902 1.40809l0.393186 0.19463v-19.18922h-1.614133c-0.928105 0-1.614139-0.0324-1.614139-0.0762 0-0.13948 4.799469-8.07727 4.883808-8.07727 0.08434 0 4.883808 7.93779 4.883808 8.07727 0 0.0439-0.686034 0.0762-1.614139 0.0762h-1.614141v14.48865l0.393187-0.19889c0.638466-0.32299 2.004723-0.75754 4.044163-1.2863 3.529371-0.91505 4.612179-1.41955 5.04583-2.35094 0.192572-0.41361 0.200066-0.49838 0.200848-2.27141l7.14e-4 -1.84178h-1.572786v-6.62211h6.539336v6.62211h-1.552913l-0.04153 2.0901c-0.0314 1.58038-0.07461 2.20872-0.177152 2.5765-0.442614 1.58739-1.616784 2.87073-3.373524 3.68717-0.984942 0.45774-1.911563 0.75691-4.117843 1.32944-3.535046 0.91733-4.57958 1.38612-5.113928 2.29518l-0.233169 0.39667-0.0247 2.8558-0.0247 2.85577 0.604135 0.28794c1.145487 0.54595 2.162593 1.8082 2.508844 3.11353 0.168305 0.63449 0.168305 1.91631 0 2.5508-0.440046 1.65893-1.836853 3.05085-3.489408 3.47719-0.679317 0.17526-1.986826 0.16358-2.636895-0.0235z" style="filter:url(#filter907);opacity:.3"/>
  <path d="m31.690635 283.65359c-1.627089-0.46838-2.963453-1.82794-3.394683-3.45365-0.168305-0.63449-0.168305-1.91631 0-2.5508 0.347232-1.30903 1.364853-2.56995 2.512761-3.11353l0.608046-0.28794-0.04269-0.42835c-0.143497-1.43997-1.006676-2.04445-4.303666-3.01383-2.190489-0.64404-2.585904-0.78686-3.698795-1.336-0.920374-0.45415-1.113452-0.5888-1.747382-1.21863-0.573504-0.5698-0.7799-0.84547-1.056904-1.41167-0.507371-1.03707-0.589182-1.60766-0.591502-4.1254l-0.0019-2.12422-0.336669-0.24832c-1.545761-1.14017-1.704917-3.54979-0.325571-4.92914 1.490997-1.491 3.970452-1.22106 5.107238 0.55603 0.847229 1.32443 0.60287 3.15477-0.560864 4.20107-0.231836 0.20843-0.45836 0.37898-0.503388 0.37898-0.05271 0-0.07047 0.77398-0.04988 2.17288 0.03054 2.07439 0.04074 2.1908 0.225165 2.56833 0.379252 0.77634 1.254611 1.28892 3.276933 1.91881 2.569249 0.80027 3.819766 1.21942 4.200902 1.40809l0.393186 0.19463v-19.18922h-1.614133c-0.928105 0-1.614139-0.0324-1.614139-0.0762 0-0.13948 4.799469-8.07727 4.883808-8.07727 0.08434 0 4.883808 7.93779 4.883808 8.07727 0 0.0439-0.686034 0.0762-1.614139 0.0762h-1.614141v14.48865l0.393187-0.19889c0.638466-0.32299 2.004723-0.75754 4.044163-1.2863 3.529371-0.91505 4.612179-1.41955 5.04583-2.35094 0.192572-0.41361 0.200066-0.49838 0.200848-2.27141l7.14e-4 -1.84178h-1.572786v-6.62211h6.539336v6.62211h-1.552913l-0.04153 2.0901c-0.0314 1.58038-0.07461 2.20872-0.177152 2.5765-0.442614 1.58739-1.616784 2.87073-3.373524 3.68717-0.984942 0.45774-1.911563 0.75691-4.117843 1.32944-3.535046 0.91733-4.57958 1.38612-5.113928 2.29518l-0.233169 0.39667-0.0247 2.8558-0.0247 2.85577 0.604135 0.28794c1.145487 0.54595 2.162593 1.8082 2.508844 3.11353 0.168305 0.63449 0.168305 1.91631 0 2.5508-0.440046 1.65893-1.836853 3.05085-3.489408 3.47719-0.679317 0.17526-1.986826 0.16358-2.636895-0.0235z" style="fill:#ffffff"/>
 </g>
</svg>
