<svg xmlns="http://www.w3.org/2000/svg" xmlns:xlink="http://www.w3.org/1999/xlink" width="256" height="256" version="1.0" style="enable-background:new">
 <defs>
  <filter style="color-interpolation-filters:sRGB" id="filter925" width="1.046" height="1.05" x="-.02" y="-.03">
   <feGaussianBlur stdDeviation="2.32"/>
  </filter>
  <filter style="color-interpolation-filters:sRGB" id="filter931" width="1.023" height="1.025" x="-.01" y="-.01">
   <feGaussianBlur stdDeviation="1.16"/>
  </filter>
  <linearGradient id="linearGradient1108" x1="296" x2="296" y1="-212" y2="236" gradientUnits="userSpaceOnUse" xlink:href="#linearGradient1013"/>
  <linearGradient id="linearGradient1013">
   <stop offset="0" style="stop-color:#ffffff"/>
   <stop style="stop-color:#ffffff;stop-opacity:0.09803922" offset=".125"/>
   <stop style="stop-color:#000000;stop-opacity:0.09803922" offset=".925"/>
   <stop offset="1" style="stop-color:#000000;stop-opacity:0.49803922"/>
  </linearGradient>
  <clipPath id="clipPath1082-3" clipPathUnits="userSpaceOnUse">
   <path d="M 361.9375,-212 C 507.2348,-212 528,-191.28677 528,-46.125 V 70.125 C 528,215.28618 507.2348,236 361.9375,236 H 214.0625 C 68.7652,236 48,215.28618 48,70.125 V -46.125 C 48,-191.28677 68.7652,-212 214.0625,-212 Z" style="fill:#8c59d9"/>
  </clipPath>
  <filter style="color-interpolation-filters:sRGB" id="filter968" width="1.096" height="1.096" x="-.05" y="-.05">
   <feGaussianBlur stdDeviation=".926"/>
  </filter>
  <linearGradient id="linearGradient2658" x1="12.274" x2="35.391" y1="32.416" y2="14.203" gradientTransform="matrix(0,1.3229284,-1.3229284,0,64.058647,231.26048)" gradientUnits="userSpaceOnUse" xlink:href="#linearGradient3263"/>
  <linearGradient id="linearGradient3263" x1="12.274" x2="35.391" y1="32.416" y2="14.203" gradientUnits="userSpaceOnUse">
   <stop style="stop-color:#dedbde" offset="0"/>
   <stop style="stop-color:#e6e6e6" offset=".5"/>
   <stop style="stop-color:#d2d2d2" offset="1"/>
  </linearGradient>
  <linearGradient id="linearGradient4658" x1="389.071" x2="428.568" y1="518.548" y2="534.908" gradientTransform="matrix(7.2257629,-7.214754,7.214754,7.2257629,-6601.3101,-704.5169)" gradientUnits="userSpaceOnUse" xlink:href="#linearGradient4211"/>
  <linearGradient id="linearGradient4211">
   <stop style="stop-color:#2f3943"/>
   <stop offset="1" style="stop-color:#808c9b"/>
  </linearGradient>
 </defs>
 <g transform="translate(0,-44)">
  <g>
   <g>
    <path d="m 162.53675,62.431991 c 72.64865,0 83.03125,10.356615 83.03125,82.937499 v 58.125 c 0,72.58059 -10.3826,82.9375 -83.03125,82.9375 h -73.9375 c -72.64865,0 -83.0312501,-10.35691 -83.0312501,-82.9375 v -58.125 c 0,-72.580884 10.3826001,-82.937499 83.0312501,-82.937499 z" style="opacity:0.2;filter:url(#filter925)"/>
    <path style="opacity:0.1;filter:url(#filter931)" d="m 162.53675,61.431991 c 72.64865,0 83.03125,10.356615 83.03125,82.937499 v 58.125 c 0,72.58059 -10.3826,82.9375 -83.03125,82.9375 h -73.9375 c -72.64865,0 -83.0312501,-10.35691 -83.0312501,-82.9375 v -58.125 c 0,-72.580884 10.3826001,-82.937499 83.0312501,-82.937499 z"/>
   </g>
   <g>
    <path style="fill:#5e89f5" d="m 162.53675,60.431991 c 72.64865,0 83.03125,10.356615 83.03125,82.937499 v 58.125 c 0,72.58059 -10.3826,82.9375 -83.03125,82.9375 h -73.9375 c -72.64865,0 -83.0312501,-10.35691 -83.0312501,-82.9375 v -58.125 c 0,-72.580884 10.3826001,-82.937499 83.0312501,-82.937499 z"/>
   </g>
   <g>
    <path d="M 361.9375,-212 C 507.2348,-212 528,-191.28677 528,-46.125 V 70.125 C 528,215.28618 507.2348,236 361.9375,236 H 214.0625 C 68.7652,236 48,215.28618 48,70.125 V -46.125 C 48,-191.28677 68.7652,-212 214.0625,-212 Z" clip-path="url(#clipPath1082-3)" transform="matrix(0.5,0,0,0.5,-18.432,166.43199)" style="opacity:0.4;fill:none;stroke:url(#linearGradient1108);stroke-width:8;stroke-linecap:round;stroke-linejoin:round"/>
   </g>
  </g>
 </g>
 <g transform="matrix(3.7795275,0,0,3.7795275,-1.042366,-864.62447)">
  <path style="opacity:0.3;filter:url(#filter968)" d="m 56.650037,263.01078 c 0,-12.83241 -10.318631,-23.15105 -23.15104,-23.15105 -12.832412,0 -23.151043,10.31864 -23.151043,23.15105 -10e-7,12.8324 10.318634,23.15104 23.151043,23.15104 12.832403,0 23.15104,-10.31864 23.15104,-23.15104 z m -14.681147,0 c 0,4.66197 -3.714635,8.46989 -8.469893,8.46989 -4.848541,0 -8.469895,-3.90215 -8.469895,-8.46989 0,-4.66105 3.434788,-8.4699 8.469895,-8.4699 5.035105,0 8.469893,3.9012 8.469893,8.4699 z"/>
  <path d="m 56.650037,263.01078 c 0,-12.83241 -10.318631,-23.15105 -23.15104,-23.15105 -12.832412,0 -23.151043,10.31864 -23.151043,23.15105 -10e-7,12.8324 10.318634,23.15104 23.151043,23.15104 12.832403,0 23.15104,-10.31864 23.15104,-23.15104 z m -14.681147,0 c 0,4.66197 -3.714635,8.46989 -8.469893,8.46989 -4.848541,0 -8.469895,-3.90215 -8.469895,-8.46989 0,-4.66105 3.434788,-8.4699 8.469895,-8.4699 5.035105,0 8.469893,3.9012 8.469893,8.4699 z" style="fill:url(#linearGradient2658)"/>
 </g>
 <g transform="matrix(3.9767102,0,0,3.9767102,-12.418056,-902.30508)" style="opacity:0.8">
  <g transform="matrix(0.7957321,-0.79451975,0.79451975,0.7957321,-719.71696,177.00961)">
   <path style="fill:url(#linearGradient4658)" d="m 5.8515625,89.166016 c -0.03131,2.553871 -0.1757813,4.601138 -0.1757813,7.324218 v 59.251956 c 0,7.45978 0.2149773,13.84011 0.484375,20.06445 l 243.6757838,0.1875 c 0.27497,-6.27137 0.48828,-12.72247 0.48828,-20.25195 V 96.490234 c 0,-2.6541 -0.1422,-4.645379 -0.17188,-7.138672 z" transform="matrix(0.15524215,0.15500563,-0.15500563,0.15524215,422.63589,486.5011)"/>
   <path style="fill:#67b0ef" d="m 181.39844,139.79492 -27.50782,27.50781 41.26172,41.26172 27.52735,-27.50781 z" transform="matrix(0.23529432,0,0,0.23529432,389.40979,497.60514)"/>
   <path style="fill:#a8d0f3" d="m 132.76758,91.164062 -27.50781,27.507818 41.26171,41.25976 27.5254,-27.50586 z" transform="matrix(0.23529432,0,0,0.23529432,389.40979,497.60514)"/>
   <path style="fill:#c5def3" d="M 84.134766,42.533203 56.626953,70.039062 97.888672,111.30078 125.41602,83.792969 Z" transform="matrix(0.23529432,0,0,0.23529432,389.40979,497.60514)"/>
   <path style="fill:#4dacff" d="m 250.32422,153.25 v -41.72461 l -4.35156,-0.004 -0.0312,41.72461 z" transform="matrix(0.15524215,0.15500563,-0.15500563,0.15524215,422.63589,486.5011)"/>
   <path style="fill:#ffffff" d="m 5.6757812,111.33984 v 41.72071 l 7.7890628,0.006 0.03125,-41.72071 z" transform="matrix(0.15524215,0.15500563,-0.15500563,0.15524215,422.63589,486.5011)"/>
  </g>
  <path style="fill:#d84646" d="m 20.566223,256.64498 c -0.916036,0 -1.658628,0.74259 -1.658628,1.65862 0,0.91604 0.742592,1.65863 1.658628,1.65863 0.916034,0 1.658628,-0.74259 1.658628,-1.65863 0,-0.91603 -0.742593,-1.65862 -1.658628,-1.65862 z m -6.081637,2.76437 -3.317257,6.08164 h 3.005724 5.840294 l -2.764381,-4.97588 -1.105752,1.65862 z"/>
  <path d="m 38.557901,256.64498 c -0.916036,0 -1.658628,0.74259 -1.658628,1.65862 0,0.91604 0.742592,1.65863 1.658628,1.65863 0.916034,0 1.658628,-0.74259 1.658628,-1.65863 0,-0.91603 -0.742593,-1.65862 -1.658628,-1.65862 z m -6.081637,2.76437 -3.317257,6.08164 h 3.005724 5.840294 l -2.764381,-4.97588 -1.105752,1.65862 z" style="fill:#80d56c"/>
  <path style="fill:#dddc58" d="m 57.078745,256.64498 c -0.916036,0 -1.658628,0.74259 -1.658628,1.65862 0,0.91604 0.742592,1.65863 1.658628,1.65863 0.916034,0 1.658628,-0.74259 1.658628,-1.65863 0,-0.91603 -0.742593,-1.65862 -1.658628,-1.65862 z m -6.081637,2.76437 -3.317257,6.08164 h 3.005724 5.840294 l -2.764381,-4.97588 -1.105752,1.65862 z"/>
 </g>
</svg>
