<svg width="256" height="256" version="1.1" viewBox="0 0 67.73 67.73" xmlns="http://www.w3.org/2000/svg" xmlns:xlink="http://www.w3.org/1999/xlink">
 <defs>
  <linearGradient id="linearGradient1108" x1="296" x2="296" y1="-212" y2="236" gradientUnits="userSpaceOnUse">
   <stop style="stop-color:#ffffff" offset="0"/>
   <stop style="stop-color:#ffffff;stop-opacity:.09803922" offset=".125"/>
   <stop style="stop-color:#000000;stop-opacity:.09803922" offset=".925"/>
   <stop style="stop-color:#000000;stop-opacity:.49803922" offset="1"/>
  </linearGradient>
  <clipPath id="clipPath1082-3-2">
   <path d="M 361.9375,-212 C 507.2348,-212 528,-191.28677 528,-46.125 V 70.125 C 528,215.28618 507.2348,236 361.9375,236 H 214.0625 C 68.7652,236 48,215.28618 48,70.125 V -46.125 C 48,-191.28677 68.7652,-212 214.0625,-212 Z" style="fill:#8c59d9"/>
  </clipPath>
  <filter id="filter4569" x="-.01" y="-.01" width="1.023" height="1.025" style="color-interpolation-filters:sRGB">
   <feGaussianBlur stdDeviation="1.16"/>
  </filter>
  <filter id="filter913" x="-.02" y="-.03" width="1.046" height="1.05" style="color-interpolation-filters:sRGB">
   <feGaussianBlur stdDeviation="2.32"/>
  </filter>
  <filter id="filter4323" x="-.01" y="-.01" width="1.024" height="1.024" style="color-interpolation-filters:sRGB">
   <feGaussianBlur stdDeviation="1.76"/>
  </filter>
  <linearGradient id="linearGradient4301" x1="-434" x2="-82" y1="-256" y2="-256" gradientUnits="userSpaceOnUse">
   <stop style="stop-color:#000000;stop-opacity:0" offset="0"/>
   <stop style="stop-color:#000000" offset=".733"/>
   <stop style="stop-color:#000000;stop-opacity:0" offset="1"/>
  </linearGradient>
  <radialGradient id="radialGradient4404" cx="-256" cy="-256.2" r="96" gradientTransform="matrix(0 -.8333347 -.8333347 0 -461.50049 -57.33369)" gradientUnits="userSpaceOnUse">
   <stop style="stop-color:#000000;stop-opacity:0" offset="0"/>
   <stop style="stop-color:#000000;stop-opacity:0" offset=".899"/>
   <stop style="stop-color:#000000;stop-opacity:.26165804" offset=".949"/>
   <stop style="stop-color:#000000" offset="1"/>
  </radialGradient>
  <linearGradient id="linearGradient1403" x1="5.253" x2="61.509" y1="237.63" y2="288.235" gradientUnits="userSpaceOnUse">
   <stop style="stop-color:#5441d7" offset="0"/>
   <stop style="stop-color:#7637c4" offset=".189"/>
   <stop style="stop-color:#b028aa" offset=".359"/>
   <stop style="stop-color:#ce267e" offset=".498"/>
   <stop style="stop-color:#e62053" offset=".642"/>
   <stop style="stop-color:#f65e45" offset=".808"/>
   <stop style="stop-color:#fec053" offset="1"/>
  </linearGradient>
 </defs>
 <g transform="translate(0,-229.26666)">
  <path transform="matrix(.26458333 0 0 .26458333 -1.8735229e-8 232.67026)" d="m162.53675 5.5680001c72.64865 0 83.03125 10.356615 83.03125 82.937505v58.125005c0 72.58059-10.3826 82.9375-83.03125 82.9375h-73.937496c-72.648654 0-83.031254-10.35691-83.031254-82.9375v-58.125005c0-72.58089 10.3826-82.937505 83.031254-82.937505z" style="filter:url(#filter913);opacity:.2"/>
  <path transform="matrix(.26458333 0 0 .26458333 -1.8735229e-8 232.67026)" d="m162.53675 3.5680001c72.64865 0 83.03125 10.356615 83.03125 82.937505v58.125005c0 72.58059-10.3826 82.9375-83.03125 82.9375h-73.937496c-72.648654 0-83.031254-10.35691-83.031254-82.9375v-58.125005c0-72.58089 10.3826-82.937505 83.031254-82.937505z" style="filter:url(#filter4569);opacity:.1"/>
  <path d="m23.441882 233.61429c-9.611188 0-15.101641 0.68375-18.19217 3.77032-3.090525 3.08656-3.776514 8.57135-3.776514 18.17356v15.37891c0 9.60218 0.68599 15.087 3.776514 18.17357 3.0905286 3.08658 8.580982 3.77031 18.19217 3.77031h19.562631c9.61119 0 15.101644-0.68373 18.19217-3.77031 3.090527-3.08657 3.776515-8.57139 3.776515-18.17357v-15.37891c0-9.60221-0.685988-15.087-3.776515-18.17356-3.090526-3.08657-8.580982-3.77032-18.19217-3.77032z" style="fill:url(#linearGradient1403)"/>
  <path d="m1.473198 270.40792v0.52916c0 9.60218 0.68599 15.087 3.776514 18.17357 3.0905286 3.08658 8.580982 3.77031 18.19217 3.77031h19.562631c9.61119 0 15.101644-0.68373 18.19217-3.77031 3.090527-3.08657 3.776515-8.57139 3.776515-18.17357v-0.52916c0 9.60217-0.685988 15.08699-3.776515 18.17356-3.090526 3.08658-8.58098 3.77032-18.19217 3.77032h-19.562631c-9.611188 0-15.101641-0.68374-18.19217-3.77032-3.090524-3.08657-3.776514-8.57139-3.776514-18.17356z" style="fill:#131313;opacity:.2"/>
  <path transform="matrix(.13229167 0 0 .13229167 -4.876802 261.66013)" d="M 361.9375,-212 C 507.2348,-212 528,-191.28677 528,-46.125 V 70.125 C 528,215.28618 507.2348,236 361.9375,236 H 214.0625 C 68.7652,236 48,215.28618 48,70.125 V -46.125 C 48,-191.28677 68.7652,-212 214.0625,-212 Z" clip-path="url(#clipPath1082-3-2)" style="fill:none;opacity:.4;stroke-linecap:round;stroke-linejoin:round;stroke-width:8;stroke:url(#linearGradient1108)"/>
  <g transform="matrix(.52941671 0 0 .52941671 .72771483 228.79434)">
   <path d="m1.4081255 43.579428v35.20006c0 36.993162 5.1888431 42.271892 41.496022 42.271892h36.951285c36.307168 0 41.496018-5.27873 41.496018-42.271892v-35.20006z" style="fill:#ffffff;opacity:.3"/>
   <g transform="translate(-.20275412)">
    <circle cx="106.43" cy="21.352" r="4.077" style="fill:#ffffff"/>
    <circle transform="matrix(0 -.25484199 -.25484199 0 -3.6613604 -1.0743627)" cx="-258" cy="-256" r="176" style="fill-opacity:.99607843;filter:url(#filter4323);opacity:.1"/>
    <circle transform="matrix(0 -.25484199 -.25484199 0 -3.6613604 -1.0743627)" cx="-258" cy="-256" r="176" style="fill:url(#linearGradient4301);filter:url(#filter4291);opacity:.4"/>
    <g transform="matrix(.509684 0 0 .509684 187.97983 -15.3455)" style="enable-background:new">
     <circle transform="matrix(0,-1,-1,0,0,0)" cx="-156" cy="248" r="88" style="fill:#f2f2f2"/>
     <circle transform="matrix(0,-1,-1,0,0,0)" cx="-157" cy="248" r="80" style="fill:#ffffff"/>
     <circle transform="matrix(0,-1,-1,0,0,0)" cx="-156" cy="248" r="80" style="fill:#46444a"/>
     <path d="m-248.0007 75.999297a80.000135 80.000135 0 0 0-79.9993 80.000693 80.000135 80.000135 0 0 0 79.9993 80.00069 80.000135 80.000135 0 0 0 80.0007-80.00069 80.000135 80.000135 0 0 0-80.0007-80.000693zm0 28.622583a51.37813 51.37813 0 0 1 51.37811 51.37811 51.37813 51.37813 0 0 1-51.37811 51.37811 51.37813 51.37813 0 0 1-51.37811-51.37811 51.37813 51.37813 0 0 1 51.37811-51.37811z" style="fill:url(#radialGradient4404);opacity:.1"/>
     <circle transform="matrix(0,-1,-1,0,0,0)" cx="-156" cy="248" r="64" style="fill:#a7a7f1"/>
     <circle transform="matrix(0,-1,-1,0,0,0)" cx="-156" cy="248" r="60" style="fill:#8f76e4"/>
     <circle transform="matrix(0,-1,-1,0,0,0)" cx="-156" cy="248" r="40" style="fill:#8c59d9"/>
     <circle transform="matrix(-.1391731 -.99026807 -.99026807 .1391731 0 0)" cx="-119.981" cy="267.198" r="20" style="fill:#7839b7"/>
     <circle transform="rotate(-8)" cx="-258.262" cy="113.158" r="6" style="fill:#ffffff;opacity:.3"/>
     <circle transform="rotate(-8)" cx="-276.333" cy="126.776" r="2" style="fill:#ffffff;opacity:.3"/>
     <circle cx="-222" cy="130" r="24" style="fill:#ffffff;opacity:.2"/>
     <path d="m -248,68 a 87.999992,87.999992 0 0 0 -88,88 87.999992,87.999992 0 0 0 0.041,0.83008 A 87.999992,87.999992 0 0 1 -248,70 87.999992,87.999992 0 0 1 -160.04102,157.16992 87.999992,87.999992 0 0 0 -160,156 87.999992,87.999992 0 0 0 -248,68 Z" style="fill:#ffffff;opacity:.4"/>
    </g>
   </g>
  </g>
 </g>
</svg>
