<svg xmlns="http://www.w3.org/2000/svg" xmlns:xlink="http://www.w3.org/1999/xlink" width="256" height="256" version="1.1" viewBox="0 0 67.73 67.73">
 <defs>
  <linearGradient id="linearGradient1108" x1="296" x2="296" y1="-212" y2="236" gradientUnits="userSpaceOnUse" xlink:href="#linearGradient1013"/>
  <linearGradient id="linearGradient1013">
   <stop offset="0" style="stop-color:#ffffff"/>
   <stop style="stop-color:#ffffff;stop-opacity:0.09803922" offset=".125"/>
   <stop style="stop-color:#000000;stop-opacity:0.09803922" offset=".925"/>
   <stop offset="1" style="stop-color:#000000;stop-opacity:0.49803922"/>
  </linearGradient>
  <clipPath id="clipPath1082-3-361" clipPathUnits="userSpaceOnUse">
   <path d="M 361.9375,-212 C 507.2348,-212 528,-191.28677 528,-46.125 V 70.125 C 528,215.28618 507.2348,236 361.9375,236 H 214.0625 C 68.7652,236 48,215.28618 48,70.125 V -46.125 C 48,-191.28677 68.7652,-212 214.0625,-212 Z" style="fill:#8c59d9"/>
  </clipPath>
  <filter style="color-interpolation-filters:sRGB" id="filter4569" width="1.023" height="1.025" x="-.01" y="-.01">
   <feGaussianBlur stdDeviation="1.16"/>
  </filter>
  <filter style="color-interpolation-filters:sRGB" id="filter939" width="1.046" height="1.05" x="-.02" y="-.03">
   <feGaussianBlur stdDeviation="2.32"/>
  </filter>
  <filter style="color-interpolation-filters:sRGB" id="filter996" width="1.104" height="1.089" x="-.05" y="-.04">
   <feGaussianBlur stdDeviation=".888"/>
  </filter>
 </defs>
 <g transform="translate(0,-229.26666)">
  <path style="opacity:0.2;filter:url(#filter939)" d="m 162.53675,5.5680001 c 72.64865,0 83.03125,10.3566149 83.03125,82.9375049 v 58.125005 c 0,72.58059 -10.3826,82.9375 -83.03125,82.9375 H 88.599254 C 15.9506,229.56801 5.568,219.2111 5.568,146.63051 V 88.505505 c 0,-72.58089 10.3826,-82.9375049 83.031254,-82.9375049 z" transform="matrix(0.26970779,0,0,0.26970779,-1.9098094e-8,231.46531)"/>
  <path d="m 43.837429,232.42763 c 19.593907,0 22.394176,2.79326 22.394176,22.36889 v 15.67677 c 0,20.52348 -2.800269,22.36889 -22.394176,22.36889 H 23.89591 c -19.5939088,0 -22.394177,-2.79334 -22.394177,-22.36889 v -15.67677 c 0,-19.57563 2.8002682,-22.36889 22.394177,-22.36889 z" style="opacity:0.1;fill:none;stroke:#000000;stroke-width:1.07883108;stroke-linecap:round;stroke-linejoin:round"/>
  <path d="m 162.53675,3.5680001 c 72.64865,0 83.03125,10.3566149 83.03125,82.9375049 v 58.125005 c 0,72.58059 -10.3826,82.9375 -83.03125,82.9375 H 88.599254 C 15.9506,227.56801 5.568,217.2111 5.568,144.63051 V 86.505505 c 0,-72.58089 10.3826,-82.9375049 83.031254,-82.9375049 z" transform="matrix(0.26970779,0,0,0.26970779,-1.9098094e-8,231.46531)" style="opacity:0.1;filter:url(#filter4569)"/>
  <path style="fill:#e2c272" d="m 43.837427,232.42763 c 19.593907,0 22.394175,2.79326 22.394175,22.36889 v 15.67677 c 0,19.57555 -2.800268,22.36889 -22.394175,22.36889 h -19.94152 c -19.5939074,0 -22.3941756,-2.79334 -22.3941756,-22.36889 v -15.67677 c 0,-19.57563 2.8002682,-22.36889 22.3941756,-22.36889 z"/>
  <g transform="translate(132.90661,-17.844832)" style="fill:#f9f9f9">
   <path style="fill:#ffffff;opacity:0.2" d="M 5.6757812 129.50391 L 5.6757812 155.74219 C 5.6757812 164.99048 5.8413528 173.24778 6.2753906 180.61719 C 6.4924096 184.30189 6.77636 187.76387 7.140625 191.01758 C 7.50489 194.27128 7.9489927 197.31554 8.4863281 200.16406 C 9.0236635 203.01259 9.6543948 205.66561 10.390625 208.13477 C 11.126855 210.60392 11.968738 212.89025 12.929688 215.00586 C 13.890637 217.12147 14.970148 219.06564 16.181641 220.85352 C 17.393134 222.64139 18.736749 224.27185 20.224609 225.75781 C 21.71247 227.24377 23.344712 228.58506 25.134766 229.79492 C 26.924819 231.00478 28.872165 232.0834 30.990234 233.04297 C 33.108304 234.00254 35.39723 234.84302 37.869141 235.57812 C 40.341052 236.31323 42.99608 236.94402 45.847656 237.48047 C 48.699233 238.01692 51.74684 238.4606 55.003906 238.82422 C 58.260972 239.18783 61.727635 239.47091 65.416016 239.6875 C 72.792777 240.12069 81.057489 240.28516 90.314453 240.28516 L 165.68555 240.28516 C 174.94251 240.28516 183.20722 240.12069 190.58398 239.6875 C 194.27236 239.47091 197.73903 239.18783 200.99609 238.82422 C 204.25316 238.4606 207.30077 238.01692 210.15234 237.48047 C 213.00392 236.94402 215.65895 236.31323 218.13086 235.57812 C 220.60277 234.84302 222.8917 234.00254 225.00977 233.04297 C 227.12784 232.0834 229.07518 231.00478 230.86523 229.79492 C 232.65529 228.58506 234.28753 227.24377 235.77539 225.75781 C 237.26325 224.27185 238.60687 222.64139 239.81836 220.85352 C 241.02985 219.06564 242.10936 217.12147 243.07031 215.00586 C 244.03126 212.89025 244.87314 210.60392 245.60938 208.13477 C 246.34561 205.66561 246.97634 203.01259 247.51367 200.16406 C 248.05101 197.31554 248.49511 194.27128 248.85938 191.01758 C 249.22364 187.76387 249.50759 184.30189 249.72461 180.61719 C 250.15865 173.24778 250.32422 164.99048 250.32422 155.74219 L 250.32422 129.28906 L 202.83008 129.44531 L 197.38672 107.46875 L 186.26562 155.50391 C 186.26563 155.50391 177.02512 69.735215 176.73633 68.580078 C 176.44755 67.424941 175.60938 129.44531 175.60938 129.44531 L 170.16602 107.46875 L 164.53906 155.08398 L 153.83203 100.14453 L 148.38867 195.37109 L 142.94531 67.179688 L 132.69336 118.45703 L 126.61133 92.818359 C 126.61133 92.818359 122.1546 174.56388 122.44336 176.00781 C 122.73215 177.45174 115.72461 42.208984 115.72461 42.208984 C 115.72461 42.208984 106.27288 202.28532 104.83594 210.02148 C 103.399 217.75765 93.947266 92.818359 93.947266 92.818359 L 88.501953 155.08398 L 84.65625 60.785156 L 72.169922 129.44531 L 5.6757812 129.50391 z" transform="matrix(0.26458333,0,0,0.26458333,-132.90661,247.11149)"/>
   <path style="fill:none;stroke:#00baff;stroke-width:1.04987824;stroke-linejoin:round" d="m -131.49954,281.36049 h 17.688 l 2.88087,-18.45627 1.44044,25.23973 1.44043,-16.47412 2.88087,31.01011 2.88087,-44.40069 1.68166,38.5863 1.19921,-25.19572 1.609262,6.78346 2.712045,-13.56694 1.440431,33.91733 1.440437,-25.19572 2.832489,14.53599 1.488816,-12.59785 1.440436,5.81439 v -17.79556 l 2.880868,26.51716 2.880871,-14.53599 1.440434,5.81439 h 12.471429"/>
   <path d="m -101.03534,304.35811 c -1.05303,-0.3871 -2.33695,-2.93973 -2.33695,-4.64623 0,-2.12687 1.51431,-4.54974 3.518063,-5.62886 1.18924,-0.64047 4.238459,-0.62206 5.477779,0.0331 0.50932,0.26923 2.48119,2.02414 4.38193,3.8998 3.743127,3.69372 4.48459,4.1288 6.233642,3.65783 1.059567,-0.28531 2.248149,-1.4817 2.510499,-2.527 0.231929,-0.92407 -0.08972,-2.32881 -0.715362,-3.12418 -0.749197,-0.95245 -0.587983,-2.06016 0.347425,-2.38718 0.865521,-0.30258 1.572032,0.22586 2.356215,1.76234 1.57974,3.09523 0.349591,6.85633 -2.76165,8.44356 -1.385834,0.707 -3.923403,0.75114 -5.224279,0.0909 -0.50089,-0.25423 -2.52546,-2.04546 -4.49904,-3.98051 -3.77742,-3.70367 -4.45715,-4.10532 -6.27281,-3.70653 -1.169849,0.25694 -2.456552,1.73085 -2.628202,3.01058 -0.11523,0.85917 -6.6e-4,1.3222 0.56672,2.29037 0.410853,0.70106 0.676193,1.50473 0.628353,1.90315 -0.0891,0.7419 -0.849093,1.17846 -1.582333,0.90892 z m 10.892222,-10.80619 c -0.97168,-0.33931 -2.37384,-1.58832 -7.62496,-6.79213 -3.538882,-3.507 -6.673802,-6.76302 -6.966482,-7.23559 -0.87258,-1.40892 -0.53619,-2.03679 2.92039,-5.45079 4.488302,-4.43302 3.524772,-4.72573 11.844062,3.59804 7.192673,7.19656 7.747999,7.94087 7.758683,10.39909 0.0071,1.63573 -0.957996,3.72183 -2.118943,4.58016 -1.798396,1.32961 -3.72888,1.62892 -5.81275,0.90122 z m 4.458354,-7.86989 c 0.111961,-0.57761 -10.955094,-11.78089 -11.637634,-11.78089 -0.24036,0 -0.51401,0.20063 -0.60811,0.44584 -0.12797,0.33348 1.29152,1.90844 5.63218,6.24911 3.36875,3.36875 5.95378,5.75315 6.162052,5.68379 0.197332,-0.0657 0.400513,-0.33474 0.451512,-0.59785 z m -26.475806,-17.53558 c -6.33064,-6.34401 -7.33089,-7.61818 -7.34549,-9.35703 -0.008,-0.93394 0.8651,-1.98257 1.80729,-2.17101 1.89441,-0.37888 2.45468,0.0369 9.49956,7.04905 3.67535,3.6583 6.64205,6.77284 6.59266,6.92121 -0.2829,0.84987 -1.18566,0.31194 -3.72712,-2.22087 l -2.68447,-2.67534 -1.17489,1.19712 -1.17488,1.19712 2.74157,2.75094 c 1.91493,1.92147 2.69288,2.87784 2.58008,3.1718 -0.0888,0.23148 -0.315,0.42086 -0.5026,0.42086 -0.18761,0 -3.16288,-2.82773 -6.61171,-6.28385 z m 1.65255,-4.95241 c -0.34618,-0.36849 -0.74132,-0.66999 -0.87808,-0.66999 -0.13677,0 -0.70127,0.50602 -1.25445,1.12448 l -1.00579,1.12448 0.69505,0.73433 0.69505,0.73433 1.18882,-1.18882 1.18882,-1.18882 z m -3.75708,-1.55029 1.12362,-1.14488 -1.32178,-1.23637 c -1.12628,-1.05351 -1.4812,-1.23636 -2.39974,-1.23636 -1.26613,0 -1.50616,0.37205 -1.07767,1.67038 0.28832,0.87364 1.98375,3.09212 2.36308,3.09212 0.10388,0 0.69451,-0.5152 1.31249,-1.14489 z" style="opacity:0.3;fill:#382929;filter:url(#filter996)"/>
   <path style="opacity:0.9;fill:#fdfdfd" d="m -101.03534,304.35811 c -1.05303,-0.3871 -2.33695,-2.93973 -2.33695,-4.64623 0,-2.12687 1.51431,-4.54974 3.518063,-5.62886 1.18924,-0.64047 4.238459,-0.62206 5.477779,0.0331 0.50932,0.26923 2.48119,2.02414 4.38193,3.8998 3.743127,3.69372 4.48459,4.1288 6.233642,3.65783 1.059567,-0.28531 2.248149,-1.4817 2.510499,-2.527 0.231929,-0.92407 -0.08972,-2.32881 -0.715362,-3.12418 -0.749197,-0.95245 -0.587983,-2.06016 0.347425,-2.38718 0.865521,-0.30258 1.572032,0.22586 2.356215,1.76234 1.57974,3.09523 0.349591,6.85633 -2.76165,8.44356 -1.385834,0.707 -3.923403,0.75114 -5.224279,0.0909 -0.50089,-0.25423 -2.52546,-2.04546 -4.49904,-3.98051 -3.77742,-3.70367 -4.45715,-4.10532 -6.27281,-3.70653 -1.169849,0.25694 -2.456552,1.73085 -2.628202,3.01058 -0.11523,0.85917 -6.6e-4,1.3222 0.56672,2.29037 0.410853,0.70106 0.676193,1.50473 0.628353,1.90315 -0.0891,0.7419 -0.849093,1.17846 -1.582333,0.90892 z m 10.892222,-10.80619 c -0.97168,-0.33931 -2.37384,-1.58832 -7.62496,-6.79213 -3.538882,-3.507 -6.673802,-6.76302 -6.966482,-7.23559 -0.87258,-1.40892 -0.53619,-2.03679 2.92039,-5.45079 4.488302,-4.43302 3.524772,-4.72573 11.844062,3.59804 7.192673,7.19656 7.747999,7.94087 7.758683,10.39909 0.0071,1.63573 -0.957996,3.72183 -2.118943,4.58016 -1.798396,1.32961 -3.72888,1.62892 -5.81275,0.90122 z m 4.458354,-7.86989 c 0.111961,-0.57761 -10.955094,-11.78089 -11.637634,-11.78089 -0.24036,0 -0.51401,0.20063 -0.60811,0.44584 -0.12797,0.33348 1.29152,1.90844 5.63218,6.24911 3.36875,3.36875 5.95378,5.75315 6.162052,5.68379 0.197332,-0.0657 0.400513,-0.33474 0.451512,-0.59785 z m -26.475806,-17.53558 c -6.33064,-6.34401 -7.33089,-7.61818 -7.34549,-9.35703 -0.008,-0.93394 0.8651,-1.98257 1.80729,-2.17101 1.89441,-0.37888 2.45468,0.0369 9.49956,7.04905 3.67535,3.6583 6.64205,6.77284 6.59266,6.92121 -0.2829,0.84987 -1.18566,0.31194 -3.72712,-2.22087 l -2.68447,-2.67534 -1.17489,1.19712 -1.17488,1.19712 2.74157,2.75094 c 1.91493,1.92147 2.69288,2.87784 2.58008,3.1718 -0.0888,0.23148 -0.315,0.42086 -0.5026,0.42086 -0.18761,0 -3.16288,-2.82773 -6.61171,-6.28385 z m 1.65255,-4.95241 c -0.34618,-0.36849 -0.74132,-0.66999 -0.87808,-0.66999 -0.13677,0 -0.70127,0.50602 -1.25445,1.12448 l -1.00579,1.12448 0.69505,0.73433 0.69505,0.73433 1.18882,-1.18882 1.18882,-1.18882 z m -3.75708,-1.55029 1.12362,-1.14488 -1.32178,-1.23637 c -1.12628,-1.05351 -1.4812,-1.23636 -2.39974,-1.23636 -1.26613,0 -1.50616,0.37205 -1.07767,1.67038 0.28832,0.87364 1.98375,3.09212 2.36308,3.09212 0.10388,0 0.69451,-0.5152 1.31249,-1.14489 z"/>
  </g>
  <path d="M 361.9375,-212 C 507.2348,-212 528,-191.28677 528,-46.125 V 70.125 C 528,215.28618 507.2348,236 361.9375,236 H 214.0625 C 68.7652,236 48,215.28618 48,70.125 V -46.125 C 48,-191.28677 68.7652,-212 214.0625,-212 Z" clip-path="url(#clipPath1082-3-361)" transform="matrix(0.1348539,0,0,0.1348539,-4.9712559,261.01666)" style="opacity:0.4;fill:none;stroke:url(#linearGradient1108);stroke-width:8;stroke-linecap:round;stroke-linejoin:round"/>
 </g>
</svg>
