<svg xmlns="http://www.w3.org/2000/svg" xmlns:xlink="http://www.w3.org/1999/xlink" style="enable-background:new" width="256" height="256" version="1.0">
 <defs>
  <filter id="filter4569" width="1.023" height="1.025" x="-.01" y="-.01" style="color-interpolation-filters:sRGB">
   <feGaussianBlur stdDeviation="1.16"/>
  </filter>
  <clipPath id="clipPath936" clipPathUnits="userSpaceOnUse">
   <path style="fill:#438ae9" d="M 329.9375,16 C 475.2348,16 496,36.71323 496,181.875 v 116.25 C 496,443.28618 475.2348,464 329.9375,464 H 182.0625 C 36.7652,464 16,443.28618 16,298.125 V 181.875 C 16,36.71323 36.7652,16 182.0625,16 Z"/>
  </clipPath>
  <linearGradient id="linearGradient4195">
   <stop offset="0" style="stop-color:#325fd1"/>
   <stop offset="1" style="stop-color:#6e98ff"/>
  </linearGradient>
  <linearGradient id="linearGradient1048" x1="24" x2="280" y1="28" y2="284" gradientTransform="translate(-26.432006,16.431991)" gradientUnits="userSpaceOnUse" xlink:href="#linearGradient4195"/>
  <filter id="filter989" width="1.046" height="1.05" x="-.02" y="-.03" style="color-interpolation-filters:sRGB">
   <feGaussianBlur stdDeviation="2.32"/>
  </filter>
  <linearGradient id="linearGradient1108" x1="296" x2="296" y1="-212" y2="236" gradientUnits="userSpaceOnUse" xlink:href="#linearGradient1013"/>
  <linearGradient id="linearGradient1013">
   <stop style="stop-color:#ffffff" offset="0"/>
   <stop offset=".125" style="stop-color:#ffffff;stop-opacity:0.09803922"/>
   <stop offset=".925" style="stop-color:#000000;stop-opacity:0.09803922"/>
   <stop style="stop-color:#000000;stop-opacity:0.49803922" offset="1"/>
  </linearGradient>
  <clipPath id="clipPath1082-3" clipPathUnits="userSpaceOnUse">
   <path style="fill:#8c59d9" d="M 361.9375,-212 C 507.2348,-212 528,-191.28677 528,-46.125 V 70.125 C 528,215.28618 507.2348,236 361.9375,236 H 214.0625 C 68.7652,236 48,215.28618 48,70.125 V -46.125 C 48,-191.28677 68.7652,-212 214.0625,-212 Z"/>
  </clipPath>
  <filter id="filter2208" width="1.09" height="1.103" x="-.04" y="-.05" style="color-interpolation-filters:sRGB">
   <feGaussianBlur stdDeviation=".797"/>
  </filter>
 </defs>
 <g transform="translate(0,-44)">
  <g style="display:none">
   <text style="line-height:0%;font-family:'DejaVu Sans'" x="19.01" y="-8.26" xml:space="preserve">
    <tspan x="19.01" y="-8.26" style="font-size:18px;line-height:1.25;font-family:'DejaVu Sans'">apps</tspan>
   </text>
   <text style="font-weight:bold;line-height:0%;font-family:'DejaVu Sans'" x="146.49" y="-8.26" xml:space="preserve">
    <tspan x="146.49" y="-8.26" style="font-weight:bold;font-size:18px;line-height:1.25;font-family:'DejaVu Sans'">webbrowser-app</tspan>
   </text>
   <rect width="16" height="16" x="320" y="236" style="fill:#cdcdcd"/>
   <rect width="24" height="24" x="320" y="188" style="fill:#cdcdcd"/>
   <rect width="32" height="32" x="320" y="132" style="fill:#cdcdcd"/>
   <rect style="fill:#cdcdcd" width="48" height="48" x="320" y="60"/>
   <rect width="256" height="256" x="24" y="28" style="fill:#cdcdcd"/>
  </g>
  <g>
   <path style="opacity:0.1;filter:url(#filter4569)" d="m 162.53675,60.431986 c 72.64865,0 83.03125,10.356615 83.03125,82.937504 v 58.125 c 0,72.58059 -10.3826,82.9375 -83.03125,82.9375 H 88.599254 C 15.9506,284.43199 5.568,274.07508 5.568,201.49449 v -58.125 c 0,-72.580889 10.3826,-82.937504 83.031254,-82.937504 z"/>
   <path d="m 162.53675,62.431986 c 72.64865,0 83.03125,10.356615 83.03125,82.937504 v 58.125 c 0,72.58059 -10.3826,82.9375 -83.03125,82.9375 H 88.599254 C 15.9506,286.43199 5.568,276.07508 5.568,203.49449 v -58.125 c 0,-72.580889 10.3826,-82.937504 83.031254,-82.937504 z" style="opacity:0.2;filter:url(#filter989)"/>
  </g>
  <g>
   <path d="m 162.53674,60.431991 c 72.64865,0 83.03125,10.356615 83.03125,82.937499 v 58.125 c 0,72.58059 -10.3826,82.9375 -83.03125,82.9375 H 88.599244 c -72.64865,0 -83.03125,-10.35691 -83.03125,-82.9375 v -58.125 c 0,-72.580884 10.3826,-82.937499 83.03125,-82.937499 z" style="fill:url(#linearGradient1048)"/>
   <g clip-path="url(#clipPath936)" transform="matrix(0.5,0,0,0.5,-2.432006,52.431991)" style="opacity:0.4;fill:#ffffff;enable-background:new">
    <g style="opacity:0.6;fill:#ffffff" transform="matrix(1.5675676,0,0,1.5675676,-1030.1622,795.05406)">
     <path style="fill:#ffffff" d="m 733.72415,-333.67241 h 25.51724 l 10.20689,10.2069 h 20.4138 l 10.20689,10.20689 v 20.41379 l -7.65517,7.65517 v 7.65518 l -15.31034,15.31034 v 10.2069 L 743.93104,-221.39655 744,-208 l -7.72413,-8.2931 v -33.17242 l 7.65517,-7.65517 L 744,-280 723.51725,-297.94827 v -25.51724 z"/>
     <path d="M -27.244141,30.917969 -52.324219,56 V 81.082031 118.70312 L -11.999993,156 v 40 l 44,44 h 24 l 40,40 v -48 l 24.000003,-24 h 16 l 24,-24 h 24 l -12,-12 L 196,144 172,120 h -36 l 1e-5,32 h -16 l -16,-16 v -16 l 24,-23.999997 h 20 L 148,80 124,56 H 84 v 24 l -19.999993,3e-6 -32,-32.000001 H 6.7944079e-6 Z M 200,152 188.00001,164 h 12 l 4,4 h 4 L 212,164 Z" transform="matrix(0.63793102,0,0,0.63793102,657.17242,-507.18965)" style="fill:#ffffff"/>
     <path style="fill:#ffffff" d="m 881.72414,-374.5 h -30.62069 l -17.86206,17.86207 v 25.51724 l 12.75862,12.75862 h 17.86207 l 7.65517,7.65518 v 7.65517 l 5.10345,5.10345 v 30.62069 l 19.37931,20.48276 32,-32 -0.34483,-29.31035 25.51724,-25.51724 h -10.2069 l -25.51724,-25.51724 v -10.2069 h -30.62069 z"/>
     <path d="M 488.00001,48.000002 472,64 H 448 L 424,88 408.00001,72.000003 h -48 l -24,24 L 336,116 h 24 v -12 h 16 v 16 l -8,8 -32,0.54102 L 324,140 h -16 v 16 l -12,12 v 24 h 24 l 16,-16 h 24 16 l 16,16 h 20 l -12,-12 12,-12 h 12 l 12,12 h -12 l -12,12 11.7832,11.7832 L 424,216 h -15.99999 l 48,48 h 8 l 8,-8 L 488,240 472.00001,224 h 72 V 48.000002 Z M 360,176 h -7.99999 l -10e-6,8 16,16 h 8 v -8 z" transform="matrix(0.63793102,0,0,0.63793102,657.17242,-507.18965)" style="fill:#ffffff"/>
     <path style="fill:#ffffff" d="m 856.2069,-422.98275 v -7.65518 l 7.65518,-7.65517 v 15.31035 z"/>
     <path d="m 935.31035,-272.43103 v -16 l 10.2069,-9.51724 v 25.51724 z" style="fill:#ffffff"/>
     <path style="fill:#ffffff" d="m 805.17242,-435.74137 v -10.2069 l 15.31035,-15.31034 v -10.2069 l 10.20689,-10.2069 v -15.31034 l -10.20689,-10.2069 h -40.82759 l -17.86207,20.41379 15.31035,15.31035 v 16 l 17.86206,19.72414 z"/>
     <path style="fill:#ffffff" d="m 743.93104,-481.67241 v -25.51724 h -51.03448 l 25.51724,25.51724 z"/>
     <path d="m 817.93104,-440.84482 h 7.65518 l 7.65517,7.65517 -15.31035,10e-6 z" style="fill:#ffffff"/>
     <path style="fill:#ffffff" d="m 749.03449,-356.63794 h -7.65518 l -7.65517,7.65517 15.31035,1e-5 z"/>
    </g>
   </g>
   <path style="opacity:0.5;fill:none;stroke:url(#linearGradient1108);stroke-width:8;stroke-linecap:round;stroke-linejoin:round" d="M 361.9375,-212 C 507.2348,-212 528,-191.28677 528,-46.125 V 70.125 C 528,215.28618 507.2348,236 361.9375,236 H 214.0625 C 68.7652,236 48,215.28618 48,70.125 V -46.125 C 48,-191.28677 68.7652,-212 214.0625,-212 Z" clip-path="url(#clipPath1082-3)" transform="matrix(0.5,0,0,0.5,-18.432006,166.43199)"/>
   <g transform="matrix(3.7795275,0,0,3.7795275,-2.4320035,-820.20384)">
    <g transform="translate(1.6218111,0.96904792)" style="opacity:0.3;fill:#3b1818;filter:url(#filter2208)">
     <g transform="matrix(2.4289618,0,0,2.4289618,-853.77067,-50.152119)" style="fill:#3b1818">
      <path style="fill:#3b1818" d="m 357,120.75 -1,0.25 v 11.5 c 10e-5,1.00002 -0.0367,1.79378 0.30273,2.47266 0.16971,0.33943 0.46246,0.63001 0.83789,0.79687 C 357.51608,135.9364 357.95834,136 358.5,136 h 4 c 0.54167,0 0.98392,-0.0636 1.35938,-0.23047 0.37545,-0.16687 0.66816,-0.45743 0.83789,-0.79687 C 365.03671,134.29377 365,133.5 365,132.5 v -6 c 5e-5,-1.00002 0.0367,-1.79377 -0.30273,-2.47266 -0.16974,-0.33944 -0.46244,-0.63 -0.83789,-0.79687 C 363.4839,123.0636 363.04167,123 362.5,123 H 357 Z m 0,3.25 h 5.5 c 0.45833,0 0.76608,0.0614 0.95312,0.14453 0.18706,0.0831 0.26933,0.16757 0.34961,0.32813 0.16057,0.32111 0.19732,1.02735 0.19727,2.02734 v 6 c 0,1 -0.0367,1.70623 -0.19727,2.02734 -0.0803,0.16056 -0.16255,0.245 -0.34961,0.32813 C 363.26608,134.9386 362.95833,135 362.5,135 h -4 c -0.45834,0 -0.76611,-0.0614 -0.95312,-0.14453 -0.18703,-0.0831 -0.26934,-0.16757 -0.34961,-0.32813 C 357.03673,134.20624 357.0001,133.50007 357,132.5 Z m 1,1 v 3 h 5 v -3 z m 0,4 v 1 h 1 v -1 z m 2,0 v 1 h 1 v -1 z m 2,0 v 1 h 1 v -1 z m -4,2 v 1 h 1 v -1 z m 2,0 v 1 h 1 v -1 z m 2,0 v 1 h 1 v -1 z m -4,2 v 1 h 1 v -1 z m 2,0 v 1 h 1 v -1 z m 2,0 v 1 h 1 v -1 z"/>
     </g>
     <g transform="matrix(0,1.4369318,-1.4369318,0,228.85839,-399.32278)" style="fill:#3b1818">
      <path style="fill:#3b1818" d="m 460,122 c -2.66694,0 -5.33343,1.01507 -7.36523,3.04688 l 0.73632,0.73828 c 3.66553,-3.66553 9.59229,-3.66553 13.25782,0 l 0.73632,-0.73828 C 465.33343,123.01507 462.66695,122 460,122 Z m 0,2.98242 c -1.9205,0 -3.84044,0.73108 -5.30273,2.19336 l 0.73632,0.73633 c 2.5265,-2.5265 6.60633,-2.5265 9.13282,0 l 0.73632,-0.73633 C 463.84045,125.7135 461.92051,124.98242 460,124.98242 Z m 0,2.99805 c -1.17406,0 -2.34746,0.44512 -3.24023,1.33789 l 0.73632,0.73828 c 1.38747,-1.38747 3.62035,-1.38746 5.00782,0 l 0.73632,-0.73828 C 462.34746,128.42559 461.17407,127.98047 460,127.98047 Z M 460,131 a 2,1.9999999 0 0 0 -2,2 2,1.9999999 0 0 0 2,2 2,1.9999999 0 0 0 2,-2 2,1.9999999 0 0 0 -2,-2 z"/>
     </g>
    </g>
    <g transform="translate(1.6218111,0.96904792)" style="fill:#ffffff">
     <g transform="matrix(2.4289618,0,0,2.4289618,-853.77067,-50.152119)" style="fill:#ffffff">
      <path d="m 357,120.75 -1,0.25 v 11.5 c 10e-5,1.00002 -0.0367,1.79378 0.30273,2.47266 0.16971,0.33943 0.46246,0.63001 0.83789,0.79687 C 357.51608,135.9364 357.95834,136 358.5,136 h 4 c 0.54167,0 0.98392,-0.0636 1.35938,-0.23047 0.37545,-0.16687 0.66816,-0.45743 0.83789,-0.79687 C 365.03671,134.29377 365,133.5 365,132.5 v -6 c 5e-5,-1.00002 0.0367,-1.79377 -0.30273,-2.47266 -0.16974,-0.33944 -0.46244,-0.63 -0.83789,-0.79687 C 363.4839,123.0636 363.04167,123 362.5,123 H 357 Z m 0,3.25 h 5.5 c 0.45833,0 0.76608,0.0614 0.95312,0.14453 0.18706,0.0831 0.26933,0.16757 0.34961,0.32813 0.16057,0.32111 0.19732,1.02735 0.19727,2.02734 v 6 c 0,1 -0.0367,1.70623 -0.19727,2.02734 -0.0803,0.16056 -0.16255,0.245 -0.34961,0.32813 C 363.26608,134.9386 362.95833,135 362.5,135 h -4 c -0.45834,0 -0.76611,-0.0614 -0.95312,-0.14453 -0.18703,-0.0831 -0.26934,-0.16757 -0.34961,-0.32813 C 357.03673,134.20624 357.0001,133.50007 357,132.5 Z m 1,1 v 3 h 5 v -3 z m 0,4 v 1 h 1 v -1 z m 2,0 v 1 h 1 v -1 z m 2,0 v 1 h 1 v -1 z m -4,2 v 1 h 1 v -1 z m 2,0 v 1 h 1 v -1 z m 2,0 v 1 h 1 v -1 z m -4,2 v 1 h 1 v -1 z m 2,0 v 1 h 1 v -1 z m 2,0 v 1 h 1 v -1 z" style="fill:#ffffff"/>
     </g>
     <g transform="matrix(0,1.4369318,-1.4369318,0,228.85839,-399.32278)" style="fill:#ffffff">
      <path d="m 460,122 c -2.66694,0 -5.33343,1.01507 -7.36523,3.04688 l 0.73632,0.73828 c 3.66553,-3.66553 9.59229,-3.66553 13.25782,0 l 0.73632,-0.73828 C 465.33343,123.01507 462.66695,122 460,122 Z m 0,2.98242 c -1.9205,0 -3.84044,0.73108 -5.30273,2.19336 l 0.73632,0.73633 c 2.5265,-2.5265 6.60633,-2.5265 9.13282,0 l 0.73632,-0.73633 C 463.84045,125.7135 461.92051,124.98242 460,124.98242 Z m 0,2.99805 c -1.17406,0 -2.34746,0.44512 -3.24023,1.33789 l 0.73632,0.73828 c 1.38747,-1.38747 3.62035,-1.38746 5.00782,0 l 0.73632,-0.73828 C 462.34746,128.42559 461.17407,127.98047 460,127.98047 Z M 460,131 a 2,1.9999999 0 0 0 -2,2 2,1.9999999 0 0 0 2,2 2,1.9999999 0 0 0 2,-2 2,1.9999999 0 0 0 -2,-2 z" style="fill:#ffffff"/>
     </g>
    </g>
   </g>
  </g>
 </g>
</svg>
