<svg xmlns="http://www.w3.org/2000/svg" xmlns:xlink="http://www.w3.org/1999/xlink" width="256" height="256" version="1.1" viewBox="0 0 67.73 67.73">
 <defs>
  <linearGradient id="linearGradient1108" x1="296" x2="296" y1="-212" y2="236" gradientUnits="userSpaceOnUse" xlink:href="#linearGradient1013"/>
  <linearGradient id="linearGradient1013">
   <stop offset="0" style="stop-color:#ffffff"/>
   <stop style="stop-color:#ffffff;stop-opacity:0.09803922" offset=".125"/>
   <stop style="stop-color:#000000;stop-opacity:0.09803922" offset=".925"/>
   <stop offset="1" style="stop-color:#000000;stop-opacity:0.49803922"/>
  </linearGradient>
  <clipPath id="clipPath1082-3-2" clipPathUnits="userSpaceOnUse">
   <path d="M 361.9375,-212 C 507.2348,-212 528,-191.28677 528,-46.125 V 70.125 C 528,215.28618 507.2348,236 361.9375,236 H 214.0625 C 68.7652,236 48,215.28618 48,70.125 V -46.125 C 48,-191.28677 68.7652,-212 214.0625,-212 Z" style="fill:#8c59d9"/>
  </clipPath>
  <filter style="color-interpolation-filters:sRGB" id="filter4569" width="1.023" height="1.025" x="-.01" y="-.01">
   <feGaussianBlur stdDeviation="1.16"/>
  </filter>
  <filter style="color-interpolation-filters:sRGB" id="filter913" width="1.046" height="1.05" x="-.02" y="-.03">
   <feGaussianBlur stdDeviation="2.32"/>
  </filter>
  <linearGradient id="linearGradient4216" x1="56" x2="56" y1="288" y2="83.578" gradientTransform="matrix(0,-0.19921875,0.19921875,0,6.9367375,59.379482)" gradientUnits="userSpaceOnUse" spreadMethod="reflect" xlink:href="#linearGradient4210"/>
  <linearGradient id="linearGradient4210">
   <stop style="stop-color:#ffffff;stop-opacity:0.97196263" offset="0"/>
   <stop offset=".646" style="stop-color:#ffffff;stop-opacity:0.91588783"/>
   <stop style="stop-color:#ffffff;stop-opacity:0" offset="1"/>
  </linearGradient>
 </defs>
 <g transform="translate(0,-229.26666)">
  <path style="opacity:0.2;filter:url(#filter913)" d="m 162.53675,5.5680001 c 72.64865,0 83.03125,10.3566149 83.03125,82.9375049 v 58.125005 c 0,72.58059 -10.3826,82.9375 -83.03125,82.9375 H 88.599254 C 15.9506,229.56801 5.568,219.2111 5.568,146.63051 V 88.505505 c 0,-72.58089 10.3826,-82.9375049 83.031254,-82.9375049 z" transform="matrix(0.26458333,0,0,0.26458333,-1.8735229e-8,232.67026)"/>
  <path d="m 162.53675,3.5680001 c 72.64865,0 83.03125,10.3566149 83.03125,82.9375049 v 58.125005 c 0,72.58059 -10.3826,82.9375 -83.03125,82.9375 H 88.599254 C 15.9506,227.56801 5.568,217.2111 5.568,144.63051 V 86.505505 c 0,-72.58089 10.3826,-82.9375049 83.031254,-82.9375049 z" transform="matrix(0.26458333,0,0,0.26458333,-1.8735229e-8,232.67026)" style="opacity:0.1;filter:url(#filter4569)"/>
  <path style="fill:#4d4d4d" d="m 23.441882,233.61429 c -9.611188,0 -15.1016409,0.68375 -18.19217,3.77032 -3.090525,3.08656 -3.776514,8.57135 -3.776514,18.17356 v 15.37891 c 0,9.60218 0.68599,15.087 3.776514,18.17357 3.0905286,3.08658 8.580982,3.77031 18.19217,3.77031 h 19.562631 c 9.61119,0 15.101644,-0.68373 18.19217,-3.77031 3.090527,-3.08657 3.776515,-8.57139 3.776515,-18.17357 v -15.37891 c 0,-9.60221 -0.685988,-15.087 -3.776515,-18.17356 -3.090526,-3.08657 -8.580982,-3.77032 -18.19217,-3.77032 z"/>
  <path style="opacity:0.2;fill:#131313" d="m 1.473198,270.40792 v 0.52916 c 0,9.60218 0.68599,15.087 3.776514,18.17357 3.0905286,3.08658 8.580982,3.77031 18.19217,3.77031 h 19.562631 c 9.61119,0 15.101644,-0.68373 18.19217,-3.77031 3.090527,-3.08657 3.776515,-8.57139 3.776515,-18.17357 v -0.52916 c 0,9.60217 -0.685988,15.08699 -3.776515,18.17356 -3.090526,3.08658 -8.58098,3.77032 -18.19217,3.77032 H 23.441882 c -9.611188,0 -15.1016414,-0.68374 -18.19217,-3.77032 -3.090524,-3.08657 -3.776514,-8.57139 -3.776514,-18.17356 z"/>
  <g transform="matrix(0.5675661,0,0,0.5675661,-2.0341953,262.10995)">
   <path d="m 22.077357,46.784342 c 0.46294,0.52006 0.96523,0.99865 1.50971,1.43889 h 3.27154 v -7.96875 h -4.78125 z m 0,-83.029857 h 4.78125 v -7.96875 h -3.27154 c -0.54448,0.44024 -1.04677,0.91883 -1.50971,1.43889 z m 7.96875,84.468746 h 4.78125 v -7.96875 h -4.78125 z m 0,-84.468746 h 4.78125 v -7.96875 h -4.78125 z m 7.96875,84.468746 h 4.78125 v -7.96875 h -4.78125 z m 0,-84.468746 h 4.78125 v -7.96875 h -4.78125 z m 7.96876,84.468746 h 4.78125 v -7.96875 h -4.78125 z m 0,-84.468746 h 4.78125 v -7.96875 h -4.78125 z m 7.96875,84.468746 h 4.781251 v -7.96875 h -4.781251 z m 0,-84.468746 h 4.781251 v -7.96875 h -4.781251 z m 7.968751,84.468746 h 4.78125 v -7.96875 h -4.78125 z m 0,-84.468746 h 4.78125 v -7.96875 h -4.78125 z m 7.96875,84.468746 h 4.781249 v -7.96875 h -4.781249 z m 0,-84.468746 h 4.781249 v -7.96875 h -4.781249 z m 7.968749,84.468747 h 4.78125 v -7.96875 h -4.78125 z m 0,-84.468747 h 4.78125 v -7.96875 h -4.78125 z m 7.968741,84.468747 h 4.78125 v -7.96875 h -4.78125 z m 0,-84.468747 h 4.78125 v -7.96875 h -4.78125 z m 7.96875,84.468747 h 4.781252 v -7.96875 h -4.781252 z m 0,-84.468747 h 4.781252 v -7.96875 h -4.781252 z m 7.968752,84.468747 h 3.27155 c 0.54449,-0.44024 1.04677,-0.91883 1.5097,-1.43889 v -6.52986 h -4.78125 z m 0,-84.468747 h 4.78125 v -6.52986 c -0.46293,-0.52006 -0.96522,-0.99865 -1.5097,-1.43889 h -3.27155 z" style="opacity:0.3;fill:url(#linearGradient4216)"/>
   <path style="opacity:0.05;fill:#ff0000;fill-opacity:0" d="m 57.401328,-25.782479 -7.01001,14.27527 V 0.29651126 c -0.98412,1.15307004 -2.05977,2.31501004 -3.18127,3.43652004 -3.68617,3.6861599 -7.81888,6.9102597 -10.5835,7.8317897 L 31.969813,6.9143012 17.694553,13.924311 v 34.00415 h 50.999985 v -63.2644 c -3.07128,-6.6626 -6.44834,-9.14836 -11.29321,-10.44654 z m -19.43628,45.6211 c 10e-4,-0.001 0.005,0.001 0.006,0 -0.52011,0.3248 -1.0461,0.64281 -1.57507,0.95874 0.52911,-0.31588 1.04862,-0.63399 1.56885,-0.95874 z m -4.799915,2.80151 c 0.002,-7.9e-4 0.005,8e-4 0.006,0 -0.54622,0.29865 -1.1014,0.59378 -1.656,0.88404 0.55467,-0.29023 1.10348,-0.58542 1.64979,-0.88404 z"/>
   <g transform="matrix(0.85251349,0,0,0.85251349,8.695531,-2.7450648)">
    <path style="fill:#f38577" d="m 61.792952,-33.799847 0.128166,82.023078 h 6.433694 v -82.023078 z"/>
    <path d="m 48.66926,-20.676153 v 4.921382 h 6.561845 v -4.921382 z m -6.561849,9.842769 v 4.921383 h 13.123694 v -4.921383 z m -13.12369,9.842768 V 3.930768 H 55.231105 V -0.990616 Z M 22.421876,8.8521549 V 13.773538 H 55.231105 V 8.8521549 Z m 6.561845,9.8427691 v 4.921383 h 26.247384 v -4.921383 z m 13.12369,9.842769 v 4.921383 h 13.123694 v -4.921383 z" style="fill:#83b9f5;fill-rule:evenodd"/>
    <path d="M 78.197569,-37.080773 H 65.073872 51.950181 l 6.561849,9.842771 6.561842,9.842769 6.561845,-9.842769 z" style="fill:#d85656"/>
    <path style="fill:#527eb2" d="m 77.468044,-11.814638 c -1.208244,0.06518 -2.509263,1.127529 -2.506222,2.30471 l -0.04518,34.756038 c 0,1.569695 2.310291,2.935569 3.631913,2.003061 L 103.4484,9.8117381 c 1.33025,-0.9209798 1.32721,-3.0813965 0,-4.0064627 L 78.594735,-11.513006 c -0.331738,-0.231058 -0.722956,-0.32315 -1.125882,-0.301614 z"/>
   </g>
  </g>
  <path style="opacity:0.1;fill:#ffffff" d="M 129.89062 240.43164 L 162.53711 240.43164 C 171.61855 240.43164 179.72663 240.27025 186.96289 239.8457 C 190.58102 239.63343 193.98084 239.35648 197.17578 239 C 200.37072 238.64352 203.36104 238.20771 206.1582 237.68164 C 208.95536 237.15557 211.55959 236.53744 213.98438 235.81641 C 216.40916 235.09537 218.65461 234.27146 220.73242 233.33008 C 222.81024 232.38869 224.72031 231.33165 226.47656 230.14453 C 228.23281 228.95742 229.83483 227.63987 231.29492 226.18164 C 232.75501 224.72342 234.07294 223.12331 235.26172 221.36914 C 236.4505 219.61497 237.51029 217.70636 238.45312 215.63086 C 239.39596 213.55536 240.22109 211.31283 240.94336 208.89062 C 241.66562 206.46842 242.28543 203.86656 242.8125 201.07227 C 243.33957 198.27797 243.77362 195.29138 244.13086 192.09961 C 244.4881 188.90784 244.76768 185.5111 244.98047 181.89648 C 245.40605 174.66725 245.56836 166.56707 245.56836 157.49414 L 245.56836 99.369141 C 245.56836 90.296186 245.40605 82.19604 244.98047 74.966797 C 244.76768 71.352175 244.4881 67.955439 244.13086 64.763672 C 243.77362 61.571905 243.33957 58.585309 242.8125 55.791016 C 242.28543 52.996722 241.66562 50.394858 240.94336 47.972656 C 240.22109 45.550455 239.39596 43.307914 238.45312 41.232422 C 237.51029 39.15693 236.4505 37.248304 235.26172 35.494141 C 234.07294 33.739977 232.75501 32.139858 231.29492 30.681641 C 229.83483 29.223419 228.23281 27.907818 226.47656 26.720703 C 224.72031 25.533589 222.81024 24.47459 220.73242 23.533203 C 218.65461 22.591816 216.40916 21.767914 213.98438 21.046875 C 211.55959 20.325836 208.95536 19.707712 206.1582 19.181641 C 203.36104 18.655569 200.37072 18.221718 197.17578 17.865234 C 193.98084 17.508751 190.58102 17.229854 186.96289 17.017578 C 179.72663 16.593027 171.61855 16.431641 162.53711 16.431641 L 129.89062 16.431641 L 129.89062 240.43164 z" transform="matrix(0.26458333,0,0,0.26458333,0,229.26666)"/>
  <path d="M 361.9375,-212 C 507.2348,-212 528,-191.28677 528,-46.125 V 70.125 C 528,215.28618 507.2348,236 361.9375,236 H 214.0625 C 68.7652,236 48,215.28618 48,70.125 V -46.125 C 48,-191.28677 68.7652,-212 214.0625,-212 Z" clip-path="url(#clipPath1082-3-2)" transform="matrix(0.13229167,0,0,0.13229167,-4.876802,261.66013)" style="opacity:0.4;fill:none;stroke:url(#linearGradient1108);stroke-width:8;stroke-linecap:round;stroke-linejoin:round"/>
 </g>
</svg>
