<svg xmlns="http://www.w3.org/2000/svg" xmlns:xlink="http://www.w3.org/1999/xlink" style="enable-background:new" width="256" height="256" version="1.0">
 <defs>
  <filter id="filter925" width="1.046" height="1.05" x="-.02" y="-.03" style="color-interpolation-filters:sRGB">
   <feGaussianBlur stdDeviation="2.32"/>
  </filter>
  <filter id="filter931" width="1.023" height="1.025" x="-.01" y="-.01" style="color-interpolation-filters:sRGB">
   <feGaussianBlur stdDeviation="1.16"/>
  </filter>
  <linearGradient id="linearGradient1108" x1="296" x2="296" y1="-212" y2="236" gradientUnits="userSpaceOnUse" xlink:href="#linearGradient1013"/>
  <linearGradient id="linearGradient1013">
   <stop style="stop-color:#ffffff" offset="0"/>
   <stop offset=".125" style="stop-color:#ffffff;stop-opacity:0.09803922"/>
   <stop offset=".925" style="stop-color:#000000;stop-opacity:0.09803922"/>
   <stop style="stop-color:#000000;stop-opacity:0.49803922" offset="1"/>
  </linearGradient>
  <clipPath id="clipPath1082-3-2" clipPathUnits="userSpaceOnUse">
   <path style="fill:#8c59d9" d="M 361.9375,-212 C 507.2348,-212 528,-191.28677 528,-46.125 V 70.125 C 528,215.28618 507.2348,236 361.9375,236 H 214.0625 C 68.7652,236 48,215.28618 48,70.125 V -46.125 C 48,-191.28677 68.7652,-212 214.0625,-212 Z"/>
  </clipPath>
 </defs>
 <g transform="translate(0,-44)">
  <g>
   <g>
    <path style="opacity:0.2;filter:url(#filter925)" d="m 162.53675,62.431991 c 72.64865,0 83.03125,10.356615 83.03125,82.937499 v 58.125 c 0,72.58059 -10.3826,82.9375 -83.03125,82.9375 h -73.9375 c -72.64865,0 -83.0312501,-10.35691 -83.0312501,-82.9375 v -58.125 c 0,-72.580884 10.3826001,-82.937499 83.0312501,-82.937499 z"/>
    <path d="m 162.53675,61.431991 c 72.64865,0 83.03125,10.356615 83.03125,82.937499 v 58.125 c 0,72.58059 -10.3826,82.9375 -83.03125,82.9375 h -73.9375 c -72.64865,0 -83.0312501,-10.35691 -83.0312501,-82.9375 v -58.125 c 0,-72.580884 10.3826001,-82.937499 83.0312501,-82.937499 z" style="opacity:0.1;filter:url(#filter931)"/>
   </g>
   <g>
    <path d="m 162.53675,60.227832 c 72.64865,0 83.03125,10.356615 83.03125,82.937498 v 58.125 c 0,72.58059 -10.3826,82.9375 -83.03125,82.9375 h -73.9375 c -72.64865,0 -83.0312501,-10.35691 -83.0312501,-82.9375 v -58.125 c 0,-72.580883 10.3826001,-82.937498 83.0312501,-82.937498 z" style="fill:#4a4a4a"/>
    <path style="opacity:0.1;fill:#ffffff" d="m 88.599235,284.432 c -72.648666,0 -83.0312587,-7.92232 -83.0312587,-63.44328 v -22.2315 H 245.56796 v 22.2315 c 0,55.52096 -10.38257,63.44328 -83.03121,63.44328 z"/>
    <path style="fill:#ffffff" d="m 79.400399,60.63227 c -5.736557,0.081 -11.677757,0.111642 -16.594757,0.400114 -5.438765,0.319243 -9.912365,0.973586 -14.427129,1.625764 L 34.355698,114.99355 h 30.480001 z"/>
    <path style="fill:#ffffff" d="m 192.57907,61.545191 c -1.61569,-0.130929 -2.82553,-0.412179 -4.53531,-0.513021 -7.38108,-0.433179 -15.64858,-0.600129 -24.91091,-0.600129 h -0.5961 l -14.62723,54.586349 h 30.34241 z"/>
    <path style="fill:#fcfcfc" d="M 136.12104,60.432255 H 106.23298 L 91.622421,114.95603 h 29.888059 z"/>
    <circle style="fill:#ffffff;stroke:#8b8b8b;stroke-width:1.94426537" cx="215.314" cy="106.899" r="11.342"/>
    <circle style="opacity:0.3;fill:#ffffff;stroke:#797979;stroke-width:1.94426537" cx="215.314" cy="106.899" r="9.477"/>
    <path style="fill:#ffffff" d="m 125.568,144.21499 c -30.347036,0 -55.000008,24.65297 -55.000008,55.00005 0,30.34702 24.652972,54.99995 55.000008,54.99995 30.34702,0 54.99999,-24.65293 54.99997,-54.99995 0,-30.34708 -24.65295,-55.00005 -54.99997,-55.00005 z m -16.71364,33.36332 41.24372,21.15061 -41.24372,21.14858 z"/>
    <path style="opacity:0.4;fill:none;stroke:url(#linearGradient1108);stroke-width:8;stroke-linecap:round;stroke-linejoin:round" d="M 361.9375,-212 C 507.2348,-212 528,-191.28677 528,-46.125 V 70.125 C 528,215.28618 507.2348,236 361.9375,236 H 214.0625 C 68.7652,236 48,215.28618 48,70.125 V -46.125 C 48,-191.28677 68.7652,-212 214.0625,-212 Z" clip-path="url(#clipPath1082-3-2)" transform="matrix(0.5,0,0,0.5,-18.432015,166.432)"/>
   </g>
  </g>
 </g>
</svg>
