<svg width="256" height="256" version="1.1" viewBox="0 0 67.73 67.73" xmlns="http://www.w3.org/2000/svg" xmlns:xlink="http://www.w3.org/1999/xlink">
 <defs>
  <linearGradient id="linearGradient1108" x1="296" x2="296" y1="-212" y2="236" gradientUnits="userSpaceOnUse">
   <stop style="stop-color:#ffffff" offset="0"/>
   <stop style="stop-color:#ffffff;stop-opacity:.09803922" offset=".125"/>
   <stop style="stop-color:#000000;stop-opacity:.09803922" offset=".925"/>
   <stop style="stop-color:#000000;stop-opacity:.49803922" offset="1"/>
  </linearGradient>
  <clipPath id="clipPath1082-3-367">
   <path d="M 361.9375,-212 C 507.2348,-212 528,-191.28677 528,-46.125 V 70.125 C 528,215.28618 507.2348,236 361.9375,236 H 214.0625 C 68.7652,236 48,215.28618 48,70.125 V -46.125 C 48,-191.28677 68.7652,-212 214.0625,-212 Z" style="fill:#8c59d9"/>
  </clipPath>
  <filter id="filter4569" x="-.01" y="-.01" width="1.023" height="1.025" style="color-interpolation-filters:sRGB">
   <feGaussianBlur stdDeviation="1.16"/>
  </filter>
  <filter id="filter1029" x="-.02" y="-.03" width="1.046" height="1.05" style="color-interpolation-filters:sRGB">
   <feGaussianBlur stdDeviation="2.32"/>
  </filter>
 </defs>
 <g transform="translate(0,-229.26666)">
  <path transform="matrix(.26458333 0 0 .26458333 0 229.26666)" d="m5.5683594 101.36914v56.125c0 9.07258 0.1620995 17.17296 0.5878906 24.40234 0.2128956 3.6147 0.4922655 7.01124 0.8496094 10.20313 0.3573439 3.19188 0.7931865 6.18021 1.3203125 8.97461 0.5271259 2.7944 1.1449457 5.39611 1.8671871 7.81836 0.722242 2.42224 1.547544 4.66482 2.490235 6.74023s2.002932 3.98243 3.191406 5.73633c1.188474 1.75391 2.505252 3.35478 3.964844 4.8125 1.459591 1.45773 3.062317 2.77212 4.818359 3.95898 1.756042 1.18687 3.666314 2.24617 5.744141 3.1875 2.077826 0.94134 4.323102 1.7652 6.748047 2.48633 2.424944 0.72114 5.028775 1.33898 7.826171 1.86524 2.797397 0.52626 5.787241 0.96165 8.982422 1.31836 3.195182 0.3567 6.596543 0.63518 10.214844 0.84765 7.236602 0.42496 15.3447 0.58594 24.425781 0.58594h73.937501c9.08108 0 17.18918-0.16098 24.42578-0.58594 3.6183-0.21247 7.01771-0.49095 10.21289-0.84765 3.19518-0.35671 6.18503-0.7921 8.98242-1.31836 2.7974-0.52626 5.40318-1.1441 7.82813-1.86524 2.42494-0.72113 4.67022-1.54499 6.74805-2.48633 2.07782-0.94133 3.98809-2.00063 5.74414-3.1875 1.75604-1.18686 3.35681-2.50125 4.8164-3.95898 1.45959-1.45772 2.77832-3.05859 3.9668-4.8125 1.18847-1.7539 2.24676-3.66092 3.18945-5.73633s1.76995-4.31799 2.49219-6.74023c0.72224-2.42225 1.34006-5.02396 1.86719-7.81836 0.52712-2.7944 0.96297-5.78273 1.32031-8.97461 0.35734-3.19189 0.63671-6.58843 0.84961-10.20313 0.42579-7.22938 0.58789-15.32976 0.58789-24.40234v-56.125c0-72.580888-10.3826-82.937499-83.03125-82.937499h-73.937501c-72.648653 0-83.03125 10.356611-83.03125 82.937499z" style="filter:url(#filter1029);opacity:.2"/>
  <path transform="matrix(.26458333 0 0 .26458333 -1.8735229e-8 232.67026)" d="m162.53675 3.5680001c72.64865 0 83.03125 10.356615 83.03125 82.937505v58.125005c0 72.58059-10.3826 82.9375-83.03125 82.9375h-73.937496c-72.648654 0-83.031254-10.35691-83.031254-82.9375v-58.125005c0-72.58089 10.3826-82.937505 83.031254-82.937505z" style="filter:url(#filter4569);opacity:.1"/>
  <path d="m43.004513 233.61429c19.221622 0 21.968685 2.74019 21.968685 21.94388v15.37891c0 19.20362-2.747063 21.94388-21.968685 21.94388h-19.56263c-19.221622 0-21.968685-2.74026-21.968685-21.94388v-15.37891c0-19.20369 2.7470629-21.94388 21.968685-21.94388z" style="fill:#8a8a8a"/>
  <g transform="translate(-.621215 .46945)">
   <path d="m31.723705 239.73616c-10.914956 0-19.763273 8.84833-19.763273 19.76328v0.56466h39.526547v-0.56466c0-10.91495-8.848318-19.76328-19.763274-19.76328z" style="fill:#ffc832"/>
   <path d="m24.383062 249.78818h0.78184l9.382126 10.16397h-7.818438z" style="fill:#f3597e"/>
   <path d="m25.951987 240.60612s5.381859 9.12576 5.966843 8.89177c0.584985-0.234 5.030866-8.89177 5.030866-8.89177" style="fill:none;stroke-width:3.96875;stroke:#ffffff"/>
   <path d="m31.723705 239.73616c-10.914956 0-19.763273 8.84833-19.763273 19.76328v0.56466h39.526547v-0.56466c0-10.91495-8.848318-19.76328-19.763274-19.76328z" style="fill:none;stroke-width:1.1293298;stroke:#000000"/>
   <g transform="translate(.291451)">
    <path d="m64.524198 278.58393c0.02996-0.3806 0.07046-0.73011 0.09405-1.13068 0.112657-1.91277 0.155546-4.056 0.155546-6.45645v-5.27875c-0.48463-0.0377-0.965838-0.0574-1.430404-0.0574h-7.889957c-3.919273 0-8.90279 1.16088-9.042342 6.5133 0.04912 4.45065 1.407046 3.74019 4.817793 3.92896 4.663281 0.58394 4.33936 1.57108 4.81453 2.92237 0.0615 1.09651 0.40172 3.36756 2.249123 3.23901h0.110585v8e-3h1.620573v-5e-3l0.481108-3e-3c1.847402 0.12856 3.046137-0.33381 3.661793-2.10322 0.05106-0.37622 0.109138-1.03743 0.3576-1.57665z" style="fill:#060606"/>
    <path d="m65.053365 278.05476c0.02996-0.3806 0.07046-0.73011 0.09405-1.13068 0.112656-1.91277 0.155545-4.056 0.155545-6.45645v-5.27875c-0.484629-0.0377-0.965837-0.0574-1.430403-0.0574h-7.889957c-3.919273 0-8.90279 1.16088-9.042342 6.5133 0.04912 4.45065 1.407046 3.7402 4.817793 3.92896 5.881616-0.16104 4.339359 1.57108 4.81453 2.92237 0.0615 1.09652 0.401719 3.36756 2.249122 3.23901h0.110585v8e-3h1.620573v-5e-3l0.481108-3e-3c1.847403 0.12855 3.046138-0.33381 3.661794-2.10323 0.05106-0.37622 0.109138-1.03743 0.3576-1.57665z" style="fill:#d24da3"/>
    <path d="m65.302962 269.79532v-3.29282a4.758127 2.1831403 0 0 0-3.117638-0.53589 4.758127 2.1831403 0 0 0-4.758367 2.18333 4.758127 2.1831403 0 0 0 4.758367 2.18282 4.758127 2.1831403 0 0 0 3.117638-0.53744z" style="fill:#ffffff;opacity:.5"/>
   </g>
   <path d="m17.659875 271.4655v-0.0703h-0.264583v0.0109c0.08875 0.0148 0.175979 0.0433 0.264583 0.0594z"/>
   <path d="m17.924459 271.52441v-0.12919h-0.264584v0.0703c0.08857 0.0162 0.176163 0.0414 0.264584 0.0589z" style="fill:#ffb406"/>
   <g transform="translate(.264583 -.0107)">
    <path d="m2.0944174 278.02893c0.03105 0.35046 0.05156 0.73221 0.08888 1.06556 0.09455 0.84452 0.209864 1.63518 0.349333 2.37454 0.139469 0.73935 0.302934 1.42772 0.494026 2.0686 0.191094 0.64089 0.409455 1.23424 0.658875 1.78336s0.529943 1.05368 0.844393 1.51773c0.31445 0.46406 0.662848 0.88762 1.049032 1.27331 0.386183 0.38569 0.810238 0.73346 1.274857 1.04748 0.46462 0.31403 0.970046 0.5943 1.519804 0.84336 0.549758 0.24907 1.143821 0.46704 1.7854206 0.65784 0.6416 0.1908 1.33053 0.35427 2.070675 0.49351 0.740144 0.13924 1.531207 0.25444 2.376599 0.34882 0.845392 0.0944 1.745334 0.16806 2.702677 0.22427 1.914684 0.11244 4.059951 0.15503 6.462654 0.15503h19.56263c2.402703 0 4.547972-0.0426 6.462655-0.15503 0.957342-0.0562 1.856769-0.12989 2.70216-0.22427 0.845392-0.0944 1.636456-0.20958 2.376599-0.34882 0.740145-0.13924 1.429591-0.30271 2.071193-0.49351 0.641598-0.1908 1.235662-0.40877 1.785421-0.65784 0.549757-0.24906 1.055182-0.52933 1.519804-0.84336 0.464619-0.31402 0.888156-0.66179 1.274339-1.04748s0.735097-0.80925 1.049549-1.27331c0.31445-0.46405 0.594455-0.96861 0.843876-1.51773 0.24942-0.54912 0.468299-1.14247 0.659391-1.78336 0.127215-0.42665 0.224822-0.90738 0.328663-1.37717-0.884057 2.27181-3.469206 5.61464-11.249959 5.61464-13.771234 0-25.151432-17.14056-38.459669-17.14056-4.11342 0-10.299991 2.25154-12.603882 7.39439z" style="opacity:.5"/>
    <path d="m2.0944174 278.55809c0.03105 0.35047 0.05156 0.73222 0.08888 1.06557 0.09455 0.84452 0.209864 1.63518 0.349333 2.37453s0.302933 1.42772 0.494026 2.06861c0.191094 0.64088 0.409455 1.23423 0.658875 1.78335s0.529943 1.05369 0.844393 1.51774c0.31445 0.46406 0.662848 0.88762 1.049032 1.27331 0.386183 0.38569 0.810238 0.73345 1.274857 1.04748 0.46462 0.31403 0.970046 0.59429 1.519804 0.84336 0.549758 0.24906 1.143821 0.46704 1.7854206 0.65784 0.6416 0.1908 1.33053 0.35427 2.070675 0.49351 0.740144 0.13924 1.531207 0.25444 2.376599 0.34882 0.845392 0.0944 1.745334 0.16805 2.702676 0.22427 1.914685 0.11244 4.059952 0.15503 6.462656 0.15503h19.562629c2.402704 0 4.547972-0.0426 6.462655-0.15503 0.957342-0.0562 1.856769-0.1299 2.70216-0.22427 0.845392-0.0944 1.636456-0.20958 2.376599-0.34882 0.740145-0.13924 1.429591-0.30271 2.071193-0.49351 0.641598-0.1908 1.235662-0.40878 1.785421-0.65784 0.549757-0.24907 1.055182-0.52933 1.519804-0.84336 0.464619-0.31403 0.888156-0.66179 1.274339-1.04748s0.735097-0.80925 1.049549-1.27331c0.31445-0.46405 0.594455-0.96862 0.843876-1.51774 0.24942-0.54912 0.468299-1.14247 0.659391-1.78335 0.127215-0.42665 0.224822-0.90738 0.328664-1.37718-0.884057 2.27182-3.469206 5.61465-11.24996 5.61465-13.771234 0-25.151432-17.14056-38.459669-17.14056-4.113419 0-10.299991 2.25154-12.603881 7.39438z" style="fill:#ffffff"/>
    <path d="m30.889042 277.8031v-0.16381h-0.242879c0.08097 0.0542 0.161917 0.10939 0.242879 0.16381z"/>
    <path d="m44.118209 286.03619v-0.0889h-0.196887c0.06541 0.0309 0.131402 0.0584 0.196887 0.0889z"/>
    <path d="m57.347375 287.87949v-1e-3h-0.264583v0.0496c0.08719-0.0168 0.179366-0.0307 0.264583-0.0486z"/>
    <path d="m57.082792 291.13975c0.09403-0.0289 0.17262-0.0675 0.264583-0.0977v-3.1626c-0.08522 0.0179-0.177397 0.0318-0.264583 0.0486z"/>
    <path d="m43.853625 292.39911c0.09668-2.7e-4 0.168757-6e-3 0.264584-6e-3v-6.35673c-0.06549-0.0305-0.131474-0.0579-0.196887-0.0889h-0.0677z"/>
    <path d="m30.624459 292.41151h0.264583v-14.60841c-0.08096-0.0544-0.161906-0.10963-0.242879-0.16381h-0.0217z"/>
    <path d="m17.395292 292.25855c0.07864 5e-3 0.185168 2e-3 0.264583 6e-3v-20.79925c-0.0886-0.0162-0.175829-0.0446-0.264583-0.0594z"/>
    <path d="m4.4307094 275.26372v-6e-3h-0.264584v0.31058c0.09306-0.0968 0.168442-0.2115 0.264584-0.3049z"/>
    <path d="m4.4307094 275.26372c-0.09614 0.0934-0.17152 0.2081-0.264584 0.30489v11.14557c0.08952 0.15655 0.168562 0.32705 0.264584 0.47543z"/>
    <path d="m31.153625 277.98138v-0.34209h-0.264583v0.16381c0.08817 0.0593 0.176419 0.11876 0.264583 0.17828z" style="fill:#ffb406"/>
    <path d="m44.382792 286.15608v-0.20877h-0.264583v0.0889c0.08806 0.041 0.176395 0.0798 0.264583 0.11989z" style="fill:#ffb406"/>
    <path d="m57.347375 291.04209c0.09191-0.0301 0.174723-0.0658 0.264584-0.0972v-3.06648h-0.257866c-0.0021 5.3e-4 -0.0046 5.3e-4 -0.0067 1e-3z" style="fill:#ffb406"/>
    <path d="m44.118209 292.39291c0.09583-5.3e-4 0.169603-6e-3 0.264583-7e-3v-6.23012c-0.08819-0.0401-0.176527-0.0789-0.264583-0.11988z" style="fill:#ffb406"/>
    <path d="m30.889042 292.41151h0.264583v-14.43013c-0.08816-0.0595-0.176411-0.11901-0.264583-0.17828z" style="fill:#ffb406"/>
    <path d="m17.659875 292.26475c0.07942 4e-3 0.184385 3e-3 0.264584 7e-3v-20.74705c-0.08842-0.0175-0.176016-0.0428-0.264584-0.0589z" style="fill:#ffb406"/>
    <path d="m4.4353604 275.25804h-0.0046v6e-3c0.0018-2e-3 0.0029-4e-3 0.0046-6e-3z" style="fill:#ffb406"/>
    <path d="m4.4353604 275.25804c-0.0018 2e-3 -0.0029 4e-3 -0.0046 6e-3v11.92589c0.03601 0.0556 0.06228 0.12377 0.09922 0.17829 0.04954 0.0731 0.114127 0.1294 0.165364 0.2005v-12.31068z" style="fill:#ffb406"/>
   </g>
  </g>
  <path transform="matrix(.13229167 0 0 .13229167 -4.876802 261.66013)" d="M 361.9375,-212 C 507.2348,-212 528,-191.28677 528,-46.125 V 70.125 C 528,215.28618 507.2348,236 361.9375,236 H 214.0625 C 68.7652,236 48,215.28618 48,70.125 V -46.125 C 48,-191.28677 68.7652,-212 214.0625,-212 Z" clip-path="url(#clipPath1082-3-367)" style="fill:none;opacity:.4;stroke-linecap:round;stroke-linejoin:round;stroke-width:8;stroke:url(#linearGradient1108)"/>
 </g>
</svg>
