<svg xmlns="http://www.w3.org/2000/svg" xmlns:xlink="http://www.w3.org/1999/xlink" width="256" height="256" version="1.1" viewBox="0 0 67.73 67.73">
 <defs>
  <linearGradient id="linearGradient1851">
   <stop style="stop-color:#000000;stop-opacity:0.05714286" offset="0"/>
   <stop offset=".491" style="stop-color:#000000;stop-opacity:0.94285715"/>
   <stop style="stop-color:#000000;stop-opacity:0" offset="1"/>
  </linearGradient>
  <linearGradient id="linearGradient1108" x1="296" x2="296" y1="-212" y2="236" gradientUnits="userSpaceOnUse" xlink:href="#linearGradient1013"/>
  <linearGradient id="linearGradient1013">
   <stop offset="0" style="stop-color:#ffffff"/>
   <stop style="stop-color:#ffffff;stop-opacity:0.09803922" offset=".125"/>
   <stop style="stop-color:#000000;stop-opacity:0.09803922" offset=".925"/>
   <stop offset="1" style="stop-color:#000000;stop-opacity:0.49803922"/>
  </linearGradient>
  <clipPath id="clipPath1082-3-367" clipPathUnits="userSpaceOnUse">
   <path d="M 361.9375,-212 C 507.2348,-212 528,-191.28677 528,-46.125 V 70.125 C 528,215.28618 507.2348,236 361.9375,236 H 214.0625 C 68.7652,236 48,215.28618 48,70.125 V -46.125 C 48,-191.28677 68.7652,-212 214.0625,-212 Z" style="fill:#8c59d9"/>
  </clipPath>
  <linearGradient id="linearGradient1048" x1="24" x2="280" y1="28" y2="284" gradientTransform="matrix(0.26458333,0,0,0.26458333,-6.993468,221.97263)" gradientUnits="userSpaceOnUse" xlink:href="#linearGradient4195"/>
  <linearGradient id="linearGradient4195">
   <stop style="stop-color:#8c59d9" offset="0"/>
   <stop style="stop-color:#a7a7f1" offset="1"/>
  </linearGradient>
  <filter style="color-interpolation-filters:sRGB" id="filter4569" width="1.023" height="1.025" x="-.01" y="-.01">
   <feGaussianBlur stdDeviation="1.16"/>
  </filter>
  <filter style="color-interpolation-filters:sRGB" id="filter1029" width="1.046" height="1.05" x="-.02" y="-.03">
   <feGaussianBlur stdDeviation="2.32"/>
  </filter>
  <linearGradient id="linearGradient1853" x1="28.116" x2="37.933" y1="271.614" y2="271.557" gradientUnits="userSpaceOnUse" xlink:href="#linearGradient1851"/>
  <filter style="color-interpolation-filters:sRGB" id="filter1991" width="1.18" height="1.191" x="-.09" y="-.1">
   <feGaussianBlur stdDeviation=".756"/>
  </filter>
  <filter style="color-interpolation-filters:sRGB" id="filter1995" width="1.18" height="1.191" x="-.09" y="-.1">
   <feGaussianBlur stdDeviation=".756"/>
  </filter>
  <filter style="color-interpolation-filters:sRGB" id="filter1999" width="1.164" height="1.179" x="-.08" y="-.09">
   <feGaussianBlur stdDeviation=".756"/>
  </filter>
  <filter style="color-interpolation-filters:sRGB" id="filter2003" width="1.101" height="1.143" x="-.05" y="-.07">
   <feGaussianBlur stdDeviation=".756"/>
  </filter>
  <filter style="color-interpolation-filters:sRGB" id="filter1064" width="1.364" height="1.356" x="-.18" y="-.18">
   <feGaussianBlur stdDeviation=".136"/>
  </filter>
  <filter style="color-interpolation-filters:sRGB" id="filter1072" width="1.364" height="1.356" x="-.18" y="-.18">
   <feGaussianBlur stdDeviation=".136"/>
  </filter>
 </defs>
 <g transform="translate(0,-229.26666)">
  <path style="opacity:0.2;filter:url(#filter1029)" d="M 5.5683594 101.36914 L 5.5683594 157.49414 C 5.5683594 166.56672 5.7304589 174.6671 6.15625 181.89648 C 6.3691456 185.51118 6.6485155 188.90772 7.0058594 192.09961 C 7.3632033 195.29149 7.7990459 198.27982 8.3261719 201.07422 C 8.8532978 203.86862 9.4711176 206.47033 10.193359 208.89258 C 10.915601 211.31482 11.740903 213.5574 12.683594 215.63281 C 13.626285 217.70822 14.686526 219.61524 15.875 221.36914 C 17.063474 223.12305 18.380252 224.72392 19.839844 226.18164 C 21.299435 227.63937 22.902161 228.95376 24.658203 230.14062 C 26.414245 231.32749 28.324517 232.38679 30.402344 233.32812 C 32.48017 234.26946 34.725446 235.09332 37.150391 235.81445 C 39.575335 236.53559 42.179166 237.15343 44.976562 237.67969 C 47.773959 238.20595 50.763803 238.64134 53.958984 238.99805 C 57.154166 239.35475 60.555527 239.63323 64.173828 239.8457 C 71.41043 240.27066 79.518528 240.43164 88.599609 240.43164 L 162.53711 240.43164 C 171.61819 240.43164 179.72629 240.27066 186.96289 239.8457 C 190.58119 239.63323 193.9806 239.35475 197.17578 238.99805 C 200.37096 238.64134 203.36081 238.20595 206.1582 237.67969 C 208.9556 237.15343 211.56138 236.53559 213.98633 235.81445 C 216.41127 235.09332 218.65655 234.26946 220.73438 233.32812 C 222.8122 232.38679 224.72247 231.32749 226.47852 230.14062 C 228.23456 228.95376 229.83533 227.63937 231.29492 226.18164 C 232.75451 224.72392 234.07324 223.12305 235.26172 221.36914 C 236.45019 219.61524 237.50848 217.70822 238.45117 215.63281 C 239.39386 213.5574 240.22112 211.31482 240.94336 208.89258 C 241.6656 206.47033 242.28342 203.86862 242.81055 201.07422 C 243.33767 198.27982 243.77352 195.29149 244.13086 192.09961 C 244.4882 188.90772 244.76757 185.51118 244.98047 181.89648 C 245.40626 174.6671 245.56836 166.56672 245.56836 157.49414 L 245.56836 101.36914 C 245.56836 28.788252 235.18576 18.431641 162.53711 18.431641 L 88.599609 18.431641 C 15.950956 18.431641 5.5683594 28.788252 5.5683594 101.36914 z" transform="matrix(0.26458333,0,0,0.26458333,0,229.26666)"/>
  <path d="m 162.53675,3.5680001 c 72.64865,0 83.03125,10.3566149 83.03125,82.9375049 v 58.125005 c 0,72.58059 -10.3826,82.9375 -83.03125,82.9375 H 88.599254 C 15.9506,227.56801 5.568,217.2111 5.568,144.63051 V 86.505505 c 0,-72.58089 10.3826,-82.9375049 83.031254,-82.9375049 z" transform="matrix(0.26458333,0,0,0.26458333,-1.8735229e-8,232.67026)" style="opacity:0.1;filter:url(#filter4569)"/>
  <path style="fill:url(#linearGradient1048)" d="m 43.004513,233.61429 c 19.221622,0 21.968685,2.74019 21.968685,21.94388 v 15.37891 c 0,19.20362 -2.747063,21.94388 -21.968685,21.94388 h -19.56263 c -19.2216217,0 -21.9686846,-2.74026 -21.9686846,-21.94388 v -15.37891 c 0,-19.20369 2.7470629,-21.94388 21.9686846,-21.94388 z"/>
  <path d="M 361.9375,-212 C 507.2348,-212 528,-191.28677 528,-46.125 V 70.125 C 528,215.28618 507.2348,236 361.9375,236 H 214.0625 C 68.7652,236 48,215.28618 48,70.125 V -46.125 C 48,-191.28677 68.7652,-212 214.0625,-212 Z" clip-path="url(#clipPath1082-3-367)" transform="matrix(0.13229167,0,0,0.13229167,-4.876802,261.66013)" style="opacity:0.4;fill:none;stroke:url(#linearGradient1108);stroke-width:8;stroke-linecap:round;stroke-linejoin:round"/>
  <g transform="translate(0.25716669,1.3818433)">
   <ellipse cx="18.282" cy="258.231" rx="10.078" ry="9.507" transform="translate(-0.01501815,0.20452231)" style="fill:#060606;filter:url(#filter1991)"/>
   <ellipse style="fill:#060606;filter:url(#filter1995)" cx="20.216" cy="259.469" rx="10.078" ry="9.507" transform="translate(-0.01501815,0.20452231)"/>
   <ellipse style="fill:#3f3f41" cx="18.282" cy="258.231" rx="10.078" ry="9.507" transform="translate(-0.01501815,0.20452231)"/>
   <g style="fill:#060606;filter:url(#filter1999)" transform="matrix(-0.99999999,0,0,0.99999999,65.947081,0.12716079)">
    <ellipse cx="18.282" cy="258.231" rx="10.078" ry="9.507" style="fill:#060606"/>
    <ellipse style="fill:#060606" cx="20.216" cy="259.469" rx="10.078" ry="9.507"/>
   </g>
   <ellipse cx="20.216" cy="259.469" rx="10.078" ry="9.507" transform="translate(-0.01501815,0.20452231)" style="fill:#c1c4ca"/>
   <path d="m 50.883801,261.5772 c 0,2.60057 -0.774459,7.67461 -2.795432,9.81862 -3.215286,3.41103 -8.960933,3.27921 -15.035571,3.27921 -4.995063,0 -10.675889,0.0924 -13.945274,-2.38043 -3.205722,-2.42462 -4.048941,-7.38154 -4.048941,-10.7174 -1e-6,-6.73796 8.019749,-12.20016 17.912609,-12.20016 9.89286,0 17.91261,5.4622 17.912609,12.20016 z" transform="translate(-0.01501815,0.20452231)" style="fill:#060606;filter:url(#filter2003)"/>
   <g transform="matrix(-0.99999999,0,0,0.99999999,65.947081,0.12716079)">
    <ellipse style="fill:#3f3f41" cx="18.282" cy="258.231" rx="10.078" ry="9.507"/>
    <ellipse cx="20.216" cy="259.469" rx="10.078" ry="9.507" style="fill:#c1c4ca"/>
   </g>
   <path style="fill:#9c9c9c" d="m 50.883801,261.5772 c 0,2.60057 -0.774459,7.67461 -2.795432,9.81862 -3.215286,3.41103 -8.960933,3.27921 -15.035571,3.27921 -4.995063,0 -10.675889,0.0924 -13.945274,-2.38043 -3.205722,-2.42462 -4.048941,-7.38154 -4.048941,-10.7174 -1e-6,-6.73796 8.019749,-12.20016 17.912609,-12.20016 9.89286,0 17.91261,5.4622 17.912609,12.20016 z" transform="translate(-0.01501815,0.20452231)"/>
   <g transform="translate(0.10006162,-0.00999921)">
    <g>
     <ellipse cx="23.707" cy="263.697" rx="4.448" ry="4.822" style="opacity:0.63700005;fill:#000a11"/>
     <ellipse style="fill:#82a8c2" cx="23.299" cy="263.616" rx="4.448" ry="4.822"/>
     <ellipse style="opacity:0.63700005" cx="23.135" cy="263.031" rx="2.53" ry="2.469"/>
     <ellipse style="opacity:0.5;fill:#ffffff;filter:url(#filter1072)" cx="24.564" cy="261.318" rx=".898" ry=".918"/>
    </g>
    <g transform="translate(19.17751,0.24481928)">
     <ellipse style="opacity:0.63700005;fill:#000a11" cx="-22.913" cy="-263.697" rx="4.448" ry="4.822" transform="scale(-1)"/>
     <ellipse cx="23.299" cy="263.616" rx="4.448" ry="4.822" style="fill:#82a8c2"/>
     <ellipse cx="23.135" cy="263.031" rx="2.53" ry="2.469" style="opacity:0.63700005"/>
     <ellipse cx="24.564" cy="261.318" rx=".898" ry=".918" style="opacity:0.5;fill:#ffffff;filter:url(#filter1064)"/>
    </g>
   </g>
   <path d="m 128.9082,77.080078 c -1.46597,-0.06456 -2.85968,-0.298828 -4.34961,-0.298828 -2.12145,0 -4.12173,0.293801 -6.19336,0.423828 -6.24778,7.579844 -10.16211,27.589762 -10.16211,45.013672 0,21.93169 2.28208,33.74763 15.11329,33.85156 13.75532,0.11161 16.81054,-12.07417 16.81054,-34.00586 0,-17.51317 -4.63718,-37.53601 -11.21875,-44.984372 z" transform="matrix(0.26458333,0,0,0.26458333,0,229.26666)" style="opacity:0.63700005;fill:#000a11"/>
   <path style="fill:#000a11" d="m 131.16602,153.39453 c 0.19601,-0.11395 0.44865,-0.15487 0.63671,-0.2793 1.11035,-0.73465 2.08299,-1.65207 2.9336,-2.74609 0.41607,-0.53514 0.71692,-1.24393 1.07617,-1.86328 a 3.3927708,6.0144576 0 0 0 0.0254,-0.67578 3.3927708,6.0144576 0 0 0 -3.39258,-6.01367 3.3927708,6.0144576 0 0 0 -3.39258,6.01367 3.3927708,6.0144576 0 0 0 2.11329,5.56445 z" transform="matrix(0.26458333,0,0,0.26458333,-0.01501815,229.47118)"/>
   <path style="fill:#000a11" d="m 113.88672,151.28516 c 0.54627,0.62094 1.06006,1.28787 1.71289,1.76172 0.53825,0.39067 1.21982,0.59708 1.83594,0.88671 a 3.3927708,6.0144576 0 0 0 2.69922,-5.88476 3.3927708,6.0144576 0 0 0 -3.39258,-6.01563 3.3927708,6.0144576 0 0 0 -3.39258,6.01563 3.3927708,6.0144576 0 0 0 0.53711,3.23633 z" transform="matrix(0.26458333,0,0,0.26458333,-0.01501815,229.47118)"/>
   <path d="m 28.822859,271.38923 c 0,0 0.458642,0.56811 0.745664,0.71699 0.287022,0.14888 0.774346,0.20076 0.889064,0.17208 0.114718,-0.0287 0.264503,-0.007 0.544909,-0.17208 0.280406,-0.16465 0.747102,-0.78922 1.003782,-0.94642 0.25668,-0.1572 0.258114,-0.11472 0.401513,-0.1434 0.143396,-0.0287 0.911953,-0.0701 1.175856,0 0.263903,0.0701 0.230536,0.0923 0.401513,0.22944 0.170977,0.13715 0.379333,0.45992 0.57359,0.63094 0.194257,0.17102 0.315472,0.40152 0.573588,0.40152 0.258116,0 0.540249,0.0813 0.860385,-0.0287 0.320136,-0.11004 0.946422,-0.68831 0.946422,-0.68831" style="fill:none;stroke:url(#linearGradient1853);stroke-width:0.26458332;stroke-linecap:round"/>
  </g>
 </g>
</svg>
