<svg width="256" height="256" version="1.1" viewBox="0 0 67.73 67.73" xmlns="http://www.w3.org/2000/svg" xmlns:xlink="http://www.w3.org/1999/xlink">
 <defs>
  <linearGradient id="linearGradient1108" x1="296" x2="296" y1="-212" y2="236" gradientUnits="userSpaceOnUse">
   <stop style="stop-color:#ffffff" offset="0"/>
   <stop style="stop-color:#ffffff;stop-opacity:.09803922" offset=".125"/>
   <stop style="stop-color:#000000;stop-opacity:.09803922" offset=".925"/>
   <stop style="stop-color:#000000;stop-opacity:.49803922" offset="1"/>
  </linearGradient>
  <clipPath id="clipPath1082-3-61">
   <path d="M 361.9375,-212 C 507.2348,-212 528,-191.28677 528,-46.125 V 70.125 C 528,215.28618 507.2348,236 361.9375,236 H 214.0625 C 68.7652,236 48,215.28618 48,70.125 V -46.125 C 48,-191.28677 68.7652,-212 214.0625,-212 Z" style="fill:#8c59d9"/>
  </clipPath>
  <filter id="filter956" x="-.02" y="-.03" width="1.046" height="1.05" style="color-interpolation-filters:sRGB">
   <feGaussianBlur stdDeviation="2.32"/>
  </filter>
  <filter id="filter4569" x="-.01" y="-.01" width="1.023" height="1.025" style="color-interpolation-filters:sRGB">
   <feGaussianBlur stdDeviation="1.16"/>
  </filter>
  <filter id="filter947" x="-.05" y="-.04" width="1.108" height="1.086" style="color-interpolation-filters:sRGB">
   <feGaussianBlur stdDeviation="2.88"/>
  </filter>
 </defs>
 <g transform="translate(0,-229.26666)">
  <path transform="matrix(.26970778 0 0 .26970778 -7.1289177 220.56049)" d="m188.96876 43.999995c72.64865 0 83.03125 10.356615 83.03125 82.937505v58.125c0 72.58059-10.3826 82.9375-83.03125 82.9375h-73.9375c-72.648654 0-83.031254-10.35691-83.031254-82.9375v-58.125c0-72.58089 10.3826-82.937505 83.031254-82.937505z" style="filter:url(#filter4569);opacity:.1"/>
  <path transform="matrix(.26970778 0 0 .26970778 -7.1289177 220.56049)" d="m188.96876 45.999995c72.64865 0 83.03125 10.356615 83.03125 82.937505v58.125c0 72.58059-10.3826 82.9375-83.03125 82.9375h-73.9375c-72.648654 0-83.031254-10.35691-83.031254-82.9375v-58.125c0-72.58089 10.3826-82.937505 83.031254-82.937505z" style="filter:url(#filter956);opacity:.2"/>
  <path transform="matrix(.26458333 0 0 .26458333 0 229.26666)" d="m90.314453 11.947266c-9.256964 0-17.521677 0.164477-24.898437 0.597656-3.688381 0.216589-7.155044 0.499672-10.41211 0.863281s-6.304673 0.807305-9.15625 1.34375c-2.851576 0.536445-5.506605 1.167247-7.978515 1.902344-2.471911 0.735097-4.760837 1.57559-6.878907 2.535156-2.118069 0.959566-4.065415 2.038195-5.855468 3.248047s-3.422296 2.551156-4.910157 4.037109c-1.48786 1.485954-2.831476 3.116425-4.042968 4.904297-1.211493 1.787873-2.291004 3.732049-3.251953 5.847656-0.96095 2.115608-1.802833 4.401935-2.539063 6.871094-0.7362301 2.469159-1.3669615 5.122176-1.9042969 7.970703-0.5373353 2.848527-0.9814382 5.892773-1.3457031 9.146485-0.3642649 3.253711-0.6482155 6.715678-0.8652344 10.40039-0.4340378 7.369426-0.5996094 15.626671-0.5996094 24.875v59.251956c0 9.24828 0.1655716 17.5056 0.5996094 24.875 0.2170189 3.6847 0.5009695 7.14668 0.8652344 10.40039 0.3642649 3.2537 0.8083678 6.29796 1.3457031 9.14648 0.5373354 2.84852 1.1680668 5.50155 1.9042969 7.97071 0.73623 2.46915 1.578113 4.75548 2.539063 6.87109 0.960949 2.11561 2.04046 4.05978 3.251953 5.84766 1.211492 1.78787 2.555108 3.41833 4.042968 4.90429 1.487861 1.48596 3.120104 2.82725 4.910157 4.03711s3.737399 2.28848 5.855468 3.24805c2.11807 0.95957 4.406996 1.80005 6.878907 2.53515 2.47191 0.73511 5.126939 1.3659 7.978515 1.90235 2.851577 0.53645 5.899184 0.98013 9.15625 1.34375 3.257066 0.36361 6.723729 0.64669 10.41211 0.86328 7.37676 0.43319 15.641473 0.59766 24.898437 0.59766h75.371097c9.25696 0 17.52167-0.16447 24.89843-0.59766 3.68838-0.21659 7.15505-0.49967 10.41211-0.86328 3.25707-0.36362 6.30468-0.8073 9.15625-1.34375 2.85158-0.53645 5.50661-1.16724 7.97852-1.90235 2.47191-0.7351 4.76084-1.57558 6.87891-2.53515s4.06541-2.03819 5.85546-3.24805c1.79006-1.20986 3.4223-2.55115 4.91016-4.03711s2.83148-3.11642 4.04297-4.90429c1.21149-1.78788 2.291-3.73205 3.25195-5.84766s1.80283-4.40194 2.53907-6.87109c0.73623-2.46916 1.36696-5.12219 1.90429-7.97071 0.53734-2.84852 0.98144-5.89278 1.34571-9.14648 0.36426-3.25371 0.64821-6.71569 0.86523-10.40039 0.43404-7.3694 0.59961-15.62672 0.59961-24.875v-59.251956c0-9.248329-0.16557-17.505574-0.59961-24.875-0.21702-3.684712-0.50097-7.146679-0.86523-10.40039-0.36427-3.253712-0.80837-6.297958-1.34571-9.146485-0.53733-2.848527-1.16806-5.501544-1.90429-7.970703-0.73624-2.469159-1.57812-4.755486-2.53907-6.871094-0.96095-2.115607-2.04046-4.059783-3.25195-5.847656-1.21149-1.787872-2.55511-3.418343-4.04297-4.904297-1.48786-1.485953-3.1201-2.827257-4.91016-4.037109-1.79005-1.209852-3.73739-2.288481-5.85546-3.248047s-4.407-1.800059-6.87891-2.535156-5.12694-1.365899-7.97852-1.902344c-2.85157-0.536445-5.89918-0.980141-9.15625-1.34375-3.25706-0.363609-6.72373-0.646692-10.41211-0.863281-7.37676-0.433179-15.64147-0.597656-24.89843-0.597656h-75.371097z" style="fill:#d2a35c"/>
  <path transform="matrix(.26458333 0 0 .26458333 0 229.26666)" d="m29.693359 232.32422c-1.590682-0.78837-3.164925-1.58734-4.558593-2.5293 1.393353 0.94175 2.966276 1.74093 4.55664 2.5293 6.06e-4 -1.4e-4 0.001347 1.4e-4 0.001953 0z" style="fill:#48c39e"/>
  <path transform="matrix(.26458333 0 0 .26458333 0 229.26666)" d="m44.554688 73.783203-38.59961 11.070313c-0.0843312 3.898294-0.2792969 7.310239-0.2792969 11.636718v59.251956c0 9.24831 0.1636229 17.50556 0.5976563 24.875 0.2170205 3.6847 0.5029242 7.14667 0.8671875 10.40039 0.3642709 3.25368 0.8083639 6.29797 1.3457031 9.14648 0.5373279 2.84856 1.1661144 5.50154 1.9023439 7.97071 0.736229 2.46912 1.580067 4.75351 2.541016 6.86914 0.960947 2.11562 2.040463 4.06174 3.251953 5.84961 0.160018 0.23614 0.368547 0.41775 0.533203 0.64843 2.43e-4 3.4e-4 0.001709-3.4e-4 0.001953 0l65.041015-18.64843-37.009765-129.05274c-0.066471-0.007513-0.126933-0.010105-0.193359-0.017578z" style="fill:#ffffff;opacity:.15"/>
  <path transform="matrix(.26458333 0 0 .26458333 0 229.26666)" d="m228.40234 21.070312-54.19336 15.53125 37.04297 129.17578c0.00666 0.00138 0.01288 0.00254 0.01953 0.00391l-0.02148-0.07617 39.07422-11.20703v-58.007816c0-9.248314-0.16558-17.505601-0.59961-24.875-0.21702-3.684737-0.50097-7.148624-0.86523-10.402343-0.36428-3.25372-0.80838-6.29793-1.34571-9.146485-0.53734-2.848516-1.16808-5.499584-1.90429-7.96875-0.73624-2.469165-1.57812-4.755503-2.53907-6.871094-0.96095-2.115627-2.0424-4.061741-3.2539-5.849609-1.21149-1.787868-2.55316-3.418375-4.04102-4.904297-1.48786-1.485959-3.12206-2.827245-4.91211-4.037109-0.75234-0.508495-1.65204-0.902367-2.46094-1.365235z" style="fill:#ffffff;opacity:.15"/>
  <path transform="matrix(.26458333 0 0 .26458333 0 229.26666)" d="m167.88086 12c4.3942 0.013328 8.051 0.190074 12.03125 0.289062 5e-5 -6.15e-4 -5e-5 -0.001337 0-0.001953-3.94132-0.107381-7.79466-0.237545-12.03125-0.287109z" style="fill:#81d2e0"/>
  <path transform="matrix(.26458333 0 0 .26458333 0 229.26666)" d="m90.314453 11.947266c-9.256959 0-17.52168 0.164409-24.898437 0.597656-3.688381 0.216567-7.153088 0.499691-10.410157 0.863281-3.25706 0.363591-6.306625 0.807322-9.158203 1.34375-2.851581 0.536466-5.506599 1.167264-7.978515 1.902344-2.471907 0.735118-4.760844 1.573657-6.878907 2.533203-0.58627 0.265607-1.060707 0.614421-1.621093 0.898438l15.378906 53.642578 129.39257-37.107422c5.6e-4 -0.00139 0.00141-0.002516 0.00196-0.003906l-7.06446-24.636719c-0.50029-0.003808-0.87611-0.033203-1.39453-0.033203h-75.369137z" style="fill:#ffffff;opacity:.2"/>
  <path d="m4.4224817 287.87215c0.286281 0.40113 0.586983 0.78496 0.928701 1.12624 0.393662 0.39316 0.825402 0.74819 1.299023 1.0683 0.473617 0.32011 0.988832 0.60528 1.549239 0.85916 0.560404 0.25389 1.165974 0.47661 1.8199993 0.67111 0.654028 0.1945 1.356827 0.36061 2.111308 0.50254 0.75448 0.14194 1.560864 0.25937 2.422628 0.35558 0.861766 0.0962 1.778613 0.17131 2.754497 0.22862 1.951767 0.11461 4.138585 0.15856 6.587822 0.15856h0.606317l-2.843521-9.91177z" style="fill:#ffffff;opacity:.25"/>
  <path d="m7.7706497 234.58116c-0.387467 0.19639-0.777886 0.39006-1.120444 0.62159-0.473621 0.32011-0.905361 0.67514-1.299023 1.0683-0.393663 0.39315-0.749335 0.8244-1.069877 1.29744-0.32054 0.47304-0.605969 0.9879-0.86022 1.54766-0.254251 0.55975-0.477369 1.16459-0.672163 1.81789s-0.361425 1.355-0.503593 2.10867c-0.142171 0.75368-0.25972 1.55912-0.3561 2.42s-0.171726 1.77747-0.229147 2.75239c-0.06111 1.03765-0.05931 2.32769-0.08428 3.50251l10.263647-2.94361z" style="fill:#ffffff;opacity:.25"/>
  <path d="m60.431623 234.84138c-0.295198-0.16893-0.573304-0.35063-0.898149-0.4978-0.560403-0.25388-1.165974-0.47608-1.82-0.67058-0.654026-0.19449-1.356299-0.36113-2.11078-0.50307-0.754478-0.14193-1.560864-0.25936-2.422628-0.35557-0.861766-0.0962-1.77914-0.17131-2.755024-0.22862-1.842519-0.10819-3.934587-0.14438-6.219082-0.14907l1.869517 6.51934z" style="fill:#ffffff;opacity:.25"/>
  <path d="m60.799839 290.22366c0.08929-0.0562 0.196384-0.0985 0.282876-0.15697 0.473618-0.32011 0.905886-0.67514 1.299549-1.0683s0.748808-0.8244 1.069348-1.29744c0.320543-0.47304 0.606496-0.9879 0.860748-1.54766 0.254251-0.55976 0.476842-1.1646 0.671637-1.81789 0.194794-0.6533 0.36195-1.355 0.504121-2.10868 0.142168-0.75367 0.25972-1.55912 0.356097-2.41999 0.09638-0.86088 0.171201-1.77695 0.228621-2.75186 0.114837-1.94983 0.158557-4.13456 0.158557-6.58151v-0.32923l-10.337919 2.9652z" style="fill:#ffffff;opacity:.25"/>
  <path transform="matrix(.26458333 0 0 .26458333 0 229.26666)" d="m90.314453 240.28516c-4.210949 0-7.51596-0.19519-11.326172-0.27344 5.7e-5 6.4e-4 -5.6e-5 0.00131 0 0.00195 3.810286 0.07786 7.115166 0.27149 11.326172 0.27149z" style="fill:#a8295e;opacity:.03500001"/>
  <path d="m55.893381 273.01866-34.234602 9.81801c-0.0082 0.0336-0.01205 0.0661-0.02015 0.0997l0.02015-6e-3 2.843237 9.91154h19.335253c2.449237 0 4.635944-0.0435 6.587712-0.15813 0.975884-0.0573 1.893623-0.13273 2.755386-0.22893 0.861764-0.0962 1.668114-0.21359 2.422592-0.35553 0.754483-0.14193 1.456441-0.3078 2.110467-0.5023s1.259639-0.41738 1.820042-0.67127c0.458113-0.20754 0.866913-0.45093 1.26659-0.70229l-4.906677-17.1142 0.0801-0.0227c-0.02849-0.0222-0.05089-0.0461-0.07958-0.0682z" style="fill:#ffffff;opacity:.2"/>
  <path transform="matrix(.13485389 0 0 .13485389 -4.9712555 261.01666)" d="M 361.9375,-212 C 507.2348,-212 528,-191.28677 528,-46.125 V 70.125 C 528,215.28618 507.2348,236 361.9375,236 H 214.0625 C 68.7652,236 48,215.28618 48,70.125 V -46.125 C 48,-191.28677 68.7652,-212 214.0625,-212 Z" clip-path="url(#clipPath1082-3-61)" style="fill:none;opacity:.4;stroke-linecap:round;stroke-linejoin:round;stroke-width:8;stroke:url(#linearGradient1108)"/>
  <g transform="matrix(.26458333 0 0 .26458333 -18.912289 -18.721066)">
   <path d="m251.12302 983.39267c-5.96732 0-11.69217 1.5688-17.18212 4.72214-5.37057 3.03247-10.44971 7.45882-15.22357 13.27909-4.65451 5.7001-8.89037 12.7301-12.70945 21.0992-3.81908 8.2453-7.08923 17.5867-9.83423 28.0167-1.90953 7.3977-3.82707 13.644-5.73661 18.7374-1.90954 5.0941-3.87442 9.3285-5.90333 12.7236-4.41582-1.6976-8.7741-6.8131-13.0706-7.9033-4.17712-1.2133-8.47423-1.8199-12.89005-1.8199-3.46102 0-6.62263 0.5475-9.48696 1.6392-2.74495 1.091-5.12451 2.4229-7.15342 4.0003-2.02887 1.576-3.64029 3.2645-4.83374 5.0836-1.07414 1.8319-1.62514 7.2711-1.62514 8.8478 0 2.5467 1.19673 4.6652 3.58365 6.362 2.38694 1.6983 5.97709 2.5419 10.75096 2.5419 12.6507 0 23.33222-3.3298 32.04453-10.0006 5.48991 2.4272 11.09233 4.7207 16.82096 6.9034 5.84796 2.0616 12.29362 3.0972 19.33506 3.0972 7.9962 0 14.38063-1.6876 19.15444-5.0836 4.77388-3.516 7.51164-8.0077 10.37594-14.557 0.11948-0.7319-0.0363-1.219-0.51396-1.4586-0.358-0.3628-0.7866-0.3628-1.26401 0-2.02886 4.1234-3.52254 6.7334-6.62558 8.9174-3.103 2.1819-7.64503 3.2779-13.61231 3.2779-7.16078 0-13.71502-0.7981-19.68233-2.3747-5.84799-1.6977-11.46424-3.5787-16.83482-5.6396 7.39946-8.8528 13.19939-21.4057 17.37652-37.6561 2.50629-10.1874 4.94708-18.6697 7.33399-25.4607 2.38695-6.791 4.95016-12.1789 7.69516-16.182 2.74496-4.1235 5.73677-6.4526 8.95913-8.02851 3.3417-1.69836 7.27145-2.52822 11.8066-2.52822 3.3417 0 6.07474 0.61163 8.22296 1.8199 2.26757 1.09088 3.94023 2.54237 5.01435 4.36163 1.07412 1.8191 1.68641 3.2906 1.80571 5.4724 0.11947 2.1834-0.18669 6.4853-0.90288 8.6678-0.11948 0.6117 0.0505 1.037 0.52784 1.2773 0.59674 0.249 1.14776 0.192 1.62517-0.1777 1.19346-2.0617 2.31504-6.806 3.38917-9.9587 1.07416-3.2785 1.62518-6.14733 1.62518-8.57312 0-3.76001-1.1494-6.89918-3.41697-9.44518-2.26759-2.66903-5.24553-4.00033-8.94524-4.00033zm-100.42564 94.86933c5.13187 0 9.96616 0.7141 14.50127 2.1669 4.53517 1.4558 9.01597 6.9083 13.43179 8.8477-2.74499 2.6683-5.85924 4.4748-9.32031 5.4456-3.3417 0.8469-7.14897 1.2773-11.44547 1.2773-4.89319 0-8.72828-0.7839-11.47323-2.3613-2.62562-1.5767-3.93091-7.3101-3.93091-9.7365 0-3.7586 2.7469-5.6397 8.23686-5.6397zm16.77928 29.5721a10.667619 10.667619 0 0 0-10.66762 10.6676 10.667619 10.667619 0 0 0 10.66762 10.6675 10.667619 10.667619 0 0 0 10.66761-10.6675 10.667619 10.667619 0 0 0-10.66761-10.6676zm56.89397 0a10.667619 10.667619 0 0 0-10.66762 10.6676 10.667619 10.667619 0 0 0 10.66762 10.6675 10.667619 10.667619 0 0 0 10.66761-10.6675 10.667619 10.667619 0 0 0-10.66761-10.6676zm-28.44699 14.2235a10.667623 10.667623 0 0 0-10.66761 10.6676 10.667623 10.667623 0 0 0 10.66761 10.6675 10.667623 10.667623 0 0 0 10.66762-10.6675 10.667623 10.667623 0 0 0-10.66762-10.6676z" style="fill:#050000;filter:url(#filter947);opacity:.3"/>
   <path d="m251.12302 983.39267c-5.96732 0-11.69217 1.5688-17.18212 4.72214-5.37057 3.03247-10.44971 7.45882-15.22357 13.27909-4.65451 5.7001-8.89037 12.7301-12.70945 21.0992-3.81908 8.2453-7.08923 17.5867-9.83423 28.0167-1.90953 7.3977-3.82707 13.644-5.73661 18.7374-1.90954 5.0941-3.87442 9.3285-5.90333 12.7236-4.41582-1.6976-8.7741-6.8131-13.0706-7.9033-4.17712-1.2133-8.47423-1.8199-12.89005-1.8199-3.46102 0-6.85396 0.3162-9.79539 0.7139-2.89917 0.397-5.20162 1.5747-7.23053 3.1521-2.02887 1.576-3.79451 4.1898-4.91085 6.6258-1.07414 2.2945-1.16249 7.5024-1.16249 9.0791 0 2.5467 1.19673 4.6652 3.58365 6.362 2.38694 1.6983 5.97709 2.5419 10.75096 2.5419 12.6507 0 23.33222-3.3298 32.04453-10.0006 5.48991 2.4272 11.09233 4.7207 16.82096 6.9034 5.84796 2.0616 12.29362 3.0972 19.33506 3.0972 7.9962 0 14.38063-1.6876 19.15444-5.0836 4.77388-3.516 7.51164-8.0077 10.37594-14.557 0.11948-0.7319-0.0363-1.219-0.51396-1.4586-0.358-0.3628-0.7866-0.3628-1.26401 0-2.02886 4.1234-3.52254 6.7334-6.62558 8.9174-3.103 2.1819-7.64503 3.2779-13.61231 3.2779-7.16078 0-13.71502-0.7981-19.68233-2.3747-5.84799-1.6977-11.46424-3.5787-16.83482-5.6396 7.39946-8.8528 13.19939-21.4057 17.37652-37.6561 2.50629-10.1874 4.94708-18.6697 7.33399-25.4607 2.38695-6.791 4.95016-12.1789 7.69516-16.182 2.74496-4.1235 5.73677-6.4526 8.95913-8.02851 3.3417-1.69836 7.27145-2.52822 11.8066-2.52822 3.3417 0 6.07474 0.61163 8.22296 1.8199 2.26757 1.09088 3.94023 2.54237 5.01435 4.36163 1.07412 1.8191 1.68641 3.2906 1.80571 5.4724 0.11947 2.1834-0.18669 6.4853-0.90288 8.6678-0.11948 0.6117 0.0505 1.037 0.52784 1.2773 0.59674 0.249 1.14776 0.192 1.62517-0.1777 1.19346-2.0617 2.31504-6.806 3.38917-9.9587 1.07416-3.2785 1.62518-6.14733 1.62518-8.57312 0-3.76001-1.1494-6.89918-3.41697-9.44518-2.26759-2.66903-5.24553-4.00033-8.94524-4.00033zm-100.27142 95.48623c5.13187 0 9.81194 0.097 14.34705 1.55 4.53517 1.4558 9.01597 6.9083 13.43179 8.8477-2.74499 2.6683-5.85924 4.4748-9.32031 5.4456-3.3417 0.8469-7.14897 1.2773-11.44547 1.2773-4.89319 0-8.72828-0.7839-11.47323-2.3613-2.62562-1.5767-3.77669-6.6932-3.77669-9.1196 0-3.7586 2.7469-5.6397 8.23686-5.6397zm16.62506 28.9552c-5.89156 0-10.66761 4.776-10.66762 10.6676 7e-5 5.8915 4.7761 10.6675 10.66762 10.6675 5.89151 0 10.66754-4.776 10.66761-10.6675-1e-5 -5.8916-4.77606-10.6676-10.66761-10.6676zm56.89397 0c-5.89156 0-10.66761 4.776-10.66762 10.6676 7e-5 5.8915 4.7761 10.6675 10.66762 10.6675 5.89151 0 10.66754-4.776 10.66761-10.6675-1e-5 -5.8916-4.77606-10.6676-10.66761-10.6676zm-28.44699 14.2235c-5.89155 0-10.6676 4.776-10.66761 10.6676 7e-5 5.8915 4.7761 10.6675 10.66761 10.6675 5.89152 0 10.66755-4.776 10.66762-10.6675-1e-5 -5.8916-4.77606-10.6676-10.66762-10.6676z" style="fill:#ffffff"/>
  </g>
 </g>
</svg>
