<svg width="256" height="256" style="enable-background:new" version="1.0" xmlns="http://www.w3.org/2000/svg" xmlns:xlink="http://www.w3.org/1999/xlink">
 <defs>
  <filter id="filter925" x="-.02" y="-.03" width="1.046" height="1.05" style="color-interpolation-filters:sRGB">
   <feGaussianBlur stdDeviation="2.32"/>
  </filter>
  <filter id="filter931" x="-.01" y="-.01" width="1.023" height="1.025" style="color-interpolation-filters:sRGB">
   <feGaussianBlur stdDeviation="1.16"/>
  </filter>
  <linearGradient id="linearGradient1108" x1="296" x2="296" y1="-212" y2="236" gradientUnits="userSpaceOnUse">
   <stop style="stop-color:#ffffff" offset="0"/>
   <stop style="stop-color:#ffffff;stop-opacity:.09803922" offset=".125"/>
   <stop style="stop-color:#000000;stop-opacity:.09803922" offset=".925"/>
   <stop style="stop-color:#000000;stop-opacity:.49803922" offset="1"/>
  </linearGradient>
  <clipPath id="clipPath1082-3">
   <path d="M 361.9375,-212 C 507.2348,-212 528,-191.28677 528,-46.125 V 70.125 C 528,215.28618 507.2348,236 361.9375,236 H 214.0625 C 68.7652,236 48,215.28618 48,70.125 V -46.125 C 48,-191.28677 68.7652,-212 214.0625,-212 Z" style="fill:#8c59d9"/>
  </clipPath>
  <linearGradient id="linearGradient8074-2">
   <stop style="stop-color:#000000;stop-opacity:0" offset="0"/>
   <stop style="stop-color:#000000" offset=".493"/>
   <stop style="stop-color:#000000;stop-opacity:0" offset="1"/>
  </linearGradient>
  <linearGradient id="linearGradient1776" x1="58.663" x2="3.612" y1="224.971" y2="301.548" gradientTransform="matrix(2.8367694,0,0,2.8346456,31.389226,-573.78227)" gradientUnits="userSpaceOnUse">
   <stop style="stop-color:#f2f2f2" offset="0"/>
   <stop style="stop-color:#ffffff" offset="1"/>
  </linearGradient>
  <filter id="filter2168" x="-.01" y="-.01" width="1.023" height="1.025" style="color-interpolation-filters:sRGB">
   <feGaussianBlur stdDeviation=".87"/>
  </filter>
  <linearGradient id="linearGradient2180" x1="120.551" x2="120.468" y1="104.433" y2="238.961" gradientUnits="userSpaceOnUse">
   <stop style="stop-color:#000000;stop-opacity:0" offset="0"/>
   <stop style="stop-color:#000000" offset=".505"/>
   <stop style="stop-color:#000000;stop-opacity:0" offset="1"/>
  </linearGradient>
  <linearGradient id="linearGradient9153">
   <stop style="stop-color:#0369a3" offset="0"/>
   <stop style="stop-color:#047fc6" offset="1"/>
  </linearGradient>
  <linearGradient id="linearGradient8652-8-2" x1="298" x2="298" y1="-1587.638" y2="-1507.638" gradientUnits="userSpaceOnUse">
   <stop style="stop-color:#259dd2" offset="0"/>
   <stop style="stop-color:#025583" offset="1"/>
  </linearGradient>
  <linearGradient id="linearGradient8652-2" x1="298" x2="298" y1="-1571.179" y2="-1497.572" gradientUnits="userSpaceOnUse" xlink:href="#linearGradient19846"/>
  <linearGradient id="linearGradient19846">
   <stop style="stop-color:#259dd2" offset="0"/>
   <stop style="stop-color:#065d8d" offset="1"/>
  </linearGradient>
  <linearGradient id="linearGradient8648-3-3" x1="516.05" x2="495.666" y1="192.985" y2="192.985" gradientTransform="translate(-123,-1753.64)" gradientUnits="userSpaceOnUse" xlink:href="#linearGradient8642-9"/>
  <linearGradient id="linearGradient8642-9">
   <stop style="stop-color:#000061" offset="0"/>
   <stop style="stop-color:#006f86;stop-opacity:0" offset="1"/>
  </linearGradient>
  <linearGradient id="linearGradient19761-6-6" x1="230" x2="230" y1="-581.638" y2="-577.573" gradientTransform="matrix(9.81802,0,0,8,-1867.87,3054.46)" gradientUnits="userSpaceOnUse">
   <stop style="stop-color:#44adeb" offset="0"/>
   <stop style="stop-color:#aadcf7" offset="1"/>
  </linearGradient>
  <linearGradient id="linearGradient8608-1" x1="345" x2="345" y1="1173" y2="1178" gradientTransform="matrix(-8.86632,0,0,8.1065,3447.88,-11110.2)" gradientUnits="userSpaceOnUse">
   <stop style="stop-color:#666666" offset="0"/>
   <stop style="stop-color:#333333" offset="1"/>
  </linearGradient>
  <linearGradient id="linearGradient8680-9" x1="346.696" x2="361.368" y1="-1313.519" y2="-1303.796" gradientTransform="translate(0,-263)" gradientUnits="userSpaceOnUse">
   <stop style="stop-color:#ffffff" offset="0"/>
   <stop style="stop-color:#ffffff;stop-opacity:0" offset="1"/>
  </linearGradient>
  <linearGradient id="linearGradient8604-2" x1="345" x2="345" y1="1173.911" y2="1178" gradientTransform="matrix(8.86632,0,0,8.1065,-2745.88,-11107.7)" gradientUnits="userSpaceOnUse">
   <stop style="stop-color:#666666" offset="0"/>
   <stop style="stop-color:#1a1a1a" offset="1"/>
  </linearGradient>
  <linearGradient id="linearGradient9085-3" x1="298.188" x2="298.188" y1="-631.149" y2="-634.268" gradientTransform="matrix(2.53328,0,0,2.53328,-398.851,44.4122)" gradientUnits="userSpaceOnUse">
   <stop style="stop-color:#18a303" offset="0"/>
   <stop style="stop-color:#106802" offset="1"/>
  </linearGradient>
  <linearGradient id="linearGradient8598-9" x1="345" x2="345" y1="1173" y2="1178" gradientTransform="matrix(8.86632,0,0,8.1065,-2745.88,-11097.6)" gradientUnits="userSpaceOnUse" xlink:href="#linearGradient9153"/>
  <linearGradient id="linearGradient8633-8" x1="337.375" x2="337.375" y1="-1311.359" y2="-1304.402" gradientTransform="translate(0,-263)" gradientUnits="userSpaceOnUse" xlink:href="#linearGradient8627"/>
  <linearGradient id="linearGradient8627">
   <stop style="stop-color:#666666" offset="0"/>
   <stop style="stop-color:#666666;stop-opacity:.5" offset="1"/>
  </linearGradient>
  <radialGradient id="radialGradient8546-3" cx="-1535.304" cy="-842.908" r="10" gradientTransform="matrix(-3.31574,0,0,-7.58441,-3491.73,-6782.31)" gradientUnits="userSpaceOnUse">
   <stop style="stop-color:#ffffff" offset="0"/>
   <stop style="stop-color:#00a8ff;stop-opacity:0" offset="1"/>
  </radialGradient>
  <linearGradient id="linearGradient8633-1-2" x1="337.375" x2="337.375" y1="-1311.359" y2="-1299.649" gradientTransform="translate(0,-263)" gradientUnits="userSpaceOnUse" xlink:href="#linearGradient8627"/>
  <linearGradient id="linearGradient8641-9" x1="349.55" x2="349.55" y1="-1308.946" y2="-1302.726" gradientTransform="translate(0,-263)" gradientUnits="userSpaceOnUse" xlink:href="#linearGradient8635"/>
  <linearGradient id="linearGradient8635">
   <stop style="stop-color:#808080" offset="0"/>
   <stop style="stop-color:#666666" offset="1"/>
  </linearGradient>
  <linearGradient id="linearGradient8641-8-9" x1="349.55" x2="349.55" y1="-1307.696" y2="-1301.226" gradientTransform="translate(0,-263)" gradientUnits="userSpaceOnUse" xlink:href="#linearGradient8635"/>
  <linearGradient id="linearGradient9159-4" x1="337.375" x2="337.375" y1="-1293.638" y2="-1287.512" gradientTransform="translate(0,-263)" gradientUnits="userSpaceOnUse" xlink:href="#linearGradient9153"/>
  <linearGradient id="linearGradient10761-4" x1="445.695" x2="441.388" y1="1103.578" y2="1099.82" gradientUnits="userSpaceOnUse">
   <stop style="stop-color:#e9b913" offset="0"/>
   <stop style="stop-color:#ffff00" offset="1"/>
  </linearGradient>
  <linearGradient id="linearGradient7410-3" x1="-17" x2="144" y1="-1194.638" y2="-1194.638" gradientTransform="matrix(.524068 0 0 1 318.409 -356)" gradientUnits="userSpaceOnUse" xlink:href="#linearGradient8074-2"/>
  <linearGradient id="linearGradient7414-6" x1="-17" x2="144" y1="-1194.638" y2="-1194.638" gradientTransform="matrix(.524068 0 0 1 318.409 -405)" gradientUnits="userSpaceOnUse" xlink:href="#linearGradient8074-2"/>
  <linearGradient id="linearGradient8648-32" x1="387.495" x2="405.172" y1="192.985" y2="192.985" gradientTransform="translate(-123,-1753.64)" gradientUnits="userSpaceOnUse" xlink:href="#linearGradient8642-9"/>
  <linearGradient id="linearGradient20129-0" x1="-17" x2="144" y1="-1194.638" y2="-1194.638" gradientTransform="matrix(.298137 0 0 1 -1593.57 881.638)" gradientUnits="userSpaceOnUse" xlink:href="#linearGradient8074-2"/>
  <linearGradient id="linearGradient20133-6" x1="-17" x2="144" y1="-1194.638" y2="-1194.638" gradientTransform="matrix(.298137 0 0 1 -1593.57 804.638)" gradientUnits="userSpaceOnUse" xlink:href="#linearGradient8074-2"/>
  <linearGradient id="linearGradient20141-1" x1="-17" x2="144" y1="-1194.638" y2="-1194.638" gradientTransform="matrix(.298137 0 0 1 -1593.57 884.638)" gradientUnits="userSpaceOnUse" xlink:href="#linearGradient8074-2"/>
  <linearGradient id="linearGradient20145-5" x1="-17" x2="144" y1="-1194.638" y2="-1194.638" gradientTransform="matrix(.524068 0 0 1 318.409 -353)" gradientUnits="userSpaceOnUse" xlink:href="#linearGradient8074-2"/>
  <linearGradient id="linearGradient20149-5" x1="-17" x2="144" y1="-1194.638" y2="-1194.638" gradientTransform="matrix(.298137 0 0 1 -1593.57 801.638)" gradientUnits="userSpaceOnUse" xlink:href="#linearGradient8074-2"/>
  <linearGradient id="linearGradient2487" x1="-17" x2="144" y1="-1194.638" y2="-1194.638" gradientTransform="matrix(.192547 0 0 1 277.273 -408)" gradientUnits="userSpaceOnUse" xlink:href="#linearGradient8074-2"/>
 </defs>
 <g transform="translate(0,-44)">
  <path d="m162.53675 62.431991c72.64865 0 83.03125 10.356615 83.03125 82.937499v58.125c0 72.58059-10.3826 82.9375-83.03125 82.9375h-73.9375c-72.64865 0-83.03125-10.35691-83.03125-82.9375v-58.125c0-72.580884 10.3826-82.937499 83.03125-82.937499z" style="filter:url(#filter925);opacity:.2"/>
  <path d="m162.53675 61.431991c72.64865 0 83.03125 10.356615 83.03125 82.937499v58.125c0 72.58059-10.3826 82.9375-83.03125 82.9375h-73.9375c-72.64865 0-83.03125-10.35691-83.03125-82.9375v-58.125c0-72.580884 10.3826-82.937499 83.03125-82.937499z" style="filter:url(#filter931);opacity:.1"/>
  <path d="m162.53675 60.431991c72.64865 0 83.03125 10.356615 83.03125 82.937499v58.125c0 72.58059-10.3826 82.9375-83.03125 82.9375h-73.9375c-72.64865 0-83.03125-10.35691-83.03125-82.9375v-58.125c0-72.580884 10.3826-82.937499 83.03125-82.937499z" style="fill:#036aa5"/>
  <path d="m215.568 199.81675v-54.76953c-0.0331-2.58701-0.0938-5.07855-0.17981-7.4375l-48.8999-48.863281c-4.15368-0.151778-8.23337-0.314449-13.10552-0.314449h-55.494675c-54.527304 0-62.320095 7.767459-62.320095 62.20312v43.59375c0 54.43546 7.792791 62.20313 62.320095 62.20313h55.494675c52.44617 0 61.55852-7.62929 62.18523-56.61524z" style="fill:url(#linearGradient2180);filter:url(#filter2182);opacity:.4"/>
  <g transform="translate(-1.598015)">
   <path d="m7.166015 172.43201v29.06249c0 72.58061 10.3826 82.9375 83.031245 82.9375h73.9375c72.64865 0 83.03125-10.35689 83.03125-82.9375v-29.06249z" style="fill:#ffffff;opacity:.1"/>
   <path d="m124.85652 284.432h37.68023c36.89655 0 57.27587-3.11165 69.13609-14.01362 11.86024-10.90208 15.18368-29.57817 15.18368-63.48219v-69.00828c0-33.9041-3.32344-52.807857-15.18368-63.709867-11.86022-10.902009-32.23954-13.786053-69.13609-13.786053h-37.68023z" style="fill:#f6f6f6;opacity:.1"/>
  </g>
  <path d="m215.568 199.81675v-54.76953c-0.0331-2.58701-0.0938-5.07855-0.17981-7.4375l-48.8999-48.863281c-4.15368-0.151778-8.23337-0.314449-13.10552-0.314449h-55.494675c-54.527304 0-62.320095 7.767459-62.320095 62.20312v43.59375c0 54.43546 7.792791 62.20313 62.320095 62.20313h55.494675c52.44617 0 61.55852-7.62929 62.18523-56.61524z" style="fill:#010000;filter:url(#filter2168);opacity:.1"/>
  <path d="m215.568 199.81675v-54.76953c-0.0331-2.58701-0.0938-5.07855-0.17981-7.4375l-48.8999-48.863281c-4.15368-0.151778-8.23337-0.314449-13.10552-0.314449h-55.494675c-54.527304 0-62.320095 7.767459-62.320095 62.20312v43.59375c0 54.43546 7.792791 62.20313 62.320095 62.20313h55.494675c52.44617 0 61.55852-7.62929 62.18523-56.61524z" style="fill:url(#linearGradient1776)"/>
  <g transform="matrix(.90566022 0 0 .90566022 -172.79009 1575.8773)" style="enable-background:new">
   <rect x="309" y="-1601.64" width="84" height="56" style="fill:#ffffff"/>
   <path d="m274-1601.6378v5h31v-5zm-9 10v5h40v-5zm0 10v5h40v-5zm0 10v5h40v-5zm0 10v5h40v-5zm0 10v5h40v-5zm0 10v5h128v-5zm0 10v5h128v-5zm0 10v5h128v-5zm0 10v5h128v-5zm0 10v5h84v-5z" style="fill:#ffffff"/>
   <rect x="309" y="-1602.64" width="84" height="56" style="fill:url(#linearGradient8652-8-2)"/>
   <g transform="translate(0,-1)" style="fill:url(#linearGradient8652-2)">
    <rect x="274" y="-1601.64" width="31" height="5" style="fill:url(#linearGradient8652-2)"/>
    <rect x="265" y="-1541.64" width="128" height="5" style="fill:url(#linearGradient8652-2)"/>
    <rect x="265" y="-1501.64" width="84" height="5" style="fill:url(#linearGradient8652-2)"/>
    <rect x="265" y="-1591.64" width="40" height="5" style="fill:url(#linearGradient8652-2)"/>
    <rect x="265" y="-1581.64" width="40" height="5" style="fill:url(#linearGradient8652-2)"/>
    <rect x="265" y="-1571.64" width="40" height="5" style="fill:url(#linearGradient8652-2)"/>
    <rect x="265" y="-1561.64" width="40" height="5" style="fill:url(#linearGradient8652-2)"/>
    <rect x="265" y="-1551.64" width="40" height="5" style="fill:url(#linearGradient8652-2)"/>
    <rect x="265" y="-1531.64" width="128" height="5" style="fill:url(#linearGradient8652-2)"/>
    <rect x="265" y="-1521.64" width="128" height="5" style="fill:url(#linearGradient8652-2)"/>
    <rect x="265" y="-1511.64" width="128" height="5" style="fill:url(#linearGradient8652-2)"/>
   </g>
   <path d="m373-1602.6378v56h20v-56zm0 60v5h20v-5zm0 10v5h20v-5zm0 10v5h20v-5zm0 10v5h20v-5z" style="fill:url(#linearGradient8648-3-3);opacity:.5"/>
   <rect x="313" y="-1598.64" width="75.998" height="48" style="fill:url(#linearGradient19761-6-6)"/>
   <path d="m368.34375-1584.5c-15.06455 6.008-29.77881 14.2205-39.78125 27.25 20.47917 0 39.95543-0.9876 60.4346-0.9876l3e-3 -9.0436c-5.06837-4.3947-14.40166-15.0328-20.65615-17.2188z" style="fill:#ffffff;opacity:.5"/>
   <path d="m368.73365-1583.5703c5.06659 2.5332 13.87172 11.3551 20.26345 17.733v7.5997h-58.26412c10.13459-12.6662 25.33429-20.2661 38.00067-25.3327z" style="fill:url(#linearGradient8608-1)"/>
   <path d="m350.12987-1568.8456 0.44272-3.5773 6.65294-2.8463 3.74161-3.4959 6.57905-2.6676s-1.71689 4.3216-1.71689 4.3216l-2.56482 4.493-1.52666 4.8826-1.05581 2.8131-10.55214-3.9232z" style="fill:#333333"/>
   <path d="m332.4375-1591.7188c-6.44898 9.7171-11.85933 18.5139-19.43604 27.2131l0.0676 7.0347c16.78125 0 44.49346 0.221 61.27471 0.221-14.05705-10.2048-29.3751-19.5806-38.09375-35.0312-1.2011 1.0694-3.04104-0.519-3.8125 0.5624z" style="fill:url(#linearGradient8680-9);opacity:.5"/>
   <path d="m352.26735-1572.1706c-7.58307-6.2914-11.39978-11.3997-16.46634-18.9996-1.48156 0.4474-1.42497 0.2772-2.53328 0 0 0-6.77802 10.0696-10.13314 15.1997-3.3551 5.1301-10.13459 12.6664-10.13459 12.6664v5.0665h58.26412s-13.91947-10.0546-18.99677-13.933z" style="fill:url(#linearGradient8604-2)"/>
   <path d="m388.99992-1563.3041h-3.26563s-14.46735 2.5333-14.46735 2.5333-14.29633-3.7999-16.44699-3.7999c-2.11303 0-8.88582 1.2666-10.15319 1.2666-0.88823 0-6.33248-2.5332-7.61991-2.5332-2.12419 0-4.57202 2.6915-10.90522 3.7998 0 0-1.81956-4.0372-3.00704-3.7998-7.59985 2.9292-10.13459 2.5332-10.13459 2.5332v12.6664h75.9971l2e-3 -12.6664h2.8e-4z" style="fill:url(#linearGradient9085-3)"/>
   <path d="m313.00148-1560.7708-9.9e-4 10.1331h65.86679l2.53328-2.5333-2.53328-2.5332-5.06657-2.5334s-12.66641-2.5332-12.66641-2.5332l-12.6664-1.2667-11.39977 1.2667h-15.1997-8.86648z" style="fill:url(#linearGradient8598-9)"/>
   <path d="m318.06803-1565.8373s3.60932-5.7939 3.60932-5.7939 4.27798-5.063 4.27798-5.063 3.2666-5.9502 3.2666-5.9502l4.0458-5.9926-2.74602 7.5677s-2.01069 6.2344-2.01069 6.2344l-0.97249 3.9328-1.81468 4.19c-0.73049-0.5328-1.65402-0.5525-2.4869-0.8228l-2.37836 0.9322s-2.79056 0.7654-2.79056 0.7654z" style="fill:#333333"/>
   <path d="m327.36147-1565.7254 2.72366-6.8784 1.32843-7.1007 1.92133-4.3839 1.19947-4.5486 1.66504 4.6804 0.47301 4.4696 2.01407 3.9818 1.99664 4.5749 0.37323 3.2315-3.35375 0.9414-3.18579-1.2421-3.5217 2.2848h-3.63364z" style="fill:url(#linearGradient8633-8)"/>
   <path d="m360.01266-1564.5661-4.43728-3.1983-2.8341-2.261 2.75251 4.2894 4.51887 1.1699z" style="fill:#808080"/>
   <rect transform="matrix(0,-1,-1,0,0,0)" x="1566.64" y="-389" width="32" height="76" style="fill:url(#radialGradient8546-3)"/>
   <path transform="matrix(0,1.97771,-3.2,0,3908,-2471.26)" d="m448.77203 1099.6875a7.5845342 4.6875 0 0 1-7.58453 4.6875v-4.6875z" style="fill:#e9b913;opacity:.5"/>
   <path d="m363.73029-1567.6165 1.56591-5.0425 1.92131-4.3839 1.19949-4.5482 1.66502 4.6803s2.13549 3.9947 2.13549 3.9947l1.5391 3.9818s-0.2199 4.2582-0.2199 4.2582 2.11487 2.1231 2.11487 2.1231l-4.35374-0.2356-8.78699-1.8183s1.21952-3.0101 1.21952-3.0101z" style="fill:url(#linearGradient8633-1-2)"/>
   <path d="m353.53397-1565.8373s-3.68849-5.5898-3.68849-5.5898-6.54106-7.1331-6.54106-7.1331-5.41174-7.1153-5.41174-7.1153-2.09167-2.9615-2.09167-2.9615 2.267 7.6889 2.267 7.6889 2.48629 4.611 2.48629 4.611l2.2055 7.0438 0.64107 3.456s2.27708 0.763 2.27708 0.763 3.48079-0.8064 3.48079-0.8064c1.46126-0.1444 2.92258 0.026 4.37523 0.044z" style="fill:url(#linearGradient8641-9)"/>
   <path d="m387.97077-1564.8084-2.97601-1.7897s-4.16611-5.7083-4.16611-5.7083l-6.12423-5.2942-4.78328-3.9905 0.92119 3.3345s4.22793 6.6695 4.22793 6.6695l0.46386 6.0147 2.54103 1.9517 5.69988-1.1083 4.19574-0.078z" style="fill:url(#linearGradient8641-8-9)"/>
   <path d="m313.02716-1558.1713-0.0257 7.5336h63.33202v-2.5333l-2.53326-2.5332-12.66643-2.5334-12.6664-1.2665-12.6664 1.2665-13.70914 0.3778z" style="fill:url(#linearGradient9159-4)"/>
   <path d="m348.50168-1560.7047-12.72043 1.4419-13.56901 1.0378-8.2752 0.029 8.15671 0.3393 13.98392-0.021 12.39108-1.2813 12.6875 1.209 5.64415 1.101 6.9496 1.6177 2.28125 2.1875 0.3125 2.4063h1.15625l0.20512-2.7873-3.41109-3.2617-13.20012-2.4813z" style="fill:#0088b7"/>
   <path d="m340.86757-1553.171 2.5333-2.5332h10.1331l7.59984 2.5332 2.53329 2.5333h-5.06655s-17.73298-2.5333-17.73298-2.5333z" style="fill:#1c99e0;opacity:.5"/>
   <path d="m335.8125-1588.6378 1.5625 5.9062c1.28434 2.3781 3.8039 3.3846 5.88388 5.4107 3.00348 2.9257 6.33881 6.3819 7.61612 7.4956l-1.03125-1.5938-6.53125-7.1562-5.40625-7.0938z" style="fill:#ffffff;opacity:.4"/>
   <path d="m333.28125-1588.6378-3.26961 7.6132-3.26164 9.1368-3.5736 4.3728c0.51396 0.1149 2.10574 0.4962 2.54235 0.8147l1.8125-4.1875 0.96875-3.9375 2.03125-6.25z" style="opacity:.25"/>
   <path d="m337.03125-1565.8253c-2.06881 0-4.43308 2.5305-10.40625 3.6875l-0.21875 0.125c0.10772 0.037 0.48667 0.1051 1.8125-0.094 1.76776-0.2652 8.0599-2.9322 9.5625-2.8437 1.5026 0.088 5.99111 2.6508 6.875 2.5625 0.88388-0.089 9.37776-1.3224 10.96875-0.9688 1.59099 0.3535 16.1875 3.625 16.1875 3.625l13.9375-2.5625 3.25 0.094v-1.0938h-3.28125l-14.4375 2.5313s-14.31809-3.8125-16.46875-3.8125c-2.11303 0-8.88888 1.2812-10.15625 1.2812-0.88823 0-6.33757-2.5312-7.625-2.5312z" style="fill:#ffff00;opacity:.35"/>
   <path transform="matrix(0,1.71401,-2.77333,0,3438.8,-2354.84)" d="m448.77203 1099.6875a7.5845342 4.6875 0 0 1-7.58453 4.6875v-4.6875z" style="fill:url(#linearGradient10761-4);opacity:.73999999"/>
   <path d="m373-1598.6378c0 8.8432 7.15662 16 16 16v-0.9884c-8.29749 0-15.01158-6.7142-15.01158-15.0116z" style="fill:#ffffff;opacity:.5"/>
   <path d="m369.90625-1581.6066 0.9375 3.3438 4.21875 6.6875 0.46875 6 2.53125 1.9687 0.4375-0.094-2.25-2.25-0.4375-5.75-2.41291-3.709 6.47541 3.459 5.125 5.3437-4.15625-5.6875-6.125-5.3125zm15.09375 15 0.25 0.2813-0.0625-0.1563z" style="fill:#ffffff;opacity:.4"/>
   <rect x="309.5" y="-1550.64" width="84.375" height="1" style="fill:url(#linearGradient7410-3);opacity:.25"/>
   <rect x="309.5" y="-1599.64" width="84.375" height="1" style="fill:url(#linearGradient7414-6);opacity:.15"/>
   <path d="m313-1598.6378v48h76v-48zm1 1h74v46h-74z" style="fill:#ffffff;opacity:.35"/>
   <path d="m274-1602.6378v5h9v-5zm-9 10v5h18v-5zm0 10v5h18v-5zm0 10v5h18v-5zm0 10v5h18v-5zm0 10v5h18v-5zm0 10v5h18v-5zm0 10v5h18v-5zm0 10v5h18v-5zm0 10v5h18v-5zm0 10v5h18v-5z" style="fill:url(#linearGradient8648-32);opacity:.5"/>
   <rect x="274" y="-1602.64" width="31" height="1" style="fill:url(#linearGradient2487);opacity:.25"/>
   <rect transform="rotate(90)" x="-1598.64" y="-313" width="48" height="1" style="fill:url(#linearGradient20129-0);opacity:.25"/>
   <rect transform="rotate(90)" x="-1598.64" y="-390" width="48" height="1" style="fill:url(#linearGradient20133-6);opacity:.25"/>
   <rect transform="rotate(90)" x="-1598.64" y="-310" width="48" height="1" style="fill:url(#linearGradient20141-1);opacity:.25"/>
   <rect x="309.5" y="-1547.64" width="84.375" height="1" style="fill:url(#linearGradient20145-5);opacity:.25"/>
   <rect transform="rotate(90)" x="-1598.64" y="-393" width="48" height="1" style="fill:url(#linearGradient20149-5);opacity:.25"/>
   <use transform="matrix(1.29032 0 0 .999984 -88.5484 9.9745)" width="5033" height="1085" xlink:href="#rect19802"/>
   <use transform="matrix(1.29032 0 0 .999984 -88.5484 19.9745)" width="5033" height="1085" xlink:href="#rect19802"/>
   <use transform="matrix(1.29032 0 0 .999984 -88.5484 29.9745)" width="5033" height="1085" xlink:href="#rect19802"/>
   <use transform="matrix(1.29032 0 0 .999984 -88.5484 39.9745)" width="5033" height="1085" xlink:href="#rect19802"/>
   <use transform="matrix(1.29032 0 0 .999984 -88.5484 49.9745)" width="5033" height="1085" xlink:href="#rect19802"/>
   <use transform="matrix(4.12903 0 0 .999984 -866.355 59.9745)" width="5033" height="1085" xlink:href="#rect19802"/>
   <use transform="matrix(4.12903 0 0 .999984 -866.355 69.9745)" width="5033" height="1085" xlink:href="#rect19802"/>
   <use transform="matrix(4.12903 0 0 .999984 -866.355 79.9745)" width="5033" height="1085" xlink:href="#rect19802"/>
   <use transform="matrix(4.12903 0 0 .999984 -866.355 89.9745)" width="5033" height="1085" xlink:href="#rect19802"/>
   <use transform="matrix(2.70968 0 0 .999984 -477.452 99.9745)" width="5033" height="1085" xlink:href="#rect19802"/>
  </g>
  <path transform="matrix(.5 0 0 .5 -18.432 166.43199)" d="M 361.9375,-212 C 507.2348,-212 528,-191.28677 528,-46.125 V 70.125 C 528,215.28618 507.2348,236 361.9375,236 H 214.0625 C 68.7652,236 48,215.28618 48,70.125 V -46.125 C 48,-191.28677 68.7652,-212 214.0625,-212 Z" clip-path="url(#clipPath1082-3)" style="fill:none;opacity:.4;stroke-linecap:round;stroke-linejoin:round;stroke-width:8;stroke:url(#linearGradient1108)"/>
 </g>
</svg>
