<svg xmlns="http://www.w3.org/2000/svg" xmlns:xlink="http://www.w3.org/1999/xlink" style="enable-background:new" width="256" height="256" version="1.0">
 <defs>
  <filter id="filter925" width="1.046" height="1.05" x="-.02" y="-.03" style="color-interpolation-filters:sRGB">
   <feGaussianBlur stdDeviation="2.32"/>
  </filter>
  <filter id="filter931" width="1.023" height="1.025" x="-.01" y="-.01" style="color-interpolation-filters:sRGB">
   <feGaussianBlur stdDeviation="1.16"/>
  </filter>
  <linearGradient id="linearGradient1108" x1="296" x2="296" y1="-212" y2="236" gradientUnits="userSpaceOnUse" xlink:href="#linearGradient1013"/>
  <linearGradient id="linearGradient1013">
   <stop style="stop-color:#ffffff" offset="0"/>
   <stop offset=".125" style="stop-color:#ffffff;stop-opacity:0.09803922"/>
   <stop offset=".925" style="stop-color:#000000;stop-opacity:0.09803922"/>
   <stop style="stop-color:#000000;stop-opacity:0.49803922" offset="1"/>
  </linearGradient>
  <clipPath id="clipPath1082-3" clipPathUnits="userSpaceOnUse">
   <path style="fill:#8c59d9" d="M 361.9375,-212 C 507.2348,-212 528,-191.28677 528,-46.125 V 70.125 C 528,215.28618 507.2348,236 361.9375,236 H 214.0625 C 68.7652,236 48,215.28618 48,70.125 V -46.125 C 48,-191.28677 68.7652,-212 214.0625,-212 Z"/>
  </clipPath>
  <linearGradient id="linearGradient4338">
   <stop offset="0" style="stop-color:#f2f2f2"/>
   <stop offset="1" style="stop-color:#ffffff"/>
  </linearGradient>
  <linearGradient id="linearGradient8074-2">
   <stop offset="0" style="stop-color:#000000;stop-opacity:0"/>
   <stop offset=".493" style="stop-color:#000000"/>
   <stop offset="1" style="stop-color:#000000;stop-opacity:0"/>
  </linearGradient>
  <linearGradient id="linearGradient7931-2">
   <stop offset="0" style="stop-color:#000000"/>
   <stop offset=".455" style="stop-color:#000000;stop-opacity:0.36078399"/>
   <stop offset="1" style="stop-color:#000000;stop-opacity:0"/>
  </linearGradient>
  <linearGradient id="linearGradient1776" x1="58.663" x2="3.612" y1="224.971" y2="301.548" gradientTransform="matrix(2.8367694,0,0,2.8346456,31.389226,-573.78227)" gradientUnits="userSpaceOnUse" xlink:href="#linearGradient4338"/>
  <linearGradient id="linearGradient4295">
   <stop offset="0" style="stop-color:#000000;stop-opacity:0"/>
   <stop style="stop-color:#000000" offset=".505"/>
   <stop offset="1" style="stop-color:#000000;stop-opacity:0"/>
  </linearGradient>
  <filter id="filter2168" width="1.023" height="1.025" x="-.01" y="-.01" style="color-interpolation-filters:sRGB">
   <feGaussianBlur stdDeviation=".87"/>
  </filter>
  <linearGradient id="linearGradient2180" x1="120.551" x2="120.468" y1="104.433" y2="238.961" gradientUnits="userSpaceOnUse" xlink:href="#linearGradient4295"/>
  <linearGradient id="linearGradient22171" x1="815.125" x2="815.125" y1="-1491.638" y2="-1543.638" gradientTransform="matrix(1.64102,0,0,0.500001,2374.52,-735.2511)" gradientUnits="userSpaceOnUse" xlink:href="#linearGradient10478"/>
  <linearGradient id="linearGradient10478">
   <stop offset="0" style="stop-color:rgb(114, 114, 114)"/>
   <stop offset="1" style="stop-color:rgb(179, 179, 179)"/>
  </linearGradient>
  <linearGradient id="linearGradient22173" x1="3793.25" x2="3793.25" y1="-1603.647" y2="-1561.387" gradientTransform="translate(0,11.565901)" gradientUnits="userSpaceOnUse" xlink:href="#linearGradient10331"/>
  <linearGradient id="linearGradient10331">
   <stop style="stop-color:rgb(204, 204, 204)" offset="0"/>
   <stop style="stop-color:rgb(179, 179, 179)" offset="1"/>
  </linearGradient>
  <linearGradient id="linearGradient22175" x1="3658.22" x2="3658.22" y1="-1076.625" y2="-1117.844" gradientTransform="matrix(1.90625,0,0,1.85714,-3264.03,489.3979)" gradientUnits="userSpaceOnUse" xlink:href="#linearGradient9981"/>
  <linearGradient id="linearGradient9981">
   <stop style="stop-color:rgb(255, 246, 221)" offset="0"/>
   <stop style="stop-color:rgb(254, 248, 244)" offset="1"/>
  </linearGradient>
  <linearGradient id="linearGradient10216">
   <stop style="stop-color:rgb(252, 92, 0)" offset="0"/>
   <stop style="stop-color:rgb(204, 204, 204);stop-opacity:0" offset="1"/>
  </linearGradient>
  <linearGradient id="linearGradient22179" x1="3682" x2="3682" y1="-1515.003" y2="-1494.843" gradientTransform="matrix(1.01667,0,0,1.1,-62.1745,160.0329)" gradientUnits="userSpaceOnUse" xlink:href="#linearGradient10303"/>
  <linearGradient id="linearGradient10303">
   <stop offset="0" style="stop-color:rgb(255, 255, 255)"/>
   <stop offset="1" style="stop-color:rgb(242, 242, 242)"/>
  </linearGradient>
  <linearGradient id="linearGradient22195" x1="3669.452" x2="3669.452" y1="-1068.818" y2="-1073.573" gradientUnits="userSpaceOnUse" xlink:href="#linearGradient10412"/>
  <linearGradient id="linearGradient10412">
   <stop offset="0" style="stop-color:rgb(0, 0, 0)"/>
   <stop offset="1" style="stop-color:rgb(77, 77, 77)"/>
  </linearGradient>
  <linearGradient id="linearGradient22197" x1="3715.894" x2="3715.894" y1="693.037" y2="695.848" gradientTransform="matrix(12.0378,0,0,12.0329,-41007.4,-9920.3041)" gradientUnits="userSpaceOnUse" xlink:href="#linearGradient9860"/>
  <linearGradient id="linearGradient9860">
   <stop offset="0" style="stop-color:rgb(102, 102, 102)"/>
   <stop offset="1" style="stop-color:rgb(128, 128, 128)"/>
  </linearGradient>
  <linearGradient id="linearGradient22199" x1="3715.894" x2="3715.894" y1="694.657" y2="696.496" gradientTransform="matrix(12.0378,0,0,12.0329,-41007.4,-9920.3041)" gradientUnits="userSpaceOnUse" xlink:href="#linearGradient9860"/>
  <linearGradient id="linearGradient22201" x1="-17" x2="144" y1="-1194.638" y2="-1194.638" gradientTransform="matrix(0.745342,0,0,1,3682.67,-317.4341)" gradientUnits="userSpaceOnUse" xlink:href="#linearGradient10295"/>
  <linearGradient id="linearGradient10295">
   <stop style="stop-color:rgb(233, 185, 19);stop-opacity:0" offset="0"/>
   <stop offset=".493" style="stop-color:rgb(252, 92, 0)"/>
   <stop style="stop-color:rgb(233, 185, 19);stop-opacity:0" offset="1"/>
  </linearGradient>
  <linearGradient id="linearGradient7303-9">
   <stop offset="0" style="stop-color:rgb(0, 0, 0)"/>
   <stop offset="1" style="stop-color:rgb(0, 0, 0);stop-opacity:0"/>
  </linearGradient>
  <linearGradient id="linearGradient3562" x1="3669.452" x2="3669.452" y1="-1068.818" y2="-1073.573" gradientUnits="userSpaceOnUse" xlink:href="#linearGradient10412"/>
  <linearGradient id="linearGradient3564" x1="3669.452" x2="3669.452" y1="-1068.818" y2="-1073.573" gradientUnits="userSpaceOnUse" xlink:href="#linearGradient10412"/>
  <linearGradient id="linearGradient3566" x1="3669.452" x2="3669.452" y1="-1068.818" y2="-1073.573" gradientUnits="userSpaceOnUse" xlink:href="#linearGradient10412"/>
  <linearGradient id="linearGradient3568" x1="3669.452" x2="3669.452" y1="-1068.818" y2="-1073.573" gradientUnits="userSpaceOnUse" xlink:href="#linearGradient10412"/>
  <linearGradient id="linearGradient3570" x1="3669.452" x2="3669.452" y1="-1068.818" y2="-1073.573" gradientUnits="userSpaceOnUse" xlink:href="#linearGradient10412"/>
  <linearGradient id="linearGradient3572" x1="3669.452" x2="3669.452" y1="-1068.818" y2="-1073.573" gradientUnits="userSpaceOnUse" xlink:href="#linearGradient10412"/>
  <linearGradient id="linearGradient3574" x1="3669.452" x2="3669.452" y1="-1068.818" y2="-1073.573" gradientUnits="userSpaceOnUse" xlink:href="#linearGradient10412"/>
  <linearGradient id="linearGradient1533" x1="-17" x2="144" y1="-1194.638" y2="-1194.638" gradientTransform="matrix(0.136646,0,0,0.999984,-1503.7441,-2474.38)" gradientUnits="userSpaceOnUse" xlink:href="#linearGradient8074-2"/>
  <linearGradient id="linearGradient1537" x1="364.867" x2="389.102" y1="300.819" y2="276.584" gradientTransform="translate(3301,-1782.0741)" gradientUnits="userSpaceOnUse" xlink:href="#linearGradient7303-9"/>
  <linearGradient id="linearGradient1541" x1="152" x2="113.882" y1="-1192.638" y2="-1230.756" gradientTransform="matrix(0.243902,0,0,0.243902,3752.93,-1194.1841)" gradientUnits="userSpaceOnUse" xlink:href="#linearGradient7931-2"/>
  <linearGradient id="linearGradient1545" x1="-17" x2="144" y1="-1194.638" y2="-1194.638" gradientTransform="matrix(0.482919,0,0,1,-1579.6141,-2474.36)" gradientUnits="userSpaceOnUse" xlink:href="#linearGradient8074-2"/>
  <linearGradient id="linearGradient1549" x1="-17" x2="144" y1="-1194.638" y2="-1194.638" gradientTransform="matrix(0.459627,0,0,1,-1578.2541,-2476.36)" gradientUnits="userSpaceOnUse" xlink:href="#linearGradient10295"/>
  <linearGradient id="linearGradient1553" x1="529.25" x2="535" y1="-1568.638" y2="-1574.638" gradientTransform="matrix(2.5,0,0,6.33333,2347.5,8423.6359)" gradientUnits="userSpaceOnUse" xlink:href="#linearGradient10216"/>
 </defs>
 <g transform="translate(0,-44)">
  <g>
   <g>
    <path style="opacity:0.2;filter:url(#filter925)" d="m 162.53675,62.431991 c 72.64865,0 83.03125,10.356615 83.03125,82.937499 v 58.125 c 0,72.58059 -10.3826,82.9375 -83.03125,82.9375 h -73.9375 c -72.64865,0 -83.0312501,-10.35691 -83.0312501,-82.9375 v -58.125 c 0,-72.580884 10.3826001,-82.937499 83.0312501,-82.937499 z"/>
    <path d="m 162.53675,61.431991 c 72.64865,0 83.03125,10.356615 83.03125,82.937499 v 58.125 c 0,72.58059 -10.3826,82.9375 -83.03125,82.9375 h -73.9375 c -72.64865,0 -83.0312501,-10.35691 -83.0312501,-82.9375 v -58.125 c 0,-72.580884 10.3826001,-82.937499 83.0312501,-82.937499 z" style="opacity:0.1;filter:url(#filter931)"/>
   </g>
   <g>
    <path d="m 162.53675,60.431991 c 72.64865,0 83.03125,10.356615 83.03125,82.937499 v 58.125 c 0,72.58059 -10.3826,82.9375 -83.03125,82.9375 h -73.9375 c -72.64865,0 -83.0312501,-10.35691 -83.0312501,-82.9375 v -58.125 c 0,-72.580884 10.3826001,-82.937499 83.0312501,-82.937499 z" style="fill:#626262"/>
    <path d="m 215.568,199.81675 v -54.76953 c -0.0331,-2.58701 -0.0938,-5.07855 -0.17981,-7.4375 L 166.48829,88.746439 C 162.33461,88.594661 158.25492,88.43199 153.38277,88.43199 H 97.888095 c -54.527304,0 -62.320095,7.767459 -62.320095,62.20312 v 43.59375 c 0,54.43546 7.792791,62.20313 62.320095,62.20313 h 55.494675 c 52.44617,0 61.55852,-7.62929 62.18523,-56.61524 z" style="opacity:0.4;fill:url(#linearGradient2180);filter:url(#filter2182)"/>
    <g transform="translate(-1.598015)">
     <path style="opacity:0.1;fill:#ffffff" d="m 7.166015,172.43201 v 29.06249 c 0,72.58061 10.3826,82.9375 83.031245,82.9375 h 73.9375 c 72.64865,0 83.03125,-10.35689 83.03125,-82.9375 v -29.06249 z"/>
     <path d="m 124.85652,284.432 h 37.68023 c 36.89655,0 57.27587,-3.11165 69.13609,-14.01362 11.86024,-10.90208 15.18368,-29.57817 15.18368,-63.48219 v -69.00828 c 0,-33.9041 -3.32344,-52.807857 -15.18368,-63.709867 C 219.81262,63.316034 199.4333,60.43199 162.53675,60.43199 h -37.68023 z" style="opacity:0.1;fill:#f6f6f6"/>
    </g>
    <path style="opacity:0.1;fill:#010000;filter:url(#filter2168)" d="m 215.568,199.81675 v -54.76953 c -0.0331,-2.58701 -0.0938,-5.07855 -0.17981,-7.4375 L 166.48829,88.746439 C 162.33461,88.594661 158.25492,88.43199 153.38277,88.43199 H 97.888095 c -54.527304,0 -62.320095,7.767459 -62.320095,62.20312 v 43.59375 c 0,54.43546 7.792791,62.20313 62.320095,62.20313 h 55.494675 c 52.44617,0 61.55852,-7.62929 62.18523,-56.61524 z"/>
    <path d="m 215.568,199.81675 v -54.76953 c -0.0331,-2.58701 -0.0938,-5.07855 -0.17981,-7.4375 L 166.48829,88.746439 C 162.33461,88.594661 158.25492,88.43199 153.38277,88.43199 H 97.888095 c -54.527304,0 -62.320095,7.767459 -62.320095,62.20312 v 43.59375 c 0,54.43546 7.792791,62.20313 62.320095,62.20313 h 55.494675 c 52.44617,0 61.55852,-7.62929 62.18523,-56.61524 z" style="fill:url(#linearGradient1776)"/>
    <g transform="translate(-3604.432,1719.072)" style="enable-background:new">
     <rect width="128" height="28" x="3666" y="-1507.07" style="opacity:0.15"/>
     <rect style="fill:url(#linearGradient22171)" width="128" height="28" x="3666" y="-1509.07"/>
     <rect style="fill:url(#linearGradient22173)" width="128" height="84" x="3666" y="-1591.07"/>
     <rect width="122" height="78" x="3669" y="-1588.07" rx="1" ry="1" style="fill:url(#linearGradient22175)"/>
     <rect style="opacity:0.25;fill:url(#linearGradient1553)" width="30" height="76" x="3670" y="-1587.07" rx="2" ry="2"/>
     <rect style="fill:url(#linearGradient22179)" width="122" height="22" x="3669" y="-1506.07"/>
     <g style="font-size:8.76535988px;fill:#ffffff" transform="matrix(2.0003,0,0,2,-3609.1,642.6999)">
      <path d="m 3655.2528,-1071.3549 v 0.7704 c -0.2254,-0.1313 -0.4523,-0.2297 -0.6805,-0.2953 -0.2283,-0.066 -0.4608,-0.099 -0.6977,-0.099 -0.3566,0 -0.6234,0.059 -0.8003,0.1755 -0.1741,0.1141 -0.2611,0.2896 -0.2611,0.5264 0,0.214 0.066,0.3738 0.1969,0.4794 0.1312,0.1056 0.4579,0.2083 0.9801,0.3082 l 0.3167,0.06 c 0.3909,0.074 0.6862,0.2225 0.886,0.4451 0.2025,0.2225 0.3038,0.5122 0.3038,0.8688 0,0.4737 -0.1683,0.8446 -0.505,1.1128 -0.3367,0.2654 -0.8046,0.398 -1.4038,0.398 -0.2369,0 -0.4851,-0.026 -0.7447,-0.077 -0.2597,-0.049 -0.5407,-0.1227 -0.8432,-0.2225 v -0.8132 c 0.2939,0.1512 0.575,0.2653 0.8432,0.3424 0.2682,0.074 0.5221,0.1112 0.7618,0.1112 0.3481,0 0.6177,-0.07 0.8089,-0.2097 0.1912,-0.1426 0.2868,-0.341 0.2868,-0.5949 0,-0.3652 -0.3496,-0.6177 -1.0486,-0.7576 l -0.034,-0.01 -0.2953,-0.06 c -0.4537,-0.089 -0.7846,-0.2369 -0.9929,-0.4451 -0.2083,-0.2112 -0.3125,-0.4979 -0.3125,-0.8603 0,-0.4594 0.1555,-0.8132 0.4665,-1.0614 0.3111,-0.2511 0.7547,-0.3767 1.3311,-0.3767 0.2568,0 0.5036,0.024 0.7404,0.073 0.2369,0.046 0.4694,0.1155 0.6977,0.2097" style="fill:#ffffff"/>
      <path d="m 3657.8135,-1069.1036 c 0,0.6106 0.096,1.0714 0.2867,1.3824 0.1941,0.311 0.4808,0.4665 0.8603,0.4665 0.3795,0 0.6663,-0.1555 0.8603,-0.4665 0.1969,-0.3139 0.2953,-0.7747 0.2953,-1.3824 0,-0.6078 -0.098,-1.0672 -0.2953,-1.3782 -0.194,-0.3139 -0.4808,-0.4708 -0.8603,-0.4708 -0.3795,0 -0.6662,0.1555 -0.8603,0.4665 -0.1911,0.311 -0.2867,0.7718 -0.2867,1.3825 m 2.3026,1.7804 c -0.1284,0.2368 -0.3024,0.4195 -0.5222,0.5478 -0.2168,0.1256 -0.4693,0.1884 -0.7575,0.1884 -0.5735,0 -1.0272,-0.2212 -1.361,-0.6634 -0.331,-0.4451 -0.4965,-1.0572 -0.4965,-1.8361 0,-0.7932 0.1655,-1.4138 0.4965,-1.8618 0.331,-0.448 0.7846,-0.672 1.361,-0.672 0.2853,0 0.5364,0.063 0.7533,0.1884 0.2197,0.1226 0.3951,0.3024 0.5264,0.5392 v -0.612 h 0.7918 v 6.6168 h -0.7918 v -2.4353" style="fill:#ffffff"/>
      <path d="m 3666.5463,-1070.4394 c -0.1683,-0.1313 -0.3395,-0.2268 -0.5136,-0.2868 -0.174,-0.06 -0.3652,-0.09 -0.5735,-0.09 -0.4908,0 -0.866,0.154 -1.1256,0.4622 -0.2597,0.3082 -0.3895,0.7533 -0.3895,1.3353 v 2.384 h -0.7918 v -4.7936 h 0.7918 v 0.9373 c 0.1312,-0.3395 0.3324,-0.5992 0.6035,-0.7789 0.2739,-0.1826 0.5977,-0.2739 0.9715,-0.2739 0.194,0 0.3752,0.024 0.5436,0.073 0.1683,0.049 0.3295,0.1241 0.4836,0.2269 v 0.8046" style="fill:#ffffff"/>
      <path d="m 3669.8788,-1072.7579 v 1.3611 h 1.789 v 0.612 h -1.789 v 2.6022 c 0,0.3538 0.067,0.6006 0.2011,0.7405 0.1341,0.1398 0.3681,0.2097 0.7019,0.2097 h 0.886 v 0.6291 h -0.963 c -0.5906,0 -1.0072,-0.1184 -1.2498,-0.3552 -0.2425,-0.2368 -0.3638,-0.6449 -0.3638,-1.2241 v -2.6022 h -1.2797 v -0.612 h 1.2797 v -1.3611 h 0.7876" style="fill:#ffffff"/>
      <path d="m 3677.1676,-1066.1651 v 0.6163 h -0.2739 c -0.7105,0 -1.187,-0.1055 -1.4295,-0.3167 -0.2397,-0.2111 -0.3596,-0.632 -0.3595,-1.2626 v -1.0229 c -10e-5,-0.4308 -0.077,-0.729 -0.2312,-0.8945 -0.1512,-0.1655 -0.4265,-0.2482 -0.826,-0.2482 h -0.2654 v -0.6121 h 0.2654 c 0.4023,0 0.6791,-0.081 0.8303,-0.2439 0.1512,-0.1627 0.2268,-0.458 0.2269,-0.886 v -1.0272 c -10e-5,-0.6305 0.1198,-1.05 0.3595,-1.2583 0.2425,-0.2111 0.719,-0.3167 1.4295,-0.3167 h 0.2739 v 0.612 h -0.2996 c -0.3995,1e-4 -0.6606,0.063 -0.7832,0.1884 -0.1199,0.1227 -0.1798,0.3866 -0.1798,0.7918 v 1.0614 c 0,0.448 -0.066,0.7732 -0.1969,0.9758 -0.1284,0.2026 -0.3495,0.3396 -0.6634,0.4109 0.3167,0.077 0.5393,0.2168 0.6677,0.4194 0.1284,0.2026 0.1926,0.5265 0.1926,0.9716 v 1.0614 c 0,0.408 0.06,0.6734 0.1798,0.7961 0.1226,0.1227 0.3837,0.184 0.7832,0.184 h 0.2996" style="fill:#ffffff"/>
      <path d="m 3682.5192,-1071.5218 -1.7163,2.294 1.8832,2.4995 h -0.9116 l -1.4039,-1.9217 -1.3995,1.9217 h -0.9116 l 1.8831,-2.4995 -1.7162,-2.294 h 0.8731 l 1.2711,1.7334 1.2626,-1.7334 h 0.886" style="fill:#ffffff"/>
      <path d="m 3683.8592,-1066.1651 h 0.291 c 0.4024,0 0.6649,-0.063 0.7876,-0.1883 0.1227,-0.1255 0.184,-0.3895 0.184,-0.7918 v -1.0614 c 0,-0.4451 0.064,-0.769 0.1926,-0.9716 0.1284,-0.2026 0.351,-0.3424 0.6677,-0.4194 -0.3139,-0.071 -0.5365,-0.2083 -0.6677,-0.4109 -0.1284,-0.2026 -0.1926,-0.5278 -0.1926,-0.9758 v -1.0614 c 0,-0.4024 -0.061,-0.6663 -0.184,-0.7918 -0.1227,-0.1256 -0.3852,-0.1883 -0.7876,-0.1884 h -0.291 v -0.612 h 0.2654 c 0.7104,0 1.1855,0.1056 1.4252,0.3167 0.2397,0.2083 0.3595,0.6278 0.3595,1.2583 v 1.0272 c 0,0.428 0.076,0.7233 0.2269,0.886 0.154,0.1626 0.4322,0.2439 0.8345,0.2439 h 0.274 v 0.6121 h -0.274 c -0.4023,0 -0.6805,0.083 -0.8345,0.2482 -0.1513,0.1655 -0.2269,0.4637 -0.2269,0.8945 v 1.0229 c 0,0.6306 -0.1198,1.0515 -0.3595,1.2626 -0.2397,0.2112 -0.7148,0.3167 -1.4252,0.3167 h -0.2654 v -0.6163" style="fill:#ffffff"/>
     </g>
     <g style="font-size:8.76535988px;opacity:0.15" transform="matrix(2.0003,0,0,2,-3609.1,645.6999)">
      <path d="m 3655.2528,-1071.3549 v 0.7704 c -0.2254,-0.1313 -0.4523,-0.2297 -0.6805,-0.2953 -0.2283,-0.066 -0.4608,-0.099 -0.6977,-0.099 -0.3566,0 -0.6234,0.059 -0.8003,0.1755 -0.1741,0.1141 -0.2611,0.2896 -0.2611,0.5264 0,0.214 0.066,0.3738 0.1969,0.4794 0.1312,0.1056 0.4579,0.2083 0.9801,0.3082 l 0.3167,0.06 c 0.3909,0.074 0.6862,0.2225 0.886,0.4451 0.2025,0.2225 0.3038,0.5122 0.3038,0.8688 0,0.4737 -0.1683,0.8446 -0.505,1.1128 -0.3367,0.2654 -0.8046,0.398 -1.4038,0.398 -0.2369,0 -0.4851,-0.026 -0.7447,-0.077 -0.2597,-0.049 -0.5407,-0.1227 -0.8432,-0.2225 v -0.8132 c 0.2939,0.1512 0.575,0.2653 0.8432,0.3424 0.2682,0.074 0.5221,0.1112 0.7618,0.1112 0.3481,0 0.6177,-0.07 0.8089,-0.2097 0.1912,-0.1426 0.2868,-0.341 0.2868,-0.5949 0,-0.3652 -0.3496,-0.6177 -1.0486,-0.7576 l -0.034,-0.01 -0.2953,-0.06 c -0.4537,-0.089 -0.7846,-0.2369 -0.9929,-0.4451 -0.2083,-0.2112 -0.3125,-0.4979 -0.3125,-0.8603 0,-0.4594 0.1555,-0.8132 0.4665,-1.0614 0.3111,-0.2511 0.7547,-0.3767 1.3311,-0.3767 0.2568,0 0.5036,0.024 0.7404,0.073 0.2369,0.046 0.4694,0.1155 0.6977,0.2097"/>
      <path d="m 3657.8135,-1069.1036 c 0,0.6106 0.096,1.0714 0.2867,1.3824 0.1941,0.311 0.4808,0.4665 0.8603,0.4665 0.3795,0 0.6663,-0.1555 0.8603,-0.4665 0.1969,-0.3139 0.2953,-0.7747 0.2953,-1.3824 0,-0.6078 -0.098,-1.0672 -0.2953,-1.3782 -0.194,-0.3139 -0.4808,-0.4708 -0.8603,-0.4708 -0.3795,0 -0.6662,0.1555 -0.8603,0.4665 -0.1911,0.311 -0.2867,0.7718 -0.2867,1.3825 m 2.3026,1.7804 c -0.1284,0.2368 -0.3024,0.4195 -0.5222,0.5478 -0.2168,0.1256 -0.4693,0.1884 -0.7575,0.1884 -0.5735,0 -1.0272,-0.2212 -1.361,-0.6634 -0.331,-0.4451 -0.4965,-1.0572 -0.4965,-1.8361 0,-0.7932 0.1655,-1.4138 0.4965,-1.8618 0.331,-0.448 0.7846,-0.672 1.361,-0.672 0.2853,0 0.5364,0.063 0.7533,0.1884 0.2197,0.1226 0.3951,0.3024 0.5264,0.5392 v -0.612 h 0.7918 v 6.6168 h -0.7918 v -2.4353"/>
      <path d="m 3666.5463,-1070.4394 c -0.1683,-0.1313 -0.3395,-0.2268 -0.5136,-0.2868 -0.174,-0.06 -0.3652,-0.09 -0.5735,-0.09 -0.4908,0 -0.866,0.154 -1.1256,0.4622 -0.2597,0.3082 -0.3895,0.7533 -0.3895,1.3353 v 2.384 h -0.7918 v -4.7936 h 0.7918 v 0.9373 c 0.1312,-0.3395 0.3324,-0.5992 0.6035,-0.7789 0.2739,-0.1826 0.5977,-0.2739 0.9715,-0.2739 0.194,0 0.3752,0.024 0.5436,0.073 0.1683,0.049 0.3295,0.1241 0.4836,0.2269 v 0.8046"/>
      <path d="m 3669.8788,-1072.7579 v 1.3611 h 1.789 v 0.612 h -1.789 v 2.6022 c 0,0.3538 0.067,0.6006 0.2011,0.7405 0.1341,0.1398 0.3681,0.2097 0.7019,0.2097 h 0.886 v 0.6291 h -0.963 c -0.5906,0 -1.0072,-0.1184 -1.2498,-0.3552 -0.2425,-0.2368 -0.3638,-0.6449 -0.3638,-1.2241 v -2.6022 h -1.2797 v -0.612 h 1.2797 v -1.3611 h 0.7876"/>
      <path d="m 3677.1676,-1066.1651 v 0.6163 h -0.2739 c -0.7105,0 -1.187,-0.1055 -1.4295,-0.3167 -0.2397,-0.2111 -0.3596,-0.632 -0.3595,-1.2626 v -1.0229 c -10e-5,-0.4308 -0.077,-0.729 -0.2312,-0.8945 -0.1512,-0.1655 -0.4265,-0.2482 -0.826,-0.2482 h -0.2654 v -0.6121 h 0.2654 c 0.4023,0 0.6791,-0.081 0.8303,-0.2439 0.1512,-0.1627 0.2268,-0.458 0.2269,-0.886 v -1.0272 c -10e-5,-0.6305 0.1198,-1.05 0.3595,-1.2583 0.2425,-0.2111 0.719,-0.3167 1.4295,-0.3167 h 0.2739 v 0.612 h -0.2996 c -0.3995,1e-4 -0.6606,0.063 -0.7832,0.1884 -0.1199,0.1227 -0.1798,0.3866 -0.1798,0.7918 v 1.0614 c 0,0.448 -0.066,0.7732 -0.1969,0.9758 -0.1284,0.2026 -0.3495,0.3396 -0.6634,0.4109 0.3167,0.077 0.5393,0.2168 0.6677,0.4194 0.1284,0.2026 0.1926,0.5265 0.1926,0.9716 v 1.0614 c 0,0.408 0.06,0.6734 0.1798,0.7961 0.1226,0.1227 0.3837,0.184 0.7832,0.184 h 0.2996"/>
      <path d="m 3682.5192,-1071.5218 -1.7163,2.294 1.8832,2.4995 h -0.9116 l -1.4039,-1.9217 -1.3995,1.9217 h -0.9116 l 1.8831,-2.4995 -1.7162,-2.294 h 0.8731 l 1.2711,1.7334 1.2626,-1.7334 h 0.886"/>
      <path d="m 3683.8592,-1066.1651 h 0.291 c 0.4024,0 0.6649,-0.063 0.7876,-0.1883 0.1227,-0.1255 0.184,-0.3895 0.184,-0.7918 v -1.0614 c 0,-0.4451 0.064,-0.769 0.1926,-0.9716 0.1284,-0.2026 0.351,-0.3424 0.6677,-0.4194 -0.3139,-0.071 -0.5365,-0.2083 -0.6677,-0.4109 -0.1284,-0.2026 -0.1926,-0.5278 -0.1926,-0.9758 v -1.0614 c 0,-0.4024 -0.061,-0.6663 -0.184,-0.7918 -0.1227,-0.1256 -0.3852,-0.1883 -0.7876,-0.1884 h -0.291 v -0.612 h 0.2654 c 0.7104,0 1.1855,0.1056 1.4252,0.3167 0.2397,0.2083 0.3595,0.6278 0.3595,1.2583 v 1.0272 c 0,0.428 0.076,0.7233 0.2269,0.886 0.154,0.1626 0.4322,0.2439 0.8345,0.2439 h 0.274 v 0.6121 h -0.274 c -0.4023,0 -0.6805,0.083 -0.8345,0.2482 -0.1513,0.1655 -0.2269,0.4637 -0.2269,0.8945 v 1.0229 c 0,0.6306 -0.1198,1.0515 -0.3595,1.2626 -0.2397,0.2112 -0.7148,0.3167 -1.4252,0.3167 h -0.2654 v -0.6163"/>
     </g>
     <g transform="matrix(2.0003,0,0,2,-3609.1,643.6999)" style="font-size:8.76535988px;opacity:0.9;fill:url(#linearGradient22195)">
      <path style="fill:url(#linearGradient3562)" d="m 3655.2528,-1071.3549 v 0.7704 c -0.2254,-0.1313 -0.4523,-0.2297 -0.6805,-0.2953 -0.2283,-0.066 -0.4608,-0.099 -0.6977,-0.099 -0.3566,0 -0.6234,0.059 -0.8003,0.1755 -0.1741,0.1141 -0.2611,0.2896 -0.2611,0.5264 0,0.214 0.066,0.3738 0.1969,0.4794 0.1312,0.1056 0.4579,0.2083 0.9801,0.3082 l 0.3167,0.06 c 0.3909,0.074 0.6862,0.2225 0.886,0.4451 0.2025,0.2225 0.3038,0.5122 0.3038,0.8688 0,0.4737 -0.1683,0.8446 -0.505,1.1128 -0.3367,0.2654 -0.8046,0.398 -1.4038,0.398 -0.2369,0 -0.4851,-0.026 -0.7447,-0.077 -0.2597,-0.049 -0.5407,-0.1227 -0.8432,-0.2225 v -0.8132 c 0.2939,0.1512 0.575,0.2653 0.8432,0.3424 0.2682,0.074 0.5221,0.1112 0.7618,0.1112 0.3481,0 0.6177,-0.07 0.8089,-0.2097 0.1912,-0.1426 0.2868,-0.341 0.2868,-0.5949 0,-0.3652 -0.3496,-0.6177 -1.0486,-0.7576 l -0.034,-0.01 -0.2953,-0.06 c -0.4537,-0.089 -0.7846,-0.2369 -0.9929,-0.4451 -0.2083,-0.2112 -0.3125,-0.4979 -0.3125,-0.8603 0,-0.4594 0.1555,-0.8132 0.4665,-1.0614 0.3111,-0.2511 0.7547,-0.3767 1.3311,-0.3767 0.2568,0 0.5036,0.024 0.7404,0.073 0.2369,0.046 0.4694,0.1155 0.6977,0.2097"/>
      <path style="fill:url(#linearGradient3564)" d="m 3657.8135,-1069.1036 c 0,0.6106 0.096,1.0714 0.2867,1.3824 0.1941,0.311 0.4808,0.4665 0.8603,0.4665 0.3795,0 0.6663,-0.1555 0.8603,-0.4665 0.1969,-0.3139 0.2953,-0.7747 0.2953,-1.3824 0,-0.6078 -0.098,-1.0672 -0.2953,-1.3782 -0.194,-0.3139 -0.4808,-0.4708 -0.8603,-0.4708 -0.3795,0 -0.6662,0.1555 -0.8603,0.4665 -0.1911,0.311 -0.2867,0.7718 -0.2867,1.3825 m 2.3026,1.7804 c -0.1284,0.2368 -0.3024,0.4195 -0.5222,0.5478 -0.2168,0.1256 -0.4693,0.1884 -0.7575,0.1884 -0.5735,0 -1.0272,-0.2212 -1.361,-0.6634 -0.331,-0.4451 -0.4965,-1.0572 -0.4965,-1.8361 0,-0.7932 0.1655,-1.4138 0.4965,-1.8618 0.331,-0.448 0.7846,-0.672 1.361,-0.672 0.2853,0 0.5364,0.063 0.7533,0.1884 0.2197,0.1226 0.3951,0.3024 0.5264,0.5392 v -0.612 h 0.7918 v 6.6168 h -0.7918 v -2.4353"/>
      <path style="fill:url(#linearGradient3566)" d="m 3666.5463,-1070.4394 c -0.1683,-0.1313 -0.3395,-0.2268 -0.5136,-0.2868 -0.174,-0.06 -0.3652,-0.09 -0.5735,-0.09 -0.4908,0 -0.866,0.154 -1.1256,0.4622 -0.2597,0.3082 -0.3895,0.7533 -0.3895,1.3353 v 2.384 h -0.7918 v -4.7936 h 0.7918 v 0.9373 c 0.1312,-0.3395 0.3324,-0.5992 0.6035,-0.7789 0.2739,-0.1826 0.5977,-0.2739 0.9715,-0.2739 0.194,0 0.3752,0.024 0.5436,0.073 0.1683,0.049 0.3295,0.1241 0.4836,0.2269 v 0.8046"/>
      <path style="fill:url(#linearGradient3568)" d="m 3669.8788,-1072.7579 v 1.3611 h 1.789 v 0.612 h -1.789 v 2.6022 c 0,0.3538 0.067,0.6006 0.2011,0.7405 0.1341,0.1398 0.3681,0.2097 0.7019,0.2097 h 0.886 v 0.6291 h -0.963 c -0.5906,0 -1.0072,-0.1184 -1.2498,-0.3552 -0.2425,-0.2368 -0.3638,-0.6449 -0.3638,-1.2241 v -2.6022 h -1.2797 v -0.612 h 1.2797 v -1.3611 h 0.7876"/>
      <path style="fill:url(#linearGradient3570)" d="m 3677.1676,-1066.1651 v 0.6163 h -0.2739 c -0.7105,0 -1.187,-0.1055 -1.4295,-0.3167 -0.2397,-0.2111 -0.3596,-0.632 -0.3595,-1.2626 v -1.0229 c -10e-5,-0.4308 -0.077,-0.729 -0.2312,-0.8945 -0.1512,-0.1655 -0.4265,-0.2482 -0.826,-0.2482 h -0.2654 v -0.6121 h 0.2654 c 0.4023,0 0.6791,-0.081 0.8303,-0.2439 0.1512,-0.1627 0.2268,-0.458 0.2269,-0.886 v -1.0272 c -10e-5,-0.6305 0.1198,-1.05 0.3595,-1.2583 0.2425,-0.2111 0.719,-0.3167 1.4295,-0.3167 h 0.2739 v 0.612 h -0.2996 c -0.3995,1e-4 -0.6606,0.063 -0.7832,0.1884 -0.1199,0.1227 -0.1798,0.3866 -0.1798,0.7918 v 1.0614 c 0,0.448 -0.066,0.7732 -0.1969,0.9758 -0.1284,0.2026 -0.3495,0.3396 -0.6634,0.4109 0.3167,0.077 0.5393,0.2168 0.6677,0.4194 0.1284,0.2026 0.1926,0.5265 0.1926,0.9716 v 1.0614 c 0,0.408 0.06,0.6734 0.1798,0.7961 0.1226,0.1227 0.3837,0.184 0.7832,0.184 h 0.2996"/>
      <path style="fill:url(#linearGradient3572)" d="m 3682.5192,-1071.5218 -1.7163,2.294 1.8832,2.4995 h -0.9116 l -1.4039,-1.9217 -1.3995,1.9217 h -0.9116 l 1.8831,-2.4995 -1.7162,-2.294 h 0.8731 l 1.2711,1.7334 1.2626,-1.7334 h 0.886"/>
      <path style="fill:url(#linearGradient3574)" d="m 3683.8592,-1066.1651 h 0.291 c 0.4024,0 0.6649,-0.063 0.7876,-0.1883 0.1227,-0.1255 0.184,-0.3895 0.184,-0.7918 v -1.0614 c 0,-0.4451 0.064,-0.769 0.1926,-0.9716 0.1284,-0.2026 0.351,-0.3424 0.6677,-0.4194 -0.3139,-0.071 -0.5365,-0.2083 -0.6677,-0.4109 -0.1284,-0.2026 -0.1926,-0.5278 -0.1926,-0.9758 v -1.0614 c 0,-0.4024 -0.061,-0.6663 -0.184,-0.7918 -0.1227,-0.1256 -0.3852,-0.1883 -0.7876,-0.1884 h -0.291 v -0.612 h 0.2654 c 0.7104,0 1.1855,0.1056 1.4252,0.3167 0.2397,0.2083 0.3595,0.6278 0.3595,1.2583 v 1.0272 c 0,0.428 0.076,0.7233 0.2269,0.886 0.154,0.1626 0.4322,0.2439 0.8345,0.2439 h 0.274 v 0.6121 h -0.274 c -0.4023,0 -0.6805,0.083 -0.8345,0.2482 -0.1513,0.1655 -0.2269,0.4637 -0.2269,0.8945 v 1.0229 c 0,0.6306 -0.1198,1.0515 -0.3595,1.2626 -0.2397,0.2112 -0.7148,0.3167 -1.4252,0.3167 h -0.2654 v -0.6163"/>
     </g>
     <use width="5033" height="1085" x="0" y="0" transform="matrix(-1,0,0,1,7460,-3.0615245e-7)" xlink:href="#rect10222"/>
     <path d="m 3672.4957,-1515.5719 h 115.0084 m -115.0084,-45 h 115.0084 m -115.0084,-20 h 115.0084" style="opacity:0.75;fill:none;stroke:#ffffff;stroke-width:1px;stroke-linecap:square"/>
     <path style="opacity:0.25;fill:none;stroke:#f87019;stroke-linecap:square;stroke-dasharray:1, 1" d="m 3781.5,-1585.571 v 72.9991 m -103,-72.9991 v 72.9991 m 51,-72.9991 v 72.9991 m -57.0043,-4 h 115.0084 m -115.0084,-45 h 115.0084 m -115.0084,-20 h 115.0084"/>
     <path d="m 3721.9679,-1581.0719 h 60.0325 v 12.0001 h -6.0033 v -4 h -48.2859 l -24.3647,57.9999 h -5.0992 l -14.8145,-31.5448 -5.8739,3.2928 -2.1997,-7.5648 0.6725,-1.5554 12.0751,-3.6375 12.5939,24.5797 21.2624,-49.57" style="fill:#ffffff"/>
     <path d="m 3781.5,-1585.571 v 72.9991 m -103,-72.9991 v 72.9991 m 51,-72.9991 v 72.9991 m -57.0043,-4 h 115.0084 m -115.0084,-45 h 115.0084 m -115.0084,-20 h 115.0084" style="opacity:0.7;fill:none;stroke:#f87019;stroke-linecap:square;stroke-dasharray:1, 3"/>
     <path style="opacity:0.8;fill:url(#linearGradient22197)" d="m 3721.9679,-1582.0719 h 60.0325 v 12.0001 h -6.0033 v -4 h -49.0203 l -24.4584,57.9999 h -3.5523 l -14.9799,-31.9656 -5.8335,3.0573 -2.1523,-7.4951 12.1064,-4.6063 12.5939,24.5797 21.2624,-49.57"/>
     <path d="m 3778.8992,-1561.0719 h -10.4586 l -12.1902,15.9972 h -0.3098 l -11.777,-15.9972 h -11.275 l 16.8719,22.4298 v 0.285 l -16.9604,23.2852 h 10.6244 l 12.3093,-16.7093 h 0.31 l 12.3979,16.7093 h 11.3625 l -17.3636,-23.6652 v -0.2852 l 16.4586,-22.0496" style="fill:#ffffff"/>
     <path style="opacity:0.8;fill:url(#linearGradient22199)" d="m 3778.3578,-1562.0719 h -9.9172 l -12.1902,15.9972 h -0.3098 l -11.777,-15.9972 h -10.7437 l 16.8719,22.4298 v 0.285 l -17.4917,23.2852 h 9.9173 l 13.0164,-17.328 h 0.31 l 13.0166,17.328 h 10.7438 l -17.905,-23.6652 v -0.2852 l 16.4586,-22.0496"/>
     <path style="opacity:0.25" d="m 3721.9688,-1582.0719 -21.2813,49.5625 -12.5937,-24.5625 -12.0938,4.5937 0.3125,1.125 11.1875,-4.375 13.1875,25.875 22.0937,-51.2187 H 3781 v 11 h 1 v -12 z m 54.0312,8 v 4 h 1.0938 v -3.125 l -1.0626,-0.875 h -0.031 z"/>
     <path style="opacity:0.25" d="m 3733.4062,-1562.0719 0.75,1 h 9.4688 l 11.7812,16 h 1.4063 l 12.1875,-16 h 8.5938 l 0.75,-1 h -9.9063 l -12.1875,16 h -0.3125 l -11.7813,-16 z m 28.5,22.0625 -0.4687,1.2812 17.1563,22.6563 h 1.2187 l -17.9063,-23.6563 z m -11.625,0.5 v 0.1562 l -17.4687,23.2813 h 1.3125 l 16.7188,-22.2813 z"/>
     <rect width="120" height="1" x="3670" y="-1512.07" style="opacity:0.35;fill:url(#linearGradient22201)"/>
     <rect style="opacity:0.35;fill:url(#linearGradient1549)" width="74" height="1" x="-1586.07" y="-3671" transform="rotate(90)"/>
     <use width="5033" height="1085" x="0" y="0" transform="translate(119)" xlink:href="#rect10312"/>
     <rect style="opacity:0.25;fill:url(#linearGradient1545)" width="77.75" height="1" x="-1587.82" y="-3669" transform="rotate(90)"/>
     <use width="5033" height="1085" x="0" y="0" transform="translate(123)" xlink:href="#rect10352"/>
     <use id="use10386" width="5033" height="1085" x="0" y="0" transform="matrix(0,1,-1.56913,0,1298.9984,-5178.0741)" xlink:href="#rect10352"/>
     <use id="use10408" width="5033" height="1085" x="0" y="0" transform="translate(0,26)" xlink:href="#use10386"/>
     <use width="5033" height="1085" x="0" y="0" transform="translate(0,-23)" xlink:href="#use10408" style="opacity:0.5"/>
     <rect style="opacity:0.15;fill:url(#linearGradient1541)" width="20" height="20" x="3770" y="-1505.07"/>
     <use width="5033" height="1085" x="0" y="0" transform="matrix(-1,0,0,1,7460,-3.0615245e-7)" xlink:href="#rect10420"/>
     <use width="5033" height="1085" x="0" y="0" transform="matrix(0,1,-1.56913,0,1298.9984,-5177.0741)" xlink:href="#rect10352" style="opacity:0.5"/>
     <use style="opacity:0.5" width="5033" height="1085" x="0" y="0" transform="matrix(0,1,-1.56913,0,1298.9984,-5257.0741)" xlink:href="#rect10352"/>
     <path d="m 3666,-1531.0719 v 49 1 h 1 49 v -1 h -49 v -49 z" style="opacity:0.5;fill:url(#linearGradient1537)"/>
     <use width="5033" height="1085" x="0" y="0" transform="matrix(-1,0,0,1,7460,-3.0615245e-7)" xlink:href="#path8482-9"/>
     <use width="5033" height="1085" x="0" y="0" transform="rotate(180,3730,-1536.074)" xlink:href="#path8482-9" style="opacity:0.25"/>
     <use style="opacity:0.25" width="5033" height="1085" x="0" y="0" transform="matrix(1,0,0,-1,0,-3072.1482)" xlink:href="#path8482-9"/>
     <rect width="22" height="1" x="-1506.07" y="-3669" transform="rotate(90)" style="opacity:0.5;fill:url(#linearGradient1533)"/>
     <use width="5033" height="1085" x="0" y="0" transform="matrix(1.04544,0,0,1.04544,-43.6665,67.433245)" xlink:href="#rect10501"/>
    </g>
   </g>
   <g>
    <path style="opacity:0.4;fill:none;stroke:url(#linearGradient1108);stroke-width:8;stroke-linecap:round;stroke-linejoin:round" d="M 361.9375,-212 C 507.2348,-212 528,-191.28677 528,-46.125 V 70.125 C 528,215.28618 507.2348,236 361.9375,236 H 214.0625 C 68.7652,236 48,215.28618 48,70.125 V -46.125 C 48,-191.28677 68.7652,-212 214.0625,-212 Z" clip-path="url(#clipPath1082-3)" transform="matrix(0.5,0,0,0.5,-18.432,166.43199)"/>
   </g>
  </g>
 </g>
</svg>
