<svg xmlns="http://www.w3.org/2000/svg" xmlns:xlink="http://www.w3.org/1999/xlink" style="enable-background:new" width="256" height="256" version="1.0">
 <defs>
  <filter id="filter925" width="1.046" height="1.05" x="-.02" y="-.03" style="color-interpolation-filters:sRGB">
   <feGaussianBlur stdDeviation="2.32"/>
  </filter>
  <filter id="filter931" width="1.023" height="1.025" x="-.01" y="-.01" style="color-interpolation-filters:sRGB">
   <feGaussianBlur stdDeviation="1.16"/>
  </filter>
  <linearGradient id="linearGradient1108" x1="296" x2="296" y1="-212" y2="236" gradientUnits="userSpaceOnUse" xlink:href="#linearGradient1013"/>
  <linearGradient id="linearGradient1013">
   <stop style="stop-color:#ffffff" offset="0"/>
   <stop offset=".125" style="stop-color:#ffffff;stop-opacity:0.09803922"/>
   <stop offset=".925" style="stop-color:#000000;stop-opacity:0.09803922"/>
   <stop style="stop-color:#000000;stop-opacity:0.49803922" offset="1"/>
  </linearGradient>
  <clipPath id="clipPath1082-3" clipPathUnits="userSpaceOnUse">
   <path style="fill:#8c59d9" d="M 361.9375,-212 C 507.2348,-212 528,-191.28677 528,-46.125 V 70.125 C 528,215.28618 507.2348,236 361.9375,236 H 214.0625 C 68.7652,236 48,215.28618 48,70.125 V -46.125 C 48,-191.28677 68.7652,-212 214.0625,-212 Z"/>
  </clipPath>
  <linearGradient id="linearGradient4338">
   <stop offset="0" style="stop-color:#f2f2f2"/>
   <stop offset="1" style="stop-color:#ffffff"/>
  </linearGradient>
  <linearGradient id="linearGradient8074-2">
   <stop offset="0" style="stop-color:#000000;stop-opacity:0"/>
   <stop offset=".493" style="stop-color:#000000"/>
   <stop offset="1" style="stop-color:#000000;stop-opacity:0"/>
  </linearGradient>
  <linearGradient id="linearGradient14610">
   <stop offset="0" style="stop-color:#808080"/>
   <stop offset="1" style="stop-color:#b3b3b3"/>
  </linearGradient>
  <linearGradient id="linearGradient16134-3-1">
   <stop offset="0" style="stop-color:#000000;stop-opacity:0.50196099"/>
   <stop offset="1" style="stop-color:#000000;stop-opacity:0"/>
  </linearGradient>
  <linearGradient id="linearGradient7931-2">
   <stop offset="0" style="stop-color:#000000"/>
   <stop offset=".455" style="stop-color:#000000;stop-opacity:0.36078399"/>
   <stop offset="1" style="stop-color:#000000;stop-opacity:0"/>
  </linearGradient>
  <linearGradient id="linearGradient9364">
   <stop offset="0" style="stop-color:#63bbee"/>
   <stop offset="1" style="stop-color:#aadcf7"/>
  </linearGradient>
  <linearGradient id="linearGradient6989-5">
   <stop style="stop-color:rgb(240, 158, 111)" offset="0"/>
   <stop style="stop-color:rgb(249, 207, 181)" offset="1"/>
  </linearGradient>
  <linearGradient id="linearGradient6975-88">
   <stop style="stop-color:rgb(245, 206, 83)" offset="0"/>
   <stop style="stop-color:rgb(253, 233, 169)" offset="1"/>
  </linearGradient>
  <linearGradient id="linearGradient13220">
   <stop offset="0" style="stop-color:#8ee780"/>
   <stop offset="1" style="stop-color:#ccf4c6"/>
  </linearGradient>
  <linearGradient id="linearGradient8989">
   <stop offset="0" style="stop-color:#4a00ff"/>
   <stop offset="1" style="stop-color:#00a0c1;stop-opacity:0"/>
  </linearGradient>
  <linearGradient id="linearGradient9109">
   <stop offset="0" style="stop-color:#800000"/>
   <stop offset="1" style="stop-color:#ffc600;stop-opacity:0"/>
  </linearGradient>
  <linearGradient id="linearGradient9014">
   <stop offset="0" style="stop-color:#ffffff;stop-opacity:0"/>
   <stop offset=".493" style="stop-color:#ffffff"/>
   <stop offset="1" style="stop-color:#ffffff;stop-opacity:0"/>
  </linearGradient>
  <linearGradient id="linearGradient9103">
   <stop offset="0" style="stop-color:#003362"/>
   <stop offset="1" style="stop-color:#00ff8c;stop-opacity:0"/>
  </linearGradient>
  <linearGradient id="linearGradient9119">
   <stop offset="0" style="stop-color:#ff0000"/>
   <stop offset="1" style="stop-color:#d3d300;stop-opacity:0"/>
  </linearGradient>
  <linearGradient id="linearGradient1776" x1="58.663" x2="3.612" y1="224.971" y2="301.548" gradientTransform="matrix(2.8367694,0,0,2.8346456,31.389226,-573.78227)" gradientUnits="userSpaceOnUse" xlink:href="#linearGradient4338"/>
  <linearGradient id="linearGradient4295">
   <stop offset="0" style="stop-color:#000000;stop-opacity:0"/>
   <stop style="stop-color:#000000" offset=".505"/>
   <stop offset="1" style="stop-color:#000000;stop-opacity:0"/>
  </linearGradient>
  <filter id="filter2168" width="1.023" height="1.025" x="-.01" y="-.01" style="color-interpolation-filters:sRGB">
   <feGaussianBlur stdDeviation=".87"/>
  </filter>
  <linearGradient id="linearGradient2180" x1="120.551" x2="120.468" y1="104.433" y2="238.961" gradientUnits="userSpaceOnUse" xlink:href="#linearGradient4295"/>
  <linearGradient id="linearGradient21640-4" x1="-17" x2="144" y1="-1194.638" y2="-1194.638" gradientTransform="matrix(0.52851491,0,0,1.0909091,355.32553,-218.20714)" gradientUnits="userSpaceOnUse" xlink:href="#linearGradient8074-2"/>
  <linearGradient id="linearGradient21642-6" x1="652.25" x2="652.25" y1="-1491.638" y2="-1548.138" gradientTransform="matrix(1.0909091,0,0,1.0909091,-280.93193,105.79286)" gradientUnits="userSpaceOnUse" xlink:href="#linearGradient14610"/>
  <linearGradient id="linearGradient21644-6" x1="714" x2="714" y1="-1063.638" y2="-1083.638" gradientTransform="matrix(2.0699346,0,0,2.8363637,-1129.4072,1493.2329)" gradientUnits="userSpaceOnUse" xlink:href="#linearGradient4338"/>
  <linearGradient id="linearGradient21646-1" x1="152" x2="113.882" y1="-1192.638" y2="-1230.756" gradientTransform="matrix(0.66518837,0,0,0.66518837,327.05025,-731.3926)" gradientUnits="userSpaceOnUse" xlink:href="#linearGradient7931-2"/>
  <linearGradient id="linearGradient21652-7" x1="525.639" x2="525.639" y1="-1078.644" y2="-1068.787" gradientTransform="matrix(1.8701346,0,0,3.63636,-626.12721,5449.5853)" gradientUnits="userSpaceOnUse" xlink:href="#linearGradient9364"/>
  <linearGradient id="linearGradient21654-6" x1="525.639" x2="525.639" y1="-1078.644" y2="-1068.787" gradientTransform="matrix(1.8701346,0,0,4.84848,-606.49084,6756.4181)" gradientUnits="userSpaceOnUse" xlink:href="#linearGradient6989-5"/>
  <linearGradient id="linearGradient21656-7" x1="525.639" x2="525.639" y1="-1078.644" y2="-1068.787" gradientTransform="matrix(1.8701346,0,0,2.1818182,-586.85448,3881.3817)" gradientUnits="userSpaceOnUse" xlink:href="#linearGradient6975-88"/>
  <linearGradient id="linearGradient21658-2" x1="525.639" x2="525.639" y1="-1078.644" y2="-1068.787" gradientTransform="matrix(1.8701346,0,0,3.1515164,-567.21812,4926.8544)" gradientUnits="userSpaceOnUse" xlink:href="#linearGradient13220"/>
  <linearGradient id="linearGradient21660-7" x1="529.25" x2="535" y1="-1568.638" y2="-1574.638" gradientTransform="matrix(0.90909055,0,0,2.5454509,-126.93156,2462.7238)" gradientUnits="userSpaceOnUse" xlink:href="#linearGradient8989"/>
  <linearGradient id="linearGradient21662-3" x1="529.25" x2="535" y1="-1568.638" y2="-1574.638" gradientTransform="matrix(0.90909055,0,0,3.4545491,-107.2952,3888.7602)" gradientUnits="userSpaceOnUse" xlink:href="#linearGradient9109"/>
  <linearGradient id="linearGradient21666-8" x1="-17" x2="144" y1="-1194.638" y2="-1194.638" gradientTransform="matrix(0.50141128,0,0,1.0909091,357.04698,-224.75259)" gradientUnits="userSpaceOnUse" xlink:href="#linearGradient8074-2"/>
  <linearGradient id="linearGradient21668-4" x1="-17" x2="144" y1="-1194.638" y2="-1194.638" gradientTransform="matrix(0.50141128,0,0,1.0909091,357.04698,-221.47986)" gradientUnits="userSpaceOnUse" xlink:href="#linearGradient9014"/>
  <linearGradient id="linearGradient21670-3" x1="529.25" x2="535" y1="-1568.638" y2="-1574.638" gradientTransform="matrix(0.90909055,0,0,2.1818182,-68.02247,1892.3093)" gradientUnits="userSpaceOnUse" xlink:href="#linearGradient9103"/>
  <linearGradient id="linearGradient21672-9" x1="529.25" x2="535" y1="-1568.638" y2="-1574.638" gradientTransform="matrix(0.90909055,0,0,1.4545418,-87.658834,751.47905)" gradientUnits="userSpaceOnUse" xlink:href="#linearGradient9119"/>
  <linearGradient id="linearGradient1209" x1="-17" x2="144" y1="-1194.638" y2="-1194.638" gradientTransform="matrix(0.41332582,0,0,1.0909091,362.09462,-269.47987)" gradientUnits="userSpaceOnUse" xlink:href="#linearGradient8074-2"/>
  <radialGradient id="radialGradient1211" cx="152.333" cy="-754.638" r="15" fx="152.333" fy="-754.638" gradientTransform="matrix(0,0.41219346,-0.72545455,-9.9797564e-5,-188.05095,-1592.0326)" gradientUnits="userSpaceOnUse" xlink:href="#linearGradient16134-3-1"/>
  <linearGradient id="linearGradient1213" x1="-17" x2="144" y1="-1194.638" y2="-1194.638" gradientTransform="matrix(0.08131004,0,0,1.0909091,354.26844,-258.57077)" gradientUnits="userSpaceOnUse" xlink:href="#linearGradient9014"/>
  <linearGradient id="linearGradient1215" x1="-17" x2="144" y1="-1194.638" y2="-1194.638" gradientTransform="matrix(0.50141128,0,0,1.0909091,-420.72553,2883.6035)" gradientUnits="userSpaceOnUse" xlink:href="#linearGradient8074-2"/>
 </defs>
 <g transform="translate(0,-44)">
  <g>
   <g>
    <path style="opacity:0.2;filter:url(#filter925)" d="m 162.53675,62.431991 c 72.64865,0 83.03125,10.356615 83.03125,82.937499 v 58.125 c 0,72.58059 -10.3826,82.9375 -83.03125,82.9375 h -73.9375 c -72.64865,0 -83.0312501,-10.35691 -83.0312501,-82.9375 v -58.125 c 0,-72.580884 10.3826001,-82.937499 83.0312501,-82.937499 z"/>
    <path d="m 162.53675,61.431991 c 72.64865,0 83.03125,10.356615 83.03125,82.937499 v 58.125 c 0,72.58059 -10.3826,82.9375 -83.03125,82.9375 h -73.9375 c -72.64865,0 -83.0312501,-10.35691 -83.0312501,-82.9375 v -58.125 c 0,-72.580884 10.3826001,-82.937499 83.0312501,-82.937499 z" style="opacity:0.1;filter:url(#filter931)"/>
   </g>
   <g>
    <path d="m 162.53675,60.431991 c 72.64865,0 83.03125,10.356615 83.03125,82.937499 v 58.125 c 0,72.58059 -10.3826,82.9375 -83.03125,82.9375 h -73.9375 c -72.64865,0 -83.0312501,-10.35691 -83.0312501,-82.9375 v -58.125 c 0,-72.580884 10.3826001,-82.937499 83.0312501,-82.937499 z" style="fill:#626262"/>
    <path d="m 215.568,199.81675 v -54.76953 c -0.0331,-2.58701 -0.0938,-5.07855 -0.17981,-7.4375 L 166.48829,88.746439 C 162.33461,88.594661 158.25492,88.43199 153.38277,88.43199 H 97.888095 c -54.527304,0 -62.320095,7.767459 -62.320095,62.20312 v 43.59375 c 0,54.43546 7.792791,62.20313 62.320095,62.20313 h 55.494675 c 52.44617,0 61.55852,-7.62929 62.18523,-56.61524 z" style="opacity:0.4;fill:url(#linearGradient2180);filter:url(#filter2182)"/>
    <g transform="translate(-1.598015)">
     <path style="opacity:0.1;fill:#ffffff" d="m 7.166015,172.43201 v 29.06249 c 0,72.58061 10.3826,82.9375 83.031245,82.9375 h 73.9375 c 72.64865,0 83.03125,-10.35689 83.03125,-82.9375 v -29.06249 z"/>
     <path d="m 124.85652,284.432 h 37.68023 c 36.89655,0 57.27587,-3.11165 69.13609,-14.01362 11.86024,-10.90208 15.18368,-29.57817 15.18368,-63.48219 v -69.00828 c 0,-33.9041 -3.32344,-52.807857 -15.18368,-63.709867 C 219.81262,63.316034 199.4333,60.43199 162.53675,60.43199 h -37.68023 z" style="opacity:0.1;fill:#f6f6f6"/>
    </g>
    <path style="opacity:0.1;fill:#010000;filter:url(#filter2168)" d="m 215.568,199.81675 v -54.76953 c -0.0331,-2.58701 -0.0938,-5.07855 -0.17981,-7.4375 L 166.48829,88.746439 C 162.33461,88.594661 158.25492,88.43199 153.38277,88.43199 H 97.888095 c -54.527304,0 -62.320095,7.767459 -62.320095,62.20312 v 43.59375 c 0,54.43546 7.792791,62.20313 62.320095,62.20313 h 55.494675 c 52.44617,0 61.55852,-7.62929 62.18523,-56.61524 z"/>
    <path d="m 215.568,199.81675 v -54.76953 c -0.0331,-2.58701 -0.0938,-5.07855 -0.17981,-7.4375 L 166.48829,88.746439 C 162.33461,88.594661 158.25492,88.43199 153.38277,88.43199 H 97.888095 c -54.527304,0 -62.320095,7.767459 -62.320095,62.20312 v 43.59375 c 0,54.43546 7.792791,62.20313 62.320095,62.20313 h 55.494675 c 52.44617,0 61.55852,-7.62929 62.18523,-56.61524 z" style="fill:url(#linearGradient1776)"/>
    <g style="enable-background:new" transform="matrix(1.4102563,0,0,1.4102563,-417.86128,2356.718)">
     <g transform="translate(-3.5454572,2.5909596)">
      <rect width="85.091" height="1.091" x="346.34" y="-1521.45" style="opacity:0.25;fill:url(#linearGradient21640-4)"/>
      <rect width="85.091" height="61.091" x="346.34" y="-1582.54" style="fill:url(#linearGradient21642-6)"/>
      <rect width="80.727" height="56.727" x="348.52" y="-1580.36" style="fill:url(#linearGradient21644-6)"/>
      <use width="5033" height="1085" x="0" y="0" transform="translate(19.636369)" xlink:href="#path7695"/>
      <use width="5033" height="1085" x="0" y="0" transform="translate(39.272732)" xlink:href="#path7695"/>
      <use width="5033" height="1085" x="0" y="0" transform="translate(58.909095)" xlink:href="#path7695"/>
      <use width="5033" height="1085" x="0" y="0" transform="translate(5.1710555e-6,32.727272)" xlink:href="#rect9043"/>
      <use width="5033" height="1085" x="0" y="0" transform="translate(5.1710555e-6,10.90909)" xlink:href="#rect9043"/>
      <rect width="54.545" height="54.545" x="373.61" y="-1579.27" style="opacity:0.15;fill:url(#linearGradient21646-1)"/>
      <use width="5033" height="1085" x="0" y="0" transform="translate(5.1710555e-6,21.818181)" xlink:href="#rect9043"/>
      <rect width="15.273" height="34.909" x="351.8" y="-1562.9" style="fill:#0369a3"/>
      <rect width="66.545" height="1.091" x="355.07" y="-1572.72" style="opacity:0.25;fill:url(#linearGradient1209)"/>
      <rect width="15.273" height="45.818" x="371.43" y="-1573.81" style="fill:#a33e03"/>
      <rect width="15.273" height="21.818" x="391.07" y="-1549.81" style="fill:#c99c00"/>
      <rect width="15.273" height="30.545" x="410.7" y="-1558.54" style="fill:#43c330"/>
      <path d="m 349.14598,-1534.5392 h 20.57144 c 0.34534,0 0.62337,1.6453 0.62337,3.689 v 3.5311 c 0,2.0437 -0.27803,3.689 -0.62337,3.689 h -20.57144 c -0.34535,0 -0.62337,-1.6453 -0.62337,-3.689 v -3.5311 c 0,-2.0437 0.27802,-3.689 0.62337,-3.689 z" style="opacity:0.5;fill:url(#radialGradient1211)"/>
      <rect width="13.091" height="32.727" x="352.89" y="1529.09" transform="scale(1,-1)" style="fill:url(#linearGradient21652-7)"/>
      <rect width="13.091" height="43.636" x="372.52" y="1529.09" transform="scale(1,-1)" style="fill:url(#linearGradient21654-6)"/>
      <rect width="13.091" height="19.636" x="392.16" y="1529.09" transform="scale(1,-1)" style="fill:url(#linearGradient21656-7)"/>
      <rect width="13.091" height="28.364" x="411.8" y="1529.09" transform="scale(1,-1)" style="fill:url(#linearGradient21658-2)"/>
      <rect width="10.909" height="30.545" x="353.98" y="-1560.72" style="opacity:0.35;fill:url(#linearGradient21660-7)"/>
      <rect width="10.909" height="41.455" x="373.61" y="-1571.63" style="opacity:0.35;fill:url(#linearGradient21662-3)"/>
      <rect width="13.091" height="1.091" x="352.89" y="-1561.81" style="opacity:0.75;fill:url(#linearGradient1213)"/>
      <rect width="80.727" height="1.091" x="348.52" y="-1527.99" style="opacity:0.5;fill:url(#linearGradient21666-8)"/>
      <rect width="80.727" height="1.091" x="348.52" y="-1524.72" style="opacity:0.75;fill:url(#linearGradient21668-4)"/>
      <rect width="10.909" height="26.182" x="412.89" y="-1556.36" style="opacity:0.35;fill:url(#linearGradient21670-3)"/>
      <rect width="10.909" height="17.455" x="393.25" y="-1547.63" style="opacity:0.35;fill:url(#linearGradient21672-9)"/>
      <rect id="use9300" width="80.727" height="1.091" x="-429.25" y="1580.36" transform="scale(-1)" style="opacity:0.25;fill:url(#linearGradient1215)"/>
      <use width="5033" height="1085" x="0" y="0" transform="translate(-5.1710556e-6,57.818181)" xlink:href="#use9300"/>
      <use width="5033" height="1085" x="0" y="0" transform="translate(19.636358,-10.90909)" xlink:href="#rect9022"/>
      <use width="5033" height="1085" x="0" y="0" transform="translate(39.272721,13.090909)" xlink:href="#rect9022"/>
      <use width="5033" height="1085" x="0" y="0" transform="translate(58.909084,4.3636368)" xlink:href="#rect9022"/>
     </g>
    </g>
   </g>
   <g>
    <path style="opacity:0.4;fill:none;stroke:url(#linearGradient1108);stroke-width:8;stroke-linecap:round;stroke-linejoin:round" d="M 361.9375,-212 C 507.2348,-212 528,-191.28677 528,-46.125 V 70.125 C 528,215.28618 507.2348,236 361.9375,236 H 214.0625 C 68.7652,236 48,215.28618 48,70.125 V -46.125 C 48,-191.28677 68.7652,-212 214.0625,-212 Z" clip-path="url(#clipPath1082-3)" transform="matrix(0.5,0,0,0.5,-18.432,166.43199)"/>
   </g>
  </g>
 </g>
</svg>
