<svg width="256" height="256" version="1.1" viewBox="0 0 67.73 67.73" xmlns="http://www.w3.org/2000/svg" xmlns:xlink="http://www.w3.org/1999/xlink">
 <defs>
  <linearGradient id="linearGradient1108" x1="296" x2="296" y1="-212" y2="236" gradientUnits="userSpaceOnUse">
   <stop style="stop-color:#ffffff" offset="0"/>
   <stop style="stop-color:#ffffff;stop-opacity:.09803922" offset=".125"/>
   <stop style="stop-color:#000000;stop-opacity:.09803922" offset=".925"/>
   <stop style="stop-color:#000000;stop-opacity:.49803922" offset="1"/>
  </linearGradient>
  <clipPath id="clipPath1082-36">
   <path d="M 361.9375,-212 C 507.2348,-212 528,-191.28677 528,-46.125 V 70.125 C 528,215.28618 507.2348,236 361.9375,236 H 214.0625 C 68.7652,236 48,215.28618 48,70.125 V -46.125 C 48,-191.28677 68.7652,-212 214.0625,-212 Z" style="fill:#8c59d9"/>
  </clipPath>
  <filter id="filter1015" x="-.02" y="-.03" width="1.046" height="1.05" style="color-interpolation-filters:sRGB">
   <feGaussianBlur stdDeviation="2.32"/>
  </filter>
 </defs>
 <g transform="translate(0,-229.26666)">
  <path d="m43.004515 233.55492c19.221622 0 21.968685 2.74019 21.968685 21.94388v15.37891c0 19.20362-2.747063 21.94388-21.968685 21.94388h-19.562629c-19.221623 0-21.968686-2.74026-21.968686-21.94388v-15.37891c0-19.20369 2.747063-21.94388 21.968686-21.94388z" style="fill:none;opacity:.2;stroke-linecap:round;stroke-linejoin:round;stroke-width:1.0583333;stroke:#000000"/>
  <path transform="matrix(.26458333 0 0 .26458333 -1.8735229e-8 232.61089)" d="m162.53675 5.5680001c72.64865 0 83.03125 10.356615 83.03125 82.937505v58.125005c0 72.58059-10.3826 82.9375-83.03125 82.9375h-73.937496c-72.648654 0-83.031254-10.35691-83.031254-82.9375v-58.125005c0-72.58089 10.3826-82.937505 83.031254-82.937505z" style="filter:url(#filter1015);opacity:.2"/>
  <path d="m43.004513 233.55492c19.221622 0 21.968685 2.74019 21.968685 21.94388v15.37891c0 19.20362-2.747063 21.94388-21.968685 21.94388h-19.56263c-19.221621 0-21.968684-2.74026-21.968684-21.94388v-15.37891c0-19.20369 2.747063-21.94388 21.968684-21.94388z" style="fill:#f1f0e9"/>
  <path d="m23.441883 233.55492c-19.221621 0-21.968684 2.74019-21.968684 21.94388v15.37891c0 19.20362 2.747063 21.94388 21.968684 21.94388h9.781314v-59.26667z" style="fill:#02171f;opacity:.05"/>
  <path transform="matrix(.13229167 0 0 .13229167 -4.876801 261.60076)" d="M 361.9375,-212 C 507.2348,-212 528,-191.28677 528,-46.125 V 70.125 C 528,215.28618 507.2348,236 361.9375,236 H 214.0625 C 68.7652,236 48,215.28618 48,70.125 V -46.125 C 48,-191.28677 68.7652,-212 214.0625,-212 Z" clip-path="url(#clipPath1082-36)" style="fill:none;opacity:.5;stroke-linecap:round;stroke-linejoin:round;stroke-width:8;stroke:url(#linearGradient1108)"/>
  <g transform="matrix(.26970778 0 0 .26970778 -7.7723873 221.11384)" style="enable-background:new">
   <g transform="matrix(1.9826527,0,0,1.9826527,29.076892,150.94345)">
    <rect transform="scale(1,-1)" x="17.47" y="27.97" width="89.062" height="12.206" style="fill:#ea5420"/>
    <path d="m66.047618-15.721998v-4.068792h40.482942v4.068792z" style="fill-opacity:.99738566;fill:#847d6a"/>
    <path d="m66.047618-7.5844117v-4.0687933h20.241477v4.0687933z" style="fill-opacity:.99738566;fill:#847d6a"/>
    <path d="m66.047618 0.51599154v-4.0316104h40.482952v4.0316104z" style="fill-opacity:.99607843;fill:#aea795;opacity:.5"/>
    <path d="m17.468071 28.997549v-4.068793h89.062489v4.068793z" style="fill-opacity:.99607843;fill:#aea795;opacity:.5"/>
    <path d="m66.047618 8.6535771v-4.0316036h40.482952v4.0316036z" style="fill-opacity:.99607843;fill:#aea795;opacity:.5"/>
    <path d="m66.047618 16.791171v-4.031612h20.241477v4.031612z" style="fill-opacity:.99607843;fill:#aea795;opacity:.5"/>
    <path d="m17.468071 37.135142v-4.068801h89.062489v4.068801z" style="fill-opacity:.99607843;fill:#aea795;opacity:.5"/>
    <path d="m17.468071 45.27273v-4.068798h89.062489v4.068798z" style="fill-opacity:.99607843;fill:#aea795;opacity:.5"/>
    <path d="m17.468073-19.79079v36.581961h40.482949v-36.581961zm39.358607 0.831277h7.6e-4v34.919406h-7.6e-4z" style="fill:#aea795;opacity:.5"/>
    <path d="m23.560757 8.8983973q0-1.5653635 1.104395-2.6753566 1.104395-1.1099843 2.661876-1.1099843 1.55748 0 2.661875 1.1099843 1.104396 1.1099931 1.104396 2.6753566 0 1.5938327-1.104396 2.6895907-1.104395 1.095749-2.661875 1.095749-1.557481 0-2.661876-1.109984t-1.104395-2.6753557zm0-9.5345056v-5.4360914q5.068891 0 9.373201 2.5188185 4.304313 2.5188174 6.81044 6.8449226 2.506128 4.3261062 2.506128 9.4206586h-5.43703q0-5.5214761-3.879538-9.4206586-3.907862-3.9276497-9.373201-3.9276497zm0-9.6483477v-5.46456q5.748518 0 10.987317 2.262667 5.238797 2.262665 9.033387 6.0764759 3.794588 3.8138022 6.045853 9.0791273 2.251269 5.2653172 2.251269 11.042946h-5.437022q0-4.6676355-1.812338-8.936817-1.812346-4.2691814-4.884825-7.3429993-3.072488-3.0738091-7.306002-4.8953241-4.233516-1.8215156-8.877639-1.8215156z" style="fill:#e7e7df"/>
   </g>
  </g>
 </g>
</svg>
