<svg width="256" height="256" version="1.1" viewBox="0 0 67.73 67.73" xmlns="http://www.w3.org/2000/svg" xmlns:xlink="http://www.w3.org/1999/xlink">
 <defs>
  <clipPath id="clipPath1082-3-5">
   <path d="M 361.9375,-212 C 507.2348,-212 528,-191.28677 528,-46.125 V 70.125 C 528,215.28618 507.2348,236 361.9375,236 H 214.0625 C 68.7652,236 48,215.28618 48,70.125 V -46.125 C 48,-191.28677 68.7652,-212 214.0625,-212 Z" style="fill:#8c59d9"/>
  </clipPath>
  <filter id="filter4569-2" x="-.01" y="-.01" width="1.023" height="1.025" style="color-interpolation-filters:sRGB">
   <feGaussianBlur stdDeviation="1.16"/>
  </filter>
  <filter id="filter913" x="-.02" y="-.03" width="1.046" height="1.05" style="color-interpolation-filters:sRGB">
   <feGaussianBlur stdDeviation="2.32"/>
  </filter>
  <linearGradient id="linearGradient906" x1="296" x2="296" y1="-212" y2="236" gradientUnits="userSpaceOnUse">
   <stop style="stop-color:#ffffff" offset="0"/>
   <stop style="stop-color:#ffffff;stop-opacity:.09803922" offset=".125"/>
   <stop style="stop-color:#000000;stop-opacity:.09803922" offset=".925"/>
   <stop style="stop-color:#000000;stop-opacity:.49803922" offset="1"/>
  </linearGradient>
  <linearGradient id="linearGradient4216" x1="56" x2="56" y1="288" y2="83.578" gradientTransform="matrix(-.19921875 0 0 .19921875 119.49533 -55.370508)" gradientUnits="userSpaceOnUse" spreadMethod="reflect">
   <stop style="stop-color:#ffffff;stop-opacity:.97196263" offset="0"/>
   <stop style="stop-color:#ffffff;stop-opacity:.91588783" offset=".646"/>
   <stop style="stop-color:#ffffff;stop-opacity:0" offset="1"/>
  </linearGradient>
 </defs>
 <g transform="translate(0,-229.26666)">
  <path transform="matrix(.26970778 0 0 .26970778 -7.1289177 220.56049)" d="m188.96876 45.999995c72.64865 0 83.03125 10.356615 83.03125 82.937505v58.125c0 72.58059-10.3826 82.9375-83.03125 82.9375h-73.9375c-72.648654 0-83.031254-10.35691-83.031254-82.9375v-58.125c0-72.58089 10.3826-82.937505 83.031254-82.937505z" style="filter:url(#filter913);opacity:.2"/>
  <path transform="matrix(.26970778 0 0 .26970778 -7.1289177 220.56049)" d="m188.96876 43.999995c72.64865 0 83.03125 10.356615 83.03125 82.937505v58.125c0 72.58059-10.3826 82.9375-83.03125 82.9375h-73.9375c-72.648654 0-83.031254-10.35691-83.031254-82.9375v-58.125c0-72.58089 10.3826-82.937505 83.031254-82.937505z" style="filter:url(#filter4569-2);opacity:.1"/>
  <path d="m23.895906 232.42763c-9.797337 0-15.39413 0.69699-18.544517 3.84334-3.150381 3.14634-3.849657 8.73736-3.849657 18.52555v15.67677c0 9.78815 0.699276 15.3792 3.849657 18.52555 3.150387 3.14636 8.747179 3.84333 18.544517 3.84333h19.94152c9.797339 0 15.394134-0.69697 18.544517-3.84333 3.150384-3.14635 3.849659-8.7374 3.849659-18.52555v-15.67677c0-9.78819-0.699275-15.37921-3.849659-18.52555-3.150383-3.14635-8.74718-3.84334-18.544517-3.84334z" style="fill:#858585"/>
  <g transform="matrix(.5675661 0 0 .5675661 -1.3907281 261.49722)">
   <path d="m106.90019-40.229888c0.52006 0.46294 0.99865 0.96523 1.43889 1.50971v3.27154h-7.96875v-4.78125zm-83.029856 0v4.78125h-7.96875v-3.27154c0.44024-0.54448 0.91883-1.04677 1.43889-1.50971zm84.468746 7.96875v4.78125h-7.96875v-4.78125zm-84.468746 0v4.78125h-7.96875v-4.78125zm84.468746 7.96875v4.78125h-7.96875v-4.78125zm-84.468746 0v4.78125h-7.96875v-4.78125zm84.468746 7.96876v4.78125h-7.96875v-4.78125zm-84.468746 0v4.78125h-7.96875v-4.78125zm84.468746 7.9687505v4.781251h-7.96875v-4.781251zm-84.468746 0v4.781251h-7.96875v-4.781251zm84.468746 7.968751v4.78125h-7.96875v-4.78125zm-84.468746 0v4.78125h-7.96875v-4.78125zm84.468746 7.96875v4.7812485h-7.96875v-4.7812485zm-84.468746 0v4.7812485h-7.96875v-4.7812485zm84.468746 7.9687485v4.78125h-7.96875v-4.78125zm-84.468746 0v4.78125h-7.96875v-4.78125zm84.468746 7.968741v4.78125h-7.96875v-4.78125zm-84.468746 0v4.78125h-7.96875v-4.78125zm84.468746 7.96875v4.781252h-7.96875v-4.781252zm-84.468746 0v4.781252h-7.96875v-4.781252zm84.468746 7.968752v3.27155c-0.44024 0.54449-0.91883 1.04677-1.43889 1.5097h-6.52986v-4.78125zm-84.468746 0v4.78125h-6.52986c-0.52006-0.46293-0.99865-0.96522-1.43889-1.5097v-3.27155z" style="fill:url(#linearGradient4216);opacity:.6"/>
   <path d="m57.401328-25.782479-7.01001 14.27527v11.80372c-0.98412 1.15307-2.05977 2.31501-3.18127 3.43652-3.68617 3.6861599-7.81888 6.9102597-10.5835 7.8317897l-4.656735-4.6505198-14.27526 7.0100098v34.00415h50.999985v-63.2644c-3.07128-6.6626-6.44834-9.14836-11.29321-10.44654zm-19.43628 45.6211c1e-3 -1e-3 5e-3 1e-3 6e-3 0-0.52011 0.3248-1.0461 0.64281-1.57507 0.95874 0.52911-0.31588 1.04862-0.63399 1.56885-0.95874zm-4.799915 2.80151c2e-3 -7.9e-4 5e-3 8e-4 6e-3 0-0.54622 0.29865-1.1014 0.59378-1.656 0.88404 0.55467-0.29023 1.10348-0.58542 1.64979-0.88404z" style="fill-opacity:0;opacity:.05"/>
   <path d="m91.585216-50.783555c-0.635378-0.04881-1.214051-0.116613-1.880169-0.155694-3.43867-0.201746-7.291445-0.27861-11.606946-0.27861h-35.135883c-3.832095 0-7.170333 0.09283-10.306768 0.247654v105.94939c3.136436 0.154816 6.474672 0.247654 10.306768 0.247654h35.135883c4.315506 0 8.168272-0.07687 11.606946-0.278612 0.666118-0.03908 1.244791-0.106884 1.880169-0.155692z" style="fill:#4f4f4f"/>
   <path d="m102.51849 24.149157-1.15972 7.684643-5.68931-4.021936-0.26934 8.93419-7.4699-5.271482-1.06991 9.918201-8.090736-6.970078-2.315567 8.133703-6.403898-7.419127-3.822765 6.345313-3.291768-7.59485-2.823188 5.70883c0.350389 0.374109 0.713564 0.694694 1.069958 1.046483 0.889648 0.68962 1.932844 1.284678 1.932844 1.284678s11.560405 5.362025 26.68153 0.179614c7.670568-2.62891 15.24628-9.350843 20.92195-15.373216-0.21829-0.08559-0.40314-0.184626-0.6404-0.261607z" style="fill-rule:evenodd"/>
   <ellipse cx="100.112" cy="-10.378" rx="7.673" ry="7.707" style="opacity:.2"/>
   <ellipse cx="96.59" cy="-13.917" rx="1.887" ry="1.895" style="opacity:.2"/>
   <path transform="matrix(.46617184 0 0 .46617184 2.4503368 -56.787324)" d="m250.28711 157.29492c0.00131-0.56961 0.03711-0.97542 0.03711-1.55273v-19.58789-5c-23.87963 12.63359-47.56112 20.8061-68.08984 26.04687-0.86938 0.26109-1.84084 0.59842-2.67969 0.83789-27.52351 7.86088-46.95899 36.16211-46.95899 36.16211l-1.52343 13.61914c2.46981 1.07408 25.59895 10.55456 56.29687 0.03321 29.08215-9.96703 57.17581-43.18119 62.91797-50.5586z" style="fill-rule:evenodd;fill:#3f3f3f"/>
   <path d="m105.82588 10.25222s-0.15526 0.02316-0.15612 0.0236c-27.793482 5.096553-47.447284 7.291334-47.447284 7.291334s-8.929873 2.878978-16.896106 1.186412l7.965807 11.581387 2.514694-7.204354 5.537009 7.96189 3.897001-8.215705 8.805328 8.719425 3.147288-9.980677 8.301607 7.961895 4.025836-10.867065 6.29067 6.821689 3.897-9.980679 6.91933 4.799006 3.01841-9.559202z" style="fill-rule:evenodd;fill:#ffffff"/>
   <path d="m102.51849 22.150402-1.15972 7.684652-5.68931-4.021947-0.26934 8.934199-7.4699-5.27149-1.06991 9.9182-8.090736-6.970078-2.315567 8.133722-6.403898-7.419146-3.822765 6.345314-3.291768-7.594842-2.823188 5.708831c0.350389 0.374099-0.90033 2.308614-0.543981 2.660395 0.889693 0.689619 0.319076 2.437486 0.319076 2.437486s16.402178 6.053703 31.523307 0.871293c7.670536-2.628911 15.24627-12.578686 20.92194-18.60105-0.21829-0.08559-2.01716-0.415201-2.25432-0.49219z" style="fill-rule:evenodd;fill:#ffffff"/>
   <path transform="matrix(.46617184 0 0 .46617184 2.4503368 -56.787324)" d="m242.87695 215.35156c0.05797-0.12455 0.13624-0.2219 0.19336-0.34765 0.9611-2.1157 1.80476-4.40002 2.54102-6.86914 0.73625-2.46913 1.36507-5.12229 1.90234-7.97071 0.53728-2.84841 0.98154-5.8929 1.34571-9.14648 0.36416-3.25359 0.64832-6.71577 0.86523-10.40039 0.42166-7.16268 0.57295-15.24229 0.58203-24.17774-4.23877 4.81049-52.59449 58.64238-100.9043 60.10938-10.74355 0.18476-20.22537-4.92363-25.71679-14.07422 0 0-4.31544 0.67323-3.50586 6.63672 4.13884 21.14439 39.79124 24.47692 48.51367 24.59375 18.0347-0.05229 42.30648-4.74037 74.18359-18.35352z" style="fill:#e7464c"/>
   <path transform="matrix(.46617184 0 0 .46617184 2.4503368 -56.787324)" d="m250.32422 132.36914v-35.878906c0-9.248683-0.16579-17.505738-0.59961-24.875-0.21691-3.684631-0.50107-7.146805-0.86523-10.40039-0.36417-3.253586-0.80843-6.298071-1.34571-9.146485-0.53727-2.848413-1.16609-5.501588-1.90234-7.970703-0.73626-2.469115-1.57992-4.75345-2.54102-6.86914-0.96109-2.11569-2.04015-4.061471-3.25195-5.84961-1.2118-1.788138-2.55655-3.41979-4.04492-4.90625-1.48837-1.486464-3.11989-2.827003-4.91016-4.037109-1.79026-1.210106-3.73936-2.290381-5.85742-3.25s-4.40521-1.800153-6.87695-2.535156c-1.84-0.547146-3.89094-0.978883-5.93946-1.414063-29.94815 9.909871-109.96333 36.994196-143.80859 55.097656-41.555107 22.227306-42.202789 30.348546-37.345703 42.275396 4.857089 11.92685 19.528563 18.35581 27.083985 36.24609 7.555501 17.89026 61.521479 16.23047 61.521479 16.23047s64.66316 2.17158 130.6836-32.7168z" style="fill:#e7464c"/>
   <circle cx="99.868" cy="-11.818" r="7.997" style="fill:#3f3f3f"/>
   <circle cx="96.869" cy="-14.817" r="2.999" style="fill:#f8fcf9"/>
  </g>
  <path transform="matrix(.13485389 0 0 .13485389 -4.9712557 261.01666)" d="M 361.9375,-212 C 507.2348,-212 528,-191.28677 528,-46.125 V 70.125 C 528,215.28618 507.2348,236 361.9375,236 H 214.0625 C 68.7652,236 48,215.28618 48,70.125 V -46.125 C 48,-191.28677 68.7652,-212 214.0625,-212 Z" clip-path="url(#clipPath1082-3-5)" style="fill:none;opacity:.4;stroke-linecap:round;stroke-linejoin:round;stroke-width:8;stroke:url(#linearGradient906)"/>
 </g>
</svg>
