<svg width="256" height="256" version="1.1" viewBox="0 0 67.73 67.73" xmlns="http://www.w3.org/2000/svg" xmlns:xlink="http://www.w3.org/1999/xlink">
 <defs>
  <filter id="filter1498" x="-.05" y="-.07" width="1.109" height="1.136" style="color-interpolation-filters:sRGB">
   <feGaussianBlur stdDeviation="1.36"/>
  </filter>
  <linearGradient id="linearGradient1108" x1="296" x2="296" y1="-212" y2="236" gradientUnits="userSpaceOnUse">
   <stop style="stop-color:#ffffff" offset="0"/>
   <stop style="stop-color:#ffffff;stop-opacity:.09803922" offset=".125"/>
   <stop style="stop-color:#000000;stop-opacity:0" offset=".925"/>
   <stop style="stop-color:#000000;stop-opacity:0" offset="1"/>
  </linearGradient>
  <clipPath id="clipPath1082-3-09">
   <path d="M 361.9375,-212 C 507.2348,-212 528,-191.28677 528,-46.125 V 70.125 C 528,215.28618 507.2348,236 361.9375,236 H 214.0625 C 68.7652,236 48,215.28618 48,70.125 V -46.125 C 48,-191.28677 68.7652,-212 214.0625,-212 Z" style="fill:#8c59d9"/>
  </clipPath>
  <linearGradient id="linearGradient2059" x1="168" x2="168" y1="284" y2="28" gradientTransform="matrix(.26970778 0 0 .26970778 -7.1289177 220.56049)" gradientUnits="userSpaceOnUse">
   <stop style="stop-color:#e6eaef" offset="0"/>
   <stop style="stop-color:#e6eaef" offset="1"/>
  </linearGradient>
  <filter id="filter1132" x="-.02" y="-.03" width="1.046" height="1.05" style="color-interpolation-filters:sRGB">
   <feGaussianBlur stdDeviation="2.32"/>
  </filter>
  <filter id="filter4569" x="-.01" y="-.01" width="1.023" height="1.025" style="color-interpolation-filters:sRGB">
   <feGaussianBlur stdDeviation="1.16"/>
  </filter>
  <filter id="filter4720" x="-.03" y="-.15" width="1.057" height="1.296" style="color-interpolation-filters:sRGB">
   <feGaussianBlur stdDeviation=".443"/>
  </filter>
 </defs>
 <g transform="translate(0,-229.26666)">
  <path d="m43.837425 232.42763c19.593907 0 22.394175 2.79326 22.394175 22.36889v15.67677c0 19.57555-2.800268 22.36888-22.394175 22.36888h-19.94152c-19.593906 0-22.394174-2.79333-22.394174-22.36888v-15.67677c0-19.57563 2.8002681-22.36889 22.394174-22.36889z" style="fill:none;opacity:.115;stroke-linecap:round;stroke-linejoin:round;stroke-width:1.0788312;stroke:#000000"/>
  <path transform="matrix(.26970778 0 0 .26970778 -7.1289177 220.56049)" d="m188.96876 43.999995c72.64865 0 83.03125 10.356615 83.03125 82.937505v58.125c0 72.58059-10.3826 82.9375-83.03125 82.9375h-73.9375c-72.648654 0-83.031254-10.35691-83.031254-82.9375v-58.125c0-72.58089 10.3826-82.937505 83.031254-82.937505z" style="filter:url(#filter4569);opacity:.1"/>
  <path transform="matrix(.26970778 0 0 .26970778 -7.1289177 220.56049)" d="m188.96876 45.999995c72.64865 0 83.03125 10.356615 83.03125 82.937505v58.125c0 72.58059-10.3826 82.9375-83.03125 82.9375h-73.9375c-72.648654 0-83.031254-10.35691-83.031254-82.9375v-58.125c0-72.58089 10.3826-82.937505 83.031254-82.937505z" style="filter:url(#filter1132);opacity:.2"/>
  <path d="m43.837425 232.42763c19.593907 0 22.394175 2.79326 22.394175 22.36889v15.67677c0 19.57555-2.800268 22.36888-22.394175 22.36888h-19.94152c-19.593906 0-22.394174-2.79333-22.394174-22.36888v-15.67677c0-19.57563 2.8002681-22.36889 22.394174-22.36889z" style="fill:url(#linearGradient2059)"/>
  <path transform="matrix(.13485389 0 0 .13485389 -4.9712559 261.01666)" d="M 361.9375,-212 C 507.2348,-212 528,-191.28677 528,-46.125 V 70.125 C 528,215.28618 507.2348,236 361.9375,236 H 214.0625 C 68.7652,236 48,215.28618 48,70.125 V -46.125 C 48,-191.28677 68.7652,-212 214.0625,-212 Z" clip-path="url(#clipPath1082-3-09)" style="fill:none;opacity:.78;stroke-linecap:round;stroke-linejoin:round;stroke-width:8;stroke:url(#linearGradient1108)"/>
  <path d="m17.000905 243.75618c-1.491349-0.0188-2.819154 0.27856-3.680221 1.31195-0.797735 0.95315-1.028206 2.18432-1.028206 3.60998v7.41661c0 1.42568 0.230514 2.65686 1.028206 3.60998 0.870172 1.04437 2.189246 1.31195 3.660558 1.31195h33.770852c1.471311 0 2.791566-0.26562 3.663362-1.31195 0.799232-0.95496 1.025404-2.18609 1.025404-3.60998v-7.41661c0-1.42386-0.226129-2.65499-1.025404-3.60998-0.871812-1.04635-2.192038-1.31195-3.663362-1.31195z" style="fill-opacity:.94117647;fill:#00000f;opacity:.23"/>
  <path d="m50.73243 265.3328c1.49135-0.0187 2.819154 0.27856 3.680222 1.31195 0.797737 0.95316 1.028208 2.18433 1.028208 3.60998v7.41661c0 1.42569-0.230513 2.65686-1.028208 3.60998-0.87017 1.04437-2.189247 1.31196-3.660556 1.31196h-33.770853c-1.471311 0-2.791567-0.26563-3.663363-1.31196-0.799231-0.95496-1.025402-2.18609-1.025402-3.60998v-7.41661c0-1.42386 0.226128-2.65498 1.025402-3.60998 0.871811-1.04635 2.192037-1.31195 3.663363-1.31195z" style="fill-opacity:.94117647;fill:#00000f;opacity:.236"/>
  <path d="m17.000905 243.21676c-1.491349-0.0188-2.819154 0.27856-3.680221 1.31195-0.797735 0.95316-1.028206 2.18433-1.028206 3.60998v7.41661c0 1.42569 0.230514 2.65686 1.028206 3.60999 0.870172 1.04436 2.189246 1.31195 3.660558 1.31195h33.770852c1.471311 0 2.791566-0.26563 3.663362-1.31195 0.799232-0.95497 1.025404-2.1861 1.025404-3.60999v-7.41661c0-1.42385-0.226129-2.65499-1.025404-3.60998-0.871812-1.04635-2.192038-1.31195-3.663362-1.31195z" style="fill:#ffffff"/>
  <path d="m50.73243 264.79339c1.49135-0.0188 2.819154 0.27856 3.680222 1.31195 0.797737 0.95315 1.028208 2.18432 1.028208 3.60998v7.41661c0 1.42568-0.230513 2.65686-1.028208 3.60998-0.87017 1.04437-2.189247 1.31195-3.660556 1.31195h-33.770853c-1.471311 0-2.791567-0.26563-3.663363-1.31195-0.799231-0.95497-1.025402-2.18609-1.025402-3.60998v-7.41661c0-1.42386 0.226128-2.65499 1.025402-3.60998 0.871811-1.04636 2.192037-1.31195 3.663363-1.31195z" style="fill:#3785d1"/>
  <path transform="matrix(.26970778 0 0 .26970778 -7.1289177 220.56049)" d="m213.14895 174.00213c4.23135-0.0532 7.07155 0.89696 8.53085 2.64832 1.53216 1.82432 2.32022 4.81667 2.32022 8.97617v24.7489c0 4.15962-0.78806 7.15179-2.32022 8.97616-1.4593 1.75143-4.29917 2.64832-8.53085 2.64832h-42.29971c-4.23167 0-7.07942-0.89689-8.53871-2.64832-1.53216-1.82437-2.3124-4.81654-2.3124-8.97616v-24.7489c0-4.1595 0.78024-7.15185 2.3124-8.97617 1.45919-1.75136 4.30704-2.64832 8.53871-2.64832z" style="filter:url(#filter1498);opacity:.2"/>
  <path d="m50.359013 266.9508c1.141227-0.0143 1.907251 0.24192 2.300835 0.71428 0.413237 0.49203 0.625782 1.29909 0.625782 2.42094v6.67497c0 1.12188-0.212545 1.92889-0.625782 2.42093-0.393584 0.47238-1.159518 0.71428-2.300835 0.71428h-11.408561c-1.141315 0-1.909376-0.2419-2.302957-0.71428-0.413237-0.49204-0.623673-1.29905-0.623673-2.42093v-6.67497c0-1.12185 0.210436-1.92891 0.623673-2.42094 0.393554-0.47236 1.161642-0.71428 2.302957-0.71428z" style="fill:#ffffff"/>
  <path d="m17.000973 243.21699c-1.491348-0.0187-2.818968 0.27828-3.680036 1.31167-0.797735 0.95315-1.02826 2.18432-1.02826 3.60997v0.26971c0-1.42565 0.230525-2.65682 1.02826-3.60997 0.861068-1.0334 2.188688-1.33042 3.680036-1.31167h33.750875c1.471326 0 2.791894 0.26531 3.663704 1.31167 0.799277 0.95499 1.025101 2.18612 1.025101 3.60997v-0.26971c0-1.42385-0.225824-2.65498-1.025101-3.60997-0.87181-1.04635-2.192378-1.31167-3.663704-1.31167z" style="opacity:.23"/>
  <path d="m17.000973 264.79362c-1.491348-0.0187-2.818968 0.27827-3.680036 1.31167-0.797735 0.95315-1.02826 2.18431-1.02826 3.60997v0.26971c0-1.42566 0.230525-2.65683 1.02826-3.60998 0.861068-1.03339 2.188688-1.33042 3.680036-1.31166h33.750875c1.471326 0 2.791894 0.26531 3.663704 1.31166 0.799277 0.95499 1.025101 2.18612 1.025101 3.60998v-0.26971c0-1.42386-0.225824-2.65499-1.025101-3.60997-0.87181-1.04636-2.192378-1.31167-3.663704-1.31167z" style="opacity:.23"/>
  <g transform="translate(-.156781 -.04152886)">
   <path d="m17.748501 255.48474 1.045998-1.6736 0.370122-1.19083 0.370123 1.19083 1.029905 1.6736 1.110367-0.69197-0.981628-1.60923-0.885076-0.90116 1.255198 0.25747h1.818427v-1.30347h-1.818427l-1.255198 0.27357 0.885076-0.91726 0.981628-1.60923-1.110367-0.69197-1.029905 1.6736-0.370123 1.20692-0.370122-1.20692-1.029906-1.6736-1.110367 0.69197 0.981629 1.60923 0.885075 0.91726-1.255197-0.27357h-1.802335v1.30347h1.802335l1.255197-0.25747-0.885075 0.90116-0.981629 1.60923z"/>
   <path d="m27.649022 255.48474 1.045998-1.6736 0.370123-1.19083 0.370122 1.19083 1.029906 1.6736 1.110367-0.69197-0.981629-1.60923-0.885075-0.90116 1.255197 0.25747h1.818427v-1.30347h-1.818427l-1.255197 0.27357 0.885075-0.91726 0.981629-1.60923-1.110367-0.69197-1.029906 1.6736-0.370122 1.20692-0.370123-1.20692-1.029905-1.6736-1.110367 0.69197 0.981628 1.60923 0.885076 0.91726-1.255198-0.27357h-1.802335v1.30347h1.802335l1.255198-0.25747-0.885076 0.90116-0.981628 1.60923z"/>
   <path d="m37.549544 255.48474 1.045998-1.6736 0.370122-1.19083 0.370122 1.19083 1.029906 1.6736 1.110367-0.69197-0.981629-1.60923-0.885075-0.90116 1.255197 0.25747h1.818428v-1.30347h-1.818428l-1.255197 0.27357 0.885075-0.91726 0.981629-1.60923-1.110367-0.69197-1.029906 1.6736-0.370122 1.20692-0.370122-1.20692-1.029906-1.6736-1.110367 0.69197 0.981629 1.60923 0.885075 0.91726-1.255198-0.27357h-1.802334v1.30347h1.802334l1.255198-0.25747-0.885075 0.90116-0.981629 1.60923z"/>
   <path d="m47.450066 255.48474 1.045998-1.6736 0.370122-1.19083 0.370122 1.19083 1.029906 1.6736 1.110367-0.69197-0.981629-1.60923-0.885075-0.90116 1.255198 0.25747h1.818427v-1.30347h-1.818427l-1.255198 0.27357 0.885075-0.91726 0.981629-1.60923-1.110367-0.69197-1.029906 1.6736-0.370122 1.20692-0.370122-1.20692-1.029906-1.6736-1.110367 0.69197 0.981629 1.60923 0.885075 0.91726-1.255197-0.27357h-1.802335v1.30347h1.802335l1.255197-0.25747-0.885075 0.90116-0.981629 1.60923z"/>
  </g>
  <g transform="translate(-.156781 -.04152886)" style="filter:url(#filter4720);opacity:.3">
   <path d="m17.748501 255.48474 1.045998-1.6736 0.370122-1.19083 0.370123 1.19083 1.029905 1.6736 1.110367-0.69197-0.981628-1.60923-0.885076-0.90116 1.255198 0.25747h1.818427v-1.30347h-1.818427l-1.255198 0.27357 0.885076-0.91726 0.981628-1.60923-1.110367-0.69197-1.029905 1.6736-0.370123 1.20692-0.370122-1.20692-1.029906-1.6736-1.110367 0.69197 0.981629 1.60923 0.885075 0.91726-1.255197-0.27357h-1.802335v1.30347h1.802335l1.255197-0.25747-0.885075 0.90116-0.981629 1.60923z"/>
   <path d="m27.649022 255.48474 1.045998-1.6736 0.370123-1.19083 0.370122 1.19083 1.029906 1.6736 1.110367-0.69197-0.981629-1.60923-0.885075-0.90116 1.255197 0.25747h1.818427v-1.30347h-1.818427l-1.255197 0.27357 0.885075-0.91726 0.981629-1.60923-1.110367-0.69197-1.029906 1.6736-0.370122 1.20692-0.370123-1.20692-1.029905-1.6736-1.110367 0.69197 0.981628 1.60923 0.885076 0.91726-1.255198-0.27357h-1.802335v1.30347h1.802335l1.255198-0.25747-0.885076 0.90116-0.981628 1.60923z"/>
   <path d="m37.549544 255.48474 1.045998-1.6736 0.370122-1.19083 0.370122 1.19083 1.029906 1.6736 1.110367-0.69197-0.981629-1.60923-0.885075-0.90116 1.255197 0.25747h1.818428v-1.30347h-1.818428l-1.255197 0.27357 0.885075-0.91726 0.981629-1.60923-1.110367-0.69197-1.029906 1.6736-0.370122 1.20692-0.370122-1.20692-1.029906-1.6736-1.110367 0.69197 0.981629 1.60923 0.885075 0.91726-1.255198-0.27357h-1.802334v1.30347h1.802334l1.255198-0.25747-0.885075 0.90116-0.981629 1.60923z"/>
   <path d="m47.450066 255.48474 1.045998-1.6736 0.370122-1.19083 0.370122 1.19083 1.029906 1.6736 1.110367-0.69197-0.981629-1.60923-0.885075-0.90116 1.255198 0.25747h1.818427v-1.30347h-1.818427l-1.255198 0.27357 0.885075-0.91726 0.981629-1.60923-1.110367-0.69197-1.029906 1.6736-0.370122 1.20692-0.370122-1.20692-1.029906-1.6736-1.110367 0.69197 0.981629 1.60923 0.885075 0.91726-1.255197-0.27357h-1.802335v1.30347h1.802335l1.255197-0.25747-0.885075 0.90116-0.981629 1.60923z"/>
  </g>
 </g>
</svg>
