<svg xmlns="http://www.w3.org/2000/svg" xmlns:xlink="http://www.w3.org/1999/xlink" width="256" height="256" version="1.1" viewBox="0 0 67.73 67.73">
 <defs>
  <linearGradient id="linearGradient1108" x1="296" x2="296" y1="-212" y2="236" gradientUnits="userSpaceOnUse" xlink:href="#linearGradient1013"/>
  <linearGradient id="linearGradient1013">
   <stop offset="0" style="stop-color:#ffffff"/>
   <stop style="stop-color:#ffffff;stop-opacity:0.09803922" offset=".125"/>
   <stop style="stop-color:#000000;stop-opacity:0.09803922" offset=".925"/>
   <stop offset="1" style="stop-color:#000000;stop-opacity:0.49803922"/>
  </linearGradient>
  <clipPath id="clipPath1082-3-361" clipPathUnits="userSpaceOnUse">
   <path d="M 361.9375,-212 C 507.2348,-212 528,-191.28677 528,-46.125 V 70.125 C 528,215.28618 507.2348,236 361.9375,236 H 214.0625 C 68.7652,236 48,215.28618 48,70.125 V -46.125 C 48,-191.28677 68.7652,-212 214.0625,-212 Z" style="fill:#8c59d9"/>
  </clipPath>
  <filter style="color-interpolation-filters:sRGB" id="filter4569" width="1.023" height="1.025" x="-.01" y="-.01">
   <feGaussianBlur stdDeviation="1.16"/>
  </filter>
  <filter style="color-interpolation-filters:sRGB" id="filter939" width="1.046" height="1.05" x="-.02" y="-.03">
   <feGaussianBlur stdDeviation="2.32"/>
  </filter>
 </defs>
 <g transform="translate(0,-229.26666)">
  <path style="opacity:0.2;filter:url(#filter939)" d="m 162.53675,5.5680001 c 72.64865,0 83.03125,10.3566149 83.03125,82.9375049 v 58.125005 c 0,72.58059 -10.3826,82.9375 -83.03125,82.9375 H 88.599254 C 15.9506,229.56801 5.568,219.2111 5.568,146.63051 V 88.505505 c 0,-72.58089 10.3826,-82.9375049 83.031254,-82.9375049 z" transform="matrix(0.26970779,0,0,0.26970779,-1.9098094e-8,231.46531)"/>
  <path d="m 43.837429,232.42763 c 19.593907,0 22.394176,2.79326 22.394176,22.36889 v 15.67677 c 0,19.57555 -2.800269,22.36889 -22.394176,22.36889 H 23.89591 c -19.5939088,0 -22.394177,-2.79334 -22.394177,-22.36889 v -15.67677 c 0,-19.57563 2.8002682,-22.36889 22.394177,-22.36889 z" style="opacity:0.1;fill:none;stroke:#000000;stroke-width:1.07883108;stroke-linecap:round;stroke-linejoin:round"/>
  <path d="m 162.53675,3.5680001 c 72.64865,0 83.03125,10.3566149 83.03125,82.9375049 v 58.125005 c 0,72.58059 -10.3826,82.9375 -83.03125,82.9375 H 88.599254 C 15.9506,227.56801 5.568,217.2111 5.568,144.63051 V 86.505505 c 0,-72.58089 10.3826,-82.9375049 83.031254,-82.9375049 z" transform="matrix(0.26970779,0,0,0.26970779,-1.9098094e-8,231.46531)" style="opacity:0.1;filter:url(#filter4569)"/>
  <path style="fill:#add607" d="m 43.837427,232.42763 c 19.593907,0 22.394175,2.79326 22.394175,22.36889 v 15.67677 c 0,19.57555 -2.800268,22.36889 -22.394175,22.36889 h -19.94152 c -19.5939074,0 -22.3941756,-2.79334 -22.3941756,-22.36889 v -15.67677 c 0,-19.57563 2.8002682,-22.36889 22.3941756,-22.36889 z"/>
  <path d="M 361.9375,-212 C 507.2348,-212 528,-191.28677 528,-46.125 V 70.125 C 528,215.28618 507.2348,236 361.9375,236 H 214.0625 C 68.7652,236 48,215.28618 48,70.125 V -46.125 C 48,-191.28677 68.7652,-212 214.0625,-212 Z" clip-path="url(#clipPath1082-3-361)" transform="matrix(0.1348539,0,0,0.1348539,-4.9712559,261.01666)" style="opacity:0.4;fill:none;stroke:url(#linearGradient1108);stroke-width:8;stroke-linecap:round;stroke-linejoin:round"/>
  <path style="fill:#fbfdce" d="M 33.866666,238.36122 A 24.273702,24.273702 0 0 0 9.5929665,262.63492 24.273702,24.273702 0 0 0 33.866666,286.9086 24.273702,24.273702 0 0 0 58.14037,262.63492 24.273702,24.273702 0 0 0 33.866666,238.36122 Z m 0.830917,4.37415 c 0.347572,-0.0122 0.725234,-0.0122 1.122857,0 2.385714,0.0746 5.445103,0.64309 6.492616,2.23325 0.865264,1.31335 -0.273303,2.65822 -0.908268,3.72538 -1.571655,2.64147 -2.956171,5.50581 -4.478958,8.20436 -0.413721,0.73319 -1.946053,3.24987 -2.939395,1.99368 -2.113316,-2.67286 -2.734847,-8.27137 -3.049183,-11.56045 -0.100204,-1.04886 -0.447248,-2.68236 0.04989,-3.66051 0.427873,-0.84212 1.958637,-0.76878 2.772211,-0.86585 0.273168,-0.0324 0.590642,-0.0575 0.938214,-0.0699 z m -8.680943,1.70923 c 0.440469,0.0269 0.864485,0.16514 1.250114,0.45415 1.382008,1.03621 1.785213,3.22275 2.230744,4.75592 0.577839,1.98899 1.368165,3.80023 1.751662,5.86133 0.16895,0.90754 1.262368,3.14669 0.02742,3.70043 -0.892275,0.40034 -2.259281,-0.59468 -3.041703,-0.93821 -2.746244,-1.20593 -5.580418,-3.06526 -7.947346,-4.91812 -3.745933,-2.93218 -0.854856,-5.34157 1.98123,-7.39589 0.964035,-0.69834 2.426428,-1.60059 3.747849,-1.51961 z m 20.246381,2.51521 c 2.266375,-0.22245 3.697348,2.22999 4.885676,3.74285 0.89113,1.13474 2.477466,3.79309 1.621917,5.24251 -0.565892,0.95853 -1.859376,1.14298 -2.80715,1.49715 -2.463898,0.92083 -4.97176,1.87896 -7.558084,2.46279 -1.010895,0.2281 -5.110853,1.69527 -5.803931,0.77354 -0.339279,-0.45121 0.184934,-1.302 0.391753,-1.71674 0.800673,-1.60571 1.992029,-2.84086 2.929411,-4.33423 1.293843,-2.06169 2.872934,-3.8367 4.339224,-5.75403 0.569003,-0.74399 0.93014,-1.80887 2.001184,-1.91384 z m -29.296622,8.4988 c 3.268929,-0.13048 7.322025,2.37411 9.998426,3.7728 0.973941,0.50899 2.300176,0.83405 3.084127,1.64186 1.29198,1.33168 -0.905788,2.22128 -1.928826,2.42038 -3.296422,0.64172 -6.628842,1.01479 -9.928561,1.61193 -1.071334,0.19388 -3.178331,0.6567 -4.037303,-0.27199 -2.141446,-2.31551 -1.136675,-8.59068 2.168369,-9.11262 0.210302,-0.0332 0.425843,-0.0536 0.643768,-0.0624 z m 35.252761,4.59123 c 0.298883,0.0122 0.583058,0.0689 0.838406,0.18716 2.932436,1.35904 1.603056,8.43971 -1.232659,9.22989 -1.93695,0.53969 -4.247994,-0.63407 -5.966118,-1.41731 -2.221754,-1.01283 -4.551226,-1.66106 -6.674765,-2.90445 -0.639281,-0.37443 -2.121988,-1.25529 -1.604441,-2.16087 0.582351,-1.01894 2.442208,-1.1006 3.430955,-1.31501 2.800322,-0.60709 5.637492,-0.8653 8.486314,-1.22516 0.794469,-0.1003 1.82568,-0.43362 2.722308,-0.39425 z m -23.450269,4.32426 c 0.62529,-0.0312 1.173274,0.0375 1.564511,0.262 1.479106,0.8486 -0.459186,3.07433 -0.948183,3.95994 -1.565052,2.83431 -3.617376,5.80296 -5.599324,8.35906 -0.765549,0.98734 -1.799739,2.13107 -3.193904,1.40233 -2.211499,-1.15621 -4.001908,-4.20736 -4.93559,-6.41277 -0.357299,-0.84393 -0.889568,-2.04489 -0.257016,-2.87951 1.479672,-1.95188 5.595913,-2.5446 7.762696,-3.23633 1.156424,-0.36915 3.730938,-1.36091 5.60681,-1.45472 z m 8.209339,1.26008 c 0.892442,0.10602 2.048974,0.91283 2.575088,1.21519 2.685044,1.54335 5.606594,3.13478 7.872484,5.22004 0.493586,0.45428 1.337809,0.6407 1.724212,1.18025 0.540141,0.75423 0.138553,2.37531 -0.336858,3.07914 -1.204196,1.78286 -6.714545,5.78738 -8.573646,3.39103 -2.226016,-2.86887 -2.903011,-6.86726 -3.725393,-10.33778 -0.189684,-0.80014 -1.129967,-2.91374 -0.306915,-3.57569 0.205199,-0.16494 0.473547,-0.20751 0.771028,-0.17228 z m -3.795265,0.79101 c 0.08964,-0.0143 0.174965,-0.0122 0.259513,0.008 0.650877,0.1527 0.922716,1.13865 1.170263,1.65686 0.843152,1.76497 1.252755,3.53219 1.629393,5.45708 0.387351,1.97898 1.891784,6.01831 0.788495,7.88995 -1.001596,1.69935 -5.732005,1.03246 -7.308564,0.65874 -1.282084,-0.30377 -3.37254,-0.54173 -4.109656,-1.7841 -0.571184,-0.9631 0.177799,-1.91947 0.603852,-2.75973 1.054907,-2.08084 2.223406,-4.07529 3.296206,-6.15077 0.471286,-0.91164 2.326022,-4.75971 3.670498,-4.97551 z"/>
  <g transform="matrix(0.48547403,0,0,0.48547403,0.81552423,231.2892)">
   <path style="opacity:0.1;fill:#ffffff" d="m 68.080148,14.567214 c 27.614253,0 50.000002,22.385751 50.000002,50 0,27.614252 -22.385749,50.000006 -50.000002,50.000006 -27.614233,0 -50.000001,-22.385754 -50.000001,-50.000006 0,-27.614249 22.385768,-50 50.000001,-50 z"/>
   <path d="m 68.011979,28.836616 c 19.724464,0 35.714281,15.989821 35.714281,35.714286 0,19.724465 -15.989817,35.714288 -35.714281,35.714288 -19.724454,0 -35.714284,-15.989823 -35.714284,-35.714288 0,-19.724465 15.98983,-35.714286 35.714284,-35.714286 z" style="opacity:0.1;fill:#ffffff"/>
   <circle cx="68.012" cy="64.551" r="20.759" style="opacity:0.1;fill:#ffffff"/>
  </g>
  <path style="opacity:0.1;fill:#ffffff" d="m 33.866666,232.42763 v 60.41455 h 9.970761 c 19.593907,0 22.394175,-2.79334 22.394175,-22.36889 v -15.67677 c 0,-19.57563 -2.800268,-22.36889 -22.394175,-22.36889 z"/>
  <path style="opacity:0.1;fill:#ffffff" d="m 23.895907,292.84218 c -19.5939074,0 -22.3941756,-2.79326 -22.3941756,-22.36889 v -7.83838 H 66.231602 v 7.83838 c 0,19.57563 -2.800268,22.36889 -22.394175,22.36889 z"/>
 </g>
</svg>
