<svg xmlns="http://www.w3.org/2000/svg" xmlns:xlink="http://www.w3.org/1999/xlink" width="256" height="256" version="1.1" viewBox="0 0 67.73 67.73">
 <defs>
  <linearGradient id="linearGradient1404">
   <stop style="stop-color:#76e640;stop-opacity:0.99607843" offset="0"/>
   <stop style="stop-color:#86ea61;stop-opacity:0.27450982" offset="1"/>
  </linearGradient>
  <linearGradient id="linearGradient1108" x1="296" x2="296" y1="-212" y2="236" gradientUnits="userSpaceOnUse" xlink:href="#linearGradient1013"/>
  <linearGradient id="linearGradient1013">
   <stop style="stop-color:#ffffff" offset="0"/>
   <stop offset=".125" style="stop-color:#ffffff;stop-opacity:0.09803922"/>
   <stop offset=".925" style="stop-color:#000000;stop-opacity:0.09803922"/>
   <stop style="stop-color:#000000;stop-opacity:0.49803922" offset="1"/>
  </linearGradient>
  <clipPath id="clipPath1082-3-53" clipPathUnits="userSpaceOnUse">
   <path style="fill:#8c59d9" d="M 361.9375,-212 C 507.2348,-212 528,-191.28677 528,-46.125 V 70.125 C 528,215.28618 507.2348,236 361.9375,236 H 214.0625 C 68.7652,236 48,215.28618 48,70.125 V -46.125 C 48,-191.28677 68.7652,-212 214.0625,-212 Z"/>
  </clipPath>
  <linearGradient id="linearGradient878" x1="32" x2="272" y1="156" y2="156" gradientTransform="matrix(0.13485389,0.23357379,-0.23357379,0.13485389,49.806383,206.09448)" gradientUnits="userSpaceOnUse" xlink:href="#linearGradient3700"/>
  <filter id="filter4569" width="1.023" height="1.025" x="-.01" y="-.01" style="color-interpolation-filters:sRGB">
   <feGaussianBlur stdDeviation="1.16"/>
  </filter>
  <filter id="filter958" width="1.046" height="1.05" x="-.02" y="-.03" style="color-interpolation-filters:sRGB">
   <feGaussianBlur stdDeviation="2.32"/>
  </filter>
  <linearGradient id="linearGradient3700">
   <stop offset="0" style="stop-color:#509528"/>
   <stop offset="1" style="stop-color:#78cd46"/>
  </linearGradient>
  <filter id="filter993" width="1.092" height="1.1" x="-.05" y="-.05" style="color-interpolation-filters:sRGB">
   <feGaussianBlur stdDeviation="2.682"/>
  </filter>
  <linearGradient id="linearGradient4177" x1="121.976" x2="108.56" y1="330.553" y2="348.038" gradientTransform="matrix(0.080962,0,0,0.080962,27.085859,257.21472)" gradientUnits="userSpaceOnUse" xlink:href="#linearGradient1404"/>
  <linearGradient id="linearGradient4164" x1="354.037" x2="370.342" y1="292.996" y2="314.245" gradientTransform="matrix(0.080962,0,0,0.080962,27.085859,257.21472)" gradientUnits="userSpaceOnUse" xlink:href="#linearGradient1404"/>
  <linearGradient id="linearGradient4134" x1="211.404" x2="211.404" y1="344.742" y2="375.678" gradientTransform="matrix(0.60004046,0,0,0.60004046,-82.649264,63.665609)" gradientUnits="userSpaceOnUse" xlink:href="#linearGradient4289"/>
  <linearGradient id="linearGradient4289">
   <stop style="stop-color:#fbfdfb" offset="0"/>
   <stop style="stop-color:#e3f0df" offset="1"/>
  </linearGradient>
  <linearGradient id="linearGradient4143" x1="297.987" x2="299.397" y1="344.067" y2="141.4" gradientTransform="matrix(0.080962,0,0,0.080962,27.085859,258.67204)" gradientUnits="userSpaceOnUse" xlink:href="#linearGradient4155"/>
  <linearGradient id="linearGradient4155">
   <stop style="stop-color:#e0f3d2;stop-opacity:0.99607843" offset="0"/>
   <stop style="stop-color:#f2f7ee" offset="1"/>
  </linearGradient>
  <filter id="filter4500" width="1.021" height="1.028" x="-.01" y="-.01" style="color-interpolation-filters:sRGB">
   <feGaussianBlur stdDeviation="1.346"/>
  </filter>
 </defs>
 <g transform="translate(0,-229.26666)">
  <path d="m 188.96876,45.999995 c 72.64865,0 83.03125,10.356615 83.03125,82.937505 v 58.125 c 0,72.58059 -10.3826,82.9375 -83.03125,82.9375 h -73.9375 C 42.382606,270 32.000006,259.64309 32.000006,187.0625 v -58.125 c 0,-72.58089 10.3826,-82.937505 83.031254,-82.937505 z" transform="matrix(0.26970778,0,0,0.26970778,-7.1289177,220.56049)" style="opacity:0.2;filter:url(#filter958)"/>
  <path style="opacity:0.1;filter:url(#filter4569)" d="m 188.96876,43.999995 c 72.64865,0 83.03125,10.356615 83.03125,82.937505 v 58.125 c 0,72.58059 -10.3826,82.9375 -83.03125,82.9375 h -73.9375 C 42.382606,268 32.000006,257.64309 32.000006,185.0625 v -58.125 c 0,-72.58089 10.3826,-82.937505 83.031254,-82.937505 z" transform="matrix(0.26970778,0,0,0.26970778,-7.1289177,220.56049)"/>
  <path d="m 43.837418,232.42763 c 19.593907,0 22.394178,2.79326 22.394178,22.36889 v 15.67677 c -3e-6,19.57555 -2.800271,22.36889 -22.394178,22.36889 h -19.94152 c -19.5939037,0 -22.3941717,-2.79334 -22.3941717,-22.36889 l -1e-6,-15.67677 c 1e-6,-19.57563 2.8002695,-22.36889 22.3941757,-22.36889 z" style="fill:url(#linearGradient878)"/>
  <path style="opacity:0.4;fill:none;stroke:url(#linearGradient1108);stroke-width:8;stroke-linecap:round;stroke-linejoin:round" d="M 361.9375,-212 C 507.2348,-212 528,-191.28677 528,-46.125 V 70.125 C 528,215.28618 507.2348,236 361.9375,236 H 214.0625 C 68.7652,236 48,215.28618 48,70.125 V -46.125 C 48,-191.28677 68.7652,-212 214.0625,-212 Z" clip-path="url(#clipPath1082-3-53)" transform="matrix(0.13485389,0,0,0.13485389,-4.9712547,261.01666)"/>
  <g style="filter:url(#filter993);opacity:0.3" transform="matrix(0.26458333,0,0,0.26458333,-40.935823,249.30199)">
   <path d="m 221.59772,-37.950443 c -12.05659,1.05e-4 -21.79862,4.38634 -29.20343,13.157591 -8.4491,9.995341 -12.67622,23.5415601 -12.67622,40.676219 0,12.749093 2.44454,23.831625 7.38109,33.2149 7.49975,13.972974 19.02436,20.939821 34.49856,20.939829 3.34347,14.93165 12.56596,22.785752 34.25789,19.495702 V 78.702853 c -10.09805,0.930702 -12.29032,-4.619389 -13.07737,-14.441261 v -0.641835 c 3.03783,-1.937847 5.79528,-4.343071 8.26362,-7.300859 8.06928,-9.689257 12.11453,-23.198776 12.11461,-40.435531 -8e-5,-12.8509804 -2.57569,-23.9117509 -7.702,-33.295131 -7.59475,-13.666884 -18.8573,-20.538574 -33.85675,-20.538679 z m 81.27222,4.332379 -15.24356,0.401144 -5.05444,23.9083081 H 271.741 V 8.5825066 h 9.94842 V 42.840388 c 0,9.383317 1.33838,15.962676 3.93123,19.73639 3.26509,4.997629 10.20003,7.46131 20.8596,7.461318 3.55316,-8e-6 7.95602,-0.482667 13.23782,-1.604585 V 51.424915 c -3.64926,0.204 -6.3588,0.320935 -8.18337,0.320916 -2.97703,1.9e-5 -5.08972,-0.504414 -6.33812,-1.524355 -1.53654,-1.223889 -2.32667,-4.389168 -2.32664,-9.386819 V 8.5825066 h 15.72492 V -9.3086119 h -15.72492 z m -81.27222,15.724925 c 11.77173,8.8e-5 17.65039,11.2947171 17.65043,33.936965 -4e-5,22.642346 -5.8787,34.017212 -17.65043,34.017192 -11.96164,2e-5 -17.97137,-11.433309 -17.97134,-34.177651 -3e-5,-0.917879 -3e-5,-1.809807 0,-2.727794 0.56959,-20.7043859 6.57928,-31.048624 17.97134,-31.048712 z"/>
  </g>
  <g transform="matrix(0.26458333,0,0,0.26458333,-40.935823,249.30199)">
   <path style="fill:#ffffff" d="m 221.59772,-37.950443 c -12.05659,1.05e-4 -21.79862,4.38634 -29.20343,13.157591 -8.4491,9.995341 -12.67622,23.5415601 -12.67622,40.676219 0,12.749093 2.44454,23.831625 7.38109,33.2149 7.49975,13.972974 19.02436,20.939821 34.49856,20.939829 3.34347,14.93165 12.56596,22.785752 34.25789,19.495702 V 78.702853 c -10.09805,0.930702 -12.29032,-4.619389 -13.07737,-14.441261 v -0.641835 c 3.03783,-1.937847 5.79528,-4.343071 8.26362,-7.300859 8.06928,-9.689257 12.11453,-23.198776 12.11461,-40.435531 -8e-5,-12.8509804 -2.57569,-23.9117509 -7.702,-33.295131 -7.59475,-13.666884 -18.8573,-20.538574 -33.85675,-20.538679 z m 81.27222,4.332379 -15.24356,0.401144 -5.05444,23.9083081 H 271.741 V 8.5825066 h 9.94842 V 42.840388 c 0,9.383317 1.33838,15.962676 3.93123,19.73639 3.26509,4.997629 10.20003,7.46131 20.8596,7.461318 3.55316,-8e-6 7.95602,-0.482667 13.23782,-1.604585 V 51.424915 c -3.64926,0.204 -6.3588,0.320935 -8.18337,0.320916 -2.97703,1.9e-5 -5.08972,-0.504414 -6.33812,-1.524355 -1.53654,-1.223889 -2.32667,-4.389168 -2.32664,-9.386819 V 8.5825066 h 15.72492 V -9.3086119 h -15.72492 z m -81.27222,15.724925 c 11.77173,8.8e-5 17.65039,11.2947171 17.65043,33.936965 -4e-5,22.642346 -5.8787,34.017212 -17.65043,34.017192 -11.96164,2e-5 -17.97137,-11.433309 -17.97134,-34.177651 -3e-5,-0.917879 -3e-5,-1.809807 0,-2.727794 0.56959,-20.7043859 6.57928,-31.048624 17.97134,-31.048712 z"/>
  </g>
  <path style="opacity:0.1;filter:url(#filter4500)" d="m 132.66406,147.40039 c -14.29675,-0.17869 -23.90367,3.03093 -28.83398,8.94727 C 98.6533,162.51055 96,172.62248 96,186.67383 v 123.18945 4.92969 c 0,14.05139 2.6533,24.16133 7.83008,30.32422 4.93031,5.91635 14.53612,8.94922 28.83398,8.94922 h 33.95703 l 44.78321,31.61132 44.7832,-31.61132 h 123.14844 c 14.29779,0 23.90344,-3.03287 28.83398,-8.94922 C 413.3467,338.9543 416,328.84436 416,314.79297 V 238.9043 186.67383 c 0,-14.05135 -2.6533,-24.16328 -7.83008,-30.32617 -4.9302,-5.91634 -14.53619,-8.94727 -28.83398,-8.94727 H 355.47266 197.58594 Z" transform="matrix(0.080962,0,0,0.080962,27.08586,258.67204)"/>
  <path d="m 34.858212,275.51213 v 8.48426 c 0,1.13763 0.214658,1.95615 0.633781,2.4551 0.399168,0.47901 1.177032,0.72455 2.334615,0.72455 h 2.74923 l 3.625578,2.55948 3.625896,-2.55948 h 9.970345 c 1.157578,0 1.935428,-0.24554 2.334615,-0.72455 0.419121,-0.49895 0.633781,-1.31747 0.633781,-2.4551 v -8.48426 z" style="fill:url(#linearGradient4143)"/>
  <path d="m 37.826599,270.33057 c -1.157494,-0.0145 -1.935293,0.25869 -2.334461,0.73769 -0.419123,0.49896 -0.633926,1.31758 -0.633926,2.4552 v 10.07382 l 5.717603,3.57878 3.625718,2.55933 3.625709,-2.55933 h 7e-6 l 12.938804,-9.82475 v -3.82785 c 0,-1.13762 -0.214787,-1.95624 -0.633909,-2.4552 -0.399159,-0.479 -1.176885,-0.73769 -2.334463,-0.73769 H 55.865714 43.082846 Z" style="fill:url(#linearGradient4134)"/>
  <path d="m 40.03978,275.51213 v 1.2954 h 15.544704 v -1.2954 z" style="fill:#6ab541"/>
  <path d="m 60.766053,277.35131 -12.938804,9.82475 h 9.970432 c 1.157578,0 1.935277,-0.24549 2.334463,-0.72449 0.419122,-0.49896 0.633909,-1.31758 0.633909,-2.45521 z" style="opacity:0.1;fill:url(#linearGradient4164)"/>
  <path d="m 34.858212,283.59728 v 0.39908 c 0,1.13763 0.214803,1.95625 0.633926,2.45521 0.399168,0.479 1.184826,0.85992 2.334461,0.72449 h 2.749216 z" style="opacity:0.1;fill:url(#linearGradient4177)"/>
  <path style="fill:#6ab541" d="m 40.03978,279.39831 v 1.2954 h 7.772351 v -1.2954 z"/>
  <path d="m 37.826608,270.33057 c -1.157494,-0.0145 -1.935447,0.25883 -2.334615,0.73783 -0.419122,0.49896 -0.633781,1.31748 -0.633781,2.45511 v 0.32385 c 0,-1.13763 0.214659,-1.95615 0.633781,-2.45511 0.399168,-0.479 1.177121,-0.7523 2.334615,-0.73783 h 5.256205 12.782825 1.932019 c 1.157578,0 1.935456,0.25883 2.334615,0.73783 0.419123,0.49896 0.633781,1.31748 0.633781,2.45511 v -0.32385 c 0,-1.13763 -0.214658,-1.95615 -0.633781,-2.45511 -0.399159,-0.479 -1.177037,-0.73783 -2.334615,-0.73783 H 55.865638 43.082813 Z" style="fill:#ffffff"/>
 </g>
</svg>
