<svg xmlns="http://www.w3.org/2000/svg" xmlns:xlink="http://www.w3.org/1999/xlink" width="256" height="256" version="1.0" style="enable-background:new">
 <defs>
  <filter style="color-interpolation-filters:sRGB" id="filter925" width="1.046" height="1.05" x="-.02" y="-.03">
   <feGaussianBlur stdDeviation="2.32"/>
  </filter>
  <filter style="color-interpolation-filters:sRGB" id="filter931" width="1.023" height="1.025" x="-.01" y="-.01">
   <feGaussianBlur stdDeviation="1.16"/>
  </filter>
  <linearGradient id="linearGradient1108" x1="296" x2="296" y1="-212" y2="236" gradientUnits="userSpaceOnUse" xlink:href="#linearGradient1013"/>
  <linearGradient id="linearGradient1013">
   <stop offset="0" style="stop-color:#ffffff"/>
   <stop style="stop-color:#ffffff;stop-opacity:0.09803922" offset=".125"/>
   <stop style="stop-color:#000000;stop-opacity:0.09803922" offset=".925"/>
   <stop offset="1" style="stop-color:#000000;stop-opacity:0.49803922"/>
  </linearGradient>
  <clipPath id="clipPath1082-3" clipPathUnits="userSpaceOnUse">
   <path d="M 361.9375,-212 C 507.2348,-212 528,-191.28677 528,-46.125 V 70.125 C 528,215.28618 507.2348,236 361.9375,236 H 214.0625 C 68.7652,236 48,215.28618 48,70.125 V -46.125 C 48,-191.28677 68.7652,-212 214.0625,-212 Z" style="fill:#8c59d9"/>
  </clipPath>
  <filter style="color-interpolation-filters:sRGB" id="filter885" width="1.095" height="1.097" x="-.05" y="-.05">
   <feGaussianBlur stdDeviation=".283"/>
  </filter>
 </defs>
 <g transform="translate(0,-44)">
  <g>
   <g>
    <path d="m 162.53675,62.431991 c 72.64865,0 83.03125,10.356615 83.03125,82.937499 v 58.125 c 0,72.58059 -10.3826,82.9375 -83.03125,82.9375 h -73.9375 c -72.64865,0 -83.0312501,-10.35691 -83.0312501,-82.9375 v -58.125 c 0,-72.580884 10.3826001,-82.937499 83.0312501,-82.937499 z" style="opacity:0.2;filter:url(#filter925)"/>
    <path style="opacity:0.1;filter:url(#filter931)" d="m 162.53675,61.431991 c 72.64865,0 83.03125,10.356615 83.03125,82.937499 v 58.125 c 0,72.58059 -10.3826,82.9375 -83.03125,82.9375 h -73.9375 c -72.64865,0 -83.0312501,-10.35691 -83.0312501,-82.9375 v -58.125 c 0,-72.580884 10.3826001,-82.937499 83.0312501,-82.937499 z"/>
   </g>
   <g>
    <path style="fill:#ff7800" d="m 162.53675,60.431991 c 72.64865,0 83.03125,10.356615 83.03125,82.937499 v 58.125 c 0,72.58059 -10.3826,82.9375 -83.03125,82.9375 h -73.9375 c -72.64865,0 -83.0312501,-10.35691 -83.0312501,-82.9375 v -58.125 c 0,-72.580884 10.3826001,-82.937499 83.0312501,-82.937499 z"/>
   </g>
   <g>
    <path d="M 361.9375,-212 C 507.2348,-212 528,-191.28677 528,-46.125 V 70.125 C 528,215.28618 507.2348,236 361.9375,236 H 214.0625 C 68.7652,236 48,215.28618 48,70.125 V -46.125 C 48,-191.28677 68.7652,-212 214.0625,-212 Z" clip-path="url(#clipPath1082-3)" transform="matrix(0.5,0,0,0.5,-18.432,166.43199)" style="opacity:0.4;fill:none;stroke:url(#linearGradient1108);stroke-width:8;stroke-linecap:round;stroke-linejoin:round"/>
   </g>
  </g>
 </g>
 <g style="fill:#141414;filter:url(#filter885);opacity:0.3" transform="matrix(11.199776,0,0,11.199776,34.368224,38.840244)">
  <path style="fill:#141414" d="m 13.909,1.307 -3.304,3.307 c 0.732,0.273 1.5,0.527 2.306,0.764 0.8,0.231 1.592,0.436 2.375,0.612 A 48.514,48.514 0 0 0 14.665,3.624 40.298,40.298 0 0 0 13.909,1.308 Z" overflow="visible"/>
  <path style="fill:#141414" d="M 8.102,1 A 7.003,7.003 0 0 0 1,8 a 7.003,7.003 0 0 0 4.895,6.676 7.005,7.005 0 0 0 7.84,-2.66 l 0.287,-0.41 -0.82,-0.575 -0.288,0.41 A 5.996,5.996 0 0 1 6.195,13.723 5.996,5.996 0 0 1 2,8 5.996,5.996 0 0 1 6.195,2.277 a 5.996,5.996 0 0 1 6.72,2.282 l 0.286,0.41 0.82,-0.574 -0.287,-0.41 A 7.006,7.006 0 0 0 8.102,1 Z" font-weight="400" overflow="visible"/>
 </g>
 <g transform="matrix(11.199776,0,0,11.199776,34.368224,38.840244)" style="fill:#ffffff">
  <path d="m 13.909,1.307 -3.304,3.307 c 0.732,0.273 1.5,0.527 2.306,0.764 0.8,0.231 1.592,0.436 2.375,0.612 A 48.514,48.514 0 0 0 14.665,3.624 40.298,40.298 0 0 0 13.909,1.308 Z" overflow="visible" style="fill:#ffffff"/>
  <path d="M 8.102,1 A 7.003,7.003 0 0 0 1,8 a 7.003,7.003 0 0 0 4.895,6.676 7.005,7.005 0 0 0 7.84,-2.66 l 0.287,-0.41 -0.82,-0.575 -0.288,0.41 A 5.996,5.996 0 0 1 6.195,13.723 5.996,5.996 0 0 1 2,8 5.996,5.996 0 0 1 6.195,2.277 a 5.996,5.996 0 0 1 6.72,2.282 l 0.286,0.41 0.82,-0.574 -0.287,-0.41 A 7.006,7.006 0 0 0 8.102,1 Z" font-weight="400" overflow="visible" style="fill:#ffffff"/>
 </g>
</svg>
