<svg width="256" height="256" style="enable-background:new" version="1.0" xmlns="http://www.w3.org/2000/svg" xmlns:xlink="http://www.w3.org/1999/xlink">
 <defs>
  <filter id="filter925" x="-.02" y="-.03" width="1.046" height="1.05" style="color-interpolation-filters:sRGB">
   <feGaussianBlur stdDeviation="2.32"/>
  </filter>
  <filter id="filter931" x="-.01" y="-.01" width="1.023" height="1.025" style="color-interpolation-filters:sRGB">
   <feGaussianBlur stdDeviation="1.16"/>
  </filter>
  <linearGradient id="linearGradient1108" x1="296" x2="296" y1="-212" y2="236" gradientUnits="userSpaceOnUse">
   <stop style="stop-color:#ffffff" offset="0"/>
   <stop style="stop-color:#ffffff;stop-opacity:.09803922" offset=".125"/>
   <stop style="stop-color:#000000;stop-opacity:.09803922" offset=".925"/>
   <stop style="stop-color:#000000;stop-opacity:.49803922" offset="1"/>
  </linearGradient>
  <clipPath id="clipPath1082-3">
   <path d="M 361.9375,-212 C 507.2348,-212 528,-191.28677 528,-46.125 V 70.125 C 528,215.28618 507.2348,236 361.9375,236 H 214.0625 C 68.7652,236 48,215.28618 48,70.125 V -46.125 C 48,-191.28677 68.7652,-212 214.0625,-212 Z" style="fill:#8c59d9"/>
  </clipPath>
  <filter id="filter885" x="-.05" y="-.05" width="1.095" height="1.097" style="color-interpolation-filters:sRGB">
   <feGaussianBlur stdDeviation=".283"/>
  </filter>
 </defs>
 <g transform="translate(0,-44)">
  <path d="m162.53675 62.431991c72.64865 0 83.03125 10.356615 83.03125 82.937499v58.125c0 72.58059-10.3826 82.9375-83.03125 82.9375h-73.9375c-72.64865 0-83.03125-10.35691-83.03125-82.9375v-58.125c0-72.580884 10.3826-82.937499 83.03125-82.937499z" style="filter:url(#filter925);opacity:.2"/>
  <path d="m162.53675 61.431991c72.64865 0 83.03125 10.356615 83.03125 82.937499v58.125c0 72.58059-10.3826 82.9375-83.03125 82.9375h-73.9375c-72.64865 0-83.03125-10.35691-83.03125-82.9375v-58.125c0-72.580884 10.3826-82.937499 83.03125-82.937499z" style="filter:url(#filter931);opacity:.1"/>
  <path d="m162.53675 60.431991c72.64865 0 83.03125 10.356615 83.03125 82.937499v58.125c0 72.58059-10.3826 82.9375-83.03125 82.9375h-73.9375c-72.64865 0-83.03125-10.35691-83.03125-82.9375v-58.125c0-72.580884 10.3826-82.937499 83.03125-82.937499z" style="fill:#ff7800"/>
  <path transform="matrix(.5 0 0 .5 -18.432 166.43199)" d="M 361.9375,-212 C 507.2348,-212 528,-191.28677 528,-46.125 V 70.125 C 528,215.28618 507.2348,236 361.9375,236 H 214.0625 C 68.7652,236 48,215.28618 48,70.125 V -46.125 C 48,-191.28677 68.7652,-212 214.0625,-212 Z" clip-path="url(#clipPath1082-3)" style="fill:none;opacity:.4;stroke-linecap:round;stroke-linejoin:round;stroke-width:8;stroke:url(#linearGradient1108)"/>
 </g>
 <g transform="matrix(11.199776,0,0,11.199776,34.368224,38.840244)" style="fill:#141414;filter:url(#filter885);opacity:.3">
  <path d="m13.909 1.307-3.304 3.307c0.732 0.273 1.5 0.527 2.306 0.764 0.8 0.231 1.592 0.436 2.375 0.612a48.514 48.514 0 0 0-0.621-2.366 40.298 40.298 0 0 0-0.756-2.316z" overflow="visible" style="fill:#141414"/>
  <path d="m8.102 1a7.003 7.003 0 0 0-7.102 7 7.003 7.003 0 0 0 4.895 6.676 7.005 7.005 0 0 0 7.84-2.66l0.287-0.41-0.82-0.575-0.288 0.41a5.996 5.996 0 0 1-6.719 2.282 5.996 5.996 0 0 1-4.195-5.723 5.996 5.996 0 0 1 4.195-5.723 5.996 5.996 0 0 1 6.72 2.282l0.286 0.41 0.82-0.574-0.287-0.41a7.006 7.006 0 0 0-5.632-2.985z" font-weight="400" overflow="visible" style="fill:#141414"/>
 </g>
 <g transform="matrix(11.199776,0,0,11.199776,34.368224,38.840244)" style="fill:#ffffff">
  <path d="m13.909 1.307-3.304 3.307c0.732 0.273 1.5 0.527 2.306 0.764 0.8 0.231 1.592 0.436 2.375 0.612a48.514 48.514 0 0 0-0.621-2.366 40.298 40.298 0 0 0-0.756-2.316z" overflow="visible" style="fill:#ffffff"/>
  <path d="m8.102 1a7.003 7.003 0 0 0-7.102 7 7.003 7.003 0 0 0 4.895 6.676 7.005 7.005 0 0 0 7.84-2.66l0.287-0.41-0.82-0.575-0.288 0.41a5.996 5.996 0 0 1-6.719 2.282 5.996 5.996 0 0 1-4.195-5.723 5.996 5.996 0 0 1 4.195-5.723 5.996 5.996 0 0 1 6.72 2.282l0.286 0.41 0.82-0.574-0.287-0.41a7.006 7.006 0 0 0-5.632-2.985z" font-weight="400" overflow="visible" style="fill:#ffffff"/>
 </g>
</svg>
