<svg xmlns="http://www.w3.org/2000/svg" xmlns:xlink="http://www.w3.org/1999/xlink" width="256" height="256" version="1.1" viewBox="0 0 67.73 67.73">
 <defs>
  <linearGradient id="linearGradient1108" x1="296" x2="296" y1="-212" y2="236" gradientUnits="userSpaceOnUse" xlink:href="#linearGradient1013"/>
  <linearGradient id="linearGradient1013">
   <stop style="stop-color:#ffffff" offset="0"/>
   <stop offset=".125" style="stop-color:#ffffff;stop-opacity:0.09803922"/>
   <stop offset=".925" style="stop-color:#000000;stop-opacity:0.09803922"/>
   <stop style="stop-color:#000000;stop-opacity:0.49803922" offset="1"/>
  </linearGradient>
  <clipPath id="clipPath1082-3-36753" clipPathUnits="userSpaceOnUse">
   <path style="fill:#8c59d9" d="M 361.9375,-212 C 507.2348,-212 528,-191.28677 528,-46.125 V 70.125 C 528,215.28618 507.2348,236 361.9375,236 H 214.0625 C 68.7652,236 48,215.28618 48,70.125 V -46.125 C 48,-191.28677 68.7652,-212 214.0625,-212 Z"/>
  </clipPath>
  <filter id="filter931" width="1.023" height="1.025" x="-.01" y="-.01" style="color-interpolation-filters:sRGB">
   <feGaussianBlur stdDeviation="1.16"/>
  </filter>
  <filter id="filter925" width="1.046" height="1.05" x="-.02" y="-.03" style="color-interpolation-filters:sRGB">
   <feGaussianBlur stdDeviation="2.32"/>
  </filter>
  <filter id="filter966" width="1.104" height="1.141" x="-.05" y="-.07" style="color-interpolation-filters:sRGB">
   <feGaussianBlur stdDeviation=".892"/>
  </filter>
 </defs>
 <g transform="translate(0,-229.26666)">
  <path style="opacity:0.2;filter:url(#filter925)" d="m 162.53675,5.568 c 72.64865,0 83.03125,10.356615 83.03125,82.9375 v 58.125 c 0,72.58059 -10.3826,82.9375 -83.03125,82.9375 H 88.59925 C 15.9506,229.568 5.5679999,219.21109 5.5679999,146.6305 V 88.5055 C 5.5679999,15.924615 15.9506,5.568 88.59925,5.568 Z" transform="matrix(0.26458333,0,0,0.26458333,0,232.67026)"/>
  <path d="m 162.53675,4.568 c 72.64865,0 83.03125,10.356615 83.03125,82.9375 v 58.125 c 0,72.58059 -10.3826,82.9375 -83.03125,82.9375 H 88.59925 C 15.9506,228.568 5.5679999,218.21109 5.5679999,145.6305 V 87.5055 C 5.5679999,14.924615 15.9506,4.568 88.59925,4.568 Z" transform="matrix(0.26458333,0,0,0.26458333,0,232.67026)" style="opacity:0.1;filter:url(#filter931)"/>
  <path d="m 43.004515,233.61429 c 19.221622,0 21.968685,2.74019 21.968685,21.94388 v 15.37891 c 0,19.20361 -2.747063,21.94388 -21.968685,21.94388 H 23.441885 C 4.2202627,292.88096 1.4732,290.14069 1.4732,270.93708 v -15.37891 c 0,-19.20369 2.7470627,-21.94388 21.968685,-21.94388 z" style="fill:#2bc7ec"/>
  <g style="filter:url(#filter966);opacity:0.3" transform="translate(0,-0.29104647)">
   <path d="m 11.90625,250.56563 v 1.32292 h 7.9375 v -1.32292 h -7.9375 v 0"/>
   <path d="m 11.90625,274.37828 v 1.32292 h 7.9375 v -1.32292 h -7.9375 v 0"/>
   <path d="m 44.979167,262.81584 v 1.32292 h 7.9375 v -1.32292 h -7.9375 v 0"/>
   <path d="m 17.638274,247.93621 c 0,0 10.498916,1.10546 15.331093,3.05568 3.347371,1.35097 6.281137,3.61124 9.114361,5.84794 2.524837,1.99325 6.954311,6.69089 6.954311,6.69089 0,0 -4.725732,5.0191 -7.481152,7.05968 -2.534681,1.87711 -5.266066,3.57988 -8.218731,4.68889 -4.713728,1.77046 -14.804251,3.003 -14.804251,3.003 0,0 4.361827,-9.96168 4.214733,-15.22573 -0.148605,-5.31812 -5.110364,-15.12035 -5.110364,-15.12035 z" style="stroke:#000000;stroke-width:1.32291663"/>
  </g>
  <path style="opacity:0.4;fill:none;stroke:url(#linearGradient1108);stroke-width:8;stroke-linecap:round;stroke-linejoin:round" d="M 361.9375,-212 C 507.2348,-212 528,-191.28677 528,-46.125 V 70.125 C 528,215.28618 507.2348,236 361.9375,236 H 214.0625 C 68.7652,236 48,215.28618 48,70.125 V -46.125 C 48,-191.28677 68.7652,-212 214.0625,-212 Z" clip-path="url(#clipPath1082-3-36753)" transform="matrix(0.13229167,0,0,0.13229167,-4.8768,261.66013)"/>
  <g transform="translate(0,-0.29104647)">
   <path style="fill:#11712a" d="m 11.90625,250.56563 v 1.32292 h 7.9375 v -1.32292 h -7.9375 v 0"/>
   <path d="m 11.90625,274.37828 v 1.32292 h 7.9375 v -1.32292 h -7.9375 v 0" style="fill:#01d200"/>
   <path style="fill:#01d200" d="m 44.979167,262.81584 v 1.32292 h 7.9375 v -1.32292 h -7.9375 v 0"/>
   <path style="fill:#ececec;stroke:#000000;stroke-width:1.32291663" d="m 17.638274,247.93621 c 0,0 10.498916,1.10546 15.331093,3.05568 3.347371,1.35097 6.281137,3.61124 9.114361,5.84794 2.524837,1.99325 6.954311,6.69089 6.954311,6.69089 0,0 -4.725732,5.0191 -7.481152,7.05968 -2.534681,1.87711 -5.266066,3.57988 -8.218731,4.68889 -4.713728,1.77046 -14.804251,3.003 -14.804251,3.003 0,0 4.361827,-9.96168 4.214733,-15.22573 -0.148605,-5.31812 -5.110364,-15.12035 -5.110364,-15.12035 z"/>
  </g>
  <path d="m 1.4732,263.24763 v 7.68945 c 0,19.20361 2.7470627,21.94388 21.968685,21.94388 h 19.56263 c 19.221622,0 21.968685,-2.74027 21.968685,-21.94388 v -7.68945 z" style="opacity:0.1;fill:#ffffff"/>
 </g>
</svg>
