<svg width="256" height="256" version="1.1" viewBox="0 0 67.73 67.73" xmlns="http://www.w3.org/2000/svg" xmlns:xlink="http://www.w3.org/1999/xlink">
 <defs>
  <linearGradient id="linearGradient1108" x1="296" x2="296" y1="-212" y2="236" gradientUnits="userSpaceOnUse">
   <stop style="stop-color:#ffffff" offset="0"/>
   <stop style="stop-color:#ffffff;stop-opacity:.09803922" offset=".125"/>
   <stop style="stop-color:#000000;stop-opacity:.09803922" offset=".925"/>
   <stop style="stop-color:#000000;stop-opacity:.49803922" offset="1"/>
  </linearGradient>
  <clipPath id="clipPath1082-3-452">
   <path d="M 361.9375,-212 C 507.2348,-212 528,-191.28677 528,-46.125 V 70.125 C 528,215.28618 507.2348,236 361.9375,236 H 214.0625 C 68.7652,236 48,215.28618 48,70.125 V -46.125 C 48,-191.28677 68.7652,-212 214.0625,-212 Z" style="fill:#8c59d9"/>
  </clipPath>
  <linearGradient id="linearGradient1137" x1="24" x2="280" y1="28" y2="284" gradientTransform="matrix(.26970778 0 0 .26970778 -7.1289177 220.56049)" gradientUnits="userSpaceOnUse">
   <stop style="stop-color:#e72662" offset="0"/>
   <stop style="stop-color:#ec3c50" offset=".483"/>
   <stop style="stop-color:#ff7b66" offset="1"/>
  </linearGradient>
  <filter id="filter1112" x="-.02" y="-.03" width="1.046" height="1.05" style="color-interpolation-filters:sRGB">
   <feGaussianBlur stdDeviation="2.32"/>
  </filter>
  <filter id="filter4569" x="-.01" y="-.01" width="1.023" height="1.025" style="color-interpolation-filters:sRGB">
   <feGaussianBlur stdDeviation="1.16"/>
  </filter>
  <radialGradient id="radialGradient3349" cx="199.281" cy="192.844" r="53.688" gradientTransform="matrix(0 .39734767 -.13831087 0 60.753018 183.27044)" gradientUnits="userSpaceOnUse">
   <stop style="stop-color:#f7f7f7" offset="0"/>
   <stop style="stop-color:#e1e1e1" offset="1"/>
  </radialGradient>
 </defs>
 <g transform="translate(0,-229.26666)">
  <path transform="matrix(.26970778 0 0 .26970778 -7.1289177 220.56049)" d="m188.96876 43.999995c72.64865 0 83.03125 10.356615 83.03125 82.937505v58.125c0 72.58059-10.3826 82.9375-83.03125 82.9375h-73.9375c-72.648654 0-83.031254-10.35691-83.031254-82.9375v-58.125c0-72.58089 10.3826-82.937505 83.031254-82.937505z" style="filter:url(#filter4569);opacity:.1"/>
  <path transform="matrix(.26970778 0 0 .26970778 -7.1289177 220.56049)" d="m188.96876 45.999995c72.64865 0 83.03125 10.356615 83.03125 82.937505v58.125c0 72.58059-10.3826 82.9375-83.03125 82.9375h-73.9375c-72.648654 0-83.031254-10.35691-83.031254-82.9375v-58.125c0-72.58089 10.3826-82.937505 83.031254-82.937505z" style="filter:url(#filter1112);opacity:.2"/>
  <path d="m43.837426 232.42763c19.593907 0 22.394175 2.79326 22.394175 22.36889v15.67677c0 19.57555-2.800268 22.36888-22.394175 22.36888h-19.94152c-19.593906 0-22.394174-2.79333-22.394174-22.36888v-15.67677c0-19.57563 2.8002681-22.36889 22.394174-22.36889z" style="fill:url(#linearGradient1137)"/>
  <g transform="translate(-.21396663 .18053168)" style="opacity:.9">
   <path d="m34.080631 236.86686c-14.124306 0-25.587514 11.4632-25.587514 25.58753 0 14.12429 11.463208 25.5875 25.587514 25.5875 14.124307 0 25.587514-11.46321 25.587514-25.5875 0-14.12433-11.463207-25.58753-25.587514-25.58753zm0 24.87003c0.396461 0 0.717487 0.32102 0.717487 0.7175 0 0.39645-0.321026 0.71747-0.717487 0.71747s-0.717487-0.32102-0.717487-0.71747c0-0.39648 0.321026-0.7175 0.717487-0.7175z"/>
   <path d="m34.080631 253.14c-5.139528 0-9.314373 4.17484-9.314373 9.31439 0 5.13951 4.174845 9.31435 9.314373 9.31435 5.139527 0 9.314372-4.17484 9.314372-9.31435 0-5.13955-4.174845-9.31439-9.314372-9.31439zm0 8.70062c0.339427 0 0.613755 0.27433 0.613755 0.61377 0 0.33941-0.274328 0.61374-0.613755 0.61374-0.339428 0-0.613755-0.27433-0.613755-0.61374 0-0.33944 0.274327-0.61377 0.613755-0.61377z" style="fill:#333333"/>
   <path d="m34.080631 237.11324c13.991026 0 25.341148 11.35011 25.341148 25.34115 2e-6 13.99102-11.350122 25.34114-25.341148 25.34114-13.991027 0-25.341149-11.35012-25.341149-25.34114 0-13.99104 11.350122-25.34115 25.341149-25.34115z" style="fill:none"/>
   <path d="m34.080631 253.14431c5.140602 0 9.310052 4.16948 9.310052 9.31008s-4.16945 9.3103-9.310052 9.3103-9.310321-4.1697-9.310321-9.3103 4.169719-9.31008 9.310321-9.31008z" style="fill:none;stroke-width:.41493267;stroke:#000000"/>
   <path d="m39.331298 257.20372c-2.897974-2.89799-7.603362-2.89799-10.501337 0-2.897971 2.89796-2.897971 7.60334 0 10.50134 2.897978 2.89795 7.603364 2.89795 10.501337 0 2.897973-2.898 2.897973-7.60338 0-10.50134zm-4.743327 4.74332c0.280341 0.28034 0.280341 0.73433 0 1.01467s-0.734339 0.28034-1.01468 0-0.280341-0.73433 0-1.01467 0.734339-0.28034 1.01468 0z" style="fill:url(#radialGradient3349)"/>
   <path d="m40.159547 256.37547c-0.97672-0.97674-2.130841-1.66712-3.358839-2.07522l-0.171147 0.51345c1.150099 0.38237 2.230199 1.03215 3.144898 1.94686 1.114269 1.11425 1.833442 2.47359 2.157726 3.90591l0.528734-0.11911c-0.346062-1.5291-1.111689-2.98211-2.30137-4.1718z" style="fill:#ffffff;opacity:.7425743"/>
   <path d="m26.143504 261.10657-0.537902-0.0917c-0.447734 2.65186 0.351097 5.47339 2.396112 7.51843 2.039525 2.03951 4.851389 2.83901 7.497025 2.39916l-0.08863-0.53485c-2.47924 0.4127-5.112225-0.33832-7.023302-2.24941-1.915922-1.91594-2.662954-4.55693-2.243301-7.04163z" style="fill:#ffffff;opacity:.7425743"/>
   <path d="m33.412757 255.34342a7.3732076 7.4047684 0 0 0-6.702929 7.36806 7.3732076 7.4047684 0 0 0 6.702929 7.37111v-0.0894c-0.02624-2e-3 -0.05259-6e-3 -0.07609-0.0109-0.518566-0.0802-0.93051-0.1807-1.358476-0.3312-0.457596-0.16095-1.17368-0.49008-1.17368-0.53934 0-0.0195 0.517192-0.0343 1.14932-0.0343 1.057368 0 1.151605-6e-3 1.177778-0.07 0.01562-0.0387 0.02846-0.40247 0.02846-0.80877v-0.73869l-0.138567-0.0277c-0.0762-0.0151-1.078269-0.0376-2.22681-0.0494-1.148537-0.0109-2.104709-0.0319-2.124741-0.0445-0.04677-0.0293-0.392589-0.51863-0.422879-0.59844-0.02017-0.0533 0.102737-0.0585 1.039602-0.0439 2.108329 0.0332 3.807832 0.0393 3.833338 0.013 0.01431-0.0152 0.03462-0.57793 0.04507-1.25214l0.01908-1.22583-0.130823-0.0544c-0.07192-0.0299-0.210908-0.0666-0.308902-0.0815-0.09799-0.0152-0.25832-0.0525-0.356301-0.0837-0.09798-0.0313-0.320672-0.0916-0.494866-0.13426-0.605761-0.14816-1.247561-0.31998-1.286799-0.34451-0.06965-0.0436-0.04219-0.141 0.04963-0.17614 0.04898-0.0195 0.160345-0.0447 0.247431-0.0574 0.250938-0.0368 0.500286-0.0966 0.690489-0.16508 0.09673-0.0349 0.408476-0.11584 0.692811-0.18026 0.855752-0.19327 0.867812-0.19847 0.900265-0.38342 0.0154-0.0872 0.02882-0.64812 0.03008-1.24659 0.0022-1.00246-0.0033-1.08991-0.06696-1.11019-0.117543-0.0373-5.309178-0.17027-5.678795-0.14533-0.02425 1e-3 0.112879-0.36045 0.241944-0.63869l0.04647-0.1 1.537016 0.026 0.02017-0.0937c0.01103-0.0516 0.02746-0.52327 0.03627-1.04831 0.01518-0.91062 0.01996-0.95863 0.100665-1.04027 0.07165-0.0725 0.122579-0.0837 0.331559-0.0736 0.135812 6e-3 0.264457 0.0296 0.285862 0.0508 0.02415 0.0241 0.03425 0.43106 0.02668 1.07233-0.01091 0.92387-0.0052 1.04068 0.05412 1.10064 0.05655 0.0573 0.143057 0.0655 0.586953 0.056l0.520613-0.0109 0.02475-0.28021c0.01367-0.15424 0.02698-0.64557 0.0297-1.09211 0.0044-0.69631 0.01367-0.81531 0.06681-0.83589 0.03404-0.013 0.18991-8e-3 0.346405 0.0109l0.284547 0.0354 0.01974 1.10086 0.01974 1.10087 0.603732 0.0109 0.603734 0.0109 0.0017-0.47146c5e-3 -1.34337 0.07368-3.50595 0.112491-3.5452 0.0047-5e-3 0.01974-8e-3 0.03952-0.013v-0.0598zm-6.292733 6.27594c0.0065-6.7e-4 0.01345-5.3e-4 0.02103 1e-4 0.04183 5e-3 0.745068 0.0195 1.562843 0.0332 1.709445 0.0304 2.563999 0.0722 2.619375 0.12819 0.02525 0.0256 0.02083 0.0536-0.01236 0.0805-0.06319 0.0513-1.20979 0.34233-1.773238 0.45028-0.228626 0.0439-0.620557 0.12537-0.87096 0.18112-0.250399 0.0557-0.712263 0.15531-1.0263 0.22104-0.314035 0.0657-0.585716 0.11947-0.603733 0.11947-0.03911 0-0.03853-0.78458 8.02e-4 -1.04083 0.01952-0.12689 0.03742-0.16854 0.08259-0.17331zm0.02265 2.26029c0.0082-1e-3 0.0193 1e-3 0.03371 6e-3 0.0896 0.0348 0.854198 0.21896 1.945587 0.46865 1.485368 0.33982 2.056844 0.49763 2.071158 0.57201 8e-3 0.0414-0.02083 0.072-0.07917 0.0842-0.182536 0.0378-0.871543 0.0451-2.288743 0.0247l-1.44477-0.0217-0.108322-0.3803c-0.05957-0.20911-0.120258-0.46879-0.134857-0.57702-0.01757-0.1295-0.01908-0.17375 0.0055-0.17831zm5.817046 0.83535c0.03395 0 0.06178 0.0173 0.06178 0.0401 0 0.0222-0.0167 0.0401-0.03727 0.0401-0.02039 0-0.04824-0.0173-0.06169-0.0401-0.01345-0.0222 0.0033-0.0401 0.03717-0.0401z" style="fill:#ff0000"/>
   <rect x="34.29" y="255.68" width="1.358" height=".7" rx=".292" style="fill:#666666"/>
   <rect x="34.33" y="256.51" width="3.437" height=".617" rx=".292" style="fill:#666666"/>
   <rect x="34.25" y="257.31" width="3.849" height=".556" rx=".292" style="fill:#666666"/>
   <rect x="34.38" y="258.28" width="1.708" height=".473" rx=".292" style="fill:#666666"/>
   <rect x="36.64" y="258.21" width="1.749" height=".515" rx=".292" style="fill:#666666"/>
   <rect x="34.42" y="259.08" width="4.198" height=".7" rx=".292" style="fill:#666666"/>
   <rect x="34.5" y="259.98" width="2.429" height=".535" rx=".292" style="fill:#666666"/>
   <rect x="37.54" y="260.17" width="1.688" height=".473" rx=".292" style="fill:#666666"/>
   <rect x="34.48" y="260.77" width="2.429" height=".597" rx=".292" style="fill:#666666"/>
   <rect x="37.48" y="260.93" width="2.984" height=".576" rx=".292" style="fill:#666666"/>
   <rect x="38.41" y="262.08" width="2.264" height=".515" rx=".292" style="fill:#666666"/>
   <rect x="34.25" y="263.24" width="6.956" height=".556" rx=".292" style="fill:#666666"/>
   <rect x="34.35" y="264.16" width="2.758" height=".515" rx=".292" style="fill:#666666"/>
   <rect x="37.61" y="264.26" width="2.161" height=".515" rx=".292" style="fill:#666666"/>
   <rect x="34.62" y="265.05" width="4.775" height=".515" rx=".292" style="fill:#666666"/>
   <rect x="34.29" y="265.77" width="2.655" height=".679" rx=".292" style="fill:#666666"/>
   <rect x="37.46" y="265.81" width="1.832" height=".535" rx=".292" style="fill:#666666"/>
   <rect x="34.31" y="266.63" width="4.795" height=".556" rx=".292" style="fill:#666666"/>
   <rect x="34.87" y="267.43" width="1.996" height=".597" rx=".292" style="fill:#666666"/>
   <rect x="34.13" y="268.34" width="2.058" height=".617" rx=".292" style="fill:#666666"/>
  </g>
  <path d="m1.5017316 262.6349v7.83839c0 19.57555 2.8002681 22.36888 22.394174 22.36888h19.94152c19.593907 0 22.394175-2.79333 22.394175-22.36888v-7.83839z" style="fill:#ffffff;opacity:.1"/>
  <path transform="matrix(.26458333 0 0 .26458333 0 229.26666)" d="m127.97852 240.28516h37.70703c9.25696 0 17.52167-0.16447 24.89843-0.59766 3.68838-0.21659 7.15505-0.49967 10.41211-0.86328 3.25707-0.36361 6.30468-0.8073 9.15625-1.34375 2.85158-0.53645 5.50661-1.16724 7.97852-1.90235 2.47191-0.7351 4.76084-1.57558 6.87891-2.53515s4.06541-2.03819 5.85546-3.24805c1.79006-1.20985 3.4223-2.55115 4.91016-4.03711 1.48786-1.48595 2.83148-3.11642 4.04297-4.90429 1.21149-1.78788 2.291-3.73205 3.25195-5.84766s1.80283-4.40194 2.53907-6.87109c0.73623-2.46916 1.36696-5.12218 1.90429-7.97071 0.53734-2.84852 0.98144-5.89278 1.34571-9.14648 0.36426-3.25371 0.64821-6.71569 0.86523-10.40039 0.43404-7.36941 0.59961-15.62671 0.59961-24.875v-59.251956c0-9.248329-0.16557-17.505574-0.59961-24.875-0.21702-3.684712-0.50097-7.146679-0.86523-10.40039-0.36427-3.253712-0.80837-6.297958-1.34571-9.146485-0.53733-2.848527-1.16806-5.501544-1.90429-7.970703-0.73624-2.469159-1.57812-4.755486-2.53907-6.871094-0.96095-2.115607-2.04046-4.059783-3.25195-5.847656-1.21149-1.787872-2.55511-3.418343-4.04297-4.904297-1.48786-1.485953-3.1201-2.827257-4.91016-4.037109-1.79005-1.209852-3.73739-2.288481-5.85546-3.248047s-4.407-1.800059-6.87891-2.535156-5.12694-1.365899-7.97852-1.902344c-2.85157-0.536445-5.89918-0.980141-9.15625-1.34375-3.25706-0.363609-6.72373-0.646692-10.41211-0.863281-7.37676-0.433179-15.64147-0.597656-24.89843-0.597656h-37.70703v228.33789z" style="fill:#ffffff;opacity:.1"/>
  <path transform="matrix(.13485389 0 0 .13485389 -4.9712557 261.01666)" d="M 361.9375,-212 C 507.2348,-212 528,-191.28677 528,-46.125 V 70.125 C 528,215.28618 507.2348,236 361.9375,236 H 214.0625 C 68.7652,236 48,215.28618 48,70.125 V -46.125 C 48,-191.28677 68.7652,-212 214.0625,-212 Z" clip-path="url(#clipPath1082-3-452)" style="fill:none;opacity:.4;stroke-linecap:round;stroke-linejoin:round;stroke-width:8;stroke:url(#linearGradient1108)"/>
 </g>
</svg>
