<svg xmlns="http://www.w3.org/2000/svg" xmlns:xlink="http://www.w3.org/1999/xlink" width="256" height="256" version="1.1" viewBox="0 0 67.73 67.73">
 <defs>
  <linearGradient id="linearGradient1108" x1="296" x2="296" y1="-212" y2="236" gradientUnits="userSpaceOnUse" xlink:href="#linearGradient1013"/>
  <linearGradient id="linearGradient1013">
   <stop style="stop-color:#ffffff" offset="0"/>
   <stop offset=".125" style="stop-color:#ffffff;stop-opacity:0.09803922"/>
   <stop offset=".925" style="stop-color:#000000;stop-opacity:0.09803922"/>
   <stop style="stop-color:#000000;stop-opacity:0.49803922" offset="1"/>
  </linearGradient>
  <clipPath id="clipPath1082-3-452" clipPathUnits="userSpaceOnUse">
   <path style="fill:#8c59d9" d="M 361.9375,-212 C 507.2348,-212 528,-191.28677 528,-46.125 V 70.125 C 528,215.28618 507.2348,236 361.9375,236 H 214.0625 C 68.7652,236 48,215.28618 48,70.125 V -46.125 C 48,-191.28677 68.7652,-212 214.0625,-212 Z"/>
  </clipPath>
  <linearGradient id="linearGradient1137" x1="24" x2="280" y1="28" y2="284" gradientTransform="matrix(0.26970778,0,0,0.26970778,-7.1289177,220.56049)" gradientUnits="userSpaceOnUse" xlink:href="#linearGradient4290"/>
  <linearGradient id="linearGradient4290">
   <stop offset="0" style="stop-color:#e72662"/>
   <stop style="stop-color:#ec3c50" offset=".483"/>
   <stop offset="1" style="stop-color:#ff7b66"/>
  </linearGradient>
  <filter id="filter1112" width="1.046" height="1.05" x="-.02" y="-.03" style="color-interpolation-filters:sRGB">
   <feGaussianBlur stdDeviation="2.32"/>
  </filter>
  <filter id="filter4569" width="1.023" height="1.025" x="-.01" y="-.01" style="color-interpolation-filters:sRGB">
   <feGaussianBlur stdDeviation="1.16"/>
  </filter>
  <radialGradient id="radialGradient3349" cx="199.281" cy="192.844" r="53.688" fx="199.281" fy="192.844" gradientTransform="matrix(0,0.39734767,-0.13831087,0,60.753018,183.27044)" gradientUnits="userSpaceOnUse" xlink:href="#linearGradient3263"/>
  <linearGradient id="linearGradient3263">
   <stop style="stop-color:#f7f7f7" offset="0"/>
   <stop style="stop-color:#e1e1e1" offset="1"/>
  </linearGradient>
 </defs>
 <g transform="translate(0,-229.26666)">
  <path style="opacity:0.1;filter:url(#filter4569)" d="m 188.96876,43.999995 c 72.64865,0 83.03125,10.356615 83.03125,82.937505 v 58.125 c 0,72.58059 -10.3826,82.9375 -83.03125,82.9375 h -73.9375 C 42.382606,268 32.000006,257.64309 32.000006,185.0625 v -58.125 c 0,-72.58089 10.3826,-82.937505 83.031254,-82.937505 z" transform="matrix(0.26970778,0,0,0.26970778,-7.1289177,220.56049)"/>
  <path d="m 188.96876,45.999995 c 72.64865,0 83.03125,10.356615 83.03125,82.937505 v 58.125 c 0,72.58059 -10.3826,82.9375 -83.03125,82.9375 h -73.9375 C 42.382606,270 32.000006,259.64309 32.000006,187.0625 v -58.125 c 0,-72.58089 10.3826,-82.937505 83.031254,-82.937505 z" transform="matrix(0.26970778,0,0,0.26970778,-7.1289177,220.56049)" style="opacity:0.2;filter:url(#filter1112)"/>
  <path d="m 43.837426,232.42763 c 19.593907,0 22.394175,2.79326 22.394175,22.36889 v 15.67677 c 0,19.57555 -2.800268,22.36888 -22.394175,22.36888 h -19.94152 c -19.5939063,0 -22.3941744,-2.79333 -22.3941744,-22.36888 v -15.67677 c 0,-19.57563 2.8002681,-22.36889 22.3941744,-22.36889 z" style="fill:url(#linearGradient1137)"/>
  <g style="opacity:0.9" transform="translate(-0.21396663,0.18053168)">
   <path d="m 34.080631,236.86686 c -14.124306,0 -25.5875135,11.4632 -25.5875135,25.58753 0,14.12429 11.4632075,25.5875 25.5875135,25.5875 14.124307,0 25.587514,-11.46321 25.587514,-25.5875 0,-14.12433 -11.463207,-25.58753 -25.587514,-25.58753 z m 0,24.87003 c 0.396461,0 0.717487,0.32102 0.717487,0.7175 0,0.39645 -0.321026,0.71747 -0.717487,0.71747 -0.396461,0 -0.717487,-0.32102 -0.717487,-0.71747 0,-0.39648 0.321026,-0.7175 0.717487,-0.7175 z"/>
   <path style="fill:#333333" d="m 34.080631,253.14 c -5.139528,0 -9.314373,4.17484 -9.314373,9.31439 0,5.13951 4.174845,9.31435 9.314373,9.31435 5.139527,0 9.314372,-4.17484 9.314372,-9.31435 0,-5.13955 -4.174845,-9.31439 -9.314372,-9.31439 z m 0,8.70062 c 0.339427,0 0.613755,0.27433 0.613755,0.61377 0,0.33941 -0.274328,0.61374 -0.613755,0.61374 -0.339428,0 -0.613755,-0.27433 -0.613755,-0.61374 0,-0.33944 0.274327,-0.61377 0.613755,-0.61377 z"/>
   <path style="fill:none" d="m 34.080631,237.11324 c 13.991026,0 25.341148,11.35011 25.341148,25.34115 2e-6,13.99102 -11.350122,25.34114 -25.341148,25.34114 -13.991027,0 -25.3411486,-11.35012 -25.3411486,-25.34114 0,-13.99104 11.3501216,-25.34115 25.3411486,-25.34115 z"/>
   <path style="fill:none;stroke:#000000;stroke-width:0.41493267" d="m 34.080631,253.14431 c 5.140602,0 9.310052,4.16948 9.310052,9.31008 0,5.1406 -4.16945,9.3103 -9.310052,9.3103 -5.140602,0 -9.310321,-4.1697 -9.310321,-9.3103 0,-5.1406 4.169719,-9.31008 9.310321,-9.31008 z"/>
   <path style="fill:url(#radialGradient3349)" d="m 39.331298,257.20372 c -2.897974,-2.89799 -7.603362,-2.89799 -10.501337,0 -2.897971,2.89796 -2.897971,7.60334 0,10.50134 2.897978,2.89795 7.603364,2.89795 10.501337,0 2.897973,-2.898 2.897973,-7.60338 0,-10.50134 z m -4.743327,4.74332 c 0.280341,0.28034 0.280341,0.73433 0,1.01467 -0.280341,0.28034 -0.734339,0.28034 -1.01468,0 -0.280341,-0.28034 -0.280341,-0.73433 0,-1.01467 0.280341,-0.28034 0.734339,-0.28034 1.01468,0 z"/>
   <path style="opacity:0.7425743;fill:#ffffff" d="m 40.159547,256.37547 c -0.97672,-0.97674 -2.130841,-1.66712 -3.358839,-2.07522 l -0.171147,0.51345 c 1.150099,0.38237 2.230199,1.03215 3.144898,1.94686 1.114269,1.11425 1.833442,2.47359 2.157726,3.90591 l 0.528734,-0.11911 c -0.346062,-1.5291 -1.111689,-2.98211 -2.30137,-4.1718 z"/>
   <path style="opacity:0.7425743;fill:#ffffff" d="m 26.143504,261.10657 -0.537902,-0.0917 c -0.447734,2.65186 0.351097,5.47339 2.396112,7.51843 2.039525,2.03951 4.851389,2.83901 7.497025,2.39916 l -0.08863,-0.53485 c -2.47924,0.4127 -5.112225,-0.33832 -7.023302,-2.24941 -1.915922,-1.91594 -2.662954,-4.55693 -2.243301,-7.04163 z"/>
   <path d="m 33.412757,255.34342 a 7.3732076,7.4047684 0 0 0 -6.702929,7.36806 7.3732076,7.4047684 0 0 0 6.702929,7.37111 v -0.0894 c -0.02624,-0.002 -0.05259,-0.006 -0.07609,-0.0109 -0.518566,-0.0802 -0.93051,-0.1807 -1.358476,-0.3312 -0.457596,-0.16095 -1.17368,-0.49008 -1.17368,-0.53934 0,-0.0195 0.517192,-0.0343 1.14932,-0.0343 1.057368,0 1.151605,-0.006 1.177778,-0.07 0.01562,-0.0387 0.02846,-0.40247 0.02846,-0.80877 v -0.73869 l -0.138567,-0.0277 c -0.0762,-0.0151 -1.078269,-0.0376 -2.22681,-0.0494 -1.148537,-0.0109 -2.104709,-0.0319 -2.124741,-0.0445 -0.04677,-0.0293 -0.392589,-0.51863 -0.422879,-0.59844 -0.02017,-0.0533 0.102737,-0.0585 1.039602,-0.0439 2.108329,0.0332 3.807832,0.0393 3.833338,0.013 0.01431,-0.0152 0.03462,-0.57793 0.04507,-1.25214 l 0.01908,-1.22583 -0.130823,-0.0544 c -0.07192,-0.0299 -0.210908,-0.0666 -0.308902,-0.0815 -0.09799,-0.0152 -0.25832,-0.0525 -0.356301,-0.0837 -0.09798,-0.0313 -0.320672,-0.0916 -0.494866,-0.13426 -0.605761,-0.14816 -1.247561,-0.31998 -1.286799,-0.34451 -0.06965,-0.0436 -0.04219,-0.141 0.04963,-0.17614 0.04898,-0.0195 0.160345,-0.0447 0.247431,-0.0574 0.250938,-0.0368 0.500286,-0.0966 0.690489,-0.16508 0.09673,-0.0349 0.408476,-0.11584 0.692811,-0.18026 0.855752,-0.19327 0.867812,-0.19847 0.900265,-0.38342 0.0154,-0.0872 0.02882,-0.64812 0.03008,-1.24659 0.0022,-1.00246 -0.0033,-1.08991 -0.06696,-1.11019 -0.117543,-0.0373 -5.309178,-0.17027 -5.678795,-0.14533 -0.02425,10e-4 0.112879,-0.36045 0.241944,-0.63869 l 0.04647,-0.1 0.768508,0.013 0.768508,0.013 0.02017,-0.0937 c 0.01103,-0.0516 0.02746,-0.52327 0.03627,-1.04831 0.01518,-0.91062 0.01996,-0.95863 0.100665,-1.04027 0.07165,-0.0725 0.122579,-0.0837 0.331559,-0.0736 0.135812,0.006 0.264457,0.0296 0.285862,0.0508 0.02415,0.0241 0.03425,0.43106 0.02668,1.07233 -0.01091,0.92387 -0.0052,1.04068 0.05412,1.10064 0.05655,0.0573 0.143057,0.0655 0.586953,0.056 l 0.520613,-0.0109 0.02475,-0.28021 c 0.01367,-0.15424 0.02698,-0.64557 0.0297,-1.09211 0.0044,-0.69631 0.01367,-0.81531 0.06681,-0.83589 0.03404,-0.013 0.18991,-0.008 0.346405,0.0109 l 0.284547,0.0354 0.01974,1.10086 0.01974,1.10087 0.603732,0.0109 0.603734,0.0109 0.0017,-0.47146 c 0.005,-1.34337 0.07368,-3.50595 0.112491,-3.5452 0.0047,-0.005 0.01974,-0.008 0.03952,-0.013 v -0.0598 z m -6.292733,6.27594 c 0.0065,-6.7e-4 0.01345,-5.3e-4 0.02103,1e-4 0.04183,0.005 0.745068,0.0195 1.562843,0.0332 1.709445,0.0304 2.563999,0.0722 2.619375,0.12819 0.02525,0.0256 0.02083,0.0536 -0.01236,0.0805 -0.06319,0.0513 -1.20979,0.34233 -1.773238,0.45028 -0.228626,0.0439 -0.620557,0.12537 -0.87096,0.18112 -0.250399,0.0557 -0.712263,0.15531 -1.0263,0.22104 -0.314035,0.0657 -0.585716,0.11947 -0.603733,0.11947 -0.03911,0 -0.03853,-0.78458 8.02e-4,-1.04083 0.01952,-0.12689 0.03742,-0.16854 0.08259,-0.17331 z m 0.02265,2.26029 c 0.0082,-0.001 0.0193,10e-4 0.03371,0.006 0.0896,0.0348 0.854198,0.21896 1.945587,0.46865 1.485368,0.33982 2.056844,0.49763 2.071158,0.57201 0.008,0.0414 -0.02083,0.072 -0.07917,0.0842 -0.182536,0.0378 -0.871543,0.0451 -2.288743,0.0247 l -1.44477,-0.0217 -0.108322,-0.3803 c -0.05957,-0.20911 -0.120258,-0.46879 -0.134857,-0.57702 -0.01757,-0.1295 -0.01908,-0.17375 0.0055,-0.17831 z m 5.817046,0.83535 c 0.03395,0 0.06178,0.0173 0.06178,0.0401 0,0.0222 -0.0167,0.0401 -0.03727,0.0401 -0.02039,0 -0.04824,-0.0173 -0.06169,-0.0401 -0.01345,-0.0222 0.0033,-0.0401 0.03717,-0.0401 z" style="fill:#ff0000"/>
   <rect width="1.358" height=".7" x="34.29" y="255.68" rx=".292" style="fill:#666666"/>
   <rect width="3.437" height=".617" x="34.33" y="256.51" rx=".292" style="fill:#666666"/>
   <rect width="3.849" height=".556" x="34.25" y="257.31" rx=".292" style="fill:#666666"/>
   <rect width="1.708" height=".473" x="34.38" y="258.28" rx=".292" style="fill:#666666"/>
   <rect width="1.749" height=".515" x="36.64" y="258.21" rx=".292" style="fill:#666666"/>
   <rect width="4.198" height=".7" x="34.42" y="259.08" rx=".292" style="fill:#666666"/>
   <rect width="2.429" height=".535" x="34.5" y="259.98" rx=".292" style="fill:#666666"/>
   <rect width="1.688" height=".473" x="37.54" y="260.17" rx=".292" style="fill:#666666"/>
   <rect width="2.429" height=".597" x="34.48" y="260.77" rx=".292" style="fill:#666666"/>
   <rect width="2.984" height=".576" x="37.48" y="260.93" rx=".292" style="fill:#666666"/>
   <rect width="2.264" height=".515" x="38.41" y="262.08" rx=".292" style="fill:#666666"/>
   <rect width="6.956" height=".556" x="34.25" y="263.24" rx=".292" style="fill:#666666"/>
   <rect width="2.758" height=".515" x="34.35" y="264.16" rx=".292" style="fill:#666666"/>
   <rect width="2.161" height=".515" x="37.61" y="264.26" rx=".292" style="fill:#666666"/>
   <rect width="4.775" height=".515" x="34.62" y="265.05" rx=".292" style="fill:#666666"/>
   <rect width="2.655" height=".679" x="34.29" y="265.77" rx=".292" style="fill:#666666"/>
   <rect width="1.832" height=".535" x="37.46" y="265.81" rx=".292" style="fill:#666666"/>
   <rect width="4.795" height=".556" x="34.31" y="266.63" rx=".292" style="fill:#666666"/>
   <rect width="1.996" height=".597" x="34.87" y="267.43" rx=".292" style="fill:#666666"/>
   <rect width="2.058" height=".617" x="34.13" y="268.34" rx=".292" style="fill:#666666"/>
  </g>
  <path d="m 1.5017316,262.6349 v 7.83839 c 0,19.57555 2.8002681,22.36888 22.3941744,22.36888 h 19.94152 c 19.593907,0 22.394175,-2.79333 22.394175,-22.36888 v -7.83839 z" style="opacity:0.1;fill:#ffffff"/>
  <path d="M 127.97852 240.28516 L 165.68555 240.28516 C 174.94251 240.28516 183.20722 240.12069 190.58398 239.6875 C 194.27236 239.47091 197.73903 239.18783 200.99609 238.82422 C 204.25316 238.46061 207.30077 238.01692 210.15234 237.48047 C 213.00392 236.94402 215.65895 236.31323 218.13086 235.57812 C 220.60277 234.84302 222.8917 234.00254 225.00977 233.04297 C 227.12784 232.0834 229.07518 231.00478 230.86523 229.79492 C 232.65529 228.58507 234.28753 227.24377 235.77539 225.75781 C 237.26325 224.27186 238.60687 222.64139 239.81836 220.85352 C 241.02985 219.06564 242.10936 217.12147 243.07031 215.00586 C 244.03126 212.89025 244.87314 210.60392 245.60938 208.13477 C 246.34561 205.66561 246.97634 203.01259 247.51367 200.16406 C 248.05101 197.31554 248.49511 194.27128 248.85938 191.01758 C 249.22364 187.76387 249.50759 184.30189 249.72461 180.61719 C 250.15865 173.24778 250.32422 164.99048 250.32422 155.74219 L 250.32422 96.490234 C 250.32422 87.241905 250.15865 78.98466 249.72461 71.615234 C 249.50759 67.930522 249.22364 64.468555 248.85938 61.214844 C 248.49511 57.961132 248.05101 54.916886 247.51367 52.068359 C 246.97634 49.219832 246.34561 46.566815 245.60938 44.097656 C 244.87314 41.628497 244.03126 39.34217 243.07031 37.226562 C 242.10936 35.110955 241.02985 33.166779 239.81836 31.378906 C 238.60687 29.591034 237.26325 27.960563 235.77539 26.474609 C 234.28753 24.988656 232.65529 23.647352 230.86523 22.4375 C 229.07518 21.227648 227.12784 20.149019 225.00977 19.189453 C 222.8917 18.229887 220.60277 17.389394 218.13086 16.654297 C 215.65895 15.9192 213.00392 15.288398 210.15234 14.751953 C 207.30077 14.215508 204.25316 13.771812 200.99609 13.408203 C 197.73903 13.044594 194.27236 12.761511 190.58398 12.544922 C 183.20722 12.111743 174.94251 11.947266 165.68555 11.947266 L 127.97852 11.947266 L 127.97852 240.28516 z" transform="matrix(0.26458333,0,0,0.26458333,0,229.26666)" style="opacity:0.1;fill:#ffffff"/>
  <path style="opacity:0.4;fill:none;stroke:url(#linearGradient1108);stroke-width:8;stroke-linecap:round;stroke-linejoin:round" d="M 361.9375,-212 C 507.2348,-212 528,-191.28677 528,-46.125 V 70.125 C 528,215.28618 507.2348,236 361.9375,236 H 214.0625 C 68.7652,236 48,215.28618 48,70.125 V -46.125 C 48,-191.28677 68.7652,-212 214.0625,-212 Z" clip-path="url(#clipPath1082-3-452)" transform="matrix(0.13485389,0,0,0.13485389,-4.9712557,261.01666)"/>
 </g>
</svg>
