<svg width="256" height="256" version="1.1" viewBox="0 0 256 256" xmlns="http://www.w3.org/2000/svg" xmlns:xlink="http://www.w3.org/1999/xlink">
 <defs>
  <linearGradient id="linearGradient1108" x1="296" x2="296" y1="-212" y2="236" gradientUnits="userSpaceOnUse">
   <stop style="stop-color:#ffffff" offset="0"/>
   <stop style="stop-color:#ffffff;stop-opacity:.09803922" offset=".125"/>
   <stop style="stop-color:#000000;stop-opacity:.09803922" offset=".925"/>
   <stop style="stop-color:#000000;stop-opacity:.49803922" offset="1"/>
  </linearGradient>
  <clipPath id="clipPath1082-3-361">
   <path d="M 361.9375,-212 C 507.2348,-212 528,-191.28677 528,-46.125 V 70.125 C 528,215.28618 507.2348,236 361.9375,236 H 214.0625 C 68.7652,236 48,215.28618 48,70.125 V -46.125 C 48,-191.28677 68.7652,-212 214.0625,-212 Z" style="fill:#8c59d9"/>
  </clipPath>
  <linearGradient id="linearGradient1044" x1="88" x2="256" y1="28" y2="284" gradientTransform="matrix(1.0193681,0,0,1.0193681,-26.943941,-32.905179)" gradientUnits="userSpaceOnUse">
   <stop style="stop-color:#e8e8e8" offset="0"/>
   <stop style="stop-color:#f5f5f5" offset="1"/>
  </linearGradient>
  <filter id="filter4569" x="-.01" y="-.01" width="1.023" height="1.025" style="color-interpolation-filters:sRGB">
   <feGaussianBlur stdDeviation="1.16"/>
  </filter>
  <filter id="filter939" x="-.02" y="-.03" width="1.046" height="1.05" style="color-interpolation-filters:sRGB">
   <feGaussianBlur stdDeviation="2.32"/>
  </filter>
 </defs>
 <path transform="matrix(1.019368,0,0,1.019368,-7.2181772e-8,8.3098661)" d="m162.53675 5.5680001c72.64865 0 83.03125 10.356615 83.03125 82.937505v58.125005c0 72.58059-10.3826 82.9375-83.03125 82.9375h-73.937496c-72.648654 0-83.031254-10.35691-83.031254-82.9375v-58.125005c0-72.58089 10.3826-82.937505 83.031254-82.937505z" style="filter:url(#filter939);opacity:.2"/>
 <path d="m165.68477 11.946967c74.05571 0 84.6394 10.557203 84.6394 84.543835v59.250778c0 73.98633-10.58369 84.54383-84.6394 84.54383h-75.369521c-74.055717 0-84.639408-10.5575-84.639408-84.54383v-59.250778c0-73.986632 10.583691-84.543835 84.639408-84.543835z" style="fill:none;opacity:.1;stroke-linecap:round;stroke-linejoin:round;stroke-width:4.0774717;stroke:#000000"/>
 <path transform="matrix(1.019368,0,0,1.019368,-7.2181772e-8,8.3098661)" d="m162.53675 3.5680001c72.64865 0 83.03125 10.356615 83.03125 82.937505v58.125005c0 72.58059-10.3826 82.9375-83.03125 82.9375h-73.937496c-72.648654 0-83.031254-10.35691-83.031254-82.9375v-58.125005c0-72.58089 10.3826-82.937505 83.031254-82.937505z" style="filter:url(#filter4569);opacity:.1"/>
 <path d="m165.68476 11.946967c74.05571 0 84.6394 10.557203 84.6394 84.543835v59.250778c0 73.98633-10.58369 84.54383-84.6394 84.54383h-75.369522c-74.055712 0-84.639403-10.5575-84.639403-84.54383v-59.250778c0-73.986632 10.583691-84.543835 84.639403-84.543835z" style="fill:url(#linearGradient1044)"/>
 <path transform="matrix(.50968403 0 0 .50968403 -18.788999 120)" d="M 361.9375,-212 C 507.2348,-212 528,-191.28677 528,-46.125 V 70.125 C 528,215.28618 507.2348,236 361.9375,236 H 214.0625 C 68.7652,236 48,215.28618 48,70.125 V -46.125 C 48,-191.28677 68.7652,-212 214.0625,-212 Z" clip-path="url(#clipPath1082-3-361)" style="fill:none;opacity:.4;stroke-linecap:round;stroke-linejoin:round;stroke-width:8;stroke:url(#linearGradient1108)"/>
 <path d="m128.67373 11.946967v228.33844h37.4772c73.64783 0 84.17323-10.5575 84.17323-84.54383v-59.250778c0-73.986632-10.5254-84.543835-84.17323-84.543835z" style="fill:#ffffff;opacity:.2"/>
 <path d="m90.315238 240.28541c-74.055712 0-84.639403-10.5572-84.639403-84.54383v-29.62537h244.64832v29.62537c0 73.98663-10.58369 84.54383-84.6394 84.54383z" style="fill:#ffffff;opacity:.25"/>
 <g transform="matrix(3.8527298 0 0 3.8527298 .58975455 -888.1058)">
  <g transform="translate(-7.8080025,8.3710385)">
   <path d="m41.857249 235.1634c-0.452033 0-0.815942 0.36394-0.815942 0.81597v8.15941c0 0.45206 0.363909 0.81594 0.815942 0.81594h8.159435c0.452031 0 0.815942-0.36388 0.815942-0.81594v-8.15941c0-0.45203-0.363911-0.81597-0.815942-0.81597z" style="fill:#ff4e40"/>
   <path d="m51.746483 235.1634c-0.452033 0-0.815942 0.36394-0.815942 0.81597v8.15941c0 0.45206 0.363909 0.81594 0.815942 0.81594h8.159434c0.452032 0 0.815943-0.36388 0.815943-0.81594v-8.15941c0-0.45203-0.363911-0.81597-0.815943-0.81597z" style="fill:#ff4e40"/>
   <g transform="matrix(0,-1.2335522,-1.2335522,0,360.17951,310.39339)">
    <path d="m37.041666 250.03645c0 0.36645 0.29503 0.66146 0.661481 0.66146h6.61456c0.36647 0 0.66146-0.29501 0.66146-0.66146v-6.61458c0-0.36645-0.29499-0.66146-0.66146-0.66146h-6.61456c-0.36645 0-0.661481 0.29501-0.661481 0.66146z" style="fill:#ff4e40"/>
    <path d="m45.058541 250.03645c0 0.36645 0.29503 0.66146 0.661481 0.66146h6.61456c0.36647 0 0.66146-0.29501 0.66146-0.66146v-6.61458c0-0.36645-0.29499-0.66146-0.66146-0.66146h-6.61456c-0.36645 0-0.661481 0.29501-0.661481 0.66146z" style="fill:#ff4e40"/>
   </g>
   <g transform="matrix(0,1.2335522,1.2335522,0,-278.26007,209.2164)" style="fill:#f7ca41">
    <path d="m37.703124 242.76041c-0.366448 0-0.661457 0.29503-0.661457 0.66148v6.61456c0 0.36647 0.295009 0.66146 0.661457 0.66146h6.614584c0.366447 0 0.661458-0.29499 0.661458-0.66146v-6.61456c0-0.36645-0.295011-0.66148-0.661458-0.66148z" style="fill:#f7ca41"/>
    <path d="m45.719999 242.76041c-0.366448 0-0.661457 0.29503-0.661457 0.66148v6.61456c0 0.36647 0.295009 0.66146 0.661457 0.66146h6.614584c0.366447 0 0.661458-0.29499 0.661458-0.66146v-6.61456c0-0.36645-0.295011-0.66148-0.661458-0.66148z" style="fill:#f7ca41"/>
    <g transform="matrix(0,-1,-1,0,295.75645,303.74687)" style="fill:#f7ca41">
     <path d="m37.041666 250.03645c0 0.36645 0.29503 0.66146 0.661481 0.66146h6.61456c0.36647 0 0.66146-0.29501 0.66146-0.66146v-6.61458c0-0.36645-0.29499-0.66146-0.66146-0.66146h-6.61456c-0.36645 0-0.661481 0.29501-0.661481 0.66146z" style="fill:#f7ca41"/>
     <path d="m45.058541 250.03645c0 0.36645 0.29503 0.66146 0.661481 0.66146h6.61456c0.36647 0 0.66146-0.29501 0.66146-0.66146v-6.61458c0-0.36645-0.29499-0.66146-0.66146-0.66146h-6.61456c-0.36645 0-0.661481 0.29501-0.661481 0.66146z" style="fill:#f7ca41"/>
    </g>
   </g>
   <path d="m21.850318 245.01999c-0.452033 0-0.815942 0.36394-0.815942 0.81597v8.15941c0 0.45206 0.363909 0.81594 0.815942 0.81594h8.159434c0.452032 0 0.815943-0.36388 0.815943-0.81594v-8.15941c0-0.45203-0.363911-0.81597-0.815943-0.81597z" style="fill:#4081ff"/>
   <path d="m31.739552 245.01999c-0.452033 0-0.815942 0.36394-0.815942 0.81597v8.15941c0 0.45206 0.363909 0.81594 0.815942 0.81594h8.159434c0.452032 0 0.815943-0.36388 0.815943-0.81594v-8.15941c0-0.45203-0.363911-0.81597-0.815943-0.81597z" style="fill:#4081ff"/>
   <path d="m31.968015 254.90923c-0.452032 0-0.815941 0.36394-0.815941 0.81597v8.15941c0 0.45206 0.363909 0.81594 0.815941 0.81594h8.159435c0.452031 0 0.815943-0.36388 0.815943-0.81594v-8.15941c0-0.45203-0.363912-0.81597-0.815943-0.81597z" style="fill:#4081ff"/>
   <path d="m41.857249 254.90923c-0.452033 0-0.815942 0.36394-0.815942 0.81597v8.15941c0 0.45206 0.363909 0.81594 0.815942 0.81594h8.159435c0.452031 0 0.815942-0.36388 0.815942-0.81594v-8.15941c0-0.45203-0.363911-0.81597-0.815942-0.81597z" style="fill:#4081ff"/>
  </g>
 </g>
</svg>
