<svg width="256" height="256" style="enable-background:new" version="1.0" xmlns="http://www.w3.org/2000/svg" xmlns:xlink="http://www.w3.org/1999/xlink">
 <defs>
  <filter id="filter925" x="-.02" y="-.03" width="1.046" height="1.05" style="color-interpolation-filters:sRGB">
   <feGaussianBlur stdDeviation="2.32"/>
  </filter>
  <filter id="filter931" x="-.01" y="-.01" width="1.023" height="1.025" style="color-interpolation-filters:sRGB">
   <feGaussianBlur stdDeviation="1.16"/>
  </filter>
  <linearGradient id="linearGradient1108" x1="296" x2="296" y1="-212" y2="236" gradientUnits="userSpaceOnUse">
   <stop style="stop-color:#ffffff" offset="0"/>
   <stop style="stop-color:#ffffff;stop-opacity:.09803922" offset=".125"/>
   <stop style="stop-color:#000000;stop-opacity:.09803922" offset=".925"/>
   <stop style="stop-color:#000000;stop-opacity:.49803922" offset="1"/>
  </linearGradient>
  <clipPath id="clipPath1082-3">
   <path d="M 361.9375,-212 C 507.2348,-212 528,-191.28677 528,-46.125 V 70.125 C 528,215.28618 507.2348,236 361.9375,236 H 214.0625 C 68.7652,236 48,215.28618 48,70.125 V -46.125 C 48,-191.28677 68.7652,-212 214.0625,-212 Z" style="fill:#8c59d9"/>
  </clipPath>
  <filter id="filter1021" x="-.06" y="-.04" width="1.115" height="1.082" style="color-interpolation-filters:sRGB">
   <feGaussianBlur stdDeviation="2.574"/>
  </filter>
 </defs>
 <g transform="translate(0,-44)">
  <path d="m162.53675 62.431991c72.64865 0 83.03125 10.356615 83.03125 82.937499v58.125c0 72.58059-10.3826 82.9375-83.03125 82.9375h-73.9375c-72.64865 0-83.03125-10.35691-83.03125-82.9375v-58.125c0-72.580884 10.3826-82.937499 83.03125-82.937499z" style="filter:url(#filter925);opacity:.2"/>
  <path d="m162.53675 61.431991c72.64865 0 83.03125 10.356615 83.03125 82.937499v58.125c0 72.58059-10.3826 82.9375-83.03125 82.9375h-73.9375c-72.64865 0-83.03125-10.35691-83.03125-82.9375v-58.125c0-72.580884 10.3826-82.937499 83.03125-82.937499z" style="filter:url(#filter931);opacity:.1"/>
  <path d="m162.53675 60.431991c72.64865 0 83.03125 10.356615 83.03125 82.937499v58.125c0 72.58059-10.3826 82.9375-83.03125 82.9375h-73.9375c-72.64865 0-83.03125-10.35691-83.03125-82.9375v-58.125c0-72.580884 10.3826-82.937499 83.03125-82.937499z" style="fill:#1463a5"/>
  <path transform="matrix(.5 0 0 .5 -18.432 166.43199)" d="M 361.9375,-212 C 507.2348,-212 528,-191.28677 528,-46.125 V 70.125 C 528,215.28618 507.2348,236 361.9375,236 H 214.0625 C 68.7652,236 48,215.28618 48,70.125 V -46.125 C 48,-191.28677 68.7652,-212 214.0625,-212 Z" clip-path="url(#clipPath1082-3)" style="fill:none;opacity:.4;stroke-linecap:round;stroke-linejoin:round;stroke-width:8;stroke:url(#linearGradient1108)"/>
 </g>
 <path d="m4.6781649 132.25676v29.06248c0 72.58061 10.3826 82.9375 83.03125 82.9375h73.937495c72.64865 0 83.03125-10.35689 83.03125-82.9375v-29.06248z" style="fill:#ffffff;opacity:.05"/>
 <g transform="matrix(1.8714674,0,0,1.8714674,3.2999149,17.050687)" style="enable-background:new">
  <path transform="matrix(.53434006 0 0 .53434006 -1.7608934 -9.1111123)" d="m100.25391 53.435547a7.1306744 7.1306744 0 0 0-4.828129 2.083984l-21.390625 21.388672a7.1306744 7.1306744 0 1 0 10.080078 10.085938l9.21875-9.21875v72.214839a7.1306744 7.1306744 0 0 0 0.128907 1.19336c0.678315 16.74558 15.187919 30.58594 31.960939 30.58594 17.17427 0 32.08398-14.49035 32.08398-31.7793 0-8.64446-3.97826-16.51972-9.75781-22.39453s-13.62436-9.99414-22.32617-9.99414c-6.61921 0-12.72999 2.39694-17.82617 6.12305v-63.16211a7.1306744 7.1306744 0 0 0-7.34375-7.126953zm25.58203 43.056641c-1.42344-1e-3 -2.85423 0.05543-4.29102 0.169921a7.1306744 7.1306744 0 1 0 1.13281 14.214841c16.90642-1.34716 32.70473 8.26786 39.27149 23.9043 6.56746 15.63671 2.37439 33.65252-10.42383 44.78125-12.79819 11.1287-31.2189 12.77485-45.79297 4.09961-14.573184-8.67526-21.902694-25.65301-18.220701-42.20899a7.1306744 7.1306744 0 1 0-13.919922-3.0957c-5.00658 22.51194 5.033567 45.76427 24.849609 57.56055 19.816584 11.79585 45.038934 9.53667 62.441404-5.5957 17.40245-15.13236 23.14506-39.80219 14.21485-61.06446-8.37143-19.93363-27.9102-32.750614-49.26172-32.765622zm-0.41211 35.369142c4.00664 0 8.63938 2.15557 12.16015 5.73437 3.52078 3.57881 5.66602 8.33057 5.66602 12.39453 0 8.12796-9.58355 17.51954-17.82617 17.51954-8.2454 0-17.82617-9.39546-17.82617-17.51954 0-4.06687 2.13947-8.81649 5.66015-12.39453 3.52069-3.57803 8.15663-5.73437 12.16602-5.73437z" style="filter:url(#filter1021);opacity:.3"/>
  <path transform="matrix(.53434006 0 0 .53434006 -1.7608934 -9.1111123)" d="m100.25781 53.435547a7.1306744 7.1306744 0 0 0-4.828122 2.083984l-21.390626 21.388672a7.1306744 7.1306744 0 1 0 10.080079 10.085938l9.21875-9.21875v72.214839a7.1306744 7.1306744 0 0 0 0.128906 1.19336c0.678315 16.74558 15.187923 30.58594 31.960933 30.58594 17.17428 0 32.08399-14.49034 32.08399-31.7793 0-8.64446-3.97826-16.51972-9.75781-22.39453-5.77956-5.87481-13.62437-9.99414-22.32618-9.99414-6.61921 0-12.72999 2.39694-17.82617 6.12305v-63.16211a7.1306744 7.1306744 0 0 0-7.34375-7.126953zm25.58203 43.056641c-1.42344-1e-3 -2.85422 0.05542-4.29101 0.169921a7.1306744 7.1306744 0 1 0 1.13281 14.214841c16.90642-1.34716 32.70472 8.26786 39.27148 23.9043 6.56747 15.63671 2.3744 33.65252-10.42382 44.78125-12.79819 11.1287-31.2189 12.77485-45.79297 4.09961-14.573186-8.67527-21.902699-25.653-18.220705-42.20899a7.1306744 7.1306744 0 1 0-13.919922-3.0957c-5.006579 22.51194 5.033568 45.76427 24.849609 57.56055 19.816588 11.79584 45.038938 9.53666 62.441408-5.5957 17.40245-15.13236 23.14505-39.80219 14.21484-61.06446-8.37143-19.93363-27.9102-32.750613-49.26172-32.765622zm-0.27148 32.820312a19.999999 19.999999 0 0 1 20 20 19.999999 19.999999 0 0 1-20 20 19.999999 19.999999 0 0 1-20-20 19.999999 19.999999 0 0 1 20-20z" style="fill:#ffffff"/>
 </g>
</svg>
