<svg width="256" height="256" version="1.1" viewBox="0 0 67.73 67.73" xmlns="http://www.w3.org/2000/svg" xmlns:xlink="http://www.w3.org/1999/xlink">
 <defs>
  <linearGradient id="linearGradient1108" x1="296" x2="296" y1="-212" y2="236" gradientUnits="userSpaceOnUse">
   <stop style="stop-color:#ffffff" offset="0"/>
   <stop style="stop-color:#ffffff;stop-opacity:.09803922" offset=".125"/>
   <stop style="stop-color:#000000;stop-opacity:.09803922" offset=".925"/>
   <stop style="stop-color:#000000;stop-opacity:.49803922" offset="1"/>
  </linearGradient>
  <clipPath id="clipPath1082-3-361">
   <path d="M 361.9375,-212 C 507.2348,-212 528,-191.28677 528,-46.125 V 70.125 C 528,215.28618 507.2348,236 361.9375,236 H 214.0625 C 68.7652,236 48,215.28618 48,70.125 V -46.125 C 48,-191.28677 68.7652,-212 214.0625,-212 Z" style="fill:#8c59d9"/>
  </clipPath>
  <filter id="filter4569" x="-.01" y="-.01" width="1.023" height="1.025" style="color-interpolation-filters:sRGB">
   <feGaussianBlur stdDeviation="1.16"/>
  </filter>
  <filter id="filter939" x="-.02" y="-.03" width="1.046" height="1.05" style="color-interpolation-filters:sRGB">
   <feGaussianBlur stdDeviation="2.32"/>
  </filter>
  <filter id="filter895" x="-.01" y="-.01" width="1.025" height="1.023" style="color-interpolation-filters:sRGB">
   <feGaussianBlur stdDeviation="1.083"/>
  </filter>
 </defs>
 <g transform="translate(0,-229.26666)">
  <path transform="matrix(.26970779 0 0 .26970779 -1.9098094e-8 231.46531)" d="m162.53675 5.5680001c72.64865 0 83.03125 10.356615 83.03125 82.937505v58.125005c0 72.58059-10.3826 82.9375-83.03125 82.9375h-73.937496c-72.648654 0-83.031254-10.35691-83.031254-82.9375v-58.125005c0-72.58089 10.3826-82.937505 83.031254-82.937505z" style="filter:url(#filter939);opacity:.2"/>
  <path d="m43.837429 232.42763c19.593907 0 22.394176 2.79326 22.394176 22.36889v15.67677c0 19.57555-2.800269 22.36889-22.394176 22.36889h-19.941519c-19.593909 0-22.394177-2.79334-22.394177-22.36889v-15.67677c0-19.57563 2.8002682-22.36889 22.394177-22.36889z" style="fill:none;opacity:.1;stroke-linecap:round;stroke-linejoin:round;stroke-width:1.0788311;stroke:#000000"/>
  <path transform="matrix(.26970779 0 0 .26970779 -1.9098094e-8 231.46531)" d="m162.53675 3.5680001c72.64865 0 83.03125 10.356615 83.03125 82.937505v58.125005c0 72.58059-10.3826 82.9375-83.03125 82.9375h-73.937496c-72.648654 0-83.031254-10.35691-83.031254-82.9375v-58.125005c0-72.58089 10.3826-82.937505 83.031254-82.937505z" style="filter:url(#filter4569);opacity:.1"/>
  <path transform="matrix(.26458333 0 0 .26458333 0 229.26666)" d="m204.20898 238.35352c1.56361-8.09033 2.94889-16.53693 4.125-25.05079 1.17611-8.51385 2.14257-17.09506 2.87305-25.45507 0.73049-8.36002 1.22444-16.50012 1.45117-24.12891s0.18672-14.74621-0.14843-21.06641c-0.25903-4.88465-0.61656-9.46304-1.08594-13.75976s-1.05065-8.31321-1.75391-12.07617c-0.70325-3.76297-1.52958-7.27131-2.49023-10.55469s-2.05532-6.341248-3.29688-9.19922-2.62978-5.517164-4.17578-8.003906c-1.54599-2.486742-3.25105-4.801015-5.125-6.970703-1.87394-2.169688-3.91716-4.194753-6.14258-6.101563-2.22541-1.90681-4.63201-3.694469-7.23242-5.392578-2.18086-1.42415-4.4634-2.726314-6.82422-3.902344-2.36081-1.176029-4.79941-2.225893-7.29101-3.146484s-5.03617-1.713259-7.60938-2.371094-5.1756-1.182552-7.78125-1.570312c-2.60565-0.387761-5.21577-0.637679-7.80469-0.748047s-5.15667-0.080593-7.67968 0.09375c-2.52302 0.174342-5.00026 0.492613-7.40821 0.958984-2.40794 0.466371-4.74653 1.081938-6.99023 1.847656-2.02334 0.690525-4.03879 1.507221-6.03125 2.4375-1.99246 0.93028-3.96161 1.97347-5.89063 3.115235-1.92901 1.141765-3.81933 2.38205-5.65234 3.707031s-3.61002 2.734917-5.314452 4.214844c-1.704437 1.479927-3.33561 3.030114-4.878907 4.636719-1.543296 1.606604-2.998065 3.269598-4.347656 4.974609s-2.593477 3.451413-3.716797 5.226562-2.125751 3.579467-2.990234 5.396485c-1.390725 2.923105-2.29237 5.284706-2.835938 7.671876-0.543567 2.38717-0.72905 4.79991-0.691406 7.82226 0.032193 2.58439 0.292599 5.13691 0.761719 7.63086 0.46912 2.49396 1.146616 4.92935 2.009765 7.2793 0.86315 2.34995 1.912672 4.61325 3.126954 6.76563 1.214281 2.15237 2.592718 4.19251 4.115234 6.09375 1.522516 1.90123 3.18871 3.66324 4.976562 5.25976 1.787853 1.59653 3.698694 3.02739 5.708986 4.26563 2.01029 1.23824 4.12071 2.28494 6.31055 3.11132 2.18983 0.82639 4.45868 1.43396 6.78515 1.79493 1.25934 0.19538 2.54483 0.28976 3.83789 0.29101s2.59392-0.09244 3.88282-0.26953c1.28889-0.17709 2.56566-0.43771 3.8125-0.77734 1.24683-0.33964 2.46397-0.75776 3.63085-1.24414 1.16689-0.48639 2.283-1.04088 3.33204-1.65821s2.03052-1.29681 2.92382-2.02929c0.89331-0.73249 1.69877-1.51973 2.39844-2.35157 0.69967-0.83183 1.29357-1.70765 1.76172-2.62304 0.7549-1.4761 1.14683-2.30283 1.26953-3.0293 0.12271-0.72647-0.02382-1.35269-0.34766-2.43359-0.20678-0.69015-0.67536-1.5322-1.33789-2.45704-0.66252-0.92483-1.51939-1.93404-2.50585-2.95703-0.98647-1.02298-2.10069-2.06031-3.2793-3.04492-1.17861-0.9846-2.42121-1.91492-3.66016-2.72461-1.82341-1.19166-3.42178-2.38864-4.79492-3.57812s-2.52096-2.37321-3.44336-3.53516c-0.9224-1.16194-1.61866-2.30305-2.08984-3.41211s-0.71684-2.18598-0.73633-3.21679c-0.01949-1.03082 0.18647-2.01614 0.61914-2.94336 0.43267-0.92723 1.09125-1.79547 1.97656-2.59375 0.88531-0.79829 1.99752-1.52593 3.33594-2.16993 1.33841-0.64399 2.90332-1.20361 4.69531-1.66796 1.06729-0.27641 2.4192-0.48567 3.91992-0.625 1.50073-0.13934 3.14948-0.20909 4.81055-0.21094s3.3345 0.06512 4.88281 0.20117c1.54832 0.13605 2.97231 0.34088 4.13477 0.61523 1.93186 0.45538 3.85535 1.17001 5.74219 2.10547s3.73775 2.09222 5.52343 3.43164c1.78569 1.33943 3.50637 2.86008 5.13477 4.52735 1.6284 1.66726 3.16314 3.47945 4.57812 5.39843 1.41499 1.91899 2.71004 3.94645 3.85547 6.04102 1.14544 2.09457 2.14119 4.25713 2.96094 6.45117 0.81976 2.19404 1.46245 4.41934 1.90039 6.63672s0.67188 4.4272 0.67188 6.5918c0 2.58036-0.31209 5.16482-0.92774 7.73633-0.61564 2.5715-1.53404 5.12953-2.74804 7.65625-1.21401 2.52671-2.72447 5.02273-4.51954 7.46875-1.79506 2.44601-3.87553 4.84249-6.23437 7.17187-3.24643 3.20589-5.80167 5.47234-8.51563 7.4082-2.71396 1.93587-5.58664 3.54117-9.4707 5.42188-3.30019 1.59801-6.28474 2.92691-9.08008 4.02148s-5.40187 1.95398-7.94922 2.61133c-2.54734 0.65735-5.03362 1.11404-7.58984 1.40039s-5.18196 0.40319-8.00391 0.38477c-2.13397-0.01389-4.14462-0.12318-6.08984-0.33985-1.94522-0.21666-3.82535-0.5414-5.697266-0.98828-1.871919-0.44688-3.736307-1.01617-5.65039-1.7207s-3.877512-1.54359-5.949219-2.5332c-3.833305-1.83115-7.442977-3.91922-10.814453-6.25-1.685738-1.1654-3.311742-2.39041-4.876953-3.67578-1.565211-1.28538-3.068461-2.63114-4.509766-4.03321-1.441304-1.40207-2.820748-2.86147-4.134765-4.37695-1.314018-1.51548-2.562742-3.08728-3.746094-4.71289s-2.300304-3.30466-3.34961-5.03711c-1.049305-1.73245-2.031479-3.51751-2.943359-5.35352-1.369658-2.75771-2.602526-5.79323-3.699219-9.0957-1.096692-3.30247-2.056301-6.87175-2.878906-10.69922-0.822605-3.82746-1.509246-7.91341-2.056641-12.24609-0.547394-4.33268-0.957454-8.91235-1.228515-13.73047s-0.40288-9.87443-0.396485-15.158204c0.006396-5.28378 0.152526-10.795726 0.4375-16.525391 0.284975-5.729665 0.708761-11.676255 1.273438-17.832031s1.269733-12.519921 2.115234-19.082032c1.004701-7.797656 2.887853-19.406396 4.402344-27.912109 1.079932-0.14589 2.04605-0.340561 3.175781-0.466797 3.257057-0.363628 6.723729-0.648667 10.41211-0.865234-51.637327 3.032251-59.740235 19.207009-59.740235 83.945312v59.251956c0 73.98633 10.582959 84.54297 84.638672 84.54297h75.371097c15.5095 0 28.096-0.51985 38.52343-1.93164z" style="fill:#ff6f00"/>
  <path transform="matrix(.26458333 0 0 .26458333 0 229.26666)" d="m90.314453 11.947266c-9.256964 0-17.521676 0.164477-24.898437 0.597656-3.688381 0.216567-7.155053 0.501606-10.41211 0.865234-1.129731 0.126236-2.095849 0.320907-3.175781 0.466797-1.514491 8.505713-3.397643 20.114453-4.402344 27.912109-0.845501 6.562111-1.550557 12.926256-2.115234 19.082032s-0.988463 12.102366-1.273438 17.832031c-0.284974 5.729665-0.431104 11.241611-0.4375 16.525391-0.006395 5.283774 0.125424 10.340084 0.396485 15.158204s0.681121 9.39779 1.228515 13.73047c0.547395 4.33268 1.234036 8.41863 2.056641 12.24609 0.822605 3.82747 1.782214 7.39675 2.878906 10.69922 1.096693 3.30247 2.329561 6.33799 3.699219 9.0957 0.91188 1.83601 1.894054 3.62107 2.943359 5.35352 1.049306 1.73245 2.166258 3.4115 3.34961 5.03711s2.432076 3.19741 3.746094 4.71289c1.314017 1.51548 2.693461 2.97488 4.134765 4.37695 1.441305 1.40207 2.944555 2.74783 4.509766 4.03321 1.565211 1.28537 3.191215 2.51038 4.876953 3.67578 3.371476 2.33078 6.981148 4.41885 10.814453 6.25 2.071707 0.98961 4.035136 1.82867 5.949219 2.5332s3.778471 1.27382 5.65039 1.7207c1.871916 0.44688 3.752046 0.77162 5.697266 0.98828 1.94522 0.21667 3.95587 0.32596 6.08984 0.33985 2.82195 0.01842 5.44769-0.09842 8.00391-0.38477s5.0425-0.74304 7.58984-1.40039c2.54735-0.65735 5.15388-1.51676 7.94922-2.61133s5.77989-2.42347 9.08008-4.02148c3.88406-1.88071 6.75674-3.48601 9.4707-5.42188 2.71396-1.93586 5.2692-4.20231 8.51563-7.4082 2.35884-2.32938 4.43931-4.72586 6.23437-7.17187 1.79507-2.44602 3.30553-4.94204 4.51954-7.46875 1.214-2.52672 2.1324-5.08475 2.74804-7.65625 0.61565-2.57151 0.92774-5.15597 0.92774-7.73633 0-2.1646-0.23394-4.37442-0.67188-6.5918s-1.08063-4.44268-1.90039-6.63672c-0.81975-2.19404-1.8155-4.3566-2.96094-6.45117-1.14543-2.09457-2.44048-4.12203-3.85547-6.04102-1.41498-1.91898-2.94972-3.73117-4.57812-5.39843-1.6284-1.66727-3.34908-3.18792-5.13477-4.52735-1.78568-1.33942-3.63659-2.49618-5.52343-3.43164s-3.81033-1.65009-5.74219-2.10547c-1.16246-0.27435-2.58645-0.47918-4.13477-0.61523-1.54831-0.13605-3.22174-0.20302-4.88281-0.20117s-3.30982 0.0716-4.81055 0.21094c-1.50072 0.13933-2.85263 0.34859-3.91992 0.625-1.79199 0.46435-3.3569 1.02397-4.69531 1.66796-1.33842 0.644-2.45063 1.37164-3.33594 2.16993-0.88531 0.79828-1.54389 1.66652-1.97656 2.59375-0.43267 0.92722-0.63863 1.91254-0.61914 2.94336 0.01949 1.03081 0.26515 2.10773 0.73633 3.21679s1.16744 2.25017 2.08984 3.41211c0.9224 1.16195 2.07022 2.34568 3.44336 3.53516s2.97151 2.38646 4.79492 3.57812c1.23895 0.80969 2.48155 1.74001 3.66016 2.72461 1.17861 0.98461 2.29283 2.02194 3.2793 3.04492 0.98646 1.02299 1.84333 2.0322 2.50585 2.95703 0.66253 0.92484 1.13111 1.76689 1.33789 2.45704 0.32384 1.0809 0.47037 1.70712 0.34766 2.43359-0.1227 0.72647-0.51463 1.5532-1.26953 3.0293-0.46815 0.91539-1.06205 1.79121-1.76172 2.62304-0.69967 0.83184-1.50513 1.61908-2.39844 2.35157-0.8933 0.73248-1.87478 1.41196-2.92382 2.02929s-2.16515 1.17182-3.33204 1.65821c-1.16688 0.48638-2.38402 0.9045-3.63085 1.24414-1.24684 0.33963-2.52361 0.60025-3.8125 0.77734-1.2889 0.17709-2.58976 0.27078-3.88282 0.26953s-2.57855-0.09563-3.83789-0.29101c-2.32647-0.36097-4.59532-0.96854-6.78515-1.79493-2.18984-0.82638-4.30026-1.87308-6.31055-3.11132-2.010292-1.23824-3.921133-2.6691-5.708986-4.26563-1.787852-1.59652-3.454046-3.35853-4.976562-5.25976-1.522516-1.90124-2.900953-3.94138-4.115234-6.09375-1.214282-2.15238-2.263804-4.41568-3.126954-6.76563-0.863149-2.34995-1.540645-4.78534-2.009765-7.2793-0.46912-2.49395-0.729526-5.04647-0.761719-7.63086-0.037644-3.02235 0.147839-5.43509 0.691406-7.82226 0.543568-2.38717 1.445213-4.748771 2.835938-7.671876 0.864483-1.817018 1.866914-3.621336 2.990234-5.396485s2.367206-3.521551 3.716797-5.226562 2.80436-3.368005 4.347656-4.974609c1.543297-1.606605 3.17447-3.156792 4.878907-4.636719 1.704432-1.479927 3.481442-2.889863 5.314452-4.214844s3.72333-2.565266 5.65234-3.707031c1.92902-1.141765 3.89817-2.184955 5.89063-3.115235 1.99246-0.930279 4.00791-1.746975 6.03125-2.4375 2.2437-0.765718 4.58229-1.381285 6.99023-1.847656 2.40795-0.466371 4.88519-0.784642 7.40821-0.958984 2.52301-0.174343 5.09076-0.204118 7.67968-0.09375s5.19904 0.360286 7.80469 0.748047c2.60565 0.38776 5.20804 0.912477 7.78125 1.570312s5.11778 1.450503 7.60938 2.371094 4.9302 1.970455 7.29101 3.146484c2.36082 1.17603 4.64336 2.478194 6.82422 3.902344 2.60041 1.698109 5.00701 3.485768 7.23242 5.392578 2.22542 1.90681 4.26864 3.931875 6.14258 6.101563 1.87395 2.169688 3.57901 4.483961 5.125 6.970703 1.546 2.486742 2.93422 5.145934 4.17578 8.003906s2.33623 5.91584 3.29688 9.19922 1.78698 6.79172 2.49023 10.55469c0.70326 3.76296 1.28453 7.77945 1.75391 12.07617s0.82691 8.87511 1.08594 13.75976c0.33515 6.3202 0.37516 13.43762 0.14843 21.06641s-0.72068 15.76889-1.45117 24.12891c-0.73048 8.36001-1.69694 16.94122-2.87305 25.45507-1.17611 8.51386-2.56139 16.96046-4.125 25.05079 2.01996-0.27349 4.09236-0.52483 5.94336-0.87305 11.40631-2.1458 19.67161-5.77882 25.62305-11.72266 11.90289-11.88767 14.54883-33.02246 14.54883-70.01562v-59.251956c0-50.86581-5.00234-71.749868-32.19336-79.835937-2.47191-0.73508-5.12694-1.363925-7.97852-1.900391-2.85157-0.536428-5.89918-0.980159-9.15625-1.34375-3.25706-0.36359-6.72373-0.648629-10.41211-0.865234-7.37676-0.433179-15.64147-0.597656-24.89843-0.597656h-75.371097z" style="fill:#0e0e12;filter:url(#filter895);opacity:.4"/>
  <path transform="matrix(.26458333 0 0 .26458333 0 229.26666)" d="m90.314453 11.947266c-9.256964 0-17.521676 0.164477-24.898437 0.597656-3.688381 0.216567-7.155053 0.501606-10.41211 0.865234-1.129731 0.126236-2.095849 0.320907-3.175781 0.466797-1.514491 8.505713-3.397643 20.114453-4.402344 27.912109-0.845501 6.562111-1.550557 12.926256-2.115234 19.082032s-0.988463 12.102366-1.273438 17.832031c-0.284974 5.729665-0.431104 11.241611-0.4375 16.525391-0.006395 5.283774 0.125424 10.340084 0.396485 15.158204s0.681121 9.39779 1.228515 13.73047c0.547395 4.33268 1.234036 8.41863 2.056641 12.24609 0.822605 3.82747 1.782214 7.39675 2.878906 10.69922 1.096693 3.30247 2.329561 6.33799 3.699219 9.0957 0.91188 1.83601 1.894054 3.62107 2.943359 5.35352 1.049306 1.73245 2.166258 3.4115 3.34961 5.03711s2.432076 3.19741 3.746094 4.71289c1.314017 1.51548 2.693461 2.97488 4.134765 4.37695 1.441305 1.40207 2.944555 2.74783 4.509766 4.03321 1.565211 1.28537 3.191215 2.51038 4.876953 3.67578 3.371476 2.33078 6.981148 4.41885 10.814453 6.25 2.071707 0.98961 4.035136 1.82867 5.949219 2.5332s3.778471 1.27382 5.65039 1.7207c1.871916 0.44688 3.752046 0.77162 5.697266 0.98828 1.94522 0.21667 3.95587 0.32596 6.08984 0.33985 2.82195 0.01842 5.44769-0.09842 8.00391-0.38477s5.0425-0.74304 7.58984-1.40039c2.54735-0.65735 5.15388-1.51676 7.94922-2.61133s5.77989-2.42347 9.08008-4.02148c3.88406-1.88071 6.75674-3.48601 9.4707-5.42188 2.71396-1.93586 5.2692-4.20231 8.51563-7.4082 2.35884-2.32938 4.43931-4.72586 6.23437-7.17187 1.79507-2.44602 3.30553-4.94204 4.51954-7.46875 1.214-2.52672 2.1324-5.08475 2.74804-7.65625 0.61565-2.57151 0.92774-5.15597 0.92774-7.73633 0-2.1646-0.23394-4.37442-0.67188-6.5918s-1.08063-4.44268-1.90039-6.63672c-0.81975-2.19404-1.8155-4.3566-2.96094-6.45117-1.14543-2.09457-2.44048-4.12203-3.85547-6.04102-1.41498-1.91898-2.94972-3.73117-4.57812-5.39843-1.6284-1.66727-3.34908-3.18792-5.13477-4.52735-1.78568-1.33942-3.63659-2.49618-5.52343-3.43164s-3.81033-1.65009-5.74219-2.10547c-1.16246-0.27435-2.58645-0.47918-4.13477-0.61523-1.54831-0.13605-3.22174-0.20302-4.88281-0.20117s-3.30982 0.0716-4.81055 0.21094c-1.50072 0.13933-2.85263 0.34859-3.91992 0.625-1.79199 0.46435-3.3569 1.02397-4.69531 1.66796-1.33842 0.644-2.45063 1.37164-3.33594 2.16993-0.88531 0.79828-1.54389 1.66652-1.97656 2.59375-0.43267 0.92722-0.63863 1.91254-0.61914 2.94336 0.01949 1.03081 0.26515 2.10773 0.73633 3.21679s1.16744 2.25017 2.08984 3.41211c0.9224 1.16195 2.07022 2.34568 3.44336 3.53516s2.97151 2.38646 4.79492 3.57812c1.23895 0.80969 2.48155 1.74001 3.66016 2.72461 1.17861 0.98461 2.29283 2.02194 3.2793 3.04492 0.98646 1.02299 1.84333 2.0322 2.50585 2.95703 0.66253 0.92484 1.13111 1.76689 1.33789 2.45704 0.32384 1.0809 0.47037 1.70712 0.34766 2.43359-0.1227 0.72647-0.51463 1.5532-1.26953 3.0293-0.46815 0.91539-1.06205 1.79121-1.76172 2.62304-0.69967 0.83184-1.50513 1.61908-2.39844 2.35157-0.8933 0.73248-1.87478 1.41196-2.92382 2.02929s-2.16515 1.17182-3.33204 1.65821c-1.16688 0.48638-2.38402 0.9045-3.63085 1.24414-1.24684 0.33963-2.52361 0.60025-3.8125 0.77734-1.2889 0.17709-2.58976 0.27078-3.88282 0.26953s-2.57855-0.09563-3.83789-0.29101c-2.32647-0.36097-4.59532-0.96854-6.78515-1.79493-2.18984-0.82638-4.30026-1.87308-6.31055-3.11132-2.010292-1.23824-3.921133-2.6691-5.708986-4.26563-1.787852-1.59652-3.454046-3.35853-4.976562-5.25976-1.522516-1.90124-2.900953-3.94138-4.115234-6.09375-1.214282-2.15238-2.263804-4.41568-3.126954-6.76563-0.863149-2.34995-1.540645-4.78534-2.009765-7.2793-0.46912-2.49395-0.729526-5.04647-0.761719-7.63086-0.037644-3.02235 0.147839-5.43509 0.691406-7.82226 0.543568-2.38717 1.445213-4.748771 2.835938-7.671876 0.864483-1.817018 1.866914-3.621336 2.990234-5.396485s2.367206-3.521551 3.716797-5.226562 2.80436-3.368005 4.347656-4.974609c1.543297-1.606605 3.17447-3.156792 4.878907-4.636719 1.704432-1.479927 3.481442-2.889863 5.314452-4.214844s3.72333-2.565266 5.65234-3.707031c1.92902-1.141765 3.89817-2.184955 5.89063-3.115235 1.99246-0.930279 4.00791-1.746975 6.03125-2.4375 2.2437-0.765718 4.58229-1.381285 6.99023-1.847656 2.40795-0.466371 4.88519-0.784642 7.40821-0.958984 2.52301-0.174343 5.09076-0.204118 7.67968-0.09375s5.19904 0.360286 7.80469 0.748047c2.60565 0.38776 5.20804 0.912477 7.78125 1.570312s5.11778 1.450503 7.60938 2.371094 4.9302 1.970455 7.29101 3.146484c2.36082 1.17603 4.64336 2.478194 6.82422 3.902344 2.60041 1.698109 5.00701 3.485768 7.23242 5.392578 2.22542 1.90681 4.26864 3.931875 6.14258 6.101563 1.87395 2.169688 3.57901 4.483961 5.125 6.970703 1.546 2.486742 2.93422 5.145934 4.17578 8.003906s2.33623 5.91584 3.29688 9.19922 1.78698 6.79172 2.49023 10.55469c0.70326 3.76296 1.28453 7.77945 1.75391 12.07617s0.82691 8.87511 1.08594 13.75976c0.33515 6.3202 0.37516 13.43762 0.14843 21.06641s-0.72068 15.76889-1.45117 24.12891c-0.73048 8.36001-1.69694 16.94122-2.87305 25.45507-1.17611 8.51386-2.56139 16.96046-4.125 25.05079 2.01996-0.27349 4.09236-0.52483 5.94336-0.87305 11.40631-2.1458 19.67161-5.77882 25.62305-11.72266 11.90289-11.88767 14.54883-33.02246 14.54883-70.01562v-59.251956c0-50.86581-5.00234-71.749868-32.19336-79.835937-2.47191-0.73508-5.12694-1.363925-7.97852-1.900391-2.85157-0.536428-5.89918-0.980159-9.15625-1.34375-3.25706-0.36359-6.72373-0.648629-10.41211-0.865234-7.37676-0.433179-15.64147-0.597656-24.89843-0.597656h-75.371097z" style="fill:#5c62c4"/>
  <path transform="matrix(.1348539 0 0 .1348539 -4.9712559 261.01666)" d="M 361.9375,-212 C 507.2348,-212 528,-191.28677 528,-46.125 V 70.125 C 528,215.28618 507.2348,236 361.9375,236 H 214.0625 C 68.7652,236 48,215.28618 48,70.125 V -46.125 C 48,-191.28677 68.7652,-212 214.0625,-212 Z" clip-path="url(#clipPath1082-3-361)" style="fill:none;opacity:.4;stroke-linecap:round;stroke-linejoin:round;stroke-width:8;stroke:url(#linearGradient1108)"/>
 </g>
</svg>
