<svg width="256" height="256" version="1.1" viewBox="0 0 67.73 67.73" xmlns="http://www.w3.org/2000/svg" xmlns:xlink="http://www.w3.org/1999/xlink">
 <defs>
  <linearGradient id="linearGradient1108" x1="296" x2="296" y1="-212" y2="236" gradientUnits="userSpaceOnUse">
   <stop style="stop-color:#ffffff" offset="0"/>
   <stop style="stop-color:#ffffff;stop-opacity:.09803922" offset=".125"/>
   <stop style="stop-color:#000000;stop-opacity:.09803922" offset=".925"/>
   <stop style="stop-color:#000000;stop-opacity:.49803922" offset="1"/>
  </linearGradient>
  <clipPath id="clipPath1082-3-361">
   <path d="M 361.9375,-212 C 507.2348,-212 528,-191.28677 528,-46.125 V 70.125 C 528,215.28618 507.2348,236 361.9375,236 H 214.0625 C 68.7652,236 48,215.28618 48,70.125 V -46.125 C 48,-191.28677 68.7652,-212 214.0625,-212 Z" style="fill:#8c59d9"/>
  </clipPath>
  <filter id="filter4569" x="-.01" y="-.01" width="1.023" height="1.025" style="color-interpolation-filters:sRGB">
   <feGaussianBlur stdDeviation="1.16"/>
  </filter>
  <filter id="filter939" x="-.02" y="-.03" width="1.046" height="1.05" style="color-interpolation-filters:sRGB">
   <feGaussianBlur stdDeviation="2.32"/>
  </filter>
  <filter id="filter927" x="-.04" y="-.06" width="1.084" height="1.112" style="color-interpolation-filters:sRGB">
   <feGaussianBlur stdDeviation=".834"/>
  </filter>
 </defs>
 <g transform="translate(0,-229.26666)">
  <path transform="matrix(.26970779 0 0 .26970779 -1.9098094e-8 231.46531)" d="m162.53675 5.5680001c72.64865 0 83.03125 10.356615 83.03125 82.937505v58.125005c0 72.58059-10.3826 82.9375-83.03125 82.9375h-73.937496c-72.648654 0-83.031254-10.35691-83.031254-82.9375v-58.125005c0-72.58089 10.3826-82.937505 83.031254-82.937505z" style="filter:url(#filter939);opacity:.2"/>
  <path d="m43.837429 232.42763c19.593907 0 22.394176 2.79326 22.394176 22.36889v15.67677c0 19.57555-2.800269 22.36889-22.394176 22.36889h-19.941519c-19.593909 0-22.394177-2.79334-22.394177-22.36889v-15.67677c0-19.57563 2.8002682-22.36889 22.394177-22.36889z" style="fill:none;opacity:.1;stroke-linecap:round;stroke-linejoin:round;stroke-width:1.0788311;stroke:#000000"/>
  <path transform="matrix(.26970779 0 0 .26970779 -1.9098094e-8 231.46531)" d="m162.53675 3.5680001c72.64865 0 83.03125 10.356615 83.03125 82.937505v58.125005c0 72.58059-10.3826 82.9375-83.03125 82.9375h-73.937496c-72.648654 0-83.031254-10.35691-83.031254-82.9375v-58.125005c0-72.58089 10.3826-82.937505 83.031254-82.937505z" style="filter:url(#filter4569);opacity:.1"/>
  <path d="m43.837427 232.42763c19.593907 0 22.394175 2.79326 22.394175 22.36889v15.67677c0 19.57555-2.800268 22.36889-22.394175 22.36889h-19.94152c-19.593907 0-22.394176-2.79334-22.394176-22.36889v-15.67677c0-19.57563 2.8002682-22.36889 22.394176-22.36889z" style="fill:#be212e"/>
  <path transform="matrix(.1348539 0 0 .1348539 -4.9712559 261.01666)" d="M 361.9375,-212 C 507.2348,-212 528,-191.28677 528,-46.125 V 70.125 C 528,215.28618 507.2348,236 361.9375,236 H 214.0625 C 68.7652,236 48,215.28618 48,70.125 V -46.125 C 48,-191.28677 68.7652,-212 214.0625,-212 Z" clip-path="url(#clipPath1082-3-361)" style="fill:none;opacity:.4;stroke-linecap:round;stroke-linejoin:round;stroke-width:8;stroke:url(#linearGradient1108)"/>
  <path d="m23.895907 292.84218c-19.593907 0-22.394176-2.79326-22.394176-22.36889v-7.83838h64.729871v7.83838c0 19.57563-2.800268 22.36889-22.394175 22.36889z" style="fill:#ffffff;opacity:.1"/>
  <path d="m20.408531 244.76019c-2.073503 0.0662-4.075805 1.02319-5.609501 2.47399-1.558693 1.47394-2.675692 3.50033-2.90214 5.67909-0.113082 1.08816-0.0033 2.20255 0.344332 3.236 0.34766 1.0334 0.935314 1.98584 1.71609 2.72162 0.920547 0.86677 2.072544 1.41445 3.129776 2.09307 0.528849 0.33795 1.036509 0.71671 1.474401 1.17627 0.437884 0.45719 0.803874 1.0025 1.004371 1.61443 0.178331 0.54292 0.218829 1.12867 0.140262 1.69538-0.08095 0.5691-0.282414 1.11917-0.57743 1.60488-0.58981 0.97153-1.541554 1.67873-2.585681 2.05736-1.210817 0.43828-2.544016 0.45956-3.711256 1.01197-0.923642 0.43829-1.701326 1.20013-2.185888 2.12638-0.484322 0.92626-0.675766 2.25468-0.5579 3.30239 0.138326 1.23107 0.707913 2.40019 1.557982 3.26934 0.849831 0.8691 1.974443 1.43582 3.153112 1.62392 1.72847 0.27404 4.171338-0.30015 5.426676-1.56439 0.628621-0.63102 1.104853-1.42156 1.373919-2.28828 0.266709-0.86439 0.321472-2.038 0.147642-2.92857-0.133332-0.68102-0.390501-1.3263-0.631002-1.97397-0.242859-0.64533-0.473847-1.30726-0.530996-1.99782-0.102372-1.22154-0.250553-2.4621 0.530465-3.38121 0.778633-0.91914 1.87158-2.11972 3.021671-2.38638 0.742913-0.1737 1.51441-0.21419 2.264469-0.0787 0.750059 0.13318 1.47631 0.44053 2.083498 0.91437 0.607192 0.47623 1.092947 1.71729 1.362013 2.45784 0.271433 0.73816 0.319087 1.57153 0.102372 2.32874-0.219055 0.77627-1.286383 1.44535-1.767376 2.08354-0.478609 0.63813-0.98341 1.27868-1.269149 2.03349-0.314316 0.83104-0.345276 1.76683-0.130946 2.63118 0.21667 0.86438 0.669101 1.65492 1.266768 2.29782 0.65958 0.71197 2.091215 1.24296 2.998428 1.53347 0.909598 0.29294 1.83586 0.34514 2.785934 0.34514 0.95008 0 1.943017-0.0527 2.852615-0.34514 0.907219-0.29069 2.337898-0.8215 2.997475-1.53347 0.597665-0.6429 1.050084-1.43344 1.266768-2.29782 0.214329-0.86435 0.18337-1.80014-0.130948-2.63118-0.285742-0.75481-0.79054-1.39536-1.269153-2.03349-0.480987-0.63819-1.547358-1.30727-1.766426-2.08354-0.21667-0.75721-0.16906-1.59058 0.102414-2.32874 0.269048-0.74055 0.754819-1.98161 1.362012-2.45784 0.607192-0.47384 1.333443-0.781 2.083502-0.91437 0.750059-0.13591 1.521548-0.0954 2.264465 0.0787 1.150095 0.26684 2.243042 1.46724 3.021675 2.38638 0.781014 0.91911 0.633089 2.15967 0.530699 3.38121-0.05715 0.69056-0.288128 1.35249-0.530991 1.99782-0.240474 0.64767-0.497666 1.29295-0.631011 1.97397-0.173831 0.89057-0.119067 2.06418 0.147642 2.92857 0.269048 0.86672 0.745298 1.65726 1.373924 2.28828 1.254861 1.26438 3.69821 1.83825 5.426918 1.56439 1.178665-0.1881 2.302566-0.75482 3.152636-1.62392 0.850065-0.86915 1.41916-2.03827 1.557266-3.26934 0.119068-1.04771-0.0738-2.37613-0.557189-3.30239-0.485754-0.92625-1.262007-1.68822-2.185888-2.12638-1.166763-0.55241-2.500201-0.57386-3.712201-1.01197-1.042944-0.37844-1.995398-1.08583-2.585924-2.05736-0.292898-0.48571-0.495274-1.03578-0.576237-1.60488-0.07857-0.56671-0.03825-1.15246 0.140486-1.69538 0.20002-0.61193 0.566707-1.15724 1.004844-1.61443 0.438108-0.45956 0.945314-0.83814 1.473924-1.17627 1.05723-0.67862 2.209702-1.2263 3.128822-2.09307 0.781014-0.73578 1.369163-1.68822 1.716806-2.72162 0.347662-1.03345 0.457184-2.14784 0.345277-3.236-0.22621-2.17876-1.34535-4.20515-2.902618-5.67909-1.533453-1.4508-3.535993-2.40802-5.609974-2.47399-1.035796-0.0315-2.076355 0.15299-3.031191 0.57193-0.954841 0.41894-1.823959 1.07151-2.483534 1.90206-0.757205 0.9525-1.233438 2.10734-1.669183 3.25503-0.43577 1.15014-0.847685 2.3264-1.507261 3.3527-1.088185 1.69538-2.807372 2.81872-4.767051 2.81872-1.959683 0-3.67887-1.12334-4.76705-2.81872-0.65958-1.0263-1.071514-2.20256-1.507265-3.3527-0.435769-1.14769-0.911974-2.30253-1.669184-3.25503-0.659575-0.83055-1.528693-1.48321-2.483529-1.90206-0.954836-0.41894-1.995398-0.60506-3.031201-0.57193zm13.45822 14.28214c1.315066 0 2.381143 1.06612 2.381143 2.38116 0 1.3151-1.066077 2.38118-2.381143 2.38118-1.31507 0-2.381142-1.06608-2.381142-2.38118 0-1.31504 1.066072-2.38116 2.381142-2.38116z" style="fill:#1b1b1b;filter:url(#filter927);opacity:.3"/>
  <path d="m20.408531 244.76019c-2.073503 0.0662-4.075805 1.02319-5.609501 2.47399-1.558693 1.47394-2.675692 3.50033-2.90214 5.67909-0.113082 1.08816-0.0033 2.20255 0.344332 3.236 0.34766 1.0334 0.935314 1.98584 1.71609 2.72162 0.920547 0.86677 2.072544 1.41445 3.129776 2.09307 0.528849 0.33795 1.036509 0.71671 1.474401 1.17627 0.437884 0.45719 0.803874 1.0025 1.004371 1.61443 0.178331 0.54292 0.218829 1.12867 0.140262 1.69538-0.08095 0.5691-0.282414 1.11917-0.57743 1.60488-0.58981 0.97153-1.541554 1.67873-2.585681 2.05736-1.210817 0.43828-2.544016 0.45956-3.711256 1.01197-0.923642 0.43829-1.701326 1.20013-2.185888 2.12638-0.484322 0.92626-0.675766 2.25468-0.5579 3.30239 0.138326 1.23107 0.707913 2.40019 1.557982 3.26934 0.849831 0.8691 1.974443 1.43582 3.153112 1.62392 1.72847 0.27404 4.171338-0.30015 5.426676-1.56439 0.628621-0.63102 1.104853-1.42156 1.373919-2.28828 0.266709-0.86439 0.321472-2.038 0.147642-2.92857-0.133332-0.68102-0.390501-1.3263-0.631002-1.97397-0.242859-0.64533-0.473847-1.30726-0.530996-1.99782-0.102372-1.22154-0.250553-2.4621 0.530465-3.38121 0.778633-0.91914 1.87158-2.11972 3.021671-2.38638 0.742913-0.1737 1.51441-0.21419 2.264469-0.0787 0.750059 0.13318 1.47631 0.44053 2.083498 0.91437 0.607192 0.47623 1.092947 1.71729 1.362013 2.45784 0.271433 0.73816 0.319087 1.57153 0.102372 2.32874-0.219055 0.77627-1.286383 1.44535-1.767376 2.08354-0.478609 0.63813-0.98341 1.27868-1.269149 2.03349-0.314316 0.83104-0.345276 1.76683-0.130946 2.63118 0.21667 0.86438 0.669101 1.65492 1.266768 2.29782 0.65958 0.71197 2.091215 1.24296 2.998428 1.53347 0.909598 0.29294 1.83586 0.34514 2.785934 0.34514 0.95008 0 1.943017-0.0527 2.852615-0.34514 0.907219-0.29069 2.337898-0.8215 2.997475-1.53347 0.597665-0.6429 1.050084-1.43344 1.266768-2.29782 0.214329-0.86435 0.18337-1.80014-0.130948-2.63118-0.285742-0.75481-0.79054-1.39536-1.269153-2.03349-0.480987-0.63819-1.547358-1.30727-1.766426-2.08354-0.21667-0.75721-0.16906-1.59058 0.102414-2.32874 0.269048-0.74055 0.754819-1.98161 1.362012-2.45784 0.607192-0.47384 1.333443-0.781 2.083502-0.91437 0.750059-0.13591 1.521548-0.0954 2.264465 0.0787 1.150095 0.26684 2.243042 1.46724 3.021675 2.38638 0.781014 0.91911 0.633089 2.15967 0.530699 3.38121-0.05715 0.69056-0.288128 1.35249-0.530991 1.99782-0.240474 0.64767-0.497666 1.29295-0.631011 1.97397-0.173831 0.89057-0.119067 2.06418 0.147642 2.92857 0.269048 0.86672 0.745298 1.65726 1.373924 2.28828 1.254861 1.26438 3.69821 1.83825 5.426918 1.56439 1.178665-0.1881 2.302566-0.75482 3.152636-1.62392 0.850065-0.86915 1.41916-2.03827 1.557266-3.26934 0.119068-1.04771-0.0738-2.37613-0.557189-3.30239-0.485754-0.92625-1.262007-1.68822-2.185888-2.12638-1.166763-0.55241-2.500201-0.57386-3.712201-1.01197-1.042944-0.37844-1.995398-1.08583-2.585924-2.05736-0.292898-0.48571-0.495274-1.03578-0.576237-1.60488-0.07857-0.56671-0.03825-1.15246 0.140486-1.69538 0.20002-0.61193 0.566707-1.15724 1.004844-1.61443 0.438108-0.45956 0.945314-0.83814 1.473924-1.17627 1.05723-0.67862 2.209702-1.2263 3.128822-2.09307 0.781014-0.73578 1.369163-1.68822 1.716806-2.72162 0.347662-1.03345 0.457184-2.14784 0.345277-3.236-0.22621-2.17876-1.34535-4.20515-2.902618-5.67909-1.533453-1.4508-3.535993-2.40802-5.609974-2.47399-1.035796-0.0315-2.076355 0.15299-3.031191 0.57193-0.954841 0.41894-1.823959 1.07151-2.483534 1.90206-0.757205 0.9525-1.233438 2.10734-1.669183 3.25503-0.43577 1.15014-0.847685 2.3264-1.507261 3.3527-1.088185 1.69538-2.807372 2.81872-4.767051 2.81872-1.959683 0-3.67887-1.12334-4.76705-2.81872-0.65958-1.0263-1.071514-2.20256-1.507265-3.3527-0.435769-1.14769-0.911974-2.30253-1.669184-3.25503-0.659575-0.83055-1.528693-1.48321-2.483529-1.90206-0.954836-0.41894-1.995398-0.60506-3.031201-0.57193zm13.45822 14.28214c1.315066 0 2.381143 1.06612 2.381143 2.38116 0 1.3151-1.066077 2.38118-2.381143 2.38118-1.31507 0-2.381142-1.06608-2.381142-2.38118 0-1.31504 1.066072-2.38116 2.381142-2.38116z" style="fill:#ffffff"/>
 </g>
</svg>
