<svg xmlns="http://www.w3.org/2000/svg" width="256" height="256" version="1.0" style="enable-background:new">
 <defs>
  <filter id="filter925" width="1.046" height="1.05" x="-.02" y="-.03" style="color-interpolation-filters:sRGB">
   <feGaussianBlur stdDeviation="2.32"/>
  </filter>
  <filter id="filter931" width="1.023" height="1.025" x="-.01" y="-.01" style="color-interpolation-filters:sRGB">
   <feGaussianBlur stdDeviation="1.16"/>
  </filter>
  <linearGradient id="linearGradient1108" x1="296" x2="296" y1="-212" y2="236" gradientUnits="userSpaceOnUse">
   <stop style="stop-color:#ffffff" offset="0"/>
   <stop style="stop-color:#ffffff;stop-opacity:.09803922" offset=".125"/>
   <stop style="stop-color:#000000;stop-opacity:.09803922" offset=".925"/>
   <stop style="stop-color:#000000;stop-opacity:.49803922" offset="1"/>
  </linearGradient>
  <clipPath id="clipPath1082-3">
   <path d="M 361.9375,-212 C 507.2348,-212 528,-191.28677 528,-46.125 V 70.125 C 528,215.28618 507.2348,236 361.9375,236 H 214.0625 C 68.7652,236 48,215.28618 48,70.125 V -46.125 C 48,-191.28677 68.7652,-212 214.0625,-212 Z" style="fill:#8c59d9"/>
  </clipPath>
 </defs>
 <g transform="translate(0,-44)">
  <path d="m162.53675 62.431991c72.64865 0 83.03125 10.356615 83.03125 82.937499v58.125c0 72.58059-10.3826 82.9375-83.03125 82.9375h-73.9375c-72.64865 0-83.03125-10.35691-83.03125-82.9375v-58.125c0-72.580884 10.3826-82.937499 83.03125-82.937499z" style="filter:url(#filter925);opacity:.2"/>
  <path d="m162.53675 61.431991c72.64865 0 83.03125 10.356615 83.03125 82.937499v58.125c0 72.58059-10.3826 82.9375-83.03125 82.9375h-73.9375c-72.64865 0-83.03125-10.35691-83.03125-82.9375v-58.125c0-72.580884 10.3826-82.937499 83.03125-82.937499z" style="filter:url(#filter931);opacity:.1"/>
  <path d="m162.53675 60.431991c72.64865 0 83.03125 10.356615 83.03125 82.937499v58.125c0 72.58059-10.3826 82.9375-83.03125 82.9375h-73.9375c-72.64865 0-83.03125-10.35691-83.03125-82.9375v-58.125c0-72.580884 10.3826-82.937499 83.03125-82.937499z" style="fill:#e7e7df"/>
  <path d="M 361.9375,-212 C 507.2348,-212 528,-191.28677 528,-46.125 V 70.125 C 528,215.28618 507.2348,236 361.9375,236 H 214.0625 C 68.7652,236 48,215.28618 48,70.125 V -46.125 C 48,-191.28677 68.7652,-212 214.0625,-212 Z" clip-path="url(#clipPath1082-3)" transform="matrix(.5 0 0 .5 -18.432 166.43199)" style="fill:none;opacity:.4;stroke-linecap:round;stroke-linejoin:round;stroke-width:8;stroke:url(#linearGradient1108)"/>
 </g>
 <path d="m88.596263 241.43493c-72.64865 0-83.03125-10.35258-83.03125-82.905v-29.05114h240.00002v29.05114c0 72.55242-10.3826 82.905-83.03126 82.905z" style="fill:#ffffff;opacity:.1"/>
 <path d="m68.056282 63.998189c-8.31 0-15 6.68999-15 15 0.18751 0.15231 0.18751 114.15235-0.0719 113.86711l191.22034-0.15421c0.30471-2.91311 0.57228-5.9224 0.76368-9.17189 0.43404-7.3694 0.5996-15.62672 0.5996-24.875v-59.251962c0-9.248309-0.16557-17.505559-0.5996-24.874989-0.21703-3.6847-0.50097-7.14667-0.86523-10.40039-6e-3 -0.0491-0.014-0.0896-0.0197-0.13871zm31.79688 46.246101h49.175778c2.60588 0 4.70507 2.09723 4.70507 4.70314 0 2.60587-2.09919 4.70505-4.70507 4.70505h-49.175778c-2.60591 0-4.70313-2.09918-4.70313-4.70505 0-2.60591 2.09722-4.70314 4.70313-4.70314zm-0.043 16.33395h49.175778c2.60588 0 4.70508 2.09923 4.70508 4.7051 0 2.60591-2.0992 4.70313-4.70508 4.70313h-49.175768c-2.60589 0-4.70313-2.09722-4.70313-4.70313 0-2.60587 2.09724-4.7051 4.70313-4.7051zm0 16.50588h49.175778c2.60588 0 4.70508 2.09919 4.70508 4.70509 0 2.60587-2.0992 4.70313-4.70508 4.70313h-49.175768c-2.60589 0-4.70313-2.09726-4.70313-4.70313 0-2.6059 2.09724-4.70509 4.70313-4.70509z" style="fill:#b0a38d"/>
</svg>
