<svg xmlns="http://www.w3.org/2000/svg" xmlns:xlink="http://www.w3.org/1999/xlink" width="256" height="256" version="1.1" viewBox="0 0 67.73 67.73">
 <defs>
  <linearGradient id="linearGradient1108-7" x1="296" x2="296" y1="-212" y2="236" gradientUnits="userSpaceOnUse" xlink:href="#linearGradient1013"/>
  <linearGradient id="linearGradient1013">
   <stop style="stop-color:#ffffff" offset="0"/>
   <stop offset=".125" style="stop-color:#ffffff;stop-opacity:0.09803922"/>
   <stop offset=".925" style="stop-color:#000000;stop-opacity:0.09803922"/>
   <stop style="stop-color:#000000;stop-opacity:0.49803922" offset="1"/>
  </linearGradient>
  <clipPath id="clipPath1082-3-69" clipPathUnits="userSpaceOnUse">
   <path style="fill:#8c59d9" d="M 361.9375,-212 C 507.2348,-212 528,-191.28677 528,-46.125 V 70.125 C 528,215.28618 507.2348,236 361.9375,236 H 214.0625 C 68.7652,236 48,215.28618 48,70.125 V -46.125 C 48,-191.28677 68.7652,-212 214.0625,-212 Z"/>
  </clipPath>
  <filter id="filter958" width="1.046" height="1.05" x="-.02" y="-.03" style="color-interpolation-filters:sRGB">
   <feGaussianBlur stdDeviation="2.32"/>
  </filter>
  <filter id="filter4569" width="1.023" height="1.025" x="-.01" y="-.01" style="color-interpolation-filters:sRGB">
   <feGaussianBlur stdDeviation="1.16"/>
  </filter>
  <filter id="filter1745" width="1.096" height="1.096" x="-.05" y="-.05" style="color-interpolation-filters:sRGB">
   <feGaussianBlur stdDeviation="10.24"/>
  </filter>
 </defs>
 <g transform="translate(0,-229.26666)">
  <path style="opacity:0.1;filter:url(#filter4569)" d="m 188.96876,43.999995 c 72.64865,0 83.03125,10.356615 83.03125,82.937505 v 58.125 c 0,72.58059 -10.3826,82.9375 -83.03125,82.9375 h -73.9375 C 42.382606,268 32.000006,257.64309 32.000006,185.0625 v -58.125 c 0,-72.58089 10.3826,-82.937505 83.031254,-82.937505 z" transform="matrix(0.26970778,0,0,0.26970778,-7.1289177,220.56049)"/>
  <path d="m 188.96876,45.999995 c 72.64865,0 83.03125,10.356615 83.03125,82.937505 v 58.125 c 0,72.58059 -10.3826,82.9375 -83.03125,82.9375 h -73.9375 C 42.382606,270 32.000006,259.64309 32.000006,187.0625 v -58.125 c 0,-72.58089 10.3826,-82.937505 83.031254,-82.937505 z" transform="matrix(0.26970778,0,0,0.26970778,-7.1289177,220.56049)" style="opacity:0.2;filter:url(#filter958)"/>
  <path d="m 43.837425,232.42763 c 19.593907,0 22.394175,2.79326 22.394175,22.36889 v 15.67677 c 0,19.57555 -2.800268,22.36888 -22.394175,22.36888 h -19.94152 c -19.5939061,0 -22.3941743,-2.79333 -22.3941743,-22.36888 v -15.67677 c 0,-19.57563 2.8002682,-22.36889 22.3941743,-22.36889 z" style="fill:#47ad5d"/>
  <path style="opacity:0.6;fill:none;stroke:url(#linearGradient1108-7);stroke-width:8;stroke-linecap:round;stroke-linejoin:round" d="M 361.9375,-212 C 507.2348,-212 528,-191.28677 528,-46.125 V 70.125 C 528,215.28618 507.2348,236 361.9375,236 H 214.0625 C 68.7652,236 48,215.28618 48,70.125 V -46.125 C 48,-191.28677 68.7652,-212 214.0625,-212 Z" clip-path="url(#clipPath1082-3-69)" transform="matrix(0.13485389,0,0,0.13485389,-4.9712555,261.01666)"/>
  <g transform="translate(1.899855,6.4864358)">
   <path d="m 31.96681,225.86837 v 60.41455 h 9.970762 c 19.593907,0 22.394175,-2.79334 22.394175,-22.36889 v -15.67677 c 0,-19.57563 -2.800268,-22.36889 -22.394175,-22.36889 z" style="opacity:0.1;fill:#ffffff"/>
   <path d="m 21.996051,286.28292 c -19.5939068,0 -22.39417482,-2.64319 -22.39417482,-21.16712 v -7.41726 H 64.331747 v 7.41726 c 0,18.52393 -2.800268,21.16712 -22.394175,21.16712 z" style="opacity:0.1;fill:#ffffff"/>
   <g transform="matrix(0.08784994,0,0,0.08784994,9.4772257,233.65888)">
    <path style="fill:#374149" class="st0" d="m 269.183,243.32 c 0,-2.781 -0.839,-4.984 -2.57,-6.714 -1.73,-1.68 -4.09,-2.516 -7.133,-2.516 h -12.325 v 18.406 h 12.325 c 3.042,0 5.402,-0.84 7.133,-2.519 1.731,-1.626 2.57,-3.879 2.57,-6.657 z"/>
    <path style="fill:#374149" class="st0" d="M 371.344,89.156 H 140.66 c -28.961,0 -52.442,23.481 -52.442,52.438 v 228.809 c 0,28.965 23.481,52.438 52.442,52.438 h 230.684 c 28.961,0 52.438,-23.473 52.438,-52.438 V 141.594 c 0,-28.957 -23.477,-52.438 -52.438,-52.438 z M 218.45,244.582 h -18.466 l -0.414,-1.676 c -0.633,-2.512 -1.746,-4.598 -3.309,-6.199 -1.445,-1.461 -3.535,-2.172 -6.386,-2.172 -1.602,0 -3.027,0.27 -4.226,0.801 -1.192,0.531 -2.192,1.254 -2.973,2.137 -0.535,0.582 -0.95,1.214 -1.301,1.961 -0.344,0.73 -0.633,1.762 -0.871,3.043 -0.254,1.382 -0.438,3.129 -0.558,5.246 -0.137,2.192 -0.195,4.95 -0.195,8.274 0,3.328 0.058,6.09 0.195,8.274 0.121,2.121 0.305,3.875 0.558,5.258 0.238,1.278 0.527,2.305 0.879,3.047 0.343,0.734 0.758,1.367 1.269,1.93 0.813,0.922 1.786,1.613 3,2.156 1.196,0.531 2.622,0.805 4.223,0.805 2.863,0 4.969,-0.718 6.449,-2.191 1.59,-1.598 2.715,-3.672 3.34,-6.18 l 0.414,-1.676 h 15.843 l 2.539,0.028 -0.457,2.57 c -1.41,7.922 -4.711,14.011 -9.793,18.09 -5.055,4.05 -11.223,6.102 -18.336,6.102 -4.394,0 -8.293,-0.707 -11.602,-2.118 -3.282,-1.386 -6.293,-3.39 -8.934,-5.961 -1.992,-1.992 -3.52,-4.062 -4.566,-6.176 -1.047,-2.078 -1.817,-4.402 -2.286,-6.886 -0.445,-2.367 -0.722,-4.93 -0.828,-7.832 -0.098,-2.746 -0.152,-5.824 -0.152,-9.238 0,-3.406 0.054,-6.484 0.152,-9.226 0.106,-2.867 0.387,-5.508 0.836,-7.844 0.461,-2.473 1.23,-4.797 2.282,-6.89 1.042,-2.102 2.57,-4.168 4.535,-6.141 2.679,-2.598 5.687,-4.606 8.961,-5.992 3.301,-1.402 7.207,-2.114 11.602,-2.114 7.113,0 13.281,2.055 18.336,6.102 5.082,4.082 8.382,10.172 9.793,18.094 l 0.418,2.34 z m -96.344,-41.738 c -0.031,0.007 -0.066,0.011 -0.098,0.019 -4.118,0.902 -8.691,-2.043 -8.691,-6.977 V 146.93 c 0,-16.586 13.566,-30.152 30.152,-30.152 h 39.211 c 6.105,0 9.386,7.175 5.394,11.793 l -62.234,71.984 c -1.066,1.234 -2.375,1.968 -3.734,2.289 z m 127.308,63.55 v 0 h -0.157 v 25.375 H 231.95 v -71.527 h 28.16 c 3.726,0 7.133,0.629 10.175,1.785 3.039,1.207 5.61,2.938 7.707,5.035 2.047,2.094 3.672,4.614 4.774,7.39 1.102,2.832 1.68,5.77 1.68,8.867 0,3.094 -0.578,6.078 -1.68,8.86 -1.102,2.832 -2.726,5.297 -4.774,7.394 -2.098,2.148 -4.668,3.828 -7.707,5.031 -3.042,1.211 -6.449,1.789 -10.175,1.789 h -10.629 -0.067 z m 65.824,7.426 c 1.691,1.762 3.98,2.618 6.996,2.618 3.031,0 5.336,-0.859 7.054,-2.629 1.734,-1.782 2.574,-4.29 2.574,-7.664 v -45.871 h 17.246 v 46.347 c 0,3.875 -0.715,7.442 -2.126,10.594 -1.398,3.136 -3.343,5.867 -5.785,8.109 -2.434,2.226 -5.301,3.969 -8.527,5.192 -3.215,1.218 -6.722,1.835 -10.438,1.835 -3.703,0 -7.211,-0.617 -10.426,-1.835 -3.242,-1.227 -6.11,-2.973 -8.527,-5.192 -2.446,-2.242 -4.398,-4.969 -5.79,-8.113 -1.41,-3.157 -2.121,-6.723 -2.121,-10.59 v -46.347 h 17.34 v 45.871 c 0.003,3.378 0.827,5.89 2.53,7.675 z"/>
    <path style="fill:#374149" class="st0" d="m 120.66,67.988 v 0.161 h 2.914 46.859 2.91 V 65.235 46.07 43.156 h -2.91 -9.031 c -2.23,0 -4.039,-1.808 -4.039,-4.039 V 2.91 0 h -2.914 -14.914 -2.914 v 2.91 36.206 c 0,2.231 -1.808,4.039 -4.035,4.039 h -9.011 -2.914 v 2.914 19.164 2.746 0.009 z"/>
    <path style="fill:#374149" class="st0" d="m 243.098,68.149 h 2.914 V 65.235 46.07 43.156 h -2.914 -9 c -2.23,0 -4.035,-1.808 -4.035,-4.039 V 2.91 0 h -2.914 -14.919 -2.914 v 2.91 36.206 c 0,2.231 -1.805,4.039 -4.035,4.039 h -9.043 -2.914 v 2.914 19.164 2.914 h 2.914 46.86 z"/>
    <path style="fill:#374149" class="st0" d="m 265.992,67.988 v 0.161 h 2.91 46.859 2.914 V 65.235 46.07 43.156 h -2.914 -9.027 c -2.226,0 -4.035,-1.808 -4.035,-4.039 V 2.91 0 h -2.914 -14.914 -2.914 v 2.91 36.206 c 0,2.231 -1.808,4.039 -4.039,4.039 h -9.015 -2.91 v 2.914 19.164 2.746 0.009 z"/>
    <path style="fill:#374149" class="st0" d="m 388.426,68.149 h 2.914 V 65.235 46.07 43.156 h -2.914 -9.05 c -2.23,0 -4.039,-1.808 -4.039,-4.039 V 2.91 0 h -2.91 -14.859 -2.914 v 2.91 36.206 c 0,2.231 -1.808,4.039 -4.035,4.039 h -9.046 -2.914 v 2.914 19.164 2.914 h 2.914 46.853 z"/>
    <path style="fill:#374149" class="st0" d="m 341.57,443.848 h -2.914 v 2.914 19.168 2.914 h 2.914 9.031 c 2.226,0 4.035,1.805 4.035,4.035 V 509.085 512 h 2.914 14.918 2.91 v -2.914 -36.206 c 0,-2.23 1.808,-4.035 4.038,-4.035 h 9.008 2.738 0.016 v 0 h 0.16 v -2.914 -19.168 -2.914 h -2.914 -46.854 z"/>
    <path style="fill:#374149" class="st0" d="m 268.902,443.848 h -2.91 v 2.914 19.168 2.746 0.007 0 0.161 h 2.91 9 c 2.23,0 4.039,1.805 4.039,4.035 V 509.085 512 h 2.91 14.918 2.914 v -2.914 -36.206 c 0,-2.23 1.809,-4.035 4.035,-4.035 h 9.043 2.738 0.016 v 0 h 0.16 v -2.914 -19.168 -2.914 h -2.914 -46.859 z"/>
    <path style="fill:#374149" class="st0" d="m 196.238,443.848 h -2.914 v 2.914 19.168 2.914 h 2.914 9.027 c 2.23,0 4.035,1.805 4.035,4.035 V 509.085 512 h 2.914 14.918 2.914 v -2.914 -36.206 c 0,-2.23 1.804,-4.035 4.035,-4.035 h 9.015 2.738 0.015 v 0 h 0.161 v -2.914 -19.168 -2.914 h -2.914 -46.858 z"/>
    <path style="fill:#374149" class="st0" d="m 123.574,443.848 h -2.914 v 2.914 19.168 2.746 0.007 0 0.161 h 2.914 9.05 c 2.23,0 4.039,1.805 4.039,4.035 v 36.206 2.746 0.008 0 0.161 h 2.914 14.855 2.914 v -2.914 -36.206 c 0,-2.23 1.808,-4.035 4.035,-4.035 h 9.05 2.734 0.019 v 0 h 0.157 v -2.914 -19.168 -2.914 h -2.91 -46.857 z"/>
    <path style="fill:#374149" class="st0" d="m 509.086,136.617 h -36.202 c -2.231,0 -4.039,-1.804 -4.039,-4.034 v -9.008 -2.914 h -2.91 -19.172 -2.91 v 2.914 46.859 2.914 h 2.91 19.172 2.91 v -2.914 -9.035 c 0,-2.23 1.808,-4.035 4.039,-4.035 h 36.202 2.746 0.008 v 0 H 512 v -2.914 -14.918 -2.914 h -2.914 z"/>
    <path style="fill:#374149" class="st0" d="m 472.883,209.317 c -2.231,0 -4.039,-1.809 -4.039,-4.039 v -9.039 -2.914 h -2.91 -19.172 -2.742 -0.011 v 0 h -0.157 v 2.914 46.855 2.914 h 2.91 19.172 2.91 v -2.914 -8.996 c 0,-2.23 1.808,-4.039 4.039,-4.039 H 509.085 512 v -2.914 -14.915 -2.914 h -2.914 -36.203 z"/>
    <path style="fill:#374149" class="st0" d="m 472.883,281.957 c -2.231,0 -4.039,-1.808 -4.039,-4.039 v -9.015 -2.914 h -2.91 -19.172 -2.91 v 2.914 46.859 2.914 h 2.91 19.172 2.91 v -2.914 -9.027 c 0,-2.23 1.808,-4.039 4.039,-4.039 h 36.202 2.746 l 0.008,0.004 v -0.004 H 512 v -2.91 -14.914 -2.914 h -2.914 -36.203 z"/>
    <path style="fill:#374149" class="st0" d="m 472.883,354.652 c -2.231,0 -4.039,-1.804 -4.039,-4.035 v -9.046 -2.914 h -2.91 -19.172 -2.91 v 2.914 46.855 2.91 h 2.91 19.172 2.91 v -2.91 -9.05 c 0,-2.23 1.808,-4.039 4.039,-4.039 H 509.085 512 v -2.914 -14.855 -2.914 h -2.914 -36.203 z"/>
    <path style="fill:#374149" class="st0" d="m 46.07,338.656 h -2.914 v 2.914 9.027 c 0,2.23 -1.808,4.039 -4.039,4.039 H 2.914 0 v 2.914 14.914 2.914 h 2.914 36.202 c 2.231,0 4.039,1.808 4.039,4.038 v 9.008 2.91 h 2.914 19.168 2.914 v -2.91 -46.854 -2.914 h -2.914 z"/>
    <path style="fill:#374149" class="st0" d="m 46.07,265.988 h -2.914 v 2.914 9 c 0,2.23 -1.808,4.035 -4.039,4.035 H 2.914 0 v 2.914 14.918 2.914 h 2.914 36.202 c 2.231,0 4.039,1.805 4.039,4.035 v 9.043 2.914 h 2.914 19.168 2.914 v -2.914 -46.859 -2.914 h -2.914 z"/>
    <path style="fill:#374149" class="st0" d="m 46.07,193.324 h -2.746 -0.007 v 0 h -0.161 v 2.914 9.027 c 0,2.23 -1.808,4.035 -4.039,4.035 H 2.914 0 v 2.914 14.914 2.914 h 2.914 36.202 c 2.231,0 4.039,1.805 4.039,4.035 v 9.015 2.914 h 2.914 19.168 2.914 v -2.914 -46.855 -2.914 H 65.237 46.07 Z"/>
    <path style="fill:#374149" class="st0" d="m 46.07,120.66 h -2.914 v 2.914 9.05 c 0,2.23 -1.808,4.035 -4.039,4.035 H 2.914 0 v 2.914 14.859 2.914 h 2.914 36.202 c 2.231,0 4.039,1.804 4.039,4.038 v 9.047 2.914 h 2.914 19.168 2.914 v -2.914 -46.859 -2.914 H 65.237 46.07 Z"/>
   </g>
   <g style="opacity:0.5;filter:url(#filter1745)" transform="matrix(0.08784994,0,0,0.08784994,9.4772257,233.65888)">
    <path class="st0" d="m 269.183,243.32 c 0,-2.781 -0.839,-4.984 -2.57,-6.714 -1.73,-1.68 -4.09,-2.516 -7.133,-2.516 h -12.325 v 18.406 h 12.325 c 3.042,0 5.402,-0.84 7.133,-2.519 1.731,-1.626 2.57,-3.879 2.57,-6.657 z" style="fill:#374149"/>
    <path class="st0" d="M 371.344,89.156 H 140.66 c -28.961,0 -52.442,23.481 -52.442,52.438 v 228.809 c 0,28.965 23.481,52.438 52.442,52.438 h 230.684 c 28.961,0 52.438,-23.473 52.438,-52.438 V 141.594 c 0,-28.957 -23.477,-52.438 -52.438,-52.438 z M 218.45,244.582 h -18.466 l -0.414,-1.676 c -0.633,-2.512 -1.746,-4.598 -3.309,-6.199 -1.445,-1.461 -3.535,-2.172 -6.386,-2.172 -1.602,0 -3.027,0.27 -4.226,0.801 -1.192,0.531 -2.192,1.254 -2.973,2.137 -0.535,0.582 -0.95,1.214 -1.301,1.961 -0.344,0.73 -0.633,1.762 -0.871,3.043 -0.254,1.382 -0.438,3.129 -0.558,5.246 -0.137,2.192 -0.195,4.95 -0.195,8.274 0,3.328 0.058,6.09 0.195,8.274 0.121,2.121 0.305,3.875 0.558,5.258 0.238,1.278 0.527,2.305 0.879,3.047 0.343,0.734 0.758,1.367 1.269,1.93 0.813,0.922 1.786,1.613 3,2.156 1.196,0.531 2.622,0.805 4.223,0.805 2.863,0 4.969,-0.718 6.449,-2.191 1.59,-1.598 2.715,-3.672 3.34,-6.18 l 0.414,-1.676 h 15.843 l 2.539,0.028 -0.457,2.57 c -1.41,7.922 -4.711,14.011 -9.793,18.09 -5.055,4.05 -11.223,6.102 -18.336,6.102 -4.394,0 -8.293,-0.707 -11.602,-2.118 -3.282,-1.386 -6.293,-3.39 -8.934,-5.961 -1.992,-1.992 -3.52,-4.062 -4.566,-6.176 -1.047,-2.078 -1.817,-4.402 -2.286,-6.886 -0.445,-2.367 -0.722,-4.93 -0.828,-7.832 -0.098,-2.746 -0.152,-5.824 -0.152,-9.238 0,-3.406 0.054,-6.484 0.152,-9.226 0.106,-2.867 0.387,-5.508 0.836,-7.844 0.461,-2.473 1.23,-4.797 2.282,-6.89 1.042,-2.102 2.57,-4.168 4.535,-6.141 2.679,-2.598 5.687,-4.606 8.961,-5.992 3.301,-1.402 7.207,-2.114 11.602,-2.114 7.113,0 13.281,2.055 18.336,6.102 5.082,4.082 8.382,10.172 9.793,18.094 l 0.418,2.34 z m -96.344,-41.738 c -0.031,0.007 -0.066,0.011 -0.098,0.019 -4.118,0.902 -8.691,-2.043 -8.691,-6.977 V 146.93 c 0,-16.586 13.566,-30.152 30.152,-30.152 h 39.211 c 6.105,0 9.386,7.175 5.394,11.793 l -62.234,71.984 c -1.066,1.234 -2.375,1.968 -3.734,2.289 z m 127.308,63.55 v 0 h -0.157 v 25.375 H 231.95 v -71.527 h 28.16 c 3.726,0 7.133,0.629 10.175,1.785 3.039,1.207 5.61,2.938 7.707,5.035 2.047,2.094 3.672,4.614 4.774,7.39 1.102,2.832 1.68,5.77 1.68,8.867 0,3.094 -0.578,6.078 -1.68,8.86 -1.102,2.832 -2.726,5.297 -4.774,7.394 -2.098,2.148 -4.668,3.828 -7.707,5.031 -3.042,1.211 -6.449,1.789 -10.175,1.789 h -10.629 -0.067 z m 65.824,7.426 c 1.691,1.762 3.98,2.618 6.996,2.618 3.031,0 5.336,-0.859 7.054,-2.629 1.734,-1.782 2.574,-4.29 2.574,-7.664 v -45.871 h 17.246 v 46.347 c 0,3.875 -0.715,7.442 -2.126,10.594 -1.398,3.136 -3.343,5.867 -5.785,8.109 -2.434,2.226 -5.301,3.969 -8.527,5.192 -3.215,1.218 -6.722,1.835 -10.438,1.835 -3.703,0 -7.211,-0.617 -10.426,-1.835 -3.242,-1.227 -6.11,-2.973 -8.527,-5.192 -2.446,-2.242 -4.398,-4.969 -5.79,-8.113 -1.41,-3.157 -2.121,-6.723 -2.121,-10.59 v -46.347 h 17.34 v 45.871 c 0.003,3.378 0.827,5.89 2.53,7.675 z" style="fill:#374149"/>
    <path class="st0" d="m 120.66,67.988 v 0.161 h 2.914 46.859 2.91 V 65.235 46.07 43.156 h -2.91 -9.031 c -2.23,0 -4.039,-1.808 -4.039,-4.039 V 2.91 0 h -2.914 -14.914 -2.914 v 2.91 36.206 c 0,2.231 -1.808,4.039 -4.035,4.039 h -9.011 -2.914 v 2.914 19.164 2.746 0.009 z" style="fill:#374149"/>
    <path class="st0" d="m 243.098,68.149 h 2.914 V 65.235 46.07 43.156 h -2.914 -9 c -2.23,0 -4.035,-1.808 -4.035,-4.039 V 2.91 0 h -2.914 -14.919 -2.914 v 2.91 36.206 c 0,2.231 -1.805,4.039 -4.035,4.039 h -9.043 -2.914 v 2.914 19.164 2.914 h 2.914 46.86 z" style="fill:#374149"/>
    <path class="st0" d="m 265.992,67.988 v 0.161 h 2.91 46.859 2.914 V 65.235 46.07 43.156 h -2.914 -9.027 c -2.226,0 -4.035,-1.808 -4.035,-4.039 V 2.91 0 h -2.914 -14.914 -2.914 v 2.91 36.206 c 0,2.231 -1.808,4.039 -4.039,4.039 h -9.015 -2.91 v 2.914 19.164 2.746 0.009 z" style="fill:#374149"/>
    <path class="st0" d="m 388.426,68.149 h 2.914 V 65.235 46.07 43.156 h -2.914 -9.05 c -2.23,0 -4.039,-1.808 -4.039,-4.039 V 2.91 0 h -2.91 -14.859 -2.914 v 2.91 36.206 c 0,2.231 -1.808,4.039 -4.035,4.039 h -9.046 -2.914 v 2.914 19.164 2.914 h 2.914 46.853 z" style="fill:#374149"/>
    <path class="st0" d="m 341.57,443.848 h -2.914 v 2.914 19.168 2.914 h 2.914 9.031 c 2.226,0 4.035,1.805 4.035,4.035 V 509.085 512 h 2.914 14.918 2.91 v -2.914 -36.206 c 0,-2.23 1.808,-4.035 4.038,-4.035 h 9.008 2.738 0.016 v 0 h 0.16 v -2.914 -19.168 -2.914 h -2.914 -46.854 z" style="fill:#374149"/>
    <path class="st0" d="m 268.902,443.848 h -2.91 v 2.914 19.168 2.746 0.007 0 0.161 h 2.91 9 c 2.23,0 4.039,1.805 4.039,4.035 V 509.085 512 h 2.91 14.918 2.914 v -2.914 -36.206 c 0,-2.23 1.809,-4.035 4.035,-4.035 h 9.043 2.738 0.016 v 0 h 0.16 v -2.914 -19.168 -2.914 h -2.914 -46.859 z" style="fill:#374149"/>
    <path class="st0" d="m 196.238,443.848 h -2.914 v 2.914 19.168 2.914 h 2.914 9.027 c 2.23,0 4.035,1.805 4.035,4.035 V 509.085 512 h 2.914 14.918 2.914 v -2.914 -36.206 c 0,-2.23 1.804,-4.035 4.035,-4.035 h 9.015 2.738 0.015 v 0 h 0.161 v -2.914 -19.168 -2.914 h -2.914 -46.858 z" style="fill:#374149"/>
    <path class="st0" d="m 123.574,443.848 h -2.914 v 2.914 19.168 2.746 0.007 0 0.161 h 2.914 9.05 c 2.23,0 4.039,1.805 4.039,4.035 v 36.206 2.746 0.008 0 0.161 h 2.914 14.855 2.914 v -2.914 -36.206 c 0,-2.23 1.808,-4.035 4.035,-4.035 h 9.05 2.734 0.019 v 0 h 0.157 v -2.914 -19.168 -2.914 h -2.91 -46.857 z" style="fill:#374149"/>
    <path class="st0" d="m 509.086,136.617 h -36.202 c -2.231,0 -4.039,-1.804 -4.039,-4.034 v -9.008 -2.914 h -2.91 -19.172 -2.91 v 2.914 46.859 2.914 h 2.91 19.172 2.91 v -2.914 -9.035 c 0,-2.23 1.808,-4.035 4.039,-4.035 h 36.202 2.746 0.008 v 0 H 512 v -2.914 -14.918 -2.914 h -2.914 z" style="fill:#374149"/>
    <path class="st0" d="m 472.883,209.317 c -2.231,0 -4.039,-1.809 -4.039,-4.039 v -9.039 -2.914 h -2.91 -19.172 -2.742 -0.011 v 0 h -0.157 v 2.914 46.855 2.914 h 2.91 19.172 2.91 v -2.914 -8.996 c 0,-2.23 1.808,-4.039 4.039,-4.039 H 509.085 512 v -2.914 -14.915 -2.914 h -2.914 -36.203 z" style="fill:#374149"/>
    <path class="st0" d="m 472.883,281.957 c -2.231,0 -4.039,-1.808 -4.039,-4.039 v -9.015 -2.914 h -2.91 -19.172 -2.91 v 2.914 46.859 2.914 h 2.91 19.172 2.91 v -2.914 -9.027 c 0,-2.23 1.808,-4.039 4.039,-4.039 h 36.202 2.746 l 0.008,0.004 v -0.004 H 512 v -2.91 -14.914 -2.914 h -2.914 -36.203 z" style="fill:#374149"/>
    <path class="st0" d="m 472.883,354.652 c -2.231,0 -4.039,-1.804 -4.039,-4.035 v -9.046 -2.914 h -2.91 -19.172 -2.91 v 2.914 46.855 2.91 h 2.91 19.172 2.91 v -2.91 -9.05 c 0,-2.23 1.808,-4.039 4.039,-4.039 H 509.085 512 v -2.914 -14.855 -2.914 h -2.914 -36.203 z" style="fill:#374149"/>
    <path class="st0" d="m 46.07,338.656 h -2.914 v 2.914 9.027 c 0,2.23 -1.808,4.039 -4.039,4.039 H 2.914 0 v 2.914 14.914 2.914 h 2.914 36.202 c 2.231,0 4.039,1.808 4.039,4.038 v 9.008 2.91 h 2.914 19.168 2.914 v -2.91 -46.854 -2.914 h -2.914 z" style="fill:#374149"/>
    <path class="st0" d="m 46.07,265.988 h -2.914 v 2.914 9 c 0,2.23 -1.808,4.035 -4.039,4.035 H 2.914 0 v 2.914 14.918 2.914 h 2.914 36.202 c 2.231,0 4.039,1.805 4.039,4.035 v 9.043 2.914 h 2.914 19.168 2.914 v -2.914 -46.859 -2.914 h -2.914 z" style="fill:#374149"/>
    <path class="st0" d="m 46.07,193.324 h -2.746 -0.007 v 0 h -0.161 v 2.914 9.027 c 0,2.23 -1.808,4.035 -4.039,4.035 H 2.914 0 v 2.914 14.914 2.914 h 2.914 36.202 c 2.231,0 4.039,1.805 4.039,4.035 v 9.015 2.914 h 2.914 19.168 2.914 v -2.914 -46.855 -2.914 H 65.237 46.07 Z" style="fill:#374149"/>
    <path class="st0" d="m 46.07,120.66 h -2.914 v 2.914 9.05 c 0,2.23 -1.808,4.035 -4.039,4.035 H 2.914 0 v 2.914 14.859 2.914 h 2.914 36.202 c 2.231,0 4.039,1.804 4.039,4.038 v 9.047 2.914 h 2.914 19.168 2.914 v -2.914 -46.859 -2.914 H 65.237 46.07 Z" style="fill:#374149"/>
   </g>
  </g>
 </g>
</svg>
