<svg width="256" height="256" version="1.1" viewBox="0 0 256 256" xmlns="http://www.w3.org/2000/svg" xmlns:xlink="http://www.w3.org/1999/xlink">
 <defs>
  <linearGradient id="linearGradient1108" x1="296" x2="296" y1="-212" y2="236" gradientUnits="userSpaceOnUse">
   <stop style="stop-color:#ffffff" offset="0"/>
   <stop style="stop-color:#ffffff;stop-opacity:.09803922" offset=".125"/>
   <stop style="stop-color:#000000;stop-opacity:.09803922" offset=".925"/>
   <stop style="stop-color:#000000;stop-opacity:.49803922" offset="1"/>
  </linearGradient>
  <clipPath id="clipPath1082-3-361">
   <path d="M 361.9375,-212 C 507.2348,-212 528,-191.28677 528,-46.125 V 70.125 C 528,215.28618 507.2348,236 361.9375,236 H 214.0625 C 68.7652,236 48,215.28618 48,70.125 V -46.125 C 48,-191.28677 68.7652,-212 214.0625,-212 Z" style="fill:#8c59d9"/>
  </clipPath>
  <filter id="filter4569" x="-.01" y="-.01" width="1.023" height="1.025" style="color-interpolation-filters:sRGB">
   <feGaussianBlur stdDeviation="1.16"/>
  </filter>
  <filter id="filter939" x="-.02" y="-.03" width="1.046" height="1.05" style="color-interpolation-filters:sRGB">
   <feGaussianBlur stdDeviation="2.32"/>
  </filter>
  <linearGradient id="linearGradient980" x1="249.125" x2="6.483" y1="240.034" y2="12.777" gradientUnits="userSpaceOnUse">
   <stop style="stop-color:#80a6d8" offset="0"/>
   <stop style="stop-color:#42699a" offset="1"/>
  </linearGradient>
  <filter id="filter7817">
   <feGaussianBlur stdDeviation=".738"/>
  </filter>
  <filter id="filter7743">
   <feGaussianBlur stdDeviation=".295"/>
  </filter>
 </defs>
 <path transform="matrix(1.019368,0,0,1.019368,-7.2181772e-8,8.3098661)" d="m162.53675 5.5680001c72.64865 0 83.03125 10.356615 83.03125 82.937505v58.125005c0 72.58059-10.3826 82.9375-83.03125 82.9375h-73.937496c-72.648654 0-83.031254-10.35691-83.031254-82.9375v-58.125005c0-72.58089 10.3826-82.937505 83.031254-82.937505z" style="filter:url(#filter939);opacity:.2"/>
 <path d="m165.68477 11.946967c74.05571 0 84.6394 10.557203 84.6394 84.543835v59.250778c0 73.98633-10.58369 84.54383-84.6394 84.54383h-75.369521c-74.055717 0-84.639408-10.5575-84.639408-84.54383v-59.250778c0-73.986632 10.583691-84.543835 84.639408-84.543835z" style="fill:none;opacity:.1;stroke-linecap:round;stroke-linejoin:round;stroke-width:4.0774717;stroke:#000000"/>
 <path transform="matrix(1.019368,0,0,1.019368,-7.2181772e-8,8.3098661)" d="m162.53675 3.5680001c72.64865 0 83.03125 10.356615 83.03125 82.937505v58.125005c0 72.58059-10.3826 82.9375-83.03125 82.9375h-73.937496c-72.648654 0-83.031254-10.35691-83.031254-82.9375v-58.125005c0-72.58089 10.3826-82.937505 83.031254-82.937505z" style="filter:url(#filter4569);opacity:.1"/>
 <path d="m165.68476 11.946967c74.05571 0 84.6394 10.557203 84.6394 84.543835v59.250778c0 73.98633-10.58369 84.54383-84.6394 84.54383h-75.369522c-74.055712 0-84.639403-10.5575-84.639403-84.54383v-59.250778c0-73.986632 10.583691-84.543835 84.639403-84.543835z" style="fill:url(#linearGradient980)"/>
 <path transform="matrix(.50968403 0 0 .50968403 -18.788999 120)" d="M 361.9375,-212 C 507.2348,-212 528,-191.28677 528,-46.125 V 70.125 C 528,215.28618 507.2348,236 361.9375,236 H 214.0625 C 68.7652,236 48,215.28618 48,70.125 V -46.125 C 48,-191.28677 68.7652,-212 214.0625,-212 Z" clip-path="url(#clipPath1082-3-361)" style="fill:none;opacity:.4;stroke-linecap:round;stroke-linejoin:round;stroke-width:8;stroke:url(#linearGradient1108)"/>
 <path d="m90.315238 240.28541c-74.055712 0-84.639403-10.5572-84.639403-84.54383v-29.62537h244.64832v29.62537c0 73.98663-10.58369 84.54383-84.6394 84.54383z" style="fill:#ffffff;opacity:.25"/>
 <path d="m129.54217 11.946967v228.33844h37.20966c73.12207 0 83.57233-10.5575 83.57233-84.54383v-59.250778c0-73.986632-10.45026-84.543835-83.57233-84.543835z" style="fill:#ffffff;opacity:.25"/>
 <g transform="translate(-203.67123,-46.85155)">
  <g transform="translate(1021.2428,282.60581)" style="enable-background:new">
   <path transform="matrix(3.9839562,0,0,3.9839562,2770.9454,559.42518)" d="m-875.375-181.59375c-4.91183 5.6e-4 -11.11653 4.69263-11.0625 11.9375 0.0523 7.01229 2.38253 10.80007 4.15625 15.09375l5.25-2.1875c-1.2055-2.46943-2.75521-4.93394-3.3125-6.15625-1.56018-3.42248-2.13025-4.95392-2-7.5625 0.12595-2.522 0.96662-4.07568 2.5-5.5625 1.53341-1.48668 3.65452-2.22555 6.1875-1.875 5.36448 0.7432 7.09073 4.80332 7.21875 6.78125 0.10537 1.62681-1.06611 5.63326-5.1875 5.4375-2.85712-0.13595-4.4631-1.71971-4.65625-4.40625-0.14229-1.98 1.7736-3.97857 4.875-2.96875 0.4992 0.16244 0.53295-0.73279-0.0312-1.1875-1.45256-1.17058-7.20695-0.72309-7.1875 3.875 0.018 4.26106 3.4265 7.1059 6.71875 7.125 6.895 0.0406 8.249-5.40233 8-9.15625-0.27589-4.15969-5.52194-9.18819-11.46875-9.1875z" style="fill-rule:evenodd;filter:url(#filter7817);opacity:.26785715" xlink:href="#path3497"/>
   <path d="m-743.97814-60.338435c-7.06646-17.10583-16.43482-32.18076-16.64306-60.117425-0.21513-28.86324 24.54408-47.55011 44.1126-47.55234 23.69195-3e-3 44.53704 20.00452 45.63617 36.57654 0.99197 14.95549-4.32992 36.705985-31.7993 36.544315-13.1161-0.0761-26.74485-11.486305-26.81668-28.462185-0.0777-18.31855 22.87046-20.10563 28.65739-15.44209 2.24787 1.8115 2.17915 5.39623 0.19043 4.74907-12.35592-4.02303-19.98926 3.9058-19.42238 11.79403 0.76954 10.70306 7.11945 17.07089 18.50209 17.61251 16.41952 0.77994 21.01621-15.18879 20.59642-21.66993-0.51011-7.87995-7.3806-24.087-28.75245-27.04788-10.09129-1.39653-18.45464 1.62602-24.56368 7.54888-6.10892 5.92339-9.54341 12.04848-10.04519 22.09602-0.51895 10.39251 1.74999 16.49035 7.96568 30.125365 2.22022 4.86963 8.42185 14.69439 13.2245 24.53249z" style="fill-rule:evenodd;fill:#eeeeec"/>
   <path transform="matrix(3.9839562,0,0,3.9839562,2770.9454,555.44122)" d="m-854.9661-180.31037c1.77375 4.29397 4.12525 8.07773 4.17753 15.09017 0.054 7.24487-6.16075 11.9354-11.07256 11.93567-5.94685 1e-3 -11.17911-5.02113-11.45499-9.1804-0.24898-3.75434 1.08683-9.214 7.98185-9.17315 3.29223 0.0191 6.71314 2.88315 6.73117 7.14407 0.0195 4.59794-5.74065 5.04678-7.19321 3.87607-0.56422-0.4547-0.547-1.35435-0.0478-1.19205 3.10141 1.00994 5.01741-0.98052 4.87512-2.96039-0.19315-2.68653-1.78701-4.28462-4.64413-4.42057-4.1214-0.19577-5.27521 3.81263-5.16985 5.43916 0.12804 1.97791 1.85257 6.04627 7.21708 6.78891 2.53297 0.35069 4.63223-0.40799 6.16562-1.89467 1.53341-1.48695 2.3955-3.02439 2.52144-5.54597 0.13026-2.60873-0.43928-4.13919-1.99946-7.56168-0.55728-1.22272-2.11395-3.68825-3.31942-6.15796z" style="fill-rule:evenodd;fill:#33649d;filter:url(#filter7743);opacity:.77380952"/>
   <path d="m-635.82086-168.0082c7.06654 17.10699 16.43481 32.18132 16.64309 60.11857 0.21514 28.863255-24.54415 47.550115-44.11259 47.551195-23.69199 4e-3 -44.53708-20.00396-45.63618-36.57431-0.99192-14.957135 4.32989-36.708175 31.79934-36.545435 13.1161 0.0761 26.74486 11.48634 26.81669 28.46166 0.0777 18.317995-22.8705 20.106155-28.65743 15.442105-2.24783-1.81151-2.17923-5.39567-0.19044-4.74908 12.35588 4.02356 19.98914-3.90635 19.42227-11.794065-0.7695-10.70302-7.11937-17.06974-18.50201-17.61136-16.41948-0.77994-21.01621 15.18935-20.59646 21.66938 0.51011 7.879905 7.38056 24.088075 28.75253 27.046715 10.09124 1.39714 18.4546-1.62541 24.56356-7.54828 6.10904-5.92394 9.54357-12.04903 10.04531-22.094905 0.51895-10.39306-1.75007-16.49035-7.96576-30.1254-2.22018-4.87126-8.42189-14.69383-13.22443-24.53304z" style="fill-rule:evenodd;fill:#a9c4e3"/>
   <path d="m-716.54223-168.06912c-19.56851 2e-3 -44.28769 18.69524-44.07251 47.55848 0.20836 27.936665 9.61635 43.027015 16.68281 60.132845l20.79128-8.71491c-1.85641-3.8028-3.88771-7.44246-5.85144-10.95588h-4.60645v-8.3414c-1.13164-2.03851-2.11576-3.86201-2.73897-5.22895-6.21569-13.635015-8.48686-19.736165-7.96791-30.128665 0.50178-10.04754 3.97547-16.11288 10.08439-22.03626 6.10904-5.92287 14.43495-8.99095 24.52623-7.59442 10.1067 1.4002 16.93205 5.78813 21.41376 10.83138h4.23295v6.22493c1.92692 3.72006 2.9406 7.30519 3.11247 9.95989 0.18645 2.87945-0.72173 7.62781-3.11247 11.95187v14.815345c11.35516-7.188495 13.90182-21.243455 13.19686-31.871655-1.09913-16.57202-21.99905-36.60535-45.691-36.6026z" style="fill-rule:evenodd;fill:#eeeeec"/>
  </g>
 </g>
</svg>
