<svg width="256" height="256" version="1.1" viewBox="0 0 67.73 67.73" xmlns="http://www.w3.org/2000/svg" xmlns:xlink="http://www.w3.org/1999/xlink">
 <defs>
  <linearGradient id="linearGradient1108" x1="296" x2="296" y1="-212" y2="236" gradientUnits="userSpaceOnUse">
   <stop style="stop-color:#ffffff" offset="0"/>
   <stop style="stop-color:#ffffff;stop-opacity:.09803922" offset=".125"/>
   <stop style="stop-color:#000000;stop-opacity:.09803922" offset=".925"/>
   <stop style="stop-color:#000000;stop-opacity:.49803922" offset="1"/>
  </linearGradient>
  <clipPath id="clipPath1082">
   <path d="M 361.9375,-212 C 507.2348,-212 528,-191.28677 528,-46.125 V 70.125 C 528,215.28618 507.2348,236 361.9375,236 H 214.0625 C 68.7652,236 48,215.28618 48,70.125 V -46.125 C 48,-191.28677 68.7652,-212 214.0625,-212 Z" style="fill:#8c59d9"/>
  </clipPath>
  <filter id="filter1015" x="-.02" y="-.03" width="1.046" height="1.05" style="color-interpolation-filters:sRGB">
   <feGaussianBlur stdDeviation="2.32"/>
  </filter>
 </defs>
 <g transform="translate(0,-229.26666)">
  <path d="m43.837429 232.36713c19.593906 0 22.394174 2.79326 22.394174 22.36889v15.67676c0 19.57555-2.800268 22.36889-22.394174 22.36889h-19.94152c-19.593908 0-22.394176-2.79334-22.394176-22.36889v-15.67676c0-19.57563 2.8002684-22.36889 22.394176-22.36889z" style="fill:none;opacity:.2;stroke-linecap:round;stroke-linejoin:round;stroke-width:1.0788312;stroke:#000000"/>
  <path transform="matrix(.26970778 0 0 .26970778 -7.1289177 220.49999)" d="m188.96876 45.999995c72.64865 0 83.03125 10.356615 83.03125 82.937505v58.125c0 72.58059-10.3826 82.9375-83.03125 82.9375h-73.9375c-72.648654 0-83.031254-10.35691-83.031254-82.9375v-58.125c0-72.58089 10.3826-82.937505 83.031254-82.937505z" style="filter:url(#filter1015);opacity:.2"/>
  <path d="m43.837426 232.36713c19.593907 0 22.394175 2.79326 22.394175 22.36889v15.67676c0 19.57555-2.800268 22.36889-22.394175 22.36889h-19.94152c-19.593906 0-22.394174-2.79334-22.394174-22.36889v-15.67676c0-19.57563 2.8002681-22.36889 22.394174-22.36889z" style="fill:#f1f0e9"/>
  <g transform="matrix(.26970778 0 0 .26970778 -7.1289177 220.49999)" style="enable-background:new">
   <g transform="translate(0,-2.8791538)">
    <path transform="matrix(.98100001 0 0 .98100001 26.432006 35.383481)" d="m72.8125 60.847656c-8.31 0-15 6.69-15 15 0.1875 0.152344 0.1875 114.15234-0.071865 113.86711l191.2203-0.15421c0.30471-2.9131 0.57228-5.9224 0.76367-9.17188 0.43404-7.3694 0.59961-15.62671 0.59961-24.875v-59.251961c0-9.248329-0.16557-17.505575-0.59961-24.875-0.21702-3.684713-0.50097-7.146679-0.86523-10.400391-6e-3 -0.04928-0.014-0.08948-0.0195-0.138672zm31.79688 46.246094h49.17578c2.60588 0 4.70507 2.09722 4.70507 4.70313 0 2.60588-2.09919 4.70507-4.70507 4.70507h-49.17578c-2.60591 0-4.70313-2.09919-4.70313-4.70507 0-2.60591 2.09722-4.70313 4.70313-4.70313zm-0.043 16.33398h49.17578c2.60588 0 4.70508 2.0992 4.70508 4.70508 0 2.60589-2.0992 4.70313-4.70508 4.70313h-49.17578c-2.60589 0-4.703129-2.09724-4.703129-4.70313 0-2.60588 2.097239-4.70508 4.703129-4.70508zm0 16.50586h49.17578c2.60588 0 4.70508 2.0992 4.70508 4.70508 0 2.60589-2.0992 4.70313-4.70508 4.70313h-49.17578c-2.60589 0-4.703129-2.09724-4.703129-4.70313 0-2.60588 2.097239-4.70508 4.703129-4.70508z" style="fill:#8d9cb0"/>
   </g>
  </g>
  <path d="m33.847398 232.29021v60.41455h9.970762c19.593907 0 22.394175-2.79334 22.394175-22.36889v-15.67677c0-19.57563-2.800268-22.36889-22.394175-22.36889z" style="fill:#ffffff;opacity:.05"/>
  <path d="m23.876639 292.70476c-19.593906 0-22.394175-2.79325-22.394175-22.36884v-7.83837h64.729871v7.83837c0 19.57559-2.800268 22.36884-22.394175 22.36884z" style="fill:#ffffff;opacity:.05"/>
  <path transform="matrix(.13485389 0 0 .13485389 -4.9712557 260.95615)" d="M 361.9375,-212 C 507.2348,-212 528,-191.28677 528,-46.125 V 70.125 C 528,215.28618 507.2348,236 361.9375,236 H 214.0625 C 68.7652,236 48,215.28618 48,70.125 V -46.125 C 48,-191.28677 68.7652,-212 214.0625,-212 Z" clip-path="url(#clipPath1082)" style="fill:none;opacity:.5;stroke-linecap:round;stroke-linejoin:round;stroke-width:8;stroke:url(#linearGradient1108)"/>
 </g>
</svg>
