<svg xmlns="http://www.w3.org/2000/svg" xmlns:xlink="http://www.w3.org/1999/xlink" width="256" height="256" version="1.1" viewBox="0 0 67.73 67.73">
 <defs>
  <linearGradient id="linearGradient1108" x1="296" x2="296" y1="-212" y2="236" gradientUnits="userSpaceOnUse" xlink:href="#linearGradient1013"/>
  <linearGradient id="linearGradient1013">
   <stop offset="0" style="stop-color:#ffffff"/>
   <stop style="stop-color:#ffffff;stop-opacity:0.09803922" offset=".125"/>
   <stop style="stop-color:#000000;stop-opacity:0.09803922" offset=".925"/>
   <stop offset="1" style="stop-color:#000000;stop-opacity:0.49803922"/>
  </linearGradient>
  <clipPath id="clipPath1082-3-361" clipPathUnits="userSpaceOnUse">
   <path d="M 361.9375,-212 C 507.2348,-212 528,-191.28677 528,-46.125 V 70.125 C 528,215.28618 507.2348,236 361.9375,236 H 214.0625 C 68.7652,236 48,215.28618 48,70.125 V -46.125 C 48,-191.28677 68.7652,-212 214.0625,-212 Z" style="fill:#8c59d9"/>
  </clipPath>
  <linearGradient id="linearGradient4245">
   <stop offset="0" style="stop-color:#e8e8e8"/>
   <stop offset="1" style="stop-color:#f5f5f5"/>
  </linearGradient>
  <linearGradient id="linearGradient1044" x1="88" x2="256" y1="28" y2="284" gradientTransform="matrix(0.26970778,0,0,0.26970778,-7.1289169,220.56047)" gradientUnits="userSpaceOnUse" xlink:href="#linearGradient4245"/>
  <filter style="color-interpolation-filters:sRGB" id="filter4569" width="1.023" height="1.025" x="-.01" y="-.01">
   <feGaussianBlur stdDeviation="1.16"/>
  </filter>
  <filter style="color-interpolation-filters:sRGB" id="filter939" width="1.046" height="1.05" x="-.02" y="-.03">
   <feGaussianBlur stdDeviation="2.32"/>
  </filter>
 </defs>
 <g transform="translate(0,-229.26666)">
  <path style="opacity:0.2;filter:url(#filter939)" d="m 162.53675,5.5680001 c 72.64865,0 83.03125,10.3566149 83.03125,82.9375049 v 58.125005 c 0,72.58059 -10.3826,82.9375 -83.03125,82.9375 H 88.599254 C 15.9506,229.56801 5.568,219.2111 5.568,146.63051 V 88.505505 c 0,-72.58089 10.3826,-82.9375049 83.031254,-82.9375049 z" transform="matrix(0.26970779,0,0,0.26970779,-1.9098095e-8,231.46531)"/>
  <path d="m 43.837427,232.42762 c 19.593907,0 22.394175,2.79326 22.394175,22.3689 v 15.67676 c 0,19.57556 -2.800268,22.3689 -22.394175,22.3689 H 23.895909 c -19.5939079,0 -22.394176,-2.79334 -22.394176,-22.3689 v -15.67676 c 0,-19.57564 2.8002681,-22.3689 22.394176,-22.3689 z" style="opacity:0.1;fill:none;stroke:#000000;stroke-width:1.07883108;stroke-linecap:round;stroke-linejoin:round"/>
  <path d="m 162.53675,3.5680001 c 72.64865,0 83.03125,10.3566149 83.03125,82.9375049 v 58.125005 c 0,72.58059 -10.3826,82.9375 -83.03125,82.9375 H 88.599254 C 15.9506,227.56801 5.568,217.2111 5.568,144.63051 V 86.505505 c 0,-72.58089 10.3826,-82.9375049 83.031254,-82.9375049 z" transform="matrix(0.26970779,0,0,0.26970779,-1.9098095e-8,231.46531)" style="opacity:0.1;filter:url(#filter4569)"/>
  <path style="fill:url(#linearGradient1044)" d="m 43.837425,232.42762 c 19.593907,0 22.394175,2.79326 22.394175,22.3689 v 15.67676 c 0,19.57556 -2.800268,22.3689 -22.394175,22.3689 H 23.895906 c -19.5939065,0 -22.3941746,-2.79334 -22.3941746,-22.3689 v -15.67676 c 0,-19.57564 2.8002681,-22.3689 22.3941746,-22.3689 z"/>
  <path d="M 361.9375,-212 C 507.2348,-212 528,-191.28677 528,-46.125 V 70.125 C 528,215.28618 507.2348,236 361.9375,236 H 214.0625 C 68.7652,236 48,215.28618 48,70.125 V -46.125 C 48,-191.28677 68.7652,-212 214.0625,-212 Z" clip-path="url(#clipPath1082-3-361)" transform="matrix(0.1348539,0,0,0.1348539,-4.9712558,261.01666)" style="opacity:0.4;fill:none;stroke:url(#linearGradient1108);stroke-width:8;stroke-linecap:round;stroke-linejoin:round"/>
  <g transform="translate(-0.1354207,-0.72608616)">
   <path d="M 44.46462,81.097636 44.498047,211 H 45 l -0.501953,0.0293 c 0,0 0.103355,1.46818 0.40625,3.21875 0.302891,1.7506 0.771281,3.78774 1.689453,5.05078 1.03457,1.42318 3.070775,2.656 4.865234,3.60156 1.794463,0.94553 3.359375,1.56445 3.359375,1.56445 l 0.08789,0.0391 h 35.189453 l 0.08789,-0.0391 c 0,0 1.564912,-0.61892 3.359375,-1.56445 1.794463,-0.94556 3.830664,-2.17838 4.865234,-3.60156 0.918168,-1.26304 1.386554,-3.30018 1.689459,-5.05078 0.30289,-1.75057 0.39843,-3.21875 0.39843,-3.21875 V 211.0156 81.097636 Z" transform="matrix(0.26458333,0,0,0.26458333,0,229.26666)" style="fill:#d73838"/>
   <path d="m 17.195312,250.69727 v 36.78125 l 0.0026,1.05481 h 3.96875 l -0.0026,-1.05481 v -36.78125 z" style="opacity:0.2"/>
   <g transform="matrix(1.018754,0,0,1.018754,-0.36494243,-4.6757557)">
    <path style="fill:#b7785d" d="M 86.894531,59 H 57.638672 L 45,81 h 55 z" transform="matrix(0.26458333,0,0,0.26458333,0,229.26666)"/>
    <path style="fill:#92604a" d="M 84.509766,55 H 59.935547 l -2.296875,4 h 29.255859 l -2.382812,-4 z" transform="matrix(0.26458333,0,0,0.26458333,0,229.26666)"/>
    <path style="fill:#d73838" d="M 72,34 59.935547,55 h 24.574219 z" transform="matrix(0.26458333,0,0,0.26458333,0,229.26666)"/>
   </g>
   <path style="fill:#ffbc2c" d="m 26.58959,250.72374 0.0088,34.37 h 0.132809 l -0.132809,0.008 c 0,0 0.02735,0.38846 0.107487,0.85163 0.08014,0.46318 0.204068,1.00218 0.447001,1.33635 0.27373,0.37655 0.812476,0.70274 1.28726,0.95292 0.474785,0.25017 0.888835,0.41392 0.888835,0.41392 l 0.02325,0.0103 h 9.310543 l 0.02325,-0.0103 c 0,0 0.41405,-0.16375 0.888835,-0.41392 0.474785,-0.25018 1.013529,-0.57637 1.287259,-0.95292 0.242932,-0.33417 0.36686,-0.87317 0.447003,-1.33635 0.08014,-0.46317 0.105418,-0.85163 0.105418,-0.85163 v -0.004 -34.37413 z"/>
   <path style="opacity:0.2" d="m 32.020305,250.69727 v 36.78125 l 0.0026,1.05481 h 3.96875 l -0.0026,-1.05481 v -36.78125 z"/>
   <g transform="matrix(1.018754,0,0,1.018754,14.46005,-4.6757557)">
    <path d="M 86.894531,59 H 57.638672 L 45,81 h 55 z" transform="matrix(0.26458333,0,0,0.26458333,0,229.26666)" style="fill:#b7785d"/>
    <path d="M 84.509766,55 H 59.935547 l -2.296875,4 h 29.255859 l -2.382812,-4 z" transform="matrix(0.26458333,0,0,0.26458333,0,229.26666)" style="fill:#92604a"/>
    <path d="M 72,34 59.935547,55 h 24.574219 z" transform="matrix(0.26458333,0,0,0.26458333,0,229.26666)" style="fill:#ffbc2c"/>
   </g>
   <path d="m 41.414583,250.72374 0.0088,34.37 h 0.132809 l -0.132809,0.008 c 0,0 0.02735,0.38846 0.107487,0.85163 0.08014,0.46318 0.204068,1.00218 0.447001,1.33635 0.27373,0.37655 0.812476,0.70274 1.28726,0.95292 0.474785,0.25017 0.888835,0.41392 0.888835,0.41392 l 0.02325,0.0103 h 9.310543 l 0.02325,-0.0103 c 0,0 0.41405,-0.16375 0.888835,-0.41392 0.474785,-0.25018 1.013529,-0.57637 1.287259,-0.95292 0.242932,-0.33417 0.36686,-0.87317 0.447003,-1.33635 0.08014,-0.46317 0.105418,-0.85163 0.105418,-0.85163 v -0.004 -34.37413 z" style="fill:#4f82ea"/>
   <path d="m 46.845298,250.69727 v 36.78125 l 0.0026,1.05481 h 3.96875 l -0.0026,-1.05481 v -36.78125 z" style="opacity:0.2"/>
   <g transform="matrix(1.018754,0,0,1.018754,29.285043,-4.6757531)">
    <path style="fill:#b7785d" d="M 86.894531,59 H 57.638672 L 45,81 h 55 z" transform="matrix(0.26458333,0,0,0.26458333,0,229.26666)"/>
    <path style="fill:#92604a" d="M 84.509766,55 H 59.935547 l -2.296875,4 h 29.255859 l -2.382812,-4 z" transform="matrix(0.26458333,0,0,0.26458333,0,229.26666)"/>
    <path style="fill:#4f82ea" d="M 72,34 59.935547,55 h 24.574219 z" transform="matrix(0.26458333,0,0,0.26458333,0,229.26666)"/>
   </g>
  </g>
  <path style="opacity:0.2;fill:#ffffff" d="m 33.866665,232.42762 v 60.41456 h 9.97076 c 19.593907,0 22.394175,-2.79334 22.394175,-22.3689 v -15.67676 c 0,-19.57564 -2.800268,-22.3689 -22.394175,-22.3689 z"/>
 </g>
</svg>
