<svg xmlns="http://www.w3.org/2000/svg" xmlns:xlink="http://www.w3.org/1999/xlink" width="256" height="256" version="1.1" viewBox="0 0 67.73 67.73">
 <defs>
  <filter style="color-interpolation-filters:sRGB" id="filter1178" width="1.027" height="1.021" x="-.01" y="-.01">
   <feGaussianBlur stdDeviation=".658"/>
  </filter>
  <linearGradient id="linearGradient1193" x1="160" x2="160" y1="76" y2="236" gradientTransform="translate(-26.432006,-40.431995)" gradientUnits="userSpaceOnUse" xlink:href="#linearGradient1191"/>
  <linearGradient id="linearGradient1191">
   <stop style="stop-color:#000000;stop-opacity:0" offset="0"/>
   <stop offset=".519" style="stop-color:#000000"/>
   <stop style="stop-color:#000000;stop-opacity:0" offset="1"/>
  </linearGradient>
  <linearGradient id="linearGradient1108" x1="296" x2="296" y1="-212" y2="236" gradientUnits="userSpaceOnUse" xlink:href="#linearGradient1013"/>
  <linearGradient id="linearGradient1013">
   <stop offset="0" style="stop-color:#ffffff"/>
   <stop style="stop-color:#ffffff;stop-opacity:0.09803922" offset=".125"/>
   <stop style="stop-color:#000000;stop-opacity:0.09803922" offset=".925"/>
   <stop offset="1" style="stop-color:#000000;stop-opacity:0.49803922"/>
  </linearGradient>
  <clipPath id="clipPath1082-3-367" clipPathUnits="userSpaceOnUse">
   <path d="M 361.9375,-212 C 507.2348,-212 528,-191.28677 528,-46.125 V 70.125 C 528,215.28618 507.2348,236 361.9375,236 H 214.0625 C 68.7652,236 48,215.28618 48,70.125 V -46.125 C 48,-191.28677 68.7652,-212 214.0625,-212 Z" style="fill:#8c59d9"/>
  </clipPath>
  <linearGradient id="linearGradient4390" x1="256" x2="256" y1="232" y2="400" gradientUnits="userSpaceOnUse" xlink:href="#linearGradient4319"/>
  <linearGradient id="linearGradient4319">
   <stop style="stop-color:#fed965" offset="0"/>
   <stop style="stop-color:#fed965;stop-opacity:0" offset="1"/>
  </linearGradient>
  <linearGradient id="linearGradient4394" x1="256" x2="256" y1="232" y2="472" gradientTransform="translate(-40)" gradientUnits="userSpaceOnUse" xlink:href="#linearGradient4319"/>
  <linearGradient id="linearGradient4398" x1="256" x2="256" y1="200" y2="400" gradientTransform="translate(-80)" gradientUnits="userSpaceOnUse" xlink:href="#linearGradient4319"/>
  <linearGradient id="linearGradient4402" x1="256" x2="256" y1="152" y2="368" gradientTransform="translate(-120)" gradientUnits="userSpaceOnUse" xlink:href="#linearGradient4319"/>
  <linearGradient id="linearGradient4406" x1="256" x2="256" y1="112" y2="408" gradientTransform="translate(-160)" gradientUnits="userSpaceOnUse" xlink:href="#linearGradient4319"/>
  <linearGradient id="linearGradient4411" x1="256" x2="256" y1="160" y2="312" gradientTransform="translate(-200)" gradientUnits="userSpaceOnUse" xlink:href="#linearGradient4319"/>
  <linearGradient id="linearGradient4415" x1="256" x2="256" y1="160" y2="544" gradientTransform="translate(40)" gradientUnits="userSpaceOnUse" xlink:href="#linearGradient4319"/>
  <linearGradient id="linearGradient4419" x1="256" x2="256" y1="208" y2="456" gradientTransform="translate(80)" gradientUnits="userSpaceOnUse" xlink:href="#linearGradient4319"/>
  <linearGradient id="linearGradient4423" x1="256" x2="256" y1="176" y2="368" gradientTransform="translate(120)" gradientUnits="userSpaceOnUse" xlink:href="#linearGradient4319"/>
  <linearGradient id="linearGradient4427" x1="256" x2="256" y1="185.898" y2="376" gradientTransform="translate(160)" gradientUnits="userSpaceOnUse" xlink:href="#linearGradient4319"/>
  <linearGradient id="linearGradient4431" x1="256" x2="256" y1="128" y2="352" gradientTransform="translate(200)" gradientUnits="userSpaceOnUse" xlink:href="#linearGradient4319"/>
  <linearGradient id="linearGradient4368" x1="288" x2="288" y1="296" y2="72" gradientUnits="userSpaceOnUse" xlink:href="#linearGradient4287"/>
  <linearGradient id="linearGradient4287">
   <stop offset="0" style="stop-color:#ff9169"/>
   <stop offset="1" style="stop-color:#f09778;stop-opacity:0"/>
  </linearGradient>
  <linearGradient id="linearGradient4366" x1="216" x2="218" y1="326.102" y2="-32" gradientUnits="userSpaceOnUse" xlink:href="#linearGradient4287"/>
  <linearGradient id="linearGradient4364" x1="177.6" x2="176" y1="264" y2="136" gradientUnits="userSpaceOnUse" xlink:href="#linearGradient4287"/>
  <linearGradient id="linearGradient4362" x1="136" x2="136" y1="312" y2="80" gradientUnits="userSpaceOnUse" xlink:href="#linearGradient4287"/>
  <linearGradient id="linearGradient4360" x1="96.8" x2="96.8" y1="352" y2="162.4" gradientUnits="userSpaceOnUse" xlink:href="#linearGradient4287"/>
  <linearGradient id="linearGradient4358" x1="56" x2="56" y1="360" y2="184" gradientUnits="userSpaceOnUse" xlink:href="#linearGradient4287"/>
  <linearGradient id="linearGradient4356" x1="296" x2="296" y1="280" y2="72" gradientUnits="userSpaceOnUse" xlink:href="#linearGradient4287"/>
  <linearGradient id="linearGradient4354" x1="336" x2="336" y1="288" y2="152" gradientUnits="userSpaceOnUse" xlink:href="#linearGradient4287"/>
  <linearGradient id="linearGradient4352" x1="376" x2="376" y1="304" y2="96" gradientUnits="userSpaceOnUse" xlink:href="#linearGradient4287"/>
  <linearGradient id="linearGradient4350" x1="416" x2="416" y1="336" y2="128" gradientUnits="userSpaceOnUse" xlink:href="#linearGradient4287"/>
  <linearGradient id="linearGradient4348" x1="456" x2="456" y1="368" y2="192" gradientUnits="userSpaceOnUse" xlink:href="#linearGradient4287"/>
  <filter style="color-interpolation-filters:sRGB" id="filter1112" width="1.046" height="1.05" x="-.02" y="-.03">
   <feGaussianBlur stdDeviation="2.32"/>
  </filter>
  <filter style="color-interpolation-filters:sRGB" id="filter4569" width="1.023" height="1.025" x="-.01" y="-.01">
   <feGaussianBlur stdDeviation="1.16"/>
  </filter>
  <linearGradient id="linearGradient4290">
   <stop style="stop-color:#e72662" offset="0"/>
   <stop offset=".483" style="stop-color:#ec3c50"/>
   <stop style="stop-color:#ff7b66" offset="1"/>
  </linearGradient>
  <linearGradient id="linearGradient1010" x1="35.34" x2="35.34" y1="286.531" y2="237.848" gradientUnits="userSpaceOnUse" xlink:href="#linearGradient4290"/>
 </defs>
 <g transform="translate(0,-229.26666)">
  <path d="m 162.53675,3.5680001 c 72.64865,0 83.03125,10.3566149 83.03125,82.9375049 v 58.125005 c 0,72.58059 -10.3826,82.9375 -83.03125,82.9375 H 88.599254 C 15.9506,227.56801 5.568,217.2111 5.568,144.63051 V 86.505505 c 0,-72.58089 10.3826,-82.9375049 83.031254,-82.9375049 z" transform="matrix(0.26458333,0,0,0.26458333,-1.8735229e-8,232.67026)" style="opacity:0.1;filter:url(#filter4569)"/>
  <path style="opacity:0.2;filter:url(#filter1112)" d="m 162.53675,5.5680001 c 72.64865,0 83.03125,10.3566149 83.03125,82.9375049 v 58.125005 c 0,72.58059 -10.3826,82.9375 -83.03125,82.9375 H 88.599254 C 15.9506,229.56801 5.568,219.2111 5.568,146.63051 V 88.505505 c 0,-72.58089 10.3826,-82.9375049 83.031254,-82.9375049 z" transform="matrix(0.26458333,0,0,0.26458333,-1.8735229e-8,232.67026)"/>
  <path style="fill:#f7f7f7" d="m 43.004513,233.61429 c 19.221622,0 21.968685,2.74019 21.968685,21.94388 v 15.37891 c 0,19.20362 -2.747063,21.94388 -21.968685,21.94388 h -19.56263 c -19.221622,0 -21.968685,-2.74026 -21.968685,-21.94388 v -15.37891 c 0,-19.20369 2.747063,-21.94388 21.968685,-21.94388 z"/>
  <g style="opacity:0.5;enable-background:new" transform="matrix(0.13229167,0,0,0.13229167,-0.64346802,229.38096)">
   <path d="m 272,72 v 16 h 32 V 72 Z m 0,24 v 16 h 32 V 96 Z m 0,24 v 16 h 32 v -16 z m 0,24 v 16 h 32 v -16 z m 0,24 v 16 h 32 v -16 z m 0,24 v 16 h 32 v -16 z m 0,24 v 16 h 32 v -16 z m 0,24 v 16 h 32 v -16 z m 0,24 v 16 h 32 v -16 z" transform="translate(-32,-32)" style="fill:url(#linearGradient4368)"/>
   <path style="fill:url(#linearGradient4366)" d="m 200,40 v 16 h 32 V 40 Z m 0,24 v 16 h 32 V 64 Z m 0,24 v 16 h 32 V 88 Z m 0,24 v 16 h 32 v -16 z m 0,24 v 16 h 32 v -16 z m 0,24 v 16 h 32 v -16 z m 0,24 v 16 h 32 v -16 z m 0,24 v 16 h 32 v -16 z m 0,24 v 16 h 32 v -16 z"/>
   <path d="m 160,40 v 16 h 32 V 40 Z m 0,24 v 16 h 32 V 64 Z m 0,24 v 16 h 32 V 88 Z m 0,24 v 16 h 32 v -16 z m 0,24 v 16 h 32 v -16 z m 0,24 v 16 h 32 v -16 z m 0,24 v 16 h 32 v -16 z m 0,24 v 16 h 32 v -16 z m 0,24 v 16 h 32 v -16 z" style="fill:url(#linearGradient4364)"/>
   <path style="fill:url(#linearGradient4362)" d="m 120,40 v 16 h 32 V 40 Z m 0,24 v 16 h 32 V 64 Z m 0,24 v 16 h 32 V 88 Z m 0,24 v 16 h 32 v -16 z m 0,24 v 16 h 32 v -16 z m 0,24 v 16 h 32 v -16 z m 0,24 v 16 h 32 v -16 z m 0,24 v 16 h 32 v -16 z m 0,24 v 16 h 32 v -16 z"/>
   <path d="m 80,40 v 16 h 32 V 40 Z m 0,24 v 16 h 32 V 64 Z m 0,24 v 16 h 32 V 88 Z m 0,24 v 16 h 32 v -16 z m 0,24 v 16 h 32 v -16 z m 0,24 v 16 h 32 v -16 z m 0,24 v 16 h 32 v -16 z m 0,24 v 16 h 32 v -16 z m 0,24 v 16 h 32 v -16 z" style="fill:url(#linearGradient4360)"/>
   <path style="fill:url(#linearGradient4358)" d="M 40,40 V 56 H 72 V 40 Z m 0,24 V 80 H 72 V 64 Z m 0,24 v 16 H 72 V 88 Z m 0,24 v 16 h 32 v -16 z m 0,24 v 16 h 32 v -16 z m 0,24 v 16 h 32 v -16 z m 0,24 v 16 h 32 v -16 z m 0,24 v 16 h 32 v -16 z m 0,24 v 16 h 32 v -16 z"/>
   <path style="fill:url(#linearGradient4356)" d="m 280,40 v 16 h 32 V 40 Z m 0,24 v 16 h 32 V 64 Z m 0,24 v 16 h 32 V 88 Z m 0,24 v 16 h 32 v -16 z m 0,24 v 16 h 32 v -16 z m 0,24 v 16 h 32 v -16 z m 0,24 v 16 h 32 v -16 z m 0,24 v 16 h 32 v -16 z m 0,24 v 16 h 32 v -16 z"/>
   <path d="m 320,40 v 16 h 32 V 40 Z m 0,24 v 16 h 32 V 64 Z m 0,24 v 16 h 32 V 88 Z m 0,24 v 16 h 32 v -16 z m 0,24 v 16 h 32 v -16 z m 0,24 v 16 h 32 v -16 z m 0,24 v 16 h 32 v -16 z m 0,24 v 16 h 32 v -16 z m 0,24 v 16 h 32 v -16 z" style="fill:url(#linearGradient4354)"/>
   <path style="fill:url(#linearGradient4352)" d="m 360,40 v 16 h 32 V 40 Z m 0,24 v 16 h 32 V 64 Z m 0,24 v 16 h 32 V 88 Z m 0,24 v 16 h 32 v -16 z m 0,24 v 16 h 32 v -16 z m 0,24 v 16 h 32 v -16 z m 0,24 v 16 h 32 v -16 z m 0,24 v 16 h 32 v -16 z m 0,24 v 16 h 32 v -16 z"/>
   <path d="m 400,40 v 16 h 32 V 40 Z m 0,24 v 16 h 32 V 64 Z m 0,24 v 16 h 32 V 88 Z m 0,24 v 16 h 32 v -16 z m 0,24 v 16 h 32 v -16 z m 0,24 v 16 h 32 v -16 z m 0,24 v 16 h 32 v -16 z m 0,24 v 16 h 32 v -16 z m 0,24 v 16 h 32 v -16 z" style="fill:url(#linearGradient4350)"/>
   <path style="fill:url(#linearGradient4348)" d="m 440,40 v 16 h 32 V 40 Z m 0,24 v 16 h 32 V 64 Z m 0,24 v 16 h 32 V 88 Z m 0,24 v 16 h 32 v -16 z m 0,24 v 16 h 32 v -16 z m 0,24 v 16 h 32 v -16 z m 0,24 v 16 h 32 v -16 z m 0,24 v 16 h 32 v -16 z m 0,24 v 16 h 32 v -16 z"/>
  </g>
  <g style="opacity:0.5;enable-background:new" transform="matrix(0.13229167,0,0,0.13229167,-0.64346802,229.38096)">
   <path style="opacity:0.46700003;fill:url(#linearGradient4390)" d="m 240,264 v 16 h 32 v -16 z m 0,24 v 16 h 32 v -16 z m 0,24 v 16 h 32 v -16 z m 0,24 v 16 h 32 v -16 z m 0,24 v 16 h 32 v -16 z m 0,24 v 16 h 32 v -16 z m 0,24 v 16 h 32 v -16 z m 0,24 v 16 h 32 v -16 z m 0,24 v 16 h 32 v -16 z"/>
   <path d="m 200,264 v 16 h 32 v -16 z m 0,24 v 16 h 32 v -16 z m 0,24 v 16 h 32 v -16 z m 0,24 v 16 h 32 v -16 z m 0,24 v 16 h 32 v -16 z m 0,24 v 16 h 32 v -16 z m 0,24 v 16 h 32 v -16 z m 0,24 v 16 h 32 v -16 z m 0,24 v 16 h 32 v -16 z" style="opacity:0.46700003;fill:url(#linearGradient4394)"/>
   <path style="opacity:0.46700003;fill:url(#linearGradient4398)" d="m 160,264 v 16 h 32 v -16 z m 0,24 v 16 h 32 v -16 z m 0,24 v 16 h 32 v -16 z m 0,24 v 16 h 32 v -16 z m 0,24 v 16 h 32 v -16 z m 0,24 v 16 h 32 v -16 z m 0,24 v 16 h 32 v -16 z m 0,24 v 16 h 32 v -16 z m 0,24 v 16 h 32 v -16 z"/>
   <path d="m 120,264 v 16 h 32 v -16 z m 0,24 v 16 h 32 v -16 z m 0,24 v 16 h 32 v -16 z m 0,24 v 16 h 32 v -16 z m 0,24 v 16 h 32 v -16 z m 0,24 v 16 h 32 v -16 z m 0,24 v 16 h 32 v -16 z m 0,24 v 16 h 32 v -16 z m 0,24 v 16 h 32 v -16 z" style="opacity:0.46700003;fill:url(#linearGradient4402)"/>
   <path style="opacity:0.46700003;fill:url(#linearGradient4406)" d="m 80,264 v 16 h 32 v -16 z m 0,24 v 16 h 32 v -16 z m 0,24 v 16 h 32 v -16 z m 0,24 v 16 h 32 v -16 z m 0,24 v 16 h 32 v -16 z m 0,24 v 16 h 32 v -16 z m 0,24 v 16 h 32 v -16 z m 0,24 v 16 h 32 v -16 z m 0,24 v 16 h 32 v -16 z"/>
   <path d="m 40,264 v 16 h 32 v -16 z m 0,24 v 16 h 32 v -16 z m 0,24 v 16 h 32 v -16 z m 0,24 v 16 h 32 v -16 z m 0,24 v 16 h 32 v -16 z m 0,24 v 16 h 32 v -16 z m 0,24 v 16 h 32 v -16 z m 0,24 v 16 h 32 v -16 z m 0,24 v 16 h 32 v -16 z" style="opacity:0.46700003;fill:url(#linearGradient4411)"/>
   <path d="m 280,264 v 16 h 32 v -16 z m 0,24 v 16 h 32 v -16 z m 0,24 v 16 h 32 v -16 z m 0,24 v 16 h 32 v -16 z m 0,24 v 16 h 32 v -16 z m 0,24 v 16 h 32 v -16 z m 0,24 v 16 h 32 v -16 z m 0,24 v 16 h 32 v -16 z m 0,24 v 16 h 32 v -16 z" style="opacity:0.46700003;fill:url(#linearGradient4415)"/>
   <path style="opacity:0.46700003;fill:url(#linearGradient4419)" d="m 320,264 v 16 h 32 v -16 z m 0,24 v 16 h 32 v -16 z m 0,24 v 16 h 32 v -16 z m 0,24 v 16 h 32 v -16 z m 0,24 v 16 h 32 v -16 z m 0,24 v 16 h 32 v -16 z m 0,24 v 16 h 32 v -16 z m 0,24 v 16 h 32 v -16 z m 0,24 v 16 h 32 v -16 z"/>
   <path d="m 360,264 v 16 h 32 v -16 z m 0,24 v 16 h 32 v -16 z m 0,24 v 16 h 32 v -16 z m 0,24 v 16 h 32 v -16 z m 0,24 v 16 h 32 v -16 z m 0,24 v 16 h 32 v -16 z m 0,24 v 16 h 32 v -16 z m 0,24 v 16 h 32 v -16 z m 0,24 v 16 h 32 v -16 z" style="opacity:0.46700003;fill:url(#linearGradient4423)"/>
   <path style="opacity:0.46700003;fill:url(#linearGradient4427)" d="m 400,264 v 16 h 32 v -16 z m 0,24 v 16 h 32 v -16 z m 0,24 v 16 h 32 v -16 z m 0,24 v 16 h 32 v -16 z m 0,24 v 16 h 32 v -16 z m 0,24 v 16 h 32 v -16 z m 0,24 v 16 h 32 v -16 z m 0,24 v 16 h 32 v -16 z m 0,24 v 16 h 32 v -16 z"/>
   <path d="m 440,264 v 16 h 32 v -16 z m 0,24 v 16 h 32 v -16 z m 0,24 v 16 h 32 v -16 z m 0,24 v 16 h 32 v -16 z m 0,24 v 16 h 32 v -16 z m 0,24 v 16 h 32 v -16 z m 0,24 v 16 h 32 v -16 z m 0,24 v 16 h 32 v -16 z m 0,24 v 16 h 32 v -16 z" style="opacity:0.46700003;fill:url(#linearGradient4431)"/>
  </g>
  <path style="opacity:0.1;fill:#ffffff" d="m 1.473198,263.24763 v 7.68945 c 0,19.20362 2.747063,21.94388 21.968685,21.94388 h 19.56263 c 19.221622,0 21.968685,-2.74026 21.968685,-21.94388 v -7.68945 z"/>
  <path d="M 361.9375,-212 C 507.2348,-212 528,-191.28677 528,-46.125 V 70.125 C 528,215.28618 507.2348,236 361.9375,236 H 214.0625 C 68.7652,236 48,215.28618 48,70.125 V -46.125 C 48,-191.28677 68.7652,-212 214.0625,-212 Z" clip-path="url(#clipPath1082-3-367)" transform="matrix(0.13229167,0,0,0.13229167,-4.876802,261.66013)" style="opacity:0.4;fill:none;stroke:url(#linearGradient1108);stroke-width:8;stroke-linecap:round;stroke-linejoin:round"/>
  <path d="m 167.8883,44.134411 c -1.87857,-0.0209 -4.37616,0.272105 -7.69922,0.771485 l -53.27148,8.455078 c -13.350286,2.84277 -13.304466,3.727015 -13.349606,15.005861 v 22.08594 11.115235 58.31445 c -0.55679,-0.39 -1.10598,-0.78219 -1.68164,-1.16797 v 0.004 c -4.24148,-2.84237 -8.76205,-4.86522 -14.83398,-4.86523 -7.605519,0 -12.141098,2.91223 -14.886724,6.74804 -2.745605,3.83581 -3.65625,8.67073 -3.65625,12.40821 0,4.5069 1.538792,9.31691 4.876953,12.98242 3.33817,3.6655 8.470411,6.23232 15.849611,6.23242 8.3328,0 14.19429,-2.32681 17.50781,-6.87109 2.6089,-3.57788 4.051556,-8.35783 4.566406,-14.25391 v -0.01 -0.006 c 0.0721,-0.7153 0.1244,-1.45005 0.16992,-2.20703 0.0699,-1.16546 0.0547,-3.3457 0.0547,-3.3457 V 95.458345 c 0,-10.01023 -4.9e-4,-10.60779 13.35351,-12.89062 l 37.29883,-6.16797 c 13.37805,-1.75035 13.38085,-0.52302 13.38085,6.98466 v 6.18359 58.123055 c -0.54184,-0.37965 -1.07687,-0.76155 -1.63672,-1.13672 v 0.004 c -4.24148,-2.84237 -8.76009,-4.86521 -14.83203,-4.86523 -7.60555,0 -12.14304,2.91224 -14.88867,6.74805 -2.7456,3.83581 -3.65625,8.6707 -3.65625,12.4082 0,4.50688 1.54074,9.31693 4.8789,12.98242 3.33817,3.6655 8.47036,6.23426 15.84961,6.23438 8.3328,0 14.1943,-2.32877 17.50782,-6.87305 2.6089,-3.57788 4.04961,-8.35586 4.56445,-14.25195 v -0.01 -0.008 c 0.0721,-0.71533 0.12443,-1.44811 0.16992,-2.20508 0.0699,-1.16547 0.0566,-3.34766 0.0566,-3.34766 V 75.876595 55.884411 c 0,-8.77962 -0.0577,-11.68721 -5.69336,-11.75 z" transform="matrix(0.26458333,0,0,0.26458333,-1.8735229e-8,232.67026)" style="opacity:0.4;fill:url(#linearGradient1193);filter:url(#filter1197)"/>
  <path d="m 167.8883,43.134411 c -1.87857,-0.0209 -4.37616,0.272105 -7.69922,0.771485 l -53.27148,8.455078 c -13.350286,2.84277 -13.304466,3.727015 -13.349606,15.005861 v 22.08594 11.115235 58.31445 c -0.55679,-0.39 -1.10598,-0.78219 -1.68164,-1.16797 v 0.004 c -4.24148,-2.84237 -8.76205,-4.86522 -14.83398,-4.86523 -7.605519,0 -12.141098,2.91223 -14.886724,6.74804 -2.745605,3.83581 -3.65625,8.67073 -3.65625,12.40821 0,4.5069 1.538792,9.31691 4.876953,12.98242 3.33817,3.6655 8.470411,6.23232 15.849611,6.23242 8.3328,0 14.19429,-2.32681 17.50781,-6.87109 2.6089,-3.57788 4.051556,-8.35783 4.566406,-14.25391 v -0.01 -0.006 c 0.0721,-0.7153 0.1244,-1.45005 0.16992,-2.20703 0.0699,-1.16546 0.0547,-3.3457 0.0547,-3.3457 V 94.458345 c 0,-10.01023 -4.9e-4,-10.60779 13.35351,-12.89062 l 37.29883,-6.16797 c 13.37805,-1.75035 13.38085,-0.52302 13.38085,6.98466 v 6.18359 58.123055 c -0.54184,-0.37965 -1.07687,-0.76155 -1.63672,-1.13672 v 0.004 c -4.24148,-2.84237 -8.76009,-4.86521 -14.83203,-4.86523 -7.60555,0 -12.14304,2.91224 -14.88867,6.74805 -2.7456,3.83581 -3.65625,8.6707 -3.65625,12.4082 0,4.50688 1.54074,9.31693 4.8789,12.98242 3.33817,3.6655 8.47036,6.23426 15.84961,6.23438 8.3328,0 14.1943,-2.32877 17.50782,-6.87305 2.6089,-3.57788 4.04961,-8.35586 4.56445,-14.25195 v -0.01 -0.008 c 0.0721,-0.71533 0.12443,-1.44811 0.16992,-2.20508 0.0699,-1.16547 0.0566,-3.34766 0.0566,-3.34766 V 74.876595 54.884411 c 0,-8.77962 -0.0577,-11.68721 -5.69336,-11.75 z" transform="matrix(0.26458333,0,0,0.26458333,-1.8735229e-8,232.67026)" style="opacity:0.1;filter:url(#filter1178)"/>
  <path style="fill:url(#linearGradient1010)" d="m 44.420446,243.81832 c -0.497038,-0.006 -1.157859,0.072 -2.037085,0.20413 l -14.094746,2.23707 c -3.532263,0.75215 -3.52014,0.9861 -3.532083,3.9703 v 5.84357 2.9409 15.42904 c -0.147318,-0.10319 -0.292624,-0.20696 -0.444934,-0.30903 v 10e-4 c -1.122225,-0.75204 -2.318293,-1.28726 -3.924824,-1.28726 -2.012294,0 -3.212332,0.77053 -3.938779,1.78542 -0.726441,1.01489 -0.967383,2.29413 -0.967383,3.28301 0,1.19245 0.407139,2.4651 1.290361,3.43493 0.883224,0.96983 2.241129,1.64897 4.193543,1.64899 2.20472,0 3.755572,-0.61563 4.632274,-1.81797 0.690272,-0.94665 1.071974,-2.21135 1.208195,-3.77135 v -0.003 -0.002 c 0.01908,-0.18926 0.03291,-0.38366 0.04496,-0.58395 0.0185,-0.30836 0.01447,-0.88521 0.01447,-0.88521 v -18.53996 c 0,-2.64854 -1.3e-4,-2.80664 3.533116,-3.41064 l 9.868649,-1.63194 c 3.539609,-0.46312 3.54035,-0.13839 3.54035,1.84802 v 1.63607 15.3784 c -0.143362,-0.10045 -0.284922,-0.2015 -0.433049,-0.30076 v 0.001 c -1.122225,-0.75205 -2.317774,-1.28726 -3.924308,-1.28726 -2.012302,0 -3.212846,0.77053 -3.939294,1.78542 -0.72644,1.01489 -0.967383,2.29412 -0.967383,3.283 0,1.19245 0.407654,2.46511 1.290876,3.43494 0.883224,0.96983 2.241116,1.64948 4.193543,1.64951 2.20472,0 3.755575,-0.61616 4.632277,-1.8185 0.690271,-0.94664 1.071459,-2.21082 1.207677,-3.77082 v -0.003 -0.002 c 0.01908,-0.18926 0.03292,-0.38314 0.04496,-0.58342 0.0185,-0.30837 0.01498,-0.88574 0.01498,-0.88574 v -20.50357 -5.2896 c 0,-2.32294 -0.01527,-3.09224 -1.506368,-3.10886 z"/>
  <path style="fill:#ffffff" d="m 44.420446,243.81832 c -0.497038,-0.006 -1.157859,0.072 -2.037085,0.20413 l -14.094746,2.23707 c -3.532263,0.75215 -3.52014,0.9861 -3.532083,3.9703 v 0.52917 c 0.01193,-2.9842 -1.8e-4,-3.21816 3.532083,-3.97031 l 14.094746,-2.23707 c 0.879226,-0.13213 1.540047,-0.20965 2.037085,-0.20412 1.491102,0.0166 1.506368,0.78591 1.506368,3.10885 v -0.52916 c 0,-2.32294 -0.01527,-3.09224 -1.506368,-3.10886 z m -4.971272,25.81238 c -2.012302,0 -3.212846,0.77053 -3.939294,1.78542 -0.72644,1.0149 -0.967383,2.29413 -0.967383,3.28301 0,0.0739 0.0061,0.14879 0.0093,0.22324 0.04546,-0.93743 0.304088,-2.0634 0.958083,-2.97708 0.726448,-1.01489 1.926992,-1.78542 3.939294,-1.78542 1.606534,0 2.802083,0.53521 3.924308,1.28726 v -0.001 c 0.148127,0.0993 0.289687,0.20031 0.433049,0.30076 v -0.52917 c -0.143362,-0.10045 -0.284922,-0.20149 -0.433049,-0.30076 v 10e-4 c -1.122225,-0.75204 -2.317774,-1.28725 -3.924308,-1.28726 z m -19.0624,3.21738 c -2.012295,0 -3.212332,0.77053 -3.938779,1.78542 -0.726441,1.01489 -0.967383,2.29413 -0.967383,3.283 0,0.0739 0.0062,0.14879 0.0093,0.22324 0.04545,-0.93742 0.304087,-2.0634 0.958081,-2.97708 0.726447,-1.01489 1.926484,-1.78542 3.938778,-1.78542 1.606531,1e-5 2.802599,0.53522 3.924824,1.28726 v -10e-4 c 0.15231,0.10207 0.297616,0.20583 0.444934,0.30902 v -0.52917 c -0.147318,-0.10318 -0.292624,-0.20695 -0.444934,-0.30902 v 0.001 c -1.122225,-0.75205 -2.318293,-1.28726 -3.924824,-1.28726 z"/>
 </g>
</svg>
