<svg xmlns="http://www.w3.org/2000/svg" xmlns:xlink="http://www.w3.org/1999/xlink" width="256" height="256" version="1.0" style="enable-background:new">
 <defs>
  <filter style="color-interpolation-filters:sRGB" id="filter925" width="1.046" height="1.05" x="-.02" y="-.03">
   <feGaussianBlur stdDeviation="2.32"/>
  </filter>
  <filter style="color-interpolation-filters:sRGB" id="filter931" width="1.023" height="1.025" x="-.01" y="-.01">
   <feGaussianBlur stdDeviation="1.16"/>
  </filter>
  <linearGradient id="linearGradient1108" x1="296" x2="296" y1="-212" y2="236" gradientUnits="userSpaceOnUse" xlink:href="#linearGradient1013"/>
  <linearGradient id="linearGradient1013">
   <stop offset="0" style="stop-color:#ffffff"/>
   <stop style="stop-color:#ffffff;stop-opacity:0.09803922" offset=".125"/>
   <stop style="stop-color:#000000;stop-opacity:0.09803922" offset=".925"/>
   <stop offset="1" style="stop-color:#000000;stop-opacity:0.49803922"/>
  </linearGradient>
  <clipPath id="clipPath1082-3" clipPathUnits="userSpaceOnUse">
   <path d="M 361.9375,-212 C 507.2348,-212 528,-191.28677 528,-46.125 V 70.125 C 528,215.28618 507.2348,236 361.9375,236 H 214.0625 C 68.7652,236 48,215.28618 48,70.125 V -46.125 C 48,-191.28677 68.7652,-212 214.0625,-212 Z" style="fill:#8c59d9"/>
  </clipPath>
  <radialGradient id="radialGradient9547" cx="21.333" cy="-36.857" r="8" gradientTransform="matrix(4.3601744,6.1362719e-7,5.1450058e-7,-3.723302,-166.50511,29.306745)" gradientUnits="userSpaceOnUse">
   <stop style="stop-color:#f0f0f0" offset="0"/>
   <stop style="stop-color:#a9a9a9" offset="1"/>
  </radialGradient>
  <linearGradient id="linearGradient7475" x1="20.405" x2="20.405" y1="6.988" y2="9.119" gradientTransform="matrix(3.5557558,0,0,-3.5486452,-148.63027,204.34513)" gradientUnits="userSpaceOnUse" xlink:href="#linearGradient3494"/>
  <linearGradient id="linearGradient3494">
   <stop style="stop-color:#282828;stop-opacity:.82353" offset="0"/>
   <stop style="stop-color:#282828;stop-opacity:0" offset="1"/>
  </linearGradient>
  <linearGradient id="linearGradient7469" x1="20.405" x2="20.405" y1="6.988" y2="9.119" gradientTransform="matrix(3.5557558,0,0,-3.5486452,-132.53128,204.34513)" gradientUnits="userSpaceOnUse" xlink:href="#linearGradient3494"/>
 </defs>
 <g transform="translate(0,-44)">
  <g>
   <g>
    <path d="m 162.53675,62.431991 c 72.64865,0 83.03125,10.356615 83.03125,82.937499 v 58.125 c 0,72.58059 -10.3826,82.9375 -83.03125,82.9375 h -73.9375 c -72.64865,0 -83.0312501,-10.35691 -83.0312501,-82.9375 v -58.125 c 0,-72.580884 10.3826001,-82.937499 83.0312501,-82.937499 z" style="opacity:0.2;filter:url(#filter925)"/>
    <path style="opacity:0.1;filter:url(#filter931)" d="m 162.53675,61.431991 c 72.64865,0 83.03125,10.356615 83.03125,82.937499 v 58.125 c 0,72.58059 -10.3826,82.9375 -83.03125,82.9375 h -73.9375 c -72.64865,0 -83.0312501,-10.35691 -83.0312501,-82.9375 v -58.125 c 0,-72.580884 10.3826001,-82.937499 83.0312501,-82.937499 z"/>
   </g>
   <g>
    <path style="fill:#fb7c38" d="m 162.53675,60.431991 c 72.64865,0 83.03125,10.356615 83.03125,82.937499 v 58.125 c 0,72.58059 -10.3826,82.9375 -83.03125,82.9375 h -73.9375 c -72.64865,0 -83.0312501,-10.35691 -83.0312501,-82.9375 v -58.125 c 0,-72.580884 10.3826001,-82.937499 83.0312501,-82.937499 z"/>
   </g>
   <g>
    <path d="M 361.9375,-212 C 507.2348,-212 528,-191.28677 528,-46.125 V 70.125 C 528,215.28618 507.2348,236 361.9375,236 H 214.0625 C 68.7652,236 48,215.28618 48,70.125 V -46.125 C 48,-191.28677 68.7652,-212 214.0625,-212 Z" clip-path="url(#clipPath1082-3)" transform="matrix(0.5,0,0,0.5,-18.432,166.43199)" style="opacity:0.4;fill:none;stroke:url(#linearGradient1108);stroke-width:8;stroke-linecap:round;stroke-linejoin:round"/>
    <g transform="translate(261.98143,14.645257)">
     <path style="fill:url(#radialGradient9547)" d="m -86.729402,186.84687 h 37.21731 c 0.83944,0 1.51523,-0.68198 1.51523,-1.52912 V 147.7582 c 0,-0.84714 -0.67579,-1.52916 -1.51523,-1.52916 h -37.21731 c -0.83944,0 -1.51522,0.68202 -1.51522,1.52916 v 37.55955 c 0,0.84714 0.67578,1.52912 1.51522,1.52912 z"/>
     <path style="opacity:0.88172003;fill:url(#linearGradient7475)" d="m -80.302402,178.83166 h 8.2642 v -8.34021 h -8.2642 z"/>
     <path style="opacity:0.88172003;fill:url(#linearGradient7469)" d="m -64.203262,178.83166 h 8.2642 v -8.34021 h -8.2642 z"/>
     <path style="fill:#ff2a00" d="m -91.934022,70.40922 h 47.62652 c 2.41554,0 4.36018,1.957455 4.36018,4.388901 v 83.289299 c 0,2.43145 -1.94464,4.3889 -4.36018,4.3889 h -47.62652 c -2.41554,0 -4.36018,-1.95745 -4.36018,-4.3889 V 74.798121 c 0,-2.431446 1.94464,-4.388901 4.36018,-4.388901 z"/>
     <path style="fill:#ad0c6d;fill-rule:evenodd" d="m -187.32381,137.55759 a 23.46653,23.46653 0 0 1 -14.16809,30.01032 23.46653,23.46653 0 0 1 -30.01035,-14.16809 23.46653,23.46653 0 0 1 14.16809,-30.01031 23.46653,23.46653 0 0 1 30.01035,14.16808 z"/>
     <path style="fill:#009fff;fill-rule:evenodd" d="m -150.87655,124.48746 a 23.46653,23.46653 0 0 1 -14.16809,30.01032 23.46653,23.46653 0 0 1 -30.01036,-14.16813 23.46653,23.46653 0 0 1 14.1681,-30.01032 23.46653,23.46653 0 0 1 30.01035,14.16813 z"/>
     <path style="fill:#ff001d;fill-rule:evenodd" d="m -114.42927,111.41717 a 23.46653,23.46653 0 0 1 -14.16808,30.0104 23.46653,23.46653 0 0 1 -30.01037,-14.16817 23.46653,23.46653 0 0 1 14.16809,-30.010357 23.46653,23.46653 0 0 1 30.01036,14.168127 z"/>
     <path style="fill:#9be01f;fill-rule:evenodd" d="m -77.982172,98.347716 a 23.46653,23.46653 0 0 1 -14.1681,30.010394 23.46653,23.46653 0 0 1 -30.010348,-14.16809 23.46653,23.46653 0 0 1 14.16809,-30.010432 23.46653,23.46653 0 0 1 30.010358,14.168128 z"/>
     <path style="fill:#ffffff;fill-rule:evenodd" d="m -41.534842,85.27773 a 23.46653,23.46653 0 0 1 -14.1681,30.01032 23.46653,23.46653 0 0 1 -30.01035,-14.16809 23.46653,23.46653 0 0 1 14.16809,-30.010356 23.46653,23.46653 0 0 1 30.01036,14.168126 z"/>
     <g transform="matrix(3.5576981,-1.2757793,1.2757793,3.5576981,-161.74033,-850.74744)" style="font-size:6.28625298px;line-height:0%;letter-spacing:0px;word-spacing:0px;fill:#ffffff">
      <path d="m -104.75162,239.58819 h 1.72116 l 2.1786,5.80961 2.190046,-5.80961 h 1.721157 v 8.53716 h -1.126471 v -7.49646 l -2.201482,5.85536 h -1.16078 l -2.20148,-5.85536 v 7.49646 h -1.12075 z"/>
     </g>
     <g transform="matrix(3.5576981,-1.2757793,1.2757793,3.5576981,-161.99699,-850.96133)" style="font-size:6.28625298px;line-height:0%;letter-spacing:0px;word-spacing:0px;fill:#ffffff">
      <path d="m -93.831546,239.58819 h 1.16078 v 5.18634 q 0,1.37235 0.497477,1.97847 0.497477,0.6004 1.612512,0.6004 1.109316,0 1.606793,-0.6004 0.497478,-0.60612 0.497478,-1.97847 v -5.18634 h 1.160779 v 5.32929 q 0,1.66969 -0.829128,2.5217 -0.82341,0.852 -2.435922,0.852 -1.61823,0 -2.447359,-0.852 -0.82341,-0.85201 -0.82341,-2.5217 z"/>
     </g>
     <g transform="matrix(3.5576981,-1.2757793,1.2757793,3.5576981,-162.76141,-850.38222)" style="font-size:6.28625298px;line-height:0%;letter-spacing:0px;word-spacing:0px;fill:#ffffff">
      <path d="m -82.710245,239.58819 h 1.155062 v 7.56508 h 4.157078 v 0.97208 h -5.31214 z"/>
     </g>
     <g transform="matrix(3.5576981,-1.2757793,1.2757793,3.5576981,-163.15692,-850.21419)" style="font-size:6.28625298px;line-height:0%;letter-spacing:0px;word-spacing:0px;fill:#ffffff">
      <path d="m -73.338577,239.58819 h 7.221995 v 0.97208 h -3.030607 v 7.56508 h -1.16078 v -7.56508 h -3.030608 z"/>
     </g>
     <g transform="matrix(3.5576981,-1.2757793,1.2757793,3.5576981,-162.27029,-850.55783)" style="font-size:6.28625298px;line-height:0%;letter-spacing:0px;word-spacing:0px;fill:#ffffff">
      <path d="m -60.296259,239.58819 h 1.155062 v 8.53716 h -1.155062 z"/>
     </g>
     <g transform="matrix(3.2921429,0,0,4.3390669,-250.73109,-837.46828)" style="font-size:6.28625298px;line-height:0%;letter-spacing:0px;word-spacing:0px;fill:#353535">
      <path d="m 16.636752,240.98609 v 1.85917 q -0.723661,-0.32359 -1.412023,-0.48833 -0.688361,-0.16474 -1.300238,-0.16474 -0.811913,0 -1.200219,0.22357 -0.388306,0.22358 -0.388306,0.69425 0,0.35301 0.25887,0.55304 0.264755,0.19416 0.953116,0.33536 l 0.964882,0.19415 q 1.464974,0.29417 2.082734,0.89428 0.61776,0.60011 0.61776,1.7062 0,1.4532 -0.864864,2.1651 -0.85898,0.70601 -2.629893,0.70601 -0.835447,0 -1.676777,-0.15885 -0.84133,-0.15886 -1.682661,-0.47068 v -1.91211 q 0.841331,0.44714 1.623827,0.67659 0.788379,0.22357 1.517925,0.22357 0.741312,0 1.135501,-0.2471 0.39419,-0.24711 0.39419,-0.70601 0,-0.41184 -0.270638,-0.63541 -0.264754,-0.22357 -1.0649,-0.40008 l -0.876631,-0.19415 q -1.317888,-0.2824 -1.929765,-0.90016 -0.605993,-0.61776 -0.605993,-1.66501 0,-1.31201 0.847214,-2.01802 0.847213,-0.70601 2.435739,-0.70601 0.723662,0 1.488508,0.11178 0.764846,0.1059 1.582642,0.32359 z" style="fill:#353535"/>
      <path d="m 17.984058,240.70957 h 2.476924 l 2.000366,3.12998 2.000365,-3.12998 h 2.482808 l -3.347672,5.08328 v 3.70068 h -2.26512 v -3.70068 z" style="fill:#353535"/>
      <path d="m 34.051704,240.98609 v 1.85917 q -0.723662,-0.32359 -1.412023,-0.48833 -0.688362,-0.16474 -1.300238,-0.16474 -0.811913,0 -1.20022,0.22357 -0.388306,0.22358 -0.388306,0.69425 0,0.35301 0.258871,0.55304 0.264754,0.19416 0.953115,0.33536 l 0.964883,0.19415 q 1.464974,0.29417 2.082734,0.89428 0.61776,0.60011 0.61776,1.7062 0,1.4532 -0.864864,2.1651 -0.858981,0.70601 -2.629893,0.70601 -0.835447,0 -1.676778,-0.15885 -0.84133,-0.15886 -1.68266,-0.47068 v -1.91211 q 0.84133,0.44714 1.623826,0.67659 0.78838,0.22357 1.517925,0.22357 0.741312,0 1.135502,-0.2471 0.394189,-0.24711 0.394189,-0.70601 0,-0.41184 -0.270637,-0.63541 -0.264755,-0.22357 -1.064901,-0.40008 l -0.876631,-0.19415 q -1.317888,-0.2824 -1.929765,-0.90016 -0.605993,-0.61776 -0.605993,-1.66501 0,-1.31201 0.847214,-2.01802 0.847214,-0.70601 2.43574,-0.70601 0.723661,0 1.488507,0.11178 0.764846,0.1059 1.582643,0.32359 z" style="fill:#353535"/>
      <path d="m 35.575511,240.70957 h 8.095599 v 1.71208 h -2.912298 v 7.07188 h -2.26512 v -7.07188 h -2.918181 z" style="fill:#353535"/>
      <path d="m 44.83603,240.70957 h 6.112883 v 1.71208 H 47.10115 v 1.63559 h 3.618309 v 1.71208 H 47.10115 v 2.01213 h 3.977198 v 1.71208 H 44.83603 Z" style="fill:#353535"/>
      <path d="m 53.072831,240.70957 h 2.88288 l 2.000366,4.70086 2.012133,-4.70086 h 2.876997 v 8.78396 h -2.141568 v -6.4247 l -2.0239,4.73616 h -1.435557 l -2.023899,-4.73616 v 6.4247 h -2.147452 z" style="fill:#353535"/>
     </g>
    </g>
   </g>
  </g>
 </g>
</svg>
