<svg xmlns="http://www.w3.org/2000/svg" width="256" height="256" version="1.1" viewBox="0 0 67.73 67.73">
 <defs>
  <linearGradient id="linearGradient1108" x1="296" x2="296" y1="-212" y2="236" gradientUnits="userSpaceOnUse">
   <stop offset="0" style="stop-color:#ffffff"/>
   <stop offset=".125" style="stop-color:#ffffff;stop-opacity:.09803922"/>
   <stop offset=".925" style="stop-color:#000000;stop-opacity:.09803922"/>
   <stop offset="1" style="stop-color:#000000;stop-opacity:.49803922"/>
  </linearGradient>
  <filter style="color-interpolation-filters:sRGB" id="filter1040" width="1.046" height="1.05" x="-.02" y="-.03">
   <feGaussianBlur stdDeviation="2.32"/>
  </filter>
  <filter style="color-interpolation-filters:sRGB" id="filter4569" width="1.023" height="1.025" x="-.01" y="-.01">
   <feGaussianBlur stdDeviation="1.16"/>
  </filter>
  <linearGradient id="linearGradient1614" x1="61.531" x2="232.485" y1="75.548" y2="220.783" gradientTransform="matrix(.26970778 0 0 .26970778 -7.1289166 220.56049)" gradientUnits="userSpaceOnUse">
   <stop offset="0" style="stop-color:#1268f4"/>
   <stop offset="1" style="stop-color:#02bdfd"/>
  </linearGradient>
  <linearGradient id="linearGradient4470" x1="256" x2="256" y1="375" y2="135.281" gradientTransform="matrix(.13485389 0 0 .13485389 -.05496138 228.11623)" gradientUnits="userSpaceOnUse">
   <stop offset="0" style="stop-color:#f37e40"/>
   <stop offset="1" style="stop-color:#f34f17"/>
  </linearGradient>
  <filter style="color-interpolation-filters:sRGB" id="filter4460" width="1.026" height="1.023" x="-.01" y="-.01">
   <feGaussianBlur stdDeviation="1.133"/>
  </filter>
  <linearGradient id="linearGradient4413" x1="256" x2="256" y1="138" y2="375" gradientUnits="userSpaceOnUse">
   <stop offset="0" style="stop-color:#000000;stop-opacity:0"/>
   <stop offset=".505" style="stop-color:#000000"/>
   <stop offset="1" style="stop-color:#000000;stop-opacity:0"/>
  </linearGradient>
 </defs>
 <g transform="translate(0,-229.26666)">
  <path style="opacity:0.1;filter:url(#filter4569)" d="m 188.96876,43.999995 c 72.64865,0 83.03125,10.356615 83.03125,82.937505 v 58.125 c 0,72.58059 -10.3826,82.9375 -83.03125,82.9375 h -73.9375 C 42.382606,268 32.000006,257.64309 32.000006,185.0625 v -58.125 c 0,-72.58089 10.3826,-82.937505 83.031254,-82.937505 z" transform="matrix(0.26970778,0,0,0.26970778,-7.1289177,220.56049)"/>
  <path style="opacity:0.2;filter:url(#filter1040)" d="m 188.96876,45.999995 c 72.64865,0 83.03125,10.356615 83.03125,82.937505 v 58.125 c 0,72.58059 -10.3826,82.9375 -83.03125,82.9375 h -73.9375 C 42.382606,270 32.000006,259.64309 32.000006,187.0625 v -58.125 c 0,-72.58089 10.3826,-82.937505 83.031254,-82.937505 z" transform="matrix(0.26970778,0,0,0.26970778,-7.1289177,220.56049)"/>
  <path style="fill:url(#linearGradient1614)" d="m 43.837427,232.42763 c 19.593907,0 22.394175,2.79326 22.394175,22.36889 v 15.67677 c 0,19.57555 -2.800268,22.36888 -22.394175,22.36888 h -19.94152 c -19.593906,0 -22.394174,-2.79333 -22.394174,-22.36888 v -15.67677 c 0,-19.57563 2.8002681,-22.36889 22.394174,-22.36889 z"/>
  <path style="opacity:0.4;isolation:isolate;fill:#ffffff" d="m 51.227432,292.5982 c 6.680401,-0.463 10.368246,-2.02635 12.203306,-4.89455 0.90192,-1.33952 1.626578,-3.32803 2.05042,-5.62212 1.350896,-7.31114 0.599516,-17.77251 0.689735,-20.60712 -2.848629,0.36908 -5.208332,2.49358 -5.827162,5.36284 -0.106092,0.1389 -0.207158,0.28177 -0.302933,0.42807 -0.403998,-0.16297 -0.835777,-0.2471 -1.271525,-0.24816 -1.830826,0.002 -3.335437,1.44535 -3.414015,3.27458 -1.799872,0.27384 -3.58043,0.66355 -5.330298,1.16676 -0.840011,-2.53882 -3.211884,-4.25376 -5.885896,-4.25588 -3.274322,0.004 -5.982199,2.55099 -6.186183,5.8187 -0.432043,-0.0863 -0.871494,-0.12991 -1.312268,-0.13044 -3.712451,2.6e-4 -6.722203,3.00976 -6.722203,6.72247 0.0021,1.17972 0.314574,2.33801 0.905889,3.35846 -1.102729,1.13024 -2.141168,2.32134 -3.110818,3.56773 -2.235619,-1.71945 -4.665169,-3.17061 -7.238909,-4.32414 -0.180966,-2.68063 -2.407854,-4.76253 -5.09483,-4.76306 -0.331507,0.002 -0.66222,0.0355 -0.987376,0.10107 -0.698995,-2.51713 -2.990704,-4.25906 -5.6030706,-4.25932 -3.2118839,2.6e-4 -5.8155203,2.6039 -5.8152557,5.81578 7.937e-4,0.0315 0.00212,0.0632 0.00317,0.0947 -0.3254215,0.0291 -0.7288912,0.032 -1.1582888,0.0291 0.066143,0.63206 0.6614259,8.04003 4.233125,10.32195 q 3.3732715,3.00949 14.0883691,3.2685 h 26.721602 q 2.198314,-0.0614 4.36541,-0.22594 z"/>
  <path style="opacity:0.05;fill-opacity:0" d="m 28.919212,244.83419 -4.745168,9.66312 v 7.99009 c -0.666168,0.78054 -1.394285,1.56707 -2.153449,2.32623 -2.495217,2.49522 -5.292704,4.67765 -7.164112,5.30145 l -3.15221,-3.148 -9.6631259,4.74518 v 23.01787 H 36.563742 v -42.82454 c -2.07899,-4.51001 -4.364969,-6.19265 -7.64453,-7.0714 z m -13.156681,30.88154 c 0.0011,-5.3e-4 0.0032,5.3e-4 0.0042,0 -0.352069,0.21986 -0.708115,0.43513 -1.066187,0.64899 0.358161,-0.21383 0.70983,-0.42916 1.061979,-0.64899 z m -3.249135,1.89638 c 0.0011,-5.3e-4 0.0032,5.3e-4 0.0042,0 -0.369748,0.20216 -0.745556,0.40194 -1.120973,0.59842 0.375469,-0.19646 0.746964,-0.39628 1.116766,-0.59842 z"/>
  <path d="m 214.0625,-216 c -72.83873,0 -115.522633,4.88257 -140.34375,29.67188 C 48.897633,-161.53882 44,-118.89662 44,-46.125 v 116.25 c 0,72.77132 4.897641,115.41375 29.71875,140.20312 C 98.539859,235.1175 141.22377,240 214.0625,240 h 147.875 c 72.83873,0 115.52264,-4.8825 140.34375,-29.67188 C 527.10236,185.53875 532,142.89632 532,70.125 v -116.25 c 0,-72.77162 -4.89763,-115.41382 -29.71875,-140.20312 C 477.46013,-211.11743 434.77623,-216 361.9375,-216 Z m 0,8 h 147.875 c 72.45857,0 112.8056,5.47428 134.69141,27.33203 C 518.51471,-158.81021 524,-118.51515 524,-46.125 v 116.25 c 0,72.38986 -5.48528,112.68514 -27.37109,134.54297 C 474.74309,226.5258 434.39607,232 361.9375,232 H 214.0625 C 141.60393,232 101.25691,226.5258 79.371094,204.66797 57.485278,182.81014 52,142.51486 52,70.125 v -116.25 c 0,-72.39015 5.485286,-112.68521 27.371094,-134.54297 C 101.2569,-202.52572 141.60393,-208 214.0625,-208 Z" transform="matrix(0.13485389,0,0,0.13485389,-4.9712555,261.01666)" style="font-variation-settings:normal;inline-size:0;opacity:0.5;fill:url(#linearGradient1108);stop-color:#000000"/>
  <path style="opacity:0.4;fill:url(#linearGradient4413);filter:url(#filter4415)" d="m 155.41127,137.99999 v 239.99999 c 0,0 121.72498,-49.19762 221.18971,-120.07579 0,-0.0217 -0.0115,-0.0398 -0.0253,-0.0645 -0.0115,-0.0263 -0.0264,-0.0523 -0.0448,-0.0786 -0.0191,-0.026 -0.0374,-0.0533 -0.0504,-0.0786 -0.0147,-0.0262 -0.0253,-0.0526 -0.0253,-0.0758 C 271.53919,184.48813 155.41146,138.00011 155.41146,138.00011 Z" transform="matrix(0.13485389,0,0,0.13485389,-0.05496138,228.11624)"/>
  <path style="opacity:0.1;filter:url(#filter4460)" d="m 155.41127,137.99999 v 239.99999 c 0,0 121.72498,-49.19762 221.18971,-120.07579 0,-0.0217 -0.0115,-0.0398 -0.0253,-0.0645 -0.0115,-0.0263 -0.0264,-0.0523 -0.0448,-0.0786 -0.0191,-0.026 -0.0374,-0.0533 -0.0504,-0.0786 -0.0147,-0.0262 -0.0253,-0.0526 -0.0253,-0.0758 C 271.53919,184.48813 155.41146,138.00011 155.41146,138.00011 Z" transform="matrix(0.13485389,0,0,0.13485389,-0.05496138,228.11624)"/>
  <path style="fill:url(#linearGradient4470)" d="m 20.902852,246.45636 v 32.36494 c 0,0 16.415084,-6.63449 29.82829,-16.19269 0,-0.003 -0.0016,-0.005 -0.0034,-0.009 -0.0016,-0.004 -0.0036,-0.007 -0.006,-0.0106 -0.0027,-0.004 -0.0051,-0.007 -0.0068,-0.0106 -0.0019,-0.004 -0.0034,-0.007 -0.0034,-0.0102 -14.14842,-9.86273 -29.808693,-16.13182 -29.808693,-16.13182 z"/>
  <path style="fill:#ffbc8d" d="m 20.902775,246.45636 v 0.26971 c 0,0 15.553919,6.22466 29.653557,16.02549 0.05815,-0.0413 0.116816,-0.0816 0.17489,-0.123 0,-0.003 -0.0016,-0.005 -0.0034,-0.009 -0.0016,-0.004 -0.0036,-0.007 -0.0061,-0.0106 -0.0027,-0.004 -0.0051,-0.007 -0.0069,-0.0106 -0.0019,-0.004 -0.0034,-0.007 -0.0034,-0.0103 -14.148242,-9.86255 -29.808603,-16.1317 -29.808603,-16.1317 z"/>
 </g>
</svg>
