<svg xmlns="http://www.w3.org/2000/svg" xmlns:xlink="http://www.w3.org/1999/xlink" width="256" height="256" version="1.1" viewBox="0 0 67.73 67.73">
 <defs>
  <linearGradient id="linearGradient1108" x1="296" x2="296" y1="-212" y2="236" gradientUnits="userSpaceOnUse" xlink:href="#linearGradient1013"/>
  <linearGradient id="linearGradient1013">
   <stop offset="0" style="stop-color:#ffffff"/>
   <stop style="stop-color:#ffffff;stop-opacity:0.09803922" offset=".125"/>
   <stop style="stop-color:#000000;stop-opacity:0.09803922" offset=".925"/>
   <stop offset="1" style="stop-color:#000000;stop-opacity:0.49803922"/>
  </linearGradient>
  <clipPath id="clipPath1082-3-3675" clipPathUnits="userSpaceOnUse">
   <path d="M 361.9375,-212 C 507.2348,-212 528,-191.28677 528,-46.125 V 70.125 C 528,215.28618 507.2348,236 361.9375,236 H 214.0625 C 68.7652,236 48,215.28618 48,70.125 V -46.125 C 48,-191.28677 68.7652,-212 214.0625,-212 Z" style="fill:#8c59d9"/>
  </clipPath>
  <filter style="color-interpolation-filters:sRGB" id="filter974" width="1.046" height="1.05" x="-.02" y="-.03">
   <feGaussianBlur stdDeviation="2.32"/>
  </filter>
 </defs>
 <g transform="translate(0,-229.26666)">
  <path d="m 162.53675,5.5680001 c 72.64865,0 83.03125,10.3566149 83.03125,82.9375049 v 58.125005 c 0,72.58059 -10.3826,82.9375 -83.03125,82.9375 H 88.599254 C 15.9506,229.56801 5.568,219.2111 5.568,146.63051 V 88.505505 c 0,-72.58089 10.3826,-82.9375049 83.031254,-82.9375049 z" transform="matrix(0.26458333,0,0,0.26458333,-1.873523e-8,232.67026)" style="opacity:0.2;filter:url(#filter974)"/>
  <path style="fill:#6f6f6f" d="m 43.004513,233.61429 c 19.221622,0 21.968685,2.74019 21.968685,21.94388 v 15.37891 c 0,19.20362 -2.747063,21.94388 -21.968685,21.94388 h -19.56263 c -19.2216217,0 -21.9686846,-2.74026 -21.9686846,-21.94388 v -15.37891 c 0,-19.20369 2.7470629,-21.94388 21.9686846,-21.94388 z"/>
  <path style="opacity:0.2;fill:#ffffff" d="m 1.4731984,263.24763 v 7.68945 c 0,19.20362 2.7470629,21.94388 21.9686846,21.94388 h 19.56263 c 19.221622,0 21.968685,-2.74026 21.968685,-21.94388 v -7.68945 z"/>
  <path d="M 361.9375,-212 C 507.2348,-212 528,-191.28677 528,-46.125 V 70.125 C 528,215.28618 507.2348,236 361.9375,236 H 214.0625 C 68.7652,236 48,215.28618 48,70.125 V -46.125 C 48,-191.28677 68.7652,-212 214.0625,-212 Z" clip-path="url(#clipPath1082-3-3675)" transform="matrix(0.13229167,0,0,0.13229167,-4.8768016,261.66013)" style="opacity:0.4;fill:none;stroke:url(#linearGradient1108);stroke-width:8;stroke-linecap:round;stroke-linejoin:round"/>
  <g transform="matrix(0.49787966,0,0,0.49787966,-65.271478,226.46054)" style="enable-background:new">
   <g transform="translate(0.94804903,1.3809805)">
    <g transform="translate(-0.60804249,5.4316022)">
     <path style="fill:#e49a0e;stroke:#000000;stroke-width:0.86184663;stroke-linecap:round;stroke-linejoin:bevel" d="m 191.54689,24.9376 c -0.86383,0.178039 -1.76161,0.380814 -2.70217,0.608406 -16.17317,3.91144 -25.71212,13.037604 -27.45803,26.269767 -0.4868,3.689325 -0.39473,4.987405 0.82386,11.65723 l 1.37129,7.505602 -1.67903,1.364405 c -2.12788,1.728434 -3.96114,4.706131 -4.90923,7.972623 -0.60719,2.092044 -0.91132,3.345265 -0.25429,6.941042 0.65695,3.595772 1.40131,4.75239 2.70412,6.467641 2.78778,3.670358 6.64514,5.918029 11.00799,6.412704 1.92447,0.2182 6.03772,-0.617441 8.00367,-1.625829 3.15525,-1.618458 3.06335,-2.371855 -0.62062,-5.112859 -6.74514,-5.018675 -8.73006,-9.157989 -11.39654,-23.762907 -2.68332,-14.697781 -2.35327,-19.6443 1.76032,-26.398449 2.5952,-4.261172 4.69511,-6.297235 9.47323,-9.187053 6.23874,-3.773176 12.6295,-5.955632 18.60786,-6.354467 9.25291,-0.6173 16.08938,0.94566 21.79804,4.984639 7.04372,4.983569 9.06374,9.144794 11.85816,24.429066 2.67422,14.628886 2.34085,18.938174 -2.02511,26.103373 -2.31813,3.804374 -2.32084,3.813747 -1.14985,4.642241 0.64544,0.456651 2.24529,0.787594 3.55585,0.734788 6.97019,-0.280891 12.49893,-4.638703 14.51913,-11.443595 0.71995,-2.425089 0.98023,-3.525677 0.29678,-7.272073 -0.65624,-3.597276 -1.33848,-4.708465 -2.64175,-6.424344 -2.03418,-2.678178 -4.79099,-4.75038 -7.38043,-5.548228 l -2.04344,-0.630071 -1.37125,-7.505604 c -1.21268,-6.637335 -1.59512,-7.921803 -3.31243,-11.100767 -4.47928,-8.29222 -10.55942,-12.468665 -20.50428,-14.08536 -5.89702,-0.958646 -10.28562,-0.892467 -16.33169,0.358093 z m -22.54905,44.727983 c -1.21971,0.240607 -1.2288,0.323059 -0.54704,4.859894 0.38148,2.538446 1.15222,5.767912 1.71328,7.176904 2.04214,5.128716 7.91361,12.025485 10.73323,12.608177 1.43291,0.296127 1.64605,0.271315 2.53365,-0.299261 1.23978,-0.796979 0.55163,-1.976638 -2.48246,-4.254421 -5.04256,-3.785642 -7.62812,-8.04656 -9.56046,-15.754099 -1.1197,-4.46606 -1.18088,-4.575767 -2.3902,-4.337194 z m 58.56645,-11.553494 c -1.20932,0.238564 -1.22669,0.36374 -0.69331,4.945493 0.92041,7.907161 0.0162,12.856417 -3.3399,18.298974 -1.94237,3.149464 -2.23799,4.638799 -0.97698,4.918285 1.43275,0.317545 3.12851,-0.930059 4.5955,-3.381849 1.82856,-3.056153 3.51076,-9.2253 3.57455,-13.108027 0.026,-1.540763 -0.3965,-4.852325 -0.93685,-7.359427 -0.96572,-4.480842 -1.0033,-4.554066 -2.22301,-4.313449 z"/>
     <path style="fill:#080808" d="m 223.43544,62.591016 c 4.7981,21.063564 -1.67949,49.054754 -13.73522,51.880804 -7.26817,1.70377 -17.14061,-1.13851 -28.08147,-17.748316 -7.20677,-10.940884 -19.0022,-38.74985 -16.20885,-36.573317 3.04486,2.372485 8.71622,6.289423 8.98991,-0.761553 0.17258,-4.444023 2.68272,-9.471579 -0.42049,-13.692713 -2.2017,-2.994843 10.82025,4.539265 3.83142,-12.17532 -1.21926,-2.915944 11.48175,22.493168 9.29605,-7.461488 0,0 18.96056,29.985619 10.27473,-6.269379 -1.48812,-6.211432 10.82926,43.652798 13.87263,9.816493 0.52496,-5.836869 2.7441,39.748088 11.02132,5.324362 2.12023,-8.817645 0.6409,25.381626 1.15997,27.660427 z"/>
     <path d="m 221.5399,64.707764 c 4.2934,19.475756 -1.50285,45.356926 -12.29044,47.969936 -10.78758,2.61301 -25.13972,-11.05693 -29.4331,-30.532686 -4.29339,-19.475753 3.09777,-37.382235 13.88537,-39.995253 10.78755,-2.613021 23.54476,3.082251 27.83817,22.558003 z" style="fill:#ec9801"/>
     <path d="m 214.64305,58.597266 c -0.13488,0.0069 -0.26628,0.04446 -0.3838,0.110994 l -14.41572,7.908129 -15.71861,-0.612718 c -0.0292,-0.0015 -0.0584,-0.0015 -0.0876,0 -1.13009,0.03178 -1.11034,1.718295 0.0194,1.723692 l 7.92305,2.370044 4.93059,-1.871794 -10.07959,5.531298 c -1.03455,0.544152 -0.18715,2.090668 0.82821,1.511609 l 12.60452,-6.911614 15.09916,0.585782 c 1.23812,0.147712 1.30964,-1.772114 0.0638,-1.716954 l -12.23081,-0.478049 5.80947,-1.506682 6.08132,-5.014413 c 0.83723,-0.42308 0.49172,-1.689975 -0.4444,-1.629425 z"/>
     <path d="m 216.34585,75.466066 c -2.49426,-0.133986 -5.36481,1.247178 -7.73644,2.168077 -2.27989,0.885291 -3.74508,3.354428 -6.0666,4.124077 -4.45787,1.477911 -10.21146,-2.063229 -14.07571,0.60598 -2.78806,1.925883 -5.22297,6.599813 -4.00622,9.34564 3.83052,8.64429 7.73554,12.9018 13.71212,17.10901 2.13385,1.50213 4.79663,2.42222 7.4031,2.5485 1.91092,0.0925 3.85328,-0.51328 5.58184,-1.33317 0.96487,-0.45766 1.83786,-1.14538 2.5485,-1.94251 1.15864,-1.29974 1.96099,-2.90058 2.66971,-4.49103 1.05189,-2.36056 1.64509,-4.901391 2.30611,-7.399772 1.01673,-3.842729 2.70766,-7.67998 2.54849,-11.651751 -0.11682,-2.915073 -0.086,-6.808501 -2.54849,-8.372701 -0.71586,-0.45471 -1.50498,-0.665688 -2.33641,-0.71035 z m -10.16372,22.310379 a 4.2471808,3.3284026 0 0 1 4.2486,3.329565 4.2471808,3.3284026 0 0 1 -4.2486,3.32616 4.2471808,3.3284026 0 0 1 -4.24526,-3.32616 4.2471808,3.3284026 0 0 1 4.24526,-3.329565 z"/>
     <path d="m 190.65087,97.291439 c 0,0 -4.70688,-3.094963 -5.06771,-5.582011 -0.4384,-3.02151 1.43835,-6.553359 3.97557,-8.251665 2.32326,-1.555095 5.57975,-0.36865 8.37302,-0.485392 1.57666,-0.06591 3.22099,0.331812 4.73258,-0.121334 2.41904,-0.725218 4.20965,-2.803885 6.43141,-4.004485 1.60811,-0.868973 3.19032,-1.912119 4.97527,-2.30561 1.22455,-0.269961 2.6103,-0.496357 3.76182,0 0.91969,0.396421 1.65185,1.271027 2.06291,2.184261 0.93343,2.073787 0.60673,6.795491 0.60673,6.795491 0,0 -1.66034,4.108514 -1.66034,3.501772 0,-0.60674 -2.82951,-5.321992 -2.82951,-5.321992 l -24.9977,6.916835 z" style="fill:#ffffff"/>
    </g>
   </g>
  </g>
 </g>
</svg>
