<svg xmlns="http://www.w3.org/2000/svg" xmlns:xlink="http://www.w3.org/1999/xlink" width="256" height="256" version="1.1" viewBox="0 0 67.73 67.73">
 <defs>
  <linearGradient id="linearGradient1108" x1="296" x2="296" y1="-212" y2="236" gradientUnits="userSpaceOnUse" xlink:href="#linearGradient1013"/>
  <linearGradient id="linearGradient1013">
   <stop offset="0" style="stop-color:#ffffff"/>
   <stop style="stop-color:#ffffff;stop-opacity:0.09803922" offset=".125"/>
   <stop style="stop-color:#000000;stop-opacity:0.09803922" offset=".925"/>
   <stop offset="1" style="stop-color:#000000;stop-opacity:0.49803922"/>
  </linearGradient>
  <clipPath id="clipPath1082-3-3675" clipPathUnits="userSpaceOnUse">
   <path d="M 361.9375,-212 C 507.2348,-212 528,-191.28677 528,-46.125 V 70.125 C 528,215.28618 507.2348,236 361.9375,236 H 214.0625 C 68.7652,236 48,215.28618 48,70.125 V -46.125 C 48,-191.28677 68.7652,-212 214.0625,-212 Z" style="fill:#8c59d9"/>
  </clipPath>
  <filter style="color-interpolation-filters:sRGB" id="filter931" width="1.023" height="1.025" x="-.01" y="-.01">
   <feGaussianBlur stdDeviation="1.16"/>
  </filter>
  <filter style="color-interpolation-filters:sRGB" id="filter925" width="1.046" height="1.05" x="-.02" y="-.03">
   <feGaussianBlur stdDeviation="2.32"/>
  </filter>
  <filter style="color-interpolation-filters:sRGB" id="filter1673" width="1.105" height="1.088" x="-.05" y="-.04">
   <feGaussianBlur stdDeviation=".827"/>
  </filter>
 </defs>
 <g transform="translate(0,-229.26666)">
  <path d="m 162.53675,5.568 c 72.64865,0 83.03125,10.356615 83.03125,82.9375 v 58.125 c 0,72.58059 -10.3826,82.9375 -83.03125,82.9375 H 88.59925 C 15.9506,229.568 5.5679999,219.21109 5.5679999,146.6305 V 88.5055 C 5.5679999,15.924615 15.9506,5.568 88.59925,5.568 Z" transform="matrix(0.26458333,0,0,0.26458333,0,232.67026)" style="opacity:0.2;filter:url(#filter925)"/>
  <path style="opacity:0.1;filter:url(#filter931)" d="m 162.53675,4.568 c 72.64865,0 83.03125,10.356615 83.03125,82.9375 v 58.125 c 0,72.58059 -10.3826,82.9375 -83.03125,82.9375 H 88.59925 C 15.9506,228.568 5.5679999,218.21109 5.5679999,145.6305 V 87.5055 C 5.5679999,14.924615 15.9506,4.568 88.59925,4.568 Z" transform="matrix(0.26458333,0,0,0.26458333,0,232.67026)"/>
  <g transform="matrix(0.26458333,0,0,0.26458333,-6.9934648,221.97263)" style="fill:#69b876;enable-background:new">
   <path d="M 188.96875,44.000002 C 261.61739,43.999999 272,54.356621 272,126.9375 v 58.125 C 271.99999,257.64309 261.61739,268 188.96875,268 H 115.03124 C 42.3826,268.00001 32,257.64309 32,185.0625 v -58.125 C 32,54.356619 42.3826,43.999996 115.03125,44 Z" style="fill:#69b876"/>
  </g>
  <path d="M 361.9375,-212 C 507.2348,-212 528,-191.28677 528,-46.125 V 70.125 C 528,215.28618 507.2348,236 361.9375,236 H 214.0625 C 68.7652,236 48,215.28618 48,70.125 V -46.125 C 48,-191.28677 68.7652,-212 214.0625,-212 Z" clip-path="url(#clipPath1082-3-3675)" transform="matrix(0.13229167,0,0,0.13229167,-4.8768,261.66013)" style="opacity:0.4;fill:none;stroke:url(#linearGradient1108);stroke-width:8;stroke-linecap:round;stroke-linejoin:round"/>
  <path d="m 30.889869,240.75804 c -9.138202,0 -16.494769,7.38842 -16.494769,16.56595 v 11.95254 c 0,5.81456 0.04698,13.93435 0.04698,13.93435 0.862488,1.64606 2.960032,2.37329 4.118086,2.31267 1.417583,-0.0263 2.994257,0.29609 4.355034,-2.06889 0,0 1.40325,1.2877 2.276893,1.59882 1.535851,0.54693 3.30277,0.77103 4.878266,0.35174 1.182451,-0.31469 3.045565,-2.04901 3.045565,-2.04901 0,0 2.962494,2.5155 5.437805,2.41665 2.433754,0.019 3.99301,-1.09891 5.025925,-2.10928 0,0 2.249435,2.07266 4.205364,2.03626 1.487192,-0.0277 3.431767,-0.658 4.2182,-2.58073 l 0.04522,-13.84258 v -11.95254 c 0,-9.17753 -7.356563,-16.56595 -16.494768,-16.56595 z m -9.168126,11.6142 c 2.614037,0 4.733129,2.11909 4.733129,4.73312 0,2.61404 -2.119092,4.73313 -4.733129,4.73313 -2.614036,0 -4.733129,-2.11909 -4.733129,-4.73313 0,-0.10635 0.0046,-0.21155 0.01156,-0.31615 0.0937,0.90375 0.854773,1.59081 1.763368,1.59188 0.980262,0 1.774921,-0.79466 1.774923,-1.77492 4e-6,-0.98027 -0.794657,-1.77493 -1.774923,-1.77493 -0.683326,0.001 -1.305309,0.39448 -1.59928,1.01134 0.553209,-1.99998 2.38147,-3.47034 4.557485,-3.47034 z m 17.512578,0 c 2.614037,0 4.733129,2.11909 4.733129,4.73312 0,2.61404 -2.119092,4.73313 -4.733129,4.73313 -2.614036,0 -4.733129,-2.11909 -4.733129,-4.73313 0,-0.10635 0.0046,-0.21155 0.01156,-0.31615 0.0937,0.90375 0.854773,1.59081 1.763368,1.59188 0.980262,0 1.774921,-0.79466 1.774923,-1.77492 4e-6,-0.98027 -0.794657,-1.77493 -1.774923,-1.77493 -0.683326,0.001 -1.305309,0.39448 -1.59928,1.01134 0.553208,-1.99998 2.381469,-3.47034 4.557485,-3.47034 z" style="opacity:0.3;fill:#006110;filter:url(#filter1673)"/>
  <path style="fill:#ffffff" d="m 30.889869,240.75804 c -9.138202,0 -16.494769,7.38842 -16.494769,16.56595 v 11.95254 c 0,5.81456 0.04698,13.93435 0.04698,13.93435 0.862488,1.64606 2.960032,2.37329 4.118086,2.31267 1.417583,-0.0263 2.994257,0.29609 4.355034,-2.06889 0,0 1.40325,1.2877 2.276893,1.59882 1.535851,0.54693 3.30277,0.77103 4.878266,0.35174 1.182451,-0.31469 3.045565,-2.04901 3.045565,-2.04901 0,0 2.962494,2.5155 5.437805,2.41665 2.433754,0.019 3.99301,-1.09891 5.025925,-2.10928 0,0 2.249435,2.07266 4.205364,2.03626 1.487192,-0.0277 3.431767,-0.658 4.2182,-2.58073 l 0.04522,-13.84258 v -11.95254 c 0,-9.17753 -7.356563,-16.56595 -16.494768,-16.56595 z m -9.168126,11.6142 c 2.614037,0 4.733129,2.11909 4.733129,4.73312 0,2.61404 -2.119092,4.73313 -4.733129,4.73313 -2.614036,0 -4.733129,-2.11909 -4.733129,-4.73313 0,-0.10635 0.0046,-0.21155 0.01156,-0.31615 0.0937,0.90375 0.854773,1.59081 1.763368,1.59188 0.980262,0 1.774921,-0.79466 1.774923,-1.77492 4e-6,-0.98027 -0.794657,-1.77493 -1.774923,-1.77493 -0.683326,0.001 -1.305309,0.39448 -1.59928,1.01134 0.553209,-1.99998 2.38147,-3.47034 4.557485,-3.47034 z m 17.512578,0 c 2.614037,0 4.733129,2.11909 4.733129,4.73312 0,2.61404 -2.119092,4.73313 -4.733129,4.73313 -2.614036,0 -4.733129,-2.11909 -4.733129,-4.73313 0,-0.10635 0.0046,-0.21155 0.01156,-0.31615 0.0937,0.90375 0.854773,1.59081 1.763368,1.59188 0.980262,0 1.774921,-0.79466 1.774923,-1.77492 4e-6,-0.98027 -0.794657,-1.77493 -1.774923,-1.77493 -0.683326,0.001 -1.305309,0.39448 -1.59928,1.01134 0.553208,-1.99998 2.381469,-3.47034 4.557485,-3.47034 z"/>
 </g>
</svg>
