<svg width="256" height="256" version="1.1" viewBox="0 0 67.73 67.73" xmlns="http://www.w3.org/2000/svg" xmlns:xlink="http://www.w3.org/1999/xlink">
 <defs>
  <linearGradient id="linearGradient1108" x1="296" x2="296" y1="-212" y2="236" gradientUnits="userSpaceOnUse">
   <stop style="stop-color:#ffffff" offset="0"/>
   <stop style="stop-color:#ffffff;stop-opacity:.09803922" offset=".125"/>
   <stop style="stop-color:#000000;stop-opacity:.09803922" offset=".925"/>
   <stop style="stop-color:#000000;stop-opacity:.49803922" offset="1"/>
  </linearGradient>
  <clipPath id="clipPath1082-3-361">
   <path d="M 361.9375,-212 C 507.2348,-212 528,-191.28677 528,-46.125 V 70.125 C 528,215.28618 507.2348,236 361.9375,236 H 214.0625 C 68.7652,236 48,215.28618 48,70.125 V -46.125 C 48,-191.28677 68.7652,-212 214.0625,-212 Z" style="fill:#8c59d9"/>
  </clipPath>
  <linearGradient id="linearGradient1044" x1="88" x2="256" y1="28" y2="284" gradientTransform="matrix(.26970781 0 0 .26970781 -7.1289179 220.5605)" gradientUnits="userSpaceOnUse">
   <stop style="stop-color:#e8e8e8" offset="0"/>
   <stop style="stop-color:#f5f5f5" offset="1"/>
  </linearGradient>
  <filter id="filter4569" x="-.01" y="-.01" width="1.023" height="1.025" style="color-interpolation-filters:sRGB">
   <feGaussianBlur stdDeviation="1.16"/>
  </filter>
  <filter id="filter939" x="-.02" y="-.03" width="1.046" height="1.05" style="color-interpolation-filters:sRGB">
   <feGaussianBlur stdDeviation="2.32"/>
  </filter>
  <clipPath id="b">
   <use overflow="visible" xlink:href="#a"/>
  </clipPath>
  <linearGradient id="linearGradient4342" x1="624" x2="688" y1="369.239" y2="369.239" gradientUnits="userSpaceOnUse">
   <stop style="stop-color:#5884f4" offset="0"/>
   <stop style="stop-color:#5884f4" offset=".278"/>
   <stop style="stop-color:#2f5fdd" offset=".278"/>
   <stop style="stop-color:#2f5fdd" offset=".707"/>
   <stop style="stop-color:#234db8" offset=".709"/>
   <stop style="stop-color:#234db8" offset="1"/>
  </linearGradient>
 </defs>
 <g transform="translate(0,-229.26666)">
  <path transform="matrix(.26970779 0 0 .26970779 -1.9098094e-8 231.46531)" d="m162.53675 5.5680001c72.64865 0 83.03125 10.356615 83.03125 82.937505v58.125005c0 72.58059-10.3826 82.9375-83.03125 82.9375h-73.937496c-72.648654 0-83.031254-10.35691-83.031254-82.9375v-58.125005c0-72.58089 10.3826-82.937505 83.031254-82.937505z" style="filter:url(#filter939);opacity:.2"/>
  <path d="m43.837429 232.42763c19.593907 0 22.394176 2.79326 22.394176 22.36889v15.67677c0 19.57555-2.800269 22.36889-22.394176 22.36889h-19.941519c-19.593909 0-22.394177-2.79334-22.394177-22.36889v-15.67677c0-19.57563 2.8002682-22.36889 22.394177-22.36889z" style="fill:none;opacity:.1;stroke-linecap:round;stroke-linejoin:round;stroke-width:1.0788311;stroke:#000000"/>
  <path transform="matrix(.26970779 0 0 .26970779 -1.9098094e-8 231.46531)" d="m162.53675 3.5680001c72.64865 0 83.03125 10.356615 83.03125 82.937505v58.125005c0 72.58059-10.3826 82.9375-83.03125 82.9375h-73.937496c-72.648654 0-83.031254-10.35691-83.031254-82.9375v-58.125005c0-72.58089 10.3826-82.937505 83.031254-82.937505z" style="filter:url(#filter4569);opacity:.1"/>
  <path d="m43.837427 232.42763c19.593907 0 22.394175 2.79326 22.394175 22.36889v15.67677c0 19.57555-2.800268 22.36889-22.394175 22.36889h-19.94152c-19.593907 0-22.394176-2.79334-22.394176-22.36889v-15.67677c0-19.57563 2.8002682-22.36889 22.394176-22.36889z" style="fill:url(#linearGradient1044)"/>
  <path transform="matrix(.1348539 0 0 .1348539 -4.4420892 261.01666)" d="M 361.9375,-212 C 507.2348,-212 528,-191.28677 528,-46.125 V 70.125 C 528,215.28618 507.2348,236 361.9375,236 H 214.0625 C 68.7652,236 48,215.28618 48,70.125 V -46.125 C 48,-191.28677 68.7652,-212 214.0625,-212 Z" clip-path="url(#clipPath1082-3-361)" style="fill:none;opacity:.4;stroke-linecap:round;stroke-linejoin:round;stroke-width:8;stroke:url(#linearGradient1108)"/>
  <g transform="matrix(.58147223 0 0 .58147223 -2.065006 260.01314)">
   <rect x="25" y="-31" width="7.672" height="13.425" rx=".959" ry=".959" style="fill:none;stroke-linecap:round;stroke-linejoin:round;stroke-width:1.9179127;stroke:#999999"/>
   <rect x="51.85" y="-31" width="7.672" height="13.425" rx=".959" ry=".959" style="fill:none;stroke-linecap:round;stroke-linejoin:round;stroke-width:1.9179127;stroke:#999999"/>
   <rect x="65.28" y="-31" width="7.672" height="13.425" rx=".959" ry=".959" style="fill:none;stroke-linecap:round;stroke-linejoin:round;stroke-width:1.9179127;stroke:#999999"/>
   <path d="m38.425388-30.999997h3.835825v13.42539" style="fill:none;stroke-linecap:round;stroke-width:1.9179127;stroke:#999999"/>
   <path d="m38.425388-17.574703h7.67165v-3.83573" style="fill:none;stroke-linecap:round;stroke-linejoin:round;stroke-width:1.9179127;stroke:#999999"/>
   <rect x="25" y="-11.82" width="7.672" height="13.425" rx=".959" ry=".959" style="fill:none;stroke-linecap:round;stroke-linejoin:round;stroke-width:1.9179127;stroke:#999999"/>
   <path d="m51.850776-11.82087h3.835825v13.42539" style="fill:none;stroke-linecap:round;stroke-width:1.9179127;stroke:#999999"/>
   <path d="m51.850776 1.6044237h7.671651v-3.8357297" style="fill:none;stroke-linecap:round;stroke-linejoin:round;stroke-width:1.9179127;stroke:#999999"/>
   <rect x="38.42" y="-11.82" width="7.672" height="13.425" rx=".959" ry=".959" style="fill:none;stroke-linecap:round;stroke-linejoin:round;stroke-width:1.9179127;stroke:#999999"/>
   <rect x="65.28" y="-11.82" width="7.672" height="13.425" rx=".959" ry=".959" style="fill:none;stroke-linecap:round;stroke-linejoin:round;stroke-width:1.9179127;stroke:#999999"/>
   <rect x="38.42" y="7.36" width="7.672" height="13.425" rx=".959" ry=".959" style="fill:none;stroke-linecap:round;stroke-linejoin:round;stroke-width:1.9179127;stroke:#999999"/>
   <rect x="51.85" y="7.36" width="7.672" height="13.425" rx=".959" ry=".959" style="fill:none;stroke-linecap:round;stroke-linejoin:round;stroke-width:1.9179127;stroke:#999999"/>
   <rect x="25" y="26.54" width="7.672" height="13.425" rx=".959" ry=".959" style="fill:none;stroke-linecap:round;stroke-linejoin:round;stroke-width:1.9179127;stroke:#999999"/>
   <rect x="65.28" y="26.54" width="7.672" height="13.425" rx=".959" ry=".959" style="fill:none;stroke-linecap:round;stroke-linejoin:round;stroke-width:1.9179127;stroke:#999999"/>
   <path d="m38.425388 26.537384h3.835825v13.425388" style="fill:none;stroke-linecap:round;stroke-width:1.9179127;stroke:#999999"/>
   <path d="m38.425388 39.962677h7.67165v-3.835729" style="fill:none;stroke-linecap:round;stroke-linejoin:round;stroke-width:1.9179127;stroke:#999999"/>
   <path d="m24.999998 7.3582571h3.835826v13.425389" style="fill:none;stroke-linecap:round;stroke-width:1.9179127;stroke:#999999"/>
   <path d="m24.999998 20.783549h7.671651v-3.835728" style="fill:none;stroke-linecap:round;stroke-linejoin:round;stroke-width:1.9179127;stroke:#999999"/>
   <path d="m65.276165 7.3582571h3.835826v13.425389" style="fill:none;stroke-linecap:round;stroke-width:1.9179127;stroke:#999999"/>
   <path d="m65.276165 20.783549h7.671649v-3.835728" style="fill:none;stroke-linecap:round;stroke-linejoin:round;stroke-width:1.9179127;stroke:#999999"/>
   <path d="m51.850776 26.537384h3.835825v13.425388" style="fill:none;stroke-linecap:round;stroke-width:1.9179127;stroke:#999999"/>
   <path d="m51.850776 39.962677h7.671651v-3.835729" style="fill:none;stroke-linecap:round;stroke-linejoin:round;stroke-width:1.9179127;stroke:#999999"/>
   <path d="m78.701552-30.999998h3.835825v13.425391" style="fill:none;stroke-linecap:round;stroke-width:1.9179127;stroke:#999999"/>
   <path d="m78.701552-17.574703h7.671653v-3.83573" style="fill:none;stroke-linecap:round;stroke-linejoin:round;stroke-width:1.9179127;stroke:#999999"/>
   <rect x="78.7" y="-11.82" width="7.672" height="13.425" rx=".959" ry=".959" style="fill:none;stroke-linecap:round;stroke-linejoin:round;stroke-width:1.9179127;stroke:#999999"/>
   <rect x="78.7" y="7.36" width="7.672" height="13.425" rx=".959" ry=".959" style="fill:none;stroke-linecap:round;stroke-linejoin:round;stroke-width:1.9179127;stroke:#999999"/>
   <rect x="78.7" y="26.54" width="7.672" height="13.425" rx=".959" ry=".959" style="fill:none;stroke-linecap:round;stroke-linejoin:round;stroke-width:1.9179127;stroke:#999999"/>
   <rect x="92.6" y="-31" width="7.672" height="13.425" rx=".959" ry=".959" style="fill:none;stroke-linecap:round;stroke-linejoin:round;stroke-width:1.9179127;stroke:#999999"/>
   <path d="m92.750614-11.82087h3.835825v13.42539" style="fill:none;stroke-linecap:round;stroke-width:1.9179127;stroke:#999999"/>
   <path d="m92.750614 1.6044237h7.671656v-3.8357297" style="fill:none;stroke-linecap:round;stroke-linejoin:round;stroke-width:1.9179127;stroke:#999999"/>
   <rect x="92.6" y="7.4" width="7.672" height="13.425" rx=".959" ry=".959" style="fill:none;stroke-linecap:round;stroke-linejoin:round;stroke-width:1.9179127;stroke:#999999"/>
   <path d="m92.650614 26.578996h3.835825v13.42539" style="fill:none;stroke-linecap:round;stroke-width:1.9179127;stroke:#999999"/>
   <path d="m92.650614 40.00429h7.671656v-3.83573" style="fill:none;stroke-linecap:round;stroke-linejoin:round;stroke-width:1.9179127;stroke:#999999"/>
  </g>
  <path d="m33.866666 232.42763v60.41455h9.970761c19.593907 0 22.394175-2.79334 22.394175-22.36889v-15.67677c0-19.57563-2.800268-22.36889-22.394175-22.36889z" style="fill:#ffffff;opacity:.2"/>
  <path d="m23.895907 292.84218c-19.593907 0-22.394176-2.79326-22.394176-22.36889v-7.83838h64.729871v7.83838c0 19.57563-2.800268 22.36889-22.394175 22.36889z" style="fill:#ffffff;opacity:.25"/>
  <path transform="matrix(.26970779 0 0 .26970779 3.67534 226.78896)" d="m0 37v-26l17 13z" clip-path="url(#b)" style="fill:#fbbc05"/>
  <path transform="matrix(.26970779 0 0 .26970779 3.67534 226.78896)" d="m0 11 17 13 7-6.1 24-3.9v-14h-48z" clip-path="url(#b)" style="fill:#ea4335"/>
  <path transform="matrix(.26970779 0 0 .26970779 3.67534 226.78896)" d="m0 37 30-23 7.9 1 10.1-15v48h-48z" clip-path="url(#b)" style="fill:#34a853"/>
  <path transform="matrix(.26970779 0 0 .26970779 3.67534 226.78896)" d="m48 48-31-24-4-3 35-10z" clip-path="url(#b)" style="fill:#4285f4"/>
  <g transform="matrix(.11404751 .11404751 -.12369329 .12369329 -2.209388 155.49996)" style="enable-background:new">
   <path d="m688.00003 319.35584-32 81.13762-31.99999-81.13762v-11.06422h63.99999z" style="fill:#fee1c2"/>
   <path d="m645.81253 374.67694 10.1875 25.81651 10.1875-25.81651s0.77644-2.76606-1.20553-2.76606-3.94669 3.68807-3.94669 3.68807-1.03528-4.61009-5.01377-4.61009c-3.9785 0-5.01378 4.61009-5.01378 4.61009s-2.00773-3.68807-4.00773-3.68807-1.1875 2.76606-1.1875 2.76606z" style="fill:#5d5d5d"/>
   <path d="m624.00004 319.35583c0-7.37615 17.99999-3.68808 17.99999 7.37614 0-18.44036 28-18.44036 28 0 0-11.06422 18-14.75229 18-7.37614v-185.89981h-63.99999z" style="fill:url(#linearGradient4342)"/>
  </g>
 </g>
</svg>
