<svg width="256" height="256" style="enable-background:new" version="1.0" xmlns="http://www.w3.org/2000/svg" xmlns:xlink="http://www.w3.org/1999/xlink">
 <defs>
  <filter id="filter925" x="-.02" y="-.03" width="1.046" height="1.05" style="color-interpolation-filters:sRGB">
   <feGaussianBlur stdDeviation="2.32"/>
  </filter>
  <filter id="filter931" x="-.01" y="-.01" width="1.023" height="1.025" style="color-interpolation-filters:sRGB">
   <feGaussianBlur stdDeviation="1.16"/>
  </filter>
  <linearGradient id="linearGradient1108" x1="296" x2="296" y1="-212" y2="236" gradientUnits="userSpaceOnUse">
   <stop style="stop-color:#ffffff" offset="0"/>
   <stop style="stop-color:#ffffff;stop-opacity:.09803922" offset=".125"/>
   <stop style="stop-color:#000000;stop-opacity:.09803922" offset=".925"/>
   <stop style="stop-color:#000000;stop-opacity:.49803922" offset="1"/>
  </linearGradient>
  <clipPath id="clipPath1082-3">
   <path d="M 361.9375,-212 C 507.2348,-212 528,-191.28677 528,-46.125 V 70.125 C 528,215.28618 507.2348,236 361.9375,236 H 214.0625 C 68.7652,236 48,215.28618 48,70.125 V -46.125 C 48,-191.28677 68.7652,-212 214.0625,-212 Z" style="fill:#8c59d9"/>
  </clipPath>
  <filter id="filter1517" x="-.06" y="-.06" width="1.114" height="1.127" style="color-interpolation-filters:sRGB">
   <feGaussianBlur stdDeviation=".37"/>
  </filter>
 </defs>
 <g transform="translate(0,-44)">
  <path d="m162.53675 62.431991c72.64865 0 83.03125 10.356615 83.03125 82.937499v58.125c0 72.58059-10.3826 82.9375-83.03125 82.9375h-73.9375c-72.64865 0-83.03125-10.35691-83.03125-82.9375v-58.125c0-72.580884 10.3826-82.937499 83.03125-82.937499z" style="filter:url(#filter925);opacity:.2"/>
  <path d="m162.53675 61.431991c72.64865 0 83.03125 10.356615 83.03125 82.937499v58.125c0 72.58059-10.3826 82.9375-83.03125 82.9375h-73.9375c-72.64865 0-83.03125-10.35691-83.03125-82.9375v-58.125c0-72.580884 10.3826-82.937499 83.03125-82.937499z" style="filter:url(#filter931);opacity:.1"/>
  <path d="m162.53675 60.431991c72.64865 0 83.03125 10.356615 83.03125 82.937499v58.125c0 72.58059-10.3826 82.9375-83.03125 82.9375h-73.9375c-72.64865 0-83.03125-10.35691-83.03125-82.9375v-58.125c0-72.580884 10.3826-82.937499 83.03125-82.937499z" style="fill:#4e0d4e"/>
  <path transform="matrix(.5 0 0 .5 -18.432 166.43199)" d="M 361.9375,-212 C 507.2348,-212 528,-191.28677 528,-46.125 V 70.125 C 528,215.28618 507.2348,236 361.9375,236 H 214.0625 C 68.7652,236 48,215.28618 48,70.125 V -46.125 C 48,-191.28677 68.7652,-212 214.0625,-212 Z" clip-path="url(#clipPath1082-3)" style="fill:none;opacity:.4;stroke-linecap:round;stroke-linejoin:round;stroke-width:8;stroke:url(#linearGradient1108)"/>
 </g>
 <g transform="matrix(10.899092,0,0,10.899092,-4452.0505,-2792.5247)" style="fill:#fdfdfd">
  <path d="m413.45117 270.45508c0.99537 2.65325 3.54793 4.54492 6.54883 4.54492 2.68877-3e-3 5.1384-1.54515 6.30273-3.96875l1.19922 0.76758c0.0945-0.6622 0.16757-1.35201 0.21875-2.06836 0.0472-0.71183 0.0735-1.40955 0.0781-2.0957-0.61561 0.29412-1.23786 0.60962-1.86524 0.94921-0.63022 0.34521-1.22978 0.69663-1.79882 1.05469v2e-3l1.31835 0.84571c-0.97326 2.13755-3.10434 3.51069-5.45309 3.51362-2.57192 0-4.75991-1.62071-5.61328-3.89453z" style="fill:#fdfdfd"/>
  <path d="m412.20117 268.36523c0.61561-0.29412 1.23786-0.60962 1.86524-0.94921 0.63022-0.34521 1.22978-0.69663 1.79882-1.05469v-2e-3l-1.31835-0.84571c0.97329-2.1376 3.10437-3.51074 5.45312-3.51367 2.57192 0 4.75991 1.62071 5.61328 3.89453l0.93555-0.34961c-0.99537-2.6532-3.54793-4.54487-6.54883-4.54487-2.68877 3e-3 -5.1384 1.54515-6.30273 3.96875l-1.19922-0.76758c-0.0945 0.6622-0.16757 1.35201-0.21875 2.06836-0.0472 0.71183-0.0735 1.40955-0.0781 2.0957z" style="fill:#fdfdfd"/>
 </g>
 <g transform="matrix(10.899092,0,0,10.899092,-4452.0505,-2792.5247)" style="fill:#fdfdfd;filter:url(#filter1517)">
  <path d="m413.45117 270.45508c0.99537 2.65325 3.54793 4.54492 6.54883 4.54492 2.68877-3e-3 5.1384-1.54515 6.30273-3.96875l1.19922 0.76758c0.0945-0.6622 0.16757-1.35201 0.21875-2.06836 0.0472-0.71183 0.0735-1.40955 0.0781-2.0957-0.61561 0.29412-1.23786 0.60962-1.86524 0.94921-0.63022 0.34521-1.22978 0.69663-1.79882 1.05469v2e-3l1.31835 0.84571c-0.97326 2.13755-3.10434 3.51069-5.45309 3.51362-2.57192 0-4.75991-1.62071-5.61328-3.89453z" style="fill:#fdfdfd"/>
  <path d="m412.20117 268.36523c0.61561-0.29412 1.23786-0.60962 1.86524-0.94921 0.63022-0.34521 1.22978-0.69663 1.79882-1.05469v-2e-3l-1.31835-0.84571c0.97329-2.1376 3.10437-3.51074 5.45312-3.51367 2.57192 0 4.75991 1.62071 5.61328 3.89453l0.93555-0.34961c-0.99537-2.6532-3.54793-4.54487-6.54883-4.54487-2.68877 3e-3 -5.1384 1.54515-6.30273 3.96875l-1.19922-0.76758c-0.0945 0.6622-0.16757 1.35201-0.21875 2.06836-0.0472 0.71183-0.0735 1.40955-0.0781 2.0957z" style="fill:#fdfdfd"/>
 </g>
</svg>
