<svg width="256" height="256" version="1.1" viewBox="0 0 67.73 67.73" xmlns="http://www.w3.org/2000/svg" xmlns:xlink="http://www.w3.org/1999/xlink">
 <defs>
  <linearGradient id="linearGradient1108" x1="296" x2="296" y1="-212" y2="202.4" gradientUnits="userSpaceOnUse">
   <stop style="stop-color:#ffffff" offset="0"/>
   <stop style="stop-color:#ffffff;stop-opacity:.09803922" offset=".135"/>
   <stop style="stop-color:#ffffff;stop-opacity:0" offset="1"/>
  </linearGradient>
  <clipPath id="clipPath1082-3-3675">
   <path d="M 361.9375,-212 C 507.2348,-212 528,-191.28677 528,-46.125 V 70.125 C 528,215.28618 507.2348,236 361.9375,236 H 214.0625 C 68.7652,236 48,215.28618 48,70.125 V -46.125 C 48,-191.28677 68.7652,-212 214.0625,-212 Z" style="fill:#8c59d9"/>
  </clipPath>
  <filter id="filter910" x="-.02" y="-.03" width="1.046" height="1.05" style="color-interpolation-filters:sRGB">
   <feGaussianBlur stdDeviation="2.32"/>
  </filter>
  <filter id="filter4569" x="-.01" y="-.01" width="1.023" height="1.025" style="color-interpolation-filters:sRGB">
   <feGaussianBlur stdDeviation="1.16"/>
  </filter>
 </defs>
 <g transform="translate(0,-229.26666)">
  <g transform="matrix(.12974173 0 0 .12974173 3.8344818 227.85345)" style="enable-background:new">
   <path d="m301.90773 44.402363c148.15296 0 169.32628 21.120327 169.32628 169.1351v118.53478c0 148.01417-21.17332 169.1351-169.32628 169.1351h-150.78132c-148.15297 0-169.32628-21.12093-169.32628-169.1351v-118.53478c0-148.01477 21.17331-169.1351 169.32628-169.1351z" style="fill:none;opacity:.2;stroke-linecap:round;stroke-linejoin:round;stroke-width:8.1572313;stroke:#000000"/>
   <path transform="matrix(2.0393079,0,0,2.0393079,-29.55473,37.126102)" d="m162.53675 3.5680001c72.64865 0 83.03125 10.356615 83.03125 82.937505v58.125005c0 72.58059-10.3826 82.9375-83.03125 82.9375h-73.937496c-72.648654 0-83.031254-10.35691-83.031254-82.9375v-58.125005c0-72.58089 10.3826-82.937505 83.031254-82.937505z" style="filter:url(#filter4569);opacity:.1"/>
   <path transform="matrix(2.0393079,0,0,2.0393079,-29.55473,37.126102)" d="m162.53675 5.5680001c72.64865 0 83.03125 10.356615 83.03125 82.937505v58.125005c0 72.58059-10.3826 82.9375-83.03125 82.9375h-73.937496c-72.648654 0-83.031254-10.35691-83.031254-82.9375v-58.125005c0-72.58089 10.3826-82.937505 83.031254-82.937505z" style="filter:url(#filter910);opacity:.2"/>
   <path d="m301.90773 44.402363c148.15296 0 169.32628 21.120327 169.32628 169.1351v118.53478c0 148.01417-21.17332 169.1351-169.32628 169.1351h-150.78132c-148.15297 0-169.32628-21.12093-169.32628-169.1351v-118.53478c0-148.01477 21.17331-169.1351 169.32628-169.1351z" style="fill:#357ab4"/>
   <g transform="matrix(4.4817672,0,0,4.4817672,12.872983,164.90753)" style="stroke:#ffffff">
    <rect transform="rotate(90)" x="-23.27" y="-52.14" width="35.009" height="5.835" rx="2.917" ry="2.917" style="fill:#3f3f3f"/>
    <path transform="matrix(.45502316 0 0 .45502316 -9.4667374 -34.364802)" d="m69.386719 239.9707c5.988437 0.24955 12.069871 0.46094 19.21289 0.46094h73.937501c9.08108 0 17.18918-0.16098 24.42578-0.58594 2.31534-0.13596 4.39494-0.34981 6.53516-0.54297l-34.58399-92.12695v-43.0332l-0.62304-5.902346c-2.80301-13.731751-15.30346-23.598853-29.31836-23.611328-14.02358 0.001523-26.44919 9.871092-29.25391 23.611328l-0.599609 5.902346v43.0332l-29.732422 92.79492z" style="fill:#ee5050"/>
    <path transform="matrix(.45502316 0 0 .45502316 -9.4667374 -34.364802)" d="m101.95312 240.43164h54.03907l-15.21485-93.25586v-47.222655s8.8e-4 -23.611328-11.80468-23.611328c-11.80557 0-11.80469 23.611328-11.80469 23.611328v47.222655l-15.21485 93.25586z" style="fill:#ffce35"/>
    <rect x="31.71" y="13.15" width="35.009" height="5.835" rx="2.917" ry="2.917" style="fill:#3f3f3f"/>
    <path d="m49.218804 21.754081c-4.068514 0-4.068514 3.616458-4.068514 3.616458v7.232917h8.137031v-7.232917s0-3.616458-4.068517-3.616458z" style="fill:#3f3f3f"/>
    <path d="m67.44557-12.466533-8.752333 4.3761694-8.752342 4.3761694v-17.504677l8.752342 4.37617z" style="fill:#ffce35"/>
    <path d="m58.558342 22.936717c-2.505951 0-2.438013 2.703076-2.438013 2.703076v0.742504l-0.03397 3.916334 5.147778-1.019064-0.101906-2.89727v-0.742504s-0.06794-2.703076-2.573889-2.703076z" style="fill:#3f3f3f"/>
    <path d="m39.651188 22.936717c2.505951 0 2.438013 2.703076 2.438013 2.703076v0.742504l0.03397 3.916334-5.147778-1.019064 0.101906-2.89727v-0.742504s0.06794-2.703076 2.573889-2.703076z" style="fill:#3f3f3f"/>
   </g>
   <path transform="matrix(1.0196539,0,0,1.0196539,-67.14326,260.569)" d="M 361.9375,-212 C 507.2348,-212 528,-191.28677 528,-46.125 V 70.125 C 528,215.28618 507.2348,236 361.9375,236 H 214.0625 C 68.7652,236 48,215.28618 48,70.125 V -46.125 C 48,-191.28677 68.7652,-212 214.0625,-212 Z" clip-path="url(#clipPath1082-3-3675)" style="fill:none;opacity:.5;stroke-linecap:round;stroke-linejoin:round;stroke-width:8;stroke:url(#linearGradient1108)"/>
  </g>
 </g>
</svg>
