<?xml version="1.0" encoding="UTF-8" standalone="no"?>
<svg
   xmlns:dc="http://purl.org/dc/elements/1.1/"
   xmlns:cc="http://creativecommons.org/ns#"
   xmlns:rdf="http://www.w3.org/1999/02/22-rdf-syntax-ns#"
   xmlns:svg="http://www.w3.org/2000/svg"
   xmlns="http://www.w3.org/2000/svg"
   xmlns:sodipodi="http://sodipodi.sourceforge.net/DTD/sodipodi-0.dtd"
   xmlns:inkscape="http://www.inkscape.org/namespaces/inkscape"
   width="256"
   height="256"
   version="1.1"
   viewBox="0 0 67.73 67.73"
   id="svg45"
   sodipodi:docname="opera.svg"
   inkscape:version="0.92.3 (2405546, 2018-03-11)">
  <metadata
     id="metadata49">
    <rdf:RDF>
      <cc:Work
         rdf:about="">
        <dc:format>image/svg+xml</dc:format>
        <dc:type
           rdf:resource="http://purl.org/dc/dcmitype/StillImage" />
        <dc:title></dc:title>
      </cc:Work>
    </rdf:RDF>
  </metadata>
  <sodipodi:namedview
     pagecolor="#ffffff"
     bordercolor="#666666"
     borderopacity="1"
     objecttolerance="10"
     gridtolerance="10"
     guidetolerance="10"
     inkscape:pageopacity="0"
     inkscape:pageshadow="2"
     inkscape:window-width="1920"
     inkscape:window-height="1009"
     id="namedview47"
     showgrid="false"
     inkscape:zoom="2.1271668"
     inkscape:cx="242.63906"
     inkscape:cy="123.66101"
     inkscape:window-x="0"
     inkscape:window-y="34"
     inkscape:window-maximized="1"
     inkscape:current-layer="g41" />
  <defs
     id="defs29">
    <linearGradient
       gradientUnits="userSpaceOnUse"
       gradientTransform="matrix(7.5611749,0,0,7.5611749,-29.693391,-1712.8849)"
       y2="290.959"
       y1="236.062"
       x2="59.437"
       x1="5.825"
       id="linearGradient1471">
      <stop
         id="stop1463"
         offset="0"
         style="stop-color:#4a93dd" />
      <stop
         id="stop1469"
         offset="1"
         style="stop-color:#20aa73" />
    </linearGradient>
    <filter
       id="filter910"
       x="-.02"
       y="-.03"
       width="1.046"
       height="1.05"
       style="color-interpolation-filters:sRGB">
      <feGaussianBlur
         stdDeviation="2.32"
         id="feGaussianBlur2" />
    </filter>
    <filter
       id="filter4569"
       x="-.01"
       y="-.01"
       width="1.023"
       height="1.025"
       style="color-interpolation-filters:sRGB">
      <feGaussianBlur
         stdDeviation="1.16"
         id="feGaussianBlur5" />
    </filter>
    <linearGradient
       id="linearGradient929"
       x1="5.825"
       x2="59.437"
       y1="236.062"
       y2="290.959"
       gradientTransform="matrix(7.5611749,0,0,7.5611749,-29.693391,-1712.8849)"
       gradientUnits="userSpaceOnUse">
      <stop
         style="stop-color:#4a93dd"
         offset="0"
         id="stop8" />
      <stop
         style="stop-color:#4a93dd"
         offset=".501"
         id="stop10" />
      <stop
         style="stop-color:#20aa73"
         offset=".501"
         id="stop12" />
      <stop
         style="stop-color:#20aa73"
         offset="1"
         id="stop14" />
    </linearGradient>
    <linearGradient
       id="linearGradient1108"
       x1="296"
       x2="296"
       y1="-212"
       y2="236"
       gradientUnits="userSpaceOnUse">
      <stop
         style="stop-color:#ffffff"
         offset="0"
         id="stop17" />
      <stop
         style="stop-color:#ffffff;stop-opacity:.09803922"
         offset=".125"
         id="stop19" />
      <stop
         style="stop-color:#000000;stop-opacity:.09803922"
         offset=".925"
         id="stop21" />
      <stop
         style="stop-color:#000000;stop-opacity:.49803922"
         offset="1"
         id="stop23" />
    </linearGradient>
    <clipPath
       id="clipPath1082-3-367-3">
      <path
         d="M 361.9375,-212 C 507.2348,-212 528,-191.28677 528,-46.125 V 70.125 C 528,215.28618 507.2348,236 361.9375,236 H 214.0625 C 68.7652,236 48,215.28618 48,70.125 V -46.125 C 48,-191.28677 68.7652,-212 214.0625,-212 Z"
         style="fill:#8c59d9"
         id="path26" />
    </clipPath>
    <clipPath
       clipPathUnits="userSpaceOnUse"
       id="clipPath58-3">
      <path
         d="m 85.982,617.805 c 0,-290.729 203.962,-555.14 510.317,-555.14 v 0 c 305.943,0 509.906,264.822 509.906,555.14 v 0 c 0,326.504 -210.131,544.036 -510.318,544.036 v 0 c -300.186,0 -509.905,-217.532 -509.905,-544.036 m 302.653,12.336 v 4.112 c 0,219.589 32.898,452.336 206.019,452.336 v 0 c 173.122,0 208.075,-239.738 208.075,-459.326 v 0 c 0,-203.14 -20.15,-475.775 -206.842,-475.775 v 0 c -186.69,0 -207.252,275.513 -207.252,478.653"
         id="path56-6"
         inkscape:connector-curvature="0" />
    </clipPath>
    <linearGradient
       x1="0"
       y1="0"
       x2="1"
       y2="0"
       gradientUnits="userSpaceOnUse"
       gradientTransform="matrix(-4.7e-5,1159.0399,-1075.7869,-5.07e-5,596.5,29.5)"
       spreadMethod="pad"
       id="linearGradient70">
      <stop
         style="stop-opacity:1;stop-color:#a81e22"
         offset="0"
         id="stop64" />
      <stop
         style="stop-opacity:1;stop-color:#d02026"
         offset="0.3952"
         id="stop66" />
      <stop
         style="stop-opacity:1;stop-color:#e51e26"
         offset="1"
         id="stop68" />
    </linearGradient>
  </defs>
  <g
     transform="translate(0,-229.26666)"
     id="g43">
    <g
       transform="matrix(.12974173 0 0 .12974173 3.8344818 227.85345)"
       style="enable-background:new"
       id="g41">
      <path
         transform="matrix(2.0393079,0,0,2.0393079,-29.55473,37.126102)"
         d="m162.53675 3.5680001c72.64865 0 83.03125 10.356615 83.03125 82.937505v58.125005c0 72.58059-10.3826 82.9375-83.03125 82.9375h-73.937496c-72.648654 0-83.031254-10.35691-83.031254-82.9375v-58.125005c0-72.58089 10.3826-82.937505 83.031254-82.937505z"
         style="filter:url(#filter4569);opacity:.1"
         id="path31" />
      <path
         transform="matrix(2.0393079,0,0,2.0393079,-29.55473,37.126102)"
         d="m162.53675 5.5680001c72.64865 0 83.03125 10.356615 83.03125 82.937505v58.125005c0 72.58059-10.3826 82.9375-83.03125 82.9375h-73.937496c-72.648654 0-83.031254-10.35691-83.031254-82.9375v-58.125005c0-72.58089 10.3826-82.937505 83.031254-82.937505z"
         style="filter:url(#filter910);opacity:.2"
         id="path33" />
      <path
         d="m301.90773 44.402363c148.15296 0 169.32628 21.120327 169.32628 169.1351v118.53478c0 148.01417-21.17332 169.1351-169.32628 169.1351h-150.78132c-148.15297 0-169.32628-21.12093-169.32628-169.1351v-118.53478c0-148.01477 21.17331-169.1351 169.32628-169.1351z"
         style="fill:#f4f3ee;fill-opacity:1"
         id="path35" />
      <path
         transform="matrix(1.019654,0,0,1.019654,-67.143271,260.569)"
         d="M 361.9375,-212 C 507.2348,-212 528,-191.28677 528,-46.125 V 70.125 C 528,215.28618 507.2348,236 361.9375,236 H 214.0625 C 68.7652,236 48,215.28618 48,70.125 V -46.125 C 48,-191.28677 68.7652,-212 214.0625,-212 Z"
         clip-path="url(#clipPath1082-3-367-3)"
         style="fill:none;opacity:.4;stroke-linecap:round;stroke-linejoin:round;stroke-width:8;stroke:url(#linearGradient1108)"
         id="path39" />
      <g
         transform="matrix(0.35249081,0,0,-0.35249081,16.399589,488.61841)"
         id="g52">
        <g
           id="g54"
           clip-path="url(#clipPath58-3)">
          <g
             id="g60">
            <g
               id="g62">
              <path
                 d="m 85.982,617.805 c 0,-290.729 203.962,-555.14 510.317,-555.14 v 0 c 305.943,0 509.906,264.822 509.906,555.14 v 0 c 0,326.504 -210.131,544.036 -510.318,544.036 v 0 c -300.186,0 -509.905,-217.532 -509.905,-544.036 m 302.653,12.336 v 4.112 c 0,219.589 32.898,452.336 206.019,452.336 v 0 c 173.122,0 208.075,-239.738 208.075,-459.326 v 0 c 0,-203.14 -20.15,-475.775 -206.842,-475.775 v 0 c -186.69,0 -207.252,275.513 -207.252,478.653"
                 style="fill:url(#linearGradient70);stroke:none"
                 id="path72"
                 inkscape:connector-curvature="0" />
            </g>
          </g>
        </g>
      </g>
    </g>
  </g>
</svg>
