<svg width="256" height="256" version="1.1" viewBox="0 0 67.73 67.73" xmlns="http://www.w3.org/2000/svg" xmlns:xlink="http://www.w3.org/1999/xlink">
 <defs>
  <linearGradient id="linearGradient1108" x1="296" x2="296" y1="-212" y2="236" gradientUnits="userSpaceOnUse">
   <stop style="stop-color:#ffffff" offset="0"/>
   <stop style="stop-color:#ffffff;stop-opacity:.09803922" offset=".125"/>
   <stop style="stop-color:#000000;stop-opacity:.09803922" offset=".925"/>
   <stop style="stop-color:#000000;stop-opacity:.49803922" offset="1"/>
  </linearGradient>
  <clipPath id="clipPath1082-3-3675356">
   <path d="M 361.9375,-212 C 507.2348,-212 528,-191.28677 528,-46.125 V 70.125 C 528,215.28618 507.2348,236 361.9375,236 H 214.0625 C 68.7652,236 48,215.28618 48,70.125 V -46.125 C 48,-191.28677 68.7652,-212 214.0625,-212 Z" style="fill:#8c59d9"/>
  </clipPath>
  <linearGradient id="linearGradient947" x1="176.249" x2="178.395" y1="44.805" y2="266.582" gradientTransform="matrix(2.0393079,0,0,2.0393079,-83.45772,-45.327178)" gradientUnits="userSpaceOnUse">
   <stop style="stop-color:#2b898f" offset="0"/>
   <stop style="stop-color:#5bdbc1" offset="1"/>
  </linearGradient>
  <filter id="filter931" x="-.01" y="-.01" width="1.023" height="1.025" style="color-interpolation-filters:sRGB">
   <feGaussianBlur stdDeviation="1.16"/>
  </filter>
  <filter id="filter925" x="-.02" y="-.03" width="1.046" height="1.05" style="color-interpolation-filters:sRGB">
   <feGaussianBlur stdDeviation="2.32"/>
  </filter>
  <linearGradient id="linearGradient24049-5-2" x1="152" x2="153" y1="140" y2="116" gradientTransform="matrix(2.1849202,0,0,2.1849202,-106.68063,19.167729)" gradientUnits="userSpaceOnUse" xlink:href="#linearGradient24047"/>
  <linearGradient id="linearGradient24047">
   <stop style="stop-color:#1a1a1a" offset="0"/>
   <stop style="stop-color:#1a1a1a;stop-opacity:0" offset="1"/>
  </linearGradient>
  <linearGradient id="linearGradient24049-5-1" x1="152" x2="153" y1="140" y2="116" gradientTransform="matrix(2.1849202,0,0,2.1849202,-106.68063,-15.790993)" gradientUnits="userSpaceOnUse" xlink:href="#linearGradient24047"/>
  <filter id="filter1497-3" x="-.01" y="-.01" width="1.025" height="1.023" style="color-interpolation-filters:sRGB">
   <feGaussianBlur stdDeviation=".71"/>
  </filter>
  <filter id="filter1489-7" x="-.13" y="-.11" width="1.254" height="1.227" style="color-interpolation-filters:sRGB">
   <feGaussianBlur stdDeviation="7.104"/>
  </filter>
  <linearGradient id="linearGradient24049-5-1-9" x1="152" x2="153" y1="140" y2="116" gradientTransform="matrix(2.1849202,0,0,2.1849202,-106.68061,-50.749737)" gradientUnits="userSpaceOnUse" xlink:href="#linearGradient24047"/>
 </defs>
 <g transform="translate(0,-229.26666)">
  <g transform="matrix(.12974173 0 0 .12974173 3.8344818 227.85345)" style="enable-background:new">
   <path transform="matrix(2.0393079,0,0,2.0393079,-29.55473,37.126122)" d="m162.53675 5.568c72.64865 0 83.03125 10.356615 83.03125 82.9375v58.125c0 72.58059-10.3826 82.9375-83.03125 82.9375h-73.9375c-72.64865 0-83.03125-10.35691-83.03125-82.9375v-58.125c0-72.580885 10.3826-82.9375 83.03125-82.9375z" style="filter:url(#filter925);opacity:.2"/>
   <path transform="matrix(2.0393079,0,0,2.0393079,-29.55473,37.126122)" d="m162.53675 4.568c72.64865 0 83.03125 10.356615 83.03125 82.9375v58.125c0 72.58059-10.3826 82.9375-83.03125 82.9375h-73.9375c-72.64865 0-83.03125-10.35691-83.03125-82.9375v-58.125c0-72.580885 10.3826-82.9375 83.03125-82.9375z" style="filter:url(#filter931);opacity:.1"/>
   <path d="m301.90775 44.402373c148.15296 0 169.32628 21.120327 169.32628 169.1351v118.53477c0 148.01417-21.17332 169.13509-169.32628 169.13509h-150.78133c-148.15297 0-169.32629-21.12092-169.32629-169.13509v-118.53477c0-148.01477 21.173323-169.1351 169.32629-169.1351z" style="fill:url(#linearGradient947)"/>
   <g transform="translate(1.0957199,1.35657)">
    <path d="m103.07173 185.22163c-41.19925 0-122.35552 17.47937-122.35552 17.47937v34.95873s81.156275-17.47936 122.35552-17.47936c82.39849 0 162.31256 34.95871 244.71106 34.95871 41.19925 0 122.35552-17.47935 122.35552-17.47935v-34.95873s-81.15627 17.47937-122.35552 17.47937c-82.3985 0-162.31257-34.95874-244.71106-34.95874z" style="fill:url(#linearGradient24049-5-1-9);opacity:.1"/>
    <g transform="matrix(2.0393079,0,0,2.0393079,-84.547948,-46.684364)" style="enable-background:new">
     <rect x="150" y="236" width="4" height="32" style="fill:#313131"/>
     <rect x="148" y="232" width="8" height="8" rx="2" ry="2" style="fill:#3b3b3b"/>
     <rect x="148" y="244" width="8" height="8" rx="2" ry="2" style="fill:#3b3b3b"/>
     <rect x="148" y="256" width="8" height="8" rx="2" ry="2" style="fill:#3b3b3b"/>
    </g>
    <path transform="matrix(2.0393079,0,0,2.0393079,-27.209767,25.047821)" d="m123.7032 49.83165c-5.39372-0.06-7.28039 0.14029-8.03906 6.66211l-0.28906 2.30468c-0.66573 4.229831-0.793 6.145178-4.79493 7.181648-0.26817 0.0599-0.53589 0.12006-0.80273 0.18359-0.0631 0.013-0.11885 0.0282-0.1836 0.041l8e-3 2e-3c-0.58868 0.14202-1.16644 0.31108-1.74805 0.4707v0.26563a60 60 0 0 0-26.351558 15.16406l-0.1543-0.0898c-0.4621 0.45783-0.93126 0.9086-1.37891 1.38086l0.0215-0.10157c-3.33739 3.82107-5.00215 2.95911-9.304684 1.30274l-2.14063-0.90235c-1.88356-0.81371-3.28745-1.22275-4.4082-1.25781-2.46567-0.0772-3.56053 1.65668-5.37891 4.88867-2.74879 4.6411-3.52068 6.37502 1.74805 10.29297l1.85156 1.4043c3.34293 2.701702 4.93866 3.765642 3.81055 7.787112-0.047 0.14937-0.0909 0.29936-0.13672 0.44922-0.0489 0.1566-0.0919 0.30729-0.14844 0.47265l0.01-0.01c-0.14784 0.49761-0.2707 1.00525-0.40625 1.50781l0.21875 0.12695a60 60 0 0 0-2.10178 15.46695 60 60 0 0 0 2.04101 15.40234l-0.18164 0.10547c0.14251 0.53154 0.27341 1.06776 0.42969 1.59375l-0.0117-0.01c0.0565 0.16537 0.10147 0.31605 0.15039 0.47265 0.0458 0.14985 0.0897 0.29986 0.13672 0.44922 1.12811 4.02147-0.46762 5.08542-3.81055 7.78711l-1.85156 1.4043c-5.26873 3.91794-4.49684 5.6499-1.74805 10.29101 2.64491 4.70108 3.75971 6.23474 9.78711 3.63086l2.14062-0.90039c4.302534-1.65637 5.967304-2.51832 9.304694 1.30274l-0.0234-0.10157c0.42704 0.45053 0.87567 0.87952 1.31641 1.31641l0.17969-0.10352a60 60 0 0 0 26.390618 15.18555v0.32227c0.58161 0.15962 1.15937 0.32868 1.74805 0.4707l-8e-3 2e-3c0.0647 0.0128 0.12053 0.028 0.1836 0.041 0.26684 0.0635 0.53456 0.12365 0.80273 0.18359 4.00193 1.03647 4.12918 2.95182 4.79493 7.18164l0.28906 2.30469c0.75867 6.52182 2.64534 6.72209 8.03906 6.66211 5.39371 0.06 7.28039-0.14029 8.03906-6.66211l0.28906-2.30469c0.66577-4.22983 0.79299-6.14518 4.79493-7.18164 0.26817-0.06 0.5359-0.12007 0.80273-0.18359 0.0631-0.0131 0.11885-0.0281 0.1836-0.041l-8e-3 -2e-3c0.52168-0.12585 1.03274-0.27823 1.54883-0.41797v-0.31836a60 60 0 0 0 26.625-15.45703l0.29297 0.16992c0.38888-0.38913 0.78745-0.76857 1.16602-1.16797l-0.0215 0.10157c3.3374-3.82106 5.00215-2.95912 9.30469-1.30274l2.14062 0.90235c6.0274 2.60387 7.14218 1.07022 9.78711-3.63086 2.74879-4.64111 3.5207-6.37503-1.74804-10.29297l-1.85157-1.4043c-3.34293-2.70168-4.93866-3.76564-3.81054-7.78711 0.047-0.14936 0.0908-0.29937 0.13672-0.44922 0.0489-0.1566 0.092-0.30728 0.14843-0.47265l-0.01 0.01c0.17637-0.59363 0.32563-1.19811 0.48437-1.79883l-0.39648-0.22851a60 60 0 0 0 2.0023-15.07422 60 60 0 0 0-1.99023-15.17969l0.36132-0.20898c-0.15198-0.57166-0.29299-1.14764-0.46093-1.71289l0.0117 0.01c-0.0565-0.16536-0.10152-0.31604-0.15039-0.47265-0.0458-0.14986-0.0897-0.29985-0.13672-0.44922-1.12811-4.02147 0.46762-5.08541 3.81054-7.787112l1.85157-1.4043c5.26873-3.91794 4.49684-5.6499 1.74804-10.29101-1.81838-3.23199-2.91322-4.96776-5.3789-4.89063-1.12074 0.0351-2.52465 0.44605-4.40821 1.25977l-2.14062 0.90039c-4.30247 1.6564-5.9673 2.51834-9.30469-1.30274l0.0234 0.10157c-0.39948-0.42146-0.82093-0.82098-1.23242-1.23047l-0.29688 0.17189a60 60 0 0 0-26.55658-15.34008v-0.375c-0.51609-0.13974-1.02715-0.29212-1.54883-0.41797l8e-3 -2e-3c-0.0647-0.0127-0.12052-0.028-0.1836-0.041-0.26683-0.0635-0.53456-0.12365-0.80273-0.1836-4.00194-1.03647-4.12918-2.951807-4.79493-7.181638l-0.28906-2.30468c-0.75862-6.52181-2.64553-6.72204-8.03924-6.66206z" style="filter:url(#filter1489-7);opacity:.4"/>
    <path transform="matrix(2.0393079,0,0,2.0393079,-27.209767,25.047821)" d="m123.7032 47.831652c-5.39372-0.06-7.28039 0.14029-8.03906 6.66211l-0.28906 2.30468c-0.66573 4.22983-0.793 6.14518-4.79493 7.18165-0.26817 0.0599-0.53589 0.12006-0.80273 0.18359-0.0631 0.013-0.11885 0.0282-0.1836 0.041l8e-3 2e-3c-0.58868 0.14202-1.16644 0.31108-1.74805 0.4707v0.265626a60 60 0 0 0-26.351558 15.16406l-0.1543-0.0898c-0.4621 0.45783-0.93126 0.9086-1.37891 1.38086l0.0215-0.10157c-3.33739 3.82107-5.00215 2.95911-9.304694 1.30274l-2.14062-0.90235c-1.88356-0.81371-3.28745-1.22275-4.4082-1.25781-2.46567-0.0772-3.56053 1.65668-5.37891 4.88867-2.7488 4.6411-3.52068 6.37502 1.74805 10.29297l1.85156 1.4043c3.34293 2.7017 4.93866 3.765642 3.81055 7.787112-0.047 0.14937-0.0909 0.29936-0.13672 0.44922-0.0489 0.1566-0.0919 0.30729-0.14844 0.47265l0.01-0.01c-0.14784 0.49761-0.27071 1.00525-0.40625 1.50781l0.21875 0.12695a60 60 0 0 0-2.10179 15.46695 60 60 0 0 0 2.04102 15.40234l-0.18164 0.10547c0.1425 0.53154 0.27341 1.06776 0.42969 1.59375l-0.0117-0.01c0.0565 0.16537 0.10147 0.31605 0.15039 0.47265 0.0458 0.14985 0.0897 0.29986 0.13672 0.44922 1.12811 4.02147-0.46762 5.08542-3.81055 7.78711l-1.85156 1.4043c-5.26873 3.91794-4.49685 5.6499-1.74805 10.29101 2.64491 4.70108 3.75971 6.23474 9.78711 3.63086l2.14062-0.90039c4.302534-1.65637 5.967304-2.51832 9.304694 1.30274l-0.0234-0.10157c0.42704 0.45053 0.87567 0.87952 1.31641 1.31641l0.17969-0.10352a60 60 0 0 0 26.390618 15.18555v0.32227c0.58161 0.15962 1.15937 0.32868 1.74805 0.4707l-8e-3 2e-3c0.0647 0.0128 0.12053 0.028 0.1836 0.041 0.26684 0.0635 0.53456 0.12365 0.80273 0.18359 4.00193 1.03647 4.12918 2.95182 4.79493 7.18164l0.28906 2.30469c0.75867 6.52182 2.64534 6.72209 8.03906 6.66211 5.39371 0.06 7.28039-0.14029 8.03906-6.66211l0.28906-2.30469c0.66577-4.22983 0.79299-6.14518 4.79493-7.18164 0.26817-0.06 0.5359-0.12007 0.80273-0.18359 0.0631-0.0131 0.11885-0.0281 0.1836-0.041l-8e-3 -2e-3c0.52168-0.12585 1.03274-0.27823 1.54883-0.41797v-0.31836a60 60 0 0 0 26.625-15.45703l0.29297 0.16992c0.38888-0.38913 0.78745-0.76857 1.16602-1.16797l-0.0215 0.10157c3.3374-3.82106 5.00215-2.95912 9.30469-1.30274l2.14062 0.90235c6.0274 2.60387 7.14218 1.07022 9.78711-3.63086 2.74879-4.64111 3.5207-6.37503-1.74804-10.29297l-1.85157-1.4043c-3.34293-2.70168-4.93866-3.76564-3.81054-7.78711 0.047-0.14936 0.0908-0.29937 0.13672-0.44922 0.0489-0.1566 0.092-0.30728 0.14843-0.47265l-0.01 0.01c0.17637-0.59363 0.32563-1.19811 0.48437-1.79883l-0.39648-0.22851a60 60 0 0 0 2.0023-15.07422 60 60 0 0 0-1.99023-15.17969l0.36132-0.20898c-0.15198-0.57166-0.29299-1.14764-0.46093-1.71289l0.0117 0.01c-0.0565-0.16536-0.10152-0.31604-0.15039-0.47265-0.0458-0.14986-0.0897-0.29985-0.13672-0.44922-1.12811-4.02147 0.46762-5.085412 3.81054-7.787112l1.85157-1.4043c5.26873-3.91794 4.49684-5.6499 1.74804-10.29101-1.81838-3.23199-2.91322-4.96776-5.3789-4.89063-1.12074 0.0351-2.52465 0.44605-4.40821 1.25977l-2.14062 0.90039c-4.30247 1.6564-5.9673 2.51834-9.30469-1.30274l0.0234 0.10157c-0.39948-0.42146-0.82093-0.82098-1.23242-1.23047l-0.29688 0.17189a60 60 0 0 0-26.55658-15.34008v-0.374996c-0.51609-0.13974-1.02715-0.29212-1.54883-0.41797l8e-3 -2e-3c-0.0647-0.0127-0.12052-0.028-0.1836-0.041-0.26683-0.0635-0.53456-0.12365-0.80273-0.1836-4.00194-1.03647-4.12918-2.95181-4.79493-7.18164l-0.28906-2.30468c-0.75862-6.52181-2.64553-6.72204-8.03924-6.66206z" style="filter:url(#filter1497-3);opacity:.1"/>
    <path d="m225.0589 118.51194c-10.99946-0.12231-14.84696 0.2861-16.39412 13.5861l-0.58948 4.69996c-1.35763 8.62593-1.61717 12.5319-9.77834 14.64558-0.54688 0.12224-1.09285 0.24486-1.63702 0.37441-0.12868 0.0265-0.24237 0.0576-0.37441 0.0837l0.0163 4e-3c-1.2005 0.28962-2.37873 0.63439-3.56481 0.95991v0.54169a122.35847 122.35847 0 0 0-53.73894 30.92418l-0.31467-0.18313c-0.94236 0.93366-1.89912 1.85292-2.81202 2.816l0.0438-0.20713c-6.80597 7.79234-10.20093 6.03454-18.97514 2.65669l-4.36538-1.84017c-3.84116-1.65941-6.70412-2.49357-8.98968-2.56506-5.028257-0.15744-7.261017 3.37848-10.969247 9.9695-5.60565 9.46463-7.17975 13.00063 3.56481 20.99053l3.7759 2.8638c6.817257 5.5096 10.071447 7.6793 7.770887 15.88032-0.0958 0.30462-0.18538 0.61049-0.27882 0.9161-0.0997 0.31936-0.18741 0.62666-0.30271 0.96388l0.0204-0.0204c-0.30149 1.01478-0.55206 2.05001-0.82847 3.07489l0.4461 0.25889a122.35847 122.35847 0 0 0-4.2862 31.54187 122.35847 122.35847 0 0 0 4.16227 31.41011l-0.37042 0.21509c0.2906 1.08397 0.55757 2.17749 0.87627 3.25015l-0.0239-0.0204c0.11522 0.33724 0.20693 0.64453 0.30669 0.96388 0.0934 0.30559 0.18293 0.61151 0.27882 0.9161 2.30056 8.20102-0.95362 10.37074-7.770887 15.88031l-3.7759 2.8638c-10.74456 7.98989-9.17046 11.52189-3.56481 20.98654 5.39378 9.58695 7.667197 12.71456 19.958927 7.40444l4.36538-1.83617c8.77419-3.37785 12.16917-5.13563 18.97514 2.65669l-0.0477-0.20713c0.87086 0.91877 1.78576 1.79361 2.68456 2.68456l0.36645-0.21111a122.35847 122.35847 0 0 0 53.81859 30.96802v0.6572c1.18608 0.32552 2.36432 0.67028 3.56481 0.95991l-0.0163 4e-3c0.13194 0.0261 0.2458 0.0571 0.37442 0.0836 0.54417 0.12949 1.09013 0.25216 1.63701 0.37439 8.16117 2.11368 8.42067 6.01967 9.77834 14.64558l0.58948 4.69997c1.54716 13.3 5.39466 13.70841 16.39412 13.58609 10.99944 0.12236 14.84696-0.28609 16.39412-13.58609l0.58948-4.69997c1.35771-8.62593 1.61715-12.53192 9.77834-14.64558 0.54688-0.12236 1.09287-0.24486 1.63701-0.37439 0.12868-0.0267 0.24238-0.0573 0.37442-0.0836l-0.0163-4e-3c1.06386-0.25665 2.10607-0.5674 3.15854-0.85237v-0.64924a122.35847 122.35847 0 0 0 54.29657-31.52164l0.59746 0.34652c0.79304-0.79356 1.60585-1.56735 2.37787-2.38185l-0.0438 0.20713c6.80599-7.79232 10.20093-6.03456 18.97513-2.65669l4.36539 1.84017c12.29172 5.31009 14.5651 2.18251 19.95893-7.40444 5.60563-9.46465 7.17979-13.00065-3.5648-20.99054l-3.77592-2.8638c-6.81726-5.50955-10.07145-7.67929-7.77086-15.88031 0.0959-0.30459 0.18517-0.61051 0.27881-0.9161 0.0997-0.31935 0.18762-0.62664 0.3027-0.96388l-0.0204 0.0204c0.35968-1.2106 0.66406-2.44332 0.98778-3.66837l-0.80854-0.466a122.35847 122.35847 0 0 0 4.08375-30.74098 122.35847 122.35847 0 0 0-4.05869-30.95606l0.73685-0.42618c-0.30994-1.16579-0.5975-2.34039-0.93998-3.49311l0.0239 0.0204c-0.11522-0.33722-0.20703-0.64451-0.30669-0.96388-0.0934-0.30561-0.18293-0.61149-0.27882-0.9161-2.30056-8.20102 0.95362-10.37072 7.77087-15.88032l3.77592-2.8638c10.74456-7.98989 9.17044-11.52189 3.56479-20.98654-3.70824-6.59102-5.94095-10.13079-10.96923-9.9735-2.28554 0.0716-5.14854 0.90964-8.9897 2.56906l-4.36539 1.83617c-8.77406 3.37791-12.16916 5.13567-18.97512-2.65668l0.0477 0.20713c-0.81467-0.85949-1.67413-1.67423-2.51329-2.50931l-0.60543 0.3505a122.35847 122.35847 0 0 0-54.15751-31.28311v-0.76474c-1.05247-0.28497-2.09467-0.59572-3.15854-0.85237l0.0163-4e-3c-0.13194-0.0259-0.24577-0.057-0.37441-0.0836-0.54415-0.12954-1.09013-0.25216-1.63702-0.37441-8.16118-2.11367-8.42067-6.01965-9.77833-14.64557l-0.58949-4.69997c-1.54706-13.29996-5.39505-13.7083-16.39448-13.58599z" style="fill:#313131"/>
    <path d="m225.06041 118.51151c-10.99946-0.12231-14.84696 0.2861-16.39412 13.5861l-0.58948 4.69996c-1.35763 8.62593-1.61716 12.5319-9.77832 14.64558-0.54688 0.12224-1.09287 0.24486-1.63704 0.37441-0.12868 0.0265-0.24235 0.0576-0.37439 0.0837l0.0163 4e-3c-1.2005 0.28962-2.37873 0.63439-3.56481 0.9599v0.5417a122.35847 122.35847 0 0 0-53.73894 30.92419l-0.31467-0.18313c-0.94236 0.93366-1.8991 1.85291-2.812 2.816l0.0439-0.20713c-6.80597 7.79233-10.20091 6.03453-18.97512 2.65668l-4.3654-1.84017c-3.84115-1.6594-6.70412-2.49356-8.98968-2.56506-5.028257-0.15743-7.261007 3.37848-10.969247 9.96951-3.22653 5.44772-5.09968 8.93176-4.07463 12.43103 0.59396-2.34392 2.06909-4.96623 4.07463-8.35242 3.70824-6.59102 5.94099-10.12694 10.969247-9.9695 2.28556 0.0716 5.14853 0.90565 8.98968 2.56506l4.3654 1.84017c8.77421 3.37785 12.16915 5.13565 18.97512-2.65669l-0.0439 0.20713c0.9129-0.96308 1.86964-1.88234 2.812-2.81599l0.31467 0.18313a122.35847 122.35847 0 0 1 53.73894-30.92419v-0.5417c1.18608-0.32552 2.36431-0.67029 3.56481-0.95991l-0.0163-4e-3c0.13214-0.0261 0.24571-0.0571 0.37439-0.0837 0.54417-0.12954 1.09016-0.25217 1.63704-0.3744 8.16116-2.11368 8.42069-6.01966 9.77832-14.64558l0.58948-4.69997c1.54716-13.3 5.39466-13.70841 16.39412-13.58609 10.99943-0.12232 14.84706 0.28613 16.39414 13.58609l0.58948 4.69997c1.35767 8.62592 1.61713 12.5319 9.77832 14.64558 0.54688 0.12223 1.09286 0.24486 1.63701 0.3744 0.12868 0.0267 0.24247 0.0577 0.37442 0.0837l-0.0163 4e-3c1.06385 0.25665 2.10606 0.5674 3.15852 0.85237v0.76474a122.35847 122.35847 0 0 1 54.15717 31.28266l0.60543-0.35049c0.83915 0.83507 1.69862 1.64982 2.51328 2.5093l-0.0477-0.20713c6.80597 7.79236 10.20107 6.0346 18.97513 2.65669l4.3654-1.83617c3.84116-1.65943 6.70415-2.49748 8.98968-2.56906 5.02828-0.15723 7.26102 3.38247 10.96923 9.9735 2.00764 3.38969 3.47796 6.01526 4.07067 8.36036 1.03081-3.50112-0.8414-6.98669-4.07067-12.43898-3.70821-6.59102-5.94095-10.13079-10.96923-9.9735-2.28553 0.0716-5.14852 0.90963-8.98968 2.56906l-4.3654 1.83617c-8.77406 3.37791-12.16916 5.13567-18.97513-2.65669l0.0477 0.20714c-0.81466-0.85949-1.67413-1.67423-2.51328-2.50931l-0.60543 0.3505a122.35847 122.35847 0 0 0-54.15678-31.28277v-0.76474c-1.05247-0.28497-2.09467-0.59572-3.15852-0.85237l0.0163-4e-3c-0.13194-0.0259-0.24577-0.057-0.37441-0.0837-0.54415-0.12954-1.09014-0.25217-1.63702-0.37441-8.16118-2.11367-8.42065-6.01965-9.77831-14.64557l-0.58949-4.69997c-1.54708-13.29996-5.3947-13.7084-16.39414-13.58609zm-116.8141 113.791c-0.1214 0.75153-0.27138 1.53134-0.51779 2.40973-0.0958 0.30461-0.18538 0.61049-0.27881 0.9161-0.0997 0.31936-0.18742 0.62666-0.30271 0.96388l0.02-0.0204c-0.30149 1.01478-0.55206 2.05001-0.82847 3.07488l0.4461 0.25889a122.35847 122.35847 0 0 0-4.2858 31.54206 122.35847 122.35847 0 0 0 0.0836 1.63701 122.35847 122.35847 0 0 1 4.20209-29.09996l-0.4461-0.25889c0.27641-1.02487 0.52698-2.06011 0.82847-3.07489l-0.02 0.0204c0.11531-0.33722 0.203-0.64452 0.30272-0.96387 0.0934-0.30562 0.18296-0.61149 0.27881-0.9161 0.761-2.71281 0.90032-4.75626 0.51779-6.48835zm233.6282 0c-0.38251 1.73209-0.24321 3.77554 0.5178 6.48835 0.0958 0.30461 0.18538 0.61048 0.27882 0.9161 0.0997 0.31937 0.19149 0.62665 0.30669 0.96387l-0.0239-0.0204c0.34248 1.15272 0.63006 2.32732 0.94 3.49311l-0.73687 0.42618a122.35847 122.35847 0 0 1 3.97506 29.3987 122.35847 122.35847 0 0 0 0.0836-2.52126 122.35847 122.35847 0 0 0-4.05869-30.95606l0.73687-0.42617c-0.30994-1.1658-0.59752-2.3404-0.94-3.49311l0.0239 0.0204c-0.11522-0.33722-0.20703-0.6445-0.30669-0.96388-0.0934-0.30561-0.18293-0.61149-0.27882-0.9161-0.24641-0.87839-0.39638-1.6582-0.5178-2.40973zm2.02736 70.33223a122.35847 122.35847 0 0 1-0.15927 0.74481c0.063-0.24245 0.13113-0.48282 0.19516-0.72491zm-2.03133 12.03668c-1.01205 6.26492 2.20561 8.55119 8.29266 13.47059l3.7759 2.8638c4.56014 3.391 6.87962 5.97929 7.63545 8.55951 1.06621-4.2075-0.73498-7.5068-7.63545-12.63812l-3.7759-2.8638c-4.56279-3.68754-7.51926-5.88702-8.29266-9.39198zm-233.62423 4e-3c-0.7748 3.50258-3.72765 5.70185-8.288667 9.38798l-3.77591 2.8638c-6.89901 5.13024-8.70419 8.42909-7.63944 12.63414 0.75694-2.57821 3.08139-5.16607 7.63944-8.55553l3.77591-2.8638c6.085917-4.91852 9.298947-7.2043 8.288667-13.46659z" style="fill:#ffffff;opacity:.7"/>
    <path transform="matrix(2.0393079,0,0,2.0393079,-30.65045,9.5359162)" d="m5.5742188 157.73828c0.0032236 8.96256 0.1605 17.00115 0.5820312 24.1582 0.2128956 3.6147 0.4922654 7.01125 0.8496094 10.20313 0.3573439 3.19188 0.7931864 6.18021 1.3203125 8.97461 0.527126 2.7944 1.1449456 5.39611 1.8671871 7.81836 0.722242 2.42224 1.547543 4.66482 2.490235 6.74023 0.942691 2.07541 2.002931 3.98242 3.191406 5.73633s2.505252 3.35478 3.964844 4.8125c1.459591 1.45773 3.062317 2.77212 4.818359 3.95898 1.756042 1.18687 3.666314 2.24616 5.744141 3.1875 2.077826 0.94135 4.323102 1.7652 6.748047 2.48633 2.424944 0.72114 5.028775 1.33898 7.826171 1.86524 2.797397 0.52626 5.78724 0.96165 8.982422 1.31836 3.195182 0.3567 6.596543 0.63518 10.214844 0.84765 7.236602 0.42496 15.3447 0.58594 24.425781 0.58594h73.937501c9.08108 0 17.18918-0.16098 24.42578-0.58594 3.6183-0.21247 7.01771-0.49095 10.21289-0.84765 3.19518-0.35671 6.18503-0.7921 8.98242-1.31836 2.7974-0.52626 5.40318-1.1441 7.82813-1.86524 2.42494-0.72113 4.67022-1.54498 6.74805-2.48633 2.07782-0.94134 3.98809-2.00063 5.74414-3.1875 1.75604-1.18686 3.35681-2.50125 4.8164-3.95898 1.45959-1.45772 2.77832-3.05859 3.9668-4.8125 1.18847-1.75391 2.24676-3.66092 3.18945-5.73633s1.76995-4.31799 2.49219-6.74023c0.72224-2.42225 1.34006-5.02396 1.86719-7.81836 0.52712-2.7944 0.96297-5.78273 1.32031-8.97461s0.63671-6.58843 0.84961-10.20313c0.42579-7.22938 0.58789-15.32977 0.58789-24.40234v-45.63086s-39.79548 8.57031-59.99805 8.57031c-40.40513 0-79.59292-17.14062-119.99804-17.14062-20.202565 0-59.998047 8.57031-59.998047 8.57031v45.875z" style="fill:#81e9c0;opacity:.2"/>
    <path transform="matrix(2.0393079,0,0,2.0393079,-30.65045,9.5359162)" d="m245.45703 94.742188c0.01236 1.651046 0.11133 2.906687 0.11133 4.626953v-4.648438s-0.11084 0.021379-0.11133 0.021485z" style="fill:#81e9c0;opacity:.2"/>
    <path transform="matrix(2.0393079,0,0,2.0393079,-30.65045,9.5359162)" d="m5.6816406 94.701172c-4.542e-4 9.8e-5 -0.1074218 0.019531-0.1074218 0.019531v4.404297c5.903e-4 -1.641229 0.0954978-2.845836 0.1074218-4.423828z" style="fill:#81e9c0;opacity:.2"/>
    <path transform="matrix(2.0393079,0,0,2.0393079,-30.65045,9.5359162)" d="m5.6816406 94.701172c-0.011924 1.577992-0.1068315 2.782599-0.1074218 4.423828v58.61328c0.0032236 8.96256 0.1605 17.00115 0.5820312 24.1582 0.2128956 3.6147 0.4922654 7.01125 0.8496094 10.20313 0.3573439 3.19188 0.7931864 6.18021 1.3203125 8.97461 0.527126 2.7944 1.1449456 5.39611 1.8671871 7.81836 0.722242 2.42224 1.547543 4.66482 2.490235 6.74023 0.942691 2.07541 2.002931 3.98242 3.191406 5.73633s2.505252 3.35478 3.964844 4.8125c1.459591 1.45773 3.062317 2.77212 4.818359 3.95898 1.756042 1.18687 3.666314 2.24616 5.744141 3.1875 2.077826 0.94135 4.323102 1.7652 6.748047 2.48633 2.424944 0.72114 5.028775 1.33898 7.826171 1.86524 2.797397 0.52626 5.78724 0.96165 8.982422 1.31836 3.195182 0.3567 6.596543 0.63518 10.214844 0.84765 7.236602 0.42496 15.3447 0.58594 24.425781 0.58594h73.937501c9.08108 0 17.18918-0.16098 24.42578-0.58594 3.6183-0.21247 7.01771-0.49095 10.21289-0.84765 3.19518-0.35671 6.18503-0.7921 8.98242-1.31836 2.7974-0.52626 5.40318-1.1441 7.82813-1.86524 2.42494-0.72113 4.67022-1.54498 6.74805-2.48633 2.07782-0.94134 3.98809-2.00063 5.74414-3.1875 1.75604-1.18686 3.35681-2.50125 4.8164-3.95898 1.45959-1.45772 2.77832-3.05859 3.9668-4.8125 1.18847-1.75391 2.24676-3.66092 3.18945-5.73633s1.76995-4.31799 2.49219-6.74023c0.72224-2.42225 1.34006-5.02396 1.86719-7.81836 0.52712-2.7944 0.96297-5.78273 1.32031-8.97461s0.63671-6.58843 0.84961-10.20313c0.42579-7.22938 0.58789-15.32977 0.58789-24.40234v-58.124999c0-1.720266-0.09897-2.975907-0.11133-4.626953-0.19679 0.042357-39.73432 8.550782-59.88672 8.550782-40.40513 0-79.59292-17.142579-119.99804-17.142579-20.154257 0-59.701102 8.509986-59.890625 8.550781z" style="fill:#81e9c0;opacity:.2"/>
    <path d="m103.07171 185.22162c-41.19925 0-122.35553 17.47937-122.35553 17.47937v2.18492s81.156276-17.47937 122.35553-17.47937c82.39849 0 162.31256 34.95873 244.71106 34.95873 41.19925 0 122.35552-17.47936 122.35552-17.47936v-2.18492s-81.15627 17.47937-122.35552 17.47937c-82.3985 0-162.31257-34.95874-244.71106-34.95874z" style="fill:#ffffff;opacity:.7"/>
    <path d="m103.07171 220.18036c-41.19925 0-122.35553 17.47935-122.35553 17.47935v34.95872s81.156276-17.47936 122.35553-17.47936c82.39849 0 162.31256 34.95873 244.71106 34.95873 41.19925 0 122.35552-17.47937 122.35552-17.47937v-34.95872s-81.15627 17.47936-122.35552 17.47936c-82.3985 0-162.31257-34.95871-244.71106-34.95871z" style="fill:url(#linearGradient24049-5-1);opacity:.1"/>
    <path d="m103.07171 220.18036c-41.19925 0-122.35553 17.47935-122.35553 17.47935v2.18493s81.156276-17.47937 122.35553-17.47937c82.39849 0 162.31256 34.95872 244.71106 34.95872 41.19925 0 122.35552-17.47935 122.35552-17.47935v-2.18493s-81.15627 17.47936-122.35552 17.47936c-82.3985 0-162.31257-34.95871-244.71106-34.95871z" style="fill:#ffffff;opacity:.7"/>
    <path transform="matrix(2.0393079,0,0,2.0393079,-30.65045,9.5359162)" d="m5.5742188 157.73828c0.0032236 8.96256 0.1605 17.00115 0.5820312 24.1582 0.2128956 3.6147 0.4922654 7.01125 0.8496094 10.20313 0.3573439 3.19188 0.7931864 6.18021 1.3203125 8.97461 0.527126 2.7944 1.1449456 5.39611 1.8671871 7.81836 0.722242 2.42224 1.547543 4.66482 2.490235 6.74023 0.942691 2.07541 2.002931 3.98242 3.191406 5.73633s2.505252 3.35478 3.964844 4.8125c1.459591 1.45773 3.062317 2.77212 4.818359 3.95898 1.756042 1.18687 3.666314 2.24616 5.744141 3.1875 2.077826 0.94135 4.323102 1.7652 6.748047 2.48633 2.424944 0.72114 5.028775 1.33898 7.826171 1.86524 2.797397 0.52626 5.78724 0.96165 8.982422 1.31836 3.195182 0.3567 6.596543 0.63518 10.214844 0.84765 7.236602 0.42496 15.3447 0.58594 24.425781 0.58594h73.937501c9.08108 0 17.18918-0.16098 24.42578-0.58594 3.6183-0.21247 7.01771-0.49095 10.21289-0.84765 3.19518-0.35671 6.18503-0.7921 8.98242-1.31836 2.7974-0.52626 5.40318-1.1441 7.82813-1.86524 2.42494-0.72113 4.67022-1.54498 6.74805-2.48633 2.07782-0.94134 3.98809-2.00063 5.74414-3.1875 1.75604-1.18686 3.35681-2.50125 4.8164-3.95898 1.45959-1.45772 2.77832-3.05859 3.9668-4.8125 1.18847-1.75391 2.24676-3.66092 3.18945-5.73633s1.76995-4.31799 2.49219-6.74023c0.72224-2.42225 1.34006-5.02396 1.86719-7.81836 0.52712-2.7944 0.96297-5.78273 1.32031-8.97461s0.63671-6.58843 0.84961-10.20313c0.42579-7.22938 0.58789-15.32977 0.58789-24.40234v-28.48828s-39.79548 8.57226-59.99805 8.57226c-40.40513 0-79.59292-17.14257-119.99804-17.14257-20.202565 0-59.998047 8.57031-59.998047 8.57031v28.73242z" style="fill:#81e9c0;opacity:.2"/>
    <path transform="matrix(2.0393079,0,0,2.0393079,-30.65045,9.5359162)" d="m5.5742188 157.73828c0.0032236 8.96256 0.1605 17.00115 0.5820312 24.1582 0.2128956 3.6147 0.4922654 7.01125 0.8496094 10.20313 0.3573439 3.19188 0.7931864 6.18021 1.3203125 8.97461 0.527126 2.7944 1.1449456 5.39611 1.8671871 7.81836 0.722242 2.42224 1.547543 4.66482 2.490235 6.74023 0.942691 2.07541 2.002931 3.98242 3.191406 5.73633s2.505252 3.35478 3.964844 4.8125c1.459591 1.45773 3.062317 2.77212 4.818359 3.95898 1.756042 1.18687 3.666314 2.24616 5.744141 3.1875 2.077826 0.94135 4.323102 1.7652 6.748047 2.48633 2.424944 0.72114 5.028775 1.33898 7.826171 1.86524 2.797397 0.52626 5.78724 0.96165 8.982422 1.31836 3.195182 0.3567 6.596543 0.63518 10.214844 0.84765 7.236602 0.42496 15.3447 0.58594 24.425781 0.58594h73.937501c9.08108 0 17.18918-0.16098 24.42578-0.58594 3.6183-0.21247 7.01771-0.49095 10.21289-0.84765 3.19518-0.35671 6.18503-0.7921 8.98242-1.31836 2.7974-0.52626 5.40318-1.1441 7.82813-1.86524 2.42494-0.72113 4.67022-1.54498 6.74805-2.48633 2.07782-0.94134 3.98809-2.00063 5.74414-3.1875 1.75604-1.18686 3.35681-2.50125 4.8164-3.95898 1.45959-1.45772 2.77832-3.05859 3.9668-4.8125 1.18847-1.75391 2.24676-3.66092 3.18945-5.73633s1.76995-4.31799 2.49219-6.74023c0.72224-2.42225 1.34006-5.02396 1.86719-7.81836 0.52712-2.7944 0.96297-5.78273 1.32031-8.97461s0.63671-6.58843 0.84961-10.20313c0.42579-7.22938 0.58789-15.32977 0.58789-24.40234v-11.3457s-39.79548 8.57226-59.99805 8.57226c-40.40513 0-79.59292-17.14258-119.99804-17.14258-20.202565 0-59.998047 8.57032-59.998047 8.57032v11.58984z" style="fill:#81e9c0;opacity:.2"/>
    <path d="m103.07171 255.13907c-41.19925 0-122.35553 17.47936-122.35553 17.47936v34.95873s81.156276-17.47936 122.35553-17.47936c82.39849 0 162.31256 34.95871 244.71106 34.95871 41.19925 0 122.35552-17.47935 122.35552-17.47935v-34.95873s-81.15627 17.47937-122.35552 17.47937c-82.3985 0-162.31257-34.95873-244.71106-34.95873z" style="fill:url(#linearGradient24049-5-2);opacity:.1"/>
    <path d="m103.07171 290.0978c-41.19925 0-122.35553 17.47936-122.35553 17.47936v2.18492s81.156276-17.47936 122.35553-17.47936c82.39849 0 162.31256 34.95872 244.71106 34.95872 41.19925 0 122.35552-17.47936 122.35552-17.47936v-2.18492s-81.15627 17.47935-122.35552 17.47935c-82.3985 0-162.31257-34.95871-244.71106-34.95871z" style="fill:#ffffff;opacity:.7"/>
    <path d="m103.07171 255.13907c-41.19925 0-122.35553 17.47936-122.35553 17.47936v2.18492s81.156276-17.47936 122.35553-17.47936c82.39849 0 162.31256 34.95873 244.71106 34.95873 41.19925 0 122.35552-17.47937 122.35552-17.47937v-2.18492s-81.15627 17.47937-122.35552 17.47937c-82.3985 0-162.31257-34.95873-244.71106-34.95873z" style="fill:#ffffff;opacity:.7"/>
   </g>
   <path transform="matrix(1.0196539,0,0,1.0196539,-67.14325,260.569)" d="M 361.9375,-212 C 507.2348,-212 528,-191.28677 528,-46.125 V 70.125 C 528,215.28618 507.2348,236 361.9375,236 H 214.0625 C 68.7652,236 48,215.28618 48,70.125 V -46.125 C 48,-191.28677 68.7652,-212 214.0625,-212 Z" clip-path="url(#clipPath1082-3-3675356)" style="fill:none;opacity:.4;stroke-linecap:round;stroke-linejoin:round;stroke-width:8;stroke:url(#linearGradient1108)"/>
  </g>
 </g>
</svg>
