<svg xmlns="http://www.w3.org/2000/svg" xmlns:xlink="http://www.w3.org/1999/xlink" width="256" height="256" version="1.0" style="enable-background:new">
 <defs>
  <filter style="color-interpolation-filters:sRGB" id="filter925" width="1.046" height="1.05" x="-.02" y="-.03">
   <feGaussianBlur stdDeviation="2.32"/>
  </filter>
  <filter style="color-interpolation-filters:sRGB" id="filter931" width="1.023" height="1.025" x="-.01" y="-.01">
   <feGaussianBlur stdDeviation="1.16"/>
  </filter>
  <linearGradient id="linearGradient1108" x1="296" x2="296" y1="-212" y2="236" gradientUnits="userSpaceOnUse" xlink:href="#linearGradient1013"/>
  <linearGradient id="linearGradient1013">
   <stop offset="0" style="stop-color:#ffffff"/>
   <stop style="stop-color:#ffffff;stop-opacity:0.09803922" offset=".125"/>
   <stop style="stop-color:#000000;stop-opacity:0.09803922" offset=".925"/>
   <stop offset="1" style="stop-color:#000000;stop-opacity:0.49803922"/>
  </linearGradient>
  <clipPath id="clipPath1082-3-6" clipPathUnits="userSpaceOnUse">
   <path d="M 361.9375,-212 C 507.2348,-212 528,-191.28677 528,-46.125 V 70.125 C 528,215.28618 507.2348,236 361.9375,236 H 214.0625 C 68.7652,236 48,215.28618 48,70.125 V -46.125 C 48,-191.28677 68.7652,-212 214.0625,-212 Z" style="fill:#8c59d9"/>
  </clipPath>
 </defs>
 <g transform="translate(0,-44)">
  <g>
   <g>
    <path d="m 162.53675,62.431991 c 72.64865,0 83.03125,10.356615 83.03125,82.937499 v 58.125 c 0,72.58059 -10.3826,82.9375 -83.03125,82.9375 h -73.9375 c -72.64865,0 -83.0312501,-10.35691 -83.0312501,-82.9375 v -58.125 c 0,-72.580884 10.3826001,-82.937499 83.0312501,-82.937499 z" style="opacity:0.2;filter:url(#filter925)"/>
    <path style="opacity:0.1;filter:url(#filter931)" d="m 162.53675,61.431991 c 72.64865,0 83.03125,10.356615 83.03125,82.937499 v 58.125 c 0,72.58059 -10.3826,82.9375 -83.03125,82.9375 h -73.9375 c -72.64865,0 -83.0312501,-10.35691 -83.0312501,-82.9375 v -58.125 c 0,-72.580884 10.3826001,-82.937499 83.0312501,-82.937499 z"/>
   </g>
   <g>
    <path style="fill:#fa4b8c" d="m 162.53675,60.431991 c 72.64865,0 83.03125,10.356615 83.03125,82.937499 v 58.125 c 0,72.58059 -10.3826,82.9375 -83.03125,82.9375 h -73.9375 c -72.64865,0 -83.0312501,-10.35691 -83.0312501,-82.9375 v -58.125 c 0,-72.580884 10.3826001,-82.937499 83.0312501,-82.937499 z"/>
   </g>
  </g>
 </g>
 <path style="opacity:0.2;fill:#2f0000" d="m 5.568,106.92534 v 50.54844 c 0,8.43718 0.18588,15.85634 0.54798,22.69334 16.2811,-2.69218 36.56671,-8.42151 47.4501,-10.11467 8.15146,14.38664 20.566,26.00258 35.59764,33.3081 -15.56948,9.32252 -45.48231,19.02337 -69.43063,22.66843 0.0393,0.0396 0.0678,0.0908 0.1073,0.13029 1.45959,1.45772 3.06082,2.77354 4.81686,3.96041 1.75604,1.18687 3.66639,2.24501 5.74421,3.18634 2.07783,0.94134 4.32326,1.76585 6.74821,2.487 2.42494,0.72114 5.02952,1.33994 7.82692,1.8662 2.7974,0.52626 5.78709,0.96151 8.98227,1.31823 3.19519,0.3567 6.59598,0.6344 10.21428,0.84688 7.2366,0.42496 15.34427,0.5863 24.42536,0.5863 h 26.31454 c 3.77666,-11.07657 7.57417,-23.20957 9.68354,-28.60427 0.40391,0.0334 0.80844,0.0669 1.21283,0.0958 16.3706,-0.0223 32.3664,-4.81205 45.96328,-13.75894 0.22035,8.75856 -2.19978,26.68739 -4.89733,42.16394 7.18675,-0.0499 14.13609,-0.13335 20.08749,-0.48283 3.6183,-0.21248 7.0191,-0.49018 10.21428,-0.84688 3.19518,-0.35672 6.18488,-0.79197 8.98227,-1.31823 2.7974,-0.52626 5.40199,-1.14506 7.82693,-1.8662 2.42494,-0.72115 4.67038,-1.54566 6.74821,-2.487 2.07782,-0.94133 3.98816,-1.99947 5.7442,-3.18634 1.05913,-0.71584 1.95523,-1.57673 2.90468,-2.38928 -7.53749,-18.75501 -21.46641,-42.10422 -32.56075,-55.52051 7.66584,-12.57954 11.7187,-26.96061 11.72984,-41.61788 -1e-4,-1.79232 -0.0611,-3.58409 -0.18202,-5.37252 13.28183,7.08606 26.44553,16.82392 37.19751,28.11568 V 99.34744 c 0,-3.630906 -0.17721,-6.439996 -0.23568,-9.765956 -16.1718,-1.983554 -33.05444,-0.897967 -47.40411,1.398696 -8.16525,-14.311302 -20.55654,-25.860736 -35.54016,-33.12799 18.68399,-11.241475 49.8837,-20.525115 73.57305,-21.124123 -0.24788,-0.398817 -0.43921,-0.871103 -0.69934,-1.254992 -1.12933,-1.666612 -2.39525,-3.173015 -3.76881,-4.571624 -0.91279,-0.755302 -1.76136,-1.567302 -2.77247,-2.237912 -1.78945,-1.186881 -3.73607,-2.245024 -5.85343,-3.186341 -2.11735,-0.941355 -4.40549,-1.765879 -6.87657,-2.486994 -2.47108,-0.721153 -5.12575,-1.339967 -7.97637,-1.866205 -2.85061,-0.526274 -5.89683,-0.961501 -9.1528,-1.318221 -3.25597,-0.356683 -6.72258,-0.634391 -10.40971,-0.846881 -7.37428,-0.424943 -15.63519,-0.586301 -24.88903,-0.586301 h -20.95929 c -6.04192,9.710679 -11.32507,20.506959 -15.44691,31.074013 -0.44841,-0.0035 -0.89664,-0.0035 -1.34504,0 -16.28469,0.01483 -32.20275,4.746828 -45.76017,13.599912 -0.36881,-14.431023 1.33577,-30.136567 5.62541,-44.61453 -8.12871,0.02967 -15.72861,0.145344 -22.35031,0.526906 -3.68713,0.212453 -7.15183,0.490198 -10.4078,0.846881 -3.25596,0.356684 -6.30409,0.791947 -9.15471,1.318221 -2.85062,0.526238 -5.50337,1.145052 -7.97445,1.866205 -2.47108,0.721115 -4.75922,1.545639 -6.87658,2.486994 -2.00596,0.891781 -3.8339,1.908034 -5.54494,3.019647 2.94538,18.496803 16.99831,41.866153 31.59316,59.528831 -7.90838,12.857694 -12.02849,27.615584 -11.90229,42.633354 0.008,1.67986 0.0685,3.35912 0.18203,5.03531 C 32.13049,129.74315 16.69616,117.41793 5.568,106.9253 Z"/>
 <path style="fill:#ffffff" d="M 141.9707 16.410156 C 136.04159 26.120838 130.85543 36.917313 126.81055 47.484375 C 126.37051 47.480875 125.93222 47.480875 125.49219 47.484375 C 109.51154 47.499205 93.890247 52.2309 80.585938 61.083984 C 80.224037 46.652956 81.895919 30.948652 86.105469 16.470703 C 78.128529 16.501313 70.671898 16.614512 64.173828 16.996094 C 60.555528 17.208567 57.154174 17.487049 53.958984 17.84375 C 50.763804 18.200451 47.773962 18.635855 44.976562 19.162109 C 42.179162 19.688362 39.575331 20.306212 37.150391 21.027344 C 34.725441 21.748476 32.480174 22.574288 30.402344 23.515625 C 28.433834 24.407438 26.640037 25.423566 24.960938 26.535156 C 27.851328 45.031986 41.642484 68.401785 55.964844 86.064453 C 48.204114 98.922142 44.161306 113.6795 44.285156 128.69727 C 44.293156 130.37714 44.351401 132.05622 44.462891 133.73242 C 32.950681 127.44856 16.555359 114.0013 5.5683594 103.17188 L 5.5683594 157.47461 C 5.5683594 165.32125 5.769875 172.12045 6.078125 178.57812 C 22.334715 176.04611 43.494473 169.84974 54.595703 168.08984 C 62.594973 182.47648 74.776354 194.09293 89.527344 201.39844 C 73.655744 211.08271 42.464323 221.33551 18.564453 224.61133 C 19.005153 225.11015 19.370194 225.69111 19.839844 226.16016 C 21.299434 227.61788 22.902163 228.93227 24.658203 230.11914 C 26.414243 231.30601 28.324524 232.36531 30.402344 233.30664 C 32.480174 234.24798 34.725441 235.07182 37.150391 235.79297 C 39.575331 236.51411 42.179162 237.1339 44.976562 237.66016 C 47.773963 238.18642 50.763804 238.61984 53.958984 238.97656 C 57.154174 239.33326 60.555528 239.61174 64.173828 239.82422 C 71.410428 240.24918 79.516566 240.41016 88.597656 240.41016 L 114.14453 240.41016 C 118.11092 228.72011 122.08684 215.60851 124.29883 209.84375 C 124.6952 209.87705 125.09338 209.91055 125.49023 209.93945 C 141.55517 209.91715 157.25073 205.12853 170.59375 196.18164 C 170.81912 205.31006 168.27238 224.45159 165.49023 240.33984 C 173.26809 240.30414 180.60107 240.1978 186.96289 239.82422 C 190.58119 239.61174 193.98255 239.33326 197.17773 238.97656 C 200.37291 238.61984 203.36277 238.18642 206.16016 237.66016 C 208.95756 237.1339 211.56139 236.51411 213.98633 235.79297 C 216.41127 235.07182 218.65655 234.24798 220.73438 233.30664 C 222.8122 232.36531 224.72248 231.30601 226.47852 230.11914 C 227.15893 229.65927 227.71097 229.08335 228.3457 228.58398 C 221.27036 209.43519 206.59323 184.31533 195.17773 170.24805 C 202.70045 157.66853 206.67656 143.28814 206.6875 128.63086 C 206.68741 126.83856 206.62836 125.04623 206.50977 123.25781 C 220.57097 130.90241 234.62273 141.54558 245.56836 153.99805 L 245.56836 99.347656 C 245.56836 95.075617 245.37353 91.7089 245.29102 87.857422 C 228.67737 85.413979 211.08195 86.600488 196.26172 89.017578 C 188.24891 74.706277 176.09058 63.157878 161.38672 55.890625 C 179.98828 44.485799 211.2646 35.054069 234.62695 34.705078 C 233.5934 33.272602 232.5213 31.886918 231.29492 30.662109 C 229.83533 29.204386 228.23457 27.88804 226.47852 26.701172 C 224.72248 25.514305 222.8122 24.456961 220.73438 23.515625 C 218.65654 22.574288 216.41127 21.748476 213.98633 21.027344 C 211.56139 20.306212 208.95756 19.688362 206.16016 19.162109 C 203.36277 18.635855 200.37291 18.200451 197.17773 17.84375 C 193.98255 17.487049 190.58119 17.208567 186.96289 16.996094 C 179.72629 16.571143 171.61819 16.410156 162.53711 16.410156 L 141.9707 16.410156 z M 90.552734 81.560547 C 91.385564 81.582203 92.200405 81.811925 92.921875 82.236328 L 128.05273 102.64844 L 163.18555 123.05859 C 166.49807 124.98464 166.49807 129.79555 163.18555 131.72266 L 128.05273 152.13281 L 92.921875 172.54492 C 89.607625 174.46855 85.466757 172.06187 85.466797 168.21094 L 85.466797 86.568359 C 85.467717 83.760246 87.763134 81.459886 90.552734 81.568359 L 90.552734 81.560547 z"/>
 <path d="m 90.553443,81.5677 c -2.7896,-0.108473 -5.08641,2.191937 -5.08733,5.00005 v 81.64412 c -4e-5,3.85093 4.14195,6.25701 7.4562,4.33338 L 128.05276,152.13323 163.1855,131.7225 c 3.31252,-1.92711 3.31252,-6.73701 0,-8.66306 L 128.05276,102.64747 92.922313,82.236827 c -0.72147,-0.424403 -1.53604,-0.653934 -2.36887,-0.67559 z" style="fill:#2f0000;opacity:0.2"/>
 <path style="fill:#fa4b8c" d="m 90.553443,83.56767 c -2.7896,-0.108473 -5.08641,2.191937 -5.08733,5.00005 v 81.64418 c -4e-5,3.85093 4.14195,6.25701 7.4562,4.33338 l 35.130447,-20.41202 35.13274,-20.41073 c 3.31252,-1.92711 3.31252,-6.73701 0,-8.66306 L 128.05276,104.6475 92.922313,84.236797 c -0.72147,-0.424403 -1.53604,-0.653934 -2.36887,-0.67559 z"/>
 <path d="M 361.9375,-212 C 507.2348,-212 528,-191.28677 528,-46.125 V 70.125 C 528,215.28618 507.2348,236 361.9375,236 H 214.0625 C 68.7652,236 48,215.28618 48,70.125 V -46.125 C 48,-191.28677 68.7652,-212 214.0625,-212 Z" clip-path="url(#clipPath1082-3-6)" transform="matrix(0.5,0,0,0.5,-18.432,122.432)" style="opacity:0.4;fill:none;stroke:url(#linearGradient1108);stroke-width:8;stroke-linecap:round;stroke-linejoin:round"/>
</svg>
