<svg xmlns="http://www.w3.org/2000/svg" xmlns:xlink="http://www.w3.org/1999/xlink" width="256" height="256" version="1.1" viewBox="0 0 67.73 67.73">
 <defs>
  <linearGradient id="linearGradient3650-7-9">
   <stop style="stop-color:#5884f4" offset="0"/>
   <stop offset="1" style="stop-color:#80a3fa"/>
  </linearGradient>
  <linearGradient id="linearGradient1108" x1="296" x2="296" y1="-212" y2="236" gradientUnits="userSpaceOnUse" xlink:href="#linearGradient1013"/>
  <linearGradient id="linearGradient1013">
   <stop offset="0" style="stop-color:#ffffff"/>
   <stop style="stop-color:#ffffff;stop-opacity:0.09803922" offset=".125"/>
   <stop style="stop-color:#000000;stop-opacity:0.09803922" offset=".925"/>
   <stop offset="1" style="stop-color:#000000;stop-opacity:0.49803922"/>
  </linearGradient>
  <clipPath id="clipPath1082-3-3675" clipPathUnits="userSpaceOnUse">
   <path d="M 361.9375,-212 C 507.2348,-212 528,-191.28677 528,-46.125 V 70.125 C 528,215.28618 507.2348,236 361.9375,236 H 214.0625 C 68.7652,236 48,215.28618 48,70.125 V -46.125 C 48,-191.28677 68.7652,-212 214.0625,-212 Z" style="fill:#8c59d9"/>
  </clipPath>
  <linearGradient id="linearGradient878" x1="32" x2="272" y1="156" y2="156" gradientTransform="rotate(60,152.00002,156.00002)" gradientUnits="userSpaceOnUse" xlink:href="#linearGradient876"/>
  <linearGradient id="linearGradient876">
   <stop style="stop-color:#1a7fd4" offset="0"/>
   <stop style="stop-color:#37a6e6" offset="1"/>
  </linearGradient>
  <filter style="color-interpolation-filters:sRGB" id="filter931" width="1.023" height="1.025" x="-.01" y="-.01">
   <feGaussianBlur stdDeviation="1.16"/>
  </filter>
  <filter style="color-interpolation-filters:sRGB" id="filter925" width="1.046" height="1.05" x="-.02" y="-.03">
   <feGaussianBlur stdDeviation="2.32"/>
  </filter>
  <linearGradient id="linearGradient5663" x1="126.747" x2="169.497" y1="99.032" y2="214.25" gradientTransform="translate(0.99969371,0.99999846)" gradientUnits="userSpaceOnUse" xlink:href="#linearGradient3650-7-9"/>
  <filter style="color-interpolation-filters:sRGB" id="filter5669" width="1.097" height="1.095" x="-.05" y="-.05">
   <feGaussianBlur stdDeviation="2.265"/>
  </filter>
  <linearGradient id="linearGradient4226" x1="494.345" x2="4.414" y1="386.295" y2="169.657" gradientTransform="matrix(0,-0.31615476,-0.31614571,0,230.08851,240.07158)" gradientUnits="userSpaceOnUse" xlink:href="#linearGradient4245"/>
  <linearGradient id="linearGradient4245">
   <stop offset="0" style="stop-color:#e8e8e8"/>
   <stop offset="1" style="stop-color:#f5f5f5"/>
  </linearGradient>
  <linearGradient id="linearGradient4358" x1="88" x2="488" y1="88" y2="488" gradientUnits="userSpaceOnUse" xlink:href="#linearGradient4360"/>
  <linearGradient id="linearGradient4360">
   <stop offset="0" style="stop-color:#000000;stop-opacity:0.58823532"/>
   <stop style="stop-color:#000000;stop-opacity:0" offset=".88"/>
   <stop offset="1" style="stop-color:#000000"/>
  </linearGradient>
  <filter style="color-interpolation-filters:sRGB" id="filter4346" width="1.026" height="1.022" x="-.01" y="-.01">
   <feGaussianBlur stdDeviation="2.12"/>
  </filter>
  <linearGradient id="linearGradient978" x1="126.747" x2="169.497" y1="99.032" y2="214.25" gradientTransform="translate(0.99969371,0.99999846)" gradientUnits="userSpaceOnUse" xlink:href="#linearGradient3650-7-9"/>
 </defs>
 <g transform="translate(0,-229.26666)">
  <path d="m 162.53675,5.568 c 72.64865,0 83.03125,10.356615 83.03125,82.9375 v 58.125 c 0,72.58059 -10.3826,82.9375 -83.03125,82.9375 H 88.59925 C 15.9506,229.568 5.5679999,219.21109 5.5679999,146.6305 V 88.5055 C 5.5679999,15.924615 15.9506,5.568 88.59925,5.568 Z" transform="matrix(0.26458333,0,0,0.26458333,0,232.67026)" style="opacity:0.2;filter:url(#filter925)"/>
  <path style="opacity:0.1;filter:url(#filter931)" d="m 162.53675,4.568 c 72.64865,0 83.03125,10.356615 83.03125,82.9375 v 58.125 c 0,72.58059 -10.3826,82.9375 -83.03125,82.9375 H 88.59925 C 15.9506,228.568 5.5679999,218.21109 5.5679999,145.6305 V 87.5055 C 5.5679999,14.924615 15.9506,4.568 88.59925,4.568 Z" transform="matrix(0.26458333,0,0,0.26458333,0,232.67026)"/>
  <g transform="matrix(0.26458333,0,0,0.26458333,-6.993466,221.97263)" style="enable-background:new">
   <path d="M 188.96875,44.000002 C 261.61739,43.999999 272,54.356621 272,126.9375 v 58.125 C 271.99999,257.64309 261.61739,268 188.96875,268 H 115.03124 C 42.3826,268.00001 32,257.64309 32,185.0625 v -58.125 C 32,54.356619 42.3826,43.999996 115.03125,44 Z" style="fill:url(#linearGradient878)"/>
   <path d="m 32.00002,155.04866 v 32.19356 c 0,70.67306 10.38262,80.75778 83.03125,80.75777 h 73.9375 c 72.64864,0 83.03124,-10.08471 83.03125,-80.75777 v -32.19356 z" style="opacity:0.05;fill:#ffffff"/>
  </g>
  <g transform="matrix(0.26458333,0,0,0.26458333,-8.0313781,221.63148)" style="enable-background:new">
   <g transform="translate(13.719016,-5.335173)">
    <path d="M 189.84323,74 C 119.24979,74 111.65402,81.250835 112,151.98706 V 298 444.01294 C 111.65402,514.74917 119.24979,522 189.84323,522 H 386.15677 C 456.75021,522 462.16345,514.72616 464,444.01294 V 298 151.98706 C 464,81.249993 456.75021,74 386.15677,74 Z" transform="matrix(0.34886041,0,0,0.34886041,41.733894,58.664168)" style="opacity:0.1;filter:url(#filter4346)"/>
    <path style="opacity:0.3;fill:url(#linearGradient4358);filter:url(#filter4380)" d="M 189.84323,74 C 119.24979,74 111.65402,81.250835 112,151.98706 V 298 444.01294 C 111.65402,514.74917 119.24979,522 189.84323,522 H 386.15677 C 456.75021,522 464,514.75001 464,444.01294 V 298 151.98706 C 464,81.249993 456.75021,74 386.15677,74 Z" transform="matrix(0.34886041,0,0,0.34886041,41.733894,58.664168)"/>
    <path d="m 107.1882,82.386677 c -25.186892,0 -27.896973,2.5747 -27.773531,27.692433 v 51.84774 51.84774 c -0.123442,25.11774 2.586639,27.69244 27.773531,27.69244 h 70.04233 c 25.18689,0 27.77352,-2.5744 27.77352,-27.69244 v -51.84774 -51.84774 c 0,-25.118033 -2.58663,-27.692433 -27.77352,-27.692433 z" style="opacity:0.1"/>
    <path d="m 176.44494,83.782119 c 24.62726,0 27.27712,2.529529 27.15642,27.206591 v 50.93814 50.93814 c 0.1207,24.67706 -2.52916,27.20659 -27.15642,27.20659 h -68.48602 c -24.627257,0 -27.156425,-2.52923 -27.156425,-27.20659 v -50.93814 -50.93814 c 0,-24.677355 2.529168,-27.206591 27.156425,-27.206591 z" style="fill:url(#linearGradient4226)"/>
    <path d="m 203.60104,203.79419 -36.2774,36.27739 h 9.12079 c 24.62727,0 27.27731,-2.52995 27.15661,-27.20702 z" style="fill:#ffffff"/>
    <path d="m 107.96287,83.782119 c -24.627266,0 -27.277309,2.529955 -27.15661,27.207021 v 1.39545 C 80.685561,87.707519 83.335604,85.17756 107.96287,85.17756 h 68.48565 c 24.62727,0 27.15661,2.529665 27.15661,27.20703 v -1.39545 c 0,-24.677359 -2.52934,-27.207021 -27.15661,-27.207021 z" style="opacity:0.3;fill:#ffffff"/>
    <path d="m 107.96664,240.07158 c -24.627271,0 -27.277315,-2.52995 -27.156616,-27.20702 v -1.39544 c -0.120699,24.67706 2.529345,27.20702 27.156616,27.20702 h 68.48565 c 24.62726,0 27.15661,-2.52967 27.15661,-27.20702 v 1.39544 c 0,24.67736 -2.52935,27.20702 -27.15661,27.20702 z" style="opacity:0.2"/>
    <path d="M 142.20569,83.782119 V 240.07158 h 34.23874 c 24.62727,0 27.27731,-2.52995 27.15661,-27.20702 v -50.93771 -50.93771 c 0.1207,-24.677066 -2.52934,-27.207021 -27.15661,-27.207021 z" style="opacity:0.2;fill:#ffffff"/>
    <path d="m 80.802171,161.92685 v 50.93771 c 0,24.67736 2.52935,27.20702 27.156609,27.20702 h 68.48565 c 24.62727,0 27.27731,-2.52995 27.15661,-27.20702 v -50.93771 z" style="opacity:0.2;fill:#ffffff"/>
    <g style="font-size:127.99999237px;line-height:1.25;letter-spacing:0px;word-spacing:0px;opacity:0.1;filter:url(#filter5669);enable-background:new" transform="matrix(0.69772082,0,0,0.69772082,36.152127,53.082402)">
     <path d="m 155.9973,123.75 v 8.5 h 34 v 47 h -10 v -3 h -20.5 q 21,17.5 48.5,24.5 l -5,12 q -23,-6 -47,-28.5 v 33 h -10 v -31 q -17.5,19 -44.99999,28 l -5.000004,-10.5 q 29.999994,-9.5 47.499994,-27.5 h -21.5 v 4.5 h -9.99999 v -48.5 h 33.99999 v -8.5 H 96.497306 v -9.49999 H 145.9973 v -11.5 h 9.5 q 4,0.5 0.5,3 v 8.5 h 48.5 V 123.75 Z m 0,44.5 h 24 v -10 h -24 z m 0,-18 h 24 v -10 h -24 z m -34,18 h 24 v -10 h -24 z m 0,-18 h 24 v -10 h -24 z"/>
    </g>
    <g style="font-size:127.99999237px;line-height:1.25;letter-spacing:0px;word-spacing:0px;fill:url(#linearGradient5663);enable-background:new" transform="matrix(0.69772082,0,0,0.69772082,36.152127,53.082402)">
     <path style="fill:url(#linearGradient978)" d="m 156.997,121.75 v 8.5 h 34 v 47 h -10 v -3 h -20.5 q 21,17.5 48.49999,24.5 l -5,12 q -22.99999,-6 -46.99999,-28.5 v 33 h -10 v -31 q -17.5,19 -45,28 l -4.999999,-10.5 Q 126.997,192.25 144.497,174.25 h -21.5 v 4.5 h -10 v -48.5 h 34 v -8.5 H 97.497001 v -9.49999 H 146.997 v -11.5 h 9.5 q 4,0.5 0.5,3 v 8.5 h 48.49999 V 121.75 Z m 0,44.5 h 24 v -10 h -24 z m 0,-18 h 24 v -10 h -24 z m -34,18 h 24 v -10 h -24 z m 0,-18 h 24 v -10 h -24 z"/>
    </g>
    <path d="m 138.71552,123.37778 v 0.69772 h 6.62834 c 0.6859,0.0858 1.1305,0.23618 1.3423,0.44834 0.37154,-0.60053 -0.062,-0.98603 -1.3423,-1.14606 z m -34.53718,8.02378 v 0.69772 h 34.53718 v -0.69772 z m 41.51438,0 v 0.69772 h 33.83946 v -0.69772 z m -30.69971,12.55898 v 0.69771 h 23.72251 v -0.69771 z m 30.69971,0 v 0.69771 h 23.72251 v -0.69771 z m -23.72251,12.55898 v 0.69772 h 16.74531 v -0.69772 z m 23.72251,0 v 0.69772 h 16.74531 v -0.69772 z m -23.72251,12.55897 v 0.69772 h 16.74531 v -0.69772 z m 23.72251,0 v 0.69772 h 16.74531 v -0.69772 z m -9.42604,6.27949 c -8.06985,8.0281 -18.87641,14.19534 -32.4372,18.4896 l 0.28753,0.60369 c 13.81724,-4.41548 24.77072,-10.77886 32.8542,-19.09329 z m 11.86807,0 c 9.70095,8.08412 20.89482,13.75631 33.57781,17.0233 l 0.26165,-0.62686 c -12.41917,-3.16124 -23.40903,-8.63138 -32.97822,-16.39644 z" style="opacity:0.3;fill:#ffffff"/>
    <path d="m 146.68501,123.82611 c -0.1684,0.2722 -0.48567,0.58442 -0.99343,0.94711 v 0.69772 c 1.02785,-0.73418 1.35616,-1.28146 0.99343,-1.64483 z m -42.50783,13.50608 v 0.69772 h 34.53718 v -0.69772 z m 41.5144,0 v 0.69772 h 33.83946 v -0.69772 z m -23.72251,11.5124 v 0.69772 h 16.74529 v -0.69772 z m 23.72251,0 v 0.69772 h 16.74529 v -0.69772 z m -23.72251,12.55898 v 0.69771 h 16.74529 v -0.69771 z m 23.72251,0 v 0.69771 h 16.74529 v -0.69771 z m -23.72251,12.55896 v 0.69772 h 14.29646 c 0.23423,-0.23302 0.47493,-0.46155 0.70453,-0.69772 z m 26.16452,0 c 0.28437,0.23698 0.57433,0.46489 0.86126,0.69772 h 13.44202 v -0.69772 z m 14.30328,2.09317 v 0.69772 h 6.97721 v -0.69772 z m -47.44502,1.04658 V 177.8 h 6.97722 v -0.69772 z m 30.69973,2.44202 v 0.69773 c 11.16353,10.46581 22.09448,17.09415 32.79287,19.88504 l 3.4886,-8.37265 c -0.0879,-0.0225 -0.17387,-0.0483 -0.26164,-0.0708 l -3.22696,7.7458 c -10.69839,-2.79088 -21.62934,-9.41923 -32.79287,-19.88505 z m -6.97722,1.39545 c -8.14007,8.8378 -18.60588,15.34985 -31.39743,19.53618 l -3.20107,-6.72238 c -0.0968,0.031 -0.19051,0.0633 -0.28754,0.0941 l 3.48861,7.32607 c 12.79155,-4.18633 23.25736,-10.69838 31.39743,-19.53618 z m 0,21.62934 v 0.69772 h 6.97722 v -0.69772 z" style="opacity:0.2"/>
   </g>
  </g>
  <path d="M 361.9375,-212 C 507.2348,-212 528,-191.28677 528,-46.125 V 70.125 C 528,215.28618 507.2348,236 361.9375,236 H 214.0625 C 68.7652,236 48,215.28618 48,70.125 V -46.125 C 48,-191.28677 68.7652,-212 214.0625,-212 Z" clip-path="url(#clipPath1082-3-3675)" transform="matrix(0.13229167,0,0,0.13229167,-4.8768,261.66013)" style="opacity:0.4;fill:none;stroke:url(#linearGradient1108);stroke-width:8;stroke-linecap:round;stroke-linejoin:round"/>
 </g>
</svg>
