<svg xmlns="http://www.w3.org/2000/svg" xmlns:xlink="http://www.w3.org/1999/xlink" style="enable-background:new" width="256" height="256" version="1.0">
 <defs>
  <filter id="filter925" width="1.046" height="1.05" x="-.02" y="-.03" style="color-interpolation-filters:sRGB">
   <feGaussianBlur stdDeviation="2.32"/>
  </filter>
  <filter id="filter931" width="1.023" height="1.025" x="-.01" y="-.01" style="color-interpolation-filters:sRGB">
   <feGaussianBlur stdDeviation="1.16"/>
  </filter>
  <linearGradient id="linearGradient1108" x1="296" x2="296" y1="-212" y2="236" gradientUnits="userSpaceOnUse" xlink:href="#linearGradient1013"/>
  <linearGradient id="linearGradient1013">
   <stop style="stop-color:#ffffff" offset="0"/>
   <stop offset=".125" style="stop-color:#ffffff;stop-opacity:0.09803922"/>
   <stop offset=".925" style="stop-color:#000000;stop-opacity:0.09803922"/>
   <stop style="stop-color:#000000;stop-opacity:0.49803922" offset="1"/>
  </linearGradient>
  <clipPath id="clipPath1082-3" clipPathUnits="userSpaceOnUse">
   <path style="fill:#8c59d9" d="M 361.9375,-212 C 507.2348,-212 528,-191.28677 528,-46.125 V 70.125 C 528,215.28618 507.2348,236 361.9375,236 H 214.0625 C 68.7652,236 48,215.28618 48,70.125 V -46.125 C 48,-191.28677 68.7652,-212 214.0625,-212 Z"/>
  </clipPath>
  <linearGradient id="j" x1="48" x2="464" y1="44" y2="44" gradientTransform="matrix(0.25,0,0,0.25,0,225)" gradientUnits="userSpaceOnUse" xlink:href="#g"/>
  <linearGradient id="g">
   <stop offset="0" stop-color="#babdb6"/>
   <stop offset=".042" stop-color="#f6f5f4"/>
   <stop offset=".083" stop-color="#d5d3cf"/>
   <stop offset=".915" stop-color="#deddda"/>
   <stop offset=".944" stop-color="#ebeae8"/>
   <stop offset=".985" stop-color="#f6f5f4"/>
   <stop offset="1" stop-color="#babdb6"/>
  </linearGradient>
  <clipPath id="i-3" clipPathUnits="userSpaceOnUse">
   <rect style="fill:#f6f5f4" width="104" height="100" x="12" y="184" rx="8" ry="8"/>
  </clipPath>
 </defs>
 <g transform="translate(0,-44)">
  <g>
   <g>
    <path style="opacity:0.2;filter:url(#filter925)" d="m 162.53675,62.431991 c 72.64865,0 83.03125,10.356615 83.03125,82.937499 v 58.125 c 0,72.58059 -10.3826,82.9375 -83.03125,82.9375 h -73.9375 c -72.64865,0 -83.0312501,-10.35691 -83.0312501,-82.9375 v -58.125 c 0,-72.580884 10.3826001,-82.937499 83.0312501,-82.937499 z"/>
    <path d="m 162.53675,61.431991 c 72.64865,0 83.03125,10.356615 83.03125,82.937499 v 58.125 c 0,72.58059 -10.3826,82.9375 -83.03125,82.9375 h -73.9375 c -72.64865,0 -83.0312501,-10.35691 -83.0312501,-82.9375 v -58.125 c 0,-72.580884 10.3826001,-82.937499 83.0312501,-82.937499 z" style="opacity:0.1;filter:url(#filter931)"/>
   </g>
   <g>
    <path d="m 162.53675,60.431991 c 72.64865,0 83.03125,10.356615 83.03125,82.937499 v 58.125 c 0,72.58059 -10.3826,82.9375 -83.03125,82.9375 h -73.9375 c -72.64865,0 -83.0312501,-10.35691 -83.0312501,-82.9375 v -58.125 c 0,-72.580884 10.3826001,-82.937499 83.0312501,-82.937499 z" style="fill:#1a5fb4"/>
    <g transform="matrix(1.9230769,0,0,1.9230769,2.4910784,-277.568)" style="enable-background:new">
     <path d="m 20,184 h 27 l 1,1 1,-1 h 31.984 l 1,1 1,-1 H 108 c 4.432,0 8,3.568 8,8 v 84 c 0,4.432 -3.568,8 -8,8 H 20 c -4.432,0 -8,-3.568 -8,-8 v -84 c 0,-4.432 3.568,-8 8,-8 z" style="fill:#c0bfbc"/>
     <g clip-path="url(#i-3)">
      <path d="m 48,252 h 34 v 32 H 48 Z" style="fill:#deddda"/>
      <path d="m 48,248 h 34 v 33 l -1.094,-1 H 48 Z m 0,-32 h 34 v 32 H 48 Z m 0,-31 1,-1 h 32 l 1,1 v 31 H 48 Z" style="fill:#f6f5f4"/>
      <path d="m 82,252 h 34 v 32 H 82 Z" style="fill:url(#j)"/>
      <path d="m 82,248 h 34 v 24 c 0,4 -3.982,8 -8,8 H 82.969 L 82,281 Z m 0,-32 h 34 v 32 H 82 Z m 0,-31 0.992,-1 H 116 v 32 H 82 Z" style="fill:#f6f5f4"/>
      <path style="fill:#1a5fb4" d="M 116,196.031 A 38.218,38.218 0 0 0 97.686,216 h 6.521 A 32.03,32.03 0 0 1 116,202.875 Z"/>
      <path d="m 12,220 h 36 v 32 H 12 Z" style="fill:#9a9996"/>
      <path d="m 12,216 h 36 v 32 H 12 Z m 0,-32 h 35 l 1,1 v 31 H 12 Z" style="fill:#f6f5f4"/>
      <path style="fill:#1a5fb4" d="m 48,227.125 v 6.625 a 32.025,32.025 0 0 1 13.793,14.281 h 6.521 A 38.213,38.213 0 0 0 48,227.125 Z M 100.063,228 c -6.491,0 -12.624,1.458 -18.063,4.031 v 6.844 C 87.23,235.789 93.418,234 100.063,234 c 5.765,0 11.186,1.348 15.937,3.719 v -6.625 A 42.292,42.292 0 0 0 100.062,228 Z M 48,199.125 v 6.844 C 53.44,208.542 59.572,210 66.063,210 A 42.292,42.292 0 0 0 82,206.906 v -6.625 C 77.249,202.651 71.828,204 66.062,204 59.418,204 53.23,202.211 48,199.125 Z m 50.547,48.891 A 38.239,38.239 0 0 0 116,265.984 v -6.843 a 32.038,32.038 0 0 1 -10.725,-11.125 z"/>
      <path d="m 116,215 v 1 H 12 v -1 z" style="fill-opacity:0.081"/>
      <path style="fill:#1a5fb4" d="m 26.468,216 a 34.077,34.077 0 0 1 3.42,14.933 A 34.03,34.03 0 0 1 25.329,248 h 7.177 A 40.274,40.274 0 0 0 36.29,230.933 40.293,40.293 0 0 0 33.424,216 Z m 37.916,32 A 40.293,40.293 0 0 0 61.52,262.933 40.274,40.274 0 0 0 65.303,280 h 7.177 a 34.029,34.029 0 0 1 -4.56,-17.067 c 0,-5.36 1.23,-10.425 3.42,-14.933 z"/>
      <path d="m 48,185 1,-1 v 96 h -1 z" style="fill:#ffffff;fill-opacity:0.55500034"/>
      <path d="m 47,184 1,1 v 63 h -1 z" style="fill-opacity:0.081"/>
      <path d="m 82,185 1,-1 v 96 l -1,1 z" style="fill:#ffffff;fill-opacity:0.55500034"/>
      <path d="m 81,184 1,1 v 96 l -1,-1 z" style="fill-opacity:0.081"/>
      <path d="m 116,216 v 1 H 12 v -1 z m 0,32 v 1 H 48 v -1 z" style="fill:#ffffff;fill-opacity:0.55500034"/>
      <path d="m 116,247 v 1 H 12 v -1 z" style="fill-opacity:0.081"/>
     </g>
    </g>
   </g>
   <g>
    <path style="opacity:0.4;fill:none;stroke:url(#linearGradient1108);stroke-width:8;stroke-linecap:round;stroke-linejoin:round" d="m 361.9375,-212 c 145.2973,0 166.0625,20.71323 166.0625,165.875 v 116.25 c 0,145.16118 -20.7652,165.875 -166.0625,165.875 h -147.875 c -145.2973,0 -166.0625,-20.71382 -166.0625,-165.875 v -116.25 c 0,-145.16177 20.7652,-165.875 166.0625,-165.875 z" clip-path="url(#clipPath1082-3)" transform="matrix(0.5,0,0,0.5,-18.432,166.43199)"/>
   </g>
  </g>
 </g>
</svg>
