<svg xmlns="http://www.w3.org/2000/svg" xmlns:xlink="http://www.w3.org/1999/xlink" style="enable-background:new" width="256" height="256" version="1.0">
 <defs>
  <filter id="filter925" width="1.046" height="1.05" x="-.02" y="-.03" style="color-interpolation-filters:sRGB">
   <feGaussianBlur stdDeviation="2.32"/>
  </filter>
  <filter id="filter931" width="1.023" height="1.025" x="-.01" y="-.01" style="color-interpolation-filters:sRGB">
   <feGaussianBlur stdDeviation="1.16"/>
  </filter>
  <linearGradient id="linearGradient1108" x1="296" x2="296" y1="-212" y2="236" gradientUnits="userSpaceOnUse" xlink:href="#linearGradient1013"/>
  <linearGradient id="linearGradient1013">
   <stop style="stop-color:#ffffff" offset="0"/>
   <stop offset=".125" style="stop-color:#ffffff;stop-opacity:0.09803922"/>
   <stop offset=".925" style="stop-color:#000000;stop-opacity:0.09803922"/>
   <stop style="stop-color:#000000;stop-opacity:0.49803922" offset="1"/>
  </linearGradient>
  <clipPath id="clipPath1082-3" clipPathUnits="userSpaceOnUse">
   <path style="fill:#8c59d9" d="M 361.9375,-212 C 507.2348,-212 528,-191.28677 528,-46.125 V 70.125 C 528,215.28618 507.2348,236 361.9375,236 H 214.0625 C 68.7652,236 48,215.28618 48,70.125 V -46.125 C 48,-191.28677 68.7652,-212 214.0625,-212 Z"/>
  </clipPath>
 </defs>
 <g transform="translate(0,-44)">
  <g>
   <g>
    <path style="opacity:0.2;filter:url(#filter925)" d="m 162.53675,62.431991 c 72.64865,0 83.03125,10.356615 83.03125,82.937499 v 58.125 c 0,72.58059 -10.3826,82.9375 -83.03125,82.9375 h -73.9375 c -72.64865,0 -83.0312501,-10.35691 -83.0312501,-82.9375 v -58.125 c 0,-72.580884 10.3826001,-82.937499 83.0312501,-82.937499 z"/>
    <path d="m 162.53675,61.431991 c 72.64865,0 83.03125,10.356615 83.03125,82.937499 v 58.125 c 0,72.58059 -10.3826,82.9375 -83.03125,82.9375 h -73.9375 c -72.64865,0 -83.0312501,-10.35691 -83.0312501,-82.9375 v -58.125 c 0,-72.580884 10.3826001,-82.937499 83.0312501,-82.937499 z" style="opacity:0.1;filter:url(#filter931)"/>
   </g>
   <g>
    <path d="m 162.53675,60.431991 c 72.64865,0 83.03125,10.356615 83.03125,82.937499 v 58.125 c 0,72.58059 -10.3826,82.9375 -83.03125,82.9375 h -73.9375 c -72.64865,0 -83.0312501,-10.35691 -83.0312501,-82.9375 v -58.125 c 0,-72.580884 10.3826001,-82.937499 83.0312501,-82.937499 z" style="fill:#f6f5f4"/>
    <g transform="translate(3.335849,-3.2075495)">
     <path d="M 7.832152,210.76029 H 236.63215" style="fill:none;stroke:#deddda;stroke-width:8.79999924"/>
     <path style="fill:none;stroke:#c0bfbc;stroke-width:4.39999962" d="M 7.832152,208.63954 H 236.63215"/>
     <path style="fill:none;stroke:#deddda;stroke-width:8.79999924" d="M 7.832152,136.03955 H 236.63215"/>
     <path style="fill:none;stroke:#c0bfbc;stroke-width:4.39999962" d="M 7.832152,133.83955 H 236.63215"/>
     <path style="fill:none;stroke:#deddda;stroke-width:8.79999924" d="m 82.63215,65.63954 v 220 m 79.2,-220 v 220"/>
    </g>
   </g>
   <g>
    <path style="opacity:0.4;fill:none;stroke:url(#linearGradient1108);stroke-width:8;stroke-linecap:round;stroke-linejoin:round" d="M 361.9375,-212 C 507.2348,-212 528,-191.28677 528,-46.125 V 70.125 C 528,215.28618 507.2348,236 361.9375,236 H 214.0625 C 68.7652,236 48,215.28618 48,70.125 V -46.125 C 48,-191.28677 68.7652,-212 214.0625,-212 Z" clip-path="url(#clipPath1082-3)" transform="matrix(0.5,0,0,0.5,-18.432,166.43199)"/>
   </g>
  </g>
 </g>
 <g transform="translate(275.36573,97.901046)">
  <path style="fill:#9a9996" d="m -227.50792,-50.053585 6.95773,-7.924528 v -4.625661 h -21.57736 V -56.88 h 13.12302 l -6.34189,7.177358 v 4.713963 h 3.26038 c 4.05057,0 5.76679,1.453585 5.76679,3.78566 0,2.510944 -2.20075,3.962264 -5.76905,3.962264 -3.2151,0 -6.47321,-1.009811 -8.80755,-2.77132 l -2.77358,5.458867 c 2.99547,2.114717 7.44226,3.303397 11.75773,3.303397 8.76227,0 12.76981,-4.754717 12.76981,-9.953208 0,-4.535094 -2.8166,-7.969811 -8.36603,-8.850566 z" font-size="19.449" font-weight="700" letter-spacing="0" word-spacing="0"/>
  <path style="fill:#9a9996" d="m -227.50792,104.80981 6.95773,-7.92453 v -4.625657 h -21.57736 v 5.726037 h 13.12302 l -6.34189,7.17736 v 4.70943 h 3.26038 c 4.05057,0 5.76679,1.45585 5.76679,3.79019 0,2.50868 -2.20075,3.96227 -5.76905,3.96227 -3.2151,0 -6.47321,-1.01208 -8.80755,-2.77359 l -2.77358,5.45887 c 2.99547,2.11472 7.44226,3.30566 11.75773,3.30566 8.76227,0 12.76981,-4.75698 12.76981,-9.95321 0,-4.53736 -2.8166,-7.96981 -8.36603,-8.85283 z" font-size="19.449" font-weight="700" letter-spacing="0" word-spacing="0"/>
  <path style="fill:#9a9996" d="m -146.36755,28.516981 6.95774,-7.924528 v -4.625661 h -21.57736 v 5.723774 h 13.12302 l -6.33962,7.177359 v 4.713962 h 3.25811 c 4.05057,0 5.76679,1.453585 5.76679,3.78566 0,2.510944 -2.20075,3.962264 -5.76679,3.962264 -3.21509,0 -6.47547,-1.009811 -8.80755,-2.77132 l -2.77585,5.458867 c 2.99548,2.114717 7.44227,3.303397 11.75774,3.303397 8.76226,0 12.76981,-4.754717 12.76981,-9.953208 0,-4.535094 -2.8166,-7.969811 -8.36604,-8.850566 z m 82.075475,0 6.957735,-7.924528 v -4.625661 h -21.577358 v 5.723774 h 13.123019 l -6.339623,7.177359 v 4.713962 h 3.258113 c 4.050566,0 5.766793,1.453585 5.766793,3.78566 0,2.510944 -2.200755,3.962264 -5.766793,3.962264 -3.215094,0 -6.475471,-1.009811 -8.807547,-2.77132 l -2.775849,5.458867 c 2.995472,2.114717 7.442264,3.303397 11.757736,3.303397 8.762264,0 12.769811,-4.754717 12.769811,-9.953208 0,-4.535094 -2.816604,-7.969811 -8.366037,-8.850566 z" font-size="19.449" font-weight="700" letter-spacing="0" word-spacing="0"/>
  <path style="fill:#9a9996" d="m -71.177358,117.96226 7.086792,-6.69509 c 4.315472,-4.00755 5.153208,-6.73811 5.153208,-9.73132 0,-5.592454 -4.580378,-9.115473 -11.449812,-9.115473 -5.54717,0 -9.862641,2.246038 -12.242264,5.723774 l 5.196226,3.346419 c 1.498868,-2.069438 3.742642,-3.081513 6.384906,-3.081513 3.260377,0 4.933585,1.408301 4.933585,3.830943 0,1.4966 -0.484528,3.08151 -3.215094,5.68075 l -11.889057,11.23019 v 4.6234 h 23.293585 V 117.96 Z m -79.811322,0 7.08679,-6.69509 c 4.31547,-4.00755 5.15321,-6.73811 5.15321,-9.73132 0,-5.592454 -4.58038,-9.115473 -11.44981,-9.115473 -5.54717,0 -9.86264,2.246038 -12.24226,5.723774 l 5.19622,3.346419 c 1.49887,-2.069438 3.74264,-3.081513 6.38491,-3.081513 3.26037,0 4.93358,1.408301 4.93358,3.830943 0,1.4966 -0.48453,3.08151 -3.21509,5.68075 l -11.88906,11.23019 v 4.6234 h 23.29359 V 117.96 Z" font-size="19.449" font-weight="700" letter-spacing="0" word-spacing="0"/>
  <path style="fill:#9a9996" d="m -76.138113,-62.712453 v 5.723774 h 6.165283 v 25.102641 h 7.132075 v -30.826415 z m -83.207547,0 v 5.723774 h 6.16528 v 25.102641 h 7.13208 v -30.826415 z" font-size="19.449" font-weight="700" letter-spacing="0" word-spacing="0"/>
  <path style="fill:#9a9996" d="m -231.36604,41.54717 7.08679,-6.695095 c 4.31548,-4.007547 5.15321,-6.738113 5.15321,-9.73132 0,-5.592453 -4.58038,-9.115472 -11.44981,-9.115472 -5.54717,0 -9.86264,2.246038 -12.24226,5.723774 l 5.19622,3.346415 c 1.49887,-2.069434 3.74264,-3.08151 6.38491,-3.08151 3.26038,0 4.93358,1.408302 4.93358,3.830944 0,1.496603 -0.48452,3.081509 -3.21509,5.680754 l -11.88906,11.230189 v 4.623396 h 23.29359 v -5.814339 z" font-size="19.449" font-weight="700" letter-spacing="0" word-spacing="0"/>
 </g>
</svg>
