<svg width="256" height="256" style="enable-background:new" version="1.0" xmlns="http://www.w3.org/2000/svg" xmlns:xlink="http://www.w3.org/1999/xlink">
 <defs>
  <filter id="filter925" x="-.02" y="-.03" width="1.046" height="1.05" style="color-interpolation-filters:sRGB">
   <feGaussianBlur stdDeviation="2.32"/>
  </filter>
  <filter id="filter931" x="-.01" y="-.01" width="1.023" height="1.025" style="color-interpolation-filters:sRGB">
   <feGaussianBlur stdDeviation="1.16"/>
  </filter>
  <linearGradient id="linearGradient1108" x1="296" x2="296" y1="-212" y2="236" gradientUnits="userSpaceOnUse">
   <stop style="stop-color:#ffffff" offset="0"/>
   <stop style="stop-color:#ffffff;stop-opacity:.09803922" offset=".125"/>
   <stop style="stop-color:#000000;stop-opacity:.09803922" offset=".925"/>
   <stop style="stop-color:#000000;stop-opacity:.49803922" offset="1"/>
  </linearGradient>
  <clipPath id="clipPath1082-3">
   <path d="M 361.9375,-212 C 507.2348,-212 528,-191.28677 528,-46.125 V 70.125 C 528,215.28618 507.2348,236 361.9375,236 H 214.0625 C 68.7652,236 48,215.28618 48,70.125 V -46.125 C 48,-191.28677 68.7652,-212 214.0625,-212 Z" style="fill:#8c59d9"/>
  </clipPath>
  <linearGradient id="linearGradient8074-2">
   <stop style="stop-color:#000000;stop-opacity:0" offset="0"/>
   <stop style="stop-color:#000000" offset=".493"/>
   <stop style="stop-color:#000000;stop-opacity:0" offset="1"/>
  </linearGradient>
  <linearGradient id="linearGradient9014">
   <stop style="stop-color:#ffffff;stop-opacity:0" offset="0"/>
   <stop style="stop-color:#ffffff" offset=".493"/>
   <stop style="stop-color:#ffffff;stop-opacity:0" offset="1"/>
  </linearGradient>
  <linearGradient id="linearGradient1776" x1="58.663" x2="3.612" y1="224.971" y2="301.548" gradientTransform="matrix(2.8367694,0,0,2.8346456,31.389226,-573.78227)" gradientUnits="userSpaceOnUse">
   <stop style="stop-color:#f2f2f2" offset="0"/>
   <stop style="stop-color:#ffffff" offset="1"/>
  </linearGradient>
  <filter id="filter2168" x="-.01" y="-.01" width="1.023" height="1.025" style="color-interpolation-filters:sRGB">
   <feGaussianBlur stdDeviation=".87"/>
  </filter>
  <linearGradient id="linearGradient2180" x1="120.551" x2="120.468" y1="104.433" y2="238.961" gradientUnits="userSpaceOnUse">
   <stop style="stop-color:#000000;stop-opacity:0" offset="0"/>
   <stop style="stop-color:#000000" offset=".505"/>
   <stop style="stop-color:#000000;stop-opacity:0" offset="1"/>
  </linearGradient>
  <radialGradient id="radialGradient21562" cx="152.333" cy="-754.638" r="15" gradientTransform="matrix(3.84067e-6 .270741 -4.04344 0 -2201.98 -1535.94)" gradientUnits="userSpaceOnUse">
   <stop style="stop-color:#808080;stop-opacity:.50199997" offset="0"/>
   <stop style="stop-color:#000000;stop-opacity:0" offset="1"/>
  </radialGradient>
  <linearGradient id="linearGradient2430" x1="850.25" x2="850.25" y1="-1506.575" y2="-1510.583" gradientUnits="userSpaceOnUse" xlink:href="#linearGradient10423"/>
  <linearGradient id="linearGradient10423">
   <stop style="stop-color:#808080" offset="0"/>
   <stop style="stop-color:#333333" offset="1"/>
  </linearGradient>
  <linearGradient id="linearGradient21568" x1="809.625" x2="809.625" y1="-1074.763" y2="-1116.764" gradientTransform="matrix(2.03333,0,0,2.04762,-752.267,686.81)" gradientUnits="userSpaceOnUse">
   <stop style="stop-color:#d36118" offset="0"/>
   <stop style="stop-color:#f09e6f" offset="1"/>
  </linearGradient>
  <linearGradient id="linearGradient21570" x1="812" x2="812" y1="-1075.638" y2="-1115.638" gradientTransform="matrix(2.03333,0,0,2.15,-752.267,798.982)" gradientUnits="userSpaceOnUse">
   <stop style="stop-color:#edbfa1" offset="0"/>
   <stop style="stop-color:#fdf1ea" offset="1"/>
  </linearGradient>
  <radialGradient id="radialGradient21574" cx="-1535.455" cy="-853" r="10" gradientTransform="matrix(-3.31574,0,0,-3.2,-6604.01,-3579.6)" gradientUnits="userSpaceOnUse">
   <stop style="stop-color:#ffffff" offset="0"/>
   <stop style="stop-color:#ffd5d5;stop-opacity:0" offset="1"/>
  </radialGradient>
  <linearGradient id="linearGradient2404" x1="825.25" x2="825.25" y1="-1559.638" y2="-1525.638" gradientUnits="userSpaceOnUse" xlink:href="#linearGradient10658"/>
  <linearGradient id="linearGradient10658">
   <stop style="stop-color:#b84603" offset="0"/>
   <stop style="stop-color:#622502" offset="1"/>
  </linearGradient>
  <linearGradient id="linearGradient21578" x1="895.5" x2="895.5" y1="647.812" y2="735.75" gradientUnits="userSpaceOnUse" xlink:href="#linearGradient10391"/>
  <linearGradient id="linearGradient10391">
   <stop style="stop-color:#e67325" offset="0"/>
   <stop style="stop-color:#c8400c" offset="1"/>
  </linearGradient>
  <linearGradient id="linearGradient21580" x1="798.245" x2="902" y1="-1589.138" y2="-1589.138" gradientUnits="userSpaceOnUse">
   <stop style="stop-color:#8e2103" offset="0"/>
   <stop style="stop-color:#e46f1f" offset=".169"/>
   <stop style="stop-color:#e66d20" offset=".838"/>
   <stop style="stop-color:#922504" offset="1"/>
  </linearGradient>
  <linearGradient id="linearGradient21582" x1="902.25" x2="902.25" y1="-1534.416" y2="-1524.357" gradientUnits="userSpaceOnUse">
   <stop style="stop-color:#808080" offset="0"/>
   <stop style="stop-color:#606060" offset="1"/>
  </linearGradient>
  <linearGradient id="linearGradient21584" x1="714" x2="714" y1="-1063.638" y2="-1079.16" gradientTransform="matrix(1.17949,0,0,1.5,10.8462,67.8194)" gradientUnits="userSpaceOnUse">
   <stop style="stop-color:#ffffff" offset="0"/>
   <stop style="stop-color:#ffffff;stop-opacity:0" offset="1"/>
  </linearGradient>
  <linearGradient id="linearGradient21586" x1="889" x2="879" y1="-1054.638" y2="-1042.638" gradientTransform="matrix(2,0,0,2,-898,556.638)" gradientUnits="userSpaceOnUse">
   <stop style="stop-color:#18a303" offset="0"/>
   <stop style="stop-color:#106802" offset="1"/>
  </linearGradient>
  <linearGradient id="linearGradient21588" x1="818.035" x2="882.237" y1="-1575.703" y2="-1575.703" gradientUnits="userSpaceOnUse">
   <stop style="stop-color:#8e2103" offset="0"/>
   <stop style="stop-color:#e45c1f" offset=".169"/>
   <stop style="stop-color:#e45c1f" offset=".838"/>
   <stop style="stop-color:#922504" offset="1"/>
  </linearGradient>
  <linearGradient id="linearGradient21590" x1="-17" x2="144" y1="-1194.638" y2="-1194.638" gradientTransform="matrix(.726708 0 0 1 802.354 -405)" gradientUnits="userSpaceOnUse" xlink:href="#linearGradient9014"/>
  <linearGradient id="linearGradient21594" x1="895.5" x2="895.5" y1="621.562" y2="709.5" gradientUnits="userSpaceOnUse" xlink:href="#linearGradient10391"/>
  <linearGradient id="linearGradient21598" x1="895.5" x2="895.5" y1="595.312" y2="683.25" gradientUnits="userSpaceOnUse" xlink:href="#linearGradient10391"/>
  <linearGradient id="linearGradient21602" x1="895.5" x2="895.5" y1="569.062" y2="657" gradientUnits="userSpaceOnUse" xlink:href="#linearGradient10391"/>
  <linearGradient id="linearGradient21604" x1="-17" x2="144" y1="-1194.638" y2="-1194.638" gradientTransform="matrix(.645963 0 0 1 808.981 -396)" gradientUnits="userSpaceOnUse" xlink:href="#linearGradient8074-2"/>
  <linearGradient id="linearGradient21606" x1="-17" x2="144" y1="-1194.638" y2="-1194.638" gradientTransform="matrix(.397516 0 0 1 824.758 -386)" gradientUnits="userSpaceOnUse" xlink:href="#linearGradient8074-2"/>
  <linearGradient id="linearGradient21608" x1="-17" x2="144" y1="-1194.638" y2="-1194.638" gradientTransform="matrix(.720497 0 0 1 804.248 -319)" gradientUnits="userSpaceOnUse" xlink:href="#linearGradient8074-2"/>
  <linearGradient id="linearGradient21612" x1="-17" x2="144" y1="-1194.638" y2="-1194.638" gradientTransform="matrix(.286106 0 0 1 858.013 -333.937)" gradientUnits="userSpaceOnUse" xlink:href="#linearGradient9014"/>
  <linearGradient id="linearGradient21618" x1="881" x2="887" y1="-1042.638" y2="-1048.638" gradientTransform="matrix(2,0,0,2,-898,556.638)" gradientUnits="userSpaceOnUse">
   <stop style="stop-color:#78db67" offset="0"/>
   <stop style="stop-color:#ccf4c6" offset="1"/>
  </linearGradient>
  <linearGradient id="linearGradient1228" x1="529.25" x2="535" y1="-1568.638" y2="-1574.638" gradientTransform="matrix(1.66667,0,0,7,-91.6668,9465.83)" gradientUnits="userSpaceOnUse">
   <stop style="stop-color:#ff0000" offset="0"/>
   <stop style="stop-color:#ffc600;stop-opacity:0" offset="1"/>
  </linearGradient>
  <linearGradient id="linearGradient1230" x1="-17" x2="144" y1="-1194.638" y2="-1194.638" gradientTransform="matrix(.286106 0 0 1 857.864 -364)" gradientUnits="userSpaceOnUse" xlink:href="#linearGradient8074-2"/>
  <linearGradient id="linearGradient1232" x1="-17" x2="144" y1="-1194.638" y2="-1194.638" gradientTransform="matrix(.186336 0 0 1 813.168 -365)" gradientUnits="userSpaceOnUse" xlink:href="#linearGradient8074-2"/>
  <linearGradient id="linearGradient1234" x1="-17" x2="144" y1="-1194.638" y2="-1194.638" gradientTransform="matrix(.509317 0 0 1 -1588.98 403.638)" gradientUnits="userSpaceOnUse">
   <stop style="stop-color:#d40000;stop-opacity:0" offset="0"/>
   <stop style="stop-color:#d40000" offset=".493"/>
   <stop style="stop-color:#d40000;stop-opacity:0" offset="1"/>
  </linearGradient>
  <radialGradient id="radialGradient1308" cx="152.333" cy="-754.638" r="15" gradientTransform="matrix(7.93527e-7 .169213 -.835421 0 197.029 -1517.95)" gradientUnits="userSpaceOnUse">
   <stop style="stop-color:#000000;stop-opacity:.50196099" offset="0"/>
   <stop style="stop-color:#000000;stop-opacity:0" offset="1"/>
  </radialGradient>
 </defs>
 <g transform="translate(0,-44)">
  <path d="m162.53675 62.431991c72.64865 0 83.03125 10.356615 83.03125 82.937499v58.125c0 72.58059-10.3826 82.9375-83.03125 82.9375h-73.9375c-72.64865 0-83.03125-10.35691-83.03125-82.9375v-58.125c0-72.580884 10.3826-82.937499 83.03125-82.937499z" style="filter:url(#filter925);opacity:.2"/>
  <path d="m162.53675 61.431991c72.64865 0 83.03125 10.356615 83.03125 82.937499v58.125c0 72.58059-10.3826 82.9375-83.03125 82.9375h-73.9375c-72.64865 0-83.03125-10.35691-83.03125-82.9375v-58.125c0-72.580884 10.3826-82.937499 83.03125-82.937499z" style="filter:url(#filter931);opacity:.1"/>
  <path d="m162.53675 60.431991c72.64865 0 83.03125 10.356615 83.03125 82.937499v58.125c0 72.58059-10.3826 82.9375-83.03125 82.9375h-73.9375c-72.64865 0-83.03125-10.35691-83.03125-82.9375v-58.125c0-72.580884 10.3826-82.937499 83.03125-82.937499z" style="fill:#9d3c05"/>
  <path d="m215.568 199.81675v-54.76953c-0.0331-2.58701-0.0938-5.07855-0.17981-7.4375l-48.8999-48.863281c-4.15368-0.151778-8.23337-0.314449-13.10552-0.314449h-55.494675c-54.527304 0-62.320095 7.767459-62.320095 62.20312v43.59375c0 54.43546 7.792791 62.20313 62.320095 62.20313h55.494675c52.44617 0 61.55852-7.62929 62.18523-56.61524z" style="fill:url(#linearGradient2180);filter:url(#filter2182);opacity:.4"/>
  <g transform="translate(-1.598015)">
   <path d="m7.166015 172.43201v29.06249c0 72.58061 10.3826 82.9375 83.031245 82.9375h73.9375c72.64865 0 83.03125-10.35689 83.03125-82.9375v-29.06249z" style="fill:#ffffff;opacity:.1"/>
   <path d="m124.85652 284.432h37.68023c36.89655 0 57.27587-3.11165 69.13609-14.01362 11.86024-10.90208 15.18368-29.57817 15.18368-63.48219v-69.00828c0-33.9041-3.32344-52.807857-15.18368-63.709867-11.86022-10.902009-32.23954-13.786053-69.13609-13.786053h-37.68023z" style="fill:#f6f6f6;opacity:.1"/>
  </g>
  <path d="m215.568 199.81675v-54.76953c-0.0331-2.58701-0.0938-5.07855-0.17981-7.4375l-48.8999-48.863281c-4.15368-0.151778-8.23337-0.314449-13.10552-0.314449h-55.494675c-54.527304 0-62.320095 7.767459-62.320095 62.20312v43.59375c0 54.43546 7.792791 62.20313 62.320095 62.20313h55.494675c52.44617 0 61.55852-7.62929 62.18523-56.61524z" style="fill:#010000;filter:url(#filter2168);opacity:.1"/>
  <path d="m215.568 199.81675v-54.76953c-0.0331-2.58701-0.0938-5.07855-0.17981-7.4375l-48.8999-48.863281c-4.15368-0.151778-8.23337-0.314449-13.10552-0.314449h-55.494675c-54.527304 0-62.320095 7.767459-62.320095 62.20312v43.59375c0 54.43546 7.792791 62.20313 62.320095 62.20313h55.494675c52.44617 0 61.55852-7.62929 62.18523-56.61524z" style="fill:url(#linearGradient1776)"/>
  <g transform="matrix(.87500001 0 0 .87500001 -618.18201 1525.3026)" style="enable-background:new">
   <g transform="translate(1.7142856e-6,10.500132)">
    <rect x="786" y="-1602.64" width="128" height="92" rx="2" ry="2" style="fill:#a33e03"/>
    <rect x="789" y="-1599.64" width="122" height="86" rx="4" ry="4" style="fill:url(#linearGradient21568)"/>
    <rect x="789" y="-1599.64" width="122" height="86" rx="4" ry="4" style="fill:url(#linearGradient21570)"/>
    <rect x="790" y="-1598.64" width="20" height="84" rx="4" ry="4" style="fill:url(#linearGradient1228);opacity:.35"/>
    <rect x="850" y="-1559.64" width="52" height="36" style="fill:#ffffff;opacity:.5"/>
    <rect transform="rotate(90)" x="-1545.64" y="-882" width="32" height="64" style="fill:url(#radialGradient21574)"/>
    <g style="opacity:.5">
     <rect x="810" y="-1558.64" width="30" height="4" style="fill:#ffffff"/>
     <rect x="810" y="-1548.64" width="30" height="4" style="fill:#ffffff"/>
     <rect x="810" y="-1538.64" width="30" height="4" style="fill:#ffffff"/>
     <rect x="810" y="-1528.64" width="30" height="4" style="fill:#ffffff"/>
    </g>
    <rect x="810" y="-1559.64" width="30" height="4" style="fill:url(#linearGradient2404)"/>
    <path transform="matrix(.363636 0 0 .380952 476.364 -1794.92)" d="m901 651.75a5.5 5.2500028 0 1 1-11 0 5.5 5.2500028 0 1 1 11 0z" style="fill:#ffffff"/>
    <path transform="matrix(.363636 0 0 .380952 476.364 -1784.92)" d="m901 651.75a5.5 5.2500028 0 1 1-11 0 5.5 5.2500028 0 1 1 11 0z" style="fill:#ffffff"/>
    <path transform="matrix(.363636 0 0 .380952 476.364 -1804.92)" d="m901 651.75a5.5 5.2500028 0 1 1-11 0 5.5 5.2500028 0 1 1 11 0z" style="fill:#ffffff"/>
    <path transform="matrix(.363636 0 0 .380952 476.364 -1774.92)" d="m901 651.75a5.5 5.2500028 0 1 1-11 0 5.5 5.2500028 0 1 1 11 0z" style="fill:#ffffff"/>
    <path transform="matrix(.363636 0 0 .380952 476.364 -1805.92)" d="m901 651.75a5.5 5.2500028 0 1 1-11 0 5.5 5.2500028 0 1 1 11 0z" style="fill:url(#linearGradient21578)"/>
    <rect x="798" y="-1589.64" width="104" height="5" style="fill:#ffffff"/>
    <rect x="798" y="-1590.64" width="104" height="5" style="fill:url(#linearGradient21580)"/>
    <rect x="850" y="-1560.64" width="52" height="36" style="fill:url(#linearGradient21582)"/>
    <rect x="853" y="-1557.64" width="46" height="30" style="fill:#dfdfdf"/>
    <rect x="853" y="-1557.64" width="46" height="30" style="fill:url(#linearGradient21584)"/>
    <rect x="856" y="-1552.64" width="40" height="2" style="opacity:.05"/>
    <path d="m859.00006-1533.6377 11-11 8 8 15-15" style="fill:none;stroke-linecap:round;stroke-linejoin:round;stroke-width:3;stroke:url(#linearGradient21586)"/>
    <rect x="818" y="-1579.64" width="64" height="5" style="fill:#ffffff"/>
    <rect x="818" y="-1580.64" width="64" height="5" style="fill:url(#linearGradient21588)"/>
    <rect x="790" y="-1599.64" width="117" height="1" style="fill:url(#linearGradient21590)"/>
    <rect x="810" y="-1549.64" width="30" height="4" style="fill:url(#linearGradient2404)"/>
    <path transform="matrix(.363636 0 0 .380952 476.364 -1795.92)" d="m901 651.75a5.5 5.2500028 0 1 1-11 0 5.5 5.2500028 0 1 1 11 0z" style="fill:url(#linearGradient21594)"/>
    <rect x="810" y="-1539.64" width="30" height="4" style="fill:url(#linearGradient2404)"/>
    <path transform="matrix(.363636 0 0 .380952 476.364 -1785.92)" d="m901 651.75a5.5 5.2500028 0 1 1-11 0 5.5 5.2500028 0 1 1 11 0z" style="fill:url(#linearGradient21598)"/>
    <rect x="810" y="-1529.64" width="30" height="4" style="fill:url(#linearGradient2404)"/>
    <path transform="matrix(.363636 0 0 .380952 476.364 -1775.92)" d="m901 651.75a5.5 5.2500028 0 1 1-11 0 5.5 5.2500028 0 1 1 11 0z" style="fill:url(#linearGradient21602)"/>
    <rect x="798" y="-1590.64" width="104" height="1" style="fill:url(#linearGradient21604);opacity:.25"/>
    <rect x="818" y="-1580.64" width="64" height="1" style="fill:url(#linearGradient21606);opacity:.5"/>
    <rect x="792" y="-1513.64" width="116" height="1" style="fill:url(#linearGradient21608);opacity:.5"/>
    <rect x="853" y="-1558.64" width="46.063" height="1" style="fill:url(#linearGradient1230);opacity:.25"/>
    <rect x="853.15" y="-1528.58" width="46.063" height="1" style="fill:url(#linearGradient21612)"/>
    <rect x="810" y="-1559.64" width="30" height="1" style="fill:url(#linearGradient1232);opacity:.25"/>
    <rect transform="rotate(90)" x="-1597.64" y="-791" width="82" height="1" style="fill:url(#linearGradient1234);opacity:.15"/>
    <use transform="translate(119)" width="5033" height="1085" xlink:href="#rect11596"/>
    <use transform="matrix(-1,0,0,1,1700,0)" width="5033" height="1085" xlink:href="#rect10082"/>
    <use transform="translate(0,10)" width="5033" height="1085" xlink:href="#rect10652"/>
    <use transform="translate(0,20)" width="5033" height="1085" xlink:href="#rect10652"/>
    <use transform="translate(0,30)" width="5033" height="1085" xlink:href="#rect10652"/>
    <use transform="translate(0,31)" width="5033" height="1085" xlink:href="#rect10629"/>
    <use transform="translate(0,6)" width="5033" height="1085" xlink:href="#rect9936"/>
    <use transform="translate(0,12)" width="5033" height="1085" xlink:href="#rect9936"/>
    <use transform="translate(0,17)" width="5033" height="1085" xlink:href="#rect9936"/>
    <path d="m859.00006-1533.6377 11-11 8 8 15-15" style="fill:none;stroke-linecap:round;stroke-linejoin:round;stroke-width:1.5;stroke:url(#linearGradient21618)"/>
   </g>
   <g transform="translate(0,10.514746)">
    <rect x="815" y="-1494.64" width="25" height="5" style="fill:url(#radialGradient1308);opacity:.5"/>
    <rect x="789" y="-1498.64" width="121" height="8" style="fill:url(#radialGradient21562);opacity:.4"/>
    <path d="m846.24248-1508.6377-24.24242 16h9.76884l3.39813-1.114 18.83303-14.886z" style="fill:#4d4d4d"/>
    <use transform="matrix(-1,0,0,1,1699,0)" width="5033" height="1085" xlink:href="#path10476"/>
    <path d="m854.00006-1508.6377 24 16h-10.01126l-3.08619-0.878-18.90255-15.122z" style="fill:#4d4d4d"/>
    <path d="m844.24248-1508.6377-24.24242 16h11.75758l20.24242-16z" style="fill:url(#linearGradient2430)"/>
    <rect x="844" y="-1512.64" width="12" height="6" style="fill:url(#linearGradient2430)"/>
    <use transform="matrix(-1,0,0,1,1699,0)" width="5033" height="1085" xlink:href="#rect10490"/>
    <use transform="matrix(-1,0,0,1,1699,0)" width="5033" height="1085" xlink:href="#path9896"/>
   </g>
  </g>
  <path transform="matrix(.5 0 0 .5 -18.432 166.43199)" d="M 361.9375,-212 C 507.2348,-212 528,-191.28677 528,-46.125 V 70.125 C 528,215.28618 507.2348,236 361.9375,236 H 214.0625 C 68.7652,236 48,215.28618 48,70.125 V -46.125 C 48,-191.28677 68.7652,-212 214.0625,-212 Z" clip-path="url(#clipPath1082-3)" style="fill:none;opacity:.4;stroke-linecap:round;stroke-linejoin:round;stroke-width:8;stroke:url(#linearGradient1108)"/>
 </g>
</svg>
