<svg xmlns="http://www.w3.org/2000/svg" xmlns:xlink="http://www.w3.org/1999/xlink" width="256" height="256" version="1.1" viewBox="0 0 67.73 67.73">
 <defs>
  <linearGradient id="linearGradient1108" x1="296" x2="296" y1="-212" y2="236" gradientUnits="userSpaceOnUse" xlink:href="#linearGradient1013"/>
  <linearGradient id="linearGradient1013">
   <stop offset="0" style="stop-color:#ffffff"/>
   <stop style="stop-color:#ffffff;stop-opacity:0.09803922" offset=".125"/>
   <stop style="stop-color:#000000;stop-opacity:0.09803922" offset=".925"/>
   <stop offset="1" style="stop-color:#000000;stop-opacity:0.49803922"/>
  </linearGradient>
  <clipPath id="clipPath1082-3-367" clipPathUnits="userSpaceOnUse">
   <path d="M 361.9375,-212 C 507.2348,-212 528,-191.28677 528,-46.125 V 70.125 C 528,215.28618 507.2348,236 361.9375,236 H 214.0625 C 68.7652,236 48,215.28618 48,70.125 V -46.125 C 48,-191.28677 68.7652,-212 214.0625,-212 Z" style="fill:#8c59d9"/>
  </clipPath>
  <linearGradient id="linearGradient933" x1="160" x2="160" y1="28" y2="284" gradientTransform="matrix(0.26458333,0,0,0.26458333,-6.993468,221.97263)" gradientUnits="userSpaceOnUse" xlink:href="#linearGradient7537"/>
  <filter style="color-interpolation-filters:sRGB" id="filter930" width="1.046" height="1.05" x="-.02" y="-.03">
   <feGaussianBlur stdDeviation="2.32"/>
  </filter>
  <filter style="color-interpolation-filters:sRGB" id="filter4569" width="1.023" height="1.025" x="-.01" y="-.01">
   <feGaussianBlur stdDeviation="1.16"/>
  </filter>
  <linearGradient id="linearGradient7537">
   <stop style="stop-color:#f37e40" offset="0"/>
   <stop style="stop-color:#f34f17" offset="1"/>
  </linearGradient>
 </defs>
 <g transform="translate(0,-229.26666)">
  <path d="m 162.53675,3.5680001 c 72.64865,0 83.03125,10.3566149 83.03125,82.9375049 v 58.125005 c 0,72.58059 -10.3826,82.9375 -83.03125,82.9375 H 88.599254 C 15.9506,227.56801 5.568,217.2111 5.568,144.63051 V 86.505505 c 0,-72.58089 10.3826,-82.9375049 83.031254,-82.9375049 z" transform="matrix(0.26458333,0,0,0.26458333,-1.8735229e-8,232.67026)" style="opacity:0.1;filter:url(#filter4569)"/>
  <path style="opacity:0.2;filter:url(#filter930)" d="m 162.53675,5.5680001 c 72.64865,0 83.03125,10.3566149 83.03125,82.9375049 v 58.125005 c 0,72.58059 -10.3826,82.9375 -83.03125,82.9375 H 88.599254 C 15.9506,229.56801 5.568,219.2111 5.568,146.63051 V 88.505505 c 0,-72.58089 10.3826,-82.9375049 83.031254,-82.9375049 z" transform="matrix(0.26458333,0,0,0.26458333,-1.8735229e-8,232.67026)"/>
  <path style="fill:url(#linearGradient933)" d="m 43.004513,233.61429 c 19.221622,0 21.968685,2.74019 21.968685,21.94388 v 15.37891 c 0,19.20362 -2.747063,21.94388 -21.968685,21.94388 h -19.56263 c -19.2216219,0 -21.968685,-2.74026 -21.968685,-21.94388 v -15.37891 c 0,-19.20369 2.7470631,-21.94388 21.968685,-21.94388 z"/>
  <path d="M 361.9375,-212 C 507.2348,-212 528,-191.28677 528,-46.125 V 70.125 C 528,215.28618 507.2348,236 361.9375,236 H 214.0625 C 68.7652,236 48,215.28618 48,70.125 V -46.125 C 48,-191.28677 68.7652,-212 214.0625,-212 Z" clip-path="url(#clipPath1082-3-367)" transform="matrix(0.13229167,0,0,0.13229167,-4.876802,261.66013)" style="opacity:0.5;fill:none;stroke:url(#linearGradient1108);stroke-width:8;stroke-linecap:round;stroke-linejoin:round"/>
  <g transform="translate(-0.0722217,-0.04891984)">
   <path d="m 33.295422,233.66321 v 59.26667 h 9.781315 c 19.221622,0 21.968685,-2.74027 21.968685,-21.94388 v -15.37891 c 0,-19.20369 -2.747063,-21.94388 -21.968685,-21.94388 z" style="opacity:0.1;fill:#ffffff"/>
  </g>
  <g transform="translate(5.9877993,1.1515463)">
   <path style="fill:#f1f1f1" d="m 8.9228172,282.89771 c -0.3037647,-0.30376 -0.3489457,-0.49768 -0.2690676,-1.15487 0.095893,-0.78893 4.0625624,-13.75648 4.2720934,-13.96601 0.178032,-0.17803 1.644455,-0.37738 2.856921,-0.38839 l 1.120781,-0.0102 -0.07489,1.03537 -0.07489,1.03536 0.841876,0.81147 c 1.527967,1.47276 4.501993,2.35428 8.524936,2.52686 4.977733,0.21354 9.239298,-0.85035 10.938026,-2.73063 0.580828,-0.64291 0.604196,-0.7174 0.533166,-1.69944 l -0.0743,-1.02703 1.72015,0.0978 c 0.946083,0.0538 1.850477,0.14811 2.009764,0.20952 0.326149,0.12572 0.704977,1.21996 3.031938,8.75764 0.849685,2.75237 1.543709,5.28803 1.542265,5.63482 -0.0051,1.24322 1.628832,1.13792 -18.430049,1.18775 l -18.1036657,0.045 z M 25.333975,264.6277 c -3.489079,-0.20217 -6.488574,-1.43116 -6.488574,-2.65857 0,-0.32106 2.000313,-7.35282 2.144113,-7.53725 0.0234,-0.0301 0.365895,0.11036 0.761069,0.31196 2.407552,1.22824 8.611094,1.22521 10.971991,-0.005 0.372771,-0.19429 0.69642,-0.33048 0.719228,-0.30263 0.170117,0.20774 2.137291,7.19567 2.137291,7.59224 0,0.54993 -0.398082,0.92561 -1.666429,1.57266 -1.599896,0.81621 -5.062476,1.23072 -8.578689,1.02697 z m -0.729773,-17.46779 c -0.542246,-0.11646 -1.056418,-0.2829 -1.142607,-0.36988 -0.171476,-0.17305 0.723106,-3.37401 1.317295,-4.71359 0.297571,-0.67086 0.459404,-0.82807 1.009674,-0.98087 0.850635,-0.23621 2.20578,-0.21825 2.959303,0.0392 0.429976,0.14691 0.682455,0.3865 0.90445,0.85825 0.345709,0.73467 1.529134,4.73925 1.429868,4.83851 -0.03518,0.0352 -0.593753,0.17622 -1.241258,0.31339 -1.413368,0.29943 -3.879452,0.30648 -5.236725,0.0149 z"/>
  </g>
 </g>
</svg>
