<svg width="256" height="256" version="1.1" viewBox="0 0 67.73 67.73" xmlns="http://www.w3.org/2000/svg" xmlns:xlink="http://www.w3.org/1999/xlink">
 <defs>
  <linearGradient id="linearGradient1108" x1="296" x2="296" y1="-212" y2="236" gradientUnits="userSpaceOnUse">
   <stop style="stop-color:#ffffff" offset="0"/>
   <stop style="stop-color:#ffffff;stop-opacity:.09803922" offset=".125"/>
   <stop style="stop-color:#000000;stop-opacity:.09803922" offset=".925"/>
   <stop style="stop-color:#000000;stop-opacity:.49803922" offset="1"/>
  </linearGradient>
  <clipPath id="clipPath1082-3-36753">
   <path d="M 361.9375,-212 C 507.2348,-212 528,-191.28677 528,-46.125 V 70.125 C 528,215.28618 507.2348,236 361.9375,236 H 214.0625 C 68.7652,236 48,215.28618 48,70.125 V -46.125 C 48,-191.28677 68.7652,-212 214.0625,-212 Z" style="fill:#8c59d9"/>
  </clipPath>
  <filter id="filter904" x="-.02" y="-.03" width="1.046" height="1.05" style="color-interpolation-filters:sRGB">
   <feGaussianBlur stdDeviation="2.32"/>
  </filter>
  <filter id="filter4569" x="-.01" y="-.01" width="1.023" height="1.025" style="color-interpolation-filters:sRGB">
   <feGaussianBlur stdDeviation="1.16"/>
  </filter>
  <filter id="filter1053" width="1.192" height="1.192" style="color-interpolation-filters:sRGB">
   <feGaussianBlur stdDeviation=".488"/>
  </filter>
 </defs>
 <g transform="translate(0,-229.26666)">
  <path transform="matrix(.26458333 0 0 .26458333 -1.8735229e-8 232.67026)" d="m162.53675 3.5680001c72.64865 0 83.03125 10.356615 83.03125 82.937505v58.125005c0 72.58059-10.3826 82.9375-83.03125 82.9375h-73.937496c-72.648654 0-83.031254-10.35691-83.031254-82.9375v-58.125005c0-72.58089 10.3826-82.937505 83.031254-82.937505z" style="filter:url(#filter4569);opacity:.1"/>
  <path transform="matrix(.26458333 0 0 .26458333 -1.8735229e-8 232.67026)" d="m162.53675 5.5680001c72.64865 0 83.03125 10.356615 83.03125 82.937505v58.125005c0 72.58059-10.3826 82.9375-83.03125 82.9375h-73.937496c-72.648654 0-83.031254-10.35691-83.031254-82.9375v-58.125005c0-72.58089 10.3826-82.937505 83.031254-82.937505z" style="filter:url(#filter904);opacity:.2"/>
  <path d="m43.004513 233.61429c19.221622 0 21.968685 2.74019 21.968685 21.94388v15.37891c0 19.20362-2.747063 21.94388-21.968685 21.94388h-19.56263c-19.221622 0-21.968685-2.74026-21.968685-21.94388v-15.37891c0-19.20369 2.7470629-21.94388 21.968685-21.94388z" style="fill:#e7e7df"/>
  <path d="m33.222407 233.63817v59.24358h9.781318c19.221625 0 21.968687-2.7392 21.968687-21.93533v-15.37292c0-19.1962-2.747062-21.93533-21.968687-21.93533z" style="fill:#ffffff;opacity:.1"/>
  <path d="m23.441093 292.88175c-19.221623 0-21.968687-2.73912-21.968687-21.93528v-7.68645h63.500006v7.68645c0 19.19616-2.747062 21.93528-21.968687 21.93528z" style="fill:#ffffff;opacity:.1"/>
  <path transform="matrix(.13229167 0 0 .13229167 -4.8768016 261.66013)" d="M 361.9375,-212 C 507.2348,-212 528,-191.28677 528,-46.125 V 70.125 C 528,215.28618 507.2348,236 361.9375,236 H 214.0625 C 68.7652,236 48,215.28618 48,70.125 V -46.125 C 48,-191.28677 68.7652,-212 214.0625,-212 Z" clip-path="url(#clipPath1082-3-36753)" style="fill:none;opacity:.5;stroke-linecap:round;stroke-linejoin:round;stroke-width:8;stroke:url(#linearGradient1108)"/>
  <ellipse cx="32.636" cy="258.849" rx="14.893" ry="10.959" style="fill:#612b00"/>
  <path d="m32.750731 246.29185c-10.333154 0-18.709823 4.88638-18.709823 10.91406 0.0031 0.13003 0.01246 0.26007 0.02495 0.38979h-0.02495c0 10.91403 3.118335 22.6077 18.709823 22.6077 9.036592 0 13.862666-3.93935 16.340627-9.3671 0.782383 0.37239 1.64534 0.59687 2.564087 0.59687 3.31828 0 6.041713-2.72343 6.041713-6.04171 0-3.31825-2.723433-6.04171-6.041713-6.04171-0.09168 0-0.177432 0.0218-0.267861 0.025 0.01871-0.59366 0.07297-1.18733 0.07297-1.7784h-0.03118c0.01558-0.12973 0.02495-0.25976 0.03118-0.38979 0-6.02768-8.376666-10.91406-18.70982-10.91406zm-0.194895 3.5568c7.805237 0 14.132025 3.31413 14.129814 7.40597-0.0031 4.08972-6.328567 7.406-14.129814 7.40597-7.801248 0-14.126353-3.31625-14.129813-7.40597-0.0021-4.09184 6.324573-7.40594 14.129813-7.40597zm19.099609 12.6194c1.633025 0 2.923411 1.29041 2.923411 2.92341 0 1.63302-1.290386 2.92341-2.923411 2.92341-0.548042 0-1.02667-0.18367-1.461706-0.4385 0.492942-1.69776 0.785939-3.49216 0.980551-5.31087 0.163089-0.0281 0.309338-0.0973 0.481155-0.0973z" style="fill:#b65a09"/>
  <path d="m31.393426 251.09214a11.382767 6.1032289 0 0 0-11.382756 6.10341 11.382767 6.1032289 0 0 0 11.382756 6.10341 11.382767 6.1032289 0 0 0 0.81127-0.0159 11.382767 6.1032289 0 0 1-10.792161-6.08747 11.382767 6.1032289 0 0 1 10.571904-6.08746 11.382767 6.1032289 0 0 0-0.591013-0.0159z" style="fill:#ffffff;filter:url(#filter1053)"/>
 </g>
</svg>
