<svg xmlns="http://www.w3.org/2000/svg" xmlns:xlink="http://www.w3.org/1999/xlink" width="256" height="256" version="1.1" viewBox="0 0 67.73 67.73">
 <defs>
  <linearGradient id="linearGradient1108" x1="296" x2="296" y1="-212" y2="236" gradientUnits="userSpaceOnUse" xlink:href="#linearGradient1013"/>
  <linearGradient id="linearGradient1013">
   <stop offset="0" style="stop-color:#ffffff"/>
   <stop style="stop-color:#ffffff;stop-opacity:0.09803922" offset=".125"/>
   <stop style="stop-color:#000000;stop-opacity:0.09803922" offset=".925"/>
   <stop offset="1" style="stop-color:#000000;stop-opacity:0.49803922"/>
  </linearGradient>
  <clipPath id="clipPath1082-3-7-3" clipPathUnits="userSpaceOnUse">
   <path d="M 361.9375,-212 C 507.2348,-212 528,-191.28677 528,-46.125 V 70.125 C 528,215.28618 507.2348,236 361.9375,236 H 214.0625 C 68.7652,236 48,215.28618 48,70.125 V -46.125 C 48,-191.28677 68.7652,-212 214.0625,-212 Z" style="fill:#8c59d9"/>
  </clipPath>
  <filter style="color-interpolation-filters:sRGB" id="filter907" width="1.046" height="1.05" x="-.02" y="-.03">
   <feGaussianBlur stdDeviation="2.32"/>
  </filter>
  <filter style="color-interpolation-filters:sRGB" id="filter4569" width="1.023" height="1.025" x="-.01" y="-.01">
   <feGaussianBlur stdDeviation="1.16"/>
  </filter>
  <linearGradient id="linearGradient985">
   <stop offset="0" style="stop-color:#f9f06b"/>
   <stop offset="1" style="stop-color:#f9f06b;stop-opacity:0"/>
  </linearGradient>
  <linearGradient id="linearGradient1057" x1="31.997" x2="-11.574" y1="261.252" y2="262.067" gradientTransform="matrix(0.91582626,0,0,1.0050871,2.2558285,-2.1538762)" gradientUnits="userSpaceOnUse" xlink:href="#linearGradient985"/>
  <linearGradient id="linearGradient1020">
   <stop style="stop-color:#ffffff" offset="0"/>
   <stop style="stop-color:#ffffff;stop-opacity:0.09411765" offset="1"/>
  </linearGradient>
  <radialGradient id="radialGradient994" cx="10.959" cy="263.25" r="29.104" fx="10.959" fy="263.25" gradientTransform="matrix(-0.01212782,-1.1981414,1.315955,-0.01332038,-318.43012,306.18109)" gradientUnits="userSpaceOnUse" xlink:href="#linearGradient1020"/>
 </defs>
 <g transform="translate(0,-229.26666)">
  <path d="m 162.53675,3.5680001 c 72.64865,0 83.03125,10.3566149 83.03125,82.9375049 v 58.125005 c 0,72.58059 -10.3826,82.9375 -83.03125,82.9375 H 88.599254 C 15.9506,227.56801 5.568,217.2111 5.568,144.63051 V 86.505505 c 0,-72.58089 10.3826,-82.9375049 83.031254,-82.9375049 z" transform="matrix(0.26458333,0,0,0.26458333,-1.8735229e-8,232.67026)" style="opacity:0.1;filter:url(#filter4569)"/>
  <path style="opacity:0.2;filter:url(#filter907)" d="m 162.53675,5.5680001 c 72.64865,0 83.03125,10.3566149 83.03125,82.9375049 v 58.125005 c 0,72.58059 -10.3826,82.9375 -83.03125,82.9375 H 88.599254 C 15.9506,229.56801 5.568,219.2111 5.568,146.63051 V 88.505505 c 0,-72.58089 10.3826,-82.9375049 83.031254,-82.9375049 z" transform="matrix(0.26458333,0,0,0.26458333,-1.8735229e-8,232.67026)"/>
  <path d="m 43.004513,233.61429 c 19.221622,0 21.968685,2.74019 21.968685,21.94388 v 15.37891 c 0,19.20362 -2.747063,21.94388 -21.968685,21.94388 h -19.56263 c -19.221621,0 -21.968684,-2.74026 -21.968684,-21.94388 v -15.37891 c 0,-19.20369 2.747063,-21.94388 21.968684,-21.94388 z" style="fill:#241f31"/>
  <g transform="matrix(1.0909091,0,0,1.0909091,-2.4264986,-24.25635)">
   <path d="M 4.0896469,267.21965 H 15.236016 l 5.815496,-17.01948 7.753995,26.59294 4.846248,-15.95576 1.938498,6.3823 1.938499,5.85044 1.9385,-5.85044 h 21.808112" style="fill:none;stroke:#56432c;stroke-width:1.01538539;stroke-linecap:square"/>
   <path style="fill:none;stroke:url(#linearGradient1057);stroke-width:1.01538539;stroke-linecap:round" d="M 4.0896469,267.21965 H 15.236016 l 5.815496,-17.01948 7.753995,26.59294 4.846248,-15.95576 1.938498,6.3823 1.938499,5.85044 1.9385,-5.85044 6.03854,0.0205"/>
  </g>
  <path style="opacity:0.05;fill:url(#radialGradient994)" d="m 40.652098,236.37229 c 19.221622,0 21.968685,2.74019 21.968685,21.94388 v 15.37891 c 0,19.20361 -2.747063,21.94388 -21.968685,21.94388 h -19.56263 c -19.2216223,0 -21.96868534,-2.74027 -21.96868534,-21.94388 v -15.37891 c 0,-19.20369 2.74706304,-21.94387 21.96868534,-21.94387 z"/>
  <path d="M 361.9375,-212 C 507.2348,-212 528,-191.28677 528,-46.125 V 70.125 C 528,215.28618 507.2348,236 361.9375,236 H 214.0625 C 68.7652,236 48,215.28618 48,70.125 V -46.125 C 48,-191.28677 68.7652,-212 214.0625,-212 Z" clip-path="url(#clipPath1082-3-7-3)" transform="matrix(0.13229167,0,0,0.13229167,-4.876801,261.66013)" style="opacity:0.2;fill:none;stroke:url(#linearGradient1108);stroke-width:8;stroke-linecap:round;stroke-linejoin:round"/>
 </g>
</svg>
