<svg xmlns="http://www.w3.org/2000/svg" xmlns:xlink="http://www.w3.org/1999/xlink" style="enable-background:new" width="256" height="256" version="1.0">
 <defs>
  <filter id="filter925" width="1.046" height="1.05" x="-.02" y="-.03" style="color-interpolation-filters:sRGB">
   <feGaussianBlur stdDeviation="2.32"/>
  </filter>
  <filter id="filter931" width="1.023" height="1.025" x="-.01" y="-.01" style="color-interpolation-filters:sRGB">
   <feGaussianBlur stdDeviation="1.16"/>
  </filter>
  <linearGradient id="linearGradient1108" x1="296" x2="296" y1="-212" y2="236" gradientUnits="userSpaceOnUse" xlink:href="#linearGradient1013"/>
  <linearGradient id="linearGradient1013">
   <stop style="stop-color:#ffffff" offset="0"/>
   <stop offset=".125" style="stop-color:#ffffff;stop-opacity:0.09803922"/>
   <stop offset=".925" style="stop-color:#000000;stop-opacity:0.09803922"/>
   <stop style="stop-color:#000000;stop-opacity:0.49803922" offset="1"/>
  </linearGradient>
  <clipPath id="clipPath1082-3" clipPathUnits="userSpaceOnUse">
   <path style="fill:#8c59d9" d="M 361.9375,-212 C 507.2348,-212 528,-191.28677 528,-46.125 V 70.125 C 528,215.28618 507.2348,236 361.9375,236 H 214.0625 C 68.7652,236 48,215.28618 48,70.125 V -46.125 C 48,-191.28677 68.7652,-212 214.0625,-212 Z"/>
  </clipPath>
  <linearGradient id="linearGradient4338">
   <stop offset="0" style="stop-color:#f2f2f2"/>
   <stop offset="1" style="stop-color:#ffffff"/>
  </linearGradient>
  <linearGradient id="linearGradient8903">
   <stop offset="0" style="stop-color:#008000"/>
   <stop offset="1" style="stop-color:#00ff00;stop-opacity:0"/>
  </linearGradient>
  <linearGradient id="linearGradient1776" x1="58.663" x2="3.612" y1="224.971" y2="301.548" gradientTransform="matrix(2.8367694,0,0,2.8346456,31.389226,-573.78227)" gradientUnits="userSpaceOnUse" xlink:href="#linearGradient4338"/>
  <linearGradient id="linearGradient4295">
   <stop offset="0" style="stop-color:#000000;stop-opacity:0"/>
   <stop style="stop-color:#000000" offset=".505"/>
   <stop offset="1" style="stop-color:#000000;stop-opacity:0"/>
  </linearGradient>
  <filter id="filter2168" width="1.023" height="1.025" x="-.01" y="-.01" style="color-interpolation-filters:sRGB">
   <feGaussianBlur stdDeviation=".87"/>
  </filter>
  <linearGradient id="linearGradient2180" x1="120.551" x2="120.468" y1="104.433" y2="238.961" gradientUnits="userSpaceOnUse" xlink:href="#linearGradient4295"/>
  <linearGradient id="linearGradient10138">
   <stop offset="0" style="stop-color:#ffffff"/>
   <stop offset="1" style="stop-color:#ffd5d5;stop-opacity:0"/>
  </linearGradient>
  <linearGradient id="linearGradient21768-9-0" x1="1180.158" x2="1180.158" y1="688.526" y2="658.132" gradientTransform="matrix(2.0471221,0,0,2.0471221,-2554.7123,-1226.5808)" gradientUnits="userSpaceOnUse" xlink:href="#linearGradient11255"/>
  <linearGradient id="linearGradient11255">
   <stop offset="0" style="stop-color:#f6b7a8"/>
   <stop offset="1" style="stop-color:#fee9d6"/>
  </linearGradient>
  <linearGradient id="linearGradient21772-7-7" x1="1183.469" x2="1168" y1="671.49" y2="686.958" gradientTransform="matrix(1.9393807,0,0,1.9393807,-2427.0866,-1153.7991)" gradientUnits="userSpaceOnUse" xlink:href="#linearGradient9658"/>
  <linearGradient id="linearGradient9658">
   <stop offset="0" style="stop-color:#f7c3a1"/>
   <stop offset=".472" style="stop-color:#f1b38e"/>
   <stop offset="1" style="stop-color:#f17571"/>
  </linearGradient>
  <radialGradient id="radialGradient21774-5-1" cx="-2578.688" cy="-1363.409" r="10" fx="-2578.688" fy="-1363.409" gradientTransform="matrix(1.9010543,-2.2820058e-5,2.3600441e-5,1.9685571,4783.018,2825.9305)" gradientUnits="userSpaceOnUse" xlink:href="#linearGradient9652"/>
  <linearGradient id="linearGradient9652">
   <stop offset="0" style="stop-color:#ffffff"/>
   <stop offset="1" style="stop-color:#ffbcd5;stop-opacity:0"/>
  </linearGradient>
  <linearGradient id="linearGradient21776-2" x1="1079.546" x2="1079.546" y1="-2650.276" y2="-2617.534" gradientTransform="matrix(1.7777641,0,0,1.805115,-1973.2159,4926.9723)" gradientUnits="userSpaceOnUse" xlink:href="#linearGradient11458"/>
  <linearGradient id="linearGradient11458">
   <stop offset="0" style="stop-color:#a88200"/>
   <stop offset="1" style="stop-color:#724a00"/>
  </linearGradient>
  <linearGradient id="linearGradient21778-7" x1="1171.25" x2="1171.25" y1="-1513.388" y2="-1575.638" gradientTransform="matrix(0.88888209,0,0,0.88888209,-1095.8892,1545.2558)" gradientUnits="userSpaceOnUse" xlink:href="#linearGradient11513"/>
  <linearGradient id="linearGradient11513">
   <stop offset="0" style="stop-color:#d7ae1e"/>
   <stop offset="1" style="stop-color:#ffd251"/>
  </linearGradient>
  <linearGradient id="linearGradient21780-2" x1="1171" x2="1138" y1="-1562.104" y2="-1504.947" gradientTransform="matrix(0.88888209,0,0,0.88888209,-1095.8892,1545.2558)" gradientUnits="userSpaceOnUse" xlink:href="#linearGradient11503"/>
  <linearGradient id="linearGradient11503">
   <stop offset="0" style="stop-color:#e4bc33"/>
   <stop offset="1" style="stop-color:#cd9215"/>
  </linearGradient>
  <linearGradient id="linearGradient21782-2" x1="529.25" x2="535" y1="-1568.638" y2="-1574.638" gradientTransform="matrix(2.2222052,0,0,4.4444284,-1120.5384,7170.6174)" gradientUnits="userSpaceOnUse" xlink:href="#linearGradient9569"/>
  <linearGradient id="linearGradient9569">
   <stop offset="0" style="stop-color:#b42c00"/>
   <stop offset="1" style="stop-color:#ffc600;stop-opacity:0"/>
  </linearGradient>
  <linearGradient id="linearGradient21784-7" x1="529.25" x2="535" y1="-1568.638" y2="-1574.638" gradientTransform="matrix(2.2222052,0,0,4.4444284,-1283.8878,7170.6174)" gradientUnits="userSpaceOnUse" xlink:href="#linearGradient9569"/>
  <linearGradient id="linearGradient21786-0" x1="1065.75" x2="1065.75" y1="-1561.392" y2="-1495.638" gradientTransform="matrix(0.88888209,0,0,0.88888209,-1096.1102,1544.3669)" gradientUnits="userSpaceOnUse" xlink:href="#linearGradient16819"/>
  <linearGradient id="linearGradient16819">
   <stop offset="0" style="stop-color:#e2b006"/>
   <stop offset="1" style="stop-color:#bc8611"/>
  </linearGradient>
  <linearGradient id="linearGradient21788-7-7" x1="1162.591" x2="1162.591" y1="900.186" y2="887.434" gradientTransform="matrix(4.1342974,0,0,3.8316683,-4925.0676,-3238.1031)" gradientUnits="userSpaceOnUse" xlink:href="#linearGradient11674"/>
  <linearGradient id="linearGradient11674">
   <stop offset="0" style="stop-color:#f8ca35"/>
   <stop offset="1" style="stop-color:#fef0c4"/>
  </linearGradient>
  <linearGradient id="linearGradient21790-1-6" x1="1162.175" x2="1162.175" y1="900.717" y2="887.071" gradientTransform="matrix(3.9711072,0,0,3.6432255,-4735.4336,-3069.26)" gradientUnits="userSpaceOnUse" xlink:href="#linearGradient11612"/>
  <linearGradient id="linearGradient11612">
   <stop offset="0" style="stop-color:#edc33e"/>
   <stop offset="1" style="stop-color:#fae6a5"/>
  </linearGradient>
  <linearGradient id="linearGradient3402" x1="1155.005" x2="1165.548" y1="899.985" y2="893.35" gradientTransform="matrix(1.3237055,0,0,1.2144084,-1680.7778,-881.58778)" gradientUnits="userSpaceOnUse" xlink:href="#linearGradient11704"/>
  <linearGradient id="linearGradient11704">
   <stop offset="0" style="stop-color:#ff6a1e"/>
   <stop offset="1" style="stop-color:#d45500;stop-opacity:0"/>
  </linearGradient>
  <linearGradient id="linearGradient4819" x1="1155.005" x2="1165.548" y1="899.985" y2="893.35" gradientTransform="matrix(-1.3237055,0,0,1.2144084,1438.6172,-881.58778)" gradientUnits="userSpaceOnUse" xlink:href="#linearGradient11704"/>
  <radialGradient id="radialGradient21796-5-0" cx="-1535.455" cy="-853" r="10" fx="-1535.455" fy="-853" gradientTransform="matrix(-2.3025868,0,0,-2.2222052,-3321.818,-1773.6456)" gradientUnits="userSpaceOnUse" xlink:href="#linearGradient10138"/>
  <linearGradient id="linearGradient21798-3-9" x1="1162" x2="1162" y1="889.006" y2="900.717" gradientTransform="matrix(0.97917474,0,0,0.91080191,-1258.8094,-646.78958)" gradientUnits="userSpaceOnUse" xlink:href="#linearGradient11704"/>
  <linearGradient id="linearGradient21800-0" x1="-17" x2="144" y1="-1194.638" y2="-1194.638" gradientTransform="matrix(0.15458816,0,0,0.88888209,-91.487961,1259.9247)" gradientUnits="userSpaceOnUse" xlink:href="#linearGradient11804"/>
  <linearGradient id="linearGradient11804">
   <stop offset="0" style="stop-color:#d40000;stop-opacity:0"/>
   <stop offset=".493" style="stop-color:#aa0000"/>
   <stop offset="1" style="stop-color:#aa0000;stop-opacity:0"/>
  </linearGradient>
  <linearGradient id="linearGradient21804-9" x1="-17" x2="144" y1="-1194.638" y2="-1194.638" gradientTransform="matrix(0.39751339,0,0,0.88888209,-148.02849,1273.258)" gradientUnits="userSpaceOnUse" xlink:href="#linearGradient11804"/>
  <linearGradient id="linearGradient21806-5" x1="1171.25" x2="1171.25" y1="-1513.388" y2="-1575.638" gradientTransform="matrix(0.88888209,0,0,0.88888209,-1095.8892,1545.7444)" gradientUnits="userSpaceOnUse" xlink:href="#linearGradient11513-4"/>
  <linearGradient id="linearGradient11513-4">
   <stop offset="0" style="stop-color:#ecbb10"/>
   <stop offset="1" style="stop-color:#ffd251"/>
  </linearGradient>
  <radialGradient id="radialGradient21808-1-7" cx="-1535.213" cy="-848.917" r="10" fx="-1535.213" fy="-848.917" gradientTransform="matrix(-2.7630989,0,0,-4.0219781,-4386.6386,-3343.5347)" gradientUnits="userSpaceOnUse" xlink:href="#linearGradient9563"/>
  <linearGradient id="linearGradient9563">
   <stop offset="0" style="stop-color:#fffb88"/>
   <stop offset="1" style="stop-color:#b97f00;stop-opacity:0"/>
  </linearGradient>
  <linearGradient id="linearGradient4095" x1="529.25" x2="535.438" y1="-1568.638" y2="-1574.826" gradientTransform="matrix(0.59258837,0,0,0.59258837,-473.59666,1147.1442)" gradientUnits="userSpaceOnUse" xlink:href="#linearGradient8903"/>
 </defs>
 <g transform="translate(0,-44)">
  <g>
   <g>
    <path style="opacity:0.2;filter:url(#filter925)" d="m 162.53675,62.431991 c 72.64865,0 83.03125,10.356615 83.03125,82.937499 v 58.125 c 0,72.58059 -10.3826,82.9375 -83.03125,82.9375 h -73.9375 c -72.64865,0 -83.0312501,-10.35691 -83.0312501,-82.9375 v -58.125 c 0,-72.580884 10.3826001,-82.937499 83.0312501,-82.937499 z"/>
    <path d="m 162.53675,61.431991 c 72.64865,0 83.03125,10.356615 83.03125,82.937499 v 58.125 c 0,72.58059 -10.3826,82.9375 -83.03125,82.9375 h -73.9375 c -72.64865,0 -83.0312501,-10.35691 -83.0312501,-82.9375 v -58.125 c 0,-72.580884 10.3826001,-82.937499 83.0312501,-82.937499 z" style="opacity:0.1;filter:url(#filter931)"/>
   </g>
   <g>
    <path d="m 162.53675,60.431991 c 72.64865,0 83.03125,10.356615 83.03125,82.937499 v 58.125 c 0,72.58059 -10.3826,82.9375 -83.03125,82.9375 h -73.9375 c -72.64865,0 -83.0312501,-10.35691 -83.0312501,-82.9375 v -58.125 c 0,-72.580884 10.3826001,-82.937499 83.0312501,-82.937499 z" style="fill:#d87e26"/>
    <path d="m 215.568,199.81675 v -54.76953 c -0.0331,-2.58701 -0.0938,-5.07855 -0.17981,-7.4375 L 166.48829,88.746439 C 162.33461,88.594661 158.25492,88.43199 153.38277,88.43199 H 97.888095 c -54.527304,0 -62.320095,7.767459 -62.320095,62.20312 v 43.59375 c 0,54.43546 7.792791,62.20313 62.320095,62.20313 h 55.494675 c 52.44617,0 61.55852,-7.62929 62.18523,-56.61524 z" style="opacity:0.4;fill:url(#linearGradient2180);filter:url(#filter2182)"/>
    <g transform="translate(-1.598015)">
     <path style="opacity:0.1;fill:#ffffff" d="m 7.166015,172.43201 v 29.06249 c 0,72.58061 10.3826,82.9375 83.031245,82.9375 h 73.9375 c 72.64865,0 83.03125,-10.35689 83.03125,-82.9375 v -29.06249 z"/>
     <path d="m 124.85652,284.432 h 37.68023 c 36.89655,0 57.27587,-3.11165 69.13609,-14.01362 11.86024,-10.90208 15.18368,-29.57817 15.18368,-63.48219 v -69.00828 c 0,-33.9041 -3.32344,-52.807857 -15.18368,-63.709867 C 219.81262,63.316034 199.4333,60.43199 162.53675,60.43199 h -37.68023 z" style="opacity:0.1;fill:#f6f6f6"/>
    </g>
    <path style="opacity:0.1;fill:#010000;filter:url(#filter2168)" d="m 215.568,199.81675 v -54.76953 c -0.0331,-2.58701 -0.0938,-5.07855 -0.17981,-7.4375 L 166.48829,88.746439 C 162.33461,88.594661 158.25492,88.43199 153.38277,88.43199 H 97.888095 c -54.527304,0 -62.320095,7.767459 -62.320095,62.20312 v 43.59375 c 0,54.43546 7.792791,62.20313 62.320095,62.20313 h 55.494675 c 52.44617,0 61.55852,-7.62929 62.18523,-56.61524 z"/>
    <path d="m 215.568,199.81675 v -54.76953 c -0.0331,-2.58701 -0.0938,-5.07855 -0.17981,-7.4375 L 166.48829,88.746439 C 162.33461,88.594661 158.25492,88.43199 153.38277,88.43199 H 97.888095 c -54.527304,0 -62.320095,7.767459 -62.320095,62.20312 v 43.59375 c 0,54.43546 7.792791,62.20313 62.320095,62.20313 h 55.494675 c 52.44617,0 61.55852,-7.62929 62.18523,-56.61524 z" style="fill:url(#linearGradient1776)"/>
    <g transform="translate(234.02005,1.0712138)">
     <path d="m -96.118581,158.02805 a 33.777519,33.777519 0 1 1 -67.555039,0 33.77752,33.77752 0 1 1 67.555039,0 z" style="opacity:0.15;fill:none;stroke:#000000;stroke-width:1.77776396"/>
     <path d="m -96.118581,156.25028 a 33.777519,33.777519 0 1 1 -67.555039,0 33.77752,33.77752 0 1 1 67.555039,0 z" style="fill:url(#linearGradient21768-9-0);stroke:url(#linearGradient21770-9-1);stroke-width:1.77776396"/>
     <path d="m -97.890301,156.25266 a 31.999785,31.999785 0 1 1 -63.999569,0 31.999785,31.999785 0 1 1 63.999569,0 z" style="fill:url(#linearGradient21772-7-7)"/>
     <path d="m -121.1415,158.0352 a 0.92008731,0.85432009 0 0 0 -0.13564,0.12585 0.92008731,0.85432009 0 0 0 -0.54107,0.37682 l -17.72217,28.38902 -17.58751,28.51464 a 0.92008731,0.85432009 0 0 0 -0.13493,0.12548 0.92008731,0.85432009 0 0 0 0,0.25134 0.92008731,0.85432009 0 0 0 0,0.25134 0.92008731,0.85432009 0 0 0 0.13493,0.25134 0.92008731,0.85432009 0 0 0 0.13557,0.12548 0.92008731,0.85432009 0 0 0 0.13553,0.12548 0.92008731,0.85432009 0 0 0 0.54115,0.12586 h 35.30907 35.309249 a 0.92008731,0.85432009 0 0 0 0.54106,-0.12586 0.92008731,0.85432009 0 0 0 0.13564,-0.12548 0.92008731,0.85432009 0 0 0 0.13539,-0.12548 0.92008731,0.85432009 0 0 0 0.13519,-0.25134 0.92008731,0.85432009 0 0 0 0,-0.25134 0.92008731,0.85432009 0 0 0 0,-0.25134 0.92008731,0.85432009 0 0 0 -0.13519,-0.12548 l -17.587509,-28.51464 -17.72201,-28.38902 a 0.92008731,0.85432009 0 0 0 -0.54124,-0.37682 0.92008731,0.85432009 0 0 0 -0.27057,-0.12585 0.92008731,0.85432009 0 0 0 -0.13493,0 z m 0.13493,2.63796 16.91054,27.13285 16.910809,27.13277 h -33.821349 -33.82117 l 16.91081,-27.13277 z" style="opacity:0.15"/>
     <path d="m -99.673341,142.03662 a 19.555409,19.555409 0 1 1 -39.110819,0 19.555409,19.555409 0 1 1 39.110819,0 z" style="opacity:0.25;fill:url(#radialGradient21774-5-1)"/>
     <rect width="58.666" height="58.666" x="-111.01" y="144.7" rx="1.778" ry="1.778" style="opacity:0.15"/>
     <rect width="58.666" height="58.666" x="-111.01" y="142.92" rx="1.778" ry="1.778" style="opacity:0.8;fill:url(#linearGradient21776-2)"/>
     <rect width="55.111" height="55.111" x="-109.23" y="144.7" style="fill:url(#linearGradient21778-7)"/>
     <rect width="53.333" height="53.333" x="-108.34" y="145.59" style="fill:url(#linearGradient21780-2)"/>
     <rect width="26.666" height="53.333" x="55.01" y="145.59" transform="scale(-1,1)" style="opacity:0.35;fill:url(#linearGradient21782-2)"/>
     <rect width="26.666" height="53.333" x="-108.34" y="145.59" style="opacity:0.5;fill:url(#linearGradient21784-7)"/>
     <path d="m -121.1415,156.25746 a 0.92008731,0.85432009 0 0 0 -0.13564,0.12586 0.92008731,0.85432009 0 0 0 -0.54107,0.37681 l -17.72217,28.38902 -17.58751,28.51464 a 0.92008731,0.85432009 0 0 0 -0.13493,0.12548 0.92008731,0.85432009 0 0 0 0,0.25134 0.92008731,0.85432009 0 0 0 0,0.25134 0.92008731,0.85432009 0 0 0 0.13493,0.25134 0.92008731,0.85432009 0 0 0 0.13557,0.12548 0.92008731,0.85432009 0 0 0 0.13553,0.12548 0.92008731,0.85432009 0 0 0 0.54115,0.12548 h 35.30907 35.309249 a 0.92008731,0.85432009 0 0 0 0.54106,-0.12548 0.92008731,0.85432009 0 0 0 0.13564,-0.12548 0.92008731,0.85432009 0 0 0 0.13539,-0.12548 0.92008731,0.85432009 0 0 0 0.13519,-0.25134 0.92008731,0.85432009 0 0 0 0,-0.25134 0.92008731,0.85432009 0 0 0 0,-0.25134 0.92008731,0.85432009 0 0 0 -0.13519,-0.12548 l -17.587509,-28.51464 -17.72201,-28.38902 a 0.92008731,0.85432009 0 0 0 -0.54124,-0.37681 0.92008731,0.85432009 0 0 0 -0.27057,-0.12586 0.92008731,0.85432009 0 0 0 -0.13493,0 z m 0.13493,2.63792 16.91054,27.13285 16.910809,27.13277 h -33.821349 -33.82117 l 16.91081,-27.13277 z" style="fill:url(#linearGradient21786-0)"/>
     <path d="m -87.236441,213.14581 h -33.777629 -33.77762 l 16.88901,-27.11093 16.88861,-27.11089 16.88861,27.11089 z" style="fill:url(#linearGradient21788-7-7)"/>
     <path d="m -88.562281,212.25513 h -32.444359 -32.44434 l 16.22237,-25.77763 16.22197,-25.77759 16.22199,25.77759 z" style="fill:url(#linearGradient21790-1-6)"/>
     <path d="m -131.81715,212.25055 h -10.81481 -10.81481 l 5.40747,-8.59253 5.40734,-8.59253 5.40734,8.59253 z" style="opacity:0.35;fill:url(#linearGradient3402)"/>
     <path d="m -110.34335,212.25055 h 10.814819 10.81481 l -5.40747,-8.59253 -5.40734,-8.59253 -5.407339,8.59253 z" style="opacity:0.35;fill:url(#linearGradient4819)"/>
     <rect width="22.222" height="44.444" x="190.92" y="99.67" transform="rotate(90)" style="opacity:0.5;fill:url(#radialGradient21796-5-0)"/>
     <path d="m -113.00833,173.58519 h -7.99996 -7.99995 l 4.00002,-6.44436 3.99993,-6.44436 3.99993,6.44436 z" style="opacity:0.25;fill:url(#linearGradient21798-3-9)"/>
     <rect width="9.778" height="9.778" x="-161.45" y="209.14" style="opacity:0.75;fill:#9ef290;stroke:#18a303;stroke-width:0.8888821"/>
     <path d="m -94.119051,200.69907 h 40.88858 v -56.88846 h -56.888469 v 31.28862 z" style="fill:none"/>
     <rect width="24.889" height=".889" x="-94.12" y="198.03" style="opacity:0.25;fill:url(#linearGradient21800-0)"/>
     <rect width="10.667" height=".889" x="-126.34" y="162.48" style="opacity:0.15"/>
     <rect width="7.111" height="7.111" x="-160.12" y="210.48" style="opacity:0.75;fill:url(#linearGradient4095)"/>
     <rect width="10.667" height="1.778" x="-161.9" y="219.37" style="opacity:0.05"/>
     <rect width="64" height=".889" x="-154.78" y="211.37" style="opacity:0.1;fill:url(#linearGradient21804-9)"/>
     <path d="m -108.21895,173.78271 -0.77778,0.47229 15.644339,25.55535 0.77777,-0.47225 z" style="opacity:0.5;fill:url(#linearGradient21806-5)"/>
     <rect width="26.666" height="53.333" x="-171.37" y="55.01" transform="matrix(0,-1,-1,0,0,0)" style="opacity:0.5;fill:url(#radialGradient21808-1-7)"/>
     <use style="enable-background:new" width="5033" height="1085" x="0" y="0" transform="translate(35.555285,-56.888426)" xlink:href="#rect10793"/>
     <use style="enable-background:new" width="5033" height="1085" x="0" y="0" transform="translate(35.555285,-56.888426)" xlink:href="#rect11639"/>
     <rect width="10.667" height="1.778" x="-90.78" y="219.37" style="opacity:0.05"/>
     <use style="enable-background:new" width="5033" height="1085" x="0" y="0" transform="translate(71.110565,2.7649517e-5)" xlink:href="#rect10793"/>
     <use style="enable-background:new" width="5033" height="1085" x="0" y="0" transform="translate(71.110565,2.7649517e-5)" xlink:href="#rect11639"/>
    </g>
   </g>
   <g>
    <path style="opacity:0.4;fill:none;stroke:url(#linearGradient1108);stroke-width:8;stroke-linecap:round;stroke-linejoin:round" d="M 361.9375,-212 C 507.2348,-212 528,-191.28677 528,-46.125 V 70.125 C 528,215.28618 507.2348,236 361.9375,236 H 214.0625 C 68.7652,236 48,215.28618 48,70.125 V -46.125 C 48,-191.28677 68.7652,-212 214.0625,-212 Z" clip-path="url(#clipPath1082-3)" transform="matrix(0.5,0,0,0.5,-18.432,166.43199)"/>
   </g>
  </g>
 </g>
</svg>
