<svg width="256" height="256" version="1.1" viewBox="0 0 67.73 67.73" xmlns="http://www.w3.org/2000/svg" xmlns:xlink="http://www.w3.org/1999/xlink">
 <defs>
  <linearGradient id="linearGradient1108" x1="296" x2="296" y1="-212" y2="236" gradientUnits="userSpaceOnUse">
   <stop style="stop-color:#ffffff" offset="0"/>
   <stop style="stop-color:#ffffff;stop-opacity:.09803922" offset=".125"/>
   <stop style="stop-color:#000000;stop-opacity:.09803922" offset=".925"/>
   <stop style="stop-color:#000000;stop-opacity:.49803922" offset="1"/>
  </linearGradient>
  <clipPath id="clipPath1082-3-2">
   <path d="M 361.9375,-212 C 507.2348,-212 528,-191.28677 528,-46.125 V 70.125 C 528,215.28618 507.2348,236 361.9375,236 H 214.0625 C 68.7652,236 48,215.28618 48,70.125 V -46.125 C 48,-191.28677 68.7652,-212 214.0625,-212 Z" style="fill:#8c59d9"/>
  </clipPath>
  <filter id="filter931" x="-.01" y="-.01" width="1.023" height="1.025" style="color-interpolation-filters:sRGB">
   <feGaussianBlur stdDeviation="1.16"/>
  </filter>
  <filter id="filter925" x="-.02" y="-.03" width="1.046" height="1.05" style="color-interpolation-filters:sRGB">
   <feGaussianBlur stdDeviation="2.32"/>
  </filter>
 </defs>
 <g transform="translate(0,-229.26666)">
  <g transform="matrix(.12974173 0 0 .12974173 3.8344818 227.85345)" style="enable-background:new">
   <path transform="matrix(2.0393079,0,0,2.0393079,-29.55473,37.126122)" d="m162.53675 5.568c72.64865 0 83.03125 10.356615 83.03125 82.9375v58.125c0 72.58059-10.3826 82.9375-83.03125 82.9375h-73.9375c-72.64865 0-83.03125-10.35691-83.03125-82.9375v-58.125c0-72.580885 10.3826-82.9375 83.03125-82.9375z" style="filter:url(#filter925);opacity:.2"/>
   <path transform="matrix(2.0393079,0,0,2.0393079,-29.55473,37.126122)" d="m162.53675 4.568c72.64865 0 83.03125 10.356615 83.03125 82.9375v58.125c0 72.58059-10.3826 82.9375-83.03125 82.9375h-73.9375c-72.64865 0-83.03125-10.35691-83.03125-82.9375v-58.125c0-72.580885 10.3826-82.9375 83.03125-82.9375z" style="filter:url(#filter931);opacity:.1"/>
   <path d="m301.90775 44.402373c148.15296 0 169.32628 21.120337 169.32628 169.13511v118.53476c0 148.01417-21.17332 169.13509-169.32628 169.13509h-150.78133c-148.15297 0-169.32628-21.12092-169.32628-169.13509v-118.53476c0-148.01477 21.173318-169.13511 169.32628-169.13511z" style="fill:#f1f0e9"/>
   <path d="m-18.199864 272.80485v59.26739c0 148.01417 21.173318 169.13509 169.32628 169.13509h150.78133c148.15296 0 169.32628-21.12092 169.32628-169.13509v-59.26739z" style="fill:#ffffff;opacity:.2"/>
   <g transform="matrix(2.0393079,0,0,2.0393079,-83.457716,-45.327178)" style="enable-background:new">
    <path d="m76 168c-8.0292 0.55788-14.97923 7.01956-15.84375 15.54492-0.4731 5.75339 0.72795 11.52557 3.84375 16.45508 9.5586 14.03844 21.13838 26.88888 31.814453 39.7793h0.355469c10.129018-13.46441 22.132898-25.95364 31.830078-39.7793 3.24924-6.03501 4.6733-12.86129 2.75977-19.54297-2.90333-6.91868-7.12903-12.6816-14.75977-12.45703-8.75092 0.0335-17.939011 7.78939-20 16-2.469439-6.65437-10.54424-15.33963-18.13086-16z" style="fill:#da1636"/>
    <path d="m92 71.99999-26.44531 68h-5.55469v4h20v-4h-6.44531l6.22265-16h28.44532l6.22265 16h-6.44531v4h24v-4h-5.55469l-26.44531-68zm2 15.42969 12.66797 32.57031h-25.33594z" style="fill:#da1636"/>
    <path d="m92 71.99999-26.44531 68.00001h-5.55469v1h5.55469l26.44531-68.00001h8l26.44531 68.00001h5.55469v-1h-5.55469l-26.44531-68.00001zm-10.2793 48.00001-0.38867 1h25.33594l-0.38867-1zm-7.77734 20-0.38867 1h6.44531v-1zm34.05664 0v1h6.44531l-0.38867-1zm-32 28c-8.02921 0.55788-14.97923 7.01956-15.84375 15.54492-0.0761 0.92578-0.0917 1.85028-0.0801 2.77344 0.013-0.59095 0.0314-1.18195 0.0801-1.77344 0.86452-8.52536 7.81454-14.98704 15.84375-15.54492h1.86914c7.58663 0.66037 15.66142 9.34563 18.13086 16 2.06099-8.21061 11.24908-15.9665 20-16 7.63074-0.22457 11.85644 5.53835 14.75977 12.45703 0.54469 1.90199 0.80895 3.81492 0.84765 5.71875 0.0503-2.23259-0.20751-4.48348-0.84765-6.71875-2.90333-6.91868-7.12903-12.6816-14.75977-12.45703-8.75092 0.0335-17.93901 7.78939-20 16-2.46944-6.65437-10.54423-15.33963-18.13086-16z" style="fill:#ffffff;opacity:.49500002"/>
    <path d="m60.92969 192.81445c0.64741 2.51435 1.6507 4.93958 3.07031 7.18555 9.5586 14.03844 21.13839 26.88888 31.814453 39.7793h0.355469c7.891908-10.49064 16.909208-20.39687 25.099608-30.79688z" style="fill:#ffffff;opacity:.07999998"/>
   </g>
   <path transform="matrix(1.0196539,0,0,1.0196539,-67.143253,260.569)" d="M 361.9375,-212 C 507.2348,-212 528,-191.28677 528,-46.125 V 70.125 C 528,215.28618 507.2348,236 361.9375,236 H 214.0625 C 68.7652,236 48,215.28618 48,70.125 V -46.125 C 48,-191.28677 68.7652,-212 214.0625,-212 Z" clip-path="url(#clipPath1082-3-2)" style="fill:none;opacity:.4;stroke-linecap:round;stroke-linejoin:round;stroke-width:8;stroke:url(#linearGradient1108)"/>
  </g>
 </g>
</svg>
