<svg xmlns="http://www.w3.org/2000/svg" xmlns:xlink="http://www.w3.org/1999/xlink" width="256" height="256" version="1.1">
 <defs>
  <linearGradient id="linearGradient2390">
   <stop style="stop-color:#e70b22" offset="0"/>
   <stop style="stop-color:#f85858" offset="1"/>
  </linearGradient>
  <linearGradient id="linearGradient4382">
   <stop offset="0" style="stop-color:#fff"/>
   <stop offset="1" style="stop-color:#fff;stop-opacity:0"/>
  </linearGradient>
  <linearGradient id="linearGradient4293">
   <stop offset="0"/>
   <stop offset="1" style="stop-opacity:0"/>
  </linearGradient>
  <linearGradient id="linearGradient4259">
   <stop offset="0" style="stop-color:#d9d6d0"/>
   <stop offset=".736" style="stop-color:#bdb8ad"/>
   <stop offset="1" style="stop-color:#938a79"/>
  </linearGradient>
  <linearGradient id="linearGradient4043">
   <stop offset="0" style="stop-color:#a4967d"/>
   <stop offset="1" style="stop-color:#cdc6ba"/>
  </linearGradient>
  <linearGradient id="linearGradient3822">
   <stop offset="0" style="stop-color:#d7d3cd"/>
   <stop offset="1" style="stop-color:#f4f3f1"/>
  </linearGradient>
  <linearGradient id="linearGradient3797">
   <stop offset="0" style="stop-color:#e5e2dd"/>
   <stop offset="1" style="stop-color:#f2f1ee"/>
  </linearGradient>
  <linearGradient id="linearGradient3838-0">
   <stop offset="0" style="stop-color:#d6d4cf"/>
   <stop offset="1" style="stop-color:#fbfaf9"/>
  </linearGradient>
  <clipPath id="clipPath4200" clipPathUnits="userSpaceOnUse">
   <rect width="104" height="16" x="128" y="116" style="fill:#ff00ff"/>
  </clipPath>
  <clipPath id="clipPath4277" clipPathUnits="userSpaceOnUse">
   <path d="m 167.47,132 c -7.2639,0.1838 -12.351,0.78573 -15.469,2.6562 -2.1106,1.2663 -3.5148,3.0443 -4.5312,6.0938 -1.0165,3.0495 -1.5312,7.3572 -1.5312,13.25 0,5.8928 0.51476,10.201 1.5312,13.25 1.0165,3.0495 2.4207,4.8274 4.5312,6.0938 3.1659,1.8995 8.3331,2.4852 15.781,2.6562 h 2.22 c 3.324,0 6,-2.676 6,-6 v -32 c 0,-3.324 -2.676,-6 -6,-6 h -2.5312 z" style="opacity:0.5;fill:#ff00ff"/>
  </clipPath>
  <radialGradient id="radialGradient4519" cx="177.85" cy="122.09" r="2.69" gradientTransform="matrix(1,0,0,7.4015,0,-781.59)" gradientUnits="userSpaceOnUse">
   <stop offset="0" style="stop-color:#fff"/>
   <stop offset="1" style="stop-color:#fff;stop-opacity:0"/>
  </radialGradient>
  <filter id="filter4525" width="1.16" height="1.24" x="-.08" y="-.12">
   <feGaussianBlur stdDeviation="2.4"/>
  </filter>
  <filter id="filter4533" width="1.32" height="1.48" x="-.16" y="-.24">
   <feGaussianBlur stdDeviation="4.8"/>
  </filter>
  <linearGradient id="linearGradient4989" x1="192" x2="192" y1="124.34" y2="99.823" gradientUnits="userSpaceOnUse" spreadMethod="reflect">
   <stop offset="0" style="stop-color:#f18137"/>
   <stop offset=".5" style="stop-color:#f18137;stop-opacity:0.15"/>
   <stop offset="1" style="stop-color:#f1a737;stop-opacity:0"/>
  </linearGradient>
  <linearGradient id="linearGradient1108" x1="296" x2="296" y1="-212" y2="236" gradientUnits="userSpaceOnUse" xlink:href="#linearGradient1013"/>
  <linearGradient id="linearGradient1013">
   <stop style="stop-color:#ffffff" offset="0"/>
   <stop offset=".125" style="stop-color:#ffffff;stop-opacity:0.09803922"/>
   <stop offset=".925" style="stop-color:#000000;stop-opacity:0.09803922"/>
   <stop style="stop-color:#000000;stop-opacity:0.49803922" offset="1"/>
  </linearGradient>
  <clipPath id="clipPath1082" clipPathUnits="userSpaceOnUse">
   <path style="fill:#8c59d9" d="M 361.9375,-212 C 507.2348,-212 528,-191.28677 528,-46.125 V 70.125 C 528,215.28618 507.2348,236 361.9375,236 H 214.0625 C 68.7652,236 48,215.28618 48,70.125 V -46.125 C 48,-191.28677 68.7652,-212 214.0625,-212 Z"/>
  </clipPath>
  <filter id="filter1015" width="1.046" height="1.05" x="-.02" y="-.03" style="color-interpolation-filters:sRGB">
   <feGaussianBlur stdDeviation="2.32"/>
  </filter>
  <filter style="color-interpolation-filters:sRGB" id="filter5228-9-4" width="1.101" height="2.793" x="-.05" y="-.9">
   <feGaussianBlur stdDeviation="2.155"/>
  </filter>
  <clipPath id="clipPath4022-0" clipPathUnits="userSpaceOnUse">
   <path d="m 96,92 c -16,0 -24,0 -24,8 0,8 8,8 24,8 h 320 c 16,0 24,0 24,-8 0,-8 -8,-8 -24,-8 z" style="fill:#ff00ff"/>
  </clipPath>
  <filter id="filter4030-8">
   <feGaussianBlur stdDeviation="1.04"/>
  </filter>
  <linearGradient id="linearGradient1039" x1="176.65" x2="176.65" y1="75.433" y2="122.95" gradientTransform="matrix(0.48450005,0,0,0.38317267,-2.2639812,255.71796)" gradientUnits="userSpaceOnUse" xlink:href="#linearGradient3822"/>
  <linearGradient id="linearGradient1041" x1="176.52" x2="176.52" y1="87.922" y2="111.97" gradientTransform="matrix(0.48441767,0,0,0.38167831,-2.2429254,255.86741)" gradientUnits="userSpaceOnUse" xlink:href="#linearGradient4043"/>
  <linearGradient id="linearGradient1043" x1="176.52" x2="176.52" y1="87.922" y2="111.97" gradientTransform="matrix(0.2691285,0,0,0.38167831,13.251171,255.8674)" gradientUnits="userSpaceOnUse" xlink:href="#linearGradient2390"/>
  <linearGradient id="linearGradient1045" x1="192" x2="192" y1="148" y2="100" gradientUnits="userSpaceOnUse" xlink:href="#linearGradient3797"/>
  <linearGradient id="linearGradient1047" x1="145.94" x2="176" y1="124" y2="124" gradientUnits="userSpaceOnUse" xlink:href="#linearGradient4259"/>
  <linearGradient id="linearGradient1049" x1="176" x2="160" y1="162" y2="162" gradientUnits="userSpaceOnUse" xlink:href="#linearGradient4293"/>
  <linearGradient id="linearGradient1051" x1="192" x2="192" y1="148" y2="100" gradientUnits="userSpaceOnUse" xlink:href="#linearGradient3838-0"/>
  <linearGradient id="linearGradient1053" x1="145.94" x2="176" y1="124" y2="124" gradientUnits="userSpaceOnUse" xlink:href="#linearGradient4259"/>
  <linearGradient id="linearGradient1055" x1="176" x2="160" y1="162" y2="162" gradientUnits="userSpaceOnUse" xlink:href="#linearGradient4293"/>
  <linearGradient id="linearGradient1057" x1="176.68" x2="176.68" y1="102.4" y2="144.81" gradientUnits="userSpaceOnUse" xlink:href="#linearGradient4382"/>
  <linearGradient id="linearGradient1059" x1="176.68" x2="176.68" y1="102.4" y2="144.81" gradientTransform="matrix(-1,0,0,1,360,0)" gradientUnits="userSpaceOnUse" xlink:href="#linearGradient4382"/>
  <radialGradient id="radialGradient1061" cx="177.85" cy="122.09" r="2.69" gradientTransform="matrix(1,0,0,7.4015,0,-781.59)" gradientUnits="userSpaceOnUse" xlink:href="#radialGradient4519"/>
  <linearGradient id="linearGradient1063" x1="192" x2="192" y1="124.34" y2="99.823" gradientUnits="userSpaceOnUse" spreadMethod="reflect" xlink:href="#linearGradient4989"/>
  <linearGradient id="linearGradient1081" x1="176.65" x2="176.65" y1="75.433" y2="122.95" gradientTransform="matrix(0.48450005,0,0,0.38317267,-2.2639812,255.71796)" gradientUnits="userSpaceOnUse" xlink:href="#linearGradient3822"/>
  <linearGradient id="linearGradient1083" x1="176.52" x2="176.52" y1="87.922" y2="111.97" gradientTransform="matrix(0.48441767,0,0,0.38167831,-2.2429254,255.86741)" gradientUnits="userSpaceOnUse" xlink:href="#linearGradient4043"/>
  <linearGradient id="linearGradient1085" x1="176.52" x2="176.52" y1="87.922" y2="111.97" gradientTransform="matrix(0.49708518,0,0,0.38167831,-3.1545866,255.8674)" gradientUnits="userSpaceOnUse" xlink:href="#linearGradient2390"/>
  <linearGradient id="linearGradient1087" x1="192" x2="192" y1="148" y2="100" gradientUnits="userSpaceOnUse" xlink:href="#linearGradient3797"/>
  <linearGradient id="linearGradient1089" x1="145.94" x2="176" y1="124" y2="124" gradientUnits="userSpaceOnUse" xlink:href="#linearGradient4259"/>
  <linearGradient id="linearGradient1091" x1="176" x2="160" y1="162" y2="162" gradientUnits="userSpaceOnUse" xlink:href="#linearGradient4293"/>
  <linearGradient id="linearGradient1093" x1="192" x2="192" y1="148" y2="100" gradientUnits="userSpaceOnUse" xlink:href="#linearGradient3838-0"/>
  <linearGradient id="linearGradient1095" x1="145.94" x2="176" y1="124" y2="124" gradientUnits="userSpaceOnUse" xlink:href="#linearGradient4259"/>
  <linearGradient id="linearGradient1097" x1="176" x2="160" y1="162" y2="162" gradientUnits="userSpaceOnUse" xlink:href="#linearGradient4293"/>
  <linearGradient id="linearGradient1099" x1="176.68" x2="176.68" y1="102.4" y2="144.81" gradientUnits="userSpaceOnUse" xlink:href="#linearGradient4382"/>
  <linearGradient id="linearGradient1101" x1="176.68" x2="176.68" y1="102.4" y2="144.81" gradientTransform="matrix(-1,0,0,1,360,0)" gradientUnits="userSpaceOnUse" xlink:href="#linearGradient4382"/>
  <radialGradient id="radialGradient1103" cx="177.85" cy="122.09" r="2.69" gradientTransform="matrix(1,0,0,7.4015,0,-781.59)" gradientUnits="userSpaceOnUse" xlink:href="#radialGradient4519"/>
  <linearGradient id="linearGradient1105" x1="192" x2="192" y1="124.34" y2="99.823" gradientUnits="userSpaceOnUse" spreadMethod="reflect" xlink:href="#linearGradient4989"/>
 </defs>
 <g transform="translate(0,-220)">
  <g transform="translate(0,252)">
   <path style="opacity:0.2;fill:none;stroke:#000000;stroke-width:4.07747221;stroke-linecap:round;stroke-linejoin:round" d="m 165.68477,-20.053041 c 74.0557,0 84.63939,10.5572005 84.63939,84.54383 v 59.250741 c 0,73.98633 -10.58369,84.54383 -84.63939,84.54383 H 90.315249 c -74.05571,0 -84.6394003,-10.5575 -84.6394003,-84.54383 V 64.490789 c 0,-73.9866295 10.5836903,-84.54383 84.6394003,-84.54383 z"/>
   <path style="opacity:0.2;filter:url(#filter1015)" d="m 188.96876,45.999995 c 72.64865,0 83.03125,10.356615 83.03125,82.937505 v 58.125 c 0,72.58059 -10.3826,82.9375 -83.03125,82.9375 h -73.9375 C 42.382606,270 32.000006,259.64309 32.000006,187.0625 v -58.125 c 0,-72.58089 10.3826,-82.937505 83.031254,-82.937505 z" transform="matrix(1.019368,0,0,1.019368,-26.943941,-64.905211)"/>
   <path d="m 165.68476,-20.053041 c 74.05571,0 84.6394,10.5572005 84.6394,84.54383 v 59.250741 c 0,73.98633 -10.58369,84.54383 -84.6394,84.54383 H 90.315239 c -74.05571,0 -84.6394003,-10.5575 -84.6394003,-84.54383 V 64.490789 c 0,-73.9866295 10.5836903,-84.54383 84.6394003,-84.54383 z" style="fill:#f1f0e9"/>
   <path style="opacity:0.5;fill:none;stroke:url(#linearGradient1108);stroke-width:8;stroke-linecap:round;stroke-linejoin:round" d="M 361.9375,-212 C 507.2348,-212 528,-191.28677 528,-46.125 V 70.125 C 528,215.28618 507.2348,236 361.9375,236 H 214.0625 C 68.7652,236 48,215.28618 48,70.125 V -46.125 C 48,-191.28677 68.7652,-212 214.0625,-212 Z" clip-path="url(#clipPath1082)" transform="matrix(0.50968399,0,0,0.50968399,-18.788991,87.999959)"/>
   <path d="m 90.242419,207.99468 c -74.05571,0 -84.6394003,-10.55717 -84.6394003,-84.54365 V 93.825709 H 250.25134 v 29.625321 c 0,73.98648 -10.58369,84.54365 -84.6394,84.54365 z" style="opacity:0.05;fill:#ffffff"/>
  </g>
  <g transform="matrix(0.91374269,0,0,0.91374269,18.735361,41.087227)">
   <g transform="translate(-3.1314887,1.7572531)">
    <g transform="rotate(-90,147.17912,306.6551)">
     <path d="M 50.062014,284.83915 H 193.47402 c 17.442,0 21.318,0 21.318,9.19609 0,9.19611 -3.876,9.19611 -21.318,9.19611 H 50.062014 c -17.442002,0 -21.318002,0 -21.318002,-9.19611 0,-9.19609 3.876,-9.19609 21.318002,-9.19609 z" style="fill:url(#linearGradient1039)"/>
     <path d="m 28.744012,293.74787 c -9.28e-4,0.0957 0,0.18959 0,0.28737 0,9.19611 3.876,9.19611 21.318002,9.19611 H 193.47402 c 17.442,0 21.318,0 21.318,-9.19611 0,-0.0978 0,-0.19165 0,-0.28737 -0.0827,8.90584 -4.06146,8.90873 -21.318,8.90873 H 50.062014 c -17.256438,0 -21.235152,0 -21.318002,-8.90873 z" style="opacity:0.6;fill:#ffffff"/>
     <path d="m 50.062014,284.83915 c -17.442002,0 -21.318002,0 -21.318002,9.19609 0,0.0979 -9.28e-4,0.19167 0,0.28739 0.08285,-8.90585 4.061564,-8.90873 21.318002,-8.90873 H 193.47402 c 17.25645,0 21.23517,0.002 21.318,8.90873 0,-0.0957 0,-0.18959 0,-0.28739 0,-9.19609 -3.876,-9.19609 -21.318,-9.19609 z" style="opacity:0.05"/>
     <path style="opacity:0.6;fill:url(#linearGradient1041)" d="m 44.248013,289.4372 c -7.752,0 -11.628001,0 -11.628001,4.59804 0,4.59806 3.876001,4.59806 11.628001,4.59806 H 199.28803 c 7.752,0 11.62799,0 11.62799,-4.59806 0,-4.59804 -3.87599,-4.59804 -11.62799,-4.59804 z"/>
     <path style="opacity:0.4;filter:url(#filter4030-8)" d="m 108,84 c -36,0 -44,0 -44,16 0,16 8,16 44,16 h 296 c 36,0 44,0 44,-16 0,-16 -8,-16 -44,-16 z M 90.375,93 C 92.125,92.984 94,93 96,93 h 320 c 16,0 24,-0.5 24,7.5 0,8 -8,7.5 -24,7.5 H 96 c -16,0 -24,0.5 -24,-7.5 0,-7 6.125,-7.3906 18.375,-7.5 z" clip-path="url(#clipPath4022-0)" transform="matrix(0.48450006,0,0,0.57475615,-2.2639917,236.55964)"/>
     <path d="m 37.56609,289.4372 c -3.297388,0.0627 -4.946078,0.57475 -4.946078,4.59804 0,4.59806 2.153395,4.59806 6.460181,4.59806 h 38.91183 v -9.1961 h -38.91183 c -0.538348,0 -1.043048,-0.009 -1.514103,0 z" style="fill:url(#linearGradient1043)"/>
     <path style="opacity:0.3;fill:#fff229;filter:url(#filter5228-9-4)" d="m 180.09,123.42 a 50.987,2.8836 0 1 1 -101.97,0 50.987,2.8836 0 1 1 101.97,0 z" transform="matrix(0.41588686,0,0,0.57475615,3.0949593,223.06664)"/>
     <g transform="matrix(1.2154924,0,0,1.2154924,-97.630639,143.03657)">
      <path style="opacity:0.4;filter:url(#filter4525)" d="m 176,101 h 8 c 24,0 32,0 32,24 0,24 -8,24 -32,24 h -8 c -24,0 -32,0 -32,-24 0,-24 8,-24 32,-24 z"/>
      <path style="opacity:0.5;stroke:#000000;stroke-width:4;filter:url(#filter4533)" d="m 176,100 h 8 c 24,0 32,0 32,24 0,24 -8,24 -32,24 h -8 c -24,0 -32,0 -32,-24 0,-24 8,-24 32,-24 z" clip-path="url(#clipPath4200)"/>
      <path d="m 176,100 h 8 c 24,0 32,0 32,24 0,24 -8,24 -32,24 h -8 c -24,0 -32,0 -32,-24 0,-24 8,-24 32,-24 z" style="fill:url(#linearGradient1045)"/>
      <g style="opacity:0.5">
       <path style="opacity:0.5;fill:url(#linearGradient1047)" d="m 167.47,102 c -7.27,0.18 -12.35,0.79 -15.47,2.66 -2.11,1.26 -3.51,3.04 -4.53,6.09 -1.02,3.05 -1.53,7.36 -1.53,13.25 0,5.89 0.51,10.2 1.53,13.25 1.02,3.05 2.42,4.83 4.53,6.09 3.17,1.9 8.33,2.49 15.78,2.66 H 170 c 3.32,0 6,-2.68 6,-6 v -32 c 0,-3.32 -2.68,-6 -6,-6 z"/>
       <path style="opacity:0.2;fill:none;stroke:url(#linearGradient1049);filter:url(#filter4289)" d="m 164.65,132 c -9.6651,0.1838 -16.434,0.78573 -20.582,2.6562 -2.8082,1.2663 -4.6766,3.0443 -6.0291,6.0938 -1.36,3.05 -2.04,7.36 -2.04,13.25 0,5.8928 0.68492,10.201 2.0374,13.25 1.3525,3.0495 3.2209,4.8274 6.0291,6.0938 4.2124,1.8995 11.088,2.4852 20.998,2.6562 h 2.9522 c 4.43,0 7.99,-2.68 7.99,-6 v -32 c 0,-3.324 -3.5606,-6 -7.9834,-6 h -3.368 z" clip-path="url(#clipPath4277)" transform="translate(0,-30)"/>
      </g>
      <path style="fill:url(#linearGradient1051)" d="m 176,100 c -24,0 -32,0 -32,24 0,24 8,24 32,24 h 8 c 24,0 32,0 32,-24 0,-24 -8,-24 -32,-24 z m -4.31,0.97 c 1.37,-0.01 2.81,0 4.31,0 h 8 c 12,0 19.89,0.11 24.5,2.87 2.3,1.39 3.87,3.39 4.94,6.6 1.07,3.21 1.59,7.61 1.59,13.56 0,5.95 -0.52,10.35 -1.59,13.56 -1.07,3.21 -2.64,5.21 -4.94,6.6 -4.61,2.76 -12.5,2.87 -24.5,2.87 h -8 c -12,0 -19.89,-0.11 -24.5,-2.87 -2.3,-1.39 -3.87,-3.39 -4.94,-6.6 -1.07,-3.21 -1.59,-7.61 -1.59,-13.56 0,-5.95 0.52,-10.35 1.59,-13.56 1.07,-3.21 2.64,-5.21 4.94,-6.6 4.03,-2.41 10.57,-2.81 20.19,-2.87 z"/>
      <g style="opacity:0.8" transform="matrix(-1,0,0,1,359.94,0)">
       <path d="m 167.47,102 c -7.2639,0.1838 -12.351,0.78573 -15.469,2.6562 -2.1106,1.2663 -3.5148,3.0443 -4.5312,6.0938 -1.0165,3.0495 -1.5312,7.3572 -1.5312,13.25 0,5.8928 0.51476,10.201 1.5312,13.25 1.0165,3.0495 2.4207,4.8274 4.5312,6.0938 3.1659,1.8995 8.3331,2.4852 15.781,2.6562 h 2.22 c 3.324,0 6,-2.676 6,-6 v -32 c 0,-3.324 -2.676,-6 -6,-6 h -2.5312 z" style="opacity:0.5;fill:url(#linearGradient1053)"/>
       <path style="opacity:0.2;fill:none;stroke:url(#linearGradient1055);filter:url(#filter4289)" d="m 164.65,132 c -9.6651,0.1838 -16.434,0.78573 -20.582,2.6562 -2.8082,1.2663 -4.6766,3.0443 -6.0291,6.0938 -1.36,3.05 -2.04,7.36 -2.04,13.25 0,5.8928 0.68492,10.201 2.0374,13.25 1.3525,3.0495 3.2209,4.8274 6.0291,6.0938 4.2124,1.8995 11.088,2.4852 20.998,2.6562 h 2.9522 c 4.43,0 7.99,-2.68 7.99,-6 v -32 c 0,-3.324 -3.5606,-6 -7.9834,-6 h -3.368 z" clip-path="url(#clipPath4277)" transform="translate(0,-30)"/>
      </g>
      <path style="opacity:0.8;fill:url(#linearGradient1057)" d="m 170,102 c 3.32,0 6,2.68 6,6 v 32 c 0,3.32 -2.68,6 -6,6 h 1 c 3.32,0 6,-2.68 6,-6 v -32 c 0,-3.32 -2.68,-6 -6,-6 z"/>
      <path style="opacity:0.8;fill:url(#linearGradient1059)" d="m 190,102 c -3.324,0 -6,2.676 -6,6 v 32 c 0,3.324 2.676,6 6,6 h -1 c -3.324,0 -6,-2.676 -6,-6 v -32 c 0,-3.324 2.676,-6 6,-6 z"/>
      <path style="fill:url(#radialGradient1061)" d="m 180.05,122.09 a 2.19045,19.413443 0 1 1 -4.3809,0 2.19045,19.413443 0 1 1 4.3809,0 z" transform="matrix(0,0.69363,-1,0,298.28,-22.358)"/>
      <path style="opacity:0.3;fill:url(#linearGradient1063)" d="M 167.75,100.06 C 150.14,100.39 144,103 144,124 c 0,21.73 6.7,23.74 25.75,23.94 C 152.14,147.61 146,145 146,124 c 0,-21 6.14,-23.61 23.75,-23.94 -0.64,0.01 -1.39,-0.01 -2,0 z"/>
     </g>
    </g>
    <g transform="matrix(3.762,0,0,3.762,-7.918377,205.6093)">
     <path style="fill:#313a40" d="M 6,10 V 58 H 22 V 10 h -1 z"/>
     <rect style="fill:#5e8e34" width="12" height="4" x="8" y="52" rx="0" ry="0"/>
     <rect style="fill:#788e34" width="12" height="4" x="8" y="42" rx="0" ry="0"/>
     <rect style="fill:#ac9b3f" width="12" height="4" x="8" y="27" rx="0" ry="0"/>
     <rect style="fill:#ae6840" width="12" height="4" x="8" y="12" rx="0" ry="0"/>
     <rect style="fill:#6c8e34" width="12" height="4" x="8" y="-51" rx="0" ry="0" transform="scale(1,-1)"/>
     <rect style="fill:#adad3f" width="12" height="4" x="8" y="-36" rx="0" ry="0" transform="scale(1,-1)"/>
     <rect style="fill:#ae7e40" width="12" height="4" x="8" y="-21" rx="0" ry="0" transform="scale(1,-1)"/>
     <rect style="fill:#858e34" width="12" height="4" x="8" y="-41" rx="0" ry="0" transform="scale(1,-1)"/>
     <rect style="fill:#ad8f3f" width="12" height="4" x="8" y="-26" rx="0" ry="0" transform="scale(1,-1)"/>
     <g>
      <rect style="fill:#a6ff56" width="12" height="4" x="8" y="52" rx="0" ry="0"/>
     </g>
     <g transform="translate(1.6362e-8,-5)">
      <rect style="fill:#beff40" width="12" height="4" x="8" y="-56" rx="0" ry="0" transform="scale(1,-1)"/>
     </g>
     <g transform="translate(1.6362e-8,-10)">
      <rect style="fill:#cbff44" width="12" height="4" x="8" y="52" rx="0" ry="0"/>
     </g>
     <g transform="translate(1.6362e-8,-15)">
      <rect style="fill:#e7ff4e" width="12" height="4" x="8" y="-56" rx="0" ry="0" transform="scale(1,-1)"/>
     </g>
    </g>
    <g transform="rotate(-90,182.19992,271.6343)">
     <path style="fill:url(#linearGradient1081)" d="M 50.062014,284.83915 H 193.47402 c 17.442,0 21.318,0 21.318,9.19609 0,9.19611 -3.876,9.19611 -21.318,9.19611 H 50.062014 c -17.442002,0 -21.318002,0 -21.318002,-9.19611 0,-9.19609 3.876,-9.19609 21.318002,-9.19609 z"/>
     <path style="opacity:0.6;fill:#ffffff" d="m 28.744012,293.74787 c -9.28e-4,0.0957 0,0.18959 0,0.28737 0,9.19611 3.876,9.19611 21.318002,9.19611 H 193.47402 c 17.442,0 21.318,0 21.318,-9.19611 0,-0.0978 0,-0.19165 0,-0.28737 -0.0827,8.90584 -4.06146,8.90873 -21.318,8.90873 H 50.062014 c -17.256438,0 -21.235152,0 -21.318002,-8.90873 z"/>
     <path style="opacity:0.05" d="m 50.062014,284.83915 c -17.442002,0 -21.318002,0 -21.318002,9.19609 0,0.0979 -9.28e-4,0.19167 0,0.28739 0.08285,-8.90585 4.061564,-8.90873 21.318002,-8.90873 H 193.47402 c 17.25645,0 21.23517,0.002 21.318,8.90873 0,-0.0957 0,-0.18959 0,-0.28739 0,-9.19609 -3.876,-9.19609 -21.318,-9.19609 z"/>
     <path d="m 44.248013,289.4372 c -7.752,0 -11.628001,0 -11.628001,4.59804 0,4.59806 3.876001,4.59806 11.628001,4.59806 H 199.28803 c 7.752,0 11.62799,0 11.62799,-4.59806 0,-4.59804 -3.87599,-4.59804 -11.62799,-4.59804 z" style="opacity:0.6;fill:url(#linearGradient1083)"/>
     <path d="m 108,84 c -36,0 -44,0 -44,16 0,16 8,16 44,16 h 296 c 36,0 44,0 44,-16 0,-16 -8,-16 -44,-16 z M 90.375,93 C 92.125,92.984 94,93 96,93 h 320 c 16,0 24,-0.5 24,7.5 0,8 -8,7.5 -24,7.5 H 96 c -16,0 -24,0.5 -24,-7.5 0,-7 6.125,-7.3906 18.375,-7.5 z" clip-path="url(#clipPath4022-0)" transform="matrix(0.48450006,0,0,0.57475615,-2.2639917,236.55964)" style="opacity:0.4;filter:url(#filter4030-8)"/>
     <path style="fill:url(#linearGradient1085)" d="m 41.755507,289.4372 c -6.090335,0.0627 -9.135495,0.57475 -9.135495,4.59804 0,4.59806 3.977359,4.59806 11.932071,4.59806 h 71.870847 v -9.1961 H 44.552083 c -0.994339,0 -1.926529,-0.009 -2.796576,0 z"/>
     <path d="m 180.09,123.42 a 50.987,2.8836 0 1 1 -101.97,0 50.987,2.8836 0 1 1 101.97,0 z" transform="matrix(0.73910216,0,0,0.57475615,-22.153973,223.06664)" style="opacity:0.3;fill:#fff229;filter:url(#filter5228-9-4)"/>
     <g transform="matrix(1.2154924,0,0,1.2154924,-64.798639,143.03657)">
      <path d="m 176,101 h 8 c 24,0 32,0 32,24 0,24 -8,24 -32,24 h -8 c -24,0 -32,0 -32,-24 0,-24 8,-24 32,-24 z" style="opacity:0.4;filter:url(#filter4525)"/>
      <path d="m 176,100 h 8 c 24,0 32,0 32,24 0,24 -8,24 -32,24 h -8 c -24,0 -32,0 -32,-24 0,-24 8,-24 32,-24 z" clip-path="url(#clipPath4200)" style="opacity:0.5;stroke:#000000;stroke-width:4;filter:url(#filter4533)"/>
      <path style="fill:url(#linearGradient1087)" d="m 176,100 h 8 c 24,0 32,0 32,24 0,24 -8,24 -32,24 h -8 c -24,0 -32,0 -32,-24 0,-24 8,-24 32,-24 z"/>
      <g style="opacity:0.5">
       <path d="m 167.47,102 c -7.27,0.18 -12.35,0.79 -15.47,2.66 -2.11,1.26 -3.51,3.04 -4.53,6.09 -1.02,3.05 -1.53,7.36 -1.53,13.25 0,5.89 0.51,10.2 1.53,13.25 1.02,3.05 2.42,4.83 4.53,6.09 3.17,1.9 8.33,2.49 15.78,2.66 H 170 c 3.32,0 6,-2.68 6,-6 v -32 c 0,-3.32 -2.68,-6 -6,-6 z" style="opacity:0.5;fill:url(#linearGradient1089)"/>
       <path d="m 164.65,132 c -9.6651,0.1838 -16.434,0.78573 -20.582,2.6562 -2.8082,1.2663 -4.6766,3.0443 -6.0291,6.0938 -1.36,3.05 -2.04,7.36 -2.04,13.25 0,5.8928 0.68492,10.201 2.0374,13.25 1.3525,3.0495 3.2209,4.8274 6.0291,6.0938 4.2124,1.8995 11.088,2.4852 20.998,2.6562 h 2.9522 c 4.43,0 7.99,-2.68 7.99,-6 v -32 c 0,-3.324 -3.5606,-6 -7.9834,-6 h -3.368 z" clip-path="url(#clipPath4277)" transform="translate(0,-30)" style="opacity:0.2;fill:none;stroke:url(#linearGradient1091);filter:url(#filter4289)"/>
      </g>
      <path d="m 176,100 c -24,0 -32,0 -32,24 0,24 8,24 32,24 h 8 c 24,0 32,0 32,-24 0,-24 -8,-24 -32,-24 z m -4.31,0.97 c 1.37,-0.01 2.81,0 4.31,0 h 8 c 12,0 19.89,0.11 24.5,2.87 2.3,1.39 3.87,3.39 4.94,6.6 1.07,3.21 1.59,7.61 1.59,13.56 0,5.95 -0.52,10.35 -1.59,13.56 -1.07,3.21 -2.64,5.21 -4.94,6.6 -4.61,2.76 -12.5,2.87 -24.5,2.87 h -8 c -12,0 -19.89,-0.11 -24.5,-2.87 -2.3,-1.39 -3.87,-3.39 -4.94,-6.6 -1.07,-3.21 -1.59,-7.61 -1.59,-13.56 0,-5.95 0.52,-10.35 1.59,-13.56 1.07,-3.21 2.64,-5.21 4.94,-6.6 4.03,-2.41 10.57,-2.81 20.19,-2.87 z" style="fill:url(#linearGradient1093)"/>
      <g transform="matrix(-1,0,0,1,359.94,0)" style="opacity:0.8">
       <path style="opacity:0.5;fill:url(#linearGradient1095)" d="m 167.47,102 c -7.2639,0.1838 -12.351,0.78573 -15.469,2.6562 -2.1106,1.2663 -3.5148,3.0443 -4.5312,6.0938 -1.0165,3.0495 -1.5312,7.3572 -1.5312,13.25 0,5.8928 0.51476,10.201 1.5312,13.25 1.0165,3.0495 2.4207,4.8274 4.5312,6.0938 3.1659,1.8995 8.3331,2.4852 15.781,2.6562 h 2.22 c 3.324,0 6,-2.676 6,-6 v -32 c 0,-3.324 -2.676,-6 -6,-6 h -2.5312 z"/>
       <path d="m 164.65,132 c -9.6651,0.1838 -16.434,0.78573 -20.582,2.6562 -2.8082,1.2663 -4.6766,3.0443 -6.0291,6.0938 -1.36,3.05 -2.04,7.36 -2.04,13.25 0,5.8928 0.68492,10.201 2.0374,13.25 1.3525,3.0495 3.2209,4.8274 6.0291,6.0938 4.2124,1.8995 11.088,2.4852 20.998,2.6562 h 2.9522 c 4.43,0 7.99,-2.68 7.99,-6 v -32 c 0,-3.324 -3.5606,-6 -7.9834,-6 h -3.368 z" clip-path="url(#clipPath4277)" transform="translate(0,-30)" style="opacity:0.2;fill:none;stroke:url(#linearGradient1097);filter:url(#filter4289)"/>
      </g>
      <path d="m 170,102 c 3.32,0 6,2.68 6,6 v 32 c 0,3.32 -2.68,6 -6,6 h 1 c 3.32,0 6,-2.68 6,-6 v -32 c 0,-3.32 -2.68,-6 -6,-6 z" style="opacity:0.8;fill:url(#linearGradient1099)"/>
      <path d="m 190,102 c -3.324,0 -6,2.676 -6,6 v 32 c 0,3.324 2.676,6 6,6 h -1 c -3.324,0 -6,-2.676 -6,-6 v -32 c 0,-3.324 2.676,-6 6,-6 z" style="opacity:0.8;fill:url(#linearGradient1101)"/>
      <path d="m 180.05,122.09 a 2.19045,19.413443 0 1 1 -4.3809,0 2.19045,19.413443 0 1 1 4.3809,0 z" transform="matrix(0,0.69363,-1,0,298.28,-22.358)" style="fill:url(#radialGradient1103)"/>
      <path d="M 167.75,100.06 C 150.14,100.39 144,103 144,124 c 0,21.73 6.7,23.74 25.75,23.94 C 152.14,147.61 146,145 146,124 c 0,-21 6.14,-23.61 23.75,-23.94 -0.64,0.01 -1.39,-0.01 -2,0 z" style="opacity:0.3;fill:url(#linearGradient1105)"/>
     </g>
    </g>
   </g>
  </g>
 </g>
 <g transform="translate(0,-796.36)" style="display:none;opacity:0.49550003">
  <g transform="matrix(3.5556,0,0,3.5522,0,-2685.9)">
   <g transform="translate(0,10)">
    <path d="m 46.703,908.36 h 50.595 c 40.862,0 46.702,5.84 46.702,46.7 v 40.595 c 0,40.865 -5.8378,46.702 -46.703,46.702 H 46.702 C 5.838,1042.357 0,1036.457 0,995.617 v -40.6 c 0,-40.86 5.8378,-46.7 46.703,-46.7 z"/>
   </g>
  </g>
 </g>
</svg>
