<svg xmlns="http://www.w3.org/2000/svg" xmlns:xlink="http://www.w3.org/1999/xlink" style="enable-background:new" width="256" height="256" version="1.0">
 <defs>
  <filter id="filter925" width="1.046" height="1.05" x="-.02" y="-.03" style="color-interpolation-filters:sRGB">
   <feGaussianBlur stdDeviation="2.32"/>
  </filter>
  <filter id="filter931" width="1.023" height="1.025" x="-.01" y="-.01" style="color-interpolation-filters:sRGB">
   <feGaussianBlur stdDeviation="1.16"/>
  </filter>
  <linearGradient id="linearGradient1108" x1="296" x2="296" y1="-212" y2="236" gradientUnits="userSpaceOnUse" xlink:href="#linearGradient1013"/>
  <linearGradient id="linearGradient1013">
   <stop style="stop-color:#ffffff" offset="0"/>
   <stop offset=".125" style="stop-color:#ffffff;stop-opacity:0.09803922"/>
   <stop offset=".925" style="stop-color:#000000;stop-opacity:0.09803922"/>
   <stop style="stop-color:#000000;stop-opacity:0.49803922" offset="1"/>
  </linearGradient>
  <clipPath id="clipPath1082-3" clipPathUnits="userSpaceOnUse">
   <path style="fill:#8c59d9" d="M 361.9375,-212 C 507.2348,-212 528,-191.28677 528,-46.125 V 70.125 C 528,215.28618 507.2348,236 361.9375,236 H 214.0625 C 68.7652,236 48,215.28618 48,70.125 V -46.125 C 48,-191.28677 68.7652,-212 214.0625,-212 Z"/>
  </clipPath>
  <linearGradient id="linearGradient994">
   <stop offset="0" style="stop-color:#f6d32d"/>
   <stop offset="1" style="stop-color:#e66100"/>
  </linearGradient>
  <linearGradient id="linearGradient1058">
   <stop style="stop-color:#ffbe6f" offset="0"/>
   <stop style="stop-color:#f9f06b;stop-opacity:0" offset="1"/>
  </linearGradient>
  <radialGradient id="radialGradient993" cx="-25.595" cy="302.05" r="75" fx="-25.595" fy="302.05" gradientTransform="matrix(3.8868621,-0.00421193,0.00688981,4.1055536,225.22476,-941.2208)" gradientUnits="userSpaceOnUse" xlink:href="#linearGradient994"/>
  <radialGradient id="radialGradient997" cx="-25.595" cy="302.05" r="75" fx="-25.595" fy="302.05" gradientTransform="matrix(3.8868621,-0.00421193,0.00688981,4.1055536,225.22476,-941.2208)" gradientUnits="userSpaceOnUse" xlink:href="#linearGradient1058"/>
 </defs>
 <g transform="translate(0,-44)">
  <g>
   <g>
    <path style="opacity:0.2;filter:url(#filter925)" d="m 162.53675,62.431991 c 72.64865,0 83.03125,10.356615 83.03125,82.937499 v 58.125 c 0,72.58059 -10.3826,82.9375 -83.03125,82.9375 h -73.9375 c -72.64865,0 -83.0312501,-10.35691 -83.0312501,-82.9375 v -58.125 c 0,-72.580884 10.3826001,-82.937499 83.0312501,-82.937499 z"/>
    <path d="m 162.53675,61.431991 c 72.64865,0 83.03125,10.356615 83.03125,82.937499 v 58.125 c 0,72.58059 -10.3826,82.9375 -83.03125,82.9375 h -73.9375 c -72.64865,0 -83.0312501,-10.35691 -83.0312501,-82.9375 v -58.125 c 0,-72.580884 10.3826001,-82.937499 83.0312501,-82.937499 z" style="opacity:0.1;filter:url(#filter931)"/>
   </g>
   <g>
    <path d="m 162.53675,60.431991 c 72.64865,0 83.03125,10.356615 83.03125,82.937499 v 58.125 c 0,72.58059 -10.3826,82.9375 -83.03125,82.9375 h -73.9375 c -72.64865,0 -83.0312501,-10.35691 -83.0312501,-82.9375 v -58.125 c 0,-72.580884 10.3826001,-82.937499 83.0312501,-82.937499 z" style="fill:#241f31"/>
    <circle cx="204.203" cy="95.258" r="13.846" style="fill:#ed333b"/>
    <rect width="46.154" height="9.231" x="99.2" y="90.64" style="fill:#deddda"/>
    <path style="fill:url(#radialGradient993)" d="m 156.3753,117.76533 c 60.54053,0 69.1927,6.93525 69.1927,55.53851 v 38.92298 c 0,48.60308 -8.65217,55.53851 -69.1927,55.53851 H 94.760705 C 34.220162,267.76533 25.568,260.8299 25.568,212.22682 v -38.92298 c 0,-48.60326 8.652162,-55.53851 69.192705,-55.53851 z"/>
    <path d="m 156.3753,117.76533 c 60.54053,0 69.1927,6.93525 69.1927,55.53851 v 38.92298 c 0,48.60308 -8.65217,55.53851 -69.1927,55.53851 H 94.760705 C 34.220162,267.76533 25.568,260.8299 25.568,212.22682 v -38.92298 c 0,-48.60326 8.652162,-55.53851 69.192705,-55.53851 z" style="fill:url(#radialGradient997)"/>
    <g transform="translate(1.4485198,12.218288)">
     <g transform="matrix(2.3076923,0,0,2.3076923,-23.572827,-373.29911)" style="enable-background:new">
      <path d="M 34,232 V 222 H 46" style="fill:none;stroke:#ffffff;stroke-width:4;stroke-linecap:round"/>
      <path style="fill:none;stroke:#ffffff;stroke-width:4;stroke-linecap:round" d="M 94,232 V 222 H 81.999991"/>
      <path d="m 94,248 v 10 H 81.999991" style="fill:none;stroke:#ffffff;stroke-width:4;stroke-linecap:round"/>
      <path style="fill:none;stroke:#ffffff;stroke-width:4;stroke-linecap:round" d="m 34,248 v 10 h 12"/>
     </g>
    </g>
   </g>
   <g>
    <path style="opacity:0.4;fill:none;stroke:url(#linearGradient1108);stroke-width:8;stroke-linecap:round;stroke-linejoin:round" d="m 361.9375,-212 c 145.2973,0 166.0625,20.71323 166.0625,165.875 v 116.25 c 0,145.16118 -20.7652,165.875 -166.0625,165.875 h -147.875 c -145.2973,0 -166.0625,-20.71382 -166.0625,-165.875 v -116.25 c 0,-145.16177 20.7652,-165.875 166.0625,-165.875 z" clip-path="url(#clipPath1082-3)" transform="matrix(0.5,0,0,0.5,-18.432,166.43199)"/>
   </g>
  </g>
 </g>
</svg>
