<svg xmlns="http://www.w3.org/2000/svg" xmlns:xlink="http://www.w3.org/1999/xlink" width="256" height="256" version="1.1" viewBox="0 0 67.73 67.73">
 <defs>
  <linearGradient id="linearGradient1108" x1="296" x2="296" y1="-212" y2="202.4" gradientUnits="userSpaceOnUse" xlink:href="#linearGradient1013"/>
  <linearGradient id="linearGradient1013">
   <stop offset="0" style="stop-color:#ffffff"/>
   <stop style="stop-color:#ffffff;stop-opacity:0.09803922" offset=".135"/>
   <stop style="stop-color:#ffffff;stop-opacity:0" offset="1"/>
  </linearGradient>
  <clipPath id="clipPath1082-3-3675" clipPathUnits="userSpaceOnUse">
   <path d="M 361.9375,-212 C 507.2348,-212 528,-191.28677 528,-46.125 V 70.125 C 528,215.28618 507.2348,236 361.9375,236 H 214.0625 C 68.7652,236 48,215.28618 48,70.125 V -46.125 C 48,-191.28677 68.7652,-212 214.0625,-212 Z" style="fill:#8c59d9"/>
  </clipPath>
  <filter style="color-interpolation-filters:sRGB" id="filter910" width="1.046" height="1.05" x="-.02" y="-.03">
   <feGaussianBlur stdDeviation="2.32"/>
  </filter>
  <filter style="color-interpolation-filters:sRGB" id="filter4569" width="1.023" height="1.025" x="-.01" y="-.01">
   <feGaussianBlur stdDeviation="1.16"/>
  </filter>
 </defs>
 <g transform="translate(0,-229.26666)">
  <g style="enable-background:new" transform="matrix(0.12974173,0,0,0.12974173,3.8344818,227.85345)">
   <path d="m 301.90773,44.402363 c 148.15296,0 169.32628,21.120327 169.32628,169.135097 v 118.53478 c 0,148.01417 -21.17332,169.1351 -169.32628,169.1351 H 151.12641 c -148.1529701,0 -169.32628,-21.12093 -169.32628,-169.1351 V 213.53746 c 0,-148.01477 21.1733099,-169.135097 169.32628,-169.135097 z" style="opacity:0.2;fill:none;stroke:#000000;stroke-width:8.15723133;stroke-linecap:round;stroke-linejoin:round"/>
   <path d="m 162.53675,3.5680001 c 72.64865,0 83.03125,10.3566149 83.03125,82.9375049 v 58.125005 c 0,72.58059 -10.3826,82.9375 -83.03125,82.9375 H 88.599254 C 15.9506,227.56801 5.568,217.2111 5.568,144.63051 V 86.505505 c 0,-72.58089 10.3826,-82.9375049 83.031254,-82.9375049 z" transform="matrix(2.0393079,0,0,2.0393079,-29.55473,37.126102)" style="opacity:0.1;filter:url(#filter4569)"/>
   <path style="opacity:0.2;filter:url(#filter910)" d="m 162.53675,5.5680001 c 72.64865,0 83.03125,10.3566149 83.03125,82.9375049 v 58.125005 c 0,72.58059 -10.3826,82.9375 -83.03125,82.9375 H 88.599254 C 15.9506,229.56801 5.568,219.2111 5.568,146.63051 V 88.505505 c 0,-72.58089 10.3826,-82.9375049 83.031254,-82.9375049 z" transform="matrix(2.0393079,0,0,2.0393079,-29.55473,37.126102)"/>
   <path style="fill:#64b515" d="m 302.68452,44.402363 c 148.15296,0 169.32628,21.120327 169.32628,169.135097 v 118.53478 c 0,148.01417 -21.17332,169.1351 -169.32628,169.1351 H 151.9032 c -148.1529676,0 -169.326278,-21.12093 -169.326278,-169.1351 V 213.53746 c 0,-148.01477 21.1733104,-169.135097 169.326278,-169.135097 z"/>
   <path style="fill:#bbc91b;fill-rule:evenodd" d="M 245.79883 163.72656 C 245.82168 161.53455 245.94922 159.8113 245.94922 157.49414 L 245.94922 99.369141 C 245.94922 90.29653 245.78712 82.196203 245.36133 74.966797 C 245.14843 71.352094 244.86906 67.955563 244.51172 64.763672 C 244.15437 61.571781 243.71853 58.585421 243.19141 55.791016 C 242.66428 52.996611 242.04646 50.394901 241.32422 47.972656 C 240.60198 45.550411 239.77472 43.307833 238.83203 41.232422 C 237.88934 39.157011 236.83105 37.248043 235.64258 35.494141 C 234.4541 33.740238 233.13537 32.141314 231.67578 30.683594 C 230.21619 29.225873 228.61542 27.909521 226.85938 26.722656 C 225.10333 25.535792 223.19306 24.478444 221.11523 23.537109 C 219.03741 22.595775 216.79213 21.769958 214.36719 21.048828 C 211.94224 20.327698 209.33646 19.709846 206.53906 19.183594 C 203.74167 18.657342 200.75182 18.221935 197.55664 17.865234 C 194.36146 17.508534 190.96205 17.232005 187.34375 17.019531 C 180.10715 16.594583 171.99905 16.431641 162.91797 16.431641 L 139.8125 16.431641 L 109.51367 121.44336 L 245.79883 163.72656 z" transform="matrix(2.0393079,0,0,2.0393079,-29.55473,10.892486)"/>
   <path style="fill:#3e7952;fill-rule:evenodd" d="M 72.773438 240.04297 C 77.971866 240.21505 82.954977 240.43164 88.980469 240.43164 L 162.91797 240.43164 C 171.99905 240.43164 180.10715 240.27066 187.34375 239.8457 C 190.96205 239.63323 194.36146 239.35475 197.55664 238.99805 C 200.75182 238.64134 203.74167 238.20595 206.53906 237.67969 C 209.33646 237.15343 211.94224 236.53559 214.36719 235.81445 C 216.79213 235.09332 219.03741 234.26947 221.11523 233.32812 C 223.19306 232.38678 225.10333 231.3275 226.85938 230.14062 C 228.61542 228.95375 230.21619 227.63937 231.67578 226.18164 C 233.13537 224.72392 234.4541 223.12305 235.64258 221.36914 C 236.83105 219.61523 237.88934 217.70822 238.83203 215.63281 C 239.77472 213.5574 240.60198 211.31482 241.32422 208.89258 C 242.04646 206.47033 242.66428 203.86862 243.19141 201.07422 C 243.71853 198.27982 244.15437 195.29149 244.51172 192.09961 C 244.86906 188.90772 245.14843 185.51118 245.36133 181.89648 C 245.67837 176.5135 245.7322 170.11711 245.79883 163.72656 L 109.51367 121.44336 L 72.773438 240.04297 z" transform="matrix(2.0393079,0,0,2.0393079,-29.55473,10.892486)"/>
   <path style="fill:#3a76a2;fill-rule:evenodd" d="M 139.83594 16.431641 L 88.980469 16.431641 C 79.899387 16.431641 71.79129 16.594583 64.554688 17.019531 C 60.936386 17.232005 57.535026 17.508534 54.339844 17.865234 C 51.144662 18.221935 48.154818 18.657342 45.357422 19.183594 C 42.560026 19.709846 39.956194 20.327698 37.53125 21.048828 C 35.106306 21.769958 32.861029 22.595775 30.783203 23.537109 C 28.705377 24.478444 26.795104 25.535792 25.039062 26.722656 C 23.283021 27.909521 21.680294 29.225873 20.220703 30.683594 C 18.761112 32.141314 17.444334 33.740238 16.255859 35.494141 C 15.067385 37.248043 14.007144 39.157011 13.064453 41.232422 C 12.121762 43.307833 11.29646 45.550411 10.574219 47.972656 C 9.8519771 50.394901 9.2341571 52.996611 8.7070312 55.791016 C 8.1799054 58.585421 7.7440626 61.571781 7.3867188 64.763672 C 7.0293749 67.955563 6.7500049 71.352094 6.5371094 74.966797 C 6.1113184 82.196203 5.9492188 90.29653 5.9492188 99.369141 L 5.9492188 157.49414 C 5.9492188 166.56671 6.1113184 174.6671 6.5371094 181.89648 C 6.7500049 185.51118 7.0293749 188.90772 7.3867188 192.09961 C 7.7440626 195.29149 8.1799054 198.27982 8.7070312 201.07422 C 9.2341571 203.86862 9.8519771 206.47033 10.574219 208.89258 C 11.29646 211.31482 12.121762 213.5574 13.064453 215.63281 C 14.007144 217.70822 15.067385 219.61523 16.255859 221.36914 C 17.444334 223.12305 18.761112 224.72392 20.220703 226.18164 C 21.680294 227.63937 23.283021 228.95375 25.039062 230.14062 C 26.795104 231.3275 28.705377 232.38678 30.783203 233.32812 C 32.861029 234.26947 35.106306 235.09332 37.53125 235.81445 C 39.956194 236.53559 42.560026 237.15343 45.357422 237.67969 C 48.154818 238.20595 51.144662 238.64134 54.339844 238.99805 C 57.535026 239.35475 60.936386 239.63323 64.554688 239.8457 C 68.716926 240.09012 73.845338 240.09399 78.603516 240.18359 L 139.83594 16.431641 z" transform="matrix(2.0393079,0,0,2.0393079,-29.55473,10.892486)"/>
   <path style="fill:#9f3f32" d="M 6.0195312 96.419922 C 6.0146132 97.488189 5.9492188 98.27265 5.9492188 99.369141 L 5.9492188 122.41406 C 8.2519451 125.24697 31.941432 152.59058 93.197266 148.41406 L 125.64062 42.787109 C 78.466497 100.00961 11.384478 96.773682 6.0195312 96.419922 z" transform="matrix(2.0393079,0,0,2.0393079,-29.55473,10.892486)"/>
   <path style="fill:#4d2f2b" d="m 155.86112,189.16965 c -9.54392,0.0515 -23.74143,16.3617 -13.06035,24.30039 11.70283,8.69825 8.5669,18.10886 2.70791,20.56292 -5.85904,2.45432 -14.76969,0.25946 -15.53219,-14.39671 -0.72592,-13.94147 -15.47941,-22.29607 -29.38328,-1.44892 -0.858797,2.2077 -1.500579,4.43899 -1.805113,6.6709 -2.747128,20.13585 16.562733,39.84429 36.315583,42.6447 19.75294,2.80055 43.06947,-14.7635 45.81664,-34.89944 2.38792,-17.50269 -9.05561,-36.83003 -25.05894,-43.43375 z m -50.75001,20.6575 c -0.52032,0.74646 -0.8638,1.53614 -1.3316,2.29996 z"/>
   <path style="fill:#dee3e3" d="M 226.66441,98.150239 C 162.13486,167.2018 91.62367,191.06306 37.23547,204.06167 c 6.065996,7.29521 16.380668,16.15007 31.171526,16.15007 25.074352,0 37.611524,-12.78026 37.611524,-12.78026 0,0 32.76609,8.11779 75.22311,-25.56051 14.62245,-11.59911 24.87683,-25.70978 32.34689,-39.28933 z"/>
   <path style="fill:#e05e4c" d="m 180.75191,254.10943 c -9.26178,3.7865 -20.55328,8.77851 -37.12181,17.22338 -27.97456,14.25852 -51.127124,22.54379 -66.94659,35.88229 25.8437,10.1686 53.04018,12.54347 83.81789,6.3402 z"/>
   <path style="fill:#ffc169" d="M 141.77344 240.43164 L 162.91797 240.43164 C 171.99905 240.43164 180.10715 240.27066 187.34375 239.8457 C 190.96205 239.63323 194.36146 239.35475 197.55664 238.99805 C 200.75182 238.64134 203.74167 238.20595 206.53906 237.67969 C 207.83936 237.43507 208.95937 237.09776 210.17773 236.8125 C 213.95833 227.89314 220.69189 217.3358 229.16797 209.52344 C 230.95065 207.88033 242.82591 198.30961 243.74414 196.36523 C 244.05977 195.69689 244.20481 194.91076 244.21484 194.11719 C 244.2187 194.08679 244.22467 194.05973 244.22852 194.0293 C 244.22366 191.57202 242.79442 189.03002 240.14258 189.35156 C 238.96173 189.49471 237.42128 190.17285 235.42383 191.61523 C 231.8091 194.22531 221.17457 199.626 216.56055 202.91406 C 221.38383 195.69692 230.93873 184.39466 233.49023 180.61133 C 236.16318 176.64808 241.09636 168.55927 241.9082 163.53711 L 233.86328 160.50195 C 231.12294 162.34376 227.91038 165.75273 223.83594 170.77148 C 215.84576 180.61342 206.19459 195.20626 203.53125 193.16992 C 200.8678 191.13367 211.85383 175.86348 216.84766 166.02148 C 218.62166 162.52523 220.34235 159.13448 221.77148 155.91211 L 208.62305 150.94141 C 205.88766 154.7402 203.52992 158.89047 202.19922 161.60352 C 198.86997 168.39112 190.21115 188.08057 187.21484 187.0625 C 184.21849 186.04436 189.2093 169.07299 194.20312 159.57031 C 196.26262 155.65135 198.28141 151.47366 199.77344 147.57617 L 187.10547 142.77734 C 184.37462 146.64588 181.48609 151.76264 178.55664 158.21289 C 170.23354 176.53943 165.23774 196.22362 158.91211 195.54492 C 152.58655 194.866 147.80398 188.55906 144.29883 184.46875 C 140.79367 180.37848 136.41395 172.30341 132.08594 169.92773 C 127.75792 167.55205 126.76801 168.22901 124.4375 168.56836 C 122.10702 168.90804 120.93368 168.13945 119.76758 171.28516 C 118.60158 174.43066 124.65958 181.41606 126.32422 187.18555 C 127.62706 191.70111 130.72814 202.71565 131.87109 208.98438 L 141.77344 240.43164 z" transform="matrix(2.0393079,0,0,2.0393079,-29.55473,10.892486)"/>
   <path style="fill:#6c5548" d="M 235.83984 35.849609 C 235.76724 35.739814 235.71617 35.602749 235.64258 35.494141 C 234.4541 33.740238 233.13537 32.141314 231.67578 30.683594 C 230.21619 29.225873 228.61542 27.909521 226.85938 26.722656 C 225.35692 25.707185 223.68199 24.830489 221.94531 23.996094 C 205.54043 24.462316 183.62747 26.489131 163.84375 35.542969 C 152.94861 40.529014 142.48134 53.012547 147.82227 58.457031 C 153.16319 63.901579 163.93858 55.763289 179.86719 50.039062 C 199.67702 42.919982 220.82426 38.432519 235.83984 35.849609 z" transform="matrix(2.0393079,0,0,2.0393079,-29.55473,10.892486)"/>
   <path style="fill:#ffffff" d="m 365.03917,114.90238 c -38.20601,0 -79.91806,54.7713 -79.91806,94.65737 0,22.4373 49.03253,28.74312 85.97251,33.65092 37.90052,5.03532 75.21981,-27.41585 75.21981,-67.30182 0,-2.91747 -0.28455,-5.70331 -0.7264,-8.41903 0,0 0,-0.027 0,-0.027 -0.022,-0.12954 -0.0518,-0.25043 -0.0733,-0.37949 -8.9e-4,-0.005 -0.022,-0.0226 -0.0263,-0.027 -5.38539,-31.33623 -38.96399,-48.86343 -71.73253,-51.55091 -0.0307,-0.003 -0.0645,-0.0226 -0.0966,-0.0226 -2.88066,-0.23192 -5.77288,-0.58032 -8.62061,-0.58032 z"/>
   <path style="fill:#583268" d="m 374.84731,115.65717 c -10.93774,6.94063 -18.06357,19.46577 -18.08518,33.57218 -0.005,21.68943 16.03311,39.28657 35.82055,39.28734 19.78746,-7.7e-4 35.82632,-17.59791 35.82052,-39.28734 -0.008,-2.85542 -0.51171,-8.7337 -1.08442,-12.90408 -13.72681,-11.89446 -33.12604,-18.88902 -52.47147,-20.6681 z"/>
   <path style="fill:#54d883" d="M 88.882812 16.433594 C 79.845781 16.434884 71.76236 16.596282 64.554688 17.019531 C 60.936386 17.232005 57.535026 17.508534 54.339844 17.865234 C 51.144662 18.221935 48.154818 18.657342 45.357422 19.183594 C 42.560026 19.709846 39.956194 20.327698 37.53125 21.048828 C 36.999351 21.207004 36.565504 21.425455 36.050781 21.59375 C 37.732544 32.615972 40.853754 44.377491 44.0625 50.042969 C 51.7019 63.531437 62.029833 62.726963 75.261719 54.939453 C 88.492443 47.15187 98.553527 32.898614 90.914062 19.410156 C 90.403533 18.508777 89.613975 17.455082 88.882812 16.433594 z" transform="matrix(2.0393079,0,0,2.0393079,-29.55473,10.892486)"/>
   <path style="fill:#ffffff" d="M 142.26367 16.431641 L 129.53711 16.431641 L 70.771484 239.99414 C 74.751974 240.14824 78.944103 240.25796 83.419922 240.29883 L 142.26367 16.431641 z" transform="matrix(2.0393079,0,0,2.0393079,-29.55473,10.892486)"/>
   <path style="fill:#ffffff" d="M 245.75977 165.36133 C 245.79688 162.63509 245.94922 160.41909 245.94922 157.49414 L 245.94922 152.43945 L 109.51367 115.17578 L 106.33203 127.28125 L 245.75977 165.36133 z" transform="matrix(2.0393079,0,0,2.0393079,-29.55473,10.892486)"/>
   <path style="fill:#ffffff" d="M 142.77344 16.431641 L 124.5918 16.431641 L 66.318359 239.88867 C 71.770248 240.17558 77.947555 240.27473 84.404297 240.32227 L 142.77344 16.431641 z" transform="matrix(2.0393079,0,0,2.0393079,-29.55473,10.892486)"/>
   <path style="fill:#ffffff" d="M 245.70312 167.67969 C 245.76702 164.22419 245.94922 161.28104 245.94922 157.49414 L 245.94922 149.0625 L 110.58203 111.79492 L 106.03516 129.22656 L 245.70312 167.67969 z" transform="matrix(2.0393079,0,0,2.0393079,-29.55473,10.892486)"/>
   <path d="M 361.9375,-212 C 507.2348,-212 528,-191.28677 528,-46.125 V 70.125 C 528,215.28618 507.2348,236 361.9375,236 H 214.0625 C 68.7652,236 48,215.28618 48,70.125 V -46.125 C 48,-191.28677 68.7652,-212 214.0625,-212 Z" clip-path="url(#clipPath1082-3-3675)" transform="matrix(1.0196539,0,0,1.0196539,-67.14326,260.569)" style="opacity:0.5;fill:none;stroke:url(#linearGradient1108);stroke-width:8;stroke-linecap:round;stroke-linejoin:round"/>
  </g>
 </g>
</svg>
