<svg xmlns="http://www.w3.org/2000/svg" xmlns:xlink="http://www.w3.org/1999/xlink" width="256" height="256" version="1.1" viewBox="0 0 67.73 67.73">
 <defs>
  <linearGradient id="linearGradient2582">
   <stop style="stop-color:#e2e9ee;stop-opacity:0.99607843" offset="0"/>
   <stop style="stop-color:#5380a3;stop-opacity:0.99607843" offset="1"/>
  </linearGradient>
  <linearGradient id="linearGradient1108" x1="296" x2="296" y1="-212" y2="202.4" gradientUnits="userSpaceOnUse" xlink:href="#linearGradient1013"/>
  <linearGradient id="linearGradient1013">
   <stop offset="0" style="stop-color:#ffffff"/>
   <stop style="stop-color:#ffffff;stop-opacity:0.09803922" offset=".135"/>
   <stop style="stop-color:#ffffff;stop-opacity:0" offset="1"/>
  </linearGradient>
  <clipPath id="clipPath1082-3-3675" clipPathUnits="userSpaceOnUse">
   <path d="M 361.9375,-212 C 507.2348,-212 528,-191.28677 528,-46.125 V 70.125 C 528,215.28618 507.2348,236 361.9375,236 H 214.0625 C 68.7652,236 48,215.28618 48,70.125 V -46.125 C 48,-191.28677 68.7652,-212 214.0625,-212 Z" style="fill:#8c59d9"/>
  </clipPath>
  <filter style="color-interpolation-filters:sRGB" id="filter910" width="1.046" height="1.05" x="-.02" y="-.03">
   <feGaussianBlur stdDeviation="2.32"/>
  </filter>
  <filter style="color-interpolation-filters:sRGB" id="filter4569" width="1.023" height="1.025" x="-.01" y="-.01">
   <feGaussianBlur stdDeviation="1.16"/>
  </filter>
  <filter style="color-interpolation-filters:sRGB" id="filter2574" width="1.119" height="1.081" x="-.06" y="-.04">
   <feGaussianBlur stdDeviation="5.92"/>
  </filter>
  <linearGradient id="linearGradient2584" x1="118.322" x2="291.279" y1="112.504" y2="442.096" gradientUnits="userSpaceOnUse" xlink:href="#linearGradient2582"/>
 </defs>
 <g transform="translate(0,-229.26666)">
  <g style="enable-background:new" transform="matrix(0.12974173,0,0,0.12974173,3.8344818,227.85345)">
   <path d="m 301.90773,44.402363 c 148.15296,0 169.32628,21.120327 169.32628,169.135097 v 118.53478 c 0,148.01417 -21.17332,169.1351 -169.32628,169.1351 H 151.12641 c -148.1529701,0 -169.32628,-21.12093 -169.32628,-169.1351 V 213.53746 c 0,-148.01477 21.1733099,-169.135097 169.32628,-169.135097 z" style="opacity:0.2;fill:none;stroke:#000000;stroke-width:8.15723133;stroke-linecap:round;stroke-linejoin:round"/>
   <path d="m 162.53675,3.5680001 c 72.64865,0 83.03125,10.3566149 83.03125,82.9375049 v 58.125005 c 0,72.58059 -10.3826,82.9375 -83.03125,82.9375 H 88.599254 C 15.9506,227.56801 5.568,217.2111 5.568,144.63051 V 86.505505 c 0,-72.58089 10.3826,-82.9375049 83.031254,-82.9375049 z" transform="matrix(2.0393079,0,0,2.0393079,-29.55473,37.126102)" style="opacity:0.1;filter:url(#filter4569)"/>
   <path style="opacity:0.2;filter:url(#filter910)" d="m 162.53675,5.5680001 c 72.64865,0 83.03125,10.3566149 83.03125,82.9375049 v 58.125005 c 0,72.58059 -10.3826,82.9375 -83.03125,82.9375 H 88.599254 C 15.9506,229.56801 5.568,219.2111 5.568,146.63051 V 88.505505 c 0,-72.58089 10.3826,-82.9375049 83.031254,-82.9375049 z" transform="matrix(2.0393079,0,0,2.0393079,-29.55473,37.126102)"/>
   <path style="fill:#00879d" d="m 301.90773,44.402363 c 148.15296,0 169.32628,21.120327 169.32628,169.135097 v 118.53478 c 0,148.01417 -21.17332,169.1351 -169.32628,169.1351 H 151.12641 c -148.1529701,0 -169.32628,-21.12093 -169.32628,-169.1351 V 213.53746 c 0,-148.01477 21.1733099,-169.135097 169.32628,-169.135097 z"/>
   <path d="M 361.9375,-212 C 507.2348,-212 528,-191.28677 528,-46.125 V 70.125 C 528,215.28618 507.2348,236 361.9375,236 H 214.0625 C 68.7652,236 48,215.28618 48,70.125 V -46.125 C 48,-191.28677 68.7652,-212 214.0625,-212 Z" clip-path="url(#clipPath1082-3-3675)" transform="matrix(1.0196539,0,0,1.0196539,-67.14326,260.569)" style="opacity:0.5;fill:none;stroke:url(#linearGradient1108);stroke-width:8;stroke-linecap:round;stroke-linejoin:round"/>
   <g transform="translate(-0.55667,10.10078)">
    <rect width="70.479" height="70.479" x="64.97" y="65.36" style="fill:#3a48a8"/>
    <rect style="fill:#878186" width="70.479" height="70.479" x="276.41" y="65.36"/>
    <rect style="fill:#85d33a" width="70.479" height="70.479" x="276.41" y="135.84"/>
    <rect style="fill:#ffba52" width="70.479" height="70.479" x="346.89" y="319.09"/>
    <rect width="70.479" height="70.479" x="276.41" y="389.57" style="fill:#878186"/>
    <rect style="fill:#85d33a" width="70.479" height="70.479" x="107.26" y="347.28"/>
    <rect width="70.479" height="70.479" x="36.78" y="276.8" style="fill:#cb383c"/>
    <rect width="70.479" height="70.479" x="346.89" y="135.84" style="fill:#3a48a8"/>
    <path style="filter:url(#filter2574);opacity:0.5" d="m 143.60151,96.827624 c 31.66806,-5.892663 71.53152,-3.868837 104.80713,6.374846 21.52239,5.47843 36.41578,16.8474 49.85482,32.15444 21.62925,26.71593 34.65976,61.15341 34.10216,92.30929 2.78264,41.32748 -8.10439,84.21128 -30.38311,110.09143 -10.13551,11.50715 -32.01422,29.37719 -51.78906,47.65816 0,0 -5.24407,6.28157 -4.96268,10.02067 0.42119,5.59807 3.68432,9.13021 6.97251,12.76328 1.86557,2.06126 4.83438,3.93167 7.59303,5.72463 7.58706,4.05097 6.93864,13.78994 4.29459,18.23752 -5.9415,6.1208 -12.75972,9.43124 -20.26823,12.13498 -8.94352,3.29503 -12.46575,1.67846 -17.86489,-4.96174 -5.19426,-5.97897 -8.94279,-12.14638 -12.00257,-18.65498 -6.60658,-12.07194 -7.74839,-23.16388 -6.13949,-35.76107 1.74896,-5.68955 5.17919,-10.60619 10.45181,-17.78664 8.05099,-10.09871 15.97364,-18.24274 23.51635,-30.96113 5.18884,-8.21157 -0.41472,-10.03166 -3.96647,-13.25857 -17.79058,-15.98149 -36.62127,-25.1904 -48.07347,-43.34982 14.1389,-15.59447 16.10166,-34.3268 20.21148,-52.50585 -17.15087,34.14688 -27.68583,57.30105 -61.56207,46.82854 -14.53198,-5.9358 -26.67743,-16.41609 -34.91934,-26.29236 -22.470248,-30.69519 -20.389052,-59.39596 -20.161955,-71.24079 0.299294,-15.20822 3.65273,-36.12999 13.163905,-51.5246 8.83694,-16.23057 21.70598,-22.90271 37.12555,-28.000236 z"/>
    <path d="m 143.60151,96.827624 c 31.66806,-5.892663 71.53152,-3.868837 104.80713,6.374846 21.52239,5.47843 36.41578,16.8474 49.85482,32.15444 21.62925,26.71593 34.65976,61.15341 34.10216,92.30929 2.78264,41.32748 -8.10439,84.21128 -30.38311,110.09143 -10.13551,11.50715 -32.01422,29.37719 -51.78906,47.65816 0,0 -5.24407,6.28157 -4.96268,10.02067 0.42119,5.59807 3.68432,9.13021 6.97251,12.76328 1.86557,2.06126 4.83438,3.93167 7.59303,5.72463 7.58706,4.05097 6.93864,13.78994 4.29459,18.23752 -5.9415,6.1208 -12.75972,9.43124 -20.26823,12.13498 -8.94352,3.29503 -12.46575,1.67846 -17.86489,-4.96174 -5.19426,-5.97897 -8.94279,-12.14638 -12.00257,-18.65498 -6.60658,-12.07194 -7.74839,-23.16388 -6.13949,-35.76107 1.74896,-5.68955 5.17919,-10.60619 10.45181,-17.78664 8.05099,-10.09871 15.97364,-18.24274 23.51635,-30.96113 5.18884,-8.21157 -0.41472,-10.03166 -3.96647,-13.25857 -17.79058,-15.98149 -36.62127,-25.1904 -48.07347,-43.34982 14.1389,-15.59447 16.10166,-34.3268 20.21148,-52.50585 -17.15087,34.14688 -27.68583,57.30105 -61.56207,46.82854 -14.53198,-5.9358 -26.67743,-16.41609 -34.91934,-26.29236 -22.470248,-30.69519 -20.389052,-59.39596 -20.161955,-71.24079 0.299294,-15.20822 3.65273,-36.12999 13.163905,-51.5246 8.83694,-16.23057 21.70598,-22.90271 37.12555,-28.000236 z" style="fill:url(#linearGradient2584)"/>
    <circle cx="276.409" cy="220.416" r="14.096" style="fill:#3f3f3f"/>
    <path d="m 270.86855,280.87957 44.44542,36.77479 c -6.0731,-0.17038 -14.03504,2.04439 -22.86455,1.26737 -19.19056,-1.68887 -42.11638,-7.04913 -43.98102,-13.98296 -1.0524,-9.62115 0.98362,-17.1375 10.39077,-24.7595 5.79562,-4.99443 6.408,-4.19391 12.00938,0.70044 z" style="fill:#ffffff"/>
   </g>
  </g>
 </g>
</svg>
