<svg xmlns="http://www.w3.org/2000/svg" xmlns:xlink="http://www.w3.org/1999/xlink" width="256" height="256" version="1.1" viewBox="0 0 67.73 67.73">
 <defs>
  <linearGradient id="linearGradient1108" x1="296" x2="296" y1="-212" y2="236" gradientUnits="userSpaceOnUse" xlink:href="#linearGradient1013"/>
  <linearGradient id="linearGradient1013">
   <stop style="stop-color:#ffffff" offset="0"/>
   <stop offset=".125" style="stop-color:#ffffff;stop-opacity:0.09803922"/>
   <stop offset=".925" style="stop-color:#000000;stop-opacity:0.09803922"/>
   <stop style="stop-color:#000000;stop-opacity:0.49803922" offset="1"/>
  </linearGradient>
  <clipPath id="clipPath1082" clipPathUnits="userSpaceOnUse">
   <path style="fill:#8c59d9" d="M 361.9375,-212 C 507.2348,-212 528,-191.28677 528,-46.125 V 70.125 C 528,215.28618 507.2348,236 361.9375,236 H 214.0625 C 68.7652,236 48,215.28618 48,70.125 V -46.125 C 48,-191.28677 68.7652,-212 214.0625,-212 Z"/>
  </clipPath>
  <filter id="filter1015" width="1.046" height="1.05" x="-.02" y="-.03" style="color-interpolation-filters:sRGB">
   <feGaussianBlur stdDeviation="2.32"/>
  </filter>
 </defs>
 <g transform="translate(0,-229.26666)">
  <path style="opacity:0.2;fill:none;stroke:#000000;stroke-width:1.0788312;stroke-linecap:round;stroke-linejoin:round" d="m 43.837429,232.36713 c 19.593906,0 22.394174,2.79326 22.394174,22.36889 v 15.67676 c 0,19.57555 -2.800268,22.36889 -22.394174,22.36889 h -19.94152 c -19.5939075,0 -22.3941759,-2.79334 -22.3941759,-22.36889 v -15.67676 c 0,-19.57563 2.8002684,-22.36889 22.3941759,-22.36889 z"/>
  <path style="opacity:0.2;filter:url(#filter1015)" d="m 188.96876,45.999995 c 72.64865,0 83.03125,10.356615 83.03125,82.937505 v 58.125 c 0,72.58059 -10.3826,82.9375 -83.03125,82.9375 h -73.9375 C 42.382606,270 32.000006,259.64309 32.000006,187.0625 v -58.125 c 0,-72.58089 10.3826,-82.937505 83.031254,-82.937505 z" transform="matrix(0.26970778,0,0,0.26970778,-7.1289177,220.49999)"/>
  <path d="m 23.895906,232.36713 c -19.5939064,0 -22.3941745,2.79326 -22.3941745,22.36889 v 15.67676 c 0,19.57555 2.8002681,22.36889 22.3941745,22.36889 h 9.970758 v -20.48409 -19.44635 -20.4841 z" style="opacity:0.05;fill:#02171f"/>
  <path d="m 125,11.71875 v 71.6875 H 5.9863281 L 5.8417969,89.408203 H 125 V 240.05469 h 6 v -69.99805 h 118.97461 l 0.14453,-6.00195 H 131 V 11.71875 Z" transform="matrix(0.26458333,0,0,0.26458333,0,229.26666)" style="fill:#666666"/>
  <path d="M 125 11.71875 L 90.314453 11.71875 C 81.05749 11.71875 72.792776 11.883228 65.416016 12.316406 C 61.727635 12.532996 58.260972 12.816079 55.003906 13.179688 C 51.74684 13.543296 48.699232 13.986993 45.847656 14.523438 C 42.99608 15.059882 40.341051 15.688731 37.869141 16.423828 C 35.39723 17.158925 33.108304 18.001371 30.990234 18.960938 C 28.872165 19.920504 26.924819 20.99718 25.134766 22.207031 C 23.344713 23.416883 21.71247 24.76014 20.224609 26.246094 C 18.736749 27.732047 17.393133 29.362518 16.181641 31.150391 C 14.970148 32.938263 13.890637 34.88244 12.929688 36.998047 C 11.968738 39.113654 11.126855 41.399982 10.390625 43.869141 C 9.6543949 46.3383 9.0236635 48.991317 8.4863281 51.839844 C 7.9489928 54.688371 7.5048899 57.732617 7.140625 60.986328 C 6.7763601 64.24004 6.4924095 67.702006 6.2753906 71.386719 C 6.065665 74.9476 6.0822509 79.419145 5.9863281 83.40625 L 125 83.40625 L 125 11.71875 z" transform="matrix(0.26458333,0,0,0.26458333,0,229.26666)" style="fill:#c00ac2"/>
  <path d="M 131 240.05664 L 165.68555 240.05664 C 174.94251 240.05664 183.20722 239.89217 190.58398 239.45898 C 194.27236 239.24239 197.73903 238.95736 200.99609 238.59375 C 204.25316 238.23014 207.30077 237.7884 210.15234 237.25195 C 213.00392 236.7155 215.65895 236.08471 218.13086 235.34961 C 220.60277 234.61451 222.8917 233.77403 225.00977 232.81445 C 227.12784 231.85488 229.07518 230.77626 230.86523 229.56641 C 232.65529 228.35655 234.28753 227.01526 235.77539 225.5293 C 237.26325 224.04334 238.60687 222.41288 239.81836 220.625 C 241.02985 218.83712 242.10936 216.89295 243.07031 214.77734 C 244.03126 212.66173 244.87314 210.37541 245.60938 207.90625 C 246.34561 205.43709 246.97634 202.78407 247.51367 199.93555 C 248.05101 197.08702 248.49511 194.04277 248.85938 190.78906 C 249.22364 187.53536 249.50759 184.07337 249.72461 180.38867 C 249.90489 177.32772 249.87963 173.43132 249.97461 170.05664 L 131 170.05664 L 131 240.05664 z" transform="matrix(0.26458333,0,0,0.26458333,0,229.26666)" style="fill:#e1bd30"/>
  <path d="M 5.8417969 89.408203 C 5.8145297 91.807985 5.6757812 93.713628 5.6757812 96.261719 L 5.6757812 155.51367 C 5.6757813 164.76196 5.8413528 173.01927 6.2753906 180.38867 C 6.4924095 184.07337 6.7763601 187.53536 7.140625 190.78906 C 7.5048899 194.04277 7.9489928 197.08702 8.4863281 199.93555 C 9.0236635 202.78407 9.6543949 205.43709 10.390625 207.90625 C 11.126855 210.37541 11.968738 212.66173 12.929688 214.77734 C 13.890637 216.89295 14.970148 218.83712 16.181641 220.625 C 17.393133 222.41288 18.736749 224.04334 20.224609 225.5293 C 21.71247 227.01526 23.344713 228.35655 25.134766 229.56641 C 26.924819 230.77626 28.872165 231.85488 30.990234 232.81445 C 33.108304 233.77403 35.39723 234.61451 37.869141 235.34961 C 40.341051 236.08471 42.99608 236.7155 45.847656 237.25195 C 48.699232 237.7884 51.74684 238.23014 55.003906 238.59375 C 58.260972 238.95736 61.727635 239.24239 65.416016 239.45898 C 72.792776 239.89217 81.05749 240.05664 90.314453 240.05664 L 125 240.05664 L 125 89.408203 L 5.8417969 89.408203 z" transform="matrix(0.26458333,0,0,0.26458333,0,229.26666)" style="fill:#ff498a"/>
  <path d="M 250.11914 164.05469 C 250.16231 161.10873 250.32422 158.68913 250.32422 155.51367 L 250.32422 96.261719 C 250.32422 87.01339 250.15865 78.756144 249.72461 71.386719 C 249.50759 67.702006 249.22364 64.24004 248.85938 60.986328 C 248.49511 57.732617 248.05101 54.688371 247.51367 51.839844 C 246.97634 48.991317 246.34561 46.3383 245.60938 43.869141 C 244.87314 41.399982 244.03126 39.113654 243.07031 36.998047 C 242.10936 34.88244 241.02985 32.938263 239.81836 31.150391 C 238.60687 29.362518 237.26325 27.732047 235.77539 26.246094 C 234.28753 24.76014 232.65529 23.416883 230.86523 22.207031 C 229.07518 20.99718 227.12784 19.920504 225.00977 18.960938 C 222.8917 18.001371 220.60277 17.158925 218.13086 16.423828 C 215.65895 15.688731 213.00392 15.059882 210.15234 14.523438 C 207.30077 13.986993 204.25316 13.543296 200.99609 13.179688 C 197.73903 12.816079 194.27236 12.532996 190.58398 12.316406 C 183.20722 11.883228 174.94251 11.71875 165.68555 11.71875 L 131 11.71875 L 131 164.05469 L 250.11914 164.05469 z" transform="matrix(0.26458333,0,0,0.26458333,0,229.26666)" style="fill:#21af2b"/>
  <path style="opacity:0.5;fill:none;stroke:url(#linearGradient1108);stroke-width:8;stroke-linecap:round;stroke-linejoin:round" d="M 361.9375,-212 C 507.2348,-212 528,-191.28677 528,-46.125 V 70.125 C 528,215.28618 507.2348,236 361.9375,236 H 214.0625 C 68.7652,236 48,215.28618 48,70.125 V -46.125 C 48,-191.28677 68.7652,-212 214.0625,-212 Z" clip-path="url(#clipPath1082)" transform="matrix(0.13485389,0,0,0.13485389,-4.9712557,260.95615)"/>
 </g>
</svg>
