<svg width="256" height="256" version="1.1" viewBox="0 0 67.73 67.73" xmlns="http://www.w3.org/2000/svg" xmlns:xlink="http://www.w3.org/1999/xlink">
 <defs>
  <linearGradient id="linearGradient1108" x1="296" x2="296" y1="-212" y2="236" gradientUnits="userSpaceOnUse">
   <stop style="stop-color:#ffffff" offset="0"/>
   <stop style="stop-color:#ffffff;stop-opacity:.09803922" offset=".125"/>
   <stop style="stop-color:#000000;stop-opacity:.09803922" offset=".925"/>
   <stop style="stop-color:#000000;stop-opacity:.49803922" offset="1"/>
  </linearGradient>
  <clipPath id="clipPath1082">
   <path d="M 361.9375,-212 C 507.2348,-212 528,-191.28677 528,-46.125 V 70.125 C 528,215.28618 507.2348,236 361.9375,236 H 214.0625 C 68.7652,236 48,215.28618 48,70.125 V -46.125 C 48,-191.28677 68.7652,-212 214.0625,-212 Z" style="fill:#8c59d9"/>
  </clipPath>
  <filter id="filter1015" x="-.02" y="-.03" width="1.046" height="1.05" style="color-interpolation-filters:sRGB">
   <feGaussianBlur stdDeviation="2.32"/>
  </filter>
 </defs>
 <g transform="translate(0,-229.26666)">
  <path d="m43.837429 232.36713c19.593906 0 22.394174 2.79326 22.394174 22.36889v15.67676c0 19.57555-2.800268 22.36889-22.394174 22.36889h-19.94152c-19.593908 0-22.394176-2.79334-22.394176-22.36889v-15.67676c0-19.57563 2.8002684-22.36889 22.394176-22.36889z" style="fill:none;opacity:.2;stroke-linecap:round;stroke-linejoin:round;stroke-width:1.0788312;stroke:#000000"/>
  <path transform="matrix(.26970778 0 0 .26970778 -7.1289177 220.49999)" d="m188.96876 45.999995c72.64865 0 83.03125 10.356615 83.03125 82.937505v58.125c0 72.58059-10.3826 82.9375-83.03125 82.9375h-73.9375c-72.648654 0-83.031254-10.35691-83.031254-82.9375v-58.125c0-72.58089 10.3826-82.937505 83.031254-82.937505z" style="filter:url(#filter1015);opacity:.2"/>
  <path d="m23.895906 232.36713c-19.593906 0-22.394174 2.79326-22.394174 22.36889v15.67676c0 19.57555 2.8002681 22.36889 22.394174 22.36889h9.970758v-60.41454z" style="fill:#02171f;opacity:.05"/>
  <path transform="matrix(.26458333 0 0 .26458333 0 229.26666)" d="m125 11.71875v71.6875h-119.01367l-0.1445312 6.001953h119.1582v150.64649h6v-69.99805h118.97461l0.14453-6.00195h-119.11914v-152.33594z" style="fill:#666666"/>
  <path transform="matrix(.26458333 0 0 .26458333 0 229.26666)" d="m125 11.71875h-34.685547c-9.256963 0-17.521677 0.164478-24.898437 0.597656-3.688381 0.21659-7.155044 0.499673-10.41211 0.863282-3.257066 0.363608-6.304674 0.807305-9.15625 1.34375-2.851576 0.536444-5.506605 1.165293-7.978515 1.90039-2.471911 0.735097-4.760837 1.577543-6.878907 2.53711-2.118069 0.959566-4.065415 2.036242-5.855468 3.246093-1.790053 1.209852-3.422296 2.553109-4.910157 4.039063-1.48786 1.485953-2.831476 3.116424-4.042968 4.904297-1.211493 1.787872-2.291004 3.732049-3.251953 5.847656-0.96095 2.115607-1.802833 4.401935-2.539063 6.871094-0.7362301 2.469159-1.3669615 5.122176-1.9042969 7.970703-0.5373353 2.848527-0.9814382 5.892773-1.3457031 9.146484-0.3642649 3.253712-0.6482155 6.715678-0.8652344 10.400391-0.2097256 3.560881-0.1931397 8.032426-0.2890625 12.019531h119.01367v-71.6875z" style="fill:#c00ac2"/>
  <path transform="matrix(.26458333 0 0 .26458333 0 229.26666)" d="m131 240.05664h34.68555c9.25696 0 17.52167-0.16447 24.89843-0.59766 3.68838-0.21659 7.15505-0.50162 10.41211-0.86523 3.25707-0.36361 6.30468-0.80535 9.15625-1.3418 2.85158-0.53645 5.50661-1.16724 7.97852-1.90234s4.76084-1.57558 6.87891-2.53516c2.11807-0.95957 4.06541-2.03819 5.85546-3.24804 1.79006-1.20986 3.4223-2.55115 4.91016-4.03711s2.83148-3.11642 4.04297-4.9043 2.291-3.73205 3.25195-5.84766 1.80283-4.40193 2.53907-6.87109c0.73623-2.46916 1.36696-5.12218 1.90429-7.9707 0.53734-2.84853 0.98144-5.89278 1.34571-9.14649 0.36426-3.2537 0.64821-6.71569 0.86523-10.40039 0.18028-3.06095 0.15502-6.95735 0.25-10.33203h-118.97461v70z" style="fill:#e1bd30"/>
  <path transform="matrix(.26458333 0 0 .26458333 0 229.26666)" d="m5.8417969 89.408203c-0.0272672 2.399782-0.1660157 4.305425-0.1660157 6.853516v59.251951c1e-7 9.24829 0.1655716 17.5056 0.5996094 24.875 0.2170189 3.6847 0.5009695 7.14669 0.8652344 10.40039 0.3642649 3.25371 0.8083678 6.29796 1.3457031 9.14649 0.5373354 2.84852 1.1680668 5.50154 1.9042969 7.9707 0.73623 2.46916 1.578113 4.75548 2.539063 6.87109 0.960949 2.11561 2.04046 4.05978 3.251953 5.84766 1.211492 1.78788 2.555108 3.41834 4.042968 4.9043 1.487861 1.48596 3.120104 2.82725 4.910157 4.03711 1.790053 1.20985 3.737399 2.28847 5.855468 3.24804 2.11807 0.95958 4.406996 1.80006 6.878907 2.53516 2.47191 0.7351 5.126939 1.36589 7.978515 1.90234s5.899184 0.97819 9.15625 1.3418 6.723729 0.64864 10.41211 0.86523c7.37676 0.43319 15.641474 0.59766 24.898437 0.59766h34.685547v-150.64844h-119.1582z" style="fill:#ff498a"/>
  <path transform="matrix(.26458333 0 0 .26458333 0 229.26666)" d="m250.11914 164.05469c0.04317-2.94596 0.20508-5.36556 0.20508-8.54102v-59.251951c0-9.248329-0.16557-17.505575-0.59961-24.875-0.21702-3.684713-0.50097-7.146679-0.86523-10.400391-0.36427-3.253711-0.80837-6.297957-1.34571-9.146484-0.53733-2.848527-1.16806-5.501544-1.90429-7.970703-0.73624-2.469159-1.57812-4.755487-2.53907-6.871094s-2.04046-4.059784-3.25195-5.847656c-1.21149-1.787873-2.55511-3.418344-4.04297-4.904297-1.48786-1.485954-3.1201-2.829211-4.91016-4.039063-1.79005-1.209851-3.73739-2.286527-5.85546-3.246093-2.11807-0.959567-4.407-1.802013-6.87891-2.53711s-5.12694-1.363946-7.97852-1.90039c-2.85157-0.536445-5.89918-0.980142-9.15625-1.34375-3.25706-0.363609-6.72373-0.646692-10.41211-0.863282-7.37676-0.433178-15.64147-0.597656-24.89843-0.597656h-34.68555v152.33594h119.11914z" style="fill:#21af2b"/>
  <path transform="matrix(.13485389 0 0 .13485389 -4.9712557 260.95615)" d="M 361.9375,-212 C 507.2348,-212 528,-191.28677 528,-46.125 V 70.125 C 528,215.28618 507.2348,236 361.9375,236 H 214.0625 C 68.7652,236 48,215.28618 48,70.125 V -46.125 C 48,-191.28677 68.7652,-212 214.0625,-212 Z" clip-path="url(#clipPath1082)" style="fill:none;opacity:.5;stroke-linecap:round;stroke-linejoin:round;stroke-width:8;stroke:url(#linearGradient1108)"/>
 </g>
</svg>
