<svg xmlns="http://www.w3.org/2000/svg" xmlns:xlink="http://www.w3.org/1999/xlink" width="256" height="256" version="1.1" viewBox="0 0 67.73 67.73">
 <defs>
  <linearGradient id="linearGradient1013">
   <stop offset="0" style="stop-color:#ffffff"/>
   <stop style="stop-color:#ffffff;stop-opacity:0.09803922" offset=".125"/>
   <stop style="stop-color:#000000;stop-opacity:0.09803922" offset=".925"/>
   <stop offset="1" style="stop-color:#000000;stop-opacity:0.49803922"/>
  </linearGradient>
  <clipPath id="clipPath1082-3-5" clipPathUnits="userSpaceOnUse">
   <path d="M 361.9375,-212 C 507.2348,-212 528,-191.28677 528,-46.125 V 70.125 C 528,215.28618 507.2348,236 361.9375,236 H 214.0625 C 68.7652,236 48,215.28618 48,70.125 V -46.125 C 48,-191.28677 68.7652,-212 214.0625,-212 Z" style="fill:#8c59d9"/>
  </clipPath>
  <filter style="color-interpolation-filters:sRGB" id="filter4569-2" width="1.023" height="1.025" x="-.01" y="-.01">
   <feGaussianBlur stdDeviation="1.16"/>
  </filter>
  <filter style="color-interpolation-filters:sRGB" id="filter913" width="1.046" height="1.05" x="-.02" y="-.03">
   <feGaussianBlur stdDeviation="2.32"/>
  </filter>
  <linearGradient id="linearGradient906" x1="296" x2="296" y1="-212" y2="236" gradientUnits="userSpaceOnUse" xlink:href="#linearGradient1013"/>
  <linearGradient id="linearGradient4216" x1="56" x2="56" y1="288" y2="83.578" gradientTransform="matrix(0,-0.19921875,0.19921875,0,6.9367375,59.379482)" gradientUnits="userSpaceOnUse" spreadMethod="reflect" xlink:href="#linearGradient4210"/>
  <linearGradient id="linearGradient4210">
   <stop style="stop-color:#ffffff;stop-opacity:0.97196263" offset="0"/>
   <stop offset=".646" style="stop-color:#ffffff;stop-opacity:0.91588783"/>
   <stop style="stop-color:#ffffff;stop-opacity:0" offset="1"/>
  </linearGradient>
 </defs>
 <g transform="translate(0,-229.26666)">
  <path style="opacity:0.2;filter:url(#filter913)" d="m 188.96876,45.999995 c 72.64865,0 83.03125,10.356615 83.03125,82.937505 v 58.125 c 0,72.58059 -10.3826,82.9375 -83.03125,82.9375 h -73.9375 C 42.382606,270 32.000006,259.64309 32.000006,187.0625 v -58.125 c 0,-72.58089 10.3826,-82.937505 83.031254,-82.937505 z" transform="matrix(0.26970778,0,0,0.26970778,-7.1289177,220.56049)"/>
  <path d="m 188.96876,43.999995 c 72.64865,0 83.03125,10.356615 83.03125,82.937505 v 58.125 c 0,72.58059 -10.3826,82.9375 -83.03125,82.9375 h -73.9375 C 42.382606,268 32.000006,257.64309 32.000006,185.0625 v -58.125 c 0,-72.58089 10.3826,-82.937505 83.031254,-82.937505 z" transform="matrix(0.26970778,0,0,0.26970778,-7.1289177,220.56049)" style="opacity:0.1;filter:url(#filter4569-2)"/>
  <path style="fill:#1d1d1d" d="m 23.895904,232.42763 c -9.797337,0 -15.3941292,0.69699 -18.5445162,3.84334 -3.150381,3.14634 -3.849657,8.73736 -3.849657,18.52555 v 15.67677 c 0,9.78815 0.699276,15.3792 3.849657,18.52555 3.150387,3.14636 8.7471782,3.84333 18.5445162,3.84333 h 19.94152 c 9.797339,0 15.394134,-0.69697 18.544517,-3.84333 3.150384,-3.14635 3.849659,-8.7374 3.849659,-18.52555 v -15.67677 c 0,-9.78819 -0.699275,-15.37921 -3.849659,-18.52555 -3.150383,-3.14635 -8.74718,-3.84334 -18.544517,-3.84334 z"/>
  <path style="opacity:0.2;fill:#131313" d="m 1.5017313,269.93387 v 0.53942 c 0,9.78815 0.699276,15.3792 3.849657,18.52555 3.150387,3.14636 8.7471787,3.84333 18.5445167,3.84333 h 19.94152 c 9.797339,0 15.394134,-0.69697 18.544517,-3.84333 3.150384,-3.14635 3.849659,-8.7374 3.849659,-18.52555 v -0.53942 c 0,9.78815 -0.699275,15.3792 -3.849659,18.52555 -3.150383,3.14636 -8.747178,3.84334 -18.544517,3.84334 h -19.94152 c -9.797338,0 -15.3941297,-0.69698 -18.5445167,-3.84334 -3.150381,-3.14635 -3.849657,-8.7374 -3.849657,-18.52555 z"/>
  <path d="M 361.9375,-212 C 507.2348,-212 528,-191.28677 528,-46.125 V 70.125 C 528,215.28618 507.2348,236 361.9375,236 H 214.0625 C 68.7652,236 48,215.28618 48,70.125 V -46.125 C 48,-191.28677 68.7652,-212 214.0625,-212 Z" clip-path="url(#clipPath1082-3-5)" transform="matrix(0.13485389,0,0,0.13485389,-4.9712549,261.01666)" style="opacity:0.4;fill:none;stroke:url(#linearGradient906);stroke-width:8;stroke-linecap:round;stroke-linejoin:round"/>
  <path style="opacity:0.1;fill:#ffffff" d="m 35.015027,232.45803 v 60.41446 h 9.616967 c 18.898659,0 21.599565,-2.79333 21.599565,-22.36886 v -15.67674 c 0,-19.5756 -2.700906,-22.36886 -21.599565,-22.36886 z"/>
  <g transform="matrix(0.5675661,0,0,0.5675661,-1.3907281,261.49722)">
   <path d="m 22.077357,46.784342 c 0.46294,0.52006 0.96523,0.99865 1.50971,1.43889 h 3.27154 v -7.96875 h -4.78125 z m 0,-83.029857 h 4.78125 v -7.96875 h -3.27154 c -0.54448,0.44024 -1.04677,0.91883 -1.50971,1.43889 z m 7.96875,84.468746 h 4.78125 v -7.96875 h -4.78125 z m 0,-84.468746 h 4.78125 v -7.96875 h -4.78125 z m 7.96875,84.468746 h 4.78125 v -7.96875 h -4.78125 z m 0,-84.468746 h 4.78125 v -7.96875 h -4.78125 z m 7.96876,84.468746 h 4.78125 v -7.96875 h -4.78125 z m 0,-84.468746 h 4.78125 v -7.96875 h -4.78125 z m 7.96875,84.468746 h 4.781251 v -7.96875 h -4.781251 z m 0,-84.468746 h 4.781251 v -7.96875 h -4.781251 z m 7.968751,84.468746 h 4.78125 v -7.96875 h -4.78125 z m 0,-84.468746 h 4.78125 v -7.96875 h -4.78125 z m 7.96875,84.468746 h 4.781249 v -7.96875 h -4.781249 z m 0,-84.468746 h 4.781249 v -7.96875 h -4.781249 z m 7.968749,84.468747 h 4.78125 v -7.96875 h -4.78125 z m 0,-84.468747 h 4.78125 v -7.96875 h -4.78125 z m 7.968741,84.468747 h 4.78125 v -7.96875 h -4.78125 z m 0,-84.468747 h 4.78125 v -7.96875 h -4.78125 z m 7.96875,84.468747 h 4.781252 v -7.96875 h -4.781252 z m 0,-84.468747 h 4.781252 v -7.96875 h -4.781252 z m 7.968752,84.468747 h 3.27155 c 0.54449,-0.44024 1.04677,-0.91883 1.5097,-1.43889 v -6.52986 h -4.78125 z m 0,-84.468747 h 4.78125 v -6.52986 c -0.46293,-0.52006 -0.96522,-0.99865 -1.5097,-1.43889 h -3.27155 z" style="opacity:0.4;fill:url(#linearGradient4216)"/>
   <path style="opacity:0.05;fill:#ff0000;fill-opacity:0" d="m 57.401328,-25.782479 -7.01001,14.27527 V 0.29651126 c -0.98412,1.15307004 -2.05977,2.31501004 -3.18127,3.43652004 -3.68617,3.6861599 -7.81888,6.9102597 -10.5835,7.8317897 L 31.969813,6.9143012 17.694553,13.924311 v 34.00415 h 50.999985 v -63.2644 c -3.07128,-6.6626 -6.44834,-9.14836 -11.29321,-10.44654 z m -19.43628,45.6211 c 10e-4,-0.001 0.005,0.001 0.006,0 -0.52011,0.3248 -1.0461,0.64281 -1.57507,0.95874 0.52911,-0.31588 1.04862,-0.63399 1.56885,-0.95874 z m -4.799915,2.80151 c 0.002,-7.9e-4 0.005,8e-4 0.006,0 -0.54622,0.29865 -1.1014,0.59378 -1.656,0.88404 0.55467,-0.29023 1.10348,-0.58542 1.64979,-0.88404 z"/>
   <g transform="translate(1.1105818)">
    <g transform="translate(-4.0252549,11.80372)">
     <path style="opacity:0.2;fill:#090909" d="M 60.569777,-3.1915527 C 55.283089,5.3501937 43.575582,8.2748386 34.422565,3.3408959 25.26776,-1.5885798 22.131023,-12.510227 27.41637,-21.051973 Z"/>
     <path d="M 60.569777,-5.4240915 C 55.283089,3.1176549 43.575582,6.0422962 34.422565,1.108357 25.26776,-3.8211186 22.131023,-14.74277 27.41637,-23.284517 Z" style="fill:#e9ff4c"/>
     <path d="m 42.95367,-14.912665 v 0.558141 c -0.964016,4.9230433 0.935022,10.8065348 5.829953,17.284914 0.05622,-0.01341 0.113982,-0.020593 0.170063,-0.034961 -2.389494,-4.5609514 -1.999049,-9.6452983 0.32705,-14.402638 z" style="fill:#2c2c2c"/>
     <path d="M 69.500229,-3.1917012 C 74.786912,5.3500452 86.494418,8.2746896 95.647438,3.3407474 104.80225,-1.5887283 107.93898,-12.510375 102.65364,-21.052121 Z" style="opacity:0.2;fill:#090909"/>
     <path style="fill:#e9ff4c" d="M 69.500229,-5.4242448 C 74.786912,3.1175017 86.494418,6.0421477 95.647438,1.1082086 104.80225,-3.8212719 107.93898,-14.742919 102.65364,-23.284665 Z"/>
     <path style="fill:#2c2c2c" d="m 87.116328,-14.912818 v 0.558141 c 0.96402,4.9230479 -0.93501,10.8065393 -5.829945,17.2849137 -0.05622,-0.01341 -0.113982,-0.020593 -0.170062,-0.034961 2.389497,-4.5609562 1.999047,-9.6453031 -0.327051,-14.4026377 z"/>
    </g>
   </g>
  </g>
 </g>
</svg>
