<svg width="256" height="256" version="1.1" viewBox="0 0 67.73 67.73" xmlns="http://www.w3.org/2000/svg" xmlns:xlink="http://www.w3.org/1999/xlink">
 <defs>
  <linearGradient id="linearGradient1108" x1="296" x2="296" y1="-212" y2="236" gradientUnits="userSpaceOnUse">
   <stop style="stop-color:#ffffff" offset="0"/>
   <stop style="stop-color:#ffffff;stop-opacity:.09803922" offset=".125"/>
   <stop style="stop-color:#000000;stop-opacity:0" offset=".925"/>
   <stop style="stop-color:#000000;stop-opacity:0" offset="1"/>
  </linearGradient>
  <clipPath id="clipPath1082-3-09">
   <path d="M 361.9375,-212 C 507.2348,-212 528,-191.28677 528,-46.125 V 70.125 C 528,215.28618 507.2348,236 361.9375,236 H 214.0625 C 68.7652,236 48,215.28618 48,70.125 V -46.125 C 48,-191.28677 68.7652,-212 214.0625,-212 Z" style="fill:#8c59d9"/>
  </clipPath>
  <linearGradient id="linearGradient2059" x1="168" x2="168" y1="284" y2="28" gradientTransform="matrix(.26458334 0 0 .26458334 -6.9934685 221.97262)" gradientUnits="userSpaceOnUse">
   <stop style="stop-color:#e6eaef" offset="0"/>
   <stop style="stop-color:#e6eaef" offset="1"/>
  </linearGradient>
  <filter id="filter1132" x="-.02" y="-.03" width="1.046" height="1.05" style="color-interpolation-filters:sRGB">
   <feGaussianBlur stdDeviation="2.32"/>
  </filter>
  <filter id="filter4569" x="-.01" y="-.01" width="1.023" height="1.025" style="color-interpolation-filters:sRGB">
   <feGaussianBlur stdDeviation="1.16"/>
  </filter>
  <linearGradient id="e" x1="155.098" x2="197.653" y1="157.153" y2="195.477" gradientTransform="matrix(1.0612453,0,0,1.0612453,-157.79277,75.761007)" gradientUnits="userSpaceOnUse">
   <stop stop-color="#ebebeb" offset="0"/>
   <stop stop-color="#a0afbe" offset="1"/>
  </linearGradient>
  <filter id="filter1916" x="-.05" y="-.05" width="1.096" height="1.096" style="color-interpolation-filters:sRGB">
   <feGaussianBlur stdDeviation="4.089"/>
  </filter>
 </defs>
 <g transform="translate(0,-229.26666)">
  <path d="m43.004516 233.61429c19.221623 0 21.968686 2.74018 21.968686 21.94388v15.37891c0 19.20362-2.747063 21.94387-21.968686 21.94387h-19.562632c-19.221623 0-21.968686-2.74025-21.968686-21.94387v-15.37891c0-19.2037 2.7470631-21.94388 21.968686-21.94388z" style="fill:none;opacity:.11499999;stroke-linecap:round;stroke-linejoin:round;stroke-width:1.0583334;stroke:#000000"/>
  <path transform="matrix(.26458334 0 0 .26458334 -6.9934685 221.97262)" d="m188.96876 43.999995c72.64865 0 83.03125 10.356615 83.03125 82.937505v58.125c0 72.58059-10.3826 82.9375-83.03125 82.9375h-73.9375c-72.648654 0-83.031254-10.35691-83.031254-82.9375v-58.125c0-72.58089 10.3826-82.937505 83.031254-82.937505z" style="filter:url(#filter4569);opacity:.1"/>
  <path transform="matrix(.26458334 0 0 .26458334 -6.9934685 221.97262)" d="m188.96876 45.999995c72.64865 0 83.03125 10.356615 83.03125 82.937505v58.125c0 72.58059-10.3826 82.9375-83.03125 82.9375h-73.9375c-72.648654 0-83.031254-10.35691-83.031254-82.9375v-58.125c0-72.58089 10.3826-82.937505 83.031254-82.937505z" style="filter:url(#filter1132);opacity:.2"/>
  <path d="m43.004516 233.61429c19.221623 0 21.968686 2.74018 21.968686 21.94388v15.37891c0 19.20362-2.747063 21.94387-21.968686 21.94387h-19.562632c-19.221623 0-21.968686-2.74025-21.968686-21.94387v-15.37891c0-19.2037 2.7470631-21.94388 21.968686-21.94388z" style="fill:url(#linearGradient2059)"/>
  <path transform="matrix(.13229167 0 0 .13229167 -4.8768022 261.66013)" d="M 361.9375,-212 C 507.2348,-212 528,-191.28677 528,-46.125 V 70.125 C 528,215.28618 507.2348,236 361.9375,236 H 214.0625 C 68.7652,236 48,215.28618 48,70.125 V -46.125 C 48,-191.28677 68.7652,-212 214.0625,-212 Z" clip-path="url(#clipPath1082-3-09)" style="fill:none;opacity:.77999998;stroke-linecap:round;stroke-linejoin:round;stroke-width:8;stroke:url(#linearGradient1108)"/>
  <g transform="translate(.5285281 -2.2529867)">
   <rect x="25.43" y="241.07" width="5.191" height="5.191" style="fill:#0b3b86"/>
   <rect x="30.62" y="241.07" width="5.191" height="5.191" style="fill:#0d47a0"/>
   <rect x="35.81" y="241.07" width="5.191" height="5.191" style="fill:#1564be"/>
   <rect x="20.24" y="246.26" width="5.191" height="5.191" style="fill:#0b3b86"/>
   <rect x="25.43" y="246.26" width="5.191" height="5.191" style="fill:#0d47a0"/>
   <rect x="30.62" y="246.26" width="5.191" height="5.191" style="fill:#1564be"/>
   <rect x="35.81" y="246.26" width="5.191" height="5.191" style="fill:#1976d1"/>
   <rect x="41" y="246.26" width="5.191" height="5.191" style="fill:#1e86e2"/>
   <path d="m50.184811 251.45441a22.711171 22.062282 0 0 0-1.197914-1.32515 22.711171 22.062282 0 0 0-1.661261-1.5031 22.711171 22.062282 0 0 0-1.134038-0.83747v3.66572z" style="fill:#2195f2"/>
   <path d="m51.382723 247.48756c-0.109356-0.11341-0.206456-0.23839-0.317855-0.34979-0.306539-0.30654-0.641109-0.58359-0.962689-0.87448h-3.910581v1.5254a22.711171 22.062282 0 0 1 1.134038 0.83747 22.711171 22.062282 0 0 1 1.661261 1.5031 22.711171 22.062282 0 0 1 1.197914 1.32515h1.197912z" style="fill:#2195f2"/>
   <path d="m43.791718 246.26329a22.711171 22.062282 0 0 0-1e-3 -5.1e-4 22.711171 22.062282 0 0 0-2.79023-1.27395v1.27446z" style="fill:#1976d1"/>
   <rect x="15.04" y="246.26" width="5.191" height="5.191" style="fill:#07275a"/>
   <rect x="20.24" y="251.45" width="5.191" height="5.191" style="fill:#0d47a0"/>
   <rect x="25.43" y="251.45" width="5.191" height="5.191" style="fill:#1564be"/>
   <rect x="30.62" y="251.45" width="5.191" height="5.191" style="fill:#1976d1"/>
   <rect x="35.81" y="251.45" width="5.191" height="5.191" style="fill:#1e86e2"/>
   <rect x="41" y="251.45" width="5.191" height="5.191" style="fill:#2195f2"/>
   <rect x="46.19" y="251.45" width="5.191" height="5.191" style="fill:#41a1f0"/>
   <rect x="15.04" y="251.45" width="5.191" height="5.191" style="fill:#0b3b86"/>
   <rect x="15.04" y="256.65" width="5.191" height="5.191" style="fill:#0d47a0"/>
   <rect x="20.24" y="256.65" width="5.191" height="5.191" style="fill:#1564be"/>
   <rect x="25.43" y="256.65" width="5.191" height="5.191" style="fill:#1976d1"/>
   <rect x="30.62" y="256.65" width="5.191" height="5.191" style="fill:#1e86e2"/>
   <rect x="35.81" y="256.65" width="5.191" height="5.191" style="fill:#2195f2"/>
   <rect x="41" y="256.65" width="5.191" height="5.191" style="fill:#41a1f0"/>
   <rect x="9.85" y="256.65" width="5.191" height="5.191" style="fill:#0b3b86"/>
   <rect x="15.04" y="261.84" width="5.191" height="5.191" style="fill:#1564be"/>
   <rect x="20.24" y="261.84" width="5.191" height="5.191" style="fill:#1976d1"/>
   <rect x="25.43" y="261.84" width="5.191" height="5.191" style="fill:#1e86e2"/>
   <rect x="30.62" y="261.84" width="5.191" height="5.191" style="fill:#2195f2"/>
   <rect x="35.81" y="261.84" width="5.191" height="5.191" style="fill:#41a1f0"/>
   <rect x="41" y="261.84" width="5.191" height="5.191" style="fill:#63b4f4"/>
   <rect x="9.85" y="261.84" width="5.191" height="5.191" style="fill:#0d47a0"/>
   <rect x="15.04" y="267.03" width="5.191" height="5.191" style="fill:#1976d1"/>
   <rect x="20.24" y="267.03" width="5.191" height="5.191" style="fill:#1e86e2"/>
   <rect x="25.43" y="267.03" width="5.191" height="5.191" style="fill:#2195f2"/>
   <rect x="30.62" y="267.03" width="5.191" height="5.191" style="fill:#41a1f0"/>
   <rect x="35.81" y="267.03" width="5.191" height="5.191" style="fill:#63b4f4"/>
   <rect x="41" y="267.03" width="5.191" height="5.191" style="fill:#8fc9f8"/>
   <rect x="9.85" y="267.03" width="5.191" height="5.191" style="fill:#1564be"/>
   <rect x="15.04" y="272.22" width="5.191" height="5.191" style="fill:#1e86e2"/>
   <rect x="20.24" y="272.22" width="5.191" height="5.191" style="fill:#2195f2"/>
   <rect x="25.43" y="272.22" width="5.191" height="5.191" style="fill:#41a1f0"/>
   <rect x="30.62" y="272.22" width="5.191" height="5.191" style="fill:#63b4f4"/>
   <rect x="35.81" y="272.22" width="5.191" height="5.191" style="fill:#8fc9f8"/>
   <rect x="41" y="272.22" width="5.191" height="5.191" style="fill:#badcf9"/>
   <rect x="9.85" y="272.22" width="5.191" height="5.191" style="fill:#1976d1"/>
   <rect x="15.04" y="277.41" width="5.191" height="5.191" style="fill:#2195f2"/>
   <rect x="20.24" y="277.41" width="5.191" height="5.191" style="fill:#41a1f0"/>
   <rect x="25.43" y="277.41" width="5.191" height="5.191" style="fill:#63b4f4"/>
   <rect x="30.62" y="277.41" width="5.191" height="5.191" style="fill:#8fc9f8"/>
   <rect x="35.81" y="277.41" width="5.191" height="5.191" style="fill:#badcf9"/>
   <rect x="41" y="277.41" width="5.191" height="5.191" style="fill:#d2e8fb"/>
   <path d="m13.577746 277.41004a22.711171 22.062282 0 0 0 0.0061 0.0106 22.711171 22.062282 0 0 0 1.320593 1.79357 22.711171 22.062282 0 0 0 0.140424 0.15513v-1.95935z" style="fill:#1e86e2"/>
   <path d="m9.8537222 277.88099c0.0033 6e-3 0.00582 0.0127 0.00912 0.0188 0.3986498 0.73567 0.8317458 1.44961 1.2972738 2.13982 0.465529 0.69021 0.963312 1.3564 1.491435 1.99686 0.161948 0.19639 0.345458 0.37328 0.513029 0.56474h1.880262v-3.23178a22.711171 22.062282 0 0 1-0.140424-0.15513 22.711171 22.062282 0 0 1-1.320593-1.79357 22.711171 22.062282 0 0 1-0.0061-0.0106h-3.7240028z" style="fill:#1e86e2"/>
   <path d="m18.370412 282.60117a22.711171 22.062282 0 0 0 1.500559 1.10818 22.711171 22.062282 0 0 0 0.365001 0.21748v-1.32566z" style="fill:#41a1f0"/>
   <path d="m15.044847 284.53263c0.370217 0.34346 0.731432 0.69692 1.121364 1.01845 0.640463 0.52813 1.306653 1.02591 1.99686 1.49144 0.398963 0.26909 0.822493 0.50272 1.236948 0.74977h0.835953v-3.86546a22.711171 22.062282 0 0 1-0.365001-0.21748 22.711171 22.062282 0 0 1-1.500559-1.10818h-3.325565z" style="fill:#41a1f0"/>
   <rect x="20.24" y="282.6" width="5.191" height="5.191" style="fill:#63b4f4"/>
   <rect x="25.43" y="282.6" width="5.191" height="5.191" style="fill:#8fc9f8"/>
   <rect x="30.62" y="282.6" width="5.191" height="5.191" style="fill:#badcf9"/>
   <rect x="35.81" y="282.6" width="5.191" height="5.191" style="fill:#d2e8fb"/>
   <rect x="41" y="282.6" width="5.191" height="5.191" style="fill:#e0effa"/>
   <rect x="46.19" y="256.65" width="5.191" height="5.191" style="fill:#63b4f4"/>
   <rect x="46.19" y="261.84" width="5.191" height="5.191" style="fill:#8fc9f8"/>
   <path d="m53.465763 256.64554a22.711171 22.062282 0 0 0-0.530771-1.15229 22.711171 22.062282 0 0 0-1.129475-1.91321 22.711171 22.062282 0 0 0-0.422794-0.57437v3.63987z" style="fill:#63b4f4"/>
   <path d="m56.573848 255.29656c-0.317323-0.74466-0.664456-1.47379-1.047351-2.18038-0.309575-0.57129-0.657105-1.1176-1.007301-1.66177h-3.136473v1.55126a22.711171 22.062282 0 0 1 0.422794 0.57437 22.711171 22.062282 0 0 1 1.129475 1.91321 22.711171 22.062282 0 0 1 0.530771 1.15229h3.108085z" style="fill:#63b4f4"/>
   <rect x="51.38" y="256.65" width="5.191" height="5.191" style="fill:#8fc9f8"/>
   <rect x="51.38" y="261.84" width="5.191" height="5.191" style="fill:#badcf9"/>
   <rect x="46.19" y="267.03" width="5.191" height="5.191" style="fill:#badcf9"/>
   <rect x="51.38" y="267.03" width="5.191" height="5.191" style="fill:#d2e8fb"/>
   <rect x="46.19" y="272.22" width="5.191" height="5.191" style="fill:#d2e8fb"/>
   <rect x="51.38" y="272.22" width="5.191" height="5.191" style="fill:#e0effa"/>
   <rect x="46.19" y="277.41" width="5.191" height="5.191" style="fill:#e0effa"/>
   <rect x="20.24" y="241.07" width="5.191" height="5.191" style="fill:#051e45"/>
   <rect x="9.85" y="251.45" width="5.191" height="5.191" style="fill:#07275a"/>
   <ellipse transform="matrix(0,-1,-1,0,0,0)" cx="-265.482" cy="-32.742" rx="22.062" ry="22.711" style="fill:#ffffff;opacity:.1"/>
   <ellipse transform="matrix(0,-1,-1,0,0,0)" cx="-265.482" cy="-32.742" rx="14.708" ry="15.141" style="fill:#fbfbfb;opacity:.15"/>
   <ellipse transform="matrix(-.14318367 -.98969613 -.9908087 .13527053 0 0)" cx="-267.485" cy="5.571" rx="7.358" ry="7.566" style="fill:#f0f0f0;opacity:.2"/>
   <ellipse transform="matrix(.9908087 -.13527054 .14318367 .98969613 0 0)" cx="-2.19" cy="264.974" rx="2.27" ry="2.208" style="fill:#ffffff;opacity:.3"/>
   <ellipse transform="matrix(.9908087 -.13527054 .14318367 .98969613 0 0)" cx="-9.027" cy="269.984" rx=".757" ry=".736" style="fill:#ffffff;opacity:.3"/>
   <ellipse cx="42.064" cy="255.922" rx="9.084" ry="8.825" style="fill:#ffffff;opacity:.2"/>
   <path transform="matrix(.25955626 0 0 .25955626 -.5285281 232.76636)" d="m125.97852 24.753906v2e-3a102.21652 102.21652 0 0 0-3.32618 0.125c-0.19045-0.02268-0.35597-0.117187-0.55273-0.117187h-94.136719c-2.260035 0-4.076172 1.82011-4.076172 4.080078v95.73633a102.21652 102.21652 0 0 0-0.123047 2.390573 102.21652 102.21652 0 0 0 102.21485 102.21875 102.21652 102.21652 0 0 0 102.2207-102.21679 102.21652 102.21652 0 0 0-102.2207-102.21875zm-76.617192 15.376953a7.9999996 7.9999996 0 0 1 8 8 7.9999996 7.9999996 0 0 1-8 8 7.9999996 7.9999996 0 0 1-8-8 7.9999996 7.9999996 0 0 1 8-8zm76.615232 2.81836a84.023187 84.023187 0 0 1 84.02735 84.029301h-0.00391a84.023187 84.023187 0 0 1-84.02344 84.01757 84.023187 84.023187 0 0 1-84.019529-84.01757 84.023187 84.023187 0 0 1 84.019529-84.029301z" style="display:block;fill:#060606;filter:url(#filter1916);opacity:.3;paint-order:fill markers stroke"/>
   <path d="m32.169985 239.1914v5e-4a26.530937 26.530937 0 0 0-0.863331 0.0324c-0.04943-6e-3 -0.09239-0.0304-0.143464-0.0304h-24.433775c-0.5866062 0-1.0579959 0.47242-1.0579959 1.05901v24.84896a26.530937 26.530937 0 0 0-0.031938 0.6205 26.530937 26.530937 0 0 0 26.530504 26.53152 26.530937 26.530937 0 0 0 26.532022-26.53101 26.530937 26.530937 0 0 0-26.532022-26.53151zm-19.886472 3.99118a2.0764499 2.0764499 0 0 1 2.07645 2.07645 2.0764499 2.0764499 0 0 1-2.07645 2.07645 2.0764499 2.0764499 0 0 1-2.07645-2.07645 2.0764499 2.0764499 0 0 1 2.07645-2.07645zm19.885963 0.73152a21.808744 21.808744 0 0 1 21.809825 21.81033h-1e-3a21.808744 21.808744 0 0 1-21.808825 21.80729 21.808744 21.808744 0 0 1-21.807794-21.80729 21.808744 21.808744 0 0 1 21.807794-21.81033z" style="display:block;fill:url(#e);paint-order:fill markers stroke"/>
  </g>
 </g>
</svg>
