<svg xmlns="http://www.w3.org/2000/svg" xmlns:xlink="http://www.w3.org/1999/xlink" width="256" height="256" version="1.0" style="enable-background:new">
 <defs>
  <filter style="color-interpolation-filters:sRGB" id="filter925" width="1.046" height="1.05" x="-.02" y="-.03">
   <feGaussianBlur stdDeviation="2.32"/>
  </filter>
  <filter style="color-interpolation-filters:sRGB" id="filter931" width="1.023" height="1.025" x="-.01" y="-.01">
   <feGaussianBlur stdDeviation="1.16"/>
  </filter>
  <linearGradient id="linearGradient1108" x1="296" x2="296" y1="-212" y2="236" gradientUnits="userSpaceOnUse" xlink:href="#linearGradient1013"/>
  <linearGradient id="linearGradient1013">
   <stop offset="0" style="stop-color:#ffffff"/>
   <stop style="stop-color:#ffffff;stop-opacity:0.09803922" offset=".125"/>
   <stop style="stop-color:#000000;stop-opacity:0.09803922" offset=".925"/>
   <stop offset="1" style="stop-color:#000000;stop-opacity:0.49803922"/>
  </linearGradient>
  <clipPath id="clipPath1082-3" clipPathUnits="userSpaceOnUse">
   <path d="M 361.9375,-212 C 507.2348,-212 528,-191.28677 528,-46.125 V 70.125 C 528,215.28618 507.2348,236 361.9375,236 H 214.0625 C 68.7652,236 48,215.28618 48,70.125 V -46.125 C 48,-191.28677 68.7652,-212 214.0625,-212 Z" style="fill:#8c59d9"/>
  </clipPath>
 </defs>
 <g transform="translate(0,-44)">
  <g>
   <g>
    <path d="m 162.53675,62.431991 c 72.64865,0 83.03125,10.356615 83.03125,82.937499 v 58.125 c 0,72.58059 -10.3826,82.9375 -83.03125,82.9375 h -73.9375 c -72.64865,0 -83.0312501,-10.35691 -83.0312501,-82.9375 v -58.125 c 0,-72.580884 10.3826001,-82.937499 83.0312501,-82.937499 z" style="opacity:0.2;filter:url(#filter925)"/>
    <path style="opacity:0.1;filter:url(#filter931)" d="m 162.53675,61.431991 c 72.64865,0 83.03125,10.356615 83.03125,82.937499 v 58.125 c 0,72.58059 -10.3826,82.9375 -83.03125,82.9375 h -73.9375 c -72.64865,0 -83.0312501,-10.35691 -83.0312501,-82.9375 v -58.125 c 0,-72.580884 10.3826001,-82.937499 83.0312501,-82.937499 z"/>
   </g>
   <g>
    <path style="fill:#395aaf" d="m 162.53675,60.431991 c 72.64865,0 83.03125,10.356615 83.03125,82.937499 v 58.125 c 0,72.58059 -10.3826,82.9375 -83.03125,82.9375 h -73.9375 c -72.64865,0 -83.0312501,-10.35691 -83.0312501,-82.9375 v -58.125 c 0,-72.580884 10.3826001,-82.937499 83.0312501,-82.937499 z"/>
   </g>
   <g>
    <path d="M 361.9375,-212 C 507.2348,-212 528,-191.28677 528,-46.125 V 70.125 C 528,215.28618 507.2348,236 361.9375,236 H 214.0625 C 68.7652,236 48,215.28618 48,70.125 V -46.125 C 48,-191.28677 68.7652,-212 214.0625,-212 Z" clip-path="url(#clipPath1082-3)" transform="matrix(0.5,0,0,0.5,-18.432,166.43199)" style="opacity:0.4;fill:none;stroke:url(#linearGradient1108);stroke-width:8;stroke-linecap:round;stroke-linejoin:round"/>
    <path style="fill:#ffffff" d="m 92.476985,100.01403 a 12.5,12.5 0 0 0 -12.49999,12.5 12.5,12.5 0 0 0 6.59179,11.0039 l -3.06836,1.58007 -3.65429,1.88285 a 9.9999993,9.9999993 0 0 0 0.13478,-1.61526 9.9999993,9.9999993 0 0 0 -10,-9.99999 9.9999993,9.9999993 0 0 0 -10,9.99999 9.9999993,9.9999993 0 0 0 10,9.99999 9.9999993,9.9999993 0 0 0 2.02344,-0.20901 l -0.83594,0.99413 c -5.34886,6.35675 -11.48478,21.21679 -13.7168,33.22072 -1.08039,5.81042 -2.97759,26.95922 -2.4668,27.49999 0.10647,0.11263 1.12343,-3.34185 2.25977,-7.67773 5.98487,-22.83639 15.61244,-40.21001 24.72851,-44.62307 5.11136,-2.47434 10.64259,-2.24239 14.58203,0.61134 6.601045,4.78175 10.227125,10.85447 18.863295,31.58204 8.09069,19.41842 10.98444,25.64833 14.36914,30.93944 0.72148,1.12788 1.23676,1.9542 1.59765,2.58984 a 9.9999993,9.9999993 0 0 0 -3.11718,-0.51171 9.9999993,9.9999993 0 0 0 -10,10.00007 9.9999993,9.9999993 0 0 0 10,9.99994 9.9999993,9.9999993 0 0 0 9.4375,-6.73243 c 0.34076,-0.80065 0.55078,-1.68155 0.55078,-2.65236 v -0.28913 a 9.9999993,9.9999993 0 0 0 0.0117,-0.32618 9.9999993,9.9999993 0 0 0 -0.0117,-0.23055 v -1.88866 l 2.3125,1.64844 c 1.27214,0.90584 2.70564,1.64651 3.18554,1.64651 0.28925,0 0.49027,0.0726 0.63086,0.18179 a 12.5,12.5 0 0 0 -7.00781,11.21091 12.5,12.5 0 0 0 12.5,12.50004 12.5,12.5 0 0 0 12.5,-12.50004 12.5,12.5 0 0 0 -6.51562,-10.96093 l 2.05078,-1.20892 c 1.37744,-0.81214 2.18656,-1.27513 2.68164,-1.42189 a 9.9999993,9.9999993 0 0 0 -0.0625,1.02342 9.9999993,9.9999993 0 0 0 9.99999,9.99998 9.9999993,9.9999993 0 0 0 10,-9.99998 9.9999993,9.9999993 0 0 0 -10,-10.00003 9.9999993,9.9999993 0 0 0 -2.76172,0.39844 l 0.45509,-0.73825 c 3.85655,-6.24594 11.72788,-24.77806 13.45311,-31.67384 l 0.32032,-1.28323 a 7.4999995,7.4999995 0 0 0 6.73829,4.22657 7.4999995,7.4999995 0 0 0 7.5,-7.49998 7.4999995,7.4999995 0 0 0 -7.5,-7.50002 7.4999995,7.4999995 0 0 0 -3.34961,0.79888 c -0.0132,-0.21883 0.0272,-0.49228 0.10741,-0.83599 2.04015,-8.75486 2.98707,-13.07354 3.39258,-15.54486 0.0178,-0.0544 0.0616,-0.16176 0.0664,-0.18746 0.19196,-1.02036 0.84604,-6.48994 0.79883,-7.23047 0.0879,-0.9818 -0.11743,-0.0612 -0.40234,0.99606 -0.75809,2.81352 -1.18914,4.6162 -1.4961,6.02347 -0.0409,0.13304 -0.0661,0.18671 -0.10938,0.33222 -4.5844,15.38903 -11.30961,28.86066 -19.5586,37.11519 -5.90829,5.91224 -10.55243,8.29496 -16.17382,8.29496 -6.25026,0 -11.98979,-5.92066 -18.14063,-18.71486 -3.77738,-7.85726 -5.09271,-10.71356 -4.7832,-11.75198 a 7.4999995,7.4999995 0 0 0 2.35351,0.38872 7.4999995,7.4999995 0 0 0 7.5,-7.50002 7.4999995,7.4999995 0 0 0 -7.5,-7.49998 7.4999995,7.4999995 0 0 0 -6.96484,4.72456 l -1.83984,-3.67971 c -1.14059,-2.28143 -4.18491,-7.07629 -6.76563,-10.65426 -1.81901,-2.52196 -3.36292,-4.76757 -4.14062,-5.99607 a 9.9999993,9.9999993 0 0 0 2.35546,0.29292 9.9999993,9.9999993 0 0 0 10,-9.99995 9.9999993,9.9999993 0 0 0 -10,-9.99999 9.9999993,9.9999993 0 0 0 -10,9.99999 9.9999993,9.9999993 0 0 0 0.15428,1.68551 c -0.59749,-0.17234 -1.80914,-0.80821 -4.335945,-2.08985 -0.81689,-0.41435 -1.34508,-0.69539 -1.87695,-0.98048 a 12.5,12.5 0 0 0 6.949225,-11.18358 12.5,12.5 0 0 0 -12.500005,-12.5 z"/>
   </g>
  </g>
 </g>
 <path style="opacity:0.1;fill:#ffffff" d="m 88.596263,241.43493 c -72.64865,0 -83.03125,-10.35258 -83.03125,-82.905 V 129.47879 H 245.56503 v 29.05114 c 0,72.55242 -10.3826,82.905 -83.03126,82.905 z"/>
</svg>
