<svg xmlns="http://www.w3.org/2000/svg" xmlns:xlink="http://www.w3.org/1999/xlink" width="256" height="256" version="1.1" viewBox="0 0 67.73 67.73">
 <defs>
  <filter style="color-interpolation-filters:sRGB" id="filter1001" width="1.12" height="1.12" x="-.06" y="-.06">
   <feGaussianBlur stdDeviation="1.2"/>
  </filter>
  <linearGradient id="linearGradient1091" x1="128" x2="185.544" y1="100" y2="133.849" gradientTransform="translate(-26.432006,-38.431995)" gradientUnits="userSpaceOnUse" xlink:href="#linearGradient1129"/>
  <linearGradient id="linearGradient1129">
   <stop style="stop-color:#000000;stop-opacity:0" offset="0"/>
   <stop offset="1" style="stop-color:#000000"/>
  </linearGradient>
  <linearGradient id="linearGradient1121" x1="128" x2="264" y1="100" y2="180" gradientTransform="translate(-26.432006,-40.431995)" gradientUnits="userSpaceOnUse" xlink:href="#linearGradient4463"/>
  <linearGradient id="linearGradient4463">
   <stop offset="0" style="stop-color:#000000;stop-opacity:0"/>
   <stop style="stop-color:#000000" offset=".423"/>
   <stop offset="1" style="stop-color:#000000;stop-opacity:0"/>
  </linearGradient>
  <linearGradient id="linearGradient1108" x1="296" x2="296" y1="-212" y2="236" gradientUnits="userSpaceOnUse" xlink:href="#linearGradient1013"/>
  <linearGradient id="linearGradient1013">
   <stop offset="0" style="stop-color:#ffffff"/>
   <stop style="stop-color:#ffffff;stop-opacity:0.09803922" offset=".125"/>
   <stop style="stop-color:#000000;stop-opacity:0.09803922" offset=".925"/>
   <stop offset="1" style="stop-color:#000000;stop-opacity:0.49803922"/>
  </linearGradient>
  <clipPath id="clipPath1082-3-3675" clipPathUnits="userSpaceOnUse">
   <path d="M 361.9375,-212 C 507.2348,-212 528,-191.28677 528,-46.125 V 70.125 C 528,215.28618 507.2348,236 361.9375,236 H 214.0625 C 68.7652,236 48,215.28618 48,70.125 V -46.125 C 48,-191.28677 68.7652,-212 214.0625,-212 Z" style="fill:#8c59d9"/>
  </clipPath>
  <clipPath id="clipPath1064-6" clipPathUnits="userSpaceOnUse">
   <path style="fill:#a3dbf0" d="M 115.03125,44 C 42.3826,44 32,54.356615 32,126.9375 v 58.125 c 0,10.16582 0.217657,19.07051 0.767578,26.9375 3.376331,48.30069 19.790377,56 82.263672,56 h 73.9375 c 62.4733,0 78.88734,-7.69931 82.26367,-56 C 271.78234,204.13301 272,195.22832 272,185.0625 v -58.125 C 272,54.356615 261.6174,44 188.96875,44 Z"/>
  </clipPath>
  <filter style="color-interpolation-filters:sRGB" id="filter956" width="1.046" height="1.05" x="-.02" y="-.03">
   <feGaussianBlur stdDeviation="2.32"/>
  </filter>
  <filter style="color-interpolation-filters:sRGB" id="filter4569" width="1.023" height="1.025" x="-.01" y="-.01">
   <feGaussianBlur stdDeviation="1.16"/>
  </filter>
 </defs>
 <g transform="translate(0,-229.26666)">
  <g style="enable-background:new" transform="matrix(0.12974173,0,0,0.12974173,3.8344818,227.85345)">
   <path d="m 162.53675,3.5680001 c 72.64865,0 83.03125,10.3566149 83.03125,82.9375049 v 58.125005 c 0,72.58059 -10.3826,82.9375 -83.03125,82.9375 H 88.599254 C 15.9506,227.56801 5.568,217.2111 5.568,144.63051 V 86.505505 c 0,-72.58089 10.3826,-82.9375049 83.031254,-82.9375049 z" transform="matrix(2.0393079,0,0,2.0393079,-29.55473,37.126102)" style="opacity:0.1;filter:url(#filter4569)"/>
   <path style="opacity:0.2;filter:url(#filter956)" d="M 5.5683594 101.36914 L 5.5683594 157.49414 C 5.5683594 166.56671 5.7304589 174.6671 6.15625 181.89648 C 6.3691456 185.51118 6.6485154 188.90772 7.0058594 192.09961 C 7.3632033 195.29149 7.7990459 198.27982 8.3261719 201.07422 C 8.8532979 203.86862 9.4711176 206.47033 10.193359 208.89258 C 10.915601 211.31482 11.740902 213.5574 12.683594 215.63281 C 13.626285 217.70822 14.686525 219.61523 15.875 221.36914 C 17.063475 223.12305 18.380252 224.72392 19.839844 226.18164 C 21.299435 227.63937 22.902161 228.95375 24.658203 230.14062 C 26.414245 231.3275 28.324517 232.38678 30.402344 233.32812 C 32.48017 234.26947 34.725446 235.09332 37.150391 235.81445 C 39.575335 236.53559 42.179166 237.15343 44.976562 237.67969 C 47.773959 238.20595 50.763803 238.64134 53.958984 238.99805 C 57.154166 239.35475 60.555527 239.63323 64.173828 239.8457 C 71.41043 240.27066 79.518528 240.43164 88.599609 240.43164 L 162.53711 240.43164 C 171.61819 240.43164 179.72629 240.27066 186.96289 239.8457 C 190.58119 239.63323 193.9806 239.35475 197.17578 238.99805 C 200.37096 238.64134 203.36081 238.20595 206.1582 237.67969 C 208.9556 237.15343 211.56138 236.53559 213.98633 235.81445 C 216.41127 235.09332 218.65655 234.26947 220.73438 233.32812 C 222.8122 232.38678 224.72247 231.3275 226.47852 230.14062 C 228.23456 228.95375 229.83533 227.63937 231.29492 226.18164 C 232.75451 224.72392 234.07324 223.12305 235.26172 221.36914 C 236.45019 219.61523 237.50848 217.70822 238.45117 215.63281 C 239.39386 213.5574 240.22112 211.31482 240.94336 208.89258 C 241.6656 206.47033 242.28342 203.86862 242.81055 201.07422 C 243.33767 198.27982 243.77352 195.29149 244.13086 192.09961 C 244.4882 188.90772 244.76757 185.51118 244.98047 181.89648 C 245.40626 174.6671 245.56836 166.56671 245.56836 157.49414 L 245.56836 101.36914 C 245.56836 28.78825 235.18576 18.431641 162.53711 18.431641 L 88.599609 18.431641 C 15.950955 18.431641 5.5683594 28.78825 5.5683594 101.36914 z" transform="matrix(2.0393079,0,0,2.0393079,-29.55473,10.892486)"/>
   <path style="fill:#a3dbf0" d="m 151.12641,44.402363 c -148.1529701,0 -169.32629,21.120327 -169.32629,169.135107 v 118.53478 c 0,20.73123 0.44387,38.89064 1.56533,54.93385 l 31.0636,16.31447 h 424.17603 l 31.0636,-16.31447 c 1.12145,-16.04321 1.56533,-34.20262 1.56533,-54.93385 V 213.53747 c 0,-148.01478 -21.17332,-169.135107 -169.32628,-169.135107 z"/>
   <path style="fill:#8fbf3a" d="m -16.63455,387.0061 c 6.8853799,98.49998 40.35867,114.20125 167.76096,114.20125 h 150.78132 c 127.40229,0 160.87557,-15.70127 167.76095,-114.20125 H 31.763165 Z"/>
   <g style="enable-background:new" clip-path="url(#clipPath1064-6)" transform="matrix(2.0393079,0,0,2.0393079,-83.45773,-45.327183)">
    <path style="opacity:0.1;fill:#ffffff" d="M 64.25 239.84766 C 71.469454 240.26965 79.546849 240.43164 88.599609 240.43164 L 162.53711 240.43164 C 171.61819 240.43164 179.72629 240.27066 186.96289 239.8457 C 190.58119 239.63323 193.9806 239.35475 197.17578 238.99805 C 200.37096 238.64134 203.36081 238.20595 206.1582 237.67969 C 208.9556 237.15343 211.56138 236.53559 213.98633 235.81445 C 216.41127 235.09332 218.65655 234.26947 220.73438 233.32812 C 222.8122 232.38678 224.72247 231.3275 226.47852 230.14062 C 228.23456 228.95375 229.83533 227.63937 231.29492 226.18164 C 232.75451 224.72392 234.07324 223.12305 235.26172 221.36914 C 236.45019 219.61523 237.50848 217.70822 238.45117 215.63281 C 239.39386 213.5574 240.22112 211.31482 240.94336 208.89258 C 241.6656 206.47033 242.28342 203.86862 242.81055 201.07422 C 243.33767 198.27982 243.77352 195.29149 244.13086 192.09961 C 244.4882 188.90772 244.76757 185.51118 244.98047 181.89648 C 245.40626 174.6671 245.56836 166.56671 245.56836 157.49414 L 245.56836 99.369141 C 245.56836 90.296529 245.40626 82.196203 244.98047 74.966797 C 244.76757 71.352094 244.4882 67.955563 244.13086 64.763672 C 243.77352 61.571781 243.33767 58.585421 242.81055 55.791016 C 242.28342 52.996611 241.6656 50.394901 240.94336 47.972656 C 240.22112 45.550411 239.39386 43.307833 238.45117 41.232422 C 237.50848 39.157011 236.45019 37.248043 235.26172 35.494141 C 234.07324 33.740238 232.75451 32.141314 231.29492 30.683594 C 229.83533 29.225873 228.23456 27.909521 226.47852 26.722656 C 224.72247 25.535792 222.8122 24.478444 220.73438 23.537109 C 218.65655 22.595775 216.41127 21.769958 213.98633 21.048828 C 211.56138 20.327698 208.9556 19.709846 206.1582 19.183594 C 203.36081 18.657341 200.37096 18.221935 197.17578 17.865234 C 193.9806 17.508534 190.58119 17.232005 186.96289 17.019531 C 185.1847 16.915112 182.84588 16.949147 180.96094 16.875 L 64.25 239.84766 z" transform="translate(26.432007,27.568014)"/>
    <path style="fill:#b6e2f3" d="M 180.98828 16.875 C 175.19511 16.646654 169.39693 16.431641 162.53711 16.431641 L 133.2207 16.431641 L 45.568359 184.43164 L 93.568359 184.43164 L 180.98828 16.875 z" transform="translate(26.432007,27.568014)"/>
    <path style="fill:#ffda64" d="M 239.21094 43.285156 C 238.94508 42.621654 238.7383 41.864564 238.45117 41.232422 C 237.50848 39.157011 236.45019 37.248043 235.26172 35.494141 C 234.07324 33.740238 232.75451 32.141314 231.29492 30.683594 C 229.83533 29.225873 228.23456 27.909521 226.47852 26.722656 C 224.72247 25.535792 222.8122 24.478444 220.73438 23.537109 C 218.65655 22.595775 216.41127 21.769958 213.98633 21.048828 C 211.56138 20.327698 208.9556 19.709846 206.1582 19.183594 C 203.36081 18.657341 200.37096 18.221935 197.17578 17.865234 C 193.9806 17.508534 190.58119 17.232005 186.96289 17.019531 C 185.19279 16.915588 182.86415 16.94894 180.98828 16.875 L 93.568359 184.43164 L 165.56836 184.43164 L 239.21094 43.285156 z" transform="translate(26.432007,27.568014)"/>
    <path style="fill:#b6e2f3" d="M 245.56836 123.09766 L 245.56836 99.369141 C 245.56836 90.296529 245.40626 82.196203 244.98047 74.966797 C 244.76757 71.352094 244.4882 67.955563 244.13086 64.763672 C 243.77352 61.571781 243.33767 58.585421 242.81055 55.791016 C 242.28342 52.996611 241.6656 50.394901 240.94336 47.972656 C 240.4411 46.288195 239.81794 44.800024 239.21094 43.285156 L 165.56836 184.43164 L 213.56836 184.43164 L 245.56836 123.09766 z" transform="translate(26.432007,27.568014)"/>
   </g>
   <path d="M 361.9375,-212 C 507.2348,-212 528,-191.28677 528,-46.125 V 70.125 C 528,215.28618 507.2348,236 361.9375,236 H 214.0625 C 68.7652,236 48,215.28618 48,70.125 V -46.125 C 48,-191.28677 68.7652,-212 214.0625,-212 Z" clip-path="url(#clipPath1082-3-3675)" transform="matrix(1.0196539,0,0,1.0196539,-67.14327,260.56901)" style="opacity:0.4;fill:none;stroke:url(#linearGradient1108);stroke-width:8;stroke-linecap:round;stroke-linejoin:round"/>
   <path d="m 181.56799,51.568005 a 24,24 0 0 0 -24,24 24,24 0 0 0 24,24 24,24 0 0 0 24,-24 24,24 0 0 0 -24,-24 z m -88.365226,28.37109 -47.63477,91.628915 h 95.269526 24.73047 l -36,-69 -12.32227,23.61914 z" transform="matrix(2.0393079,0,0,2.0393079,-29.55473,37.126102)" style="opacity:0.1;fill:url(#linearGradient1121);filter:url(#filter1117)"/>
   <path style="opacity:0.3;fill:url(#linearGradient1091);filter:url(#filter1101)" d="m 93.202764,81.939095 -47.63477,91.628915 h 95.269526 24.73047 l -36,-69 -12.32227,23.61914 z" transform="matrix(2.0393079,0,0,2.0393079,-29.55473,37.126102)"/>
   <path d="M 63.372438,387.0061 160.51497,200.14786 257.6575,387.0061 Z" style="fill:#f2f2f2"/>
   <path style="fill:#f9f9f9" d="M 161.25922,387.0061 234.67429,246.29386 308.08938,387.0061 Z"/>
   <circle cx="181.568" cy="77.568" r="24" transform="matrix(2.0393079,0,0,2.0393079,-29.55473,37.126102)" style="opacity:0.1;filter:url(#filter1001)"/>
   <circle style="fill:#f9f9f9" cx="340.718" cy="191.233" r="48.943"/>
   <path style="fill:#ffffff" d="m 340.71831,142.28915 a 48.943389,48.943389 0 0 0 -48.94339,48.94339 48.943389,48.943389 0 0 0 0.0438,0.85236 48.943389,48.943389 0 0 1 48.89955,-47.75645 48.943389,48.943389 0 0 1 48.89958,48.09102 48.943389,48.943389 0 0 0 0.0439,-1.18693 48.943389,48.943389 0 0 0 -48.94339,-48.94339 z M 160.5144,200.14653 63.372438,387.0061 h 1.059483 l 96.082479,-184.82026 49.03099,94.31403 25.1289,-48.1667 72.35163,138.67293 h 1.06346 l -73.41509,-140.71224 -25.1289,48.1667 z"/>
  </g>
 </g>
</svg>
