<?xml version="1.0" encoding="UTF-8" standalone="no"?>
<svg
   xmlns:dc="http://purl.org/dc/elements/1.1/"
   xmlns:cc="http://creativecommons.org/ns#"
   xmlns:rdf="http://www.w3.org/1999/02/22-rdf-syntax-ns#"
   xmlns:svg="http://www.w3.org/2000/svg"
   xmlns="http://www.w3.org/2000/svg"
   xmlns:xlink="http://www.w3.org/1999/xlink"
   xmlns:sodipodi="http://sodipodi.sourceforge.net/DTD/sodipodi-0.dtd"
   xmlns:inkscape="http://www.inkscape.org/namespaces/inkscape"
   width="256"
   height="256"
   version="1.1"
   viewBox="0 0 67.73 67.73"
   id="svg83"
   sodipodi:docname="polari.svg"
   inkscape:version="0.92.3 (2405546, 2018-03-11)">
  <metadata
     id="metadata87">
    <rdf:RDF>
      <cc:Work
         rdf:about="">
        <dc:format>image/svg+xml</dc:format>
        <dc:type
           rdf:resource="http://purl.org/dc/dcmitype/StillImage" />
      </cc:Work>
    </rdf:RDF>
  </metadata>
  <sodipodi:namedview
     pagecolor="#ffffff"
     bordercolor="#666666"
     borderopacity="1"
     objecttolerance="10"
     gridtolerance="10"
     guidetolerance="10"
     inkscape:pageopacity="0"
     inkscape:pageshadow="2"
     inkscape:window-width="1920"
     inkscape:window-height="1009"
     id="namedview85"
     showgrid="false"
     inkscape:zoom="3.0853378"
     inkscape:cx="33.367814"
     inkscape:cy="135.75827"
     inkscape:window-x="0"
     inkscape:window-y="34"
     inkscape:window-maximized="1"
     inkscape:current-layer="svg83" />
  <defs
     id="defs47">
    <linearGradient
       id="linearGradient1108-7"
       x1="296"
       x2="296"
       y1="-212"
       y2="236"
       gradientUnits="userSpaceOnUse">
      <stop
         style="stop-color:#ffffff"
         offset="0"
         id="stop2" />
      <stop
         style="stop-color:#ffffff;stop-opacity:.09803922"
         offset=".125"
         id="stop4" />
      <stop
         style="stop-color:#000000;stop-opacity:.09803922"
         offset=".925"
         id="stop6" />
      <stop
         style="stop-color:#000000;stop-opacity:.49803922"
         offset="1"
         id="stop8" />
    </linearGradient>
    <clipPath
       id="clipPath1082-3-367535">
      <path
         d="M 361.9375,-212 C 507.2348,-212 528,-191.28677 528,-46.125 V 70.125 C 528,215.28618 507.2348,236 361.9375,236 H 214.0625 C 68.7652,236 48,215.28618 48,70.125 V -46.125 C 48,-191.28677 68.7652,-212 214.0625,-212 Z"
         style="fill:#8c59d9"
         id="path11" />
    </clipPath>
    <linearGradient
       id="linearGradient4177"
       x1="121.976"
       x2="108.56"
       y1="330.553"
       y2="348.038"
       gradientTransform="matrix(.13229166 0 0 .13229166 -.64346802 226.99971)"
       gradientUnits="userSpaceOnUse"
       xlink:href="#linearGradient4120" />
    <linearGradient
       id="linearGradient4120">
      <stop
         style="stop-color:#e6a240;stop-opacity:.996"
         offset="0"
         id="stop15" />
      <stop
         style="stop-color:#eab261;stop-opacity:.27450982"
         offset="1"
         id="stop17" />
    </linearGradient>
    <linearGradient
       id="linearGradient4164"
       x1="354.037"
       x2="370.342"
       y1="292.996"
       y2="314.245"
       gradientTransform="matrix(.13229166 0 0 .13229166 -.64346802 226.99971)"
       gradientUnits="userSpaceOnUse"
       xlink:href="#linearGradient4120" />
    <linearGradient
       id="linearGradient4134"
       x1="211.404"
       x2="211.404"
       y1="344.742"
       y2="375.678"
       gradientTransform="matrix(.9804643 0 0 .9804643 -179.95032 -89.258974)"
       gradientUnits="userSpaceOnUse">
      <stop
         style="stop-color:#fdfdfb"
         offset="0"
         id="stop21" />
      <stop
         style="stop-color:#f0e9df"
         offset="1"
         id="stop23" />
    </linearGradient>
    <linearGradient
       id="linearGradient4143"
       x1="297.987"
       x2="299.397"
       y1="344.067"
       y2="141.4"
       gradientTransform="matrix(.13229166 0 0 .13229166 -.64346802 229.38096)"
       gradientUnits="userSpaceOnUse">
      <stop
         style="stop-color:#f3e6d2;stop-opacity:.99607843"
         offset="0"
         id="stop26" />
      <stop
         style="stop-color:#f7f4ee"
         offset="1"
         id="stop28" />
    </linearGradient>
    <filter
       id="filter4500"
       x="-.01"
       y="-.01"
       width="1.021"
       height="1.028"
       style="color-interpolation-filters:sRGB">
      <feGaussianBlur
         stdDeviation="1.346"
         id="feGaussianBlur31" />
    </filter>
    <linearGradient
       id="linearGradient4479"
       x1="211.404"
       x2="232.776"
       y1="344.742"
       y2="375.408"
       gradientTransform="matrix(7.4113839,0,0,7.4113839,-1355.3904,-2406.6168)"
       gradientUnits="userSpaceOnUse">
      <stop
         style="stop-color:#000000;stop-opacity:0"
         offset="0"
         id="stop34" />
      <stop
         style="stop-color:#000000"
         offset=".67"
         id="stop36" />
      <stop
         style="stop-color:#000000;stop-opacity:0"
         offset="1"
         id="stop38" />
    </linearGradient>
    <filter
       id="filter958"
       x="-.02"
       y="-.03"
       width="1.046"
       height="1.05"
       style="color-interpolation-filters:sRGB">
      <feGaussianBlur
         stdDeviation="2.32"
         id="feGaussianBlur41" />
    </filter>
    <filter
       id="filter4569"
       x="-.01"
       y="-.01"
       width="1.023"
       height="1.025"
       style="color-interpolation-filters:sRGB">
      <feGaussianBlur
         stdDeviation="1.16"
         id="feGaussianBlur44" />
    </filter>
    <clipPath
       clipPathUnits="userSpaceOnUse"
       id="clipPath9814-1">
      <path
         style="fill:#ffffff;fill-opacity:1;fill-rule:evenodd;stroke:none;stroke-width:0.04519286px;stroke-linecap:butt;stroke-linejoin:miter;stroke-opacity:1"
         d="M 596.05078,612 C 591.59109,612 588,615.59109 588,620.05078 v 15.89844 c 0,4.44257 3.56412,8.0214 8,8.04883 V 652 l 8,-8 h 19.94922 C 628.40891,644 632,640.40891 632,635.94922 V 620.05078 C 632,615.59109 628.40891,612 623.94922,612 Z"
         id="path9816-0"
         inkscape:connector-curvature="0" />
    </clipPath>
  </defs>
  <g
     transform="translate(0,-229.26666)"
     id="g81">
    <path
       transform="matrix(.26458333 0 0 .26458333 -1.8735229e-8 232.67026)"
       d="m162.53675 3.5680001c72.64865 0 83.03125 10.356615 83.03125 82.937505v58.125005c0 72.58059-10.3826 82.9375-83.03125 82.9375h-73.937496c-72.648654 0-83.031254-10.35691-83.031254-82.9375v-58.125005c0-72.58089 10.3826-82.937505 83.031254-82.937505z"
       style="filter:url(#filter4569);opacity:.1"
       id="path49" />
    <path
       transform="matrix(.26458333 0 0 .26458333 -1.8735229e-8 232.67026)"
       d="m162.53675 5.5680001c72.64865 0 83.03125 10.356615 83.03125 82.937505v58.125005c0 72.58059-10.3826 82.9375-83.03125 82.9375h-73.937496c-72.648654 0-83.031254-10.35691-83.031254-82.9375v-58.125005c0-72.58089 10.3826-82.937505 83.031254-82.937505z"
       style="filter:url(#filter958);opacity:.2"
       id="path51" />
    <path
       d="m43.004513 233.61429c19.221622 0 21.968685 2.74019 21.968685 21.94388v15.37891c0 19.20362-2.747063 21.94388-21.968685 21.94388h-19.56263c-19.221621 0-21.968684-2.74026-21.968684-21.94388v-15.37891c0-19.20369 2.7470628-21.94388 21.968684-21.94388z"
       style="fill:#57e389;fill-opacity:1"
       id="path53" />
    <path
       d="m64.941159 252.37749-53.315092 39.72006c3.00092 0.59984 6.85916 0.78341 11.815816 0.78341h19.56263c19.221622 0 21.968685-2.74026 21.968685-21.94388v-15.37891c0-1.11685-0.01077-2.1725-0.03204-3.18068z"
       style="fill:#ffffff;opacity:.1"
       id="path55" />
    <path
       transform="matrix(.13229167 0 0 .13229167 -.64346802 229.38096)"
       d="m132.66406 147.40039c-14.29675-0.17869-23.90367 3.03093-28.83398 8.94727-5.17678 6.16289-7.83008 16.27482-7.83008 30.32617v128.11914c0 14.05139 2.6533 24.16133 7.83008 30.32422 4.93031 5.91635 14.53612 8.94922 28.83398 8.94922h33.95703l44.78321 31.61132 44.7832-31.61132h123.14844c14.29779 0 23.90344-3.03287 28.83398-8.94922 5.17678-6.16289 7.83008-16.27283 7.83008-30.32422v-128.11914c0-14.05135-2.6533-24.16328-7.83008-30.32617-4.9302-5.91634-14.53619-8.94727-28.83398-8.94727h-181.75z"
       style="fill:url(#linearGradient4479);filter:url(#filter4482);opacity:.2"
       id="path57" />
    <path
       transform="matrix(.13229167 0 0 .13229167 -.64346802 229.38096)"
       d="m132.66406 147.40039c-14.29675-0.17869-23.90367 3.03093-28.83398 8.94727-5.17678 6.16289-7.83008 16.27482-7.83008 30.32617v128.11914c0 14.05139 2.6533 24.16133 7.83008 30.32422 4.93031 5.91635 14.53612 8.94922 28.83398 8.94922h33.95703l44.78321 31.61132 44.7832-31.61132h123.14844c14.29779 0 23.90344-3.03287 28.83398-8.94922 5.17678-6.16289 7.83008-16.27283 7.83008-30.32422v-128.11914c0-14.05135-2.6533-24.16328-7.83008-30.32617-4.9302-5.91634-14.53619-8.94727-28.83398-8.94727h-181.75z"
       style="filter:url(#filter4500);opacity:.1"
       id="path59" />
    <path
       d="m12.056532 256.89763v13.86323c0 1.85889 0.35075 3.19635 1.035595 4.01165 0.652239 0.78268 1.923267 1.1839 3.814755 1.1839h4.492233l5.924184 4.18218 5.924703-4.18218h16.291513c1.891479 0 3.162482-0.40122 3.814754-1.1839 0.684842-0.8153 1.035595-2.15276 1.035595-4.01165v-13.86323z"
       style="fill:#deddda;fill-opacity:1"
       id="path61" />
    <path
       d="m16.906867 248.43096c-1.891341-0.0236-3.162263 0.42269-3.814502 1.20538-0.684845 0.8153-1.035833 2.15293-1.035833 4.0118v16.4606l9.342548 5.8477 5.924412 4.18194 5.924396-4.18194h1.1e-5l21.141965-16.05361v-6.25469c0-1.85888-0.350959-3.1965-1.035804-4.0118-0.652224-0.78268-1.923026-1.20538-3.814506-1.20538h-24.043996z"
       style="fill:#f6f5f4;fill-opacity:1"
       id="path63" />
    <path
       d="m16.906882 248.43096c-1.891341-0.0236-3.162515 0.42293-3.814755 1.20561-0.684844 0.8153-1.035595 2.15277-1.035595 4.01164v0.52917c0-1.85887 0.350751-3.19634 1.035595-4.01164 0.65224-0.78269 1.923414-1.22925 3.814755-1.20561h32.632633c1.891479 0 3.16253 0.42293 3.814754 1.20561 0.684845 0.8153 1.035595 2.15276 1.035595 4.01164v-0.52917c0-1.85887-0.35075-3.19634-1.035595-4.01164-0.652224-0.78268-1.923275-1.20561-3.814754-1.20561h-24.04401z"
       style="fill:#ffffff"
       id="path69" />
    <path
       d="m22.639865 257.95596v2.11667h21.166666v-2.11667z"
       style="fill:#57e389;fill-opacity:1"
       id="path71" />
    <path
       d="m21.581532 265.3643v2.11666h21.166665v-2.11666z"
       style="fill:#57e389;fill-opacity:1"
       id="path73" />
    <path
       d="m25.814865 271.7143h2.116666l3.175-17.99167h-2.116667z"
       style="fill:#57e389;fill-opacity:1"
       id="path75" />
    <path
       d="m34.281531 271.7143h2.116666l3.175-17.99167h-2.116666z"
       style="fill:#57e389;fill-opacity:1"
       id="path77" />
    <path
       transform="matrix(.13229167 0 0 .13229167 -4.876801 261.66013)"
       d="M 361.9375,-212 C 507.2348,-212 528,-191.28677 528,-46.125 V 70.125 C 528,215.28618 507.2348,236 361.9375,236 H 214.0625 C 68.7652,236 48,215.28618 48,70.125 V -46.125 C 48,-191.28677 68.7652,-212 214.0625,-212 Z"
       clip-path="url(#clipPath1082-3-367535)"
       style="fill:none;opacity:.6;stroke-linecap:round;stroke-linejoin:round;stroke-width:8;stroke:url(#linearGradient1108-7)"
       id="path79" />
  </g>
</svg>
