<svg xmlns="http://www.w3.org/2000/svg" xmlns:xlink="http://www.w3.org/1999/xlink" width="256" height="256" version="1.1" viewBox="0 0 67.73 67.73">
 <defs>
  <linearGradient id="linearGradient1108" x1="296" x2="296" y1="-212" y2="236" gradientUnits="userSpaceOnUse" xlink:href="#linearGradient1013"/>
  <linearGradient id="linearGradient1013">
   <stop style="stop-color:#ffffff" offset="0"/>
   <stop offset=".125" style="stop-color:#ffffff;stop-opacity:0.09803922"/>
   <stop offset=".925" style="stop-color:#000000;stop-opacity:0.09803922"/>
   <stop style="stop-color:#000000;stop-opacity:0.49803922" offset="1"/>
  </linearGradient>
  <clipPath id="clipPath1082-3-361" clipPathUnits="userSpaceOnUse">
   <path style="fill:#8c59d9" d="M 361.9375,-212 C 507.2348,-212 528,-191.28677 528,-46.125 V 70.125 C 528,215.28618 507.2348,236 361.9375,236 H 214.0625 C 68.7652,236 48,215.28618 48,70.125 V -46.125 C 48,-191.28677 68.7652,-212 214.0625,-212 Z"/>
  </clipPath>
  <filter id="filter4569" width="1.023" height="1.025" x="-.01" y="-.01" style="color-interpolation-filters:sRGB">
   <feGaussianBlur stdDeviation="1.16"/>
  </filter>
  <filter id="filter939" width="1.046" height="1.05" x="-.02" y="-.03" style="color-interpolation-filters:sRGB">
   <feGaussianBlur stdDeviation="2.32"/>
  </filter>
  <clipPath id="SVGID_18_-7">
   <use width="100%" height="100%" x="0" y="0" overflow="visible" xlink:href="#SVGID_17_-5"/>
  </clipPath>
  <path id="SVGID_17_-5" d="m 436,163.6 v 0 l -16.4,-28.3 c 23.9,-20.2 39.1,-50.3 39.1,-84 0,-60.7 -49.3,-110 -110,-110 -60.7,0 -110,49.3 -110,110 0,33.7 15.2,63.9 39.1,84.1 l -16.4,28.3 c -0.5,0.9 -0.8,1.8 -0.9,2.8 l -1.4,18.5 c -0.1,0.7 0.3,1.3 0.9,1.7 v 0 0 c 0.6,0.4 1.3,0.3 1.9,-0.1 l 15.4,-10.4 c 0.8,-0.6 1.5,-1.3 2,-2.1 v 0 l 15.5,-26.8 c 15.9,9 34.3,14.1 53.9,14.1 19.6,0 38,-5.2 54,-14.2 l 15.5,26.8 c 0.5,0.9 1.2,1.6 2,2.1 l 15.4,10.5 c 0.6,0.4 1.3,0.4 1.9,0.1 v 0 0 c 0.6,-0.4 0.9,-1 0.9,-1.7 L 437,166.5 c -0.2,-1 -0.4,-2 -1,-2.9 z"/>
 </defs>
 <g transform="translate(0,-229.26666)">
  <path d="m 162.53675,5.5680001 c 72.64865,0 83.03125,10.3566149 83.03125,82.9375049 v 58.125005 c 0,72.58059 -10.3826,82.9375 -83.03125,82.9375 H 88.599254 C 15.9506,229.56801 5.568,219.2111 5.568,146.63051 V 88.505505 c 0,-72.58089 10.3826,-82.9375049 83.031254,-82.9375049 z" transform="matrix(0.26970779,0,0,0.26970779,-1.9098094e-8,231.46531)" style="opacity:0.2;filter:url(#filter939)"/>
  <path style="opacity:0.1;fill:none;stroke:#000000;stroke-width:1.07883108;stroke-linecap:round;stroke-linejoin:round" d="m 43.837429,232.42763 c 19.593907,0 22.394176,2.79326 22.394176,22.36889 v 15.67677 c 0,19.57555 -2.800269,22.36889 -22.394176,22.36889 H 23.89591 c -19.5939088,0 -22.394177,-2.79334 -22.394177,-22.36889 v -15.67677 c 0,-19.57563 2.8002682,-22.36889 22.394177,-22.36889 z"/>
  <path style="opacity:0.1;filter:url(#filter4569)" d="m 162.53675,3.5680001 c 72.64865,0 83.03125,10.3566149 83.03125,82.9375049 v 58.125005 c 0,72.58059 -10.3826,82.9375 -83.03125,82.9375 H 88.599254 C 15.9506,227.56801 5.568,217.2111 5.568,144.63051 V 86.505505 c 0,-72.58089 10.3826,-82.9375049 83.031254,-82.9375049 z" transform="matrix(0.26970779,0,0,0.26970779,-1.9098094e-8,231.46531)"/>
  <path d="m 43.837428,232.42763 c 19.593907,0 22.394175,2.79326 22.394175,22.36889 v 15.67677 c 0,19.57555 -2.800268,22.36889 -22.394175,22.36889 h -19.94152 c -19.5939078,0 -22.394176,-2.79334 -22.394176,-22.36889 v -15.67677 c 0,-19.57563 2.8002682,-22.36889 22.394176,-22.36889 z" style="fill:#7cb342"/>
  <path style="opacity:0.4;fill:none;stroke:url(#linearGradient1108);stroke-width:8;stroke-linecap:round;stroke-linejoin:round" d="M 361.9375,-212 C 507.2348,-212 528,-191.28677 528,-46.125 V 70.125 C 528,215.28618 507.2348,236 361.9375,236 H 214.0625 C 68.7652,236 48,215.28618 48,70.125 V -46.125 C 48,-191.28677 68.7652,-212 214.0625,-212 Z" clip-path="url(#clipPath1082-3-361)" transform="matrix(0.1348539,0,0,0.1348539,-4.9712559,261.01666)"/>
  <path d="m 23.895907,292.84218 c -19.5939074,0 -22.3941756,-2.79326 -22.3941756,-22.36889 v -7.83838 H 66.231602 v 7.83838 c 0,19.57563 -2.800268,22.36889 -22.394175,22.36889 z" style="opacity:0.2;fill:#ffffff"/>
  <path d="m 33.866666,232.42763 v 60.41455 h 9.970761 c 19.593907,0 22.394175,-2.79334 22.394175,-22.36889 v -15.67677 c 0,-19.57563 -2.800268,-22.36889 -22.394175,-22.36889 z" style="opacity:0.2;fill:#ffffff"/>
  <g transform="matrix(0.62290625,0,0,0.62290625,-161.12437,228.84706)">
   <g transform="translate(-10.358931,10.6549)">
    <g>
     <g clip-path="url(#SVGID_18_-7)">
      <path style="fill:none" d="m 348.7,51.3 v 0 h 0.1 c 8.4,-0.1 15.3,-6.9 15.3,-15.4 0,-8.5 -6.9,-15.3 -15.3,-15.4 l -0.1,-0.2 v 0.2 c -8.4,0 -15.3,6.9 -15.3,15.4 0,8.5 6.8,15.4 15.3,15.4 z"/>
      <path d="m 320.71652,75.967841 c -3.93048,-0.422421 -6.35669,-1.109193 -10.24366,-2.899133 -3.44634,-1.587079 -8.0177,-5.426459 -9.02921,-6.445777 -0.95312,-1.579446 -3.16405,-3.879979 -2.39252,-5.436548 0.23652,-0.382844 0.79751,-0.308742 2.09301,0.276095 1.54924,0.699455 3.06179,0.788589 12.13587,0.715074 5.70132,-0.0458 15.31587,-0.301931 21.36566,-0.568278 6.04978,-0.266347 11.09872,-0.385311 11.21984,-0.264116 -0.95241,5.70293 -6.45602,10.748506 -11.2979,13.06218 -3.60797,1.6475 -8.21399,2.166443 -13.85109,1.560538 z" style="fill:#be6700"/>
      <path d="m 329.33762,77.529968 c -2.85042,-4.877007 -6.20947,-8.568874 -9.11957,-10.023144 -2.43713,-1.217904 -2.96457,-1.300815 -10.1207,-1.590896 -8.18247,-0.331677 -9.88713,-0.74475 -11.86178,-2.874318 -2.65453,-2.862798 -2.47538,-7.833731 0.50684,-14.063776 3.77344,-7.882925 12.43755,-14.302103 20.8435,-15.442793 4.14154,-0.562006 8.8414,3.010534 13.88932,10.557812 1.21767,1.820567 2.63775,4.442842 3.15574,5.827284 2.04134,5.455971 1.95932,12.918236 -0.2131,19.389756 -0.98138,2.923513 -4.82777,11.142613 -5.21453,11.142613 -0.0867,0 -0.92625,-1.315142 -1.86572,-2.922538 z" style="fill:#ffd100"/>
      <path d="m 333.89329,75.322345 c -0.0121,-0.140866 0.52524,-1.791351 1.19404,-3.26636 3.42722,-7.558563 3.41408,-16.190713 1.05097,-22.506711 -1.93482,-5.171269 -8.06061,-12.807917 -11.82301,-14.739028 l -2.19581,-1.127031 2.51207,0.239172 c 2.96521,0.282319 7.94232,1.905945 10.57868,3.450946 3.29625,1.931733 7.33885,6.318417 9.0273,9.795645 2.65154,5.460657 3.46983,10.549615 2.18918,13.614639 -0.39342,0.941586 -1.30629,1.875657 -2.61674,2.67754 -3.76928,2.306452 -4.81859,4.48356 -9.2437,10.93225 -0.3909,0.569664 -0.6609,1.069792 -0.67298,0.928938 z" style="fill:#ff9100"/>
      <g transform="matrix(1.1743702,0,0,1.1743702,266.99651,-5.468086)">
       <path style="fill:#fefefe" d="m 65.716342,34.069624 c -6.490177,-2.313684 -7.963069,-11.383958 -2.611589,-16.08261 1.363437,-1.197117 3.746789,-2.181558 5.28161,-2.181558 1.55006,0 3.924803,0.990258 5.326891,2.22129 1.991745,1.74875 3.12573,4.366596 3.12573,7.215796 0,4.163773 -2.66265,8.004001 -6.238067,8.996903 -2.04187,0.567027 -2.901451,0.537141 -4.884575,-0.169821 z"/>
       <path d="m 65.716342,32.06962 c -3.817751,-1.360991 -4.684158,-6.696446 -1.536228,-9.460359 0.802021,-0.704187 2.203993,-1.28327 3.106829,-1.28327 0.9118,0 2.308708,0.582505 3.133465,1.306642 1.171615,1.028676 1.838665,2.568585 1.838665,4.244585 0,2.449279 -1.566265,4.708236 -3.669451,5.292296 -1.2011,0.333546 -1.706736,0.315966 -2.87328,-0.09989 z"/>
      </g>
      <g transform="matrix(-1.1743702,0,0,1.1743702,377.47514,-5.805879)">
       <path style="fill:#fefefe" d="m 65.716342,34.069624 c -6.490177,-2.313684 -7.963069,-11.383958 -2.611589,-16.08261 1.363437,-1.197117 3.746789,-2.181558 5.28161,-2.181558 1.55006,0 3.924803,0.990258 5.326891,2.22129 1.991745,1.74875 3.12573,4.366596 3.12573,7.215796 0,4.163773 -2.66265,8.004001 -6.238067,8.996903 -2.04187,0.567027 -2.901451,0.537141 -4.884575,-0.169821 z"/>
       <path d="m 65.716342,32.06962 c -3.817751,-1.360991 -4.684158,-6.696446 -1.536228,-9.460359 0.802021,-0.704187 2.203993,-1.28327 3.106829,-1.28327 0.9118,0 2.308708,0.582505 3.133465,1.306642 1.171615,1.028676 1.838665,2.568585 1.838665,4.244585 0,2.449279 -1.566265,4.708236 -3.669451,5.292296 -1.2011,0.333546 -1.706736,0.315966 -2.87328,-0.09989 z"/>
      </g>
     </g>
    </g>
   </g>
  </g>
 </g>
</svg>
