<svg width="256" height="256" version="1.1" viewBox="0 0 67.73 67.73" xmlns="http://www.w3.org/2000/svg" xmlns:xlink="http://www.w3.org/1999/xlink">
 <defs>
  <linearGradient id="linearGradient1108" x1="296" x2="296" y1="-212" y2="236" gradientUnits="userSpaceOnUse">
   <stop style="stop-color:#ffffff" offset="0"/>
   <stop style="stop-color:#ffffff;stop-opacity:.09803922" offset=".125"/>
   <stop style="stop-color:#000000;stop-opacity:.09803922" offset=".925"/>
   <stop style="stop-color:#000000;stop-opacity:.49803922" offset="1"/>
  </linearGradient>
  <clipPath id="clipPath1082-3-361">
   <path d="M 361.9375,-212 C 507.2348,-212 528,-191.28677 528,-46.125 V 70.125 C 528,215.28618 507.2348,236 361.9375,236 H 214.0625 C 68.7652,236 48,215.28618 48,70.125 V -46.125 C 48,-191.28677 68.7652,-212 214.0625,-212 Z" style="fill:#8c59d9"/>
  </clipPath>
  <linearGradient id="linearGradient1044" x1="88" x2="256" y1="28" y2="284" gradientTransform="matrix(.26970781 0 0 .26970781 -7.1289179 220.5605)" gradientUnits="userSpaceOnUse">
   <stop style="stop-color:#e8e8e8" offset="0"/>
   <stop style="stop-color:#f5f5f5" offset="1"/>
  </linearGradient>
  <filter id="filter4569" x="-.01" y="-.01" width="1.023" height="1.025" style="color-interpolation-filters:sRGB">
   <feGaussianBlur stdDeviation="1.16"/>
  </filter>
  <filter id="filter939" x="-.02" y="-.03" width="1.046" height="1.05" style="color-interpolation-filters:sRGB">
   <feGaussianBlur stdDeviation="2.32"/>
  </filter>
  <filter id="filter938" x="-.05" y="-.04" width="1.104" height="1.089" style="color-interpolation-filters:sRGB">
   <feGaussianBlur stdDeviation=".835"/>
  </filter>
 </defs>
 <g transform="translate(0,-229.26666)">
  <path transform="matrix(.26970779 0 0 .26970779 -1.9098094e-8 231.46531)" d="m162.53675 5.5680001c72.64865 0 83.03125 10.356615 83.03125 82.937505v58.125005c0 72.58059-10.3826 82.9375-83.03125 82.9375h-73.937496c-72.648654 0-83.031254-10.35691-83.031254-82.9375v-58.125005c0-72.58089 10.3826-82.937505 83.031254-82.937505z" style="filter:url(#filter939);opacity:.2"/>
  <path d="m43.837429 232.42763c19.593907 0 22.394176 2.79326 22.394176 22.36889v15.67677c0 19.57555-2.800269 22.36889-22.394176 22.36889h-19.941519c-19.593909 0-22.394177-2.79334-22.394177-22.36889v-15.67677c0-19.57563 2.8002682-22.36889 22.394177-22.36889z" style="fill:none;opacity:.1;stroke-linecap:round;stroke-linejoin:round;stroke-width:1.0788311;stroke:#000000"/>
  <path transform="matrix(.26970779 0 0 .26970779 -1.9098094e-8 231.46531)" d="m162.53675 3.5680001c72.64865 0 83.03125 10.356615 83.03125 82.937505v58.125005c0 72.58059-10.3826 82.9375-83.03125 82.9375h-73.937496c-72.648654 0-83.031254-10.35691-83.031254-82.9375v-58.125005c0-72.58089 10.3826-82.937505 83.031254-82.937505z" style="filter:url(#filter4569);opacity:.1"/>
  <path d="m43.837427 232.42763c19.593907 0 22.394175 2.79326 22.394175 22.36889v15.67677c0 19.57555-2.800268 22.36889-22.394175 22.36889h-19.94152c-19.593907 0-22.394176-2.79334-22.394176-22.36889v-15.67677c0-19.57563 2.8002682-22.36889 22.394176-22.36889z" style="fill:url(#linearGradient1044)"/>
  <path transform="matrix(.1348539 0 0 .1348539 -4.9712559 261.01666)" d="M 361.9375,-212 C 507.2348,-212 528,-191.28677 528,-46.125 V 70.125 C 528,215.28618 507.2348,236 361.9375,236 H 214.0625 C 68.7652,236 48,215.28618 48,70.125 V -46.125 C 48,-191.28677 68.7652,-212 214.0625,-212 Z" clip-path="url(#clipPath1082-3-361)" style="fill:none;opacity:.4;stroke-linecap:round;stroke-linejoin:round;stroke-width:8;stroke:url(#linearGradient1108)"/>
  <g transform="matrix(1.17647,0,0,1.17647,-4.7397116,-46.700662)" style="filter:url(#filter938);opacity:.4">
   <path d="m37.634619 240.44594a12.851148 12.851148 0 0 0-11.884803 7.97549 6.4255739 6.4255739 0 0 0-4.179129-1.54992 6.4255739 6.4255739 0 0 0-6.425575 6.42556 6.4255739 6.4255739 0 0 0 1.327158 3.90303 5.622377 5.622377 0 0 0-2.933553 4.93214 5.622377 5.622377 0 0 0 5.622379 5.62237 5.622377 5.622377 0 0 0 0.803196-0.0629v1.66915c0 2.66984 2.149355 4.81918 4.81918 4.81918h16.063936c2.669826 0 4.819177-2.14934 4.819177-4.81918v-0.0659a5.622377 5.622377 0 0 0 0.8032 0.0659 5.622377 5.622377 0 0 0 5.622375-5.62237 5.622377 5.622377 0 0 0-2.877076-4.90391 12.851148 12.851148 0 0 0 1.270682-5.53766 12.851148 12.851148 0 0 0-12.851147-12.85115z"/>
   <path d="m37.634619 261.32905c0 2.66156-2.15762 4.81919-4.81918 4.81919-2.661559 0-4.81918-2.15763-4.81918-4.81919z"/>
   <circle cx="23.98" cy="258.116" r="3.213"/>
   <circle cx="25.185" cy="256.911" r="1.205"/>
   <path d="m45.666585 266.14824c-1.779881 0-3.212785 1.51718-3.212785 3.40175v15.87497h4.417581c1.112428 0 2.007993-1.0747 2.007993-2.40959v-13.46538c0-1.88457-1.432904-3.40175-3.212789-3.40175z"/>
   <path d="m32.815439 269.36101c-1.779882 0-3.212786 1.53525-3.212786 3.44228v12.62167h6.425575v-12.62167c0-1.90703-1.432904-3.44228-3.212789-3.44228z"/>
   <path d="m39.241014 268.55783c-1.779885 0-3.212786 1.50452-3.212786 3.37342v13.49371h6.425572v-13.49371c0-1.8689-1.432901-3.37342-3.212786-3.37342z"/>
   <path d="m19.964292 266.14824c1.779885 0 3.212786 1.51718 3.212786 3.40175v15.87497h-4.417581c-1.112427 0-2.007991-1.0747-2.007991-2.40959v-13.46538c0-1.88457 1.432901-3.40175 3.212786-3.40175z"/>
   <path d="m26.389867 268.55783c1.779882 0 3.212786 1.50452 3.212786 3.37342v13.49371h-6.425575v-13.49371c0-1.8689 1.432904-3.37342 3.212789-3.37342z"/>
   <circle cx="41.651" cy="258.116" r="3.213"/>
   <circle cx="42.855" cy="256.911" r="1.205"/>
  </g>
  <g transform="matrix(1.17647,0,0,1.17647,-4.7397116,-46.700662)">
   <path d="m37.634619 240.44594a12.851148 12.851148 0 0 0-11.884803 7.97549 6.4255739 6.4255739 0 0 0-4.179129-1.54992 6.4255739 6.4255739 0 0 0-6.425575 6.42556 6.4255739 6.4255739 0 0 0 1.327158 3.90303 5.622377 5.622377 0 0 0-2.933553 4.93214 5.622377 5.622377 0 0 0 5.622379 5.62237 5.622377 5.622377 0 0 0 0.803196-0.0629v1.66915c0 2.66984 2.149355 4.81918 4.81918 4.81918h16.063936c2.669826 0 4.819177-2.14934 4.819177-4.81918v-0.0659a5.622377 5.622377 0 0 0 0.8032 0.0659 5.622377 5.622377 0 0 0 5.622375-5.62237 5.622377 5.622377 0 0 0-2.877076-4.90391 12.851148 12.851148 0 0 0 1.270682-5.53766 12.851148 12.851148 0 0 0-12.851147-12.85115z" style="fill:#e6c59a"/>
   <path d="m37.634619 261.32905c0 2.66156-2.15762 4.81919-4.81918 4.81919-2.661559 0-4.81918-2.15763-4.81918-4.81919z" style="fill:#a81a1a"/>
   <circle cx="23.98" cy="258.116" r="3.213" style="fill:#3f3f3f"/>
   <circle cx="25.185" cy="256.911" r="1.205" style="fill:#ffffff"/>
   <path d="m45.666585 266.14824c-1.779881 0-3.212785 1.51718-3.212785 3.40175v15.87497h4.417581c1.112428 0 2.007993-1.0747 2.007993-2.40959v-13.46538c0-1.88457-1.432904-3.40175-3.212789-3.40175z" style="fill:#e54b3f"/>
   <path d="m32.815439 269.36101c-1.779882 0-3.212786 1.53525-3.212786 3.44228v12.62167h6.425575v-12.62167c0-1.90703-1.432904-3.44228-3.212789-3.44228z" style="fill:#e54b3f"/>
   <path d="m39.241014 268.55783c-1.779885 0-3.212786 1.50452-3.212786 3.37342v13.49371h6.425572v-13.49371c0-1.8689-1.432901-3.37342-3.212786-3.37342z" style="fill:#ffffff"/>
   <path d="m19.964292 266.14824c1.779885 0 3.212786 1.51718 3.212786 3.40175v15.87497h-4.417581c-1.112427 0-2.007991-1.0747-2.007991-2.40959v-13.46538c0-1.88457 1.432901-3.40175 3.212786-3.40175z" style="fill:#e54b3f"/>
   <path d="m26.389867 268.55783c1.779882 0 3.212786 1.50452 3.212786 3.37342v13.49371h-6.425575v-13.49371c0-1.8689 1.432904-3.37342 3.212789-3.37342z" style="fill:#ffffff"/>
   <circle cx="41.651" cy="258.116" r="3.213" style="fill:#3f3f3f"/>
   <circle cx="42.855" cy="256.911" r="1.205" style="fill:#ffffff"/>
  </g>
  <path d="m33.866666 232.42763v60.41455h9.970761c19.593907 0 22.394175-2.79334 22.394175-22.36889v-15.67677c0-19.57563-2.800268-22.36889-22.394175-22.36889z" style="fill:#ffffff;opacity:.1"/>
  <path d="m23.895907 292.84218c-19.593907 0-22.394176-2.79326-22.394176-22.36889v-7.83838h64.729871v7.83838c0 19.57563-2.800268 22.36889-22.394175 22.36889z" style="fill:#ffffff;opacity:.1"/>
 </g>
</svg>
