<svg xmlns="http://www.w3.org/2000/svg" xmlns:xlink="http://www.w3.org/1999/xlink" width="256" height="256" version="1.1" viewBox="0 0 67.73 67.73">
 <defs>
  <linearGradient id="linearGradient1108" x1="296" x2="296" y1="-212" y2="236" gradientUnits="userSpaceOnUse" xlink:href="#linearGradient1013"/>
  <linearGradient id="linearGradient1013">
   <stop offset="0" style="stop-color:#ffffff"/>
   <stop style="stop-color:#ffffff;stop-opacity:0.09803922" offset=".125"/>
   <stop style="stop-color:#000000;stop-opacity:0.09803922" offset=".925"/>
   <stop offset="1" style="stop-color:#000000;stop-opacity:0.49803922"/>
  </linearGradient>
  <clipPath id="clipPath1082-3-361" clipPathUnits="userSpaceOnUse">
   <path d="M 361.9375,-212 C 507.2348,-212 528,-191.28677 528,-46.125 V 70.125 C 528,215.28618 507.2348,236 361.9375,236 H 214.0625 C 68.7652,236 48,215.28618 48,70.125 V -46.125 C 48,-191.28677 68.7652,-212 214.0625,-212 Z" style="fill:#8c59d9"/>
  </clipPath>
  <linearGradient id="linearGradient4245">
   <stop offset="0" style="stop-color:#e8e8e8"/>
   <stop offset="1" style="stop-color:#f5f5f5"/>
  </linearGradient>
  <linearGradient id="linearGradient1044" x1="88" x2="256" y1="28" y2="284" gradientTransform="matrix(0.26970781,0,0,0.26970781,-7.1289179,220.5605)" gradientUnits="userSpaceOnUse" xlink:href="#linearGradient4245"/>
  <filter style="color-interpolation-filters:sRGB" id="filter4569" width="1.023" height="1.025" x="-.01" y="-.01">
   <feGaussianBlur stdDeviation="1.16"/>
  </filter>
  <filter style="color-interpolation-filters:sRGB" id="filter939" width="1.046" height="1.05" x="-.02" y="-.03">
   <feGaussianBlur stdDeviation="2.32"/>
  </filter>
  <filter style="color-interpolation-filters:sRGB" id="filter938" width="1.104" height="1.089" x="-.05" y="-.04">
   <feGaussianBlur stdDeviation=".835"/>
  </filter>
 </defs>
 <g transform="translate(0,-229.26666)">
  <path style="opacity:0.2;filter:url(#filter939)" d="m 162.53675,5.5680001 c 72.64865,0 83.03125,10.3566149 83.03125,82.9375049 v 58.125005 c 0,72.58059 -10.3826,82.9375 -83.03125,82.9375 H 88.599254 C 15.9506,229.56801 5.568,219.2111 5.568,146.63051 V 88.505505 c 0,-72.58089 10.3826,-82.9375049 83.031254,-82.9375049 z" transform="matrix(0.26970779,0,0,0.26970779,-1.9098094e-8,231.46531)"/>
  <path d="m 43.837429,232.42763 c 19.593907,0 22.394176,2.79326 22.394176,22.36889 v 15.67677 c 0,19.57555 -2.800269,22.36889 -22.394176,22.36889 H 23.89591 c -19.5939088,0 -22.394177,-2.79334 -22.394177,-22.36889 v -15.67677 c 0,-19.57563 2.8002682,-22.36889 22.394177,-22.36889 z" style="opacity:0.1;fill:none;stroke:#000000;stroke-width:1.07883108;stroke-linecap:round;stroke-linejoin:round"/>
  <path d="m 162.53675,3.5680001 c 72.64865,0 83.03125,10.3566149 83.03125,82.9375049 v 58.125005 c 0,72.58059 -10.3826,82.9375 -83.03125,82.9375 H 88.599254 C 15.9506,227.56801 5.568,217.2111 5.568,144.63051 V 86.505505 c 0,-72.58089 10.3826,-82.9375049 83.031254,-82.9375049 z" transform="matrix(0.26970779,0,0,0.26970779,-1.9098094e-8,231.46531)" style="opacity:0.1;filter:url(#filter4569)"/>
  <path style="fill:url(#linearGradient1044)" d="m 43.837427,232.42763 c 19.593907,0 22.394175,2.79326 22.394175,22.36889 v 15.67677 c 0,19.57555 -2.800268,22.36889 -22.394175,22.36889 h -19.94152 c -19.5939074,0 -22.3941756,-2.79334 -22.3941756,-22.36889 v -15.67677 c 0,-19.57563 2.8002682,-22.36889 22.3941756,-22.36889 z"/>
  <path d="M 361.9375,-212 C 507.2348,-212 528,-191.28677 528,-46.125 V 70.125 C 528,215.28618 507.2348,236 361.9375,236 H 214.0625 C 68.7652,236 48,215.28618 48,70.125 V -46.125 C 48,-191.28677 68.7652,-212 214.0625,-212 Z" clip-path="url(#clipPath1082-3-361)" transform="matrix(0.1348539,0,0,0.1348539,-4.9712559,261.01666)" style="opacity:0.4;fill:none;stroke:url(#linearGradient1108);stroke-width:8;stroke-linecap:round;stroke-linejoin:round"/>
  <g transform="matrix(1.17647,0,0,1.17647,-4.7397116,-46.700662)" style="filter:url(#filter938);opacity:0.4">
   <path d="m 37.634619,240.44594 a 12.851148,12.851148 0 0 0 -11.884803,7.97549 6.4255739,6.4255739 0 0 0 -4.179129,-1.54992 6.4255739,6.4255739 0 0 0 -6.425575,6.42556 6.4255739,6.4255739 0 0 0 1.327158,3.90303 5.622377,5.622377 0 0 0 -2.933553,4.93214 5.622377,5.622377 0 0 0 5.622379,5.62237 5.622377,5.622377 0 0 0 0.803196,-0.0629 v 1.66915 c 0,2.66984 2.149355,4.81918 4.81918,4.81918 h 16.063936 c 2.669826,0 4.819177,-2.14934 4.819177,-4.81918 v -0.0659 a 5.622377,5.622377 0 0 0 0.8032,0.0659 5.622377,5.622377 0 0 0 5.622375,-5.62237 5.622377,5.622377 0 0 0 -2.877076,-4.90391 12.851148,12.851148 0 0 0 1.270682,-5.53766 12.851148,12.851148 0 0 0 -12.851147,-12.85115 z"/>
   <path d="m 37.634619,261.32905 c 0,2.66156 -2.15762,4.81919 -4.81918,4.81919 -2.661559,0 -4.81918,-2.15763 -4.81918,-4.81919 z"/>
   <circle cx="23.98" cy="258.116" r="3.213"/>
   <circle cx="25.185" cy="256.911" r="1.205"/>
   <path d="m 45.666585,266.14824 c -1.779881,0 -3.212785,1.51718 -3.212785,3.40175 v 15.87497 h 4.417581 c 1.112428,0 2.007993,-1.0747 2.007993,-2.40959 v -13.46538 c 0,-1.88457 -1.432904,-3.40175 -3.212789,-3.40175 z"/>
   <path d="m 32.815439,269.36101 c -1.779882,0 -3.212786,1.53525 -3.212786,3.44228 v 12.62167 h 6.425575 v -12.62167 c 0,-1.90703 -1.432904,-3.44228 -3.212789,-3.44228 z"/>
   <path d="m 39.241014,268.55783 c -1.779885,0 -3.212786,1.50452 -3.212786,3.37342 v 13.49371 H 42.4538 v -13.49371 c 0,-1.8689 -1.432901,-3.37342 -3.212786,-3.37342 z"/>
   <path d="m 19.964292,266.14824 c 1.779885,0 3.212786,1.51718 3.212786,3.40175 v 15.87497 h -4.417581 c -1.112427,0 -2.007991,-1.0747 -2.007991,-2.40959 v -13.46538 c 0,-1.88457 1.432901,-3.40175 3.212786,-3.40175 z"/>
   <path d="m 26.389867,268.55783 c 1.779882,0 3.212786,1.50452 3.212786,3.37342 v 13.49371 h -6.425575 v -13.49371 c 0,-1.8689 1.432904,-3.37342 3.212789,-3.37342 z"/>
   <circle cx="41.651" cy="258.116" r="3.213"/>
   <circle cx="42.855" cy="256.911" r="1.205"/>
  </g>
  <g transform="matrix(1.17647,0,0,1.17647,-4.7397116,-46.700662)">
   <path d="m 37.634619,240.44594 a 12.851148,12.851148 0 0 0 -11.884803,7.97549 6.4255739,6.4255739 0 0 0 -4.179129,-1.54992 6.4255739,6.4255739 0 0 0 -6.425575,6.42556 6.4255739,6.4255739 0 0 0 1.327158,3.90303 5.622377,5.622377 0 0 0 -2.933553,4.93214 5.622377,5.622377 0 0 0 5.622379,5.62237 5.622377,5.622377 0 0 0 0.803196,-0.0629 v 1.66915 c 0,2.66984 2.149355,4.81918 4.81918,4.81918 h 16.063936 c 2.669826,0 4.819177,-2.14934 4.819177,-4.81918 v -0.0659 a 5.622377,5.622377 0 0 0 0.8032,0.0659 5.622377,5.622377 0 0 0 5.622375,-5.62237 5.622377,5.622377 0 0 0 -2.877076,-4.90391 12.851148,12.851148 0 0 0 1.270682,-5.53766 12.851148,12.851148 0 0 0 -12.851147,-12.85115 z" style="fill:#e6c59a"/>
   <path d="m 37.634619,261.32905 c 0,2.66156 -2.15762,4.81919 -4.81918,4.81919 -2.661559,0 -4.81918,-2.15763 -4.81918,-4.81919 z" style="fill:#a81a1a"/>
   <circle cx="23.98" cy="258.116" r="3.213" style="fill:#3f3f3f"/>
   <circle cx="25.185" cy="256.911" r="1.205" style="fill:#ffffff"/>
   <path d="m 45.666585,266.14824 c -1.779881,0 -3.212785,1.51718 -3.212785,3.40175 v 15.87497 h 4.417581 c 1.112428,0 2.007993,-1.0747 2.007993,-2.40959 v -13.46538 c 0,-1.88457 -1.432904,-3.40175 -3.212789,-3.40175 z" style="fill:#e54b3f"/>
   <path d="m 32.815439,269.36101 c -1.779882,0 -3.212786,1.53525 -3.212786,3.44228 v 12.62167 h 6.425575 v -12.62167 c 0,-1.90703 -1.432904,-3.44228 -3.212789,-3.44228 z" style="fill:#e54b3f"/>
   <path d="m 39.241014,268.55783 c -1.779885,0 -3.212786,1.50452 -3.212786,3.37342 v 13.49371 H 42.4538 v -13.49371 c 0,-1.8689 -1.432901,-3.37342 -3.212786,-3.37342 z" style="fill:#ffffff"/>
   <path d="m 19.964292,266.14824 c 1.779885,0 3.212786,1.51718 3.212786,3.40175 v 15.87497 h -4.417581 c -1.112427,0 -2.007991,-1.0747 -2.007991,-2.40959 v -13.46538 c 0,-1.88457 1.432901,-3.40175 3.212786,-3.40175 z" style="fill:#e54b3f"/>
   <path d="m 26.389867,268.55783 c 1.779882,0 3.212786,1.50452 3.212786,3.37342 v 13.49371 h -6.425575 v -13.49371 c 0,-1.8689 1.432904,-3.37342 3.212789,-3.37342 z" style="fill:#ffffff"/>
   <circle cx="41.651" cy="258.116" r="3.213" style="fill:#3f3f3f"/>
   <circle cx="42.855" cy="256.911" r="1.205" style="fill:#ffffff"/>
  </g>
  <path style="opacity:0.1;fill:#ffffff" d="m 33.866666,232.42763 v 60.41455 h 9.970761 c 19.593907,0 22.394175,-2.79334 22.394175,-22.36889 v -15.67677 c 0,-19.57563 -2.800268,-22.36889 -22.394175,-22.36889 z"/>
  <path style="opacity:0.1;fill:#ffffff" d="m 23.895907,292.84218 c -19.5939074,0 -22.3941756,-2.79326 -22.3941756,-22.36889 v -7.83838 H 66.231602 v 7.83838 c 0,19.57563 -2.800268,22.36889 -22.394175,22.36889 z"/>
 </g>
</svg>
