<svg width="256" height="256" version="1.1" viewBox="0 0 67.73 67.73" xmlns="http://www.w3.org/2000/svg" xmlns:xlink="http://www.w3.org/1999/xlink">
 <defs>
  <linearGradient id="linearGradient1108" x1="296" x2="296" y1="-212" y2="236" gradientUnits="userSpaceOnUse">
   <stop style="stop-color:#ffffff" offset="0"/>
   <stop style="stop-color:#ffffff;stop-opacity:.09803922" offset=".125"/>
   <stop style="stop-color:#000000;stop-opacity:.09803922" offset=".925"/>
   <stop style="stop-color:#000000;stop-opacity:.49803922" offset="1"/>
  </linearGradient>
  <clipPath id="clipPath1082-3-367">
   <path d="M 361.9375,-212 C 507.2348,-212 528,-191.28677 528,-46.125 V 70.125 C 528,215.28618 507.2348,236 361.9375,236 H 214.0625 C 68.7652,236 48,215.28618 48,70.125 V -46.125 C 48,-191.28677 68.7652,-212 214.0625,-212 Z" style="fill:#8c59d9"/>
  </clipPath>
  <filter id="filter930" x="-.02" y="-.03" width="1.046" height="1.05" style="color-interpolation-filters:sRGB">
   <feGaussianBlur stdDeviation="2.32"/>
  </filter>
  <filter id="filter4569" x="-.01" y="-.01" width="1.023" height="1.025" style="color-interpolation-filters:sRGB">
   <feGaussianBlur stdDeviation="1.16"/>
  </filter>
  <linearGradient id="linearGradient947" x1="160" x2="160" y1="268" y2="44" gradientTransform="matrix(.02710895 0 0 .02710895 -9.1113696 260.92677)" gradientUnits="userSpaceOnUse" xlink:href="#linearGradient945"/>
  <linearGradient id="linearGradient945">
   <stop style="stop-color:#e6e6e6" offset="0"/>
   <stop style="stop-color:#d3d3d3" offset="1"/>
  </linearGradient>
  <linearGradient id="linearGradient955" x1="200" x2="200" y1="268" y2="44" gradientTransform="matrix(.02710895 0 0 .02710895 -9.1113696 260.92677)" gradientUnits="userSpaceOnUse" xlink:href="#linearGradient945"/>
  <linearGradient id="linearGradient1778" x1="1046.92" x2="4096.001" y1="542.776" y2="1152.001" gradientTransform="matrix(.01554581 0 0 .02133175 1.2975616 243.82739)" gradientUnits="userSpaceOnUse" xlink:href="#linearGradient835"/>
  <linearGradient id="linearGradient835">
   <stop style="stop-color:#ffffff" offset="0"/>
   <stop style="stop-color:#ffffff;stop-opacity:0" offset="1"/>
  </linearGradient>
  <linearGradient id="linearGradient826" x1="1046.92" x2="4096.001" y1="542.776" y2="1152.001" gradientTransform="matrix(.01582591 0 0 .02181897 1.322914 243.82738)" gradientUnits="userSpaceOnUse" xlink:href="#linearGradient835"/>
  <linearGradient id="linearGradient1063" x1="160" x2="160" y1="28" y2="284" gradientTransform="matrix(.26458333 0 0 .26458333 -6.993468 221.97263)" gradientUnits="userSpaceOnUse">
   <stop style="stop-color:#530046" offset="0"/>
   <stop style="stop-color:#670953" offset=".337"/>
   <stop style="stop-color:#831339" offset=".65"/>
   <stop style="stop-color:#a41e1f" offset="1"/>
  </linearGradient>
  <linearGradient id="linearGradient1003" x1="16" x2="288" y1="28" y2="284" gradientTransform="matrix(.02756076 0 0 .02756076 -17.191658 249.89606)" gradientUnits="userSpaceOnUse">
   <stop style="stop-color:#aea795" offset="0"/>
   <stop style="stop-color:#c8c4b7" offset="1"/>
  </linearGradient>
  <filter id="filter1039" x="-.01" y="-.01" width="1.023" height="1.025" style="color-interpolation-filters:sRGB">
   <feGaussianBlur stdDeviation=".76"/>
  </filter>
  <linearGradient id="linearGradient936" x1="96" x2="191" y1="92" y2="183" gradientTransform="translate(-29.216006,-41.215995)" gradientUnits="userSpaceOnUse">
   <stop style="stop-color:#000000;stop-opacity:0" offset="0"/>
   <stop style="stop-color:#000000" offset=".337"/>
   <stop style="stop-color:#000000;stop-opacity:0" offset="1"/>
  </linearGradient>
  <clipPath id="clipPath1025-3">
   <path d="m111.94141 84c-12.581904 0.145-21.78831-0.286002-29.31641 3.867188-3.7641 2.0768-6.751838 5.574737-8.398438 9.960937-1.6465 4.386205-2.226562 9.595975-2.226562 16.171875v42h160v-26c0-6.5759-0.57996-11.78566-2.22656-16.17188-0.205-0.5455-0.47919-1.03993-0.74219-1.54296-0.1-0.1848-0.17844-0.38051-0.27344-0.56641-1.727-3.38752-4.25471-6.14522-7.38281-7.87109-7.5287-4.153514-16.73451-3.70226-29.31641-3.84766h-40.39062l-16.21485-16h-23.49218z" style="fill:#e3dfd5"/>
  </clipPath>
  <filter id="filter1029" x="-.02" y="-.03" width="1.043" height="1.054" style="color-interpolation-filters:sRGB">
   <feGaussianBlur stdDeviation="1.44"/>
  </filter>
 </defs>
 <g transform="translate(0,-229.26666)">
  <path transform="matrix(.26458333 0 0 .26458333 -1.8735229e-8 232.67026)" d="m162.53675 3.5680001c72.64865 0 83.03125 10.356615 83.03125 82.937505v58.125005c0 72.58059-10.3826 82.9375-83.03125 82.9375h-73.937496c-72.648654 0-83.031254-10.35691-83.031254-82.9375v-58.125005c0-72.58089 10.3826-82.937505 83.031254-82.937505z" style="filter:url(#filter4569);opacity:.1"/>
  <path transform="matrix(.26458333 0 0 .26458333 -1.8735229e-8 232.67026)" d="m162.53675 5.5680001c72.64865 0 83.03125 10.356615 83.03125 82.937505v58.125005c0 72.58059-10.3826 82.9375-83.03125 82.9375h-73.937496c-72.648654 0-83.031254-10.35691-83.031254-82.9375v-58.125005c0-72.58089 10.3826-82.937505 83.031254-82.937505z" style="filter:url(#filter930);opacity:.2"/>
  <path d="m43.004513 233.61429c19.221622 0 21.968685 2.74019 21.968685 21.94388v15.37891c0 19.20362-2.747063 21.94388-21.968685 21.94388h-19.56263c-19.221622 0-21.968685-2.74026-21.968685-21.94388v-15.37891c0-19.20369 2.7470631-21.94388 21.968685-21.94388z" style="fill:url(#linearGradient1063)"/>
  <g transform="matrix(.26458333 0 0 .26458333 -57.51808 222.94312)">
   <path transform="translate(217.39117,23.899994)" d="m242.62891 55.033203c-0.49211-2.489914-1.03333-4.87313-1.68555-7.060547-0.72224-2.422245-1.5495-4.664823-2.49219-6.740234s-2.00098-3.984379-3.18945-5.738281c-1.18848-1.753903-2.50721-3.352827-3.9668-4.810547-1.45959-1.457721-3.06036-2.774073-4.8164-3.960938-1.75605-1.186864-3.66632-2.244212-5.74414-3.185547-2.07783-0.941334-4.32311-1.76715-6.74805-2.488281-2.42495-0.72113-5.03073-1.338982-7.82813-1.865234-2.79739-0.526253-5.78724-0.961659-8.98242-1.31836-3.19518-0.3567-6.59459-0.633229-10.21289-0.845703-7.2366-0.424948-15.3447-0.58789-24.42578-0.58789h-73.937501c-9.081081 0-17.189179 0.162942-24.425781 0.58789-3.618301 0.212474-7.019662 0.489003-10.214844 0.845703-3.195181 0.356701-6.185025 0.792107-8.982422 1.31836-2.797396 0.526252-5.401227 1.144104-7.826171 1.865234-2.424945 0.721131-4.670221 1.546947-6.748047 2.488281-2.077827 0.941335-3.988099 1.998683-5.744141 3.185547-1.756042 1.186865-3.358768 2.503217-4.818359 3.960938-1.459592 1.45772-2.77637 3.056644-3.964844 4.810547-1.188474 1.753902-2.248715 3.66287-3.191406 5.738281-0.942692 2.075411-1.767993 4.317989-2.490235 6.740234-0.6522227 2.187417-1.1934429 4.570633-1.6855465 7.060547h234.1211z" style="fill:#181501;opacity:.5"/>
  </g>
  <g transform="matrix(.26458333 0 0 .26458333 -.78570337 230.33387)">
   <path transform="translate(-214.42158,-27.93354)" d="m419.42158 58.93354h15l-7.5 11.24999-7.5-11.24999" style="fill:#ffffff"/>
   <path d="m30 31v5h5v-5zm10 0v5h5v-5z" style="fill:#ffffff"/>
   <g transform="translate(.85050583 5.2154961)">
    <rect x="29.15" y="35.78" width="5" height="5" style="fill:#ffffff"/>
    <rect x="39.15" y="35.78" width="5" height="5" style="fill:#ffffff"/>
   </g>
  </g>
  <path transform="matrix(.13229167 0 0 .13229167 -4.876802 261.66013)" d="M 361.9375,-212 C 507.2348,-212 528,-191.28677 528,-46.125 V 70.125 C 528,215.28618 507.2348,236 361.9375,236 H 214.0625 C 68.7652,236 48,215.28618 48,70.125 V -46.125 C 48,-191.28677 68.7652,-212 214.0625,-212 Z" clip-path="url(#clipPath1082-3-367)" style="fill:none;opacity:.5;stroke-linecap:round;stroke-linejoin:round;stroke-width:8;stroke:url(#linearGradient1108)"/>
  <path d="m43.242325 293.87616h0.595312c2.449238 0 4.635942-0.0435 6.58771-0.15813 0.975884-0.0573 1.893107-0.13221 2.754871-0.22841 0.861766-0.0962 1.668113-0.2136 2.422591-0.35554 0.75448-0.14193 1.456957-0.30883 2.110983-0.50333 0.654026-0.19449 1.259639-0.41687 1.820045-0.67075 0.560406-0.25389 1.07564-0.53928 1.549257-0.85938 0.47362-0.32011 0.905484-0.675 1.299147-1.06816s0.749162-0.82455 1.069702-1.29759 0.606161-0.98744 0.860412-1.54719c0.254251-0.55976 0.476999-1.16468 0.671796-1.81798 0.194794-0.6533 0.361674-1.35524 0.503843-2.10892 0.142171-0.75367 0.259673-1.55913 0.356052-2.42 0.09638-0.86088 0.171506-1.77686 0.228926-2.75177 0.05274-0.89546 0.04746-2.02537 0.07286-3.02256v-12.90257z" style="fill:#ffffff;opacity:.05"/>
  <path d="m66.145835 267.22063v-23.39318h-17.912762z" style="fill-opacity:.99579827;fill:#ffffff;opacity:.02000002"/>
  <path d="m23.107119 293.85704 0.178283 0.24133 19.820496-0.0331 0.136427-0.18913h-19.346624c-0.293188 0-0.502868-0.0178-0.788582-0.0191z" style="fill:url(#linearGradient826);opacity:.03999999"/>
  <path d="m1.6158429 249.68208c-0.092277 1.77843-0.1426409 3.69406-0.1426409 5.88031v8.63529l21.223012 28.54219c0.280658 9.8e-4 0.486626 0.0187 0.774625 0.0187h19.004214l22.498149-31.00465v-9.67102c-0.02495-0.97491-0.01977-2.0796-0.07157-2.95506-0.0564-0.95314-0.130202-1.84867-0.224873-2.69031-0.09468-0.84166-0.210097-1.62913-0.349752-2.36597-0.01653-0.0872-0.04117-0.15825-0.05838-0.24403h-58.658336z" style="fill:url(#linearGradient1778);opacity:.03999999"/>
  <g transform="translate(19.531625,5.2222581)">
   <path transform="matrix(.26458333 0 0 .26458333 -19.531625 224.0444)" d="m8.5078125 55.033203c-0.0536169 0.266607-0.1195817 0.50918-0.1816406 0.759766-0.5269748 2.793891-0.9630447 5.779492-1.3203125 8.970703-0.3573439 3.191891-0.6367138 6.588422-0.8496094 10.203125-0.4257911 7.229405-0.5878906 15.329734-0.5878906 24.402344v58.124999c0 9.07258 0.1620995 17.17296 0.5878906 24.40234 0.2128956 3.6147 0.4922655 7.01124 0.8496094 10.20313 0.3573439 3.19188 0.7931865 6.18021 1.3203125 8.97461s1.1449457 5.39611 1.8671871 7.81836c0.722242 2.42224 1.547543 4.66482 2.490235 6.74023 0.942691 2.07541 2.002932 3.98243 3.191406 5.73633 1.188474 1.75391 2.505252 3.35478 3.964844 4.8125 1.459591 1.45773 3.062317 2.77212 4.818359 3.95898 1.756042 1.18687 3.666314 2.24617 5.744141 3.1875 2.077826 0.94134 4.323102 1.7652 6.748047 2.48633 2.35955 0.70169 4.903373 1.2976 7.615234 1.81446v-182.59571h-36.257812z" style="fill:#181501;opacity:.3"/>
   <g transform="translate(-8.1747553,-3.1283581)">
    <path d="m-3.9886255 262.11955c1.9694284 0 2.2508895 0.28076 2.2508895 2.24835v1.57571c0 1.96758-0.2814611 2.24835-2.2508895 2.24835h-2.0043679c-1.9694286 0-2.2508899-0.28077-2.2508899-2.24835v-1.57571c0-1.96759 0.2814613-2.24835 2.2508899-2.24835z" style="fill:url(#linearGradient947)"/>
    <circle transform="scale(1,-1)" cx="-4.991" cy="-265.156" r="2.386" style="fill:#5d5d5d"/>
    <path d="m-4.9908095 263.12274c-0.1462183-2e-3 -0.1973638 4e-3 -0.2179307 0.18061l-0.00784 0.0625c-0.018047 0.11467-0.021497 0.16659-0.1299856 0.19469-0.00727 2e-3 -0.014528 3e-3 -0.021762 5e-3 -0.00172 3e-4 -0.00322 7e-4 -0.00498 1e-3l2.111e-4 6e-5c-0.02739 7e-3 -0.054486 0.0139-0.081327 0.0219l2.614e-4 -3.1e-4c-0.00448 2e-3 -0.00857 3e-3 -0.012814 4e-3 -0.00406 1e-3 -0.00813 2e-3 -0.012179 4e-3 -0.1090179 0.0306-0.1378601-0.0127-0.2111003-0.1033l-0.038067-0.0502c-0.053106-0.0714-0.091353-0.10189-0.1321029-0.10521-0.00509-4e-4 -0.010256-4e-4 -0.015461 0-0.036432 3e-3 -0.076371 0.0252-0.1314148 0.0578-0.1274413 0.0717-0.1690172 0.10192-0.098429 0.26532l0.024409 0.058c0.044903 0.11664 0.068269 0.16177-0.035316 0.25224l0.00275-6e-4c-0.02141 0.0203-0.042237 0.0412-0.062531 0.0626l5.82e-4 -3e-3c-0.090472 0.10358-0.135602 0.0802-0.2522393 0.0353l-0.05803-0.0245c-0.051061-0.0221-0.089119-0.0332-0.1195017-0.0341-0.066842-2e-3 -0.096522 0.0449-0.1458165 0.13253-0.074517 0.12582-0.095442 0.17282 0.047388 0.27903l0.050194 0.0381c0.090623 0.0732 0.1338819 0.10208 0.1032999 0.2111-0.00127 4e-3 -0.00246 8e-3 -0.00371 0.0122-0.00133 4e-3 -0.00249 8e-3 -0.00402 0.0128l2.613e-4 -3e-4c-0.00797 0.0268-0.015312 0.0539-0.02192 0.0813l-5.42e-5 -2e-4c-3.519e-4 2e-3 -7.541e-4 3e-3 -0.00111 5e-3 -0.00172 7e-3 -0.00335 0.0145-0.00498 0.0218-0.028097 0.10849-0.08002 0.11194-0.1946867 0.12999l-0.062478 8e-3c-0.1767997 0.0206-0.1822286 0.0717-0.1806028 0.21793-0.00163 0.14622 0.0038 0.19736 0.1806028 0.21793l0.062478 8e-3c0.1146663 0.0181 0.1665895 0.0215 0.1946867 0.12999 0.00163 7e-3 0.00326 0.0145 0.00498 0.0218 3.519e-4 2e-3 7.647e-4 3e-3 0.00111 5e-3l5.42e-5 -2e-4c0.00661 0.0274 0.013946 0.0545 0.02192 0.0813l-3.228e-4 -2.9e-4c0.00153 4e-3 0.00275 9e-3 0.00408 0.0128 0.00124 4e-3 0.00243 8e-3 0.00371 0.0122 0.030582 0.10901-0.012677 0.13786-0.1032999 0.2111l-0.050175 0.038c-0.1428295 0.10621-0.1219046 0.15317-0.047388 0.27898 0.071701 0.12744 0.1019218 0.16902 0.2653183 0.0984l0.05803-0.0244c0.1166368-0.0449 0.161767-0.0683 0.2522401 0.0353l-6.324e-4 -3e-3c0.020293 0.0214 0.041174 0.0422 0.062584 0.0625l-0.00275-6.1e-4c0.1035852 0.0905 0.080218 0.13561 0.035316 0.25224l-0.024462 0.058c-0.070589 0.1634-0.029013 0.19367 0.098429 0.26537 0.1258152 0.0745 0.17282 0.0954 0.2790316-0.0474l0.038069-0.0502c0.07324-0.0906 0.1020828-0.13388 0.2111004-0.1033 0.00405 1e-3 0.00812 2e-3 0.012179 4e-3 0.00424 1e-3 0.00833 3e-3 0.012814 4e-3l-2.614e-4 -2.9e-4c0.02684 8e-3 0.053937 0.0153 0.081327 0.0219l-2.112e-4 5e-5c0.00175 2.9e-4 0.00327 6.9e-4 0.00498 1e-3 0.00723 2e-3 0.014491 3e-3 0.021762 5e-3 0.1084881 0.0281 0.111938 0.08 0.1299855 0.19469l0.00784 0.0625c0.020566 0.1768 0.071712 0.18223 0.2179304 0.1806 0.1462178 2e-3 0.1973636-4e-3 0.2179304-0.1806l0.00784-0.0625c0.018047-0.11467 0.021497-0.16659 0.1299855-0.19469 0.00727-2e-3 0.014528-3e-3 0.021762-5e-3 0.00172-2.9e-4 0.00322-7.1e-4 0.00498-1e-3l-2.111e-4 -5e-5c0.02739-7e-3 0.054486-0.0139 0.081327-0.0219l-2.646e-4 2.9e-4c0.00448-2e-3 0.00857-3e-3 0.012814-4e-3 0.00406-1e-3 0.00813-2e-3 0.012179-4e-3 0.1090178-0.0306 0.1378606 0.0127 0.2111004 0.1033l0.038069 0.0502c0.1062114 0.14283 0.153163 0.12191 0.2789785 0.0474 0.1274413-0.0717 0.1690177-0.10192 0.098429-0.26532l-0.024408-0.058c-0.044904-0.11663-0.068269-0.16176 0.035316-0.25224l-0.00275 6.1e-4c0.02141-0.0203 0.042238-0.0412 0.062531-0.0626l-5.82e-4 3e-3c0.090473-0.10359 0.1356029-0.0802 0.2522402-0.0353l0.05803 0.0245c0.1633966 0.0706 0.1936171 0.029 0.2653181-0.0984 0.074517-0.12581 0.095443-0.17282-0.047388-0.27903l-0.050194-0.0381c-0.090623-0.0732-0.1338818-0.10208-0.1032997-0.2111 0.00127-4e-3 0.00246-8e-3 0.00371-0.0122 0.00132-4e-3 0.00249-8e-3 0.00402-0.0128l-2.646e-4 2.9e-4c0.00797-0.0268 0.015311-0.0539 0.021921-0.0813l5.42e-5 2e-4c3.44e-4 -2e-3 7.409e-4 -3e-3 0.00111-5e-3 0.00172-7e-3 0.00335-0.0145 0.00498-0.0218 0.028097-0.10849 0.08002-0.11194 0.1946867-0.12999l0.062478-8e-3c0.1767996-0.0206 0.1822286-0.0717 0.1806027-0.21793 0.00164-0.14621-0.0038-0.19736-0.1806027-0.21793l-0.062478-8e-3c-0.1146664-0.0181-0.1665891-0.0215-0.1946867-0.12998-0.00164-7e-3 -0.00325-0.0145-0.00498-0.0218-3.704e-4 -2e-3 -7.408e-4 -3e-3 -0.00111-5e-3l-5.42e-5 2e-4c-0.00661-0.0274-0.013946-0.0545-0.021921-0.0813l3.175e-4 3.1e-4c-0.00153-4e-3 -0.00275-9e-3 -0.00408-0.0128-0.00124-4e-3 -0.00243-8e-3 -0.00371-0.0122-0.030582-0.10901 0.012676-0.13786 0.1032997-0.2111l0.050194-0.0381c0.142816-0.10622 0.1218907-0.15317 0.047374-0.27898-0.049294-0.0876-0.078974-0.13467-0.1458163-0.13258-0.030382 9e-4 -0.068441 0.0121-0.119502 0.0341l-0.05803 0.0244c-0.1166355 0.0449-0.1617673 0.0683-0.2522403-0.0353l6.35e-4 3e-3c-0.020295-0.0214-0.041176-0.0422-0.062586-0.0625l0.00275 6.1e-4c-0.1035839-0.0905-0.080218-0.13561-0.035315-0.25224l0.024461-0.058c0.070589-0.1634 0.029014-0.19362-0.098428-0.26532-0.062908-0.0373-0.1061252-0.0611-0.1468755-0.0578-0.04075 3e-3 -0.07905 0.0338-0.1321562 0.10521l-0.038069 0.0502c-0.07324 0.0906-0.1020826 0.13388-0.2111007 0.1033-0.00405-1e-3 -0.00812-2e-3 -0.012179-4e-3 -0.00425-1e-3 -0.00833-2e-3 -0.012814-4e-3l2.646e-4 3e-4c-0.026833-8e-3 -0.053929-0.0153-0.081319-0.0219l2.112e-4 -5e-5c-0.00175-3e-4 -0.00327-7.1e-4 -0.00498-1e-3 -0.00723-2e-3 -0.014491-3e-3 -0.021762-5e-3 -0.1084879-0.0281-0.1119372-0.08-0.129985-0.19469l-0.00784-0.0625c-0.020561-0.1768-0.071707-0.18223-0.2179244-0.1806zm-3.175e-4 0.84022h3.175e-4c0.137315 1e-5 0.2700271 0.0237 0.3940328 0.0672a0.32530738 0.32530738 0 0 0 0.1481461 0.18648 0.32530738 0.32530738 0 0 0 0.2350322 0.035c0.1952752 0.16783 0.3369596 0.39861 0.3914386 0.6655 0.013729 0.0672-0.037647 0.13015-0.1062651 0.13014h-0.335579c-0.047963 0-0.090231-0.0315-0.1039354-0.0775-0.082251-0.27588-0.3347575-0.46427-0.6226056-0.46467-0.050572 3e-4 -0.1009608 6e-3 -0.150105 0.0183-0.04677 0.0114-0.095431-9e-3 -0.119502-0.0511l-0.1675247-0.2901c-0.034236-0.0593-0.00557-0.13515 0.059354-0.15699 0.1215747-0.0409 0.248919-0.062 0.3771956-0.0623zm-0.7131496 0.27369c0.036898 2e-3 0.070379 0.0221 0.088845 0.0541l0.1675249 0.29009c0.024003 0.0416 0.017822 0.094-0.015195 0.12883-0.1142055 0.12054-0.177987 0.28008-0.178326 0.44613 1.91e-4 0.16614 0.063852 0.32583 0.1780614 0.4465 0.032992 0.0348 0.039173 0.0872 0.015195 0.12877l-0.1670481 0.28941c-0.034289 0.0594-0.1144116 0.0725-0.1657776 0.027-0.1994739-0.1764-0.3321949-0.41309-0.3812195-0.67068a0.32530738 0.32530738 0 0 0 0.087045-0.22105 0.32530738 0.32530738 0 0 0-0.087098-0.22095c0.048918-0.2577 0.1815568-0.49454 0.3810608-0.67106 0.021139-0.0187 0.048738-0.0284 0.076932-0.0271zm1.4405328 1.02754h0.3342066c0.068618-1e-5 0.1199938 0.0629 0.1062651 0.13015-0.054446 0.26673-0.1960044 0.49742-0.3911211 0.66522a0.32530738 0.32530738 0 0 0-0.079262-8e-3 0.32530738 0.32530738 0 0 0-0.1549762 0.0435 0.32530738 0.32530738 0 0 0-0.1478286 0.186c-0.1240401 0.0437-0.256835 0.0676-0.3942445 0.0677h-5.292e-4c-0.1282213-5.1e-4 -0.2555062-0.0217-0.3769841-0.0627-0.064848-0.0219-0.093447-0.0976-0.059248-0.15693l0.1672601-0.28973c0.024072-0.0417 0.072731-0.0625 0.1195017-0.0512 0.049176 0.012 0.099606 0.0181 0.1502111 0.0183 0.2879325-3e-4 0.5405421-0.1887 0.6228175-0.46466 0.013705-0.046 0.055972-0.0775 0.1039352-0.0775z" style="fill:url(#linearGradient955)"/>
    <path d="m-4.2936541 263.77246a0.16265369 0.16265369 0 0 0-0.1331622 0.0812 0.16265369 0.16265369 0 0 0 0.059513 0.22216 0.16265369 0.16265369 0 0 0 0.2221661-0.0595 0.16265369 0.16265369 0 0 0-0.059513-0.22222 0.16265369 0.16265369 0 0 0-0.089004-0.0216zm-2.1068207 1.22064a0.16265369 0.16265369 0 0 0-0.1626537 0.16266 0.16265369 0.16265369 0 0 0 0.1626537 0.16265 0.16265369 0.16265369 0 0 0 0.1626536-0.16265 0.16265369 0.16265369 0 0 0-0.1626536-0.16266zm2.1106857 1.22086a0.16265369 0.16265369 0 0 0-0.077515 0.0218 0.16265369 0.16265369 0 0 0-0.059513 0.22216 0.16265369 0.16265369 0 0 0 0.2221662 0.0595 0.16265369 0.16265369 0 0 0 0.059513-0.22217 0.16265369 0.16265369 0 0 0-0.1446516-0.0813z" style="fill:#b3b3b3"/>
   </g>
   <g transform="translate(-13.250713,-36.421643)">
    <path d="m-0.87951979 287.37413c-1.0011653 0-1.5730876 0.0712-1.8950177 0.39274-0.3219296 0.32151-0.3933869 0.89285-0.3933869 1.89308v1.60197c0 1.00022 0.071457 1.57156 0.3933869 1.89308 0.3219301 0.32152 0.8938523 0.39274 1.8950177 0.39274h2.037774c1.0011655 0 1.573088-0.0712 1.8950178-0.39274 0.3219298-0.32152 0.393387-0.89286 0.393387-1.89308v-1.60197c0-1.00023-0.071457-1.57157-0.393387-1.89308-0.3219298-0.32152-0.8938525-0.39274-1.8950178-0.39274z" style="fill:#4d4d4d"/>
    <path d="m-1.8858122 288.72568-0.070752 0.21285 0.7182424 0.28809-0.7182424 0.2881 0.070752 0.21284 0.92406741-0.39129v-0.21929zm0.92274881 1.29428v0.22049h1.1024304v-0.22049z" style="fill:#f2f2f2"/>
   </g>
   <g transform="translate(-.10617866 -8.0937902)">
    <path d="m-11.983534 251.10873c2.0022518 0 2.2884038 0.28543 2.2884038 2.28582v1.60197c0 2.00038-0.286152 2.28582-2.2884038 2.28582h-2.037774c-2.002253 0-2.288405-0.28544-2.288405-2.28582v-1.60197c0-2.00039 0.286152-2.28582 2.288405-2.28582z" style="fill:url(#linearGradient1003)"/>
    <path d="m-11.467631 251.11734-4.805155 4.80516c0.123301 1.16773 0.611891 1.35984 2.251478 1.35984h2.037774c2.0022518 0 2.2884038-0.28544 2.2884038-2.28582v-1.60197c0-1.81406-0.235402-2.21774-1.7725008-2.27721z" style="fill:#ffffff;opacity:.1"/>
    <path transform="matrix(.02756076 0 0 .02756076 -16.386442 251.032)" d="m82.725404 44.784005c-12.581908 0.145-21.78831-0.286002-29.31641 3.867188-3.7641 2.0768-6.751838 5.574737-8.398438 9.960937-1.6465 4.386205-2.226562 9.595975-2.226562 16.171875v84.000005c0 6.5759 0.580809 11.78566 2.224609 16.17188 1.6466 4.3862 4.634338 7.90366 8.398438 9.98046 7.5281 4.15346 16.734506 3.70226 29.316403 3.84766h80.119096c12.5819-0.1454 21.78831 0.30584 29.31641-3.84766 3.7641-2.0768 6.75184-5.59426 8.39844-9.98046 1.64664-4.38622 2.2266-9.59598 2.2266-16.17188v-68.000005c0-3.28875-0.14509-6.23498-0.49609-8.9082-0.0877-0.66818-0.18835-1.31811-0.30274-1.95313-0.34315-1.90506-0.81026-3.66571-1.42773-5.31055-1.11404-2.96755-2.85263-5.51457-5.01953-7.5039-0.11246-0.10575-0.22882-0.20609-0.34375-0.3086-0.18482-0.16113-0.36789-0.32362-0.5586-0.47656-0.35643-0.29171-0.72391-0.56757-1.10156-0.82812-0.44587-0.30762-0.90085-0.60168-1.375-0.86328-7.5287-4.15352-16.73451-3.70226-29.31641-3.84766h-40.39063l-16.21485-16h-23.492166z" style="filter:url(#filter1039);opacity:.1"/>
    <path transform="matrix(.02756076 0 0 .02756076 -16.386442 251.032)" d="m82.725404 42.784005c-12.581908 0.145-21.78831-0.286002-29.31641 3.867188-3.7641 2.0768-6.751838 5.574737-8.398438 9.960937-1.6465 4.386205-2.226562 9.595975-2.226562 16.171875v84.000005c0 6.5759 0.580809 11.78566 2.224609 16.17188 1.6466 4.3862 4.634338 7.90366 8.398438 9.98046 7.5281 4.15346 16.734506 3.70226 29.316403 3.84766h80.119096c12.5819-0.1454 21.78831 0.30584 29.31641-3.84766 3.7641-2.0768 6.75184-5.59426 8.39844-9.98046 1.64664-4.38622 2.2266-9.59598 2.2266-16.17188v-68.000005c0-3.28875-0.14509-6.23498-0.49609-8.9082-0.0877-0.66818-0.18835-1.31811-0.30274-1.95313-0.34315-1.90506-0.81026-3.66571-1.42773-5.31055-1.11404-2.96755-2.85263-5.51457-5.01953-7.5039-0.11246-0.10575-0.22882-0.20609-0.34375-0.3086-0.18482-0.16113-0.36789-0.32362-0.5586-0.47656-0.35643-0.29171-0.72391-0.56757-1.10156-0.82812-0.44587-0.30762-0.90085-0.60168-1.375-0.86328-7.5287-4.153518-16.73451-3.70226-29.31641-3.84766h-40.39063l-16.21485-16h-23.492166z" style="fill:url(#linearGradient936);filter:url(#filter1043);opacity:.4"/>
    <path d="m-14.106467 252.21116c-0.346767 4e-3 -0.600502-8e-3 -0.807982 0.10658-0.103742 0.0572-0.186086 0.15365-0.231468 0.27453-0.04538 0.12089-0.06136 0.26448-0.06136 0.44571v1.15756h4.409722v-0.71659c0-0.18123-0.01598-0.32482-0.06137-0.4457-0.0057-0.015-0.01321-0.0287-0.02045-0.0425-0.0028-5e-3 -0.0049-0.0105-0.0075-0.0156-0.0476-0.0934-0.117263-0.16937-0.203476-0.21693-0.207496-0.11448-0.461216-0.10204-0.807982-0.10605h-1.113181l-0.446894-0.44097h-0.647462z" style="fill:#e3dfd5"/>
    <path transform="matrix(.02756076 0 0 .02756076 -17.191658 249.89606)" d="m192.0586 99.99979c12.5819 0.145 21.7883-0.286 29.3164 3.86719 3.7641 2.0768 6.7518 5.57473 8.3984 9.96093 1.6465 4.38621 2.2266 9.59598 2.2266 16.17188v68c0 6.5759-0.58 11.78567-2.2266 16.17188-1.6466 4.3862-4.6343 7.90366-8.3984 9.98046-7.5281 4.1535-16.7345 3.70226-29.3164 3.84766h-80.12c-12.5819-0.1454-21.7883 0.3058-29.3164-3.84766-3.7641-2.0768-6.7518-5.59426-8.3984-9.98046-1.6438-4.38621-2.2238-9.59598-2.2238-16.17188v-52c0-6.5759 0.58-11.78566 2.2266-16.17188 0.205-0.5455 0.479-1.03993 0.742-1.54296 0.1-0.1848 0.178-0.3805 0.273-0.5664 1.727-3.38752 4.2547-6.14522 7.3828-7.87109 7.5287-4.15351 16.7351-3.70227 29.317-3.84767h24.3906l16.2149-16h39.4922z" clip-path="url(#clipPath1025-3)" style="filter:url(#filter1029);opacity:.2"/>
    <path d="m-11.898376 252.65213c0.346767 4e-3 0.600502-8e-3 0.807983 0.10658 0.103741 0.0572 0.186084 0.15364 0.231466 0.27453 0.04538 0.12089 0.06137 0.26447 0.06137 0.44571v1.87413c0 0.18124-0.01599 0.32482-0.06137 0.44571s-0.127725 0.21783-0.231466 0.27507c-0.207481 0.11447-0.461216 0.10204-0.807983 0.10604h-2.208261c-0.346767-4e-3 -0.600502 8e-3 -0.807983-0.10604-0.103741-0.0572-0.186084-0.15418-0.231466-0.27507-0.0453-0.12089-0.06129-0.26447-0.06129-0.44571v-1.43316c0-0.18124 0.01599-0.32482 0.06137-0.44571 0.0057-0.015 0.0132-0.0287 0.02045-0.0425 0.0028-5e-3 0.0049-0.0105 0.0075-0.0156 0.0476-0.0934 0.117263-0.16937 0.203476-0.21694 0.207497-0.11447 0.461232-0.10203 0.807999-0.10604h0.672208l0.446895-0.44097h1.088435z" style="fill:#faf8f6"/>
    <path d="m-14.106467 252.21116c-0.346767 4e-3 -0.600502-8e-3 -0.807982 0.10658-0.103742 0.0572-0.186086 0.15365-0.231468 0.27453-0.04538 0.12089-0.06136 0.26448-0.06136 0.44571v0.0551c0-0.18123 0.01599-0.32482 0.06136-0.4457 0.04538-0.12089 0.127726-0.2173 0.231468-0.27454 0.20748-0.11446 0.461215-0.10258 0.807982-0.10658h0.648004l0.431069 0.42536 0.04005-0.0395h-0.02422l-0.446898-0.44096h-0.647462z" style="fill:#ffffff;opacity:.4"/>
    <path d="m-12.987349 252.65213-0.446894 0.44097h-0.672209c-0.346768 4e-3 -0.600486-8e-3 -0.807983 0.10605-0.08621 0.0476-0.155879 0.12357-0.203476 0.21693-0.0026 5e-3 -0.0048 0.0105-0.0075 0.0156-0.0072 0.0139-0.0148 0.0275-0.02045 0.0425-0.04538 0.12089-0.06136 0.26447-0.06136 0.44571v0.0551c0-0.18124 0.01598-0.32482 0.06136-0.44571 0.0057-0.015 0.01321-0.0287 0.02046-0.0425 0.0028-5e-3 0.0049-0.0105 0.0075-0.0156 0.0476-0.0934 0.117263-0.16936 0.203476-0.21693 0.207497-0.11447 0.461216-0.10204 0.807983-0.10604h0.67221l0.446893-0.44098h1.088976c0.346767 4e-3 0.600503-8e-3 0.807983 0.10659 0.103741 0.0572 0.186086 0.15364 0.231467 0.27453 0.04538 0.12088 0.06137 0.26447 0.06137 0.44571v-0.0551c0-0.18123-0.01599-0.32482-0.06137-0.4457-0.04538-0.12089-0.127726-0.2173-0.231467-0.27454-0.207481-0.11446-0.461216-0.10258-0.807983-0.10658h-5.42e-4z" style="fill:#ffffff"/>
   </g>
  </g>
 </g>
</svg>
