<svg xmlns="http://www.w3.org/2000/svg" xmlns:xlink="http://www.w3.org/1999/xlink" width="256" height="256" version="1.0" style="enable-background:new">
 <defs>
  <filter style="color-interpolation-filters:sRGB" id="filter925" width="1.046" height="1.05" x="-.02" y="-.03">
   <feGaussianBlur stdDeviation="2.32"/>
  </filter>
  <filter style="color-interpolation-filters:sRGB" id="filter931" width="1.023" height="1.025" x="-.01" y="-.01">
   <feGaussianBlur stdDeviation="1.16"/>
  </filter>
  <linearGradient id="linearGradient1108" x1="296" x2="296" y1="-212" y2="236" gradientUnits="userSpaceOnUse" xlink:href="#linearGradient1013"/>
  <linearGradient id="linearGradient1013">
   <stop offset="0" style="stop-color:#ffffff"/>
   <stop style="stop-color:#ffffff;stop-opacity:0.09803922" offset=".125"/>
   <stop style="stop-color:#000000;stop-opacity:0.09803922" offset=".925"/>
   <stop offset="1" style="stop-color:#000000;stop-opacity:0.49803922"/>
  </linearGradient>
  <clipPath id="clipPath1082-3" clipPathUnits="userSpaceOnUse">
   <path d="M 361.9375,-212 C 507.2348,-212 528,-191.28677 528,-46.125 V 70.125 C 528,215.28618 507.2348,236 361.9375,236 H 214.0625 C 68.7652,236 48,215.28618 48,70.125 V -46.125 C 48,-191.28677 68.7652,-212 214.0625,-212 Z" style="fill:#8c59d9"/>
  </clipPath>
 </defs>
 <g transform="translate(0,-44)">
  <g>
   <g>
    <path d="m 162.53675,62.431991 c 72.64865,0 83.03125,10.356615 83.03125,82.937499 v 58.125 c 0,72.58059 -10.3826,82.9375 -83.03125,82.9375 h -73.9375 c -72.64865,0 -83.0312501,-10.35691 -83.0312501,-82.9375 v -58.125 c 0,-72.580884 10.3826001,-82.937499 83.0312501,-82.937499 z" style="opacity:0.2;filter:url(#filter925)"/>
    <path style="opacity:0.1;filter:url(#filter931)" d="m 162.53675,61.431991 c 72.64865,0 83.03125,10.356615 83.03125,82.937499 v 58.125 c 0,72.58059 -10.3826,82.9375 -83.03125,82.9375 h -73.9375 c -72.64865,0 -83.0312501,-10.35691 -83.0312501,-82.9375 v -58.125 c 0,-72.580884 10.3826001,-82.937499 83.0312501,-82.937499 z"/>
   </g>
   <g>
    <path style="fill:#a74abc" d="m 162.53675,60.431991 c 72.64865,0 83.03125,10.356615 83.03125,82.937499 v 58.125 c 0,72.58059 -10.3826,82.9375 -83.03125,82.9375 h -73.9375 c -72.64865,0 -83.0312501,-10.35691 -83.0312501,-82.9375 v -58.125 c 0,-72.580884 10.3826001,-82.937499 83.0312501,-82.937499 z"/>
    <g transform="translate(-7.4320012,-2.5680053)">
     <g transform="matrix(0.32451923,0,0,0.32451923,-93.357322,-328.38318)" style="font-weight:bold;font-size:322.10223389px;line-height:1.25;font-family:Montserrat;letter-spacing:0px;word-spacing:0px;fill:#813d9c;enable-background:new">
      <path d="m 812.20261,1309.7929 c -27.70079,0 -55.72369,7.4083 -74.72772,20.9366 l 18.03773,35.1092 c 12.56198,-9.9852 31.56602,-16.1051 49.92584,-16.1051 27.05659,0 42.19199,14.4169 42.19199,35.9977 l -50.00981,-0.2354 c -52.82417,-0.2486 -74.40225,26.624 -74.40225,57.2238 0,29.9555 22.04572,51.6578 62.6306,51.6578 25.44607,0 52.4405,-7.5298 61.78146,-23.3128 l 0.003,21.3432 53.33034,-0.01 -0.006,-104.013 c -0.003,-52.5026 -35.93005,-78.5921 -88.75482,-78.5921 z m -11.67969,151.6087 c -17.71562,0 -28.34499,-8.3747 -28.34499,-20.9367 0,-11.5956 7.40547,-23.1197 30.91845,-22.9689 l 44.53407,0.2354 0.003,16.1495 c 0.003,16.8142 -30.36157,27.5207 -47.11089,27.5207 z" style="fill:#813d9c"/>
     </g>
     <g transform="matrix(2.3076923,0,0,2.3076923,-19.679586,-365.82392)" style="font-size:40px;line-height:1000%;letter-spacing:0px;word-spacing:0px;fill:#813d9c;enable-background:new">
      <path d="m 55.305889,221.92387 c -0.944974,0.77446 -1.612023,1.05106 -2.445832,1.05106 -1.278503,0 -1.667605,-0.77447 -1.667605,-3.20851 v -10.78724 c 0,-2.8766 -0.277936,-4.48085 -1.111745,-5.80851 -1.22291,-1.99149 -4.573306,-3.04255 -7.852936,-3.04255 -5.225182,0 -9.33863,2.71064 -9.33863,6.19575 0,1.27234 1.056163,2.37871 2.39025,2.37871 1.334086,0 2.501413,-1.10637 2.501413,-2.3234 0,-0.22127 -0.05563,-0.49787 -0.111176,-0.8851 -0.111177,-0.49787 -0.16676,-0.94042 -0.16676,-1.32766 0,-1.49362 1.778783,-2.71064 4.002271,-2.71064 2.723757,0 4.672684,1.60425 4.672684,4.59149 v 4.39862 c -7.655771,2.24877 -9.953459,2.84819 -12.343697,4.95032 -1.22292,1.10637 -2.001135,2.98723 -2.001135,4.81276 0,3.48511 2.445832,5.91915 5.836637,5.91915 2.445831,0 5.172972,-1.1617 8.563777,-4.0383 0.277937,2.93191 1.790584,4.0383 4.069655,4.0383 1.889959,0 3.057287,-0.66383 5.002829,-2.76596 z m -9.128066,-3.1532 c 0,1.65958 -0.277936,2.26809 -1.445263,2.93191 -1.389682,0.77448 -3.338597,1.21703 -4.505924,1.21703 -1.945553,0 -3.501982,-1.88085 -3.501982,-4.25958 v -0.22127 c 0.05563,-3.31915 2.949483,-4.39712 9.453169,-6.6652 z" style="fill:#813d9c"/>
     </g>
     <path style="fill:#813d9c" d="m 173.28689,189.40193 c -2.10912,-0.18346 -4.76845,0.5502 -7.97798,2.20083 -3.20954,1.65062 -6.46492,4.12654 -9.76616,7.42779 -3.30124,3.20954 -6.37322,7.10684 -9.21596,11.69188 -2.75102,4.58506 -4.76845,9.67447 -6.05226,15.26822 -1.00872,4.12655 -1.37551,7.70287 -1.10043,10.72902 0.27513,2.93441 0.91703,5.3645 1.92573,7.2902 1.00871,1.83404 2.24667,3.16371 3.7139,3.98901 1.46721,0.91703 2.84273,1.37552 4.12655,1.37552 2.75102,-0.18346 5.50206,-0.77944 8.25309,-1.78818 2.38422,-0.91699 4.906,-2.33836 7.56533,-4.26409 2.65933,-2.01743 5.08941,-4.86013 7.29023,-8.52819 -0.0917,2.47593 0.0459,4.53921 0.41266,6.18981 0.4585,1.65062 0.91701,2.98022 1.37551,3.98901 0.5502,1.19211 1.23796,2.10909 2.06327,2.75102 0.82531,0.55027 1.78817,0.91708 2.88858,1.10042 1.10041,0.27513 2.24667,0.36688 3.43879,0.2751 1.2838,-0.0918 2.52178,-0.32095 3.71388,-0.68778 1.19212,-0.36679 2.2467,-0.8253 3.1637,-1.3755 1.37552,-0.91699 3.07197,-2.47592 5.08939,-4.67675 2.10913,-2.2925 4.21825,-4.76843 6.3274,-7.42779 2.20082,-2.75102 4.30995,-5.45621 6.32736,-8.11553 2.01741,-2.75102 3.66801,-5.04355 4.95183,-6.87757 1.10047,-1.46721 1.74237,-2.75102 1.92574,-3.85147 0.27501,-1.10038 0.22916,-1.92572 -0.13754,-2.47592 -0.3668,-0.55013 -0.917,-0.73355 -1.65064,-0.5502 -0.73359,0.0918 -1.46719,0.55024 -2.20082,1.37554 -0.55023,0.7336 -1.46719,1.87987 -2.751,3.43877 -1.19214,1.55893 -2.56764,3.3471 -4.12656,5.36453 -1.55893,2.0174 -3.25538,4.12654 -5.0894,6.32737 -1.74232,2.10909 -3.4388,4.08069 -5.0894,5.91468 -1.65062,1.74233 -3.20955,3.20956 -4.67677,4.40165 -1.4672,1.10042 -2.65932,1.65062 -3.57632,1.65062 -1.10043,0 -1.97158,-0.22915 -2.61348,-0.68774 -0.55022,-0.5502 -0.96287,-1.23796 -1.23797,-2.06328 -0.27511,-0.8253 -0.45851,-1.69648 -0.5502,-2.61346 0,-1.00874 0.0459,-1.92573 0.13756,-2.75105 0.27508,-1.3755 0.50435,-2.52175 0.68775,-3.43879 0.18351,-0.91698 0.32098,-1.69647 0.41265,-2.33836 0.18351,-0.73364 0.32098,-1.42137 0.41267,-2.06328 0.18326,-0.73359 0.36678,-1.51306 0.5502,-2.33836 0.917,-4.21826 1.65063,-7.65704 2.20083,-10.31638 0.5502,-2.65932 0.96285,-4.76845 1.23795,-6.32737 0.27512,-1.55889 0.41267,-2.61348 0.41267,-3.16368 0,-0.64198 -0.0457,-1.05462 -0.13749,-1.23797 -0.18351,-0.0918 -0.5502,-0.13753 -1.1004,-0.13753 -0.4585,0 -1.14625,0.0457 -2.06327,0.13753 -0.8253,0.0919 -1.87988,0.2751 -3.16369,0.5502 1.92574,-2.93443 2.65934,-5.2728 2.20084,-7.01513 -0.36683,-1.83401 -1.19213,-3.20953 -2.47594,-4.12654 -1.55892,-1.00869 -3.57634,-1.74233 -6.05227,-2.20083 z m -3.23933,8.60384 c 0.34961,0.0185 0.64878,0.13085 0.90096,0.33702 0.27511,0.36683 0.45851,0.87118 0.5502,1.51306 0.0917,0.5502 0.0459,1.32965 -0.13756,2.33838 -0.0917,0.91699 -0.50436,2.10912 -1.23796,3.57635 0.7336,-0.18323 1.46722,-0.32088 2.20082,-0.41266 0.73361,-0.0918 1.32967,-0.22915 1.78817,-0.41266 0.55021,-0.18323 1.05456,-0.32086 1.51307,-0.41266 0.36679,-0.0916 0.41265,0.64193 0.13756,2.20082 -0.18339,1.46723 -0.50436,3.3471 -0.96286,5.63963 -0.45851,2.29255 -1.00871,4.67677 -1.65062,7.15267 -0.64191,2.47592 -1.19211,4.63089 -1.65062,6.46493 -0.0917,0.45849 -0.50435,1.19208 -1.23796,2.20082 -0.64191,1.00872 -1.51307,2.10912 -2.61348,3.30123 -1.00871,1.1921 -2.20082,2.33838 -3.57634,3.43878 -1.28381,1.10042 -2.61348,2.01743 -3.989,2.75102 -1.28381,0.64184 -2.56762,1.00863 -3.85143,1.10043 -1.28382,0 -2.43008,-0.50437 -3.4388,-1.51306 -0.5502,-0.55023 -0.91699,-1.69646 -1.10041,-3.43879 -0.18346,-1.83401 -0.13754,-3.94318 0.13754,-6.32737 0.36682,-2.38424 0.96287,-4.90601 1.78817,-7.56533 0.82532,-2.75102 1.92573,-5.31865 3.30124,-7.70287 3.30124,-5.77719 6.18982,-9.72032 8.66575,-11.82946 1.92572,-1.6506 3.41471,-2.45183 4.46355,-2.40028 z"/>
     <g transform="matrix(2.3076923,0,0,2.3076923,-21.749976,-361.20853)" style="fill:#813d9c;enable-background:new">
      <path style="fill:#813d9c;fill-rule:evenodd" d="m 37,68 c -2.704645,-0.03825 -2.704645,4.03825 0,4 h 9.880859 c 0.01107,0.001 0.285634,0.0327 0.585938,0.197266 0.306304,0.16789 0.485897,0.188343 0.537109,0.939453 v -0.01953 L 48.25,78.310547 C 47.789324,78.134111 47.480469,78.058594 47.480469,78.058594 L 47.244141,78 H 38 c -4.333333,0 -5.896484,4.367188 -5.896484,4.367188 L 32,82.675781 V 85 c 0,3.03333 1.431289,5.127712 2.939453,6.070312 C 36.447617,92.012912 38,92 38,92 h 7.591797 l 3.392578,-2.203125 0.01953,0.320313 c 0.08969,2.735348 4.223189,2.492675 3.992188,-0.234376 l -1,-17.009765 v -0.0098 c -0.140818,-2.06533 -1.461734,-3.545828 -2.607422,-4.173828 -1.145688,-0.62799 -2.257813,-0.685547 -2.257813,-0.685547 L 47.064453,68 Z m 1,14 h 8.644531 c 0.106906,0.0312 0.525263,0.141312 1.03711,0.482422 0.558515,0.372213 0.877827,0.68942 0.894531,1.355469 L 48.714844,85.201172 44.408203,88 H 38 C 38,88 37.552383,87.9871 37.060547,87.679688 36.568711,87.372288 36,86.96667 36,85 V 83.435547 C 36.102847,83.130577 36.534758,82 38,82 Z" transform="translate(0,172)"/>
     </g>
     <g style="font-weight:bold;font-size:322.10223389px;line-height:1.25;font-family:Montserrat;letter-spacing:0px;word-spacing:0px;fill:#ffffff;enable-background:new" transform="matrix(0.32451923,0,0,0.32451923,-93.357322,-323.7678)">
      <path style="fill:#ffffff" d="m 812.20261,1309.7929 c -27.70079,0 -55.72369,7.4083 -74.72772,20.9366 l 18.03773,35.1092 c 12.56198,-9.9852 31.56602,-16.1051 49.92584,-16.1051 27.05659,0 42.19199,14.4169 42.19199,35.9977 l -50.00981,-0.2354 c -52.82417,-0.2486 -74.40225,26.624 -74.40225,57.2238 0,29.9555 22.04572,51.6578 62.6306,51.6578 25.44607,0 52.4405,-7.5298 61.78146,-23.3128 l 0.003,21.3432 53.33034,-0.01 -0.006,-104.013 c -0.003,-52.5026 -35.93005,-78.5921 -88.75482,-78.5921 z m -11.67969,151.6087 c -17.71562,0 -28.34499,-8.3747 -28.34499,-20.9367 0,-11.5956 7.40547,-23.1197 30.91845,-22.9689 l 44.53407,0.2354 0.003,16.1495 c 0.003,16.8142 -30.36157,27.5207 -47.11089,27.5207 z"/>
     </g>
     <g style="font-size:40px;line-height:1000%;letter-spacing:0px;word-spacing:0px;enable-background:new" transform="matrix(2.3076923,0,0,2.3076923,-19.679586,-361.20853)">
      <path style="fill:#ffffff" d="m 55.305889,221.92387 c -0.944974,0.77446 -1.612023,1.05106 -2.445832,1.05106 -1.278503,0 -1.667605,-0.77447 -1.667605,-3.20851 v -10.78724 c 0,-2.8766 -0.277936,-4.48085 -1.111745,-5.80851 -1.22291,-1.99149 -4.573306,-3.04255 -7.852936,-3.04255 -5.225182,0 -9.33863,2.71064 -9.33863,6.19575 0,1.27234 1.056163,2.37871 2.39025,2.37871 1.334086,0 2.501413,-1.10637 2.501413,-2.3234 0,-0.22127 -0.05563,-0.49787 -0.111176,-0.8851 -0.111177,-0.49787 -0.16676,-0.94042 -0.16676,-1.32766 0,-1.49362 1.778783,-2.71064 4.002271,-2.71064 2.723757,0 4.672684,1.60425 4.672684,4.59149 v 4.39862 c -7.655771,2.24877 -9.953459,2.84819 -12.343697,4.95032 -1.22292,1.10637 -2.001135,2.98723 -2.001135,4.81276 0,3.48511 2.445832,5.91915 5.836637,5.91915 2.445831,0 5.172972,-1.1617 8.563777,-4.0383 0.277937,2.93191 1.790584,4.0383 4.069655,4.0383 1.889959,0 3.057287,-0.66383 5.002829,-2.76596 z m -9.128066,-3.1532 c 0,1.65958 -0.277936,2.26809 -1.445263,2.93191 -1.389682,0.77448 -3.338597,1.21703 -4.505924,1.21703 -1.945553,0 -3.501982,-1.88085 -3.501982,-4.25958 v -0.22127 c 0.05563,-3.31915 2.949483,-4.39712 9.453169,-6.6652 z"/>
     </g>
     <path d="m 173.28689,194.01732 c -2.10912,-0.18346 -4.76845,0.5502 -7.97798,2.20082 -3.20954,1.65063 -6.46492,4.12655 -9.76616,7.42779 -3.30124,3.20954 -6.37322,7.10684 -9.21596,11.69188 -2.75102,4.58506 -4.76845,9.67447 -6.05226,15.26822 -1.00872,4.12655 -1.37551,7.70287 -1.10043,10.72902 0.27513,2.93442 0.91703,5.36451 1.92573,7.29021 1.00871,1.83404 2.24667,3.16371 3.7139,3.98901 1.46721,0.91703 2.84273,1.37552 4.12655,1.37552 2.75102,-0.18346 5.50206,-0.77945 8.25309,-1.78819 2.38422,-0.91698 4.906,-2.33836 7.56533,-4.26408 2.65933,-2.01743 5.08941,-4.86014 7.29023,-8.52819 -0.0917,2.47592 0.0459,4.5392 0.41266,6.1898 0.4585,1.65063 0.91701,2.98023 1.37551,3.98901 0.5502,1.19211 1.23796,2.10909 2.06327,2.75103 0.82531,0.55026 1.78817,0.91707 2.88858,1.10042 1.10041,0.27512 2.24667,0.36688 3.43879,0.2751 1.2838,-0.0919 2.52178,-0.32096 3.71388,-0.68779 1.19212,-0.36678 2.2467,-0.8253 3.1637,-1.3755 1.37552,-0.91698 3.07197,-2.47592 5.08939,-4.67674 2.10913,-2.29251 4.21825,-4.76843 6.3274,-7.42779 2.20082,-2.75103 4.30995,-5.45622 6.32736,-8.11554 2.01741,-2.75102 3.66801,-5.04355 4.95183,-6.87756 1.10047,-1.46721 1.74237,-2.75103 1.92574,-3.85147 0.27501,-1.10038 0.22916,-1.92573 -0.13754,-2.47593 -0.3668,-0.55013 -0.917,-0.73354 -1.65064,-0.5502 -0.73359,0.0918 -1.46719,0.55025 -2.20082,1.37555 -0.55023,0.73359 -1.46719,1.87987 -2.751,3.43876 -1.19214,1.55894 -2.56764,3.3471 -4.12656,5.36453 -1.55893,2.01741 -3.25538,4.12655 -5.0894,6.32737 -1.74232,2.10909 -3.4388,4.08069 -5.0894,5.91469 -1.65062,1.74233 -3.20955,3.20956 -4.67677,4.40164 -1.4672,1.10042 -2.65932,1.65062 -3.57632,1.65062 -1.10043,0 -1.97158,-0.22915 -2.61348,-0.68773 -0.55022,-0.5502 -0.96287,-1.23797 -1.23797,-2.06329 -0.27511,-0.8253 -0.45851,-1.69648 -0.5502,-2.61346 0,-1.00874 0.0459,-1.92572 0.13756,-2.75105 0.27508,-1.3755 0.50435,-2.52175 0.68775,-3.43878 0.18351,-0.91699 0.32098,-1.69648 0.41265,-2.33836 0.18351,-0.73364 0.32098,-1.42138 0.41267,-2.06329 0.18326,-0.73359 0.36678,-1.51306 0.5502,-2.33836 0.917,-4.21825 1.65063,-7.65704 2.20083,-10.31638 0.5502,-2.65931 0.96285,-4.76845 1.23795,-6.32736 0.27512,-1.5589 0.41267,-2.61349 0.41267,-3.16369 0,-0.64198 -0.0457,-1.05461 -0.13749,-1.23796 -0.18351,-0.0919 -0.5502,-0.13754 -1.1004,-0.13754 -0.4585,0 -1.14625,0.0457 -2.06327,0.13754 -0.8253,0.0918 -1.87988,0.2751 -3.16369,0.5502 1.92574,-2.93444 2.65934,-5.2728 2.20084,-7.01513 -0.36683,-1.83402 -1.19213,-3.20954 -2.47594,-4.12655 -1.55892,-1.00869 -3.57634,-1.74233 -6.05227,-2.20082 z m -3.23933,8.60384 c 0.34961,0.0185 0.64878,0.13084 0.90096,0.33701 0.27511,0.36683 0.45851,0.87118 0.5502,1.51306 0.0917,0.5502 0.0459,1.32965 -0.13756,2.33839 -0.0917,0.91698 -0.50436,2.10911 -1.23796,3.57635 0.7336,-0.18324 1.46722,-0.32089 2.20082,-0.41267 0.73361,-0.0918 1.32967,-0.22915 1.78817,-0.41266 0.55021,-0.18323 1.05456,-0.32086 1.51307,-0.41266 0.36679,-0.0916 0.41265,0.64193 0.13756,2.20082 -0.18339,1.46723 -0.50436,3.3471 -0.96286,5.63963 -0.45851,2.29256 -1.00871,4.67677 -1.65062,7.15267 -0.64191,2.47593 -1.19211,4.6309 -1.65062,6.46493 -0.0917,0.4585 -0.50435,1.19209 -1.23796,2.20083 -0.64191,1.00871 -1.51307,2.10911 -2.61348,3.30122 -1.00871,1.19211 -2.20082,2.33839 -3.57634,3.43879 -1.28381,1.10042 -2.61348,2.01743 -3.989,2.75102 -1.28381,0.64184 -2.56762,1.00862 -3.85143,1.10042 -1.28382,0 -2.43008,-0.50437 -3.4388,-1.51306 -0.5502,-0.55022 -0.91699,-1.69645 -1.10041,-3.43878 -0.18346,-1.83402 -0.13754,-3.94318 0.13754,-6.32737 0.36682,-2.38424 0.96287,-4.90602 1.78817,-7.56533 0.82532,-2.75103 1.92573,-5.31866 3.30124,-7.70287 3.30124,-5.7772 6.18982,-9.72033 8.66575,-11.82947 1.92572,-1.6506 3.41471,-2.45183 4.46355,-2.40027 z" style="fill:#ffffff"/>
     <g transform="matrix(2.3076923,0,0,2.3076923,-21.749976,-356.59315)" style="enable-background:new">
      <path d="m 37,68 c -2.704645,-0.03825 -2.704645,4.03825 0,4 h 9.880859 c 0.01107,0.001 0.285634,0.0327 0.585938,0.197266 0.306304,0.16789 0.485897,0.188343 0.537109,0.939453 v -0.01953 L 48.25,78.310547 C 47.789324,78.134111 47.480469,78.058594 47.480469,78.058594 L 47.244141,78 H 38 c -4.333333,0 -5.896484,4.367188 -5.896484,4.367188 L 32,82.675781 V 85 c 0,3.03333 1.431289,5.127712 2.939453,6.070312 C 36.447617,92.012912 38,92 38,92 h 7.591797 l 3.392578,-2.203125 0.01953,0.320313 c 0.08969,2.735348 4.223189,2.492675 3.992188,-0.234376 l -1,-17.009765 v -0.0098 c -0.140818,-2.06533 -1.461734,-3.545828 -2.607422,-4.173828 -1.145688,-0.62799 -2.257813,-0.685547 -2.257813,-0.685547 L 47.064453,68 Z m 1,14 h 8.644531 c 0.106906,0.0312 0.525263,0.141312 1.03711,0.482422 0.558515,0.372213 0.877827,0.68942 0.894531,1.355469 L 48.714844,85.201172 44.408203,88 H 38 C 38,88 37.552383,87.9871 37.060547,87.679688 36.568711,87.372288 36,86.96667 36,85 V 83.435547 C 36.102847,83.130577 36.534758,82 38,82 Z" transform="translate(0,172)" style="fill:#ffffff;fill-rule:evenodd"/>
     </g>
    </g>
   </g>
   <g>
    <path d="m 361.9375,-212 c 145.2973,0 166.0625,20.71323 166.0625,165.875 v 116.25 c 0,145.16118 -20.7652,165.875 -166.0625,165.875 h -147.875 c -145.2973,0 -166.0625,-20.71382 -166.0625,-165.875 v -116.25 c 0,-145.16177 20.7652,-165.875 166.0625,-165.875 z" clip-path="url(#clipPath1082-3)" transform="matrix(0.5,0,0,0.5,-18.432,166.43199)" style="opacity:0.4;fill:none;stroke:url(#linearGradient1108);stroke-width:8;stroke-linecap:round;stroke-linejoin:round"/>
   </g>
  </g>
 </g>
</svg>
