<svg xmlns="http://www.w3.org/2000/svg" xmlns:xlink="http://www.w3.org/1999/xlink" width="256" height="256" version="1.1" viewBox="0 0 67.73 67.73">
 <defs>
  <linearGradient id="linearGradient936">
   <stop offset="0" style="stop-color:#ff0038"/>
   <stop style="stop-color:#ff6400;stop-opacity:0.99215686" offset=".5"/>
   <stop offset=".75" style="stop-color:#cbc019;stop-opacity:0.98823529"/>
   <stop style="stop-color:#0ce3e5;stop-opacity:0.98823529" offset=".875"/>
   <stop offset=".938" style="stop-color:#067ef2;stop-opacity:0.98823529"/>
   <stop offset="1" style="stop-color:#001aff;stop-opacity:0.98765433"/>
  </linearGradient>
  <linearGradient id="linearGradient930">
   <stop offset="0" style="stop-color:#191313"/>
   <stop offset="1" style="stop-color:#191313;stop-opacity:0"/>
  </linearGradient>
  <linearGradient id="linearGradient1304">
   <stop style="stop-color:#1c1c1c" offset="0"/>
   <stop style="stop-color:#555555" offset="1"/>
  </linearGradient>
  <linearGradient id="linearGradient1108" x1="296" x2="296" y1="-212" y2="236" gradientUnits="userSpaceOnUse" xlink:href="#linearGradient1013"/>
  <linearGradient id="linearGradient1013">
   <stop style="stop-color:#ffffff" offset="0"/>
   <stop offset=".125" style="stop-color:#ffffff;stop-opacity:0.09803922"/>
   <stop offset=".925" style="stop-color:#000000;stop-opacity:0.09803922"/>
   <stop style="stop-color:#000000;stop-opacity:0.49803922" offset="1"/>
  </linearGradient>
  <clipPath id="clipPath1082-3-361" clipPathUnits="userSpaceOnUse">
   <path style="fill:#8c59d9" d="M 361.9375,-212 C 507.2348,-212 528,-191.28677 528,-46.125 V 70.125 C 528,215.28618 507.2348,236 361.9375,236 H 214.0625 C 68.7652,236 48,215.28618 48,70.125 V -46.125 C 48,-191.28677 68.7652,-212 214.0625,-212 Z"/>
  </clipPath>
  <filter id="filter4569" width="1.023" height="1.025" x="-.01" y="-.01" style="color-interpolation-filters:sRGB">
   <feGaussianBlur stdDeviation="1.16"/>
  </filter>
  <filter id="filter939" width="1.046" height="1.05" x="-.02" y="-.03" style="color-interpolation-filters:sRGB">
   <feGaussianBlur stdDeviation="2.32"/>
  </filter>
  <linearGradient id="linearGradient954" x1="7.5" x2="64.112" y1="230.789" y2="294.501" gradientTransform="matrix(1.0193681,0,0,1.0193681,0,-5.7113166)" gradientUnits="userSpaceOnUse" xlink:href="#linearGradient1304"/>
  <linearGradient id="linearGradient4324" x1="29" x2="29" y1="33.133" y2="53.18" gradientTransform="matrix(1.1760865,0,0,1.1760865,-3.803028,222.73499)" gradientUnits="userSpaceOnUse" xlink:href="#linearGradient4318"/>
  <linearGradient id="linearGradient4318">
   <stop style="stop-color:#7b1700" offset="0"/>
   <stop style="stop-color:#5b1e11;stop-opacity:0" offset="1"/>
  </linearGradient>
  <radialGradient id="radialGradient932" cx="-23.531" cy="255.003" r="32.342" fx="-23.531" fy="255.003" gradientTransform="matrix(0.01768374,-2.3066991e-8,6.4708365e-7,0.49607043,-23.115051,129.64814)" gradientUnits="userSpaceOnUse" xlink:href="#linearGradient930"/>
  <linearGradient id="linearGradient938" x1="31.75" x2="31.75" y1="248.052" y2="275.833" gradientUnits="userSpaceOnUse" xlink:href="#linearGradient936"/>
 </defs>
 <g transform="translate(0,-229.26666)">
  <path d="m 162.53675,5.5680001 c 72.64865,0 83.03125,10.3566149 83.03125,82.9375049 v 58.125005 c 0,72.58059 -10.3826,82.9375 -83.03125,82.9375 H 88.599254 C 15.9506,229.56801 5.568,219.2111 5.568,146.63051 V 88.505505 c 0,-72.58089 10.3826,-82.9375049 83.031254,-82.9375049 z" transform="matrix(0.26970779,0,0,0.26970779,-1.9098094e-8,231.46531)" style="opacity:0.2;filter:url(#filter939)"/>
  <path style="opacity:0.1;fill:none;stroke:#000000;stroke-width:1.07883108;stroke-linecap:round;stroke-linejoin:round" d="m 43.837429,232.42763 c 19.593907,0 22.394176,2.79326 22.394176,22.36889 v 15.67677 c 0,19.57555 -2.800269,22.36889 -22.394176,22.36889 H 23.89591 c -19.5939088,0 -22.394177,-2.79334 -22.394177,-22.36889 v -15.67677 c 0,-19.57563 2.8002682,-22.36889 22.394177,-22.36889 z"/>
  <path style="opacity:0.1;filter:url(#filter4569)" d="m 162.53675,3.5680001 c 72.64865,0 83.03125,10.3566149 83.03125,82.9375049 v 58.125005 c 0,72.58059 -10.3826,82.9375 -83.03125,82.9375 H 88.599254 C 15.9506,227.56801 5.568,217.2111 5.568,144.63051 V 86.505505 c 0,-72.58089 10.3826,-82.9375049 83.031254,-82.9375049 z" transform="matrix(0.26970779,0,0,0.26970779,-1.9098094e-8,231.46531)"/>
  <path d="m 43.837427,232.42763 c 19.593907,0 22.394175,2.79326 22.394175,22.36889 v 15.67677 c 0,19.57555 -2.800268,22.36889 -22.394175,22.36889 h -19.94152 c -19.5939074,0 -22.3941756,-2.79334 -22.3941756,-22.36889 v -15.67677 c 0,-19.57563 2.8002682,-22.36889 22.3941756,-22.36889 z" style="fill:url(#linearGradient954)"/>
  <path d="M 1.4893589,266.35374 H 15.420555 c 0,0 3.41339,-0.73991 3.41339,-3.48761 0,0 0.713187,2.65665 4.467614,2.65665 0,0 2.539661,0.0482 2.566618,2.96581 0.713683,0.33991 1.754404,0.10461 1.754404,0.10461 3.214896,-11.33731 0.695068,-23.67597 1.637874,-23.78532 0.964246,-0.11185 -4.17e-4,15.92999 2.288288,28.85371 0.03444,-0.11866 1.790096,0.0641 1.826635,-0.053 1.699394,-5.44739 0.841242,-8.4532 4.174129,-7.53956 0,0 6.20763,1.20367 7.303293,-3.62917 0,0 1.464361,-3.29793 3.080823,-3.29793 2.317394,0 3.768135,4.52458 3.768135,4.52458 0,0 1.456557,2.56604 3.576871,2.56604 2.120318,0 3.440095,-2.12409 3.440095,-2.12409 0,0 0.452769,-1.67847 0.77329,-1.67847 0.563153,0 1.366669,1.18392 2.584075,2.4202 0,0 2.028443,1.72828 4.098028,1.72828" style="opacity:0.15;fill:none;stroke:#000000;stroke-width:0.62800735;stroke-linejoin:round"/>
  <path style="opacity:0.4;fill:none;stroke:url(#linearGradient1108);stroke-width:8;stroke-linecap:round;stroke-linejoin:round" d="M 361.9375,-212 C 507.2348,-212 528,-191.28677 528,-46.125 V 70.125 C 528,215.28618 507.2348,236 361.9375,236 H 214.0625 C 68.7652,236 48,215.28618 48,70.125 V -46.125 C 48,-191.28677 68.7652,-212 214.0625,-212 Z" clip-path="url(#clipPath1082-3-361)" transform="matrix(0.1348539,0,0,0.1348539,-4.9712559,261.01666)"/>
  <path d="m 30.500166,280.44831 c -1.835713,-0.28715 -3.413596,-1.16771 -4.60139,-2.56788 -2.161648,-2.54815 -2.393333,-6.15094 -0.557482,-8.66913 l 0.526883,-0.72271 v -11.40195 c 0,-11.08456 0.0059,-11.42076 0.211683,-12.07812 0.572434,-1.82851 1.952569,-3.25824 3.767277,-3.90263 1.039236,-0.36903 2.65874,-0.38041 3.68149,-0.0258 1.437144,0.49819 2.615578,1.53255 3.310529,2.9058 0.650801,1.286 0.626089,0.76684 0.626089,13.15306 v 11.32549 l 0.421175,0.54592 c 0.876091,1.13558 1.319715,2.52797 1.323848,4.15512 0.0084,3.30997 -2.402578,6.38421 -5.585793,7.12244 -0.913128,0.21177 -2.330813,0.28458 -3.124309,0.16045 z m 3.186168,-3.44137 c 2.056217,-1.01623 2.993668,-3.49541 2.092267,-5.53318 -0.120553,-0.27253 -0.483397,-0.7725 -0.806323,-1.11106 l -0.58714,-0.61555 -0.02927,-11.90944 -0.02928,-11.90944 -0.251438,-0.55613 c -0.547203,-1.2103 -1.691772,-1.80731 -2.932557,-1.52963 -0.772554,0.17289 -1.373095,0.62763 -1.734481,1.3134 l -0.294884,0.55957 -0.02837,11.9776 -0.02838,11.9776 -0.513956,0.53322 c -0.952949,0.98867 -1.430012,2.41878 -1.190971,3.57024 0.281823,1.35753 1.137777,2.572 2.218835,3.1482 0.858327,0.45748 1.29658,0.55041 2.395366,0.50792 0.823658,-0.0318 1.032449,-0.0832 1.72058,-0.42332 z m -2.923982,-0.80236 c -1.404876,-0.42889 -2.27902,-1.59174 -2.284613,-3.03916 -0.0035,-0.91678 0.291859,-1.4875 1.167334,-2.25531 l 0.58262,-0.51096 0.0013,-11.30448 0.0013,-11.30448 h 1.48953 1.489533 l 0.0024,11.35768 0.0024,11.35767 0.429995,0.3043 c 0.236495,0.16736 0.604568,0.56722 0.817936,0.88857 0.48396,0.7289 0.583078,1.59615 0.284996,2.4936 -0.261615,0.78765 -1.16177,1.67922 -1.94867,1.93009 -0.586121,0.18686 -1.564187,0.22649 -2.035889,0.0825 z" style="fill:#ccf4ff"/>
  <path style="fill:url(#linearGradient938)" d="m 30.762352,276.20458 c -1.404876,-0.42889 -2.27902,-1.59174 -2.284613,-3.03916 -0.0035,-0.91678 0.291859,-1.4875 1.167334,-2.25531 l 0.58262,-0.51096 c 8.67e-4,-7.53632 0.0017,-15.07264 0.0026,-22.60896 h 1.48953 1.489533 l 0.0048,22.71535 0.429995,0.3043 c 0.236495,0.16736 0.604568,0.56722 0.817936,0.88857 0.48396,0.7289 0.583078,1.59615 0.284996,2.4936 -0.261615,0.78765 -1.16177,1.67922 -1.94867,1.93009 -0.586121,0.18686 -1.564187,0.22649 -2.035889,0.0825 z"/>
  <path style="fill:url(#radialGradient932);fill-rule:evenodd;stroke:url(#linearGradient4227);stroke-width:0.62800735;stroke-linejoin:round" d="M 1.4893612,265.72752 H 15.043131 c 0,0 3.332515,0.056 3.332515,-5.22769 0,0 0.740144,4.41249 4.871998,4.41249 0,0 3.510181,0.39765 3.510181,3.17912 2.334295,-7.89005 1.585849,-26.54721 2.556549,-26.54721 0.9707,0 1.108632,15.17887 3.097061,31.46031 1.2133,-4.10101 0.892761,-8.0856 4.544976,-7.71805 0,0 5.884121,1.80088 6.979784,-2.94023 0,0 1.49132,-3.69365 4.078306,-3.69365 2.586983,0 4.037725,3.6569 4.037725,3.6569 0,0 1.186969,3.32611 3.307282,3.32611 2.120314,0 2.739157,-2.4073 2.739157,-2.4073 0,0 0.344933,-1.32311 1.420308,-1.32311 1.075375,0 1.501467,0.91885 2.718872,2.13167 0,0 1.866687,1.91114 3.936272,1.91114"/>
  <path style="fill:url(#linearGradient4324);fill-rule:evenodd;opacity:0.25" d="m 29.313455,241.5432 c -0.970701,0 -0.22231,18.65919 -2.55661,26.54922 0,-2.78146 -3.509882,-3.1791 -3.509882,-3.1791 -4.131854,0 -4.872032,-4.41261 -4.872032,-4.41261 0,5.28359 -3.330712,5.22577 -3.330712,5.22577 H 1.4893612 v 23.4574 c 0,1.95467 1.5736039,3.52828 3.5282592,3.52828 H 62.645862 c 1.954651,0 3.528255,-1.57361 3.528255,-3.52828 v -23.2369 c -2.069585,0 -3.937134,-1.91113 -3.937134,-1.91113 -1.217405,-1.21285 -1.642025,-2.13166 -2.7174,-2.13166 -1.075375,0 -1.421871,1.3231 -1.421871,1.3231 0,0 -0.617764,2.40731 -2.738076,2.40731 -2.120314,0 -3.307745,-3.32614 -3.307742,-3.32614 0,0 -1.451221,-3.65689 -4.038205,-3.65689 -2.586985,0 -4.077253,3.69366 -4.077253,3.69366 -1.095663,4.7411 -6.980717,2.94022 -6.980717,2.94022 -3.652213,-0.36753 -3.330249,3.61704 -4.543554,7.71808 -1.988429,-16.28147 -2.12801,-31.46033 -3.09871,-31.46033 z"/>
 </g>
</svg>
