<svg width="256" height="256" version="1.1" viewBox="0 0 67.73 67.73" xmlns="http://www.w3.org/2000/svg" xmlns:xlink="http://www.w3.org/1999/xlink">
 <defs>
  <clipPath id="clipPath1082-3-5">
   <path d="M 361.9375,-212 C 507.2348,-212 528,-191.28677 528,-46.125 V 70.125 C 528,215.28618 507.2348,236 361.9375,236 H 214.0625 C 68.7652,236 48,215.28618 48,70.125 V -46.125 C 48,-191.28677 68.7652,-212 214.0625,-212 Z" style="fill:#8c59d9"/>
  </clipPath>
  <filter id="filter4569-2" x="-.01" y="-.01" width="1.023" height="1.025" style="color-interpolation-filters:sRGB">
   <feGaussianBlur stdDeviation="1.16"/>
  </filter>
  <filter id="filter913" x="-.02" y="-.03" width="1.046" height="1.05" style="color-interpolation-filters:sRGB">
   <feGaussianBlur stdDeviation="2.32"/>
  </filter>
  <linearGradient id="linearGradient906" x1="296" x2="296" y1="-212" y2="236" gradientUnits="userSpaceOnUse">
   <stop style="stop-color:#ffffff" offset="0"/>
   <stop style="stop-color:#ffffff;stop-opacity:.09803922" offset=".125"/>
   <stop style="stop-color:#000000;stop-opacity:.09803922" offset=".925"/>
   <stop style="stop-color:#000000;stop-opacity:.49803922" offset="1"/>
  </linearGradient>
  <filter id="filter898" x="-.05" y="-.05" width="1.096" height="1.096" style="color-interpolation-filters:sRGB">
   <feGaussianBlur stdDeviation="1.055"/>
  </filter>
 </defs>
 <g transform="translate(0,-229.26666)">
  <path transform="matrix(.26970778 0 0 .26970778 -7.1289177 220.56049)" d="m188.96876 45.999995c72.64865 0 83.03125 10.356615 83.03125 82.937505v58.125c0 72.58059-10.3826 82.9375-83.03125 82.9375h-73.9375c-72.648654 0-83.031254-10.35691-83.031254-82.9375v-58.125c0-72.58089 10.3826-82.937505 83.031254-82.937505z" style="filter:url(#filter913);opacity:.2"/>
  <path transform="matrix(.26970778 0 0 .26970778 -7.1289177 220.56049)" d="m188.96876 43.999995c72.64865 0 83.03125 10.356615 83.03125 82.937505v58.125c0 72.58059-10.3826 82.9375-83.03125 82.9375h-73.9375c-72.648654 0-83.031254-10.35691-83.031254-82.9375v-58.125c0-72.58089 10.3826-82.937505 83.031254-82.937505z" style="filter:url(#filter4569-2);opacity:.1"/>
  <path d="m23.895905 232.42763c-9.797337 0-15.39413 0.69699-18.544517 3.84334-3.150381 3.14634-3.849657 8.73736-3.849657 18.52555v15.67677c0 9.78815 0.699276 15.3792 3.849657 18.52555 3.150387 3.14636 8.7471787 3.84333 18.544517 3.84333h19.94152c9.797339 0 15.394134-0.69697 18.544517-3.84333 3.150384-3.14635 3.849659-8.7374 3.849659-18.52555v-15.67677c0-9.78819-0.699275-15.37921-3.849659-18.52555-3.150383-3.14635-8.74718-3.84334-18.544517-3.84334z" style="fill:#4d4d4d"/>
  <path d="m1.5017313 269.93387v0.53942c0 9.78815 0.699276 15.3792 3.849657 18.52555 3.150387 3.14636 8.7471787 3.84333 18.544517 3.84333h19.94152c9.797339 0 15.394134-0.69697 18.544517-3.84333 3.150384-3.14635 3.849659-8.7374 3.849659-18.52555v-0.53942c0 9.78815-0.699275 15.3792-3.849659 18.52555-3.150383 3.14636-8.747178 3.84334-18.544517 3.84334h-19.94152c-9.797338 0-15.39413-0.69698-18.544517-3.84334-3.150381-3.14635-3.849657-8.7374-3.849657-18.52555z" style="fill:#131313;opacity:.2"/>
  <g transform="translate(.7329777 -.359275)" style="fill-opacity:.98598129;fill:#201d1d;filter:url(#filter898);opacity:.3">
   <circle cx="33.134" cy="262.994" r="8.467" style="fill-opacity:.98598129;fill:#201d1d"/>
   <path d="m38.498943 246.72416a13.363795 17.777362 0 0 1 7.998685 16.27064 13.363795 17.777362 0 0 1-8.011501 16.26526 17.145 17.145 0 0 0 11.792562-16.26526 17.145 17.145 0 0 0-11.779746-16.27064zm-10.717693 5e-3a17.145 17.145 0 0 0-11.792561 16.26568 17.145 17.145 0 0 0 11.778504 16.26939 13.363795 17.777362 0 0 1-7.997444-16.26939 13.363795 17.777362 0 0 1 8.011501-16.26568z" style="fill-opacity:.98598129;fill:#201d1d"/>
   <path d="m40.998428 236.72374a28.539447 20.467194 89.418507 0 1 12.602847 26.27023 28.539447 20.467194 89.418507 0 1-12.036473 26.04658 26.458334 27.516667 0 0 0 18.02722-26.04658 26.458334 27.516667 0 0 0-18.593594-26.27023zm-16.29668 0.22448a26.458334 27.516667 0 0 0-18.026393 26.04575 26.458334 27.516667 0 0 0 18.594834 26.27064 28.539447 20.467194 89.418507 0 1-12.60409-26.27064 28.539447 20.467194 89.418507 0 1 12.035649-26.04575z" style="fill-opacity:.98598129;fill:#201d1d"/>
  </g>
  <g transform="translate(.7329777 -.359275)">
   <circle cx="33.134" cy="262.994" r="8.467" style="fill:#739fd0"/>
   <path d="m38.498943 246.72416a13.363795 17.777362 0 0 1 7.998685 16.27064 13.363795 17.777362 0 0 1-8.011501 16.26526 17.145 17.145 0 0 0 11.792562-16.26526 17.145 17.145 0 0 0-11.779746-16.27064zm-10.717693 5e-3a17.145 17.145 0 0 0-11.792561 16.26568 17.145 17.145 0 0 0 11.778504 16.26939 13.363795 17.777362 0 0 1-7.997444-16.26939 13.363795 17.777362 0 0 1 8.011501-16.26568z" style="fill:#739fd0"/>
   <path d="m40.998428 236.72374a28.539447 20.467194 89.418507 0 1 12.602847 26.27023 28.539447 20.467194 89.418507 0 1-12.036473 26.04658 26.458334 27.516667 0 0 0 18.02722-26.04658 26.458334 27.516667 0 0 0-18.593594-26.27023zm-16.29668 0.22448a26.458334 27.516667 0 0 0-18.026393 26.04575 26.458334 27.516667 0 0 0 18.594834 26.27064 28.539447 20.467194 89.418507 0 1-12.60409-26.27064 28.539447 20.467194 89.418507 0 1 12.035649-26.04575z" style="fill:#739fd0"/>
  </g>
  <path transform="matrix(.26458333 0 0 .26458333 0 229.26666)" d="m9.2558594 203.38867c0.3659947 1.60285 0.6944144 3.27587 1.1328126 4.7461 0.736253 2.46912 1.57992 4.75344 2.541016 6.86914 0.961095 2.11569 2.040152 4.06146 3.251953 5.84961 1.2118 1.78814 2.556553 3.41978 4.044921 4.90625 1.488372 1.48646 3.119891 2.827 4.910157 4.03711 1.790266 1.2101 3.739363 2.29038 5.857422 3.25 2.118058 0.95961 4.405205 1.80015 6.876953 2.53515s5.12718 1.36414 7.978515 1.90039c2.851336 0.53626 5.899429 0.97842 9.15625 1.3418s6.721953 0.6469 10.410157 0.86328c7.376408 0.43277 15.64111 0.59766 24.898437 0.59766h75.371097c9.25733 0 17.52202-0.16489 24.89843-0.59766 3.68821-0.21638 7.15334-0.4999 10.41016-0.86328s6.30491-0.80554 9.15625-1.3418c2.85134-0.53625 5.50677-1.16539 7.97852-1.90039 2.47174-0.735 4.75889-1.57554 6.87695-2.53515 2.11806-0.95962 4.06716-2.0399 5.85742-3.25 1.79027-1.21011 3.42179-2.55065 4.91016-4.03711 1.48837-1.48647 2.83312-3.11811 4.04492-4.90625 1.2118-1.78815 2.29086-3.73392 3.25195-5.84961 0.9611-2.1157 1.80476-4.40002 2.54102-6.86914 0.73625-2.46913 1.36507-5.12229 1.90234-7.97071 0.53728-2.84841 0.98154-5.8929 1.34571-9.14648 0.36416-3.25359 0.64832-6.71577 0.86523-10.40039 0.43382-7.36925 0.59961-15.62636 0.59961-24.875v-59.251956c0-8.418647-0.19317-15.788843-0.54492-22.642578-2.01075 2.557815-11.19649 14.260332-15.0918 18.863282-4.31702 5.101266-4.97374 6.766865-8.88477 9.929682-3.91102 3.16283-11.71447 7.06304-16.11328 9.10157-8.57629 3.89631-17.07693 4.95205-26.76367 6.36133-10.23488 1.89887-20.95833 0.49161-29.76953 0.98242-8.8112 0.49077-14.3833 1.071-23.15625 1.91406-8.77295 0.8431-20.85679 3.37954-29.19141 5.40234-8.33461 2.02281-16.001064 4.42227-23.345699 7.47461-7.344639 3.05243-15.171237 7.46711-22.25586 12.04688-4.512827 2.9173-8.768112 6.24583-12.818359 9.77734-3.950181 3.44429-11.150391 11.08594-11.150391 11.08594-2.57796 2.16586-11.066102 12.89184-12.46875 16.07031 0 0-4.816303 9.42459-9.5136716 20.53125z" style="fill-opacity:.9859813;fill:#ffffff;opacity:.1"/>
  <path transform="matrix(.13485389 0 0 .13485389 -4.9712557 261.01666)" d="M 361.9375,-212 C 507.2348,-212 528,-191.28677 528,-46.125 V 70.125 C 528,215.28618 507.2348,236 361.9375,236 H 214.0625 C 68.7652,236 48,215.28618 48,70.125 V -46.125 C 48,-191.28677 68.7652,-212 214.0625,-212 Z" clip-path="url(#clipPath1082-3-5)" style="fill:none;opacity:.4;stroke-linecap:round;stroke-linejoin:round;stroke-width:8;stroke:url(#linearGradient906)"/>
 </g>
</svg>
