<svg xmlns="http://www.w3.org/2000/svg" xmlns:xlink="http://www.w3.org/1999/xlink" width="256" height="256" version="1.0" style="enable-background:new">
 <defs>
  <filter style="color-interpolation-filters:sRGB" id="filter925" width="1.046" height="1.05" x="-.02" y="-.03">
   <feGaussianBlur stdDeviation="2.32"/>
  </filter>
  <filter style="color-interpolation-filters:sRGB" id="filter931" width="1.023" height="1.025" x="-.01" y="-.01">
   <feGaussianBlur stdDeviation="1.16"/>
  </filter>
  <linearGradient id="linearGradient1108" x1="296" x2="296" y1="-212" y2="236" gradientUnits="userSpaceOnUse" xlink:href="#linearGradient1013"/>
  <linearGradient id="linearGradient1013">
   <stop offset="0" style="stop-color:#ffffff"/>
   <stop style="stop-color:#ffffff;stop-opacity:0.09803922" offset=".125"/>
   <stop style="stop-color:#000000;stop-opacity:0.09803922" offset=".925"/>
   <stop offset="1" style="stop-color:#000000;stop-opacity:0.49803922"/>
  </linearGradient>
  <clipPath id="clipPath1082-3" clipPathUnits="userSpaceOnUse">
   <path d="M 361.9375,-212 C 507.2348,-212 528,-191.28677 528,-46.125 V 70.125 C 528,215.28618 507.2348,236 361.9375,236 H 214.0625 C 68.7652,236 48,215.28618 48,70.125 V -46.125 C 48,-191.28677 68.7652,-212 214.0625,-212 Z" style="fill:#8c59d9"/>
  </clipPath>
  <linearGradient id="a" x1="348.283" x2="782.06" y1="0" y2="786.483" gradientUnits="userSpaceOnUse">
   <stop offset="0%" stop-color="#72B4F5"/>
   <stop offset="100%" stop-color="#356EBF"/>
  </linearGradient>
  <linearGradient id="linearGradient867" x1="44.568" x2="160.568" y1="56.864" y2="204.432" gradientUnits="userSpaceOnUse" xlink:href="#a"/>
 </defs>
 <g transform="translate(0,-44)">
  <g>
   <g>
    <path d="m 162.53675,62.431991 c 72.64865,0 83.03125,10.356615 83.03125,82.937499 v 58.125 c 0,72.58059 -10.3826,82.9375 -83.03125,82.9375 h -73.9375 c -72.64865,0 -83.0312501,-10.35691 -83.0312501,-82.9375 v -58.125 c 0,-72.580884 10.3826001,-82.937499 83.0312501,-82.937499 z" style="opacity:0.2;filter:url(#filter925)"/>
    <path style="opacity:0.1;filter:url(#filter931)" d="m 162.53675,61.431991 c 72.64865,0 83.03125,10.356615 83.03125,82.937499 v 58.125 c 0,72.58059 -10.3826,82.9375 -83.03125,82.9375 h -73.9375 c -72.64865,0 -83.0312501,-10.35691 -83.0312501,-82.9375 v -58.125 c 0,-72.580884 10.3826001,-82.937499 83.0312501,-82.937499 z"/>
   </g>
   <g>
    <path style="fill:url(#linearGradient867)" d="m 162.53675,60.431991 c 72.64865,0 83.03125,10.356615 83.03125,82.937499 v 58.125 c 0,72.58059 -10.3826,82.9375 -83.03125,82.9375 h -73.9375 c -72.64865,0 -83.0312501,-10.35691 -83.0312501,-82.9375 v -58.125 c 0,-72.580884 10.3826001,-82.937499 83.0312501,-82.937499 z"/>
    <g transform="translate(-4.432,4.4319905)">
     <path style="fill:#ffffff;fill-rule:evenodd" d="m 177.08559,125.90602 q 15.62273,0 24.22968,10.70414 8.67891,10.63218 8.67891,30.16031 0,19.52812 -8.75156,30.37734 -8.67891,10.77657 -24.15703,10.77657 -7.73907,0 -14.17594,-2.82071 -6.36469,-2.89312 -10.70438,-8.82398 h -0.86789 l -2.53125,10.19812 h -8.60718 V 93.9375 h 12.00632 v 27.33984 q 0,9.18539 -0.57867,16.49039 h 0.57891 q 8.38969,-11.86171 24.88008,-11.86171 z m -1.73579,10.05328 q -12.29531,0 -17.71992,7.08797 -5.42461,7.01578 -5.42461,23.7232 0,16.70742 5.56922,23.94023 5.56899,7.16016 17.86453,7.16016 11.06602,0 16.49063,-8.02828 5.42437,-8.10047 5.42437,-23.21672 0,-15.47813 -5.42437,-23.07234 -5.42461,-7.59422 -16.77985,-7.59422 z"/>
     <path style="fill:#c8e8ff;fill-rule:evenodd" d="m 84.36098,197.87109 q 12.00632,0 17.50312,-6.43734 5.4968,-6.43688 5.85844,-21.69797 v -2.67609 q 0,-16.635 -5.64141,-23.94 -5.6414,-7.305 -17.86476,-7.305 -10.55977,0 -16.20117,8.24531 -5.56922,8.17266 -5.56922,23.14453 0,14.97164 5.49703,22.85508 5.56898,7.81125 16.41797,7.81125 z m -1.80821,10.05328 q -15.33304,0 -23.94,-10.77656 -8.60695,-10.77679 -8.60695,-30.08812 0,-19.45571 8.67938,-30.37711 8.6789,-10.92141 24.15703,-10.92141 16.27336,0 25.02492,12.29555 h 0.65109 l 1.73578,-10.84899 h 9.47485 V 242.0625 h -12.00633 v -33.92109 q 0,-7.23282 0.7957,-12.29555 h -0.94031 q -8.3175,12.07851 -25.02516,12.07851 z"/>
    </g>
   </g>
   <g>
    <path d="m 361.9375,-212 c 145.2973,0 166.0625,20.71323 166.0625,165.875 v 116.25 c 0,145.16118 -20.7652,165.875 -166.0625,165.875 h -147.875 c -145.2973,0 -166.0625,-20.71382 -166.0625,-165.875 v -116.25 c 0,-145.16177 20.7652,-165.875 166.0625,-165.875 z" clip-path="url(#clipPath1082-3)" transform="matrix(0.5,0,0,0.5,-18.432,166.43199)" style="opacity:0.4;fill:none;stroke:url(#linearGradient1108);stroke-width:8;stroke-linecap:round;stroke-linejoin:round"/>
   </g>
  </g>
 </g>
</svg>
