<svg width="256" height="256" version="1.1" viewBox="0 0 67.73 67.73" xmlns="http://www.w3.org/2000/svg" xmlns:xlink="http://www.w3.org/1999/xlink">
 <defs>
  <linearGradient id="linearGradient1108" x1="296" x2="296" y1="-212" y2="236" gradientUnits="userSpaceOnUse">
   <stop style="stop-color:#ffffff" offset="0"/>
   <stop style="stop-color:#ffffff;stop-opacity:.09803922" offset=".125"/>
   <stop style="stop-color:#000000;stop-opacity:.09803922" offset=".925"/>
   <stop style="stop-color:#000000;stop-opacity:.49803922" offset="1"/>
  </linearGradient>
  <clipPath id="clipPath1082-3-367">
   <path d="M 361.9375,-212 C 507.2348,-212 528,-191.28677 528,-46.125 V 70.125 C 528,215.28618 507.2348,236 361.9375,236 H 214.0625 C 68.7652,236 48,215.28618 48,70.125 V -46.125 C 48,-191.28677 68.7652,-212 214.0625,-212 Z" style="fill:#8c59d9"/>
  </clipPath>
  <linearGradient id="linearGradient933" x1="160" x2="160" y1="28" y2="284" gradientTransform="matrix(.26458333 0 0 .26458333 -6.9934683 221.97263)" gradientUnits="userSpaceOnUse">
   <stop style="stop-color:#c8c4b7" offset="0"/>
   <stop style="stop-color:#e3dfd5" offset="1"/>
  </linearGradient>
  <filter id="filter930" x="-.02" y="-.03" width="1.046" height="1.05" style="color-interpolation-filters:sRGB">
   <feGaussianBlur stdDeviation="2.32"/>
  </filter>
  <filter id="filter4569" x="-.01" y="-.01" width="1.023" height="1.025" style="color-interpolation-filters:sRGB">
   <feGaussianBlur stdDeviation="1.16"/>
  </filter>
  <filter id="filter1720" x="-.08" y="-.06" width="1.154" height="1.127" style="color-interpolation-filters:sRGB">
   <feGaussianBlur stdDeviation=".766"/>
  </filter>
  <filter id="filter1724" x="-.27" y="-.27" width="1.544" height="1.543" style="color-interpolation-filters:sRGB">
   <feGaussianBlur stdDeviation=".766"/>
  </filter>
  <filter id="filter1728" x="-.27" y="-.27" width="1.544" height="1.544" style="color-interpolation-filters:sRGB">
   <feGaussianBlur stdDeviation=".766"/>
  </filter>
  <filter id="filter1732" x="-.08" y="-.06" width="1.154" height="1.127" style="color-interpolation-filters:sRGB">
   <feGaussianBlur stdDeviation=".766"/>
  </filter>
  <filter id="filter1736" x="-.41" width="1.815" height="1.197" style="color-interpolation-filters:sRGB">
   <feGaussianBlur stdDeviation=".766"/>
  </filter>
 </defs>
 <g transform="translate(0,-229.26666)">
  <path d="m43.004513 233.61429c19.221622 0 21.968685 2.74019 21.968685 21.94388v15.37891c0 19.20362-2.747063 21.94388-21.968685 21.94388h-19.56263c-19.221622 0-21.968685-2.74026-21.968685-21.94388v-15.37891c0-19.20369 2.7470629-21.94388 21.968685-21.94388z" style="fill:none;opacity:.2;stroke-linecap:round;stroke-linejoin:round;stroke-width:1.0583333;stroke:#000000"/>
  <path transform="matrix(.26458333 0 0 .26458333 -1.8735229e-8 232.67026)" d="m162.53675 3.5680001c72.64865 0 83.03125 10.356615 83.03125 82.937505v58.125005c0 72.58059-10.3826 82.9375-83.03125 82.9375h-73.937496c-72.648654 0-83.031254-10.35691-83.031254-82.9375v-58.125005c0-72.58089 10.3826-82.937505 83.031254-82.937505z" style="filter:url(#filter4569);opacity:.1"/>
  <path transform="matrix(.26458333 0 0 .26458333 -1.8735229e-8 232.67026)" d="m162.53675 5.5680001c72.64865 0 83.03125 10.356615 83.03125 82.937505v58.125005c0 72.58059-10.3826 82.9375-83.03125 82.9375h-73.937496c-72.648654 0-83.031254-10.35691-83.031254-82.9375v-58.125005c0-72.58089 10.3826-82.937505 83.031254-82.937505z" style="filter:url(#filter930);opacity:.2"/>
  <path d="m43.004513 233.61429c19.221622 0 21.968685 2.74019 21.968685 21.94388v15.37891c0 19.20362-2.747063 21.94388-21.968685 21.94388h-19.56263c-19.221622 0-21.968685-2.74026-21.968685-21.94388v-15.37891c0-19.20369 2.7470629-21.94388 21.968685-21.94388z" style="fill:url(#linearGradient933)"/>
  <path transform="matrix(.13229167 0 0 .13229167 -4.8768013 261.66013)" d="M 361.9375,-212 C 507.2348,-212 528,-191.28677 528,-46.125 V 70.125 C 528,215.28618 507.2348,236 361.9375,236 H 214.0625 C 68.7652,236 48,215.28618 48,70.125 V -46.125 C 48,-191.28677 68.7652,-212 214.0625,-212 Z" clip-path="url(#clipPath1082-3-367)" style="fill:none;opacity:.5;stroke-linecap:round;stroke-linejoin:round;stroke-width:8;stroke:url(#linearGradient1108)"/>
  <g transform="translate(-.35955655 -.00737766)">
   <path d="m47.954869 266.95517c7.186057 14.37214-14.372114 14.37214-14.372114 0v-7.18605c28.74423-21.55817 28.74423-7.18606 14.372114 7.18605z" style="fill-rule:evenodd;filter:url(#filter1732);opacity:.3"/>
   <path d="m19.21064 266.95517c-7.186058 14.37214 14.372115 14.37214 14.372115 0v-7.18605c-28.74423-21.55817-28.74423-7.18606-14.372115 7.18605z" style="fill-rule:evenodd;filter:url(#filter1720);opacity:.3"/>
   <path d="m40.757812 249.56445a0.14373552 0.14373552 0 0 0-0.02344 4e-3s-5.842932 1.45521-6.576172 6.58789a0.14404564 0.14404564 0 1 0 0.285156 0.041c0.703972-4.92781 6.359375-6.34961 6.359375-6.34961a0.14373552 0.14373552 0 0 0-0.04492-0.28321z" style="fill-rule:evenodd;filter:url(#filter1728);opacity:.3"/>
   <path d="m26.388672 249.56445a0.14373552 0.14373552 0 0 0-0.02734 0.28321s5.657357 1.4218 6.361328 6.34961a0.14373552 0.14373552 0 1 0 0.283203-0.041c-0.733239-5.13268-6.574218-6.58789-6.574218-6.58789a0.14373552 0.14373552 0 0 0-0.04297-4e-3z" style="fill-rule:evenodd;filter:url(#filter1724);opacity:.3"/>
   <path d="m34.301362 258.33191c1.437211 3.59303 0.344059 15.72777-0.718607 15.80932-1.062667 0.0816-2.155817-12.21629-0.718606-15.80932-2.155817-1.43721-2.155817-2.87442 0.718606-2.87442s2.874423 1.43721 0.718607 2.87442z" style="fill-rule:evenodd;filter:url(#filter1736);opacity:.3"/>
   <g transform="translate(-1e-6 7e-5)">
    <path d="m47.954869 266.95517c7.186057 14.37214-14.372114 14.37214-14.372114 0v-7.18605c28.74423-21.55817 28.74423-7.18606 14.372114 7.18605z" style="fill-rule:evenodd;fill:#cd3838"/>
    <path d="m19.21064 266.95517c-7.186058 14.37214 14.372115 14.37214 14.372115 0v-7.18605c-28.74423-21.55817-28.74423-7.18606-14.372115 7.18605z" style="fill-rule:evenodd;fill:#cd3838"/>
    <path d="m40.757812 249.56445a0.14373552 0.14373552 0 0 0-0.02344 4e-3s-5.842932 1.45521-6.576172 6.58789a0.14404564 0.14404564 0 1 0 0.285156 0.041c0.703972-4.92781 6.359375-6.34961 6.359375-6.34961a0.14373552 0.14373552 0 0 0-0.04492-0.28321z" style="fill-rule:evenodd;fill:#472e1b"/>
    <path d="m26.388672 249.56445a0.14373552 0.14373552 0 0 0-0.02734 0.28321s5.657357 1.4218 6.361328 6.34961a0.14373552 0.14373552 0 1 0 0.283203-0.041c-0.733239-5.13268-6.574218-6.58789-6.574218-6.58789a0.14373552 0.14373552 0 0 0-0.04297-4e-3z" style="fill-rule:evenodd;fill:#472e1b"/>
    <path d="m34.301362 258.33191c1.437211 3.59303 0.344059 15.72777-0.718607 15.80932-1.062667 0.0816-2.155817-12.21629-0.718606-15.80932-2.155817-1.43721-2.155817-2.87442 0.718606-2.87442s2.874423 1.43721 0.718607 2.87442z" style="fill-rule:evenodd;fill:#fa8836"/>
   </g>
  </g>
 </g>
</svg>
