<svg xmlns="http://www.w3.org/2000/svg" xmlns:xlink="http://www.w3.org/1999/xlink" width="256" height="256" version="1.1" viewBox="0 0 67.73 67.73">
 <defs>
  <linearGradient id="linearGradient1108" x1="296" x2="296" y1="-212" y2="236" gradientUnits="userSpaceOnUse" xlink:href="#linearGradient1013"/>
  <linearGradient id="linearGradient1013">
   <stop offset="0" style="stop-color:#ffffff"/>
   <stop style="stop-color:#ffffff;stop-opacity:0.09803922" offset=".125"/>
   <stop style="stop-color:#000000;stop-opacity:0.09803922" offset=".925"/>
   <stop offset="1" style="stop-color:#000000;stop-opacity:0.49803922"/>
  </linearGradient>
  <clipPath id="clipPath1082-3" clipPathUnits="userSpaceOnUse">
   <path d="M 361.9375,-212 C 507.2348,-212 528,-191.28677 528,-46.125 V 70.125 C 528,215.28618 507.2348,236 361.9375,236 H 214.0625 C 68.7652,236 48,215.28618 48,70.125 V -46.125 C 48,-191.28677 68.7652,-212 214.0625,-212 Z" style="fill:#8c59d9"/>
  </clipPath>
  <linearGradient id="linearGradient1003" x1="16" x2="288" y1="28" y2="284" gradientTransform="matrix(0.26970781,0,0,0.26970781,-7.1289161,220.5605)" gradientUnits="userSpaceOnUse" xlink:href="#linearGradient1001"/>
  <linearGradient id="linearGradient1001">
   <stop style="stop-color:#355ad4" offset="0"/>
   <stop style="stop-color:#5c79dd" offset="1"/>
  </linearGradient>
  <filter style="color-interpolation-filters:sRGB" id="filter4569" width="1.023" height="1.025" x="-.01" y="-.01">
   <feGaussianBlur stdDeviation="1.16"/>
  </filter>
  <filter style="color-interpolation-filters:sRGB" id="filter935" width="1.046" height="1.05" x="-.02" y="-.03">
   <feGaussianBlur stdDeviation="2.32"/>
  </filter>
 </defs>
 <g transform="translate(0,-229.26666)">
  <path style="opacity:0.2;filter:url(#filter935)" d="m 162.53675,5.5680001 c 72.64865,0 83.03125,10.3566149 83.03125,82.9375049 v 58.125005 c 0,72.58059 -10.3826,82.9375 -83.03125,82.9375 H 88.599254 C 15.9506,229.56801 5.568,219.2111 5.568,146.63051 V 88.505505 c 0,-72.58089 10.3826,-82.9375049 83.031254,-82.9375049 z" transform="matrix(0.26970779,0,0,0.26970779,-1.9098094e-8,231.46531)"/>
  <path d="m 162.53675,3.5680001 c 72.64865,0 83.03125,10.3566149 83.03125,82.9375049 v 58.125005 c 0,72.58059 -10.3826,82.9375 -83.03125,82.9375 H 88.599254 C 15.9506,227.56801 5.568,217.2111 5.568,144.63051 V 86.505505 c 0,-72.58089 10.3826,-82.9375049 83.031254,-82.9375049 z" transform="matrix(0.26970779,0,0,0.26970779,-1.9098094e-8,231.46531)" style="opacity:0.1;filter:url(#filter4569)"/>
  <path style="fill:url(#linearGradient1003)" d="m 43.837424,232.42763 c 19.593915,0 22.39418,2.79326 22.39418,22.36889 v 15.67677 c 0,19.57555 -2.800265,22.36889 -22.39418,22.36889 h -19.94151 c -19.5939158,0 -22.394181,-2.79334 -22.394181,-22.36889 v -15.67677 c 0,-19.57563 2.8002652,-22.36889 22.394181,-22.36889 z"/>
  <path style="opacity:0.1;fill:#1d215d" d="M 48.886017,232.51192 1.863099,279.53484 c 1.2066158,11.42735 5.987931,13.30734 22.032815,13.30734 h 19.94151 c 19.593915,0 22.39418,-2.79334 22.39418,-22.36889 v -15.67677 c 0,-17.75231 -2.303629,-21.70266 -17.345587,-22.2846 z"/>
  <path style="opacity:0.38999999;fill:#8bddff" d="m 33.866666,247.59647 a 11.575522,12.117376 0 0 0 -11.575525,12.11734 11.575522,12.117376 0 0 0 0.132485,1.73442 8.2682302,8.6552689 0 0 0 -0.132485,-0.005 8.2682302,8.6552689 0 0 0 -8.268225,8.65536 8.2682302,8.6552689 0 0 0 8.268225,8.65519 l 21.497411,0 a 9.9218759,10.386323 0 0 0 9.921865,-10.3863 9.9218759,10.386323 0 0 0 -8.381265,-10.2511 11.575522,12.117376 0 0 0 -11.462486,-10.52152 z m 0,1.73104 a 9.9218759,10.386323 0 0 1 0.991554,0.0515 9.9218759,10.386323 0 0 1 4.608885,1.76491 9.9218759,10.386323 0 0 1 0.0037,0 9.9218759,10.386323 0 0 1 2.16719,2.11307 9.9218759,10.386323 0 0 1 0,0.005 9.9218759,10.386323 0 0 1 2.008915,4.72996 9.9218759,10.386323 0 0 1 0.141974,1.72419 8.2682302,8.6552689 0 0 1 1.647171,0.17225 8.2682302,8.6552689 0 0 1 0.797781,0.21274 8.2682302,8.6552689 0 0 1 0.0037,0 8.2682302,8.6552689 0 0 1 0.771918,0.29738 8.2682302,8.6552689 0 0 1 0.0037,0 8.2682302,8.6552689 0 0 1 0.739634,0.37542 8.2682302,8.6552689 0 0 1 0.0077,0.005 8.2682302,8.6552689 0 0 1 0.69764,0.44977 8.2682302,8.6552689 0 0 1 0.0077,0.005 8.2682302,8.6552689 0 0 1 0.652425,0.52043 8.2682302,8.6552689 0 0 1 0.0037,0.005 8.2682302,8.6552689 0 0 1 0.600739,0.5852 8.2682302,8.6552689 0 0 1 0.0038,0.005 8.2682302,8.6552689 0 0 1 1.023852,1.35238 8.2682302,8.6552689 0 0 1 0.0037,0.005 8.2682302,8.6552689 0 0 1 0.406939,0.74716 8.2682302,8.6552689 0 0 1 0.0037,0.005 8.2682302,8.6552689 0 0 1 0.335916,0.7844 8.2682302,8.6552689 0 0 1 0.0037,0.005 8.2682302,8.6552689 0 0 1 0.258355,0.81825 8.2682302,8.6552689 0 0 1 0,0.005 8.2682302,8.6552689 0 0 1 0.180862,0.8419 8.2682302,8.6552689 0 0 1 0,0.005 8.2682302,8.6552689 0 0 1 0.10007,0.85537 8.2682302,8.6552689 0 0 1 0.01898,0.61097 8.2682302,8.6552689 0 0 1 -8.268219,8.6552 l -21.497398,0 a 6.614584,6.9242151 0 0 1 -6.614593,-6.92415 6.614584,6.9242151 0 0 1 0.03235,-0.68974 6.614584,6.9242151 0 0 1 6.582294,-6.2345 6.614584,6.9242151 0 0 1 0.494136,0.0221 6.614584,6.9242151 0 0 1 0,0.004 6.614584,6.9242151 0 0 1 1.912035,0.45345 9.9218759,10.386323 0 0 1 -0.565227,-1.98464 9.9218759,10.386323 0 0 1 -0.122641,-0.87906 9.9218759,10.386323 0 0 1 -0.0225,-0.19948 9.9218759,10.386323 0 0 1 -0.04219,-0.87915 9.9218759,10.386323 0 0 1 0.04852,-1.03791 9.9218759,10.386323 0 0 1 9.873421,-9.34839 z"/>
  <path d="M 361.9375,-212 C 507.2348,-212 528,-191.28677 528,-46.125 V 70.125 C 528,215.28618 507.2348,236 361.9375,236 H 214.0625 C 68.7652,236 48,215.28618 48,70.125 V -46.125 C 48,-191.28677 68.7652,-212 214.0625,-212 Z" clip-path="url(#clipPath1082-3)" transform="matrix(0.1348539,0,0,0.1348539,-4.9712541,261.01666)" style="opacity:0.4;fill:none;stroke:url(#linearGradient1108);stroke-width:8;stroke-linecap:round;stroke-linejoin:round"/>
 </g>
</svg>
