<svg width="256" height="256" version="1.1" viewBox="0 0 67.73 67.73" xmlns="http://www.w3.org/2000/svg" xmlns:xlink="http://www.w3.org/1999/xlink">
 <defs>
  <linearGradient id="linearGradient1108" x1="296" x2="296" y1="-212" y2="236" gradientUnits="userSpaceOnUse">
   <stop style="stop-color:#ffffff" offset="0"/>
   <stop style="stop-color:#ffffff;stop-opacity:.09803922" offset=".125"/>
   <stop style="stop-color:#000000;stop-opacity:.09803922" offset=".925"/>
   <stop style="stop-color:#000000;stop-opacity:.49803922" offset="1"/>
  </linearGradient>
  <clipPath id="clipPath1082-3">
   <path d="M 361.9375,-212 C 507.2348,-212 528,-191.28677 528,-46.125 V 70.125 C 528,215.28618 507.2348,236 361.9375,236 H 214.0625 C 68.7652,236 48,215.28618 48,70.125 V -46.125 C 48,-191.28677 68.7652,-212 214.0625,-212 Z" style="fill:#8c59d9"/>
  </clipPath>
  <linearGradient id="linearGradient1003" x1="16" x2="288" y1="28" y2="284" gradientTransform="matrix(.26970781 0 0 .26970781 -7.1289161 220.5605)" gradientUnits="userSpaceOnUse">
   <stop style="stop-color:#355ad4" offset="0"/>
   <stop style="stop-color:#5c79dd" offset="1"/>
  </linearGradient>
  <filter id="filter4569" x="-.01" y="-.01" width="1.023" height="1.025" style="color-interpolation-filters:sRGB">
   <feGaussianBlur stdDeviation="1.16"/>
  </filter>
  <filter id="filter935" x="-.02" y="-.03" width="1.046" height="1.05" style="color-interpolation-filters:sRGB">
   <feGaussianBlur stdDeviation="2.32"/>
  </filter>
 </defs>
 <g transform="translate(0,-229.26666)">
  <path transform="matrix(.26970779 0 0 .26970779 -1.9098094e-8 231.46531)" d="m162.53675 5.5680001c72.64865 0 83.03125 10.356615 83.03125 82.937505v58.125005c0 72.58059-10.3826 82.9375-83.03125 82.9375h-73.937496c-72.648654 0-83.031254-10.35691-83.031254-82.9375v-58.125005c0-72.58089 10.3826-82.937505 83.031254-82.937505z" style="filter:url(#filter935);opacity:.2"/>
  <path transform="matrix(.26970779 0 0 .26970779 -1.9098094e-8 231.46531)" d="m162.53675 3.5680001c72.64865 0 83.03125 10.356615 83.03125 82.937505v58.125005c0 72.58059-10.3826 82.9375-83.03125 82.9375h-73.937496c-72.648654 0-83.031254-10.35691-83.031254-82.9375v-58.125005c0-72.58089 10.3826-82.937505 83.031254-82.937505z" style="filter:url(#filter4569);opacity:.1"/>
  <path d="m43.837424 232.42763c19.593915 0 22.39418 2.79326 22.39418 22.36889v15.67677c0 19.57555-2.800265 22.36889-22.39418 22.36889h-19.94151c-19.593916 0-22.394181-2.79334-22.394181-22.36889v-15.67677c0-19.57563 2.8002652-22.36889 22.394181-22.36889z" style="fill:url(#linearGradient1003)"/>
  <path d="m48.886017 232.51192-47.022918 47.02292c1.2066158 11.42735 5.987931 13.30734 22.032815 13.30734h19.94151c19.593915 0 22.39418-2.79334 22.39418-22.36889v-15.67677c0-17.75231-2.303629-21.70266-17.345587-22.2846z" style="fill:#1d215d;opacity:.1"/>
  <path d="m33.866666 247.59647a11.575522 12.117376 0 0 0-11.575525 12.11734 11.575522 12.117376 0 0 0 0.132485 1.73442 8.2682302 8.6552689 0 0 0-0.132485-5e-3 8.2682302 8.6552689 0 0 0-8.268225 8.65536 8.2682302 8.6552689 0 0 0 8.268225 8.65519h21.497411a9.9218759 10.386323 0 0 0 9.921865-10.3863 9.9218759 10.386323 0 0 0-8.381265-10.2511 11.575522 12.117376 0 0 0-11.462486-10.52152zm0 1.73104a9.9218759 10.386323 0 0 1 0.991554 0.0515 9.9218759 10.386323 0 0 1 4.608885 1.76491 9.9218759 10.386323 0 0 1 0.0037 0 9.9218759 10.386323 0 0 1 2.16719 2.11307 9.9218759 10.386323 0 0 1 0 5e-3 9.9218759 10.386323 0 0 1 2.008915 4.72996 9.9218759 10.386323 0 0 1 0.141974 1.72419 8.2682302 8.6552689 0 0 1 1.647171 0.17225 8.2682302 8.6552689 0 0 1 0.797781 0.21274 8.2682302 8.6552689 0 0 1 0.0037 0 8.2682302 8.6552689 0 0 1 0.771918 0.29738 8.2682302 8.6552689 0 0 1 0.0037 0 8.2682302 8.6552689 0 0 1 0.739634 0.37542 8.2682302 8.6552689 0 0 1 0.0077 5e-3 8.2682302 8.6552689 0 0 1 0.69764 0.44977 8.2682302 8.6552689 0 0 1 0.0077 5e-3 8.2682302 8.6552689 0 0 1 0.652425 0.52043 8.2682302 8.6552689 0 0 1 0.0037 5e-3 8.2682302 8.6552689 0 0 1 0.600739 0.5852 8.2682302 8.6552689 0 0 1 0.0038 5e-3 8.2682302 8.6552689 0 0 1 1.023852 1.35238 8.2682302 8.6552689 0 0 1 0.0037 5e-3 8.2682302 8.6552689 0 0 1 0.406939 0.74716 8.2682302 8.6552689 0 0 1 0.0037 5e-3 8.2682302 8.6552689 0 0 1 0.335916 0.7844 8.2682302 8.6552689 0 0 1 0.0037 5e-3 8.2682302 8.6552689 0 0 1 0.258355 0.81825 8.2682302 8.6552689 0 0 1 0 5e-3 8.2682302 8.6552689 0 0 1 0.180862 0.8419 8.2682302 8.6552689 0 0 1 0 5e-3 8.2682302 8.6552689 0 0 1 0.10007 0.85537 8.2682302 8.6552689 0 0 1 0.01898 0.61097 8.2682302 8.6552689 0 0 1-8.268219 8.6552h-21.497398a6.614584 6.9242151 0 0 1-6.614593-6.92415 6.614584 6.9242151 0 0 1 0.03235-0.68974 6.614584 6.9242151 0 0 1 6.582294-6.2345 6.614584 6.9242151 0 0 1 0.494136 0.0221 6.614584 6.9242151 0 0 1 0 4e-3 6.614584 6.9242151 0 0 1 1.912035 0.45345 9.9218759 10.386323 0 0 1-0.565227-1.98464 9.9218759 10.386323 0 0 1-0.122641-0.87906 9.9218759 10.386323 0 0 1-0.0225-0.19948 9.9218759 10.386323 0 0 1-0.04219-0.87915 9.9218759 10.386323 0 0 1 0.04852-1.03791 9.9218759 10.386323 0 0 1 9.873421-9.34839z" style="fill:#8bddff;opacity:.38999999"/>
  <path transform="matrix(.1348539 0 0 .1348539 -4.9712541 261.01666)" d="M 361.9375,-212 C 507.2348,-212 528,-191.28677 528,-46.125 V 70.125 C 528,215.28618 507.2348,236 361.9375,236 H 214.0625 C 68.7652,236 48,215.28618 48,70.125 V -46.125 C 48,-191.28677 68.7652,-212 214.0625,-212 Z" clip-path="url(#clipPath1082-3)" style="fill:none;opacity:.4;stroke-linecap:round;stroke-linejoin:round;stroke-width:8;stroke:url(#linearGradient1108)"/>
 </g>
</svg>
