<svg width="256" height="256" version="1.1" viewBox="0 0 67.73 67.73" xmlns="http://www.w3.org/2000/svg" xmlns:xlink="http://www.w3.org/1999/xlink">
 <defs>
  <linearGradient id="linearGradient1108" x1="296" x2="296" y1="-212" y2="236" gradientUnits="userSpaceOnUse">
   <stop style="stop-color:#ffffff" offset="0"/>
   <stop style="stop-color:#ffffff;stop-opacity:.09803922" offset=".125"/>
   <stop style="stop-color:#000000;stop-opacity:.09803922" offset=".925"/>
   <stop style="stop-color:#000000;stop-opacity:.49803922" offset="1"/>
  </linearGradient>
  <clipPath id="clipPath1082-3-361">
   <path d="M 361.9375,-212 C 507.2348,-212 528,-191.28677 528,-46.125 V 70.125 C 528,215.28618 507.2348,236 361.9375,236 H 214.0625 C 68.7652,236 48,215.28618 48,70.125 V -46.125 C 48,-191.28677 68.7652,-212 214.0625,-212 Z" style="fill:#8c59d9"/>
  </clipPath>
  <linearGradient id="linearGradient1044" x1="256.432" x2="51.432" y1="253.568" y2="58.568" gradientTransform="matrix(.26970781 0 0 .26970781 -7.1289179 220.5605)" gradientUnits="userSpaceOnUse">
   <stop style="stop-color:#8498ae" offset="0"/>
   <stop style="stop-color:#526171" offset="1"/>
  </linearGradient>
  <filter id="filter4569" x="-.01" y="-.01" width="1.023" height="1.025" style="color-interpolation-filters:sRGB">
   <feGaussianBlur stdDeviation="1.16"/>
  </filter>
  <filter id="filter939" x="-.02" y="-.03" width="1.046" height="1.05" style="color-interpolation-filters:sRGB">
   <feGaussianBlur stdDeviation="2.32"/>
  </filter>
  <linearGradient id="linearGradient4620">
   <stop style="stop-color:#2be8c9" offset="0"/>
   <stop style="stop-color:#ffffff" offset="1"/>
  </linearGradient>
  <linearGradient id="linearGradient4614-5" x1="21.783" x2="107.217" y1="60.229" y2="60.229" gradientTransform="matrix(1.1119665,0,0,1.1119665,-11.941874,-15.557361)" gradientUnits="userSpaceOnUse" xlink:href="#linearGradient4620"/>
  <linearGradient id="linearGradient939" x1="150" x2="195" y1="106" y2="171" gradientTransform="matrix(.53954998 0 0 .53954998 -10.361534 -10.955462)" gradientUnits="userSpaceOnUse" xlink:href="#linearGradient4620"/>
 </defs>
 <g transform="translate(0,-229.26666)">
  <path transform="matrix(.26970779 0 0 .26970779 -1.9098094e-8 231.46531)" d="m162.53675 5.5680001c72.64865 0 83.03125 10.356615 83.03125 82.937505v58.125005c0 72.58059-10.3826 82.9375-83.03125 82.9375h-73.937496c-72.648654 0-83.031254-10.35691-83.031254-82.9375v-58.125005c0-72.58089 10.3826-82.937505 83.031254-82.937505z" style="filter:url(#filter939);opacity:.2"/>
  <path d="m43.837429 232.42763c19.593907 0 22.394176 2.79326 22.394176 22.36889v15.67677c0 19.57555-2.800269 22.36889-22.394176 22.36889h-19.941519c-19.593909 0-22.394177-2.79334-22.394177-22.36889v-15.67677c0-19.57563 2.8002682-22.36889 22.394177-22.36889z" style="fill:none;opacity:.1;stroke-linecap:round;stroke-linejoin:round;stroke-width:1.0788311;stroke:#000000"/>
  <path transform="matrix(.26970779 0 0 .26970779 -1.9098094e-8 231.46531)" d="m162.53675 3.5680001c72.64865 0 83.03125 10.356615 83.03125 82.937505v58.125005c0 72.58059-10.3826 82.9375-83.03125 82.9375h-73.937496c-72.648654 0-83.031254-10.35691-83.031254-82.9375v-58.125005c0-72.58089 10.3826-82.937505 83.031254-82.937505z" style="filter:url(#filter4569);opacity:.1"/>
  <path d="m43.837427 232.42763c19.593907 0 22.394175 2.79326 22.394175 22.36889v15.67677c0 19.57555-2.800268 22.36889-22.394175 22.36889h-19.94152c-19.593907 0-22.394176-2.79334-22.394176-22.36889v-15.67677c0-19.57563 2.8002682-22.36889 22.394176-22.36889z" style="fill:url(#linearGradient1044)"/>
  <g transform="matrix(.5394156 0 0 .5394156 -1.0611249 227.72147)">
   <g transform="matrix(.90909088 0 0 .90909088 10.405749 12.824074)">
    <path d="m30.453262 91.060333a44.782093 44.782092 0 0 1-15.45539-33.843461 44.782093 44.782092 0 0 1 44.782095-44.782098 44.782093 44.782092 0 0 1 44.782093 44.782098 44.782093 44.782092 0 0 1-15.453791 33.842084" style="fill:none;stroke-width:5.4358125;stroke:url(#linearGradient4614-5)"/>
    <g transform="matrix(1.0673019,0,0,1.0673019,-9.0810028,-13.464945)" style="fill:#ffffff">
     <path d="m65.518735 29.4668v6h-2v-6z" style="fill:#ffffff"/>
     <g transform="rotate(44.938255,63.882287,63.118069)" style="fill:#ffffff">
      <path d="m66.816055 28.13496v6h-2v-6z" style="fill:#ffffff"/>
     </g>
     <g transform="rotate(141.07386,66.203264,64.783025)" style="fill:#529be0">
      <path d="m65.614881 28.283085 0.411849 5.985849-1.995283 0.137283-0.411849-5.985849z" style="fill:#529be0"/>
     </g>
     <g transform="rotate(180 64.384954 65.33387)" style="fill:#ffffff">
      <path d="m91.389269 39.983398-4.461137 4.012262-1.33742-1.487046 4.461137-4.012262z" style="fill:#529be0"/>
      <g transform="rotate(89.480687,63.007812,63.858199)" style="fill:#ffffff">
       <path d="m65.058689 26.005739-0.06351 5.999664-1.999888-0.02117 0.06351-5.999664z" style="fill:#ffffff"/>
       <path d="m64.448825 93.288828-0.06351 5.999664-1.999888-0.02117 0.06351-5.999664z" style="fill:#ffffff"/>
      </g>
      <g transform="rotate(136.63942,64.854851,64.899776)" style="fill:#ffffff">
       <path d="m66.167865 28.910898v6h-2v-6z" style="fill:#ffffff"/>
      </g>
     </g>
    </g>
    <path d="m59.779964 24.770756v34.954829l24.169098 17.577524a32.372997 32.372997 0 0 0 7.1248-20.213101 32.372997 32.372997 0 0 0-31.293898-32.319252z" style="fill:url(#linearGradient939);opacity:.3"/>
    <path d="m55.410846 53.300711 33.030245 23.866037" style="fill:none;stroke-linecap:round;stroke-width:1.1684146;stroke:#2be8c9"/>
    <circle cx="60.214" cy="57.568" r="5.337" style="opacity:.3"/>
    <circle cx="59.78" cy="57.091" r="5.337"/>
   </g>
   <g transform="matrix(.90909088 0 0 .90909088 -132.19777 18.881979)">
    <path d="m216.60662-11.210228v123.20001h20.33282c39.95675 0 45.66718-5.6963 45.66718-45.615624v-31.968759c0-39.919486-5.71043-45.615625-45.66718-45.615625z" style="fill:#ffffff;opacity:.1"/>
    <path d="m196.27381 111.98978c-39.95675 0-45.66719-5.69229-45.66719-45.584756v-15.973555h132v15.973555c0 39.892466-5.71043 45.584756-45.66718 45.584756z" style="fill:#ffffff;opacity:.1"/>
   </g>
  </g>
  <path transform="matrix(.1348539 0 0 .1348539 -4.9712559 261.01666)" d="M 361.9375,-212 C 507.2348,-212 528,-191.28677 528,-46.125 V 70.125 C 528,215.28618 507.2348,236 361.9375,236 H 214.0625 C 68.7652,236 48,215.28618 48,70.125 V -46.125 C 48,-191.28677 68.7652,-212 214.0625,-212 Z" clip-path="url(#clipPath1082-3-361)" style="fill:none;opacity:.4;stroke-linecap:round;stroke-linejoin:round;stroke-width:8;stroke:url(#linearGradient1108)"/>
 </g>
</svg>
