<svg width="256" height="256" version="1.1" viewBox="0 0 67.73 67.73" xmlns="http://www.w3.org/2000/svg" xmlns:xlink="http://www.w3.org/1999/xlink">
 <defs>
  <linearGradient id="linearGradient1108" x1="296" x2="296" y1="-212" y2="236" gradientUnits="userSpaceOnUse">
   <stop style="stop-color:#ffffff" offset="0"/>
   <stop style="stop-color:#ffffff;stop-opacity:.09803922" offset=".125"/>
   <stop style="stop-color:#000000;stop-opacity:.09803922" offset=".925"/>
   <stop style="stop-color:#000000;stop-opacity:.49803922" offset="1"/>
  </linearGradient>
  <clipPath id="clipPath1082-3-53">
   <path d="M 361.9375,-212 C 507.2348,-212 528,-191.28677 528,-46.125 V 70.125 C 528,215.28618 507.2348,236 361.9375,236 H 214.0625 C 68.7652,236 48,215.28618 48,70.125 V -46.125 C 48,-191.28677 68.7652,-212 214.0625,-212 Z" style="fill:#8c59d9"/>
  </clipPath>
  <linearGradient id="linearGradient878" x1="32" x2="272" y1="156" y2="156" gradientTransform="matrix(.13485389 .23357379 -.23357379 .13485389 49.806383 206.09448)" gradientUnits="userSpaceOnUse">
   <stop style="stop-color:#509528" offset="0"/>
   <stop style="stop-color:#78cd46" offset="1"/>
  </linearGradient>
  <filter id="filter4569" x="-.01" y="-.01" width="1.023" height="1.025" style="color-interpolation-filters:sRGB">
   <feGaussianBlur stdDeviation="1.16"/>
  </filter>
  <filter id="filter958" x="-.02" y="-.03" width="1.046" height="1.05" style="color-interpolation-filters:sRGB">
   <feGaussianBlur stdDeviation="2.32"/>
  </filter>
  <linearGradient id="linearGradient3737">
   <stop style="stop-color:#ffffff" offset="0"/>
   <stop style="stop-color:#ffffff;stop-opacity:0" offset="1"/>
  </linearGradient>
  <filter id="filter993" x="-.05" y="-.05" width="1.092" height="1.1" style="color-interpolation-filters:sRGB">
   <feGaussianBlur stdDeviation="2.682"/>
  </filter>
  <linearGradient id="linearGradient3724-6" x1="-45.877" x2="-3.85" y1="75.985" y2="22.235" gradientTransform="matrix(.54710169 0 0 .54710169 67.667457 249.40937)" gradientUnits="userSpaceOnUse">
   <stop style="stop-color:#b3b3b3" offset="0"/>
   <stop style="stop-color:#efefef" offset="1"/>
  </linearGradient>
  <linearGradient id="linearGradient3732" x1="-16.228" x2="-49.582" y1="38.29" y2="66.304" gradientTransform="matrix(.54710169 0 0 .54710169 67.667457 249.40937)" gradientUnits="userSpaceOnUse" xlink:href="#linearGradient3737"/>
  <filter id="filter1184" x="-.05" y="-.04" width="1.106" height="1.088" style="color-interpolation-filters:sRGB">
   <feGaussianBlur stdDeviation=".363"/>
  </filter>
  <linearGradient id="linearGradient1192" x1="-16.228" x2="-49.582" y1="38.29" y2="66.304" gradientTransform="matrix(-.08136493 -.54101758 -.54101758 .08136493 79.178557 259.31874)" gradientUnits="userSpaceOnUse" xlink:href="#linearGradient3737"/>
 </defs>
 <g transform="translate(0,-229.26666)">
  <path transform="matrix(.26970778 0 0 .26970778 -7.1289177 220.56049)" d="m188.96876 45.999995c72.64865 0 83.03125 10.356615 83.03125 82.937505v58.125c0 72.58059-10.3826 82.9375-83.03125 82.9375h-73.9375c-72.648654 0-83.031254-10.35691-83.031254-82.9375v-58.125c0-72.58089 10.3826-82.937505 83.031254-82.937505z" style="filter:url(#filter958);opacity:.2"/>
  <path transform="matrix(.26970778 0 0 .26970778 -7.1289177 220.56049)" d="m188.96876 43.999995c72.64865 0 83.03125 10.356615 83.03125 82.937505v58.125c0 72.58059-10.3826 82.9375-83.03125 82.9375h-73.9375c-72.648654 0-83.031254-10.35691-83.031254-82.9375v-58.125c0-72.58089 10.3826-82.937505 83.031254-82.937505z" style="filter:url(#filter4569);opacity:.1"/>
  <path d="m43.837418 232.42763c19.593907 0 22.394178 2.79326 22.394178 22.36889v15.67677c-3e-6 19.57555-2.800271 22.36889-22.394178 22.36889h-19.94152c-19.593904 0-22.394172-2.79334-22.394172-22.36889l-1e-6 -15.67677c1e-6 -19.57563 2.8002695-22.36889 22.394176-22.36889z" style="fill:url(#linearGradient878)"/>
  <path transform="matrix(.13485389 0 0 .13485389 -4.9712547 261.01666)" d="M 361.9375,-212 C 507.2348,-212 528,-191.28677 528,-46.125 V 70.125 C 528,215.28618 507.2348,236 361.9375,236 H 214.0625 C 68.7652,236 48,215.28618 48,70.125 V -46.125 C 48,-191.28677 68.7652,-212 214.0625,-212 Z" clip-path="url(#clipPath1082-3-53)" style="fill:none;opacity:.4;stroke-linecap:round;stroke-linejoin:round;stroke-width:8;stroke:url(#linearGradient1108)"/>
  <g transform="matrix(.26458333 0 0 .26458333 -40.935823 249.30199)" style="filter:url(#filter993);opacity:.3">
   <path d="m221.59772-37.950443c-12.05659 1.05e-4 -21.79862 4.38634-29.20343 13.157591-8.4491 9.995341-12.67622 23.54156-12.67622 40.676219 0 12.749093 2.44454 23.831625 7.38109 33.2149 7.49975 13.972974 19.02436 20.939821 34.49856 20.939829 3.34347 14.93165 12.56596 22.785752 34.25789 19.495702v-10.830945c-10.09805 0.930702-12.29032-4.619389-13.07737-14.441261v-0.641835c3.03783-1.937847 5.79528-4.343071 8.26362-7.300859 8.06928-9.689257 12.11453-23.198776 12.11461-40.435531-8e-5 -12.85098-2.57569-23.911751-7.702-33.295131-7.59475-13.666884-18.8573-20.538574-33.85675-20.538679zm81.27222 4.332379-15.24356 0.401144-5.05444 23.908308h-10.83094v17.891118h9.94842v34.257881c0 9.383317 1.33838 15.962676 3.93123 19.73639 3.26509 4.997629 10.20003 7.46131 20.8596 7.461318 3.55316-8e-6 7.95602-0.482667 13.23782-1.604585v-17.008596c-3.64926 0.204-6.3588 0.320935-8.18337 0.320916-2.97703 1.9e-5 -5.08972-0.504414-6.33812-1.524355-1.53654-1.223889-2.32667-4.389168-2.32664-9.386819v-32.25215h15.72492v-17.891118h-15.72492zm-81.27222 15.724925c11.77173 8.8e-5 17.65039 11.294717 17.65043 33.936965-4e-5 22.642346-5.8787 34.017212-17.65043 34.017192-11.96164 2e-5 -17.97137-11.433309-17.97134-34.177651-3e-5 -0.917879-3e-5 -1.809807 0-2.727794 0.56959-20.704386 6.57928-31.048624 17.97134-31.048712z"/>
  </g>
  <path transform="matrix(1.4890558,0,0,1.4890558,-24.917177,-136.46879)" d="m45.30523 287.06802c-0.981983-4.25525-1.635395-6.29792-0.03637-8.72874 2.236863-3.40045 8.874215-3.27328 15.4935-11.09277-3.78245 9.45613-2.25492 20.40342-15.45713 19.82151z" style="filter:url(#filter1184);opacity:.3"/>
  <g transform="matrix(.26458333 0 0 .26458333 -40.935823 249.30199)">
   <path d="m221.59772-37.950443c-12.05659 1.05e-4 -21.79862 4.38634-29.20343 13.157591-8.4491 9.995341-12.67622 23.54156-12.67622 40.676219 0 12.749093 2.44454 23.831625 7.38109 33.2149 7.49975 13.972974 19.02436 20.939821 34.49856 20.939829 3.34347 14.93165 12.56596 22.785752 34.25789 19.495702v-10.830945c-10.09805 0.930702-12.29032-4.619389-13.07737-14.441261v-0.641835c3.03783-1.937847 5.79528-4.343071 8.26362-7.300859 8.06928-9.689257 12.11453-23.198776 12.11461-40.435531-8e-5 -12.85098-2.57569-23.911751-7.702-33.295131-7.59475-13.666884-18.8573-20.538574-33.85675-20.538679zm81.27222 4.332379-15.24356 0.401144-5.05444 23.908308h-10.83094v17.891118h9.94842v34.257881c0 9.383317 1.33838 15.962676 3.93123 19.73639 3.26509 4.997629 10.20003 7.46131 20.8596 7.461318 3.55316-8e-6 7.95602-0.482667 13.23782-1.604585v-17.008596c-3.64926 0.204-6.3588 0.320935-8.18337 0.320916-2.97703 1.9e-5 -5.08972-0.504414-6.33812-1.524355-1.53654-1.223889-2.32667-4.389168-2.32664-9.386819v-32.25215h15.72492v-17.891118h-15.72492zm-81.27222 15.724925c11.77173 8.8e-5 17.65039 11.294717 17.65043 33.936965-4e-5 22.642346-5.8787 34.017212-17.65043 34.017192-11.96164 2e-5 -17.97137-11.433309-17.97134-34.177651-3e-5 -0.917879-3e-5 -1.809807 0-2.727794 0.56959-20.704386 6.57928-31.048624 17.97134-31.048712z" style="fill:#ffffff"/>
  </g>
  <path d="m42.544837 290.9915c-1.462228-6.33631-2.435195-9.37796-0.05416-12.99759 3.330814-5.06345 13.2142-4.87409 23.070686-16.51775-5.632279 14.08071-3.357702 30.38184-23.016529 29.51534z" style="fill:url(#linearGradient3724-6)"/>
  <path d="m42.54484 290.23331c9.423242-11.42703 19.388039-23.72057 19.388039-23.72057-10.289737 7.58191-16.112976 8.08832-18.684003 11.3187-3.027181 3.80353-1.29976 10.12728-0.704036 12.40187z" style="fill:url(#linearGradient3732);opacity:.39393939"/>
  <path d="m43.519658 290.12499c0.487406 0.21663 17.97998-22.09587 17.97998-22.09587s-18.359078 20.63364-17.97998 22.09587z" style="fill:#9f9f9f"/>
  <path d="m42.54484 290.23331c9.898529-11.01788 20.573393-22.70015 20.573393-22.70015-5.967311 11.30287-5.602061 17.13667-8.41416 20.15953-3.311025 3.55918-9.821355 2.79144-12.159233 2.54062z" style="fill:url(#linearGradient1192);opacity:.39393939"/>
 </g>
</svg>
