<svg width="256" height="256" version="1.1" viewBox="0 0 67.73 67.73" xmlns="http://www.w3.org/2000/svg" xmlns:xlink="http://www.w3.org/1999/xlink">
 <defs>
  <linearGradient id="linearGradient1108" x1="296" x2="296" y1="-212" y2="236" gradientUnits="userSpaceOnUse">
   <stop style="stop-color:#ffffff" offset="0"/>
   <stop style="stop-color:#ffffff;stop-opacity:.09803922" offset=".125"/>
   <stop style="stop-color:#000000;stop-opacity:.09803922" offset=".925"/>
   <stop style="stop-color:#000000;stop-opacity:.49803922" offset="1"/>
  </linearGradient>
  <clipPath id="clipPath1082-3-361">
   <path d="M 361.9375,-212 C 507.2348,-212 528,-191.28677 528,-46.125 V 70.125 C 528,215.28618 507.2348,236 361.9375,236 H 214.0625 C 68.7652,236 48,215.28618 48,70.125 V -46.125 C 48,-191.28677 68.7652,-212 214.0625,-212 Z" style="fill:#8c59d9"/>
  </clipPath>
  <filter id="filter4569" x="-.01" y="-.01" width="1.023" height="1.025" style="color-interpolation-filters:sRGB">
   <feGaussianBlur stdDeviation="1.16"/>
  </filter>
  <filter id="filter939" x="-.02" y="-.03" width="1.046" height="1.05" style="color-interpolation-filters:sRGB">
   <feGaussianBlur stdDeviation="2.32"/>
  </filter>
  <filter id="filter996" x="-.05" y="-.04" width="1.106" height="1.088" style="color-interpolation-filters:sRGB">
   <feGaussianBlur stdDeviation=".967"/>
  </filter>
 </defs>
 <g transform="translate(0,-229.26666)">
  <path transform="matrix(.26970779 0 0 .26970779 -1.9098094e-8 231.46531)" d="m162.53675 5.5680001c72.64865 0 83.03125 10.356615 83.03125 82.937505v58.125005c0 72.58059-10.3826 82.9375-83.03125 82.9375h-73.937496c-72.648654 0-83.031254-10.35691-83.031254-82.9375v-58.125005c0-72.58089 10.3826-82.937505 83.031254-82.937505z" style="filter:url(#filter939);opacity:.2"/>
  <path d="m43.837429 232.42763c19.593907 0 22.394176 2.79326 22.394176 22.36889v15.67677c0 19.57555-2.800269 22.36889-22.394176 22.36889h-19.941519c-19.593909 0-22.394177-2.79334-22.394177-22.36889v-15.67677c0-19.57563 2.8002682-22.36889 22.394177-22.36889z" style="fill:none;opacity:.1;stroke-linecap:round;stroke-linejoin:round;stroke-width:1.0788311;stroke:#000000"/>
  <path transform="matrix(.26970779 0 0 .26970779 -1.9098094e-8 231.46531)" d="m162.53675 3.5680001c72.64865 0 83.03125 10.356615 83.03125 82.937505v58.125005c0 72.58059-10.3826 82.9375-83.03125 82.9375h-73.937496c-72.648654 0-83.031254-10.35691-83.031254-82.9375v-58.125005c0-72.58089 10.3826-82.937505 83.031254-82.937505z" style="filter:url(#filter4569);opacity:.1"/>
  <path d="m43.837427 232.42763c19.593907 0 22.394175 2.79326 22.394175 22.36889v15.67677c0 19.57555-2.800268 22.36889-22.394175 22.36889h-19.94152c-19.593907 0-22.394176-2.79334-22.394176-22.36889v-15.67677c0-19.57563 2.8002682-22.36889 22.394176-22.36889z" style="fill:#d32727"/>
  <g transform="translate(1.0934022,1.7840166)" style="filter:url(#filter996);opacity:.3">
   <path d="m31.150696 275.8907v-7.08638h1.029647v-6.60183h-17.117758l-4.141347 4.14136v6.51848h1.090211v1.93815h-1.090211v12.53743h21.259105v-11.44721zm-15.808048-5.81445h-2.059287v-4.36085h2.059287zm3.5129-2.18042h-2.059286v-4.36087h2.059286zm3.634035 0h-2.059286v-4.36087h2.059286zm3.452333 0h-2.059288v-4.36087h2.059288zm3.634032 0h-2.059282v-4.36087h2.059282z"/>
   <g transform="matrix(-1,0,0,1,89.35903,-4.0261033)">
    <rect x="39.69" y="238.79" width="14.552" height="6.615"/>
    <rect x="37.04" y="241.44" width="2.646" height="6.615"/>
    <path d="m54.963197 252.07818v-7.08638h1.029647v-6.60183h-17.117758l-4.141347 4.14136v6.51848h1.090211v1.93815h-1.090211v12.53743h21.259105v-11.44721zm-15.808048-5.81445h-2.059287v-4.36085h2.059287zm3.5129-2.18042h-2.059286v-4.36087h2.059286zm3.634035 0h-2.059286v-4.36087h2.059286zm3.452333 0h-2.059288v-4.36087h2.059288zm3.634032 0h-2.059282v-4.36087h2.059282z"/>
   </g>
  </g>
  <rect transform="rotate(90)" x="235.09" y="-65.6" width="31.757" height="31.757" style="fill:none"/>
  <path transform="matrix(.26458333 0 0 .26458333 0 229.26666)" d="m25.707031 22.121094c-0.177828 0.115652-0.397454 0.198255-0.572265 0.316406-1.790054 1.209852-3.422296 2.551156-4.910157 4.037109-1.48786 1.485954-2.831475 3.116425-4.042968 4.904297-1.211493 1.787873-2.291004 3.732049-3.251953 5.847656-0.96095 2.115608-1.802833 4.401935-2.539063 6.871094-0.7362302 2.469159-1.3669615 5.122176-1.9042969 7.970703s-0.9814381 5.892773-1.3457031 9.146485c-0.364265 3.253711-0.6482154 6.715678-0.8652344 10.40039-0.4340378 7.369426-0.5996094 15.626671-0.5996094 24.875v59.251956c0 9.24829 0.1655716 17.50559 0.5996094 24.875 0.217019 3.6847 0.5009694 7.14668 0.8652344 10.40039 0.364265 3.2537 0.8083677 6.29796 1.3457031 9.14648 0.5373354 2.84853 1.1680667 5.50155 1.9042969 7.97071 0.73623 2.46915 1.578113 4.75548 2.539063 6.87109 0.960949 2.11561 2.04046 4.05978 3.251953 5.84766 1.211493 1.78787 2.555108 3.41833 4.042968 4.90429 1.487861 1.48596 3.120103 2.82725 4.910157 4.03711 1.790053 1.20986 3.737399 2.28848 5.855468 3.24805 2.11807 0.95957 4.406996 1.80005 6.878907 2.53515 2.471911 0.73511 5.126939 1.3659 7.978515 1.90235 2.851577 0.53645 5.899184 0.98013 9.15625 1.34375 3.257066 0.36361 6.723729 0.64669 10.41211 0.86328 7.376761 0.43319 15.641473 0.59766 24.898437 0.59766h75.371097c9.25696 0 17.52167-0.16447 24.89843-0.59766 3.68838-0.21659 7.15505-0.49967 10.41211-0.86328 3.25707-0.36362 6.30468-0.8073 9.15625-1.34375 2.85158-0.53645 5.50661-1.16724 7.97852-1.90235 2.47191-0.7351 4.76084-1.57558 6.87891-2.53515 1.75358-0.79445 3.32043-1.72497 4.84765-2.68945l-204.15039-208.23243z" style="fill:#ffffff;opacity:.1"/>
  <rect x="17.2" y="263.93" width="14.552" height="6.615" style="fill:#ffa600"/>
  <path transform="matrix(.1348539 0 0 .1348539 -4.9712559 261.01666)" d="M 361.9375,-212 C 507.2348,-212 528,-191.28677 528,-46.125 V 70.125 C 528,215.28618 507.2348,236 361.9375,236 H 214.0625 C 68.7652,236 48,215.28618 48,70.125 V -46.125 C 48,-191.28677 68.7652,-212 214.0625,-212 Z" clip-path="url(#clipPath1082-3-361)" style="fill:none;opacity:.4;stroke-linecap:round;stroke-linejoin:round;stroke-width:8;stroke:url(#linearGradient1108)"/>
  <rect x="14.29" y="266.57" width="2.646" height="6.615" style="fill:#ffa600"/>
  <g transform="translate(1.0934022,1.7840166)">
   <path d="m31.150696 275.8907v-7.08638h1.029647v-6.60183h-17.117758l-4.141347 4.14136v6.51848h1.090211v1.93815h-1.090211v12.53743h21.259105v-11.44721zm-15.808048-5.81445h-2.059287v-4.36085h2.059287zm3.5129-2.18042h-2.059286v-4.36087h2.059286zm3.634035 0h-2.059286v-4.36087h2.059286zm3.452333 0h-2.059288v-4.36087h2.059288zm3.634032 0h-2.059282v-4.36087h2.059282z" style="fill:#2c568b"/>
   <g transform="matrix(-1,0,0,1,89.35903,-4.0261033)" style="fill:#8c063a">
    <rect x="39.69" y="238.79" width="14.552" height="6.615" style="fill:#ffa600"/>
    <rect x="37.04" y="241.44" width="2.646" height="6.615" style="fill:#ffa600"/>
    <path d="m54.963197 252.07818v-7.08638h1.029647v-6.60183h-17.117758l-4.141347 4.14136v6.51848h1.090211v1.93815h-1.090211v12.53743h21.259105v-11.44721zm-15.808048-5.81445h-2.059287v-4.36085h2.059287zm3.5129-2.18042h-2.059286v-4.36087h2.059286zm3.634035 0h-2.059286v-4.36087h2.059286zm3.452333 0h-2.059288v-4.36087h2.059288zm3.634032 0h-2.059282v-4.36087h2.059282z" style="fill:#8c063a"/>
   </g>
  </g>
 </g>
</svg>
