<svg width="256" height="256" version="1.1" viewBox="0 0 67.73 67.73" xmlns="http://www.w3.org/2000/svg" xmlns:xlink="http://www.w3.org/1999/xlink">
 <defs>
  <linearGradient id="linearGradient1108" x1="296" x2="296" y1="-212" y2="236" gradientUnits="userSpaceOnUse">
   <stop style="stop-color:#ffffff" offset="0"/>
   <stop style="stop-color:#ffffff;stop-opacity:.09803922" offset=".125"/>
   <stop style="stop-color:#000000;stop-opacity:.09803922" offset=".925"/>
   <stop style="stop-color:#000000;stop-opacity:.49803922" offset="1"/>
  </linearGradient>
  <clipPath id="clipPath1082-3-361">
   <path d="M 361.9375,-212 C 507.2348,-212 528,-191.28677 528,-46.125 V 70.125 C 528,215.28618 507.2348,236 361.9375,236 H 214.0625 C 68.7652,236 48,215.28618 48,70.125 V -46.125 C 48,-191.28677 68.7652,-212 214.0625,-212 Z" style="fill:#8c59d9"/>
  </clipPath>
  <filter id="filter4569" x="-.01" y="-.01" width="1.023" height="1.025" style="color-interpolation-filters:sRGB">
   <feGaussianBlur stdDeviation="1.16"/>
  </filter>
  <filter id="filter939" x="-.02" y="-.03" width="1.046" height="1.05" style="color-interpolation-filters:sRGB">
   <feGaussianBlur stdDeviation="2.32"/>
  </filter>
  <filter id="filter907" x="-.05" y="-.05" width="1.096" height="1.096" style="color-interpolation-filters:sRGB">
   <feGaussianBlur stdDeviation=".794"/>
  </filter>
 </defs>
 <g transform="translate(0,-229.26666)">
  <path transform="matrix(.26970779 0 0 .26970779 -1.9098094e-8 231.46531)" d="m162.53675 5.5680001c72.64865 0 83.03125 10.356615 83.03125 82.937505v58.125005c0 72.58059-10.3826 82.9375-83.03125 82.9375h-73.937496c-72.648654 0-83.031254-10.35691-83.031254-82.9375v-58.125005c0-72.58089 10.3826-82.937505 83.031254-82.937505z" style="filter:url(#filter939);opacity:.2"/>
  <path d="m43.837429 232.42763c19.593907 0 22.394176 2.79326 22.394176 22.36889v15.67677c0 19.57555-2.800269 22.36889-22.394176 22.36889h-19.941519c-19.593909 0-22.394177-2.79334-22.394177-22.36889v-15.67677c0-19.57563 2.8002682-22.36889 22.394177-22.36889z" style="fill:none;opacity:.1;stroke-linecap:round;stroke-linejoin:round;stroke-width:1.0788311;stroke:#000000"/>
  <path transform="matrix(.26970779 0 0 .26970779 -1.9098094e-8 231.46531)" d="m162.53675 3.5680001c72.64865 0 83.03125 10.356615 83.03125 82.937505v58.125005c0 72.58059-10.3826 82.9375-83.03125 82.9375h-73.937496c-72.648654 0-83.031254-10.35691-83.031254-82.9375v-58.125005c0-72.58089 10.3826-82.937505 83.031254-82.937505z" style="filter:url(#filter4569);opacity:.1"/>
  <path d="m33.866666 232.42763v60.41455h9.970761c19.593907 0 22.394175-2.79334 22.394175-22.36889v-15.67677c0-19.57563-2.800268-22.36889-22.394175-22.36889z" style="fill:#ffffff;opacity:.2"/>
  <path d="m23.895907 292.84218c-19.593907 0-22.394176-2.79326-22.394176-22.36889v-7.83838h64.729871v7.83838c0 19.57563-2.800268 22.36889-22.394175 22.36889z" style="fill:#ffffff;opacity:.25"/>
  <g transform="translate(89.147951,2.8433325)">
   <path d="m-55.281282 229.5843h9.97076c2.449237 0 4.636055 0.0439 6.587823 0.15856 0.975884 0.0573 1.892731 0.13242 2.754495 0.22861 0.861766 0.0962 1.668151 0.21364 2.42263 0.35558 0.75448 0.14194 1.457279 0.30804 2.111308 0.50254 0.654024 0.19449 1.259594 0.41723 1.820001 0.67111 0.560404 0.25388 1.075618 0.53906 1.549239 0.85916 0.04838 0.0327 0.08524 0.0756 0.132745 0.10905l-27.349001 27.32266z" style="fill:#e647ff"/>
   <path d="m-82.630813 232.46944c0.04771-0.0335 0.0847-0.0768 0.133274-0.10958 0.47362-0.3201 0.988835-0.60528 1.549239-0.85916 0.560408-0.25388 1.165976-0.47662 1.820002-0.67111 0.654028-0.1945 1.356301-0.3606 2.110779-0.50254 0.75448-0.14194 1.560863-0.25937 2.422631-0.35558 0.861766-0.0962 1.779139-0.17131 2.755023-0.22861 1.951766-0.11462 4.138584-0.15856 6.587823-0.15856h9.97076v30.20727z" style="fill:#ff3636"/>
   <path d="m-27.961253 232.44521c0.429677 0.29967 0.833033 0.6212 1.195248 0.98295 0.393662 0.39316 0.749337 0.82441 1.069876 1.29744 0.320541 0.47304 0.60597 0.98791 0.860221 1.54766 0.25425 0.55975 0.477369 1.1646 0.672163 1.8179 0.194793 0.65329 0.361424 1.35499 0.503595 2.10867 0.142168 0.75367 0.259721 1.55912 0.356098 2.41999 0.09638 0.86088 0.171726 1.77696 0.229147 2.75187 0.114838 1.94983 0.158557 4.13455 0.158557 6.5815v7.83838h-32.364934z" style="fill:#5964ff"/>
   <path d="m-22.916348 259.7921v7.83786c0 2.44694-0.04372 4.63167-0.158557 6.5815-0.05742 0.97491-0.13277 1.89151-0.229147 2.75238-0.09638 0.86088-0.21393 1.66633-0.356098 2.42-0.142171 0.75367-0.308802 1.45537-0.503595 2.10868-0.194794 0.65329-0.417913 1.25813-0.672163 1.81789-0.254251 0.55975-0.53968 1.07462-0.860221 1.54765-0.320539 0.47305-0.676214 0.90428-1.069876 1.29745-0.362215 0.36175-0.765571 0.68329-1.195248 0.98296l-27.320029-27.34637z" style="fill:#53bdff"/>
   <path d="m-87.646218 259.79157v-7.83838c0-2.44695 0.04372-4.63167 0.158559-6.5815 0.05742-0.97491 0.132768-1.89099 0.229146-2.75187 0.09638-0.86087 0.213929-1.66632 0.356099-2.41999 0.14217-0.75368 0.308801-1.45538 0.503595-2.10867 0.194794-0.6533 0.417384-1.25815 0.671636-1.8179 0.254251-0.55975 0.540207-1.07462 0.860746-1.54766 0.320542-0.47303 0.675686-0.90428 1.069349-1.29744 0.362225-0.36176 0.766092-0.68328 1.195777-0.98295l27.320029 27.34636z" style="fill:#ff7221"/>
   <path d="m-82.601837 287.13794c-0.429448-0.29956-0.833201-0.62085-1.195251-0.98243-0.393663-0.39317-0.748807-0.8244-1.069349-1.29745-0.320539-0.47303-0.606495-0.9879-0.860746-1.54765-0.254252-0.55976-0.476842-1.1646-0.671636-1.81789-0.194794-0.65331-0.361425-1.35501-0.503595-2.10868s-0.25972-1.55912-0.356099-2.42c-0.09638-0.86087-0.171726-1.77747-0.229146-2.75238-0.114839-1.94983-0.158559-4.13456-0.158559-6.5815v-7.83786h32.364936z" style="fill:#ffac29"/>
   <path d="m-27.932281 287.11476c-0.04751 0.0334-0.08437 0.0763-0.132745 0.10904-0.473621 0.32011-0.988835 0.60528-1.549239 0.85917-0.560407 0.25389-1.165977 0.47661-1.820001 0.67111-0.654029 0.19449-1.356828 0.36061-2.111308 0.50254-0.754479 0.14193-1.560864 0.25936-2.42263 0.35557-0.861764 0.0962-1.778611 0.17132-2.754495 0.22863-1.951768 0.1146-4.138586 0.15803-6.587823 0.15803h-9.97076v-30.20728z" style="fill:#80ffe5"/>
   <path d="m-55.281282 289.99885h-9.97076c-2.449239 0-4.636057-0.0434-6.587823-0.15803-0.975884-0.0573-1.893257-0.13242-2.755023-0.22863-0.861768-0.0962-1.668151-0.21364-2.422631-0.35557-0.754478-0.14193-1.456751-0.30805-2.110779-0.50254-0.654026-0.1945-1.259594-0.41722-1.820002-0.67111-0.560404-0.25389-1.075619-0.53906-1.549239-0.85917-0.04836-0.0327-0.08525-0.0756-0.132745-0.10904l27.349002-27.32266z" style="fill:#73ff44"/>
   <circle transform="matrix(-1.0193681,0,0,1.0193681,-112.28918,-5.6562467)" cx="-55.925" cy="260.405" r="19.844" style="filter:url(#filter907);opacity:.4"/>
   <circle transform="scale(-1,1)" cx="55.281" cy="259.792" r="20.228" style="fill:#ffffff"/>
  </g>
  <path transform="matrix(.1348539 0 0 .1348539 -4.9712559 261.01666)" d="M 361.9375,-212 C 507.2348,-212 528,-191.28677 528,-46.125 V 70.125 C 528,215.28618 507.2348,236 361.9375,236 H 214.0625 C 68.7652,236 48,215.28618 48,70.125 V -46.125 C 48,-191.28677 68.7652,-212 214.0625,-212 Z" clip-path="url(#clipPath1082-3-361)" style="fill:none;opacity:.4;stroke-linecap:round;stroke-linejoin:round;stroke-width:8;stroke:url(#linearGradient1108)"/>
 </g>
</svg>
