<svg xmlns="http://www.w3.org/2000/svg" xmlns:xlink="http://www.w3.org/1999/xlink" width="256" height="256" version="1.1" viewBox="0 0 67.73 67.73">
 <defs>
  <linearGradient id="linearGradient1108" x1="296" x2="296" y1="-212" y2="236" gradientUnits="userSpaceOnUse" xlink:href="#linearGradient1013"/>
  <linearGradient id="linearGradient1013">
   <stop offset="0" style="stop-color:#ffffff"/>
   <stop style="stop-color:#ffffff;stop-opacity:0.09803922" offset=".125"/>
   <stop style="stop-color:#000000;stop-opacity:0.09803922" offset=".925"/>
   <stop offset="1" style="stop-color:#000000;stop-opacity:0.49803922"/>
  </linearGradient>
  <clipPath id="clipPath1082-3-75" clipPathUnits="userSpaceOnUse">
   <path d="M 361.9375,-212 C 507.2348,-212 528,-191.28677 528,-46.125 V 70.125 C 528,215.28618 507.2348,236 361.9375,236 H 214.0625 C 68.7652,236 48,215.28618 48,70.125 V -46.125 C 48,-191.28677 68.7652,-212 214.0625,-212 Z" style="fill:#8c59d9"/>
  </clipPath>
  <linearGradient id="linearGradient982" x1="152" x2="152" y1="124" y2="236" gradientUnits="userSpaceOnUse" xlink:href="#linearGradient980"/>
  <linearGradient id="linearGradient980">
   <stop style="stop-color:#000000" offset="0"/>
   <stop style="stop-color:#000000;stop-opacity:0" offset="1"/>
  </linearGradient>
  <clipPath id="clipPath999-8" clipPathUnits="userSpaceOnUse">
   <path style="fill:#5d5d5d" d="m 152,68 c -48.60106,0 -88,39.39894 -88,88 0,48.60106 39.39894,88 88,88 48.60106,0 88,-39.39894 88,-88 0,-48.60106 -39.39894,-88 -88,-88 z"/>
  </clipPath>
  <filter style="color-interpolation-filters:sRGB" id="filter1422" width="1.12" height="1.12" x="-.06" y="-.06">
   <feGaussianBlur stdDeviation="3.75"/>
  </filter>
  <linearGradient id="linearGradient32105" x1="77" x2="227" y1="156" y2="156" gradientTransform="rotate(90,152,156)" gradientUnits="userSpaceOnUse" xlink:href="#linearGradient1392"/>
  <linearGradient id="linearGradient1392">
   <stop style="stop-color:#e6e6e6" offset="0"/>
   <stop style="stop-color:#f2f2f2" offset="1"/>
  </linearGradient>
  <linearGradient id="linearGradient32113" x1="624" x2="688" y1="369.239" y2="369.239" gradientUnits="userSpaceOnUse" xlink:href="#linearGradient4336-3"/>
  <linearGradient id="linearGradient4336-3">
   <stop style="stop-color:#5884f4" offset="0"/>
   <stop offset=".278" style="stop-color:#5884f4"/>
   <stop style="stop-color:#2f5fdd" offset=".278"/>
   <stop offset=".707" style="stop-color:#2f5fdd"/>
   <stop offset=".709" style="stop-color:#234db8"/>
   <stop style="stop-color:#234db8" offset="1"/>
  </linearGradient>
  <linearGradient id="linearGradient878" x1="32" x2="272" y1="156" y2="156" gradientTransform="matrix(0,2.0393079,-2.0393079,0,544.64912,-37.169938)" gradientUnits="userSpaceOnUse" xlink:href="#linearGradient876"/>
  <linearGradient id="linearGradient876">
   <stop style="stop-color:#b3b3b3" offset="0"/>
   <stop style="stop-color:#d9d9d9" offset="1"/>
  </linearGradient>
  <filter style="color-interpolation-filters:sRGB" id="filter931" width="1.023" height="1.025" x="-.01" y="-.01">
   <feGaussianBlur stdDeviation="1.16"/>
  </filter>
  <filter style="color-interpolation-filters:sRGB" id="filter925" width="1.046" height="1.05" x="-.02" y="-.03">
   <feGaussianBlur stdDeviation="2.32"/>
  </filter>
 </defs>
 <g transform="translate(0,-229.26666)">
  <g style="enable-background:new" transform="matrix(0.12974173,0,0,0.12974173,3.8344818,227.85345)">
   <path d="m 162.53675,5.568 c 72.64865,0 83.03125,10.356615 83.03125,82.9375 v 58.125 c 0,72.58059 -10.3826,82.9375 -83.03125,82.9375 H 88.59925 C 15.9506,229.568 5.5679999,219.21109 5.5679999,146.6305 V 88.5055 C 5.5679999,15.924615 15.9506,5.568 88.59925,5.568 Z" transform="matrix(2.0393079,0,0,2.0393079,-29.55473,37.126122)" style="opacity:0.2;filter:url(#filter925)"/>
   <path style="opacity:0.1;filter:url(#filter931)" d="m 162.53675,4.568 c 72.64865,0 83.03125,10.356615 83.03125,82.9375 v 58.125 c 0,72.58059 -10.3826,82.9375 -83.03125,82.9375 H 88.59925 C 15.9506,228.568 5.5679999,218.21109 5.5679999,145.6305 V 87.5055 C 5.5679999,14.924615 15.9506,4.568 88.59925,4.568 Z" transform="matrix(2.0393079,0,0,2.0393079,-29.55473,37.126122)"/>
   <path style="fill:url(#linearGradient878)" d="m 301.90775,44.402373 c 148.15296,0 169.32628,21.120338 169.32628,169.135097 v 118.53477 c 0,148.01417 -21.17332,169.13509 -169.32628,169.13509 H 151.12642 c -148.1529699,0 -169.32628,-21.12092 -169.32628,-169.13509 V 213.53747 c 0,-148.014759 21.1733101,-169.135097 169.32628,-169.135097 z"/>
   <g transform="matrix(2.0393079,0,0,2.0393079,-83.45772,-45.327178)" style="enable-background:new">
    <circle cx="152" cy="-156" r="88" transform="scale(1,-1)" style="fill:#5d5d5d"/>
    <path d="m 64.00017,155.99984 a 88,88 0 0 1 88,-88 88,88 0 0 1 88,88 z" style="opacity:0.05"/>
    <path d="m 152,70 c -48.60106,0 -88,39.39894 -88,88 0,48.60106 39.39894,88 88,88 48.60106,0 88,-39.39894 88,-88 0,-48.60106 -39.39894,-88 -88,-88 z" clip-path="url(#clipPath999-8)" transform="translate(1.68e-4,-1.64e-4)" style="opacity:0.2;fill:none;stroke:url(#linearGradient982);stroke-width:10;stroke-linejoin:round;filter:url(#filter1003)"/>
    <path style="opacity:0.2;filter:url(#filter1422)" d="m 152.00017,232.99984 c -41.42135,0 -75,-33.57864 -75,-75 0,-41.42136 33.57865,-75 75,-75 41.42135,0 75,33.57864 75,75 0,41.42136 -33.57865,75 -75,75 z"/>
    <g style="enable-background:new" transform="translate(1.68e-4,-1.64e-4)">
     <path style="fill:url(#linearGradient32105)" d="m 152,231 c -41.42135,0 -75,-33.57864 -75,-75 0,-41.42136 33.57865,-75 75,-75 41.42135,0 75,33.57864 75,75 0,41.42136 -33.57865,75 -75,75 z"/>
     <ellipse style="opacity:0.05" cx="152" cy="156" rx="32" ry="32"/>
     <ellipse cx="152" cy="156" rx="20" ry="20" style="fill:#ffffff"/>
     <g style="opacity:0.1">
      <circle cx="53.636" cy="185.1" r="2" transform="rotate(-30)"/>
      <circle cx="53.636" cy="237.1" r="2" transform="rotate(-30)"/>
      <circle cx="-59.1" cy="183.636" r="2" transform="rotate(-60)"/>
      <circle cx="-59.1" cy="235.636" r="2" transform="rotate(-60)"/>
      <circle cx="-156" cy="126" r="2" transform="rotate(-90)"/>
      <circle cx="-156" cy="178" r="2" transform="rotate(-90)"/>
      <circle cx="-211.1" cy="27.636" r="2" transform="rotate(-120)"/>
      <circle cx="-211.1" cy="79.636" r="2" transform="rotate(-120)"/>
      <circle cx="152" cy="130" r="2" transform="rotate(-150,152,156)"/>
      <circle cx="152" cy="182" r="2" transform="rotate(-150,152,156)"/>
      <circle cx="-152" cy="-182" r="2" transform="scale(-1)"/>
      <circle cx="-152" cy="-130" r="2" transform="scale(-1)"/>
     </g>
     <ellipse style="opacity:0.1" cx="152" cy="156" rx="16" ry="16"/>
     <ellipse style="fill:#888888" cx="152" cy="156" rx="4" ry="4"/>
    </g>
    <circle cx="76" cy="232" r="4" style="opacity:0.1"/>
    <path d="m 152.00017,80.99984 c -41.42135,0 -75,33.57864 -75,75 0,0.3354 0.021,0.66565 0.0254,1 0.53771,-40.95831 33.88866,-74 74.97461,-74 41.08595,0 74.4369,33.04169 74.97461,74 0.004,-0.33435 0.0254,-0.6646 0.0254,-1 0,-41.42136 -33.57865,-75 -75,-75 z" style="opacity:0.5;fill:#ffffff"/>
    <path d="m 76.00017,75.99984 a 4,4 0 0 0 -4,4 4,4 0 0 0 4,4 4,4 0 0 0 4,-4 4,4 0 0 0 -4,-4 z m 152,0 a 4,4 0 0 0 -4,4 4,4 0 0 0 4,4 4,4 0 0 0 4,-4 4,4 0 0 0 -4,-4 z m 0,152 a 4,4 0 0 0 -4,4 4,4 0 0 0 4,4 4,4 0 0 0 4,-4 4,4 0 0 0 -4,-4 z" style="opacity:0.1"/>
    <path d="m 150,95 c -33.3141,1.05412 -60,28.27559 -60,61.72533 0,16.8569 6.78514,32.12838 17.77148,43.27467 l 9.19141,-9.15819 C 108.3288,182.03996 103,170.00541 103,156.72533 c 0,-26.2958 20.86662,-47.72559 47,-48.77231 z" style="opacity:0.2"/>
    <g transform="matrix(0.42285581,0.42285581,-0.45861964,0.45861964,18.280742,-265.0676)" style="enable-background:new">
     <path d="m 688.00003,319.35584 -32,81.13762 -31.99999,-81.13762 v -11.06422 h 63.99999 z" style="fill:#fee1c2"/>
     <path d="m 645.81253,374.67694 10.1875,25.81651 10.1875,-25.81651 c 0,0 0.77644,-2.76606 -1.20553,-2.76606 -1.98197,0 -3.94669,3.68807 -3.94669,3.68807 0,0 -1.03528,-4.61009 -5.01377,-4.61009 -3.9785,0 -5.01378,4.61009 -5.01378,4.61009 0,0 -2.00773,-3.68807 -4.00773,-3.68807 -2,0 -1.1875,2.76606 -1.1875,2.76606 z" style="fill:#5d5d5d"/>
     <path d="m 624.00004,319.35583 c 0,-7.37615 17.99999,-3.68808 17.99999,7.37614 0,-18.44036 28,-18.44036 28,0 0,-11.06422 18,-14.75229 18,-7.37614 V 133.45602 h -63.99999 z" style="fill:url(#linearGradient32113)"/>
    </g>
   </g>
   <path d="M 361.9375,-212 C 507.2348,-212 528,-191.28677 528,-46.125 V 70.125 C 528,215.28618 507.2348,236 361.9375,236 H 214.0625 C 68.7652,236 48,215.28618 48,70.125 V -46.125 C 48,-191.28677 68.7652,-212 214.0625,-212 Z" clip-path="url(#clipPath1082-3-75)" transform="matrix(1.0196539,0,0,1.0196539,-67.14325,260.569)" style="opacity:0.4;fill:none;stroke:url(#linearGradient1108);stroke-width:8;stroke-linecap:round;stroke-linejoin:round"/>
  </g>
 </g>
</svg>
