<svg xmlns="http://www.w3.org/2000/svg" xmlns:xlink="http://www.w3.org/1999/xlink" width="256" height="256" version="1.0" style="enable-background:new">
 <defs>
  <linearGradient id="linearGradient865">
   <stop offset="0" style="stop-color:#234db8"/>
   <stop offset="1" style="stop-color:#5884f4"/>
  </linearGradient>
  <filter style="color-interpolation-filters:sRGB" id="filter925" width="1.046" height="1.05" x="-.02" y="-.03">
   <feGaussianBlur stdDeviation="2.32"/>
  </filter>
  <filter style="color-interpolation-filters:sRGB" id="filter931" width="1.023" height="1.025" x="-.01" y="-.01">
   <feGaussianBlur stdDeviation="1.16"/>
  </filter>
  <linearGradient id="linearGradient1108" x1="296" x2="296" y1="-212" y2="236" gradientUnits="userSpaceOnUse" xlink:href="#linearGradient1013"/>
  <linearGradient id="linearGradient1013">
   <stop offset="0" style="stop-color:#ffffff"/>
   <stop style="stop-color:#ffffff;stop-opacity:0.09803922" offset=".125"/>
   <stop style="stop-color:#000000;stop-opacity:0.09803922" offset=".925"/>
   <stop offset="1" style="stop-color:#000000;stop-opacity:0.49803922"/>
  </linearGradient>
  <clipPath id="clipPath1082-3" clipPathUnits="userSpaceOnUse">
   <path d="M 361.9375,-212 C 507.2348,-212 528,-191.28677 528,-46.125 V 70.125 C 528,215.28618 507.2348,236 361.9375,236 H 214.0625 C 68.7652,236 48,215.28618 48,70.125 V -46.125 C 48,-191.28677 68.7652,-212 214.0625,-212 Z" style="fill:#8c59d9"/>
  </clipPath>
  <linearGradient id="linearGradient867" x1="6.549" x2="245.206" y1="284.432" y2="60.432" gradientUnits="userSpaceOnUse" xlink:href="#linearGradient865"/>
 </defs>
 <g transform="translate(0,-44)">
  <g>
   <g>
    <path d="m 162.53675,62.431991 c 72.64865,0 83.03125,10.356615 83.03125,82.937499 v 58.125 c 0,72.58059 -10.3826,82.9375 -83.03125,82.9375 h -73.9375 c -72.64865,0 -83.0312501,-10.35691 -83.0312501,-82.9375 v -58.125 c 0,-72.580884 10.3826001,-82.937499 83.0312501,-82.937499 z" style="opacity:0.2;filter:url(#filter925)"/>
    <path style="opacity:0.1;filter:url(#filter931)" d="m 162.53675,61.431991 c 72.64865,0 83.03125,10.356615 83.03125,82.937499 v 58.125 c 0,72.58059 -10.3826,82.9375 -83.03125,82.9375 h -73.9375 c -72.64865,0 -83.0312501,-10.35691 -83.0312501,-82.9375 v -58.125 c 0,-72.580884 10.3826001,-82.937499 83.0312501,-82.937499 z"/>
   </g>
   <g>
    <path style="fill:url(#linearGradient867)" d="m 162.53675,60.431991 c 72.64865,0 83.03125,10.356615 83.03125,82.937499 v 58.125 c 0,72.58059 -10.3826,82.9375 -83.03125,82.9375 h -73.9375 c -72.64865,0 -83.0312501,-10.35691 -83.0312501,-82.9375 v -58.125 c 0,-72.580884 10.3826001,-82.937499 83.0312501,-82.937499 z"/>
    <path fill="#FFFFFF" d="m 5.676021,170.11576 v 29.62541 c 0,73.98633 10.583691,84.5438 84.639396,84.5438 h 75.369533 c 74.05571,0 84.6394,-10.55747 84.6394,-84.5438 V 170.11576 H 5.676017 Z" style="opacity:0.1;isolation:isolate"/>
   </g>
   <g>
    <path fill-rule="evenodd" d="M 78.540897,138.76781 V 117 h 63.482853 q 9.26121,0 16.54353,2.77045 7.28232,2.77045 12.26913,7.40105 4.98681,4.63061 7.63852,10.76517 2.65172,6.13457 2.65172,12.78365 0,6.09498 -1.30607,10.68601 -1.30607,4.59103 -3.79947,8.15304 -2.49341,3.562 -6.13457,6.29287 -3.64116,2.73087 -8.31134,4.94723 4.03694,2.05805 7.12401,6.29288 3.08707,4.23483 4.67018,10.96306 l 4.03694,15.59367 h 9.89446 L 187.4591,237 h -34.82849 l -4.74934,-28.49604 q -0.71241,-5.06597 -2.17679,-8.7467 -1.46437,-3.68074 -3.9182,-6.01583 -2.45383,-2.3351 -5.97625,-3.44328 -3.52243,-1.10818 -8.35093,-1.10818 h -10.21108 v 26.12138 h 11.00264 V 237 H 78.540897 v -21.68865 h 12.427441 v -76.54354 z m 54.459103,0 h -15.75198 v 29.05013 H 133 q 4.51187,0 8.11346,-0.83113 3.60158,-0.83114 6.17414,-2.61214 2.57256,-1.781 3.95778,-4.4723 1.38523,-2.69129 1.38523,-6.41161 0,-6.96569 -4.98681,-10.84432 -4.98681,-3.87863 -14.6438,-3.87863 z" style="opacity:0.2;isolation:isolate"/>
    <path fill="#FFFFFF" fill-rule="evenodd" d="M 73.540897,133.76781 V 112 h 63.482853 q 9.26121,0 16.54353,2.77045 7.28232,2.77045 12.26913,7.40105 4.98681,4.63061 7.63852,10.76517 2.65172,6.13457 2.65172,12.78365 0,6.09498 -1.30607,10.68601 -1.30607,4.59103 -3.79947,8.15304 -2.49341,3.562 -6.13457,6.29287 -3.64116,2.73087 -8.31134,4.94723 4.03694,2.05805 7.12401,6.29288 3.08707,4.23483 4.67018,10.96306 l 4.03694,15.59367 h 9.89446 L 182.4591,232 h -34.82849 l -4.74934,-28.49604 q -0.71241,-5.06597 -2.17679,-8.7467 -1.46437,-3.68074 -3.9182,-6.01583 -2.45383,-2.3351 -5.97625,-3.44328 -3.52243,-1.10818 -8.35093,-1.10818 h -10.21108 v 26.12138 h 11.00264 V 232 H 73.540897 v -21.68865 h 12.427441 v -76.54354 z m 54.459103,0 h -15.75198 v 29.05013 H 128 q 4.51187,0 8.11346,-0.83113 3.60158,-0.83114 6.17414,-2.61214 2.57256,-1.781 3.95778,-4.4723 1.38523,-2.69129 1.38523,-6.41161 0,-6.96569 -4.98681,-10.84432 -4.98681,-3.87863 -14.6438,-3.87863 z" style="isolation:isolate"/>
   </g>
   <g>
    <path d="M 361.9375,-212 C 507.2348,-212 528,-191.28677 528,-46.125 V 70.125 C 528,215.28618 507.2348,236 361.9375,236 H 214.0625 C 68.7652,236 48,215.28618 48,70.125 V -46.125 C 48,-191.28677 68.7652,-212 214.0625,-212 Z" clip-path="url(#clipPath1082-3)" transform="matrix(0.5,0,0,0.5,-18.432,166.43199)" style="opacity:0.4;fill:none;stroke:url(#linearGradient1108);stroke-width:8;stroke-linecap:round;stroke-linejoin:round"/>
   </g>
  </g>
 </g>
</svg>
