<svg width="256" height="256" version="1.1" viewBox="0 0 67.73 67.73" xmlns="http://www.w3.org/2000/svg" xmlns:xlink="http://www.w3.org/1999/xlink">
 <defs>
  <linearGradient id="linearGradient1108" x1="296" x2="296" y1="-212" y2="236" gradientUnits="userSpaceOnUse">
   <stop style="stop-color:#ffffff" offset="0"/>
   <stop style="stop-color:#ffffff;stop-opacity:.09803922" offset=".125"/>
   <stop style="stop-color:#000000;stop-opacity:.09803922" offset=".925"/>
   <stop style="stop-color:#000000;stop-opacity:.49803922" offset="1"/>
  </linearGradient>
  <clipPath id="clipPath1082-3-361">
   <path d="M 361.9375,-212 C 507.2348,-212 528,-191.28677 528,-46.125 V 70.125 C 528,215.28618 507.2348,236 361.9375,236 H 214.0625 C 68.7652,236 48,215.28618 48,70.125 V -46.125 C 48,-191.28677 68.7652,-212 214.0625,-212 Z" style="fill:#8c59d9"/>
  </clipPath>
  <filter id="filter4569" x="-.01" y="-.01" width="1.023" height="1.025" style="color-interpolation-filters:sRGB">
   <feGaussianBlur stdDeviation="1.16"/>
  </filter>
  <filter id="filter939" x="-.02" y="-.03" width="1.046" height="1.05" style="color-interpolation-filters:sRGB">
   <feGaussianBlur stdDeviation="2.32"/>
  </filter>
  <filter id="filter1750" style="color-interpolation-filters:sRGB">
   <feGaussianBlur stdDeviation=".197"/>
  </filter>
  <filter id="filter1754" style="color-interpolation-filters:sRGB">
   <feGaussianBlur stdDeviation=".197"/>
  </filter>
  <filter id="filter1758" style="color-interpolation-filters:sRGB">
   <feGaussianBlur stdDeviation=".197"/>
  </filter>
  <filter id="filter1762" style="color-interpolation-filters:sRGB">
   <feGaussianBlur stdDeviation=".197"/>
  </filter>
  <filter id="filter1947" x="-.04" y="-.06" width="1.085" height="1.111" style="color-interpolation-filters:sRGB">
   <feGaussianBlur stdDeviation=".701"/>
  </filter>
 </defs>
 <g transform="translate(0,-229.26666)">
  <path transform="matrix(.26970779 0 0 .26970779 -1.9098094e-8 231.46531)" d="m162.53675 5.5680001c72.64865 0 83.03125 10.356615 83.03125 82.937505v58.125005c0 72.58059-10.3826 82.9375-83.03125 82.9375h-73.937496c-72.648654 0-83.031254-10.35691-83.031254-82.9375v-58.125005c0-72.58089 10.3826-82.937505 83.031254-82.937505z" style="filter:url(#filter939);opacity:.2"/>
  <path d="m43.837429 232.42763c19.593907 0 22.394176 2.79326 22.394176 22.36889v15.67677c0 19.57555-2.800269 22.36889-22.394176 22.36889h-19.941519c-19.593909 0-22.394177-2.79334-22.394177-22.36889v-15.67677c0-19.57563 2.8002682-22.36889 22.394177-22.36889z" style="fill:none;opacity:.1;stroke-linecap:round;stroke-linejoin:round;stroke-width:1.0788311;stroke:#000000"/>
  <path transform="matrix(.26970779 0 0 .26970779 -1.9098094e-8 231.46531)" d="m162.53675 3.5680001c72.64865 0 83.03125 10.356615 83.03125 82.937505v58.125005c0 72.58059-10.3826 82.9375-83.03125 82.9375h-73.937496c-72.648654 0-83.031254-10.35691-83.031254-82.9375v-58.125005c0-72.58089 10.3826-82.937505 83.031254-82.937505z" style="filter:url(#filter4569);opacity:.1"/>
  <path d="m43.837427 232.42763c19.593907 0 22.394175 2.79326 22.394175 22.36889v15.67677c0 19.57555-2.800268 22.36889-22.394175 22.36889h-19.94152c-19.593907 0-22.394176-2.79334-22.394176-22.36889v-15.67677c0-19.57563 2.8002682-22.36889 22.394176-22.36889z" style="fill:#343434"/>
  <path transform="matrix(.1348539 0 0 .1348539 -4.9712559 261.01666)" d="M 361.9375,-212 C 507.2348,-212 528,-191.28677 528,-46.125 V 70.125 C 528,215.28618 507.2348,236 361.9375,236 H 214.0625 C 68.7652,236 48,215.28618 48,70.125 V -46.125 C 48,-191.28677 68.7652,-212 214.0625,-212 Z" clip-path="url(#clipPath1082-3-361)" style="fill:none;opacity:.4;stroke-linecap:round;stroke-linejoin:round;stroke-width:8;stroke:url(#linearGradient1108)"/>
  <path d="m42.017763 237.94046c16.018018 0 18.307237 2.28349 18.307237 18.28656v12.81576c0 16.00301-2.289219 18.28657-18.307237 18.28657h-16.302192c-16.018018 0-18.307238-2.28356-18.307238-18.28657v-12.81576c0-16.00307 2.2892194-18.28656 18.307238-18.28656z" style="fill-opacity:0;opacity:.2;stroke-linecap:round;stroke-linejoin:round;stroke-width:.44097218;stroke:#ffffff"/>
  <path d="m41.748304 238.7568c15.488498 0 17.70204 2.20801 17.70204 17.68205v12.39211c0 15.47398-2.213542 17.68205-17.70204 17.68205h-15.763276c-15.488497 0-17.702039-2.20807-17.702039-17.68205v-12.39211c0-15.47404 2.213542-17.68205 17.702039-17.68205z" style="fill-opacity:0;opacity:.05;stroke-linecap:round;stroke-linejoin:round;stroke-width:.42639458;stroke:#ffffff"/>
  <path d="m31.75 307.05416v0.52917" style="fill:none;filter:url(#filter1762);stroke-width:.26458333;stroke:#000000"/>
  <path d="m31.75 313.00728v0.52917" style="fill:none;filter:url(#filter1750);stroke-width:.26458333;stroke:#000000"/>
  <path d="m46.037509 307.05416v0.52917" style="fill:none;filter:url(#filter1758);stroke-width:.26458332;stroke:#000000"/>
  <path d="m46.037509 313.00728v0.52917" style="fill:none;filter:url(#filter1754);stroke-width:.26458332;stroke:#000000"/>
  <g transform="translate(.79379215 -1.0724736)">
   <path d="m23.102158 293.91454c-19.593907 0-22.394175-2.79326-22.394175-22.36889v-7.83838h64.729871v7.83838c0 19.57563-2.800268 22.36889-22.394175 22.36889z" style="fill:#ffffff;opacity:.1"/>
   <path d="m33.072917 233.49999v60.41455h9.970762c19.593907 0 22.394175-2.79334 22.394175-22.36889v-15.67677c0-19.57563-2.800268-22.36889-22.394175-22.36889z" style="fill:#ffffff;opacity:.1"/>
  </g>
  <g transform="translate(.91770723 1.3099423)" style="filter:url(#filter1947);opacity:.3">
   <circle cx="17.202" cy="250.478" r="4.097"/>
   <rect x="25.14" y="246.13" width="27.657" height="8.536" rx="4.097" ry="4.097"/>
   <circle cx="17.202" cy="261.405" r="4.097"/>
   <rect x="25.14" y="257.06" width="27.657" height="8.536" rx="4.097" ry="4.097"/>
   <circle cx="17.202" cy="272.331" r="4.097"/>
   <rect x="25.14" y="267.98" width="27.657" height="8.536" rx="4.097" ry="4.097"/>
  </g>
  <g transform="translate(.91770723 1.3099423)">
   <circle cx="17.202" cy="250.478" r="4.097" style="fill:#ffffff"/>
   <rect x="25.14" y="246.13" width="27.657" height="8.536" rx="4.097" ry="4.097" style="fill:#ffffff"/>
   <circle cx="17.202" cy="261.405" r="4.097" style="fill:#ffffff"/>
   <rect x="25.14" y="257.06" width="27.657" height="8.536" rx="4.097" ry="4.097" style="fill:#ffffff"/>
   <circle cx="17.202" cy="272.331" r="4.097" style="fill:#f66a08"/>
   <rect x="25.14" y="267.98" width="27.657" height="8.536" rx="4.097" ry="4.097" style="fill:#f66a08"/>
  </g>
 </g>
</svg>
