<svg xmlns="http://www.w3.org/2000/svg" xmlns:xlink="http://www.w3.org/1999/xlink" width="256" height="256" version="1.1" viewBox="0 0 256 256">
 <defs>
  <linearGradient id="linearGradient1108" x1="296" x2="296" y1="-212" y2="236" gradientUnits="userSpaceOnUse" xlink:href="#linearGradient1013"/>
  <linearGradient id="linearGradient1013">
   <stop style="stop-color:#ffffff" offset="0"/>
   <stop offset=".125" style="stop-color:#ffffff;stop-opacity:0.09803922"/>
   <stop offset=".925" style="stop-color:#000000;stop-opacity:0.09803922"/>
   <stop style="stop-color:#000000;stop-opacity:0.49803922" offset="1"/>
  </linearGradient>
  <clipPath id="clipPath1082-3-361" clipPathUnits="userSpaceOnUse">
   <path style="fill:#8c59d9" d="M 361.9375,-212 C 507.2348,-212 528,-191.28677 528,-46.125 V 70.125 C 528,215.28618 507.2348,236 361.9375,236 H 214.0625 C 68.7652,236 48,215.28618 48,70.125 V -46.125 C 48,-191.28677 68.7652,-212 214.0625,-212 Z"/>
  </clipPath>
  <filter id="filter4569" width="1.023" height="1.025" x="-.01" y="-.01" style="color-interpolation-filters:sRGB">
   <feGaussianBlur stdDeviation="1.16"/>
  </filter>
  <filter id="filter939" width="1.046" height="1.05" x="-.02" y="-.03" style="color-interpolation-filters:sRGB">
   <feGaussianBlur stdDeviation="2.32"/>
  </filter>
  <filter id="filter901" width="1.102" height="1.091" x="-.05" y="-.04" style="color-interpolation-filters:sRGB">
   <feGaussianBlur stdDeviation="3.017"/>
  </filter>
 </defs>
 <path d="m 162.53675,5.5680001 c 72.64865,0 83.03125,10.3566149 83.03125,82.9375049 v 58.125005 c 0,72.58059 -10.3826,82.9375 -83.03125,82.9375 H 88.599254 C 15.9506,229.56801 5.568,219.2111 5.568,146.63051 V 88.505505 c 0,-72.58089 10.3826,-82.9375049 83.031254,-82.9375049 z" transform="matrix(1.019368,0,0,1.019368,-7.2181772e-8,8.3098661)" style="opacity:0.2;filter:url(#filter939)"/>
 <path style="opacity:0.1;fill:none;stroke:#000000;stroke-width:4.07747173;stroke-linecap:round;stroke-linejoin:round" d="m 165.68477,11.946967 c 74.05571,0 84.6394,10.557203 84.6394,84.543835 v 59.250778 c 0,73.98633 -10.58369,84.54383 -84.6394,84.54383 H 90.315249 c -74.055717,0 -84.6394076,-10.5575 -84.6394076,-84.54383 V 96.490802 c 0,-73.986632 10.5836906,-84.543835 84.6394076,-84.543835 z"/>
 <path style="opacity:0.1;filter:url(#filter4569)" d="m 162.53675,3.5680001 c 72.64865,0 83.03125,10.3566149 83.03125,82.9375049 v 58.125005 c 0,72.58059 -10.3826,82.9375 -83.03125,82.9375 H 88.599254 C 15.9506,227.56801 5.568,217.2111 5.568,144.63051 V 86.505505 c 0,-72.58089 10.3826,-82.9375049 83.031254,-82.9375049 z" transform="matrix(1.019368,0,0,1.019368,-7.2181772e-8,8.3098661)"/>
 <path d="m 165.68476,11.946967 c 74.05571,0 84.6394,10.557203 84.6394,84.543835 v 59.250778 c 0,73.98633 -10.58369,84.54383 -84.6394,84.54383 H 90.315238 c -74.055712,0 -84.6394026,-10.5575 -84.6394026,-84.54383 V 96.490802 c 0,-73.986632 10.5836906,-84.543835 84.6394026,-84.543835 z" style="fill:#bebebe"/>
 <path style="opacity:0.4;fill:none;stroke:url(#linearGradient1108);stroke-width:8;stroke-linecap:round;stroke-linejoin:round" d="M 361.9375,-212 C 507.2348,-212 528,-191.28677 528,-46.125 V 70.125 C 528,215.28618 507.2348,236 361.9375,236 H 214.0625 C 68.7652,236 48,215.28618 48,70.125 V -46.125 C 48,-191.28677 68.7652,-212 214.0625,-212 Z" clip-path="url(#clipPath1082-3-361)" transform="matrix(0.50968403,0,0,0.50968403,-18.788999,120)"/>
 <g transform="matrix(2.9101588,0,0,2.9101588,-181.89205,-224.99846)">
  <path style="opacity:0.3;filter:url(#filter901)" d="m 84.068359,46.115234 -8.935547,8.935547 1.128907,1.128907 C 63.969516,70.633467 57.17549,88.979726 57.140625,107.97852 c 0,42.55402 33.144672,77.35961 75.025395,80.02734 v 2.66016 c -24.03509,0.64501 -46.566411,5.79209 -46.566411,15.44921 h 51.740231 51.74219 c 0,-9.65712 -22.53132,-14.8042 -46.56641,-15.44921 v -2.68164 c 17.14286,-1.1273 33.50688,-7.72838 46.6543,-18.89649 l 0.75391,0.75391 8.93555,-8.93555 -17.55274,-17.55273 A 56.755301,56.755311 0 0 0 193.75,107.97852 56.755301,56.755311 0 0 0 136.99609,51.222656 56.755301,56.755311 0 0 0 101.58594,63.632812 Z m 1.546875,19.417969 7.06836,7.068359 a 56.755301,56.755311 0 0 0 -12.44336,35.376958 56.755301,56.755311 0 0 0 56.755856,56.75586 56.755301,56.755311 0 0 0 35.40821,-12.41211 l 7.34179,7.34179 c -11.94172,9.8228 -26.91995,15.22838 -42.40625,15.25391 -36.97023,0 -66.939449,-29.96921 -66.939449,-66.93945 0.0026,-15.495019 5.397551,-30.487733 15.214843,-42.445317 z" transform="matrix(0.37418386,0,0,0.37418386,54.936367,72.7024)"/>
  <path d="m 86.39339,89.957976 -3.343538,3.343538 0.422419,0.422418 c -4.599544,5.408371 -7.141759,12.273248 -7.154805,19.382288 0,15.92303 12.402202,28.94672 28.073294,29.94494 v 0.99539 c -8.993545,0.24135 -17.424401,2.1673 -17.424401,5.78084 h 19.360361 19.36109 c 0,-3.61354 -8.43086,-5.53949 -17.4244,-5.78084 v -1.00343 c 6.41458,-0.42182 12.53773,-2.89184 17.45728,-7.07076 l 0.28211,0.2821 3.34353,-3.34354 -6.56795,-6.56795 a 21.236918,21.236921 0 0 0 4.65611,-13.23675 21.236918,21.236921 0 0 0 -21.2364,-21.237129 21.236918,21.236921 0 0 0 -13.249904,4.64368 z m 0.578815,7.265891 2.644867,2.644866 a 21.236918,21.236921 0 0 0 -4.656105,13.237487 21.236918,21.236921 0 0 0 21.237123,21.23713 21.236918,21.236921 0 0 0 13.24918,-4.64442 l 2.74718,2.74718 c -4.4684,3.67554 -10.07301,5.69822 -15.86773,5.70777 -13.833665,0 -25.047663,-11.21399 -25.047663,-25.04766 9.75e-4,-5.79799 2.019676,-11.40802 5.693148,-15.882353 z" style="fill:#e77936"/>
  <path d="m 114.50655,103.98926 c 0,0 -3.24925,-3.15097 -8.81079,-3.15755 -5.56153,-0.007 -11.131013,6.70069 -11.137743,12.3655 -0.007,5.6648 3.238575,12.17269 11.843203,12.18287 8.60465,0.009 12.5975,-4.49595 11.14085,-14.98806 l -10.6024,3.34438 1.99129,2.10041 1.25961,-0.3132 c 0,0 2.09558,2.62508 -1.05296,3.04097 -3.14853,0.41587 -5.9808,-0.4267 -6.39579,-4.41355 -0.41503,-3.98685 2.73638,-6.81552 6.40723,-5.23763 z" style="fill:#ffffff;fill-rule:evenodd"/>
 </g>
 <path d="M 127.69157,11.946967 V 240.28541 h 37.77978 c 74.24243,0 84.85281,-10.5575 84.85281,-84.54383 V 96.490802 c 0,-73.986632 -10.61038,-84.543835 -84.85281,-84.543835 z" style="opacity:0.1;fill:#ffffff"/>
 <path d="m 90.315238,240.28541 c -74.055712,0 -84.6394026,-10.5572 -84.6394026,-84.54383 V 126.11621 H 250.32416 v 29.62537 c 0,73.98663 -10.58369,84.54383 -84.6394,84.54383 z" style="opacity:0.1;fill:#ffffff"/>
</svg>
