<svg width="256" height="256" version="1.1" viewBox="0 0 67.73 67.73" xmlns="http://www.w3.org/2000/svg" xmlns:xlink="http://www.w3.org/1999/xlink">
 <defs>
  <linearGradient id="linearGradient1108" x1="296" x2="296" y1="-212" y2="236" gradientUnits="userSpaceOnUse">
   <stop style="stop-color:#ffffff" offset="0"/>
   <stop style="stop-color:#ffffff;stop-opacity:.09803922" offset=".125"/>
   <stop style="stop-color:#000000;stop-opacity:.09803922" offset=".925"/>
   <stop style="stop-color:#000000;stop-opacity:.49803922" offset="1"/>
  </linearGradient>
  <clipPath id="clipPath1082-3-361">
   <path d="M 361.9375,-212 C 507.2348,-212 528,-191.28677 528,-46.125 V 70.125 C 528,215.28618 507.2348,236 361.9375,236 H 214.0625 C 68.7652,236 48,215.28618 48,70.125 V -46.125 C 48,-191.28677 68.7652,-212 214.0625,-212 Z" style="fill:#8c59d9"/>
  </clipPath>
  <filter id="filter4569" x="-.01" y="-.01" width="1.023" height="1.025" style="color-interpolation-filters:sRGB">
   <feGaussianBlur stdDeviation="1.16"/>
  </filter>
  <filter id="filter939" x="-.02" y="-.03" width="1.046" height="1.05" style="color-interpolation-filters:sRGB">
   <feGaussianBlur stdDeviation="2.32"/>
  </filter>
  <filter id="filter8559" x="-.04" y="-.05" width="1.088" height="1.106" style="color-interpolation-filters:sRGB">
   <feGaussianBlur stdDeviation=".873"/>
  </filter>
 </defs>
 <g transform="translate(0,-229.26666)">
  <path transform="matrix(.26970779 0 0 .26970779 -1.9098094e-8 231.46531)" d="m162.53675 5.5680001c72.64865 0 83.03125 10.356615 83.03125 82.937505v58.125005c0 72.58059-10.3826 82.9375-83.03125 82.9375h-73.937496c-72.648654 0-83.031254-10.35691-83.031254-82.9375v-58.125005c0-72.58089 10.3826-82.937505 83.031254-82.937505z" style="filter:url(#filter939);opacity:.2"/>
  <path d="m43.837429 232.42763c19.593907 0 22.394176 2.79326 22.394176 22.36889v15.67677c0 19.57555-2.800269 22.36889-22.394176 22.36889h-19.941519c-19.593909 0-22.394177-2.79334-22.394177-22.36889v-15.67677c0-19.57563 2.8002682-22.36889 22.394177-22.36889z" style="fill:none;opacity:.1;stroke-linecap:round;stroke-linejoin:round;stroke-width:1.0788311;stroke:#000000"/>
  <path transform="matrix(.26970779 0 0 .26970779 -1.9098094e-8 231.46531)" d="m162.53675 3.5680001c72.64865 0 83.03125 10.356615 83.03125 82.937505v58.125005c0 72.58059-10.3826 82.9375-83.03125 82.9375h-73.937496c-72.648654 0-83.031254-10.35691-83.031254-82.9375v-58.125005c0-72.58089 10.3826-82.937505 83.031254-82.937505z" style="filter:url(#filter4569);opacity:.1"/>
  <path d="m43.837427 232.42763c19.593907 0 22.394175 2.79326 22.394175 22.36889v15.67677c0 19.57555-2.800268 22.36889-22.394175 22.36889h-19.94152c-19.593907 0-22.394176-2.79334-22.394176-22.36889v-15.67677c0-19.57563 2.8002682-22.36889 22.394176-22.36889z" style="fill:#d32727"/>
  <path transform="matrix(.1348539 0 0 .1348539 -4.9712559 261.01666)" d="M 361.9375,-212 C 507.2348,-212 528,-191.28677 528,-46.125 V 70.125 C 528,215.28618 507.2348,236 361.9375,236 H 214.0625 C 68.7652,236 48,215.28618 48,70.125 V -46.125 C 48,-191.28677 68.7652,-212 214.0625,-212 Z" clip-path="url(#clipPath1082-3-361)" style="fill:none;opacity:.4;stroke-linecap:round;stroke-linejoin:round;stroke-width:8;stroke:url(#linearGradient1108)"/>
  <path d="m33.866666 232.42763v60.41455h9.970761c19.593907 0 22.394175-2.79334 22.394175-22.36889v-15.67677c0-19.57563-2.800268-22.36889-22.394175-22.36889z" style="fill:#ffffff;opacity:.1"/>
  <path d="m23.895907 292.84218c-19.593907 0-22.394176-2.79326-22.394176-22.36889v-7.83838h64.729871v7.83838c0 19.57563-2.800268 22.36889-22.394175 22.36889z" style="fill:#ffffff;opacity:.1"/>
  <path d="m10.055215 263.36227c0-12.03146 6.221916-18.5906 9.862197-18.5906 3.64048 0 4.02944 1.85488 4.02944 4.80801 0 5.73241-6.945685 3.67614-6.945685 14.43386 0 3.5631 1.965187 7.54861 6.02869 7.54861 3.26028 0 4.459418-3.4666 6.112379-10.42176 2.742364-10.45608 5.518464-18.34924 14.886561-18.34924 9.102193 0 13.650315 7.65859 13.650315 19.69068 0 12.03166-7.047008 19.98797-10.687488 19.98797-3.640282 0-5.184445-1.45219-5.184445-4.40544 0-5.73236 8.259587-4.81086 8.259587-15.56842 0-3.56306-1.56152-8.81087-5.624828-8.81087-3.260282 0-4.41259 0.22839-6.412414 7.85303-1.08742 8.14573-3.675009 20.94055-13.574906 20.94055-9.101597 0-14.400397-7.08409-14.400397-19.11518z" style="fill:#280404;filter:url(#filter8559);opacity:.3"/>
  <path d="m10.055215 263.36227c0-12.03146 6.221916-18.5906 9.862197-18.5906 3.64048 0 4.02944 1.85488 4.02944 4.80801 0 5.73241-6.945685 3.67614-6.945685 14.43386 0 3.5631 1.965187 7.54861 6.02869 7.54861 3.26028 0 4.459418-3.4666 6.112379-10.42176 2.742364-10.45608 5.518464-18.34924 14.886561-18.34924 9.102193 0 13.650315 7.65859 13.650315 19.69068 0 12.03166-7.047008 19.98797-10.687488 19.98797-3.640282 0-5.184445-1.45219-5.184445-4.40544 0-5.73236 8.259587-4.81086 8.259587-15.56842 0-3.56306-1.56152-8.81087-5.624828-8.81087-3.260282 0-4.41259 0.22839-6.412414 7.85303-1.08742 8.14573-3.675009 20.94055-13.574906 20.94055-9.101597 0-14.400397-7.08409-14.400397-19.11518z" style="fill:#ffffff"/>
 </g>
</svg>
