<svg xmlns="http://www.w3.org/2000/svg" xmlns:xlink="http://www.w3.org/1999/xlink" width="256" height="256" version="1.0" style="enable-background:new">
 <defs>
  <filter style="color-interpolation-filters:sRGB" id="filter925" width="1.046" height="1.05" x="-.02" y="-.03">
   <feGaussianBlur stdDeviation="2.32"/>
  </filter>
  <filter style="color-interpolation-filters:sRGB" id="filter931" width="1.023" height="1.025" x="-.01" y="-.01">
   <feGaussianBlur stdDeviation="1.16"/>
  </filter>
  <linearGradient id="linearGradient1108" x1="296" x2="296" y1="-212" y2="236" gradientUnits="userSpaceOnUse" xlink:href="#linearGradient1013"/>
  <linearGradient id="linearGradient1013">
   <stop offset="0" style="stop-color:#ffffff"/>
   <stop style="stop-color:#ffffff;stop-opacity:0.09803922" offset=".125"/>
   <stop style="stop-color:#000000;stop-opacity:0.09803922" offset=".925"/>
   <stop offset="1" style="stop-color:#000000;stop-opacity:0.49803922"/>
  </linearGradient>
  <clipPath id="clipPath1082-3" clipPathUnits="userSpaceOnUse">
   <path d="M 361.9375,-212 C 507.2348,-212 528,-191.28677 528,-46.125 V 70.125 C 528,215.28618 507.2348,236 361.9375,236 H 214.0625 C 68.7652,236 48,215.28618 48,70.125 V -46.125 C 48,-191.28677 68.7652,-212 214.0625,-212 Z" style="fill:#8c59d9"/>
  </clipPath>
 </defs>
 <g transform="translate(0,-44)">
  <g>
   <g>
    <path d="m 162.53675,62.431991 c 72.64865,0 83.03125,10.356615 83.03125,82.937499 v 58.125 c 0,72.58059 -10.3826,82.9375 -83.03125,82.9375 h -73.9375 c -72.64865,0 -83.0312501,-10.35691 -83.0312501,-82.9375 v -58.125 c 0,-72.580884 10.3826001,-82.937499 83.0312501,-82.937499 z" style="opacity:0.2;filter:url(#filter925)"/>
    <path style="opacity:0.1;filter:url(#filter931)" d="m 162.53675,61.431991 c 72.64865,0 83.03125,10.356615 83.03125,82.937499 v 58.125 c 0,72.58059 -10.3826,82.9375 -83.03125,82.9375 h -73.9375 c -72.64865,0 -83.0312501,-10.35691 -83.0312501,-82.9375 v -58.125 c 0,-72.580884 10.3826001,-82.937499 83.0312501,-82.937499 z"/>
   </g>
   <g>
    <path style="fill:#335a9e" d="m 162.53675,60.431991 c 72.64865,0 83.03125,10.356615 83.03125,82.937499 v 58.125 c 0,72.58059 -10.3826,82.9375 -83.03125,82.9375 h -73.9375 c -72.64865,0 -83.0312501,-10.35691 -83.0312501,-82.9375 v -58.125 c 0,-72.580884 10.3826001,-82.937499 83.0312501,-82.937499 z"/>
    <path d="m 5.5679999,147.51741 v 53.97798 c 0,9.07256 0.1624259,17.17297 0.5882176,24.40235 0.2128959,3.61469 0.4914468,7.0109 0.8487975,10.20279 0.357341,3.19188 0.7930011,6.1783 1.3201348,8.97269 0.527124,2.79441 1.1458688,5.39702 1.8681142,7.81926 0.722235,2.42224 1.548127,4.66512 2.490812,6.74054 0.942694,2.07541 2.00169,3.98264 3.190171,5.73655 1.188471,1.7539 2.506556,3.35339 3.966143,4.8111 1.459596,1.45773 3.060823,2.77354 4.816863,3.96041 1.75604,1.18687 3.666394,2.245 5.744215,3.18633 2.077822,0.94134 4.323258,1.76585 6.748199,2.48699 2.424951,0.72113 5.029534,1.33994 7.826922,1.8662 2.797399,0.52626 5.787103,0.96152 8.982287,1.31822 3.195174,0.3567 6.595975,0.6344 10.214273,0.84688 7.236595,0.42495 15.344275,0.5863 24.425353,0.5863 h 73.939008 c 9.08107,0 17.18875,-0.16135 24.42534,-0.5863 3.6183,-0.21248 7.0191,-0.49018 10.21427,-0.84688 3.1952,-0.3567 6.1849,-0.79196 8.98229,-1.31822 2.7974,-0.52626 5.40198,-1.14507 7.82692,-1.8662 2.42494,-0.72114 4.67038,-1.54565 6.74821,-2.48699 2.07782,-0.94133 3.98817,-1.99946 5.7442,-3.18633 1.75605,-1.18687 3.35727,-2.50268 4.81687,-3.96041 1.45959,-1.45771 2.77768,-3.0572 3.96614,-4.8111 1.18847,-1.75391 2.24748,-3.66114 3.19016,-5.73655 0.9427,-2.07542 1.76858,-4.3183 2.49084,-6.74054 0.72224,-2.42224 1.34099,-5.02485 1.8681,-7.81926 0.52713,-2.79439 0.96279,-5.78081 1.32014,-8.97269 0.35735,-3.19189 0.6359,-6.5881 0.84879,-10.20279 0.42579,-7.22938 0.58822,-15.32979 0.58822,-24.40235 v -53.50854 c -18.04141,-26.01277 -64.64771,-9.66439 -119.77774,-9.66439 -54.803247,0 -101.711994,-16.16405 -120.2222601,9.19495 z" style="fill:#4882e3"/>
    <path d="m 5.5680146,157.97094 v 24.65145 c 6.4014524,-0.55892 15.4088104,-0.0809 28.6846504,3.09627 36.514339,8.73831 88.167155,3.8236 117.503435,-5.22689 29.33638,-9.05065 59.14804,-12.56212 76.31294,-13.49832 6.74433,-0.36795 12.62208,1.53783 17.49896,3.92592 v -21.71228 c -20.00387,5.44991 -55.94668,15.35399 -84.6476,16.62334 -53.40538,-2.73416 -93.758677,-36.19815 -155.3523854,-7.85949 z" style="fill:#7767c0"/>
    <path d="m 161.69065,175.24573 c -6.50093,-0.77424 -13.32928,-0.70882 -20.42473,0.78939 6.20603,0.13867 13.1659,-0.21267 20.42473,-0.78939 z" style="fill:#595afd"/>
    <path d="m 245.37065,194.68178 c 0.0404,-2.83007 0.19735,-5.14565 0.19735,-8.19096 v -22.79483 c -27.18859,3.93177 -57.91734,9.4903 -83.87735,11.54974 17.71696,2.11254 32.9412,10.47517 44.14497,13.17643 19.21737,4.63342 31.4949,6.19316 39.53503,6.25962 z" style="fill:#595afd"/>
    <path d="m 5.5680146,160.09006 v 24.92351 c 7.0883234,0.65885 17.3182914,2.70937 32.3538204,6.30752 35.644833,8.53049 69.479375,-5.10957 98.117205,-13.94476 1.75308,-0.54047 3.50331,-0.97748 5.22688,-1.34121 -0.0189,-5.1e-4 -0.0709,3.4e-4 -0.09,0 C 94.21261,164.35747 73.869615,161.87251 5.5680146,160.09006 Z" style="fill:#595afd"/>
    <path d="m 5.5680146,153.07743 v 21.82341 c 4.6409294,-2.1614 10.0977934,-3.8205 16.3148664,-3.4814 17.16484,0.93539 62.406299,33.55398 91.742609,42.6045 29.33624,9.05064 65.5594,-21.35443 102.07376,-30.09292 13.35534,-3.19615 23.0356,-2.79632 29.86875,-1.13237 v -20.48794 c -3.59479,0.26858 -7.48458,0.82942 -11.44817,2.14593 -13.10772,4.36929 -55.54786,14.85652 -87.39327,13.98117 -40.8553,-2.66025 -72.785954,-34.76315 -112.473885,-34.51318 l -0.01726,-0.002 c -9.01655,0.0551 -18.635728,4.44838 -28.667415,9.15471 z" style="opacity:0.2"/>
    <path d="m 5.5680146,148.49241 v 21.82342 c 4.6409294,-2.16144 10.0977844,-3.82239 16.3148664,-3.48333 17.16484,0.93705 62.406299,33.55401 91.742609,42.6045 29.33624,9.05057 65.5594,-21.35244 102.07376,-30.09101 13.3553,-3.1961 23.0356,-2.7976 29.86875,-1.13428 v -20.48985 c -3.59479,0.26858 -7.48458,0.82942 -11.44817,2.14593 -13.10772,4.36925 -55.54786,14.85652 -87.39327,13.98117 -40.8553,-2.66044 -72.785954,-34.76293 -112.473885,-34.51318 h -0.01726 c -9.016638,0.0554 -18.63562,4.45026 -28.667415,9.15663 z" style="fill:#8a72ff"/>
    <g transform="translate(0.031,-2.29411)">
     <g style="enable-background:new" transform="matrix(0.49999997,0,0,0.49999997,36.036946,80.93199)">
      <rect style="opacity:0.1;fill:#ffffff" width="160" height="448" x="99" y="-37"/>
     </g>
     <path style="opacity:0.1;fill:#ffffff" d="m 5.537,174.72613 v 29.06252 c 0,72.58059 10.382598,82.93746 83.031252,82.93746 h 73.937498 c 72.64864,0 83.03125,-10.35687 83.03125,-82.93746 v -29.06252 z"/>
    </g>
    <path d="m 167.57319,87.786335 c -10.64064,-0.527837 -21.05466,5.569068 -27.25196,14.101655 -0.003,0.003 -0.007,0.003 -0.0106,0.0113 -7.39132,10.31738 -11.28818,24.60349 -14.52037,36.42317 -2e-5,0.003 -2e-5,0.003 0,0.0113 -4.46857,16.55087 -12.01429,32.21529 -21.51287,46.52555 -19.68896,29.51779 -45.279878,55.20507 -78.546208,68.17229 -0.21151,0.0809 -0.40505,0.21053 -0.57028,0.36663 l -1.33801,1.24647 c -1.26371,1.18683 -0.28647,3.29977 1.43661,3.10542 23.32783,-2.74071 38.33904,-20.10521 55.546978,-33.89319 13.83287,-1.3551 29.73117,-2.22459 43.10365,-5.79471 0.007,-0.003 0.0136,-0.003 0.0204,-0.0113 18.79349,-5.28326 39.17867,-13.61692 52.00349,-29.45612 12.78415,-15.67787 14.9302,-37.49592 10.25998,-56.39834 -1.58805,-7.55376 -8.10375,-15.29597 -16.35764,-16.92862 -0.22187,-0.78081 -0.43615,-1.55059 -0.65486,-2.33783 1.78975,-1.96095 7.57396,-4.07098 9.34942,-6.64054 1.97297,-2.85531 3.35625,-8.538487 2.34498,-12.452645 -0.0542,-0.206751 -0.14526,-0.401897 -0.26791,-0.577881 -2.17638,-3.139392 -9.45271,-5.462971 -13.03933,-5.46951 z" style="fill:#50ddee"/>
   </g>
   <g>
    <path d="m 361.9375,-212 c 145.2973,0 166.0625,20.71323 166.0625,165.875 v 116.25 c 0,145.16118 -20.7652,165.875 -166.0625,165.875 h -147.875 c -145.2973,0 -166.0625,-20.71382 -166.0625,-165.875 v -116.25 c 0,-145.16177 20.7652,-165.875 166.0625,-165.875 z" clip-path="url(#clipPath1082-3)" transform="matrix(0.5,0,0,0.5,-18.432,166.43199)" style="opacity:0.4;fill:none;stroke:url(#linearGradient1108);stroke-width:8;stroke-linecap:round;stroke-linejoin:round"/>
   </g>
  </g>
 </g>
</svg>
