<svg width="256" height="256" version="1.1" viewBox="0 0 67.73 67.73" xmlns="http://www.w3.org/2000/svg" xmlns:xlink="http://www.w3.org/1999/xlink">
 <defs>
  <filter id="filter927" x="-.06" y="-.07" width="1.111" height="1.13" style="color-interpolation-filters:sRGB">
   <feGaussianBlur stdDeviation="2.6"/>
  </filter>
  <filter id="filter941" x="-.02" y="-.03" width="1.045" height="1.052" style="color-interpolation-filters:sRGB">
   <feGaussianBlur stdDeviation="1.04"/>
  </filter>
  <linearGradient id="linearGradient1108" x1="296" x2="296" y1="-212" y2="236" gradientUnits="userSpaceOnUse">
   <stop style="stop-color:#ffffff" offset="0"/>
   <stop style="stop-color:#ffffff;stop-opacity:.09803922" offset=".125"/>
   <stop style="stop-color:#000000;stop-opacity:.09803922" offset=".925"/>
   <stop style="stop-color:#000000;stop-opacity:.49803922" offset="1"/>
  </linearGradient>
  <clipPath id="clipPath1082-3-3675">
   <path d="M 361.9375,-212 C 507.2348,-212 528,-191.28677 528,-46.125 V 70.125 C 528,215.28618 507.2348,236 361.9375,236 H 214.0625 C 68.7652,236 48,215.28618 48,70.125 V -46.125 C 48,-191.28677 68.7652,-212 214.0625,-212 Z" style="fill:#8c59d9"/>
  </clipPath>
  <linearGradient id="linearGradient933" x1="160" x2="160" y1="28" y2="284" gradientTransform="matrix(.26458333 0 0 .26458333 -6.993468 221.97263)" gradientUnits="userSpaceOnUse">
   <stop style="stop-color:#5884f4" offset="0"/>
   <stop style="stop-color:#80a3fa" offset="1"/>
  </linearGradient>
  <filter id="filter930" x="-.02" y="-.03" width="1.046" height="1.05" style="color-interpolation-filters:sRGB">
   <feGaussianBlur stdDeviation="2.32"/>
  </filter>
  <filter id="filter4569" x="-.01" y="-.01" width="1.023" height="1.025" style="color-interpolation-filters:sRGB">
   <feGaussianBlur stdDeviation="1.16"/>
  </filter>
 </defs>
 <g transform="translate(0,-229.26666)">
  <path transform="matrix(.26458333 0 0 .26458333 -1.8735229e-8 232.67026)" d="m162.53675 3.5680001c72.64865 0 83.03125 10.356615 83.03125 82.937505v58.125005c0 72.58059-10.3826 82.9375-83.03125 82.9375h-73.937496c-72.648654 0-83.031254-10.35691-83.031254-82.9375v-58.125005c0-72.58089 10.3826-82.937505 83.031254-82.937505z" style="filter:url(#filter4569);opacity:.1"/>
  <path transform="matrix(.26458333 0 0 .26458333 -1.8735229e-8 232.67026)" d="m162.53675 5.5680001c72.64865 0 83.03125 10.356615 83.03125 82.937505v58.125005c0 72.58059-10.3826 82.9375-83.03125 82.9375h-73.937496c-72.648654 0-83.031254-10.35691-83.031254-82.9375v-58.125005c0-72.58089 10.3826-82.937505 83.031254-82.937505z" style="filter:url(#filter930);opacity:.2"/>
  <path d="m43.004513 233.61429c19.221622 0 21.968685 2.74019 21.968685 21.94388v15.37891c0 19.20362-2.747063 21.94388-21.968685 21.94388h-19.56263c-19.221622 0-21.968685-2.74026-21.968685-21.94388v-15.37891c0-19.20369 2.747063-21.94388 21.968685-21.94388z" style="fill:url(#linearGradient933)"/>
  <path transform="matrix(.13229167 0 0 .13229167 -4.876802 261.66013)" d="M 361.9375,-212 C 507.2348,-212 528,-191.28677 528,-46.125 V 70.125 C 528,215.28618 507.2348,236 361.9375,236 H 214.0625 C 68.7652,236 48,215.28618 48,70.125 V -46.125 C 48,-191.28677 68.7652,-212 214.0625,-212 Z" clip-path="url(#clipPath1082-3-3675)" style="fill:none;opacity:.5;stroke-linecap:round;stroke-linejoin:round;stroke-width:8;stroke:url(#linearGradient1108)"/>
  <path transform="matrix(.26458333 0 0 .26458333 -1.8735229e-8 232.67026)" d="m194.71786 93.570135c4.23134-0.0532 7.07155 0.89696 8.53084 2.64832 1.53216 1.82431 2.32023 4.816665 2.32023 8.976165v72.74891c0 4.15961-0.78807 7.15179-2.32023 8.97615-1.45929 1.75144-4.29916 2.64833-8.53084 2.64833h-90.2997c-4.23168 0-7.079426-0.89689-8.538716-2.64833-1.53216-1.82437-2.31239-4.81655-2.31239-8.97616v-72.7489c0-4.1595 0.78023-7.151855 2.31239-8.976165 1.4592-1.75136 4.307036-2.64832 8.538716-2.64832z" style="filter:url(#filter941);opacity:.05"/>
  <path d="m51.519101 256.89819c1.119542-0.0141 1.871014 0.23732 2.257118 0.7007 0.405384 0.48268 0.613894 1.27441 0.613894 2.37495v19.24815c0 1.10056-0.20851 1.89224-0.613894 2.37494-0.386104 0.4634-1.137486 0.7007-2.257118 0.7007h-23.891796c-1.119632 0-1.873098-0.2373-2.259202-0.7007-0.405384-0.4827-0.61182-1.27438-0.61182-2.37495v-19.24814c0-1.10054 0.206436-1.89227 0.61182-2.37495 0.38608-0.46338 1.13957-0.7007 2.259202-0.7007z" style="fill:#a2bcfe"/>
  <path transform="matrix(.26458333 0 0 .26458333 -1.8735229e-8 232.67026)" d="m146.71786 45.57013c4.23134-0.05324 7.07155 0.896961 8.53084 2.648322 1.53216 1.824317 2.32023 4.816665 2.32023 8.976166v72.748912c0 4.15961-0.78807 7.15179-2.32023 8.97615-1.45929 1.75144-4.29916 2.64833-8.53084 2.64833h-90.299701c-4.23167 0-7.07942-0.89689-8.53871-2.64833-1.53217-1.82437-2.3124-4.81655-2.3124-8.97616v-72.748902c0-4.159501 0.78023-7.151849 2.3124-8.976166 1.45919-1.751361 4.30704-2.648322 8.53871-2.648322z" style="filter:url(#filter927);opacity:.1"/>
  <path d="m38.819101 244.19819c1.119542-0.0141 1.871014 0.23732 2.257118 0.7007 0.405384 0.48269 0.613894 1.27441 0.613894 2.37495v19.24815c0 1.10056-0.20851 1.89224-0.613894 2.37494-0.386104 0.4634-1.137486 0.7007-2.257118 0.7007h-23.891796c-1.11963 0-1.873097-0.2373-2.259201-0.7007-0.405386-0.4827-0.611822-1.27438-0.611822-2.37495v-19.24814c0-1.10054 0.206436-1.89226 0.611822-2.37495 0.386078-0.46338 1.139571-0.7007 2.259201-0.7007z" style="fill:#ffffff"/>
 </g>
</svg>
