<svg xmlns="http://www.w3.org/2000/svg" xmlns:xlink="http://www.w3.org/1999/xlink" width="256" height="256" version="1.1" viewBox="0 0 67.73 67.73">
 <defs>
  <linearGradient id="linearGradient1108" x1="296" x2="296" y1="-212" y2="236" gradientUnits="userSpaceOnUse" xlink:href="#linearGradient1013"/>
  <linearGradient id="linearGradient1013">
   <stop offset="0" style="stop-color:#ffffff"/>
   <stop style="stop-color:#ffffff;stop-opacity:0.09803922" offset=".125"/>
   <stop style="stop-color:#000000;stop-opacity:0.09803922" offset=".925"/>
   <stop offset="1" style="stop-color:#000000;stop-opacity:0.49803922"/>
  </linearGradient>
  <clipPath id="clipPath1082-3-361" clipPathUnits="userSpaceOnUse">
   <path d="M 361.9375,-212 C 507.2348,-212 528,-191.28677 528,-46.125 V 70.125 C 528,215.28618 507.2348,236 361.9375,236 H 214.0625 C 68.7652,236 48,215.28618 48,70.125 V -46.125 C 48,-191.28677 68.7652,-212 214.0625,-212 Z" style="fill:#8c59d9"/>
  </clipPath>
  <filter style="color-interpolation-filters:sRGB" id="filter4569" width="1.023" height="1.025" x="-.01" y="-.01">
   <feGaussianBlur stdDeviation="1.16"/>
  </filter>
  <filter style="color-interpolation-filters:sRGB" id="filter939" width="1.046" height="1.05" x="-.02" y="-.03">
   <feGaussianBlur stdDeviation="2.32"/>
  </filter>
  <filter style="color-interpolation-filters:sRGB" id="filter905" width="1.102" height="1.091" x="-.05" y="-.04">
   <feGaussianBlur stdDeviation=".901"/>
  </filter>
 </defs>
 <g transform="translate(0,-229.26666)">
  <path style="opacity:0.2;filter:url(#filter939)" d="m 162.53675,5.5680001 c 72.64865,0 83.03125,10.3566149 83.03125,82.9375049 v 58.125005 c 0,72.58059 -10.3826,82.9375 -83.03125,82.9375 H 88.599254 C 15.9506,229.56801 5.568,219.2111 5.568,146.63051 V 88.505505 c 0,-72.58089 10.3826,-82.9375049 83.031254,-82.9375049 z" transform="matrix(0.26970779,0,0,0.26970779,-1.9098094e-8,231.46531)"/>
  <path d="m 43.837429,232.42763 c 19.593907,0 22.394176,2.79326 22.394176,22.36889 v 15.67677 c 0,19.57555 -2.800269,22.36889 -22.394176,22.36889 H 23.89591 c -19.5939088,0 -22.394177,-2.79334 -22.394177,-22.36889 v -15.67677 c 0,-19.57563 2.8002682,-22.36889 22.394177,-22.36889 z" style="opacity:0.1;fill:none;stroke:#000000;stroke-width:1.07883108;stroke-linecap:round;stroke-linejoin:round"/>
  <path d="m 162.53675,3.5680001 c 72.64865,0 83.03125,10.3566149 83.03125,82.9375049 v 58.125005 c 0,72.58059 -10.3826,82.9375 -83.03125,82.9375 H 88.599254 C 15.9506,227.56801 5.568,217.2111 5.568,144.63051 V 86.505505 c 0,-72.58089 10.3826,-82.9375049 83.031254,-82.9375049 z" transform="matrix(0.26970779,0,0,0.26970779,-1.9098094e-8,231.46531)" style="opacity:0.1;filter:url(#filter4569)"/>
  <path style="fill:#37a0f2" d="m 43.837427,232.42763 c 19.593907,0 22.394175,2.79326 22.394175,22.36889 v 15.67677 c 0,19.57555 -2.800268,22.36889 -22.394175,22.36889 h -19.94152 c -19.5939074,0 -22.3941756,-2.79334 -22.3941756,-22.36889 v -15.67677 c 0,-19.57563 2.8002682,-22.36889 22.3941756,-22.36889 z"/>
  <path d="M 361.9375,-212 C 507.2348,-212 528,-191.28677 528,-46.125 V 70.125 C 528,215.28618 507.2348,236 361.9375,236 H 214.0625 C 68.7652,236 48,215.28618 48,70.125 V -46.125 C 48,-191.28677 68.7652,-212 214.0625,-212 Z" clip-path="url(#clipPath1082-3-361)" transform="matrix(0.1348539,0,0,0.1348539,-4.9712559,261.01666)" style="opacity:0.4;fill:none;stroke:url(#linearGradient1108);stroke-width:8;stroke-linecap:round;stroke-linejoin:round"/>
  <path style="opacity:0.05;fill:#f4f4f4" d="m 52.539371,233.59739 c -8.116362,0.0944 -20.638276,2.36897 -24.552402,7.06996 h -0.0121 c -3.123139,4.5768 -3.517413,22.48767 -2.706351,21.38411 6.646949,-9.09277 22.577148,-20.32299 32.09234,-24.83602 5.137196,-2.44758 1.491381,-3.69182 -4.821346,-3.61805 z M 22.221613,243.8276 c -2.050556,0.35124 -10.282119,6.07091 -8.386713,16.34801 l 0.004,0.003 c 1.799168,5.25048 13.32335,12.23305 12.924454,10.91892 -3.2732,-10.83743 -4.457124,-17.85185 -4.092071,-27.09273 0.0068,-0.17139 -0.156765,-0.22854 -0.449723,-0.17838 z m 22.478006,4.60254 c -5.493166,0.39866 -15.152437,9.82636 -13.795531,9.77233 11.235851,-0.39044 18.253717,0.2556 27.019798,3.0022 1.300504,0.40669 -1.404096,-11.85102 -13.224267,-12.77453 z m -5.943628,9.81286 c -0.285816,0.0155 -0.408835,0.0952 -0.311962,0.23482 6.420777,9.29694 9.687349,15.59109 12.158706,24.50381 0.367004,1.32211 9.112972,-7.62029 3.464075,-18.12663 -2.895758,-3.88251 -13.270379,-6.71694 -15.306761,-6.61216 h -0.0043 z m -29.7505447,1.77054 c -1.0566499,-0.1399 -3.5355455,11.49286 6.3366257,17.40547 5.104355,2.09733 17.905839,-2.0342 16.664037,-2.60515 -10.246442,-4.65546 -16.253322,-8.38369 -22.9074765,-14.75169 -0.030579,-0.0312 -0.059106,-0.0441 -0.093175,-0.0486 z m 33.0971327,5.68027 c -0.06347,-0.0156 -0.108707,0.0155 -0.129635,0.097 -2.844331,10.96359 -5.47038,17.56092 -10.582653,25.24523 -0.763952,1.13381 11.661684,2.03597 15.914494,-9.1241 l 0.0043,0.003 C 48.426978,276.8299 43.05506,265.9438 42.10282,265.69261 Z m -3.123749,7.00513 c -0.02587,-0.008 -0.05506,-0.002 -0.09318,0.0155 -10.144737,4.88995 -16.837016,7.12996 -25.97045,8.13957 -1.348376,0.15649 5.982384,10.30971 17.186685,6.38931 l 0.0121,-0.003 c 4.724462,-2.50146 9.674002,-14.33687 8.868846,-14.54104 h -0.0043 z"/>
  <path style="opacity:0.3;fill:#0d0606;filter:url(#filter905)" d="m 48.534289,239.43766 c -6.655193,0.0774 -16.922816,1.94249 -20.132291,5.79717 h -0.0099 c -2.560887,3.75285 -2.884181,18.43927 -2.219133,17.53438 5.450314,-7.45582 18.512637,-16.66429 26.314832,-20.36486 4.212359,-2.00694 1.222891,-3.02718 -3.95337,-2.96669 z m -24.859724,8.38848 c -1.681399,0.28801 -8.431053,4.97798 -6.876873,13.40492 l 0.0033,0.003 c 1.475267,4.30525 10.924778,10.03076 10.597695,8.95321 -2.683934,-8.88639 -3.654719,-14.63802 -3.355385,-22.21529 0.0056,-0.14053 -0.128544,-0.18739 -0.368761,-0.14626 z m 18.431344,3.77396 c -4.504244,0.32689 -12.42458,8.05734 -11.311955,8.01304 9.213088,-0.32015 14.967545,0.20959 22.155489,2.46173 1.066377,0.33347 -1.15132,-9.71751 -10.843534,-10.47477 z m -4.873611,8.04628 c -0.234361,0.0127 -0.335233,0.0781 -0.2558,0.19254 5.26486,7.62323 7.943359,12.78427 9.969803,20.09245 0.300933,1.08409 7.472385,-6.24843 2.840446,-14.86334 -2.374442,-3.18355 -10.881345,-5.5077 -12.551121,-5.42179 h -0.0035 z m -24.394625,1.45179 c -0.866424,-0.11471 -2.8990491,9.42382 5.195859,14.272 4.18543,1.71975 14.682293,-1.66799 13.664049,-2.13615 -8.401799,-3.81734 -13.327275,-6.87439 -18.783498,-12.09598 -0.02507,-0.0256 -0.04847,-0.0362 -0.0764,-0.0399 z m 27.138735,4.65766 c -0.05204,-0.0128 -0.08914,0.0127 -0.106297,0.0796 -2.332273,8.98984 -4.485561,14.39946 -8.677483,20.70039 -0.62642,0.92969 9.562259,1.66943 13.049445,-7.48151 l 0.0035,0.003 c 0.916656,-4.16968 -3.488168,-13.09598 -4.268978,-13.30195 z m -2.561388,5.74401 c -0.02121,-0.007 -0.04514,-0.002 -0.07641,0.0127 -8.318404,4.00962 -13.805888,5.84637 -21.295052,6.67422 -1.10563,0.12831 4.90539,8.45368 14.092607,5.23906 l 0.0099,-0.003 c 3.873928,-2.05113 7.932415,-11.75584 7.272209,-11.92325 h -0.0035 z" transform="matrix(1.0193681,0,0,1.0193681,0,-5.7113166)"/>
  <path d="m 49.474304,238.36379 c -6.784091,0.0789 -17.250578,1.98011 -20.522215,5.90945 h -0.01009 c -2.610487,3.82553 -2.940042,18.7964 -2.262114,17.87398 5.555876,-7.60022 18.871191,-16.98704 26.8245,-20.75929 4.293944,-2.04581 1.246576,-3.08581 -4.02994,-3.02414 z m -25.341209,8.55094 c -1.713964,0.29359 -8.594346,5.0744 -7.010064,13.66455 l 0.0034,0.003 c 1.50384,4.38863 11.136369,10.22504 10.802951,9.12662 -2.735916,-9.05851 -3.725504,-14.92153 -3.420372,-22.64556 0.0057,-0.14325 -0.131034,-0.19102 -0.375903,-0.14909 z m 18.788324,3.84706 c -4.591483,0.33322 -12.66522,8.21339 -11.531046,8.16824 9.391528,-0.32636 15.257437,0.21364 22.584598,2.5094 1.08703,0.33993 -1.173619,-9.90572 -11.053552,-10.67764 z m -4.968004,8.20212 c -0.2389,0.0129 -0.341726,0.0796 -0.260754,0.19627 5.36683,7.77088 8.097206,13.03187 10.162899,20.4816 0.306761,1.10509 7.61711,-6.36945 2.895459,-15.15121 -2.42043,-3.24521 -11.092095,-5.61438 -12.794211,-5.5268 h -0.0036 z m -24.867101,1.47991 c -0.883205,-0.11693 -2.955198,9.60634 5.296492,14.54842 4.266494,1.75306 14.966661,-1.7003 13.928695,-2.17753 -8.564525,-3.89127 -13.585398,-7.00753 -19.147297,-12.33025 -0.02556,-0.0261 -0.04941,-0.0369 -0.07788,-0.0407 z m 27.664359,4.74787 c -0.05305,-0.0131 -0.09087,0.0129 -0.108355,0.0811 -2.377445,9.16395 -4.572438,14.67835 -8.845549,21.10131 -0.638553,0.9477 9.747461,1.70177 13.302187,-7.62641 l 0.0036,0.003 c 0.93441,-4.25044 -3.555727,-13.34962 -4.35166,-13.55958 z m -2.610997,5.85526 c -0.02162,-0.007 -0.04601,-0.002 -0.07789,0.0129 -8.479515,4.08728 -14.073281,5.95961 -21.707495,6.80349 -1.127044,0.1308 5.000397,8.61741 14.365553,5.34053 l 0.01009,-0.003 c 3.948958,-2.09085 8.08605,-11.98353 7.413057,-12.15418 h -0.0036 z" style="opacity:0.9;fill:#f4f4f4"/>
 </g>
</svg>
