<svg xmlns="http://www.w3.org/2000/svg" xmlns:xlink="http://www.w3.org/1999/xlink" width="256" height="256" version="1.1" viewBox="0 0 67.73 67.73">
 <defs>
  <linearGradient id="linearGradient1108" x1="296" x2="296" y1="-212" y2="236" gradientUnits="userSpaceOnUse" xlink:href="#linearGradient1013"/>
  <linearGradient id="linearGradient1013">
   <stop offset="0" style="stop-color:#ffffff"/>
   <stop style="stop-color:#ffffff;stop-opacity:0.09803922" offset=".125"/>
   <stop style="stop-color:#000000;stop-opacity:0.09803922" offset=".925"/>
   <stop offset="1" style="stop-color:#000000;stop-opacity:0.49803922"/>
  </linearGradient>
  <clipPath id="clipPath1082" clipPathUnits="userSpaceOnUse">
   <path d="M 361.9375,-212 C 507.2348,-212 528,-191.28677 528,-46.125 V 70.125 C 528,215.28618 507.2348,236 361.9375,236 H 214.0625 C 68.7652,236 48,215.28618 48,70.125 V -46.125 C 48,-191.28677 68.7652,-212 214.0625,-212 Z" style="fill:#8c59d9"/>
  </clipPath>
  <filter style="color-interpolation-filters:sRGB" id="filter1015" width="1.046" height="1.05" x="-.02" y="-.03">
   <feGaussianBlur stdDeviation="2.32"/>
  </filter>
  <linearGradient id="linearGradient4305" x1="32" x2="32" y1="1017.87" y2="1015.362" gradientTransform="matrix(2,0,0,1.8000001,-2,-816.28975)" gradientUnits="userSpaceOnUse" spreadMethod="reflect" xlink:href="#linearGradient6307"/>
  <linearGradient id="linearGradient6307">
   <stop offset="0" style="stop-color:#3e89eb"/>
   <stop offset="1" style="stop-color:#3e89eb;stop-opacity:0"/>
  </linearGradient>
 </defs>
 <g transform="translate(0,-229.26666)">
  <path d="m 43.837429,232.36713 c 19.593906,0 22.394174,2.79326 22.394174,22.36889 v 15.67676 c 0,19.57555 -2.800268,22.36889 -22.394174,22.36889 h -19.94152 c -19.5939075,0 -22.3941759,-2.79334 -22.3941759,-22.36889 v -15.67676 c 0,-19.57563 2.8002684,-22.36889 22.3941759,-22.36889 z" style="opacity:0.2;fill:none;stroke:#000000;stroke-width:1.0788312;stroke-linecap:round;stroke-linejoin:round"/>
  <path d="m 188.96876,45.999995 c 72.64865,0 83.03125,10.356615 83.03125,82.937505 v 58.125 c 0,72.58059 -10.3826,82.9375 -83.03125,82.9375 h -73.9375 C 42.382606,270 32.000006,259.64309 32.000006,187.0625 v -58.125 c 0,-72.58089 10.3826,-82.937505 83.031254,-82.937505 z" transform="matrix(0.26970778,0,0,0.26970778,-7.1289177,220.49999)" style="opacity:0.2;filter:url(#filter1015)"/>
  <path style="fill:#f1f0e9" d="m 43.837426,232.36713 c 19.593907,0 22.394175,2.79326 22.394175,22.36889 v 15.67676 c 0,19.57555 -2.800268,22.36889 -22.394175,22.36889 h -19.94152 c -19.5939064,0 -22.3941745,-2.79334 -22.3941745,-22.36889 v -15.67676 c 0,-19.57563 2.8002681,-22.36889 22.3941745,-22.36889 z"/>
  <path style="opacity:0.05;fill:#02171f" d="m 23.895906,232.36713 c -19.5939064,0 -22.3941745,2.79326 -22.3941745,22.36889 v 15.67676 c 0,19.57555 2.8002681,22.36889 22.3941745,22.36889 h 9.970758 v -20.48409 -19.44635 -20.4841 z"/>
  <g style="enable-background:new" transform="matrix(0.26970778,0,0,0.26970778,-7.1289177,220.49999)">
   <path style="fill:#c8c4b7;fill-opacity:0.99607843" d="M 72,108 V 99.999999 H 216.66665 V 108 Z"/>
   <path style="fill:#aea795;fill-opacity:0.99738566" d="m 160,124 v -8 h 79.33333 v 8 z"/>
   <path d="m 72,116 v 64 l 72,5e-5 V 116 Z" style="fill:#c8c4b7"/>
   <path d="m 160,140 v -8 h 40 v 8 z" style="fill:#aea795;fill-opacity:0.99738566"/>
   <path style="fill:#c8c4b7;fill-opacity:0.99607843" d="M 160,155.92689 V 148 h 79.33333 v 7.92689 z"/>
   <path d="m 72,212 v -8 h 167.99998 v 8 z" style="fill:#c8c4b7;fill-opacity:0.99607843"/>
   <path style="fill:#e7e7df" d="m 125.42423,132 c -4.55633,0 -8.25,3.69364 -8.25,8.25 0,4.55635 3.69367,8.25 8.25,8.25 4.55634,0 8.25,-3.69365 8.25,-8.25 0,-4.55636 -3.69365,-8.25 -8.25,-8.25 z M 100.57682,139.43628 84,168 h 37.68961 l -11.01562,-21.11207 -3.10473,5.95094 z"/>
   <path d="M 160,171.92689 V 164 h 79.33333 v 7.92689 z" style="fill:#c8c4b7;fill-opacity:0.99607843"/>
   <path style="fill:#c8c4b7;fill-opacity:0.99607843" d="m 72,196 v -7.92689 H 239.99999 V 196 Z"/>
   <path d="m 72,228 v -8 h 104 v 8 z" style="fill:#c8c4b7;fill-opacity:0.99607843"/>
   <path d="m 72,92 v -8 h 167.99998 v 8 z" style="fill:#c8c4b7;fill-opacity:0.99607843"/>
  </g>
  <path d="M 361.9375,-212 C 507.2348,-212 528,-191.28677 528,-46.125 V 70.125 C 528,215.28618 507.2348,236 361.9375,236 H 214.0625 C 68.7652,236 48,215.28618 48,70.125 V -46.125 C 48,-191.28677 68.7652,-212 214.0625,-212 Z" clip-path="url(#clipPath1082)" transform="matrix(0.13485389,0,0,0.13485389,-4.9712557,260.95615)" style="opacity:0.5;fill:none;stroke:url(#linearGradient1108);stroke-width:8;stroke-linecap:round;stroke-linejoin:round"/>
  <g transform="matrix(0.74745201,0,0,0.57348425,-13.969762,-315.1993)">
   <rect style="opacity:0.8;fill:url(#linearGradient4305)" width="88" height="9" x="20" y="1011.36"/>
   <rect width="88" height="1" x="20" y="1015.36" style="opacity:0.8;fill:#ffffff"/>
  </g>
 </g>
</svg>
