<svg width="256" height="256" version="1.1" viewBox="0 0 67.73 67.73" xmlns="http://www.w3.org/2000/svg" xmlns:xlink="http://www.w3.org/1999/xlink">
 <defs>
  <clipPath id="clipPath1082-3-5">
   <path d="M 361.9375,-212 C 507.2348,-212 528,-191.28677 528,-46.125 V 70.125 C 528,215.28618 507.2348,236 361.9375,236 H 214.0625 C 68.7652,236 48,215.28618 48,70.125 V -46.125 C 48,-191.28677 68.7652,-212 214.0625,-212 Z" style="fill:#8c59d9"/>
  </clipPath>
  <filter id="filter4569-2" x="-.01" y="-.01" width="1.023" height="1.025" style="color-interpolation-filters:sRGB">
   <feGaussianBlur stdDeviation="1.16"/>
  </filter>
  <filter id="filter913" x="-.02" y="-.03" width="1.046" height="1.05" style="color-interpolation-filters:sRGB">
   <feGaussianBlur stdDeviation="2.32"/>
  </filter>
  <linearGradient id="linearGradient906" x1="296" x2="296" y1="-212" y2="236" gradientUnits="userSpaceOnUse">
   <stop style="stop-color:#ffffff" offset="0"/>
   <stop style="stop-color:#ffffff;stop-opacity:.09803922" offset=".125"/>
   <stop style="stop-color:#000000;stop-opacity:.09803922" offset=".925"/>
   <stop style="stop-color:#000000;stop-opacity:.49803922" offset="1"/>
  </linearGradient>
  <linearGradient id="linearGradient4174-5" x1="424.571" x2="393.274" y1="512.782" y2="536.798" gradientTransform="matrix(-1.1244783,0,0,1.1244783,492.10955,-327.3251)" gradientUnits="userSpaceOnUse" spreadMethod="reflect">
   <stop style="stop-color:#eff0f1" offset="0"/>
   <stop style="stop-color:#bdc3c7" offset="1"/>
  </linearGradient>
  <linearGradient id="linearGradient4658" x1="389.071" x2="428.568" y1="518.548" y2="534.908" gradientUnits="userSpaceOnUse" xlink:href="#linearGradient4211"/>
  <linearGradient id="linearGradient4211">
   <stop style="stop-color:#2f3943" offset="0"/>
   <stop style="stop-color:#808c9b" offset="1"/>
  </linearGradient>
  <linearGradient id="linearGradient4679" x1="11.078" x2="39.285" y1="12.636" y2="40.843" gradientTransform="matrix(1.0216451,0,0,1.0216451,383.77658,499.53826)" gradientUnits="userSpaceOnUse" spreadMethod="reflect" xlink:href="#linearGradient4303-3"/>
  <linearGradient id="linearGradient4303-3">
   <stop style="stop-color:#197cf1" offset="0"/>
   <stop style="stop-color:#21c9fb" offset="1"/>
  </linearGradient>
  <linearGradient id="linearGradient4666" x1="408.863" x2="406.833" y1="546.046" y2="528.987" gradientTransform="translate(0,1)" gradientUnits="userSpaceOnUse" xlink:href="#linearGradient4211"/>
  <linearGradient id="linearGradient4681" x1="50" x2="9" gradientTransform="translate(384.57143,500.798)" gradientUnits="userSpaceOnUse" xlink:href="#linearGradient4303-3"/>
  <linearGradient id="linearGradient4650" x1="411.37" x2="408.571" y1="517.521" y2="502.798" gradientUnits="userSpaceOnUse" xlink:href="#linearGradient4211"/>
  <linearGradient id="linearGradient4677" x1="-1.875" x2="39" gradientUnits="userSpaceOnUse" xlink:href="#linearGradient4303-3"/>
 </defs>
 <g transform="translate(0,-229.26666)">
  <path transform="matrix(.26970778 0 0 .26970778 -7.1289177 220.56049)" d="m188.96876 45.999995c72.64865 0 83.03125 10.356615 83.03125 82.937505v58.125c0 72.58059-10.3826 82.9375-83.03125 82.9375h-73.9375c-72.648654 0-83.031254-10.35691-83.031254-82.9375v-58.125c0-72.58089 10.3826-82.937505 83.031254-82.937505z" style="filter:url(#filter913);opacity:.2"/>
  <path transform="matrix(.26970778 0 0 .26970778 -7.1289177 220.56049)" d="m188.96876 43.999995c72.64865 0 83.03125 10.356615 83.03125 82.937505v58.125c0 72.58059-10.3826 82.9375-83.03125 82.9375h-73.9375c-72.648654 0-83.031254-10.35691-83.031254-82.9375v-58.125c0-72.58089 10.3826-82.937505 83.031254-82.937505z" style="filter:url(#filter4569-2);opacity:.1"/>
  <path d="m23.895905 232.42763c-9.797337 0-15.39413 0.69699-18.544517 3.84334-3.150381 3.14634-3.849657 8.73736-3.849657 18.52555v15.67677c0 9.78815 0.699276 15.3792 3.849657 18.52555 3.150387 3.14636 8.7471787 3.84333 18.544517 3.84333h19.94152c9.797339 0 15.394134-0.69697 18.544517-3.84333 3.150384-3.14635 3.849659-8.7374 3.849659-18.52555v-15.67677c0-9.78819-0.699275-15.37921-3.849659-18.52555-3.150383-3.14635-8.74718-3.84334-18.544517-3.84334z" style="fill:#4d4d4d"/>
  <path d="m1.5017313 269.93387v0.53942c0 9.78815 0.699276 15.3792 3.849657 18.52555 3.150387 3.14636 8.7471787 3.84333 18.544517 3.84333h19.94152c9.797339 0 15.394134-0.69697 18.544517-3.84333 3.150384-3.14635 3.849659-8.7374 3.849659-18.52555v-0.53942c0 9.78815-0.699275 15.3792-3.849659 18.52555-3.150383 3.14636-8.747178 3.84334-18.544517 3.84334h-19.94152c-9.797338 0-15.39413-0.69698-18.544517-3.84334-3.150381-3.14635-3.849657-8.7374-3.849657-18.52555z" style="fill:#131313;opacity:.2"/>
  <path transform="matrix(.13485389 0 0 .13485389 -4.9712557 261.01666)" d="M 361.9375,-212 C 507.2348,-212 528,-191.28677 528,-46.125 V 70.125 C 528,215.28618 507.2348,236 361.9375,236 H 214.0625 C 68.7652,236 48,215.28618 48,70.125 V -46.125 C 48,-191.28677 68.7652,-212 214.0625,-212 Z" clip-path="url(#clipPath1082-3-5)" style="fill:none;opacity:.4;stroke-linecap:round;stroke-linejoin:round;stroke-width:8;stroke:url(#linearGradient906)"/>
  <g transform="translate(1.1868321 .9605859)">
   <path d="m32.679847 239.18479c-12.459211 0-22.489568 10.03038-22.489568 22.48958 0 12.45921 10.030357 22.48954 22.489568 22.48954 12.459209 0 22.489567-10.03033 22.489567-22.48954 0-12.4592-10.030358-22.48958-22.489567-22.48958zm0 3.37343c2.491848 0 4.497915 2.00609 4.497915 4.49791 0 2.49185-2.006067 4.49794-4.497915 4.49794-2.49185 0-4.497912-2.00609-4.497912-4.49794 0-2.49182 2.006062-4.49791 4.497912-4.49791zm-12.975423 7.3157c0.863514-0.0604 1.755962 0.12792 2.565213 0.59521 2.158004 1.24588 2.890915 3.98709 1.644991 6.14506-1.245926 2.15803-3.984899 2.89311-6.142903 1.64718-2.158004-1.24589-2.893109-3.98709-1.647185-6.14507 0.778702-1.34878 2.140682-2.14179 3.579884-2.24238zm25.950849 0c1.439198 0.10072 2.801177 0.8936 3.579883 2.24238 1.24592 2.15798 0.510816 4.89918-1.647189 6.14507-2.157999 1.24593-4.896977 0.51085-6.142898-1.64718-1.245925-2.15797-0.513017-4.89918 1.644986-6.14506 0.809251-0.46724 1.701699-0.65557 2.565218-0.59521zm-25.320528 14.61825c1.439197 0.10071 2.801181 0.8936 3.579883 2.24234 1.245924 2.15801 0.513013 4.89918-1.644991 6.1451-2.158004 1.24594-4.899171 0.51082-6.145097-1.64716-1.245924-2.15803-0.510819-4.89919 1.647185-6.14512 0.80925-0.46724 1.699501-0.65556 2.56302-0.59516zm24.690207 0c0.863514-0.0604 1.753765 0.12792 2.563015 0.59516 2.158005 1.24593 2.893109 3.98709 1.647189 6.14512-1.245925 2.15798-3.987096 2.8931-6.145101 1.64716-2.158003-1.24592-2.890911-3.98709-1.644986-6.1451 0.778701-1.34874 2.140681-2.14175 3.579883-2.24234zm-12.345105 7.3025c2.491848 0 4.497915 2.00605 4.497915 4.49791 0 2.49185-2.006067 4.4979-4.497915 4.4979-2.49185 0-4.497912-2.00605-4.497912-4.4979 0-2.49186 2.006062-4.49791 4.497912-4.49791z" style="fill:url(#linearGradient4174-5)"/>
   <g transform="matrix(1.1244782,0,0,1.1244782,-426.74986,-327.32515)">
    <path d="m402.57143 511.798 24 24h-12l-24-24z" style="fill:url(#linearGradient4658)"/>
    <path d="m395.76496 511.798-1.02165 1.02165 4.334 4.33401 2.88934-2.88935-2.46631-2.46631h-3.73539zm6.97591 3.24053-2.88933 2.88934 4.334 4.33401 2.89134-2.88934zm5.10823 5.10822-2.88934 2.88935 4.334 4.33401 2.89134-2.88935zm5.10822 5.10823-2.88933 2.88934 4.334 4.33401 2.89134-2.88934zm5.10823 5.10822-2.88934 2.88935 2.46631 2.46631h3.73539l1.02165-1.02165z" style="fill:url(#linearGradient4679)"/>
    <path d="m393.57143 535.798v8h25l8-8z" style="fill:url(#linearGradient4666)"/>
    <path d="m393.57143 537.798v4h4v-4zm5 0v4h6v-4zm7 0v4h6v-4zm7 0v4h6v-4zm7 0v4h1l4-4z" style="fill:url(#linearGradient4681)"/>
    <path d="m398.57143 503.798-8 8h33v-8z" style="fill:url(#linearGradient4650)"/>
    <path transform="translate(384.57143,499.798)" d="m13 6h-1l-4 4h5zm1 0v4h6v-4zm7 0v4h6v-4zm7 0v4h6v-4zm7 0v4h4v-4z" style="fill:url(#linearGradient4677)"/>
   </g>
  </g>
  <path d="m1.5017313 262.60416v9.33914c0 9.14491 0.699276 14.36853 3.849657 17.30811 3.150387 2.93959 8.7471787 3.59076 18.544517 3.59076h19.94152c9.797339 0 15.394134-0.65117 18.544517-3.59076 3.150384-2.93958 3.849659-8.1632 3.849659-17.30811v-9.33914z" style="fill:#ffffff;opacity:.05"/>
 </g>
</svg>
