<svg width="256" height="256" version="1.1" viewBox="0 0 67.73 67.73" xmlns="http://www.w3.org/2000/svg" xmlns:xlink="http://www.w3.org/1999/xlink">
 <defs>
  <linearGradient id="linearGradient1108" x1="296" x2="296" y1="-212" y2="236" gradientUnits="userSpaceOnUse">
   <stop style="stop-color:#ffffff" offset="0"/>
   <stop style="stop-color:#ffffff;stop-opacity:.09803922" offset=".125"/>
   <stop style="stop-color:#000000;stop-opacity:.09803922" offset=".925"/>
   <stop style="stop-color:#000000;stop-opacity:.49803922" offset="1"/>
  </linearGradient>
  <clipPath id="clipPath1082-3-36">
   <path d="M 361.9375,-212 C 507.2348,-212 528,-191.28677 528,-46.125 V 70.125 C 528,215.28618 507.2348,236 361.9375,236 H 214.0625 C 68.7652,236 48,215.28618 48,70.125 V -46.125 C 48,-191.28677 68.7652,-212 214.0625,-212 Z" style="fill:#8c59d9"/>
  </clipPath>
  <clipPath id="clipPath936">
   <path d="M 329.9375,16 C 475.2348,16 496,36.71323 496,181.875 v 116.25 C 496,443.28618 475.2348,464 329.9375,464 H 182.0625 C 36.7652,464 16,443.28618 16,298.125 V 181.875 C 16,36.71323 36.7652,16 182.0625,16 Z" style="fill:#438ae9"/>
  </clipPath>
  <linearGradient id="linearGradient1048" x1="24" x2="280" y1="28" y2="284" gradientTransform="matrix(.26458333 0 0 .26458333 -6.9934681 221.85076)" gradientUnits="userSpaceOnUse">
   <stop style="stop-color:#5884f4" offset="0"/>
   <stop style="stop-color:#80a3fa" offset="1"/>
  </linearGradient>
  <filter id="filter998" x="-.02" y="-.03" width="1.046" height="1.05" style="color-interpolation-filters:sRGB">
   <feGaussianBlur stdDeviation="2.32"/>
  </filter>
  <filter id="filter1066" x="-.01" y="-.04" width="1.014" height="1.08" style="color-interpolation-filters:sRGB">
   <feGaussianBlur stdDeviation=".4"/>
  </filter>
  <filter id="filter1062-3" x="-.01" y="-.01" width="1.024" height="1.024" style="color-interpolation-filters:sRGB">
   <feGaussianBlur stdDeviation=".673"/>
  </filter>
 </defs>
 <g transform="translate(0,-229.26666)">
  <path transform="matrix(.26458333 0 0 .26458333 -1.8735229e-8 232.67026)" d="m162.53675 5.5680001c72.64865 0 83.03125 10.356615 83.03125 82.937505v58.125005c0 72.58059-10.3826 82.9375-83.03125 82.9375h-73.937496c-72.648654 0-83.031254-10.35691-83.031254-82.9375v-58.125005c0-72.58089 10.3826-82.937505 83.031254-82.937505z" style="filter:url(#filter998);opacity:.2"/>
  <path d="m43.004513 233.49242c19.221622 0 21.968685 2.74019 21.968685 21.94388v15.37891c0 19.20362-2.747063 21.94388-21.968685 21.94388h-19.56263c-19.221622 0-21.968685-2.74026-21.968685-21.94388v-15.37891c0-19.20369 2.7470629-21.94388 21.968685-21.94388z" style="fill:url(#linearGradient1048)"/>
  <g transform="matrix(.13229167 0 0 .13229167 -.64346832 231.49763)" clip-path="url(#clipPath936)" style="enable-background:new;fill:#ffffff;opacity:.4">
   <g transform="matrix(1.5675676,0,0,1.5675676,-1030.1622,795.05406)" style="fill:#ffffff;opacity:.6">
    <path d="m733.72415-333.67241h25.51724l10.20689 10.2069h20.4138l10.20689 10.20689v20.41379l-7.65517 7.65517v7.65518l-15.31034 15.31034v10.2069l-33.17242 30.62069 0.06896 13.39655-7.72413-8.2931v-33.17242l7.65517-7.65517 0.06896-22.87931-20.48275-17.94827v-25.51724z" style="fill:#ffffff"/>
    <path transform="matrix(.63793102 0 0 .63793102 657.17242 -507.18965)" d="m-27.244141 30.917969-25.080078 25.082031v62.70312l40.324226 37.29688v40l44 44h24l40 40v-48l24.000003-24h16l24-24h24l-12-12 23.99999-28-24-24h-36l1e-5 32h-16l-16-16v-16l24-23.999997h20l-1e-5 -16.000003-24-24h-40v24l-19.999993 3e-6 -32-32.000001h-32zm227.24414 121.08203-11.99999 12h12l4 4h4l3.99999-4z" style="fill:#ffffff"/>
    <path d="m881.72414-374.5h-30.62069l-17.86206 17.86207v25.51724l12.75862 12.75862h17.86207l7.65517 7.65518v7.65517l5.10345 5.10345v30.62069l19.37931 20.48276 32-32-0.34483-29.31035 25.51724-25.51724h-10.2069l-25.51724-25.51724v-10.2069h-30.62069z" style="fill:#ffffff"/>
    <path transform="matrix(.63793102 0 0 .63793102 657.17242 -507.18965)" d="m488.00001 48.000002-16.00001 15.999998h-24l-24 24-15.99999-15.999997h-48l-24 24-1e-5 19.999997h24v-12h16v16l-8 8-32 0.54102-12 11.45898h-16v16l-12 12v24h24l16-16h40l16 16h20l-12-12 12-12h12l12 12h-12l-12 12 11.7832 11.7832 0.2168 12.2168h-15.99999l48 48h8l8-8 15.99999-16-15.99999-16h72v-176zm-128.00001 128h-7.99999l-1e-5 8 16 16h8v-8z" style="fill:#ffffff"/>
    <path d="m856.2069-422.98275v-7.65518l7.65518-7.65517v15.31035z" style="fill:#ffffff"/>
    <path d="m935.31035-272.43103v-16l10.2069-9.51724v25.51724z" style="fill:#ffffff"/>
    <path d="m805.17242-435.74137v-10.2069l15.31035-15.31034v-10.2069l10.20689-10.2069v-15.31034l-10.20689-10.2069h-40.82759l-17.86207 20.41379 15.31035 15.31035v16l17.86206 19.72414z" style="fill:#ffffff"/>
    <path d="m743.93104-481.67241v-25.51724h-51.03448l25.51724 25.51724z" style="fill:#ffffff"/>
    <path d="m817.93104-440.84482h7.65518l7.65517 7.65517-15.31035 1e-5z" style="fill:#ffffff"/>
    <path d="m749.03449-356.63794h-7.65518l-7.65517 7.65517 15.31035 1e-5z" style="fill:#ffffff"/>
   </g>
  </g>
  <g transform="translate(-2.5776218,2.2408023)">
   <path transform="matrix(.26458333 0 0 .26458333 3.3226882 232.30266)" d="m111.24809 46.752299c-4.70996 9.81241-9.22355 19.756001-13.54101 29.830081-4.31746 9.94324-8.7021 20.41049-13.15039 31.40039-1.66494 4.23801-3.36668 8.65932-5.07031 13.0918-1.04969 2.39777-2.22981 5.26835-4.07813 10.23242-3.0972 8.22972-6.63179 17.55233-10.08789 26.67969-1.25915 3.18508-2.64003 6.75373-4.82617 12.76562h25.82031l12.36329-34.73633 24.33202-1.05859 24.334 1.05859 12.36327 34.73633h25.82031c-2.18614-6.01189-3.56702-9.58054-4.82616-12.76562-3.45609-9.12736-6.9907-18.44997-10.08789-26.67969-1.84833-4.96407-3.02845-7.83465-4.07813-10.23242-1.70363-4.43248-3.40538-8.85379-5.07032-13.0918-4.44828-10.9899-8.83292-21.45715-13.15038-31.40039-4.31747-10.07409-8.83107-20.017671-13.54102-29.830081h-23.13477zm11.76172 27.037111c0.0856 0.19974 0.17424 0.39587 0.25977 0.5957v0.15235c3.59305 7.98261 7.06728 16.24447 10.41015 24.81054 4.0558 10.59741 4.11217 9.58637 8.16797 20.96875l-18.83789 0.67969-18.83593-0.67969c4.0558-11.38238 4.11216-10.37134 8.16796-20.96875 3.34287-8.56607 6.81711-16.82793 10.41016-24.81054v-0.15235c0.0854-0.19959 0.17233-0.3962 0.25781-0.5957z" style="filter:url(#filter1062-3);opacity:.1"/>
   <path d="m32.757079 244.14337c-1.246177 2.5962-2.440398 5.22711-3.582726 7.89254-1.142328 2.63082-2.302431 5.40028-3.479374 8.30802-0.440515 1.12131-0.890767 2.29112-1.34152 3.46388-0.27773 0.63441-0.58997 1.39392-1.079005 2.70732-0.819467 2.17745-1.754664 4.64406-2.669087 7.05901-0.33315 0.84271-0.698508 1.78692-1.276925 3.37757h6.831624l3.271121-9.19066 6.437847-0.28008 6.43837 0.28008 3.271115 9.19066h6.831623c-0.578416-1.59065-0.943774-2.53486-1.276921-3.37757-0.914424-2.41495-1.849623-4.88156-2.669088-7.05901-0.489037-1.3134-0.801277-2.07291-1.079005-2.70732-0.450752-1.17276-0.901007-2.34257-1.341522-3.46388-1.176941-2.90774-2.337043-5.6772-3.47937-8.30802-1.142331-2.66543-2.336554-5.29634-3.582729-7.89254h-6.121074zm3.111955 7.15357c0.02265 0.0529 0.0461 0.10474 0.06873 0.15761v0.0403c0.950662 2.11207 1.869885 4.29802 2.754353 6.56446 1.073097 2.8039 1.088011 2.53639 2.161108 5.54798l-4.984191 0.17983-4.983674-0.17983c1.073098-3.01159 1.088009-2.74408 2.161107-5.54798 0.884467-2.26644 1.803693-4.45239 2.754354-6.56446v-0.0403c0.0226-0.0528 0.0456-0.10482 0.06821-0.15761z" style="fill:#fff9f2"/>
   <rect transform="matrix(.26458333 0 0 .26458333 3.3226882 232.30266)" x="54.75" y="118.75" width="136" height="24" rx="12" ry="12" style="filter:url(#filter1066);opacity:.1"/>
   <path d="m38.911742 244.23587-2.92385 7.37268c0.932659 2.0771 1.835481 4.22462 2.704225 6.45077 1.073097 2.8039 1.088011 2.53639 2.161108 5.54798l-1.681032 0.0605 1.16582 4.00751 1.969391 0.0858 3.271115 9.19066h6.831623c-0.578416-1.59065-0.943774-2.53486-1.276921-3.37757-0.914424-2.41495-1.849623-4.88156-2.669088-7.05901-0.489037-1.3134-0.801277-2.07291-1.079005-2.70732-0.450752-1.17276-0.901007-2.34257-1.341522-3.46388-1.176941-2.90774-2.337043-5.6772-3.47937-8.30802-0.823648-1.92185-1.675186-3.82488-2.552817-5.71076z" style="fill:#416ddc;opacity:.1"/>
   <rect x="17.81" y="263.19" width="35.983" height="6.35" rx="3.175" ry="3.175" style="fill:#ffffff"/>
   <path d="m20.984155 265.30996c-0.586317 0-1.058334 0.47202-1.058334 1.05833 0 0.58632 0.472017 1.05834 1.058334 1.05834h29.732551c0.531349 0 0.959114-0.42777 0.959114-0.95912v-0.19844c0-0.53134-0.427765-0.95911-0.959114-0.95911h-19.248437z" style="fill:#416ddc;opacity:.2"/>
  </g>
  <path transform="matrix(.26458333 0 0 .26458333 0 229.26666)" d="m5.5683594 148.14062v8.89258c0 9.07258 0.1620995 17.17296 0.5878906 24.40235 0.2128956 3.61469 0.4922655 7.01319 0.8496094 10.20507 0.3573439 3.19189 0.7931865 6.17826 1.3203125 8.97266 0.5271259 2.7944 1.1449457 5.39612 1.8671871 7.81836 0.722242 2.42224 1.547544 4.66482 2.490235 6.74024 0.942691 2.07541 2.002932 3.98437 3.191406 5.73828 1.188474 1.7539 2.505252 3.35282 3.964844 4.81054 1.459591 1.45773 3.062317 2.77407 4.818359 3.96094s3.666314 2.24421 5.744141 3.18555c2.077826 0.94134 4.323102 1.76519 6.748047 2.48633 2.424944 0.72113 5.028775 1.33897 7.826171 1.86523 2.797397 0.52626 5.787241 0.96165 8.982422 1.31836 3.195182 0.3567 6.596543 0.63518 10.214844 0.84766 7.236602 0.42495 15.3447 0.58593 24.425781 0.58593h73.937501c9.08108 0 17.18918-0.16098 24.42578-0.58593 3.6183-0.21248 7.01771-0.49096 10.21289-0.84766 3.19518-0.35671 6.18503-0.7921 8.98242-1.31836 2.7974-0.52626 5.40318-1.1441 7.82813-1.86523 2.42494-0.72114 4.67022-1.54499 6.74805-2.48633 2.07782-0.94134 3.98809-1.99868 5.74414-3.18555 1.75604-1.18687 3.35681-2.50321 4.8164-3.96094 1.45959-1.45772 2.77832-3.05664 3.9668-4.81054 1.18847-1.75391 2.24676-3.66287 3.18945-5.73828 0.94269-2.07542 1.76995-4.318 2.49219-6.74024s1.34006-5.02396 1.86719-7.81836c0.52712-2.7944 0.96297-5.78077 1.32031-8.97266 0.35734-3.19188 0.63671-6.59038 0.84961-10.20507 0.42579-7.22939 0.58789-15.32977 0.58789-24.40235v-8.89258h-240z" style="fill:#ffffff;opacity:.05"/>
  <path transform="matrix(.13229167 0 0 .13229167 -4.8768021 261.66013)" d="M 361.9375,-212 C 507.2348,-212 528,-191.28677 528,-46.125 V 70.125 C 528,215.28618 507.2348,236 361.9375,236 H 214.0625 C 68.7652,236 48,215.28618 48,70.125 V -46.125 C 48,-191.28677 68.7652,-212 214.0625,-212 Z" clip-path="url(#clipPath1082-3-36)" style="fill:none;opacity:.4;stroke-linecap:round;stroke-linejoin:round;stroke-width:8;stroke:url(#linearGradient1108)"/>
 </g>
</svg>
