<svg xmlns="http://www.w3.org/2000/svg" xmlns:xlink="http://www.w3.org/1999/xlink" width="256" height="256" version="1.0" style="enable-background:new">
 <defs>
  <filter style="color-interpolation-filters:sRGB" id="filter925" width="1.046" height="1.05" x="-.02" y="-.03">
   <feGaussianBlur stdDeviation="2.32"/>
  </filter>
  <filter style="color-interpolation-filters:sRGB" id="filter931" width="1.023" height="1.025" x="-.01" y="-.01">
   <feGaussianBlur stdDeviation="1.16"/>
  </filter>
  <linearGradient id="linearGradient1108" x1="296" x2="296" y1="-212" y2="236" gradientUnits="userSpaceOnUse" xlink:href="#linearGradient1013"/>
  <linearGradient id="linearGradient1013">
   <stop offset="0" style="stop-color:#ffffff"/>
   <stop style="stop-color:#ffffff;stop-opacity:0.09803922" offset=".125"/>
   <stop style="stop-color:#000000;stop-opacity:0.09803922" offset=".925"/>
   <stop offset="1" style="stop-color:#000000;stop-opacity:0.49803922"/>
  </linearGradient>
  <clipPath id="clipPath1082-3" clipPathUnits="userSpaceOnUse">
   <path d="M 361.9375,-212 C 507.2348,-212 528,-191.28677 528,-46.125 V 70.125 C 528,215.28618 507.2348,236 361.9375,236 H 214.0625 C 68.7652,236 48,215.28618 48,70.125 V -46.125 C 48,-191.28677 68.7652,-212 214.0625,-212 Z" style="fill:#8c59d9"/>
  </clipPath>
  <linearGradient id="linearGradient7537">
   <stop style="stop-color:#f37e40" offset="0"/>
   <stop style="stop-color:#f34f17" offset="1"/>
  </linearGradient>
  <filter style="color-interpolation-filters:sRGB" id="filter1062-3" width="1.024" height="1.024" x="-.01" y="-.01">
   <feGaussianBlur stdDeviation=".673"/>
  </filter>
  <filter style="color-interpolation-filters:sRGB" id="filter1066-3" width="1.014" height="1.08" x="-.01" y="-.04">
   <feGaussianBlur stdDeviation=".4"/>
  </filter>
  <linearGradient id="linearGradient1750" x1="186.568" x2="55.568" y1="292" y2="56.864" gradientUnits="userSpaceOnUse" xlink:href="#linearGradient7537"/>
 </defs>
 <g transform="translate(0,-44)">
  <g>
   <g>
    <path d="m 162.53675,62.431991 c 72.64865,0 83.03125,10.356615 83.03125,82.937499 v 58.125 c 0,72.58059 -10.3826,82.9375 -83.03125,82.9375 h -73.9375 c -72.64865,0 -83.0312501,-10.35691 -83.0312501,-82.9375 v -58.125 c 0,-72.580884 10.3826001,-82.937499 83.0312501,-82.937499 z" style="opacity:0.2;filter:url(#filter925)"/>
    <path style="opacity:0.1;filter:url(#filter931)" d="m 162.53675,61.431991 c 72.64865,0 83.03125,10.356615 83.03125,82.937499 v 58.125 c 0,72.58059 -10.3826,82.9375 -83.03125,82.9375 h -73.9375 c -72.64865,0 -83.0312501,-10.35691 -83.0312501,-82.9375 v -58.125 c 0,-72.580884 10.3826001,-82.937499 83.0312501,-82.937499 z"/>
   </g>
   <g>
    <path style="fill:url(#linearGradient1750)" d="m 162.53675,60.431991 c 72.64865,0 83.03125,10.356615 83.03125,82.937499 v 58.125 c 0,72.58059 -10.3826,82.9375 -83.03125,82.9375 h -73.9375 c -72.64865,0 -83.0312501,-10.35691 -83.0312501,-82.9375 v -58.125 c 0,-72.580884 10.3826001,-82.937499 83.0312501,-82.937499 z"/>
   </g>
   <g>
    <path d="M 361.9375,-212 C 507.2348,-212 528,-191.28677 528,-46.125 V 70.125 C 528,215.28618 507.2348,236 361.9375,236 H 214.0625 C 68.7652,236 48,215.28618 48,70.125 V -46.125 C 48,-191.28677 68.7652,-212 214.0625,-212 Z" clip-path="url(#clipPath1082-3)" transform="matrix(0.5,0,0,0.5,-18.432,166.43199)" style="opacity:0.4;fill:none;stroke:url(#linearGradient1108);stroke-width:8;stroke-linecap:round;stroke-linejoin:round"/>
   </g>
  </g>
 </g>
 <g transform="translate(298.568,-7.56798)">
  <g transform="matrix(3.7795275,0,0,3.7795275,-283.98636,-862.56163)">
   <path style="opacity:0.1;filter:url(#filter1062-3)" d="m 100.49804,2 c -4.709957,9.81241 -9.223547,19.756 -13.541007,29.83008 -4.31746,9.94324 -8.7021,20.41049 -13.15039,31.40039 -1.66494,4.23801 -3.36668,8.65932 -5.07031,13.0918 -1.04969,2.39777 -2.22981,5.26835 -4.07813,10.23242 -3.0972,8.22972 -6.6318,17.55233 -10.08789,26.67969 -1.25915,3.18508 -2.64003,6.75373 -4.82617,12.76562 h 14.71875 11.10156 L 87.927733,91.26367 112.25976,90.20508 136.59375,91.26367 148.95703,126 h 11.10156 14.71875 c -2.18614,-6.01189 -3.56702,-9.58054 -4.82617,-12.76562 -3.45609,-9.12736 -6.99069,-18.44997 -10.08789,-26.67969 -1.84833,-4.96407 -3.02844,-7.83465 -4.07813,-10.23242 -1.70363,-4.43248 -3.40538,-8.85379 -5.07031,-13.0918 C 146.26655,52.24057 141.88191,41.77332 137.56445,31.83008 133.24699,21.75599 128.73339,11.81241 124.02343,2 h -0.39062 -11.11328 -0.51758 -11.11328 z m 11.76172,27.03711 c 0.0856,0.19974 0.17424,0.39587 0.25977,0.5957 v 0.15235 c 3.59305,7.98261 7.06728,16.24447 10.41015,24.81054 4.0558,10.59741 4.11217,9.58637 8.16797,20.96875 l -18.83789,0.67969 -18.835927,-0.67969 c 4.0558,-11.38238 4.11216,-10.37134 8.167957,-20.96875 3.34287,-8.56607 6.81711,-16.82793 10.41016,-24.81054 v -0.15235 c 0.0854,-0.19959 0.17233,-0.3962 0.25781,-0.5957 z" transform="matrix(0.26458333,0,0,0.26458333,-0.26870286,247.33931)"/>
   <path style="fill:#fff9f2" d="m 26.321403,247.33931 c -1.246176,2.5962 -2.440396,5.22711 -3.582724,7.89254 -1.142328,2.63082 -2.302431,5.40028 -3.479374,8.30802 -0.440516,1.12131 -0.890768,2.29111 -1.34152,3.46387 -0.27773,0.63441 -0.58997,1.39392 -1.079005,2.70733 -0.819468,2.17745 -1.754664,4.64406 -2.669088,7.059 -0.33315,0.84272 -0.698508,1.78693 -1.276924,3.37757 h 3.894336 2.937288 l 3.271118,-9.19065 6.437849,-0.28009 6.438368,0.28009 3.271118,9.19065 h 2.937287 3.894336 c -0.578416,-1.59064 -0.943774,-2.53485 -1.276924,-3.37757 -0.914424,-2.41494 -1.84962,-4.88155 -2.669087,-7.059 -0.489038,-1.31341 -0.801275,-2.07292 -1.079006,-2.70733 -0.450752,-1.17276 -0.901006,-2.34256 -1.341519,-3.46387 -1.176944,-2.90774 -2.337046,-5.6772 -3.479374,-8.30802 -1.142328,-2.66543 -2.336551,-5.29634 -3.582728,-7.89254 h -0.103352 -2.940389 -0.136943 -2.940388 z m 3.111956,7.15357 c 0.02265,0.0529 0.0461,0.10474 0.06873,0.15761 v 0.0403 c 0.950662,2.11207 1.869885,4.29802 2.754353,6.56446 1.073097,2.80389 1.088011,2.53638 2.161108,5.54798 l -4.984191,0.17983 -4.983673,-0.17983 c 1.073097,-3.0116 1.088009,-2.74409 2.161106,-5.54798 0.884467,-2.26644 1.803693,-4.45239 2.754354,-6.56446 v -0.0403 c 0.0226,-0.0528 0.0456,-0.10483 0.06821,-0.15761 z"/>
   <rect width="136" height="24" x="44" y="74" rx="12" ry="12" transform="matrix(0.26458333,0,0,0.26458333,-0.26870286,247.33931)" style="opacity:0.1;filter:url(#filter1066-3)"/>
   <path style="opacity:0.1;fill:#f34f17" d="m 32.476067,247.43181 -2.923852,7.37268 c 0.932661,2.0771 1.835483,4.22462 2.704227,6.45077 1.073097,2.80389 1.088011,2.53638 2.161108,5.54798 l -1.681033,0.0605 1.165821,4.00751 1.969389,0.0858 3.271118,9.19065 h 2.937287 3.894336 c -0.578416,-1.59064 -0.943774,-2.53485 -1.276924,-3.37757 -0.914424,-2.41495 -1.84962,-4.88155 -2.669087,-7.059 -0.489038,-1.31341 -0.801275,-2.07292 -1.079006,-2.70733 -0.450752,-1.17276 -0.901006,-2.34256 -1.341519,-3.46387 -1.176944,-2.90774 -2.337046,-5.6772 -3.479374,-8.30802 -0.823648,-1.92185 -1.675186,-3.82488 -2.552817,-5.71076 z"/>
   <rect style="fill:#ffffff" width="35.983" height="6.35" x="11.37" y="266.39" rx="3.175" ry="3.175"/>
   <path style="opacity:0.2;fill:#f34f17" d="m 14.54848,268.50598 c -0.586316,0 -1.058333,0.47201 -1.058333,1.05833 0,0.58632 0.472017,1.05833 1.058333,1.05833 h 10.484115 8.565885 10.682552 c 0.531349,0 0.959114,-0.42776 0.959114,-0.95911 v -0.19844 c 0,-0.53135 -0.427765,-0.95911 -0.959114,-0.95911 H 33.59848 25.032595 Z"/>
  </g>
  <path d="m -293,156 v 9.06247 c 0,72.58061 10.3826,82.9375 83.03125,82.9375 h 73.9375 C -63.3826,247.99997 -53,237.64308 -53,165.06247 V 156 Z" style="opacity:0.07999998;fill:#ffffff"/>
 </g>
</svg>
