<svg width="256" height="256" version="1.1" viewBox="0 0 67.73 67.73" xmlns="http://www.w3.org/2000/svg" xmlns:xlink="http://www.w3.org/1999/xlink">
 <defs>
  <linearGradient id="linearGradient1108" x1="296" x2="296" y1="-212" y2="236" gradientUnits="userSpaceOnUse">
   <stop style="stop-color:#ffffff" offset="0"/>
   <stop style="stop-color:#ffffff;stop-opacity:.09803922" offset=".125"/>
   <stop style="stop-color:#000000;stop-opacity:.09803922" offset=".925"/>
   <stop style="stop-color:#000000;stop-opacity:.49803922" offset="1"/>
  </linearGradient>
  <clipPath id="clipPath1082-3-61">
   <path d="M 361.9375,-212 C 507.2348,-212 528,-191.28677 528,-46.125 V 70.125 C 528,215.28618 507.2348,236 361.9375,236 H 214.0625 C 68.7652,236 48,215.28618 48,70.125 V -46.125 C 48,-191.28677 68.7652,-212 214.0625,-212 Z" style="fill:#8c59d9"/>
  </clipPath>
  <clipPath id="clipPath1064">
   <path d="m115.03125 44c-72.64865 0-83.03125 10.356615-83.03125 82.9375v58.125c0 10.16582 0.217657 19.07051 0.767578 26.9375 3.376331 48.30069 19.790377 56 82.263672 56h73.9375c62.4733 0 78.88734-7.69931 82.26367-56 0.54992-7.86699 0.76758-16.77168 0.76758-26.9375v-58.125c0-72.580885-10.3826-82.9375-83.03125-82.9375z" style="fill:#a3dbf0"/>
  </clipPath>
  <filter id="filter4569" x="-.01" y="-.01" width="1.023" height="1.025" style="color-interpolation-filters:sRGB">
   <feGaussianBlur stdDeviation="1.16"/>
  </filter>
 </defs>
 <g transform="translate(0,-229.26666)">
  <path transform="matrix(.26970778 0 0 .26970778 -7.1289177 220.56049)" d="m188.96876 43.999995c72.64865 0 83.03125 10.356615 83.03125 82.937505v58.125c0 72.58059-10.3826 82.9375-83.03125 82.9375h-73.9375c-72.648654 0-83.031254-10.35691-83.031254-82.9375v-58.125c0-72.58089 10.3826-82.937505 83.031254-82.937505z" style="filter:url(#filter4569);opacity:.1"/>
  <g transform="matrix(.26970778 0 0 .26970778 -7.1316067 220.5262)" clip-path="url(#clipPath1064)" style="enable-background:new">
   <path d="m188.97873 44.127132c72.64865 0 83.03125 10.356616 83.03125 82.937508v58.12502c0 72.58058-10.3826 82.93747-83.03125 82.93747h-73.9375c-72.648658 0-83.031258-10.35688-83.031258-82.93747v-58.12502c0-72.580892 10.3826-82.937508 83.031258-82.937508z" style="fill:#3b3b3b"/>
   <path transform="matrix(.98100001 0 0 .98100001 26.441976 32.407148)" d="m110.41797 11.908203-0.02149 0.039063h48.42188c-0.5878-0.003187-1.01961-0.039063-1.62305-0.039063h-46.77734z" style="fill:#f0f0f0;opacity:.2"/>
   <path d="m271.67136 125.65857c-0.0187-8.39877-0.14871-16.11044-0.53858-22.89256-0.20778-3.614698-0.47965-7.010888-0.82842-10.202778-0.34877-3.191892-0.77398-6.178297-1.28846-8.972702-0.51447-2.794405-1.11837-5.397015-1.82328-7.81926s-1.51097-4.665132-2.43105-6.740543c-0.92007-2.075411-1.95365-3.982647-3.1136-5.736551-1.15995-1.753902-2.44641-3.353394-3.87097-4.811115-1.42456-1.45772-2.98737-2.773539-4.70127-3.960404s-3.5784-2.245-5.60636-3.186334c-2.02796-0.941335-4.21951-1.765858-6.58627-2.486988-2.36674-0.721131-4.90882-1.339947-7.63909-1.8662-2.73025-0.526252-5.64822-0.961518-8.76673-1.318219-3.11849-0.3567-6.43768-0.634405-9.96915-0.846878-4.07054-0.244909-9.08457-0.247714-13.73913-0.337219l-113.68128 222.5203c2.443919 0.24308 4.893175 0.48228 7.577385 0.64379 7.062939 0.42495 14.976039 0.5863 23.839189 0.5863h72.16464c8.86315 0 16.77626-0.16135 23.8392-0.5863 3.53147-0.21248 6.85066-0.49018 9.96915-0.84688 3.11851-0.3567 6.03648-0.79196 8.76673-1.31822 2.73027-0.52626 5.27235-1.14506 7.63909-1.86621 2.36676-0.72113 4.55831-1.54564 6.58627-2.48698s3.89246-1.99946 5.60636-3.18634c1.7139-1.18686 3.27671-2.50267 4.70127-3.9604 1.42456-1.45772 2.71102-3.05721 3.87097-4.81111 1.15995-1.75391 2.19353-3.66114 3.1136-5.73655 0.92008-2.07542 1.72614-4.31831 2.43105-6.74054 0.70491-2.42225 1.30881-5.02486 1.82328-7.81927 0.51448-2.7944 0.93969-5.78082 1.28846-8.9727 0.34877-3.19189 0.62064-6.58809 0.82842-10.20278 0.38987-6.78209 0.51984-14.49382 0.53858-22.89256z" style="fill:#ffffff;opacity:.1"/>
  </g>
  <path transform="matrix(.26458333 0 0 .26458333 0 229.26666)" d="m175.42969 240.05078c5.17136-0.08821 10.66447-0.09962 15.15429-0.36328 3.68838-0.21659 7.15505-0.49967 10.41211-0.86328 3.25707-0.36361 6.30468-0.8073 9.15625-1.34375 2.85158-0.53645 5.50661-1.16724 7.97852-1.90235 2.47191-0.7351 4.76084-1.57558 6.87891-2.53515s4.06541-2.03819 5.85546-3.24805c1.79006-1.20985 3.4223-2.55115 4.91016-4.03711s2.83148-3.11642 4.04297-4.90429c1.21149-1.78788 2.291-3.73205 3.25195-5.84766s1.80283-4.40194 2.53907-6.87109c0.73623-2.46916 1.36696-5.12218 1.90429-7.97071 0.53734-2.84852 0.98144-5.89278 1.34571-9.14648 0.36426-3.25371 0.64821-6.71569 0.86523-10.40039 0.43404-7.36941 0.59961-15.62671 0.59961-24.875v-59.251956c0-9.248329-0.16557-17.505574-0.59961-24.875-0.21702-3.684713-0.50097-7.146678-0.86523-10.40039-0.36427-3.253712-0.80837-6.297957-1.34571-9.146485-0.53733-2.848527-1.16806-5.501544-1.90429-7.970703-0.73624-2.469159-1.57812-4.755486-2.53907-6.871094-0.96095-2.115607-2.04046-4.059783-3.25195-5.847656-1.21149-1.787872-2.55511-3.418343-4.04297-4.904297-1.48786-1.485953-3.1201-2.827257-4.91016-4.037109-1.79005-1.209852-3.73739-2.288481-5.85546-3.248047s-4.407-1.800059-6.87891-2.535156-5.12694-1.365899-7.97852-1.902344c-2.85157-0.536445-5.89918-0.980141-9.15625-1.34375-3.25706-0.363609-6.72373-0.646692-10.41211-0.863281-7.37676-0.433179-15.64147-0.597656-24.89843-0.597656h-75.271488c-0.081699 7.817948-0.167968 17.86171-0.167968 39.691406v52.330078l2.1875 0.60547c2.888345 0.79907 7.416931 0.34172 10.007816-1.00977 2.7898-1.45519 4.33917-3.44949 6.04297-7.781247 4.16128-10.579238 5.9216-12.828008 10.87109-13.878906 10.77981-2.287786 18.09673 8.026427 17.01172 23.982423-0.38173 5.6135-1.17857 8.97557-3.96485 16.72266-3.10593 8.63609-4.0642 13.36665-4.06836 20.09179-7e-3 10.97518 2.51843 17.3131 12.00977 30.13477 10.40439 14.05523 15.67346 23.31264 18.61914 32.71875 1.67611 5.35181 2.30822 15.47716 1.32617 21.24219-0.67443 3.95925-2.43793 9.04088-4.40429 13.48828h9.80078c2.11092 0 3.66873-0.11834 5.67773-0.13672 0.91823-0.44536 2.37693-0.38253 4.06641-0.09766z" style="fill:#233190"/>
  <path d="m32.488908 253.40479c-0.453123 0.0146-0.951596 0.65651-1.236052 1.63296-0.318324 1.0928-1.140166 2.41376-1.946772 3.13236-1.131578 1.00812-2.924853 1.55492-4.55198 1.38753l-0.850979-0.0874-0.0024 0.94284c-0.0024 1.11121-0.06831 1.25177-0.686958 1.43618-1.289473 0.38453-5.979114 0.26318-6.486871-0.16781-0.130782-0.11117-0.175907-0.70092-0.175907-2.27212 0-1.5325-0.04832-2.16276-0.171165-2.26237-0.297819-0.24132-1.591235-0.48692-2.07751-0.39383-1.04 0.19956-1.149417 1.18211-0.33753 3.02539 1.111191 2.52288 1.103341 3.9108-0.0451 7.77371-0.994232 3.34409-1.26121 4.8915-1.045883 6.05812 0.08746 0.47386 0.357524 1.2303 0.601388 1.68156 0.367892 0.68088 0.570338 0.88746 1.181367 1.20533 1.072198 0.55778 1.866519 0.65859 5.146245 0.66337 3.442862 3e-3 4.533606 0.12556 6.0804 0.67069 2.790435 0.98329 5.437185 3.41598 7.62784 7.01069 1.045678 1.71592 1.64852 2.47045 2.158329 2.69735 1.163568 0.51794 3.032082-0.16358 3.558391-1.29762 0.394349-0.84956 0.223051-2.25292-0.449262-3.66938-0.774932-1.63264-2.234308-4.07616-4.188296-7.01553-1.792832-2.69695-2.320412-3.6673-2.762091-5.08126-0.921823-2.95093-0.870832-5.32508 0.18065-8.60477 1.487055-4.63822 1.754388-8.00695 0.670319-8.43225-0.06212-0.0233-0.125443-0.0372-0.190176-0.0325zm-17.25 19.23622h9.130115l0.413598 0.3571c0.521987 0.44918 0.665861 1.12052 0.366078 1.71317-0.420758 0.83184-0.570506 0.85537-5.348278 0.84565-2.381599-3e-3 -4.460374-0.0638-4.618542-0.12881-0.461585-0.19071-0.869987-0.82845-0.869987-1.35837 0-0.36316 0.115135-0.59885 0.463492-0.95503z" style="fill:#ffffff"/>
  <path d="m24.85593 284.36268c0.876492-0.425 1.172828-1.30855 0.743284-2.21567-0.485563-1.02544-0.580902-1.04374-5.439956-1.04374-4.598752 0-4.717358 0.0182-5.305329 0.78167-0.347155 0.45102-0.379611 1.38388-0.06421 1.84426 0.121089 0.17665 0.412158 0.44081 0.646809 0.58727 0.395977 0.24689 0.733427 0.26597 4.695457 0.26641 3.616187 4.2e-4 4.33838-0.0325 4.723955-0.22039z" style="fill:#ffffff"/>
  <path transform="matrix(.26458333 0 0 .26458333 0 229.26666)" d="m61.464844 12.873047c-1.669967 0.127721-3.363844 0.246746-4.9375 0.408203-9.62e-4 5.69e-4 -0.004893 0.001385-0.00586 0.001953-0.576803 0.338836-2.231877 0.470332-4.271484 0.529297-2.190262 0.288697-4.408436 0.564355-6.402344 0.939453-2.851576 0.536445-5.506604 1.167247-7.978515 1.902344s-4.760837 1.57559-6.878907 2.535156-4.065415 2.038195-5.855468 3.248047c-1.790054 1.209852-3.422296 2.551156-4.910157 4.037109-1.487861 1.485954-2.831475 3.116425-4.042968 4.904297-1.211493 1.787873-2.291004 3.732049-3.251953 5.847656-0.96095 2.115608-1.802833 4.401935-2.539063 6.871094-0.7362302 2.469159-1.3669615 5.122176-1.9042969 7.970703-0.5373354 2.848528-0.9814381 5.892773-1.3457031 9.146485s-0.6482155 6.715677-0.8652344 10.40039c-0.4340378 7.369426-0.5996093 15.626672-0.5996094 24.875v59.251956c0 9.196 0.1671368 17.39665 0.5957032 24.73437 1.893e-4 3.1e-4 -1.903e-4 0.00165 0 0.00196 0.1441285 0.23232 0.5651529 1.16015 0.609375 1.16015 0.6657883 0 10.333258-20.38507 11.603516-24.46679 3.676854-11.81553 3.037497-18.87879-3.566406-39.36719-1.569397-4.86902-3.304863-10.66985-3.855469-12.89063-3.3921682-13.682149-2.4597527-24.790332 3.035156-36.187498 4.453243-9.236484 10.919294-14.099697 17.425782-13.101562 5.540743 0.849373 10.242248 4.877424 11.708984 10.035156 0.508093 1.786243 0.984906 6.15631 1.195312 10.939453 0.306316 6.965821 0.506528 8.283422 1.601563 10.50586 2.466308 5.005379 8.529838 8.977575 13.234375 8.669922l2.46289-0.158203 0.13086-42.486329c0.09177-29.625177-0.02926-38.081267-0.392578-40.257812z" style="fill:#233190"/>
  <path transform="matrix(.13485389 0 0 .13485389 -4.9712555 261.01666)" d="M 361.9375,-212 C 507.2348,-212 528,-191.28677 528,-46.125 V 70.125 C 528,215.28618 507.2348,236 361.9375,236 H 214.0625 C 68.7652,236 48,215.28618 48,70.125 V -46.125 C 48,-191.28677 68.7652,-212 214.0625,-212 Z" clip-path="url(#clipPath1082-3-61)" style="fill:none;opacity:.4;stroke-linecap:round;stroke-linejoin:round;stroke-width:8;stroke:url(#linearGradient1108)"/>
  <g transform="matrix(.26970778 0 0 .26970778 -7.1316067 220.5262)" clip-path="url(#clipPath1064)" style="enable-background:new">
   <path transform="matrix(.98100001 0 0 .98100001 26.441976 32.407148)" d="m110.41797 11.908203-0.02149 0.039063h48.42188c-0.5878-0.003187-1.01961-0.039063-1.62305-0.039063h-46.77734z" style="fill:#f0f0f0;opacity:.2"/>
   <path d="m271.67136 125.65857c-0.0187-8.39877-0.14871-16.11044-0.53858-22.89256-0.20778-3.614698-0.47965-7.010888-0.82842-10.202778-0.34877-3.191892-0.77398-6.178297-1.28846-8.972702-0.51447-2.794405-1.11837-5.397015-1.82328-7.81926s-1.51097-4.665132-2.43105-6.740543c-0.92007-2.075411-1.95365-3.982647-3.1136-5.736551-1.15995-1.753902-2.44641-3.353394-3.87097-4.811115-1.42456-1.45772-2.98737-2.773539-4.70127-3.960404s-3.5784-2.245-5.60636-3.186334c-2.02796-0.941335-4.21951-1.765858-6.58627-2.486988-2.36674-0.721131-4.90882-1.339947-7.63909-1.8662-2.73025-0.526252-5.64822-0.961518-8.76673-1.318219-3.11849-0.3567-6.43768-0.634405-9.96915-0.846878-4.07054-0.244909-9.08457-0.247714-13.73913-0.337219l-113.68128 222.5203c2.443919 0.24308 4.893175 0.48228 7.577385 0.64379 7.062939 0.42495 14.976039 0.5863 23.839189 0.5863h72.16464c8.86315 0 16.77626-0.16135 23.8392-0.5863 3.53147-0.21248 6.85066-0.49018 9.96915-0.84688 3.11851-0.3567 6.03648-0.79196 8.76673-1.31822 2.73027-0.52626 5.27235-1.14506 7.63909-1.86621 2.36676-0.72113 4.55831-1.54564 6.58627-2.48698s3.89246-1.99946 5.60636-3.18634c1.7139-1.18686 3.27671-2.50267 4.70127-3.9604 1.42456-1.45772 2.71102-3.05721 3.87097-4.81111 1.15995-1.75391 2.19353-3.66114 3.1136-5.73655 0.92008-2.07542 1.72614-4.31831 2.43105-6.74054 0.70491-2.42225 1.30881-5.02486 1.82328-7.81927 0.51448-2.7944 0.93969-5.78082 1.28846-8.9727 0.34877-3.19189 0.62064-6.58809 0.82842-10.20278 0.38987-6.78209 0.51984-14.49382 0.53858-22.89256z" style="fill:#ffffff;opacity:.05"/>
  </g>
  <g transform="matrix(.26970778 0 0 .26970778 -7.1316067 220.5262)" clip-path="url(#clipPath1064)" style="enable-background:new">
   <path transform="matrix(.98100001 0 0 .98100001 26.441976 32.407148)" d="m110.41797 11.908203-0.02149 0.039063h48.42188c-0.5878-0.003187-1.01961-0.039063-1.62305-0.039063h-46.77734z" style="fill:#f0f0f0;opacity:.2"/>
  </g>
 </g>
</svg>
