<svg width="256" height="256" style="enable-background:new" version="1.0" xmlns="http://www.w3.org/2000/svg" xmlns:xlink="http://www.w3.org/1999/xlink">
 <defs>
  <filter id="filter925" x="-.02" y="-.03" width="1.046" height="1.05" style="color-interpolation-filters:sRGB">
   <feGaussianBlur stdDeviation="2.32"/>
  </filter>
  <filter id="filter931" x="-.01" y="-.01" width="1.023" height="1.025" style="color-interpolation-filters:sRGB">
   <feGaussianBlur stdDeviation="1.16"/>
  </filter>
  <linearGradient id="linearGradient1108" x1="296" x2="296" y1="-212" y2="236" gradientUnits="userSpaceOnUse">
   <stop style="stop-color:#ffffff" offset="0"/>
   <stop style="stop-color:#ffffff;stop-opacity:.09803922" offset=".125"/>
   <stop style="stop-color:#000000;stop-opacity:.09803922" offset=".925"/>
   <stop style="stop-color:#000000;stop-opacity:.49803922" offset="1"/>
  </linearGradient>
  <clipPath id="clipPath1082-3">
   <path d="M 361.9375,-212 C 507.2348,-212 528,-191.28677 528,-46.125 V 70.125 C 528,215.28618 507.2348,236 361.9375,236 H 214.0625 C 68.7652,236 48,215.28618 48,70.125 V -46.125 C 48,-191.28677 68.7652,-212 214.0625,-212 Z" style="fill:#8c59d9"/>
  </clipPath>
 </defs>
 <g transform="translate(0,-44)">
  <path d="m162.53675 62.431991c72.64865 0 83.03125 10.356615 83.03125 82.937499v58.125c0 72.58059-10.3826 82.9375-83.03125 82.9375h-73.9375c-72.64865 0-83.03125-10.35691-83.03125-82.9375v-58.125c0-72.580884 10.3826-82.937499 83.03125-82.937499z" style="filter:url(#filter925);opacity:.2"/>
  <path d="m162.53675 61.431991c72.64865 0 83.03125 10.356615 83.03125 82.937499v58.125c0 72.58059-10.3826 82.9375-83.03125 82.9375h-73.9375c-72.64865 0-83.03125-10.35691-83.03125-82.9375v-58.125c0-72.580884 10.3826-82.937499 83.03125-82.937499z" style="filter:url(#filter931);opacity:.1"/>
  <path d="m162.53675 60.431991c72.64865 0 83.03125 10.356615 83.03125 82.937499v58.125c0 72.58059-10.3826 82.9375-83.03125 82.9375h-73.9375c-72.64865 0-83.03125-10.35691-83.03125-82.9375v-58.125c0-72.580884 10.3826-82.937499 83.03125-82.937499z" style="fill:#343434"/>
  <path transform="matrix(.5 0 0 .5 -18.432 166.43199)" d="M 361.9375,-212 C 507.2348,-212 528,-191.28677 528,-46.125 V 70.125 C 528,215.28618 507.2348,236 361.9375,236 H 214.0625 C 68.7652,236 48,215.28618 48,70.125 V -46.125 C 48,-191.28677 68.7652,-212 214.0625,-212 Z" clip-path="url(#clipPath1082-3)" style="fill:none;opacity:.4;stroke-linecap:round;stroke-linejoin:round;stroke-width:8;stroke:url(#linearGradient1108)"/>
 </g>
 <g transform="matrix(5.330883,0,0,5.330883,-404.62702,-117.72025)">
  <g transform="translate(3.2285214e-6,1.8758603)">
   <rect x="81.79" y="34.2" width="35.336" height="24.71" rx="1.326" ry="1.326" style="fill-rule:evenodd;fill:#ffffff;stroke-linecap:round;stroke-linejoin:round;stroke-width:2.1812139;stroke:#343434"/>
   <path d="m86.197536 37.299204c-0.734373 0-1.325582 0.59121-1.325582 1.325582v15.877569c0 0.734373 0.591209 1.325583 1.325582 1.325583h22.061514c0.73438 0 1.32559-0.59121 1.32559-1.325583v-15.877569c0-0.734372-0.59121-1.325582-1.32559-1.325582z" style="fill-rule:evenodd;fill:#343434;stroke-linecap:round;stroke-linejoin:round;stroke-width:1.3087269;stroke:#343434"/>
   <path d="m105.00754 55.016927c-0.76513-2.379151-2.00926-4.679659-4.04521-5.943351-2.04971-0.08912-4.630479 0-7.125789 0-2.209779 1.176174-3.551885 3.51262-4.387497 5.943351" style="fill-rule:evenodd;fill:#ffffff;stroke-linecap:round;stroke-linejoin:round;stroke-width:1.7449719;stroke:#343434"/>
   <path d="m103.55582 44.437738c0 3.49279-2.83473 6.327519-6.32752 6.327519s-6.327518-2.834729-6.327518-6.327519 2.834728-6.327518 6.327518-6.327518 6.32752 2.834728 6.32752 6.327518z" style="fill-rule:evenodd;fill:#ffffff;stroke-linecap:round;stroke-linejoin:round;stroke-width:1.7449719;stroke:#343434"/>
   <g transform="matrix(.66279127 0 0 .66279127 79.392959 22.073219)" style="fill:#343434;stroke:#343434">
    <path d="m52.9535 24.53592c0 1.097-0.88971 1.98731-1.98596 1.98731s-1.98596-0.89031-1.98596-1.98731c0-1.09699 0.88971-1.98731 1.98596-1.98731s1.98596 0.89032 1.98596 1.98731z" style="fill-rule:evenodd;fill:#343434;stroke-linecap:round;stroke-linejoin:round;stroke-width:1.08173;stroke:#343434"/>
    <path d="m52.9535 36.83673c0 1.09699-0.88971 1.98731-1.98596 1.98731s-1.98596-0.89032-1.98596-1.98731c0-1.097 0.88971-1.98731 1.98596-1.98731s1.98596 0.89031 1.98596 1.98731z" style="fill-rule:evenodd;fill:#343434;stroke-linecap:round;stroke-linejoin:round;stroke-width:1.08173;stroke:#343434"/>
    <path d="m52.9535 30.68632c0 1.097-0.88971 1.98731-1.98596 1.98731s-1.98596-0.89031-1.98596-1.98731c0-1.09699 0.88971-1.98731 1.98596-1.98731s1.98596 0.89032 1.98596 1.98731z" style="fill-rule:evenodd;fill:#343434;stroke-linecap:round;stroke-linejoin:round;stroke-width:1.08173;stroke:#343434"/>
   </g>
  </g>
  <g transform="translate(.64371405)">
   <path d="m98.107008 37.495096-6.714145-8.358411" style="fill-rule:evenodd;fill:#ffffff;stroke-width:1.0631876;stroke:#ffffff"/>
   <path d="m99.203188 37.906168 7.125222-8.906506" style="fill-rule:evenodd;fill:#ffffff;stroke-width:1.0631876;stroke:#ffffff"/>
   <path d="m92.215011 29.068174c0 0.416002-0.337631 0.753627-0.753633 0.753627-0.416 0-0.753627-0.337625-0.753627-0.753627 0-0.416003 0.337627-0.753627 0.753627-0.753627 0.416002 0 0.753633 0.337624 0.753633 0.753627z" style="fill-rule:evenodd;fill:#ffffff;stroke-linecap:round;stroke-linejoin:round;stroke-width:1.0631876;stroke:#ffffff"/>
   <path d="m106.91934 28.931151c0 0.416002-0.33765 0.753627-0.75365 0.753627-0.41599 0-0.75361-0.337625-0.75361-0.753627 0-0.416003 0.33762-0.75363 0.75361-0.75363 0.416 0 0.75365 0.337627 0.75365 0.75363z" style="fill-rule:evenodd;fill:#ffffff;stroke-linecap:round;stroke-linejoin:round;stroke-width:1.0631876;stroke:#ffffff"/>
  </g>
 </g>
</svg>
