<svg xmlns="http://www.w3.org/2000/svg" xmlns:xlink="http://www.w3.org/1999/xlink" width="256" height="256" version="1.0" style="enable-background:new">
 <defs>
  <filter style="color-interpolation-filters:sRGB" id="filter925" width="1.046" height="1.05" x="-.02" y="-.03">
   <feGaussianBlur stdDeviation="2.32"/>
  </filter>
  <filter style="color-interpolation-filters:sRGB" id="filter931" width="1.023" height="1.025" x="-.01" y="-.01">
   <feGaussianBlur stdDeviation="1.16"/>
  </filter>
  <linearGradient id="linearGradient1108" x1="296" x2="296" y1="-212" y2="236" gradientUnits="userSpaceOnUse" xlink:href="#linearGradient1013"/>
  <linearGradient id="linearGradient1013">
   <stop offset="0" style="stop-color:#ffffff"/>
   <stop style="stop-color:#ffffff;stop-opacity:0.09803922" offset=".125"/>
   <stop style="stop-color:#000000;stop-opacity:0.09803922" offset=".925"/>
   <stop offset="1" style="stop-color:#000000;stop-opacity:0.49803922"/>
  </linearGradient>
  <clipPath id="clipPath1082-3" clipPathUnits="userSpaceOnUse">
   <path d="M 361.9375,-212 C 507.2348,-212 528,-191.28677 528,-46.125 V 70.125 C 528,215.28618 507.2348,236 361.9375,236 H 214.0625 C 68.7652,236 48,215.28618 48,70.125 V -46.125 C 48,-191.28677 68.7652,-212 214.0625,-212 Z" style="fill:#8c59d9"/>
  </clipPath>
 </defs>
 <g transform="translate(0,-44)">
  <g>
   <g>
    <path d="m 162.53675,62.431991 c 72.64865,0 83.03125,10.356615 83.03125,82.937499 v 58.125 c 0,72.58059 -10.3826,82.9375 -83.03125,82.9375 h -73.9375 c -72.64865,0 -83.0312501,-10.35691 -83.0312501,-82.9375 v -58.125 c 0,-72.580884 10.3826001,-82.937499 83.0312501,-82.937499 z" style="opacity:0.2;filter:url(#filter925)"/>
    <path style="opacity:0.1;filter:url(#filter931)" d="m 162.53675,61.431991 c 72.64865,0 83.03125,10.356615 83.03125,82.937499 v 58.125 c 0,72.58059 -10.3826,82.9375 -83.03125,82.9375 h -73.9375 c -72.64865,0 -83.0312501,-10.35691 -83.0312501,-82.9375 v -58.125 c 0,-72.580884 10.3826001,-82.937499 83.0312501,-82.937499 z"/>
   </g>
   <g>
    <path style="fill:#fd8832" d="m 162.53675,60.431991 c 72.64865,0 83.03125,10.356615 83.03125,82.937499 v 58.125 c 0,72.58059 -10.3826,82.9375 -83.03125,82.9375 h -73.9375 c -72.64865,0 -83.0312501,-10.35691 -83.0312501,-82.9375 v -58.125 c 0,-72.580884 10.3826001,-82.937499 83.0312501,-82.937499 z"/>
    <path style="fill:#fbfdce" d="M 125.568,82.432019 A 90.000006,90.000006 0 0 0 35.567996,172.43201 90.000006,90.000006 0 0 0 125.568,262.43194 90.000006,90.000006 0 0 0 215.56801,172.43201 90.000006,90.000006 0 0 0 125.568,82.432019 Z m 3.08081,16.218103 c 1.2887,-0.04535 2.68896,-0.04535 4.16323,0 8.84556,0.276662 20.1889,2.384388 24.07278,8.280268 3.20816,4.8695 -1.01333,9.8559 -3.3676,13.81265 -5.82725,9.79382 -10.96064,20.41399 -16.6067,30.41942 -1.53396,2.71846 -7.21542,12.04962 -10.89845,7.392 -7.83557,-9.91019 -10.14004,-30.66788 -11.3055,-42.86287 -0.37152,-3.88886 -1.65827,-9.9454 0.18497,-13.57212 1.58643,-3.122349 7.26207,-2.850412 10.27857,-3.210337 1.01283,-0.120189 2.18993,-0.213165 3.47863,-0.259275 z m -32.186484,6.337328 c 1.63313,0.0998 3.20527,0.61232 4.635074,1.68389 5.12409,3.84196 6.61906,11.94901 8.27097,17.63357 2.14246,7.37461 5.07277,14.09019 6.49466,21.73217 0.62642,3.36491 4.6805,11.66702 0.10167,13.72014 -3.3083,1.48433 -8.37677,-2.2049 -11.27777,-3.4786 -10.182304,-4.47126 -20.690614,-11.36512 -29.466514,-18.23501 -13.88885,-10.8717 -3.16956,-19.80503 7.34584,-27.42187 3.57437,-2.58924 8.99651,-5.93454 13.89596,-5.63429 z m 75.067844,9.32571 c 8.40308,-0.82481 13.70872,8.26817 18.1147,13.87741 3.30405,4.20729 9.18574,14.06369 6.0136,19.43773 -2.09816,3.55396 -6.89404,4.23787 -10.4081,5.55103 -9.13544,3.41416 -18.43388,6.96665 -28.02324,9.13134 -3.74811,0.8457 -18.94959,6.28558 -21.51933,2.86805 -1.25795,-1.67297 0.68569,-4.82744 1.45251,-6.36517 2.96867,-5.95355 7.38588,-10.53313 10.86143,-16.0701 4.7972,-7.64417 10.65202,-14.22543 16.08861,-21.33434 2.1097,-2.75849 3.4487,-6.70677 7.41982,-7.09595 z M 62.906596,145.82429 c 12.12026,-0.48378 27.14799,8.80252 37.07133,13.98849 3.611104,1.88719 8.528404,3.09241 11.435074,6.08753 4.7903,4.9375 -3.3584,8.23589 -7.15154,8.97407 -12.222204,2.37933 -24.577874,3.76256 -36.812294,5.97661 -3.9722,0.71883 -11.78435,2.43484 -14.96917,-1.00849 -7.93988,-8.58524 -4.21447,-31.85178 8.03969,-33.78701 0.77975,-0.12322 1.57891,-0.19881 2.38691,-0.23131 z m 130.707244,17.02299 c 1.10817,0.0454 2.16181,0.2555 3.10857,0.69392 10.87264,5.03895 5.94368,31.29207 -4.57035,34.22181 -7.18165,2.00104 -15.75035,-2.35094 -22.12066,-5.25498 -8.23764,-3.7553 -16.87466,-6.15874 -24.74814,-10.76885 -2.37027,-1.3883 -7.86773,-4.65426 -5.94881,-8.01192 2.15919,-3.77794 9.05501,-4.08072 12.721,-4.87567 10.3828,-2.25093 20.90223,-3.20829 31.46485,-4.54257 2.94567,-0.37191 6.7691,-1.60774 10.09354,-1.46174 z m -86.94694,16.0331 c 2.3184,-0.11565 4.35016,0.13909 5.80076,0.97145 5.48411,3.14634 -1.70253,11.39872 -3.51559,14.68233 -5.80277,10.50883 -13.412214,21.51572 -20.760714,30.99303 -2.83844,3.66078 -6.67292,7.90141 -11.84209,5.19942 -8.19961,-4.28689 -14.83794,-15.59969 -18.29977,-23.77674 -1.32476,-3.12903 -3.29827,-7.58184 -0.95294,-10.67641 5.4862,-7.237 20.74806,-9.43464 28.78188,-11.99935 4.28769,-1.36872 13.83326,-5.0459 20.788464,-5.39373 z m 30.4379,4.67202 c 3.30892,0.39311 7.59702,3.38453 9.5477,4.50558 9.95538,5.72232 20.78766,11.62288 29.18894,19.35443 1.83007,1.68435 4.96021,2.37555 6.39289,4.37605 2.00269,2.79647 0.51371,8.80698 -1.24898,11.41659 -4.46481,6.61032 -24.89563,21.45797 -31.78865,12.57298 -8.25343,-10.63699 -10.76354,-25.46188 -13.8127,-38.32959 -0.70329,-2.96666 -4.1896,-10.80332 -1.13795,-13.25764 0.76082,-0.61152 1.75577,-0.76939 2.85875,-0.63874 z m -14.07177,2.93284 c 0.33237,-0.0529 0.64873,-0.0454 0.9622,0.0302 2.41327,0.56617 3.42117,4.22181 4.33901,6.14317 3.12617,6.54402 4.64486,13.09636 6.04133,20.23332 1.43618,7.3375 7.01419,22.31418 2.92351,29.25369 -3.71363,6.3007 -21.25265,3.82806 -27.09808,2.44241 -4.7536,-1.1263 -12.504434,-2.00855 -15.237444,-6.61493 -2.11779,-3.5709 0.65922,-7.11685 2.23891,-10.23228 3.911304,-7.71518 8.243764,-15.11002 12.221404,-22.80532 1.74739,-3.38011 8.62423,-17.64768 13.60916,-18.4478 z"/>
    <g transform="matrix(1.8000001,0,0,1.8000001,3.0237259,56.210993)">
     <path style="opacity:0.1;fill:#ffffff" d="m 68.080148,14.567214 c 27.614253,0 50.000002,22.385751 50.000002,50 0,27.614252 -22.385749,50.000006 -50.000002,50.000006 -27.614233,0 -50.000001,-22.385754 -50.000001,-50.000006 0,-27.614249 22.385768,-50 50.000001,-50 z"/>
     <path d="m 68.011979,28.836616 c 19.724464,0 35.714281,15.989821 35.714281,35.714286 0,19.724465 -15.989817,35.714288 -35.714281,35.714288 -19.724454,0 -35.714284,-15.989823 -35.714284,-35.714288 0,-19.724465 15.98983,-35.714286 35.714284,-35.714286 z" style="opacity:0.1;fill:#ffffff"/>
     <circle cx="68.012" cy="64.551" r="20.759" style="opacity:0.1;fill:#ffffff"/>
    </g>
    <path style="opacity:0.1;fill:#ffffff" d="m 88.599246,284.43196 c -72.64865,0 -83.0312501,-10.35662 -83.0312501,-82.9375 V 172.43198 H 245.568 v 29.06248 c 0,72.58088 -10.3826,82.9375 -83.03124,82.9375 z"/>
   </g>
   <g>
    <path d="M 361.9375,-212 C 507.2348,-212 528,-191.28677 528,-46.125 V 70.125 C 528,215.28618 507.2348,236 361.9375,236 H 214.0625 C 68.7652,236 48,215.28618 48,70.125 V -46.125 C 48,-191.28677 68.7652,-212 214.0625,-212 Z" clip-path="url(#clipPath1082-3)" transform="matrix(0.5,0,0,0.5,-18.432,166.43199)" style="opacity:0.4;fill:none;stroke:url(#linearGradient1108);stroke-width:8;stroke-linecap:round;stroke-linejoin:round"/>
   </g>
  </g>
 </g>
</svg>
