<svg xmlns="http://www.w3.org/2000/svg" xmlns:xlink="http://www.w3.org/1999/xlink" width="256" height="256" version="1.1" viewBox="0 0 67.73 67.73">
 <defs>
  <linearGradient id="linearGradient1108" x1="296" x2="296" y1="-212" y2="236" gradientUnits="userSpaceOnUse" xlink:href="#linearGradient1013"/>
  <linearGradient id="linearGradient1013">
   <stop offset="0" style="stop-color:#ffffff"/>
   <stop style="stop-color:#ffffff;stop-opacity:0.09803922" offset=".125"/>
   <stop style="stop-color:#000000;stop-opacity:0.09803922" offset=".925"/>
   <stop offset="1" style="stop-color:#000000;stop-opacity:0.49803922"/>
  </linearGradient>
  <clipPath id="clipPath1082-3-452" clipPathUnits="userSpaceOnUse">
   <path d="M 361.9375,-212 C 507.2348,-212 528,-191.28677 528,-46.125 V 70.125 C 528,215.28618 507.2348,236 361.9375,236 H 214.0625 C 68.7652,236 48,215.28618 48,70.125 V -46.125 C 48,-191.28677 68.7652,-212 214.0625,-212 Z" style="fill:#8c59d9"/>
  </clipPath>
  <linearGradient id="linearGradient1137" x1="156.83" x2="156.247" y1="63.099" y2="258.281" gradientTransform="matrix(0.26970778,0,0,0.26970778,-7.1311877,220.56049)" gradientUnits="userSpaceOnUse" xlink:href="#linearGradient3115"/>
  <filter style="color-interpolation-filters:sRGB" id="filter1112" width="1.046" height="1.05" x="-.02" y="-.03">
   <feGaussianBlur stdDeviation="2.32"/>
  </filter>
  <filter style="color-interpolation-filters:sRGB" id="filter4569" width="1.023" height="1.025" x="-.01" y="-.01">
   <feGaussianBlur stdDeviation="1.16"/>
  </filter>
  <linearGradient id="linearGradient3115" x1="44.237" x2="44.237" y1="1046.3" y2="960.21" gradientTransform="matrix(1.5,0,0,-1.5252,0.0053559,1941.6)" gradientUnits="userSpaceOnUse">
   <stop style="stop-color:#f79810" offset="0"/>
   <stop style="stop-color:#f8310e" offset="1"/>
  </linearGradient>
  <filter style="color-interpolation-filters:sRGB" id="filter3860">
   <feGaussianBlur stdDeviation=".92"/>
  </filter>
  <linearGradient id="linearGradient3117" x1="46.493" x2="46.493" y2="53.006" gradientTransform="matrix(1.3448407,0,0,1.3867,154.87678,406.59548)" gradientUnits="userSpaceOnUse">
   <stop style="stop-color:#f6f6f6" offset="0"/>
   <stop style="stop-color:#e2e2e2" offset="1"/>
  </linearGradient>
 </defs>
 <g transform="translate(0,-229.26666)">
  <path d="m 188.96876,43.999995 c 72.64865,0 83.03125,10.356615 83.03125,82.937505 v 58.125 c 0,72.58059 -10.3826,82.9375 -83.03125,82.9375 h -73.9375 C 42.382606,268 32.000006,257.64309 32.000006,185.0625 v -58.125 c 0,-72.58089 10.3826,-82.937505 83.031254,-82.937505 z" transform="matrix(0.26970778,0,0,0.26970778,-7.1289177,220.56049)" style="opacity:0.1;filter:url(#filter4569)"/>
  <path style="opacity:0.2;filter:url(#filter1112)" d="m 188.96876,45.999995 c 72.64865,0 83.03125,10.356615 83.03125,82.937505 v 58.125 c 0,72.58059 -10.3826,82.9375 -83.03125,82.9375 h -73.9375 C 42.382606,270 32.000006,259.64309 32.000006,187.0625 v -58.125 c 0,-72.58089 10.3826,-82.937505 83.031254,-82.937505 z" transform="matrix(0.26970778,0,0,0.26970778,-7.1289177,220.56049)"/>
  <path style="fill:url(#linearGradient1137)" d="m 43.835156,232.42763 c 19.593907,0 22.394175,2.79326 22.394175,22.36889 v 15.67677 c 0,19.57555 -2.800268,22.36888 -22.394175,22.36888 h -19.94152 c -19.5939063,0 -22.3941744,-2.79333 -22.3941744,-22.36888 v -15.67677 c 0,-19.57563 2.8002681,-22.36889 22.3941744,-22.36889 z"/>
  <path d="M 361.9375,-212 C 507.2348,-212 528,-191.28677 528,-46.125 V 70.125 C 528,215.28618 507.2348,236 361.9375,236 H 214.0625 C 68.7652,236 48,215.28618 48,70.125 V -46.125 C 48,-191.28677 68.7652,-212 214.0625,-212 Z" clip-path="url(#clipPath1082-3-452)" transform="matrix(0.13485389,0,0,0.13485389,-4.9712557,261.01666)" style="opacity:0.4;fill:none;stroke:url(#linearGradient1108);stroke-width:8;stroke-linecap:round;stroke-linejoin:round"/>
  <g transform="matrix(0.12112427,0,0,0.12112427,-62.179472,226.23269)">
   <g transform="matrix(3.5553,0,0,3.5522,19.538498,-1259.3669)">
    <g transform="translate(0.13307755,4.5448105)">
     <path d="m 153.37319,440.08548 c -0.26705,0 -0.47905,0.20802 -0.51346,0.50476 l -0.93607,7.1624 0.93607,7.0391 c 0.0344,0.2967 0.2464,0.5034 0.51346,0.5034 0.25879,0 0.46941,-0.2053 0.51071,-0.5006 l 1.1095,-7.0419 -1.1095,-7.1638 c -0.0399,-0.29536 -0.25329,-0.50338 -0.51071,-0.50338 z m 5.264,-3.9134 c -0.044,-0.30784 -0.26292,-0.52001 -0.53273,-0.52001 -0.27118,0 -0.49556,0.2191 -0.53273,0.52001 0,0.003 -1.2582,11.581 -1.2582,11.581 l 1.2582,11.324 c 0.0358,0.3037 0.26017,0.5227 0.53273,0.5227 0.26843,0 0.4873,-0.2135 0.53135,-0.5199 l 1.4316,-11.327 z m 19.828,-10.682 c -0.51621,0 -0.94295,0.42573 -0.96773,0.96655 l -1.0021,21.306 1.0021,13.769 c 0.0262,0.5381 0.45151,0.9624 0.96773,0.9624 0.51346,0 0.93882,-0.4256 0.9691,-0.9651 v 0.01 l 1.1329,-13.77 -1.1329,-21.306 c -0.0303,-0.54083 -0.45564,-0.96655 -0.9691,-0.96655 z m -10.262,7.4052 c -0.39645,0 -0.71994,0.31893 -0.7516,0.74465 l -1.1288,14.117 1.1288,13.658 c 0.0303,0.423 0.35515,0.7419 0.7516,0.7419 0.39232,0 0.71582,-0.3189 0.75023,-0.7419 l 1.283,-13.658 -1.283,-14.12 c -0.0344,-0.42296 -0.35791,-0.74189 -0.75023,-0.74189 z m 20.691,29.597 c 0.6401,0 1.1604,-0.52 1.1866,-1.1856 l 0.98287,-13.537 -0.98149,-28.366 c -0.0261,-0.66562 -0.5465,-1.1856 -1.1866,-1.1856 -0.6456,0 -1.1673,0.52139 -1.188,1.187 0,0.002 -0.87136,28.363 -0.87136,28.363 l 0.87136,13.543 c 0.0207,0.6602 0.54237,1.1816 1.1866,1.1816 z m 21.351,0.063 c 0.881,0 1.6078,-0.7308 1.6243,-1.6294 v 0.01 -0.01 l 0.68553,-13.149 -0.68553,-32.76 c -0.0151,-0.89721 -0.74335,-1.6294 -1.6243,-1.6294 -0.88238,0 -1.6106,0.7308 -1.6243,1.6308 l -0.61257,32.748 c 0,0.0209 0.61257,13.168 0.61257,13.168 0.0138,0.8903 0.74334,1.6211 1.6243,1.6211 z m -10.756,-0.051 c 0.76675,0 1.3848,-0.6199 1.4055,-1.4104 v 0.01 l 0.8342,-13.332 -0.83558,-28.571 c -0.0207,-0.79044 -0.63873,-1.4089 -1.4055,-1.4089 -0.77225,0 -1.3903,0.61848 -1.4069,1.4089 l -0.74197,28.572 0.74335,13.329 c 0.0165,0.782 0.6346,1.4019 1.4069,1.4019 z m -26.174,-0.1249 c 0.45564,0 0.82456,-0.3674 0.85898,-0.8513 l 1.2086,-13.772 -1.2086,-13.1 c -0.033,-0.48397 -0.40196,-0.84867 -0.85898,-0.84867 -0.46252,0 -0.83145,0.36748 -0.86035,0.85424 l -1.0641,13.095 1.0641,13.77 c 0.0303,0.4853 0.39783,0.8527 0.86035,0.8527 z m -10.181,-0.7543 c 0.33313,0 0.60294,-0.2648 0.64148,-0.6309 l 1.3573,-13.241 -1.3559,-13.74 c -0.0399,-0.36748 -0.30973,-0.63235 -0.64286,-0.63235 -0.33726,0 -0.60706,0.26626 -0.64148,0.63235 0,0.002 -1.1949,13.74 -1.1949,13.74 l 1.1949,13.238 c 0.033,0.3675 0.30284,0.6337 0.64148,0.6337 z m 41.713,-42.9 c -0.83282,0 -1.5005,0.66703 -1.517,1.5212 l -0.67727,27.528 0.67727,13.246 c 0.0165,0.8432 0.68278,1.5101 1.517,1.5101 0.83144,0 1.495,-0.6656 1.5142,-1.5198 v 0.011 l 0.75986,-13.246 -0.75987,-27.531 c -0.0192,-0.85146 -0.68278,-1.5185 -1.5142,-1.5185 z m -21.185,43.794 c 0.5754,0 1.0503,-0.4728 1.0779,-1.0761 l 1.0572,-13.677 -1.0572,-26.179 c -0.0289,-0.60461 -0.50245,-1.0761 -1.0779,-1.0761 -0.58091,0 -1.0545,0.47286 -1.0792,1.0761 0,0.002 -0.93606,26.179 -0.93606,26.179 l 0.93744,13.683 c 0.0234,0.5977 0.49694,1.0705 1.0779,1.0705 z m 11.805,-1.2909 v -0.01 l 0.90854,-13.451 -0.90854,-29.321 c -0.022,-0.72803 -0.59193,-1.2994 -1.2954,-1.2994 -0.70755,0 -1.2775,0.56997 -1.2967,1.2994 l -0.80667,29.32 0.80804,13.458 c 0.0193,0.7211 0.58917,1.291 1.2953,1.291 0.7048,0 1.272,-0.5699 1.2954,-1.2953 v 0.01 z m 68.715,-30.36 c -2.1571,0 -4.215,0.43958 -6.0899,1.2314 -1.2527,-14.294 -13.152,-25.507 -27.666,-25.507 -3.5515,0 -7.0136,0.70445 -10.071,1.8956 -1.188,0.46318 -1.5046,0.94021 -1.5156,1.8652 v 50.338 c 0.0124,0.9707 0.75986,1.7791 1.7001,1.8747 0.0399,0.01 43.36,0.026 43.641,0.026 8.6944,0 15.744,-7.1014 15.744,-15.861 0,-8.7599 -7.048,-15.863 -15.742,-15.863 z m -48.564,-20.57 c -0.9457,0 -1.7221,0.78211 -1.7358,1.7431 l -0.71031,35.729 0.71168,12.967 c 0.0124,0.9471 0.78877,1.7279 1.7345,1.7279 0.94295,0 1.7193,-0.7808 1.7331,-1.7418 v 0.015 l 0.77225,-12.969 -0.77225,-35.732 c -0.0138,-0.95822 -0.79015,-1.7403 -1.7331,-1.7403 z" transform="matrix(0.97692916,0,0,1,6.4581013,0)" style="fill:#c42606;filter:url(#filter3860)"/>
     <path d="m 156.29284,440.08548 c -0.26089,0 -0.468,0.20802 -0.50161,0.50476 l -0.91448,7.1624 0.91448,7.0391 c 0.0336,0.2967 0.24071,0.5034 0.50161,0.5034 0.25282,0 0.45858,-0.2053 0.49893,-0.5006 l 1.0839,-7.0419 -1.0839,-7.1638 c -0.039,-0.29536 -0.24745,-0.50338 -0.49893,-0.50338 z m 5.14256,-3.9134 c -0.043,-0.30784 -0.25686,-0.52001 -0.52044,-0.52001 -0.26493,0 -0.48413,0.2191 -0.52044,0.52001 0,0.003 -1.22917,11.581 -1.22917,11.581 l 1.22917,11.324 c 0.035,0.3037 0.25417,0.5227 0.52044,0.5227 0.26223,0 0.47606,-0.2135 0.51909,-0.5199 l 1.39857,-11.327 z m 19.37055,-10.682 c -0.5043,0 -0.9212,0.42573 -0.9454,0.96655 l -0.97899,21.306 0.97899,13.769 c 0.0256,0.5381 0.44109,0.9624 0.9454,0.9624 0.50161,0 0.91716,-0.4256 0.94674,-0.9651 v 0.01 l 1.10676,-13.77 -1.10676,-21.306 c -0.0296,-0.54083 -0.44513,-0.96655 -0.94674,-0.96655 z m -10.02525,7.4052 c -0.3873,0 -0.70333,0.31893 -0.73426,0.74465 l -1.10276,14.117 1.10276,13.658 c 0.0296,0.423 0.34696,0.7419 0.73426,0.7419 0.38327,0 0.69931,-0.3189 0.73292,-0.7419 l 1.2534,-13.658 -1.2534,-14.12 c -0.0336,-0.42296 -0.34965,-0.74189 -0.73292,-0.74189 z m 20.21364,29.597 c 0.62534,0 1.13363,-0.52 1.15923,-1.1856 l 0.96019,-13.537 -0.95884,-28.366 c -0.0255,-0.66562 -0.5339,-1.1856 -1.15923,-1.1856 -0.6307,0 -1.14037,0.52139 -1.16059,1.187 0,0.002 -0.85126,28.363 -0.85126,28.363 l 0.85126,13.543 c 0.0202,0.6602 0.52986,1.1816 1.15922,1.1816 z m 20.85842,0.063 c 0.86067,0 1.5707,-0.7308 1.58682,-1.6294 v 0.01 -0.01 l 0.66972,-13.149 -0.66972,-32.76 c -0.0148,-0.89721 -0.7262,-1.6294 -1.58682,-1.6294 -0.86203,0 -1.57344,0.7308 -1.58683,1.6308 l -0.59844,32.748 c 0,0.0209 0.59844,13.168 0.59844,13.168 0.0135,0.8903 0.72619,1.6211 1.58683,1.6211 z m -10.50785,-0.051 c 0.74906,0 1.35285,-0.6199 1.37307,-1.4104 v 0.01 l 0.81496,-13.332 -0.81631,-28.571 c -0.0202,-0.79044 -0.62399,-1.4089 -1.37307,-1.4089 -0.75443,0 -1.35823,0.61848 -1.37444,1.4089 l -0.72485,28.572 0.7262,13.329 c 0.0161,0.782 0.61995,1.4019 1.37444,1.4019 z m -25.57015,-0.1249 c 0.44513,0 0.80554,-0.3674 0.83917,-0.8513 l 1.18071,-13.772 -1.18071,-13.1 c -0.0322,-0.48397 -0.39269,-0.84867 -0.83917,-0.84867 -0.45185,0 -0.81226,0.36748 -0.8405,0.85424 l -1.03955,13.095 1.03955,13.77 c 0.0296,0.4853 0.38865,0.8527 0.8405,0.8527 z m -9.94611,-0.7543 c 0.32544,0 0.58903,-0.2648 0.62668,-0.6309 l 1.32598,-13.241 -1.32461,-13.74 c -0.039,-0.36748 -0.30259,-0.63235 -0.62803,-0.63235 -0.32948,0 -0.59306,0.26626 -0.62668,0.63235 0,0.002 -1.16734,13.74 -1.16734,13.74 l 1.16734,13.238 c 0.0322,0.3675 0.29585,0.6337 0.62668,0.6337 z m 40.75064,-42.9 c -0.8136,0 -1.46588,0.66703 -1.482,1.5212 l -0.66164,27.528 0.66164,13.246 c 0.0161,0.8432 0.66703,1.5101 1.482,1.5101 0.81226,0 1.46051,-0.6656 1.47927,-1.5198 v 0.011 l 0.74233,-13.246 -0.74234,-27.531 c -0.0188,-0.85146 -0.66703,-1.5185 -1.47927,-1.5185 z m -20.69624,43.794 c 0.56212,0 1.02607,-0.4728 1.05303,-1.0761 l 1.03281,-13.677 -1.03281,-26.179 c -0.0282,-0.60461 -0.49086,-1.0761 -1.05303,-1.0761 -0.56751,0 -1.03017,0.47286 -1.0543,1.0761 0,0.002 -0.91447,26.179 -0.91447,26.179 l 0.91582,13.683 c 0.0229,0.5977 0.48547,1.0705 1.05303,1.0705 z m 11.53265,-1.2909 v -0.01 l 0.88758,-13.451 -0.88758,-29.321 c -0.0215,-0.72803 -0.57828,-1.2994 -1.26552,-1.2994 -0.69122,0 -1.24802,0.56997 -1.26678,1.2994 l -0.78806,29.32 0.7894,13.458 c 0.0189,0.7211 0.57558,1.291 1.26541,1.291 0.68854,0 1.24266,-0.5699 1.26552,-1.2953 v 0.01 z m 67.12969,-30.36 c -2.10734,0 -4.11776,0.43958 -5.94941,1.2314 -1.22379,-14.294 -12.84857,-25.507 -27.02772,-25.507 -3.46956,0 -6.85179,0.70445 -9.83865,1.8956 -1.16059,0.46318 -1.46989,0.94021 -1.48064,1.8652 v 50.338 c 0.0121,0.9707 0.74233,1.7791 1.66088,1.8747 0.039,0.01 42.35965,0.026 42.63417,0.026 8.49381,0 15.38077,-7.1014 15.38077,-15.861 0,-8.7599 -6.8854,-15.863 -15.37882,-15.863 z m -47.44359,-20.57 c -0.92388,0 -1.68237,0.78211 -1.69576,1.7431 l -0.69392,35.729 0.69526,12.967 c 0.0121,0.9471 0.77057,1.7279 1.69449,1.7279 0.92119,0 1.67963,-0.7808 1.69311,-1.7418 v 0.015 l 0.75444,-12.969 -0.75444,-35.732 c -0.0135,-0.95822 -0.77192,-1.7403 -1.69311,-1.7403 z" style="fill:url(#linearGradient3117)"/>
    </g>
   </g>
  </g>
  <path style="opacity:0.1;fill:#ffffff" d="m 5.6858261,154.91352 c 0.095857,4.02812 0.3700834,22.10981 0.5817566,25.70367 0.2170189,3.6847 0.5009695,7.14668 0.8652344,10.40039 0.3642649,3.2537 0.8083678,6.29796 1.3457031,9.14648 0.5373354,2.84853 1.1680668,5.50155 1.9042968,7.97071 0.736231,2.46915 1.578114,4.75548 2.539063,6.87109 0.960949,2.11561 2.04046,4.05978 3.251953,5.84766 1.211493,1.78787 2.555108,3.41834 4.042969,4.90429 1.487861,1.48596 3.120103,2.82726 4.910156,4.03711 1.790053,1.20986 3.737399,2.28848 5.855469,3.24805 2.11807,0.95957 4.406995,1.80005 6.878906,2.53515 2.471911,0.73511 5.126939,1.3659 7.978516,1.90235 2.851576,0.53645 5.899184,0.98014 9.15625,1.34375 3.257066,0.36361 6.723729,0.64669 10.412109,0.86328 7.376761,0.43319 15.641474,0.59766 24.898438,0.59766 h 0.0078 75.371094 c 9.25255,-1.3e-4 17.5148,-0.16464 24.88867,-0.59766 3.68838,-0.21659 7.15504,-0.49967 10.41211,-0.86328 3.25706,-0.36361 6.30467,-0.8073 9.15625,-1.34375 2.85157,-0.53645 5.50856,-1.16724 7.98047,-1.90235 2.47191,-0.7351 4.75888,-1.57558 6.87695,-2.53515 2.11807,-0.95957 4.06542,-2.03819 5.85547,-3.24805 1.79005,-1.20985 3.42425,-2.55115 4.91211,-4.03711 1.48786,-1.48595 2.82952,-3.11642 4.04101,-4.90429 1.2115,-1.78788 2.29296,-3.73205 3.25391,-5.84766 0.96095,-2.11561 1.80283,-4.40194 2.53906,-6.87109 0.73623,-2.46916 1.36501,-5.12218 1.90235,-7.97071 0.53733,-2.84852 0.98339,-5.89278 1.34765,-9.14648 0.36427,-3.25371 0.64822,-6.71569 0.86524,-10.40039 0.38581,-6.55065 0.4994,-14.08517 0.5332,-22.11133 l -0.50391,-85.525391 z" transform="matrix(0.26458333,0,0,0.26458333,0,229.26666)"/>
 </g>
</svg>
