<svg xmlns="http://www.w3.org/2000/svg" xmlns:xlink="http://www.w3.org/1999/xlink" width="256" height="256" version="1.1" viewBox="0 0 67.73 67.73">
 <defs>
  <linearGradient id="linearGradient1108" x1="296" x2="296" y1="-212" y2="236" gradientUnits="userSpaceOnUse" xlink:href="#linearGradient1013"/>
  <linearGradient id="linearGradient1013">
   <stop style="stop-color:#ffffff" offset="0"/>
   <stop offset=".125" style="stop-color:#ffffff;stop-opacity:0.09803922"/>
   <stop offset=".925" style="stop-color:#000000;stop-opacity:0.09803922"/>
   <stop style="stop-color:#000000;stop-opacity:0.49803922" offset="1"/>
  </linearGradient>
  <clipPath id="clipPath1082-3-2" clipPathUnits="userSpaceOnUse">
   <path style="fill:#8c59d9" d="M 361.9375,-212 C 507.2348,-212 528,-191.28677 528,-46.125 V 70.125 C 528,215.28618 507.2348,236 361.9375,236 H 214.0625 C 68.7652,236 48,215.28618 48,70.125 V -46.125 C 48,-191.28677 68.7652,-212 214.0625,-212 Z"/>
  </clipPath>
  <filter id="filter4569" width="1.023" height="1.025" x="-.01" y="-.01" style="color-interpolation-filters:sRGB">
   <feGaussianBlur stdDeviation="1.16"/>
  </filter>
  <filter id="filter913" width="1.046" height="1.05" x="-.02" y="-.03" style="color-interpolation-filters:sRGB">
   <feGaussianBlur stdDeviation="2.32"/>
  </filter>
  <linearGradient id="linearGradient4220-7">
   <stop offset="0" style="stop-color:#7a8498"/>
   <stop offset="1" style="stop-color:#34405c"/>
  </linearGradient>
  <linearGradient id="linearGradient997" x1="6.953" x2="61.917" y1="225.307" y2="295.075" gradientUnits="userSpaceOnUse" xlink:href="#linearGradient4220-7"/>
  <linearGradient id="linearGradient4614-5" x1="21.783" x2="107.217" y1="60.229" y2="60.229" gradientTransform="matrix(1.1119665,0,0,1.1119665,-11.941874,-15.557361)" gradientUnits="userSpaceOnUse" xlink:href="#linearGradient4620"/>
  <linearGradient id="linearGradient4620">
   <stop style="stop-color:#2be8c9" offset="0"/>
   <stop style="stop-color:#ffffff" offset="1"/>
  </linearGradient>
  <linearGradient id="linearGradient939" x1="150" x2="195" y1="106" y2="171" gradientTransform="matrix(0.53954998,0,0,0.53954998,-10.361534,-10.955462)" gradientUnits="userSpaceOnUse" xlink:href="#linearGradient4620"/>
 </defs>
 <g transform="translate(0,-229.26666)">
  <path d="m 162.53675,5.5680001 c 72.64865,0 83.03125,10.3566149 83.03125,82.9375049 v 58.125005 c 0,72.58059 -10.3826,82.9375 -83.03125,82.9375 H 88.599254 C 15.9506,229.56801 5.568,219.2111 5.568,146.63051 V 88.505505 c 0,-72.58089 10.3826,-82.9375049 83.031254,-82.9375049 z" transform="matrix(0.26458333,0,0,0.26458333,-1.8735229e-8,232.67026)" style="opacity:0.2;filter:url(#filter913)"/>
  <path style="opacity:0.1;filter:url(#filter4569)" d="m 162.53675,3.5680001 c 72.64865,0 83.03125,10.3566149 83.03125,82.9375049 v 58.125005 c 0,72.58059 -10.3826,82.9375 -83.03125,82.9375 H 88.599254 C 15.9506,227.56801 5.568,217.2111 5.568,144.63051 V 86.505505 c 0,-72.58089 10.3826,-82.9375049 83.031254,-82.9375049 z" transform="matrix(0.26458333,0,0,0.26458333,-1.8735229e-8,232.67026)"/>
  <path d="m 23.441882,233.61429 c -9.611188,0 -15.1016409,0.68375 -18.19217,3.77032 -3.090525,3.08656 -3.776514,8.57135 -3.776514,18.17356 v 15.37891 c 0,9.60218 0.68599,15.087 3.776514,18.17357 3.0905286,3.08658 8.580982,3.77031 18.19217,3.77031 h 19.562631 c 9.61119,0 15.101644,-0.68373 18.19217,-3.77031 3.090527,-3.08657 3.776515,-8.57139 3.776515,-18.17357 v -15.37891 c 0,-9.60221 -0.685988,-15.087 -3.776515,-18.17356 -3.090526,-3.08657 -8.580982,-3.77032 -18.19217,-3.77032 z" style="fill:url(#linearGradient997)"/>
  <path d="m 1.473198,270.40792 v 0.52916 c 0,9.60218 0.68599,15.087 3.776514,18.17357 3.0905286,3.08658 8.580982,3.77031 18.19217,3.77031 h 19.562631 c 9.61119,0 15.101644,-0.68373 18.19217,-3.77031 3.090527,-3.08657 3.776515,-8.57139 3.776515,-18.17357 v -0.52916 c 0,9.60217 -0.685988,15.08699 -3.776515,18.17356 -3.090526,3.08658 -8.58098,3.77032 -18.19217,3.77032 H 23.441882 c -9.611188,0 -15.1016414,-0.68374 -18.19217,-3.77032 -3.090524,-3.08657 -3.776514,-8.57139 -3.776514,-18.17356 z" style="opacity:0.2;fill:#131313"/>
  <path style="opacity:0.4;fill:none;stroke:url(#linearGradient1108);stroke-width:8;stroke-linecap:round;stroke-linejoin:round" d="M 361.9375,-212 C 507.2348,-212 528,-191.28677 528,-46.125 V 70.125 C 528,215.28618 507.2348,236 361.9375,236 H 214.0625 C 68.7652,236 48,215.28618 48,70.125 V -46.125 C 48,-191.28677 68.7652,-212 214.0625,-212 Z" clip-path="url(#clipPath1082-3-2)" transform="matrix(0.13229167,0,0,0.13229167,-4.876802,261.66013)"/>
  <g transform="matrix(0.4903778,0,0,0.4903778,3.9084298,235.17792)">
   <path style="fill:none;stroke:url(#linearGradient4614-5);stroke-width:5.43581247" d="M 30.453262,91.060333 A 44.782093,44.782092 0 0 1 14.997872,57.216872 44.782093,44.782092 0 0 1 59.779967,12.434774 44.782093,44.782092 0 0 1 104.56206,57.216872 v 0 0 A 44.782093,44.782092 0 0 1 89.108269,91.058956"/>
   <g transform="matrix(1.0673019,0,0,1.0673019,-9.0810028,-13.464945)" style="fill:#ffffff">
    <path style="fill:#ffffff" d="m 65.518735,29.4668 v 6 h -2 v -6 z"/>
    <g transform="rotate(44.938255,63.882287,63.118069)" style="fill:#ffffff">
     <path style="fill:#ffffff" d="m 66.816055,28.13496 v 6 h -2 v -6 z"/>
    </g>
    <g transform="rotate(141.07386,66.203264,64.783025)" style="fill:#529be0">
     <path style="fill:#529be0" d="m 65.614881,28.283085 0.411849,5.985849 -1.995283,0.137283 -0.411849,-5.985849 z"/>
    </g>
    <g transform="rotate(-180,64.384954,65.33387)" style="fill:#ffffff">
     <path style="fill:#529be0" d="m 91.389269,39.983398 -4.461137,4.012262 -1.33742,-1.487046 4.461137,-4.012262 z"/>
     <g transform="rotate(89.480687,63.007812,63.858199)" style="fill:#ffffff">
      <path d="m 65.058689,26.005739 -0.06351,5.999664 -1.999888,-0.02117 0.06351,-5.999664 z" style="fill:#ffffff"/>
      <path style="fill:#ffffff" d="m 64.448825,93.288828 -0.06351,5.999664 -1.999888,-0.02117 0.06351,-5.999664 z"/>
     </g>
     <g transform="rotate(136.63942,64.854851,64.899776)" style="fill:#ffffff">
      <path style="fill:#ffffff" d="m 66.167865,28.910898 v 6 h -2 v -6 z"/>
     </g>
    </g>
   </g>
   <path style="opacity:0.3;fill:url(#linearGradient939)" d="M 59.779964,24.770756 V 59.725585 L 83.949062,77.303109 A 32.372997,32.372997 0 0 0 91.073862,57.090008 32.372997,32.372997 0 0 0 59.779964,24.770756 Z"/>
   <path d="M 55.410846,53.300711 88.441091,77.166748" style="fill:none;stroke:#2be8c9;stroke-width:1.16841459;stroke-linecap:round"/>
   <circle cx="60.214" cy="57.568" r="5.337" style="opacity:0.3"/>
   <circle cx="59.78" cy="57.091" r="5.337"/>
  </g>
  <path d="m 1.473198,263.13337 v 9.18767 c 0,8.99658 0.68599,14.13549 3.776514,17.0274 3.0905286,2.89191 8.580982,3.53252 18.19217,3.53252 h 19.562631 c 9.61119,0 15.101644,-0.64061 18.19217,-3.53252 3.090527,-2.89191 3.776515,-8.03082 3.776515,-17.0274 v -9.18767 z" style="opacity:0.05;fill:#ffffff"/>
  <path d="M 125.51562 240.43164 L 162.53711 240.43164 C 171.61855 240.43164 179.72663 240.27025 186.96289 239.8457 C 190.58102 239.63343 193.98084 239.35648 197.17578 239 C 200.37072 238.64352 203.36104 238.20771 206.1582 237.68164 C 208.95536 237.15557 211.55959 236.53744 213.98438 235.81641 C 216.40916 235.09537 218.65461 234.27146 220.73242 233.33008 C 222.81024 232.38869 224.72031 231.33165 226.47656 230.14453 C 228.23281 228.95742 229.83483 227.63987 231.29492 226.18164 C 232.75501 224.72342 234.07294 223.12331 235.26172 221.36914 C 236.4505 219.61497 237.51029 217.70636 238.45312 215.63086 C 239.39596 213.55536 240.22109 211.31283 240.94336 208.89062 C 241.66562 206.46842 242.28543 203.86656 242.8125 201.07227 C 243.33957 198.27797 243.77362 195.29138 244.13086 192.09961 C 244.4881 188.90784 244.76768 185.5111 244.98047 181.89648 C 245.40605 174.66725 245.56836 166.56707 245.56836 157.49414 L 245.56836 99.369141 C 245.56836 90.296186 245.40605 82.19604 244.98047 74.966797 C 244.76768 71.352175 244.4881 67.955439 244.13086 64.763672 C 243.77362 61.571905 243.33957 58.585309 242.8125 55.791016 C 242.28543 52.996722 241.66562 50.394858 240.94336 47.972656 C 240.22109 45.550455 239.39596 43.307914 238.45312 41.232422 C 237.51029 39.15693 236.4505 37.248304 235.26172 35.494141 C 234.07294 33.739977 232.75501 32.139858 231.29492 30.681641 C 229.83483 29.223419 228.23281 27.907818 226.47656 26.720703 C 224.72031 25.533589 222.81024 24.47459 220.73242 23.533203 C 218.65461 22.591816 216.40916 21.767914 213.98438 21.046875 C 211.55959 20.325836 208.95536 19.707712 206.1582 19.181641 C 203.36104 18.655569 200.37072 18.221718 197.17578 17.865234 C 193.98084 17.508751 190.58102 17.229854 186.96289 17.017578 C 179.72663 16.593027 171.61855 16.431641 162.53711 16.431641 L 125.51562 16.431641 L 125.51562 240.43164 z" transform="matrix(0.26458333,0,0,0.26458333,0,229.26666)" style="opacity:0.05;fill:#ffffff"/>
 </g>
</svg>
