<svg width="256" height="256" version="1.1" viewBox="0 0 67.73 67.73" xmlns="http://www.w3.org/2000/svg" xmlns:xlink="http://www.w3.org/1999/xlink">
 <defs>
  <linearGradient id="linearGradient1108" x1="296" x2="296" y1="-212" y2="202.4" gradientUnits="userSpaceOnUse">
   <stop style="stop-color:#ffffff" offset="0"/>
   <stop style="stop-color:#ffffff;stop-opacity:.09803922" offset=".135"/>
   <stop style="stop-color:#ffffff;stop-opacity:0" offset="1"/>
  </linearGradient>
  <clipPath id="clipPath1082-3-3675">
   <path d="M 361.9375,-212 C 507.2348,-212 528,-191.28677 528,-46.125 V 70.125 C 528,215.28618 507.2348,236 361.9375,236 H 214.0625 C 68.7652,236 48,215.28618 48,70.125 V -46.125 C 48,-191.28677 68.7652,-212 214.0625,-212 Z" style="fill:#8c59d9"/>
  </clipPath>
  <filter id="filter910" x="-.02" y="-.03" width="1.046" height="1.05" style="color-interpolation-filters:sRGB">
   <feGaussianBlur stdDeviation="2.32"/>
  </filter>
  <filter id="filter4569" x="-.01" y="-.01" width="1.023" height="1.025" style="color-interpolation-filters:sRGB">
   <feGaussianBlur stdDeviation="1.16"/>
  </filter>
  <filter id="filter991" x="-.06" y="-.04" width="1.11" height="1.085" style="color-interpolation-filters:sRGB">
   <feGaussianBlur stdDeviation="6.136"/>
  </filter>
 </defs>
 <g transform="translate(0,-229.26666)">
  <g transform="matrix(.12974173 0 0 .12974173 3.8344818 227.85345)" style="enable-background:new">
   <path d="m301.90773 44.402363c148.15296 0 169.32628 21.120327 169.32628 169.1351v118.53478c0 148.01417-21.17332 169.1351-169.32628 169.1351h-150.78132c-148.15297 0-169.32628-21.12093-169.32628-169.1351v-118.53478c0-148.01477 21.17331-169.1351 169.32628-169.1351z" style="fill:none;opacity:.2;stroke-linecap:round;stroke-linejoin:round;stroke-width:8.1572313;stroke:#000000"/>
   <path transform="matrix(2.0393079,0,0,2.0393079,-29.55473,37.126102)" d="m162.53675 3.5680001c72.64865 0 83.03125 10.356615 83.03125 82.937505v58.125005c0 72.58059-10.3826 82.9375-83.03125 82.9375h-73.937496c-72.648654 0-83.031254-10.35691-83.031254-82.9375v-58.125005c0-72.58089 10.3826-82.937505 83.031254-82.937505z" style="filter:url(#filter4569);opacity:.1"/>
   <path transform="matrix(2.0393079,0,0,2.0393079,-29.55473,37.126102)" d="m162.53675 5.5680001c72.64865 0 83.03125 10.356615 83.03125 82.937505v58.125005c0 72.58059-10.3826 82.9375-83.03125 82.9375h-73.937496c-72.648654 0-83.031254-10.35691-83.031254-82.9375v-58.125005c0-72.58089 10.3826-82.937505 83.031254-82.937505z" style="filter:url(#filter910);opacity:.2"/>
   <path d="m301.90773 44.402363c148.15296 0 169.32628 21.120327 169.32628 169.1351v118.53478c0 148.01417-21.17332 169.1351-169.32628 169.1351h-150.78132c-148.15297 0-169.32628-21.12093-169.32628-169.1351v-118.53478c0-148.01477 21.17331-169.1351 169.32628-169.1351z" style="fill:#357ab4"/>
   <path transform="matrix(1.0196539,0,0,1.0196539,-67.14326,260.569)" d="M 361.9375,-212 C 507.2348,-212 528,-191.28677 528,-46.125 V 70.125 C 528,215.28618 507.2348,236 361.9375,236 H 214.0625 C 68.7652,236 48,215.28618 48,70.125 V -46.125 C 48,-191.28677 68.7652,-212 214.0625,-212 Z" clip-path="url(#clipPath1082-3-3675)" style="fill:none;opacity:.5;stroke-linecap:round;stroke-linejoin:round;stroke-width:8;stroke:url(#linearGradient1108)"/>
   <path d="m-18.199877 272.80487v59.26736c0 148.01414 21.17332 169.13511 169.32629 169.13511h150.78132c148.15297 0 169.32628-21.12097 169.32628-169.13511v-59.26736z" style="fill:#ffffff;opacity:.1"/>
   <path d="m270.67893 443.15292c-3.77688-3.48141-7.36741-9.87182-8.94095-15.91302-0.61751-2.37083-1.29325-4.48108-1.50161-4.68945-0.20836-0.20836-2.76482-1.74107-5.68099-3.40601-6.15917-3.51649-7.6657-5.32971-5.50171-6.62172 3.48877-2.08299 7.20232-6.10591 8.96831-9.71543 1.9933-4.07416 4.24752-11.55339 3.65942-12.14149-0.18587-0.18587-3.28414 0.56582-6.88506 1.67044-17.27223 5.29834-38.93177 6.09414-54.9753 2.01982-2.83779-0.72067-5.2959-1.17401-5.46247-1.00744-0.45821 0.45821 2.22712 7.88964 3.71799 10.28927 1.99582 3.21234 4.88936 6.19823 7.15167 7.37992 1.12024 0.58512 2.0368 1.53829 2.0368 2.11816 0 1.30556-3.61244 4.06575-8.56544 6.54466-3.57918 1.79131-3.81086 2.09213-5.05331 6.56098-3.66232 13.17263-13.23368 22.76166-17.74451 17.77725-1.78834-1.97607-1.53155-6.98056 0.70235-13.68834 1.06047-3.18428 1.74834-5.96938 1.52862-6.18909-0.21972-0.21973-2.50388 0.29738-5.07593 1.14911-7.90333 2.61721-12.18697 3.1788-15.06722 1.97535-3.16108-1.32076-4.27855-4.53563-2.12448-6.11186 3.05736-2.23721 16.20671-4.92311 28.43947-5.80911l7.03626-0.50963-2.72413-5.57246c-2.79065-5.70852-5.79346-15.46874-5.79346-18.83081 0-1.50658-0.9722-2.51196-4.86088-5.02683-17.11432-11.06808-26.3796-29.62313-26.54729-53.16483-0.0385-5.39598-0.22687-9.81217-0.41872-9.81374-0.19187-2e-3 -2.22293 1.85166-4.51346 4.11831-4.35778 4.3123-8.81278 6.47675-11.39929 5.53832-0.83284-0.30217-2.25878-1.64057-3.16877-2.97423-1.11312-1.63136-1.77255-2.09184-2.01524-1.40723-0.19841 0.55968-1.23693 3.51731-2.30785 6.57254-1.0709 3.05523-3.41586 8.58189-5.211 12.28149-7.28457 15.01269-10.83171 12.77768-10.96485-6.90885-0.0365-5.39598-0.23652-9.81217-0.44454-9.81374-0.20801-2e-3 -2.00789 2.71658-3.99974 6.04035-5.63688 9.4061-11.772953 15.10253-13.411787 12.45085-0.807024-1.30582-0.541832-17.13725 0.371017-22.1473 3.607315-19.79861 17.48728-37.92638 38.62815-50.44987 8.5011-5.03591 18.3224-9.5285 22.32365-10.21156l2.98914-0.51029-4.43767-2.73908c-5.42929-3.35116-10.21615-8.42196-12.30776-13.03779-2.3366-5.15653-2.18527-13.79347 0.34913-19.92471l1.90601-4.61108-2.68408-1.60511c-1.6125-0.96428-2.29754-1.74105-1.71587-1.94557 0.59709-0.20993-0.76092-1.90521-3.54279-4.42266-2.48106-2.24522-5.01481-5.05647-5.63055-6.24718l-1.11954-2.16494 4.47716 2.26005c4.67326 2.35905 5.28489 2.24023 3.27072-0.63541-1.00543-1.43544-3.49998-8.24266-3.01693-8.23264 0.0824 2e-3 1.7894 0.83493 3.79339 1.85165 2.00402 1.01668 4.08078 1.84855 4.61503 1.84855 1.12824 0 1.21373-0.33805 3.18665-12.5995 0.82005-5.09659 2.03099-11.09593 2.69101-13.33188 6.39873-21.67749 22.19429-38.41576 43.41565-46.00684 6.28732-2.24903 6.54759-2.4359 8.69717-6.24477 1.21876-2.15949 3.25316-5.10774 4.52091-6.55161 2.27173-2.58735 8.93115-7.84791 9.93479-7.84791 0.28331 0 0.27863 1.07668-0.0104 2.39261-0.43437 1.97776-0.34826 2.24978 0.49664 1.5689 9.4542-7.61892 18.40696-12.81097 27.19498-15.77143 7.20061-2.425722 8.09016-2.070912 4.07622 1.62584-3.98454 3.66968-12.42643 13.81071-11.91905 14.31808 0.19097 0.19095 1.82028-0.28427 3.62076-1.05603 1.80044-0.77177 5.66302-1.94667 8.58346-2.61091 5.50141-1.25129 15.01637-1.64692 15.01637-0.62438 0 0.32083-1.68818 2.2373-3.75149 4.25878-3.49707 3.4262-9.58039 11.64006-9.58039 12.93569 0 0.3156 1.22588 0.8038 2.7242 1.08488 5.01321 0.94049 16.09699 4.95756 22.71297 8.23184 20.52959 10.16015 31.6808 24.99313 34.88467 46.40238 0.56501 3.77557 1.55156 8.69784 2.19232 10.93833 0.64075 2.2405 1.16897 5.16732 1.17381 6.50402 5e-3 1.41531 0.45027 2.5998 1.06581 2.83602 0.8435 0.32368 4.65869-1.09462 8.70973-3.23784 0.87041-0.4605-0.88752 4.93778-2.49543 7.66298-0.84132 1.42592-1.40503 2.71593-1.25269 2.86664 0.15236 0.15081 2.19387-0.68104 4.53674-1.84835l4.25975-2.12237-1.06929 2.06777c-0.58811 1.13727-3.08018 3.92949-5.53794 6.20495-2.45775 2.27544-4.06691 4.27107-3.57591 4.43474 1.13604 0.37868-2.28221 2.64439-5.93487 3.93379-1.6166 0.57068-2.66349 1.38177-2.51325 1.94723 2.89719 10.90425 3.24153 13.10552 2.87122 18.35473-0.53677 7.60895-2.79296 13.2005-7.32895 18.16361-3.63704 3.97951-3.67849 4.0761-1.74893 4.0761 2.2125 0 15.37176 8.64116 25.57667 16.79515 15.07118 12.04229 27.65046 27.25429 31.09375 37.60141 3.87153 11.63395 0.43704 22.13609-6.85149 20.9508l-2.3928-0.38911 0.24093 3.44235c0.34841 4.97835-0.80309 7.51599-3.41056 7.51599-4.81537 0-14.79226-9.2138-19.48069-17.99067l-2.45695-4.59947-0.60793 2.90463c-1.39593 6.66969-4.15002 6.60488-13.27355-0.31233-3.76105-2.85153-7.06152-5.18461-7.33435-5.18461-0.27284 0-0.69471 3.41629-0.93748 7.59176-0.46558 8.00762-2.931 19.29423-5.71044 26.14233-0.91362 2.25105-1.47727 4.27669-1.25251 4.50145 0.22476 0.22475 2.45134 0.59386 4.94794 0.82025l4.5393 0.41159-1.9439 2.029c-1.06915 1.11595-3.08549 2.64378-4.48078 3.39519-1.39529 0.75142-2.53688 1.62371-2.53688 1.93843 0 0.51501 6.28701 0.95226 8.77708 0.61045 0.55009-0.0756 0.79373 0.19673 0.54142 0.60496-0.66389 1.07418-7.68726 3.57646-11.74718 4.18529-1.91482 0.28716-3.3046 0.80828-3.08841 1.15806 0.71272 1.15319-3.50213 1.64418-7.0614 0.82261-3.02298-0.69779-3.89447-0.60973-6.44274 0.65107-2.9129 1.44117-2.95731 1.52587-3.84684 7.33673-1.0141 6.62444-3.37677 14.07377-6.28127 19.8043-1.07711 2.12511-1.95838 3.99376-1.95838 4.15253 0 0.15878 2.95079 0.51144 6.55728 0.78369 12.63226 0.9536 25.43059 3.58643 28.56098 5.87544 1.02722 0.7511 1.26442 1.52858 0.90421 2.96372-1.04025 4.14473-6.88261 4.69557-16.74801 1.57909-3.34468-1.05656-6.2032-1.79907-6.35227-1.64999-0.14908 0.14907 0.54871 2.85251 1.55063 6.00762 2.11246 6.65218 2.38078 12.42183 0.6578 14.14483-2.07877 2.07878-5.24927 1.42737-8.74754-1.7972zm-37.98438-190.53636c2.80119-3.94787 9.38152-16.01493 9.38152-17.20389 0-0.21273-6.0218-0.38679-13.3818-0.38679h-13.38181l0.51618 1.66649c1.75645 5.67087 11.16447 20.55332 12.99291 20.55332 0.32364 0 2.0665-2.08311 3.873-4.62913zm-32.67499-27.15812c5.19551-5.81476-0.69246-14.87433-9.66706-14.87433-2.68969 0-3.65689 0.42347-5.75167 2.51824-2.74246 2.74247-3.05462 4.4093-1.50947 8.05995 2.9818 7.04492 12.34827 9.42199 16.9282 4.29614zm66.39773 0.87803c2.65371-1.96521 5.28517-5.97331 5.28517-8.05012 0-4.54058-3.51132-7.70224-8.55404-7.70224-5.55851 0-10.34973 3.91433-11.19929 9.14963-0.50204 3.09362 0.62463 5.29892 3.69124 7.22511 2.893 1.81715 7.87089 1.52966 10.77692-0.62238zm-93.37963-53.7322c2.49817-4.42653 7.35804-9.15669 10.11997-9.8499 1.01917-0.25581 3.44398-0.26307 5.38845-0.0156 6.91161 0.87765 7.1885 0.86142 7.44909-0.43665 0.48045-2.39337-2.46854-4.30431-6.64247-4.30431-6.9406 0-12.57063 4.00578-16.43381 11.69272-1.90968 3.79987-2.98968 6.82377-2.43715 6.82377 0.19225 0 1.34241-1.75925 2.55592-3.90947zm109.57073-2.19374c-4.17263-8.43988-9.49743-12.41329-16.63508-12.41329-4.23459 0-7.18568 1.8953-6.70209 4.30433 0.26056 1.29806 0.53748 1.31428 7.44906 0.43664 1.9445-0.24691 4.36929-0.23965 5.38845 0.0156 2.76943 0.69507 7.62414 5.42752 10.13901 9.88362 3.22281 5.71052 3.48489 4.09186 0.36065-2.22748z" style="fill:#1e1900;filter:url(#filter991);opacity:.3"/>
   <path d="m270.67893 443.15292c-3.77688-3.48141-7.36741-9.87182-8.94095-15.91302-0.61751-2.37083-1.29325-4.48108-1.50161-4.68945-0.20836-0.20836-2.76482-1.74107-5.68099-3.40601-6.15917-3.51649-7.6657-5.32971-5.50171-6.62172 3.48877-2.08299 7.20232-6.10591 8.96831-9.71543 1.9933-4.07416 4.24752-11.55339 3.65942-12.14149-0.18587-0.18587-3.28414 0.56582-6.88506 1.67044-17.27223 5.29834-38.93177 6.09414-54.9753 2.01982-2.83779-0.72067-5.2959-1.17401-5.46247-1.00744-0.45821 0.45821 2.22712 7.88964 3.71799 10.28927 1.99582 3.21234 4.88936 6.19823 7.15167 7.37992 1.12024 0.58512 2.0368 1.53829 2.0368 2.11816 0 1.30556-3.61244 4.06575-8.56544 6.54466-3.57918 1.79131-3.81086 2.09213-5.05331 6.56098-3.66232 13.17263-13.23368 22.76166-17.74451 17.77725-1.78834-1.97607-1.53155-6.98056 0.70235-13.68834 1.06047-3.18428 1.74834-5.96938 1.52862-6.18909-0.21972-0.21973-2.50388 0.29738-5.07593 1.14911-7.90333 2.61721-12.18697 3.1788-15.06722 1.97535-3.16108-1.32076-4.27855-4.53563-2.12448-6.11186 3.05736-2.23721 16.20671-4.92311 28.43947-5.80911l7.03626-0.50963-2.72413-5.57246c-2.79065-5.70852-5.79346-15.46874-5.79346-18.83081 0-1.50658-0.9722-2.51196-4.86088-5.02683-17.11432-11.06808-26.3796-29.62313-26.54729-53.16483-0.0385-5.39598-0.22687-9.81217-0.41872-9.81374-0.19187-2e-3 -2.22293 1.85166-4.51346 4.11831-4.35778 4.3123-8.81278 6.47675-11.39929 5.53832-0.83284-0.30217-2.25878-1.64057-3.16877-2.97423-1.11312-1.63136-1.77255-2.09184-2.01524-1.40723-0.19841 0.55968-1.23693 3.51731-2.30785 6.57254-1.0709 3.05523-3.41586 8.58189-5.211 12.28149-7.28457 15.01269-10.83171 12.77768-10.96485-6.90885-0.0365-5.39598-0.23652-9.81217-0.44454-9.81374-0.20801-2e-3 -2.00789 2.71658-3.99974 6.04035-5.63688 9.4061-11.772953 15.10253-13.411787 12.45085-0.807024-1.30582-0.541832-17.13725 0.371017-22.1473 3.607315-19.79861 17.48728-37.92638 38.62815-50.44987 8.5011-5.03591 18.3224-9.5285 22.32365-10.21156l2.98914-0.51029-4.43767-2.73908c-5.42929-3.35116-10.21615-8.42196-12.30776-13.03779-2.3366-5.15653-2.18527-13.79347 0.34913-19.92471l1.90601-4.61108-2.68408-1.60511c-1.6125-0.96428-2.29754-1.74105-1.71587-1.94557 0.59709-0.20993-0.76092-1.90521-3.54279-4.42266-2.48106-2.24522-5.01481-5.05647-5.63055-6.24718l-1.11954-2.16494 4.47716 2.26005c4.67326 2.35905 5.28489 2.24023 3.27072-0.63541-1.00543-1.43544-3.49998-8.24266-3.01693-8.23264 0.0824 2e-3 1.7894 0.83493 3.79339 1.85165 2.00402 1.01668 4.08078 1.84855 4.61503 1.84855 1.12824 0 1.21373-0.33805 3.18665-12.5995 0.82005-5.09659 2.03099-11.09593 2.69101-13.33188 6.39873-21.67749 22.19429-38.41576 43.41565-46.00684 6.28732-2.24903 6.54759-2.4359 8.69717-6.24477 1.21876-2.15949 3.25316-5.10774 4.52091-6.55161 2.27173-2.58735 8.93115-7.84791 9.93479-7.84791 0.28331 0 0.27863 1.07668-0.0104 2.39261-0.43437 1.97776-0.34826 2.24978 0.49664 1.5689 9.4542-7.61892 18.40696-12.81097 27.19498-15.77143 7.20061-2.425722 8.09016-2.070912 4.07622 1.62584-3.98454 3.66968-12.42643 13.81071-11.91905 14.31808 0.19097 0.19095 1.82028-0.28427 3.62076-1.05603 1.80044-0.77177 5.66302-1.94667 8.58346-2.61091 5.50141-1.25129 15.01637-1.64692 15.01637-0.62438 0 0.32083-1.68818 2.2373-3.75149 4.25878-3.49707 3.4262-9.58039 11.64006-9.58039 12.93569 0 0.3156 1.22588 0.8038 2.7242 1.08488 5.01321 0.94049 16.09699 4.95756 22.71297 8.23184 20.52959 10.16015 31.6808 24.99313 34.88467 46.40238 0.56501 3.77557 1.55156 8.69784 2.19232 10.93833 0.64075 2.2405 1.16897 5.16732 1.17381 6.50402 5e-3 1.41531 0.45027 2.5998 1.06581 2.83602 0.8435 0.32368 4.65869-1.09462 8.70973-3.23784 0.87041-0.4605-0.88752 4.93778-2.49543 7.66298-0.84132 1.42592-1.40503 2.71593-1.25269 2.86664 0.15236 0.15081 2.19387-0.68104 4.53674-1.84835l4.25975-2.12237-1.06929 2.06777c-0.58811 1.13727-3.08018 3.92949-5.53794 6.20495-2.45775 2.27544-4.06691 4.27107-3.57591 4.43474 1.13604 0.37868-2.28221 2.64439-5.93487 3.93379-1.6166 0.57068-2.66349 1.38177-2.51325 1.94723 2.89719 10.90425 3.24153 13.10552 2.87122 18.35473-0.53677 7.60895-2.79296 13.2005-7.32895 18.16361-3.63704 3.97951-3.67849 4.0761-1.74893 4.0761 2.2125 0 15.37176 8.64116 25.57667 16.79515 15.07118 12.04229 27.65046 27.25429 31.09375 37.60141 3.87153 11.63395 0.43704 22.13609-6.85149 20.9508l-2.3928-0.38911 0.24093 3.44235c0.34841 4.97835-0.80309 7.51599-3.41056 7.51599-4.81537 0-14.79226-9.2138-19.48069-17.99067l-2.45695-4.59947-0.60793 2.90463c-1.39593 6.66969-4.15002 6.60488-13.27355-0.31233-3.76105-2.85153-7.06152-5.18461-7.33435-5.18461-0.27284 0-0.69471 3.41629-0.93748 7.59176-0.46558 8.00762-2.931 19.29423-5.71044 26.14233-0.91362 2.25105-1.47727 4.27669-1.25251 4.50145 0.22476 0.22475 2.45134 0.59386 4.94794 0.82025l4.5393 0.41159-1.9439 2.029c-1.06915 1.11595-3.08549 2.64378-4.48078 3.39519-1.39529 0.75142-2.53688 1.62371-2.53688 1.93843 0 0.51501 6.28701 0.95226 8.77708 0.61045 0.55009-0.0756 0.79373 0.19673 0.54142 0.60496-0.66389 1.07418-7.68726 3.57646-11.74718 4.18529-1.91482 0.28716-3.3046 0.80828-3.08841 1.15806 0.71272 1.15319-3.50213 1.64418-7.0614 0.82261-3.02298-0.69779-3.89447-0.60973-6.44274 0.65107-2.9129 1.44117-2.95731 1.52587-3.84684 7.33673-1.0141 6.62444-3.37677 14.07377-6.28127 19.8043-1.07711 2.12511-1.95838 3.99376-1.95838 4.15253 0 0.15878 2.95079 0.51144 6.55728 0.78369 12.63226 0.9536 25.43059 3.58643 28.56098 5.87544 1.02722 0.7511 1.26442 1.52858 0.90421 2.96372-1.04025 4.14473-6.88261 4.69557-16.74801 1.57909-3.34468-1.05656-6.2032-1.79907-6.35227-1.64999-0.14908 0.14907 0.54871 2.85251 1.55063 6.00762 2.11246 6.65218 2.38078 12.42183 0.6578 14.14483-2.07877 2.07878-5.24927 1.42737-8.74754-1.7972zm-37.98438-190.53636c2.80119-3.94787 9.38152-16.01493 9.38152-17.20389 0-0.21273-6.0218-0.38679-13.3818-0.38679h-13.38181l0.51618 1.66649c1.75645 5.67087 11.16447 20.55332 12.99291 20.55332 0.32364 0 2.0665-2.08311 3.873-4.62913zm-32.67499-27.15812c5.19551-5.81476-0.69246-14.87433-9.66706-14.87433-2.68969 0-3.65689 0.42347-5.75167 2.51824-2.74246 2.74247-3.05462 4.4093-1.50947 8.05995 2.9818 7.04492 12.34827 9.42199 16.9282 4.29614zm66.39773 0.87803c2.65371-1.96521 5.28517-5.97331 5.28517-8.05012 0-4.54058-3.51132-7.70224-8.55404-7.70224-5.55851 0-10.34973 3.91433-11.19929 9.14963-0.50204 3.09362 0.62463 5.29892 3.69124 7.22511 2.893 1.81715 7.87089 1.52966 10.77692-0.62238zm-93.37963-53.7322c2.49817-4.42653 7.35804-9.15669 10.11997-9.8499 1.01917-0.25581 3.44398-0.26307 5.38845-0.0156 6.91161 0.87765 7.1885 0.86142 7.44909-0.43665 0.48045-2.39337-2.46854-4.30431-6.64247-4.30431-6.9406 0-12.57063 4.00578-16.43381 11.69272-1.90968 3.79987-2.98968 6.82377-2.43715 6.82377 0.19225 0 1.34241-1.75925 2.55592-3.90947zm109.57073-2.19374c-4.17263-8.43988-9.49743-12.41329-16.63508-12.41329-4.23459 0-7.18568 1.8953-6.70209 4.30433 0.26056 1.29806 0.53748 1.31428 7.44906 0.43664 1.9445-0.24691 4.36929-0.23965 5.38845 0.0156 2.76943 0.69507 7.62414 5.42752 10.13901 9.88362 3.22281 5.71052 3.48489 4.09186 0.36065-2.22748z" style="fill:#ffd829"/>
  </g>
 </g>
</svg>
