<svg xmlns="http://www.w3.org/2000/svg" xmlns:xlink="http://www.w3.org/1999/xlink" width="256" height="256" version="1.1" viewBox="0 0 67.73 67.73">
 <defs>
  <linearGradient id="linearGradient1108-7" x1="296" x2="296" y1="-212" y2="236" gradientUnits="userSpaceOnUse" xlink:href="#linearGradient1013"/>
  <linearGradient id="linearGradient1013">
   <stop offset="0" style="stop-color:#ffffff"/>
   <stop style="stop-color:#ffffff;stop-opacity:0.09803922" offset=".125"/>
   <stop style="stop-color:#000000;stop-opacity:0.09803922" offset=".925"/>
   <stop offset="1" style="stop-color:#000000;stop-opacity:0.49803922"/>
  </linearGradient>
  <clipPath id="clipPath1082-3-69" clipPathUnits="userSpaceOnUse">
   <path d="M 361.9375,-212 C 507.2348,-212 528,-191.28677 528,-46.125 V 70.125 C 528,215.28618 507.2348,236 361.9375,236 H 214.0625 C 68.7652,236 48,215.28618 48,70.125 V -46.125 C 48,-191.28677 68.7652,-212 214.0625,-212 Z" style="fill:#8c59d9"/>
  </clipPath>
  <filter style="color-interpolation-filters:sRGB" id="filter958" width="1.046" height="1.05" x="-.02" y="-.03">
   <feGaussianBlur stdDeviation="2.32"/>
  </filter>
  <filter style="color-interpolation-filters:sRGB" id="filter4569" width="1.023" height="1.025" x="-.01" y="-.01">
   <feGaussianBlur stdDeviation="1.16"/>
  </filter>
  <filter style="color-interpolation-filters:sRGB" id="filter993" width="1.1" height="1.092" x="-.05" y="-.05">
   <feGaussianBlur stdDeviation="1.039"/>
  </filter>
 </defs>
 <g transform="translate(0,-229.26666)">
  <path d="m 188.96876,43.999995 c 72.64865,0 83.03125,10.356615 83.03125,82.937505 v 58.125 c 0,72.58059 -10.3826,82.9375 -83.03125,82.9375 h -73.9375 C 42.382606,268 32.000006,257.64309 32.000006,185.0625 v -58.125 c 0,-72.58089 10.3826,-82.937505 83.031254,-82.937505 z" transform="matrix(0.26970778,0,0,0.26970778,-7.1289177,220.56049)" style="opacity:0.1;filter:url(#filter4569)"/>
  <path style="opacity:0.2;filter:url(#filter958)" d="m 188.96876,45.999995 c 72.64865,0 83.03125,10.356615 83.03125,82.937505 v 58.125 c 0,72.58059 -10.3826,82.9375 -83.03125,82.9375 h -73.9375 C 42.382606,270 32.000006,259.64309 32.000006,187.0625 v -58.125 c 0,-72.58089 10.3826,-82.937505 83.031254,-82.937505 z" transform="matrix(0.26970778,0,0,0.26970778,-7.1289177,220.56049)"/>
  <path style="fill:#7c529e" d="m 43.822919,232.42763 c 19.593907,0 22.394175,2.79326 22.394175,22.36889 v 15.67677 c 0,19.57555 -2.800268,22.36888 -22.394175,22.36888 h -19.94152 c -19.5939059,0 -22.3941741,-2.79333 -22.3941741,-22.36888 v -15.67677 c 0,-19.57563 2.8002682,-22.36889 22.3941741,-22.36889 z"/>
  <path style="opacity:0.1;fill:#f6f6f6" d="m 33.840251,292.85255 h 9.996037 c 9.788139,0 15.194492,-0.83924 18.340838,-3.77958 3.146356,-2.94037 4.028016,-7.97745 4.028016,-17.12161 v -18.61204 c 0,-9.14417 -0.88166,-14.24267 -4.028016,-17.18301 -3.146346,-2.94035 -8.552699,-3.71819 -18.340838,-3.71819 h -9.996037 z"/>
  <path d="m 1.501775,260.48772 v 9.99605 c 0,9.78815 0.699276,15.3792 3.8496568,18.52555 3.1503872,3.14636 8.7471792,3.84333 18.5445162,3.84333 h 19.941521 c 9.797338,0 15.394133,-0.69697 18.544516,-3.84333 3.150383,-3.14635 3.849658,-8.7374 3.849658,-18.52555 v -9.99605 z" style="opacity:0.1;fill:#ffffff"/>
  <g transform="translate(1.3540829,-1.8037987)" style="fill:#290000;filter:url(#filter993);opacity:0.3">
   <path d="M 7.0527344 61.623047 C 6.7626368 64.272935 6.5440308 67.118826 6.3515625 70.050781 C 11.321053 69.573426 16.304013 69.257587 21.294922 69.208984 C 114.20296 69.280039 190.6693 142.32493 194.99023 235.13281 L 195.10742 235.13281 C 194.28539 199.51405 182.79758 164.96216 162.13086 135.94336 C 165.77994 131.77258 168.74755 127.05385 170.92383 121.96094 L 192.98242 120.63281 L 174.55664 108.46875 C 174.8807 106.18709 175.0544 103.88677 175.07812 101.58398 C 175.07057 94.746857 173.73329 87.973729 171.13281 81.650391 L 185.69336 65.244141 L 164.18945 69.640625 C 158.59331 62.323989 151.17149 56.604281 142.67188 53.052734 L 141.35938 31.228516 L 129.30273 49.488281 C 127.03951 49.169667 124.75568 48.998307 122.46875 48.974609 C 115.54735 48.982168 108.69779 50.350061 102.30859 53.005859 L 85.964844 38.517578 L 90.359375 59.996094 C 85.914613 63.442267 82.048692 67.580646 78.916016 72.251953 C 59.179349 64.92481 38.299441 61.152123 17.248047 61.115234 C 13.845155 61.168239 10.447233 61.374553 7.0527344 61.623047 z M 122.46875 57.068359 C 147.0533 57.068359 166.98438 76.999518 166.98438 101.58398 C 166.96056 111.7409 163.46145 121.5842 157.07227 129.48047 C 138.49487 105.79175 114.21586 87.201457 86.503906 75.445312 C 94.863866 63.921117 108.23074 57.089374 122.46875 57.068359 z" transform="matrix(0.26458333,0,0,0.26458333,-1.3540829,231.07046)" style="fill:#290000"/>
  </g>
  <g transform="translate(1.3540829,-1.8037987)">
   <path style="fill:#ffffff" d="M 7.0527344 61.623047 C 6.7626368 64.272935 6.5440308 67.118826 6.3515625 70.050781 C 11.321053 69.573426 16.304013 69.257587 21.294922 69.208984 C 114.20296 69.280039 190.6693 142.32493 194.99023 235.13281 L 195.10742 235.13281 C 194.28539 199.51405 182.79758 164.96216 162.13086 135.94336 C 165.77994 131.77258 168.74755 127.05385 170.92383 121.96094 L 192.98242 120.63281 L 174.55664 108.46875 C 174.8807 106.18709 175.0544 103.88677 175.07812 101.58398 C 175.07057 94.746857 173.73329 87.973729 171.13281 81.650391 L 185.69336 65.244141 L 164.18945 69.640625 C 158.59331 62.323989 151.17149 56.604281 142.67188 53.052734 L 141.35938 31.228516 L 129.30273 49.488281 C 127.03951 49.169667 124.75568 48.998307 122.46875 48.974609 C 115.54735 48.982168 108.69779 50.350061 102.30859 53.005859 L 85.964844 38.517578 L 90.359375 59.996094 C 85.914613 63.442267 82.048692 67.580646 78.916016 72.251953 C 59.179349 64.92481 38.299441 61.152123 17.248047 61.115234 C 13.845155 61.168239 10.447233 61.374553 7.0527344 61.623047 z M 122.46875 57.068359 C 147.0533 57.068359 166.98438 76.999518 166.98438 101.58398 C 166.96056 111.7409 163.46145 121.5842 157.07227 129.48047 C 138.49487 105.79175 114.21586 87.201457 86.503906 75.445312 C 94.863866 63.921117 108.23074 57.089374 122.46875 57.068359 z" transform="matrix(0.26458333,0,0,0.26458333,-1.3540829,231.07046)"/>
  </g>
  <path d="M 361.9375,-212 C 507.2348,-212 528,-191.28677 528,-46.125 V 70.125 C 528,215.28618 507.2348,236 361.9375,236 H 214.0625 C 68.7652,236 48,215.28618 48,70.125 V -46.125 C 48,-191.28677 68.7652,-212 214.0625,-212 Z" clip-path="url(#clipPath1082-3-69)" transform="matrix(0.13485389,0,0,0.13485389,-4.9712555,261.01666)" style="opacity:0.6;fill:none;stroke:url(#linearGradient1108-7);stroke-width:8;stroke-linecap:round;stroke-linejoin:round"/>
 </g>
</svg>
