<svg width="256" height="256" version="1.1" viewBox="0 0 67.73 67.73" xmlns="http://www.w3.org/2000/svg" xmlns:xlink="http://www.w3.org/1999/xlink">
 <defs>
  <linearGradient id="linearGradient1108" x1="296" x2="296" y1="-212" y2="202.4" gradientUnits="userSpaceOnUse">
   <stop style="stop-color:#ffffff" offset="0"/>
   <stop style="stop-color:#ffffff;stop-opacity:.09803922" offset=".135"/>
   <stop style="stop-color:#ffffff;stop-opacity:0" offset="1"/>
  </linearGradient>
  <clipPath id="clipPath1082-3-3675">
   <path d="M 361.9375,-212 C 507.2348,-212 528,-191.28677 528,-46.125 V 70.125 C 528,215.28618 507.2348,236 361.9375,236 H 214.0625 C 68.7652,236 48,215.28618 48,70.125 V -46.125 C 48,-191.28677 68.7652,-212 214.0625,-212 Z" style="fill:#8c59d9"/>
  </clipPath>
  <filter id="filter910" x="-.02" y="-.03" width="1.046" height="1.05" style="color-interpolation-filters:sRGB">
   <feGaussianBlur stdDeviation="2.32"/>
  </filter>
  <filter id="filter4569" x="-.01" y="-.01" width="1.023" height="1.025" style="color-interpolation-filters:sRGB">
   <feGaussianBlur stdDeviation="1.16"/>
  </filter>
  <filter id="filter1755" x="-.05" y="-.05" width="1.094" height="1.098" style="color-interpolation-filters:sRGB">
   <feGaussianBlur stdDeviation="1.621"/>
  </filter>
 </defs>
 <g transform="translate(0,-229.26666)">
  <g transform="matrix(.12974173 0 0 .12974173 3.8344818 227.85345)" style="enable-background:new">
   <path d="m301.90773 44.402363c148.15296 0 169.32628 21.120327 169.32628 169.1351v118.53478c0 148.01417-21.17332 169.1351-169.32628 169.1351h-150.78132c-148.15297 0-169.32628-21.12093-169.32628-169.1351v-118.53478c0-148.01477 21.17331-169.1351 169.32628-169.1351z" style="fill:none;opacity:.2;stroke-linecap:round;stroke-linejoin:round;stroke-width:8.1572313;stroke:#000000"/>
   <path transform="matrix(2.0393079,0,0,2.0393079,-29.55473,37.126102)" d="m162.53675 3.5680001c72.64865 0 83.03125 10.356615 83.03125 82.937505v58.125005c0 72.58059-10.3826 82.9375-83.03125 82.9375h-73.937496c-72.648654 0-83.031254-10.35691-83.031254-82.9375v-58.125005c0-72.58089 10.3826-82.937505 83.031254-82.937505z" style="filter:url(#filter4569);opacity:.1"/>
   <path transform="matrix(2.0393079,0,0,2.0393079,-29.55473,37.126102)" d="m162.53675 5.5680001c72.64865 0 83.03125 10.356615 83.03125 82.937505v58.125005c0 72.58059-10.3826 82.9375-83.03125 82.9375h-73.937496c-72.648654 0-83.031254-10.35691-83.031254-82.9375v-58.125005c0-72.58089 10.3826-82.937505 83.031254-82.937505z" style="filter:url(#filter910);opacity:.2"/>
   <path d="m301.90773 44.402363c148.15296 0 169.32628 21.120327 169.32628 169.1351v118.53478c0 148.01417-21.17332 169.1351-169.32628 169.1351h-150.78132c-148.15297 0-169.32628-21.12093-169.32628-169.1351v-118.53478c0-148.01477 21.17331-169.1351 169.32628-169.1351z" style="fill:#f7f7f7"/>
   <path transform="matrix(1.0196539,0,0,1.0196539,-67.14326,260.569)" d="M 361.9375,-212 C 507.2348,-212 528,-191.28677 528,-46.125 V 70.125 C 528,215.28618 507.2348,236 361.9375,236 H 214.0625 C 68.7652,236 48,215.28618 48,70.125 V -46.125 C 48,-191.28677 68.7652,-212 214.0625,-212 Z" clip-path="url(#clipPath1082-3-3675)" style="fill:none;opacity:.5;stroke-linecap:round;stroke-linejoin:round;stroke-width:8;stroke:url(#linearGradient1108)"/>
   <g transform="matrix(4.4817672,0,0,4.4817672,-58.53799,258.78728)" style="stroke:#ffffff">
    <path transform="matrix(.45502316 0 0 .45502316 6.0230273 -53.930821)" d="m181.98807 215.05862-0.0291-0.17581-55.62537-77.52903" style="fill:none"/>
    <path transform="matrix(.45502316 0 0 .45502316 6.0230273 -53.930821)" d="m126.14844 137.7207v48.33203l55.98633 29.89258-0.1467-0.88669" style="fill:none"/>
    <g transform="translate(-1.3753531,1.9392714)" style="fill:#1c1009;filter:url(#filter1755);opacity:.3">
     <path d="m106.11114-8.15735-41.465762 13.511166v0.09598l20.755099 6.72759-0.01779-0.108423 20.977273-20.188099z" style="fill:#1c1009"/>
     <path d="m65.072829-38.462572-0.213292 0.425696v43.453822l12.930835-17.689913z" style="fill:#1c1009"/>
     <path d="m65.091494 5.492483-0.231957-0.07554v21.742464l25.397759 13.560933z" style="fill:#1c1009"/>
     <path d="m64.859537 5.416943 25.165802 35.227856 0.07732 0.04086-4.719974-28.616693z" style="fill:#1c1009"/>
     <path d="m64.646245-37.818255-12.479366 25.699033 12.692658 17.689915v-42.963252z" style="fill:#1c1009"/>
     <path d="m77.790372-12.272967-12.930835 17.689912v0.153748l41.465763-13.511166z" style="fill:#1c1009"/>
     <path d="m23.846112-8.003605 41.46576 13.511166v0.09598l-20.755098 6.72759 0.01779-0.108423-20.977277-20.188099z" style="fill:#1c1009"/>
     <path d="m65.097713 5.570688-25.165802 35.227856-0.07732 0.04086 4.719974-28.616693z" style="fill:#1c1009"/>
     <path d="m52.166879-12.119222 12.930834 17.689912v0.153748l-41.46576-13.511166z" style="fill:#1c1009"/>
     <path d="m64.62758 5.492483 0.231957-0.07554v21.742464l-25.397759 13.560933z" style="fill:#1c1009"/>
    </g>
    <g transform="translate(-1.3753531,1.9392714)">
     <path d="m106.11114-8.15735-41.465762 13.511166v0.09598l20.755099 6.72759-0.01779-0.108423 20.977273-20.188099z" style="fill:#838383"/>
     <path d="m65.072829-38.462572-0.213292 0.425696v43.453822l12.930835-17.689913z" style="fill:#981039"/>
     <path d="m65.091494 5.492483-0.231957-0.07554v21.742464l25.397759 13.560933z" style="fill:#29006a"/>
     <path d="m64.859537 5.416943 25.165802 35.227856 0.07732 0.04086-4.719974-28.616693z" style="fill:#c0c0c0"/>
     <path d="m64.646245-37.818255-12.479366 25.699033 12.692658 17.689915v-42.963252z" style="fill:#ffba00"/>
     <path d="m77.790372-12.272967-12.930835 17.689912v0.153748l41.465763-13.511166z" style="fill:#e5305a"/>
     <path d="m23.846112-8.003605 41.46576 13.511166v0.09598l-20.755098 6.72759 0.01779-0.108423-20.977277-20.188099z" style="fill:#ffba00"/>
     <path d="m65.097713 5.570688-25.165802 35.227856-0.07732 0.04086 4.719974-28.616693z" style="fill:#ffe24f"/>
     <path d="m52.166879-12.119222 12.930834 17.689912v0.153748l-41.46576-13.511166z" style="fill:#ffe24f"/>
     <path d="m64.62758 5.492483 0.231957-0.07554v21.742464l-25.397759 13.560933z" style="fill:#8e58e8"/>
    </g>
   </g>
  </g>
 </g>
</svg>
