<?xml version="1.0" encoding="UTF-8" standalone="no"?>
<!-- Created with Inkscape (http://www.inkscape.org/) -->

<svg
   xmlns:dc="http://purl.org/dc/elements/1.1/"
   xmlns:cc="http://creativecommons.org/ns#"
   xmlns:rdf="http://www.w3.org/1999/02/22-rdf-syntax-ns#"
   xmlns:svg="http://www.w3.org/2000/svg"
   xmlns="http://www.w3.org/2000/svg"
   xmlns:xlink="http://www.w3.org/1999/xlink"
   xmlns:sodipodi="http://sodipodi.sourceforge.net/DTD/sodipodi-0.dtd"
   xmlns:inkscape="http://www.inkscape.org/namespaces/inkscape"
   inkscape:export-ydpi="96"
   inkscape:export-xdpi="96"
   width="256"
   height="256"
   id="svg11300"
   sodipodi:version="0.32"
   inkscape:version="0.92.3 (2405546, 2018-03-11)"
   sodipodi:docname="44.svg"
   inkscape:output_extension="org.inkscape.output.svg.inkscape"
   version="1.0"
   style="display:inline;enable-background:new"
   inkscape:export-filename="/home/sam/suru-template.png">
  <title
     id="title3004">Suru App Icon Template</title>
  <sodipodi:namedview
     stroke="#ef2929"
     fill="#f57900"
     id="base"
     pagecolor="#ffffff"
     bordercolor="#000000"
     borderopacity="0.25490196"
     inkscape:pageopacity="0"
     inkscape:pageshadow="2"
     inkscape:zoom="2.4641522"
     inkscape:cx="134.80815"
     inkscape:cy="122.45099"
     inkscape:current-layer="layer10"
     showgrid="false"
     inkscape:grid-bbox="true"
     inkscape:document-units="px"
     inkscape:showpageshadow="false"
     inkscape:window-width="1920"
     inkscape:window-height="1009"
     inkscape:window-x="0"
     inkscape:window-y="34"
     width="400px"
     height="300px"
     inkscape:snap-nodes="true"
     inkscape:snap-bbox="true"
     gridtolerance="10000"
     inkscape:object-nodes="true"
     inkscape:snap-grids="true"
     showguides="true"
     inkscape:guide-bbox="true"
     inkscape:window-maximized="1"
     inkscape:bbox-paths="true"
     inkscape:snap-bbox-midpoints="true"
     inkscape:snap-global="true"
     inkscape:object-paths="true"
     inkscape:snap-intersection-paths="true"
     inkscape:snap-smooth-nodes="true"
     inkscape:pagecheckerboard="false"
     showborder="true"
     inkscape:document-rotation="0">
    <inkscape:grid
       spacingy="1"
       spacingx="1"
       id="grid5883"
       type="xygrid"
       enabled="true"
       visible="true"
       empspacing="4"
       snapvisiblegridlinesonly="true"
       originx="0"
       originy="0" />
    <inkscape:grid
       type="xygrid"
       id="grid11592"
       empspacing="2"
       visible="true"
       enabled="false"
       spacingx="0.5"
       spacingy="0.5"
       color="#ff0000"
       opacity="0.1254902"
       empcolor="#ff0000"
       empopacity="0.25098039"
       snapvisiblegridlinesonly="true"
       originx="0"
       originy="0" />
  </sodipodi:namedview>
  <defs
     id="defs3">
    <clipPath
       clipPathUnits="userSpaceOnUse"
       id="clipPath9430">
      <path
         sodipodi:nodetypes="sssssssss"
         inkscape:connector-curvature="0"
         id="path9432"
         d="m 166.0625,-196 h 179.875 C 491.2348,-196 512,-175.28677 512,-30.125 v 148.25 C 512,263.28618 491.2348,284 345.9375,284 H 166.0625 C 20.7652,284 0,263.28618 0,118.125 V -30.125 C 0,-175.28677 20.7652,-196 166.0625,-196 Z"
         style="color:#000000;display:inline;overflow:visible;visibility:visible;fill:#ffffff;fill-opacity:1;fill-rule:nonzero;stroke:none;stroke-width:1;marker:none;enable-background:new" />
    </clipPath>
    <clipPath
       clipPathUnits="userSpaceOnUse"
       id="clipPath1082">
      <path
         sodipodi:nodetypes="sssssssss"
         inkscape:connector-curvature="0"
         id="path1084"
         d="M 361.9375,-212 C 507.2348,-212 528,-191.28677 528,-46.125 V 70.125 C 528,215.28618 507.2348,236 361.9375,236 H 214.0625 C 68.7652,236 48,215.28618 48,70.125 V -46.125 C 48,-191.28677 68.7652,-212 214.0625,-212 Z"
         style="display:inline;opacity:1;fill:#8c59d9;fill-opacity:1;stroke:none;stroke-width:2;stroke-linecap:round;stroke-linejoin:round;stroke-miterlimit:4;stroke-dasharray:none;stroke-dashoffset:0;stroke-opacity:1;enable-background:new" />
    </clipPath>
    <filter
       inkscape:collect="always"
       style="color-interpolation-filters:sRGB"
       id="filter925"
       x="-0.0232"
       width="1.0464"
       y="-0.024857143"
       height="1.0497143">
      <feGaussianBlur
         inkscape:collect="always"
         stdDeviation="2.32"
         id="feGaussianBlur927" />
    </filter>
    <filter
       inkscape:collect="always"
       style="color-interpolation-filters:sRGB"
       id="filter931"
       x="-0.0116"
       width="1.0232"
       y="-0.012428571"
       height="1.024857">
      <feGaussianBlur
         inkscape:collect="always"
         stdDeviation="1.16"
         id="feGaussianBlur933" />
    </filter>
    <linearGradient
       inkscape:collect="always"
       xlink:href="#linearGradient1013"
       id="linearGradient1108"
       x1="296"
       y1="-212"
       x2="296"
       y2="236"
       gradientUnits="userSpaceOnUse" />
    <linearGradient
       id="linearGradient1013"
       inkscape:collect="always">
      <stop
         id="stop1005"
         offset="0"
         style="stop-color:#ffffff;stop-opacity:1;" />
      <stop
         style="stop-color:#ffffff;stop-opacity:0.09803922"
         offset="0.125"
         id="stop1007" />
      <stop
         style="stop-color:#000000;stop-opacity:0.09803922"
         offset="0.92500001"
         id="stop1009" />
      <stop
         id="stop1011"
         offset="1"
         style="stop-color:#000000;stop-opacity:0.49803922" />
    </linearGradient>
    <clipPath
       clipPathUnits="userSpaceOnUse"
       id="clipPath1082-3">
      <path
         sodipodi:nodetypes="sssssssss"
         inkscape:connector-curvature="0"
         id="path1084-6"
         d="M 361.9375,-212 C 507.2348,-212 528,-191.28677 528,-46.125 V 70.125 C 528,215.28618 507.2348,236 361.9375,236 H 214.0625 C 68.7652,236 48,215.28618 48,70.125 V -46.125 C 48,-191.28677 68.7652,-212 214.0625,-212 Z"
         style="display:inline;opacity:1;fill:#8c59d9;fill-opacity:1;stroke:none;stroke-width:2;stroke-linecap:round;stroke-linejoin:round;stroke-miterlimit:4;stroke-dasharray:none;stroke-dashoffset:0;stroke-opacity:1;enable-background:new" />
    </clipPath>
    <clipPath
       id="clipPath1064">
      <path
         inkscape:connector-curvature="0"
         d="M 115.03125,44 C 42.3826,44 32,54.356615 32,126.9375 v 58.125 c 0,10.16582 0.217657,19.07051 0.767578,26.9375 3.376331,48.30069 19.790377,56 82.263672,56 h 73.9375 c 62.4733,0 78.88734,-7.69931 82.26367,-56 C 271.78234,204.13301 272,195.22832 272,185.0625 v -58.125 C 272,54.356615 261.6174,44 188.96875,44 Z"
         style="fill:#a3dbf0"
         id="path8" />
    </clipPath>
    <linearGradient
       id="linearGradient1108-3"
       x1="296"
       x2="296"
       y1="-212"
       y2="236"
       gradientUnits="userSpaceOnUse">
      <stop
         style="stop-color:#ffffff"
         offset="0"
         id="stop11" />
      <stop
         style="stop-color:#ffffff;stop-opacity:.09803922"
         offset=".125"
         id="stop13" />
      <stop
         style="stop-color:#000000;stop-opacity:.09803922"
         offset=".925"
         id="stop15" />
      <stop
         style="stop-color:#000000;stop-opacity:.49803922"
         offset="1"
         id="stop17" />
    </linearGradient>
    <clipPath
       id="clipPath1082-3-61">
      <path
         inkscape:connector-curvature="0"
         d="M 361.9375,-212 C 507.2348,-212 528,-191.28677 528,-46.125 V 70.125 C 528,215.28618 507.2348,236 361.9375,236 H 214.0625 C 68.7652,236 48,215.28618 48,70.125 V -46.125 C 48,-191.28677 68.7652,-212 214.0625,-212 Z"
         style="fill:#8c59d9"
         id="path20" />
    </clipPath>
    <clipPath
       id="clipPath4930">
      <path
         inkscape:connector-curvature="0"
         d="M 115.03125,44 C 42.3826,44 32,54.356615 32,126.9375 v 58.125 c 0,10.16582 0.217657,19.07051 0.767578,26.9375 3.376331,48.30069 19.790377,56 82.263672,56 h 73.9375 c 62.4733,0 78.88734,-7.69931 82.26367,-56 C 271.78234,204.13301 272,195.22832 272,185.0625 v -58.125 C 272,54.356615 261.6174,44 188.96875,44 Z"
         style="fill:#a3dbf0"
         id="path4928" />
    </clipPath>
    <filter
       id="filter1125"
       x="-0.23999999"
       y="-0.23999999"
       width="1.48"
       height="1.48"
       style="color-interpolation-filters:sRGB">
      <feGaussianBlur
         stdDeviation=".606"
         id="feGaussianBlur44" />
    </filter>
    <filter
       id="filter1103"
       x="-0.23999999"
       y="-0.23999999"
       width="1.48"
       height="1.48"
       style="color-interpolation-filters:sRGB">
      <feGaussianBlur
         stdDeviation=".976"
         id="feGaussianBlur41" />
    </filter>
    <filter
       id="filter1077"
       x="-0.23999999"
       y="-0.23999999"
       width="1.48"
       height="1.48"
       style="color-interpolation-filters:sRGB">
      <feGaussianBlur
         stdDeviation=".945"
         id="feGaussianBlur38" />
    </filter>
    <filter
       id="filter1055"
       x="-0.23999999"
       y="-0.23999999"
       width="1.48"
       height="1.48"
       style="color-interpolation-filters:sRGB">
      <feGaussianBlur
         stdDeviation=".39"
         id="feGaussianBlur35" />
    </filter>
    <filter
       id="filter1033"
       x="-0.23999999"
       y="-0.23999999"
       width="1.48"
       height="1.48"
       style="color-interpolation-filters:sRGB">
      <feGaussianBlur
         stdDeviation="1.5"
         id="feGaussianBlur32" />
    </filter>
    <filter
       id="filter991"
       x="-0.23999999"
       y="-0.23999999"
       width="1.48"
       height="1.48"
       style="color-interpolation-filters:sRGB">
      <feGaussianBlur
         stdDeviation=".606"
         id="feGaussianBlur29" />
    </filter>
    <filter
       id="filter969"
       x="-0.23999999"
       y="-0.23999999"
       width="1.48"
       height="1.48"
       style="color-interpolation-filters:sRGB">
      <feGaussianBlur
         stdDeviation=".945"
         id="feGaussianBlur26" />
    </filter>
    <clipPath
       id="clipPath4948">
      <path
         inkscape:connector-curvature="0"
         d="M 115.03125,44 C 42.3826,44 32,54.356615 32,126.9375 v 58.125 c 0,10.16582 0.217657,19.07051 0.767578,26.9375 3.376331,48.30069 19.790377,56 82.263672,56 h 73.9375 c 62.4733,0 78.88734,-7.69931 82.26367,-56 C 271.78234,204.13301 272,195.22832 272,185.0625 v -58.125 C 272,54.356615 261.6174,44 188.96875,44 Z"
         style="fill:#a3dbf0"
         id="path4946" />
    </clipPath>
    <filter
       id="filter890"
       x="-0.050000001"
       y="-0.050000001"
       width="1.096"
       height="1.096"
       style="color-interpolation-filters:sRGB">
      <feGaussianBlur
         stdDeviation="1.7"
         id="feGaussianBlur23" />
    </filter>
    <clipPath
       id="clipPath4954">
      <path
         inkscape:connector-curvature="0"
         d="M 115.03125,44 C 42.3826,44 32,54.356615 32,126.9375 v 58.125 c 0,10.16582 0.217657,19.07051 0.767578,26.9375 3.376331,48.30069 19.790377,56 82.263672,56 h 73.9375 c 62.4733,0 78.88734,-7.69931 82.26367,-56 C 271.78234,204.13301 272,195.22832 272,185.0625 v -58.125 C 272,54.356615 261.6174,44 188.96875,44 Z"
         style="fill:#a3dbf0"
         id="path4952" />
    </clipPath>
    <filter
       id="filter1125-6"
       x="-0.23999999"
       y="-0.23999999"
       width="1.48"
       height="1.48"
       style="color-interpolation-filters:sRGB">
      <feGaussianBlur
         stdDeviation=".606"
         id="feGaussianBlur44-7" />
    </filter>
    <filter
       id="filter1103-5"
       x="-0.23999999"
       y="-0.23999999"
       width="1.48"
       height="1.48"
       style="color-interpolation-filters:sRGB">
      <feGaussianBlur
         stdDeviation=".976"
         id="feGaussianBlur41-3" />
    </filter>
    <filter
       id="filter1077-5"
       x="-0.23999999"
       y="-0.23999999"
       width="1.48"
       height="1.48"
       style="color-interpolation-filters:sRGB">
      <feGaussianBlur
         stdDeviation=".945"
         id="feGaussianBlur38-6" />
    </filter>
    <filter
       id="filter1055-2"
       x="-0.23999999"
       y="-0.23999999"
       width="1.48"
       height="1.48"
       style="color-interpolation-filters:sRGB">
      <feGaussianBlur
         stdDeviation=".39"
         id="feGaussianBlur35-9" />
    </filter>
    <filter
       id="filter1033-1"
       x="-0.23999999"
       y="-0.23999999"
       width="1.48"
       height="1.48"
       style="color-interpolation-filters:sRGB">
      <feGaussianBlur
         stdDeviation="1.5"
         id="feGaussianBlur32-2" />
    </filter>
    <filter
       id="filter991-7"
       x="-0.23999999"
       y="-0.23999999"
       width="1.48"
       height="1.48"
       style="color-interpolation-filters:sRGB">
      <feGaussianBlur
         stdDeviation=".606"
         id="feGaussianBlur29-0" />
    </filter>
    <filter
       id="filter969-9"
       x="-0.23999999"
       y="-0.23999999"
       width="1.48"
       height="1.48"
       style="color-interpolation-filters:sRGB">
      <feGaussianBlur
         stdDeviation=".945"
         id="feGaussianBlur26-3" />
    </filter>
    <filter
       id="filter890-6"
       x="-0.050000001"
       y="-0.050000001"
       width="1.096"
       height="1.096"
       style="color-interpolation-filters:sRGB">
      <feGaussianBlur
         stdDeviation="1.7"
         id="feGaussianBlur23-0" />
    </filter>
  </defs>
  <metadata
     id="metadata4">
    <rdf:RDF>
      <cc:Work
         rdf:about="">
        <dc:format>image/svg+xml</dc:format>
        <dc:type
           rdf:resource="http://purl.org/dc/dcmitype/StillImage" />
        <dc:creator>
          <cc:Agent>
            <dc:title>Sam Hewitt</dc:title>
          </cc:Agent>
        </dc:creator>
        <dc:source />
        <cc:license
           rdf:resource="http://creativecommons.org/licenses/by-sa/4.0/" />
        <dc:title>Suru App Icon Template</dc:title>
        <dc:subject>
          <rdf:Bag />
        </dc:subject>
        <dc:date />
        <dc:rights>
          <cc:Agent>
            <dc:title />
          </cc:Agent>
        </dc:rights>
        <dc:publisher>
          <cc:Agent>
            <dc:title />
          </cc:Agent>
        </dc:publisher>
        <dc:identifier />
        <dc:relation />
        <dc:language />
        <dc:coverage />
        <dc:description />
        <dc:contributor>
          <cc:Agent>
            <dc:title />
          </cc:Agent>
        </dc:contributor>
      </cc:Work>
      <cc:Work
         rdf:about="">
        <dc:format>image/svg+xml</dc:format>
        <dc:type
           rdf:resource="http://purl.org/dc/dcmitype/StillImage" />
      </cc:Work>
      <cc:License
         rdf:about="http://creativecommons.org/licenses/by-sa/4.0/">
        <cc:permits
           rdf:resource="http://creativecommons.org/ns#Reproduction" />
        <cc:permits
           rdf:resource="http://creativecommons.org/ns#Distribution" />
        <cc:requires
           rdf:resource="http://creativecommons.org/ns#Notice" />
        <cc:requires
           rdf:resource="http://creativecommons.org/ns#Attribution" />
        <cc:permits
           rdf:resource="http://creativecommons.org/ns#DerivativeWorks" />
        <cc:requires
           rdf:resource="http://creativecommons.org/ns#ShareAlike" />
      </cc:License>
    </rdf:RDF>
  </metadata>
  <g
     style="display:inline"
     inkscape:groupmode="layer"
     inkscape:label="Icon"
     id="layer1"
     transform="translate(0,-44)">
    <g
       inkscape:groupmode="layer"
       id="layer9"
       inkscape:label="Hires"
       style="display:inline">
      <g
         inkscape:groupmode="layer"
         id="layer6"
         inkscape:label="Drop Shadow"
         style="display:inline">
        <path
           sodipodi:nodetypes="sssssssss"
           inkscape:connector-curvature="0"
           id="path923"
           d="m 162.53675,62.431991 c 72.64865,0 83.03125,10.356615 83.03125,82.937499 v 58.125 c 0,72.58059 -10.3826,82.9375 -83.03125,82.9375 h -73.9375 c -72.64865,0 -83.0312501,-10.35691 -83.0312501,-82.9375 v -58.125 c 0,-72.580884 10.3826001,-82.937499 83.0312501,-82.937499 z"
           style="display:inline;opacity:0.2;fill:#000000;fill-opacity:1;stroke:none;stroke-width:2;stroke-linecap:round;stroke-linejoin:round;stroke-miterlimit:4;stroke-dasharray:none;stroke-dashoffset:0;stroke-opacity:1;filter:url(#filter925);enable-background:new" />
        <path
           style="display:inline;opacity:0.1;fill:#000000;fill-opacity:1;stroke:none;stroke-width:2;stroke-linecap:round;stroke-linejoin:round;stroke-miterlimit:4;stroke-dasharray:none;stroke-dashoffset:0;stroke-opacity:1;filter:url(#filter931);enable-background:new"
           d="m 162.53675,61.431991 c 72.64865,0 83.03125,10.356615 83.03125,82.937499 v 58.125 c 0,72.58059 -10.3826,82.9375 -83.03125,82.9375 h -73.9375 c -72.64865,0 -83.0312501,-10.35691 -83.0312501,-82.9375 v -58.125 c 0,-72.580884 10.3826001,-82.937499 83.0312501,-82.937499 z"
           id="path929"
           inkscape:connector-curvature="0"
           sodipodi:nodetypes="sssssssss" />
      </g>
      <g
         inkscape:groupmode="layer"
         id="layer10"
         inkscape:label="Background"
         style="display:inline">
        <path
           style="display:inline;opacity:1;fill:#3c1d66;fill-opacity:1;stroke:none;stroke-width:2;stroke-linecap:round;stroke-linejoin:round;stroke-miterlimit:4;stroke-dasharray:none;stroke-dashoffset:0;stroke-opacity:1;enable-background:new"
           d="m 162.53675,60.431991 c 72.64865,0 83.03125,10.356615 83.03125,82.937499 v 58.125 c 0,72.58059 -10.3826,82.9375 -83.03125,82.9375 h -73.9375 c -72.64865,0 -83.0312501,-10.35691 -83.0312501,-82.9375 v -58.125 c 0,-72.580884 10.3826001,-82.937499 83.0312501,-82.937499 z"
           id="rect877"
           inkscape:connector-curvature="0"
           sodipodi:nodetypes="sssssssss" />
        <path
           inkscape:connector-curvature="0"
           d="m -130.89971,88.919107 c -23.47257,0 -42.49965,19.027803 -42.49965,42.499853 0,23.4716 19.02793,42.49945 42.49965,42.49945 23.4717,0 42.499625,-19.02785 42.499625,-42.49945 0,-23.47205 -19.027925,-42.499853 -42.499625,-42.499853 z"
           style="display:inline;opacity:0.1;fill:#ffffff;filter:url(#filter890-6);enable-background:new"
           id="path64"
           transform="matrix(0.98099949,0,0,0.98099949,310.97195,-8.135237)" />
        <path
           inkscape:connector-curvature="0"
           d="m 210.89912,90.219249 c 3.94739,6.3706 6.23365,13.878641 6.23365,21.924021 0,23.02561 -18.66501,41.69072 -41.69075,41.69072 -10.94754,0 -20.90539,-4.22639 -28.3444,-11.12782 7.34946,11.8653 20.47742,19.77315 35.4603,19.77315 23.02573,0 41.69396,-18.66833 41.69396,-41.69395 0,-12.08001 -5.14351,-22.951751 -13.35276,-30.566121 z"
           style="display:inline;fill:#e1e1e1;stroke-width:0.98099947;enable-background:new"
           id="path66" />
        <path
           inkscape:connector-curvature="0"
           d="m 5.5679999,164.30164 v 37.19368 c 0,9.07257 0.16243,17.17297 0.58822,24.40236 0.21289,3.61469 0.49145,7.01089 0.8488,10.20278 0.35734,3.19188 0.79301,6.1783 1.32013,8.97269 0.52713,2.79441 1.14587,5.39702 1.8681201,7.81926 0.72224,2.42224 1.54812,4.66513 2.49081,6.74054 0.94269,2.07541 2.00169,3.98264 3.19016,5.73655 1.18848,1.7539 2.50656,3.35339 3.96615,4.81111 1.45959,1.45772 3.06083,2.77354 4.81687,3.9604 1.75604,1.18687 3.66639,2.245 5.74421,3.18634 2.07783,0.94133 4.32326,1.76584 6.7482,2.48698 2.42495,0.72114 5.02953,1.33994 7.82692,1.8662 2.7974,0.52626 5.7871,0.96152 8.98228,1.31822 3.19518,0.3567 6.59598,0.6344 10.214278,0.84688 7.23659,0.42496 15.34427,0.5863 24.42535,0.5863 h 73.939012 c 1.35562,0 2.33358,-0.0805 3.64617,-0.0881 A 116.33945,115.28044 0 0 0 167.25282,270.32622 116.33945,115.28044 0 0 0 50.91241,155.04728 116.33945,115.28044 0 0 0 5.5680099,164.30163 Z"
           style="display:inline;opacity:0.05;fill:#e1e1e1;stroke-width:0.98099947;enable-background:new"
           id="path68" />
        <path
           inkscape:connector-curvature="0"
           d="m 87.019698,284.3936 c 0.57888,9.8e-4 0.99181,0.0384 1.5788,0.0384 h 73.939012 c 9.08108,0 17.18875,-0.16134 24.42534,-0.5863 3.6183,-0.21248 7.0191,-0.49018 10.21428,-0.84688 3.19519,-0.3567 6.18488,-0.79196 8.98228,-1.31822 2.7974,-0.52626 5.40198,-1.14506 7.82692,-1.8662 2.42494,-0.72114 4.67038,-1.54565 6.7482,-2.48698 2.07783,-0.94134 3.98817,-1.99947 5.74421,-3.18634 1.75605,-1.18686 3.35727,-2.50268 4.81686,-3.9604 1.45959,-1.45773 2.77768,-3.05721 3.96615,-4.81111 1.18847,-1.75391 2.24747,-3.66114 3.19016,-5.73655 0.9427,-2.07541 1.76858,-4.3183 2.49083,-6.74054 0.72224,-2.42224 1.34099,-5.02485 1.86811,-7.81926 0.52713,-2.7944 0.96279,-5.78081 1.32014,-8.97269 0.35734,-3.19189 0.63589,-6.58809 0.84879,-10.20278 0.42579,-7.22939 0.58822,-15.32979 0.58822,-24.40236 v -13.55583 a 115.28044,116.33945 23.622318 0 0 -149.491302,61.437 115.28044,116.33945 23.622318 0 0 -9.057,35.01708 z"
           style="display:inline;fill:#ac776d;stroke-width:0.98099947;enable-background:new"
           id="path70" />
        <path
           inkscape:connector-curvature="0"
           d="m 72.710898,284.05064 c 5.11147,0.16481 9.98077,0.38129 15.8876,0.38129 h 73.939012 c 9.08108,0 17.18875,-0.16134 24.42534,-0.5863 3.6183,-0.21248 7.0191,-0.49018 10.21428,-0.84688 3.19519,-0.3567 6.18488,-0.79196 8.98228,-1.31822 2.7974,-0.52626 5.40198,-1.14506 7.82692,-1.8662 2.08544,-0.62017 3.9762,-1.35655 5.80361,-2.13827 0.38606,-2.26982 0.76027,-4.56242 1.04231,-7.08159 0.35734,-3.19189 0.63589,-6.58809 0.84879,-10.20278 0.42579,-7.22938 0.58822,-15.32979 0.58822,-24.40236 v -13.5558 a 115.28044,116.33945 23.622318 0 0 -149.491302,61.437 115.28044,116.33945 23.622318 0 0 -0.0671,0.18011 z"
           style="display:inline;fill:#574a5c;stroke-width:0.98099947;enable-background:new"
           id="path78" />
        <path
           inkscape:connector-curvature="0"
           d="m 5.6523099,204.97672 c 0.0415,7.54214 0.13887,14.72297 0.50391,20.92096 0.21289,3.61469 0.49145,7.01089 0.8488,10.20278 0.35734,3.19188 0.79301,6.1783 1.32013,8.97269 0.52713,2.79441 1.14587,5.39702 1.8681201,7.81926 0.72224,2.42224 1.54812,4.66513 2.49081,6.74054 0.94269,2.07541 2.00169,3.98264 3.19016,5.73655 1.18848,1.7539 2.50656,3.35339 3.96615,4.81111 1.45959,1.45772 3.06083,2.77354 4.81687,3.9604 1.75604,1.18687 3.66639,2.245 5.74421,3.18634 2.07783,0.94133 4.32326,1.76584 6.7482,2.48698 2.42495,0.72114 5.02953,1.33994 7.82692,1.8662 2.7974,0.52626 5.7871,0.96152 8.98228,1.31822 3.19518,0.3567 6.59598,0.6344 10.214278,0.84688 7.23659,0.42496 15.34427,0.5863 24.42535,0.5863 h 73.939012 c 9.08108,0 17.18875,-0.16134 24.42534,-0.5863 3.6183,-0.21248 7.0191,-0.49018 10.21428,-0.84688 3.19519,-0.3567 6.18488,-0.79196 8.98228,-1.31822 2.7974,-0.52626 5.40198,-1.14506 7.82692,-1.8662 2.42494,-0.72114 4.67038,-1.54565 6.7482,-2.48698 2.07783,-0.94134 3.98817,-1.99947 5.74421,-3.18634 1.75605,-1.18686 3.35727,-2.50268 4.81686,-3.9604 1.45959,-1.45773 2.77768,-3.05721 3.96615,-4.81111 1.18848,-1.75391 2.24747,-3.66114 3.19017,-5.73655 0.94269,-2.07541 1.76857,-4.3183 2.49082,-6.74054 0.72224,-2.42224 1.34099,-5.02485 1.86811,-7.81926 0.52713,-2.79439 0.96279,-5.78081 1.32014,-8.97269 0.35647,-3.1841 0.63418,-6.57306 0.84688,-10.17787 -7.34293,-6.23045 -15.49848,-10.29667 -24.35064,-10.29667 -38.87082,0 -38.86896,38.78589 -64.78236,38.78589 -25.90917,0 -64.779842,-64.64633 -103.65065,-64.64633 h -0.006 c -16.53439,0 -33.01273,4.77102 -46.5361601,15.21124 z"
           style="display:inline;fill:#313131;stroke-width:0.98099947;enable-background:new"
           id="path82" />
        <circle
           cx="36.707111"
           cy="105.19825"
           r="7.3574963"
           style="display:inline;fill:#e1e1e1;stroke-width:0.98099947;enable-background:new"
           id="circle84" />
        <circle
           cx="52.592426"
           cy="87.194946"
           r="2.9704666"
           style="display:inline;fill:#e1e1e1;stroke-width:0.98099947;enable-background:new"
           id="circle86" />
        <circle
           cx="75.436974"
           cy="93.699966"
           r="4.6342416"
           style="display:inline;fill:#e1e1e1;stroke-width:0.98099947;enable-background:new"
           id="circle88" />
        <circle
           cx="68.683769"
           cy="158.24384"
           r="2.9704666"
           style="display:inline;fill:#e1e1e1;stroke-width:0.98099947;enable-background:new"
           id="circle90" />
        <circle
           cx="81.392624"
           cy="138.87892"
           r="4.7853155"
           style="display:inline;fill:#e1e1e1;stroke-width:0.98099947;enable-background:new"
           id="circle92" />
        <circle
           cx="48.260334"
           cy="131.76863"
           r="4.6342416"
           style="display:inline;fill:#e1e1e1;stroke-width:0.98099947;enable-background:new"
           id="circle94" />
        <circle
           cx="58.850208"
           cy="120.27133"
           r="1.910987"
           style="display:inline;fill:#e1e1e1;stroke-width:0.98099947;enable-background:new"
           id="circle96" />
        <path
           inkscape:connector-curvature="0"
           d="m 182.5594,79.094362 c -23.02658,0 -41.69214,18.666267 -41.69214,41.692338 0,23.02562 18.66639,41.69194 41.69214,41.69194 23.02572,0 41.69211,-18.66632 41.69211,-41.69194 0,-23.026071 -18.66639,-41.692338 -41.69211,-41.692338 z"
           style="display:inline;opacity:0.15;fill:#ffffff;stroke-width:0.98099947;enable-background:new"
           id="path98" />
        <circle
           cx="-240.09694"
           cy="103.80759"
           r="4.724"
           style="display:inline;fill:#e1e1e1;filter:url(#filter969-9);enable-background:new"
           id="circle100"
           transform="matrix(0.98099949,0,0,0.98099949,310.97195,-8.135237)" />
        <circle
           cx="-263.38394"
           cy="97.17659"
           r="3.0280001"
           style="display:inline;fill:#e1e1e1;filter:url(#filter991-7);enable-background:new"
           id="circle102"
           transform="matrix(0.98099949,0,0,0.98099949,310.97195,-8.135237)" />
        <circle
           cx="-279.57693"
           cy="115.52859"
           r="7.5"
           style="display:inline;fill:#e1e1e1;filter:url(#filter1033-1);enable-background:new"
           id="circle104"
           transform="matrix(0.98099949,0,0,0.98099949,310.97195,-8.135237)" />
        <circle
           cx="-257.00494"
           cy="130.8936"
           r="1.948"
           style="display:inline;fill:#e1e1e1;filter:url(#filter1055-2);enable-background:new"
           id="circle106"
           transform="matrix(0.98099949,0,0,0.98099949,310.97195,-8.135237)" />
        <circle
           cx="-267.79996"
           cy="142.6136"
           r="4.724"
           style="display:inline;fill:#e1e1e1;filter:url(#filter1077-5);enable-background:new"
           id="circle108"
           transform="matrix(0.98099949,0,0,0.98099949,310.97195,-8.135237)" />
        <circle
           cx="-234.02594"
           cy="149.8616"
           r="4.8779998"
           style="display:inline;fill:#e1e1e1;filter:url(#filter1103-5);enable-background:new"
           id="circle110"
           transform="matrix(0.98099949,0,0,0.98099949,310.97195,-8.135237)" />
        <circle
           cx="-246.98094"
           cy="169.60159"
           r="3.0280001"
           style="display:inline;fill:#e1e1e1;filter:url(#filter1125-6);enable-background:new"
           id="circle112"
           transform="matrix(0.98099949,0,0,0.98099949,310.97195,-8.135237)" />
      </g>
      <g
         inkscape:groupmode="layer"
         id="layer13"
         inkscape:label="Pictogram"
         style="display:inline" />
      <g
         inkscape:groupmode="layer"
         id="layer11"
         inkscape:label="Outline"
         style="display:inline">
        <path
           sodipodi:nodetypes="sssssssss"
           inkscape:connector-curvature="0"
           id="path1068"
           d="m 361.9375,-212 c 145.2973,0 166.0625,20.71323 166.0625,165.875 v 116.25 c 0,145.16118 -20.7652,165.875 -166.0625,165.875 h -147.875 c -145.2973,0 -166.0625,-20.71382 -166.0625,-165.875 v -116.25 c 0,-145.16177 20.7652,-165.875 166.0625,-165.875 z"
           style="display:inline;opacity:0.4;fill:none;fill-opacity:1;stroke:url(#linearGradient1108);stroke-width:8;stroke-linecap:round;stroke-linejoin:round;stroke-miterlimit:4;stroke-dasharray:none;stroke-dashoffset:0;stroke-opacity:1;enable-background:new"
           clip-path="url(#clipPath1082-3)"
           transform="matrix(0.5,0,0,0.5,-18.432,166.43199)" />
      </g>
    </g>
  </g>
</svg>
