<svg width="256" height="256" enable-background="new 0 0 48 48" version="1.1" viewBox="0 0 256 256" xmlns="http://www.w3.org/2000/svg" xmlns:xlink="http://www.w3.org/1999/xlink">
 <defs>
  <filter id="filter4569" x="-.01" y="-.01" width="1.023" height="1.025" style="color-interpolation-filters:sRGB">
   <feGaussianBlur stdDeviation="1.16"/>
  </filter>
  <filter id="filter956" x="-.02" y="-.03" width="1.046" height="1.05" style="color-interpolation-filters:sRGB">
   <feGaussianBlur stdDeviation="2.32"/>
  </filter>
  <clipPath id="clipPath1064">
   <path d="m115.03125 44c-72.64865 0-83.03125 10.356615-83.03125 82.9375v58.125c0 10.16582 0.217657 19.07051 0.767578 26.9375 3.376331 48.30069 19.790377 56 82.263672 56h73.9375c62.4733 0 78.88734-7.69931 82.26367-56 0.54992-7.86699 0.76758-16.77168 0.76758-26.9375v-58.125c0-72.580885-10.3826-82.9375-83.03125-82.9375z" style="fill:#a3dbf0"/>
  </clipPath>
  <linearGradient id="linearGradient1108" x1="296" x2="296" y1="-212" y2="236" gradientUnits="userSpaceOnUse">
   <stop style="stop-color:#ffffff" offset="0"/>
   <stop style="stop-color:#ffffff;stop-opacity:.09803922" offset=".125"/>
   <stop style="stop-color:#000000;stop-opacity:.09803922" offset=".925"/>
   <stop style="stop-color:#000000;stop-opacity:.49803922" offset="1"/>
  </linearGradient>
  <clipPath id="clipPath1082-3-61">
   <path d="M 361.9375,-212 C 507.2348,-212 528,-191.28677 528,-46.125 V 70.125 C 528,215.28618 507.2348,236 361.9375,236 H 214.0625 C 68.7652,236 48,215.28618 48,70.125 V -46.125 C 48,-191.28677 68.7652,-212 214.0625,-212 Z" style="fill:#8c59d9"/>
  </clipPath>
  <filter id="filter890" x="-.05" y="-.05" width="1.096" height="1.096" style="color-interpolation-filters:sRGB">
   <feGaussianBlur stdDeviation="1.7"/>
  </filter>
  <filter id="filter969" x="-.24" y="-.24" width="1.48" height="1.48" style="color-interpolation-filters:sRGB">
   <feGaussianBlur stdDeviation=".945"/>
  </filter>
  <filter id="filter991" x="-.24" y="-.24" width="1.48" height="1.48" style="color-interpolation-filters:sRGB">
   <feGaussianBlur stdDeviation=".606"/>
  </filter>
  <filter id="filter1033" x="-.24" y="-.24" width="1.48" height="1.48" style="color-interpolation-filters:sRGB">
   <feGaussianBlur stdDeviation="1.5"/>
  </filter>
  <filter id="filter1055" x="-.24" y="-.24" width="1.48" height="1.48" style="color-interpolation-filters:sRGB">
   <feGaussianBlur stdDeviation=".39"/>
  </filter>
  <filter id="filter1077" x="-.24" y="-.24" width="1.48" height="1.48" style="color-interpolation-filters:sRGB">
   <feGaussianBlur stdDeviation=".945"/>
  </filter>
  <filter id="filter1103" x="-.24" y="-.24" width="1.48" height="1.48" style="color-interpolation-filters:sRGB">
   <feGaussianBlur stdDeviation=".976"/>
  </filter>
  <filter id="filter1125" x="-.24" y="-.24" width="1.48" height="1.48" style="color-interpolation-filters:sRGB">
   <feGaussianBlur stdDeviation=".606"/>
  </filter>
  <filter id="filter1135" x="-.04" y="-.06" width="1.08" height="1.121" style="color-interpolation-filters:sRGB">
   <feGaussianBlur stdDeviation="2.686"/>
  </filter>
 </defs>
 <g transform="translate(0,208)">
  <path transform="matrix(1.019368,0,0,1.019368,-26.943941,-240.90521)" d="m188.96876 43.999995c72.64865 0 83.03125 10.356615 83.03125 82.937505v58.125c0 72.58059-10.3826 82.9375-83.03125 82.9375h-73.9375c-72.648654 0-83.031254-10.35691-83.031254-82.9375v-58.125c0-72.58089 10.3826-82.937505 83.031254-82.937505z" style="filter:url(#filter4569);opacity:.1"/>
  <path transform="matrix(1.019368,0,0,1.019368,-26.943941,-240.90521)" d="m188.96876 45.999995c72.64865 0 83.03125 10.356615 83.03125 82.937505v58.125c0 72.58059-10.3826 82.9375-83.03125 82.9375h-73.9375c-72.648654 0-83.031254-10.35691-83.031254-82.9375v-58.125c0-72.58089 10.3826-82.937505 83.031254-82.937505z" style="filter:url(#filter956);opacity:.2"/>
  <g transform="matrix(1.019368,0,0,1.019368,-26.954104,-241.03481)" clip-path="url(#clipPath1064)" style="enable-background:new">
   <path d="m188.97873 44.127132c72.64865 0 83.03125 10.356616 83.03125 82.937508v58.12502c0 72.58058-10.3826 82.93747-83.03125 82.93747h-73.9375c-72.648658 0-83.031258-10.35688-83.031258-82.93747v-58.12502c0-72.580892 10.3826-82.937508 83.031258-82.937508z" style="fill:#3c1d66"/>
   <path transform="matrix(.98100001 0 0 .98100001 26.432006 32.280011)" d="m65.029297 239.7832c-3.531637-0.21327-6.880664-0.48031-10.013672-0.83008-3.257066-0.36361-6.306627-0.8073-9.158203-1.34374-2.851577-0.53645-5.506605-1.16529-7.978516-1.9004-2.471911-0.7351-4.760836-1.57558-6.878906-2.53515s-4.065416-2.03819-5.855469-3.24805-3.422295-2.55115-4.910156-4.03711-2.831476-3.11642-4.042969-4.90429c-1.211493-1.78788-2.291004-3.73401-3.251953-5.84961-0.102141-0.22488-0.17006-0.50174-0.269531-0.73047l-16.494141 31.4082h65.6875z" style="fill:#f0f0f0;opacity:.2"/>
   <path transform="matrix(.98100001 0 0 .98100001 26.432006 32.280011)" d="m127.55078-4.3632812-8.63281 16.439453h46.77734c6.94346 0 12.80469 0.220024 18.67578 0.449219l8.86914-16.888672z" style="fill:#f0f0f0;opacity:.2"/>
  </g>
  <path d="m186.09523-177.02949c-23.47257 0-42.49965 19.0278-42.49965 42.49985 0 23.4716 19.02793 42.499456 42.49965 42.499456 23.4717 0 42.49963-19.027856 42.49963-42.499456 0-23.47205-19.02793-42.49985-42.49963-42.49985z" style="fill:#ffffff;filter:url(#filter890);opacity:.1"/>
  <path d="m214.98386-165.68913c4.02384 6.49399 6.35438 14.14745 6.35438 22.34865 0 23.47159-19.02652 42.49821-42.49823 42.49821-11.15958 0-21.3103-4.30825-28.89339-11.34335 7.49181 12.09511 20.87404 20.156129 36.14711 20.156129 23.47171 0 42.50151-19.029909 42.50151-42.501499 0-12.31398-5.24313-23.39629-13.61138-31.15814z" style="fill:#e1e1e1"/>
  <path transform="translate(0,-208)" d="m5.6757812 117.82812v37.91407c1e-7 9.24829 0.1655716 17.50559 0.5996094 24.875 0.217019 3.6847 0.5009694 7.14668 0.8652344 10.40039 0.364265 3.2537 0.8083677 6.29796 1.3457031 9.14648 0.5373354 2.84853 1.1680667 5.50155 1.9042969 7.97071 0.73623 2.46915 1.578113 4.75548 2.539063 6.87109 0.960949 2.11561 2.04046 4.05978 3.251953 5.84766 1.211493 1.78787 2.555107 3.41834 4.042968 4.90429 1.487861 1.48596 3.120103 2.82726 4.910157 4.03711 1.790053 1.20986 3.737398 2.28848 5.855468 3.24805s4.406996 1.80005 6.878907 2.53515c2.471911 0.73511 5.126939 1.3659 7.978515 1.90235 2.851577 0.53645 5.899184 0.98014 9.15625 1.34375 3.257067 0.36361 6.723729 0.64669 10.41211 0.86328 7.376761 0.43319 15.641472 0.59766 24.898437 0.59766h75.371097c1.38187 0 2.37878-0.08215 3.71679-0.08985a118.59277 117.51325 0 0 0 1.08985-14.28906 118.59277 117.51325 0 0 0-118.59375-117.51172 118.59277 117.51325 0 0 0-46.222657 9.43359z" style="fill:#e1e1e1;opacity:.05"/>
  <path transform="translate(0,-208)" d="m88.705078 240.24609c0.590093 0.00141 1.011023 0.03907 1.609375 0.03907h75.371097c9.25696 0 17.52167-0.16447 24.89843-0.59766 3.68838-0.21659 7.15505-0.49967 10.41211-0.86328 3.25707-0.36361 6.30468-0.8073 9.15625-1.34375 2.85158-0.53645 5.50661-1.16724 7.97852-1.90235 2.47191-0.7351 4.76084-1.57558 6.87891-2.53515s4.06541-2.03819 5.85546-3.24805c1.79006-1.20985 3.4223-2.55115 4.91016-4.03711s2.83148-3.11642 4.04297-4.90429c1.21149-1.78788 2.291-3.73205 3.25195-5.84766s1.80283-4.40194 2.53907-6.87109c0.73623-2.46916 1.36696-5.12218 1.90429-7.97071 0.53734-2.84852 0.98144-5.89278 1.34571-9.14648 0.36426-3.25371 0.64821-6.71569 0.86523-10.40039 0.43404-7.36941 0.59961-15.62671 0.59961-24.875v-13.81836a117.51325 118.59277 23.622318 0 0-152.38672 62.62695 117.51325 118.59277 23.622318 0 0-9.232422 35.69531z" style="fill:#ac776d"/>
  <g transform="matrix(1.019368,0,0,1.019368,-26.954104,-241.03481)" clip-path="url(#clipPath1064)" style="enable-background:new">
   <path transform="matrix(.98100001 0 0 .98100001 26.432006 32.280011)" d="m65.029297 239.7832c-3.531637-0.21327-6.880664-0.48031-10.013672-0.83008-3.257066-0.36361-6.306627-0.8073-9.158203-1.34374-2.851577-0.53645-5.506605-1.16529-7.978516-1.9004-2.471911-0.7351-4.760836-1.57558-6.878906-2.53515s-4.065416-2.03819-5.855469-3.24805-3.422295-2.55115-4.910156-4.03711-2.831476-3.11642-4.042969-4.90429c-1.211493-1.78788-2.291004-3.73401-3.251953-5.84961-0.102141-0.22488-0.17006-0.50174-0.269531-0.73047l-16.494141 31.4082h65.6875z" style="fill:#f0f0f0;opacity:.2"/>
   <path transform="matrix(.98100001 0 0 .98100001 26.432006 32.280011)" d="m127.55078-4.3632812-8.63281 16.439453h46.77734c6.94346 0 12.80469 0.220024 18.67578 0.449219l8.86914-16.888672z" style="fill:#f0f0f0;opacity:.2"/>
  </g>
  <path transform="translate(0,-208)" d="m74.119141 239.89648c5.210463 0.16801 10.174074 0.38868 16.195312 0.38868h75.371097c9.25696 0 17.52167-0.16447 24.89843-0.59766 3.68838-0.21659 7.15505-0.49967 10.41211-0.86328 3.25707-0.36361 6.30468-0.8073 9.15625-1.34375 2.85158-0.53645 5.50661-1.16724 7.97852-1.90235 2.12583-0.63218 4.05322-1.38282 5.91602-2.17968 0.39354-2.31378 0.775-4.65079 1.0625-7.21875 0.36426-3.25371 0.64821-6.71569 0.86523-10.40039 0.43404-7.36941 0.59961-15.62671 0.59961-24.875v-13.81836a117.51325 118.59277 23.622318 0 0-152.38672 62.62695 117.51325 118.59277 23.622318 0 0-0.068359 0.18359z" style="fill:#574a5c"/>
  <path transform="translate(0,-208)" d="m88.705078 240.24609c0.590093 0.00141 1.011023 0.03907 1.609375 0.03907h75.371097c9.25696 0 17.52167-0.16447 24.89843-0.59766 3.68838-0.21659 7.15505-0.49967 10.41211-0.86328 3.25707-0.36361 6.30468-0.8073 9.15625-1.34375 2.85158-0.53645 5.50661-1.16724 7.97852-1.90235 2.47191-0.7351 4.76084-1.57558 6.87891-2.53515s4.06541-2.03819 5.85546-3.24805c1.79006-1.20985 3.4223-2.55115 4.91016-4.03711s2.83148-3.11642 4.04297-4.90429c1.21149-1.78788 2.291-3.73205 3.25195-5.84766s1.80283-4.40194 2.53907-6.87109c0.73623-2.46916 1.36696-5.12218 1.90429-7.97071 0.53734-2.84852 0.98144-5.89278 1.34571-9.14648 0.36426-3.25371 0.64821-6.71569 0.86523-10.40039 0.43404-7.36941 0.59961-15.62671 0.59961-24.875v-13.81836a117.51325 118.59277 23.622318 0 0-152.38672 62.62695 117.51325 118.59277 23.622318 0 0-9.232422 35.69531z" style="fill:#ac776d;filter:url(#filter1135);opacity:.4"/>
  <path transform="translate(0,-208)" d="m5.7617188 159.29102c0.0422563 7.68822 0.1415568 15.00813 0.5136718 21.32617 0.217019 3.6847 0.5009694 7.14668 0.8652344 10.40039 0.364265 3.2537 0.8083677 6.29796 1.3457031 9.14648 0.5373354 2.84853 1.1680667 5.50155 1.9042969 7.97071 0.73623 2.46915 1.578113 4.75548 2.539063 6.87109 0.960949 2.11561 2.04046 4.05978 3.251953 5.84766 1.211493 1.78787 2.555107 3.41834 4.042968 4.90429 1.487861 1.48596 3.120103 2.82726 4.910157 4.03711 1.790053 1.20986 3.737398 2.28848 5.855468 3.24805s4.406996 1.80005 6.878907 2.53515c2.471911 0.73511 5.126939 1.3659 7.978515 1.90235 2.851577 0.53645 5.899184 0.98014 9.15625 1.34375 3.257067 0.36361 6.723729 0.64669 10.41211 0.86328 7.376761 0.43319 15.641472 0.59766 24.898437 0.59766h75.371097c9.25696 0 17.52167-0.16447 24.89843-0.59766 3.68838-0.21659 7.15505-0.49967 10.41211-0.86328 3.25707-0.36361 6.30468-0.8073 9.15625-1.34375 2.85158-0.53645 5.50661-1.16724 7.97852-1.90235 2.47191-0.7351 4.76084-1.57558 6.87891-2.53515s4.06541-2.03819 5.85546-3.24805c1.79006-1.20985 3.4223-2.55115 4.91016-4.03711s2.83148-3.11642 4.04297-4.90429c1.21149-1.78788 2.291-3.73205 3.25195-5.84766s1.80283-4.40194 2.53907-6.87109c0.73623-2.46916 1.36696-5.12218 1.90429-7.97071 0.53734-2.84852 0.98144-5.89278 1.34571-9.14648 0.36337-3.24577 0.64646-6.70037 0.86328-10.375-7.48515-6.35112-15.79866-10.4961-24.82227-10.4961-39.62369 0-39.6218 39.53711-66.03711 39.53711-26.41099 0-66.034525-65.89843-105.6582-65.89843h-0.005859c-16.854648 0-33.652141 4.86343-47.4375 15.50586z" style="fill:#313131"/>
  <circle cx="37.418" cy="-150.42" r="7.5" style="fill:#e1e1e1"/>
  <circle cx="53.611" cy="-168.772" r="3.028" style="fill:#e1e1e1"/>
  <circle cx="76.898" cy="-162.141" r="4.724" style="fill:#e1e1e1"/>
  <circle cx="70.014" cy="-96.347" r="3.028" style="fill:#e1e1e1"/>
  <circle cx="82.969" cy="-116.087" r="4.878" style="fill:#e1e1e1"/>
  <circle cx="49.195" cy="-123.335" r="4.724" style="fill:#e1e1e1"/>
  <circle cx="59.99" cy="-135.055" r="1.948" style="fill:#e1e1e1"/>
  <path d="m186.09523-177.02949c-23.47257 0-42.49965 19.0278-42.49965 42.49985 0 23.4716 19.02793 42.499456 42.49965 42.499456 23.4717 0 42.49963-19.027856 42.49963-42.499456 0-23.47205-19.02793-42.49985-42.49963-42.49985z" style="fill:#ffffff;opacity:.15"/>
  <circle cx="76.898" cy="-162.141" r="4.724" style="fill:#e1e1e1;filter:url(#filter969)"/>
  <circle cx="53.611" cy="-168.772" r="3.028" style="fill:#e1e1e1;filter:url(#filter991)"/>
  <circle cx="37.418" cy="-150.42" r="7.5" style="fill:#e1e1e1;filter:url(#filter1033)"/>
  <circle cx="59.99" cy="-135.055" r="1.948" style="fill:#e1e1e1;filter:url(#filter1055)"/>
  <circle cx="49.195" cy="-123.335" r="4.724" style="fill:#e1e1e1;filter:url(#filter1077)"/>
  <circle cx="82.969" cy="-116.087" r="4.878" style="fill:#e1e1e1;filter:url(#filter1103)"/>
  <circle cx="70.014" cy="-96.347" r="3.028" style="fill:#e1e1e1;filter:url(#filter1125)"/>
  <g transform="matrix(1.019368,0,0,1.019368,-26.954104,-241.03481)" clip-path="url(#clipPath1064)" style="enable-background:new">
   <path transform="matrix(.98100001 0 0 .98100001 26.432006 32.280011)" d="m65.029297 239.7832c-3.531637-0.21327-6.880664-0.48031-10.013672-0.83008-3.257066-0.36361-6.306627-0.8073-9.158203-1.34374-2.851577-0.53645-5.506605-1.16529-7.978516-1.9004-2.471911-0.7351-4.760836-1.57558-6.878906-2.53515s-4.065416-2.03819-5.855469-3.24805-3.422295-2.55115-4.910156-4.03711-2.831476-3.11642-4.042969-4.90429c-1.211493-1.78788-2.291004-3.73401-3.251953-5.84961-0.102141-0.22488-0.17006-0.50174-0.269531-0.73047l-16.494141 31.4082h65.6875z" style="fill:#f0f0f0;opacity:.2"/>
   <path transform="matrix(.98100001 0 0 .98100001 26.432006 32.280011)" d="m127.55078-4.3632812-8.63281 16.439453h46.77734c6.94346 0 12.80469 0.220024 18.67578 0.449219l8.86914-16.888672z" style="fill:#f0f0f0;opacity:.2"/>
  </g>
  <path transform="matrix(.50968399 0 0 .50968399 -18.788997 -88.000002)" d="M 361.9375,-212 C 507.2348,-212 528,-191.28677 528,-46.125 V 70.125 C 528,215.28618 507.2348,236 361.9375,236 H 214.0625 C 68.7652,236 48,215.28618 48,70.125 V -46.125 C 48,-191.28677 68.7652,-212 214.0625,-212 Z" clip-path="url(#clipPath1082-3-61)" style="fill:none;opacity:.4;stroke-linecap:round;stroke-linejoin:round;stroke-width:8;stroke:url(#linearGradient1108)"/>
  <g transform="matrix(1.019368,0,0,1.019368,-26.954104,-241.03481)" clip-path="url(#clipPath1064)" style="enable-background:new">
   <path transform="matrix(.98100001 0 0 .98100001 26.432006 32.280011)" d="m65.029297 239.7832c-3.531637-0.21327-6.880664-0.48031-10.013672-0.83008-3.257066-0.36361-6.306627-0.8073-9.158203-1.34374-2.851577-0.53645-5.506605-1.16529-7.978516-1.9004-2.471911-0.7351-4.760836-1.57558-6.878906-2.53515s-4.065416-2.03819-5.855469-3.24805-3.422295-2.55115-4.910156-4.03711-2.831476-3.11642-4.042969-4.90429c-1.211493-1.78788-2.291004-3.73401-3.251953-5.84961-0.102141-0.22488-0.17006-0.50174-0.269531-0.73047l-16.494141 31.4082h65.6875z" style="fill:#f0f0f0;opacity:.2"/>
   <path transform="matrix(.98100001 0 0 .98100001 26.432006 32.280011)" d="m127.55078-4.3632812-8.63281 16.439453h46.77734c6.94346 0 12.80469 0.220024 18.67578 0.449219l8.86914-16.888672z" style="fill:#f0f0f0;opacity:.2"/>
  </g>
 </g>
</svg>
