<svg xmlns="http://www.w3.org/2000/svg" xmlns:xlink="http://www.w3.org/1999/xlink" width="256" height="256" version="1.1" viewBox="0 0 67.73 67.73">
 <defs>
  <linearGradient id="linearGradient1108" x1="296" x2="296" y1="-212" y2="236" gradientUnits="userSpaceOnUse" xlink:href="#linearGradient1013"/>
  <linearGradient id="linearGradient1013">
   <stop offset="0" style="stop-color:#ffffff"/>
   <stop style="stop-color:#ffffff;stop-opacity:0.09803922" offset=".125"/>
   <stop style="stop-color:#000000;stop-opacity:0.09803922" offset=".925"/>
   <stop offset="1" style="stop-color:#000000;stop-opacity:0.49803922"/>
  </linearGradient>
  <clipPath id="clipPath1082-3-53" clipPathUnits="userSpaceOnUse">
   <path d="M 361.9375,-212 C 507.2348,-212 528,-191.28677 528,-46.125 V 70.125 C 528,215.28618 507.2348,236 361.9375,236 H 214.0625 C 68.7652,236 48,215.28618 48,70.125 V -46.125 C 48,-191.28677 68.7652,-212 214.0625,-212 Z" style="fill:#8c59d9"/>
  </clipPath>
  <linearGradient id="linearGradient878" x1="32" x2="272" y1="156" y2="156" gradientTransform="matrix(0.13485389,0.23357379,-0.23357379,0.13485389,49.806383,206.09448)" gradientUnits="userSpaceOnUse" xlink:href="#linearGradient876"/>
  <linearGradient id="linearGradient876">
   <stop style="stop-color:#1a7fd4" offset="0"/>
   <stop style="stop-color:#37a6e6" offset="1"/>
  </linearGradient>
  <filter style="color-interpolation-filters:sRGB" id="filter4569" width="1.023" height="1.025" x="-.01" y="-.01">
   <feGaussianBlur stdDeviation="1.16"/>
  </filter>
  <filter style="color-interpolation-filters:sRGB" id="filter958" width="1.046" height="1.05" x="-.02" y="-.03">
   <feGaussianBlur stdDeviation="2.32"/>
  </filter>
 </defs>
 <g transform="translate(0,-229.26666)">
  <path style="opacity:0.2;filter:url(#filter958)" d="m 188.96876,45.999995 c 72.64865,0 83.03125,10.356615 83.03125,82.937505 v 58.125 c 0,72.58059 -10.3826,82.9375 -83.03125,82.9375 h -73.9375 C 42.382606,270 32.000006,259.64309 32.000006,187.0625 v -58.125 c 0,-72.58089 10.3826,-82.937505 83.031254,-82.937505 z" transform="matrix(0.26970778,0,0,0.26970778,-7.1289177,220.56049)"/>
  <path d="m 188.96876,43.999995 c 72.64865,0 83.03125,10.356615 83.03125,82.937505 v 58.125 c 0,72.58059 -10.3826,82.9375 -83.03125,82.9375 h -73.9375 C 42.382606,268 32.000006,257.64309 32.000006,185.0625 v -58.125 c 0,-72.58089 10.3826,-82.937505 83.031254,-82.937505 z" transform="matrix(0.26970778,0,0,0.26970778,-7.1289177,220.56049)" style="opacity:0.1;filter:url(#filter4569)"/>
  <path style="fill:url(#linearGradient878)" d="m 43.837418,232.42763 c 19.593907,0 22.394178,2.79326 22.394178,22.36889 v 15.67677 c -3e-6,19.57555 -2.800271,22.36889 -22.394178,22.36889 h -19.94152 c -19.5939037,0 -22.3941717,-2.79334 -22.3941717,-22.36889 l -1e-6,-15.67677 c 1e-6,-19.57563 2.8002695,-22.36889 22.3941757,-22.36889 z"/>
  <path d="m 34.297578,241.05722 0.0043,0.004 c -1.917001,1.7e-4 -3.730339,0.21965 -5.44,0.65739 -1.552125,0.40651 -2.927115,0.96137 -4.197327,1.60297 l 1.29744,3.58893 c 2.473966,-1.2558 5.011572,-1.94328 7.609238,-1.94328 2.183963,0 3.916394,0.57731 5.109149,1.76838 1.176962,1.13484 1.773124,2.64948 1.773124,4.44491 0,1.11944 -0.26194,2.1672 -0.78172,3.12115 -0.464674,0.92732 -1.073912,1.81053 -1.82577,2.64598 -0.736412,0.81823 -1.512522,1.63625 -2.329932,2.4537 l -0.0031,0.003 -0.0086,0.003 c -0.796608,0.75678 -1.553258,1.59421 -2.272488,2.5132 l -0.0031,0.003 -0.0016,0.003 c -0.707419,0.86458 -1.295496,1.80704 -1.767851,2.8293 -0.420484,0.99697 -0.636344,2.11244 -0.636344,3.36082 0,0.74875 0.08683,1.45107 0.20334,2.13656 h 3.909711 c -0.0032,-0.0837 -0.02156,-0.1588 -0.02156,-0.24597 v -0.67111 c 0,-1.39359 0.276611,-2.66035 0.834411,-3.77906 0.542004,-1.1257 1.210794,-2.14977 2.00438,-3.07005 l 0.0031,-0.003 c 0.0016,-0.002 0.0016,-0.003 0.0032,-0.009 0.783187,-0.94731 1.648714,-1.85162 2.594329,-2.71495 0.920372,-0.84036 1.759746,-1.72069 2.518511,-2.63916 0.750564,-0.90855 1.380257,-1.87519 1.893218,-2.89986 v -0.002 c 0.497557,-1.03391 0.750652,-2.20487 0.750652,-3.53149 0,-1.04983 -0.173908,-2.14549 -0.528886,-3.2881 l -0.0031,-0.009 -0.0016,-0.009 c -0.30725,-1.15254 -0.878858,-2.18576 -1.730443,-3.11481 -0.843561,-0.92024 -1.984619,-1.67801 -3.441904,-2.26882 l -0.0086,-0.003 -0.0086,-0.003 c -1.386477,-0.6162 -3.219283,-0.93859 -5.494366,-0.93872 z m -0.970328,35.83373 c -1.168268,0 -2.019792,0.35687 -2.670209,1.07934 -0.667901,0.74215 -0.988227,1.57838 -0.988227,2.58122 0,1.00279 0.3205,1.84065 0.988227,2.58276 0.650417,0.72269 1.501941,1.07723 2.670209,1.07723 1.168358,0 2.021324,-0.35472 2.671773,-1.07723 0.66784,-0.74211 0.988253,-1.57997 0.988253,-2.58276 0,-1.00284 -0.320198,-1.83907 -0.988253,-2.58122 -0.650449,-0.72268 -1.503415,-1.07934 -2.671773,-1.07934 z" style="fill:#ffffff"/>
  <path d="M 361.9375,-212 C 507.2348,-212 528,-191.28677 528,-46.125 V 70.125 C 528,215.28618 507.2348,236 361.9375,236 H 214.0625 C 68.7652,236 48,215.28618 48,70.125 V -46.125 C 48,-191.28677 68.7652,-212 214.0625,-212 Z" clip-path="url(#clipPath1082-3-53)" transform="matrix(0.13485389,0,0,0.13485389,-4.9712547,261.01666)" style="opacity:0.4;fill:none;stroke:url(#linearGradient1108);stroke-width:8;stroke-linecap:round;stroke-linejoin:round"/>
 </g>
</svg>
