<svg xmlns="http://www.w3.org/2000/svg" xmlns:xlink="http://www.w3.org/1999/xlink" width="256" height="256" version="1.1" viewBox="0 0 67.73 67.73">
 <defs>
  <linearGradient id="linearGradient907">
   <stop offset="0" style="stop-color:#83b9f5"/>
   <stop offset="1" style="stop-color:#83b9f5;stop-opacity:0"/>
  </linearGradient>
  <linearGradient id="linearGradient1013">
   <stop offset="0" style="stop-color:#ffffff"/>
   <stop style="stop-color:#ffffff;stop-opacity:0.09803922" offset=".125"/>
   <stop style="stop-color:#000000;stop-opacity:0.09803922" offset=".925"/>
   <stop offset="1" style="stop-color:#000000;stop-opacity:0.49803922"/>
  </linearGradient>
  <clipPath id="clipPath1082-3-5" clipPathUnits="userSpaceOnUse">
   <path d="M 361.9375,-212 C 507.2348,-212 528,-191.28677 528,-46.125 V 70.125 C 528,215.28618 507.2348,236 361.9375,236 H 214.0625 C 68.7652,236 48,215.28618 48,70.125 V -46.125 C 48,-191.28677 68.7652,-212 214.0625,-212 Z" style="fill:#8c59d9"/>
  </clipPath>
  <filter style="color-interpolation-filters:sRGB" id="filter4569-2" width="1.023" height="1.025" x="-.01" y="-.01">
   <feGaussianBlur stdDeviation="1.16"/>
  </filter>
  <filter style="color-interpolation-filters:sRGB" id="filter913" width="1.046" height="1.05" x="-.02" y="-.03">
   <feGaussianBlur stdDeviation="2.32"/>
  </filter>
  <linearGradient id="linearGradient906" x1="296" x2="296" y1="-212" y2="236" gradientUnits="userSpaceOnUse" xlink:href="#linearGradient1013"/>
  <linearGradient id="linearGradient4216" x1="56" x2="56" y1="288" y2="83.578" gradientTransform="matrix(0,-0.19921875,0.19921875,0,6.9367375,59.379482)" gradientUnits="userSpaceOnUse" spreadMethod="reflect" xlink:href="#linearGradient4210"/>
  <linearGradient id="linearGradient4210">
   <stop style="stop-color:#ffffff;stop-opacity:0.97196263" offset="0"/>
   <stop offset=".646" style="stop-color:#ffffff;stop-opacity:0.91588783"/>
   <stop style="stop-color:#ffffff;stop-opacity:0" offset="1"/>
  </linearGradient>
  <linearGradient id="linearGradient4177" x1="121.976" x2="108.56" y1="330.553" y2="348.038" gradientTransform="matrix(0.13485389,0,0,0.13485389,-67.613067,223.41447)" gradientUnits="userSpaceOnUse" xlink:href="#linearGradient907"/>
  <linearGradient id="linearGradient4164" x1="354.037" x2="370.342" y1="292.996" y2="314.245" gradientTransform="matrix(0.13485389,0,0,0.13485389,-67.613067,223.41447)" gradientUnits="userSpaceOnUse" xlink:href="#linearGradient907"/>
  <linearGradient id="linearGradient4134" x1="211.404" x2="211.404" y1="344.742" y2="375.678" gradientTransform="matrix(0.9994539,0,0,0.9994539,-250.39273,-98.969484)" gradientUnits="userSpaceOnUse" xlink:href="#linearGradient4289"/>
  <linearGradient id="linearGradient4289">
   <stop offset="0" style="stop-color:#fbfbfd"/>
   <stop offset="1" style="stop-color:#dfe0f0"/>
  </linearGradient>
  <linearGradient id="linearGradient4143" x1="297.987" x2="299.397" y1="344.067" y2="141.4" gradientTransform="matrix(0.13485389,0,0,0.13485389,-67.613067,225.84184)" gradientUnits="userSpaceOnUse" xlink:href="#linearGradient4155"/>
  <linearGradient id="linearGradient4155">
   <stop offset="0" style="stop-color:#d2d6f3;stop-opacity:0.99607843"/>
   <stop offset="1" style="stop-color:#eeeef7"/>
  </linearGradient>
  <filter style="color-interpolation-filters:sRGB" id="filter4500" width="1.021" height="1.028" x="-.01" y="-.01">
   <feGaussianBlur stdDeviation="1.346"/>
  </filter>
  <linearGradient id="linearGradient4479" x1="211.404" x2="232.776" y1="344.742" y2="375.408" gradientTransform="matrix(7.4113839,0,0,7.4113839,-1355.3904,-2406.6168)" gradientUnits="userSpaceOnUse" xlink:href="#linearGradient4486"/>
  <linearGradient id="linearGradient4486">
   <stop offset="0" style="stop-color:#000000;stop-opacity:0"/>
   <stop style="stop-color:#000000" offset=".67"/>
   <stop offset="1" style="stop-color:#000000;stop-opacity:0"/>
  </linearGradient>
  <linearGradient id="linearGradient4342" x1="624" x2="688" y1="369.239" y2="369.239" gradientUnits="userSpaceOnUse" xlink:href="#linearGradient4336-3"/>
  <linearGradient id="linearGradient4336-3">
   <stop style="stop-color:#5884f4" offset="0"/>
   <stop offset=".278" style="stop-color:#5884f4"/>
   <stop style="stop-color:#2f5fdd" offset=".278"/>
   <stop offset=".707" style="stop-color:#2f5fdd"/>
   <stop offset=".709" style="stop-color:#234db8"/>
   <stop style="stop-color:#234db8" offset="1"/>
  </linearGradient>
 </defs>
 <g transform="translate(0,-229.26666)">
  <path style="opacity:0.2;filter:url(#filter913)" d="m 188.96876,45.999995 c 72.64865,0 83.03125,10.356615 83.03125,82.937505 v 58.125 c 0,72.58059 -10.3826,82.9375 -83.03125,82.9375 h -73.9375 C 42.382606,270 32.000006,259.64309 32.000006,187.0625 v -58.125 c 0,-72.58089 10.3826,-82.937505 83.031254,-82.937505 z" transform="matrix(0.26970778,0,0,0.26970778,-7.1289177,220.56049)"/>
  <path d="m 188.96876,43.999995 c 72.64865,0 83.03125,10.356615 83.03125,82.937505 v 58.125 c 0,72.58059 -10.3826,82.9375 -83.03125,82.9375 h -73.9375 C 42.382606,268 32.000006,257.64309 32.000006,185.0625 v -58.125 c 0,-72.58089 10.3826,-82.937505 83.031254,-82.937505 z" transform="matrix(0.26970778,0,0,0.26970778,-7.1289177,220.56049)" style="opacity:0.1;filter:url(#filter4569-2)"/>
  <path style="fill:#4d4d4d" d="m 23.895905,232.42763 c -9.797337,0 -15.3941297,0.69699 -18.5445167,3.84334 -3.150381,3.14634 -3.849657,8.73736 -3.849657,18.52555 v 15.67677 c 0,9.78815 0.699276,15.3792 3.849657,18.52555 3.150387,3.14636 8.7471787,3.84333 18.5445167,3.84333 h 19.94152 c 9.797339,0 15.394134,-0.69697 18.544517,-3.84333 3.150384,-3.14635 3.849659,-8.7374 3.849659,-18.52555 v -15.67677 c 0,-9.78819 -0.699275,-15.37921 -3.849659,-18.52555 -3.150383,-3.14635 -8.74718,-3.84334 -18.544517,-3.84334 z"/>
  <path style="opacity:0.2;fill:#131313" d="m 1.5017313,269.93387 v 0.53942 c 0,9.78815 0.699276,15.3792 3.849657,18.52555 3.150387,3.14636 8.7471787,3.84333 18.5445167,3.84333 h 19.94152 c 9.797339,0 15.394134,-0.69697 18.544517,-3.84333 3.150384,-3.14635 3.849659,-8.7374 3.849659,-18.52555 v -0.53942 c 0,9.78815 -0.699275,15.3792 -3.849659,18.52555 -3.150383,3.14636 -8.747178,3.84334 -18.544517,3.84334 h -19.94152 c -9.797338,0 -15.3941297,-0.69698 -18.5445167,-3.84334 -3.150381,-3.14635 -3.849657,-8.7374 -3.849657,-18.52555 z"/>
  <path d="M 361.9375,-212 C 507.2348,-212 528,-191.28677 528,-46.125 V 70.125 C 528,215.28618 507.2348,236 361.9375,236 H 214.0625 C 68.7652,236 48,215.28618 48,70.125 V -46.125 C 48,-191.28677 68.7652,-212 214.0625,-212 Z" clip-path="url(#clipPath1082-3-5)" transform="matrix(0.13485389,0,0,0.13485389,-4.9712557,261.01666)" style="opacity:0.4;fill:none;stroke:url(#linearGradient906);stroke-width:8;stroke-linecap:round;stroke-linejoin:round"/>
  <g transform="matrix(0.5675661,0,0,0.5675661,-1.3907281,261.49722)">
   <path d="m 22.077357,46.784342 c 0.46294,0.52006 0.96523,0.99865 1.50971,1.43889 h 3.27154 v -7.96875 h -4.78125 z m 0,-83.029857 h 4.78125 v -7.96875 h -3.27154 c -0.54448,0.44024 -1.04677,0.91883 -1.50971,1.43889 z m 7.96875,84.468746 h 4.78125 v -7.96875 h -4.78125 z m 0,-84.468746 h 4.78125 v -7.96875 h -4.78125 z m 7.96875,84.468746 h 4.78125 v -7.96875 h -4.78125 z m 0,-84.468746 h 4.78125 v -7.96875 h -4.78125 z m 7.96876,84.468746 h 4.78125 v -7.96875 h -4.78125 z m 0,-84.468746 h 4.78125 v -7.96875 h -4.78125 z m 7.96875,84.468746 h 4.781251 v -7.96875 h -4.781251 z m 0,-84.468746 h 4.781251 v -7.96875 h -4.781251 z m 7.968751,84.468746 h 4.78125 v -7.96875 h -4.78125 z m 0,-84.468746 h 4.78125 v -7.96875 h -4.78125 z m 7.96875,84.468746 h 4.781249 v -7.96875 h -4.781249 z m 0,-84.468746 h 4.781249 v -7.96875 h -4.781249 z m 7.968749,84.468747 h 4.78125 v -7.96875 h -4.78125 z m 0,-84.468747 h 4.78125 v -7.96875 h -4.78125 z m 7.968741,84.468747 h 4.78125 v -7.96875 h -4.78125 z m 0,-84.468747 h 4.78125 v -7.96875 h -4.78125 z m 7.96875,84.468747 h 4.781252 v -7.96875 h -4.781252 z m 0,-84.468747 h 4.781252 v -7.96875 h -4.781252 z m 7.968752,84.468747 h 3.27155 c 0.54449,-0.44024 1.04677,-0.91883 1.5097,-1.43889 v -6.52986 h -4.78125 z m 0,-84.468747 h 4.78125 v -6.52986 c -0.46293,-0.52006 -0.96522,-0.99865 -1.5097,-1.43889 h -3.27155 z" style="opacity:0.3;fill:url(#linearGradient4216)"/>
   <path style="opacity:0.05;fill:#ff0000;fill-opacity:0" d="m 57.401328,-25.782479 -7.01001,14.27527 V 0.29651126 c -0.98412,1.15307004 -2.05977,2.31501004 -3.18127,3.43652004 -3.68617,3.6861599 -7.81888,6.9102597 -10.5835,7.8317897 L 31.969813,6.9143012 17.694553,13.924311 v 34.00415 h 50.999985 v -63.2644 c -3.07128,-6.6626 -6.44834,-9.14836 -11.29321,-10.44654 z m -19.43628,45.6211 c 10e-4,-0.001 0.005,0.001 0.006,0 -0.52011,0.3248 -1.0461,0.64281 -1.57507,0.95874 0.52911,-0.31588 1.04862,-0.63399 1.56885,-0.95874 z m -4.799915,2.80151 c 0.002,-7.9e-4 0.005,8e-4 0.006,0 -0.54622,0.29865 -1.1014,0.59378 -1.656,0.88404 0.55467,-0.29023 1.10348,-0.58542 1.64979,-0.88404 z"/>
  </g>
  <path style="opacity:0.1;fill:#ffffff" d="m 35.015027,232.45803 v 60.41446 h 9.616967 c 18.898659,0 21.599565,-2.79333 21.599565,-22.36886 v -15.67674 c 0,-19.5756 -2.700906,-22.36886 -21.599565,-22.36886 z"/>
  <g transform="rotate(-180,0.38809782,262.21005)">
   <path d="m 132.66406,147.40039 c -14.29675,-0.17869 -23.90367,3.03093 -28.83398,8.94727 C 98.6533,162.51055 96,172.62248 96,186.67383 v 123.18945 4.92969 c 0,14.05139 2.6533,24.16133 7.83008,30.32422 4.93031,5.91635 14.53612,8.94922 28.83398,8.94922 h 33.95703 l 44.78321,31.61132 44.7832,-31.61132 h 123.14844 c 14.29779,0 23.90344,-3.03287 28.83398,-8.94922 C 413.3467,338.9543 416,328.84436 416,314.79297 V 238.9043 186.67383 c 0,-14.05135 -2.6533,-24.16328 -7.83008,-30.32617 -4.9302,-5.91634 -14.53619,-8.94727 -28.83398,-8.94727 H 355.47266 197.58594 Z" transform="matrix(0.13485389,0,0,0.13485389,-67.613067,225.84185)" style="opacity:0.2;fill:url(#linearGradient4479);filter:url(#filter4482)"/>
   <path style="opacity:0.1;filter:url(#filter4500)" d="m 132.66406,147.40039 c -14.29675,-0.17869 -23.90367,3.03093 -28.83398,8.94727 C 98.6533,162.51055 96,172.62248 96,186.67383 v 123.18945 4.92969 c 0,14.05139 2.6533,24.16133 7.83008,30.32422 4.93031,5.91635 14.53612,8.94922 28.83398,8.94922 h 33.95703 l 44.78321,31.61132 44.7832,-31.61132 h 123.14844 c 14.29779,0 23.90344,-3.03287 28.83398,-8.94922 C 413.3467,338.9543 416,328.84436 416,314.79297 V 238.9043 186.67383 c 0,-14.05135 -2.6533,-24.16328 -7.83008,-30.32617 -4.9302,-5.91634 -14.53619,-8.94727 -28.83398,-8.94727 H 355.47266 197.58594 Z" transform="matrix(0.13485389,0,0,0.13485389,-67.613067,225.84185)"/>
   <path d="m -54.667093,253.89145 v 14.13175 c 0,1.89488 0.357544,3.25825 1.055653,4.08933 0.664872,0.79785 1.960517,1.20684 3.888638,1.20684 h 4.579239 l 6.038923,4.26318 6.039453,-4.26318 h 16.607048 c 1.92811,0 3.22373,-0.40899 3.88864,-1.20684 0.6981,-0.83108 1.05565,-2.19445 1.05565,-4.08933 v -14.13175 z" style="fill:url(#linearGradient4143)"/>
   <path d="m -49.722817,245.26081 c -1.927972,-0.0241 -3.223509,0.43088 -3.888381,1.22872 -0.698109,0.83109 -1.055895,2.19463 -1.055895,4.0895 v 16.7794 l 9.523493,5.96097 6.039156,4.26293 6.039141,-4.26293 h 1.1e-5 l 21.551443,-16.36454 v -6.37583 c 0,-1.89488 -0.35776,-3.25841 -1.05587,-4.0895 -0.66485,-0.79784 -1.96027,-1.22872 -3.888381,-1.22872 h -3.217971 -21.291708 z" style="fill:url(#linearGradient4134)"/>
   <path d="m -46.036444,253.89145 v 2.15767 h 25.891945 v -2.15767 z" style="fill:#83b9f5"/>
   <path d="M -11.513849,256.95486 -33.065292,273.3194 H -16.4581 c 1.928111,0 3.223481,-0.4089 3.888381,-1.20674 0.69811,-0.83109 1.05587,-2.19462 1.05587,-4.08951 z" style="opacity:0.1;fill:url(#linearGradient4164)"/>
   <path d="m -54.667093,267.35843 v 0.66472 c 0,1.89489 0.357786,3.25842 1.055895,4.08951 0.664872,0.79784 1.973499,1.43231 3.888381,1.20674 h 4.579217 z" style="opacity:0.1;fill:url(#linearGradient4177)"/>
   <path style="fill:#83b9f5" d="m -46.036444,260.36444 v 2.15767 h 12.945971 v -2.15767 z"/>
   <path d="m -49.722802,245.26081 c -1.927972,-0.0241 -3.223766,0.43111 -3.888638,1.22896 -0.698108,0.83109 -1.055653,2.19446 -1.055653,4.08934 v 0.53941 c 0,-1.89488 0.357545,-3.25825 1.055653,-4.08934 0.664872,-0.79784 1.960666,-1.25305 3.888638,-1.22896 h 8.754968 21.291636 3.218059 c 1.92811,0 3.22378,0.43112 3.88864,1.22896 0.69811,0.83109 1.05565,2.19446 1.05565,4.08934 v -0.53941 c 0,-1.89489 -0.35754,-3.25825 -1.05565,-4.08934 -0.66486,-0.79784 -1.96053,-1.22896 -3.88864,-1.22896 h -3.218059 -21.291636 z" style="fill:#ffffff"/>
  </g>
  <g style="enable-background:new" transform="matrix(0.11404751,0.11404751,-0.12369329,0.12369329,-5.0958471,146.0888)">
   <path style="fill:#fee1c2" d="m 688.00003,319.35584 -32,81.13762 -31.99999,-81.13762 v -11.06422 h 63.99999 z"/>
   <path style="fill:#5d5d5d" d="m 645.81253,374.67694 10.1875,25.81651 10.1875,-25.81651 c 0,0 0.77644,-2.76606 -1.20553,-2.76606 -1.98197,0 -3.94669,3.68807 -3.94669,3.68807 0,0 -1.03528,-4.61009 -5.01377,-4.61009 -3.9785,0 -5.01378,4.61009 -5.01378,4.61009 0,0 -2.00773,-3.68807 -4.00773,-3.68807 -2,0 -1.1875,2.76606 -1.1875,2.76606 z"/>
   <path style="fill:url(#linearGradient4342)" d="m 624.00004,319.35583 c 0,-7.37615 17.99999,-3.68808 17.99999,7.37614 0,-18.44036 28,-18.44036 28,0 0,-11.06422 18,-14.75229 18,-7.37614 V 133.45602 h -63.99999 z"/>
  </g>
 </g>
</svg>
