<svg width="256" height="256" version="1.1" viewBox="0 0 67.73 67.73" xmlns="http://www.w3.org/2000/svg" xmlns:xlink="http://www.w3.org/1999/xlink">
 <defs>
  <linearGradient id="linearGradient907">
   <stop style="stop-color:#83b9f5" offset="0"/>
   <stop style="stop-color:#83b9f5;stop-opacity:0" offset="1"/>
  </linearGradient>
  <clipPath id="clipPath1082-3-5">
   <path d="M 361.9375,-212 C 507.2348,-212 528,-191.28677 528,-46.125 V 70.125 C 528,215.28618 507.2348,236 361.9375,236 H 214.0625 C 68.7652,236 48,215.28618 48,70.125 V -46.125 C 48,-191.28677 68.7652,-212 214.0625,-212 Z" style="fill:#8c59d9"/>
  </clipPath>
  <filter id="filter4569-2" x="-.01" y="-.01" width="1.023" height="1.025" style="color-interpolation-filters:sRGB">
   <feGaussianBlur stdDeviation="1.16"/>
  </filter>
  <filter id="filter913" x="-.02" y="-.03" width="1.046" height="1.05" style="color-interpolation-filters:sRGB">
   <feGaussianBlur stdDeviation="2.32"/>
  </filter>
  <linearGradient id="linearGradient906" x1="296" x2="296" y1="-212" y2="236" gradientUnits="userSpaceOnUse">
   <stop style="stop-color:#ffffff" offset="0"/>
   <stop style="stop-color:#ffffff;stop-opacity:.09803922" offset=".125"/>
   <stop style="stop-color:#000000;stop-opacity:.09803922" offset=".925"/>
   <stop style="stop-color:#000000;stop-opacity:.49803922" offset="1"/>
  </linearGradient>
  <linearGradient id="linearGradient4216" x1="56" x2="56" y1="288" y2="83.578" gradientTransform="matrix(0 -.19921875 .19921875 0 6.9367375 59.379482)" gradientUnits="userSpaceOnUse" spreadMethod="reflect">
   <stop style="stop-color:#ffffff;stop-opacity:.97196263" offset="0"/>
   <stop style="stop-color:#ffffff;stop-opacity:.91588783" offset=".646"/>
   <stop style="stop-color:#ffffff;stop-opacity:0" offset="1"/>
  </linearGradient>
  <linearGradient id="linearGradient4177" x1="121.976" x2="108.56" y1="330.553" y2="348.038" gradientTransform="matrix(.13485389 0 0 .13485389 -67.613067 223.41447)" gradientUnits="userSpaceOnUse" xlink:href="#linearGradient907"/>
  <linearGradient id="linearGradient4164" x1="354.037" x2="370.342" y1="292.996" y2="314.245" gradientTransform="matrix(.13485389 0 0 .13485389 -67.613067 223.41447)" gradientUnits="userSpaceOnUse" xlink:href="#linearGradient907"/>
  <linearGradient id="linearGradient4134" x1="211.404" x2="211.404" y1="344.742" y2="375.678" gradientTransform="matrix(.9994539 0 0 .9994539 -250.39273 -98.969484)" gradientUnits="userSpaceOnUse">
   <stop style="stop-color:#fbfbfd" offset="0"/>
   <stop style="stop-color:#dfe0f0" offset="1"/>
  </linearGradient>
  <linearGradient id="linearGradient4143" x1="297.987" x2="299.397" y1="344.067" y2="141.4" gradientTransform="matrix(.13485389 0 0 .13485389 -67.613067 225.84184)" gradientUnits="userSpaceOnUse">
   <stop style="stop-color:#d2d6f3;stop-opacity:.99607843" offset="0"/>
   <stop style="stop-color:#eeeef7" offset="1"/>
  </linearGradient>
  <filter id="filter4500" x="-.01" y="-.01" width="1.021" height="1.028" style="color-interpolation-filters:sRGB">
   <feGaussianBlur stdDeviation="1.346"/>
  </filter>
  <linearGradient id="linearGradient4479" x1="211.404" x2="232.776" y1="344.742" y2="375.408" gradientTransform="matrix(7.4113839,0,0,7.4113839,-1355.3904,-2406.6168)" gradientUnits="userSpaceOnUse">
   <stop style="stop-color:#000000;stop-opacity:0" offset="0"/>
   <stop style="stop-color:#000000" offset=".67"/>
   <stop style="stop-color:#000000;stop-opacity:0" offset="1"/>
  </linearGradient>
  <linearGradient id="linearGradient4342" x1="624" x2="688" y1="369.239" y2="369.239" gradientUnits="userSpaceOnUse">
   <stop style="stop-color:#5884f4" offset="0"/>
   <stop style="stop-color:#5884f4" offset=".278"/>
   <stop style="stop-color:#2f5fdd" offset=".278"/>
   <stop style="stop-color:#2f5fdd" offset=".707"/>
   <stop style="stop-color:#234db8" offset=".709"/>
   <stop style="stop-color:#234db8" offset="1"/>
  </linearGradient>
 </defs>
 <g transform="translate(0,-229.26666)">
  <path transform="matrix(.26970778 0 0 .26970778 -7.1289177 220.56049)" d="m188.96876 45.999995c72.64865 0 83.03125 10.356615 83.03125 82.937505v58.125c0 72.58059-10.3826 82.9375-83.03125 82.9375h-73.9375c-72.648654 0-83.031254-10.35691-83.031254-82.9375v-58.125c0-72.58089 10.3826-82.937505 83.031254-82.937505z" style="filter:url(#filter913);opacity:.2"/>
  <path transform="matrix(.26970778 0 0 .26970778 -7.1289177 220.56049)" d="m188.96876 43.999995c72.64865 0 83.03125 10.356615 83.03125 82.937505v58.125c0 72.58059-10.3826 82.9375-83.03125 82.9375h-73.9375c-72.648654 0-83.031254-10.35691-83.031254-82.9375v-58.125c0-72.58089 10.3826-82.937505 83.031254-82.937505z" style="filter:url(#filter4569-2);opacity:.1"/>
  <path d="m23.895905 232.42763c-9.797337 0-15.39413 0.69699-18.544517 3.84334-3.150381 3.14634-3.849657 8.73736-3.849657 18.52555v15.67677c0 9.78815 0.699276 15.3792 3.849657 18.52555 3.150387 3.14636 8.7471787 3.84333 18.544517 3.84333h19.94152c9.797339 0 15.394134-0.69697 18.544517-3.84333 3.150384-3.14635 3.849659-8.7374 3.849659-18.52555v-15.67677c0-9.78819-0.699275-15.37921-3.849659-18.52555-3.150383-3.14635-8.74718-3.84334-18.544517-3.84334z" style="fill:#4d4d4d"/>
  <path d="m1.5017313 269.93387v0.53942c0 9.78815 0.699276 15.3792 3.849657 18.52555 3.150387 3.14636 8.7471787 3.84333 18.544517 3.84333h19.94152c9.797339 0 15.394134-0.69697 18.544517-3.84333 3.150384-3.14635 3.849659-8.7374 3.849659-18.52555v-0.53942c0 9.78815-0.699275 15.3792-3.849659 18.52555-3.150383 3.14636-8.747178 3.84334-18.544517 3.84334h-19.94152c-9.797338 0-15.39413-0.69698-18.544517-3.84334-3.150381-3.14635-3.849657-8.7374-3.849657-18.52555z" style="fill:#131313;opacity:.2"/>
  <path transform="matrix(.13485389 0 0 .13485389 -4.9712557 261.01666)" d="M 361.9375,-212 C 507.2348,-212 528,-191.28677 528,-46.125 V 70.125 C 528,215.28618 507.2348,236 361.9375,236 H 214.0625 C 68.7652,236 48,215.28618 48,70.125 V -46.125 C 48,-191.28677 68.7652,-212 214.0625,-212 Z" clip-path="url(#clipPath1082-3-5)" style="fill:none;opacity:.4;stroke-linecap:round;stroke-linejoin:round;stroke-width:8;stroke:url(#linearGradient906)"/>
  <g transform="matrix(.5675661 0 0 .5675661 -1.3907281 261.49722)">
   <path d="m22.077357 46.784342c0.46294 0.52006 0.96523 0.99865 1.50971 1.43889h3.27154v-7.96875h-4.78125zm0-83.029857h4.78125v-7.96875h-3.27154c-0.54448 0.44024-1.04677 0.91883-1.50971 1.43889zm7.96875 84.468746h4.78125v-7.96875h-4.78125zm0-84.468746h4.78125v-7.96875h-4.78125zm7.96875 84.468746h4.78125v-7.96875h-4.78125zm0-84.468746h4.78125v-7.96875h-4.78125zm7.96876 84.468746h4.78125v-7.96875h-4.78125zm0-84.468746h4.78125v-7.96875h-4.78125zm7.96875 84.468746h4.781251v-7.96875h-4.781251zm0-84.468746h4.781251v-7.96875h-4.781251zm7.968751 84.468746h4.78125v-7.96875h-4.78125zm0-84.468746h4.78125v-7.96875h-4.78125zm7.96875 84.468746h4.781249v-7.96875h-4.781249zm0-84.468746h4.781249v-7.96875h-4.781249zm7.968749 84.468747h4.78125v-7.96875h-4.78125zm0-84.468747h4.78125v-7.96875h-4.78125zm7.968741 84.468747h4.78125v-7.96875h-4.78125zm0-84.468747h4.78125v-7.96875h-4.78125zm7.96875 84.468747h4.781252v-7.96875h-4.781252zm0-84.468747h4.781252v-7.96875h-4.781252zm7.968752 84.468747h3.27155c0.54449-0.44024 1.04677-0.91883 1.5097-1.43889v-6.52986h-4.78125zm0-84.468747h4.78125v-6.52986c-0.46293-0.52006-0.96522-0.99865-1.5097-1.43889h-3.27155z" style="fill:url(#linearGradient4216);opacity:.3"/>
   <path d="m57.401328-25.782479-7.01001 14.27527v11.80372c-0.98412 1.15307-2.05977 2.31501-3.18127 3.43652-3.68617 3.6861599-7.81888 6.9102597-10.5835 7.8317897l-4.656735-4.6505198-14.27526 7.0100098v34.00415h50.999985v-63.2644c-3.07128-6.6626-6.44834-9.14836-11.29321-10.44654zm-19.43628 45.6211c1e-3 -1e-3 5e-3 1e-3 6e-3 0-0.52011 0.3248-1.0461 0.64281-1.57507 0.95874 0.52911-0.31588 1.04862-0.63399 1.56885-0.95874zm-4.799915 2.80151c2e-3 -7.9e-4 5e-3 8e-4 6e-3 0-0.54622 0.29865-1.1014 0.59378-1.656 0.88404 0.55467-0.29023 1.10348-0.58542 1.64979-0.88404z" style="fill-opacity:0;opacity:.05"/>
  </g>
  <path d="m35.015027 232.45803v60.41446h9.616967c18.898659 0 21.599565-2.79333 21.599565-22.36886v-15.67674c0-19.5756-2.700906-22.36886-21.599565-22.36886z" style="fill:#ffffff;opacity:.1"/>
  <g transform="rotate(180 .38809782 262.21005)">
   <path transform="matrix(.13485389 0 0 .13485389 -67.613067 225.84185)" d="m132.66406 147.40039c-14.29675-0.17869-23.90367 3.03093-28.83398 8.94727-5.17678 6.16289-7.83008 16.27482-7.83008 30.32617v128.11914c0 14.05139 2.6533 24.16133 7.83008 30.32422 4.93031 5.91635 14.53612 8.94922 28.83398 8.94922h33.95703l44.78321 31.61132 44.7832-31.61132h123.14844c14.29779 0 23.90344-3.03287 28.83398-8.94922 5.17678-6.16289 7.83008-16.27283 7.83008-30.32422v-128.11914c0-14.05135-2.6533-24.16328-7.83008-30.32617-4.9302-5.91634-14.53619-8.94727-28.83398-8.94727h-181.75z" style="fill:url(#linearGradient4479);filter:url(#filter4482);opacity:.2"/>
   <path transform="matrix(.13485389 0 0 .13485389 -67.613067 225.84185)" d="m132.66406 147.40039c-14.29675-0.17869-23.90367 3.03093-28.83398 8.94727-5.17678 6.16289-7.83008 16.27482-7.83008 30.32617v128.11914c0 14.05139 2.6533 24.16133 7.83008 30.32422 4.93031 5.91635 14.53612 8.94922 28.83398 8.94922h33.95703l44.78321 31.61132 44.7832-31.61132h123.14844c14.29779 0 23.90344-3.03287 28.83398-8.94922 5.17678-6.16289 7.83008-16.27283 7.83008-30.32422v-128.11914c0-14.05135-2.6533-24.16328-7.83008-30.32617-4.9302-5.91634-14.53619-8.94727-28.83398-8.94727h-181.75z" style="filter:url(#filter4500);opacity:.1"/>
   <path d="m-54.667093 253.89145v14.13175c0 1.89488 0.357544 3.25825 1.055653 4.08933 0.664872 0.79785 1.960517 1.20684 3.888638 1.20684h4.579239l6.038923 4.26318 6.039453-4.26318h16.607048c1.92811 0 3.22373-0.40899 3.88864-1.20684 0.6981-0.83108 1.05565-2.19445 1.05565-4.08933v-14.13175z" style="fill:url(#linearGradient4143)"/>
   <path d="m-49.722817 245.26081c-1.927972-0.0241-3.223509 0.43088-3.888381 1.22872-0.698109 0.83109-1.055895 2.19463-1.055895 4.0895v16.7794l9.523493 5.96097 6.039156 4.26293 6.039141-4.26293h1.1e-5l21.551443-16.36454v-6.37583c0-1.89488-0.35776-3.25841-1.05587-4.0895-0.66485-0.79784-1.96027-1.22872-3.888381-1.22872h-24.509679z" style="fill:url(#linearGradient4134)"/>
   <path d="m-46.036444 253.89145v2.15767h25.891945v-2.15767z" style="fill:#83b9f5"/>
   <path d="m-11.513849 256.95486-21.551443 16.36454h16.607192c1.928111 0 3.223481-0.4089 3.888381-1.20674 0.69811-0.83109 1.05587-2.19462 1.05587-4.08951z" style="fill:url(#linearGradient4164);opacity:.1"/>
   <path d="m-54.667093 267.35843v0.66472c0 1.89489 0.357786 3.25842 1.055895 4.08951 0.664872 0.79784 1.973499 1.43231 3.888381 1.20674h4.579217z" style="fill:url(#linearGradient4177);opacity:.1"/>
   <path d="m-46.036444 260.36444v2.15767h12.945971v-2.15767z" style="fill:#83b9f5"/>
   <path d="m-49.722802 245.26081c-1.927972-0.0241-3.223766 0.43111-3.888638 1.22896-0.698108 0.83109-1.055653 2.19446-1.055653 4.08934v0.53941c0-1.89488 0.357545-3.25825 1.055653-4.08934 0.664872-0.79784 1.960666-1.25305 3.888638-1.22896h33.264663c1.92811 0 3.22378 0.43112 3.88864 1.22896 0.69811 0.83109 1.05565 2.19446 1.05565 4.08934v-0.53941c0-1.89489-0.35754-3.25825-1.05565-4.08934-0.66486-0.79784-1.96053-1.22896-3.88864-1.22896h-24.509695z" style="fill:#ffffff"/>
  </g>
  <g transform="matrix(.11404751 .11404751 -.12369329 .12369329 -5.0958471 146.0888)" style="enable-background:new">
   <path d="m688.00003 319.35584-32 81.13762-31.99999-81.13762v-11.06422h63.99999z" style="fill:#fee1c2"/>
   <path d="m645.81253 374.67694 10.1875 25.81651 10.1875-25.81651s0.77644-2.76606-1.20553-2.76606-3.94669 3.68807-3.94669 3.68807-1.03528-4.61009-5.01377-4.61009c-3.9785 0-5.01378 4.61009-5.01378 4.61009s-2.00773-3.68807-4.00773-3.68807-1.1875 2.76606-1.1875 2.76606z" style="fill:#5d5d5d"/>
   <path d="m624.00004 319.35583c0-7.37615 17.99999-3.68808 17.99999 7.37614 0-18.44036 28-18.44036 28 0 0-11.06422 18-14.75229 18-7.37614v-185.89981h-63.99999z" style="fill:url(#linearGradient4342)"/>
  </g>
 </g>
</svg>
