<svg xmlns="http://www.w3.org/2000/svg" xmlns:xlink="http://www.w3.org/1999/xlink" width="256" height="256" version="1.1" viewBox="0 0 67.73 67.73">
 <defs>
  <linearGradient id="linearGradient2191">
   <stop style="stop-color:#f5e448" offset="0"/>
   <stop style="stop-color:#ea640c" offset="1"/>
  </linearGradient>
  <linearGradient id="linearGradient1108" x1="296" x2="296" y1="-212" y2="236" gradientUnits="userSpaceOnUse" xlink:href="#linearGradient1013"/>
  <linearGradient id="linearGradient1013">
   <stop offset="0" style="stop-color:#ffffff"/>
   <stop style="stop-color:#ffffff;stop-opacity:0.09803922" offset=".125"/>
   <stop style="stop-color:#000000;stop-opacity:0.09803922" offset=".925"/>
   <stop offset="1" style="stop-color:#000000;stop-opacity:0.49803922"/>
  </linearGradient>
  <clipPath id="clipPath1082-3-361" clipPathUnits="userSpaceOnUse">
   <path d="M 361.9375,-212 C 507.2348,-212 528,-191.28677 528,-46.125 V 70.125 C 528,215.28618 507.2348,236 361.9375,236 H 214.0625 C 68.7652,236 48,215.28618 48,70.125 V -46.125 C 48,-191.28677 68.7652,-212 214.0625,-212 Z" style="fill:#8c59d9"/>
  </clipPath>
  <filter style="color-interpolation-filters:sRGB" id="filter4569" width="1.023" height="1.025" x="-.01" y="-.01">
   <feGaussianBlur stdDeviation="1.16"/>
  </filter>
  <filter style="color-interpolation-filters:sRGB" id="filter939" width="1.046" height="1.05" x="-.02" y="-.03">
   <feGaussianBlur stdDeviation="2.32"/>
  </filter>
  <radialGradient id="radialGradient2195" cx="31.272" cy="247.711" r="32.365" fx="31.272" fy="247.711" gradientTransform="matrix(2.4039791,-0.66748142,0.37889165,1.3646038,-137.76082,-68.447972)" gradientUnits="userSpaceOnUse" xlink:href="#linearGradient2191"/>
  <filter style="color-interpolation-filters:sRGB" id="filter1563" width="1.109" height="1.086" x="-.06" y="-.04">
   <feGaussianBlur stdDeviation="2.677"/>
  </filter>
 </defs>
 <g transform="translate(0,-229.26666)">
  <path style="opacity:0.2;filter:url(#filter939)" d="m 162.53675,5.5680001 c 72.64865,0 83.03125,10.3566149 83.03125,82.9375049 v 58.125005 c 0,72.58059 -10.3826,82.9375 -83.03125,82.9375 H 88.599254 C 15.9506,229.56801 5.568,219.2111 5.568,146.63051 V 88.505505 c 0,-72.58089 10.3826,-82.9375049 83.031254,-82.9375049 z" transform="matrix(0.26970779,0,0,0.26970779,-1.9098094e-8,231.46531)"/>
  <path d="m 43.837429,232.42763 c 19.593907,0 22.394176,2.79326 22.394176,22.36889 v 15.67677 c 0,19.57555 -2.800269,22.36889 -22.394176,22.36889 H 23.89591 c -19.5939088,0 -22.394177,-2.79334 -22.394177,-22.36889 v -15.67677 c 0,-19.57563 2.8002682,-22.36889 22.394177,-22.36889 z" style="opacity:0.1;fill:none;stroke:#000000;stroke-width:1.07883108;stroke-linecap:round;stroke-linejoin:round"/>
  <path d="m 162.53675,3.5680001 c 72.64865,0 83.03125,10.3566149 83.03125,82.9375049 v 58.125005 c 0,72.58059 -10.3826,82.9375 -83.03125,82.9375 H 88.599254 C 15.9506,227.56801 5.568,217.2111 5.568,144.63051 V 86.505505 c 0,-72.58089 10.3826,-82.9375049 83.031254,-82.9375049 z" transform="matrix(0.26970779,0,0,0.26970779,-1.9098094e-8,231.46531)" style="opacity:0.1;filter:url(#filter4569)"/>
  <path style="fill:url(#radialGradient2195)" d="m 43.837427,232.42763 c 19.593907,0 22.394175,2.79326 22.394175,22.36889 v 15.67677 c 0,19.57555 -2.800268,22.36889 -22.394175,22.36889 h -19.94152 c -19.5939074,0 -22.3941756,-2.79334 -22.3941756,-22.36889 v -15.67677 c 0,-19.57563 2.8002682,-22.36889 22.3941756,-22.36889 z"/>
  <path d="M 361.9375,-212 C 507.2348,-212 528,-191.28677 528,-46.125 V 70.125 C 528,215.28618 507.2348,236 361.9375,236 H 214.0625 C 68.7652,236 48,215.28618 48,70.125 V -46.125 C 48,-191.28677 68.7652,-212 214.0625,-212 Z" clip-path="url(#clipPath1082-3-361)" transform="matrix(0.1348539,0,0,0.1348539,-4.9712559,261.01666)" style="opacity:0.4;fill:none;stroke:url(#linearGradient1108);stroke-width:8;stroke-linecap:round;stroke-linejoin:round"/>
  <path style="opacity:0.1;fill:#ffffff" d="m 33.866666,232.42763 v 60.41455 h 9.970761 c 19.593907,0 22.394175,-2.79334 22.394175,-22.36889 v -15.67677 c 0,-19.57563 -2.800268,-22.36889 -22.394175,-22.36889 z"/>
  <path style="opacity:0.1;fill:#ffffff" d="m 23.895907,292.84218 c -19.5939074,0 -22.3941756,-2.64319 -22.3941756,-21.16712 v -7.41727 H 66.231602 v 7.41727 c 0,18.52393 -2.800268,21.16712 -22.394175,21.16712 z"/>
  <g transform="matrix(2.8385608,0,0,2.8385608,-668.92177,-1934.5264)">
   <path d="M 176.31836 51.117188 A 10.729492 10.729492 0 0 0 166.80664 56.523438 L 131.53516 116.41797 L 113.34375 105.18945 C 105.2262 101.14248 100.2276 103.61583 97.128906 109.89453 L 96.939453 119.62891 L 161.51562 157.4082 L 168.1875 155.08594 C 175.21815 149.89446 172.89506 141.32762 166.41992 137.95117 L 149.79492 127.68945 L 185.28711 67.419922 A 10.729492 10.729492 0 0 0 176.31836 51.119141 L 176.31836 51.117188 z M 90.0625 130.9375 L 73.65625 159.39258 C 62.354934 178.96765 73.151742 201.11719 96.652344 201.11719 L 154.25977 201.11719 L 144.06641 192.3457 C 141.69564 190.92333 140.74653 187.36752 143.11719 184.75977 L 154.32422 168.21484 L 90.0625 130.9375 z" transform="matrix(0.09321038,0,0,0.09321038,235.65526,762.28526)" style="fill:#111111;filter:url(#filter1563);opacity:0.3"/>
   <path style="fill:#ffffff" d="M 176.31836 51.117188 A 10.729492 10.729492 0 0 0 166.80664 56.523438 L 131.53516 116.41797 L 113.34375 105.18945 C 105.2262 101.14248 100.2276 103.61583 97.128906 109.89453 L 96.939453 119.62891 L 161.51562 157.4082 L 168.1875 155.08594 C 175.21815 149.89446 172.89506 141.32762 166.41992 137.95117 L 149.79492 127.68945 L 185.28711 67.419922 A 10.729492 10.729492 0 0 0 176.31836 51.119141 L 176.31836 51.117188 z M 90.0625 130.9375 L 73.65625 159.39258 C 62.354934 178.96765 73.151742 201.11719 96.652344 201.11719 L 154.25977 201.11719 L 144.06641 192.3457 C 141.69564 190.92333 140.74653 187.36752 143.11719 184.75977 L 154.32422 168.21484 L 90.0625 130.9375 z" transform="matrix(0.09321038,0,0,0.09321038,235.65526,762.28526)"/>
  </g>
 </g>
</svg>
