<svg xmlns="http://www.w3.org/2000/svg" xmlns:xlink="http://www.w3.org/1999/xlink" width="256" height="256" version="1.0" style="enable-background:new">
 <defs>
  <filter style="color-interpolation-filters:sRGB" id="filter925" width="1.046" height="1.05" x="-.02" y="-.03">
   <feGaussianBlur stdDeviation="2.32"/>
  </filter>
  <filter style="color-interpolation-filters:sRGB" id="filter931" width="1.023" height="1.025" x="-.01" y="-.01">
   <feGaussianBlur stdDeviation="1.16"/>
  </filter>
  <linearGradient id="linearGradient1108" x1="296" x2="296" y1="-212" y2="236" gradientUnits="userSpaceOnUse" xlink:href="#linearGradient1013"/>
  <linearGradient id="linearGradient1013">
   <stop offset="0" style="stop-color:#ffffff"/>
   <stop style="stop-color:#ffffff;stop-opacity:0.09803922" offset=".125"/>
   <stop style="stop-color:#000000;stop-opacity:0.09803922" offset=".925"/>
   <stop offset="1" style="stop-color:#000000;stop-opacity:0.49803922"/>
  </linearGradient>
  <clipPath id="clipPath1082-3" clipPathUnits="userSpaceOnUse">
   <path d="M 361.9375,-212 C 507.2348,-212 528,-191.28677 528,-46.125 V 70.125 C 528,215.28618 507.2348,236 361.9375,236 H 214.0625 C 68.7652,236 48,215.28618 48,70.125 V -46.125 C 48,-191.28677 68.7652,-212 214.0625,-212 Z" style="fill:#8c59d9"/>
  </clipPath>
 </defs>
 <g transform="translate(0,-44)">
  <g>
   <g>
    <path d="m 162.53675,62.431991 c 72.64865,0 83.03125,10.356615 83.03125,82.937499 v 58.125 c 0,72.58059 -10.3826,82.9375 -83.03125,82.9375 h -73.9375 c -72.64865,0 -83.0312501,-10.35691 -83.0312501,-82.9375 v -58.125 c 0,-72.580884 10.3826001,-82.937499 83.0312501,-82.937499 z" style="opacity:0.2;filter:url(#filter925)"/>
    <path style="opacity:0.1;filter:url(#filter931)" d="m 162.53675,61.431991 c 72.64865,0 83.03125,10.356615 83.03125,82.937499 v 58.125 c 0,72.58059 -10.3826,82.9375 -83.03125,82.9375 h -73.9375 c -72.64865,0 -83.0312501,-10.35691 -83.0312501,-82.9375 v -58.125 c 0,-72.580884 10.3826001,-82.937499 83.0312501,-82.937499 z"/>
   </g>
   <g>
    <path style="fill:#f2473b" d="m 162.53675,60.431991 c 72.64865,0 83.03125,10.356615 83.03125,82.937499 v 58.125 c 0,72.58059 -10.3826,82.9375 -83.03125,82.9375 h -73.9375 c -72.64865,0 -83.0312501,-10.35691 -83.0312501,-82.9375 v -58.125 c 0,-72.580884 10.3826001,-82.937499 83.0312501,-82.937499 z"/>
    <g style="opacity:0.2" transform="matrix(10.199225,0,0,10.199225,-5178.029,-226.03157)">
     <path d="m 526,37 v -2 h -2.002 z" overflow="visible"/>
     <path d="m 514,39 v 8 h 9 v -1 h -8 V 38.333 Z M 525.002,38 525,47 h 1 v -8 z" font-size="15" font-weight="400" letter-spacing="0" word-spacing="0"/>
     <path d="m 520,40.986 a 8.47,8.47 0 0 1 0.607,-0.122 c 0.253,-0.043 0.543,-0.064 0.872,-0.064 0.295,0 0.54,0.043 0.735,0.129 0.195,0.08 0.35,0.197 0.465,0.35 0.119,0.147 0.202,0.326 0.25,0.535 0.047,0.21 0.071,0.44 0.071,0.693 V 46.2 h -3 z" font-weight="400" letter-spacing="0" word-spacing="0"/>
     <path d="m 520,32.293 -7.854,7.853 0.708,0.708 7.146,-7.147 7.146,7.147 0.708,-0.708 z" font-weight="400" overflow="visible" style="fill-rule:evenodd"/>
    </g>
    <g transform="matrix(10.199225,0,0,10.199225,-5178.029,-229.93158)" style="fill:#ffffff">
     <path style="fill:#ffffff" d="m 526,37 v -2 h -2.002 z" overflow="visible"/>
     <path style="fill:#ffffff" d="m 514,39 v 8 h 9 v -1 h -8 V 38.333 Z M 525.002,38 525,47 h 1 v -8 z" font-size="15" font-weight="400" letter-spacing="0" word-spacing="0"/>
     <path style="fill:#ffffff" d="m 520,40.986 a 8.47,8.47 0 0 1 0.607,-0.122 c 0.253,-0.043 0.543,-0.064 0.872,-0.064 0.295,0 0.54,0.043 0.735,0.129 0.195,0.08 0.35,0.197 0.465,0.35 0.119,0.147 0.202,0.326 0.25,0.535 0.047,0.21 0.071,0.44 0.071,0.693 V 46.2 h -3 z" font-weight="400" letter-spacing="0" word-spacing="0"/>
     <path style="fill:#ffffff;fill-rule:evenodd" d="m 520,32.293 -7.854,7.853 0.708,0.708 7.146,-7.147 7.146,7.147 0.708,-0.708 z" font-weight="400" overflow="visible"/>
    </g>
   </g>
   <g>
    <path d="m 361.9375,-212 c 145.2973,0 166.0625,20.71323 166.0625,165.875 v 116.25 c 0,145.16118 -20.7652,165.875 -166.0625,165.875 h -147.875 c -145.2973,0 -166.0625,-20.71382 -166.0625,-165.875 v -116.25 c 0,-145.16177 20.7652,-165.875 166.0625,-165.875 z" clip-path="url(#clipPath1082-3)" transform="matrix(0.5,0,0,0.5,-18.432,166.43199)" style="opacity:0.4;fill:none;stroke:url(#linearGradient1108);stroke-width:8;stroke-linecap:round;stroke-linejoin:round"/>
   </g>
  </g>
 </g>
</svg>
