<svg xmlns="http://www.w3.org/2000/svg" xmlns:xlink="http://www.w3.org/1999/xlink" width="256" height="256" version="1.1" viewBox="0 0 67.73 67.73">
 <defs>
  <filter style="color-interpolation-filters:sRGB" id="filter925" width="1.046" height="1.05" x="-.02" y="-.03">
   <feGaussianBlur stdDeviation="2.32"/>
  </filter>
  <filter style="color-interpolation-filters:sRGB" id="filter931" width="1.023" height="1.025" x="-.01" y="-.01">
   <feGaussianBlur stdDeviation="1.16"/>
  </filter>
  <linearGradient id="linearGradient917" x1="58.397" x2="243.659" y1="19" y2="302" gradientTransform="matrix(2.0393079,0,0,2.0393079,-83.457723,-45.327173)" gradientUnits="userSpaceOnUse" xlink:href="#linearGradient4338"/>
  <linearGradient id="linearGradient4338">
   <stop style="stop-color:#ea9d60" offset="0"/>
   <stop style="stop-color:#efbe94" offset="1"/>
  </linearGradient>
  <linearGradient id="linearGradient4241-9" x1="256" x2="256" y1="24" y2="664" gradientTransform="matrix(0.76474046,0,0,1.0196539,30.743518,19.930682)" gradientUnits="userSpaceOnUse" xlink:href="#linearGradient4235"/>
  <linearGradient id="linearGradient4235">
   <stop style="stop-color:#f1e2a7" offset="0"/>
   <stop style="stop-color:#f9f1d2" offset="1"/>
  </linearGradient>
  <clipPath id="clipPath1119-6" clipPathUnits="userSpaceOnUse">
   <rect style="opacity:0.1;fill:#efbe94" width="120" height="224" x="32" y="44" rx=".031" ry=".014"/>
  </clipPath>
  <linearGradient id="linearGradient1038" x1="296" x2="296" y1="-212" y2="236" gradientUnits="userSpaceOnUse" xlink:href="#linearGradient1013"/>
  <linearGradient id="linearGradient1013">
   <stop offset="0" style="stop-color:#ffffff"/>
   <stop style="stop-color:#ffffff;stop-opacity:0.09803922" offset=".125"/>
   <stop style="stop-color:#000000;stop-opacity:0.09803922" offset=".925"/>
   <stop offset="1" style="stop-color:#000000;stop-opacity:0.49803922"/>
  </linearGradient>
  <clipPath id="clipPath1082-3-35-6" clipPathUnits="userSpaceOnUse">
   <path d="M 361.9375,-212 C 507.2348,-212 528,-191.28677 528,-46.125 V 70.125 C 528,215.28618 507.2348,236 361.9375,236 H 214.0625 C 68.7652,236 48,215.28618 48,70.125 V -46.125 C 48,-191.28677 68.7652,-212 214.0625,-212 Z" style="fill:#8c59d9"/>
  </clipPath>
  <filter style="color-interpolation-filters:sRGB" id="filter1345" width="1.048" height="1.048" x="-.02" y="-.02">
   <feGaussianBlur stdDeviation="1.28"/>
  </filter>
 </defs>
 <g transform="translate(0,-229.26666)">
  <g style="enable-background:new" transform="matrix(0.12974173,0,0,0.12974173,3.8344818,227.85345)">
   <path d="m 162.53675,5.568 c 72.64865,0 83.03125,10.356615 83.03125,82.9375 v 58.125 c 0,72.58059 -10.3826,82.9375 -83.03125,82.9375 H 88.59925 C 15.9506,229.568 5.5679999,219.21109 5.5679999,146.6305 V 88.5055 C 5.5679999,15.924615 15.9506,5.568 88.59925,5.568 Z" transform="matrix(2.0393079,0,0,2.0393079,-29.55473,37.126122)" style="opacity:0.2;filter:url(#filter925)"/>
   <path style="opacity:0.1;filter:url(#filter931)" d="m 162.53675,4.568 c 72.64865,0 83.03125,10.356615 83.03125,82.9375 v 58.125 c 0,72.58059 -10.3826,82.9375 -83.03125,82.9375 H 88.59925 C 15.9506,228.568 5.5679999,218.21109 5.5679999,145.6305 V 87.5055 C 5.5679999,14.924615 15.9506,4.568 88.59925,4.568 Z" transform="matrix(2.0393079,0,0,2.0393079,-29.55473,37.126122)"/>
   <path style="fill:url(#linearGradient917)" d="m 301.90775,44.402372 c 148.15296,0 169.32628,21.120326 169.32628,169.135108 v 118.53477 c 0,148.01417 -21.17332,169.13507 -169.32628,169.13507 H 151.12642 c -148.1529719,0 -169.326292,-21.1209 -169.326292,-169.13507 V 213.53748 c 0,-148.014782 21.1733201,-169.135108 169.326292,-169.135108 z"/>
   <rect style="opacity:0.6;fill:url(#linearGradient4241-9)" width="32.629" height="456.805" x="210.2" y="44.4"/>
   <rect style="fill:#f9f9f9" width="106.044" height="65.258" x="62.47" y="371.6"/>
   <path style="fill:#5d5d5d" d="m 70.622597,387.91319 v 32.62892 h 16.31447 v -32.62892 z m 24.471699,0 v 32.62892 h 8.157234 v -32.62892 z m 16.314464,0 v 32.62892 h 16.31446 v -32.62892 z m 24.47169,0 v 32.62892 h 8.15723 v -32.62892 z m 16.31447,0 v 32.62892 h 8.15723 v -32.62892 z"/>
   <path style="opacity:0.07999998;fill:#ffffff" d="M 188.96875,44 C 261.6174,44 272,54.356615 272,126.9375 v 58.125 C 272,257.64309 261.6174,268 188.96875,268 h -73.9375 C 42.3826,268 32,257.64309 32,185.0625 v -58.125 C 32,54.356615 42.3826,44 115.03125,44 Z" clip-path="url(#clipPath1119-6)" transform="matrix(-2.0393079,0,0,2.0393079,536.49188,-45.327183)"/>
   <path style="opacity:0.1;fill:#ffffff" d="M 471.23403,348.2473 316.39399,501.20732 C 446.2823,499.78956 469.61676,477.04269 471.23403,348.2473 Z"/>
   <path d="M 361.9375,-212 C 507.2348,-212 528,-191.28677 528,-46.125 V 70.125 C 528,215.28618 507.2348,236 361.9375,236 H 214.0625 C 68.7652,236 48,215.28618 48,70.125 V -46.125 C 48,-191.28677 68.7652,-212 214.0625,-212 Z" clip-path="url(#clipPath1082-3-35-6)" transform="matrix(1.0196539,0,0,1.0196539,-67.143253,260.56901)" style="opacity:0.4;fill:none;stroke:url(#linearGradient1038);stroke-width:8;stroke-linecap:round;stroke-linejoin:round"/>
   <circle cx="67.072" cy="67.072" r="64" transform="matrix(1.8242855,0,0,1.8242855,215.16222,243.37359)" style="opacity:0.2;filter:url(#filter1345)"/>
   <circle style="fill:#46a926" cx="337.521" cy="362.084" r="116.754"/>
   <path style="fill:#ffffff" d="m 315.62927,289.11208 43.78284,-0.0195 v 51.0995 l 16.59676,0.009 c -6.7865,13.54587 -19.01814,37.32306 -38.48817,66.3172 -19.47405,-28.99876 -31.70115,-52.78905 -38.48817,-66.33611 l 16.59674,0.01 z M 286.4407,420.46064 v 10.94572 h 102.15999 v -10.94572 z"/>
  </g>
 </g>
</svg>
