<svg xmlns="http://www.w3.org/2000/svg" xmlns:xlink="http://www.w3.org/1999/xlink" width="256" height="256" version="1.0" style="enable-background:new">
 <defs>
  <filter style="color-interpolation-filters:sRGB" id="filter925" width="1.046" height="1.05" x="-.02" y="-.03">
   <feGaussianBlur stdDeviation="2.32"/>
  </filter>
  <filter style="color-interpolation-filters:sRGB" id="filter931" width="1.023" height="1.025" x="-.01" y="-.01">
   <feGaussianBlur stdDeviation="1.16"/>
  </filter>
  <linearGradient id="linearGradient1108" x1="296" x2="296" y1="-212" y2="236" gradientUnits="userSpaceOnUse" xlink:href="#linearGradient1013"/>
  <linearGradient id="linearGradient1013">
   <stop offset="0" style="stop-color:#ffffff"/>
   <stop style="stop-color:#ffffff;stop-opacity:0.09803922" offset=".125"/>
   <stop style="stop-color:#000000;stop-opacity:0.09803922" offset=".925"/>
   <stop offset="1" style="stop-color:#000000;stop-opacity:0.49803922"/>
  </linearGradient>
  <clipPath id="clipPath1082-3" clipPathUnits="userSpaceOnUse">
   <path d="M 361.9375,-212 C 507.2348,-212 528,-191.28677 528,-46.125 V 70.125 C 528,215.28618 507.2348,236 361.9375,236 H 214.0625 C 68.7652,236 48,215.28618 48,70.125 V -46.125 C 48,-191.28677 68.7652,-212 214.0625,-212 Z" style="fill:#8c59d9"/>
  </clipPath>
  <filter style="color-interpolation-filters:sRGB" id="filter1062-3-3" width="1.024" height="1.024" x="-.01" y="-.01">
   <feGaussianBlur stdDeviation=".673"/>
  </filter>
  <filter style="color-interpolation-filters:sRGB" id="filter1066" width="1.014" height="1.08" x="-.01" y="-.04">
   <feGaussianBlur stdDeviation=".4"/>
  </filter>
 </defs>
 <g transform="translate(0,-44)">
  <g>
   <g>
    <path d="m 162.53675,62.431991 c 72.64865,0 83.03125,10.356615 83.03125,82.937499 v 58.125 c 0,72.58059 -10.3826,82.9375 -83.03125,82.9375 h -73.9375 c -72.64865,0 -83.0312501,-10.35691 -83.0312501,-82.9375 v -58.125 c 0,-72.580884 10.3826001,-82.937499 83.0312501,-82.937499 z" style="opacity:0.2;filter:url(#filter925)"/>
    <path style="opacity:0.1;filter:url(#filter931)" d="m 162.53675,61.431991 c 72.64865,0 83.03125,10.356615 83.03125,82.937499 v 58.125 c 0,72.58059 -10.3826,82.9375 -83.03125,82.9375 h -73.9375 c -72.64865,0 -83.0312501,-10.35691 -83.0312501,-82.9375 v -58.125 c 0,-72.580884 10.3826001,-82.937499 83.0312501,-82.937499 z"/>
   </g>
   <g>
    <path style="fill:#4b4b4b" d="m 162.53675,60.431991 c 72.64865,0 83.03125,10.356615 83.03125,82.937499 v 58.125 c 0,72.58059 -10.3826,82.9375 -83.03125,82.9375 h -73.9375 c -72.64865,0 -83.0312501,-10.35691 -83.0312501,-82.9375 v -58.125 c 0,-72.580884 10.3826001,-82.937499 83.0312501,-82.937499 z"/>
   </g>
   <g>
    <path d="M 361.9375,-212 C 507.2348,-212 528,-191.28677 528,-46.125 V 70.125 C 528,215.28618 507.2348,236 361.9375,236 H 214.0625 C 68.7652,236 48,215.28618 48,70.125 V -46.125 C 48,-191.28677 68.7652,-212 214.0625,-212 Z" clip-path="url(#clipPath1082-3)" transform="matrix(0.5,0,0,0.5,-18.432,166.43199)" style="opacity:0.4;fill:none;stroke:url(#linearGradient1108);stroke-width:8;stroke-linecap:round;stroke-linejoin:round"/>
   </g>
  </g>
 </g>
 <g transform="translate(0,26.43202)">
  <g transform="matrix(3.7795275,0,0,3.7795275,1.886974,-895.1954)">
   <path style="opacity:0.1;filter:url(#filter1062-3-3)" d="m 111.24809,46.75201 c -4.70996,9.81241 -9.22355,19.756 -13.54101,29.83008 -4.31746,9.94324 -8.7021,20.41049 -13.15039,31.40039 -1.66494,4.23801 -3.36668,8.65932 -5.07031,13.0918 -1.04969,2.39777 -2.22981,5.26835 -4.07813,10.23242 -3.0972,8.22972 -6.631792,17.55233 -10.087892,26.67969 -1.25915,3.18508 -2.64003,6.75373 -4.82617,12.76562 H 75.21294 86.3145 l 12.36329,-34.73633 24.33202,-1.05859 24.334,1.05859 12.36327,34.73633 h 11.10156 14.71875 c -2.18614,-6.01189 -3.56702,-9.58054 -4.82616,-12.76562 -3.45609,-9.12736 -6.9907,-18.44997 -10.08789,-26.67969 -1.84833,-4.96407 -3.02845,-7.83465 -4.07813,-10.23242 -1.70363,-4.43248 -3.40538,-8.85379 -5.07032,-13.0918 C 157.01661,96.99258 152.63197,86.52533 148.31451,76.58209 143.99704,66.508 139.48344,56.56442 134.77349,46.75201 h -0.39063 -11.11328 -0.51758 -11.11328 z m 11.76172,27.03711 c 0.0856,0.19974 0.17424,0.39587 0.25977,0.5957 v 0.15235 c 3.59305,7.98261 7.06728,16.24447 10.41015,24.81054 4.0558,10.59741 4.11217,9.58637 8.16797,20.96875 l -18.83789,0.67969 -18.83593,-0.67969 c 4.0558,-11.38238 4.11216,-10.37134 8.16796,-20.96875 3.34287,-8.56607 6.81711,-16.82793 10.41016,-24.81054 v -0.15235 c 0.0854,-0.19959 0.17233,-0.3962 0.25781,-0.5957 z" transform="matrix(0.26458333,0,0,0.26458333,0.24580441,235.13719)"/>
   <path style="fill:#ebebeb" d="m 29.680195,246.97783 c -1.246177,2.5962 -2.440398,5.2271 -3.582726,7.89254 -1.142328,2.63081 -2.302431,5.40028 -3.479374,8.30802 -0.440515,1.1213 -0.890767,2.29111 -1.34152,3.46387 -0.27773,0.63441 -0.58997,1.39392 -1.079005,2.70733 -0.819467,2.17744 -1.754664,4.64405 -2.669088,7.059 -0.33315,0.84272 -0.698508,1.78692 -1.276924,3.37757 h 3.894336 2.937288 l 3.271121,-9.19065 6.437847,-0.28009 6.43837,0.28009 3.271117,9.19065 h 2.937287 3.894336 c -0.578416,-1.59065 -0.943774,-2.53485 -1.276921,-3.37757 -0.914424,-2.41495 -1.849623,-4.88156 -2.669088,-7.059 -0.489037,-1.31341 -0.801277,-2.07292 -1.079005,-2.70733 -0.450752,-1.17276 -0.901007,-2.34257 -1.341522,-3.46387 -1.176941,-2.90774 -2.337045,-5.67721 -3.479372,-8.30802 -1.142331,-2.66544 -2.336554,-5.29634 -3.582729,-7.89254 H 35.801269 32.86088 32.723937 29.783549 Z m 3.111955,7.15356 c 0.02265,0.0528 0.0461,0.10475 0.06873,0.15762 v 0.0403 c 0.950662,2.11206 1.869885,4.29801 2.754353,6.56445 1.073097,2.8039 1.088011,2.53639 2.161108,5.54798 l -4.984191,0.17984 -4.983674,-0.17984 c 1.073098,-3.01159 1.088009,-2.74408 2.161107,-5.54798 0.884467,-2.26644 1.803693,-4.45239 2.754354,-6.56445 v -0.0403 c 0.0226,-0.0528 0.0456,-0.10483 0.06821,-0.15762 z"/>
   <rect width="136" height="24" x="54.75" y="118.75" rx="12" ry="12" transform="matrix(0.26458333,0,0,0.26458333,0.24580441,235.13719)" style="opacity:0.1;filter:url(#filter1066)"/>
   <path style="opacity:0.1;fill:#161616" d="m 35.834858,247.07033 -2.92385,7.37267 c 0.932659,2.0771 1.835481,4.22463 2.704225,6.45077 1.073097,2.8039 1.088011,2.53639 2.161108,5.54798 l -1.681032,0.0605 1.16582,4.0075 1.969391,0.0858 3.271117,9.19065 h 2.937287 3.894336 c -0.578416,-1.59065 -0.943774,-2.53485 -1.276921,-3.37757 -0.914424,-2.41495 -1.849623,-4.88156 -2.669088,-7.059 -0.489037,-1.31341 -0.801277,-2.07292 -1.079005,-2.70733 -0.450752,-1.17276 -0.901007,-2.34257 -1.341522,-3.46387 -1.176941,-2.90774 -2.337045,-5.67721 -3.479372,-8.30802 -0.823648,-1.92185 -1.675186,-3.82488 -2.552817,-5.71077 z"/>
   <rect style="fill:#ebebeb" width="35.983" height="6.35" x="14.73" y="266.03" rx="3.175" ry="3.175"/>
   <path style="opacity:0.2;fill:#161616" d="m 17.90727,268.14441 c -0.586316,0 -1.058333,0.47202 -1.058333,1.05834 0,0.58631 0.472017,1.05833 1.058333,1.05833 h 10.484115 8.565886 10.682553 c 0.531349,0 0.959114,-0.42777 0.959114,-0.95911 v -0.19844 c 0,-0.53135 -0.427765,-0.95912 -0.959114,-0.95912 H 36.957271 28.391385 Z"/>
   <rect style="fill:#19b6ee" width="21.167" height="2.117" x="16.85" y="268.14" rx="1.058" ry="1.058"/>
  </g>
  <path d="m 5.568004,122 v 9.06247 c 0,72.58061 10.3826,82.9375 83.03125,82.9375 h 73.937496 c 72.64865,0 83.03125,-10.35689 83.03125,-82.9375 V 122 Z" style="opacity:0.07999998;fill:#ffffff"/>
 </g>
</svg>
