<?xml version="1.0" encoding="UTF-8" standalone="no"?>
<svg
   xmlns:dc="http://purl.org/dc/elements/1.1/"
   xmlns:cc="http://creativecommons.org/ns#"
   xmlns:rdf="http://www.w3.org/1999/02/22-rdf-syntax-ns#"
   xmlns:svg="http://www.w3.org/2000/svg"
   xmlns="http://www.w3.org/2000/svg"
   xmlns:sodipodi="http://sodipodi.sourceforge.net/DTD/sodipodi-0.dtd"
   xmlns:inkscape="http://www.inkscape.org/namespaces/inkscape"
   width="256"
   height="256"
   version="1.1"
   viewBox="0 0 67.73 67.73"
   id="svg64"
   sodipodi:docname="docviewer-app.svg"
   inkscape:version="0.92.3 (2405546, 2018-03-11)">
  <metadata
     id="metadata68">
    <rdf:RDF>
      <cc:Work
         rdf:about="">
        <dc:format>image/svg+xml</dc:format>
        <dc:type
           rdf:resource="http://purl.org/dc/dcmitype/StillImage" />
        <dc:title></dc:title>
      </cc:Work>
    </rdf:RDF>
  </metadata>
  <sodipodi:namedview
     pagecolor="#ffffff"
     bordercolor="#666666"
     borderopacity="1"
     objecttolerance="10"
     gridtolerance="10"
     guidetolerance="10"
     inkscape:pageopacity="0"
     inkscape:pageshadow="2"
     inkscape:window-width="770"
     inkscape:window-height="480"
     id="namedview66"
     showgrid="false"
     inkscape:zoom="0.921875"
     inkscape:cx="128"
     inkscape:cy="128"
     inkscape:window-x="0"
     inkscape:window-y="34"
     inkscape:window-maximized="0"
     inkscape:current-layer="g62" />
  <defs
     id="defs28">
    <linearGradient
       id="linearGradient1108"
       x1="296"
       x2="296"
       y1="-212"
       y2="236"
       gradientUnits="userSpaceOnUse">
      <stop
         style="stop-color:#ffffff"
         offset="0"
         id="stop2" />
      <stop
         style="stop-color:#ffffff;stop-opacity:.09803922"
         offset=".125"
         id="stop4" />
      <stop
         style="stop-color:#000000;stop-opacity:.09803922"
         offset=".925"
         id="stop6" />
      <stop
         style="stop-color:#000000;stop-opacity:.49803922"
         offset="1"
         id="stop8" />
    </linearGradient>
    <clipPath
       id="clipPath1082-3-629">
      <path
         d="M 361.9375,-212 C 507.2348,-212 528,-191.28677 528,-46.125 V 70.125 C 528,215.28618 507.2348,236 361.9375,236 H 214.0625 C 68.7652,236 48,215.28618 48,70.125 V -46.125 C 48,-191.28677 68.7652,-212 214.0625,-212 Z"
         style="fill:#8c59d9"
         id="path11" />
    </clipPath>
    <filter
       id="filter1060"
       x="-.02"
       y="-.02"
       width="1.048"
       height="1.048"
       style="color-interpolation-filters:sRGB">
      <feGaussianBlur
         stdDeviation="1.531"
         id="feGaussianBlur14" />
    </filter>
    <linearGradient
       id="linearGradient1044"
       x1="88"
       x2="256"
       y1="28"
       y2="284"
       gradientTransform="matrix(.26458333 0 0 .26458333 -6.993468 221.97263)"
       gradientUnits="userSpaceOnUse">
      <stop
         style="stop-color:#e8e8e8"
         offset="0"
         id="stop17" />
      <stop
         style="stop-color:#f5f5f5"
         offset="1"
         id="stop19" />
    </linearGradient>
    <filter
       id="filter4569"
       x="-.01"
       y="-.01"
       width="1.023"
       height="1.025"
       style="color-interpolation-filters:sRGB">
      <feGaussianBlur
         stdDeviation="1.16"
         id="feGaussianBlur22" />
    </filter>
    <filter
       id="filter939"
       x="-.02"
       y="-.03"
       width="1.046"
       height="1.05"
       style="color-interpolation-filters:sRGB">
      <feGaussianBlur
         stdDeviation="2.32"
         id="feGaussianBlur25" />
    </filter>
  </defs>
  <g
     transform="translate(0,-229.26666)"
     id="g62">
    <path
       transform="matrix(.26458333 0 0 .26458333 -1.8735229e-8 232.67026)"
       d="m162.53675 5.5680001c72.64865 0 83.03125 10.356615 83.03125 82.937505v58.125005c0 72.58059-10.3826 82.9375-83.03125 82.9375h-73.937496c-72.648654 0-83.031254-10.35691-83.031254-82.9375v-58.125005c0-72.58089 10.3826-82.937505 83.031254-82.937505z"
       style="filter:url(#filter939);opacity:.2"
       id="path30" />
    <path
       d="m43.004515 233.61429c19.221622 0 21.968685 2.74019 21.968685 21.94388v15.37891c0 19.20362-2.747063 21.94388-21.968685 21.94388h-19.562629c-19.221623 0-21.968686-2.74026-21.968686-21.94388v-15.37891c0-19.20369 2.747063-21.94388 21.968686-21.94388z"
       style="fill:none;opacity:.1;stroke-linecap:round;stroke-linejoin:round;stroke-width:1.0583333;stroke:#000000"
       id="path32" />
    <path
       transform="matrix(.26458333 0 0 .26458333 -1.8735229e-8 232.67026)"
       d="m162.53675 3.5680001c72.64865 0 83.03125 10.356615 83.03125 82.937505v58.125005c0 72.58059-10.3826 82.9375-83.03125 82.9375h-73.937496c-72.648654 0-83.031254-10.35691-83.031254-82.9375v-58.125005c0-72.58089 10.3826-82.937505 83.031254-82.937505z"
       style="filter:url(#filter4569);opacity:.1"
       id="path34" />
    <path
       d="m43.004513 233.61429c19.221622 0 21.968685 2.74019 21.968685 21.94388v15.37891c0 19.20362-2.747063 21.94388-21.968685 21.94388h-19.56263c-19.221621 0-21.968684-2.74026-21.968684-21.94388v-15.37891c0-19.20369 2.747063-21.94388 21.968684-21.94388z"
       style="fill:url(#linearGradient1044)"
       id="path36" />
    <path
       d="m33.223197 233.61429v59.26667h9.781316c19.221622 0 21.968685-2.74026 21.968685-21.94388v-15.37891c0-19.20369-2.747063-21.94388-21.968685-21.94388z"
       style="fill:#ffffff;opacity:.2"
       id="path38" />
    <path
       d="m23.441883 292.88096c-19.221621 0-21.968684-2.74019-21.968684-21.94388v-7.68945h63.499999v7.68945c0 19.20369-2.747063 21.94388-21.968685 21.94388z"
       style="fill:#ffffff;opacity:.25"
       id="path40" />
    <path
       d="m64.973198 273.03566-20.089215 19.8453c16.851934-0.18394 19.879387-3.13516 20.089215-19.8453z"
       style="fill:#ffffff;opacity:.8"
       id="path42" />
    <path
       transform="matrix(.26458333 0 0 .26458333 -1.8735229e-8 232.67026)"
       d="m113.44286 42.568005c-35.298036 0-63.999991 28.70196-63.999991 64.000005 0 35.29804 28.701955 64 63.999991 64 15.45232 0 29.63935-5.50209 40.70898-14.64844l6.89063 6.89063-1.41406 1.41406 31.49999 31.5 11.31445-11.3125-31.49999-31.5-1.41406 1.41406-6.88086-6.88086c9.23157-11.09442 14.79492-25.34465 14.79492-40.87695 0-35.298045-28.70196-64.000005-64-64.000005zm0 8.136719c30.90124 0 55.86523 24.962041 55.86523 55.863286 0 30.90124-24.96399 55.86523-55.86523 55.86523-30.901236 0-55.865225-24.96399-55.865225-55.86523 0-30.901245 24.963989-55.863286 55.865225-55.863286z"
       style="filter:url(#filter1060);opacity:.1"
       id="path48" />
    <g
       transform="matrix(.26458333 0 0 .26458333 -9.110091 223.03096)"
       style="enable-background:new"
       id="g58">
      <g
         transform="matrix(-1,0,0,1,319.8747,3.1e-4)"
         style="enable-background:new"
         id="g54">
        <path
           d="m116.15722 195.99999 12.00001-12"
           style="fill:none;stroke-width:11.999999;stroke:#888888"
           id="path50" />
        <path
           d="m88.657217 223.49999 31.500013-31.5"
           style="fill:none;stroke-width:15.999999;stroke:#3b3b3b"
           id="path52" />
      </g>
      <circle
         cx="147.875"
         cy="140"
         r="59.932"
         style="fill-opacity:.54292345;fill:#ffffff;stroke-width:8.1355925;stroke:#666666"
         id="circle56" />
    </g>
    <path
       transform="matrix(.13229167 0 0 .13229167 -4.876801 261.66013)"
       d="M 361.9375,-212 C 507.2348,-212 528,-191.28677 528,-46.125 V 70.125 C 528,215.28618 507.2348,236 361.9375,236 H 214.0625 C 68.7652,236 48,215.28618 48,70.125 V -46.125 C 48,-191.28677 68.7652,-212 214.0625,-212 Z"
       clip-path="url(#clipPath1082-3-629)"
       style="fill:none;opacity:.4;stroke-linecap:round;stroke-linejoin:round;stroke-width:8;stroke:url(#linearGradient1108)"
       id="path60" />
  </g>
</svg>
