<svg xmlns="http://www.w3.org/2000/svg" xmlns:xlink="http://www.w3.org/1999/xlink" width="256" height="256" version="1.1" viewBox="0 0 67.73 67.73">
 <defs>
  <linearGradient id="linearGradient1013">
   <stop offset="0" style="stop-color:#ffffff"/>
   <stop style="stop-color:#ffffff;stop-opacity:0.09803922" offset=".125"/>
   <stop style="stop-color:#000000;stop-opacity:0.09803922" offset=".925"/>
   <stop offset="1" style="stop-color:#000000;stop-opacity:0.49803922"/>
  </linearGradient>
  <clipPath id="clipPath1082-3-5" clipPathUnits="userSpaceOnUse">
   <path d="M 361.9375,-212 C 507.2348,-212 528,-191.28677 528,-46.125 V 70.125 C 528,215.28618 507.2348,236 361.9375,236 H 214.0625 C 68.7652,236 48,215.28618 48,70.125 V -46.125 C 48,-191.28677 68.7652,-212 214.0625,-212 Z" style="fill:#8c59d9"/>
  </clipPath>
  <filter style="color-interpolation-filters:sRGB" id="filter4569-2" width="1.023" height="1.025" x="-.01" y="-.01">
   <feGaussianBlur stdDeviation="1.16"/>
  </filter>
  <filter style="color-interpolation-filters:sRGB" id="filter913" width="1.046" height="1.05" x="-.02" y="-.03">
   <feGaussianBlur stdDeviation="2.32"/>
  </filter>
  <linearGradient id="linearGradient906" x1="296" x2="296" y1="-212" y2="236" gradientUnits="userSpaceOnUse" xlink:href="#linearGradient1013"/>
  <linearGradient id="linearGradient1163" x1="80" x2="232" y1="228" y2="228" gradientTransform="matrix(-1,0,0,1,315.87501,0)" gradientUnits="userSpaceOnUse" xlink:href="#linearGradient1161"/>
  <linearGradient id="linearGradient1161">
   <stop style="stop-color:#000000;stop-opacity:0" offset="0"/>
   <stop offset=".477" style="stop-color:#000000"/>
   <stop style="stop-color:#000000;stop-opacity:0" offset="1"/>
  </linearGradient>
  <filter style="color-interpolation-filters:sRGB" id="filter1151" width="1.024" height="1.024" x="-.01" y="-.01">
   <feGaussianBlur stdDeviation=".725"/>
  </filter>
 </defs>
 <g transform="translate(0,-229.26666)">
  <path style="opacity:0.2;filter:url(#filter913)" d="m 188.96876,45.999995 c 72.64865,0 83.03125,10.356615 83.03125,82.937505 v 58.125 c 0,72.58059 -10.3826,82.9375 -83.03125,82.9375 h -73.9375 C 42.382606,270 32.000006,259.64309 32.000006,187.0625 v -58.125 c 0,-72.58089 10.3826,-82.937505 83.031254,-82.937505 z" transform="matrix(0.26970778,0,0,0.26970778,-7.1289177,220.56049)"/>
  <path d="m 188.96876,43.999995 c 72.64865,0 83.03125,10.356615 83.03125,82.937505 v 58.125 c 0,72.58059 -10.3826,82.9375 -83.03125,82.9375 h -73.9375 C 42.382606,268 32.000006,257.64309 32.000006,185.0625 v -58.125 c 0,-72.58089 10.3826,-82.937505 83.031254,-82.937505 z" transform="matrix(0.26970778,0,0,0.26970778,-7.1289177,220.56049)" style="opacity:0.1;filter:url(#filter4569-2)"/>
  <path style="fill:#4d4d4d" d="m 23.895905,232.42763 c -9.797337,0 -15.3941297,0.69699 -18.5445167,3.84334 -3.150381,3.14634 -3.849657,8.73736 -3.849657,18.52555 v 15.67677 c 0,9.78815 0.699276,15.3792 3.849657,18.52555 3.150387,3.14636 8.7471787,3.84333 18.5445167,3.84333 h 19.94152 c 9.797339,0 15.394134,-0.69697 18.544517,-3.84333 3.150384,-3.14635 3.849659,-8.7374 3.849659,-18.52555 v -15.67677 c 0,-9.78819 -0.699275,-15.37921 -3.849659,-18.52555 -3.150383,-3.14635 -8.74718,-3.84334 -18.544517,-3.84334 z"/>
  <path style="opacity:0.2;fill:#131313" d="m 1.5017313,269.93387 v 0.53942 c 0,9.78815 0.699276,15.3792 3.849657,18.52555 3.150387,3.14636 8.7471787,3.84333 18.5445167,3.84333 h 19.94152 c 9.797339,0 15.394134,-0.69697 18.544517,-3.84333 3.150384,-3.14635 3.849659,-8.7374 3.849659,-18.52555 v -0.53942 c 0,9.78815 -0.699275,15.3792 -3.849659,18.52555 -3.150383,3.14636 -8.747178,3.84334 -18.544517,3.84334 h -19.94152 c -9.797338,0 -15.3941297,-0.69698 -18.5445167,-3.84334 -3.150381,-3.14635 -3.849657,-8.7374 -3.849657,-18.52555 z"/>
  <path d="M 361.9375,-212 C 507.2348,-212 528,-191.28677 528,-46.125 V 70.125 C 528,215.28618 507.2348,236 361.9375,236 H 214.0625 C 68.7652,236 48,215.28618 48,70.125 V -46.125 C 48,-191.28677 68.7652,-212 214.0625,-212 Z" clip-path="url(#clipPath1082-3-5)" transform="matrix(0.13485389,0,0,0.13485389,-4.9712557,261.01666)" style="opacity:0.4;fill:none;stroke:url(#linearGradient906);stroke-width:8;stroke-linecap:round;stroke-linejoin:round"/>
  <path style="opacity:0.05;fill:#ffffff" d="m 1.5017313,262.60416 v 9.33914 c 0,9.14491 0.699276,14.36853 3.849657,17.30811 3.150387,2.93959 8.7471787,3.59076 18.5445167,3.59076 h 19.94152 c 9.797339,0 15.394134,-0.65117 18.544517,-3.59076 3.150384,-2.93958 3.849659,-8.1632 3.849659,-17.30811 v -9.33914 z"/>
  <g transform="translate(-1.5773007,-0.57704065)">
   <g transform="translate(1.5875197,-1.4176813)">
    <g transform="translate(-1.2546796)">
     <path d="m 164,85 c -33.0889,0 -60,26.9111 -60,60 0,14.42752 5.11904,27.67923 13.63281,38.03906 l -5.71875,5.71875 -1.41406,-1.41406 -31.5,31.5 11.314453,11.3125 31.499997,-31.5 -1.41406,-1.41406 5.73633,-5.73633 C 136.47088,199.93463 149.65274,205 164,205 c 33.0889,0 60,-26.9111 60,-60 0,-33.0889 -26.9111,-60 -60,-60 z m 0,8.134766 c 28.6921,0 51.86523,23.173134 51.86523,51.865234 0,28.6921 -23.17313,51.86523 -51.86523,51.86523 -28.6921,0 -51.86523,-23.17313 -51.86523,-51.86523 0,-28.6921 23.17313,-51.865234 51.86523,-51.865234 z" transform="matrix(-0.26970778,0,0,0.26970778,75.971857,222.28179)" style="opacity:0.1;filter:url(#filter1151)"/>
     <path style="opacity:0.3;fill:url(#linearGradient1163);filter:url(#filter1165)" d="m 164,85 c -33.0889,0 -60,26.9111 -60,60 0,14.42752 5.11904,27.67923 13.63281,38.03906 l -5.71875,5.71875 -1.41406,-1.41406 -31.5,31.5 11.314453,11.3125 31.499997,-31.5 -1.41406,-1.41406 5.73633,-5.73633 C 136.47088,199.93463 149.65274,205 164,205 c 33.0889,0 60,-26.9111 60,-60 0,-33.0889 -26.9111,-60 -60,-60 z m 0,8.134766 c 28.6921,0 51.86523,23.173134 51.86523,51.865234 0,28.6921 -23.17313,51.86523 -51.86523,51.86523 -28.6921,0 -51.86523,-23.17313 -51.86523,-51.86523 0,-28.6921 23.17313,-51.865234 51.86523,-51.865234 z" transform="matrix(-0.26970778,0,0,0.26970778,75.971857,222.28179)"/>
     <g transform="matrix(-0.26970778,0,0,0.26970778,77.050687,222.28179)" style="enable-background:new">
      <path d="m 116.15722,195.99999 12.00001,-12" style="fill:none;stroke:#a4a4a4;stroke-width:11.99999905"/>
      <path style="fill:none;stroke:#bababa;stroke-width:15.99999905" d="m 88.657217,223.49999 31.500013,-31.5"/>
     </g>
     <circle cx="31.74" cy="261.12" r="15.085" style="fill:none;stroke:#c5c5c5;stroke-width:2.1942327"/>
    </g>
   </g>
  </g>
 </g>
</svg>
