<svg xmlns="http://www.w3.org/2000/svg" xmlns:xlink="http://www.w3.org/1999/xlink" width="256" height="256" version="1.1" viewBox="0 0 67.73 67.73">
 <defs>
  <radialGradient id="radialGradient3322" cx="26.617" cy="-2.065" r="23" gradientTransform="matrix(-4.8906e-8,-2.8515,3.7557,0,674.00149,398.26285)" gradientUnits="userSpaceOnUse">
   <stop style="stop-color:#d280b9" offset="0"/>
   <stop offset=".529" style="stop-color:#b549b5"/>
   <stop style="stop-color:#8940a8" offset="1"/>
  </radialGradient>
  <linearGradient id="linearGradient2059" x1="168" x2="168" y1="284" y2="28" gradientTransform="matrix(0.26970778,0,0,0.26970778,-7.1289177,220.56049)" gradientUnits="userSpaceOnUse" xlink:href="#radialGradient3322"/>
  <filter style="color-interpolation-filters:sRGB" id="filter1132" width="1.046" height="1.05" x="-.02" y="-.03">
   <feGaussianBlur stdDeviation="2.32"/>
  </filter>
  <filter style="color-interpolation-filters:sRGB" id="filter4569" width="1.023" height="1.025" x="-.01" y="-.01">
   <feGaussianBlur stdDeviation="1.16"/>
  </filter>
  <linearGradient id="linearGradient1108-7" x1="296" x2="296" y1="-212" y2="236" gradientUnits="userSpaceOnUse" xlink:href="#linearGradient1013"/>
  <linearGradient id="linearGradient1013">
   <stop offset="0" style="stop-color:#ffffff"/>
   <stop style="stop-color:#ffffff;stop-opacity:0.09803922" offset=".125"/>
   <stop style="stop-color:#000000;stop-opacity:0.09803922" offset=".925"/>
   <stop offset="1" style="stop-color:#000000;stop-opacity:0.49803922"/>
  </linearGradient>
  <clipPath id="clipPath1082-3-93" clipPathUnits="userSpaceOnUse">
   <path d="M 361.9375,-212 C 507.2348,-212 528,-191.28677 528,-46.125 V 70.125 C 528,215.28618 507.2348,236 361.9375,236 H 214.0625 C 68.7652,236 48,215.28618 48,70.125 V -46.125 C 48,-191.28677 68.7652,-212 214.0625,-212 Z" style="fill:#8c59d9"/>
  </clipPath>
  <filter style="color-interpolation-filters:sRGB" id="filter1060" width="1.132" height="1.101" x="-.07" y="-.05">
   <feGaussianBlur stdDeviation="8.457"/>
  </filter>
  <filter style="color-interpolation-filters:sRGB" id="filter1064" width="1.125" height="1.1" x="-.06" y="-.05">
   <feGaussianBlur stdDeviation="8.457"/>
  </filter>
  <filter style="color-interpolation-filters:sRGB" id="filter1068" width="1.167" height="1.109" x="-.08" y="-.05">
   <feGaussianBlur stdDeviation="8.457"/>
  </filter>
 </defs>
 <g transform="translate(0,-229.26666)">
  <path d="m 43.837425,232.42763 c 19.593907,0 22.394175,2.79326 22.394175,22.36889 v 15.67677 c 0,19.57555 -2.800268,22.36888 -22.394175,22.36888 h -19.94152 c -19.5939058,0 -22.3941739,-2.79333 -22.3941739,-22.36888 v -15.67677 c 0,-19.57563 2.8002681,-22.36889 22.3941739,-22.36889 z" style="opacity:0.115;fill:none;stroke:#000000;stroke-width:1.0788312;stroke-linecap:round;stroke-linejoin:round"/>
  <path d="m 188.96876,43.999995 c 72.64865,0 83.03125,10.356615 83.03125,82.937505 v 58.125 c 0,72.58059 -10.3826,82.9375 -83.03125,82.9375 h -73.9375 C 42.382606,268 32.000006,257.64309 32.000006,185.0625 v -58.125 c 0,-72.58089 10.3826,-82.937505 83.031254,-82.937505 z" transform="matrix(0.26970778,0,0,0.26970778,-7.1289177,220.56049)" style="opacity:0.1;filter:url(#filter4569)"/>
  <path style="opacity:0.2;filter:url(#filter1132)" d="m 188.96876,45.999995 c 72.64865,0 83.03125,10.356615 83.03125,82.937505 v 58.125 c 0,72.58059 -10.3826,82.9375 -83.03125,82.9375 h -73.9375 C 42.382606,270 32.000006,259.64309 32.000006,187.0625 v -58.125 c 0,-72.58089 10.3826,-82.937505 83.031254,-82.937505 z" transform="matrix(0.26970778,0,0,0.26970778,-7.1289177,220.56049)"/>
  <path style="fill:url(#linearGradient2059)" d="m 43.837425,232.42763 c 19.593907,0 22.394175,2.79326 22.394175,22.36889 v 15.67677 c 0,19.57555 -2.800268,22.36888 -22.394175,22.36888 h -19.94152 c -19.5939058,0 -22.3941739,-2.79333 -22.3941739,-22.36888 v -15.67677 c 0,-19.57563 2.8002681,-22.36889 22.3941739,-22.36889 z"/>
  <path style="opacity:0.25;fill:#ffffff" d="m 0.9525,262.56205 v 7.96544 c 0,19.89285 2.846163,22.73147 22.761203,22.73147 h 20.268349 c 19.91504,0 22.761202,-2.83862 22.761202,-22.73147 v -7.96544 z"/>
  <path style="opacity:0.25;fill:#ffffff" d="m 34.339496,293.25889 h 9.631198 c 2.486392,0 4.706268,-0.0442 6.687644,-0.16069 0.990687,-0.0582 1.921825,-0.13436 2.796662,-0.23212 0.874839,-0.0978 1.693417,-0.21706 2.459341,-0.36129 0.765925,-0.14424 1.479058,-0.31385 2.143006,-0.51149 0.663948,-0.19765 1.278747,-0.42364 1.847655,-0.68163 0.568907,-0.25801 1.091957,-0.54801 1.572758,-0.87331 0.480805,-0.3253 0.919221,-0.68593 1.318856,-1.08546 0.399633,-0.39954 0.760526,-0.83793 1.085928,-1.31864 0.325403,-0.48071 0.615357,-1.00344 0.873465,-1.57227 0.258107,-0.56883 0.484235,-1.18356 0.681986,-1.84745 0.19775,-0.66388 0.367161,-1.3772 0.511487,-2.14309 0.144327,-0.7659 0.263612,-1.58441 0.361452,-2.45924 0.09784,-0.87483 0.174108,-1.80566 0.232399,-2.79637 0.116583,-1.98143 0.161055,-4.20159 0.161055,-6.68819 v -15.9312 c 0,-2.48661 -0.04448,-4.70675 -0.161055,-6.68819 -0.05829,-0.99071 -0.134558,-1.92154 -0.232399,-2.79637 -0.09784,-0.87484 -0.217125,-1.69334 -0.361452,-2.45924 -0.144326,-0.76589 -0.313737,-1.4792 -0.511487,-2.14309 -0.197751,-0.66389 -0.423879,-1.27862 -0.681986,-1.84745 -0.258108,-0.56882 -0.548062,-1.09156 -0.873465,-1.57227 -0.325402,-0.48071 -0.686295,-0.9191 -1.085928,-1.31863 -0.399635,-0.39954 -0.838051,-0.76017 -1.318856,-1.08547 -0.480801,-0.3253 -1.003851,-0.6153 -1.572758,-0.87331 -0.568908,-0.25799 -1.183707,-0.48398 -1.847655,-0.68163 -0.663948,-0.19764 -1.377081,-0.36725 -2.143006,-0.51149 -0.765924,-0.14423 -1.584502,-0.26353 -2.459341,-0.36129 -0.874837,-0.0978 -1.805975,-0.17387 -2.796662,-0.23211 -1.981376,-0.11647 -4.201252,-0.1607 -6.687644,-0.1607 h -9.631198 z"/>
  <path d="M 361.9375,-212 C 507.2348,-212 528,-191.28677 528,-46.125 V 70.125 C 528,215.28618 507.2348,236 361.9375,236 H 214.0625 C 68.7652,236 48,215.28618 48,70.125 V -46.125 C 48,-191.28677 68.7652,-212 214.0625,-212 Z" clip-path="url(#clipPath1082-3-93)" transform="matrix(0.13485389,0,0,0.13485389,-4.9712548,261.01665)" style="opacity:0.6;fill:none;stroke:url(#linearGradient1108-7);stroke-width:8;stroke-linecap:round;stroke-linejoin:round"/>
  <g transform="matrix(0.11504272,0,0,0.11504272,2.3737961,230.00781)">
   <g transform="rotate(7.7383577,222.18986,122.6856)">
    <g style="fill:#040002;filter:url(#filter1060);opacity:0.3" transform="rotate(-42.07794,274.66993,157.00266)">
     <path style="fill:#040002" d="m 352.8,128.1 c -1.7,-7.1 -7,-12.7 -14,-14.8 L 316.1,106.6 264.6,91.5 242,84.9 c -7,-2.1 -14.5,-0.2 -19.8,4.9 l -73.4,71.1 c -2.5,2.4 -4.3,5.5 -5.3,8.8 L 74.9,403.2 c -3.1,10.7 3,21.9 13.7,25.1 l 71,20.9 51.5,15.1 71,20.9 c 10.7,3.1 21.9,-3 25.1,-13.7 L 375.8,238 c 1,-3.4 1.1,-6.9 0.3,-10.3 z m -71,51.4 c -27.8,6.2 -45,-25.2 -24.7,-45.2 2.6,-2.6 5.9,-4.4 9.5,-5.2 27.8,-6.2 45,25.2 24.7,45.2 -2.6,2.6 -5.9,4.4 -9.5,5.2 z"/>
    </g>
    <g transform="rotate(-42.07794,274.66993,157.00266)" style="fill:#ffd2eb">
     <path d="m 352.8,128.1 c -1.7,-7.1 -7,-12.7 -14,-14.8 L 316.1,106.6 264.6,91.5 242,84.9 c -7,-2.1 -14.5,-0.2 -19.8,4.9 l -73.4,71.1 c -2.5,2.4 -4.3,5.5 -5.3,8.8 L 74.9,403.2 c -3.1,10.7 3,21.9 13.7,25.1 l 71,20.9 51.5,15.1 71,20.9 c 10.7,3.1 21.9,-3 25.1,-13.7 L 375.8,238 c 1,-3.4 1.1,-6.9 0.3,-10.3 z m -71,51.4 c -27.8,6.2 -45,-25.2 -24.7,-45.2 2.6,-2.6 5.9,-4.4 9.5,-5.2 27.8,-6.2 45,25.2 24.7,45.2 -2.6,2.6 -5.9,4.4 -9.5,5.2 z" style="fill:#ffd2eb"/>
    </g>
    <g style="fill:#040002;filter:url(#filter1064);opacity:0.3">
     <path d="m 352.8,128.1 c -1.7,-7.1 -7,-12.7 -14,-14.8 L 316.1,106.6 264.6,91.5 242,84.9 c -7,-2.1 -14.5,-0.2 -19.8,4.9 l -73.4,71.1 c -2.5,2.4 -4.3,5.5 -5.3,8.8 L 74.9,403.2 c -3.1,10.7 3,21.9 13.7,25.1 l 71,20.9 51.5,15.1 71,20.9 c 10.7,3.1 21.9,-3 25.1,-13.7 L 375.8,238 c 1,-3.4 1.1,-6.9 0.3,-10.3 z m -71,51.4 c -27.8,6.2 -45,-25.2 -24.7,-45.2 2.6,-2.6 5.9,-4.4 9.5,-5.2 27.8,-6.2 45,25.2 24.7,45.2 -2.6,2.6 -5.9,4.4 -9.5,5.2 z" style="fill:#040002"/>
    </g>
    <g style="fill:#ffd7ba">
     <path style="fill:#ffd7ba" d="m 352.8,128.1 c -1.7,-7.1 -7,-12.7 -14,-14.8 L 316.1,106.6 264.6,91.5 242,84.9 c -7,-2.1 -14.5,-0.2 -19.8,4.9 l -73.4,71.1 c -2.5,2.4 -4.3,5.5 -5.3,8.8 L 74.9,403.2 c -3.1,10.7 3,21.9 13.7,25.1 l 71,20.9 51.5,15.1 71,20.9 c 10.7,3.1 21.9,-3 25.1,-13.7 L 375.8,238 c 1,-3.4 1.1,-6.9 0.3,-10.3 z m -71,51.4 c -27.8,6.2 -45,-25.2 -24.7,-45.2 2.6,-2.6 5.9,-4.4 9.5,-5.2 27.8,-6.2 45,25.2 24.7,45.2 -2.6,2.6 -5.9,4.4 -9.5,5.2 z"/>
    </g>
    <path d="M 334.19231,98.686001 C 329.8156,92.890797 322.67946,89.83704 315.45752,90.782363 l -23.47183,3.097294 -53.16154,6.961413 -23.47183,3.09729 c -7.22193,0.94533 -13.32565,5.71551 -16.07089,12.45819 l -38.43989,94.69733 c -1.2705,3.2735 -1.74548,6.76412 -1.31852,10.17406 l 31.53123,241.33179 c 1.46368,11.03393 11.59831,18.85309 22.63224,17.38941 l 73.42338,-9.62745 53.16153,-6.9614 73.42338,-9.62745 c 11.03393,-1.46368 18.85309,-11.59831 17.38941,-22.63224 L 399.55297,189.80881 c -0.42482,-3.50992 -1.75587,-6.73921 -3.89531,-9.58575 z m -44.23095,75.568739 c -22.968,16.91128 -51.30668,-4.90154 -40.8363,-31.38307 1.37262,-3.37134 3.63861,-6.42344 6.58512,-8.56073 22.968,-16.91128 51.30668,4.90154 40.8363,31.38306 -1.27265,3.37349 -3.6386,6.42344 -6.58512,8.56074 z" style="fill:#040002;filter:url(#filter1068);opacity:0.3"/>
    <path style="fill:#fba9ff" d="M 334.19231,98.686001 C 329.8156,92.890797 322.67946,89.83704 315.45752,90.782363 l -23.47183,3.097294 -53.16154,6.961413 -23.47183,3.09729 c -7.22193,0.94533 -13.32565,5.71551 -16.07089,12.45819 l -38.43989,94.69733 c -1.2705,3.2735 -1.74548,6.76412 -1.31852,10.17406 l 31.53123,241.33179 c 1.46368,11.03393 11.59831,18.85309 22.63224,17.38941 l 73.42338,-9.62745 53.16153,-6.9614 73.42338,-9.62745 c 11.03393,-1.46368 18.85309,-11.59831 17.38941,-22.63224 L 399.55297,189.80881 c -0.42482,-3.50992 -1.75587,-6.73921 -3.89531,-9.58575 z m -44.23095,75.568739 c -22.968,16.91128 -51.30668,-4.90154 -40.8363,-31.38307 1.37262,-3.37134 3.63861,-6.42344 6.58512,-8.56073 22.968,-16.91128 51.30668,4.90154 40.8363,31.38306 -1.27265,3.37349 -3.6386,6.42344 -6.58512,8.56074 z"/>
    <path style="fill:#3c3c3c" d="M 292.2,93.5 C 285.5,72.8 274.4,49.9 260,28.7 c -1.9,-2.8 -5.7,-3.5 -8.5,-1.6 -2.8,1.9 -3.5,5.7 -1.6,8.5 3.4,5.1 6.6,10.2 9.6,15.3 -1.2,-1.3 -2.9,-2.1 -4.8,-2 -3.4,0.1 -6,3 -5.8,6.3 0.5,11.8 0.6,22.6 0.7,32.1 l 12.2,3.6 c 0,-10.5 -0.2,-22.6 -0.7,-36.1 0,-0.6 -0.1,-1.1 -0.3,-1.7 8.3,14.6 14.7,29.2 19.1,42.5 4.8,14.3 7.3,27.2 7.4,37.1 0.1,6.4 -0.8,11.6 -2.7,15.1 -1.6,3 -3.6,4.3 -6.7,4.3 0,0 0,0 0,0 -10.7,0 -14.3,-3.2 -15.5,-20.7 -4.5,2.3 -8.4,6 -10.9,10.6 2.7,14.8 9.5,22.2 26.4,22.2 0,0 0,0 0,0 7.6,0 13.8,-3.8 17.5,-10.7 1.1,-2.2 2,-4.6 2.7,-7.3 3.1,-13.1 0.8,-31.9 -5.9,-52.7 z"/>
   </g>
  </g>
 </g>
</svg>
