<svg xmlns="http://www.w3.org/2000/svg" xmlns:xlink="http://www.w3.org/1999/xlink" width="256" height="256" version="1.1" viewBox="0 0 67.73 67.73">
 <defs>
  <linearGradient id="linearGradient1108" x1="296" x2="296" y1="-212" y2="236" gradientUnits="userSpaceOnUse" xlink:href="#linearGradient1013"/>
  <linearGradient id="linearGradient1013">
   <stop offset="0" style="stop-color:#ffffff"/>
   <stop style="stop-color:#ffffff;stop-opacity:0.09803922" offset=".125"/>
   <stop style="stop-color:#000000;stop-opacity:0.09803922" offset=".925"/>
   <stop offset="1" style="stop-color:#000000;stop-opacity:0.49803922"/>
  </linearGradient>
  <clipPath id="clipPath1082-3-361" clipPathUnits="userSpaceOnUse">
   <path d="M 361.9375,-212 C 507.2348,-212 528,-191.28677 528,-46.125 V 70.125 C 528,215.28618 507.2348,236 361.9375,236 H 214.0625 C 68.7652,236 48,215.28618 48,70.125 V -46.125 C 48,-191.28677 68.7652,-212 214.0625,-212 Z" style="fill:#8c59d9"/>
  </clipPath>
  <linearGradient id="linearGradient4245">
   <stop offset="0" style="stop-color:#e8e8e8"/>
   <stop offset="1" style="stop-color:#f5f5f5"/>
  </linearGradient>
  <linearGradient id="linearGradient1044" x1="88" x2="256" y1="28" y2="284" gradientTransform="matrix(0.26970781,0,0,0.26970781,-7.1289179,220.5605)" gradientUnits="userSpaceOnUse" xlink:href="#linearGradient4245"/>
  <filter style="color-interpolation-filters:sRGB" id="filter4569" width="1.023" height="1.025" x="-.01" y="-.01">
   <feGaussianBlur stdDeviation="1.16"/>
  </filter>
  <filter style="color-interpolation-filters:sRGB" id="filter939" width="1.046" height="1.05" x="-.02" y="-.03">
   <feGaussianBlur stdDeviation="2.32"/>
  </filter>
  <clipPath id="b">
   <use overflow="visible" xlink:href="#a"/>
  </clipPath>
  <filter style="color-interpolation-filters:sRGB" id="filter1079" width="1.322" height="1.322" x="-.16" y="-.16">
   <feGaussianBlur stdDeviation=".886"/>
  </filter>
  <filter style="color-interpolation-filters:sRGB" id="filter1083" width="1.322" height="1.322" x="-.16" y="-.16">
   <feGaussianBlur stdDeviation=".886"/>
  </filter>
  <filter style="color-interpolation-filters:sRGB" id="filter1087" width="1.322" height="1.322" x="-.16" y="-.16">
   <feGaussianBlur stdDeviation=".886"/>
  </filter>
  <filter style="color-interpolation-filters:sRGB" id="filter1091" width="1.322" height="1.322" x="-.16" y="-.16">
   <feGaussianBlur stdDeviation=".886"/>
  </filter>
  <filter style="color-interpolation-filters:sRGB" id="filter1095" width="1.322" height="1.322" x="-.16" y="-.16">
   <feGaussianBlur stdDeviation=".886"/>
  </filter>
 </defs>
 <g transform="translate(0,-229.26666)">
  <path style="opacity:0.2;filter:url(#filter939)" d="m 162.53675,5.5680001 c 72.64865,0 83.03125,10.3566149 83.03125,82.9375049 v 58.125005 c 0,72.58059 -10.3826,82.9375 -83.03125,82.9375 H 88.599254 C 15.9506,229.56801 5.568,219.2111 5.568,146.63051 V 88.505505 c 0,-72.58089 10.3826,-82.9375049 83.031254,-82.9375049 z" transform="matrix(0.26970779,0,0,0.26970779,-1.9098094e-8,231.46531)"/>
  <path d="m 43.837429,232.42763 c 19.593907,0 22.394176,2.79326 22.394176,22.36889 v 15.67677 c 0,19.57555 -2.800269,22.36889 -22.394176,22.36889 H 23.89591 c -19.5939088,0 -22.394177,-2.79334 -22.394177,-22.36889 v -15.67677 c 0,-19.57563 2.8002682,-22.36889 22.394177,-22.36889 z" style="opacity:0.1;fill:none;stroke:#000000;stroke-width:1.07883108;stroke-linecap:round;stroke-linejoin:round"/>
  <path d="m 162.53675,3.5680001 c 72.64865,0 83.03125,10.3566149 83.03125,82.9375049 v 58.125005 c 0,72.58059 -10.3826,82.9375 -83.03125,82.9375 H 88.599254 C 15.9506,227.56801 5.568,217.2111 5.568,144.63051 V 86.505505 c 0,-72.58089 10.3826,-82.9375049 83.031254,-82.9375049 z" transform="matrix(0.26970779,0,0,0.26970779,-1.9098094e-8,231.46531)" style="opacity:0.1;filter:url(#filter4569)"/>
  <path style="fill:url(#linearGradient1044)" d="m 43.837427,232.42763 c 19.593907,0 22.394175,2.79326 22.394175,22.36889 v 15.67677 c 0,19.57555 -2.800268,22.36889 -22.394175,22.36889 h -19.94152 c -19.5939074,0 -22.3941756,-2.79334 -22.3941756,-22.36889 v -15.67677 c 0,-19.57563 2.8002682,-22.36889 22.3941756,-22.36889 z"/>
  <path d="M 361.9375,-212 C 507.2348,-212 528,-191.28677 528,-46.125 V 70.125 C 528,215.28618 507.2348,236 361.9375,236 H 214.0625 C 68.7652,236 48,215.28618 48,70.125 V -46.125 C 48,-191.28677 68.7652,-212 214.0625,-212 Z" clip-path="url(#clipPath1082-3-361)" transform="matrix(0.1348539,0,0,0.1348539,-4.4420892,261.01666)" style="opacity:0.4;fill:none;stroke:url(#linearGradient1108);stroke-width:8;stroke-linecap:round;stroke-linejoin:round"/>
  <path d="M 0,37 V 11 l 17,13 z" clip-path="url(#b)" transform="matrix(0.26970779,0,0,0.26970779,3.67534,226.78896)" style="fill:#fbbc05"/>
  <path d="M 0,11 17,24 24,17.9 48,14 V 0 H 0 Z" clip-path="url(#b)" transform="matrix(0.26970779,0,0,0.26970779,3.67534,226.78896)" style="fill:#ea4335"/>
  <path d="M 0,37 30,14 37.9,15 48,0 V 48 H 0 Z" clip-path="url(#b)" transform="matrix(0.26970779,0,0,0.26970779,3.67534,226.78896)" style="fill:#34a853"/>
  <path d="M 48,48 17,24 13,21 48,11 Z" clip-path="url(#b)" transform="matrix(0.26970779,0,0,0.26970779,3.67534,226.78896)" style="fill:#4285f4"/>
  <path style="opacity:0.3;fill:#ffffff" d="m 33.866666,232.42763 v 60.41455 h 9.970761 c 19.593907,0 22.394175,-2.79334 22.394175,-22.36889 v -15.67677 c 0,-19.57563 -2.800268,-22.36889 -22.394175,-22.36889 z"/>
  <path style="opacity:0.3;fill:#ffffff" d="m 23.895907,292.84218 c -19.5939074,0 -22.3941756,-2.79326 -22.3941756,-22.36889 v -7.83838 H 66.231602 v 7.83838 c 0,19.57563 -2.800268,22.36889 -22.394175,22.36889 z"/>
  <g transform="translate(0.13229265,0.03063406)">
   <circle cx="17.198" cy="248.052" r="6.615" style="fill:#3d3d3d"/>
   <circle style="fill:#3d3d3d" cx="50.271" cy="248.052" r="6.615"/>
   <circle style="fill:#3d3d3d" cx="17.198" cy="277.156" r="6.615"/>
   <circle cx="50.271" cy="277.156" r="6.615" style="fill:#3d3d3d"/>
   <circle style="fill:#3d3d3d" cx="33.867" cy="262.635" r="6.615"/>
   <circle style="opacity:0.3;filter:url(#filter1079)" cx="17.198" cy="248.052" r="6.615"/>
   <circle cx="50.271" cy="248.052" r="6.615" style="opacity:0.3;filter:url(#filter1083)"/>
   <circle cx="17.198" cy="277.156" r="6.615" style="opacity:0.3;filter:url(#filter1087)"/>
   <circle style="opacity:0.3;filter:url(#filter1091)" cx="50.271" cy="277.156" r="6.615"/>
   <circle cx="33.867" cy="262.635" r="6.615" style="opacity:0.3;filter:url(#filter1095)"/>
  </g>
 </g>
</svg>
