<svg xmlns="http://www.w3.org/2000/svg" xmlns:xlink="http://www.w3.org/1999/xlink" width="256" height="256" version="1.1" viewBox="0 0 67.73 67.73">
 <defs>
  <linearGradient id="linearGradient1108" x1="296" x2="296" y1="-212" y2="236" gradientUnits="userSpaceOnUse">
   <stop style="stop-color:#ffffff" offset="0"/>
   <stop style="stop-color:#ffffff;stop-opacity:.09803922" offset=".125"/>
   <stop style="stop-color:#000000;stop-opacity:.09803922" offset=".925"/>
   <stop style="stop-color:#000000;stop-opacity:.49803922" offset="1"/>
  </linearGradient>
  <clipPath id="clipPath1082-3-2">
   <path d="M 361.9375,-212 C 507.2348,-212 528,-191.28677 528,-46.125 V 70.125 C 528,215.28618 507.2348,236 361.9375,236 H 214.0625 C 68.7652,236 48,215.28618 48,70.125 V -46.125 C 48,-191.28677 68.7652,-212 214.0625,-212 Z" style="fill:#8c59d9"/>
  </clipPath>
  <filter id="filter4569" width="1.023" height="1.025" x="-.01" y="-.01" style="color-interpolation-filters:sRGB">
   <feGaussianBlur stdDeviation="1.16"/>
  </filter>
  <filter id="filter913" width="1.046" height="1.05" x="-.02" y="-.03" style="color-interpolation-filters:sRGB">
   <feGaussianBlur stdDeviation="2.32"/>
  </filter>
  <linearGradient id="linearGradient1950-5" x1="70.347" x2="70.347" y1="245.4" y2="269.14" gradientTransform="matrix(2.7272727,0,0,2.7272727,-48.977449,-501.38312)" gradientUnits="userSpaceOnUse">
   <stop style="stop-color:#2d2839" offset="0"/>
   <stop style="stop-color:#282433" offset="1"/>
  </linearGradient>
  <radialGradient id="radialGradient866" cx="66.542" cy="240.261" r="120" fx="66.542" fy="240.261" gradientTransform="matrix(0.26457031,0,0,0.24693229,0.00211574,220.66714)" gradientUnits="userSpaceOnUse" xlink:href="#linearGradient864"/>
  <linearGradient id="linearGradient864">
   <stop style="stop-color:#ffffff" offset="0"/>
   <stop style="stop-color:#ffffff;stop-opacity:0" offset="1"/>
  </linearGradient>
 </defs>
 <g transform="translate(0,-229.26666)">
  <path d="m162.53675 5.5680001c72.64865 0 83.03125 10.356615 83.03125 82.937505v58.125005c0 72.58059-10.3826 82.9375-83.03125 82.9375h-73.937496c-72.648654 0-83.031254-10.35691-83.031254-82.9375v-58.125005c0-72.58089 10.3826-82.937505 83.031254-82.937505z" transform="matrix(.26458333 0 0 .26458333 -1.8735229e-8 232.67026)" style="filter:url(#filter913);opacity:.2"/>
  <path d="m162.53675 3.5680001c72.64865 0 83.03125 10.356615 83.03125 82.937505v58.125005c0 72.58059-10.3826 82.9375-83.03125 82.9375h-73.937496c-72.648654 0-83.031254-10.35691-83.031254-82.9375v-58.125005c0-72.58089 10.3826-82.937505 83.031254-82.937505z" transform="matrix(.26458333 0 0 .26458333 -1.8735229e-8 232.67026)" style="filter:url(#filter4569);opacity:.1"/>
  <path d="m 23.441882,233.63357 c -9.611188,0 -15.101641,0.68375 -18.19217,3.77032 -3.090525,3.08656 -3.776514,8.57135 -3.776514,18.17356 v 15.37891 c 0,9.60218 0.68599,15.087 3.776514,18.17357 3.0905286,3.08658 8.580982,3.77031 18.19217,3.77031 h 19.562631 c 9.61119,0 15.101644,-0.68373 18.19217,-3.77031 3.090527,-3.08657 3.776515,-8.57139 3.776515,-18.17357 v -15.37891 c 0,-9.60221 -0.685988,-15.087 -3.776515,-18.17356 -3.090526,-3.08657 -8.580982,-3.77032 -18.19217,-3.77032 z" style="fill:#241f31"/>
  <path d="m1.473198 270.40792v0.52916c0 9.60218 0.68599 15.087 3.776514 18.17357 3.0905286 3.08658 8.580982 3.77031 18.19217 3.77031h19.562631c9.61119 0 15.101644-0.68373 18.19217-3.77031 3.090527-3.08657 3.776515-8.57139 3.776515-18.17357v-0.52916c0 9.60217-0.685988 15.08699-3.776515 18.17356-3.090526 3.08658-8.58098 3.77032-18.19217 3.77032h-19.562631c-9.611188 0-15.101641-0.68374-18.19217-3.77032-3.090524-3.08657-3.776514-8.57139-3.776514-18.17356z" style="fill:#131313;opacity:.2"/>
  <path d="M 361.9375,-212 C 507.2348,-212 528,-191.28677 528,-46.125 V 70.125 C 528,215.28618 507.2348,236 361.9375,236 H 214.0625 C 68.7652,236 48,215.28618 48,70.125 V -46.125 C 48,-191.28677 68.7652,-212 214.0625,-212 Z" clip-path="url(#clipPath1082-3-2)" transform="matrix(.13229167 0 0 .13229167 -4.876802 261.66013)" style="fill:none;opacity:.4;stroke-linecap:round;stroke-linejoin:round;stroke-width:8;stroke:url(#linearGradient1108)"/>
  <path style="fill:url(#linearGradient1950-5)" d="M 136.47656 196.79883 L 147.38672 196.79883 L 147.38672 185.88867 L 136.47656 185.88867 L 136.47656 196.79883 z" transform="matrix(0.26457031,0,0,0.26457031,0,229.26666)"/>
  <path style="fill:url(#linearGradient1950-5)" d="M 114.6582 196.79883 L 125.56836 196.79883 L 125.56836 185.88867 L 114.6582 185.88867 L 114.6582 196.79883 z" transform="matrix(0.26457031,0,0,0.26457031,0,229.26666)"/>
  <path style="fill:url(#linearGradient1950-5)" d="M 92.839844 196.79883 L 103.75 196.79883 L 103.75 185.88867 L 92.839844 185.88867 L 92.839844 196.79883 z" transform="matrix(0.26457031,0,0,0.26457031,0,229.26666)"/>
  <path style="fill:url(#linearGradient1950-5)" d="M 49.205078 196.79883 L 38.294922 196.79883 L 38.294922 207.70703 L 49.205078 207.70703 L 49.205078 196.79883 z" transform="matrix(0.26457031,0,0,0.26457031,0,229.26666)"/>
  <path style="fill:url(#linearGradient1950-5)" d="M 60.113281 196.79883 L 60.113281 185.88867 L 49.205078 185.88867 L 49.205078 196.79883 L 60.113281 196.79883 z" transform="matrix(0.26457031,0,0,0.26457031,0,229.26666)"/>
  <path style="fill:url(#linearGradient1950-5)" d="M 71.023438 196.79883 L 60.113281 196.79883 L 60.113281 207.70703 L 71.023438 207.70703 L 71.023438 196.79883 z" transform="matrix(0.26457031,0,0,0.26457031,0,229.26666)"/>
  <path style="fill:url(#linearGradient1950-5)" d="M 81.931641 196.79883 L 81.931641 185.88867 L 71.023438 185.88867 L 71.023438 196.79883 L 81.931641 196.79883 z" transform="matrix(0.26457031,0,0,0.26457031,0,229.26666)"/>
  <path style="fill:url(#linearGradient1950-5)" d="M 92.839844 207.70703 L 92.839844 196.79883 L 81.931641 196.79883 L 81.931641 207.70703 L 92.839844 207.70703 z" transform="matrix(0.26457031,0,0,0.26457031,0,229.26666)"/>
  <path style="fill:url(#linearGradient1950-5)" d="M 103.75 207.70703 L 92.839844 207.70703 L 92.839844 218.61719 L 103.75 218.61719 L 103.75 207.70703 z" transform="matrix(0.26457031,0,0,0.26457031,0,229.26666)"/>
  <path style="fill:url(#linearGradient1950-5)" d="M 114.6582 207.70703 L 114.6582 196.79883 L 103.75 196.79883 L 103.75 207.70703 L 114.6582 207.70703 z" transform="matrix(0.26457031,0,0,0.26457031,0,229.26666)"/>
  <path style="fill:url(#linearGradient1950-5)" d="M 125.56836 207.70703 L 114.6582 207.70703 L 114.6582 218.61719 L 125.56836 218.61719 L 125.56836 207.70703 z" transform="matrix(0.26457031,0,0,0.26457031,0,229.26666)"/>
  <path style="fill:url(#linearGradient1950-5)" d="M 136.47656 207.70703 L 136.47656 196.79883 L 125.56836 196.79883 L 125.56836 207.70703 L 136.47656 207.70703 z" transform="matrix(0.26457031,0,0,0.26457031,0,229.26666)"/>
  <path style="fill:url(#linearGradient1950-5)" d="M 147.38672 207.70703 L 136.47656 207.70703 L 136.47656 218.61719 L 147.38672 218.61719 L 147.38672 207.70703 z" transform="matrix(0.26457031,0,0,0.26457031,0,229.26666)"/>
  <path style="fill:url(#linearGradient1950-5)" d="M 158.29492 196.79883 L 147.38672 196.79883 L 147.38672 207.70703 L 158.29492 207.70703 L 158.29492 196.79883 z" transform="matrix(0.26457031,0,0,0.26457031,0,229.26666)"/>
  <path style="fill:url(#linearGradient1950-5)" d="M 169.20508 196.79883 L 169.20508 185.88867 L 158.29492 185.88867 L 158.29492 196.79883 L 169.20508 196.79883 z" transform="matrix(0.26457031,0,0,0.26457031,0,229.26666)"/>
  <path style="fill:url(#linearGradient1950-5)" d="M 180.11328 196.79883 L 169.20508 196.79883 L 169.20508 207.70703 L 180.11328 207.70703 L 180.11328 196.79883 z" transform="matrix(0.26457031,0,0,0.26457031,0,229.26666)"/>
  <path style="fill:url(#linearGradient1950-5)" d="M 191.02344 196.79883 L 191.02344 185.88867 L 180.11328 185.88867 L 180.11328 196.79883 L 191.02344 196.79883 z" transform="matrix(0.26457031,0,0,0.26457031,0,229.26666)"/>
  <path style="fill:url(#linearGradient1950-5)" d="M 201.93164 196.79883 L 191.02344 196.79883 L 191.02344 207.70703 L 201.93164 207.70703 L 201.93164 196.79883 z" transform="matrix(0.26457031,0,0,0.26457031,0,229.26666)"/>
  <path style="fill:url(#linearGradient1950-5)" d="M 212.83984 185.88867 L 201.93164 185.88867 L 201.93164 196.79883 L 212.83984 196.79883 L 212.83984 185.88867 z" transform="matrix(0.26457031,0,0,0.26457031,0,229.26666)"/>
  <path style="fill:url(#linearGradient1950-5)" d="M 223.75 174.98047 L 234.6582 174.98047 L 234.6582 164.07227 L 223.75 164.07227 L 223.75 174.98047 z" transform="matrix(0.26457031,0,0,0.26457031,0,229.26666)"/>
  <path style="fill:url(#linearGradient1950-5)" d="M 212.83984 174.98047 L 212.83984 185.88867 L 223.75 185.88867 L 223.75 174.98047 L 212.83984 174.98047 z" transform="matrix(0.26457031,0,0,0.26457031,0,229.26666)"/>
  <path style="fill:url(#linearGradient1950-5)" d="M 201.93164 174.98047 L 212.83984 174.98047 L 212.83984 164.07227 L 201.93164 164.07227 L 201.93164 174.98047 z" transform="matrix(0.26457031,0,0,0.26457031,0,229.26666)"/>
  <path style="fill:url(#linearGradient1950-5)" d="M 191.02344 174.98047 L 191.02344 185.88867 L 201.93164 185.88867 L 201.93164 174.98047 L 191.02344 174.98047 z" transform="matrix(0.26457031,0,0,0.26457031,0,229.26666)"/>
  <path style="fill:url(#linearGradient1950-5)" d="M 180.11328 174.98047 L 191.02344 174.98047 L 191.02344 164.07227 L 180.11328 164.07227 L 180.11328 174.98047 z" transform="matrix(0.26457031,0,0,0.26457031,0,229.26666)"/>
  <path style="fill:url(#linearGradient1950-5)" d="M 169.20508 174.98047 L 169.20508 185.88867 L 180.11328 185.88867 L 180.11328 174.98047 L 169.20508 174.98047 z" transform="matrix(0.26457031,0,0,0.26457031,0,229.26666)"/>
  <path style="fill:url(#linearGradient1950-5)" d="M 158.29492 174.98047 L 169.20508 174.98047 L 169.20508 164.07227 L 158.29492 164.07227 L 158.29492 174.98047 z" transform="matrix(0.26457031,0,0,0.26457031,0,229.26666)"/>
  <path style="fill:url(#linearGradient1950-5)" d="M 147.38672 174.98047 L 147.38672 185.88867 L 158.29492 185.88867 L 158.29492 174.98047 L 147.38672 174.98047 z" transform="matrix(0.26457031,0,0,0.26457031,0,229.26666)"/>
  <path style="fill:url(#linearGradient1950-5)" d="M 136.47656 174.98047 L 147.38672 174.98047 L 147.38672 164.07227 L 136.47656 164.07227 L 136.47656 174.98047 z" transform="matrix(0.26457031,0,0,0.26457031,0,229.26666)"/>
  <path style="fill:url(#linearGradient1950-5)" d="M 125.56836 174.98047 L 125.56836 185.88867 L 136.47656 185.88867 L 136.47656 174.98047 L 125.56836 174.98047 z" transform="matrix(0.26457031,0,0,0.26457031,0,229.26666)"/>
  <path style="fill:url(#linearGradient1950-5)" d="M 114.6582 174.98047 L 125.56836 174.98047 L 125.56836 164.07227 L 114.6582 164.07227 L 114.6582 174.98047 z" transform="matrix(0.26457031,0,0,0.26457031,0,229.26666)"/>
  <path style="fill:url(#linearGradient1950-5)" d="M 103.75 174.98047 L 103.75 185.88867 L 114.6582 185.88867 L 114.6582 174.98047 L 103.75 174.98047 z" transform="matrix(0.26457031,0,0,0.26457031,0,229.26666)"/>
  <path style="fill:url(#linearGradient1950-5)" d="M 92.839844 174.98047 L 103.75 174.98047 L 103.75 164.07227 L 92.839844 164.07227 L 92.839844 174.98047 z" transform="matrix(0.26457031,0,0,0.26457031,0,229.26666)"/>
  <path style="fill:url(#linearGradient1950-5)" d="M 81.931641 174.98047 L 81.931641 185.88867 L 92.839844 185.88867 L 92.839844 174.98047 L 81.931641 174.98047 z" transform="matrix(0.26457031,0,0,0.26457031,0,229.26666)"/>
  <path style="fill:url(#linearGradient1950-5)" d="M 71.023438 174.98047 L 81.931641 174.98047 L 81.931641 164.07227 L 71.023438 164.07227 L 71.023438 174.98047 z" transform="matrix(0.26457031,0,0,0.26457031,0,229.26666)"/>
  <path style="fill:url(#linearGradient1950-5)" d="M 60.113281 174.98047 L 60.113281 185.88867 L 71.023438 185.88867 L 71.023438 174.98047 L 60.113281 174.98047 z" transform="matrix(0.26457031,0,0,0.26457031,0,229.26666)"/>
  <path style="fill:url(#linearGradient1950-5)" d="M 49.205078 174.98047 L 60.113281 174.98047 L 60.113281 164.07227 L 49.205078 164.07227 L 49.205078 174.98047 z" transform="matrix(0.26457031,0,0,0.26457031,0,229.26666)"/>
  <path style="fill:url(#linearGradient1950-5)" d="M 38.294922 174.98047 L 38.294922 185.88867 L 49.205078 185.88867 L 49.205078 174.98047 L 38.294922 174.98047 z" transform="matrix(0.26457031,0,0,0.26457031,0,229.26666)"/>
  <path style="fill:url(#linearGradient1950-5)" d="M 27.386719 174.98047 L 38.294922 174.98047 L 38.294922 164.07227 L 27.386719 164.07227 L 27.386719 174.98047 z" transform="matrix(0.26457031,0,0,0.26457031,0,229.26666)"/>
  <path style="fill:url(#linearGradient1950-5)" d="M 27.386719 185.88867 L 27.386719 174.98047 L 16.476562 174.98047 L 16.476562 185.88867 L 27.386719 185.88867 z" transform="matrix(0.26457031,0,0,0.26457031,0,229.26666)"/>
  <path style="fill:url(#linearGradient1950-5)" d="M 27.386719 196.79883 L 38.294922 196.79883 L 38.294922 185.88867 L 27.386719 185.88867 L 27.386719 196.79883 z" transform="matrix(0.26457031,0,0,0.26457031,0,229.26666)"/>
  <path style="fill:url(#linearGradient1950-5)" d="M 27.386719 207.70703 L 27.386719 196.79883 L 16.476562 196.79883 L 16.476562 207.70703 L 27.386719 207.70703 z" transform="matrix(0.26457031,0,0,0.26457031,0,229.26666)"/>
  <path style="fill:url(#linearGradient1950-5)" d="M 38.294922 218.61719 L 38.294922 207.70703 L 27.386719 207.70703 L 27.386719 218.61719 L 38.294922 218.61719 z" transform="matrix(0.26457031,0,0,0.26457031,0,229.26666)"/>
  <path style="fill:url(#linearGradient1950-5)" d="M 49.205078 218.61719 L 38.294922 218.61719 L 38.294922 229.52539 L 49.205078 229.52539 L 49.205078 218.61719 z" transform="matrix(0.26457031,0,0,0.26457031,0,229.26666)"/>
  <path style="fill:url(#linearGradient1950-5)" d="M 60.113281 218.61719 L 60.113281 207.70703 L 49.205078 207.70703 L 49.205078 218.61719 L 60.113281 218.61719 z" transform="matrix(0.26457031,0,0,0.26457031,0,229.26666)"/>
  <path style="fill:url(#linearGradient1950-5)" d="M 71.023438 218.61719 L 60.113281 218.61719 L 60.113281 229.52539 L 71.023438 229.52539 L 71.023438 218.61719 z" transform="matrix(0.26457031,0,0,0.26457031,0,229.26666)"/>
  <path style="fill:url(#linearGradient1950-5)" d="M 81.931641 218.61719 L 81.931641 207.70703 L 71.023438 207.70703 L 71.023438 218.61719 L 81.931641 218.61719 z" transform="matrix(0.26457031,0,0,0.26457031,0,229.26666)"/>
  <path style="fill:url(#linearGradient1950-5)" d="M 92.839844 229.52539 L 92.839844 218.61719 L 81.931641 218.61719 L 81.931641 229.52539 L 92.839844 229.52539 z" transform="matrix(0.26457031,0,0,0.26457031,0,229.26666)"/>
  <path style="fill:url(#linearGradient1950-5)" d="M 103.75 229.52539 L 92.839844 229.52539 L 92.839844 240.43555 L 103.75 240.43555 L 103.75 229.52539 z" transform="matrix(0.26457031,0,0,0.26457031,0,229.26666)"/>
  <path style="fill:url(#linearGradient1950-5)" d="M 114.6582 229.52539 L 114.6582 218.61719 L 103.75 218.61719 L 103.75 229.52539 L 114.6582 229.52539 z" transform="matrix(0.26457031,0,0,0.26457031,0,229.26666)"/>
  <path style="fill:url(#linearGradient1950-5)" d="M 125.56836 229.52539 L 114.6582 229.52539 L 114.6582 240.43555 L 125.56836 240.43555 L 125.56836 229.52539 z" transform="matrix(0.26457031,0,0,0.26457031,0,229.26666)"/>
  <path style="fill:url(#linearGradient1950-5)" d="M 136.47656 229.52539 L 136.47656 218.61719 L 125.56836 218.61719 L 125.56836 229.52539 L 136.47656 229.52539 z" transform="matrix(0.26457031,0,0,0.26457031,0,229.26666)"/>
  <path style="fill:url(#linearGradient1950-5)" d="M 147.38672 229.52539 L 136.47656 229.52539 L 136.47656 240.43555 L 147.38672 240.43555 L 147.38672 229.52539 z" transform="matrix(0.26457031,0,0,0.26457031,0,229.26666)"/>
  <path style="fill:url(#linearGradient1950-5)" d="M 158.29492 218.61719 L 147.38672 218.61719 L 147.38672 229.52539 L 158.29492 229.52539 L 158.29492 218.61719 z" transform="matrix(0.26457031,0,0,0.26457031,0,229.26666)"/>
  <path style="fill:url(#linearGradient1950-5)" d="M 169.20508 218.61719 L 169.20508 207.70703 L 158.29492 207.70703 L 158.29492 218.61719 L 169.20508 218.61719 z" transform="matrix(0.26457031,0,0,0.26457031,0,229.26666)"/>
  <path style="fill:url(#linearGradient1950-5)" d="M 180.11328 218.61719 L 169.20508 218.61719 L 169.20508 229.52539 L 180.11328 229.52539 L 180.11328 218.61719 z" transform="matrix(0.26457031,0,0,0.26457031,0,229.26666)"/>
  <path style="fill:url(#linearGradient1950-5)" d="M 191.02344 218.61719 L 191.02344 207.70703 L 180.11328 207.70703 L 180.11328 218.61719 L 191.02344 218.61719 z" transform="matrix(0.26457031,0,0,0.26457031,0,229.26666)"/>
  <path style="fill:url(#linearGradient1950-5)" d="M 201.93164 218.61719 L 191.02344 218.61719 L 191.02344 229.52539 L 201.93164 229.52539 L 201.93164 218.61719 z" transform="matrix(0.26457031,0,0,0.26457031,0,229.26666)"/>
  <path style="fill:url(#linearGradient1950-5)" d="M 212.83984 218.61719 L 212.83984 207.70703 L 201.93164 207.70703 L 201.93164 218.61719 L 212.83984 218.61719 z" transform="matrix(0.26457031,0,0,0.26457031,0,229.26666)"/>
  <path style="fill:url(#linearGradient1950-5)" d="M 223.75 218.61719 L 212.83984 218.61719 L 212.83984 229.52539 L 223.75 229.52539 L 223.75 218.61719 z" transform="matrix(0.26457031,0,0,0.26457031,0,229.26666)"/>
  <path style="fill:url(#linearGradient1950-5)" d="M 223.75 207.70703 L 223.75 218.61719 L 234.6582 218.61719 L 234.6582 207.70703 L 223.75 207.70703 z" transform="matrix(0.26457031,0,0,0.26457031,0,229.26666)"/>
  <path style="fill:url(#linearGradient1950-5)" d="M 223.75 196.79883 L 212.83984 196.79883 L 212.83984 207.70703 L 223.75 207.70703 L 223.75 196.79883 z" transform="matrix(0.26457031,0,0,0.26457031,0,229.26666)"/>
  <path style="fill:url(#linearGradient1950-5)" d="M 234.6582 185.88867 L 223.75 185.88867 L 223.75 196.79883 L 234.6582 196.79883 L 234.6582 185.88867 z" transform="matrix(0.26457031,0,0,0.26457031,0,229.26666)"/>
  <path style="fill:url(#linearGradient1950-5)" d="M 244.66211 185.88867 C 244.766 184.54339 244.90913 183.31713 244.99219 181.90625 C 245.11297 179.85454 245.07755 177.17481 245.1582 174.98047 L 234.6582 174.98047 L 234.6582 185.88867 L 244.66211 185.88867 z" transform="matrix(0.26457031,0,0,0.26457031,0,229.26666)"/>
  <path style="fill:url(#linearGradient1950-5)" d="M 241.24023 207.70703 C 241.82548 205.60813 242.37768 203.44939 242.82422 201.08203 C 243.07584 199.74805 243.24367 198.22188 243.45508 196.79883 L 234.6582 196.79883 L 234.6582 207.70703 L 241.24023 207.70703 z" transform="matrix(0.26457031,0,0,0.26457031,0,229.26666)"/>
  <path style="fill:url(#linearGradient1950-5)" d="M 234.6582 222.12695 C 234.84881 221.86231 235.0891 221.65287 235.27344 221.38086 C 235.84601 220.53597 236.29655 219.53509 236.81055 218.61719 L 234.6582 218.61719 L 234.6582 222.12695 z" transform="matrix(0.26457031,0,0,0.26457031,0,229.26666)"/>
  <path style="fill:url(#linearGradient1950-5)" d="M 223.75 231.67383 C 224.65858 231.16536 225.65124 230.72009 226.48828 230.1543 C 226.76727 229.96572 226.98266 229.72054 227.25391 229.52539 L 223.75 229.52539 L 223.75 231.67383 z" transform="matrix(0.26457031,0,0,0.26457031,0,229.26666)"/>
  <path style="fill:url(#linearGradient1950-5)" d="M 201.93164 238.31445 C 203.33787 238.10555 204.84873 237.94147 206.16797 237.69336 C 208.55267 237.24486 210.72715 236.69235 212.83984 236.10352 L 212.83984 229.52539 L 201.93164 229.52539 L 201.93164 238.31445 z" transform="matrix(0.26457031,0,0,0.26457031,0,229.26666)"/>
  <path style="fill:url(#linearGradient1950-5)" d="M 180.11328 240.02148 C 182.2846 239.94151 184.93906 239.97662 186.9707 239.85742 C 188.40628 239.7732 189.65569 239.6272 191.02344 239.52148 L 191.02344 229.52539 L 180.11328 229.52539 L 180.11328 240.02148 z" transform="matrix(0.26457031,0,0,0.26457031,0,229.26666)"/>
  <path style="fill:url(#linearGradient1950-5)" d="M 162.87109 240.43555 L 169.20508 240.43555 L 169.20508 240.2832 C 166.9857 240.308 165.21943 240.43442 162.87109 240.43555 z" transform="matrix(0.26457031,0,0,0.26457031,0,229.26666)"/>
  <path style="fill:url(#linearGradient1950-5)" d="M 162.87109 240.43555 C 165.21943 240.43442 166.9857 240.308 169.20508 240.2832 L 169.20508 229.52539 L 158.29492 229.52539 L 158.29492 240.43555 L 162.87109 240.43555 z" transform="matrix(0.26457031,0,0,0.26457031,0,229.26666)"/>
  <path style="fill:url(#linearGradient1950-5)" d="M 71.023438 240.02148 C 74.476779 240.14878 78.110193 240.24042 81.931641 240.2832 L 81.931641 229.52539 L 71.023438 229.52539 L 71.023438 240.02148 z" transform="matrix(0.26457031,0,0,0.26457031,0,229.26666)"/>
  <path style="fill:url(#linearGradient1950-5)" d="M 49.205078 238.3125 C 50.784216 238.54724 52.270463 238.82288 53.962891 239.01172 C 55.88705 239.22641 58.037469 239.36093 60.113281 239.52148 L 60.113281 229.52539 L 49.205078 229.52539 L 49.205078 238.3125 z" transform="matrix(0.26457031,0,0,0.26457031,0,229.26666)"/>
  <path style="fill:url(#linearGradient1950-5)" d="M 27.386719 231.66602 C 28.388282 232.227 29.314201 232.84703 30.40625 233.3418 C 32.484167 234.28323 34.729393 235.10705 37.154297 235.82812 C 37.507689 235.93321 37.933851 235.9989 38.294922 236.09961 L 38.294922 229.52539 L 27.386719 229.52539 L 27.386719 231.66602 z" transform="matrix(0.26457031,0,0,0.26457031,0,229.26666)"/>
  <path style="fill:url(#linearGradient1950-5)" d="M 16.476562 222.11133 C 17.518552 223.55993 18.603186 224.95633 19.841797 226.19336 C 21.070015 227.42001 22.458188 228.492 23.894531 229.52539 L 27.386719 229.52539 L 27.386719 218.61719 L 16.476562 218.61719 L 16.476562 222.11133 z" transform="matrix(0.26457031,0,0,0.26457031,0,229.26666)"/>
  <path style="fill:url(#linearGradient1950-5)" d="M 9.9082031 207.70703 C 10.013783 208.08568 10.082969 208.53214 10.193359 208.90234 C 10.91566 211.32467 11.740713 213.56698 12.683594 215.64258 C 13.17236 216.71852 13.784676 217.62924 14.337891 218.61719 L 16.476562 218.61719 L 16.476562 207.70703 L 9.9082031 207.70703 z" transform="matrix(0.26457031,0,0,0.26457031,0,229.26666)"/>
  <path style="fill:url(#linearGradient1950-5)" d="M 6.4863281 185.88867 C 6.6486066 187.99011 6.7860877 190.16328 7.0039062 192.10938 C 7.1906205 193.77757 7.4619109 195.24086 7.6933594 196.79883 L 16.476562 196.79883 L 16.476562 185.88867 L 6.4863281 185.88867 z" transform="matrix(0.26457031,0,0,0.26457031,0,229.26666)"/>
  <path style="fill:url(#linearGradient1950-5)" d="M 5.7265625 164.07227 C 5.7688534 167.89707 5.8632079 171.52433 5.9902344 174.98047 L 16.476562 174.98047 L 16.476562 164.07227 L 5.7265625 164.07227 z" transform="matrix(0.26457031,0,0,0.26457031,0,229.26666)"/>
  <path d="m 43.004515,233.61429 c 19.220676,0 21.967604,2.74005 21.967604,21.9428 v 15.37815 c 0,19.20267 -2.746928,21.9428 -21.967604,21.9428 H 23.442848 c -19.2206771,0 -21.9676048,-2.74013 -21.9676048,-21.9428 v -15.37815 c 0,-19.20275 2.7469277,-21.9428 21.9676048,-21.9428 z" style="opacity:0.1;fill:url(#radialGradient866)"/>
 </g>
 <g style="enable-background:new" transform="matrix(0.26457031,0,0,0.26457031,-78.348686,-28.860585)">
  <g>
   <g transform="matrix(2.3076923,0,0,2.3076923,278.77902,-297.76)" style="fill:#ffffff;enable-background:new">
    <path d="M 44.012,209.15666 30,201.54096 v 4.7282 l 9.7107,4.6295 v 0.1422 L 30,216.26916 v 4.7282 l 14.012,-8.2145 z" style="fill:#ffffff"/>
    <path d="m 48,224.26666 2e-6,4 h 16 l -2e-6,-4 z" style="fill:#ffffff"/>
   </g>
  </g>
 </g>
</svg>
