<svg width="256" height="256" version="1.1" viewBox="0 0 67.73 67.73" xmlns="http://www.w3.org/2000/svg" xmlns:xlink="http://www.w3.org/1999/xlink">
 <defs>
  <linearGradient id="linearGradient1108" x1="296" x2="296" y1="-212" y2="236" gradientUnits="userSpaceOnUse">
   <stop style="stop-color:#ffffff" offset="0"/>
   <stop style="stop-color:#ffffff;stop-opacity:.09803922" offset=".125"/>
   <stop style="stop-color:#000000;stop-opacity:.09803922" offset=".925"/>
   <stop style="stop-color:#000000;stop-opacity:.49803922" offset="1"/>
  </linearGradient>
  <clipPath id="clipPath1082-3-361">
   <path d="M 361.9375,-212 C 507.2348,-212 528,-191.28677 528,-46.125 V 70.125 C 528,215.28618 507.2348,236 361.9375,236 H 214.0625 C 68.7652,236 48,215.28618 48,70.125 V -46.125 C 48,-191.28677 68.7652,-212 214.0625,-212 Z" style="fill:#8c59d9"/>
  </clipPath>
  <filter id="filter4569" x="-.01" y="-.01" width="1.023" height="1.025" style="color-interpolation-filters:sRGB">
   <feGaussianBlur stdDeviation="1.16"/>
  </filter>
  <filter id="filter939" x="-.02" y="-.03" width="1.046" height="1.05" style="color-interpolation-filters:sRGB">
   <feGaussianBlur stdDeviation="2.32"/>
  </filter>
 </defs>
 <g transform="translate(0,-229.26666)">
  <path transform="matrix(.26970779 0 0 .26970779 -1.9098095e-8 231.46531)" d="m162.53675 5.5680001c72.64865 0 83.03125 10.356615 83.03125 82.937505v58.125005c0 72.58059-10.3826 82.9375-83.03125 82.9375h-73.937496c-72.648654 0-83.031254-10.35691-83.031254-82.9375v-58.125005c0-72.58089 10.3826-82.937505 83.031254-82.937505z" style="filter:url(#filter939);opacity:.2"/>
  <path d="m43.837427 232.42762c19.593907 0 22.394175 2.79326 22.394175 22.3689v15.67676c0 19.57556-2.800268 22.3689-22.394175 22.3689h-19.941518c-19.593908 0-22.394176-2.79334-22.394176-22.3689v-15.67676c0-19.57564 2.8002681-22.3689 22.394176-22.3689z" style="fill:none;opacity:.1;stroke-linecap:round;stroke-linejoin:round;stroke-width:1.0788311;stroke:#000000"/>
  <path transform="matrix(.26970779 0 0 .26970779 -1.9098095e-8 231.46531)" d="m162.53675 3.5680001c72.64865 0 83.03125 10.356615 83.03125 82.937505v58.125005c0 72.58059-10.3826 82.9375-83.03125 82.9375h-73.937496c-72.648654 0-83.031254-10.35691-83.031254-82.9375v-58.125005c0-72.58089 10.3826-82.937505 83.031254-82.937505z" style="filter:url(#filter4569);opacity:.1"/>
  <path d="m43.837425 232.42762c19.593907 0 22.394175 2.79326 22.394175 22.3689v15.67676c0 19.57556-2.800268 22.3689-22.394175 22.3689h-19.941519c-19.593906 0-22.394175-2.79334-22.394175-22.3689v-15.67676c0-19.57564 2.8002681-22.3689 22.394175-22.3689z" style="fill:#c44652"/>
  <path transform="matrix(.1348539 0 0 .1348539 -4.9712558 261.01666)" d="M 361.9375,-212 C 507.2348,-212 528,-191.28677 528,-46.125 V 70.125 C 528,215.28618 507.2348,236 361.9375,236 H 214.0625 C 68.7652,236 48,215.28618 48,70.125 V -46.125 C 48,-191.28677 68.7652,-212 214.0625,-212 Z" clip-path="url(#clipPath1082-3-361)" style="fill:none;opacity:.4;stroke-linecap:round;stroke-linejoin:round;stroke-width:8;stroke:url(#linearGradient1108)"/>
  <path d="m23.895906 292.84218c-19.593906 0-22.394175-2.79326-22.394175-22.3689v-7.83838h64.729869v7.83838c0 19.57564-2.800268 22.3689-22.394175 22.3689z" style="fill:#ffffff;opacity:.1"/>
  <g transform="translate(.16318735 .06525649)">
   <path d="m21.759391 242.98698v5.65546l-2.30617 2.29617c-3.056614 1.78914-5.605524 2.93649-7.93162 4.84558l5.118895 2.55948-8.5314953 4.26575 10.23779 1.70629-8.5314933 10.2378 10.23779-3.09597v3.09597l4.265751-1.70629-0.853153 3.41256 7.80165-3.60255 2.436142 0.19025 2.436143-0.19025 7.801648 3.60255-0.853151-3.41256 4.26575 1.70629v-3.09597l10.237791 3.09597-8.531495-10.2378 10.237792-1.70629-8.531495-4.26575 5.118895-2.55948c-2.326096-1.90909-4.875-3.05644-7.93162-4.84558l-2.306171-2.29617v-5.65546l-5.118895 2.57277v-1.71962l-1.706297 1.71962v-1.71962l-5.118895 1.71962-5.118896-1.71962v1.71962l-1.706296-1.71962v1.71962z" style="fill:#393939"/>
   <path d="m16.640496 240.42751-1.700074 1.96037c-0.08679 2.97742 0.745518 5.62236 1.745062 8.20899 1.737973 4.31027 6.434162 5.91103 9.26788 8.56183 1.79784 1.72253 2.282139 3.24134 2.539377 4.75878 0.298009 1.7578 0.477807 3.66348 0.664784 6.59662 0.625359 3.81697 0.966118 10.03639 1.434663 12.11008 0.429247 0.48108 3.11129 0.46044 3.11129 0.46044s2.68205 0.0193 3.111289-0.46044c0.468519-2.07369 0.809312-8.29311 1.434664-12.11008 0.187021-2.93314 0.366819-4.83882 0.664782-6.59662 0.257252-1.51744 0.741545-3.03625 2.539379-4.75878 2.833717-2.6508 7.529907-4.25156 9.267881-8.56183 0.999544-2.58663 1.831865-5.23157 1.745061-8.20899l-1.700073-1.96037v1.95546l-7.670457 4.93716-9.392526-0.13478-9.39252 0.13478-7.670462-4.93716z" style="fill:#505050"/>
   <path d="m23.770447 250.50091a3.7946568 3.7946568 0 0 0-0.304779 1.48862 3.7946568 3.7946568 0 0 0 3.794656 3.79466 3.7946568 3.7946568 0 0 0 3.030535-1.51873z" style="fill:#eb6b00"/>
   <path d="m37.286705 266.02198c-1.243923 0.47529-2.305403 1.23003-3.583227 1.13529v0.0257c-1.277824 0.0948-2.339305-0.66024-3.583227-1.13527l1.224736 12.38375c0.09332 0.92647 0.114279 1.05024 0.928463 1.13528 0.532042 0.0852 0.940516 0.11745 1.430028 0.10449v-0.0259c0.489543 0.0134 0.897984-0.0193 1.430027-0.10449 0.814175-0.0852 0.835146-0.20636 0.928462-1.13309z" style="opacity:.4"/>
   <path d="m31.997182 275.10418c-0.518501 0.40629-0.459556 0.94079-0.829491 1.53435l0.177284 1.79159c0.09332 0.92647 0.114279 1.05022 0.928461 1.13529 0.172512 0.0259 0.320066 0.0386 0.473553 0.0579h1.709964c0.213786-0.0193 0.43002-0.0452 0.676526-0.0819 0.814174-0.0852 0.835146-0.20637 0.928464-1.13308l0.174961-1.77162c-0.369658-0.59265-0.309423-1.12665-0.827155-1.53214v2.86193h-3.412594z" style="fill:#ffffff"/>
   <path d="m37.286705 266.02198c-1.243923 0.47529-2.305403 1.23003-3.583227 1.13529v0.0257c-1.276123 0.0948-2.336778-0.65792-3.578565-1.133 0.13859 1.59541 0.534042 3.49065 1.872269 4.53886v-2.85917h3.412593v2.85917c1.345572-1.05397 1.746099-2.96468 1.87693-4.5655z" style="fill:#ffffff"/>
   <path d="m43.636509 250.50091a3.7946568 3.7946568 0 0 1 0.304779 1.48862 3.7946568 3.7946568 0 0 1-3.794652 3.79466 3.7946568 3.7946568 0 0 1-3.03054-1.51873z" style="fill:#eb6b00"/>
  </g>
 </g>
</svg>
