<?xml version="1.0" encoding="UTF-8" standalone="no"?>
<svg
   xmlns:dc="http://purl.org/dc/elements/1.1/"
   xmlns:cc="http://creativecommons.org/ns#"
   xmlns:rdf="http://www.w3.org/1999/02/22-rdf-syntax-ns#"
   xmlns:svg="http://www.w3.org/2000/svg"
   xmlns="http://www.w3.org/2000/svg"
   xmlns:xlink="http://www.w3.org/1999/xlink"
   xmlns:sodipodi="http://sodipodi.sourceforge.net/DTD/sodipodi-0.dtd"
   xmlns:inkscape="http://www.inkscape.org/namespaces/inkscape"
   id="svg1488"
   version="1.1"
   viewBox="0 0 67.733332 67.733335"
   height="256"
   width="256"
   sodipodi:docname="tigervnc.svg"
   inkscape:version="0.92.3 (2405546, 2018-03-11)">
  <sodipodi:namedview
     pagecolor="#ffffff"
     bordercolor="#666666"
     borderopacity="1"
     objecttolerance="10"
     gridtolerance="10"
     guidetolerance="10"
     inkscape:pageopacity="0"
     inkscape:pageshadow="2"
     inkscape:window-width="1920"
     inkscape:window-height="1009"
     id="namedview276"
     showgrid="true"
     showguides="false"
     inkscape:zoom="3.2382812"
     inkscape:cx="27.66279"
     inkscape:cy="128"
     inkscape:window-x="0"
     inkscape:window-y="34"
     inkscape:window-maximized="1"
     inkscape:current-layer="layer1">
    <inkscape:grid
       type="xygrid"
       id="grid1127" />
  </sodipodi:namedview>
  <defs
     id="defs1482">
    <linearGradient
       id="linearGradient1296">
      <stop
         style="stop-color:#b2b2b2;stop-opacity:1"
         offset="0"
         id="stop1292" />
      <stop
         style="stop-color:#d0d0d0;stop-opacity:1"
         offset="1"
         id="stop1294" />
    </linearGradient>
    <clipPath
       id="clipPath1025"
       clipPathUnits="userSpaceOnUse">
      <path
         style="color:#000000;font-style:normal;font-variant:normal;font-weight:normal;font-stretch:normal;font-size:medium;line-height:normal;font-family:sans-serif;font-variant-ligatures:none;font-variant-position:normal;font-variant-caps:normal;font-variant-numeric:normal;font-variant-alternates:normal;font-feature-settings:normal;text-indent:0;text-align:start;text-decoration:none;text-decoration-line:none;text-decoration-style:solid;text-decoration-color:#000000;letter-spacing:normal;word-spacing:normal;text-transform:none;writing-mode:lr-tb;direction:ltr;baseline-shift:baseline;text-anchor:start;white-space:normal;shape-padding:0;clip-rule:nonzero;display:inline;overflow:visible;visibility:visible;opacity:1;isolation:auto;mix-blend-mode:normal;color-interpolation:sRGB;color-interpolation-filters:linearRGB;solid-color:#000000;solid-opacity:1;fill:#e3dfd5;fill-opacity:1;fill-rule:nonzero;stroke:none;stroke-width:4.00000048;stroke-linecap:butt;stroke-linejoin:miter;stroke-miterlimit:4;stroke-dasharray:none;stroke-dashoffset:0;stroke-opacity:1;marker:none;color-rendering:auto;image-rendering:auto;shape-rendering:auto;text-rendering:auto;enable-background:accumulate"
         d="M 111.94141,84 C 99.359506,84.145 90.1531,83.713998 82.625,87.867188 c -3.7641,2.0768 -6.751838,5.574737 -8.398438,9.960937 C 72.580062,102.21433 72,107.4241 72,114 v 42 h 160 v -26 c 0,-6.5759 -0.57996,-11.78566 -2.22656,-16.17188 -0.205,-0.5455 -0.47919,-1.03993 -0.74219,-1.54296 -0.1,-0.1848 -0.17844,-0.38051 -0.27344,-0.56641 -1.727,-3.38752 -4.25471,-6.14522 -7.38281,-7.87109 C 213.8463,99.694146 204.64049,100.1454 192.05859,100 H 192 151.66797 L 135.45312,84 h -23.49218 z"
         id="path1027" />
    </clipPath>
    <linearGradient
       id="linearGradient1013">
      <stop
         style="stop-color:#ffffff;stop-opacity:1;"
         offset="0"
         id="stop1005" />
      <stop
         id="stop1007"
         offset="0.125"
         style="stop-color:#ffffff;stop-opacity:0.09803922" />
      <stop
         id="stop1009"
         offset="0.92500001"
         style="stop-color:#000000;stop-opacity:0.09803922" />
      <stop
         style="stop-color:#000000;stop-opacity:0.49803922"
         offset="1"
         id="stop1011" />
    </linearGradient>
    <clipPath
       id="clipPath1082-3"
       clipPathUnits="userSpaceOnUse">
      <path
         style="display:inline;opacity:1;fill:#8c59d9;fill-opacity:1;stroke:none;stroke-width:2;stroke-linecap:round;stroke-linejoin:round;stroke-miterlimit:4;stroke-dasharray:none;stroke-dashoffset:0;stroke-opacity:1;enable-background:new"
         d="M 361.9375,-212 C 507.2348,-212 528,-191.28677 528,-46.125 V 70.125 C 528,215.28618 507.2348,236 361.9375,236 H 214.0625 C 68.7652,236 48,215.28618 48,70.125 V -46.125 C 48,-191.28677 68.7652,-212 214.0625,-212 Z"
         id="path1084-6" />
    </clipPath>
    <clipPath
       id="clipPath1082-3-5"
       clipPathUnits="userSpaceOnUse">
      <path
         style="display:inline;opacity:1;fill:#8c59d9;fill-opacity:1;stroke:none;stroke-width:2;stroke-linecap:round;stroke-linejoin:round;stroke-miterlimit:4;stroke-dasharray:none;stroke-dashoffset:0;stroke-opacity:1;enable-background:new"
         d="M 361.9375,-212 C 507.2348,-212 528,-191.28677 528,-46.125 V 70.125 C 528,215.28618 507.2348,236 361.9375,236 H 214.0625 C 68.7652,236 48,215.28618 48,70.125 V -46.125 C 48,-191.28677 68.7652,-212 214.0625,-212 Z"
         id="path1084-6-6" />
    </clipPath>
    <filter
       height="1.024857"
       y="-0.012428571"
       width="1.0232"
       x="-0.0116"
       id="filter4569-2"
       style="color-interpolation-filters:sRGB">
      <feGaussianBlur
         id="feGaussianBlur4571-9"
         stdDeviation="1.16" />
    </filter>
    <filter
       height="1.0497143"
       y="-0.024857143"
       width="1.0464"
       x="-0.0232"
       id="filter913"
       style="color-interpolation-filters:sRGB">
      <feGaussianBlur
         id="feGaussianBlur915"
         stdDeviation="2.32" />
    </filter>
    <linearGradient
       y2="236"
       x2="296"
       y1="-212"
       x1="296"
       gradientUnits="userSpaceOnUse"
       id="linearGradient906"
       xlink:href="#linearGradient1013" />
    <clipPath
       id="clipPath1082-3-9"
       clipPathUnits="userSpaceOnUse">
      <path
         style="display:inline;opacity:1;fill:#8c59d9;fill-opacity:1;stroke:none;stroke-width:2;stroke-linecap:round;stroke-linejoin:round;stroke-miterlimit:4;stroke-dasharray:none;stroke-dashoffset:0;stroke-opacity:1;enable-background:new"
         d="M 361.9375,-212 C 507.2348,-212 528,-191.28677 528,-46.125 V 70.125 C 528,215.28618 507.2348,236 361.9375,236 H 214.0625 C 68.7652,236 48,215.28618 48,70.125 V -46.125 C 48,-191.28677 68.7652,-212 214.0625,-212 Z"
         id="path1084-6-3" />
    </clipPath>
    <linearGradient
       gradientUnits="userSpaceOnUse"
       y2="294.35416"
       x2="59.53125"
       y1="230.85416"
       x1="13.229167"
       id="linearGradient946"
       xlink:href="#linearGradient1296"
       gradientTransform="translate(0.15929)" />
    <clipPath
       id="clipPath1082-3-9-6"
       clipPathUnits="userSpaceOnUse">
      <path
         style="display:inline;opacity:1;fill:#8c59d9;fill-opacity:1;stroke:none;stroke-width:2;stroke-linecap:round;stroke-linejoin:round;stroke-miterlimit:4;stroke-dasharray:none;stroke-dashoffset:0;stroke-opacity:1;enable-background:new"
         d="M 361.9375,-212 C 507.2348,-212 528,-191.28677 528,-46.125 V 70.125 C 528,215.28618 507.2348,236 361.9375,236 H 214.0625 C 68.7652,236 48,215.28618 48,70.125 V -46.125 C 48,-191.28677 68.7652,-212 214.0625,-212 Z"
         id="path1084-6-3-1" />
    </clipPath>
    <linearGradient
       gradientUnits="userSpaceOnUse"
       y2="284"
       x2="96"
       y1="28"
       x1="208"
       id="linearGradient1144"
       xlink:href="#linearGradient10478"
       gradientTransform="matrix(0.36875235,0,0,0.26458481,-22.187243,220.98083)" />
    <linearGradient
       id="linearGradient10478">
      <stop
         id="stop10480"
         offset="0"
         style="stop-color: rgb(114, 114, 114); stop-opacity: 1;" />
      <stop
         id="stop10482"
         offset="1"
         style="stop-color: rgb(179, 179, 179); stop-opacity: 1;" />
    </linearGradient>
    <linearGradient
       id="linearGradient9981">
      <stop
         style="stop-color: rgb(255, 246, 221); stop-opacity: 1;"
         offset="0"
         id="stop9983" />
      <stop
         style="stop-color: rgb(254, 248, 244); stop-opacity: 1;"
         offset="1"
         id="stop9985" />
    </linearGradient>
    <linearGradient
       gradientTransform="matrix(2,0,0,2,-711,-2873.64)"
       gradientUnits="userSpaceOnUse"
       xlink:href="#linearGradient13214"
       id="linearGradient21626"
       y2="688.52026"
       x2="640"
       y1="632.99835"
       x1="640" />
    <linearGradient
       id="linearGradient13214">
      <stop
         offset="0"
         style="stop-color:#18a303;stop-opacity:1"
         id="stop13216" />
      <stop
         offset="1"
         style="stop-color:#106802;stop-opacity:1"
         id="stop13218" />
    </linearGradient>
    <linearGradient
       id="linearGradient8074-2">
      <stop
         offset="0"
         style="stop-color:#000000;stop-opacity:0"
         id="stop8076-1" />
      <stop
         offset="0.49305555"
         style="stop-color:#000000;stop-opacity:1"
         id="stop8078-94" />
      <stop
         offset="1"
         style="stop-color:#000000;stop-opacity:0"
         id="stop8080-0" />
    </linearGradient>
    <linearGradient
       id="linearGradient8903">
      <stop
         offset="0"
         style="stop-color:#008000;stop-opacity:1"
         id="stop8905" />
      <stop
         offset="1"
         style="stop-color:#00ff00;stop-opacity:0"
         id="stop8907" />
    </linearGradient>
    <linearGradient
       gradientTransform="matrix(0.731707,0,0,0.731707,-637.22,-625.976)"
       gradientUnits="userSpaceOnUse"
       xlink:href="#linearGradient8586-6"
       id="linearGradient21634"
       y2="-1230.7561"
       x2="113.88176"
       y1="-1192.6378"
       x1="152" />
    <linearGradient
       id="linearGradient8586-6">
      <stop
         offset="0"
         style="stop-color:#125a00;stop-opacity:1"
         id="stop8588-3" />
      <stop
         offset="1"
         style="stop-color:#69ce00;stop-opacity:0"
         id="stop8592-6" />
    </linearGradient>
    <linearGradient
       gradientTransform="matrix(0.73913,0,0,1,538.565,-303)"
       gradientUnits="userSpaceOnUse"
       xlink:href="#linearGradient8074-2"
       id="linearGradient21636"
       y2="-1194.6378"
       x2="144"
       y1="-1194.6378"
       x1="-17" />
    <radialGradient
       gradientTransform="matrix(-3.31574,0,0,-4.65,-3490.73,-4550.95)"
       gradientUnits="userSpaceOnUse"
       xlink:href="#linearGradient7770"
       id="radialGradient21638"
       fy="-853"
       fx="-1535.3044"
       r="10"
       cy="-853"
       cx="-1535.3044" />
    <linearGradient
       id="linearGradient7770">
      <stop
         offset="0"
         style="stop-color:#ffffff;stop-opacity:1"
         id="stop7772" />
      <stop
         offset="1"
         style="stop-color:#f5ffaa;stop-opacity:0"
         id="stop7774" />
    </linearGradient>
    <linearGradient
       gradientTransform="matrix(0.484472,0,0,1,583.236,-297)"
       gradientUnits="userSpaceOnUse"
       xlink:href="#linearGradient8074-2"
       id="linearGradient21640"
       y2="-1194.6378"
       x2="144"
       y1="-1194.6378"
       x1="-17" />
    <linearGradient
       gradientUnits="userSpaceOnUse"
       xlink:href="#linearGradient14610"
       id="linearGradient21642"
       y2="-1548.1383"
       x2="652.25"
       y1="-1491.6378"
       x1="652.25" />
    <linearGradient
       id="linearGradient14610">
      <stop
         offset="0"
         style="stop-color:#808080;stop-opacity:1"
         id="stop14612" />
      <stop
         offset="1"
         style="stop-color:#b3b3b3;stop-opacity:1"
         id="stop14614" />
    </linearGradient>
    <linearGradient
       gradientTransform="matrix(1.89744,0,0,2.6,-777.769,1271.82)"
       gradientUnits="userSpaceOnUse"
       xlink:href="#linearGradient4338-5"
       id="linearGradient21644"
       y2="-1083.6378"
       x2="714"
       y1="-1063.6378"
       x1="714" />
    <linearGradient
       id="linearGradient4338-5">
      <stop
         id="stop4340-6"
         offset="0"
         style="stop-color:#f2f2f2;stop-opacity:1" />
      <stop
         id="stop4342-2"
         offset="1"
         style="stop-color:#ffffff;stop-opacity:1" />
    </linearGradient>
    <radialGradient
       r="15"
       fy="-754.6377"
       fx="152.3331"
       cy="-754.6377"
       cx="152.3331"
       gradientTransform="matrix(0,0.377844,-0.665,-9.14811e-5,85.1409,-1556.34)"
       gradientUnits="userSpaceOnUse"
       id="radialGradient2374"
       xlink:href="#linearGradient16134-3-1" />
    <linearGradient
       id="linearGradient16134-3-1">
      <stop
         offset="0"
         style="stop-color:#000000;stop-opacity:0.50196099"
         id="stop16136-6-3" />
      <stop
         offset="1"
         style="stop-color:#000000;stop-opacity:0"
         id="stop16138-4-6" />
    </linearGradient>
    <radialGradient
       r="15"
       fy="-754.6377"
       fx="152.3331"
       cy="-754.6377"
       cx="152.3331"
       gradientTransform="matrix(0,0.377844,-0.665,-9.14811e-5,85.1409,-1556.34)"
       gradientUnits="userSpaceOnUse"
       id="radialGradient2580"
       xlink:href="#linearGradient16134-3-1" />
    <radialGradient
       r="15"
       fy="-754.6377"
       fx="152.3331"
       cy="-754.6377"
       cx="152.3331"
       gradientTransform="matrix(0,0.377844,-0.665,-9.14811e-5,85.1409,-1556.34)"
       gradientUnits="userSpaceOnUse"
       id="radialGradient2588"
       xlink:href="#linearGradient16134-3-1" />
    <radialGradient
       r="15"
       fy="-754.6377"
       fx="152.3331"
       cy="-754.6377"
       cx="152.3331"
       gradientTransform="matrix(0,0.377844,-0.665,-9.14811e-5,85.1409,-1556.34)"
       gradientUnits="userSpaceOnUse"
       id="radialGradient2596"
       xlink:href="#linearGradient16134-3-1" />
    <linearGradient
       y2="-1194.6378"
       x2="144"
       y1="-1194.6378"
       x1="-17"
       gradientTransform="matrix(0.378882,0,0,1,589.441,-344)"
       gradientUnits="userSpaceOnUse"
       id="linearGradient2604"
       xlink:href="#linearGradient8074-2" />
    <linearGradient
       gradientTransform="matrix(0.609756,0,0,0.609756,557.317,-767.42)"
       gradientUnits="userSpaceOnUse"
       xlink:href="#linearGradient7931-2"
       id="linearGradient21646"
       y2="-1230.7561"
       x2="113.88176"
       y1="-1192.6378"
       x1="152" />
    <linearGradient
       id="linearGradient7931-2">
      <stop
         offset="0"
         style="stop-color:#000000;stop-opacity:1"
         id="stop7933-1" />
      <stop
         offset="0.45461464"
         style="stop-color:#000000;stop-opacity:0.36078399"
         id="stop7968-3" />
      <stop
         offset="1"
         style="stop-color:#000000;stop-opacity:0"
         id="stop7935-7" />
    </linearGradient>
    <radialGradient
       r="15"
       fy="-754.6377"
       fx="152.3331"
       cy="-754.6377"
       cx="152.3331"
       gradientTransform="matrix(0,0.377844,-0.665,-9.14811e-5,85.1409,-1556.34)"
       gradientUnits="userSpaceOnUse"
       id="radialGradient2659"
       xlink:href="#linearGradient16134-3-1" />
    <linearGradient
       gradientTransform="matrix(1.71429,0,0,3.33333,-316.429,5092.43)"
       gradientUnits="userSpaceOnUse"
       xlink:href="#linearGradient9364"
       id="linearGradient21652"
       y2="-1068.7872"
       x2="525.63947"
       y1="-1078.6444"
       x1="525.63947" />
    <linearGradient
       id="linearGradient9364">
      <stop
         offset="0"
         style="stop-color:#63bbee;stop-opacity:1"
         id="stop9366" />
      <stop
         offset="1"
         style="stop-color:#aadcf7;stop-opacity:1"
         id="stop9368" />
    </linearGradient>
    <linearGradient
       gradientTransform="matrix(1.71429,0,0,4.44444,-298.429,6290.36)"
       gradientUnits="userSpaceOnUse"
       xlink:href="#linearGradient6989-5"
       id="linearGradient21654"
       y2="-1068.7872"
       x2="525.63947"
       y1="-1078.6444"
       x1="525.63947" />
    <linearGradient
       id="linearGradient6989-5">
      <stop
         style="stop-color: rgb(240, 158, 111); stop-opacity: 1;"
         offset="0"
         id="stop6991-5" />
      <stop
         style="stop-color: rgb(249, 207, 181); stop-opacity: 1;"
         offset="1"
         id="stop6993-1" />
    </linearGradient>
    <linearGradient
       gradientTransform="matrix(1.71429,0,0,2,-280.429,3654.91)"
       gradientUnits="userSpaceOnUse"
       xlink:href="#linearGradient6975-88"
       id="linearGradient21656"
       y2="-1068.7872"
       x2="525.63947"
       y1="-1078.6444"
       x1="525.63947" />
    <linearGradient
       id="linearGradient6975-88">
      <stop
         style="stop-color: rgb(245, 206, 83); stop-opacity: 1;"
         offset="0"
         id="stop6977-8" />
      <stop
         style="stop-color: rgb(253, 233, 169); stop-opacity: 1;"
         offset="1"
         id="stop6979-6" />
    </linearGradient>
    <linearGradient
       gradientTransform="matrix(1.71429,0,0,2.88889,-262.429,4613.26)"
       gradientUnits="userSpaceOnUse"
       xlink:href="#linearGradient13220"
       id="linearGradient21658"
       y2="-1068.7872"
       x2="525.63947"
       y1="-1078.6444"
       x1="525.63947" />
    <linearGradient
       id="linearGradient13220">
      <stop
         offset="0"
         style="stop-color:#8ee780;stop-opacity:1"
         id="stop13222" />
      <stop
         offset="1"
         style="stop-color:#ccf4c6;stop-opacity:1"
         id="stop13224" />
    </linearGradient>
    <linearGradient
       gradientTransform="matrix(0.833333,0,0,2.33333,141.167,2160.52)"
       gradientUnits="userSpaceOnUse"
       xlink:href="#linearGradient8989"
       id="linearGradient21660"
       y2="-1574.6379"
       x2="535"
       y1="-1568.6378"
       x1="529.25" />
    <linearGradient
       id="linearGradient8989">
      <stop
         offset="0"
         style="stop-color:#4a00ff;stop-opacity:1"
         id="stop8991" />
      <stop
         offset="1"
         style="stop-color:#00a0c1;stop-opacity:0"
         id="stop8993" />
    </linearGradient>
    <linearGradient
       gradientTransform="matrix(0.833333,0,0,3.16667,159.167,3467.72)"
       gradientUnits="userSpaceOnUse"
       xlink:href="#linearGradient9109"
       id="linearGradient21662"
       y2="-1574.6378"
       x2="535"
       y1="-1568.6378"
       x1="529.25" />
    <linearGradient
       id="linearGradient9109">
      <stop
         offset="0"
         style="stop-color:#800000;stop-opacity:1"
         id="stop9111" />
      <stop
         offset="1"
         style="stop-color:#ffc600;stop-opacity:0"
         id="stop9113" />
    </linearGradient>
    <linearGradient
       id="linearGradient9014">
      <stop
         offset="0"
         style="stop-color:#ffffff;stop-opacity:0"
         id="stop9016" />
      <stop
         offset="0.49305555"
         style="stop-color:#ffffff;stop-opacity:1"
         id="stop9018" />
      <stop
         offset="1"
         style="stop-color:#ffffff;stop-opacity:0"
         id="stop9020" />
    </linearGradient>
    <linearGradient
       gradientTransform="matrix(0.459627,0,0,1,584.814,-303)"
       gradientUnits="userSpaceOnUse"
       xlink:href="#linearGradient8074-2"
       id="linearGradient21666"
       y2="-1194.6378"
       x2="144"
       y1="-1194.6378"
       x1="-17" />
    <linearGradient
       gradientTransform="matrix(0.459627,0,0,1,584.814,-300)"
       gradientUnits="userSpaceOnUse"
       xlink:href="#linearGradient9014"
       id="linearGradient21668"
       y2="-1194.6378"
       x2="144"
       y1="-1194.6378"
       x1="-17" />
    <linearGradient
       gradientTransform="matrix(0.833333,0,0,2,195.167,1637.64)"
       gradientUnits="userSpaceOnUse"
       xlink:href="#linearGradient9103"
       id="linearGradient21670"
       y2="-1574.6379"
       x2="535"
       y1="-1568.6378"
       x1="529.25" />
    <linearGradient
       id="linearGradient9103">
      <stop
         offset="0"
         style="stop-color:#003362;stop-opacity:1"
         id="stop9105" />
      <stop
         offset="1"
         style="stop-color:#00ff8c;stop-opacity:0"
         id="stop9107" />
    </linearGradient>
    <linearGradient
       gradientTransform="matrix(0.833333,0,0,1.33333,177.167,591.879)"
       gradientUnits="userSpaceOnUse"
       xlink:href="#linearGradient9119"
       id="linearGradient21672"
       y2="-1574.6379"
       x2="535"
       y1="-1568.6378"
       x1="529.25" />
    <linearGradient
       id="linearGradient9119">
      <stop
         offset="0"
         style="stop-color:#ff0000;stop-opacity:1"
         id="stop9121" />
      <stop
         offset="1"
         style="stop-color:#d3d300;stop-opacity:0"
         id="stop9123" />
    </linearGradient>
    <linearGradient
       id="linearGradient7723">
      <stop
         offset="0"
         style="stop-color:#2e851b;stop-opacity:1"
         id="stop7721" />
      <stop
         offset="1"
         style="stop-color:#18a003;stop-opacity:1"
         id="stop7715" />
    </linearGradient>
    <linearGradient
       id="linearGradient7713">
      <stop
         offset="0"
         style="stop-color:#993a03;stop-opacity:1"
         id="stop7711" />
      <stop
         offset="1"
         style="stop-color:#f0692c;stop-opacity:1"
         id="stop7709" />
    </linearGradient>
    <radialGradient
       r="15"
       fy="-754.6377"
       fx="152.3331"
       cy="-754.6377"
       cx="152.3331"
       gradientTransform="matrix(7.93527e-7,0.169213,-0.835421,0,197.029,-1517.95)"
       gradientUnits="userSpaceOnUse"
       id="radialGradient2428"
       xlink:href="#linearGradient16134-3-1" />
    <radialGradient
       gradientTransform="matrix(3.84067e-6,0.270741,-4.04344,0,-2201.98,-1535.94)"
       gradientUnits="userSpaceOnUse"
       xlink:href="#linearGradient10462-7"
       id="radialGradient21562"
       fy="-754.6377"
       fx="152.3331"
       r="15"
       cy="-754.6377"
       cx="152.3331" />
    <linearGradient
       id="linearGradient10462-7">
      <stop
         offset="0"
         style="stop-color:#808080;stop-opacity:0.50199997"
         id="stop10464-0" />
      <stop
         offset="1"
         style="stop-color:#000000;stop-opacity:0"
         id="stop10466-1" />
    </linearGradient>
    <linearGradient
       id="linearGradient10423">
      <stop
         offset="0"
         style="stop-color:#808080;stop-opacity:1"
         id="stop10425" />
      <stop
         offset="1"
         style="stop-color:#333333;stop-opacity:1"
         id="stop10427" />
    </linearGradient>
    <linearGradient
       gradientTransform="matrix(2.03333,0,0,2.04762,-752.267,686.81)"
       gradientUnits="userSpaceOnUse"
       xlink:href="#linearGradient13791"
       id="linearGradient21568"
       y2="-1116.7638"
       x2="809.625"
       y1="-1074.7628"
       x1="809.625" />
    <linearGradient
       id="linearGradient13791">
      <stop
         offset="0"
         style="stop-color:#d36118;stop-opacity:1"
         id="stop13793" />
      <stop
         offset="1"
         style="stop-color:#f09e6f;stop-opacity:1"
         id="stop13795" />
    </linearGradient>
    <linearGradient
       gradientTransform="matrix(2.03333,0,0,2.15,-752.267,798.982)"
       gradientUnits="userSpaceOnUse"
       xlink:href="#linearGradient9929"
       id="linearGradient21570"
       y2="-1115.6378"
       x2="812"
       y1="-1075.6378"
       x1="812" />
    <linearGradient
       id="linearGradient9929">
      <stop
         offset="0"
         style="stop-color:#edbfa1;stop-opacity:1"
         id="stop9931" />
      <stop
         offset="1"
         style="stop-color:#fdf1ea;stop-opacity:1"
         id="stop9933" />
    </linearGradient>
    <linearGradient
       id="linearGradient10144">
      <stop
         offset="0"
         style="stop-color:#ff0000;stop-opacity:1"
         id="stop10146" />
      <stop
         offset="1"
         style="stop-color:#ffc600;stop-opacity:0"
         id="stop10148" />
    </linearGradient>
    <radialGradient
       gradientTransform="matrix(-3.31574,0,0,-3.2,-6604.01,-3579.6)"
       gradientUnits="userSpaceOnUse"
       xlink:href="#linearGradient10138"
       id="radialGradient21574"
       fy="-853"
       fx="-1535.4552"
       r="10"
       cy="-853"
       cx="-1535.4552" />
    <linearGradient
       id="linearGradient10138">
      <stop
         offset="0"
         style="stop-color:#ffffff;stop-opacity:1"
         id="stop10140" />
      <stop
         offset="1"
         style="stop-color:#ffd5d5;stop-opacity:0"
         id="stop10142" />
    </linearGradient>
    <linearGradient
       id="linearGradient10658">
      <stop
         offset="0"
         style="stop-color:#b84603;stop-opacity:1"
         id="stop10660" />
      <stop
         offset="1"
         style="stop-color:#622502;stop-opacity:1"
         id="stop10662" />
    </linearGradient>
    <linearGradient
       gradientUnits="userSpaceOnUse"
       xlink:href="#linearGradient10391"
       id="linearGradient21578"
       y2="735.74982"
       x2="895.49988"
       y1="647.81232"
       x1="895.49988" />
    <linearGradient
       id="linearGradient10391">
      <stop
         offset="0"
         style="stop-color:#e67325;stop-opacity:1"
         id="stop10393" />
      <stop
         offset="1"
         style="stop-color:#c8400c;stop-opacity:1"
         id="stop10395" />
    </linearGradient>
    <linearGradient
       gradientUnits="userSpaceOnUse"
       xlink:href="#linearGradient10226"
       id="linearGradient21580"
       y2="-1589.1378"
       x2="902.00031"
       y1="-1589.1378"
       x1="798.24518" />
    <linearGradient
       id="linearGradient10226">
      <stop
         offset="0"
         style="stop-color:#8e2103;stop-opacity:1"
         id="stop10228" />
      <stop
         offset="0.16904713"
         style="stop-color:#e46f1f;stop-opacity:1"
         id="stop10236" />
      <stop
         offset="0.8380928"
         style="stop-color:#e66d20;stop-opacity:1"
         id="stop10234" />
      <stop
         offset="1"
         style="stop-color:#922504;stop-opacity:1"
         id="stop10230" />
    </linearGradient>
    <linearGradient
       gradientUnits="userSpaceOnUse"
       xlink:href="#linearGradient10682"
       id="linearGradient21582"
       y2="-1524.3566"
       x2="902.25"
       y1="-1534.4158"
       x1="902.25" />
    <linearGradient
       id="linearGradient10682">
      <stop
         offset="0"
         style="stop-color:#808080;stop-opacity:1"
         id="stop10684" />
      <stop
         offset="1"
         style="stop-color:#606060;stop-opacity:1"
         id="stop10686" />
    </linearGradient>
    <linearGradient
       gradientTransform="matrix(1.17949,0,0,1.5,10.8462,67.8194)"
       gradientUnits="userSpaceOnUse"
       xlink:href="#linearGradient8984"
       id="linearGradient21584"
       y2="-1079.1599"
       x2="714"
       y1="-1063.6378"
       x1="714" />
    <linearGradient
       id="linearGradient8984">
      <stop
         offset="0"
         style="stop-color:#ffffff;stop-opacity:1"
         id="stop8986" />
      <stop
         offset="1"
         style="stop-color:#ffffff;stop-opacity:0"
         id="stop8988" />
    </linearGradient>
    <linearGradient
       gradientTransform="matrix(2,0,0,2,-898,556.638)"
       gradientUnits="userSpaceOnUse"
       xlink:href="#linearGradient13214"
       id="linearGradient21586"
       y2="-1042.6378"
       x2="879"
       y1="-1054.6378"
       x1="889" />
    <linearGradient
       gradientUnits="userSpaceOnUse"
       xlink:href="#linearGradient10367"
       id="linearGradient21588"
       y2="-1575.7028"
       x2="882.23718"
       y1="-1575.7028"
       x1="818.03473" />
    <linearGradient
       id="linearGradient10367">
      <stop
         offset="0"
         style="stop-color:#8e2103;stop-opacity:1"
         id="stop10369" />
      <stop
         offset="0.16904713"
         style="stop-color:#e45c1f;stop-opacity:1"
         id="stop10371" />
      <stop
         offset="0.8380928"
         style="stop-color:#e45c1f;stop-opacity:1"
         id="stop10373" />
      <stop
         offset="1"
         style="stop-color:#922504;stop-opacity:1"
         id="stop10375" />
    </linearGradient>
    <linearGradient
       gradientTransform="matrix(0.726708,0,0,1,802.354,-405)"
       gradientUnits="userSpaceOnUse"
       xlink:href="#linearGradient9014"
       id="linearGradient21590"
       y2="-1194.6378"
       x2="144"
       y1="-1194.6378"
       x1="-17" />
    <linearGradient
       gradientUnits="userSpaceOnUse"
       xlink:href="#linearGradient10391"
       id="linearGradient21594"
       y2="709.49982"
       x2="895.49988"
       y1="621.56232"
       x1="895.49988" />
    <linearGradient
       gradientUnits="userSpaceOnUse"
       xlink:href="#linearGradient10391"
       id="linearGradient21598"
       y2="683.24982"
       x2="895.49988"
       y1="595.31232"
       x1="895.49988" />
    <linearGradient
       gradientUnits="userSpaceOnUse"
       xlink:href="#linearGradient10391"
       id="linearGradient21602"
       y2="656.99982"
       x2="895.49988"
       y1="569.06232"
       x1="895.49988" />
    <linearGradient
       gradientTransform="matrix(0.645963,0,0,1,808.981,-396)"
       gradientUnits="userSpaceOnUse"
       xlink:href="#linearGradient8074-2"
       id="linearGradient21604"
       y2="-1194.6378"
       x2="144"
       y1="-1194.6378"
       x1="-17" />
    <linearGradient
       gradientTransform="matrix(0.397516,0,0,1,824.758,-386)"
       gradientUnits="userSpaceOnUse"
       xlink:href="#linearGradient8074-2"
       id="linearGradient21606"
       y2="-1194.6378"
       x2="144"
       y1="-1194.6378"
       x1="-17" />
    <linearGradient
       gradientTransform="matrix(0.720497,0,0,1,804.248,-319)"
       gradientUnits="userSpaceOnUse"
       xlink:href="#linearGradient8074-2"
       id="linearGradient21608"
       y2="-1194.6378"
       x2="144"
       y1="-1194.6378"
       x1="-17" />
    <linearGradient
       gradientTransform="matrix(0.286106,0,0,1,858.013,-333.937)"
       gradientUnits="userSpaceOnUse"
       xlink:href="#linearGradient9014"
       id="linearGradient21612"
       y2="-1194.6378"
       x2="144"
       y1="-1194.6378"
       x1="-17" />
    <linearGradient
       id="linearGradient11600">
      <stop
         offset="0"
         style="stop-color:#d40000;stop-opacity:0"
         id="stop11602" />
      <stop
         offset="0.49305555"
         style="stop-color:#d40000;stop-opacity:1"
         id="stop11604" />
      <stop
         offset="1"
         style="stop-color:#d40000;stop-opacity:0"
         id="stop11606" />
    </linearGradient>
    <linearGradient
       gradientTransform="matrix(2,0,0,2,-898,556.638)"
       gradientUnits="userSpaceOnUse"
       xlink:href="#linearGradient10617"
       id="linearGradient21618"
       y2="-1048.6378"
       x2="887"
       y1="-1042.6378"
       x1="881" />
    <linearGradient
       id="linearGradient10617">
      <stop
         offset="0"
         style="stop-color:#78db67;stop-opacity:1"
         id="stop10619" />
      <stop
         offset="1"
         style="stop-color:#ccf4c6;stop-opacity:1"
         id="stop10621" />
    </linearGradient>
    <radialGradient
       r="15"
       fy="-754.6377"
       fx="152.3331"
       cy="-754.6377"
       cx="152.3331"
       gradientTransform="matrix(7.93527e-7,0.169213,-0.835421,0,197.029,-1517.95)"
       gradientUnits="userSpaceOnUse"
       id="radialGradient1337"
       xlink:href="#linearGradient16134-3-1" />
    <radialGradient
       r="15"
       fy="-754.6377"
       fx="152.3331"
       cy="-754.6377"
       cx="152.3331"
       gradientTransform="matrix(7.93527e-7,0.169213,-0.835421,0,197.029,-1517.95)"
       gradientUnits="userSpaceOnUse"
       id="radialGradient1345"
       xlink:href="#linearGradient16134-3-1" />
    <linearGradient
       id="linearGradient7707">
      <stop
         id="stop7703"
         style="stop-color:#d98027;stop-opacity:1"
         offset="0" />
      <stop
         id="stop7705"
         style="stop-color:#be5e0f;stop-opacity:1"
         offset="1" />
    </linearGradient>
    <linearGradient
       gradientTransform="matrix(0.54163438,0,0,0.54163438,-684.36959,-111.33459)"
       gradientUnits="userSpaceOnUse"
       xlink:href="#linearGradient11255"
       id="linearGradient21768-9-0"
       y2="658.13159"
       x2="1180.158"
       y1="688.52631"
       x1="1180.158" />
    <linearGradient
       id="linearGradient11255">
      <stop
         offset="0"
         style="stop-color:#f6b7a8;stop-opacity:1"
         id="stop11257" />
      <stop
         offset="1"
         style="stop-color:#fee9d6;stop-opacity:1"
         id="stop11259" />
    </linearGradient>
    <linearGradient
       gradientTransform="matrix(0.54163438,0,0,0.54163438,-684.36959,-111.33459)"
       gradientUnits="userSpaceOnUse"
       xlink:href="#linearGradient11332"
       id="linearGradient21770-9-1"
       y2="662.17346"
       x2="1195.1416"
       y1="678.05798"
       x1="1179.2571" />
    <linearGradient
       id="linearGradient11332">
      <stop
         offset="0"
         style="stop-color:#ad4e07;stop-opacity:1"
         id="stop11334" />
      <stop
         offset="1"
         style="stop-color:#e9744d;stop-opacity:1"
         id="stop11336" />
    </linearGradient>
    <linearGradient
       gradientTransform="matrix(0.5131278,0,0,0.5131278,-650.60196,-92.077768)"
       gradientUnits="userSpaceOnUse"
       xlink:href="#linearGradient9658"
       id="linearGradient21772-7-7"
       y2="686.9585"
       x2="1168"
       y1="671.48962"
       x1="1183.4689" />
    <linearGradient
       id="linearGradient9658">
      <stop
         offset="0"
         style="stop-color:#f7c3a1;stop-opacity:1"
         id="stop9660" />
      <stop
         offset="0.47156018"
         style="stop-color:#f1b38e;stop-opacity:1"
         id="stop9664" />
      <stop
         offset="1"
         style="stop-color:#f17571;stop-opacity:1"
         id="stop9662" />
    </linearGradient>
    <radialGradient
       gradientTransform="matrix(0.50298728,-6.0378069e-6,6.2442833e-6,0.52084739,1257.0716,960.89235)"
       gradientUnits="userSpaceOnUse"
       xlink:href="#linearGradient9652"
       id="radialGradient21774-5-1"
       fy="-1363.4087"
       fx="-2578.6877"
       r="10"
       cy="-1363.4087"
       cx="-2578.6877" />
    <linearGradient
       id="linearGradient9652">
      <stop
         offset="0"
         style="stop-color:#ffffff;stop-opacity:1"
         id="stop9654" />
      <stop
         offset="1"
         style="stop-color:#ffbcd5;stop-opacity:0"
         id="stop9656" />
    </linearGradient>
    <linearGradient
       gradientTransform="matrix(0.47036675,0,0,0.47760334,-530.51534,1516.793)"
       gradientUnits="userSpaceOnUse"
       xlink:href="#linearGradient11458"
       id="linearGradient21776-2"
       y2="-2617.5344"
       x2="1079.5464"
       y1="-2650.2756"
       x1="1079.5464" />
    <linearGradient
       id="linearGradient11458">
      <stop
         offset="0"
         style="stop-color:#a88200;stop-opacity:1"
         id="stop11460" />
      <stop
         offset="1"
         style="stop-color:#724a00;stop-opacity:1"
         id="stop11462" />
    </linearGradient>
    <linearGradient
       gradientTransform="matrix(0.23518338,0,0,0.23518338,-298.38931,622.04717)"
       gradientUnits="userSpaceOnUse"
       xlink:href="#linearGradient11513"
       id="linearGradient21778-7"
       y2="-1575.6378"
       x2="1171.25"
       y1="-1513.3878"
       x1="1171.25" />
    <linearGradient
       id="linearGradient11513">
      <stop
         offset="0"
         style="stop-color:#d7ae1e;stop-opacity:1"
         id="stop11515" />
      <stop
         offset="1"
         style="stop-color:#ffd251;stop-opacity:1"
         id="stop11517" />
    </linearGradient>
    <linearGradient
       gradientTransform="matrix(0.23518338,0,0,0.23518338,-298.38931,622.04717)"
       gradientUnits="userSpaceOnUse"
       xlink:href="#linearGradient11503"
       id="linearGradient21780-2"
       y2="-1504.947"
       x2="1138.0002"
       y1="-1562.1042"
       x1="1171" />
    <linearGradient
       id="linearGradient11503">
      <stop
         offset="0"
         style="stop-color:#e4bc33;stop-opacity:1"
         id="stop11505" />
      <stop
         offset="1"
         style="stop-color:#cd9215;stop-opacity:1"
         id="stop11507" />
    </linearGradient>
    <linearGradient
       gradientTransform="matrix(0.58795845,0,0,1.1759217,-288.04048,2110.4241)"
       gradientUnits="userSpaceOnUse"
       xlink:href="#linearGradient9569"
       id="linearGradient21782-2"
       y2="-1574.6378"
       x2="535"
       y1="-1568.6378"
       x1="529.25" />
    <linearGradient
       id="linearGradient9569">
      <stop
         offset="0"
         style="stop-color:#b42c00;stop-opacity:1"
         id="stop9571" />
      <stop
         offset="1"
         style="stop-color:#ffc600;stop-opacity:0"
         id="stop9573" />
    </linearGradient>
    <linearGradient
       gradientTransform="matrix(0.58795845,0,0,1.1759217,-348.13061,2110.4241)"
       gradientUnits="userSpaceOnUse"
       xlink:href="#linearGradient9569"
       id="linearGradient21784-7"
       y2="-1574.6378"
       x2="535"
       y1="-1568.6378"
       x1="529.25" />
    <linearGradient
       gradientTransform="matrix(0.23518338,0,0,0.23518338,-298.44777,621.81198)"
       gradientUnits="userSpaceOnUse"
       xlink:href="#linearGradient16819"
       id="linearGradient21786-0"
       y2="-1495.6378"
       x2="1065.75"
       y1="-1561.3922"
       x1="1065.75" />
    <linearGradient
       id="linearGradient16819">
      <stop
         offset="0"
         style="stop-color:#e2b006;stop-opacity:1"
         id="stop16821" />
      <stop
         offset="1"
         style="stop-color:#bc8611;stop-opacity:1"
         id="stop16823" />
    </linearGradient>
    <linearGradient
       gradientTransform="matrix(1.0938662,0,0,1.0137956,-1311.5261,-643.54986)"
       gradientUnits="userSpaceOnUse"
       xlink:href="#linearGradient11674"
       id="linearGradient21788-7-7"
       y2="887.43439"
       x2="1162.5912"
       y1="900.18634"
       x1="1162.5912" />
    <linearGradient
       id="linearGradient11674">
      <stop
         offset="0"
         style="stop-color:#f8ca35;stop-opacity:1"
         id="stop11676" />
      <stop
         offset="1"
         style="stop-color:#fef0c4;stop-opacity:1"
         id="stop11678" />
    </linearGradient>
    <linearGradient
       gradientTransform="matrix(1.0506888,0,0,0.96393673,-1261.3521,-598.87679)"
       gradientUnits="userSpaceOnUse"
       xlink:href="#linearGradient11612"
       id="linearGradient21790-1-6"
       y2="887.07147"
       x2="1162.175"
       y1="900.71698"
       x1="1162.175" />
    <linearGradient
       id="linearGradient11612">
      <stop
         offset="0"
         style="stop-color:#edc33e;stop-opacity:1"
         id="stop11614" />
      <stop
         offset="1"
         style="stop-color:#fae6a5;stop-opacity:1"
         id="stop11616" />
    </linearGradient>
    <linearGradient
       id="linearGradient11704">
      <stop
         offset="0"
         style="stop-color:#ff6a1e;stop-opacity:1"
         id="stop11706" />
      <stop
         offset="1"
         style="stop-color:#d45500;stop-opacity:0"
         id="stop11708" />
    </linearGradient>
    <radialGradient
       gradientTransform="matrix(-0.60922608,0,0,-0.58795845,-665.69942,-460.84176)"
       gradientUnits="userSpaceOnUse"
       xlink:href="#linearGradient10138"
       id="radialGradient21796-5-0"
       fy="-853"
       fx="-1535.4552"
       r="10"
       cy="-853"
       cx="-1535.4552" />
    <linearGradient
       gradientTransform="matrix(0.25907331,0,0,0.240983,-341.49529,42.068499)"
       gradientUnits="userSpaceOnUse"
       xlink:href="#linearGradient11704"
       id="linearGradient21798-3-9"
       y2="900.71698"
       x2="1162"
       y1="889.0058"
       x1="1162" />
    <linearGradient
       gradientTransform="matrix(0.04090145,0,0,0.23518338,-32.641499,546.55332)"
       gradientUnits="userSpaceOnUse"
       xlink:href="#linearGradient11804"
       id="linearGradient21800-0"
       y2="-1194.6378"
       x2="144"
       y1="-1194.6378"
       x1="-17" />
    <linearGradient
       id="linearGradient11804">
      <stop
         offset="0"
         style="stop-color:#d40000;stop-opacity:0"
         id="stop11806" />
      <stop
         offset="0.49305555"
         style="stop-color:#aa0000;stop-opacity:1"
         id="stop11808" />
      <stop
         offset="1"
         style="stop-color:#aa0000;stop-opacity:0"
         id="stop11810" />
    </linearGradient>
    <linearGradient
       y2="-1574.826"
       x2="535.43829"
       y1="-1568.6378"
       x1="529.25"
       gradientTransform="matrix(0.15678901,0,0,0.15678901,-62.938762,521.52537)"
       gradientUnits="userSpaceOnUse"
       id="linearGradient2094"
       xlink:href="#linearGradient8903" />
    <linearGradient
       gradientTransform="matrix(0.10517542,0,0,0.23518338,-47.60118,550.08109)"
       gradientUnits="userSpaceOnUse"
       xlink:href="#linearGradient11804"
       id="linearGradient21804-9"
       y2="-1194.6378"
       x2="144"
       y1="-1194.6378"
       x1="-17" />
    <linearGradient
       gradientTransform="matrix(0.23518338,0,0,0.23518338,-298.38931,622.17645)"
       gradientUnits="userSpaceOnUse"
       xlink:href="#linearGradient11513-4"
       id="linearGradient21806-5"
       y2="-1575.6378"
       x2="1171.25"
       y1="-1513.3878"
       x1="1171.25" />
    <linearGradient
       id="linearGradient11513-4">
      <stop
         offset="0"
         style="stop-color:#ecbb10;stop-opacity:1"
         id="stop11515-4" />
      <stop
         offset="1"
         style="stop-color:#ffd251;stop-opacity:1"
         id="stop11517-6" />
    </linearGradient>
    <radialGradient
       gradientTransform="matrix(-0.73106991,0,0,-1.0641484,-1373.8297,-876.20824)"
       gradientUnits="userSpaceOnUse"
       xlink:href="#linearGradient9563"
       id="radialGradient21808-1-7"
       fy="-848.91748"
       fx="-1535.2125"
       r="10"
       cy="-848.91748"
       cx="-1535.2125" />
    <linearGradient
       id="linearGradient9563">
      <stop
         offset="0"
         style="stop-color:#fffb88;stop-opacity:1"
         id="stop9565" />
      <stop
         offset="1"
         style="stop-color:#b97f00;stop-opacity:0"
         id="stop9567" />
    </linearGradient>
    <linearGradient
       gradientTransform="matrix(2.34375,0,0,2.34375,-67.849474,-41.991117)"
       gradientUnits="userSpaceOnUse"
       xlink:href="#linearGradient3712"
       id="linearGradient3718"
       y2="12.540652"
       x2="47.2644"
       y1="77.865364"
       x1="47.2644" />
    <linearGradient
       id="linearGradient3712">
      <stop
         offset="0"
         style="stop-color:#e7cf93;stop-opacity:1"
         id="stop3714" />
      <stop
         offset="1"
         style="stop-color:#fefef4;stop-opacity:1"
         id="stop3716" />
    </linearGradient>
    <filter
       height="1.0952388"
       y="-0.047619414"
       width="1.0967734"
       x="-0.048386719"
       id="filter1948"
       style="color-interpolation-filters:sRGB">
      <feGaussianBlur
         id="feGaussianBlur1950"
         stdDeviation="3.02417" />
    </filter>
    <linearGradient
       id="linearGradient6335">
      <stop
         style="stop-color:#000000;stop-opacity:1;"
         offset="0"
         id="stop6337" />
      <stop
         style="stop-color:#000000;stop-opacity:0;"
         offset="1"
         id="stop6339" />
    </linearGradient>
  </defs>
  <metadata
     id="metadata1485">
    <rdf:RDF>
      <cc:Work
         rdf:about="">
        <dc:format>image/svg+xml</dc:format>
        <dc:type
           rdf:resource="http://purl.org/dc/dcmitype/StillImage" />
        <dc:title />
      </cc:Work>
    </rdf:RDF>
  </metadata>
  <g
     transform="translate(0,-229.26666)"
     id="layer1">
    <path
       transform="matrix(0.26458334,0,0,0.26458334,-6.9934685,221.97262)"
       id="path899"
       d="m 188.96876,45.999995 c 72.64865,0 83.03125,10.356615 83.03125,82.937505 v 58.125 c 0,72.58059 -10.3826,82.9375 -83.03125,82.9375 h -73.9375 C 42.382606,270 32.000006,259.64309 32.000006,187.0625 v -58.125 c 0,-72.58089 10.3826,-82.937505 83.031254,-82.937505 z"
       style="display:inline;opacity:0.2;fill:#000000;fill-opacity:1;stroke:none;stroke-width:2;stroke-linecap:round;stroke-linejoin:round;stroke-miterlimit:4;stroke-dasharray:none;stroke-dashoffset:0;stroke-opacity:1;filter:url(#filter913);enable-background:new"
       inkscape:connector-curvature="0" />
    <path
       transform="matrix(0.26458334,0,0,0.26458334,-6.9934685,221.97262)"
       style="display:inline;opacity:0.1;fill:#000000;fill-opacity:1;stroke:none;stroke-width:2;stroke-linecap:round;stroke-linejoin:round;stroke-miterlimit:4;stroke-dasharray:none;stroke-dashoffset:0;stroke-opacity:1;filter:url(#filter4569-2);enable-background:new"
       d="m 188.96876,43.999995 c 72.64865,0 83.03125,10.356615 83.03125,82.937505 v 58.125 c 0,72.58059 -10.3826,82.9375 -83.03125,82.9375 h -73.9375 C 42.382606,268 32.000006,257.64309 32.000006,185.0625 v -58.125 c 0,-72.58089 10.3826,-82.937505 83.031254,-82.937505 z"
       id="path4567-1"
       inkscape:connector-curvature="0" />
    <path
       id="rect877-2"
       d="m 23.441881,233.61429 c -9.611188,0 -15.1016418,0.68374 -18.1921716,3.77031 -3.0905239,3.08656 -3.7765136,8.57135 -3.7765136,18.17357 v 15.37891 c 0,9.60218 0.6859897,15.087 3.7765136,18.17357 3.0905298,3.08657 8.5809826,3.7703 18.1921716,3.7703 h 19.562632 c 9.61119,0 15.101646,-0.68373 18.192172,-3.7703 3.090527,-3.08657 3.776515,-8.57139 3.776515,-18.17357 v -15.37891 c 0,-9.60222 -0.685988,-15.08701 -3.776515,-18.17357 -3.090526,-3.08657 -8.580984,-3.77031 -18.192172,-3.77031 z"
       style="display:inline;opacity:1;fill:#ff7600;fill-opacity:1;stroke:none;stroke-width:0.5291667;stroke-linecap:round;stroke-linejoin:round;stroke-miterlimit:4;stroke-dasharray:none;stroke-dashoffset:0;stroke-opacity:1;enable-background:new"
       inkscape:connector-curvature="0" />
    <path
       id="path917"
       d="m 1.4731985,270.40791 v 0.52917 c 0,9.60218 0.6859897,15.087 3.7765136,18.17357 3.0905298,3.08657 8.5809829,3.7703 18.1921719,3.7703 h 19.562632 c 9.611189,0 15.101646,-0.68373 18.192171,-3.7703 3.090527,-3.08657 3.776516,-8.57139 3.776516,-18.17357 v -0.52917 c 0,9.60217 -0.685989,15.08699 -3.776516,18.17356 -3.090525,3.08658 -8.580982,3.77032 -18.192171,3.77032 H 23.441884 c -9.611189,0 -15.1016421,-0.68374 -18.1921719,-3.77032 -3.0905239,-3.08657 -3.7765136,-8.57139 -3.7765136,-18.17356 z"
       style="display:inline;opacity:0.2;fill:#131313;fill-opacity:1;stroke:none;stroke-width:0.5291667;stroke-linecap:round;stroke-linejoin:round;stroke-miterlimit:4;stroke-dasharray:none;stroke-dashoffset:0;stroke-opacity:1;enable-background:new"
       inkscape:connector-curvature="0" />
    <path
       style="display:inline;opacity:0.1;fill:#f6f6f6;fill-opacity:1;stroke:none;stroke-width:0.5112229;stroke-linecap:round;stroke-linejoin:round;stroke-miterlimit:4;stroke-dasharray:none;stroke-dashoffset:0;stroke-opacity:1;enable-background:new"
       d="m 33.197245,292.88085 h 9.806114 c 9.602164,0 14.905795,-0.82329 17.992362,-3.70776 3.086575,-2.88451 3.951485,-7.82588 3.951485,-16.7963 v -18.25842 c 0,-8.97043 -0.86491,-13.97206 -3.951485,-16.85653 -3.086567,-2.88448 -8.390198,-3.64754 -17.992362,-3.64754 h -9.806114 z"
       id="path927"
       inkscape:connector-curvature="0" />
    <path
       id="path897"
       d="m 1.4731985,261.13095 v 9.80613 c 0,9.60218 0.6859897,15.087 3.7765136,18.17357 3.0905298,3.08657 8.5809829,3.7703 18.1921719,3.7703 h 19.562632 c 9.611189,0 15.101646,-0.68373 18.192171,-3.7703 3.090527,-3.08657 3.776516,-8.57139 3.776516,-18.17357 v -9.80613 z"
       style="display:inline;opacity:0.1;fill:#ffffff;fill-opacity:1;stroke:none;stroke-width:0.5291667;stroke-linecap:round;stroke-linejoin:round;stroke-miterlimit:4;stroke-dasharray:none;stroke-dashoffset:0;stroke-opacity:1;enable-background:new"
       inkscape:connector-curvature="0" />
    <path
       transform="matrix(0.13229167,0,0,0.13229167,-4.876802,261.66013)"
       clip-path="url(#clipPath1082-3-5)"
       style="display:inline;opacity:0.4;fill:none;fill-opacity:1;stroke:url(#linearGradient906);stroke-width:8;stroke-linecap:round;stroke-linejoin:round;stroke-miterlimit:4;stroke-dasharray:none;stroke-dashoffset:0;stroke-opacity:1;enable-background:new"
       d="M 361.9375,-212 C 507.2348,-212 528,-191.28677 528,-46.125 V 70.125 C 528,215.28618 507.2348,236 361.9375,236 H 214.0625 C 68.7652,236 48,215.28618 48,70.125 V -46.125 C 48,-191.28677 68.7652,-212 214.0625,-212 Z"
       id="path1068-7"
       inkscape:connector-curvature="0" />
    <g
       id="g1095"
       transform="translate(-4.666225,0.36386672)">
      <ellipse
         transform="rotate(18.651288)"
         ry="1.6661241"
         rx="2.7768731"
         cy="236.88943"
         cx="107.11342"
         id="path1103"
         style="opacity:1;fill:#5bc53a;fill-opacity:1;stroke:none;stroke-width:1.15517926;stroke-miterlimit:4;stroke-dasharray:none;stroke-opacity:1" />
      <ellipse
         style="opacity:1;fill:#5bc53a;fill-opacity:1;stroke:none;stroke-width:1.15517926;stroke-miterlimit:4;stroke-dasharray:none;stroke-opacity:1"
         id="ellipse1105"
         cx="-35.20459"
         cy="-261.16119"
         rx="2.7768734"
         ry="1.6661241"
         transform="matrix(0.94748251,-0.3198076,-0.3198076,-0.94748251,0,0)" />
      <path
         inkscape:connector-curvature="0"
         id="path1472"
         d="m 46.087223,274.44748 c 0,-0.0299 0.02446,-0.0543 0.05437,-0.0543 0.0299,0 0.05438,0.0245 0.05438,0.0543 0,0.0299 -0.02447,0.0543 -0.05438,0.0543 -0.0299,0 -0.05437,-0.0245 -0.05437,-0.0543 z m -24.241836,-0.77553 c -0.0714,-0.0369 -0.128785,-0.0916 -0.12752,-0.12153 0.0013,-0.0299 0.255405,-0.14102 0.564758,-0.24695 0.750179,-0.25688 1.185668,-0.49804 1.559384,-0.86355 0.170416,-0.16668 0.855042,-1.00643 1.521392,-1.86613 0.897534,-1.15794 1.240835,-1.56306 1.324553,-1.56306 0.0991,0 0.109151,0.0237 0.08169,0.19304 -0.04427,0.27283 -0.529707,1.3255 -0.89071,1.93152 -0.8385,1.4076 -1.777222,2.26796 -2.762002,2.5314 -0.340962,0.0912 -1.099315,0.0944 -1.271537,0.005 z m 30.983414,-0.0587 c -0.470174,-0.16651 -0.558423,-0.21527 -1.0152,-0.56106 -0.648029,-0.49055 -1.269151,-1.29186 -1.836458,-2.36922 -0.317975,-0.60385 -0.682232,-1.4515 -0.682232,-1.58762 0,-0.14646 0.132636,-0.0928 0.361901,0.14644 0.210168,0.21929 1.373509,1.6728 1.947257,2.43294 0.386189,0.51166 0.989852,1.08963 1.333998,1.27728 0.164172,0.0895 0.555069,0.24852 0.868666,0.35338 0.379647,0.12695 0.575824,0.22009 0.587085,0.27876 0.02313,0.12058 -0.138228,0.15514 -0.722317,0.15466 -0.37134,-2.1e-4 -0.57451,-0.0306 -0.8427,-0.12556 z m -33.761982,-1.91611 c -0.463331,-0.0713 -0.879242,-0.14404 -0.924248,-0.16152 -0.161566,-0.0627 0.09365,-0.16858 0.565784,-0.23461 0.25272,-0.0353 0.773097,-0.15096 1.156393,-0.25691 0.383295,-0.10596 1.145156,-0.31351 1.693022,-0.46124 0.547868,-0.14773 1.073874,-0.30793 1.168904,-0.35601 0.400677,-0.20274 0.671688,-0.47227 1.268105,-1.26113 0.855197,-1.13117 1.36914,-1.51596 1.959624,-1.46717 0.395294,0.0326 0.324217,0.15419 -0.640805,1.09551 -2.150974,2.09818 -3.310277,2.89637 -4.590849,3.16088 -0.506808,0.10469 -0.62831,0.10046 -1.65593,-0.0578 z m 36.398811,0.0474 c -1.242463,-0.17184 -2.418796,-0.96314 -4.580284,-3.08108 -0.545815,-0.53482 -0.992392,-1.00317 -0.992392,-1.04077 0,-0.19391 0.494703,-0.17731 0.910678,0.0306 0.396759,0.19826 0.860388,0.67265 1.391672,1.42399 0.416077,0.58843 0.778247,0.9537 1.116831,1.12645 0.124819,0.0637 0.599253,0.21228 1.054302,0.33024 0.455043,0.11798 1.120938,0.30197 1.479766,0.40889 0.358825,0.10692 0.897063,0.23265 1.196084,0.2794 0.679059,0.10615 0.951435,0.17197 0.951435,0.2299 0,0.0634 -0.54675,0.20606 -1.050511,0.27396 -0.411827,0.0555 -1.143653,0.0645 -1.477581,0.0184 z m -35.338921,-1.35738 c -0.322102,-0.0723 -0.489329,-0.15969 -0.812062,-0.42424 -0.195723,-0.16043 -0.492785,-0.34293 -0.660135,-0.40555 -0.466337,-0.17447 -2.956041,-0.66075 -3.070202,-0.59965 -0.05184,0.0277 -0.157885,0.15903 -0.235671,0.29176 -0.07778,0.13274 -0.221113,0.32117 -0.318507,0.41874 -0.180135,0.18047 -0.941641,0.70161 -1.025211,0.70161 -0.06362,0 -0.84048,-0.94287 -1.067389,-1.29549 -0.102528,-0.15931 -0.23068,-0.41834 -0.284783,-0.5756 -0.216215,-0.62844 -0.3214,-0.74878 -1.099377,-1.25785 -0.289814,-0.18966 -0.56849,-0.40823 -0.619281,-0.48575 -0.0832,-0.12697 -0.08755,-0.24171 -0.04393,-1.15819 0.02663,-0.5595 0.03999,-1.71453 0.02967,-2.56675 l -0.01875,-1.54947 0.141077,-0.37345 c 0.172002,-0.45534 0.172121,-0.46014 0.01297,-0.52065 -0.1714,-0.065 -0.197433,-0.251 -0.19462,-1.38935 0.0041,-1.68463 0.06139,-2.22545 0.344588,-3.25632 0.584458,-2.12749 1.253179,-3.68218 2.151292,-5.0015 0.462594,-0.67954 0.724942,-0.98723 0.801452,-0.93994 0.07925,0.0489 1.91e-4,0.38621 -0.201871,0.86104 -0.289484,0.68028 -0.428371,1.60429 -0.321759,2.14065 0.0925,0.46535 0.03816,0.78176 -0.359122,2.09133 l -0.305131,1.00578 -0.0463,1.1961 c -0.03924,1.01362 -0.06293,1.23341 -0.155317,1.44075 -0.148451,0.33315 -0.315198,1.01379 -0.392916,1.60384 -0.138656,1.05269 0.166014,3.18405 0.606516,4.24296 0.281602,0.67693 0.488618,0.9514 0.933675,1.23789 0.421623,0.2714 0.591046,0.46441 1.070832,1.21995 0.156657,0.2467 0.318609,0.44854 0.359893,0.44854 0.146079,0 0.250258,-0.26167 0.280636,-0.7049 0.02034,-0.29667 0.0517,-0.43683 0.09775,-0.43683 0.07747,0 0.621617,0.39295 0.874778,0.63173 0.09338,0.0881 0.237256,0.29389 0.319718,0.45741 0.211026,0.41837 0.451624,0.70624 0.664692,0.79525 0.100397,0.0419 0.412764,0.12366 0.694148,0.18156 0.854736,0.17586 1.493941,0.49852 2.082022,1.05095 0.292827,0.27508 0.609324,0.66332 0.609324,0.74747 0,0.0233 -0.03845,0.0806 -0.08544,0.12777 -0.0828,0.0827 -0.488618,0.10874 -0.757262,0.0484 z m 35.123826,-0.036 c -0.167351,-0.12236 -0.06228,-0.32309 0.42816,-0.81797 0.381139,-0.38458 0.541045,-0.50188 0.9646,-0.70754 0.320224,-0.15549 0.728586,-0.29784 1.105772,-0.38542 0.328921,-0.0763 0.661849,-0.16431 0.739843,-0.19537 0.202202,-0.0804 0.517214,-0.4208 0.621659,-0.67144 0.04904,-0.11772 0.150189,-0.29402 0.224767,-0.3918 0.14112,-0.18502 0.769368,-0.7142 0.983407,-0.82834 0.153096,-0.0815 0.156909,-0.0713 0.197628,0.53426 0.03165,0.47075 0.11111,0.64497 0.266876,0.5852 0.04377,-0.0168 0.198122,-0.20976 0.343005,-0.42879 0.497597,-0.75228 0.676433,-0.95845 1.032734,-1.19057 0.194043,-0.12643 0.431065,-0.32142 0.526715,-0.43332 0.230302,-0.26941 0.554799,-1.10497 0.777207,-2.00127 0.381198,-1.53623 0.389977,-2.64086 0.03355,-4.22145 -0.18803,-0.83379 -0.22909,-1.13146 -0.277482,-2.0116 -0.05575,-1.01379 -0.06191,-1.04964 -0.331624,-1.93004 -0.446033,-1.45589 -0.50597,-1.85996 -0.37364,-2.51886 0.08126,-0.40463 -0.03557,-1.00945 -0.365218,-1.89068 -0.444174,-1.18739 -0.275961,-1.19806 0.491354,-0.0312 0.642308,0.97681 1.063033,1.7105 1.359623,2.37101 0.227596,0.50686 0.518368,1.34714 0.518368,1.49802 0,0.0413 0.134036,0.51101 0.297867,1.04376 0.356246,1.15847 0.407752,1.59751 0.408446,3.48152 l 4.34e-4,1.26241 -0.157506,0.11645 -0.157509,0.11646 0.160129,0.38806 0.160135,0.38809 -0.0564,1.20128 c -0.0391,0.83293 -0.03892,1.64146 6.53e-4,2.63683 l 0.05697,1.43554 -0.179896,0.15132 c -0.09894,0.0832 -0.346246,0.25019 -0.549574,0.371 -0.665821,0.39571 -0.866164,0.64038 -1.093786,1.33583 -0.09206,0.2813 -0.279689,0.57876 -0.59716,0.94673 -0.09265,0.10739 -0.265816,0.32145 -0.384836,0.47572 -0.141221,0.18304 -0.256847,0.28048 -0.332824,0.28048 -0.141205,0 -0.864106,-0.468 -1.059321,-0.68581 -0.07733,-0.0863 -0.206809,-0.2731 -0.287719,-0.41514 -0.134005,-0.23525 -0.165059,-0.25822 -0.348694,-0.25814 -0.311686,1.6e-4 -2.667276,0.48058 -2.93326,0.59822 -0.13013,0.0575 -0.434462,0.24409 -0.676292,0.41452 -0.241833,0.17044 -0.528124,0.34146 -0.636198,0.38009 -0.260444,0.0931 -0.774745,0.0942 -0.900911,0.002 z m -26.726226,-1.56862 c -0.426479,-0.45221 -0.505405,-0.70363 -0.594005,-1.89218 -0.03277,-0.43945 -0.108836,-0.97435 -0.171904,-1.20865 -0.131792,-0.48962 -0.110352,-0.59742 0.211889,-1.06548 l 0.202821,-0.2946 -0.0026,-0.65928 c -0.0023,-0.55301 -0.02255,-0.70952 -0.125941,-0.9711 -0.169105,-0.42787 -0.515949,-0.93241 -0.698,-1.01536 -0.08297,-0.0379 -0.481398,-0.089 -0.885385,-0.11365 -0.572101,-0.0349 -0.830696,-0.0775 -1.169461,-0.19272 -1.076886,-0.36602 -1.99305,-0.90458 -2.558559,-1.50405 -0.407612,-0.43209 -0.591762,-0.78742 -0.783,-1.51082 -0.06719,-0.25418 -0.140785,-0.49603 -0.16354,-0.53746 -0.03154,-0.0574 -0.167198,-0.0728 -0.57028,-0.0646 -0.614084,0.0125 -0.73343,0.0486 -1.023294,0.31046 -0.369671,0.33399 -0.40018,0.0275 -0.06348,-0.63774 l 0.126435,-0.24979 -0.149666,-0.16388 c -0.250836,-0.27463 -0.696464,-0.40926 -1.45065,-0.43826 l -0.655604,-0.0253 -0.172174,0.17216 c -0.233884,0.23388 -0.295755,0.50969 -0.274436,1.22338 0.01663,0.55666 0.03239,0.63348 0.199557,0.97268 0.112332,0.22794 0.335067,0.53249 0.584452,0.79914 0.262102,0.28028 0.402948,0.47511 0.402948,0.55739 0,0.1232 -0.124095,0.33363 -0.515469,0.87409 -0.145669,0.20115 -0.19126,0.31789 -0.191105,0.48931 2.83e-4,0.29378 0.170424,0.57851 0.345729,0.57851 0.07153,0 0.161135,0.0374 0.199116,0.0832 0.05754,0.0692 0.04049,0.12295 -0.102079,0.3215 -0.09413,0.13105 -0.171133,0.29385 -0.171133,0.36175 0,0.21003 0.216814,0.58458 0.461577,0.79734 l 0.233693,0.20316 h 0.807676 c 0.710441,0 0.833858,0.0136 1.025147,0.11251 0.307174,0.15893 0.530714,0.51599 0.647045,1.0335 0.231726,1.03085 0.377318,1.28434 0.883033,1.53745 0.152854,0.0765 0.280927,0.20321 0.398459,0.39424 0.09526,0.1548 0.295688,0.41099 0.445391,0.56928 0.418011,0.44198 0.379245,0.48573 -0.426441,0.48134 -0.627894,-0.003 -0.676144,-0.0119 -1.004509,-0.17551 -0.212578,-0.10596 -0.50903,-0.32998 -0.772586,-0.58383 -0.379365,-0.36541 -0.517483,-0.45518 -1.223269,-0.79496 -1.285143,-0.61869 -2.004658,-1.15198 -2.687006,-1.99156 -0.410097,-0.50459 -0.451155,-0.60372 -0.580785,-1.40225 -0.06273,-0.38638 -0.223101,-1.14103 -0.356389,-1.67698 -0.417227,-1.67769 -0.394523,-2.12133 0.160203,-3.13028 0.365321,-0.66447 0.462331,-0.91668 0.49834,-1.29556 0.03591,-0.37788 -0.07991,-0.6334 -0.352069,-0.77664 -0.177403,-0.0934 -0.191635,-0.0932 -0.381272,0.003 -0.108344,0.0552 -0.333712,0.21305 -0.500816,0.35063 -0.424138,0.34916 -0.483108,0.33679 -0.483108,-0.10135 0,-0.45392 0.113124,-0.78102 0.433495,-1.2535 0.365889,-0.5396 0.494897,-0.81457 0.80796,-1.72209 0.317214,-0.91956 0.454729,-1.21266 0.60722,-1.29426 0.193032,-0.10332 0.323265,0.0334 0.604903,0.63501 0.451613,0.96469 0.863151,1.48783 1.787092,2.27167 0.910885,0.77275 1.05657,0.82146 2.584399,0.86408 0.580442,0.0162 1.105697,0.0564 1.196087,0.0917 0.234879,0.0916 0.694634,0.0679 1.097881,-0.0566 0.873593,-0.2698 2.1458,-0.002 3.331738,0.70329 0.744221,0.44212 1.097169,1.0054 1.904108,3.03873 0.700589,1.76538 0.800187,1.97141 1.164999,2.41006 0.165595,0.19912 0.301082,0.38728 0.301082,0.41818 0,0.0309 -0.147479,0.16962 -0.327729,0.30832 -0.326861,0.25152 -0.665671,0.6535 -0.837764,0.99399 -0.04993,0.0988 -0.188836,0.47606 -0.308662,0.83836 -0.119827,0.3623 -0.340097,0.97838 -0.489492,1.36908 -0.153375,0.40108 -0.290704,0.8645 -0.315452,1.06448 -0.05073,0.41004 0.0077,0.99027 0.128918,1.28043 0.09619,0.23021 0.10915,0.43827 0.03033,0.48698 -0.02963,0.0183 -0.153165,-0.0719 -0.274524,-0.20065 z m -1.411367,-8.68593 c 0.566992,-0.28482 0.786012,-0.64191 0.787389,-1.28382 8.21e-4,-0.38777 -0.01634,-0.465 -0.147353,-0.66299 -0.163938,-0.24773 -0.524177,-0.4854 -0.775889,-0.51194 l -0.163036,-0.0172 -0.05667,0.57084 c -0.03291,0.33155 -0.09549,0.64356 -0.149266,0.74427 -0.281898,0.52786 -0.858344,0.42803 -1.147839,-0.19878 -0.09615,-0.20819 -0.11386,-0.35142 -0.114052,-0.92249 l -2.4e-4,-0.67603 -0.190284,-0.0499 c -0.317419,-0.0834 -0.936986,-0.0189 -1.163858,0.12132 -0.443586,0.27415 -0.526969,0.79329 -0.224521,1.39786 0.32283,0.6453 1.073438,1.27742 1.845355,1.55408 0.391792,0.14042 1.157204,0.10717 1.500255,-0.065 z m 20.115999,8.7579 c 0,-0.056 0.05489,-0.22115 0.121953,-0.36699 0.104688,-0.22762 0.121532,-0.35368 0.118987,-0.89039 -0.0029,-0.62471 -0.0032,-0.62589 -0.316567,-1.46791 -0.172482,-0.46349 -0.424402,-1.16075 -0.559824,-1.54948 -0.135425,-0.38873 -0.296491,-0.79761 -0.357927,-0.90862 -0.06143,-0.11101 -0.31567,-0.37693 -0.564962,-0.59096 -0.249293,-0.21399 -0.453259,-0.42555 -0.453259,-0.47012 0,-0.0445 0.117723,-0.20983 0.261604,-0.36727 0.30885,-0.33791 0.556642,-0.82901 0.904131,-1.79187 0.48412,-1.34142 0.976978,-2.40862 1.356446,-2.93715 0.308867,-0.43018 0.813937,-0.79671 1.492546,-1.08316 1.186391,-0.50077 1.986505,-0.59537 2.764472,-0.32684 l 0.409274,0.14125 0.496925,-0.0892 c 0.273308,-0.0491 0.977279,-0.10951 1.564381,-0.13439 0.964652,-0.0408 1.095551,-0.0581 1.359185,-0.17917 0.360682,-0.16559 0.960289,-0.64449 1.635327,-1.30612 0.488916,-0.47919 0.534262,-0.54397 0.931096,-1.32998 0.229427,-0.45443 0.469716,-0.86306 0.533964,-0.90806 0.24269,-0.17 0.423792,0.0635 0.731662,0.94363 0.393374,1.12445 0.519853,1.41692 0.793554,1.835 0.435917,0.66586 0.552537,0.95961 0.556126,1.40075 0.0039,0.48047 -0.06196,0.50314 -0.4777,0.16448 -0.520822,-0.42426 -0.780132,-0.4805 -1.055098,-0.22884 -0.107576,0.0985 -0.12229,0.16492 -0.122025,0.55102 4.36e-4,0.55074 0.06025,0.76646 0.338491,1.21967 0.659082,1.0735 0.694735,1.4853 0.278392,3.2154 -0.248784,1.03382 -0.382758,1.68995 -0.42931,2.10255 -0.04928,0.43679 -0.2328,0.75302 -0.765796,1.31959 -0.702592,0.74688 -1.469839,1.29603 -2.276375,1.62933 -0.845214,0.34929 -0.894668,0.38017 -1.319486,0.8241 -0.231154,0.24155 -0.518684,0.4976 -0.638958,0.56896 -0.446499,0.26497 -1.665357,0.42073 -1.849695,0.2364 -0.07984,-0.0798 -0.06453,-0.11282 0.184501,-0.39741 0.149364,-0.17067 0.364559,-0.4563 0.478215,-0.6347 0.160554,-0.25202 0.267608,-0.35413 0.479949,-0.45776 0.510453,-0.24913 0.599488,-0.37439 0.682103,-0.9596 0.103591,-0.73379 0.407177,-1.33184 0.800112,-1.57614 0.183891,-0.11432 0.254258,-0.12504 0.693951,-0.10568 1.026806,0.0451 1.012211,0.0469 1.286325,-0.14329 0.488793,-0.33909 0.632919,-0.81003 0.358149,-1.17027 -0.203432,-0.26672 -0.202082,-0.31593 0.01075,-0.39012 0.260852,-0.0909 0.410761,-0.31047 0.410761,-0.60149 0,-0.19261 -0.04309,-0.29598 -0.230595,-0.55328 -0.126826,-0.17403 -0.295513,-0.42246 -0.374851,-0.55209 -0.138248,-0.22585 -0.14072,-0.2431 -0.05928,-0.41387 0.04675,-0.098 0.20319,-0.27161 0.347669,-0.38579 0.354164,-0.27989 0.499616,-0.46594 0.649906,-0.83134 0.109235,-0.26558 0.126831,-0.40169 0.127682,-0.98762 0.0011,-0.80428 -0.05112,-1.03055 -0.283352,-1.22595 -0.17104,-0.14394 -0.180528,-0.14531 -0.827513,-0.12041 -0.494657,0.019 -0.728358,0.0538 -0.956976,0.1422 -0.563785,0.21814 -0.639073,0.38295 -0.40482,0.88615 0.139411,0.29946 0.17236,0.50686 0.08873,0.55856 -0.02624,0.0162 -0.166926,-0.0618 -0.312613,-0.17349 l -0.264891,-0.20298 -0.634519,-0.0181 c -0.737846,-0.0209 -0.685288,-0.0598 -0.832254,0.61609 -0.052,0.2392 -0.154733,0.5587 -0.228282,0.70997 -0.192843,0.39662 -0.64591,0.9811 -0.941922,1.21507 -0.323183,0.25545 -0.985891,0.60113 -1.639655,0.85526 -0.762644,0.29645 -0.990755,0.34955 -1.708364,0.39761 -0.365243,0.0245 -0.719409,0.077 -0.797572,0.11844 -0.194224,0.10283 -0.446953,0.43528 -0.653093,0.85915 -0.163647,0.33646 -0.174781,0.39837 -0.193618,1.07643 l -0.01998,0.71943 0.160965,0.20481 c 0.367735,0.46794 0.399085,0.63488 0.231786,1.23434 -0.0619,0.2218 -0.137756,0.77515 -0.179556,1.30975 -0.07975,1.02012 -0.141623,1.22147 -0.506093,1.64726 -0.205395,0.23996 -0.403258,0.30136 -0.403258,0.12514 z m 3.180503,-8.67101 c 0.849712,-0.22732 1.68723,-0.96084 2.019619,-1.76885 0.15182,-0.36908 0.158351,-0.61292 0.02432,-0.90808 -0.19151,-0.42169 -0.709778,-0.63006 -1.275159,-0.51269 -0.433436,0.09 -0.489948,0.17569 -0.411793,0.6245 0.04839,0.27789 0.04823,0.4406 -6.5e-4,0.68939 -0.132443,0.6732 -0.34328,0.97113 -0.687226,0.97113 -0.363337,0 -0.633644,-0.3848 -0.73188,-1.04188 -0.03281,-0.21937 -0.07046,-0.45366 -0.08375,-0.52063 l -0.02409,-0.12177 -0.284534,0.10704 c -0.738491,0.27777 -1.002525,1.08036 -0.615589,1.87123 0.154167,0.31509 0.335159,0.47151 0.688888,0.59533 0.299262,0.10478 1.017721,0.11272 1.381928,0.0153 z m -26.765698,3.22856 c -0.143502,-0.10394 -0.311446,-0.3144 -0.469368,-0.5882 -0.252399,-0.4376 -0.396323,-0.57871 -1.008886,-0.98929 -0.54536,-0.36552 -0.892852,-0.68117 -1.217862,-1.10622 -0.343401,-0.4491 -0.681094,-1.12569 -0.724916,-1.45243 -0.0265,-0.19764 -0.01796,-0.22313 0.06927,-0.20633 0.05473,0.0106 0.185059,0.16592 0.289597,0.34529 0.357367,0.61322 0.652953,0.83965 1.87313,1.43496 0.603431,0.29441 1.26403,0.61395 1.467999,0.71007 0.449407,0.21181 0.852417,0.57731 0.852417,0.77311 0,0.13225 -0.01156,0.13672 -0.339798,0.13165 l -0.339796,-0.005 -0.02718,0.4893 c -0.0261,0.46972 -0.06543,0.62521 -0.158155,0.62521 -0.02365,0 -0.143556,-0.0728 -0.266457,-0.16186 z m 28.441927,0.076 c -0.01812,-0.0471 -0.01697,-0.27748 0.0026,-0.51173 0.04137,-0.49612 -0.02575,-0.62884 -0.28278,-0.55916 -0.223401,0.0605 -0.513529,0.0494 -0.537495,-0.0206 -0.03369,-0.0985 0.30688,-0.45305 0.646214,-0.67275 0.169766,-0.10991 0.610144,-0.32833 0.978616,-0.48538 1.592271,-0.67862 2.170943,-1.08002 2.616606,-1.81499 0.129796,-0.21407 0.270899,-0.3892 0.313573,-0.3892 0.157777,0 0.113241,0.31682 -0.108961,0.7751 -0.444268,0.91627 -0.920152,1.44928 -1.793363,2.00861 -0.607419,0.38908 -0.794674,0.5714 -0.993802,0.96766 -0.182976,0.3641 -0.378704,0.59693 -0.598266,0.71163 -0.184838,0.0965 -0.202623,0.0959 -0.242929,-0.009 z m -20.392451,-2.59189 c -0.02985,-0.0374 -0.107519,-0.32484 -0.172597,-0.6388 -0.256049,-1.23536 -0.564045,-1.89747 -1.177345,-2.531 -0.221775,-0.22908 -0.403225,-0.4351 -0.403225,-0.45778 0,-0.0226 0.110093,-0.27367 0.244655,-0.55772 0.134559,-0.28406 0.244654,-0.54192 0.244654,-0.57305 0,-0.0311 0.121899,-0.18304 0.270888,-0.33762 0.388532,-0.4031 0.428975,-0.58021 0.276326,-1.21004 -0.06712,-0.27693 -0.293858,-1.01605 -0.503866,-1.64251 -0.210008,-0.62642 -0.394288,-1.27631 -0.409509,-1.4442 -0.04422,-0.48767 0.13951,-0.73839 0.798571,-1.08964 0.31888,-0.16997 0.322543,-0.1747 0.434936,-0.55991 0.111203,-0.38117 0.240941,-0.67767 0.424803,-0.97088 0.08114,-0.12939 0.0834,-0.1693 0.01856,-0.32621 -0.04064,-0.0983 -0.08535,-0.25498 -0.09935,-0.34813 -0.02149,-0.14299 0.002,-0.18889 0.150482,-0.29464 0.730015,-0.51982 1.656562,-0.50978 3.418108,0.037 0.863905,0.2682 1.091746,0.36704 1.091746,0.4736 0,0.0389 -0.101869,0.15292 -0.226376,0.25297 -0.124507,0.10006 -0.510978,0.45277 -0.858824,0.78384 -0.347844,0.33106 -0.799725,0.72424 -1.004181,0.87375 -0.477234,0.349 -0.699325,0.70354 -0.852185,1.36044 -0.169265,0.72741 -0.255993,0.9351 -0.518731,1.24218 -0.489417,0.57199 -0.698384,1.26105 -0.593847,1.95815 l 0.03796,0.25317 0.149916,-0.10675 c 0.08245,-0.0587 0.356107,-0.28114 0.608122,-0.49426 0.263043,-0.22245 0.652133,-0.48375 0.913509,-0.61347 0.250413,-0.12427 0.489993,-0.27889 0.532395,-0.34362 0.04241,-0.0647 0.136679,-0.34031 0.209502,-0.61242 0.170327,-0.63647 0.350058,-0.98576 0.697602,-1.35572 0.279301,-0.29735 0.662662,-0.60809 0.750185,-0.60809 0.132857,0 0.02053,0.29312 -0.220619,0.57572 -0.640861,0.75101 -0.722328,1.38251 -0.406155,3.14845 0.165316,0.92336 0.182232,1.18455 0.101664,1.56962 -0.09156,0.43758 -0.420817,1.20444 -0.693208,1.6145 -0.189321,0.285 -0.477263,0.51992 -0.549158,0.44801 -0.01914,-0.0191 -0.03481,-0.29769 -0.03481,-0.619 0,-0.32132 -0.0367,-0.77596 -0.08154,-1.01034 -0.04484,-0.23436 -0.08155,-0.51643 -0.08155,-0.6268 -10e-6,-0.26105 -0.07187,-0.29863 -0.214855,-0.11238 -0.0633,0.0824 -0.21303,0.27883 -0.332734,0.43636 -0.119701,0.15753 -0.396482,0.43318 -0.615069,0.6126 -0.218589,0.1794 -0.426252,0.38943 -0.461473,0.46675 -0.03523,0.0772 -0.07764,0.43773 -0.09425,0.80095 -0.02447,0.535 -0.07163,0.81525 -0.24838,1.47592 -0.303812,1.13562 -0.374201,1.28445 -0.52075,1.10094 z m 12.522391,0.0201 c -0.01624,-0.0263 -0.114983,-0.39578 -0.219425,-0.82113 -0.190616,-0.77631 -0.27156,-1.28598 -0.332581,-2.09411 l -0.03284,-0.43495 -0.612776,-0.59804 c -0.337029,-0.32893 -0.704513,-0.7156 -0.816638,-0.85927 -0.112123,-0.14367 -0.210795,-0.25377 -0.219275,-0.24465 -0.06704,0.072 -0.250468,1.67379 -0.235365,2.05537 0.01726,0.43617 0.01218,0.46123 -0.09045,0.44643 -0.275788,-0.0398 -0.868691,-0.98633 -1.109045,-1.77058 -0.147848,-0.48242 -0.143981,-0.81865 0.02059,-1.79018 0.177099,-1.0454 0.227967,-1.88716 0.137336,-2.27251 -0.09026,-0.38379 -0.154422,-0.50165 -0.483162,-0.88745 -0.294069,-0.34514 -0.434722,-0.6304 -0.310818,-0.6304 0.101442,0 0.500229,0.29943 0.805982,0.60519 0.313206,0.3132 0.594822,0.87143 0.717262,1.42177 0.109719,0.4932 0.243285,0.72017 0.447826,0.76108 0.206286,0.0412 0.865624,0.47624 1.404411,0.92655 0.238866,0.19963 0.462554,0.36297 0.497084,0.36297 0.08927,0 0.128779,-0.13252 0.128779,-0.43196 0,-0.64246 -0.212035,-1.22083 -0.609003,-1.66119 -0.32893,-0.36488 -0.399669,-0.51788 -0.495072,-1.07071 -0.132625,-0.76856 -0.490502,-1.33858 -1.096284,-1.74619 -0.186105,-0.12523 -0.69671,-0.57264 -1.134678,-0.99426 -0.738704,-0.71113 -0.789443,-0.77256 -0.701457,-0.84928 0.132243,-0.11529 0.577757,-0.27218 1.517984,-0.53459 0.673041,-0.18783 0.913508,-0.22949 1.458343,-0.25257 0.581375,-0.0247 0.686936,-0.0145 0.96948,0.0923 0.375273,0.14199 0.68873,0.39864 0.68873,0.56394 0,0.0647 -0.06051,0.20673 -0.13446,0.31556 l -0.134464,0.19788 0.236343,0.35245 c 0.209923,0.31306 0.271667,0.47949 0.387289,1.04398 0.01347,0.0655 0.141274,0.17052 0.322886,0.2648 0.409056,0.21238 0.769761,0.54111 0.845493,0.7706 0.08826,0.26743 0.03981,0.48518 -0.39166,1.76009 -0.720242,2.12817 -0.740038,2.39893 -0.212701,2.90954 0.141046,0.13656 0.253241,0.31345 0.310343,0.48931 0.04919,0.15146 0.171986,0.41316 0.27288,0.58153 0.100895,0.16838 0.183447,0.32676 0.183447,0.35195 0,0.0252 -0.145417,0.18417 -0.323148,0.3533 -0.581241,0.55309 -0.937911,1.24199 -1.231262,2.37814 -0.223201,0.86446 -0.328573,1.09682 -0.425936,0.93929 z M 24.055259,254.8519 c -0.314545,-0.11228 -0.454627,-0.22372 -0.744016,-0.59196 -0.14714,-0.18723 -0.439067,-0.49287 -0.648724,-0.6792 -0.440774,-0.39174 -0.555901,-0.63165 -0.653029,-1.36076 -0.07757,-0.58231 -0.169284,-0.77742 -0.707016,-1.5042 -0.623538,-0.84279 -0.701941,-1.15796 -0.467028,-1.87742 0.174849,-0.53549 0.496902,-0.75847 1.096427,-0.75912 0.356609,-4.2e-4 0.501405,-0.0665 0.653341,-0.2987 0.206392,-0.31535 0.558193,-0.47935 1.087824,-0.50714 0.310769,-0.0163 0.477944,-0.003 0.521501,0.0407 0.04931,0.0498 0.03905,0.0787 -0.04463,0.1252 -0.239391,0.13307 -0.452338,0.40869 -0.546479,0.70734 -0.05803,0.18406 -0.194063,0.42548 -0.336107,0.59645 -0.42141,0.50722 -0.443201,0.61445 -0.214655,1.05641 0.04687,0.0906 0.114147,0.33389 0.149499,0.54051 0.03535,0.20663 0.0862,0.41788 0.113004,0.46942 0.055,0.1058 0.710349,0.64354 0.9128,0.74901 0.11976,0.0623 0.145178,0.054 0.265679,-0.0859 0.127097,-0.14776 0.131594,-0.17758 0.09739,-0.64614 -0.01973,-0.27016 -0.04935,-0.55317 -0.06586,-0.62889 -0.02601,-0.11926 0.01092,-0.16586 0.276141,-0.34852 0.303567,-0.20909 0.73497,-0.64959 0.73497,-0.7505 0,-0.0956 0.327334,-0.46771 0.511496,-0.58153 0.09963,-0.0615 0.312775,-0.13716 0.473647,-0.16796 0.283113,-0.0541 0.863612,-0.0213 0.863107,0.0488 -1.64e-4,0.0189 -0.230142,0.15149 -0.511123,0.29445 -0.575787,0.29297 -0.89092,0.58969 -1.026472,0.96653 -0.193564,0.53812 -0.528125,1.91028 -0.528125,2.16608 0,0.25389 0.02088,0.29655 0.295923,0.60481 0.162758,0.1824 0.324811,0.42185 0.360118,0.53214 0.03531,0.11027 0.12421,0.28083 0.19756,0.37903 0.133761,0.17908 0.966342,0.77289 1.083653,0.77289 0.0344,0 0.10213,-0.099 0.150515,-0.21986 0.122372,-0.30585 0.396757,-1.41062 0.471759,-1.89952 0.03433,-0.22373 0.08753,-0.46837 0.118242,-0.54367 0.05432,-0.13315 0.05793,-0.1302 0.132339,0.10778 0.04209,0.13455 0.09018,0.50153 0.106897,0.8155 0.02607,0.48973 0.01067,0.65585 -0.108339,1.16892 -0.0763,0.32891 -0.155568,0.72738 -0.176147,0.88547 -0.0412,0.31647 -0.15988,0.44653 -0.407449,0.44653 -0.265446,0 -0.520752,-0.16377 -2.600609,-1.66822 -0.717793,-0.5192 -1.028654,-0.55891 -1.39358,-0.17801 l -0.150866,0.15747 0.15807,0.22861 c 0.248402,0.35924 0.832037,0.93062 1.21109,1.18563 0.255829,0.17213 0.326811,0.24526 0.271838,0.28009 -0.113436,0.0718 -0.755369,0.0533 -0.984566,-0.0285 z m 26.957417,0.029 c -0.08664,-0.034 -0.05398,-0.0684 0.200117,-0.212 0.582957,-0.329 1.498058,-1.30596 1.42851,-1.52509 -0.01839,-0.058 -0.133984,-0.17192 -0.256875,-0.25324 -0.383548,-0.25381 -0.563931,-0.18076 -1.793534,0.72613 -1.503717,1.1091 -1.869825,1.31689 -2.182129,1.2385 -0.07417,-0.0185 -0.151541,-0.0768 -0.171945,-0.12945 -0.04931,-0.12712 -0.296255,-1.3186 -0.354973,-1.71279 -0.0764,-0.51288 0.07443,-1.72401 0.199163,-1.59928 0.01528,0.0153 0.109845,0.41493 0.210186,0.88815 0.222171,1.04775 0.38896,1.65224 0.482051,1.74709 0.05744,0.0586 0.130844,0.0353 0.412265,-0.12949 0.506206,-0.29669 0.759542,-0.54943 0.933167,-0.931 0.085,-0.18682 0.249653,-0.42605 0.369616,-0.53704 0.251972,-0.23314 0.35398,-0.49253 0.304468,-0.77424 -0.05561,-0.31644 -0.410051,-1.63525 -0.53602,-1.99447 -0.158507,-0.45201 -0.48135,-0.75676 -1.088157,-1.02714 -0.259446,-0.11559 -0.47172,-0.22806 -0.47172,-0.24992 0,-0.0688 0.603654,-0.10543 0.878456,-0.0533 0.473847,0.0899 0.685829,0.25961 1.129332,0.90439 0.140674,0.20452 0.355898,0.42311 0.552119,0.56075 0.27101,0.1901 0.321575,0.25124 0.321575,0.38877 0,0.0898 -0.02706,0.21377 -0.06012,0.27557 -0.154804,0.28925 -0.0224,1.02747 0.199569,1.11264 0.04612,0.0177 0.244266,-0.0948 0.472876,-0.26836 0.600726,-0.4562 0.6184,-0.47907 0.689451,-0.89215 0.03507,-0.20387 0.123494,-0.50206 0.196512,-0.66265 0.07302,-0.1606 0.132747,-0.34463 0.132747,-0.40893 0,-0.0643 -0.124768,-0.28764 -0.277261,-0.49633 -0.297181,-0.40665 -0.53825,-0.84217 -0.53825,-0.97241 0,-0.044 -0.122902,-0.18376 -0.27312,-0.31041 -0.17304,-0.14592 -0.25414,-0.24929 -0.221322,-0.2821 0.02871,-0.0286 0.253359,-0.0407 0.504184,-0.027 0.554542,0.0304 0.81395,0.15129 1.141888,0.5321 l 0.234743,0.27258 0.36873,3e-5 c 0.442942,3e-5 0.671559,0.0865 0.878913,0.33244 0.250515,0.29713 0.318709,0.51806 0.313568,1.01589 -0.0056,0.54644 -0.09783,0.7651 -0.533754,1.26598 -0.441262,0.50704 -0.601723,0.85998 -0.725635,1.59606 -0.0577,0.34271 -0.132804,0.67935 -0.166908,0.74806 -0.03411,0.0686 -0.274139,0.33479 -0.533404,0.59123 -0.259263,0.25646 -0.605951,0.61329 -0.770411,0.79299 -0.222325,0.24291 -0.367745,0.34992 -0.566955,0.4172 -0.273073,0.0922 -0.844587,0.11563 -1.031701,0.0423 z M 19.20246,252.47135 c -0.391952,-0.13634 -1.232872,-0.50945 -1.658211,-0.73571 -1.158171,-0.6161 -1.984783,-1.34831 -2.320699,-2.05565 -0.175201,-0.36894 -0.205168,-0.49021 -0.22533,-0.91188 -0.01327,-0.27768 0.0055,-0.61735 0.04381,-0.79162 0.09084,-0.41346 0.383964,-0.95884 0.714949,-1.3302 l 0.273673,-0.30695 h 0.343147 c 0.310133,0 0.346225,0.0118 0.375138,0.12232 0.01759,0.0672 0.169671,0.21739 0.33795,0.33356 0.208957,0.14428 0.3822,0.3291 0.546429,0.58296 0.26782,0.41401 0.46609,0.5829 0.850144,0.72418 0.410552,0.15105 0.752702,0.41167 0.897312,0.68353 0.110782,0.20824 0.126463,0.29949 0.105392,0.61319 -0.0204,0.30354 -0.07396,0.46973 -0.303742,0.94235 -0.404927,0.83287 -0.388294,1.05902 0.13114,1.78291 0.254396,0.35452 0.219914,0.46226 -0.111103,0.3471 z m 37.377706,0.01 c 0,-0.031 0.122472,-0.23077 0.272159,-0.44393 0.300096,-0.42732 0.405682,-0.72402 0.350789,-0.98575 -0.01985,-0.0947 -0.147849,-0.40458 -0.284427,-0.68865 -0.198829,-0.41355 -0.253109,-0.58954 -0.272353,-0.88312 -0.0479,-0.73079 0.08216,-0.95537 0.731889,-1.26378 0.607768,-0.28849 0.853194,-0.47787 1.091123,-0.84202 0.130608,-0.1999 0.350507,-0.43013 0.568278,-0.59497 0.195378,-0.14791 0.369937,-0.30725 0.387921,-0.35411 0.02461,-0.064 0.112668,-0.0851 0.356383,-0.0851 0.32232,0 0.324753,0.002 0.572053,0.28391 0.31196,0.35662 0.594372,0.93195 0.706555,1.4394 0.283611,1.28291 -0.198187,2.20125 -1.661662,3.16723 -0.737931,0.48707 -2.456101,1.30736 -2.738398,1.30736 -0.04418,0 -0.08032,-0.0254 -0.08032,-0.0563 z"
         style="fill:#2f2f2f;fill-opacity:1;stroke-width:0.05436757" />
    </g>
  </g>
</svg>
