<svg xmlns="http://www.w3.org/2000/svg" xmlns:xlink="http://www.w3.org/1999/xlink" width="256" height="256" version="1.1" viewBox="0 0 67.73 67.73">
 <defs>
  <linearGradient id="linearGradient1108" x1="296" x2="296" y1="-212" y2="236" gradientUnits="userSpaceOnUse">
   <stop offset="0" style="stop-color:#ffffff"/>
   <stop offset=".125" style="stop-color:#ffffff;stop-opacity:.09803922"/>
   <stop offset=".925" style="stop-color:#000000;stop-opacity:.09803922"/>
   <stop offset="1" style="stop-color:#000000;stop-opacity:.49803922"/>
  </linearGradient>
  <clipPath id="clipPath1082-3-2">
   <path style="fill:#8c59d9" d="M 361.9375,-212 C 507.2348,-212 528,-191.28677 528,-46.125 V 70.125 C 528,215.28618 507.2348,236 361.9375,236 H 214.0625 C 68.7652,236 48,215.28618 48,70.125 V -46.125 C 48,-191.28677 68.7652,-212 214.0625,-212 Z"/>
  </clipPath>
  <filter style="color-interpolation-filters:sRGB" id="filter4569" width="1.023" height="1.025" x="-.01" y="-.01">
   <feGaussianBlur stdDeviation="1.16"/>
  </filter>
  <filter style="color-interpolation-filters:sRGB" id="filter913" width="1.046" height="1.05" x="-.02" y="-.03">
   <feGaussianBlur stdDeviation="2.32"/>
  </filter>
  <radialGradient id="radialGradient866" cx="66.542" cy="240.261" r="120" fx="66.542" fy="240.261" gradientTransform="matrix(0.93333295,0,0,0.87111075,257.09197,122.53948)" gradientUnits="userSpaceOnUse" xlink:href="#linearGradient864"/>
  <linearGradient id="linearGradient864">
   <stop offset="0" style="stop-color:#ffffff"/>
   <stop offset="1" style="stop-color:#ffffff;stop-opacity:0"/>
  </linearGradient>
 </defs>
 <g transform="translate(0,-229.26666)">
  <path style="filter:url(#filter913);opacity:.2" d="m162.53675 5.5680001c72.64865 0 83.03125 10.356615 83.03125 82.937505v58.125005c0 72.58059-10.3826 82.9375-83.03125 82.9375h-73.937496c-72.648654 0-83.031254-10.35691-83.031254-82.9375v-58.125005c0-72.58089 10.3826-82.937505 83.031254-82.937505z" transform="matrix(.26458333 0 0 .26458333 -1.8735229e-8 232.67026)"/>
  <path style="filter:url(#filter4569);opacity:.1" d="m162.53675 3.5680001c72.64865 0 83.03125 10.356615 83.03125 82.937505v58.125005c0 72.58059-10.3826 82.9375-83.03125 82.9375h-73.937496c-72.648654 0-83.031254-10.35691-83.031254-82.9375v-58.125005c0-72.58089 10.3826-82.937505 83.031254-82.937505z" transform="matrix(.26458333 0 0 .26458333 -1.8735229e-8 232.67026)"/>
  <path style="fill:#241f31" d="m23.441882 233.61429c-9.611188 0-15.101641 0.68375-18.19217 3.77032-3.090525 3.08656-3.776514 8.57135-3.776514 18.17356v15.37891c0 9.60218 0.68599 15.087 3.776514 18.17357 3.0905286 3.08658 8.580982 3.77031 18.19217 3.77031h19.562631c9.61119 0 15.101644-0.68373 18.19217-3.77031 3.090527-3.08657 3.776515-8.57139 3.776515-18.17357v-15.37891c0-9.60221-0.685988-15.087-3.776515-18.17356-3.090526-3.08657-8.580982-3.77032-18.19217-3.77032z"/>
  <path style="fill:none;opacity:.4;stroke-linecap:round;stroke-linejoin:round;stroke-width:8;stroke:url(#linearGradient1108)" d="M 361.9375,-212 C 507.2348,-212 528,-191.28677 528,-46.125 V 70.125 C 528,215.28618 507.2348,236 361.9375,236 H 214.0625 C 68.7652,236 48,215.28618 48,70.125 V -46.125 C 48,-191.28677 68.7652,-212 214.0625,-212 Z" clip-path="url(#clipPath1082-3-2)" transform="matrix(.13229167 0 0 .13229167 -4.876802 261.66013)"/>
  <g style="enable-background:new" transform="matrix(0.56693638,0,0,0.56693638,-76.338921,127.03025)">
   <g style="display:none">
    <rect style="fill:#f0f0f0" width="128" height="128" x="0" y="172"/>
    <rect width="16" height="16" x="160" y="172" style="fill:#f0f0f0"/>
    <text style="font-weight:bold;font-size:4px;line-height:125%;font-family:Cantarell" x="0" y="164" xml:space="preserve">
     <tspan style="font-size:4px" x="0" y="164">Hicolor</tspan>
    </text>
    <text x="160" y="164" xml:space="preserve" style="font-weight:bold;font-size:4px;line-height:125%;font-family:Cantarell">
     <tspan x="160" y="164" style="font-size:4px">Symbolic</tspan>
    </text>
   </g>
   <g>
    <g style="fill:#ffffff;enable-background:new" transform="matrix(0.50000021,0,0,0.50000021,6.1476148,103.85082)">
     <path style="fill:#ffffff" d="m 299.02026,206.78188 -14.0123,-7.61573 v 4.72818 l 9.71072,4.62951 v 0.1422 l -9.71072,5.22829 v 4.72818 l 14.0123,-8.21451 z"/>
     <path style="fill:#ffffff" d="m 303.00796,219.89433 v 4 h 16.00001 v -4 z"/>
     <path d="m 405.42045,206.78188 -14.0123,-7.61573 v 4.72818 l 9.71072,4.62951 v 0.1422 l -9.71072,5.22829 v 4.72818 l 14.0123,-8.21451 z" style="fill:#ffffff"/>
     <path d="m 409.40815,219.89433 v 4 h 16.00001 v -4 z" style="fill:#ffffff"/>
     <path style="fill:#ffffff" d="m 405.42045,294.51537 -14.0123,-7.61573 v 4.72818 l 9.71072,4.62951 v 0.1422 l -9.71072,5.22829 v 4.72818 l 14.0123,-8.21451 z"/>
     <path style="fill:#ffffff" d="m 409.40815,307.62782 v 4 h 16.00001 v -4 z"/>
     <path style="opacity:0.1;fill:url(#radialGradient866)" d="m 408.79288,168.21355 c 67.80537,0 77.4958,9.66617 77.4958,77.40831 v 54.24997 c 0,67.74186 -9.69043,77.4083 -77.4958,77.4083 h -69.00831 c -67.80538,0 -77.4958,-9.66644 -77.4958,-77.4083 v -54.24997 c 0,-67.74214 9.69042,-77.40831 77.4958,-77.40831 z"/>
    </g>
    <path d="M 197.18945 239.01367 C 193.99427 239.36934 190.59291 239.64557 186.97461 239.85742 C 179.73801 240.28114 171.62991 240.44336 162.54883 240.44336 C 176.17045 240.44336 187.60391 240.08069 197.18945 239.01367 z" transform="matrix(0.46666667,0,0,0.46666667,134.65165,180.33136)" style="opacity:0.2;fill:#ffffff"/>
    <path d="M 245.58008 157.49023 C 245.58008 166.56361 245.41772 174.66489 244.99219 181.89453 C 244.77942 185.50935 244.50175 188.9057 244.14453 192.09766 C 243.78731 195.28961 243.35127 198.27584 242.82422 201.07031 C 242.29717 203.86478 241.67929 206.46827 240.95703 208.89062 C 240.23477 211.31298 239.40769 213.55523 238.46484 215.63086 C 237.522 217.70648 236.46225 219.61487 235.27344 221.36914 C 234.08462 223.12341 232.7668 224.72335 231.30664 226.18164 C 229.84648 227.63994 228.24463 228.95542 226.48828 230.14258 C 224.73193 231.32973 222.82013 232.38868 220.74219 233.33008 C 218.66425 234.27148 216.42103 235.09537 213.99609 235.81641 C 211.57116 236.53744 208.9653 237.15559 206.16797 237.68164 C 203.37064 238.20769 200.38068 238.64159 197.18555 238.99805 C 193.99042 239.3545 190.59099 239.63345 186.97266 239.8457 C 179.73599 240.2702 171.62681 240.43164 162.54492 240.43164 L 125.58008 240.43164 L 125.58008 240.44336 L 162.54883 240.44336 C 171.62991 240.44336 179.73801 240.28114 186.97461 239.85742 C 190.59291 239.64557 193.99427 239.36934 197.18945 239.01367 C 238.72682 234.38992 245.58008 216.54737 245.58008 157.74609 L 245.58008 157.49023 z" transform="matrix(0.46666667,0,0,0.46666667,134.65165,180.33136)" style="opacity:0.2;fill:#ffffff"/>
    <path d="M 245.58008 120.42578 L 125.58008 120.42578 L 125.58008 240.43164 L 162.54492 240.43164 C 171.62681 240.43164 179.73599 240.2702 186.97266 239.8457 C 190.59099 239.63345 193.99042 239.3545 197.18555 238.99805 C 200.38068 238.64159 203.37064 238.20769 206.16797 237.68164 C 208.9653 237.15559 211.57116 236.53744 213.99609 235.81641 C 216.42103 235.09537 218.66425 234.27148 220.74219 233.33008 C 222.82013 232.38868 224.73193 231.32973 226.48828 230.14258 C 228.24463 228.95542 229.84648 227.63994 231.30664 226.18164 C 232.7668 224.72335 234.08462 223.12341 235.27344 221.36914 C 236.46225 219.61487 237.522 217.70648 238.46484 215.63086 C 239.40769 213.55523 240.23477 211.31298 240.95703 208.89062 C 241.67929 206.46827 242.29717 203.86478 242.82422 201.07031 C 243.35127 198.27584 243.78731 195.28961 244.14453 192.09766 C 244.50175 188.9057 244.77942 185.50935 244.99219 181.89453 C 245.41772 174.66489 245.58008 166.56361 245.58008 157.49023 L 245.58008 120.42578 z" transform="matrix(0.46666667,0,0,0.46666667,134.65165,180.33136)" style="opacity:0.2;fill:#ffffff"/>
    <path d="M 162.54883 17.091797 C 171.62991 17.091797 179.73801 17.254028 186.97461 17.677734 C 190.59291 17.889588 193.99427 18.165825 197.18945 18.521484 C 187.60391 17.454479 176.17045 17.091797 162.54883 17.091797 z" transform="matrix(0.46666667,0,0,0.46666667,134.65165,180.33136)" style="opacity:0.2;fill:#ffffff"/>
    <path d="M 125.58008 17.091797 L 125.58008 120.42578 L 245.58008 120.42578 L 245.58008 99.789062 C 245.58008 40.987562 238.72682 23.145174 197.18945 18.521484 C 193.99427 18.165825 190.59291 17.889588 186.97461 17.677734 C 179.73801 17.254028 171.62991 17.091797 162.54883 17.091797 L 125.58008 17.091797 z" transform="matrix(0.46666667,0,0,0.46666667,134.65165,180.33136)" style="opacity:0.1;fill:#ffffff"/>
   </g>
  </g>
 </g>
</svg>
