<svg width="256" height="256" version="1.1" viewBox="0 0 67.73 67.73" xmlns="http://www.w3.org/2000/svg" xmlns:xlink="http://www.w3.org/1999/xlink">
 <defs>
  <linearGradient id="linearGradient1108" x1="296" x2="296" y1="-212" y2="236" gradientUnits="userSpaceOnUse">
   <stop style="stop-color:#ffffff" offset="0"/>
   <stop style="stop-color:#ffffff;stop-opacity:.09803922" offset=".125"/>
   <stop style="stop-color:#000000;stop-opacity:.09803922" offset=".925"/>
   <stop style="stop-color:#000000;stop-opacity:.49803922" offset="1"/>
  </linearGradient>
  <clipPath id="clipPath1082-3-36753">
   <path d="M 361.9375,-212 C 507.2348,-212 528,-191.28677 528,-46.125 V 70.125 C 528,215.28618 507.2348,236 361.9375,236 H 214.0625 C 68.7652,236 48,215.28618 48,70.125 V -46.125 C 48,-191.28677 68.7652,-212 214.0625,-212 Z" style="fill:#8c59d9"/>
  </clipPath>
  <filter id="filter904" x="-.02" y="-.03" width="1.046" height="1.05" style="color-interpolation-filters:sRGB">
   <feGaussianBlur stdDeviation="2.32"/>
  </filter>
  <filter id="filter4569" x="-.01" y="-.01" width="1.023" height="1.025" style="color-interpolation-filters:sRGB">
   <feGaussianBlur stdDeviation="1.16"/>
  </filter>
  <filter id="filter1682" x="-.05" y="-.05" width="1.092" height="1.1" style="color-interpolation-filters:sRGB">
   <feGaussianBlur stdDeviation=".686"/>
  </filter>
 </defs>
 <g transform="translate(0,-229.26666)">
  <path transform="matrix(.26458333 0 0 .26458333 -1.8735229e-8 232.67026)" d="m162.53675 3.5680001c72.64865 0 83.03125 10.356615 83.03125 82.937505v58.125005c0 72.58059-10.3826 82.9375-83.03125 82.9375h-73.937496c-72.648654 0-83.031254-10.35691-83.031254-82.9375v-58.125005c0-72.58089 10.3826-82.937505 83.031254-82.937505z" style="filter:url(#filter4569);opacity:.1"/>
  <path transform="matrix(.26458333 0 0 .26458333 -1.8735229e-8 232.67026)" d="m162.53675 5.5680001c72.64865 0 83.03125 10.356615 83.03125 82.937505v58.125005c0 72.58059-10.3826 82.9375-83.03125 82.9375h-73.937496c-72.648654 0-83.031254-10.35691-83.031254-82.9375v-58.125005c0-72.58089 10.3826-82.937505 83.031254-82.937505z" style="filter:url(#filter904);opacity:.2"/>
  <path d="m43.004513 233.61429c19.221622 0 21.968685 2.74019 21.968685 21.94388v15.37891c0 19.20362-2.747063 21.94388-21.968685 21.94388h-19.56263c-19.221622 0-21.968685-2.74026-21.968685-21.94388v-15.37891c0-19.20369 2.7470629-21.94388 21.968685-21.94388z" style="fill:#de3535"/>
  <path transform="matrix(.13229167 0 0 .13229167 -4.8768016 261.66013)" d="M 361.9375,-212 C 507.2348,-212 528,-191.28677 528,-46.125 V 70.125 C 528,215.28618 507.2348,236 361.9375,236 H 214.0625 C 68.7652,236 48,215.28618 48,70.125 V -46.125 C 48,-191.28677 68.7652,-212 214.0625,-212 Z" clip-path="url(#clipPath1082-3-36753)" style="fill:none;opacity:.5;stroke-linecap:round;stroke-linejoin:round;stroke-width:8;stroke:url(#linearGradient1108)"/>
  <path d="m23.441093 292.88175c-19.221623 0-21.968687-2.73912-21.968687-21.93528v-7.68645h63.500006v7.68645c0 19.19616-2.747062 21.93528-21.968687 21.93528z" style="fill:#ffffff;opacity:.25"/>
  <path d="m32.69188 279.39756c-5.878785-1.6307-8.137858-8.62878-5.043891-15.62479 0.480624-1.08678 0.87228-2.07527 0.870347-2.19665-0.0019-0.12137-1.209778-0.25411-2.684097-0.29497-4.746645-0.13154-8.534902-1.82496-9.880318-4.41667-0.765959-1.47549-0.782006-4.6812-0.03068-6.1282 0.959924-1.84875 2.831714-3.21533 5.028711-3.67142 2.358456-0.48961 2.522078-0.46405 11.62684 1.81624 6.435984 1.61189 7.334363 1.75449 10.230555 1.62397 2.59656-0.11703 3.537111-0.32435 5.162581-1.13799 1.094746-0.54799 2.243657-0.89664 2.55764-0.77615 2.548914 0.97811-4.334182 4.5387-9.716827 5.02646-3.202532 0.29021-6.237458-0.15661-13.406853-1.97385-6.875436-1.74273-8.025501-1.78188-9.259625-0.3152-0.691501 0.8218-0.913304 1.47763-0.913304 2.70045 0 1.42546 0.165741 1.77273 1.41182 2.95809 1.838867 1.74927 4.162237 2.43007 8.265404 2.42194l3.199165-6e-3 1.16902-1.78744c0.891124-1.36254 1.595985-1.97588 2.965128-2.58012 0.98786-0.43597 2.158898-0.72332 2.602308-0.63855 0.798977 0.15273 0.794847 0.17121-0.460967 2.0626-0.696941 1.04967-1.203414 1.96208-1.125494 2.02758s1.252922-0.1628 2.611116-0.50733c2.25268-0.57142 2.50763-0.57714 2.904439-0.0652 0.828156 1.06854-0.181623 1.56605-5.373883 2.64766l-2.116667 0.44093-1.257342 2.53604c-3.732766 7.52893-2.374711 14.2209 2.885963 14.2209 1.042229 0 2.298929-0.27959 3.104969-0.6908 4.623271-2.35862 7.365143-10.59809 3.526757-10.59809-2.080925 0-4.614464 2.09904-5.904402 4.89179-0.685064 1.48319-1.048845 1.81662-1.706593 1.56422-1.703757-0.65379 1.537419-6.02033 4.570625-7.56775 3.859858-1.96916 7.455635-3e-3 7.454185 4.07561-0.0021 6.03835-7.396427 11.5913-13.266633 9.96298z"/>
  <path d="m32.69188 279.39756c-5.878785-1.6307-8.137858-8.62878-5.043891-15.62479 0.480624-1.08678 0.87228-2.07527 0.870347-2.19665-0.0019-0.12137-1.209778-0.25411-2.684097-0.29497-4.746645-0.13154-8.534902-1.82496-9.880318-4.41667-0.765959-1.47549-0.782006-4.6812-0.03068-6.1282 0.959924-1.84875 2.831714-3.21533 5.028711-3.67142 2.358456-0.48961 2.522078-0.46405 11.62684 1.81624 6.435984 1.61189 7.334363 1.75449 10.230555 1.62397 2.59656-0.11703 3.537111-0.32435 5.162581-1.13799 1.094746-0.54799 2.243657-0.89664 2.55764-0.77615 2.548914 0.97811-4.334182 4.5387-9.716827 5.02646-3.202532 0.29021-6.237458-0.15661-13.406853-1.97385-6.875436-1.74273-8.025501-1.78188-9.259625-0.3152-0.691501 0.8218-0.913304 1.47763-0.913304 2.70045 0 1.42546 0.165741 1.77273 1.41182 2.95809 1.838867 1.74927 4.162237 2.43007 8.265404 2.42194l3.199165-6e-3 1.16902-1.78744c0.891124-1.36254 1.595985-1.97588 2.965128-2.58012 0.98786-0.43597 2.158898-0.72332 2.602308-0.63855 0.798977 0.15273 0.794847 0.17121-0.460967 2.0626-0.696941 1.04967-1.203414 1.96208-1.125494 2.02758s1.252922-0.1628 2.611116-0.50733c2.25268-0.57142 2.50763-0.57714 2.904439-0.0652 0.828156 1.06854-0.181623 1.56605-5.373883 2.64766l-2.116667 0.44093-1.257342 2.53604c-3.732766 7.52893-2.374711 14.2209 2.885963 14.2209 1.042229 0 2.298929-0.27959 3.104969-0.6908 4.623271-2.35862 7.365143-10.59809 3.526757-10.59809-2.080925 0-4.614464 2.09904-5.904402 4.89179-0.685064 1.48319-1.048845 1.81662-1.706593 1.56422-1.703757-0.65379 1.537419-6.02033 4.570625-7.56775 3.859858-1.96916 7.455635-3e-3 7.454185 4.07561-0.0021 6.03835-7.396427 11.5913-13.266633 9.96298z" style="filter:url(#filter1682);opacity:.3"/>
 </g>
</svg>
