<svg width="256" height="256" version="1.1" viewBox="0 0 67.73 67.73" xmlns="http://www.w3.org/2000/svg" xmlns:xlink="http://www.w3.org/1999/xlink">
 <defs>
  <linearGradient id="linearGradient1108" x1="296" x2="296" y1="-212" y2="202.4" gradientUnits="userSpaceOnUse">
   <stop style="stop-color:#ffffff" offset="0"/>
   <stop style="stop-color:#ffffff;stop-opacity:.09803922" offset=".135"/>
   <stop style="stop-color:#ffffff;stop-opacity:0" offset="1"/>
  </linearGradient>
  <clipPath id="clipPath1082-3-3675">
   <path d="M 361.9375,-212 C 507.2348,-212 528,-191.28677 528,-46.125 V 70.125 C 528,215.28618 507.2348,236 361.9375,236 H 214.0625 C 68.7652,236 48,215.28618 48,70.125 V -46.125 C 48,-191.28677 68.7652,-212 214.0625,-212 Z" style="fill:#8c59d9"/>
  </clipPath>
  <filter id="filter910" x="-.02" y="-.03" width="1.046" height="1.05" style="color-interpolation-filters:sRGB">
   <feGaussianBlur stdDeviation="2.32"/>
  </filter>
  <filter id="filter4569" x="-.01" y="-.01" width="1.023" height="1.025" style="color-interpolation-filters:sRGB">
   <feGaussianBlur stdDeviation="1.16"/>
  </filter>
 </defs>
 <g transform="translate(0,-229.26666)">
  <g transform="matrix(.12974173 0 0 .12974173 3.8344818 227.85345)" style="enable-background:new">
   <path d="m301.90773 44.402363c148.15296 0 169.32628 21.120327 169.32628 169.1351v118.53478c0 148.01417-21.17332 169.1351-169.32628 169.1351h-150.78132c-148.15297 0-169.32628-21.12093-169.32628-169.1351v-118.53478c0-148.01477 21.17331-169.1351 169.32628-169.1351z" style="fill:none;opacity:.2;stroke-linecap:round;stroke-linejoin:round;stroke-width:8.1572313;stroke:#000000"/>
   <path transform="matrix(2.0393079,0,0,2.0393079,-29.55473,37.126102)" d="m162.53675 3.5680001c72.64865 0 83.03125 10.356615 83.03125 82.937505v58.125005c0 72.58059-10.3826 82.9375-83.03125 82.9375h-73.937496c-72.648654 0-83.031254-10.35691-83.031254-82.9375v-58.125005c0-72.58089 10.3826-82.937505 83.031254-82.937505z" style="filter:url(#filter4569);opacity:.1"/>
   <path transform="matrix(2.0393079,0,0,2.0393079,-29.55473,37.126102)" d="m162.53675 5.5680001c72.64865 0 83.03125 10.356615 83.03125 82.937505v58.125005c0 72.58059-10.3826 82.9375-83.03125 82.9375h-73.937496c-72.648654 0-83.031254-10.35691-83.031254-82.9375v-58.125005c0-72.58089 10.3826-82.937505 83.031254-82.937505z" style="filter:url(#filter910);opacity:.2"/>
   <path d="m302.68452 44.402363c148.15296 0 169.32628 21.120327 169.32628 169.1351v118.53478c0 148.01417-21.17332 169.1351-169.32628 169.1351h-150.78132c-148.15297 0-169.32628-21.12093-169.32628-169.1351v-118.53478c0-148.01477 21.17331-169.1351 169.32628-169.1351z" style="fill:#109467"/>
   <path transform="matrix(1.0196539,0,0,1.0196539,-67.14326,260.569)" d="M 361.9375,-212 C 507.2348,-212 528,-191.28677 528,-46.125 V 70.125 C 528,215.28618 507.2348,236 361.9375,236 H 214.0625 C 68.7652,236 48,215.28618 48,70.125 V -46.125 C 48,-191.28677 68.7652,-212 214.0625,-212 Z" clip-path="url(#clipPath1082-3-3675)" style="fill:none;opacity:.5;stroke-linecap:round;stroke-linejoin:round;stroke-width:8;stroke:url(#linearGradient1108)"/>
   <g transform="matrix(.89473684 0 0 .89473684 15.091744 41.450434)">
    <path d="m114.23199 189.38668a9.7485267 9.261131 0 0 0-7.44393 3.56301c-51.114308 62.239-42.345199 121.49087-43.464196 180.71873a9.7485267 9.261131 0 0 0 18.543218 4.17792s14.810906-29.23939 29.547268-65.85236c14.73633-36.61297 29.7536-80.10087 29.39493-112.24382a9.7485267 9.261131 0 0 0-9.00505-9.1336l-16.58224-1.21175a9.7485267 9.261131 0 0 0-0.99-0.0204z" style="fill:#ffcc0f"/>
    <path d="m358.36581 189.38672a9.7485267 9.261131 0 0 1 7.44393 3.56301c51.11431 62.23896 42.3452 121.49087 43.46417 180.71869a9.7485267 9.261131 0 0 1-18.5432 4.17796s-14.81093-29.23941-29.54726-65.85236c-14.73633-36.61301-29.75358-80.10091-29.39497-112.24382a9.7485267 9.261131 0 0 1 9.00509-9.13361l16.58225-1.21178a9.7485267 9.261131 0 0 1 0.98999-0.0204z" style="fill:#ffcc0f"/>
    <path d="m236.29891 64.83833c-3.46695-7.1e-5 -0.49766-28.776316-0.43956-25.416848 0.43956 25.416848-107.0589 77.932018-119.22539 135.73566-7.64102 26.49951-31.609417 92.78785-32.554803 142.95466 0.0016 74.11551 68.152993 134.19381 152.21975 134.19503 84.06675-9.8e-4 152.21824-60.07952 152.21974-134.19503-0.94539-50.16681-24.91379-116.45515-32.5548-142.95466-12.87315-61.16097-56.50705-110.32004-119.66494-110.31881z" style="fill:#ffcc0f"/>
    <ellipse transform="matrix(-.97084588 .23970456 .25719226 .96636025 0 0)" cx="-206.881" cy="272.349" rx="33.509" ry="45.79" style="fill:#ffffff"/>
    <g transform="matrix(6.9190798,0,0,6.9190798,7.9693018,37.162017)">
     <ellipse transform="matrix(.97084588 .23970456 -.25719226 .96636026 0 0)" cx="35.555" cy="17.568" rx="4.843" ry="6.618" style="fill:#ffffff"/>
     <path transform="translate(.99999538)" d="m30.527344 25a2.8694952 3.6077689 23.592526 0 0-3.347656 2.875 2.8694952 3.6077689 23.592526 0 0 1.720703 4.044922 4.8408371 6.6193881 16.09371 0 0 4.044921-3.345703 2.8694952 3.6077689 23.592526 0 0-1.923828-3.517578 2.8694952 3.6077689 23.592526 0 0-0.49414-0.056641z" style="fill:#109467"/>
    </g>
    <path d="m236.29891 134.02914-1.57083 8.9948c-15.23532 2.20712-25.98054 6.39207-37.17604 10.37861 0 0 15.18768-19.37341 38.74687-19.37341z" style="fill:#913806;opacity:.7"/>
    <path d="m255.67232 134.02914 1.53289 8.86468c15.26033 2.29289 26.01103 6.49665 37.21397 10.50873 0 0-15.13323-19.1867-38.74686-19.37341z" style="fill:#913806;opacity:.7"/>
    <path d="m260.32647 210.13902a24.962441 19.854266 66.407474 0 0-3.41897 0.39188 24.962441 19.854266 66.407474 0 0-13.31114 24.33842 45.800073 33.494138 73.90629 0 0 27.98713 23.14918 24.962441 19.854266 66.407474 0 0 11.90567-27.98713 24.962441 19.854266 66.407474 0 0-23.16269-19.89235z" style="fill:#109467"/>
   </g>
  </g>
 </g>
</svg>
