<svg width="256" height="256" version="1.1" viewBox="0 0 67.73 67.73" xmlns="http://www.w3.org/2000/svg" xmlns:xlink="http://www.w3.org/1999/xlink">
 <defs>
  <linearGradient id="linearGradient1108" x1="296" x2="296" y1="-212" y2="236" gradientTransform="translate(0,2e-6)" gradientUnits="userSpaceOnUse">
   <stop style="stop-color:#ffffff" offset="0"/>
   <stop style="stop-color:#ffffff;stop-opacity:.09803922" offset=".125"/>
   <stop style="stop-color:#000000;stop-opacity:.09803922" offset=".925"/>
   <stop style="stop-color:#000000;stop-opacity:.49803922" offset="1"/>
  </linearGradient>
  <clipPath id="clipPath1082-3-367">
   <path d="M 361.9375,-212 C 507.2348,-212 528,-191.28677 528,-46.125 V 70.125 C 528,215.28618 507.2348,236 361.9375,236 H 214.0625 C 68.7652,236 48,215.28618 48,70.125 V -46.125 C 48,-191.28677 68.7652,-212 214.0625,-212 Z" style="fill:#8c59d9"/>
  </clipPath>
  <clipPath id="clipPath1032-5">
   <path d="M 188.96875,44 C 261.6174,44 272,54.356615 272,126.9375 v 58.125 C 272,257.64309 261.6174,268 188.96875,268 h -73.9375 C 42.3826,268 32,257.64309 32,185.0625 v -58.125 C 32,54.356615 42.3826,44 115.03125,44 Z" style="fill:#76c22b"/>
  </clipPath>
  <linearGradient id="linearGradient920" x1="24" x2="280" y1="44" y2="268" gradientTransform="matrix(.26458333 0 0 .26458333 -6.993468 221.97263)" gradientUnits="userSpaceOnUse">
   <stop style="stop-color:#fee581" offset="0"/>
   <stop style="stop-color:#fff4c9" offset="1"/>
  </linearGradient>
  <filter id="filter929" x="-.02" y="-.03" width="1.046" height="1.05" style="color-interpolation-filters:sRGB">
   <feGaussianBlur stdDeviation="2.32"/>
  </filter>
  <filter id="filter4569" x="-.01" y="-.01" width="1.023" height="1.025" style="color-interpolation-filters:sRGB">
   <feGaussianBlur stdDeviation="1.16"/>
  </filter>
 </defs>
 <g transform="translate(0,-229.26666)">
  <path transform="matrix(.26458333 0 0 .26458333 -1.8735229e-8 232.67026)" d="m162.53675 3.5680001c72.64865 0 83.03125 10.356615 83.03125 82.937505v58.125005c0 72.58059-10.3826 82.9375-83.03125 82.9375h-73.937496c-72.648654 0-83.031254-10.35691-83.031254-82.9375v-58.125005c0-72.58089 10.3826-82.937505 83.031254-82.937505z" style="filter:url(#filter4569);opacity:.1"/>
  <path transform="matrix(.26458333 0 0 .26458333 -1.8735229e-8 232.67026)" d="m162.53675 5.5680001c72.64865 0 83.03125 10.356615 83.03125 82.937505v58.125005c0 72.58059-10.3826 82.9375-83.03125 82.9375h-73.937496c-72.648654 0-83.031254-10.35691-83.031254-82.9375v-58.125005c0-72.58089 10.3826-82.937505 83.031254-82.937505z" style="filter:url(#filter929);opacity:.2"/>
  <path d="m43.004513 233.61429c19.221622 0 21.968685 2.74019 21.968685 21.94388v15.37891c0 19.20362-2.747063 21.94388-21.968685 21.94388h-19.56263c-19.221621 0-21.968684-2.74026-21.968684-21.94388v-15.37891c0-19.20369 2.747063-21.94388 21.968684-21.94388z" style="fill:url(#linearGradient920)"/>
  <g transform="matrix(.26458333 0 0 .26458333 -6.993468 221.97263)" clip-path="url(#clipPath1032-5)" style="enable-background:new">
   <path d="m24 147v1h256.20001v-1z" style="fill-opacity:.99607843;fill:#5c81df;opacity:.1"/>
   <path d="m24 171v1h256.20001v-1z" style="fill-opacity:.99607843;fill:#5c81df;opacity:.1"/>
   <path d="m24 219v1h256.20001v-1z" style="fill-opacity:.99607843;fill:#5c81df;opacity:.1"/>
   <path d="m67 92h1v192h-1z" style="fill-opacity:.99607843;fill:#ef5145;opacity:.3"/>
   <path d="m24 123v1h256.20001v-1z" style="fill-opacity:.99607843;fill:#5c81df;opacity:.1"/>
   <path d="m24 243v1h256.20001v-1z" style="fill-opacity:.99607843;fill:#5c81df;opacity:.1"/>
   <path d="m24 195v1h256.20001v-1z" style="fill-opacity:.99607843;fill:#5c81df;opacity:.1"/>
  </g>
  <path d="m3.589865 246.84346c-0.29225 0-0.529166 0.23692-0.529166 0.52917s0.236916 0.52916 0.529166 0.52916c0.292251 0 0.529167-0.23691 0.529167-0.52916s-0.236916-0.52917-0.529167-0.52917zm2.116667 0c-0.2922509 0-0.5291667 0.23692-0.5291667 0.52917s0.2369158 0.52916 0.5291667 0.52916c0.2922508 0 0.5291666-0.23691 0.5291666-0.52916s-0.2369158-0.52917-0.5291666-0.52917zm2.1166666 0c-0.2922508 0-0.5291666 0.23692-0.5291666 0.52917s0.2369158 0.52916 0.5291666 0.52916 0.5291667-0.23691 0.5291667-0.52916-0.2369159-0.52917-0.5291667-0.52917zm2.1166667 0c-0.2922508 0-0.5291667 0.23692-0.5291667 0.52917s0.2369159 0.52916 0.5291667 0.52916c0.2922507 0 0.5291667-0.23691 0.5291667-0.52916s-0.236916-0.52917-0.5291667-0.52917zm2.1166667 0c-0.292251 0-0.529167 0.23692-0.529167 0.52917s0.236916 0.52916 0.529167 0.52916 0.529166-0.23691 0.529166-0.52916-0.236915-0.52917-0.529166-0.52917zm2.116666 0c-0.29225 0-0.529166 0.23692-0.529166 0.52917s0.236916 0.52916 0.529166 0.52916c0.292251 0 0.529167-0.23691 0.529167-0.52916s-0.236916-0.52917-0.529167-0.52917zm2.116667 0c-0.292251 0-0.529167 0.23692-0.529167 0.52917s0.236916 0.52916 0.529167 0.52916 0.529167-0.23691 0.529167-0.52916-0.236916-0.52917-0.529167-0.52917zm2.116667 0c-0.292251 0-0.529167 0.23692-0.529167 0.52917s0.236916 0.52916 0.529167 0.52916 0.529166-0.23691 0.529166-0.52916-0.236915-0.52917-0.529166-0.52917zm2.116666 0c-0.29225 0-0.529166 0.23692-0.529166 0.52917s0.236916 0.52916 0.529166 0.52916c0.292251 0 0.529167-0.23691 0.529167-0.52916s-0.236916-0.52917-0.529167-0.52917zm2.116667 0c-0.292251 0-0.529167 0.23692-0.529167 0.52917s0.236916 0.52916 0.529167 0.52916 0.529167-0.23691 0.529167-0.52916-0.236916-0.52917-0.529167-0.52917zm2.116667 0c-0.292251 0-0.529167 0.23692-0.529167 0.52917s0.236916 0.52916 0.529167 0.52916 0.529166-0.23691 0.529166-0.52916-0.236915-0.52917-0.529166-0.52917zm2.116665 0c-0.29225 0-0.529165 0.23692-0.529165 0.52917s0.236915 0.52916 0.529165 0.52916c0.292251 0 0.529167-0.23691 0.529167-0.52916s-0.236916-0.52917-0.529167-0.52917zm2.116667 0c-0.292251 0-0.529167 0.23692-0.529167 0.52917s0.236916 0.52916 0.529167 0.52916 0.529167-0.23691 0.529167-0.52916-0.236916-0.52917-0.529167-0.52917zm2.116667 0c-0.292251 0-0.529167 0.23692-0.529167 0.52917s0.236916 0.52916 0.529167 0.52916 0.529166-0.23691 0.529166-0.52916-0.236915-0.52917-0.529166-0.52917zm2.116666 0c-0.29225 0-0.529166 0.23692-0.529166 0.52917s0.236916 0.52916 0.529166 0.52916c0.292251 0 0.529167-0.23691 0.529167-0.52916s-0.236916-0.52917-0.529167-0.52917zm2.116667 0c-0.292251 0-0.529167 0.23692-0.529167 0.52917s0.236916 0.52916 0.529167 0.52916 0.529167-0.23691 0.529167-0.52916-0.236916-0.52917-0.529167-0.52917zm2.116667 0c-0.292251 0-0.529167 0.23692-0.529167 0.52917s0.236916 0.52916 0.529167 0.52916 0.529166-0.23691 0.529166-0.52916-0.236915-0.52917-0.529166-0.52917zm2.116666 0c-0.29225 0-0.529166 0.23692-0.529166 0.52917s0.236916 0.52916 0.529166 0.52916c0.292251 0 0.529167-0.23691 0.529167-0.52916s-0.236916-0.52917-0.529167-0.52917zm2.116667 0c-0.292251 0-0.529167 0.23692-0.529167 0.52917s0.236916 0.52916 0.529167 0.52916 0.529167-0.23691 0.529167-0.52916-0.236916-0.52917-0.529167-0.52917zm2.116667 0c-0.292251 0-0.529167 0.23692-0.529167 0.52917s0.236916 0.52916 0.529167 0.52916 0.529166-0.23691 0.529166-0.52916-0.236915-0.52917-0.529166-0.52917zm2.116666 0c-0.29225 0-0.529166 0.23692-0.529166 0.52917s0.236916 0.52916 0.529166 0.52916c0.292251 0 0.529167-0.23691 0.529167-0.52916s-0.236916-0.52917-0.529167-0.52917zm2.116667 0c-0.292251 0-0.529167 0.23692-0.529167 0.52917s0.236916 0.52916 0.529167 0.52916 0.529167-0.23691 0.529167-0.52916-0.236916-0.52917-0.529167-0.52917zm2.116667 0c-0.292251 0-0.529167 0.23692-0.529167 0.52917s0.236916 0.52916 0.529167 0.52916 0.529166-0.23691 0.529166-0.52916-0.236915-0.52917-0.529166-0.52917zm2.116666 0c-0.29225 0-0.529166 0.23692-0.529166 0.52917s0.236916 0.52916 0.529166 0.52916c0.292251 0 0.529167-0.23691 0.529167-0.52916s-0.236916-0.52917-0.529167-0.52917zm2.116667 0c-0.292251 0-0.529167 0.23692-0.529167 0.52917s0.236916 0.52916 0.529167 0.52916 0.529167-0.23691 0.529167-0.52916-0.236916-0.52917-0.529167-0.52917zm2.116667 0c-0.292251 0-0.529167 0.23692-0.529167 0.52917s0.236916 0.52916 0.529167 0.52916 0.529166-0.23691 0.529166-0.52916-0.236915-0.52917-0.529166-0.52917zm2.116666 0c-0.29225 0-0.529166 0.23692-0.529166 0.52917s0.236916 0.52916 0.529166 0.52916c0.292251 0 0.529167-0.23691 0.529167-0.52916s-0.236916-0.52917-0.529167-0.52917zm2.116667 0c-0.292251 0-0.529166 0.23692-0.529166 0.52917s0.236915 0.52916 0.529166 0.52916 0.529167-0.23691 0.529167-0.52916-0.236916-0.52917-0.529167-0.52917zm2.116667 0c-0.292251 0-0.529167 0.23692-0.529167 0.52917s0.236916 0.52916 0.529167 0.52916 0.529167-0.23691 0.529167-0.52916-0.236916-0.52917-0.529167-0.52917z" style="fill:#fac82e;opacity:.4"/>
  <path d="m64.959246 273.02533-20.089215 19.8453c16.851935-0.18395 19.879387-3.13517 20.089215-19.8453z" style="fill:#ffffff;opacity:.2"/>
  <path d="m23.441883 233.61429c-15.574548 0-20.331895 1.80179-21.576977 12.7h62.716584c-1.245082-10.89821-6.002428-12.7-21.576977-12.7z" style="fill:#fdc92b"/>
  <path d="m16.289865 252.66429v2.11667h33.866666v-2.11667zm0 6.35v2.11667h33.866666v-2.11667zm0 6.35001v2.11666h33.866666v-2.11666zm0 6.35v2.11666h16.95705v-2.11666z" style="fill:#1463a5"/>
  <path transform="matrix(.13229167 0 0 .13229167 -4.876801 261.66013)" d="M 361.9375,-212 C 507.2348,-212 528,-191.28677 528,-46.125 V 70.125 C 528,215.28618 507.2348,236 361.9375,236 H 214.0625 C 68.7652,236 48,215.28618 48,70.125 V -46.125 C 48,-191.28677 68.7652,-212 214.0625,-212 Z" clip-path="url(#clipPath1082-3-367)" style="fill:none;opacity:.4;stroke-linecap:round;stroke-linejoin:round;stroke-width:8;stroke:url(#linearGradient1108)"/>
 </g>
</svg>
