<svg xmlns="http://www.w3.org/2000/svg" xmlns:xlink="http://www.w3.org/1999/xlink" width="256" height="256" version="1.1" viewBox="0 0 67.73 67.73">
 <defs>
  <linearGradient id="linearGradient1108" x1="296" x2="296" y1="-212" y2="236" gradientUnits="userSpaceOnUse" xlink:href="#linearGradient1013"/>
  <linearGradient id="linearGradient1013">
   <stop offset="0" style="stop-color:#ffffff"/>
   <stop style="stop-color:#ffffff;stop-opacity:0.09803922" offset=".125"/>
   <stop style="stop-color:#000000;stop-opacity:0.09803922" offset=".925"/>
   <stop offset="1" style="stop-color:#000000;stop-opacity:0.49803922"/>
  </linearGradient>
  <clipPath id="clipPath1082-3-361" clipPathUnits="userSpaceOnUse">
   <path d="M 361.9375,-212 C 507.2348,-212 528,-191.28677 528,-46.125 V 70.125 C 528,215.28618 507.2348,236 361.9375,236 H 214.0625 C 68.7652,236 48,215.28618 48,70.125 V -46.125 C 48,-191.28677 68.7652,-212 214.0625,-212 Z" style="fill:#8c59d9"/>
  </clipPath>
  <linearGradient id="linearGradient4245">
   <stop offset="0" style="stop-color:#e8e8e8"/>
   <stop offset="1" style="stop-color:#f5f5f5"/>
  </linearGradient>
  <linearGradient id="linearGradient1044" x1="88" x2="256" y1="28" y2="284" gradientTransform="matrix(0.26970781,0,0,0.26970781,-7.1289179,220.5605)" gradientUnits="userSpaceOnUse" xlink:href="#linearGradient4245"/>
  <filter style="color-interpolation-filters:sRGB" id="filter4569" width="1.023" height="1.025" x="-.01" y="-.01">
   <feGaussianBlur stdDeviation="1.16"/>
  </filter>
  <filter style="color-interpolation-filters:sRGB" id="filter939" width="1.046" height="1.05" x="-.02" y="-.03">
   <feGaussianBlur stdDeviation="2.32"/>
  </filter>
 </defs>
 <g transform="translate(0,-229.26666)">
  <path style="opacity:0.2;filter:url(#filter939)" d="m 162.53675,5.5680001 c 72.64865,0 83.03125,10.3566149 83.03125,82.9375049 v 58.125005 c 0,72.58059 -10.3826,82.9375 -83.03125,82.9375 H 88.599254 C 15.9506,229.56801 5.568,219.2111 5.568,146.63051 V 88.505505 c 0,-72.58089 10.3826,-82.9375049 83.031254,-82.9375049 z" transform="matrix(0.26970779,0,0,0.26970779,-1.9098094e-8,231.46531)"/>
  <path d="m 43.837429,232.42763 c 19.593907,0 22.394176,2.79326 22.394176,22.36889 v 15.67677 c 0,19.57555 -2.800269,22.36889 -22.394176,22.36889 H 23.89591 c -19.5939088,0 -22.394177,-2.79334 -22.394177,-22.36889 v -15.67677 c 0,-19.57563 2.8002682,-22.36889 22.394177,-22.36889 z" style="opacity:0.1;fill:none;stroke:#000000;stroke-width:1.07883108;stroke-linecap:round;stroke-linejoin:round"/>
  <path d="m 162.53675,3.5680001 c 72.64865,0 83.03125,10.3566149 83.03125,82.9375049 v 58.125005 c 0,72.58059 -10.3826,82.9375 -83.03125,82.9375 H 88.599254 C 15.9506,227.56801 5.568,217.2111 5.568,144.63051 V 86.505505 c 0,-72.58089 10.3826,-82.9375049 83.031254,-82.9375049 z" transform="matrix(0.26970779,0,0,0.26970779,-1.9098094e-8,231.46531)" style="opacity:0.1;filter:url(#filter4569)"/>
  <path style="fill:url(#linearGradient1044)" d="m 43.837427,232.42763 c 19.593907,0 22.394175,2.79326 22.394175,22.36889 v 15.67677 c 0,19.57555 -2.800268,22.36889 -22.394175,22.36889 h -19.94152 c -19.5939074,0 -22.3941756,-2.79334 -22.3941756,-22.36889 v -15.67677 c 0,-19.57563 2.8002682,-22.36889 22.3941756,-22.36889 z"/>
  <path d="M 361.9375,-212 C 507.2348,-212 528,-191.28677 528,-46.125 V 70.125 C 528,215.28618 507.2348,236 361.9375,236 H 214.0625 C 68.7652,236 48,215.28618 48,70.125 V -46.125 C 48,-191.28677 68.7652,-212 214.0625,-212 Z" clip-path="url(#clipPath1082-3-361)" transform="matrix(0.1348539,0,0,0.1348539,-4.9712559,261.01666)" style="opacity:0.4;fill:none;stroke:url(#linearGradient1108);stroke-width:8;stroke-linecap:round;stroke-linejoin:round"/>
  <g transform="translate(1.508184,0.56282301)">
   <g transform="translate(-0.6944911,0.68630199)">
    <path d="m 33.41201,279.84507 c -0.127254,-0.0524 -0.280207,-0.18674 -0.339897,-0.29828 -0.05968,-0.11152 -0.284773,-1.54822 -0.50018,-3.19261 l -0.391651,-2.98981 1.763768,-1.76378 1.763766,-1.76377 0.60806,0.60807 0.60806,0.60806 -1.471684,1.47451 -1.471686,1.47449 0.334092,2.54423 c 0.335608,2.55576 0.335719,2.88308 0.0011,3.16081 -0.217056,0.18013 -0.643858,0.24535 -0.903732,0.13808 z m -5.699447,-7.9883 c -0.716503,-0.16574 -1.612465,-0.50343 -2.042148,-0.7697 -0.409596,-0.2538 -0.870308,-0.68907 -0.870308,-0.82224 0,-0.0623 1.263044,-1.37569 2.806762,-2.91859 l 2.806764,-2.80526 2.19736,2.20144 2.197364,2.20145 -0.953164,0.92636 c -1.05303,1.02344 -1.624029,1.38705 -2.801331,1.78381 -0.977942,0.32959 -2.415736,0.41683 -3.341299,0.20273 z m -4.021509,-2.61976 c -0.79325,-0.94273 -1.264092,-2.38093 -1.260372,-3.84984 0.005,-1.97514 0.575808,-3.31697 2.07094,-4.86829 l 0.921963,-0.95662 2.203029,2.19738 2.203026,2.19735 -2.805262,2.80677 c -1.542892,1.54372 -2.860935,2.80676 -2.928979,2.80676 -0.06805,0 -0.250003,-0.15007 -0.404345,-0.33351 z m 17.523283,-5.43988 -0.57668,-0.58394 0.903748,-0.90373 0.903748,-0.90376 2.002327,0.32513 c 1.10128,0.17881 2.110684,0.39612 2.243119,0.4829 0.456776,0.29929 0.451098,1.07368 -0.01011,1.37587 -0.228449,0.14967 -0.386934,0.14472 -1.772269,-0.0555 -0.83676,-0.1209 -1.59454,-0.2419 -1.683954,-0.26885 -0.09801,-0.0295 -0.390985,0.18228 -0.737735,0.5334 -0.316346,0.32031 -0.602252,0.5824 -0.635362,0.5824 -0.03311,0 -0.319691,-0.26277 -0.63686,-0.58394 z m -23.458076,-2.00719 c -1.398531,-0.18912 -2.650087,-0.37791 -2.781232,-0.41953 -0.305443,-0.097 -0.58718,-0.63306 -0.493823,-0.93971 0.216183,-0.71006 0.422507,-0.72847 3.627368,-0.32349 l 2.257647,0.28528 1.475723,-1.47289 1.475728,-1.47291 0.607658,0.60765 0.607654,0.60767 -1.74509,1.74749 c -1.618367,1.62059 -1.772095,1.74665 -2.116968,1.7359 -0.204537,-0.006 -1.516133,-0.16634 -2.914665,-0.35546 z m 18.560448,-3.73766 c -1.382961,-1.38386 -2.514473,-2.58829 -2.514473,-2.67651 0,-0.29817 0.636363,-0.93487 1.219531,-1.22019 0.367181,-0.17966 0.828932,-0.30366 1.259327,-0.33821 l 0.679569,-0.0546 0.137586,-0.70114 c 0.176477,-0.89934 0.174538,-3.1196 -0.0037,-4.14312 -0.19644,-1.12852 -0.688761,-2.62434 -1.295567,-3.93632 -0.574082,-1.24123 -0.591217,-1.51745 -0.117255,-1.89027 0.633859,-0.49859 1.102129,-0.16113 1.720162,1.23966 0.619577,1.40426 1.012851,2.58571 1.290888,3.87796 0.190466,0.88527 0.230834,1.40382 0.224219,2.88007 -0.0053,1.1738 -0.06191,2.03451 -0.162774,2.47299 l -0.15471,0.67255 0.778071,0.77808 0.778076,0.77807 0.768302,-0.16825 c 1.197256,-0.26217 3.758864,-0.23009 5.163466,0.0647 1.468752,0.30824 2.762932,0.74738 4.172241,1.41572 0.974267,0.46203 1.176049,0.60026 1.296315,0.88809 0.150278,0.35967 0.109273,0.60367 -0.152747,0.90874 -0.26956,0.31386 -0.822129,0.2229 -2.023991,-0.33323 -2.178738,-1.00814 -3.893851,-1.39981 -6.098368,-1.3926 -0.75724,0.002 -1.66275,0.0642 -2.012243,0.13705 l -0.635445,0.13256 -0.07086,0.71667 c -0.03897,0.39417 -0.172813,0.92729 -0.297429,1.18473 -0.254788,0.52631 -0.965623,1.22287 -1.247936,1.22287 -0.102222,0 -1.317374,-1.13225 -2.700335,-2.51612 z m -5.797753,-4.95052 -0.575406,-0.58264 0.601532,-0.60882 0.601535,-0.6088 -0.207823,-1.27089 c -0.1143,-0.699 -0.207833,-1.41749 -0.207847,-1.59664 -5.1e-5,-0.69566 0.912567,-1.05001 1.411333,-0.54799 0.197715,0.19899 0.285679,0.55075 0.533533,2.13356 l 0.296784,1.89526 -0.880206,0.8848 c -0.484116,0.48664 -0.90672,0.88481 -0.93912,0.88481 -0.0324,0 -0.317839,-0.26219 -0.634315,-0.58265 z"/>
    <path style="fill:#f65314" d="m 33.052973,234.92745 c -14.584044,0 -26.4583324,11.87429 -26.4583324,26.45833 0,14.58405 11.8742884,26.45833 26.4583324,26.45833 14.584045,0 26.458334,-11.87428 26.458334,-26.45833 0,-14.58404 -11.874289,-26.45833 -26.458334,-26.45833 z m 0,4.81066 c 11.984199,0 21.647672,9.66347 21.647672,21.64767 0,5.06415 -1.725711,9.71365 -4.622769,13.39494 -9.760627,-9.69695 -22.857822,-22.00076 -30.023799,-30.72391 3.616212,-2.71319 8.114645,-4.3187 12.998896,-4.3187 z m -16.821711,8.00034 c 7.664202,9.26075 20.553093,21.30354 30.089946,30.77 -3.661113,2.83762 -8.261749,4.525 -13.268235,4.525 -11.984199,0 -21.64767,-9.66347 -21.64767,-21.64767 0,-5.18093 1.807121,-9.92714 4.825959,-13.64733 z"/>
   </g>
  </g>
  <path style="opacity:0.1;fill:#ffffff" d="m 33.866666,232.42763 v 60.41455 h 9.970761 c 19.593907,0 22.394175,-2.79334 22.394175,-22.36889 v -15.67677 c 0,-19.57563 -2.800268,-22.36889 -22.394175,-22.36889 z"/>
  <path style="opacity:0.1;fill:#ffffff" d="m 23.895907,292.84218 c -19.5939074,0 -22.3941756,-2.79326 -22.3941756,-22.36889 v -7.83838 H 66.231602 v 7.83838 c 0,19.57563 -2.800268,22.36889 -22.394175,22.36889 z"/>
 </g>
</svg>
