<svg width="256" height="256" version="1.1" viewBox="0 0 67.73 67.73" xmlns="http://www.w3.org/2000/svg" xmlns:xlink="http://www.w3.org/1999/xlink">
 <defs>
  <linearGradient id="linearGradient1108" x1="296" x2="296" y1="-212" y2="236" gradientUnits="userSpaceOnUse">
   <stop style="stop-color:#ffffff" offset="0"/>
   <stop style="stop-color:#ffffff;stop-opacity:.09803922" offset=".125"/>
   <stop style="stop-color:#000000;stop-opacity:.09803922" offset=".925"/>
   <stop style="stop-color:#000000;stop-opacity:.49803922" offset="1"/>
  </linearGradient>
  <clipPath id="clipPath1082-3-361">
   <path d="M 361.9375,-212 C 507.2348,-212 528,-191.28677 528,-46.125 V 70.125 C 528,215.28618 507.2348,236 361.9375,236 H 214.0625 C 68.7652,236 48,215.28618 48,70.125 V -46.125 C 48,-191.28677 68.7652,-212 214.0625,-212 Z" style="fill:#8c59d9"/>
  </clipPath>
  <linearGradient id="linearGradient1044" x1="88" x2="256" y1="28" y2="284" gradientTransform="matrix(.26970778 0 0 .26970778 -7.1289169 220.56047)" gradientUnits="userSpaceOnUse">
   <stop style="stop-color:#e8e8e8" offset="0"/>
   <stop style="stop-color:#f5f5f5" offset="1"/>
  </linearGradient>
  <filter id="filter4569" x="-.01" y="-.01" width="1.023" height="1.025" style="color-interpolation-filters:sRGB">
   <feGaussianBlur stdDeviation="1.16"/>
  </filter>
  <filter id="filter939" x="-.02" y="-.03" width="1.046" height="1.05" style="color-interpolation-filters:sRGB">
   <feGaussianBlur stdDeviation="2.32"/>
  </filter>
  <filter id="filter5063" x="-.09" y="-.17" width="1.183" height="1.35" style="color-interpolation-filters:sRGB">
   <feGaussianBlur stdDeviation=".404"/>
  </filter>
  <filter id="filter4911" x="-.14" y="-.51" width="1.289" height="2.012" style="color-interpolation-filters:sRGB">
   <feGaussianBlur stdDeviation=".937"/>
  </filter>
  <linearGradient id="linearGradient3887" x1="150.332" x2="153.462" y1="245.592" y2="244.329" gradientTransform="matrix(.72348176 0 0 .72348176 -62.291854 90.632751)" gradientUnits="userSpaceOnUse">
   <stop style="stop-color:#4f9a05" offset="0"/>
   <stop style="stop-color:#b5ea81" offset="1"/>
  </linearGradient>
 </defs>
 <g transform="translate(0,-229.26666)">
  <path transform="matrix(.26970779 0 0 .26970779 -1.9098095e-8 231.46531)" d="m162.53675 5.5680001c72.64865 0 83.03125 10.356615 83.03125 82.937505v58.125005c0 72.58059-10.3826 82.9375-83.03125 82.9375h-73.937496c-72.648654 0-83.031254-10.35691-83.031254-82.9375v-58.125005c0-72.58089 10.3826-82.937505 83.031254-82.937505z" style="filter:url(#filter939);opacity:.2"/>
  <path d="m43.837427 232.42762c19.593907 0 22.394175 2.79326 22.394175 22.3689v15.67676c0 19.57556-2.800268 22.3689-22.394175 22.3689h-19.941518c-19.593908 0-22.394176-2.79334-22.394176-22.3689v-15.67676c0-19.57564 2.8002681-22.3689 22.394176-22.3689z" style="fill:none;opacity:.1;stroke-linecap:round;stroke-linejoin:round;stroke-width:1.0788311;stroke:#000000"/>
  <path transform="matrix(.26970779 0 0 .26970779 -1.9098095e-8 231.46531)" d="m162.53675 3.5680001c72.64865 0 83.03125 10.356615 83.03125 82.937505v58.125005c0 72.58059-10.3826 82.9375-83.03125 82.9375h-73.937496c-72.648654 0-83.031254-10.35691-83.031254-82.9375v-58.125005c0-72.58089 10.3826-82.937505 83.031254-82.937505z" style="filter:url(#filter4569);opacity:.1"/>
  <path d="m43.837425 232.42762c19.593907 0 22.394175 2.79326 22.394175 22.3689v15.67676c0 19.57556-2.800268 22.3689-22.394175 22.3689h-19.941519c-19.593906 0-22.394175-2.79334-22.394175-22.3689v-15.67676c0-19.57564 2.8002681-22.3689 22.394175-22.3689z" style="fill:url(#linearGradient1044)"/>
  <path transform="matrix(.1348539 0 0 .1348539 -4.9712558 261.01666)" d="M 361.9375,-212 C 507.2348,-212 528,-191.28677 528,-46.125 V 70.125 C 528,215.28618 507.2348,236 361.9375,236 H 214.0625 C 68.7652,236 48,215.28618 48,70.125 V -46.125 C 48,-191.28677 68.7652,-212 214.0625,-212 Z" clip-path="url(#clipPath1082-3-361)" style="fill:none;opacity:.4;stroke-linecap:round;stroke-linejoin:round;stroke-width:8;stroke:url(#linearGradient1108)"/>
  <path d="m23.895906 292.84218c-19.593906 0-22.394175-2.79326-22.394175-22.3689v-7.83838h64.729869v7.83838c0 19.57564-2.800268 22.3689-22.394175 22.3689z" style="fill:#ffffff;opacity:.25"/>
  <path d="m33.866665 232.42762v60.41456h9.97076c19.593907 0 22.394175-2.79334 22.394175-22.3689v-15.67676c0-19.57564-2.800268-22.3689-22.394175-22.3689z" style="fill:#ffffff;opacity:.2"/>
  <g transform="translate(-1.8361457,1.0514574)">
   <path d="m42.377445 268.14298c-0.549088 0.70978-2.196028 3.99605-0.03069 5.20948 0.816333 0.45744 2.739644 0.43256 4.74623 0.20481 2.954684-0.3353 2.553383-1.71263 2.280464-3.63176-0.23073-1.62237-2.23495-4.03884-2.512094-4.7677l-3.860804-0.60164-0.623127 3.58675z" style="fill-rule:evenodd;fill:url(#linearGradient3887);stroke-width:.72348166px;stroke:#000000"/>
   <path d="m47.845315 263.91027c-1.283043 2.21408-3.138492 5.85684-6.392487 5.22976l1.095566-4.77758z" style="fill-rule:evenodd;fill:#376274;stroke-width:.72348166px;stroke:#000000"/>
   <path d="m47.19935 256.74004s4.13851 0.61034 5.186653-3.85958c0.56226-2.39784 1.212026-3.91139 3.199823-5.02014 2.615493-0.19852 3.779438 4.10062 6.603179 6.25479 0.847112 0.64622 1.546914 1.61087 1.52013 2.20985-0.02879 0.64351-0.7221 1.08121-1.132553 1.42187-0.602394 0.22887-5.27614 1.39942-6.376687-0.14876 0.130568-0.69606 0.3343-1.24574 0.367303-1.22093-0.402284 0.62298-0.650588 1.10437-1.485487 1.33739 0.690215-0.0546-0.410575 6e-3 0.770197-0.22395 1.11306 1.39133 3.30712 1.18146 3.953959 1.2361-0.239673 1.39206-1.737315 2.20861-5.307101 1.43699-2.43284 3.84152-8.458002 3.97951-10.981419 5.03852-0.06831-3.62464-0.431499-6.85667 3.682003-8.46215z" style="fill-rule:evenodd;fill:#dfecdf;stroke-width:.72348166px;stroke:#000000"/>
   <path d="m60.541774 252.08221c-5.008732 0.74088-5.427928 3.03276-6.99396 4.76548-2.134142 2.36133-4.109848 3.80403-8.80175 4.38063-0.0084 0.75768-1.085742 2.99796-1.070457 3.80874 2.523417-1.05904 8.555035-1.20021 10.987881-5.04177 3.569789 0.77165 5.073395-0.0323 5.313068-1.42433-0.646837-0.0547-2.843478 0.14793-3.95654-1.24351-0.268027 0.052-0.394247 0.0861-0.474785 0.11292 0.591469-0.25812 0.829104-0.68417 1.175657-1.22085-0.03297-0.0246-0.231167 0.52482-0.36174 1.22085 1.100546 1.5481 5.773291 0.38712 6.375683 0.15834 0.410452-0.34066 1.101673-0.78085 1.130439-1.42437 0.02679-0.59898-0.66768-1.56942-1.514789-2.21564-0.689044-0.52566-1.272119-1.19196-1.808707-1.87655zm-5.109586 5.42612c0.04132 0.0191 0.164229 0.0191-0.180882 0.0451 0.06787-0.0191 0.120368-0.0219 0.180882-0.0451z" style="fill-rule:evenodd;fill:#447444"/>
   <ellipse cx="60.628" cy="250.205" rx="2.4" ry="3.562" style="fill:#a7d2d0;stroke-width:.70456034;stroke:#000000"/>
   <path d="m56.155668 249.64048c-2.571261 2.22869-1.710347 7.29121-5.787854 8.25219-1.22785 0.0285-4.460049 0.55536-4.612195 3.0748-1.263714 3.63719 3.26854 1.18081 5.132198 0.58782 1.401464-0.41275 4.578886-3.22885 1.356526-2.6452-0.273712-1.23222 3.297872-2.31407 4.520729-4.1651 3.99434-4.54347-0.907535 3.97833 3.414964 2.08507 1.909673 0.18977 2.639252-1.05043 0.746088-1.96695-2.67372-1.29243 0.121249-3.06895-1.918506-3.75854-0.07332 3.31776-1.339663-1.78012-2.85195-1.46409z" style="fill-rule:evenodd;fill:#76b676"/>
   <ellipse cx="61.217" cy="250.28" rx=".388" ry="1.357" style="fill:#000606;stroke-width:.72348166;stroke:#000000"/>
   <ellipse cx="57.99" cy="250.471" rx="2.568" ry="3.935" style="fill:#a7d2d0;stroke-width:.7025426;stroke:#000000"/>
   <path d="m14.965653 264.42704c-0.362898-0.36379-1.03465-1.08284-1.550311-1.48571-1.260037-0.98449-2.147249-1.63594-3.359024-2.39008-1.2887837-0.80208-2.2372167-1.68328-2.325473-3.22984 2.347177 1.19514 4.765089 1.38481 7.36401 2.58386 0.66747 0.30795 1.808703 0.38632 1.808703 1.03356 0 0.7636 0.05549 1.4394-0.258401 2.06708-0.181812 0.36362-1.289266 1.10895-1.679515 1.42113z" style="fill-rule:evenodd;fill:#4f9a05;stroke-width:.72348166px;stroke:#000000"/>
   <path d="m16.515974 261.06803c3.276569-11.65295 20.156244-17.58667 28.810077-5.94291 0.842699 2.33497-3.859783 9.07117-2.842248 11.49821-3.669398 1.06742-9.390193-0.38266-13.823667 1.29192 0 0-5.560406-1.98868-6.976434-2.97144-1.301115-0.90301-5.433947-2.80308-5.167728-3.87578z" style="fill:#363d48;stroke-width:.72348166px;stroke:#000000"/>
   <path d="m25.624097 266.81711c-0.404646 1.52471-1.947765 4.13213-1.098145 4.78014 0.729993 0.55679 1.946476 0.79567 3.294424 1.03357 1.098138 0.19386 1.879286-1.75828 2.131687-3.16524 0.232563-1.29633-0.199886-1.71042-0.387581-2.39009z" style="opacity:0"/>
   <path d="m24.816639 268.81961s-0.687271 1.90504-0.419878 2.16399c0.537656 0.52063 1.921747 1.09812 3.488216 1.5503 1.566466 0.45217 1.639134 0.45217 2.454663 0.19388 0.75706-0.23981 0.549072-3.94039 0.549072-3.94039l-6.072073 0.0323z" style="fill-rule:evenodd;stroke-width:.72348166px;stroke:#000000"/>
   <path d="m30.154501 267.55524c-1.194294 2.02909-2.609844 3.71267-2.5103 5.0278 0.109759 1.4504 1.300322 2.45216 1.795928 2.69874 0.693495 0.34506 2.980359 0.89891 6.092606 1.0819 2.586368 0.15204 3.697166-1.2744 3.674753-5.84123-0.01258-2.55742-0.673708-2.70544-0.673708-2.70544z" style="fill-rule:evenodd;fill:#4f9a05;stroke-width:.6873005px;stroke:#000000"/>
   <path d="m15.902318 263.94255c-1.409364 0.97005-2.8677 2.56398-3.341704 3.85349-0.53296 1.44989-0.862643 4.41824 0.208746 5.38385 2.932805 2.64317 5.316604 1.64209 6.764277 1.56767 1.007473-0.0516 1.175355-2.74837 1.213396-3.79624l0.226083-5.23235z" style="fill-rule:evenodd;fill:#4f9a05;stroke-width:.72348166px;stroke:#000000"/>
   <path d="m15.29457 261.64802c4.651273-1.05392 8.195612 3.1366 10.728185 4.11661 1.063173 0.43671 2.774226 0.70671 4.43959-0.11489 2.72615-1.34486 6.553282-0.4188 8.744607 0.31977 1.3105 0.44168 2.98025-1.62907 3.43475-4.43816 0.377804-2.33506 1.46529-4.68512 2.019948-5.46731 0.707111-0.99716 1.363676-1.63481 2.381752-1.49353 0.959886 0.13316 1.291305 1.32247 1.447881 1.60428-0.356815 0.16215-1.169305-0.21-1.682759 0.89604-0.625675 1.34783-2.128935 5.3184-2.522515 7.50352-0.209265 1.16177-1.681311 4.13009-2.52385 4.52579-1.44721 0.6797-2.856024 0.55769-4.058501 0.1069-4.418377-1.65592-7.343521-0.0812-8.723786 0.5011-1.342789 0.56638-7.021153-1.82978-7.828622-2.72872-1.865359-2.07672-5.476352-2.89216-6.766963-3.1339-0.806849-0.15121-0.701229-1.83249 0.910283-2.19764z" style="fill-rule:evenodd;fill:#add5d5;stroke-width:.72348166px;stroke:#000000"/>
   <ellipse cx="58.488" cy="250.398" rx=".487" ry="1.322" style="fill:#000606;stroke-width:.60040963;stroke:#000000"/>
   <path d="m48.893686 268.69622c0.415798-4.3e-4 0.656984 0.78156 0.868039 1.23416 0.435485 0.93393 0.516734 2.0629 0.264801 2.36025-0.252497 0.29794-1.34205 0.21055-1.9377 0.18567-0.528656-0.0219-0.642584-0.85645-0.669439-1.31649 0.02571-1.20836 0.878214-2.463 1.474299-2.46361z" style="fill-rule:evenodd;fill:#729fcf;stroke-width:.72348166px;stroke:#000000"/>
   <path d="m47.957311 269.56408c0.4158-4.3e-4 0.656985 0.78156 0.868042 1.23418 0.435482 0.93392 0.516731 2.06291 0.2648 2.36021-0.252496 0.29798-1.342052 0.21055-1.937702 0.18567-0.528653-0.0219-0.642581-0.85644-0.669437-1.31649 0.02571-1.20833 0.878213-2.463 1.474297-2.4636z" style="fill-rule:evenodd;fill:#729fcf;stroke-width:.72348166px;stroke:#000000"/>
   <path d="m46.121751 270.07662c0.4158-4.3e-4 0.656988 0.78155 0.868042 1.23416 0.435485 0.93393 0.51673 2.06292 0.2648 2.36024-0.252496 0.29794-1.34205 0.21054-1.9377 0.18566-0.528656-0.0219-0.642584-0.85643-0.669438-1.31649 0.02571-1.20836 0.878211-2.463 1.474296-2.46359z" style="fill-rule:evenodd;fill:#729fcf;stroke-width:.72348166px;stroke:#000000"/>
   <path d="m38.849645 271.07575c0.522875 0.10473 1.322975 1.20036 1.27895 3.81402-0.01041 0.62769-1.878636 1.02746-2.055463 0.41107-0.30719-1.0708-0.221241-4.42509 0.776513-4.22509z" style="fill-rule:evenodd;fill:#729fcf;stroke-width:.72348166px;stroke:#000000"/>
   <path d="m37.205293 271.57821c0.436356-0.0416 1.299361 2.29008 1.598678 4.17942 0.05953 0.37589-1.500485 0.72494-2.968988 0.0686-0.475666-0.21274 0.340058-4.15016 1.37031-4.24795z" style="fill-rule:evenodd;fill:#729fcf;stroke-width:.72348166px;stroke:#000000"/>
   <path d="m35.182187 272.86292c0.413578-0.0358 1.992466 1.5842 1.986933 3.33441-0.0022 0.62776-3.814708 0.52349-3.996714-0.0914-0.316975-1.0708 0.950877-3.15142 2.009781-3.24302z" style="fill-rule:evenodd;fill:#729fcf;stroke-width:.72348166px;stroke:#000000"/>
   <path d="m20.314333 270.51791c0.415799-4.4e-4 0.905727 1.0662 0.997232 1.55715 0.177108 0.95022 0.387541 1.70761 0.1356 2.00492-0.252469 0.29797-1.357931 0.45381-1.937699 0.31492-0.528657-0.1266-0.3196-0.7608-0.346454-1.15499 0.02571-1.20837 0.555229-2.72141 1.151313-2.722z" style="fill-rule:evenodd;fill:#729fcf;stroke-width:.72348166px;stroke:#000000"/>
   <path d="m18.915084 270.48559c0.415799-4.5e-4 0.748472 1.06078 0.803446 1.55714 0.0802 0.72416 0.213615 2.30705-0.05817 2.58632-0.478568 0.49176-1.422523 0.0985-2.002292-0.0405-0.528657-0.12659-0.319599-1.08377-0.346453-1.47797 0.02571-1.20836 1.007403-2.6245 1.603488-2.6251z" style="fill-rule:evenodd;fill:#729fcf;stroke-width:.72348166px;stroke:#000000"/>
   <path d="m17.492667 270.43262c0.410865-0.0638 0.57731 4.20141 0.32538 4.49871-0.25247 0.29798-1.519422-0.0629-2.09919-0.20178-0.528656-0.12662-0.466378-0.79429-0.411054-1.89786 0.05693-1.13583 1.054433-2.22339 2.184864-2.39903z" style="fill-rule:evenodd;fill:#729fcf;stroke-width:.72348166px;stroke:#000000"/>
   <path d="m43.495339 266.78791c1.280823-0.24227 2.516322-0.51494 3.288724-1.09626" style="fill:none;stroke-width:.72348166px;stroke:#000000"/>
   <path d="m42.662076 268.12591c1.122121-2.4e-4 1.970548-0.36543 2.843038-0.69853" style="fill:none;stroke-width:.72348166px;stroke:#000000"/>
   <path transform="matrix(.7234817 0 0 .7234817 7.3338135 246.1839)" d="m43.227349 31.822903c-0.74429-9e-3 -2.04966-0.46777-3.03572-0.71429-1.2414-0.31035-2.28147-0.89285-3.57143-0.89285-1.5269 0-2.83485-0.10043-4.10714 0.53571-1.05676 0.52838-1.97381 0.9869-2.85714 1.42857-0.639 0.3195-1.00076 1.21529-1.42857 1.78572-0.80182 1.06908 1.74883 0.58957 1.96428 0.53571 1.0245-0.25612 1.93827-0.48457 2.85714-0.71429 1.03899-0.25974 1.54547-0.53571 2.85715-0.53571h3.92857c0.90497 0 1.83086 0.14521 2.67857 0.35714 1.39953 0.34989 1.26855-0.67718 0.71429-1.78571z" style="fill-rule:evenodd;filter:url(#filter4911);opacity:.50961537"/>
   <path transform="matrix(.7234817 0 0 .7234817 7.3338135 246.1839)" d="m19.120199 28.072903c1.04104 0.26026-1.71878-1.30582-2.67857-1.78572-1.13364-0.56682-2.01318-1.12829-3.21428-1.42857-1.31899-0.32974-2.99447 0.18954-3.5714302 0.53572-1.38835 0.83301-1.20237 1.25 0.5357102 1.25 1.42474 0 2.44502 0.45329 3.75 0.71428 1.62173 0.32435 1.51633 0.26633 2.5 1.25 0.45548 0.45549 2.01468 1.47897 2.14286 1.60715 0.52062 0.52062 0.15691-1.51152 0.53571-2.14286z" style="fill-rule:evenodd;filter:url(#filter5063);opacity:.53365383"/>
   <path d="m47.134757 265.84818c0.434898 0.43487 1.513624 1.43029 0 1.80867-0.480438 0.12003-1.270774 0.61777-1.679514 1.16276-0.455756 0.60767-1.153686 1.38055-1.73266 1.77472-1.284418 0.87443-2.546987 1.30555-1.755555 1.32592 0.570492 0.0137-0.632324-1.10176-0.51677-1.67951 0.200652-1.00331-0.107738-1.52743 1.058887-1.52743 1.431142-0.42796 2.602898-1.63823 3.935135-2.41205 0.274669-0.31916 0.475152-0.23789 0.690477-0.45308z" style="fill-rule:evenodd;opacity:.4375"/>
   <path d="m17.386547 266.75136c0.313934 0.32882 0.732944 0.87452 1.342898 0.92726 0.446301 0.0385 0.716926 0.0503 1.023156-0.22395" style="fill:none;stroke-width:.36174083;stroke:#000000"/>
   <path d="m17.03484 267.80651c0.01859-0.0191 0.609359 0.54447 1.055127 0.76736 0.344802 0.17253 0.783045 0.16051 1.246978-0.0639" style="fill:none;stroke-width:.36174083;stroke:#000000"/>
   <path d="m47.217369 256.15329c-0.817367 0.041-1.393461 0.64226-2.012182 1.51479-0.554658 0.78218-1.634391 3.11363-2.012183 5.4487-0.454499 2.80907-2.126033 4.89563-3.436539 4.45394-2.191325-0.73857-6.023449-1.66138-8.749607-0.3165-1.66536 0.82155-3.368155 0.54972-4.431326 0.11292-2.532578-0.98005-6.08791-5.16873-10.739182-4.1148-0.470025 0.10636-0.788856 0.32801-1.017395 0.58781 1.504348 0.31065 4.63636 1.11837 6.353073 3.0296 0.807471 0.89894 6.479855 3.30205 7.822647 2.73565 1.380263-0.58222 4.308622-2.15331 8.726996-0.49739 1.202478 0.45066 2.599766 0.56665 4.046977-0.11293 0.842537-0.39571 2.322933-3.36001 2.532188-4.52178 0.39358-2.1851 1.883901-6.15831 2.509574-7.50611 0.230185-0.49583 0.531551-0.68572 0.813917-0.7687-0.01667-2e-3 -0.0283-0.0191-0.04523-0.0219-0.12726-0.0163-0.244976-0.0284-0.36174-0.0219z" style="fill-rule:evenodd;fill:#2e3436;opacity:.87019228"/>
  </g>
 </g>
</svg>
