<svg xmlns="http://www.w3.org/2000/svg" xmlns:xlink="http://www.w3.org/1999/xlink" width="256" height="256" version="1.1" viewBox="0 0 67.73 67.73">
 <defs>
  <linearGradient id="linearGradient1108" x1="296" x2="296" y1="-212" y2="236" gradientUnits="userSpaceOnUse" xlink:href="#linearGradient1013"/>
  <linearGradient id="linearGradient1013">
   <stop offset="0" style="stop-color:#ffffff"/>
   <stop style="stop-color:#ffffff;stop-opacity:0.09803922" offset=".125"/>
   <stop style="stop-color:#000000;stop-opacity:0.09803922" offset=".925"/>
   <stop offset="1" style="stop-color:#000000;stop-opacity:0.49803922"/>
  </linearGradient>
  <clipPath id="clipPath1082-3-367" clipPathUnits="userSpaceOnUse">
   <path d="M 361.9375,-212 C 507.2348,-212 528,-191.28677 528,-46.125 V 70.125 C 528,215.28618 507.2348,236 361.9375,236 H 214.0625 C 68.7652,236 48,215.28618 48,70.125 V -46.125 C 48,-191.28677 68.7652,-212 214.0625,-212 Z" style="fill:#8c59d9"/>
  </clipPath>
  <linearGradient id="linearGradient878" x1="32" x2="272" y1="156" y2="156" gradientTransform="matrix(0,0.26458333,-0.26458333,0,74.498196,223.03096)" gradientUnits="userSpaceOnUse" xlink:href="#linearGradient876"/>
  <linearGradient id="linearGradient876">
   <stop style="stop-color:#da1636" offset="0"/>
   <stop style="stop-color:#f22c42" offset="1"/>
  </linearGradient>
  <filter style="color-interpolation-filters:sRGB" id="filter938" width="1.046" height="1.05" x="-.02" y="-.03">
   <feGaussianBlur stdDeviation="2.32"/>
  </filter>
  <filter style="color-interpolation-filters:sRGB" id="filter4569" width="1.023" height="1.025" x="-.01" y="-.01">
   <feGaussianBlur stdDeviation="1.16"/>
  </filter>
  <linearGradient id="linearGradient2193" x1="88" x2="256" y1="28" y2="284" gradientTransform="matrix(0.19843753,0,0,0.19843753,2.1625684,232.38917)" gradientUnits="userSpaceOnUse" xlink:href="#linearGradient4632-92-3-0-8-1-7-1"/>
  <linearGradient id="linearGradient4632-92-3-0-8-1-7-1">
   <stop style="stop-color:#fafafa" offset="0"/>
   <stop style="stop-color:#e1e1e1" offset="1"/>
  </linearGradient>
 </defs>
 <g transform="translate(0,-229.26666)">
  <path d="m 162.53675,3.5680001 c 72.64865,0 83.03125,10.3566149 83.03125,82.9375049 v 58.125005 c 0,72.58059 -10.3826,82.9375 -83.03125,82.9375 H 88.599254 C 15.9506,227.56801 5.568,217.2111 5.568,144.63051 V 86.505505 c 0,-72.58089 10.3826,-82.9375049 83.031254,-82.9375049 z" transform="matrix(0.26458333,0,0,0.26458333,-1.8735229e-8,232.67026)" style="opacity:0.1;filter:url(#filter4569)"/>
  <path style="opacity:0.2;filter:url(#filter938)" d="m 162.53675,5.5680001 c 72.64865,0 83.03125,10.3566149 83.03125,82.9375049 v 58.125005 c 0,72.58059 -10.3826,82.9375 -83.03125,82.9375 H 88.599254 C 15.9506,229.56801 5.568,219.2111 5.568,146.63051 V 88.505505 c 0,-72.58089 10.3826,-82.9375049 83.031254,-82.9375049 z" transform="matrix(0.26458333,0,0,0.26458333,-1.8735229e-8,232.67026)"/>
  <path style="fill:url(#linearGradient878)" d="m 43.004513,233.61429 c 19.221622,0 21.968685,2.74019 21.968685,21.94388 v 15.37891 c 0,19.20362 -2.747063,21.94388 -21.968685,21.94388 h -19.56263 c -19.221622,0 -21.968685,-2.74026 -21.968685,-21.94388 v -15.37891 c 0,-19.20369 2.747063,-21.94388 21.968685,-21.94388 z"/>
  <path d="M 361.9375,-212 C 507.2348,-212 528,-191.28677 528,-46.125 V 70.125 C 528,215.28618 507.2348,236 361.9375,236 H 214.0625 C 68.7652,236 48,215.28618 48,70.125 V -46.125 C 48,-191.28677 68.7652,-212 214.0625,-212 Z" clip-path="url(#clipPath1082-3-367)" transform="matrix(0.13229167,0,0,0.13229167,-4.876802,261.66013)" style="opacity:0.4;fill:none;stroke:url(#linearGradient1108);stroke-width:8;stroke-linecap:round;stroke-linejoin:round"/>
  <g transform="matrix(1.0193681,0,0,1.0193681,0.27205261,-5.1983005)">
   <path style="fill:url(#linearGradient2193)" d="m 39.661057,241.12043 c 14.416219,0 16.476513,2.05513 16.476513,16.4579 v 11.53419 c 0,14.4027 -2.060294,16.4579 -16.476513,16.4579 H 24.989083 c -14.416219,0 -16.4765126,-2.0552 -16.4765126,-16.4579 v -11.53419 c 0,-14.40277 2.0602936,-16.4579 16.4765126,-16.4579 z"/>
   <g style="opacity:0.9" transform="matrix(0.59531254,0,0,0.59531254,-5.7749286,261.55842)">
    <g transform="matrix(1.1,0,0,1.1,-5.5864645,-1.1704478)">
     <g>
      <path d="M 62.592271,-20.297665 49.434406,-7.1397946 h 7.894719 V 16.544365 h -7.894719 l 13.157865,13.15786 13.157864,-13.15786 H 67.855417 V -7.1397946 h 7.894718 z" style="opacity:0.5;fill:#ffffff"/>
      <path style="fill-opacity:0.2" d="m 63.928618,-9.9816899 c -15.760206,0 -18.42101,2.65092 -18.42101,5.92104 0,2.88789 2.075123,5.29038 13.425134,5.81315 l 1.048517,7.34472 h 7.894718 l 1.048517,-7.34472 c 11.350011,-0.52277 13.425134,-2.92526 13.425134,-5.81315 0,-3.27012 -2.660804,-5.92104 -18.42101,-5.92104 z"/>
      <path style="fill:#424242" d="M 62.592271,-21.20693 49.434406,-8.0490599 h 7.894719 V 15.6351 H 49.434406 L 62.592271,28.79296 75.750135,15.6351 H 67.855417 V -8.0490599 h 7.894718 z"/>
      <path style="fill:#b3b3b3" d="m 57.329125,-1.4701299 1.315786,9.21051 h 7.89472 l 1.315786,-9.21051 z"/>
      <path style="opacity:0.3" d="M 62.592327,-21.20704 49.434306,-8.0490199 h 1.264056 L 62.592327,-19.94299 74.486048,-8.0490199 h 1.264054 z m -13.158021,36.84202 1.264056,1.26405 h 6.630856 v -1.26405 z m 18.421132,0 v 1.26405 h 6.63061 l 1.264054,-1.26405 z"/>
      <path style="fill:#e7223c" d="m 81.013282,-5.4174899 c 0,3.27013 -2.640038,5.92104003 -18.421011,5.92104003 -15.780974,0 -18.421011,-2.65091003 -18.421011,-5.92104003 0,-3.27012 2.660804,-5.9210401 18.421011,-5.9210401 15.760206,0 18.421011,2.6509201 18.421011,5.9210401 z"/>
      <path style="opacity:0.2" d="m 58.459174,6.4402501 0.185737,1.30013 h 7.89472 l 0.188732,-1.32118 z"/>
      <path style="opacity:0.3;fill:#ffffff" d="m 62.592327,-11.33852 c -15.760205,0 -18.421131,2.6509301 -18.421131,5.9210601 0,0.21392 0.01224,0.42496 0.03777,0.63301 0.365882,-2.97332 3.650863,-5.2900201 18.383357,-5.2900201 14.7325,0 18.017477,2.3167001 18.383358,5.2900201 0.02553,-0.20805 0.03753,-0.41909 0.03753,-0.63301 0,-3.27013 -2.660679,-5.9210601 -18.420884,-5.9210601 z"/>
      <path style="opacity:0.3" d="m 44.185764,-5.7964299 c -0.0087,0.12544 -0.01457,0.25152 -0.01457,0.37897 0,3.27012 2.640157,5.92106003 18.421131,5.92106003 15.780975,0 18.420885,-2.65094003 18.420885,-5.92106003 0,-0.12703 -0.0057,-0.2527 -0.01432,-0.37774 -0.2141,3.09251 -3.24345,5.54036003 -18.406565,5.54036003 -15.165123,0 -18.193184,-2.44850003 -18.406563,-5.54159003 z"/>
     </g>
    </g>
   </g>
  </g>
 </g>
</svg>
