<svg xmlns="http://www.w3.org/2000/svg" xmlns:xlink="http://www.w3.org/1999/xlink" style="clip-rule:evenodd;fill-rule:evenodd;image-rendering:optimizeQuality;shape-rendering:geometricPrecision;text-rendering:geometricPrecision" width="256" height="256" version="1.1" viewBox="0 0 256 256" xml:space="preserve">
 <defs>
  <style id="style2" type="text/css">
   <![CDATA[
    .fil5 {fill:none}
    .fil1 {fill:#196FBA}
    .fil0 {fill:#25B2EE}
    .fil4 {fill:#793C7C}
    .fil3 {fill:#8C508C}
    .fil2 {fill:white}
   ]]>
  </style>
  <filter style="color-interpolation-filters:sRGB" id="filter939" width="1.046" height="1.05" x="-.02" y="-.03">
   <feGaussianBlur id="feGaussianBlur941" stdDeviation="2.32"/>
  </filter>
  <filter style="color-interpolation-filters:sRGB" id="filter4569" width="1.023" height="1.025" x="-.01" y="-.01">
   <feGaussianBlur id="feGaussianBlur4571" stdDeviation="1.16"/>
  </filter>
  <linearGradient id="linearGradient1108" x1="296" x2="296" y1="-212" y2="236" gradientUnits="userSpaceOnUse" xlink:href="#linearGradient1013"/>
  <linearGradient id="linearGradient1013">
   <stop id="stop1005" offset="0" style="stop-color:#ffffff"/>
   <stop style="stop-color:#ffffff;stop-opacity:0.09803922" id="stop1007" offset=".125"/>
   <stop style="stop-color:#000000;stop-opacity:0.09803922" id="stop1009" offset=".925"/>
   <stop id="stop1011" offset="1" style="stop-color:#000000;stop-opacity:0.49803922"/>
  </linearGradient>
  <clipPath id="clipPath1082-3-361" clipPathUnits="userSpaceOnUse">
   <path d="M 361.9375,-212 C 507.2348,-212 528,-191.28677 528,-46.125 V 70.125 C 528,215.28618 507.2348,236 361.9375,236 H 214.0625 C 68.7652,236 48,215.28618 48,70.125 V -46.125 C 48,-191.28677 68.7652,-212 214.0625,-212 Z" style="fill:#8c59d9"/>
  </clipPath>
  <filter style="color-interpolation-filters:sRGB" id="filter873" width="1.093" height="1.099" x="-.05" y="-.05">
   <feGaussianBlur id="feGaussianBlur875" stdDeviation="3.1"/>
  </filter>
 </defs>
 <path style="opacity:0.2;filter:url(#filter939)" d="m 162.53675,5.5680001 c 72.64865,0 83.03125,10.3566149 83.03125,82.9375049 v 58.125005 c 0,72.58059 -10.3826,82.9375 -83.03125,82.9375 H 88.599254 C 15.9506,229.56801 5.568,219.2111 5.568,146.63051 V 88.505505 c 0,-72.58089 10.3826,-82.9375049 83.031254,-82.9375049 z" transform="matrix(1.019368,0,0,1.019368,-7.2181772e-8,8.3098661)"/>
 <path d="m 165.68477,11.946967 c 74.05571,0 84.6394,10.557203 84.6394,84.543835 v 59.250778 c 0,73.98633 -10.58369,84.54383 -84.6394,84.54383 H 90.315249 c -74.055717,0 -84.639408,-10.5575 -84.639408,-84.54383 V 96.490802 c 0,-73.986632 10.583691,-84.543835 84.639408,-84.543835 z" style="opacity:0.1;fill:none;stroke:#000000;stroke-width:4.07747173;stroke-linecap:round;stroke-linejoin:round"/>
 <path d="m 162.53675,3.5680001 c 72.64865,0 83.03125,10.3566149 83.03125,82.9375049 v 58.125005 c 0,72.58059 -10.3826,82.9375 -83.03125,82.9375 H 88.599254 C 15.9506,227.56801 5.568,217.2111 5.568,144.63051 V 86.505505 c 0,-72.58089 10.3826,-82.9375049 83.031254,-82.9375049 z" transform="matrix(1.019368,0,0,1.019368,-7.2181772e-8,8.3098661)" style="opacity:0.1;filter:url(#filter4569)"/>
 <path style="fill:#25b2ee" d="m 165.68476,11.946967 c 74.05571,0 84.6394,10.557203 84.6394,84.543835 v 59.250778 c 0,73.98633 -10.58369,84.54383 -84.6394,84.54383 H 90.315236 c -74.055712,0 -84.6394035,-10.5575 -84.6394035,-84.54383 V 96.490802 c 0,-73.986632 10.5836915,-84.543835 84.6394035,-84.543835 z"/>
 <path d="M 361.9375,-212 C 507.2348,-212 528,-191.28677 528,-46.125 V 70.125 C 528,215.28618 507.2348,236 361.9375,236 H 214.0625 C 68.7652,236 48,215.28618 48,70.125 V -46.125 C 48,-191.28677 68.7652,-212 214.0625,-212 Z" clip-path="url(#clipPath1082-3-361)" transform="matrix(0.50968403,0,0,0.50968403,-18.788999,120)" style="opacity:0.4;fill:none;stroke:url(#linearGradient1108);stroke-width:8;stroke-linecap:round;stroke-linejoin:round"/>
 <path style="opacity:0.1;fill:#ffffff" d="m 90.315238,240.28541 c -74.055712,0 -84.639403,-10.95275 -84.639403,-87.71148 V 121.83858 H 250.32416 v 30.73535 c 0,76.75873 -10.58369,87.71148 -84.6394,87.71148 z"/>
 <path style="opacity:0.1;fill:#ffffff" d="M 127.01285,11.946967 V 240.28541 h 37.98888 c 74.65333,0 85.32243,-10.5575 85.32243,-84.54383 V 96.490802 c 0,-73.986632 -10.6691,-84.543835 -85.32243,-84.543835 z"/>
 <path style="filter:url(#filter873);opacity:0.3" d="m 154.14934,195.13291 c -28.10261,-7.71614 -49.55039,-36.87491 -43.51969,-59.16616 1.17169,-4.33101 1.71931,-4.90859 4.65386,-4.90859 1.82924,0 4.08294,-0.29051 5.00825,-0.64557 1.37264,-0.52676 1.7772,1.22741 2.19749,9.5284 0.38508,7.60513 1.1816,11.46247 3.15463,15.27706 5.41537,10.46983 19.05315,20.5726 33.49887,24.81569 21.72297,6.38061 40.98652,-4.81887 40.80842,-23.72529 -0.0748,-7.92822 -3.57628,-16.13403 -10.17378,-23.84172 -5.66396,-6.61704 -6.98589,-6.1288 -3.22219,1.19009 7.87934,15.32217 0.5107,30.02348 -15.08144,30.0893 -16.98,0.0718 -32.272,-11.79711 -33.90873,-26.31807 -0.50494,-4.47991 -0.056,-6.1428 2.97615,-11.02026 1.96392,-3.15935 3.12418,-5.74424 2.57832,-5.74424 -0.54585,0 -7.07268,1.03946 -14.50404,2.30991 -22.52387,3.85063 -33.989258,2.80983 -49.663228,-4.50829 C 53.694532,106.6724 41.844576,83.734374 51.166741,64.680562 56.982462,52.793668 68.486152,46.874468 85.928062,46.794233 c 22.378688,-0.103059 37.951698,7.744706 44.597048,22.473647 2.15527,4.777035 2.58522,7.670541 2.48835,16.746894 -0.0645,6.034658 -0.84021,13.310894 -1.724,16.169436 -1.41925,4.5903 -2.03673,5.23932 -5.28732,5.55703 l -3.6804,0.35975 1.71391,-4.102 c 0.94268,-2.25612 2.45863,-7.294264 3.36882,-11.195887 l 1.65489,-7.093882 -3.74494,4.088517 c -6.69051,7.304353 -18.3335,8.313482 -29.579418,2.563741 C 74.666062,81.589527 74.192442,56.93261 94.936582,50.794257 l 4.80492,-1.421812 -3.86015,-0.850824 c -4.57967,-1.009388 -13.03204,0.09294 -18.64578,2.431953 -13.0797,5.449553 -17.54803,20.412659 -10.37956,34.75807 4.45438,8.914 11.84963,15.714706 22.31384,20.519906 11.654398,5.35176 18.011158,6.35901 47.192528,7.47776 26.99228,1.03483 28.88077,1.33459 39.06647,6.20099 25.9299,12.38852 39.23807,39.43485 29.24063,59.4261 -3.88155,7.76164 -10.50753,13.22753 -19.14416,15.79235 -7.24433,2.15132 -23.54803,2.15348 -31.37598,0.005 z m 22.71995,-50.11851 c 4.58426,-1.74294 6.60668,-4.57395 6.60668,-9.24809 0,-11.68156 -15.96559,-21.16092 -26.48143,-15.72297 -11.66169,6.03052 -0.79249,25.38308 14.56793,25.93809 1.38793,0.0501 3.776,-0.38501 5.30682,-0.96703 z m -53.3623,-68.15045 c 3.77383,-3.773811 4.29082,-7.674235 1.68508,-12.713152 -6.14565,-11.8844 -24.40135,-15.231483 -29.118858,-5.3388 -2.32501,4.875623 -1.43364,8.591247 3.37476,14.067717 4.508018,5.134353 9.055458,7.255082 15.685578,7.315059 4.01774,0.03647 5.65923,-0.616612 8.37344,-3.330824 z"/>
 <path d="m 154.14934,195.13291 c -28.10261,-7.71614 -49.55039,-36.87491 -43.51969,-59.16616 1.17169,-4.33101 1.71931,-4.90859 4.65386,-4.90859 1.82924,0 4.08294,-0.29051 5.00825,-0.64557 1.37264,-0.52676 1.7772,1.22741 2.19749,9.5284 0.38508,7.60513 1.1816,11.46247 3.15463,15.27706 5.41537,10.46983 19.05315,20.5726 33.49887,24.81569 21.72297,6.38061 40.98652,-4.81887 40.80842,-23.72529 -0.0748,-7.92822 -3.57628,-16.13403 -10.17378,-23.84172 -5.66396,-6.61704 -6.98589,-6.1288 -3.22219,1.19009 7.87934,15.32217 0.5107,30.02348 -15.08144,30.0893 -16.98,0.0718 -32.272,-11.79711 -33.90873,-26.31807 -0.50494,-4.47991 -0.056,-6.1428 2.97615,-11.02026 1.96392,-3.15935 3.12418,-5.74424 2.57832,-5.74424 -0.54585,0 -7.07268,1.03946 -14.50404,2.30991 -22.52387,3.85063 -33.989258,2.80983 -49.663228,-4.50829 C 53.694532,106.6724 41.844576,83.734374 51.166741,64.680562 56.982462,52.793668 68.486152,46.874468 85.928062,46.794233 c 22.378688,-0.103059 37.951698,7.744706 44.597048,22.473647 2.15527,4.777035 2.58522,7.670541 2.48835,16.746894 -0.0645,6.034658 -0.84021,13.310894 -1.724,16.169436 -1.41925,4.5903 -2.03673,5.23932 -5.28732,5.55703 l -3.6804,0.35975 1.71391,-4.102 c 0.94268,-2.25612 2.45863,-7.294264 3.36882,-11.195887 l 1.65489,-7.093882 -3.74494,4.088517 c -6.69051,7.304353 -18.3335,8.313482 -29.579418,2.563741 C 74.666062,81.589527 74.192442,56.93261 94.936582,50.794257 l 4.80492,-1.421812 -3.86015,-0.850824 c -4.57967,-1.009388 -13.03204,0.09294 -18.64578,2.431953 -13.0797,5.449553 -17.54803,20.412659 -10.37956,34.75807 4.45438,8.914 11.84963,15.714706 22.31384,20.519906 11.654398,5.35176 18.011158,6.35901 47.192528,7.47776 26.99228,1.03483 28.88077,1.33459 39.06647,6.20099 25.9299,12.38852 39.23807,39.43485 29.24063,59.4261 -3.88155,7.76164 -10.50753,13.22753 -19.14416,15.79235 -7.24433,2.15132 -23.54803,2.15348 -31.37598,0.005 z m 22.71995,-50.11851 c 4.58426,-1.74294 6.60668,-4.57395 6.60668,-9.24809 0,-11.68156 -15.96559,-21.16092 -26.48143,-15.72297 -11.66169,6.03052 -0.79249,25.38308 14.56793,25.93809 1.38793,0.0501 3.776,-0.38501 5.30682,-0.96703 z m -53.3623,-68.15045 c 3.77383,-3.773811 4.29082,-7.674235 1.68508,-12.713152 -6.14565,-11.8844 -24.40135,-15.231483 -29.118858,-5.3388 -2.32501,4.875623 -1.43364,8.591247 3.37476,14.067717 4.508018,5.134353 9.055458,7.255082 15.685578,7.315059 4.01774,0.03647 5.65923,-0.616612 8.37344,-3.330824 z" style="fill:#fefefe"/>
</svg>
