<?xml version="1.0" encoding="UTF-8" standalone="no"?>
<svg
   xmlns:dc="http://purl.org/dc/elements/1.1/"
   xmlns:cc="http://creativecommons.org/ns#"
   xmlns:rdf="http://www.w3.org/1999/02/22-rdf-syntax-ns#"
   xmlns:svg="http://www.w3.org/2000/svg"
   xmlns="http://www.w3.org/2000/svg"
   xmlns:sodipodi="http://sodipodi.sourceforge.net/DTD/sodipodi-0.dtd"
   xmlns:inkscape="http://www.inkscape.org/namespaces/inkscape"
   width="256"
   height="256"
   version="1.1"
   viewBox="0 0 67.73 67.73"
   id="svg80"
   sodipodi:docname="ubuntu-tweak.svg"
   inkscape:version="0.92.3 (2405546, 2018-03-11)">
  <metadata
     id="metadata84">
    <rdf:RDF>
      <cc:Work
         rdf:about="">
        <dc:format>image/svg+xml</dc:format>
        <dc:type
           rdf:resource="http://purl.org/dc/dcmitype/StillImage" />
      </cc:Work>
    </rdf:RDF>
  </metadata>
  <sodipodi:namedview
     pagecolor="#ffffff"
     bordercolor="#666666"
     borderopacity="1"
     objecttolerance="10"
     gridtolerance="10"
     guidetolerance="10"
     inkscape:pageopacity="0"
     inkscape:pageshadow="2"
     inkscape:window-width="1920"
     inkscape:window-height="1009"
     id="namedview82"
     showgrid="false"
     inkscape:zoom="3.4825455"
     inkscape:cx="128.74028"
     inkscape:cy="168.2143"
     inkscape:window-x="0"
     inkscape:window-y="34"
     inkscape:window-maximized="1"
     inkscape:current-layer="g78" />
  <defs
     id="defs38">
    <linearGradient
       id="linearGradient1108"
       x1="296"
       x2="296"
       y1="-212"
       y2="236"
       gradientUnits="userSpaceOnUse">
      <stop
         style="stop-color:#ffffff"
         offset="0"
         id="stop2" />
      <stop
         style="stop-color:#ffffff;stop-opacity:.09803922"
         offset=".125"
         id="stop4" />
      <stop
         style="stop-color:#000000;stop-opacity:.09803922"
         offset=".925"
         id="stop6" />
      <stop
         style="stop-color:#000000;stop-opacity:.49803922"
         offset="1"
         id="stop8" />
    </linearGradient>
    <clipPath
       id="clipPath1082-3-452">
      <path
         d="M 361.9375,-212 C 507.2348,-212 528,-191.28677 528,-46.125 V 70.125 C 528,215.28618 507.2348,236 361.9375,236 H 214.0625 C 68.7652,236 48,215.28618 48,70.125 V -46.125 C 48,-191.28677 68.7652,-212 214.0625,-212 Z"
         style="fill:#8c59d9"
         id="path11" />
    </clipPath>
    <linearGradient
       id="linearGradient1137"
       x1="28.326"
       x2="277.697"
       y1="33.804"
       y2="283.991"
       gradientTransform="matrix(0.26460194,0,0,0.26460194,-7.1971743,222.25219)"
       gradientUnits="userSpaceOnUse">
      <stop
         style="stop-color:#68d003"
         offset="0"
         id="stop14" />
      <stop
         style="stop-color:#c0f988"
         offset="1"
         id="stop16" />
    </linearGradient>
    <filter
       id="filter1112"
       x="-.02"
       y="-.03"
       width="1.046"
       height="1.05"
       style="color-interpolation-filters:sRGB">
      <feGaussianBlur
         stdDeviation="2.32"
         id="feGaussianBlur19" />
    </filter>
    <filter
       id="filter4569"
       x="-.01"
       y="-.01"
       width="1.023"
       height="1.025"
       style="color-interpolation-filters:sRGB">
      <feGaussianBlur
         stdDeviation="1.16"
         id="feGaussianBlur22" />
    </filter>
    <radialGradient
       id="radialGradient3773"
       cx="48"
       cy="48"
       r="35.25"
       gradientTransform="matrix(0.53584591,0,0,0.53584591,8.6784516,235.21323)"
       gradientUnits="userSpaceOnUse">
      <stop
         style="stop-color:#6bd107"
         offset="0"
         id="stop25" />
      <stop
         style="stop-color:#6bd107;stop-opacity:0"
         offset="1"
         id="stop27" />
    </radialGradient>
    <linearGradient
       id="linearGradient3709"
       x1="12.75"
       x2="83.25"
       y1="48"
       y2="48"
       gradientTransform="matrix(0,-0.53584591,0.53584591,0,8.6784516,286.65444)"
       gradientUnits="userSpaceOnUse">
      <stop
         style="stop-color:#a8e66c"
         offset="0"
         id="stop30" />
      <stop
         style="stop-color:#dbfabd"
         offset="1"
         id="stop32" />
    </linearGradient>
    <filter
       id="filter1014"
       x="-.05"
       y="-.05"
       width="1.096"
       height="1.096"
       style="color-interpolation-filters:sRGB">
      <feGaussianBlur
         stdDeviation=".756"
         id="feGaussianBlur35" />
    </filter>
  </defs>
  <g
     transform="translate(0,-229.26666)"
     id="g78">
    <path
       transform="matrix(0.26460192,0,0,0.26460192,-7.1971738,222.25217)"
       d="m 188.96876,43.999995 c 72.64865,0 83.03125,10.356615 83.03125,82.937505 v 58.125 c 0,72.58059 -10.3826,82.9375 -83.03125,82.9375 h -73.9375 C 42.382606,268 32.000006,257.64309 32.000006,185.0625 v -58.125 c 0,-72.58089 10.3826,-82.937505 83.031254,-82.937505 z"
       style="opacity:0.1;filter:url(#filter4569)"
       id="path40"
       inkscape:connector-curvature="0" />
    <path
       transform="matrix(0.26460192,0,0,0.26460192,-7.1971738,222.25217)"
       d="m 188.96876,45.999995 c 72.64865,0 83.03125,10.356615 83.03125,82.937505 v 58.125 c 0,72.58059 -10.3826,82.9375 -83.03125,82.9375 h -73.9375 C 42.382606,270 32.000006,259.64309 32.000006,187.0625 v -58.125 c 0,-72.58089 10.3826,-82.937505 83.031254,-82.937505 z"
       style="opacity:0.2;filter:url(#filter1112)"
       id="path42"
       inkscape:connector-curvature="0" />
    <path
       d="m 42.804323,233.89466 c 19.222974,0 21.970233,2.74038 21.970233,21.94543 v 15.37998 c 0,19.20497 -2.747259,21.94541 -21.970233,21.94541 H 23.240321 c -19.2229764,0 -21.9702324,-2.74044 -21.9702324,-21.94541 v -15.37998 c 0,-19.20505 2.7472561,-21.94543 21.9702324,-21.94543 z"
       style="fill:url(#linearGradient1137);stroke-width:0.98106891"
       id="path44"
       inkscape:connector-curvature="0" />
    <path
       transform="matrix(0.13230101,0,0,0.13230101,-5.0803586,261.94247)"
       d="M 361.9375,-212 C 507.2348,-212 528,-191.28677 528,-46.125 V 70.125 C 528,215.28618 507.2348,236 361.9375,236 H 214.0625 C 68.7652,236 48,215.28618 48,70.125 V -46.125 C 48,-191.28677 68.7652,-212 214.0625,-212 Z"
       clip-path="url(#clipPath1082-3-452)"
       style="opacity:0.4;fill:none;stroke:url(#linearGradient1108);stroke-width:8;stroke-linecap:round;stroke-linejoin:round"
       id="path46"
       inkscape:connector-curvature="0" />
    <g
       transform="matrix(0.97989774,0,0,0.97989774,78.401625,9.1034746)"
       id="g56" />
    <g
       transform="matrix(0.98106897,0,0,0.98106897,-0.72552406,7.5359909)"
       style="opacity:0.3;filter:url(#filter1014)"
       id="g66">
      <path
         d="m 30.447192,242.04526 c -2.400022,0.5001 -4.632159,1.46148 -6.614349,2.76296 0.05778,1.44433 -0.456107,2.9009 -1.557301,4.00209 -1.101194,1.10121 -2.557764,1.61507 -4.0021,1.55731 -1.301478,1.98219 -2.26285,4.21433 -2.762955,6.61435 1.070706,0.97973 1.741499,2.38618 1.741499,3.95186 0,1.56567 -0.670793,2.97214 -1.741499,3.95186 0.500105,2.40003 1.461477,4.63216 2.762955,6.61434 1.444336,-0.0577 2.900906,0.45611 4.0021,1.55731 1.101194,1.10119 1.615072,2.55777 1.557301,4.00211 1.98219,1.30146 4.214327,2.26285 6.614349,2.76294 0.979726,-1.07071 2.386184,-1.74149 3.951864,-1.74149 1.565678,0 2.972135,0.67078 3.951863,1.74149 2.392255,-0.49847 4.620188,-1.45123 6.597602,-2.74621 -0.0034,-0.0774 0,-0.15716 0,-0.23442 0,-1.37136 0.527742,-2.73811 1.574047,-3.78442 1.101194,-1.1012 2.557766,-1.61507 4.002099,-1.55731 1.301479,-1.98218 2.26285,-4.21431 2.762956,-6.61434 -1.070706,-0.97972 -1.7415,-2.38619 -1.7415,-3.95186 0,-1.56568 0.670794,-2.97213 1.7415,-3.95186 -0.500106,-2.40002 -1.461477,-4.63216 -2.762956,-6.61435 -1.444333,0.0577 -2.900905,-0.4561 -4.002099,-1.55731 -1.046305,-1.0463 -1.574047,-2.41306 -1.574047,-3.78441 0,-0.0774 -0.0034,-0.15716 0,-0.23443 -1.977414,-1.29498 -4.205347,-2.24773 -6.597602,-2.74621 -0.979728,1.07071 -2.386185,1.74149 -3.951863,1.74149 -1.56568,0 -2.972138,-0.67078 -3.951864,-1.74149 z m 3.951864,14.60179 c 2.367514,0 4.286766,1.91927 4.286766,4.28678 0,2.36751 -1.919252,4.28677 -4.286766,4.28677 -2.367517,0 -4.286768,-1.91926 -4.286768,-4.28677 0,-2.36751 1.919251,-4.28678 4.286768,-4.28678 z"
         id="path58"
         inkscape:connector-curvature="0" />
      <path
         d="m 30.447192,242.04526 c -2.400022,0.5001 -4.632159,1.46148 -6.614349,2.76296 0.05778,1.44433 -0.456107,2.9009 -1.557301,4.00209 -1.101194,1.10121 -2.557764,1.61507 -4.0021,1.55731 -1.301478,1.98219 -2.26285,4.21433 -2.762955,6.61435 1.070706,0.97973 1.741499,2.38618 1.741499,3.95186 0,1.56567 -0.670793,2.97214 -1.741499,3.95186 0.500105,2.40003 1.461477,4.63216 2.762955,6.61434 1.444336,-0.0577 2.900906,0.45611 4.0021,1.55731 1.101194,1.10119 1.615072,2.55777 1.557301,4.00211 1.98219,1.30146 4.214327,2.26285 6.614349,2.76294 0.979726,-1.07071 2.386184,-1.74149 3.951864,-1.74149 1.565678,0 2.972135,0.67078 3.951863,1.74149 2.392255,-0.49847 4.620188,-1.45123 6.597602,-2.74621 -0.0034,-0.0774 0,-0.15716 0,-0.23442 0,-1.37136 0.527742,-2.73811 1.574047,-3.78442 1.101194,-1.1012 2.557766,-1.61507 4.002099,-1.55731 1.301479,-1.98218 2.26285,-4.21431 2.762956,-6.61434 -1.070706,-0.97972 -1.7415,-2.38619 -1.7415,-3.95186 0,-1.56568 0.670794,-2.97213 1.7415,-3.95186 -0.500106,-2.40002 -1.461477,-4.63216 -2.762956,-6.61435 -1.444333,0.0577 -2.900905,-0.4561 -4.002099,-1.55731 -1.046305,-1.0463 -1.574047,-2.41306 -1.574047,-3.78441 0,-0.0774 -0.0034,-0.15716 0,-0.23443 -1.977414,-1.29498 -4.205347,-2.24773 -6.597602,-2.74621 -0.979728,1.07071 -2.386185,1.74149 -3.951863,1.74149 -1.56568,0 -2.972138,-0.67078 -3.951864,-1.74149 z m 3.951864,14.60179 c 2.367514,0 4.286766,1.91927 4.286766,4.28678 0,2.36751 -1.919252,4.28677 -4.286766,4.28677 -2.367517,0 -4.286768,-1.91926 -4.286768,-4.28677 0,-2.36751 1.919251,-4.28678 4.286768,-4.28678 z"
         id="path60"
         inkscape:connector-curvature="0" />
      <path
         d="m 39.861085,248.67751 c -1.406639,0 -2.545637,1.14524 -2.545637,2.55702 0,1.41179 1.138998,2.55701 2.545637,2.55701 1.40664,0 2.545639,-1.14522 2.545639,-2.55701 0,-1.41178 -1.138999,-2.55702 -2.545639,-2.55702 z m -5.376102,2.00271 c -1.569903,2e-4 -3.161573,0.39818 -4.592829,1.10864 -0.05089,0.0253 -0.08265,0.0703 -0.0979,0.12516 -0.01539,0.0549 -0.01235,0.1126 0.01782,0.161 l 2.064992,3.28122 c 0.05231,0.0834 0.158617,0.11868 0.249224,0.0804 0.764287,-0.32455 1.557379,-0.4828 2.358721,-0.4828 2.947616,0 5.519202,2.19398 5.981357,5.10507 0.01539,0.0978 0.09748,0.16992 0.195821,0.16992 h 3.880763 c 0.05661,0 0.113252,-0.0205 0.151306,-0.0626 0.03807,-0.0421 0.05869,-0.0952 0.05341,-0.1521 -0.209295,-2.15994 -1.128606,-4.25125 -2.581241,-5.87398 -0.06556,-0.0737 -0.175265,-0.0806 -0.258126,-0.0267 -0.585737,0.37996 -1.250315,0.58115 -1.922578,0.58115 -1.961211,0 -3.55123,-1.60047 -3.551434,-3.55838 2.04e-4,-0.001 0,-0.0683 0,-0.0715 0,-0.0976 -0.07281,-0.18896 -0.169108,-0.20564 -0.613222,-0.10673 -1.20848,-0.17883 -1.780166,-0.17883 z m -6.230583,2.14574 c -0.02688,0.006 -0.05802,0.0182 -0.0801,0.0359 -1.683304,1.30229 -2.945685,3.13376 -3.560333,5.15874 -0.02402,0.0792 -0.0026,0.16304 0.06232,0.21458 0.845928,0.67301 1.352926,1.70898 1.352926,2.77159 0,1.06258 -0.506793,2.09855 -1.352926,2.77158 -0.06454,0.0512 -0.08634,0.13529 -0.06232,0.21458 0.609761,2.00801 1.862192,3.83249 3.524731,5.13191 0.0446,0.035 0.09553,0.0545 0.151306,0.0448 0.05557,-0.0101 0.103166,-0.0506 0.133504,-0.0984 l 2.082794,-3.27227 c 0.05314,-0.0836 0.0387,-0.19361 -0.0356,-0.25927 -1.304826,-1.1532 -2.056093,-2.80669 -2.056093,-4.53289 0,-1.73909 0.755427,-3.39718 2.073895,-4.55076 0.07431,-0.0652 0.09723,-0.17518 0.04449,-0.25929 L 28.468,252.91548 c -0.03014,-0.0478 -0.07793,-0.0796 -0.133504,-0.0893 -0.02779,-0.004 -0.05322,-0.006 -0.0801,0 z m -5.741036,5.61471 c -1.439586,0 -2.607945,1.17458 -2.607945,2.61959 0,1.44499 1.168359,2.61066 2.607945,2.61066 1.439585,0 2.607944,-1.16567 2.607944,-2.61066 0,-1.44501 -1.168359,-2.61959 -2.607944,-2.61959 z m 22.02956,3.37955 -3.880764,0.008 c -0.09792,2e-4 -0.189036,0.0729 -0.204719,0.16991 -0.468466,2.88942 -3.032984,5.06933 -5.972458,5.06933 -0.810708,0 -1.612585,-0.16809 -2.385422,-0.50068 -0.09039,-0.0387 -0.196084,-0.0122 -0.249223,0.0715 l -2.082795,3.2812 c -0.03034,0.048 -0.03287,0.10592 -0.01782,0.16101 0.01499,0.0549 0.04721,0.0998 0.0979,0.12516 1.442456,0.72538 3.049311,1.10864 4.637333,1.10864 0.588994,0 1.203917,-0.0591 1.824671,-0.16992 0.08715,-0.0162 0.149827,-0.0818 0.160217,-0.16992 0.20685,-1.79451 1.717697,-3.14709 3.51583,-3.14709 0.557436,0 1.131156,0.14137 1.646653,0.41127 0.07838,0.0411 0.169331,0.0277 0.231421,-0.0359 1.62569,-1.66525 2.653404,-3.8608 2.883869,-6.16901 0.0057,-0.0567 -0.01519,-0.10957 -0.05341,-0.1521 -0.03828,-0.0423 -0.09472,-0.0628 -0.151306,-0.0626 z m -4.583928,6.91108 c -1.439587,0 -2.607944,1.16417 -2.607944,2.60171 0,1.43754 1.168357,2.60171 2.607944,2.60171 1.439584,0 2.607943,-1.16417 2.607943,-2.60171 0,-1.43754 -1.168359,-2.60171 -2.607943,-2.60171 z"
         id="path62"
         inkscape:connector-curvature="0" />
      <path
         d="m 30.447192,242.04526 c -2.400022,0.5001 -4.632159,1.46148 -6.614349,2.76296 0.05778,1.44433 -0.456107,2.9009 -1.557301,4.00209 -1.101194,1.10121 -2.557764,1.61507 -4.0021,1.55731 -1.301478,1.98219 -2.26285,4.21433 -2.762955,6.61435 1.070706,0.97973 1.741499,2.38618 1.741499,3.95186 0,1.56567 -0.670793,2.97214 -1.741499,3.95186 0.500105,2.40003 1.461477,4.63216 2.762955,6.61434 1.444336,-0.0577 2.900906,0.45611 4.0021,1.55731 1.101194,1.10119 1.615072,2.55777 1.557301,4.00211 1.98219,1.30146 4.214327,2.26285 6.614349,2.76294 0.979726,-1.07071 2.386184,-1.74149 3.951864,-1.74149 1.565678,0 2.972135,0.67078 3.951863,1.74149 2.392255,-0.49847 4.620188,-1.45123 6.597602,-2.74621 -0.0034,-0.0774 0,-0.15716 0,-0.23442 0,-1.37136 0.527742,-2.73811 1.574047,-3.78442 1.101194,-1.1012 2.557766,-1.61507 4.002099,-1.55731 1.301479,-1.98218 2.26285,-4.21431 2.762956,-6.61434 -1.070706,-0.97972 -1.7415,-2.38619 -1.7415,-3.95186 0,-1.56568 0.670794,-2.97213 1.7415,-3.95186 -0.500106,-2.40002 -1.461477,-4.63216 -2.762956,-6.61435 -1.444333,0.0577 -2.900905,-0.4561 -4.002099,-1.55731 -1.046305,-1.0463 -1.574047,-2.41306 -1.574047,-3.78441 0,-0.0774 -0.0034,-0.15716 0,-0.23443 -1.977414,-1.29498 -4.205347,-2.24773 -6.597602,-2.74621 -0.979728,1.07071 -2.386185,1.74149 -3.951863,1.74149 -1.56568,0 -2.972138,-0.67078 -3.951864,-1.74149 z m -0.08372,0.61957 c 1.060118,1.00581 2.461433,1.67453 4.035589,1.67453 1.574155,0 2.975469,-0.66872 4.035589,-1.67453 2.154424,0.47552 4.16998,1.32894 5.978029,2.47829 0.02971,1.47438 0.586507,2.94758 1.70801,4.06908 1.11367,1.11366 2.574736,1.60369 4.035589,1.64103 1.170111,1.82453 2.03069,3.86636 2.511777,6.04501 -1.005813,1.06012 -1.674517,2.46143 -1.674517,4.03559 0,1.57416 0.668704,2.97547 1.674517,4.03558 -0.481087,2.17866 -1.341666,4.22049 -2.511777,6.04501 -1.460853,0.0373 -2.921919,0.52737 -4.035589,1.64104 -1.121503,1.12149 -1.678304,2.5947 -1.70801,4.06908 -1.808049,1.14934 -3.823605,2.00276 -5.978029,2.47829 -1.06012,-1.00582 -2.461434,-1.67452 -4.035589,-1.67452 -1.574156,0 -2.975471,0.6687 -4.035589,1.67452 -2.178649,-0.4811 -4.220482,-1.34167 -6.045012,-2.51179 -0.03735,-1.46085 -0.527358,-2.9219 -1.64103,-4.03558 -1.113669,-1.11367 -2.574733,-1.60369 -4.035589,-1.64104 -1.170109,-1.82452 -2.03069,-3.86635 -2.511777,-6.04501 1.005816,-1.06011 1.674519,-2.46142 1.674519,-4.03558 0,-1.57416 -0.668703,-2.97547 -1.674519,-4.03559 0.481087,-2.17865 1.341668,-4.22048 2.511777,-6.04501 1.460856,-0.0373 2.92192,-0.52737 4.035589,-1.64103 1.113672,-1.11366 1.603686,-2.57474 1.64103,-4.03558 1.82453,-1.17013 3.866363,-2.0307 6.045012,-2.51179 z m 4.035589,13.44638 c -2.663456,0 -4.822613,2.15916 -4.822613,4.82262 0,2.66346 2.159157,4.82261 4.822613,4.82261 2.663455,0 4.822611,-2.15915 4.822611,-4.82261 0,-2.66346 -2.159156,-4.82262 -4.822611,-4.82262 z m 0,0.53584 c 2.367514,0 4.286766,1.91927 4.286766,4.28678 0,2.36751 -1.919252,4.28677 -4.286766,4.28677 -2.367517,0 -4.286768,-1.91926 -4.286768,-4.28677 0,-2.36751 1.919251,-4.28678 4.286768,-4.28678 z"
         style="opacity:0.4"
         id="path64"
         inkscape:connector-curvature="0" />
    </g>
    <g
       transform="matrix(0.98106897,0,0,0.98106897,-0.72552406,7.5359909)"
       id="g76">
      <path
         d="m 30.447192,242.04526 c -2.400022,0.5001 -4.632159,1.46148 -6.614349,2.76296 0.05778,1.44433 -0.456107,2.9009 -1.557301,4.00209 -1.101194,1.10121 -2.557764,1.61507 -4.0021,1.55731 -1.301478,1.98219 -2.26285,4.21433 -2.762955,6.61435 1.070706,0.97973 1.741499,2.38618 1.741499,3.95186 0,1.56567 -0.670793,2.97214 -1.741499,3.95186 0.500105,2.40003 1.461477,4.63216 2.762955,6.61434 1.444336,-0.0577 2.900906,0.45611 4.0021,1.55731 1.101194,1.10119 1.615072,2.55777 1.557301,4.00211 1.98219,1.30146 4.214327,2.26285 6.614349,2.76294 0.979726,-1.07071 2.386184,-1.74149 3.951864,-1.74149 1.565678,0 2.972135,0.67078 3.951863,1.74149 2.392255,-0.49847 4.620188,-1.45123 6.597602,-2.74621 -0.0034,-0.0774 0,-0.15716 0,-0.23442 0,-1.37136 0.527742,-2.73811 1.574047,-3.78442 1.101194,-1.1012 2.557766,-1.61507 4.002099,-1.55731 1.301479,-1.98218 2.26285,-4.21431 2.762956,-6.61434 -1.070706,-0.97972 -1.7415,-2.38619 -1.7415,-3.95186 0,-1.56568 0.670794,-2.97213 1.7415,-3.95186 -0.500106,-2.40002 -1.461477,-4.63216 -2.762956,-6.61435 -1.444333,0.0577 -2.900905,-0.4561 -4.002099,-1.55731 -1.046305,-1.0463 -1.574047,-2.41306 -1.574047,-3.78441 0,-0.0774 -0.0034,-0.15716 0,-0.23443 -1.977414,-1.29498 -4.205347,-2.24773 -6.597602,-2.74621 -0.979728,1.07071 -2.386185,1.74149 -3.951863,1.74149 -1.56568,0 -2.972138,-0.67078 -3.951864,-1.74149 z m 3.951864,14.60179 c 2.367514,0 4.286766,1.91927 4.286766,4.28678 0,2.36751 -1.919252,4.28677 -4.286766,4.28677 -2.367517,0 -4.286768,-1.91926 -4.286768,-4.28677 0,-2.36751 1.919251,-4.28678 4.286768,-4.28678 z"
         style="fill:url(#linearGradient3709)"
         id="path68"
         inkscape:connector-curvature="0" />
      <path
         d="m 30.447192,242.04526 c -2.400022,0.5001 -4.632159,1.46148 -6.614349,2.76296 0.05778,1.44433 -0.456107,2.9009 -1.557301,4.00209 -1.101194,1.10121 -2.557764,1.61507 -4.0021,1.55731 -1.301478,1.98219 -2.26285,4.21433 -2.762955,6.61435 1.070706,0.97973 1.741499,2.38618 1.741499,3.95186 0,1.56567 -0.670793,2.97214 -1.741499,3.95186 0.500105,2.40003 1.461477,4.63216 2.762955,6.61434 1.444336,-0.0577 2.900906,0.45611 4.0021,1.55731 1.101194,1.10119 1.615072,2.55777 1.557301,4.00211 1.98219,1.30146 4.214327,2.26285 6.614349,2.76294 0.979726,-1.07071 2.386184,-1.74149 3.951864,-1.74149 1.565678,0 2.972135,0.67078 3.951863,1.74149 2.392255,-0.49847 4.620188,-1.45123 6.597602,-2.74621 -0.0034,-0.0774 0,-0.15716 0,-0.23442 0,-1.37136 0.527742,-2.73811 1.574047,-3.78442 1.101194,-1.1012 2.557766,-1.61507 4.002099,-1.55731 1.301479,-1.98218 2.26285,-4.21431 2.762956,-6.61434 -1.070706,-0.97972 -1.7415,-2.38619 -1.7415,-3.95186 0,-1.56568 0.670794,-2.97213 1.7415,-3.95186 -0.500106,-2.40002 -1.461477,-4.63216 -2.762956,-6.61435 -1.444333,0.0577 -2.900905,-0.4561 -4.002099,-1.55731 -1.046305,-1.0463 -1.574047,-2.41306 -1.574047,-3.78441 0,-0.0774 -0.0034,-0.15716 0,-0.23443 -1.977414,-1.29498 -4.205347,-2.24773 -6.597602,-2.74621 -0.979728,1.07071 -2.386185,1.74149 -3.951863,1.74149 -1.56568,0 -2.972138,-0.67078 -3.951864,-1.74149 z m 3.951864,14.60179 c 2.367514,0 4.286766,1.91927 4.286766,4.28678 0,2.36751 -1.919252,4.28677 -4.286766,4.28677 -2.367517,0 -4.286768,-1.91926 -4.286768,-4.28677 0,-2.36751 1.919251,-4.28678 4.286768,-4.28678 z"
         style="fill:url(#radialGradient3773)"
         id="path70"
         inkscape:connector-curvature="0" />
      <path
         d="m 39.861085,248.67751 c -1.406639,0 -2.545637,1.14524 -2.545637,2.55702 0,1.41179 1.138998,2.55701 2.545637,2.55701 1.40664,0 2.545639,-1.14522 2.545639,-2.55701 0,-1.41178 -1.138999,-2.55702 -2.545639,-2.55702 z m -5.376102,2.00271 c -1.569903,2e-4 -3.161573,0.39818 -4.592829,1.10864 -0.05089,0.0253 -0.08265,0.0703 -0.0979,0.12516 -0.01539,0.0549 -0.01235,0.1126 0.01782,0.161 l 2.064992,3.28122 c 0.05231,0.0834 0.158617,0.11868 0.249224,0.0804 0.764287,-0.32455 1.557379,-0.4828 2.358721,-0.4828 2.947616,0 5.519202,2.19398 5.981357,5.10507 0.01539,0.0978 0.09748,0.16992 0.195821,0.16992 h 3.880763 c 0.05661,0 0.113252,-0.0205 0.151306,-0.0626 0.03807,-0.0421 0.05869,-0.0952 0.05341,-0.1521 -0.209295,-2.15994 -1.128606,-4.25125 -2.581241,-5.87398 -0.06556,-0.0737 -0.175265,-0.0806 -0.258126,-0.0267 -0.585737,0.37996 -1.250315,0.58115 -1.922578,0.58115 -1.961211,0 -3.55123,-1.60047 -3.551434,-3.55838 2.04e-4,-0.001 0,-0.0683 0,-0.0715 0,-0.0976 -0.07281,-0.18896 -0.169108,-0.20564 -0.613222,-0.10673 -1.20848,-0.17883 -1.780166,-0.17883 z m -6.230583,2.14574 c -0.02688,0.006 -0.05802,0.0182 -0.0801,0.0359 -1.683304,1.30229 -2.945685,3.13376 -3.560333,5.15874 -0.02402,0.0792 -0.0026,0.16304 0.06232,0.21458 0.845928,0.67301 1.352926,1.70898 1.352926,2.77159 0,1.06258 -0.506793,2.09855 -1.352926,2.77158 -0.06454,0.0512 -0.08634,0.13529 -0.06232,0.21458 0.609761,2.00801 1.862192,3.83249 3.524731,5.13191 0.0446,0.035 0.09553,0.0545 0.151306,0.0448 0.05557,-0.0101 0.103166,-0.0506 0.133504,-0.0984 l 2.082794,-3.27227 c 0.05314,-0.0836 0.0387,-0.19361 -0.0356,-0.25927 -1.304826,-1.1532 -2.056093,-2.80669 -2.056093,-4.53289 0,-1.73909 0.755427,-3.39718 2.073895,-4.55076 0.07431,-0.0652 0.09723,-0.17518 0.04449,-0.25929 L 28.468,252.91548 c -0.03014,-0.0478 -0.07793,-0.0796 -0.133504,-0.0893 -0.02779,-0.004 -0.05322,-0.006 -0.0801,0 z m -5.741036,5.61471 c -1.439586,0 -2.607945,1.17458 -2.607945,2.61959 0,1.44499 1.168359,2.61066 2.607945,2.61066 1.439585,0 2.607944,-1.16567 2.607944,-2.61066 0,-1.44501 -1.168359,-2.61959 -2.607944,-2.61959 z m 22.02956,3.37955 -3.880764,0.008 c -0.09792,2e-4 -0.189036,0.0729 -0.204719,0.16991 -0.468466,2.88942 -3.032984,5.06933 -5.972458,5.06933 -0.810708,0 -1.612585,-0.16809 -2.385422,-0.50068 -0.09039,-0.0387 -0.196084,-0.0122 -0.249223,0.0715 l -2.082795,3.2812 c -0.03034,0.048 -0.03287,0.10592 -0.01782,0.16101 0.01499,0.0549 0.04721,0.0998 0.0979,0.12516 1.442456,0.72538 3.049311,1.10864 4.637333,1.10864 0.588994,0 1.203917,-0.0591 1.824671,-0.16992 0.08715,-0.0162 0.149827,-0.0818 0.160217,-0.16992 0.20685,-1.79451 1.717697,-3.14709 3.51583,-3.14709 0.557436,0 1.131156,0.14137 1.646653,0.41127 0.07838,0.0411 0.169331,0.0277 0.231421,-0.0359 1.62569,-1.66525 2.653404,-3.8608 2.883869,-6.16901 0.0057,-0.0567 -0.01519,-0.10957 -0.05341,-0.1521 -0.03828,-0.0423 -0.09472,-0.0628 -0.151306,-0.0626 z m -4.583928,6.91108 c -1.439587,0 -2.607944,1.16417 -2.607944,2.60171 0,1.43754 1.168357,2.60171 2.607944,2.60171 1.439584,0 2.607943,-1.16417 2.607943,-2.60171 0,-1.43754 -1.168359,-2.60171 -2.607943,-2.60171 z"
         style="fill:#454545"
         id="path72"
         inkscape:connector-curvature="0" />
      <path
         d="m 30.447192,242.04526 c -2.400022,0.5001 -4.632159,1.46148 -6.614349,2.76296 0.05778,1.44433 -0.456107,2.9009 -1.557301,4.00209 -1.101194,1.10121 -2.557764,1.61507 -4.0021,1.55731 -1.301478,1.98219 -2.26285,4.21433 -2.762955,6.61435 1.070706,0.97973 1.741499,2.38618 1.741499,3.95186 0,1.56567 -0.670793,2.97214 -1.741499,3.95186 0.500105,2.40003 1.461477,4.63216 2.762955,6.61434 1.444336,-0.0577 2.900906,0.45611 4.0021,1.55731 1.101194,1.10119 1.615072,2.55777 1.557301,4.00211 1.98219,1.30146 4.214327,2.26285 6.614349,2.76294 0.979726,-1.07071 2.386184,-1.74149 3.951864,-1.74149 1.565678,0 2.972135,0.67078 3.951863,1.74149 2.392255,-0.49847 4.620188,-1.45123 6.597602,-2.74621 -0.0034,-0.0774 0,-0.15716 0,-0.23442 0,-1.37136 0.527742,-2.73811 1.574047,-3.78442 1.101194,-1.1012 2.557766,-1.61507 4.002099,-1.55731 1.301479,-1.98218 2.26285,-4.21431 2.762956,-6.61434 -1.070706,-0.97972 -1.7415,-2.38619 -1.7415,-3.95186 0,-1.56568 0.670794,-2.97213 1.7415,-3.95186 -0.500106,-2.40002 -1.461477,-4.63216 -2.762956,-6.61435 -1.444333,0.0577 -2.900905,-0.4561 -4.002099,-1.55731 -1.046305,-1.0463 -1.574047,-2.41306 -1.574047,-3.78441 0,-0.0774 -0.0034,-0.15716 0,-0.23443 -1.977414,-1.29498 -4.205347,-2.24773 -6.597602,-2.74621 -0.979728,1.07071 -2.386185,1.74149 -3.951863,1.74149 -1.56568,0 -2.972138,-0.67078 -3.951864,-1.74149 z m -0.08372,0.61957 c 1.060118,1.00581 2.461433,1.67453 4.035589,1.67453 1.574155,0 2.975469,-0.66872 4.035589,-1.67453 2.154424,0.47552 4.16998,1.32894 5.978029,2.47829 0.02971,1.47438 0.586507,2.94758 1.70801,4.06908 1.11367,1.11366 2.574736,1.60369 4.035589,1.64103 1.170111,1.82453 2.03069,3.86636 2.511777,6.04501 -1.005813,1.06012 -1.674517,2.46143 -1.674517,4.03559 0,1.57416 0.668704,2.97547 1.674517,4.03558 -0.481087,2.17866 -1.341666,4.22049 -2.511777,6.04501 -1.460853,0.0373 -2.921919,0.52737 -4.035589,1.64104 -1.121503,1.12149 -1.678304,2.5947 -1.70801,4.06908 -1.808049,1.14934 -3.823605,2.00276 -5.978029,2.47829 -1.06012,-1.00582 -2.461434,-1.67452 -4.035589,-1.67452 -1.574156,0 -2.975471,0.6687 -4.035589,1.67452 -2.178649,-0.4811 -4.220482,-1.34167 -6.045012,-2.51179 -0.03735,-1.46085 -0.527358,-2.9219 -1.64103,-4.03558 -1.113669,-1.11367 -2.574733,-1.60369 -4.035589,-1.64104 -1.170109,-1.82452 -2.03069,-3.86635 -2.511777,-6.04501 1.005816,-1.06011 1.674519,-2.46142 1.674519,-4.03558 0,-1.57416 -0.668703,-2.97547 -1.674519,-4.03559 0.481087,-2.17865 1.341668,-4.22048 2.511777,-6.04501 1.460856,-0.0373 2.92192,-0.52737 4.035589,-1.64103 1.113672,-1.11366 1.603686,-2.57474 1.64103,-4.03558 1.82453,-1.17013 3.866363,-2.0307 6.045012,-2.51179 z m 4.035589,13.44638 c -2.663456,0 -4.822613,2.15916 -4.822613,4.82262 0,2.66346 2.159157,4.82261 4.822613,4.82261 2.663455,0 4.822611,-2.15915 4.822611,-4.82261 0,-2.66346 -2.159156,-4.82262 -4.822611,-4.82262 z m 0,0.53584 c 2.367514,0 4.286766,1.91927 4.286766,4.28678 0,2.36751 -1.919252,4.28677 -4.286766,4.28677 -2.367517,0 -4.286768,-1.91926 -4.286768,-4.28677 0,-2.36751 1.919251,-4.28678 4.286768,-4.28678 z"
         style="opacity:0.4;fill:#ffffff"
         id="path74"
         inkscape:connector-curvature="0" />
    </g>
  </g>
</svg>
