<svg width="256" height="256" version="1.1" viewBox="0 0 67.73 67.73" xmlns="http://www.w3.org/2000/svg" xmlns:xlink="http://www.w3.org/1999/xlink">
 <defs>
  <clipPath id="clipPath1082-3-5">
   <path d="M 361.9375,-212 C 507.2348,-212 528,-191.28677 528,-46.125 V 70.125 C 528,215.28618 507.2348,236 361.9375,236 H 214.0625 C 68.7652,236 48,215.28618 48,70.125 V -46.125 C 48,-191.28677 68.7652,-212 214.0625,-212 Z" style="fill:#8c59d9"/>
  </clipPath>
  <filter id="filter4569-2" x="-.01" y="-.01" width="1.023" height="1.025" style="color-interpolation-filters:sRGB">
   <feGaussianBlur stdDeviation="1.16"/>
  </filter>
  <filter id="filter913" x="-.02" y="-.03" width="1.046" height="1.05" style="color-interpolation-filters:sRGB">
   <feGaussianBlur stdDeviation="2.32"/>
  </filter>
  <linearGradient id="linearGradient906" x1="296" x2="296" y1="-212" y2="236" gradientUnits="userSpaceOnUse">
   <stop style="stop-color:#ffffff" offset="0"/>
   <stop style="stop-color:#ffffff;stop-opacity:.09803922" offset=".125"/>
   <stop style="stop-color:#000000;stop-opacity:.09803922" offset=".925"/>
   <stop style="stop-color:#000000;stop-opacity:.49803922" offset="1"/>
  </linearGradient>
  <linearGradient id="linearGradient3793-4" x1="-.617" x2="511.383" y1="256" y2="256" gradientTransform="matrix(0 -.078125 -.078125 0 54.011391 50.855621)" gradientUnits="userSpaceOnUse">
   <stop style="stop-color:#43B349" offset="0"/>
   <stop style="stop-color:#70BE44" offset="1"/>
  </linearGradient>
  <filter id="filter923" x="-.05" y="-.04" width="1.106" height="1.088" style="color-interpolation-filters:sRGB">
   <feGaussianBlur stdDeviation="3.119"/>
  </filter>
 </defs>
 <g transform="translate(0,-229.26666)">
  <path transform="matrix(.26970778 0 0 .26970778 -7.1289177 220.56049)" d="m188.96876 45.999995c72.64865 0 83.03125 10.356615 83.03125 82.937505v58.125c0 72.58059-10.3826 82.9375-83.03125 82.9375h-73.9375c-72.648654 0-83.031254-10.35691-83.031254-82.9375v-58.125c0-72.58089 10.3826-82.937505 83.031254-82.937505z" style="filter:url(#filter913);opacity:.2"/>
  <path transform="matrix(.26970778 0 0 .26970778 -7.1289177 220.56049)" d="m188.96876 43.999995c72.64865 0 83.03125 10.356615 83.03125 82.937505v58.125c0 72.58059-10.3826 82.9375-83.03125 82.9375h-73.9375c-72.648654 0-83.031254-10.35691-83.031254-82.9375v-58.125c0-72.58089 10.3826-82.937505 83.031254-82.937505z" style="filter:url(#filter4569-2);opacity:.1"/>
  <path d="m23.895905 232.42763c-9.797337 0-15.39413 0.69699-18.544517 3.84334-3.150381 3.14634-3.849657 8.73736-3.849657 18.52555v15.67677c0 9.78815 0.699276 15.3792 3.849657 18.52555 3.150387 3.14636 8.7471787 3.84333 18.544517 3.84333h19.94152c9.797339 0 15.394134-0.69697 18.544517-3.84333 3.150384-3.14635 3.849659-8.7374 3.849659-18.52555v-15.67677c0-9.78819-0.699275-15.37921-3.849659-18.52555-3.150383-3.14635-8.74718-3.84334-18.544517-3.84334z" style="fill:#4d4d4d"/>
  <path d="m1.5017313 269.93387v0.53942c0 9.78815 0.699276 15.3792 3.849657 18.52555 3.150387 3.14636 8.7471787 3.84333 18.544517 3.84333h19.94152c9.797339 0 15.394134-0.69697 18.544517-3.84333 3.150384-3.14635 3.849659-8.7374 3.849659-18.52555v-0.53942c0 9.78815-0.699275 15.3792-3.849659 18.52555-3.150383 3.14636-8.747178 3.84334-18.544517 3.84334h-19.94152c-9.797338 0-15.39413-0.69698-18.544517-3.84334-3.150381-3.14635-3.849657-8.7374-3.849657-18.52555z" style="fill:#131313;opacity:.2"/>
  <g transform="matrix(1.1244792,0,0,1.1244792,-4.3775758,227.88414)">
   <path d="m24.356083 23.186209c-2.579246 0.03208-4.726561 1.059568-4.726561 1.059568s0.107985 4.335288 4.118652 6.286624c4.011334 1.951328 8.779298 0.97656 8.779298 0.97656s-0.108565-4.87852-4.011231-7.263184c-1.341542-0.819728-2.809122-1.076384-4.160158-1.059568zm19.309082 0c-1.351032-0.0168-2.821055 0.23984-4.162596 1.059568-3.902 2.385336-4.01123 7.263184-4.01123 7.263184s4.771071 0.974768 8.781736-0.97656c4.010668-1.951336 4.118653-6.286624 4.118653-6.286624s-2.147316-1.027472-4.726563-1.059568z" style="fill:#ffffff"/>
   <path transform="matrix(.23529411 0 0 .23529411 3.8929807 1.2294758)" d="m128 41.115234c-33.93767 0-70.951172 30.871271-70.951172 75.558596 0 44.68732 32.712497 94.4414 70.951172 94.4414 38.23866 0 70.95117-49.75408 70.95117-94.4414 0-44.687325-37.01351-75.558596-70.95117-75.558596zm-41.03125 52.201172c5.741903-0.071468 11.978134 1.018109 17.67969 4.501953 16.58633 10.134821 17.04883 30.869141 17.04883 30.869141s-20.26433 4.14275-37.312504-4.15039c-17.045336-8.29318-17.503907-26.718751-17.503907-26.718751s9.126095-4.365613 20.087891-4.501953zm82.0625 0c10.9618 0.136408 20.08789 4.501953 20.08789 4.501953s-0.45857 18.425571-17.50391 26.718751c-17.04532 8.29314-37.32226 4.15039-37.32226 4.15039s0.46337-20.73146 17.04687-30.869141c5.70155-3.483844 11.94952-4.573353 17.69141-4.501953z" style="fill:#101010;filter:url(#filter923);opacity:.4"/>
   <path d="m34.010754 10.903581c-7.985334 0-16.694393 7.263828-16.694393 17.778493 0 10.514663 7.697058 22.221505 16.694393 22.221505 8.997331 0 16.694392-11.706842 16.694392-22.221505 0-10.514665-8.709061-17.778493-16.694392-17.778493zm-9.654412 12.282628c1.351036-0.01682 2.818385 0.239555 4.159927 1.059283 3.902666 2.384664 4.01149 7.263327 4.01149 7.263327s-4.768078 0.974765-8.779413-0.976562c-4.010667-1.951336-4.118566-6.286765-4.118566-6.286765s2.147316-1.027203 4.726562-1.059283zm19.308823 0c2.579247 0.0321 4.726562 1.059283 4.726562 1.059283s-0.107898 4.335429-4.118566 6.286765c-4.010664 1.951327-8.781708 0.976562-8.781708 0.976562s0.109028-4.87799 4.011028-7.263327c1.341541-0.819728 2.811651-1.076083 4.162684-1.059283z" style="fill:url(#linearGradient3793-4)"/>
  </g>
  <path transform="matrix(.13485389 0 0 .13485389 -4.9712557 261.01666)" d="M 361.9375,-212 C 507.2348,-212 528,-191.28677 528,-46.125 V 70.125 C 528,215.28618 507.2348,236 361.9375,236 H 214.0625 C 68.7652,236 48,215.28618 48,70.125 V -46.125 C 48,-191.28677 68.7652,-212 214.0625,-212 Z" clip-path="url(#clipPath1082-3-5)" style="fill:none;opacity:.4;stroke-linecap:round;stroke-linejoin:round;stroke-width:8;stroke:url(#linearGradient906)"/>
  <path transform="matrix(.26458333 0 0 .26458333 0 229.26666)" d="m127.5332 240.28516h38.15235c9.25733 0 17.52202-0.16489 24.89843-0.59766 3.68821-0.21638 7.15334-0.4999 10.41016-0.86328s6.30491-0.80554 9.15625-1.3418c2.85134-0.53625 5.50677-1.16539 7.97852-1.90039 2.47174-0.735 4.75889-1.57554 6.87695-2.53515 2.11806-0.95962 4.06716-2.0399 5.85742-3.25 1.79027-1.21011 3.42179-2.55065 4.91016-4.03711 1.48837-1.48647 2.83312-3.11811 4.04492-4.90625 1.2118-1.78815 2.29086-3.73392 3.25195-5.84961 0.9611-2.1157 1.80476-4.40002 2.54102-6.86914 0.73625-2.46913 1.36507-5.12229 1.90234-7.97071 0.53728-2.84841 0.98154-5.8929 1.34571-9.14648 0.36416-3.25359 0.64832-6.71577 0.86523-10.40039 0.43382-7.36925 0.59961-15.62636 0.59961-24.875v-59.251956c0-9.248683-0.16579-17.505738-0.59961-24.875-0.21691-3.684631-0.50107-7.146805-0.86523-10.40039-0.36417-3.253586-0.80843-6.298071-1.34571-9.146485-0.53727-2.848413-1.16609-5.501588-1.90234-7.970703-0.73626-2.469115-1.57992-4.75345-2.54102-6.86914-0.96109-2.11569-2.04015-4.061471-3.25195-5.84961-1.2118-1.788138-2.55655-3.41979-4.04492-4.90625-1.48837-1.486464-3.11989-2.827003-4.91016-4.037109-1.79026-1.210106-3.73936-2.290381-5.85742-3.25s-4.40521-1.800153-6.87695-2.535156c-2.47175-0.735004-5.12718-1.364132-7.97852-1.900391s-5.89943-0.97841-9.15625-1.341797-6.72195-0.646895-10.41016-0.863281c-7.3764-0.432773-15.64111-0.597656-24.89843-0.597656h-38.15235v228.33789z" style="fill:#ffffff;opacity:.05"/>
 </g>
</svg>
