<svg xmlns="http://www.w3.org/2000/svg" xmlns:xlink="http://www.w3.org/1999/xlink" width="256" height="256" version="1.1" viewBox="0 0 67.73 67.73">
 <defs>
  <linearGradient id="linearGradient1108" x1="296" x2="296" y1="-212" y2="236" gradientUnits="userSpaceOnUse" xlink:href="#linearGradient1013"/>
  <linearGradient id="linearGradient1013">
   <stop style="stop-color:#ffffff" offset="0"/>
   <stop offset=".125" style="stop-color:#ffffff;stop-opacity:0.09803922"/>
   <stop offset=".925" style="stop-color:#000000;stop-opacity:0.09803922"/>
   <stop style="stop-color:#000000;stop-opacity:0.49803922" offset="1"/>
  </linearGradient>
  <clipPath id="clipPath1082-3-452" clipPathUnits="userSpaceOnUse">
   <path style="fill:#8c59d9" d="M 361.9375,-212 C 507.2348,-212 528,-191.28677 528,-46.125 V 70.125 C 528,215.28618 507.2348,236 361.9375,236 H 214.0625 C 68.7652,236 48,215.28618 48,70.125 V -46.125 C 48,-191.28677 68.7652,-212 214.0625,-212 Z"/>
  </clipPath>
  <linearGradient id="linearGradient1137" x1="31.734" x2="271.733" y1="155.915" y2="155.915" gradientTransform="matrix(0.26970778,0,0,0.26970778,-7.1289177,220.56049)" gradientUnits="userSpaceOnUse" xlink:href="#linearGradient4290"/>
  <filter id="filter1112" width="1.046" height="1.05" x="-.02" y="-.03" style="color-interpolation-filters:sRGB">
   <feGaussianBlur stdDeviation="2.32"/>
  </filter>
  <filter id="filter4569" width="1.023" height="1.025" x="-.01" y="-.01" style="color-interpolation-filters:sRGB">
   <feGaussianBlur stdDeviation="1.16"/>
  </filter>
  <linearGradient id="linearGradient4290">
   <stop offset="0" style="stop-color:#2eaa42"/>
   <stop offset="1" style="stop-color:#3fd874"/>
  </linearGradient>
  <filter id="filter971" width="1.096" height="1.096" x="-.05" y="-.05" style="color-interpolation-filters:sRGB">
   <feGaussianBlur stdDeviation="1.363"/>
  </filter>
 </defs>
 <g transform="translate(0,-229.26666)">
  <path style="opacity:0.1;filter:url(#filter4569)" d="m 188.96876,43.999995 c 72.64865,0 83.03125,10.356615 83.03125,82.937505 v 58.125 c 0,72.58059 -10.3826,82.9375 -83.03125,82.9375 h -73.9375 C 42.382606,268 32.000006,257.64309 32.000006,185.0625 v -58.125 c 0,-72.58089 10.3826,-82.937505 83.031254,-82.937505 z" transform="matrix(0.26970778,0,0,0.26970778,-7.1289177,220.56049)"/>
  <path d="m 188.96876,45.999995 c 72.64865,0 83.03125,10.356615 83.03125,82.937505 v 58.125 c 0,72.58059 -10.3826,82.9375 -83.03125,82.9375 h -73.9375 C 42.382606,270 32.000006,259.64309 32.000006,187.0625 v -58.125 c 0,-72.58089 10.3826,-82.937505 83.031254,-82.937505 z" transform="matrix(0.26970778,0,0,0.26970778,-7.1289177,220.56049)" style="opacity:0.2;filter:url(#filter1112)"/>
  <path d="m 43.837426,232.42763 c 19.593907,0 22.394175,2.79326 22.394175,22.36889 v 15.67677 c 0,19.57555 -2.800268,22.36888 -22.394175,22.36888 h -19.94152 c -19.5939063,0 -22.3941744,-2.79333 -22.3941744,-22.36888 v -15.67677 c 0,-19.57563 2.8002681,-22.36889 22.3941744,-22.36889 z" style="fill:url(#linearGradient1137)"/>
  <path style="opacity:0.4;fill:none;stroke:url(#linearGradient1108);stroke-width:8;stroke-linecap:round;stroke-linejoin:round" d="M 361.9375,-212 C 507.2348,-212 528,-191.28677 528,-46.125 V 70.125 C 528,215.28618 507.2348,236 361.9375,236 H 214.0625 C 68.7652,236 48,215.28618 48,70.125 V -46.125 C 48,-191.28677 68.7652,-212 214.0625,-212 Z" clip-path="url(#clipPath1082-3-452)" transform="matrix(0.13485389,0,0,0.13485389,-4.9712557,261.01666)"/>
  <g transform="translate(80.217142,2.9506453)">
   <path style="opacity:0.1;fill:#ffffff" d="m -13.985544,259.68426 v -7.83839 c 0,-19.57555 -2.800271,-22.36888 -22.39417,-22.36888 h -9.970759 v 30.20727 z"/>
   <path d="m -78.715411,259.68426 v 7.83839 c 0,19.57555 2.80027,22.36888 22.394171,22.36888 h 9.970759 v -30.20727 z" style="opacity:0.1;fill:#ffffff"/>
  </g>
  <g transform="matrix(0.62116811,0,0,0.62116811,-0.16844428,232.15497)" style="fill:#ffffff">
   <path style="filter:url(#filter971);opacity:0.3" d="m 80.399657,38.731461 h -17.03779 v 10.222671 h 10.22267 L 54.842967,71.103266 37.805169,48.954132 h 8.518895 V 25.10123 h 17.037803 v 6.815112 h 17.03779 V 25.10123 c 0,0 0,-13.630239 -12.77835,-13.630239 H 42.064616 c 0,0 -12.778343,0 -12.778343,14.482127 v 2.555664 23.852909 H 22.471162 V 28.508782 H 12.248483 v 25.556693 c 0,8.518896 8.518895,8.518896 8.518895,8.518896 h 8.518895 v 4.259447 c 0,12.778343 12.778343,12.778343 12.778343,12.778343 h 25.556691 c 12.77835,0 12.77835,-12.778343 12.77835,-12.778343"/>
   <path d="m 80.399657,38.731461 h -17.03779 v 10.222671 h 10.22267 L 54.842967,71.103266 37.805169,48.954132 h 8.518895 V 25.10123 h 17.037803 v 6.815112 h 17.03779 V 25.10123 c 0,0 0,-13.630239 -12.77835,-13.630239 H 42.064616 c 0,0 -12.778343,0 -12.778343,14.482127 v 2.555664 23.852909 H 22.471162 V 28.508782 H 12.248483 v 25.556693 c 0,8.518896 8.518895,8.518896 8.518895,8.518896 h 8.518895 v 4.259447 c 0,12.778343 12.778343,12.778343 12.778343,12.778343 h 25.556691 c 12.77835,0 12.77835,-12.778343 12.77835,-12.778343" style="fill:#ffffff"/>
  </g>
 </g>
</svg>
