<svg width="256" height="256" version="1.1" viewBox="0 0 67.73 67.73" xmlns="http://www.w3.org/2000/svg" xmlns:xlink="http://www.w3.org/1999/xlink">
 <defs>
  <clipPath id="clipPath1082-3-5">
   <path d="M 361.9375,-212 C 507.2348,-212 528,-191.28677 528,-46.125 V 70.125 C 528,215.28618 507.2348,236 361.9375,236 H 214.0625 C 68.7652,236 48,215.28618 48,70.125 V -46.125 C 48,-191.28677 68.7652,-212 214.0625,-212 Z" style="fill:#8c59d9"/>
  </clipPath>
  <filter id="filter4569-2" x="-.01" y="-.01" width="1.023" height="1.025" style="color-interpolation-filters:sRGB">
   <feGaussianBlur stdDeviation="1.16"/>
  </filter>
  <filter id="filter913" x="-.02" y="-.03" width="1.046" height="1.05" style="color-interpolation-filters:sRGB">
   <feGaussianBlur stdDeviation="2.32"/>
  </filter>
  <linearGradient id="linearGradient906" x1="296" x2="296" y1="-212" y2="236" gradientUnits="userSpaceOnUse">
   <stop style="stop-color:#ffffff" offset="0"/>
   <stop style="stop-color:#ffffff;stop-opacity:.09803922" offset=".125"/>
   <stop style="stop-color:#000000;stop-opacity:.09803922" offset=".925"/>
   <stop style="stop-color:#000000;stop-opacity:.49803922" offset="1"/>
  </linearGradient>
  <linearGradient id="linearGradient2115" x1="12.033" x2="55.709" y1="262.631" y2="262.631" gradientUnits="userSpaceOnUse">
   <stop style="stop-color:#e88720" offset="0"/>
   <stop style="stop-color:#ffe000;stop-opacity:.98823529" offset=".5"/>
   <stop style="stop-color:#54ec18;stop-opacity:.98039216" offset=".75"/>
   <stop style="stop-color:#1bfdc5;stop-opacity:.97647059" offset="1"/>
  </linearGradient>
  <filter id="filter2824" x="-.04" y="-.06" width="1.078" height="1.125" style="color-interpolation-filters:sRGB">
   <feGaussianBlur stdDeviation=".688"/>
  </filter>
 </defs>
 <g transform="translate(0,-229.26666)">
  <path transform="matrix(.26970778 0 0 .26970778 -7.1289177 220.56049)" d="m188.96876 45.999995c72.64865 0 83.03125 10.356615 83.03125 82.937505v58.125c0 72.58059-10.3826 82.9375-83.03125 82.9375h-73.9375c-72.648654 0-83.031254-10.35691-83.031254-82.9375v-58.125c0-72.58089 10.3826-82.937505 83.031254-82.937505z" style="filter:url(#filter913);opacity:.2"/>
  <path transform="matrix(.26970778 0 0 .26970778 -7.1289177 220.56049)" d="m188.96876 43.999995c72.64865 0 83.03125 10.356615 83.03125 82.937505v58.125c0 72.58059-10.3826 82.9375-83.03125 82.9375h-73.9375c-72.648654 0-83.031254-10.35691-83.031254-82.9375v-58.125c0-72.58089 10.3826-82.937505 83.031254-82.937505z" style="filter:url(#filter4569-2);opacity:.1"/>
  <path d="m23.895904 232.42763c-9.797337 0-15.394129 0.69699-18.544516 3.84334-3.150381 3.14634-3.849657 8.73736-3.849657 18.52555v15.67677c0 9.78815 0.699276 15.3792 3.849657 18.52555 3.150387 3.14636 8.7471782 3.84333 18.544516 3.84333h19.94152c9.797339 0 15.394134-0.69697 18.544517-3.84333 3.150384-3.14635 3.849659-8.7374 3.849659-18.52555v-15.67677c0-9.78819-0.699275-15.37921-3.849659-18.52555-3.150383-3.14635-8.74718-3.84334-18.544517-3.84334z" style="fill:#4d4d4d"/>
  <path d="m1.5017313 269.93387v0.53942c0 9.78815 0.699276 15.3792 3.849657 18.52555 3.150387 3.14636 8.7471787 3.84333 18.544517 3.84333h19.94152c9.797339 0 15.394134-0.69697 18.544517-3.84333 3.150384-3.14635 3.849659-8.7374 3.849659-18.52555v-0.53942c0 9.78815-0.699275 15.3792-3.849659 18.52555-3.150383 3.14636-8.747178 3.84334-18.544517 3.84334h-19.94152c-9.797338 0-15.39413-0.69698-18.544517-3.84334-3.150381-3.14635-3.849657-8.7374-3.849657-18.52555z" style="fill:#131313;opacity:.2"/>
  <path d="m23.813194 292.71765c-19.593907 0-22.394175-2.79326-22.394175-22.36889v-7.83838h64.729868v7.83838c0 19.57563-2.800268 22.36889-22.394172 22.36889z" style="clip-rule:evenodd;fill-rule:evenodd;fill:#ffffff;image-rendering:optimizeQuality;opacity:.1;shape-rendering:geometricPrecision"/>
  <path d="m33.783956 232.3031v60.41455h9.970757c19.593906 0 22.394174-2.79334 22.394174-22.36889v-15.67677c0-19.57563-2.800268-22.36889-22.394174-22.36889z" style="clip-rule:evenodd;fill-rule:evenodd;fill:#ffffff;image-rendering:optimizeQuality;opacity:.1;shape-rendering:geometricPrecision"/>
  <path transform="matrix(.13485389 0 0 .13485389 -4.9712557 261.01666)" d="M 361.9375,-212 C 507.2348,-212 528,-191.28677 528,-46.125 V 70.125 C 528,215.28618 507.2348,236 361.9375,236 H 214.0625 C 68.7652,236 48,215.28618 48,70.125 V -46.125 C 48,-191.28677 68.7652,-212 214.0625,-212 Z" clip-path="url(#clipPath1082-3-5)" style="fill:none;opacity:.4;stroke-linecap:round;stroke-linejoin:round;stroke-width:8;stroke:url(#linearGradient906)"/>
  <g transform="translate(1.6507515,-1.0818644)">
   <path transform="matrix(.92736204 0 0 .92736204 .80259481 20.157361)" d="m19.364125 275.58626c-2.607664-0.65818-4.865401-2.50031-5.956484-4.86-0.527886-1.14166-0.554194-1.60904-0.629277-11.17969l-0.07836-9.98822h4.901283l0.07644 9.34381c0.06888 8.41953 0.122302 9.42782 0.540038 10.19294 1.028816 1.88439 3.766535 2.49405 5.32205 1.18517 1.39502-1.17384 1.422263-1.31709 1.563299-8.22054 0.12028-5.88751 0.179511-6.54809 0.685871-7.64922 0.830284-1.80551 2.428349-3.38631 4.273901-4.22772 2.892556-1.31876 6.769604-0.89448 9.272726 1.01475 0.874482 0.667 0.901593 0.67083 1.337608 0.18904 0.244771-0.27046 1.045723-0.76217 1.779898-1.09267 1.09408-0.49251 1.77657-0.60143 3.78359-0.60379 2.108911-2e-3 2.64546 0.0904 3.866408 0.6697 1.834023 0.87012 3.346332 2.17652 4.187976 3.97109 0 0 0.635186 0.95547 0.667655 2.0214 0.137487 6.65647 0.07458 19.49761 0.07458 19.49761h-5.187979l-9.5e-4 -9.4727c-9.5e-4 -8.99763-0.02665-9.51483-0.513165-10.31278-0.634972-1.04144-1.943415-1.8643-2.965638-1.86504-1.116221-7.3e-4 -2.651667 0.89699-3.32655 1.90723-0.578711 0.86628-0.413815 9.27767-0.413815 9.27767l-0.05791 10.46943-2.679458-4e-3h-2.414932v-9.43374c0-8.12944-0.05725-9.55439-0.414083-10.30636-1.193182-2.51444-4.916802-2.54974-6.416572-0.0608-0.469194 0.77865-0.527117 1.44618-0.644561 7.42842-0.127978 6.51877-0.134738 6.58369-0.821167 7.8849-1.335904 2.53235-4.011922 4.17814-7.094385 4.36313-0.962669 0.0578-2.185752-5e-3 -2.717961-0.13919z" style="fill:none;filter:url(#filter2868);stroke-width:1.3229166;stroke:url(#linearGradient2115)"/>
   <path transform="matrix(.92736204 0 0 .92736204 .80259481 20.157361)" d="m19.364125 275.58626c-2.607664-0.65818-4.865401-2.50031-5.956484-4.86-0.527886-1.14166-0.554194-1.60904-0.629277-11.17969l-0.07836-9.98822h4.901283l0.07644 9.34381c0.06888 8.41953 0.122302 9.42782 0.540038 10.19294 1.028816 1.88439 3.766535 2.49405 5.32205 1.18517 1.39502-1.17384 1.422263-1.31709 1.563299-8.22054 0.12028-5.88751 0.179511-6.54809 0.685871-7.64922 0.830284-1.80551 2.428349-3.38631 4.273901-4.22772 2.892556-1.31876 6.769604-0.89448 9.272726 1.01475 0.874482 0.667 0.901593 0.67083 1.337608 0.18904 0.244771-0.27046 1.045723-0.76217 1.779898-1.09267 1.09408-0.49251 1.77657-0.60143 3.78359-0.60379 2.108911-2e-3 2.64546 0.0904 3.866408 0.6697 1.834023 0.87012 3.346332 2.17652 4.187976 3.97109 0 0 0.635186 0.95547 0.667655 2.0214 0.137487 6.65647 0.07458 19.49761 0.07458 19.49761h-5.187979l-9.5e-4 -9.4727c-9.5e-4 -8.99763-0.02665-9.51483-0.513165-10.31278-0.634972-1.04144-1.943415-1.8643-2.965638-1.86504-1.116221-7.3e-4 -2.651667 0.89699-3.32655 1.90723-0.578711 0.86628-0.413815 9.27767-0.413815 9.27767l-0.05791 10.46943-2.679458-4e-3h-2.414932v-9.43374c0-8.12944-0.05725-9.55439-0.414083-10.30636-1.193182-2.51444-4.916802-2.54974-6.416572-0.0608-0.469194 0.77865-0.527117 1.44618-0.644561 7.42842-0.127978 6.51877-0.134738 6.58369-0.821167 7.8849-1.335904 2.53235-4.011922 4.17814-7.094385 4.36313-0.962669 0.0578-2.185752-5e-3 -2.717961-0.13919z" style="fill:#030303;filter:url(#filter2824);opacity:.3"/>
   <path d="m18.760149 275.7256c-2.418248-0.61037-4.511988-2.3187-5.523817-4.50698-0.489541-1.05874-0.513938-1.49217-0.583568-10.36762l-0.07267-9.2627h4.545264l0.07089 8.6651c0.06388 7.80795 0.113418 8.743 0.50081 9.45254 0.954085 1.74751 3.492942 2.31289 4.935468 1.09908 1.293688-1.08857 1.318952-1.22142 1.449744-7.62341 0.111543-5.45986 0.166471-6.07245 0.63605-7.0936 0.769974-1.67436 2.251959-3.14034 3.963454-3.92063 2.682447-1.22297 6.277874-0.8295 8.599174 0.94104 0.810961 0.61855 0.836103 0.62211 1.240447 0.17531 0.226991-0.25081 0.969764-0.70681 1.65061-1.0133 1.014608-0.45673 1.647523-0.55774 3.508757-0.55993 1.955724-2e-3 2.4533 0.0838 3.58556 0.62105 1.700804 0.80692 3.103262 2.01843 3.88377 3.68264 0 0 0.664818 1.71953 0.694928 2.70804 0.127501 6.17296-0.0066 17.24787-0.0066 17.24787h-4.811135l-8.81e-4 -8.78462c-8.81e-4 -8.34406-0.02471-8.82369-0.475889-9.56368-0.588849-0.96579-1.80225-1.72888-2.75022-1.72957-1.035141-6.7e-4 -2.459056 0.83184-3.084917 1.7687-0.536674 0.80335-0.383756 8.60376-0.383756 8.60376l-0.0537 9.70895-2.484828-4e-3h-2.23954v-8.74849c0-7.53894-0.05309-8.86038-0.384004-9.55773-1.106512-2.3318-4.559656-2.36453-5.950486-0.0564-0.435112 0.72209-0.488828 1.34113-0.597741 6.88883-0.118682 6.04526-0.124951 6.10546-0.761519 7.31216-1.238867 2.3484-3.720504 3.87465-6.579063 4.0462-0.892743 0.0536-2.026984-5e-3 -2.520534-0.12908z" style="fill:#ffffff;opacity:.9"/>
  </g>
 </g>
</svg>
