<svg xmlns="http://www.w3.org/2000/svg" xmlns:xlink="http://www.w3.org/1999/xlink" width="256" height="256" version="1.1" viewBox="0 0 67.73 67.73">
 <defs>
  <linearGradient id="linearGradient1108" x1="296" x2="296" y1="-212" y2="236" gradientUnits="userSpaceOnUse" xlink:href="#linearGradient1013"/>
  <linearGradient id="linearGradient1013">
   <stop offset="0" style="stop-color:#ffffff"/>
   <stop style="stop-color:#ffffff;stop-opacity:0.09803922" offset=".125"/>
   <stop style="stop-color:#000000;stop-opacity:0.09803922" offset=".925"/>
   <stop offset="1" style="stop-color:#000000;stop-opacity:0.49803922"/>
  </linearGradient>
  <clipPath id="clipPath1082-3-367" clipPathUnits="userSpaceOnUse">
   <path d="M 361.9375,-212 C 507.2348,-212 528,-191.28677 528,-46.125 V 70.125 C 528,215.28618 507.2348,236 361.9375,236 H 214.0625 C 68.7652,236 48,215.28618 48,70.125 V -46.125 C 48,-191.28677 68.7652,-212 214.0625,-212 Z" style="fill:#8c59d9"/>
  </clipPath>
  <linearGradient id="linearGradient900" x1="152" x2="152" y1="52" y2="260" gradientTransform="matrix(0.26458333,0,0,0.26458333,-6.993468,221.97263)" gradientUnits="userSpaceOnUse" xlink:href="#linearGradient898"/>
  <linearGradient id="linearGradient898">
   <stop offset="0" style="stop-color:#111111"/>
   <stop offset="1" style="stop-color:#4d4d4d"/>
  </linearGradient>
  <linearGradient id="linearGradient910" x1="160" x2="160" y1="44" y2="268" gradientTransform="matrix(0.26458333,0,0,0.26458333,-6.993468,221.97263)" gradientUnits="userSpaceOnUse" xlink:href="#linearGradient908"/>
  <linearGradient id="linearGradient908">
   <stop style="stop-color:#eab305" offset="0"/>
   <stop style="stop-color:#ffda64" offset="1"/>
  </linearGradient>
  <filter style="color-interpolation-filters:sRGB" id="filter4569" width="1.023" height="1.025" x="-.01" y="-.01">
   <feGaussianBlur stdDeviation="1.16"/>
  </filter>
  <filter style="color-interpolation-filters:sRGB" id="filter924" width="1.046" height="1.05" x="-.02" y="-.03">
   <feGaussianBlur stdDeviation="2.32"/>
  </filter>
 </defs>
 <g transform="translate(0,-229.26666)">
  <path style="opacity:0.2;filter:url(#filter924)" d="m 162.53675,5.5680001 c 72.64865,0 83.03125,10.3566149 83.03125,82.9375049 v 58.125005 c 0,72.58059 -10.3826,82.9375 -83.03125,82.9375 H 88.599254 C 15.9506,229.56801 5.568,219.2111 5.568,146.63051 V 88.505505 c 0,-72.58089 10.3826,-82.9375049 83.031254,-82.9375049 z" transform="matrix(0.26458333,0,0,0.26458333,-1.8735229e-8,232.67026)"/>
  <path d="m 162.53675,3.5680001 c 72.64865,0 83.03125,10.3566149 83.03125,82.9375049 v 58.125005 c 0,72.58059 -10.3826,82.9375 -83.03125,82.9375 H 88.599254 C 15.9506,227.56801 5.568,217.2111 5.568,144.63051 V 86.505505 c 0,-72.58089 10.3826,-82.9375049 83.031254,-82.9375049 z" transform="matrix(0.26458333,0,0,0.26458333,-1.8735229e-8,232.67026)" style="opacity:0.1;filter:url(#filter4569)"/>
  <path style="fill:url(#linearGradient910)" d="m 43.004513,233.61429 c 19.221622,0 21.968685,2.74019 21.968685,21.94388 v 15.37891 c 0,19.20362 -2.747063,21.94388 -21.968685,21.94388 h -19.56263 c -19.221622,0 -21.968685,-2.74026 -21.968685,-21.94388 v -15.37891 c 0,-19.20369 2.747063,-21.94388 21.968685,-21.94388 z"/>
  <path d="m 31.106536,282.82679 10.583328,-23.28333 -6.349995,-10e-6 v -14.81666 l -10.583337,23.28334 6.350004,-1e-5 z" style="opacity:0.5;fill:#ffffff"/>
  <path style="fill:url(#linearGradient900)" d="m 31.106536,282.29762 10.583328,-23.28333 h -6.349995 v -14.81667 l -10.583337,23.28334 6.350004,-10e-6 z"/>
  <path d="M 361.9375,-212 C 507.2348,-212 528,-191.28677 528,-46.125 V 70.125 C 528,215.28618 507.2348,236 361.9375,236 H 214.0625 C 68.7652,236 48,215.28618 48,70.125 V -46.125 C 48,-191.28677 68.7652,-212 214.0625,-212 Z" clip-path="url(#clipPath1082-3-367)" transform="matrix(0.13229167,0,0,0.13229167,-4.876802,261.66013)" style="opacity:0.4;fill:none;stroke:url(#linearGradient1108);stroke-width:8;stroke-linecap:round;stroke-linejoin:round"/>
 </g>
</svg>
