<svg xmlns="http://www.w3.org/2000/svg" xmlns:xlink="http://www.w3.org/1999/xlink" width="256" height="256" version="1.0" style="enable-background:new">
 <defs>
  <linearGradient id="linearGradient864">
   <stop style="stop-color:#ffffff" offset="0"/>
   <stop style="stop-color:#ffffff;stop-opacity:0" offset="1"/>
  </linearGradient>
  <filter style="color-interpolation-filters:sRGB" id="filter925" width="1.046" height="1.05" x="-.02" y="-.03">
   <feGaussianBlur stdDeviation="2.32"/>
  </filter>
  <filter style="color-interpolation-filters:sRGB" id="filter931" width="1.023" height="1.025" x="-.01" y="-.01">
   <feGaussianBlur stdDeviation="1.16"/>
  </filter>
  <linearGradient id="linearGradient1108" x1="296" x2="296" y1="-212" y2="236" gradientUnits="userSpaceOnUse" xlink:href="#linearGradient1013"/>
  <linearGradient id="linearGradient1013">
   <stop offset="0" style="stop-color:#ffffff"/>
   <stop style="stop-color:#ffffff;stop-opacity:0.09803922" offset=".125"/>
   <stop style="stop-color:#000000;stop-opacity:0.09803922" offset=".925"/>
   <stop offset="1" style="stop-color:#000000;stop-opacity:0.49803922"/>
  </linearGradient>
  <clipPath id="clipPath1082-3" clipPathUnits="userSpaceOnUse">
   <path d="M 361.9375,-212 C 507.2348,-212 528,-191.28677 528,-46.125 V 70.125 C 528,215.28618 507.2348,236 361.9375,236 H 214.0625 C 68.7652,236 48,215.28618 48,70.125 V -46.125 C 48,-191.28677 68.7652,-212 214.0625,-212 Z" style="fill:#8c59d9"/>
  </clipPath>
  <radialGradient id="radialGradient866" cx="66.542" cy="240.261" r="120" fx="66.542" fy="240.261" gradientTransform="matrix(1,0,0,0.93333333,0,11.495467)" gradientUnits="userSpaceOnUse" xlink:href="#linearGradient864"/>
  <linearGradient id="linearGradient1106-2" x1="344" x2="104" y1="33.559" y2="33.559" gradientTransform="matrix(0.61793247,0,0,0.4413283,-36.855148,104.62699)" gradientUnits="userSpaceOnUse" xlink:href="#linearGradient1104"/>
  <linearGradient id="linearGradient1104">
   <stop style="stop-color:#4fd2fd" offset="0"/>
   <stop style="stop-color:#4fd2fd;stop-opacity:0" offset="1"/>
  </linearGradient>
 </defs>
 <g transform="translate(0,-44)">
  <g>
   <g>
    <path d="m 162.53675,62.431991 c 72.64865,0 83.03125,10.356615 83.03125,82.937499 v 58.125 c 0,72.58059 -10.3826,82.9375 -83.03125,82.9375 h -73.9375 c -72.64865,0 -83.0312501,-10.35691 -83.0312501,-82.9375 v -58.125 c 0,-72.580884 10.3826001,-82.937499 83.0312501,-82.937499 z" style="opacity:0.2;filter:url(#filter925)"/>
    <path style="opacity:0.1;filter:url(#filter931)" d="m 162.53675,61.431991 c 72.64865,0 83.03125,10.356615 83.03125,82.937499 v 58.125 c 0,72.58059 -10.3826,82.9375 -83.03125,82.9375 h -73.9375 c -72.64865,0 -83.0312501,-10.35691 -83.0312501,-82.9375 v -58.125 c 0,-72.580884 10.3826001,-82.937499 83.0312501,-82.937499 z"/>
   </g>
   <g>
    <path style="fill:#241f31" d="m 162.53675,60.431991 c 72.64865,0 83.03125,10.356615 83.03125,82.937499 v 58.125 c 0,72.58059 -10.3826,82.9375 -83.03125,82.9375 h -73.9375 c -72.64865,0 -83.0312501,-10.35691 -83.0312501,-82.9375 v -58.125 c 0,-72.580884 10.3826001,-82.937499 83.0312501,-82.937499 z"/>
    <path d="m 162.53675,60.431991 c 72.64865,0 83.03125,10.356615 83.03125,82.937499 v 58.125 c 0,72.58059 -10.3826,82.9375 -83.03125,82.9375 h -73.9375 c -72.64865,0 -83.0312501,-10.35691 -83.0312501,-82.9375 v -58.125 c 0,-72.580884 10.3826001,-82.937499 83.0312501,-82.937499 z" style="opacity:0.1;fill:url(#radialGradient866)"/>
   </g>
   <g>
    <path style="font-variation-settings:normal;inline-size:0;opacity:0.4;fill:url(#linearGradient1108);stop-color:#000000" d="m 214.0625,-216 c -72.83873,0 -115.522633,4.88257 -140.34375,29.67188 -24.821117,24.7893 -29.71875,67.4315 -29.71875,140.20312 v 116.25 c 0,72.77132 4.897641,115.41375 29.71875,140.20312 24.821109,24.78938 67.50502,29.67188 140.34375,29.67188 h 147.875 c 72.83873,0 115.52264,-4.8825 140.34375,-29.67188 24.82111,-24.78937 29.71875,-67.4318 29.71875,-140.20312 v -116.25 c 0,-72.77162 -4.89763,-115.41382 -29.71875,-140.20312 -24.82112,-24.78931 -67.50502,-29.67188 -140.34375,-29.67188 z m 0,8 h 147.875 c 72.45857,0 112.8056,5.47428 134.69141,27.33203 21.8858,21.85776 27.37109,62.15282 27.37109,134.54297 v 116.25 c 0,72.38986 -5.48528,112.68514 -27.37109,134.54297 -21.88582,21.85783 -62.23284,27.33203 -134.69141,27.33203 h -147.875 c -72.45857,0 -112.80559,-5.4742 -134.691406,-27.33203 -21.885816,-21.85783 -27.371094,-62.15311 -27.371094,-134.54297 v -116.25 c 0,-72.39015 5.485286,-112.68521 27.371094,-134.54297 21.885806,-21.85775 62.232836,-27.33203 134.691406,-27.33203 z" clip-path="url(#clipPath1082-3)" transform="matrix(0.5,0,0,0.5,-18.432,166.43199)"/>
   </g>
  </g>
 </g>
 <g transform="matrix(0.92764487,0,0,0.92764487,18.367317,16.226901)">
  <g>
   <path style="opacity:0.23600003;fill:none;stroke:#4fd2fd;stroke-width:8.35547924;stroke-miterlimit:10" d="m -13.748951,127.58281 110.367216,-0.007 24.717295,-40.602206 14.83038,68.847216 19.77384,-28.24501 h 88.98227"/>
   <path style="fill:none;stroke:url(#linearGradient1106-2);stroke-width:8.35547924;stroke-linecap:round;stroke-miterlimit:10" d="m 12.540018,128.03725 84.078247,-0.46118 24.717295,-40.602206 14.83038,68.847216 19.77384,-28.24501 h 14.83038"/>
  </g>
 </g>
</svg>
