<svg xmlns="http://www.w3.org/2000/svg" xmlns:xlink="http://www.w3.org/1999/xlink" width="256" height="256" version="1.1" viewBox="0 0 67.73 67.73">
 <defs>
  <linearGradient id="linearGradient1108" x1="296" x2="296" y1="-212" y2="236" gradientUnits="userSpaceOnUse" xlink:href="#linearGradient1013"/>
  <linearGradient id="linearGradient1013">
   <stop offset="0" style="stop-color:#ffffff"/>
   <stop style="stop-color:#ffffff;stop-opacity:0.09803922" offset=".125"/>
   <stop style="stop-color:#000000;stop-opacity:0.09803922" offset=".925"/>
   <stop offset="1" style="stop-color:#000000;stop-opacity:0.49803922"/>
  </linearGradient>
  <clipPath id="clipPath1082-3-2" clipPathUnits="userSpaceOnUse">
   <path d="M 361.9375,-212 C 507.2348,-212 528,-191.28677 528,-46.125 V 70.125 C 528,215.28618 507.2348,236 361.9375,236 H 214.0625 C 68.7652,236 48,215.28618 48,70.125 V -46.125 C 48,-191.28677 68.7652,-212 214.0625,-212 Z" style="fill:#8c59d9"/>
  </clipPath>
  <filter style="color-interpolation-filters:sRGB" id="filter4569" width="1.023" height="1.025" x="-.01" y="-.01">
   <feGaussianBlur stdDeviation="1.16"/>
  </filter>
  <filter style="color-interpolation-filters:sRGB" id="filter913" width="1.046" height="1.05" x="-.02" y="-.03">
   <feGaussianBlur stdDeviation="2.32"/>
  </filter>
  <filter style="color-interpolation-filters:sRGB" id="filter1056" width="1.114" height="1.083" x="-.06" y="-.04">
   <feGaussianBlur stdDeviation=".573"/>
  </filter>
 </defs>
 <g transform="translate(0,-229.26666)">
  <path style="opacity:0.2;filter:url(#filter913)" d="m 162.53675,5.5680001 c 72.64865,0 83.03125,10.3566149 83.03125,82.9375049 v 58.125005 c 0,72.58059 -10.3826,82.9375 -83.03125,82.9375 H 88.599254 C 15.9506,229.56801 5.568,219.2111 5.568,146.63051 V 88.505505 c 0,-72.58089 10.3826,-82.9375049 83.031254,-82.9375049 z" transform="matrix(0.26458333,0,0,0.26458333,-1.8735229e-8,232.67026)"/>
  <path d="m 162.53675,3.5680001 c 72.64865,0 83.03125,10.3566149 83.03125,82.9375049 v 58.125005 c 0,72.58059 -10.3826,82.9375 -83.03125,82.9375 H 88.599254 C 15.9506,227.56801 5.568,217.2111 5.568,144.63051 V 86.505505 c 0,-72.58089 10.3826,-82.9375049 83.031254,-82.9375049 z" transform="matrix(0.26458333,0,0,0.26458333,-1.8735229e-8,232.67026)" style="opacity:0.1;filter:url(#filter4569)"/>
  <path style="fill:#4d4d4d" d="m 23.441882,233.61429 c -9.611188,0 -15.1016409,0.68375 -18.19217,3.77032 -3.090525,3.08656 -3.776514,8.57135 -3.776514,18.17356 v 15.37891 c 0,9.60218 0.68599,15.087 3.776514,18.17357 3.0905286,3.08658 8.580982,3.77031 18.19217,3.77031 h 19.562631 c 9.61119,0 15.101644,-0.68373 18.19217,-3.77031 3.090527,-3.08657 3.776515,-8.57139 3.776515,-18.17357 v -15.37891 c 0,-9.60221 -0.685988,-15.087 -3.776515,-18.17356 -3.090526,-3.08657 -8.580982,-3.77032 -18.19217,-3.77032 z"/>
  <path style="opacity:0.2;fill:#131313" d="m 1.473198,270.40792 v 0.52916 c 0,9.60218 0.68599,15.087 3.776514,18.17357 3.0905286,3.08658 8.580982,3.77031 18.19217,3.77031 h 19.562631 c 9.61119,0 15.101644,-0.68373 18.19217,-3.77031 3.090527,-3.08657 3.776515,-8.57139 3.776515,-18.17357 v -0.52916 c 0,9.60217 -0.685988,15.08699 -3.776515,18.17356 -3.090526,3.08658 -8.58098,3.77032 -18.19217,3.77032 H 23.441882 c -9.611188,0 -15.1016414,-0.68374 -18.19217,-3.77032 -3.090524,-3.08657 -3.776514,-8.57139 -3.776514,-18.17356 z"/>
  <path d="M 361.9375,-212 C 507.2348,-212 528,-191.28677 528,-46.125 V 70.125 C 528,215.28618 507.2348,236 361.9375,236 H 214.0625 C 68.7652,236 48,215.28618 48,70.125 V -46.125 C 48,-191.28677 68.7652,-212 214.0625,-212 Z" clip-path="url(#clipPath1082-3-2)" transform="matrix(0.13229167,0,0,0.13229167,-4.876802,261.66013)" style="opacity:0.4;fill:none;stroke:url(#linearGradient1108);stroke-width:8;stroke-linecap:round;stroke-linejoin:round"/>
  <path style="opacity:0.05;fill:#ffffff" d="M 2.0863639,243.86421 C 1.6241591,246.75547 1.4732003,250.3506 1.4732,254.83531 v 15.67677 c 0,19.57554 2.8002706,22.36888 22.394173,22.36888 h 19.94152 c 14.587923,0 19.86448,-1.55409 21.609809,-10.42378 z"/>
  <g transform="translate(-0.50458165,0.62492851)">
   <path d="m 32.027724,279.04353 c -1.271162,-0.36592 -2.315197,-1.42808 -2.652095,-2.69816 -0.131489,-0.4957 -0.131489,-1.49712 0,-1.99281 0.271274,-1.02268 1.066291,-2.00778 1.963094,-2.43245 l 0.475036,-0.22495 -0.03335,-0.33465 c -0.112106,-1.12498 -0.786466,-1.59723 -3.362239,-2.35455 -1.711318,-0.50316 -2.020236,-0.61474 -2.889681,-1.04375 -0.719043,-0.35481 -0.869886,-0.46 -1.365143,-0.95206 -0.44805,-0.44516 -0.609296,-0.66052 -0.825706,-1.10287 -0.396384,-0.81021 -0.460299,-1.25598 -0.462111,-3.22296 l -0.0015,-1.65955 -0.263023,-0.194 c -1.207617,-0.89076 -1.331958,-2.77327 -0.254345,-3.85089 1.164841,-1.16485 3.101916,-0.95395 3.99003,0.4344 0.661897,1.03471 0.470992,2.46466 -0.438175,3.28208 -0.181122,0.16284 -0.358094,0.29608 -0.393272,0.29608 -0.04118,0 -0.05505,0.60467 -0.03897,1.69756 0.02386,1.62062 0.03183,1.71156 0.17591,2.00651 0.296291,0.60652 0.980165,1.00697 2.560103,1.49907 2.007225,0.62521 2.984192,0.95267 3.281954,1.10007 l 0.307177,0.15206 v -7.49579 -7.49579 h -1.261042 c -0.725081,0 -1.261045,-0.0253 -1.261045,-0.0595 0,-0.10897 3.749584,-6.31037 3.815474,-6.31037 0.06589,0 3.815475,6.2014 3.815475,6.31037 0,0.0343 -0.535964,0.0595 -1.261046,0.0595 h -1.261052 v 5.65963 5.65963 L 34.69536,263.62 c 0.498801,-0.25233 1.566189,-0.59183 3.159502,-1.00492 2.757321,-0.71488 3.603263,-1.10902 3.942053,-1.83667 0.150449,-0.32313 0.156303,-0.38936 0.156913,-1.77454 l 6.19e-4,-1.43889 h -0.614382 -0.614357 v -2.58677 -2.58675 h 2.554426 2.554428 v 2.58675 2.58677 H 45.227945 44.62135 l -0.03244,1.63289 c -0.02453,1.23467 -0.05829,1.72556 -0.138399,2.01289 -0.345793,1.24015 -1.263113,2.24276 -2.635567,2.8806 -0.769485,0.35761 -1.493407,0.59134 -3.217063,1.03863 -2.761755,0.71666 -3.577797,1.0829 -3.995256,1.79311 l -0.182163,0.30989 -0.0193,2.2311 -0.0193,2.23107 0.471979,0.22495 c 0.894913,0.42652 1.689527,1.41266 1.960035,2.43245 0.131488,0.49569 0.131488,1.49711 0,1.99281 -0.343786,1.29604 -1.435042,2.38347 -2.7261,2.71655 -0.530716,0.13692 -1.552207,0.1278 -2.060073,-0.0184 z" style="filter:url(#filter1056);opacity:0.3"/>
   <path style="fill:#d9d9d9" d="m 32.027724,279.04353 c -1.271162,-0.36592 -2.315197,-1.42808 -2.652095,-2.69816 -0.131489,-0.4957 -0.131489,-1.49712 0,-1.99281 0.271274,-1.02268 1.066291,-2.00778 1.963094,-2.43245 l 0.475036,-0.22495 -0.03335,-0.33465 c -0.112106,-1.12498 -0.786466,-1.59723 -3.362239,-2.35455 -1.711318,-0.50316 -2.020236,-0.61474 -2.889681,-1.04375 -0.719043,-0.35481 -0.869886,-0.46 -1.365143,-0.95206 -0.44805,-0.44516 -0.609296,-0.66052 -0.825706,-1.10287 -0.396384,-0.81021 -0.460299,-1.25598 -0.462111,-3.22296 l -0.0015,-1.65955 -0.263023,-0.194 c -1.207617,-0.89076 -1.331958,-2.77327 -0.254345,-3.85089 1.164841,-1.16485 3.101916,-0.95395 3.99003,0.4344 0.661897,1.03471 0.470992,2.46466 -0.438175,3.28208 -0.181122,0.16284 -0.358094,0.29608 -0.393272,0.29608 -0.04118,0 -0.05505,0.60467 -0.03897,1.69756 0.02386,1.62062 0.03183,1.71156 0.17591,2.00651 0.296291,0.60652 0.980165,1.00697 2.560103,1.49907 2.007225,0.62521 2.984192,0.95267 3.281954,1.10007 l 0.307177,0.15206 v -7.49579 -7.49579 h -1.261042 c -0.725081,0 -1.261045,-0.0253 -1.261045,-0.0595 0,-0.10897 3.749584,-6.31037 3.815474,-6.31037 0.06589,0 3.815475,6.2014 3.815475,6.31037 0,0.0343 -0.535964,0.0595 -1.261046,0.0595 h -1.261052 v 5.65963 5.65963 L 34.69536,263.62 c 0.498801,-0.25233 1.566189,-0.59183 3.159502,-1.00492 2.757321,-0.71488 3.603263,-1.10902 3.942053,-1.83667 0.150449,-0.32313 0.156303,-0.38936 0.156913,-1.77454 l 6.19e-4,-1.43889 h -0.614382 -0.614357 v -2.58677 -2.58675 h 2.554426 2.554428 v 2.58675 2.58677 H 45.227945 44.62135 l -0.03244,1.63289 c -0.02453,1.23467 -0.05829,1.72556 -0.138399,2.01289 -0.345793,1.24015 -1.263113,2.24276 -2.635567,2.8806 -0.769485,0.35761 -1.493407,0.59134 -3.217063,1.03863 -2.761755,0.71666 -3.577797,1.0829 -3.995256,1.79311 l -0.182163,0.30989 -0.0193,2.2311 -0.0193,2.23107 0.471979,0.22495 c 0.894913,0.42652 1.689527,1.41266 1.960035,2.43245 0.131488,0.49569 0.131488,1.49711 0,1.99281 -0.343786,1.29604 -1.435042,2.38347 -2.7261,2.71655 -0.530716,0.13692 -1.552207,0.1278 -2.060073,-0.0184 z"/>
  </g>
 </g>
</svg>
