<svg width="256" height="256" version="1.1" viewBox="0 0 67.73 67.73" xmlns="http://www.w3.org/2000/svg" xmlns:xlink="http://www.w3.org/1999/xlink">
 <defs>
  <linearGradient id="linearGradient918" x1="252.122" x2="21.425" y1="210.694" y2="210.694" gradientUnits="userSpaceOnUse">
   <stop style="stop-color:#000000" offset="0"/>
   <stop style="stop-color:#000000;stop-opacity:0" offset="1"/>
  </linearGradient>
  <clipPath id="clipPath1082-3-5">
   <path d="M 361.9375,-212 C 507.2348,-212 528,-191.28677 528,-46.125 V 70.125 C 528,215.28618 507.2348,236 361.9375,236 H 214.0625 C 68.7652,236 48,215.28618 48,70.125 V -46.125 C 48,-191.28677 68.7652,-212 214.0625,-212 Z" style="fill:#8c59d9"/>
  </clipPath>
  <filter id="filter4569-2" x="-.01" y="-.01" width="1.023" height="1.025" style="color-interpolation-filters:sRGB">
   <feGaussianBlur stdDeviation="1.16"/>
  </filter>
  <filter id="filter913" x="-.02" y="-.03" width="1.046" height="1.05" style="color-interpolation-filters:sRGB">
   <feGaussianBlur stdDeviation="2.32"/>
  </filter>
  <linearGradient id="linearGradient906" x1="296" x2="296" y1="-212" y2="236" gradientUnits="userSpaceOnUse">
   <stop style="stop-color:#ffffff" offset="0"/>
   <stop style="stop-color:#ffffff;stop-opacity:.09803922" offset=".125"/>
   <stop style="stop-color:#000000;stop-opacity:.09803922" offset=".925"/>
   <stop style="stop-color:#000000;stop-opacity:.49803922" offset="1"/>
  </linearGradient>
  <filter id="filter880" x="-.05" y="-.05" width="1.098" height="1.094" style="color-interpolation-filters:sRGB">
   <feGaussianBlur stdDeviation=".252"/>
  </filter>
 </defs>
 <g transform="translate(0,-229.26666)">
  <path transform="matrix(.26970778 0 0 .26970778 -7.1289177 220.56049)" d="m188.96876 45.999995c72.64865 0 83.03125 10.356615 83.03125 82.937505v58.125c0 72.58059-10.3826 82.9375-83.03125 82.9375h-73.9375c-72.648654 0-83.031254-10.35691-83.031254-82.9375v-58.125c0-72.58089 10.3826-82.937505 83.031254-82.937505z" style="filter:url(#filter913);opacity:.2"/>
  <path transform="matrix(.26970778 0 0 .26970778 -7.1289177 220.56049)" d="m188.96876 43.999995c72.64865 0 83.03125 10.356615 83.03125 82.937505v58.125c0 72.58059-10.3826 82.9375-83.03125 82.9375h-73.9375c-72.648654 0-83.031254-10.35691-83.031254-82.9375v-58.125c0-72.58089 10.3826-82.937505 83.031254-82.937505z" style="filter:url(#filter4569-2);opacity:.1"/>
  <path d="m23.895905 232.42763c-9.797337 0-15.39413 0.69699-18.544517 3.84334-3.150381 3.14634-3.849657 8.73736-3.849657 18.52555v15.67677c0 9.78815 0.699276 15.3792 3.849657 18.52555 3.150387 3.14636 8.7471787 3.84333 18.544517 3.84333h19.94152c9.797339 0 15.394134-0.69697 18.544517-3.84333 3.150384-3.14635 3.849659-8.7374 3.849659-18.52555v-15.67677c0-9.78819-0.699275-15.37921-3.849659-18.52555-3.150383-3.14635-8.74718-3.84334-18.544517-3.84334z" style="fill:#4d4d4d"/>
  <path d="m1.5017313 269.93387v0.53942c0 9.78815 0.699276 15.3792 3.849657 18.52555 3.150387 3.14636 8.7471787 3.84333 18.544517 3.84333h19.94152c9.797339 0 15.394134-0.69697 18.544517-3.84333 3.150384-3.14635 3.849659-8.7374 3.849659-18.52555v-0.53942c0 9.78815-0.699275 15.3792-3.849659 18.52555-3.150383 3.14636-8.747178 3.84334-18.544517 3.84334h-19.94152c-9.797338 0-15.39413-0.69698-18.544517-3.84334-3.150381-3.14635-3.849657-8.7374-3.849657-18.52555z" style="fill:#131313;opacity:.2"/>
  <path transform="matrix(.13485389 0 0 .13485389 -4.9712557 261.01666)" d="M 361.9375,-212 C 507.2348,-212 528,-191.28677 528,-46.125 V 70.125 C 528,215.28618 507.2348,236 361.9375,236 H 214.0625 C 68.7652,236 48,215.28618 48,70.125 V -46.125 C 48,-191.28677 68.7652,-212 214.0625,-212 Z" clip-path="url(#clipPath1082-3-5)" style="fill:none;opacity:.4;stroke-linecap:round;stroke-linejoin:round;stroke-width:8;stroke:url(#linearGradient906)"/>
  <path d="m1.5017313 260.47724v9.99605c0 9.78815 0.699276 15.3792 3.849657 18.52555 3.150387 3.14636 8.7471787 3.84333 18.544517 3.84333h19.94152c9.797339 0 15.394134-0.69697 18.544517-3.84333 3.150384-3.14635 3.849659-8.7374 3.849659-18.52555v-9.99605z" style="fill:#ffffff;opacity:.05"/>
  <path transform="matrix(.14029178 0 0 .14068154 -1.5040347 226.52117)" d="m175.2233 228.03114v15.10489h76.69918v-15.10489z" style="fill:url(#linearGradient918);filter:url(#filter920);opacity:.5"/>
  <path d="m23.078353 258.31958v2.15766h10.78831v-2.15766z" style="fill:#f2f2f2"/>
  <path d="m23.078266 258.3196v0.28136h10.788397v-0.28136z" style="fill:#ffffff"/>
  <path d="m19.161054 249.22882h-2.557607l-0.738278 2.93554h2.575185zm-1.318354-5.00095-0.914059 3.64744h2.566396l0.922848-3.64744h1.406244l-0.90527 3.64744h2.742176v1.35351h-3.084948l-0.7207 2.93554h2.79491v1.34472h-3.137682l-0.914059 3.63866h-1.406244l0.90527-3.63866h-2.575185l-0.90527 3.63866h-1.415033l0.914059-3.63866h-2.768543v-1.34472h3.093737l0.738278-2.93554h-2.830067v-1.35351h3.172839l0.896481-3.64744z" style="filter:url(#filter880);opacity:.3;stroke-width:.52916667;stroke:#000000"/>
  <path d="m19.161054 249.22882h-2.557607l-0.738278 2.93554h2.575185zm-1.318354-5.00095-0.914059 3.64744h2.566396l0.922848-3.64744h1.406244l-0.90527 3.64744h2.742176v1.35351h-3.084948l-0.7207 2.93554h2.79491v1.34472h-3.137682l-0.914059 3.63866h-1.406244l0.90527-3.63866h-2.575185l-0.90527 3.63866h-1.415033l0.914059-3.63866h-2.768543v-1.34472h3.093737l0.738278-2.93554h-2.830067v-1.35351h3.172839l0.896481-3.64744z" style="fill:#f2f2f2;stroke-width:.52916667;stroke:#f2f2f2"/>
 </g>
</svg>
