<svg xmlns="http://www.w3.org/2000/svg" xmlns:xlink="http://www.w3.org/1999/xlink" width="256" height="256" version="1.1" viewBox="0 0 67.73 67.73">
 <defs>
  <linearGradient id="linearGradient1013">
   <stop offset="0" style="stop-color:#ffffff"/>
   <stop style="stop-color:#ffffff;stop-opacity:0.09803922" offset=".125"/>
   <stop style="stop-color:#000000;stop-opacity:0.09803922" offset=".925"/>
   <stop offset="1" style="stop-color:#000000;stop-opacity:0.49803922"/>
  </linearGradient>
  <clipPath id="clipPath1082-3-5" clipPathUnits="userSpaceOnUse">
   <path d="M 361.9375,-212 C 507.2348,-212 528,-191.28677 528,-46.125 V 70.125 C 528,215.28618 507.2348,236 361.9375,236 H 214.0625 C 68.7652,236 48,215.28618 48,70.125 V -46.125 C 48,-191.28677 68.7652,-212 214.0625,-212 Z" style="fill:#8c59d9"/>
  </clipPath>
  <filter style="color-interpolation-filters:sRGB" id="filter4569-2" width="1.023" height="1.025" x="-.01" y="-.01">
   <feGaussianBlur stdDeviation="1.16"/>
  </filter>
  <filter style="color-interpolation-filters:sRGB" id="filter913" width="1.046" height="1.05" x="-.02" y="-.03">
   <feGaussianBlur stdDeviation="2.32"/>
  </filter>
  <linearGradient id="linearGradient906" x1="296" x2="296" y1="-212" y2="236" gradientUnits="userSpaceOnUse" xlink:href="#linearGradient1013"/>
 </defs>
 <g transform="translate(0,-229.26666)">
  <path style="opacity:0.2;filter:url(#filter913)" d="m 188.96876,45.999995 c 72.64865,0 83.03125,10.356615 83.03125,82.937505 v 58.125 c 0,72.58059 -10.3826,82.9375 -83.03125,82.9375 h -73.9375 C 42.382606,270 32.000006,259.64309 32.000006,187.0625 v -58.125 c 0,-72.58089 10.3826,-82.937505 83.031254,-82.937505 z" transform="matrix(0.26970778,0,0,0.26970778,-7.1289177,220.56049)"/>
  <path d="m 188.96876,43.999995 c 72.64865,0 83.03125,10.356615 83.03125,82.937505 v 58.125 c 0,72.58059 -10.3826,82.9375 -83.03125,82.9375 h -73.9375 C 42.382606,268 32.000006,257.64309 32.000006,185.0625 v -58.125 c 0,-72.58089 10.3826,-82.937505 83.031254,-82.937505 z" transform="matrix(0.26970778,0,0,0.26970778,-7.1289177,220.56049)" style="opacity:0.1;filter:url(#filter4569-2)"/>
  <path style="fill:#4d4d4d" d="m 23.895905,232.42763 c -9.797337,0 -15.3941297,0.69699 -18.5445167,3.84334 -3.150381,3.14634 -3.849657,8.73736 -3.849657,18.52555 v 15.67677 c 0,9.78815 0.699276,15.3792 3.849657,18.52555 3.150387,3.14636 8.7471787,3.84333 18.5445167,3.84333 h 19.94152 c 9.797339,0 15.394134,-0.69697 18.544517,-3.84333 3.150384,-3.14635 3.849659,-8.7374 3.849659,-18.52555 v -15.67677 c 0,-9.78819 -0.699275,-15.37921 -3.849659,-18.52555 -3.150383,-3.14635 -8.74718,-3.84334 -18.544517,-3.84334 z"/>
  <path style="opacity:0.2;fill:#131313" d="m 1.5017313,269.93387 v 0.53942 c 0,9.78815 0.699276,15.3792 3.849657,18.52555 3.150387,3.14636 8.7471787,3.84333 18.5445167,3.84333 h 19.94152 c 9.797339,0 15.394134,-0.69697 18.544517,-3.84333 3.150384,-3.14635 3.849659,-8.7374 3.849659,-18.52555 v -0.53942 c 0,9.78815 -0.699275,15.3792 -3.849659,18.52555 -3.150383,3.14636 -8.747178,3.84334 -18.544517,3.84334 h -19.94152 c -9.797338,0 -15.3941297,-0.69698 -18.5445167,-3.84334 -3.150381,-3.14635 -3.849657,-8.7374 -3.849657,-18.52555 z"/>
  <g transform="translate(-2.6171876e-7,0.23804265)">
   <path d="M 41.974217,232.17708 H 29.104167 L 2.2728738,283.27261 c 0.08347,0.34931 0.153825,0.72414 0.250735,1.04914 0.195683,0.65628 0.419444,1.26397 0.674856,1.82627 0.255412,0.56231 0.542332,1.07905 0.864342,1.55425 0.322,0.4752 0.67912,0.90857 1.074578,1.30351 0.395457,0.39495 0.829293,0.75146 1.305067,1.07302 0.475784,0.32158 0.993366,0.60826 1.556325,0.86331 0.56296,0.25504 1.171338,0.47843 1.828352,0.67381 0.6570042,0.19539 1.3626852,0.36304 2.1206022,0.50562 0.757928,0.14259 1.567942,0.26051 2.433646,0.35716 0.1546,0.0173 0.33604,0.025 0.49421,0.0409 l 31.63107,-60.23359 c -1.42486,-0.0556 -2.89097,-0.10007 -4.53244,-0.10901 z" style="opacity:0.2;fill:#f0f0f0"/>
   <path d="m 66.203797,254.26696 c -0.005,-2.27556 -0.0412,-4.36493 -0.14951,-6.20247 -0.0576,-0.97936 -0.13315,-1.89952 -0.22997,-2.76432 -0.0968,-0.8648 -0.21485,-1.67393 -0.35767,-2.43104 -0.14282,-0.75711 -0.31045,-1.46225 -0.50615,-2.11853 -0.19568,-0.65628 -0.41944,-1.26396 -0.67485,-1.82627 -0.25541,-0.56231 -0.54233,-1.07906 -0.86433,-1.55425 -0.322,-0.4752 -0.67912,-0.90856 -1.07459,-1.30352 -0.39546,-0.39494 -0.82929,-0.75146 -1.30507,-1.07301 -0.47577,-0.32158 -0.99336,-0.60827 -1.55632,-0.86331 -0.56296,-0.25504 -1.17134,-0.47843 -1.82835,-0.67382 -0.65701,-0.19538 -1.36269,-0.36303 -2.12061,-0.50562 -0.75792,-0.14258 -1.56794,-0.26051 -2.43364,-0.35715 -0.86569,-0.0966 -1.7871,-0.17189 -2.76744,-0.22946 -1.12997,-0.0664 -2.52186,-0.0671 -3.81397,-0.0913 l -31.55789,60.28917 c 0.67842,0.0658 1.35834,0.13066 2.10348,0.17442 1.96067,0.11513 4.15734,0.15885 6.61775,0.15885 h 20.03288 c 2.46041,0 4.65709,-0.0437 6.61775,-0.15885 0.98034,-0.0575 1.90175,-0.13281 2.76744,-0.22946 0.8657,-0.0967 1.67572,-0.21457 2.43364,-0.35715 0.75792,-0.14259 1.4636,-0.31024 2.12061,-0.50563 0.65701,-0.19537 1.26539,-0.41877 1.82835,-0.67381 0.56296,-0.25505 1.08055,-0.54173 1.55632,-0.86331 0.47578,-0.32155 0.90961,-0.67807 1.30507,-1.07302 0.39547,-0.39494 0.75259,-0.82831 1.07459,-1.3035 0.322,-0.4752 0.60892,-0.99194 0.86433,-1.55426 0.25541,-0.5623 0.47917,-1.16999 0.67485,-1.82626 0.1957,-0.65629 0.36333,-1.36142 0.50615,-2.11854 0.14282,-0.75711 0.26085,-1.56624 0.35767,-2.43104 0.0968,-0.86481 0.17229,-1.78497 0.22997,-2.76432 0.10824,-1.83753 0.14431,-3.92692 0.14951,-6.20247 z" style="opacity:0.1;fill:#ffffff"/>
   <path d="m 52.519887,247.28347 c -3.71246,0 -6.72182,3.00945 -6.72182,6.72183 0,3.71231 3.00949,6.72177 6.72182,6.72177 3.71231,0 6.72179,-3.00946 6.72179,-6.72177 0,-3.71238 -3.00948,-6.72183 -6.72179,-6.72183 z" style="fill:#c0ca33"/>
  </g>
  <path style="fill:#c0ca33" d="m 1.6901923,277.41879 c 0.05409,0.83796 0.115885,1.65051 0.199985,2.40192 0.09635,0.86084 0.213898,1.66636 0.356053,2.42 0.142153,0.75365 0.308528,1.45563 0.503327,2.10892 0.194802,0.65329 0.418021,1.25768 0.672312,1.81746 0.254288,0.55978 0.53979,1.0746 0.860412,1.54771 0.320622,0.47311 0.67642,0.90482 1.070218,1.29811 0.393798,0.3933 0.825471,0.74798 1.299147,1.06815 0.473672,0.32018 0.989372,0.606 1.549775,0.8599 0.5604039,0.2539 1.1655449,0.47629 1.8195307,0.67076 0.653981,0.19447 1.356564,0.36093 2.110981,0.50281 0.754414,0.14189 1.560891,0.25887 2.422591,0.35502 0.8617,0.0961 1.778516,0.17116 2.754355,0.22841 1.951672,0.1145 4.138377,0.15813 6.587709,0.15813 h 19.941937 c 2.449333,0 4.636037,-0.0436 6.58771,-0.15813 0.975838,-0.0573 1.892654,-0.13227 2.754354,-0.22841 0.861701,-0.0962 1.668174,-0.21313 2.422591,-0.35502 0.754417,-0.14188 1.457,-0.30834 2.110984,-0.50281 0.653981,-0.19447 1.259123,-0.41686 1.819526,-0.67076 0.560404,-0.2539 1.076103,-0.53972 1.549776,-0.8599 0.473674,-0.32017 0.905348,-0.67485 1.299146,-1.06815 0.393798,-0.39329 0.749596,-0.825 1.070218,-1.29811 0.320623,-0.47311 0.606123,-0.98793 0.860413,-1.54771 0.25429,-0.55978 0.47751,-1.16417 0.67231,-1.81746 0.194801,-0.65329 0.361175,-1.35527 0.503329,-2.10892 0.135478,-0.71824 0.245784,-1.49085 0.339514,-2.30631 -2.328055,-3.11054 -5.121612,-5.51129 -8.300269,-5.51129 -9.283295,0 -9.28317,10.08207 -15.471923,10.08207 -6.187731,0 -15.470758,-16.80414 -24.754046,-16.80414 h -0.0021 c -6.085491,0 -12.1400607,2.93443 -15.6098997,9.71775 z"/>
  <path d="M 361.9375,-212 C 507.2348,-212 528,-191.28677 528,-46.125 V 70.125 C 528,215.28618 507.2348,236 361.9375,236 H 214.0625 C 68.7652,236 48,215.28618 48,70.125 V -46.125 C 48,-191.28677 68.7652,-212 214.0625,-212 Z" clip-path="url(#clipPath1082-3-5)" transform="matrix(0.13485389,0,0,0.13485389,-4.9712557,261.01666)" style="opacity:0.4;fill:none;stroke:url(#linearGradient906);stroke-width:8;stroke-linecap:round;stroke-linejoin:round"/>
 </g>
</svg>
