<svg xmlns="http://www.w3.org/2000/svg" style="clip-rule:evenodd;fill-rule:evenodd;image-rendering:optimizeQuality;shape-rendering:geometricPrecision;text-rendering:geometricPrecision" width="256" height="256" version="1.1" viewBox="0 0 256 256">
 <defs>
  <style id="style2" type="text/css">
   <![CDATA[
    .fil5 {fill:none}
    .fil1 {fill:#196FBA}
    .fil0 {fill:#25B2EE}
    .fil4 {fill:#793C7C}
    .fil3 {fill:#8C508C}
    .fil2 {fill:white}
   ]]>
  </style>
  <filter id="filter939" width="1.046" height="1.05" x="-.02" y="-.03" style="color-interpolation-filters:sRGB">
   <feGaussianBlur id="feGaussianBlur4" stdDeviation="2.32"/>
  </filter>
  <filter id="filter4569" width="1.023" height="1.025" x="-.01" y="-.01" style="color-interpolation-filters:sRGB">
   <feGaussianBlur id="feGaussianBlur7" stdDeviation="1.16"/>
  </filter>
  <linearGradient id="linearGradient1108" x1="296" x2="296" y1="-212" y2="236" gradientUnits="userSpaceOnUse">
   <stop style="stop-color:#ffffff" id="stop10" offset="0"/>
   <stop style="stop-color:#ffffff;stop-opacity:.09803922" id="stop12" offset=".125"/>
   <stop style="stop-color:#000000;stop-opacity:.09803922" id="stop14" offset=".925"/>
   <stop style="stop-color:#000000;stop-opacity:.49803922" id="stop16" offset="1"/>
  </linearGradient>
  <clipPath id="clipPath1082-3-361">
   <path style="fill:#8c59d9" d="M 361.9375,-212 C 507.2348,-212 528,-191.28677 528,-46.125 V 70.125 C 528,215.28618 507.2348,236 361.9375,236 H 214.0625 C 68.7652,236 48,215.28618 48,70.125 V -46.125 C 48,-191.28677 68.7652,-212 214.0625,-212 Z"/>
  </clipPath>
  <linearGradient id="linearGradient952" x1="6.334" x2="248.679" y1="12.594" y2="238.651" gradientTransform="matrix(.98100004 0 0 .98100004 0 4.7119905)" gradientUnits="userSpaceOnUse">
   <stop style="stop-color:#25a4ee" id="stop22" offset="0"/>
   <stop style="stop-color:#25b2ee" id="stop24" offset="1"/>
  </linearGradient>
 </defs>
 <path style="filter:url(#filter939);opacity:.2" d="m162.53676 18.43197c72.64865 0 83.03125 10.356615 83.03125 82.93751v58.12501c0 72.58059-10.3826 82.9375-83.03125 82.9375h-73.937502c-72.648657 0-83.031258-10.35691-83.031258-82.9375v-58.12501c0-72.580895 10.382601-82.93751 83.031258-82.93751z"/>
 <path style="filter:url(#filter4569);opacity:.1" d="m162.53676 16.43197c72.64865 0 83.03125 10.356615 83.03125 82.937509v58.125011c0 72.58059-10.3826 82.9375-83.03125 82.9375h-73.937502c-72.648657 0-83.031258-10.35691-83.031258-82.9375v-58.125011c0-72.580894 10.382601-82.937509 83.031258-82.937509z"/>
 <path style="fill:url(#linearGradient952)" d="m162.53676 16.431966c72.64865 0 83.03125 10.356616 83.03125 82.937505v58.125019c0 72.58059-10.3826 82.9375-83.03125 82.9375h-73.93751c-72.648656 0-83.031258-10.35691-83.031258-82.9375v-58.125019c0-72.580889 10.382602-82.937505 83.031258-82.937505z"/>
 <path style="fill:none;opacity:.4;stroke-linecap:round;stroke-linejoin:round;stroke-width:8;stroke:url(#linearGradient1108)" d="M 361.9375,-212 C 507.2348,-212 528,-191.28677 528,-46.125 V 70.125 C 528,215.28618 507.2348,236 361.9375,236 H 214.0625 C 68.7652,236 48,215.28618 48,70.125 V -46.125 C 48,-191.28677 68.7652,-212 214.0625,-212 Z" clip-path="url(#clipPath1082-3-361)" transform="matrix(.50000005 0 0 .50000005 -18.432009 122.432)"/>
 <g style="fill:#464646" transform="matrix(2.4626888,0,0,2.4626888,231.46582,-546.81121)">
  <path style="fill:#464646" d="M 123.94727 38 L 109.28711 52.660156 L 63.242188 52.660156 A 13.032549 13.032549 0 0 0 50.324219 41.257812 A 13.032549 13.032549 0 0 0 37.292969 54.291016 A 13.032549 13.032549 0 0 0 50.324219 67.324219 A 13.032549 13.032549 0 0 0 63.240234 55.902344 L 109.27148 55.902344 L 114.89844 61.529297 C 91.222286 65.278843 72.28461 83.475796 67.232422 106.88477 L 57.990234 106.88477 L 57.990234 126.43359 L 77.539062 126.43359 L 77.539062 106.88477 L 70.5625 106.88477 C 75.722395 84.304861 94.557419 67.047065 117.79492 64.425781 L 123.94727 70.578125 L 130.10156 64.423828 C 153.34449 67.040599 172.18492 84.301064 177.3457 106.88477 L 170.06641 106.88477 L 170.06641 126.43359 L 189.61523 126.43359 L 189.61523 106.88477 L 180.67383 106.88477 C 175.62081 83.471954 156.67966 65.27273 132.99805 61.527344 L 138.62305 55.902344 L 184.66211 55.902344 A 13.032549 13.032549 0 0 0 197.58398 67.324219 A 13.032549 13.032549 0 0 0 210.61719 54.291016 A 13.032549 13.032549 0 0 0 197.58398 41.257812 A 13.032549 13.032549 0 0 0 184.66992 52.660156 L 138.60742 52.660156 L 123.94727 38 z" transform="matrix(0.40606024,0,0,0.40606024,-93.989066,222.03829)"/>
  <path style="fill:#464646" d="m -43.231536,256.95947 -22.333313,40.60602 18.272711,-4.0606 v 20.30301 c 0,0 8.121204,0 8.121204,0 v -20.30301 l 18.272711,4.0606 -22.333313,-40.60602 v 0 0"/>
 </g>
 <path style="fill:#ffffff;opacity:.1" d="m124.59961 16.431966v224.00002h37.26709c73.23492 0 83.70131-10.35691 83.70131-82.9375v-58.125019c0-72.580889-10.46639-82.937505-83.70131-82.937505z"/>
</svg>
