<svg xmlns="http://www.w3.org/2000/svg" xmlns:xlink="http://www.w3.org/1999/xlink" width="256" height="256" version="1.1" viewBox="0 0 67.73 67.73">
 <defs>
  <linearGradient id="linearGradient1108" x1="296" x2="296" y1="-212" y2="236" gradientUnits="userSpaceOnUse" xlink:href="#linearGradient1013"/>
  <linearGradient id="linearGradient1013">
   <stop offset="0" style="stop-color:#ffffff"/>
   <stop style="stop-color:#ffffff;stop-opacity:0.09803922" offset=".125"/>
   <stop style="stop-color:#000000;stop-opacity:0.09803922" offset=".925"/>
   <stop offset="1" style="stop-color:#000000;stop-opacity:0.49803922"/>
  </linearGradient>
  <clipPath id="clipPath1082-3-62" clipPathUnits="userSpaceOnUse">
   <path d="M 361.9375,-212 C 507.2348,-212 528,-191.28677 528,-46.125 V 70.125 C 528,215.28618 507.2348,236 361.9375,236 H 214.0625 C 68.7652,236 48,215.28618 48,70.125 V -46.125 C 48,-191.28677 68.7652,-212 214.0625,-212 Z" style="fill:#8c59d9"/>
  </clipPath>
  <linearGradient id="linearGradient933" x1="160" x2="160" y1="28" y2="284" gradientTransform="matrix(0.26970778,0,0,0.26970778,-7.1289176,220.56049)" gradientUnits="userSpaceOnUse" xlink:href="#linearGradient4338-7"/>
  <linearGradient id="linearGradient4338-7">
   <stop style="stop-color:#00bb8a" offset="0"/>
   <stop style="stop-color:#22daaa" offset="1"/>
  </linearGradient>
  <filter style="color-interpolation-filters:sRGB" id="filter930" width="1.046" height="1.05" x="-.02" y="-.03">
   <feGaussianBlur stdDeviation="2.32"/>
  </filter>
  <filter style="color-interpolation-filters:sRGB" id="filter4569" width="1.023" height="1.025" x="-.01" y="-.01">
   <feGaussianBlur stdDeviation="1.16"/>
  </filter>
  <clipPath id="clipPath-162844874">
   <g transform="translate(0,-1004.3622)">
    <path style="fill:#1890d0" d="m -24,13 c 0,1.105 -0.672,2 -1.5,2 -0.828,0 -1.5,-0.895 -1.5,-2 0,-1.105 0.672,-2 1.5,-2 0.828,0 1.5,0.895 1.5,2 z" transform="matrix(15.333333,0,0,11.5,414.99999,878.8622)"/>
   </g>
  </clipPath>
  <filter style="color-interpolation-filters:sRGB" id="filter954" width="1.088" height="1.105" x="-.04" y="-.05">
   <feGaussianBlur stdDeviation=".47"/>
  </filter>
 </defs>
 <g transform="translate(0,-229.26666)">
  <path d="m 188.96876,43.999995 c 72.64865,0 83.03125,10.356615 83.03125,82.937505 v 58.125 c 0,72.58059 -10.3826,82.9375 -83.03125,82.9375 h -73.9375 C 42.382606,268 32.000006,257.64309 32.000006,185.0625 v -58.125 c 0,-72.58089 10.3826,-82.937505 83.031254,-82.937505 z" transform="matrix(0.26970778,0,0,0.26970778,-7.1289177,220.56049)" style="opacity:0.1;filter:url(#filter4569)"/>
  <path style="opacity:0.2;filter:url(#filter930)" d="m 188.96876,45.999995 c 72.64865,0 83.03125,10.356615 83.03125,82.937505 v 58.125 c 0,72.58059 -10.3826,82.9375 -83.03125,82.9375 h -73.9375 C 42.382606,270 32.000006,259.64309 32.000006,187.0625 v -58.125 c 0,-72.58089 10.3826,-82.937505 83.031254,-82.937505 z" transform="matrix(0.26970778,0,0,0.26970778,-7.1289177,220.56049)"/>
  <path style="fill:url(#linearGradient933)" d="m 43.837426,232.42763 c 19.593907,0 22.394175,2.79326 22.394175,22.36889 v 15.67677 c 0,19.57555 -2.800268,22.36888 -22.394175,22.36888 h -19.94152 c -19.5939064,0 -22.3941744,-2.79333 -22.3941744,-22.36888 v -15.67677 c 0,-19.57563 2.800268,-22.36889 22.3941744,-22.36889 z"/>
  <path d="M 361.9375,-212 C 507.2348,-212 528,-191.28677 528,-46.125 V 70.125 C 528,215.28618 507.2348,236 361.9375,236 H 214.0625 C 68.7652,236 48,215.28618 48,70.125 V -46.125 C 48,-191.28677 68.7652,-212 214.0625,-212 Z" clip-path="url(#clipPath1082-3-62)" transform="matrix(0.13485389,0,0,0.13485389,-4.9712555,261.01666)" style="opacity:0.5;fill:none;stroke:url(#linearGradient1108);stroke-width:8;stroke-linecap:round;stroke-linejoin:round"/>
  <g transform="translate(-0.63363944,0.16538465)">
   <rect width="37.557" height="37.557" x="-179.98" y="191.21" ry="3.984" transform="rotate(-45)" style="fill:#d3ffe7;fill-rule:evenodd"/>
   <g transform="matrix(1.3651257,0,0,1.4187391,9.1793888,227.07328)" style="filter:url(#filter954);opacity:0.3">
    <g clip-path="url(#clipPath-162844874)">
     <g>
      <path d="m 27.305,14.07 -0.336,0.305 v 1.121 l 0.293,0.27 h 1.563 v 1.082 l -10.328,9.48 V 15.781 h 1.715 l 0.352,-0.32 V 14.328 L 20.24,14.098 H 11.2 l -0.293,0.27 v 1.16 l 0.297,0.27 h 1.574 v 19.426 l 0.293,0.27 h 1.785 L 36.508,15.271 V 14.38 l -0.336,-0.305 h -8.867 m -0.004,-0.004"/>
     </g>
    </g>
   </g>
   <g style="fill:#467c5f" transform="matrix(1.3651257,0,0,1.4187391,9.1793888,227.07328)">
    <g style="fill:#467c5f" clip-path="url(#clipPath-162844874)">
     <g style="fill:#467c5f">
      <path style="fill:#467c5f" d="m 27.305,14.07 -0.336,0.305 v 1.121 l 0.293,0.27 h 1.563 v 1.082 l -10.328,9.48 V 15.781 h 1.715 l 0.352,-0.32 V 14.328 L 20.24,14.098 H 11.2 l -0.293,0.27 v 1.16 l 0.297,0.27 h 1.574 v 19.426 l 0.293,0.27 h 1.785 L 36.508,15.271 V 14.38 l -0.336,-0.305 h -8.867 m -0.004,-0.004"/>
     </g>
    </g>
   </g>
  </g>
  <path style="opacity:0.07999998;fill:#ffffff" d="m 1.5017316,262.6349 v 7.83839 c 0,19.57555 2.800268,22.36888 22.3941744,22.36888 h 19.94152 c 19.593907,0 22.394175,-2.79333 22.394175,-22.36888 v -7.83839 z"/>
 </g>
</svg>
