<svg xmlns="http://www.w3.org/2000/svg" xmlns:xlink="http://www.w3.org/1999/xlink" width="256" height="256" version="1.1" viewBox="0 0 67.73 67.73">
 <defs>
  <linearGradient id="linearGradient1108" x1="296" x2="296" y1="-212" y2="236" gradientUnits="userSpaceOnUse" xlink:href="#linearGradient1013"/>
  <linearGradient id="linearGradient1013">
   <stop offset="0" style="stop-color:#ffffff"/>
   <stop style="stop-color:#ffffff;stop-opacity:0.09803922" offset=".125"/>
   <stop style="stop-color:#000000;stop-opacity:0.09803922" offset=".925"/>
   <stop offset="1" style="stop-color:#000000;stop-opacity:0.49803922"/>
  </linearGradient>
  <clipPath id="clipPath1082-3-361" clipPathUnits="userSpaceOnUse">
   <path d="M 361.9375,-212 C 507.2348,-212 528,-191.28677 528,-46.125 V 70.125 C 528,215.28618 507.2348,236 361.9375,236 H 214.0625 C 68.7652,236 48,215.28618 48,70.125 V -46.125 C 48,-191.28677 68.7652,-212 214.0625,-212 Z" style="fill:#8c59d9"/>
  </clipPath>
  <filter style="color-interpolation-filters:sRGB" id="filter4569" width="1.023" height="1.025" x="-.01" y="-.01">
   <feGaussianBlur stdDeviation="1.16"/>
  </filter>
  <filter style="color-interpolation-filters:sRGB" id="filter939" width="1.046" height="1.05" x="-.02" y="-.03">
   <feGaussianBlur stdDeviation="2.32"/>
  </filter>
 </defs>
 <g transform="translate(0,-229.26666)">
  <path style="opacity:0.2;filter:url(#filter939)" d="m 162.53675,5.5680001 c 72.64865,0 83.03125,10.3566149 83.03125,82.9375049 v 58.125005 c 0,72.58059 -10.3826,82.9375 -83.03125,82.9375 H 88.599254 C 15.9506,229.56801 5.568,219.2111 5.568,146.63051 V 88.505505 c 0,-72.58089 10.3826,-82.9375049 83.031254,-82.9375049 z" transform="matrix(0.26970779,0,0,0.26970779,-1.9098094e-8,231.46531)"/>
  <path d="m 43.837429,232.42763 c 19.593907,0 22.394176,2.79326 22.394176,22.36889 v 15.67677 c 0,19.57555 -2.800269,22.36889 -22.394176,22.36889 H 23.89591 c -19.5939088,0 -22.394177,-2.79334 -22.394177,-22.36889 v -15.67677 c 0,-19.57563 2.8002682,-22.36889 22.394177,-22.36889 z" style="opacity:0.1;fill:none;stroke:#000000;stroke-width:1.07883108;stroke-linecap:round;stroke-linejoin:round"/>
  <path d="m 162.53675,3.5680001 c 72.64865,0 83.03125,10.3566149 83.03125,82.9375049 v 58.125005 c 0,72.58059 -10.3826,82.9375 -83.03125,82.9375 H 88.599254 C 15.9506,227.56801 5.568,217.2111 5.568,144.63051 V 86.505505 c 0,-72.58089 10.3826,-82.9375049 83.031254,-82.9375049 z" transform="matrix(0.26970779,0,0,0.26970779,-1.9098094e-8,231.46531)" style="opacity:0.1;filter:url(#filter4569)"/>
  <path style="fill:#ffbc00" d="m 43.837427,232.42763 c 19.593907,0 22.394175,2.79326 22.394175,22.36889 v 15.67677 c 0,19.57555 -2.800268,22.36889 -22.394175,22.36889 h -19.94152 c -19.5939074,0 -22.3941756,-2.79334 -22.3941756,-22.36889 v -15.67677 c 0,-19.57563 2.8002682,-22.36889 22.3941756,-22.36889 z"/>
  <g transform="translate(6.5183788,11.914538)">
   <path style="fill:#ffffff" d="m 51.77886,222.72697 c 1.172885,5e-5 1.828345,0.88483 1.966386,2.65431 l -0.983194,8.33331 h 0.36223 l 0.776206,-0.61728 h 0.206986 v 0.18519 c -1.069486,0.78193 -2.104424,2.92184 -3.104822,6.41973 -0.379524,3.00415 -1.017736,5.78191 -1.914639,8.33331 -0.793498,2.63377 -1.190225,5.06174 -1.19018,7.28393 l -1.500667,4.38271 c -3.9e-5,0.37038 0.569177,0.74075 1.707653,1.11111 -0.207031,0.86421 -0.517512,1.2963 -0.931447,1.29629 v 0.24691 H 47.5356 v 0.18519 c -4e-5,0.45268 -0.586505,0.67902 -1.7594,0.679 l 0.206989,0.24692 v 0.86419 h -0.362228 c 0.241445,0.86421 0.758917,1.29631 1.552411,1.2963 v 0.43209 h -1.552411 v 0.24692 c 0.51743,1e-5 0.776166,0.37038 0.776205,1.1111 l -2.173374,0.8642 0.206988,0.24691 v 0.18519 c -3.9e-5,0.28807 -0.258773,0.4321 -0.776208,0.43209 v 0.24692 c 0.655423,1e-5 0.983158,0.14404 0.983195,0.4321 -0.931485,0.37037 -2.156161,2.20164 -3.674039,5.49381 -1.552445,2.9218 -2.897867,4.3827 -4.036272,4.3827 h -0.413975 c -0.862478,-0.65843 -1.569688,-2.8395 -2.121627,-6.54319 -2.207901,-5.63783 -3.311835,-8.95058 -3.311811,-9.93825 -2.4e-5,-2.55141 -0.707234,-5.26745 -2.121628,-8.14812 -0.379502,-1.27569 -0.638236,-2.88063 -0.776208,-4.8148 l -0.931444,-0.24691 c -2.345886,4.23869 -3.570566,7.55144 -3.674041,9.93824 -0.655479,1.39919 -1.172949,3.08643 -1.552411,5.06171 1.414401,0.45269 2.121611,0.88479 2.121627,1.2963 v 0.24691 c -1.103953,-0.1646 -1.880158,-0.47324 -2.328616,-0.92592 -0.482987,1.11112 -1.121201,4.19752 -1.914639,9.25923 -0.620977,2.34567 -1.397183,3.51851 -2.328619,3.51851 -2.621857,-1.0288 -4.81248,-2.71604 -6.571872,-5.06171 -0.27599,0 -0.724465,-1.17283 -1.3454243,-3.51851 -0.379481,0 -0.6382161,-1.17283 -0.7762041,-3.51851 -1.310927,-3.33331 -2.207876,-7.13988 -2.690847,-11.41973 v -6.41973 h -0.206988 l -0.931448,0.24691 v -0.24691 c 2e-6,-0.28803 0.310484,-0.43207 0.931448,-0.4321 l -0.206988,-3.70369 v -2.90123 l -0.2877031,-1.77515 -1.2129619,-7.48408 v -3.95061 c 0.655463,-2.46908 1.793896,-3.70364 3.415305,-3.70369 H 18.557259 v 0.43209 c -0.862462,0.0412 -1.44893,0.26755 -1.759399,0.67902 -0.655472,-0.45263 -1.293687,-0.67896 -1.91464,-0.67902 h -2.121629 l -1.190182,0.18519 -0.206988,-0.18519 H 11.20918 l -1.5524123,0.18519 -0.7762041,-0.18519 -0.569219,0.18519 -0.620964,-0.18519 c 2.5183514,3.29223 4.0017654,6.07 4.4502444,8.33332 h 1.7594 v 0.43209 h -1.345422 v 0.49383 c 0.517463,1.89304 0.89694,2.83954 1.138434,2.8395 h 0.413978 l 0.931445,-0.24692 0.206988,0.24692 0.206988,-0.24692 0.206988,0.24692 v 0.18518 c -0.689968,0.49387 -1.155691,1.17288 -1.397168,2.03703 h -0.155241 v 0.4321 h 0.362229 c 0.482963,6.87244 1.37991,12.07819 2.690845,15.61724 l 0.776207,0.61729 h 0.413975 c 0.517458,2e-5 1.604143,-2.40738 3.260065,-7.22221 1.069422,-2.18103 1.845624,-4.0946 2.328616,-5.74072 l -0.206989,-0.67901 c 1.06942,-1.6049 2.173356,-2.40736 3.311811,-2.4074 h 0.362228 c 0.724437,4e-5 1.241906,0.45271 1.552413,1.35802 0.96592,1.35805 1.742123,3.39508 2.328614,6.11109 l 2.897836,6.41974 c 0.379449,0.4527 0.569187,0.9671 0.569217,1.5432 1.069408,2.428 2.035354,4.03293 2.897835,4.8148 h 0.620964 c 0.724427,2e-5 1.69037,-3.00408 2.897836,-9.01231 0.206952,2e-5 0.776168,-1.60491 1.707652,-4.81481 v -0.24691 l -3.260066,-0.4321 -0.776205,0.24691 h -0.983192 v -0.49382 l 1.966386,-0.18519 h 3.82928 c 1.483376,-5.30858 2.846049,-9.4238 4.088016,-12.34564 0.413936,-6.00816 0.983152,-9.01227 1.707653,-9.01232 l 2.328619,-1.11111 m -11.022121,0.67901 c -0.207023,0.57618 -0.655497,0.86425 -1.345422,0.86419 v -0.43209 l 1.345422,-0.4321 m -19.508634,1.11111 h 5.226452 v 0.43209 l -1.190183,0.18519 -1.138436,-0.18519 -0.983192,0.4321 -0.36223,-0.4321 h -1.552411 v -0.43209 m 10.815132,3.51851 h 0.569217 v 0.18518 c -2.7e-5,0.28812 -0.189767,0.43215 -0.569217,0.4321 l -0.206989,0.24691 v 0.24691 l -0.569219,-0.24691 v -0.4321 l 0.776208,-0.43209 m -2.897835,2.4074 v 0.24691 c -2.4e-5,0.32927 -0.827974,0.67906 -2.483856,1.04938 v -0.4321 l 1.138433,-0.61728 0.206987,0.18518 h 0.155241 l 0.983195,-0.43209 m -5.58868,2.22221 v 0.18519 c -0.724477,0.65848 -1.897407,1.25518 -3.518797,1.79012 v -0.4321 c 0.275968,4e-5 0.413959,-0.22629 0.413975,-0.67901 l 3.104822,-0.8642 m 9.831937,2.16049 0.206989,0.24691 v 0.18519 l -0.36223,0.49382 h -0.206989 l -0.413975,-0.49382 v -0.18519 l 0.776205,-0.24691 m 7.141091,0.24691 h 0.206989 v 0.18519 l -0.36223,0.49382 h -0.206986 v -0.24691 l 0.362227,-0.4321 m -3.260061,3.08641 0.776203,0.61729 c -0.138022,0.45271 -0.517501,0.67905 -1.138436,0.67901 l -0.413975,-0.67901 c -3.1e-5,-0.20572 0.258705,-0.41148 0.776208,-0.61729 m 4.657231,2.8395 0.155241,0.24692 v 0.18518 l -0.155241,0.24691 h -0.413975 v -0.24691 l 0.413975,-0.4321 m -7.348077,2.22222 v 0.18518 l -0.983195,0.92593 h -0.569219 v -0.24692 c -2.7e-5,-0.37033 0.517443,-0.6584 1.552414,-0.86419 m -32.0831664,8.58022 h 0.2069878 v 0.18519 c -0.5174671,1.35804 -0.9659393,2.18109 -1.3454235,2.46913 H 0.96326514 v -0.92593 l 1.55241146,-1.72839 m 25.3043024,10.30862 h 0.206987 v 0.4321 l -1.552409,0.92592 -0.206989,-0.24692 v -0.43209 l 1.552411,-0.67901 M 6.5519446,265.0108 h 0.362229 l 0.620966,2.4074 h -0.413975 l -0.56922,-2.22221 v -0.18519 m 20.6988184,2.8395 h 0.155239 l 0.620964,0.67901 -0.206987,0.18519 h -0.206988 l -0.362228,-0.61728 v -0.24692"/>
  </g>
  <path style="opacity:0.1;fill:#ffffff" d="m 23.895907,292.84218 c -19.5939074,0 -22.3941756,-2.79326 -22.3941756,-22.36889 v -7.83838 H 66.231602 v 7.83838 c 0,19.57563 -2.800268,22.36889 -22.394175,22.36889 z"/>
  <path style="opacity:0.1;fill:#ffffff" d="m 33.866666,232.42763 v 60.41455 h 9.970761 c 19.593907,0 22.394175,-2.79334 22.394175,-22.36889 v -15.67677 c 0,-19.57563 -2.800268,-22.36889 -22.394175,-22.36889 z"/>
  <path d="M 361.9375,-212 C 507.2348,-212 528,-191.28677 528,-46.125 V 70.125 C 528,215.28618 507.2348,236 361.9375,236 H 214.0625 C 68.7652,236 48,215.28618 48,70.125 v -116.25 c 0,-30.210766 0.899405,-55.03128 3.633592,-75.39665 C 62.037088,-199.01121 99.004172,-212 214.0625,-212 Z" clip-path="url(#clipPath1082-3-361)" transform="matrix(0.1348539,0,0,0.1348539,-4.9712559,261.01666)" style="opacity:0.4;fill:none;stroke:url(#linearGradient1108);stroke-width:8;stroke-linecap:round;stroke-linejoin:round"/>
 </g>
</svg>
