<svg width="256" height="256" version="1.1" viewBox="0 0 256 256" xmlns="http://www.w3.org/2000/svg" xmlns:xlink="http://www.w3.org/1999/xlink">
 <defs>
  <filter id="filter939" x="-.02" y="-.03" width="1.046" height="1.05" style="color-interpolation-filters:sRGB">
   <feGaussianBlur stdDeviation="2.32"/>
  </filter>
  <filter id="filter4569" x="-.01" y="-.01" width="1.023" height="1.025" style="color-interpolation-filters:sRGB">
   <feGaussianBlur stdDeviation="1.16"/>
  </filter>
  <linearGradient id="linearGradient1044" x1="88" x2="256" y1="28" y2="284" gradientTransform="matrix(1.0193681,0,0,1.0193681,-26.943941,-32.905179)" gradientUnits="userSpaceOnUse">
   <stop style="stop-color:#e8e8e8" offset="0"/>
   <stop style="stop-color:#f5f5f5" offset="1"/>
  </linearGradient>
  <linearGradient id="linearGradient1108" x1="296" x2="296" y1="-212" y2="236" gradientUnits="userSpaceOnUse">
   <stop style="stop-color:#ffffff" offset="0"/>
   <stop style="stop-color:#ffffff;stop-opacity:.09803922" offset=".125"/>
   <stop style="stop-color:#000000;stop-opacity:.09803922" offset=".925"/>
   <stop style="stop-color:#000000;stop-opacity:.49803922" offset="1"/>
  </linearGradient>
  <clipPath id="clipPath1082-3-361">
   <path d="M 361.9375,-212 C 507.2348,-212 528,-191.28677 528,-46.125 V 70.125 C 528,215.28618 507.2348,236 361.9375,236 H 214.0625 C 68.7652,236 48,215.28618 48,70.125 V -46.125 C 48,-191.28677 68.7652,-212 214.0625,-212 Z" style="fill:#8c59d9"/>
  </clipPath>
  <clipPath id="b">
   <use width="100%" height="100%" overflow="visible" xlink:href="#a"/>
  </clipPath>
  <linearGradient id="linearGradient928" x1="33.867" x2="66.232" y1="262.635" y2="262.635" gradientTransform="matrix(3.7795275,0,0,3.7795275,-7.2181772e-8,-866.51965)" gradientUnits="userSpaceOnUse" xlink:href="#SVGID_1_-0"/>
  <radialGradient id="SVGID_1_-0" cx="244.571" cy="-427.139" r="68.687" gradientTransform="matrix(.26458333 0 0 -.26458333 -96.504562 145.87396)" gradientUnits="userSpaceOnUse">
   <stop stop-color="#FFF" offset="0"/>
   <stop stop-color="#EAEAEB" offset=".483"/>
   <stop stop-color="#A9ABAE" offset=".945"/>
   <stop stop-color="#999B9E" offset="1"/>
  </radialGradient>
  <linearGradient id="linearGradient926" x1="7.938" x2="59.531" y1="236.146" y2="289.063" gradientTransform="matrix(3.7795275,0,0,3.7795275,-7.2181772e-8,-866.51965)" gradientUnits="userSpaceOnUse" xlink:href="#SVGID_1_-0"/>
  <filter id="filter8489" x="-.14" y="-.14" width="1.274" height="1.288" style="color-interpolation-filters:sRGB">
   <feGaussianBlur stdDeviation="1.589"/>
  </filter>
  <filter id="filter8493" x="-.14" y="-.14" width="1.274" height="1.274" style="color-interpolation-filters:sRGB">
   <feGaussianBlur stdDeviation="55.938"/>
  </filter>
  <filter id="filter8497" y="-.15" width="1.205" height="1.31" style="color-interpolation-filters:sRGB">
   <feGaussianBlur stdDeviation="3.421"/>
  </filter>
  <filter id="filter8501" y="-.13" width="1.205" height="1.264" style="color-interpolation-filters:sRGB">
   <feGaussianBlur stdDeviation="3.421"/>
  </filter>
 </defs>
 <path transform="matrix(1.019368,0,0,1.019368,-7.2181772e-8,8.3098661)" d="m162.53675 5.5680001c72.64865 0 83.03125 10.356615 83.03125 82.937505v58.125005c0 72.58059-10.3826 82.9375-83.03125 82.9375h-73.937496c-72.648654 0-83.031254-10.35691-83.031254-82.9375v-58.125005c0-72.58089 10.3826-82.937505 83.031254-82.937505z" style="filter:url(#filter939);opacity:.2"/>
 <path d="m165.68477 11.946967c74.05571 0 84.6394 10.557203 84.6394 84.543833v59.25079c0 73.98633-10.58369 84.54383-84.6394 84.54383h-75.369521c-74.055717 0-84.639408-10.5575-84.639408-84.54383v-59.25079c0-73.98663 10.583691-84.543833 84.639408-84.543833z" style="fill:none;opacity:.1;stroke-linecap:round;stroke-linejoin:round;stroke-width:4.0774717;stroke:#000000"/>
 <path transform="matrix(1.019368,0,0,1.019368,-7.2181772e-8,8.3098661)" d="m162.53675 3.5680001c72.64865 0 83.03125 10.356615 83.03125 82.937505v58.125005c0 72.58059-10.3826 82.9375-83.03125 82.9375h-73.937496c-72.648654 0-83.031254-10.35691-83.031254-82.9375v-58.125005c0-72.58089 10.3826-82.937505 83.031254-82.937505z" style="filter:url(#filter4569);opacity:.1"/>
 <path d="m165.68476 11.946967c74.05571 0 84.6394 10.557203 84.6394 84.543833v59.25079c0 73.98633-10.58369 84.54383-84.6394 84.54383h-75.369522c-74.055712 0-84.639403-10.5575-84.639403-84.54383v-59.25079c0-73.98663 10.583691-84.543833 84.639403-84.543833z" style="fill:url(#linearGradient1044)"/>
 <path transform="matrix(.50968403 0 0 .50968403 -16.788999 120.00001)" d="M 361.9375,-212 C 507.2348,-212 528,-191.28677 528,-46.125 V 70.125 C 528,215.28618 507.2348,236 361.9375,236 H 214.0625 C 68.7652,236 48,215.28618 48,70.125 V -46.125 C 48,-191.28677 68.7652,-212 214.0625,-212 Z" clip-path="url(#clipPath1082-3-361)" style="fill:none;opacity:.4;stroke-linecap:round;stroke-linejoin:round;stroke-width:8;stroke:url(#linearGradient1108)"/>
 <path transform="matrix(1.019368,0,0,1.019368,13.891049,-9.3645268)" d="m0 37v-26l17 13z" clip-path="url(#b)" style="fill:#fbbc05"/>
 <path transform="matrix(1.019368,0,0,1.019368,13.891049,-9.3645268)" d="m0 11 17 13 7-6.1 24-3.9v-14h-48z" clip-path="url(#b)" style="fill:#ea4335"/>
 <path transform="matrix(1.019368,0,0,1.019368,13.891049,-9.3645268)" d="m0 37 30-23 7.9 1 10.1-15v48h-48z" clip-path="url(#b)" style="fill:#34a853"/>
 <path transform="matrix(1.019368,0,0,1.019368,13.891049,-9.3645268)" d="m48 48-31-24-4-3 35-10z" clip-path="url(#b)" style="fill:#4285f4"/>
 <path d="m128 11.946967v228.33845h37.68476c74.05571 0 84.6394-10.5575 84.6394-84.54383v-59.25079c0-73.98663-10.58369-84.543833-84.6394-84.543833z" style="fill:url(#linearGradient928);opacity:.3"/>
 <path d="m90.315238 240.28542c-74.055712 0-84.639403-10.5572-84.639403-84.54383v-29.62537h244.64832v29.62537c0 73.98663-10.58369 84.54383-84.6394 84.54383z" style="fill:url(#linearGradient926);opacity:.3"/>
 <g transform="translate(2.4189579 .61619408)">
  <g transform="matrix(2.1524563,0,0,2.1524563,-86.389381,86.76736)" style="fill:#3b3738;stroke:#000000">
   <g style="fill:#3b3738">
    <path d="m117.96642 49.644531v-17.773437q0-1.992188-0.48829-2.636719l-0.29296-0.292969q-0.70313-0.527344-3.00782-0.664062-0.0586 0-0.0977 0v-0.761719h11.875v0.761719q-2.40235 0.117187-3.125 0.683593-0.72266 0.566407-0.78125 2.246094l-0.0195 0.664063v17.773437q0 2.050781 0.625 2.734375 0.64453 0.703125 2.71484 0.839844 0.27344 0 0.58594 0.01953v0.76172h-11.875v-0.761719q2.36328-0.07813 3.0664-0.605469 0.72266-0.527343 0.80078-2.148437 0.0195-0.351563 0.0195-0.839844z" style="fill:#3b3738"/>
   </g>
   <g style="fill:#3b3738">
    <path d="m133.96642 49.644531v-17.773437q0-1.992188-0.48829-2.636719l-0.29296-0.292969q-0.70313-0.527344-3.00782-0.664062-0.0586 0-0.0976 0v-0.761719h11.875v0.761719q-2.40235 0.117187-3.125 0.683593-0.72266 0.566407-0.78125 2.246094l-0.0195 0.664063v17.773437q0 2.050781 0.625 2.734375 0.64453 0.703125 2.71484 0.839844 0.27344 0 0.58594 0.01953v0.76172h-11.875v-0.761719q2.36328-0.07813 3.0664-0.605469 0.72266-0.527343 0.80078-2.148437 0.0195-0.351563 0.0195-0.839844z" style="fill:#3b3738"/>
   </g>
   <path d="M 134.51852,31.310547 120,49 l 0.87992,0.611968 14.51852,-17.687467 z" style="fill:#3b3738"/>
  </g>
  <g transform="matrix(.06116208 0 0 .06116208 155.4671 46.463596)" style="fill:#3b3738;stroke:#000000">
   <g style="fill:#3b3738">
    <path d="m734.71285 883.12018h245l61.20005-122.5v245.00002h-367.50005v-205.00002c125.5-54.1 214.4-188.7 214.4-346.2 0-205.3-150.9-365.9-336.9-365.9-186.1 0-336.9 160.6-336.9 365.8 0 157.6 88.9 292.2 214.4 346.2v205.00002h-367.5v-244.90002l61.3 122.5h245v-31.2c-179.6-63.6-306.3-217.6-306.3-397.5 0-236.8 219.4-428.8 490-428.8s490.00005 192 490.00005 428.8c0 179.9-126.70005 334-306.30005 397.6v31.1z" style="fill:#3b3738"/>
   </g>
  </g>
  <path d="m58.388384 107.97646h3.488661l11.64786-22.595985 9.582165 22.595985h3.358702l19.907358-45.802717c1.11596-2.569532 3.29137-4.112544 5.60333-4.461912v-2.727922h-16.0971v2.728862c2.13586 0.475092 4.40309 1.275563 5.41123 3.529692l-14.617637 33.716937c-2.642511-5.619798-5.351886-11.76092-7.937892-17.889218 2.669114-5.670673 4.848999-10.93781 8.123417-16.114045 1.91436-3.045563 5.020861-3.117117 6.621822-3.266858v-2.705122h-17.111351v2.705122c2.134914 0 6.577554 0.191971 4.596615 4.355036l-4.962482 10.43392-5.256298-11.606365c-0.818322-1.807256 0.771283-3.011265 3.366238-3.154704l-0.01908-2.730715h-19.257563v2.70515c2.294447 0.07514 5.529405 0.06315 6.723525 2.008485 3.677007 6.754597 6.135409 13.771007 9.487518 20.657903l-8.674331 16.220951-14.579957-33.515485c-1.642941-3.776801 2.25759-4.993522 4.791568-5.309034l-0.02849-2.768357h-20.532669v2.705122c2.835095 0.93736 6.492328 5.155037 7.513171 7.289468 7.669966 16.042463 11.532028 26.798059 18.853083 42.998766z" style="fill:#3b3738;stroke-width:.04708679;stroke:#000000"/>
  <path d="m43.903817 140.88967c0.01159 1.40203 0.724638 2.19456 0.463931 3.42857-0.811089 3.7426-2.519446 7.51607-3.892504 10.7836-0.903785 2.10883-1.301271 4.62583-2.749644 6.1669-0.312849 0.1738-2.860265-0.0299-3.451202-0.4413-0.86323-0.0116-1.718223 0.0238-2.274398 0.21499v0.46393c3.858467 3.73681 8.035142 5.00893 13.295611 7.34371-0.72998 3.79474-4.561647 6.3264-6.427152 9.1768-0.961725 0-1.735336-0.0642-2.285718-0.46393-0.527208 0.0985-0.568939 0.12176-0.916549 0.23763 0.0927 3.37181 2.904169 6.23669 5.7256 6.87977 1.894473-2.12042 4.26148-3.14007 7.106086-4.34512 2.601279 2.71135 3.354161 6.58421 4.356435 10.98727 0.434512 1.92344-0.277729 4.0397 0.226305 5.7256 0.880617 2.97786 2.46731 3.86625 3.89251 5.95191h1.606785c1.008068-5.38795-1.463489-10.62101-2.749644-14.9024-0.376578-1.82495-0.760489-3.67407-1.14286-5.51061-0.955926-1.57004-2.838175-1.97405-4.130124-3.20226-0.399751-0.13325-0.22667-0.0409-0.452616-0.22631 2.954682-1.52949 6.094935-3.22128 9.165487-4.58275 0.822676 0.91537 4.642309 4.59352 5.963226 3.8925 0.231739-0.0695 0.452975-0.1394 0.678922-0.2263-0.07532-1.29775-0.139403-2.58897-0.226306-3.89251-2.890953-2.88516-7.146819-5.27443-11.926452-6.17821v0.2263h-0.226305c0.538789 1.58163 2.298656 3.093 3.677507 3.89251v0.69024c-2.717149 0.39396-5.125162 1.71198-7.570017 2.53465-1.674319 0.5388-3.696515 0.45986-5.057986 1.35785h-0.678928c0.990687-2.77508 4.277319-5.04948 5.963226-7.3437 3.337052-4.49575 5.98151-10.0099 11.236209-12.60538-0.139044-2.11463-6.238689-6.48926-8.486565-5.04668-0.561969 0.29547-0.162942-0.12093-0.452617 0.45262-0.341816 0.83426 0.78864 1.86369 0.452617 3.21358-0.440306 1.76701-4.804794 10.08294-5.951905 11.0099v0.23762c-2.363746-0.80529-4.162174-3.02936-6.415843-4.13012 0.399751-2.10883 2.165226-3.7319 3.202261-5.27299 2.624453-3.96275 4.73274-7.74129 8.71287-10.33098-0.03476-3.04738-4.957962-6.22483-8.260253-6.1669zm27.100423 2.18388c-0.421274 0.017-0.812804 0.12121-1.165483 0.35077-0.231739 0.0811-0.458775 0.13362-0.678928 0.22632 0 1.9582 0.974032 3.43679 0.452617 5.49929-1.054416 4.11917-3.407571 9.01277-5.510609 12.39038-1.262982 2.02772-4.008733 4.22065-4.118809 7.1174 3.742597-0.37079 4.639047-4.23568 7.547381-5.2843 0.84585 0.78212 1.677489 1.54967 2.523339 2.29703 1.199253 1.80177 0.981094 4.50471 1.606791 6.86846 1.071796 4.95923 2.142052 9.94319 3.202261 14.9024 0.144837 2.46223 0.301714 4.88727 0.463931 7.34371 0.608317 2.20732 2.439513 6.06389 4.809052 6.59688 0.388164 0.197 0.702554 0.12131 1.14286-0.2263 0.805295-0.65467 0.371687-1.8111 0.927862-2.74965 1.286156-0.92116 3.558121-0.6849 5.272984-1.15417 4.686931-1.23402 10.158261-1.14992 15.355021-2.29703 2.46224-0.53881 6.52864 0.92632 8.47525-0.215 0.23174-0.0927 0.47588-0.15045 0.69024-0.24894-0.11008-2.99523-5.84518-4.26916-8.9505-3.40593-1.37305 0.38237-2.97758 1.23627-4.35643 1.59547-1.0718 0.0811-2.14178 0.15127-3.21358 0.21499-0.35919-3.73101-2.19881-6.62431-2.28571-10.52334 3.44713-0.0753 7.76491-0.52956 10.07072-1.8331-0.0464-1.15869-0.256-1.16132-0.67893-1.82178-2.62445-0.6199-7.1317-0.72309-9.1768 0.67893-0.57935-0.0232-0.84186-0.0235-1.13154-0.22631-1.28036-1.62218-0.6744-4.93307-1.8331-6.64215v-0.91655c2.46803-0.533 6.49306-0.97104 7.78501-2.74965 0.17959-0.23753 0.0815-0.0645 0.22631-0.45261-0.20857-0.20277-0.2904-0.39477-0.45262-0.69024-3.58617-0.90379-5.14362-0.28271-8.248937 0.91655-0.967514-3.09952 0.198879-5.55261-2.975956-6.41584 0.677839-1.17608 2.937029-1.13173 4.356433-1.60679 2.21312-0.72999 4.7245-1.70709 6.64215-2.73834 0.15063-0.39395 0.0464-0.23219 0.23763-0.46393-0.12746-1.15869-0.45859-1.12049-0.92787-1.8331-3.30808-0.2549-5.94819 0.0661-7.796324 1.8331h-0.441297c0.272295-1.70908 1.341374-4.16099 2.285711-5.49929 0.64887-0.93855 1.84514-0.80801 2.29703-2.05941h0.22631v-0.24894c-0.46927-0.60252-0.91148-1.22505-1.36916-1.82178-1.07759-0.75315-2.63496-0.81887-3.666202-1.60679-1.523689-0.0232-2.982925-0.0225-3.892504 0.45262 0.121664 0.88061 0.516438 1.43371 0.690243 2.0594 0.631491 2.36375-1.642728 9.67152-2.523339 10.77228-0.7126 0.8922-8.988333 3.89142-11.236209 3.21358-0.533002-0.16801-2.088827-0.94597-2.523339-1.38048-0.185392-0.22594-0.08147-0.0529-0.226311-0.45261 3.25015-3.05318 5.586289-9.85184 10.082041-11.2249 0.08111-0.37078 0.156511-0.76628 0.23762-1.14286-0.983446-1.01386-5.277317-5.51634-8.22631-5.39745zm8.927867 20.63932c0.669693-0.0396 1.179973-0.0167 1.346536 0.0905 2.433267 1.12973 1.562343 4.70721 2.975955 6.87977-0.48086 1.12394-6.069861 2.81953-7.796322 2.97596-0.307055-2.42748-0.709616-7.38643-2.297033-8.70156 0.273742-0.46493 3.761791-1.12602 5.770864-1.2447zm4.775108 9.94625h0.23762c0.440311 2.08566 0.68599 5.66939 1.833102 7.34371-0.822676 2.01613-5.884469 1.83436-7.796322 2.98727-0.799502-0.48086-1.856276-6.23208-1.833102-7.79633 1.749635-0.16221 6.289927-1.67142 7.558702-2.53465zm-26.579919 10.08204c-0.463479 1.98138 4.405049 6.41104 5.951911 7.58133 0.770535 0.57935 1.799877 1.89664 2.975956 1.35785 0.602523-0.0464 0.789184-0.10464 1.154174-0.22631 0.266501-0.60831 0.666611-1.38763 0.226306-2.04809-0.121664-2.87937-7.591198-6.1144-10.308347-6.66478zm29.329563 0.22631c0.179599 2.132 1.492097 8.15207 2.523339 9.62942 0.0058 0.13905 0 0.3133 0 0.46393-2.763496 0.59094-5.636525 1.39207-8.71287 1.38048-0.475067-3.26753-2.042027-6.14751-2.059408-9.62942 3.516651-0.0637 5.340605-1.48522 8.248939-1.84441zm-42.410183 2.74964c-0.34761 0.78214-0.308144 2.049-0.678928 2.97596-1.981375 4.86653-2.624001 5.88221 0.463932 10.54597 1.373058 0 1.549945-0.21518 2.285718-0.69024 0.909579-3.80633 1.057765-11.04728-2.070722-12.83169z" style="fill:#231f20;opacity:.87999998"/>
  <g transform="matrix(2.1524563,0,0,2.1524563,-86.389381,86.76736)" style="filter:url(#filter8489);opacity:.3;stroke:#000000">
   <path d="m117.96642 49.644531v-17.773437q0-1.992188-0.48829-2.636719l-0.29296-0.292969q-0.70313-0.527344-3.00782-0.664062-0.0586 0-0.0977 0v-0.761719h11.875v0.761719q-2.40235 0.117187-3.125 0.683593-0.72266 0.566407-0.78125 2.246094l-0.0195 0.664063v17.773437q0 2.050781 0.625 2.734375 0.64453 0.703125 2.71484 0.839844 0.27344 0 0.58594 0.01953v0.76172h-11.875v-0.761719q2.36328-0.07813 3.0664-0.605469 0.72266-0.527343 0.80078-2.148437 0.0195-0.351563 0.0195-0.839844z"/>
   <path d="m133.96642 49.644531v-17.773437q0-1.992188-0.48829-2.636719l-0.29296-0.292969q-0.70313-0.527344-3.00782-0.664062-0.0586 0-0.0976 0v-0.761719h11.875v0.761719q-2.40235 0.117187-3.125 0.683593-0.72266 0.566407-0.78125 2.246094l-0.0195 0.664063v17.773437q0 2.050781 0.625 2.734375 0.64453 0.703125 2.71484 0.839844 0.27344 0 0.58594 0.01953v0.76172h-11.875v-0.761719q2.36328-0.07813 3.0664-0.605469 0.72266-0.527343 0.80078-2.148437 0.0195-0.351563 0.0195-0.839844z"/>
   <path d="M 134.51852,31.310547 120,49 l 0.87992,0.611968 14.51852,-17.687467 z"/>
  </g>
  <g transform="matrix(.06116208 0 0 .06116208 155.4671 46.463596)" style="filter:url(#filter8493);opacity:.3;stroke:#000000">
   <path d="m734.71285 883.12018h245l61.20005-122.5v245.00002h-367.50005v-205.00002c125.5-54.1 214.4-188.7 214.4-346.2 0-205.3-150.9-365.9-336.9-365.9-186.1 0-336.9 160.6-336.9 365.8 0 157.6 88.9 292.2 214.4 346.2v205.00002h-367.5v-244.90002l61.3 122.5h245v-31.2c-179.6-63.6-306.3-217.6-306.3-397.5 0-236.8 219.4-428.8 490-428.8s490.00005 192 490.00005 428.8c0 179.9-126.70005 334-306.30005 397.6v31.1z"/>
  </g>
  <path d="m58.388384 107.97646h3.488661l11.64786-22.595985 9.582165 22.595985h3.358702l19.907358-45.802717c1.11596-2.569532 3.29137-4.112544 5.60333-4.461912v-2.727922h-16.0971v2.728862c2.13586 0.475092 4.40309 1.275563 5.41123 3.529692l-14.617637 33.716937c-2.642511-5.619798-5.351886-11.76092-7.937892-17.889218 2.669114-5.670673 4.848999-10.93781 8.123417-16.114045 1.91436-3.045563 5.020861-3.117117 6.621822-3.266858v-2.705122h-17.111351v2.705122c2.134914 0 6.577554 0.191971 4.596615 4.355036l-4.962482 10.43392-5.256298-11.606365c-0.818322-1.807256 0.771283-3.011265 3.366238-3.154704l-0.01908-2.730715h-19.257563v2.70515c2.294447 0.07514 5.529405 0.06315 6.723525 2.008485 3.677007 6.754597 6.135409 13.771007 9.487518 20.657903l-8.674331 16.220951-14.579957-33.515485c-1.642941-3.776801 2.25759-4.993522 4.791568-5.309034l-0.02849-2.768357h-20.532669v2.705122c2.835095 0.93736 6.492328 5.155037 7.513171 7.289468 7.669966 16.042463 11.532028 26.798059 18.853083 42.998766z" style="filter:url(#filter8497);opacity:.3;stroke-width:.04708679;stroke:#000000"/>
  <path d="m43.903817 140.88967c0.01159 1.40203 0.724638 2.19456 0.463931 3.42857-0.811089 3.7426-2.519446 7.51607-3.892504 10.7836-0.903785 2.10883-1.301271 4.62583-2.749644 6.1669-0.312849 0.1738-2.860265-0.0299-3.451202-0.4413-0.86323-0.0116-1.718223 0.0238-2.274398 0.21499v0.46393c3.858467 3.73681 8.035142 5.00893 13.295611 7.34371-0.72998 3.79474-4.561647 6.3264-6.427152 9.1768-0.961725 0-1.735336-0.0642-2.285718-0.46393-0.527208 0.0985-0.568939 0.12176-0.916549 0.23763 0.0927 3.37181 2.904169 6.23669 5.7256 6.87977 1.894473-2.12042 4.26148-3.14007 7.106086-4.34512 2.601279 2.71135 3.354161 6.58421 4.356435 10.98727 0.434512 1.92344-0.277729 4.0397 0.226305 5.7256 0.880617 2.97786 2.46731 3.86625 3.89251 5.95191h1.606785c1.008068-5.38795-1.463489-10.62101-2.749644-14.9024-0.376578-1.82495-0.760489-3.67407-1.14286-5.51061-0.955926-1.57004-2.838175-1.97405-4.130124-3.20226-0.399751-0.13325-0.22667-0.0409-0.452616-0.22631 2.954682-1.52949 6.094935-3.22128 9.165487-4.58275 0.822676 0.91537 4.642309 4.59352 5.963226 3.8925 0.231739-0.0695 0.452975-0.1394 0.678922-0.2263-0.07532-1.29775-0.139403-2.58897-0.226306-3.89251-2.890953-2.88516-7.146819-5.27443-11.926452-6.17821v0.2263h-0.226305c0.538789 1.58163 2.298656 3.093 3.677507 3.89251v0.69024c-2.717149 0.39396-5.125162 1.71198-7.570017 2.53465-1.674319 0.5388-3.696515 0.45986-5.057986 1.35785h-0.678928c0.990687-2.77508 4.277319-5.04948 5.963226-7.3437 3.337052-4.49575 5.98151-10.0099 11.236209-12.60538-0.139044-2.11463-6.238689-6.48926-8.486565-5.04668-0.561969 0.29547-0.162942-0.12093-0.452617 0.45262-0.341816 0.83426 0.78864 1.86369 0.452617 3.21358-0.440306 1.76701-4.804794 10.08294-5.951905 11.0099v0.23762c-2.363746-0.80529-4.162174-3.02936-6.415843-4.13012 0.399751-2.10883 2.165226-3.7319 3.202261-5.27299 2.624453-3.96275 4.73274-7.74129 8.71287-10.33098-0.03476-3.04738-4.957962-6.22483-8.260253-6.1669zm27.100423 2.18388c-0.421274 0.017-0.812804 0.12121-1.165483 0.35077-0.231739 0.0811-0.458775 0.13362-0.678928 0.22632 0 1.9582 0.974032 3.43679 0.452617 5.49929-1.054416 4.11917-3.407571 9.01277-5.510609 12.39038-1.262982 2.02772-4.008733 4.22065-4.118809 7.1174 3.742597-0.37079 4.639047-4.23568 7.547381-5.2843 0.84585 0.78212 1.677489 1.54967 2.523339 2.29703 1.199253 1.80177 0.981094 4.50471 1.606791 6.86846 1.071796 4.95923 2.142052 9.94319 3.202261 14.9024 0.144837 2.46223 0.301714 4.88727 0.463931 7.34371 0.608317 2.20732 2.439513 6.06389 4.809052 6.59688 0.388164 0.197 0.702554 0.12131 1.14286-0.2263 0.805295-0.65467 0.371687-1.8111 0.927862-2.74965 1.286156-0.92116 3.558121-0.6849 5.272984-1.15417 4.686931-1.23402 10.158261-1.14992 15.355021-2.29703 2.46224-0.53881 6.52864 0.92632 8.47525-0.215 0.23174-0.0927 0.47588-0.15045 0.69024-0.24894-0.11008-2.99523-5.84518-4.26916-8.9505-3.40593-1.37305 0.38237-2.97758 1.23627-4.35643 1.59547-1.0718 0.0811-2.14178 0.15127-3.21358 0.21499-0.35919-3.73101-2.19881-6.62431-2.28571-10.52334 3.44713-0.0753 7.76491-0.52956 10.07072-1.8331-0.0464-1.15869-0.256-1.16132-0.67893-1.82178-2.62445-0.6199-7.1317-0.72309-9.1768 0.67893-0.57935-0.0232-0.84186-0.0235-1.13154-0.22631-1.28036-1.62218-0.6744-4.93307-1.8331-6.64215v-0.91655c2.46803-0.533 6.49306-0.97104 7.78501-2.74965 0.17959-0.23753 0.0815-0.0645 0.22631-0.45261-0.20857-0.20277-0.2904-0.39477-0.45262-0.69024-3.58617-0.90379-5.14362-0.28271-8.248937 0.91655-0.967514-3.09952 0.198879-5.55261-2.975956-6.41584 0.677839-1.17608 2.937029-1.13173 4.356433-1.60679 2.21312-0.72999 4.7245-1.70709 6.64215-2.73834 0.15063-0.39395 0.0464-0.23219 0.23763-0.46393-0.12746-1.15869-0.45859-1.12049-0.92787-1.8331-3.30808-0.2549-5.94819 0.0661-7.796324 1.8331h-0.441297c0.272295-1.70908 1.341374-4.16099 2.285711-5.49929 0.64887-0.93855 1.84514-0.80801 2.29703-2.05941h0.22631v-0.24894c-0.46927-0.60252-0.91148-1.22505-1.36916-1.82178-1.07759-0.75315-2.63496-0.81887-3.666202-1.60679-1.523689-0.0232-2.982925-0.0225-3.892504 0.45262 0.121664 0.88061 0.516438 1.43371 0.690243 2.0594 0.631491 2.36375-1.642728 9.67152-2.523339 10.77228-0.7126 0.8922-8.988333 3.89142-11.236209 3.21358-0.533002-0.16801-2.088827-0.94597-2.523339-1.38048-0.185392-0.22594-0.08147-0.0529-0.226311-0.45261 3.25015-3.05318 5.586289-9.85184 10.082041-11.2249 0.08111-0.37078 0.156511-0.76628 0.23762-1.14286-0.983446-1.01386-5.277317-5.51634-8.22631-5.39745zm8.927867 20.63932c0.669693-0.0396 1.179973-0.0167 1.346536 0.0905 2.433267 1.12973 1.562343 4.70721 2.975955 6.87977-0.48086 1.12394-6.069861 2.81953-7.796322 2.97596-0.307055-2.42748-0.709616-7.38643-2.297033-8.70156 0.273742-0.46493 3.761791-1.12602 5.770864-1.2447zm4.775108 9.94625h0.23762c0.440311 2.08566 0.68599 5.66939 1.833102 7.34371-0.822676 2.01613-5.884469 1.83436-7.796322 2.98727-0.799502-0.48086-1.856276-6.23208-1.833102-7.79633 1.749635-0.16221 6.289927-1.67142 7.558702-2.53465zm-26.579919 10.08204c-0.463479 1.98138 4.405049 6.41104 5.951911 7.58133 0.770535 0.57935 1.799877 1.89664 2.975956 1.35785 0.602523-0.0464 0.789184-0.10464 1.154174-0.22631 0.266501-0.60831 0.666611-1.38763 0.226306-2.04809-0.121664-2.87937-7.591198-6.1144-10.308347-6.66478zm29.329563 0.22631c0.179599 2.132 1.492097 8.15207 2.523339 9.62942 0.0058 0.13905 0 0.3133 0 0.46393-2.763496 0.59094-5.636525 1.39207-8.71287 1.38048-0.475067-3.26753-2.042027-6.14751-2.059408-9.62942 3.516651-0.0637 5.340605-1.48522 8.248939-1.84441zm-42.410183 2.74964c-0.34761 0.78214-0.308144 2.049-0.678928 2.97596-1.981375 4.86653-2.624001 5.88221 0.463932 10.54597 1.373058 0 1.549945-0.21518 2.285718-0.69024 0.909579-3.80633 1.057765-11.04728-2.070722-12.83169z" style="filter:url(#filter8501);opacity:.3"/>
 </g>
</svg>
