<svg width="256" height="256" style="enable-background:new" version="1.0" xmlns="http://www.w3.org/2000/svg" xmlns:xlink="http://www.w3.org/1999/xlink">
 <defs>
  <filter id="filter925" x="-.02" y="-.03" width="1.046" height="1.05" style="color-interpolation-filters:sRGB">
   <feGaussianBlur stdDeviation="2.32"/>
  </filter>
  <filter id="filter931" x="-.01" y="-.01" width="1.023" height="1.025" style="color-interpolation-filters:sRGB">
   <feGaussianBlur stdDeviation="1.16"/>
  </filter>
  <linearGradient id="linearGradient1108" x1="296" x2="296" y1="-212" y2="236" gradientUnits="userSpaceOnUse">
   <stop style="stop-color:#ffffff" offset="0"/>
   <stop style="stop-color:#ffffff;stop-opacity:.09803922" offset=".125"/>
   <stop style="stop-color:#000000;stop-opacity:.09803922" offset=".925"/>
   <stop style="stop-color:#000000;stop-opacity:.49803922" offset="1"/>
  </linearGradient>
  <clipPath id="clipPath1082-3">
   <path d="M 361.9375,-212 C 507.2348,-212 528,-191.28677 528,-46.125 V 70.125 C 528,215.28618 507.2348,236 361.9375,236 H 214.0625 C 68.7652,236 48,215.28618 48,70.125 V -46.125 C 48,-191.28677 68.7652,-212 214.0625,-212 Z" style="fill:#8c59d9"/>
  </clipPath>
  <radialGradient id="radialGradient879" cx="34.115" cy="282.914" r="32.388" gradientTransform="matrix(4.805803,-3.4388631,2.3351357,3.3477164,-697.35248,-595.27666)" gradientUnits="userSpaceOnUse">
   <stop style="stop-color:#c55662" offset="0"/>
   <stop style="stop-color:#a23440" offset=".5"/>
   <stop style="stop-color:#ad3743" offset="1"/>
  </radialGradient>
  <filter id="filter887" x="-.6" y="-.11" width="2.198" height="1.212" style="color-interpolation-filters:sRGB">
   <feGaussianBlur stdDeviation="2.03"/>
  </filter>
  <linearGradient id="linearGradient8140" x1="70.533" x2="39.067" y1="138.028" y2="98.522" gradientUnits="userSpaceOnUse">
   <stop style="stop-color:#d3d3d3" offset="0"/>
   <stop style="stop-color:#bfbfbf" offset="1"/>
  </linearGradient>
 </defs>
 <g transform="translate(0,-44)">
  <path d="m162.53675 62.431991c72.64865 0 83.03125 10.356615 83.03125 82.937499v58.125c0 72.58059-10.3826 82.9375-83.03125 82.9375h-73.9375c-72.64865 0-83.03125-10.35691-83.03125-82.9375v-58.125c0-72.580884 10.3826-82.937499 83.03125-82.937499z" style="filter:url(#filter925);opacity:.2"/>
  <path d="m162.53675 61.431991c72.64865 0 83.03125 10.356615 83.03125 82.937499v58.125c0 72.58059-10.3826 82.9375-83.03125 82.9375h-73.9375c-72.64865 0-83.03125-10.35691-83.03125-82.9375v-58.125c0-72.580884 10.3826-82.937499 83.03125-82.937499z" style="filter:url(#filter931);opacity:.1"/>
  <path d="m162.53675 60.431991c72.64865 0 83.03125 10.356615 83.03125 82.937499v58.125c0 72.58059-10.3826 82.9375-83.03125 82.9375h-73.9375c-72.64865 0-83.03125-10.35691-83.03125-82.9375v-58.125c0-72.580884 10.3826-82.937499 83.03125-82.937499z" style="fill:url(#linearGradient8140)"/>
  <path d="m5.62745 143.65586v56.8337c0 9.183 0.16266 17.3814 0.58778 24.6983 0.21267 3.65847 0.49122 7.0961 0.84821 10.32654 0.35714 3.23044 0.79248 6.25334 1.3192 9.08152 0.52667 2.82819 1.14313 5.46248 1.86488 7.91403 0.72175 2.45163 1.5488 4.71976 2.49097 6.82039 0.94217 2.1007 1.99997 4.0326 3.1879 5.80807 1.18793 1.77543 2.5062 3.39553 3.96526 4.8714 1.45907 1.4759 3.05845 2.8069 4.81348 4.00845 1.75499 1.20147 3.66571 2.27407 5.74204 3.22689 2.07637 0.95281 4.31847 1.78737 6.74153 2.51712 2.42306 0.72983 5.02619 1.35447 7.82138 1.88693 2.7952 0.53246 5.78324 0.97142 8.97592 1.33225 3.19268 0.36056 6.58959 0.64233 10.20516 0.85716 7.23112 0.42965 15.33306 0.59338 24.40809 0.59338h73.8867c9.07502 0 17.17695-0.16365 24.40812-0.59338 3.61555-0.21506 7.01243-0.49633 10.20511-0.85716 3.19269-0.36057 6.18074-0.79979 8.97595-1.33225 2.79518-0.53246 5.39829-1.1571 7.82136-1.88693 2.42309-0.72975 4.66519-1.56431 6.74153-2.51712 2.07634-0.95282 3.98705-2.02542 5.74204-3.22689 1.75503-1.20155 3.3544-2.53255 4.81346-4.00845 1.45907-1.47587 2.77734-3.09597 3.96528-4.8714 1.18792-1.77547 2.24572-3.70737 3.18789-5.80807 0.94217-2.10063 1.76922-4.36876 2.49097-6.82039 0.72176-2.45155 1.33821-5.08584 1.86488-7.91403 0.52671-2.82818 0.96222-5.85108 1.3192-9.08152 0.35679-3.23044 0.63558-6.66807 0.84821-10.32654 0.42528-7.3169 0.58779-15.5153 0.58779-24.6983v-58.83111c0-2.42986 0.19211-14.0428 0.16728-16.33667-29.59849-56.783355-135.29194 101.90888-239.99778 18.33408z" style="fill:url(#radialGradient879)"/>
  <path transform="matrix(3.7025526,0,0,3.7795275,4.0819924,-821.63928)" d="m16.156983 240.01687c-0.810682 1.01861-1.559808 2.17321-2.236039 3.44321-2.652032 4.98063-4.2617582 11.7794-4.2617582 19.28306s1.6097262 14.30448 4.2617582 19.28512c0.799346 1.50121 1.700837 2.84061 2.685624 3.98426l1.184424-0.73174c-0.958797-1.08295-1.851448-2.38962-2.655135-3.89899-2.515582-4.72438-4.101561-11.33294-4.101561-18.63865s1.585979-13.9122 4.101561-18.63659c0.627082-1.17769 1.307574-2.23359 2.031917-3.15537-0.266594-0.24564-0.622323-0.57574-1.010791-0.93431z" style="fill:#ffffff;filter:url(#filter887);opacity:.87000002"/>
  <path transform="matrix(.5 0 0 .5 -18.432 166.43199)" d="M 361.9375,-212 C 507.2348,-212 528,-191.28677 528,-46.125 V 70.125 C 528,215.28618 507.2348,236 361.9375,236 H 214.0625 C 68.7652,236 48,215.28618 48,70.125 V -46.125 C 48,-191.28677 68.7652,-212 214.0625,-212 Z" clip-path="url(#clipPath1082-3)" style="fill:none;opacity:.4;stroke-linecap:round;stroke-linejoin:round;stroke-width:8;stroke:url(#linearGradient1108)"/>
 </g>
</svg>
