<svg xmlns="http://www.w3.org/2000/svg" xmlns:xlink="http://www.w3.org/1999/xlink" width="256" height="256" version="1.1" viewBox="0 0 67.73 67.73">
 <defs>
  <linearGradient id="linearGradient2059" x1="168" x2="168" y1="284" y2="28" gradientTransform="matrix(0.26970778,0,0,0.26970778,-7.1289177,220.56049)" gradientUnits="userSpaceOnUse" xlink:href="#linearGradient3797-5"/>
  <linearGradient id="linearGradient3797-5">
   <stop offset="0" style="stop-color:#e6eaef"/>
   <stop offset="1" style="stop-color:#e6eaef"/>
  </linearGradient>
  <filter style="color-interpolation-filters:sRGB" id="filter1132" width="1.046" height="1.05" x="-.02" y="-.03">
   <feGaussianBlur stdDeviation="2.32"/>
  </filter>
  <filter style="color-interpolation-filters:sRGB" id="filter4569" width="1.023" height="1.025" x="-.01" y="-.01">
   <feGaussianBlur stdDeviation="1.16"/>
  </filter>
  <linearGradient id="linearGradient1108-7" x1="296" x2="296" y1="-212" y2="236" gradientUnits="userSpaceOnUse" xlink:href="#linearGradient1013"/>
  <linearGradient id="linearGradient1013">
   <stop offset="0" style="stop-color:#ffffff"/>
   <stop style="stop-color:#ffffff;stop-opacity:0.09803922" offset=".125"/>
   <stop style="stop-color:#000000;stop-opacity:0.09803922" offset=".925"/>
   <stop offset="1" style="stop-color:#000000;stop-opacity:0.49803922"/>
  </linearGradient>
  <clipPath id="clipPath1082-3-93" clipPathUnits="userSpaceOnUse">
   <path d="M 361.9375,-212 C 507.2348,-212 528,-191.28677 528,-46.125 V 70.125 C 528,215.28618 507.2348,236 361.9375,236 H 214.0625 C 68.7652,236 48,215.28618 48,70.125 V -46.125 C 48,-191.28677 68.7652,-212 214.0625,-212 Z" style="fill:#8c59d9"/>
  </clipPath>
  <filter style="color-interpolation-filters:sRGB" id="filter988" width="1.088" height="1.106" x="-.04" y="-.05">
   <feGaussianBlur stdDeviation=".728"/>
  </filter>
 </defs>
 <g transform="translate(0,-229.26666)">
  <path d="m 43.837425,232.42763 c 19.593907,0 22.394175,2.79326 22.394175,22.36889 v 15.67677 c 0,19.57555 -2.800268,22.36888 -22.394175,22.36888 h -19.94152 c -19.5939058,0 -22.3941739,-2.79333 -22.3941739,-22.36888 v -15.67677 c 0,-19.57563 2.8002681,-22.36889 22.3941739,-22.36889 z" style="opacity:0.115;fill:none;stroke:#000000;stroke-width:1.0788312;stroke-linecap:round;stroke-linejoin:round"/>
  <path d="m 188.96876,43.999995 c 72.64865,0 83.03125,10.356615 83.03125,82.937505 v 58.125 c 0,72.58059 -10.3826,82.9375 -83.03125,82.9375 h -73.9375 C 42.382606,268 32.000006,257.64309 32.000006,185.0625 v -58.125 c 0,-72.58089 10.3826,-82.937505 83.031254,-82.937505 z" transform="matrix(0.26970778,0,0,0.26970778,-7.1289177,220.56049)" style="opacity:0.1;filter:url(#filter4569)"/>
  <path style="opacity:0.2;filter:url(#filter1132)" d="m 188.96876,45.999995 c 72.64865,0 83.03125,10.356615 83.03125,82.937505 v 58.125 c 0,72.58059 -10.3826,82.9375 -83.03125,82.9375 h -73.9375 C 42.382606,270 32.000006,259.64309 32.000006,187.0625 v -58.125 c 0,-72.58089 10.3826,-82.937505 83.031254,-82.937505 z" transform="matrix(0.26970778,0,0,0.26970778,-7.1289177,220.56049)"/>
  <path style="fill:url(#linearGradient2059)" d="m 43.837425,232.42763 c 19.593907,0 22.394175,2.79326 22.394175,22.36889 v 15.67677 c 0,19.57555 -2.800268,22.36888 -22.394175,22.36888 h -19.94152 c -19.5939058,0 -22.3941739,-2.79333 -22.3941739,-22.36888 v -15.67677 c 0,-19.57563 2.8002681,-22.36889 22.3941739,-22.36889 z"/>
  <path style="opacity:0.25;fill:#ffffff" d="m 0.9525,262.56205 v 7.96544 c 0,19.89285 2.846163,22.73147 22.761203,22.73147 h 20.268349 c 19.91504,0 22.761202,-2.83862 22.761202,-22.73147 v -7.96544 z"/>
  <path style="opacity:0.25;fill:#ffffff" d="m 34.339496,293.25889 h 9.642769 c 2.489379,0 4.711922,-0.0442 6.695678,-0.16069 0.991878,-0.0582 1.924134,-0.13436 2.800022,-0.23212 0.87589,-0.0978 1.695452,-0.21706 2.462296,-0.36129 0.766845,-0.14424 1.480835,-0.31385 2.145581,-0.51149 0.664745,-0.19765 1.280283,-0.42364 1.849874,-0.68163 0.569591,-0.25801 1.093269,-0.54801 1.574648,-0.87331 0.481383,-0.3253 0.920325,-0.68593 1.32044,-1.08546 0.400114,-0.39954 0.76144,-0.83793 1.087233,-1.31864 0.325794,-0.48071 0.616096,-1.00344 0.874514,-1.57227 0.258418,-0.56883 0.484817,-1.18356 0.682806,-1.84745 0.197987,-0.66388 0.367602,-1.3772 0.512101,-2.14309 0.144501,-0.7659 0.263929,-1.58441 0.361887,-2.45924 0.09796,-0.87483 0.174317,-1.80566 0.232678,-2.79637 0.116723,-1.98143 0.161248,-4.20159 0.161248,-6.68819 v -15.9312 c 0,-2.48661 -0.04453,-4.70675 -0.161248,-6.68819 -0.05836,-0.99071 -0.13472,-1.92154 -0.232678,-2.79637 -0.09796,-0.87484 -0.217386,-1.69334 -0.361887,-2.45924 -0.144499,-0.76589 -0.314114,-1.4792 -0.512101,-2.14309 -0.197989,-0.66389 -0.424388,-1.27862 -0.682806,-1.84745 -0.258418,-0.56882 -0.54872,-1.09156 -0.874514,-1.57227 -0.325793,-0.48071 -0.687119,-0.9191 -1.087233,-1.31863 -0.400115,-0.39954 -0.839057,-0.76017 -1.32044,-1.08547 -0.481379,-0.3253 -1.005057,-0.6153 -1.574648,-0.87331 -0.569591,-0.25799 -1.185129,-0.48398 -1.849874,-0.68163 -0.664746,-0.19764 -1.378736,-0.36725 -2.145581,-0.51149 -0.766844,-0.14423 -1.586406,-0.26353 -2.462296,-0.36129 -0.875888,-0.0978 -1.808144,-0.17387 -2.800022,-0.23211 -1.983756,-0.11647 -4.206299,-0.1607 -6.695678,-0.1607 h -9.642769 z"/>
  <path d="M 361.9375,-212 C 507.2348,-212 528,-191.28677 528,-46.125 V 70.125 C 528,215.28618 507.2348,236 361.9375,236 H 214.0625 C 68.7652,236 48,215.28618 48,70.125 V -46.125 C 48,-191.28677 68.7652,-212 214.0625,-212 Z" clip-path="url(#clipPath1082-3-93)" transform="matrix(0.13485389,0,0,0.13485389,-4.9712548,261.01665)" style="opacity:0.6;fill:none;stroke:url(#linearGradient1108-7);stroke-width:8;stroke-linecap:round;stroke-linejoin:round"/>
  <path style="fill:none;stroke:#313131;stroke-width:2.64576697" d="m 14.022884,245.43716 v 23.34545 c 0,0 0,9.72715 11.906212,9.72715 11.906217,0 11.906217,-9.72715 11.906217,-9.72715 v -17.50916 c 0,0 0,-4.51285 -3.968647,-4.51285 -3.968652,0 -3.968652,4.51285 -3.968652,4.51285 v 17.50916 c 0,0 0,9.72715 11.906217,9.72715 11.906217,0 11.906217,-9.72715 11.906217,-9.72715 v -23.34545"/>
  <path style="opacity:0.3;fill:#313131;filter:url(#filter988)" d="m 12.699219,245.4375 v 23.3457 c 0,0 -0.0097,2.78603 1.683593,5.55274 1.693253,2.76671 5.233513,5.49609 11.546876,5.49609 3.43913,0 5.994611,-0.83881 7.9375,-2.02344 1.942888,1.18463 4.498369,2.02344 7.9375,2.02344 6.313365,0 9.851668,-2.72938 11.544921,-5.49609 1.693254,-2.76671 1.683594,-5.55274 1.683594,-5.55274 v -23.3457 h -2.646484 v 23.3457 c 0,0 -0.0097,2.07501 -1.292969,4.17188 -1.283301,2.09686 -3.696211,4.23242 -9.289062,4.23242 -2.504691,0 -4.299456,-0.46784 -5.712891,-1.12891 0.534961,-0.55835 1.02325,-1.13514 1.382812,-1.72265 1.693254,-2.76671 1.683594,-5.55274 1.683594,-5.55274 v -17.50976 c 0,0 0.01946,-1.36338 -0.607422,-2.78906 -0.62688,-1.42569 -2.197842,-3.04688 -4.683593,-3.04688 -2.485754,0 -4.056713,1.62119 -4.683594,3.04688 -0.626882,1.42568 -0.609375,2.78906 -0.609375,2.78906 v 17.50976 c 0,0 -0.0097,2.78603 1.683593,5.55274 0.359593,0.58756 0.849745,1.16426 1.384766,1.72265 -1.413582,0.66139 -3.207475,1.12891 -5.71289,1.12891 -5.59285,0 -8.007716,-2.13556 -9.291016,-4.23242 -1.283301,-2.09687 -1.292969,-4.17188 -1.292969,-4.17188 v -23.3457 z m 21.167969,2.64648 c 1.482895,0 1.896437,0.63411 2.261718,1.46485 0.365281,0.83074 0.382813,1.72461 0.382813,1.72461 v 17.50976 c 0,0 -0.0097,2.07501 -1.292969,4.17188 -0.346264,0.56578 -0.800483,1.12572 -1.351562,1.6543 -0.551589,-0.52887 -1.007031,-1.08816 -1.353516,-1.6543 -1.283301,-2.09687 -1.292969,-4.17188 -1.292969,-4.17188 v -17.50976 c 0,0 0.01948,-0.89387 0.384766,-1.72461 0.365281,-0.83074 0.77882,-1.46485 2.261719,-1.46485 z"/>
 </g>
</svg>
