<svg width="256" height="256" version="1.1" viewBox="0 0 67.73 67.73" xmlns="http://www.w3.org/2000/svg" xmlns:xlink="http://www.w3.org/1999/xlink">
 <defs>
  <linearGradient id="linearGradient2059" x1="168" x2="168" y1="284" y2="28" gradientTransform="matrix(.26970778 0 0 .26970778 -7.1289177 220.56049)" gradientUnits="userSpaceOnUse">
   <stop style="stop-color:#e6eaef" offset="0"/>
   <stop style="stop-color:#e6eaef" offset="1"/>
  </linearGradient>
  <filter id="filter1132" x="-.02" y="-.03" width="1.046" height="1.05" style="color-interpolation-filters:sRGB">
   <feGaussianBlur stdDeviation="2.32"/>
  </filter>
  <filter id="filter4569" x="-.01" y="-.01" width="1.023" height="1.025" style="color-interpolation-filters:sRGB">
   <feGaussianBlur stdDeviation="1.16"/>
  </filter>
  <linearGradient id="linearGradient1108-7" x1="296" x2="296" y1="-212" y2="236" gradientUnits="userSpaceOnUse">
   <stop style="stop-color:#ffffff" offset="0"/>
   <stop style="stop-color:#ffffff;stop-opacity:.09803922" offset=".125"/>
   <stop style="stop-color:#000000;stop-opacity:.09803922" offset=".925"/>
   <stop style="stop-color:#000000;stop-opacity:.49803922" offset="1"/>
  </linearGradient>
  <clipPath id="clipPath1082-3-93">
   <path d="M 361.9375,-212 C 507.2348,-212 528,-191.28677 528,-46.125 V 70.125 C 528,215.28618 507.2348,236 361.9375,236 H 214.0625 C 68.7652,236 48,215.28618 48,70.125 V -46.125 C 48,-191.28677 68.7652,-212 214.0625,-212 Z" style="fill:#8c59d9"/>
  </clipPath>
  <filter id="filter988" x="-.04" y="-.05" width="1.088" height="1.106" style="color-interpolation-filters:sRGB">
   <feGaussianBlur stdDeviation=".728"/>
  </filter>
 </defs>
 <g transform="translate(0,-229.26666)">
  <path d="m43.837425 232.42763c19.593907 0 22.394175 2.79326 22.394175 22.36889v15.67677c0 19.57555-2.800268 22.36888-22.394175 22.36888h-19.94152c-19.593906 0-22.394174-2.79333-22.394174-22.36888v-15.67677c0-19.57563 2.8002681-22.36889 22.394174-22.36889z" style="fill:none;opacity:.115;stroke-linecap:round;stroke-linejoin:round;stroke-width:1.0788312;stroke:#000000"/>
  <path transform="matrix(.26970778 0 0 .26970778 -7.1289177 220.56049)" d="m188.96876 43.999995c72.64865 0 83.03125 10.356615 83.03125 82.937505v58.125c0 72.58059-10.3826 82.9375-83.03125 82.9375h-73.9375c-72.648654 0-83.031254-10.35691-83.031254-82.9375v-58.125c0-72.58089 10.3826-82.937505 83.031254-82.937505z" style="filter:url(#filter4569);opacity:.1"/>
  <path transform="matrix(.26970778 0 0 .26970778 -7.1289177 220.56049)" d="m188.96876 45.999995c72.64865 0 83.03125 10.356615 83.03125 82.937505v58.125c0 72.58059-10.3826 82.9375-83.03125 82.9375h-73.9375c-72.648654 0-83.031254-10.35691-83.031254-82.9375v-58.125c0-72.58089 10.3826-82.937505 83.031254-82.937505z" style="filter:url(#filter1132);opacity:.2"/>
  <path d="m43.837425 232.42763c19.593907 0 22.394175 2.79326 22.394175 22.36889v15.67677c0 19.57555-2.800268 22.36888-22.394175 22.36888h-19.94152c-19.593906 0-22.394174-2.79333-22.394174-22.36888v-15.67677c0-19.57563 2.8002681-22.36889 22.394174-22.36889z" style="fill:url(#linearGradient2059)"/>
  <path d="m0.9525 262.56205v7.96544c0 19.89285 2.846163 22.73147 22.761203 22.73147h20.268349c19.91504 0 22.761202-2.83862 22.761202-22.73147v-7.96544z" style="fill:#ffffff;opacity:.25"/>
  <path d="m34.339496 293.25889h9.642769c2.489379 0 4.711922-0.0442 6.695678-0.16069 0.991878-0.0582 1.924134-0.13436 2.800022-0.23212 0.87589-0.0978 1.695452-0.21706 2.462296-0.36129 0.766845-0.14424 1.480835-0.31385 2.145581-0.51149 0.664745-0.19765 1.280283-0.42364 1.849874-0.68163 0.569591-0.25801 1.093269-0.54801 1.574648-0.87331 0.481383-0.3253 0.920325-0.68593 1.32044-1.08546 0.400114-0.39954 0.76144-0.83793 1.087233-1.31864 0.325794-0.48071 0.616096-1.00344 0.874514-1.57227s0.484817-1.18356 0.682806-1.84745c0.197987-0.66388 0.367602-1.3772 0.512101-2.14309 0.144501-0.7659 0.263929-1.58441 0.361887-2.45924 0.09796-0.87483 0.174317-1.80566 0.232678-2.79637 0.116723-1.98143 0.161248-4.20159 0.161248-6.68819v-15.9312c0-2.48661-0.04453-4.70675-0.161248-6.68819-0.05836-0.99071-0.13472-1.92154-0.232678-2.79637-0.09796-0.87484-0.217386-1.69334-0.361887-2.45924-0.144499-0.76589-0.314114-1.4792-0.512101-2.14309-0.197989-0.66389-0.424388-1.27862-0.682806-1.84745-0.258418-0.56882-0.54872-1.09156-0.874514-1.57227-0.325793-0.48071-0.687119-0.9191-1.087233-1.31863-0.400115-0.39954-0.839057-0.76017-1.32044-1.08547-0.481379-0.3253-1.005057-0.6153-1.574648-0.87331-0.569591-0.25799-1.185129-0.48398-1.849874-0.68163-0.664746-0.19764-1.378736-0.36725-2.145581-0.51149-0.766844-0.14423-1.586406-0.26353-2.462296-0.36129-0.875888-0.0978-1.808144-0.17387-2.800022-0.23211-1.983756-0.11647-4.206299-0.1607-6.695678-0.1607h-9.642769z" style="fill:#ffffff;opacity:.25"/>
  <path transform="matrix(.13485389 0 0 .13485389 -4.9712548 261.01665)" d="M 361.9375,-212 C 507.2348,-212 528,-191.28677 528,-46.125 V 70.125 C 528,215.28618 507.2348,236 361.9375,236 H 214.0625 C 68.7652,236 48,215.28618 48,70.125 V -46.125 C 48,-191.28677 68.7652,-212 214.0625,-212 Z" clip-path="url(#clipPath1082-3-93)" style="fill:none;opacity:.6;stroke-linecap:round;stroke-linejoin:round;stroke-width:8;stroke:url(#linearGradient1108-7)"/>
  <path d="m14.022884 245.43716v23.34545s0 9.72715 11.906212 9.72715c11.906217 0 11.906217-9.72715 11.906217-9.72715v-17.50916s0-4.51285-3.968647-4.51285c-3.968652 0-3.968652 4.51285-3.968652 4.51285v17.50916s0 9.72715 11.906217 9.72715 11.906217-9.72715 11.906217-9.72715v-23.34545" style="fill:none;stroke-width:2.645767;stroke:#313131"/>
  <path d="m14.022884 245.43716v23.34545s0 9.72715 11.906212 9.72715c11.906217 0 11.906217-9.72715 11.906217-9.72715v-17.50916s0-4.51285-3.968647-4.51285c-3.968652 0-3.968652 4.51285-3.968652 4.51285v17.50916s0 9.72715 11.906217 9.72715 11.906217-9.72715 11.906217-9.72715v-23.34545" style="fill:none;filter:url(#filter988);opacity:.3;stroke-width:2.645767;stroke:#313131"/>
 </g>
</svg>
