<svg xmlns="http://www.w3.org/2000/svg" xmlns:xlink="http://www.w3.org/1999/xlink" width="256" height="256" version="1.1" viewBox="0 0 67.73 67.73">
 <defs>
  <linearGradient id="linearGradient1108" x1="296" x2="296" y1="-212" y2="236" gradientUnits="userSpaceOnUse" xlink:href="#linearGradient1013"/>
  <linearGradient id="linearGradient1013">
   <stop style="stop-color:#ffffff" offset="0"/>
   <stop offset=".125" style="stop-color:#ffffff;stop-opacity:0.09803922"/>
   <stop offset=".925" style="stop-color:#000000;stop-opacity:0.09803922"/>
   <stop style="stop-color:#000000;stop-opacity:0.49803922" offset="1"/>
  </linearGradient>
  <clipPath id="clipPath1082-3-361" clipPathUnits="userSpaceOnUse">
   <path style="fill:#8c59d9" d="M 361.9375,-212 C 507.2348,-212 528,-191.28677 528,-46.125 V 70.125 C 528,215.28618 507.2348,236 361.9375,236 H 214.0625 C 68.7652,236 48,215.28618 48,70.125 V -46.125 C 48,-191.28677 68.7652,-212 214.0625,-212 Z"/>
  </clipPath>
  <filter id="filter4569" width="1.023" height="1.025" x="-.01" y="-.01" style="color-interpolation-filters:sRGB">
   <feGaussianBlur stdDeviation="1.16"/>
  </filter>
  <filter id="filter939" width="1.046" height="1.05" x="-.02" y="-.03" style="color-interpolation-filters:sRGB">
   <feGaussianBlur stdDeviation="2.32"/>
  </filter>
  <linearGradient id="linearGradient954" x1="7.5" x2="64.112" y1="230.789" y2="294.501" gradientTransform="matrix(1.0193681,0,0,1.0193681,0,-5.7113166)" gradientUnits="userSpaceOnUse" xlink:href="#linearGradient3688"/>
  <linearGradient id="linearGradient3688">
   <stop offset="0" style="stop-color:#ad0d0d"/>
   <stop offset="1" style="stop-color:#e02f11"/>
  </linearGradient>
  <linearGradient id="linearGradient4162" x1="17.197" x2="27.308" y1="11.627" y2="31.453" gradientTransform="matrix(1.5119046,0,0,1.5119046,-2.4190544,226.31391)" gradientUnits="userSpaceOnUse" xlink:href="#linearGradient4168"/>
  <linearGradient id="linearGradient4168">
   <stop offset="0" style="stop-color:#fcfcfc"/>
   <stop offset="1" style="stop-color:#fbc2bb"/>
  </linearGradient>
  <filter id="filter948" width="1.079" height="1.122" x="-.04" y="-.06" style="color-interpolation-filters:sRGB">
   <feGaussianBlur stdDeviation=".696"/>
  </filter>
 </defs>
 <g transform="translate(0,-229.26666)">
  <path d="m 162.53675,5.5680001 c 72.64865,0 83.03125,10.3566149 83.03125,82.9375049 v 58.125005 c 0,72.58059 -10.3826,82.9375 -83.03125,82.9375 H 88.599254 C 15.9506,229.56801 5.568,219.2111 5.568,146.63051 V 88.505505 c 0,-72.58089 10.3826,-82.9375049 83.031254,-82.9375049 z" transform="matrix(0.26970779,0,0,0.26970779,-1.9098094e-8,231.46531)" style="opacity:0.2;filter:url(#filter939)"/>
  <path style="opacity:0.1;fill:none;stroke:#000000;stroke-width:1.07883108;stroke-linecap:round;stroke-linejoin:round" d="m 43.837429,232.42763 c 19.593907,0 22.394176,2.79326 22.394176,22.36889 v 15.67677 c 0,19.57555 -2.800269,22.36889 -22.394176,22.36889 H 23.89591 c -19.5939088,0 -22.394177,-2.79334 -22.394177,-22.36889 v -15.67677 c 0,-19.57563 2.8002682,-22.36889 22.394177,-22.36889 z"/>
  <path style="opacity:0.1;filter:url(#filter4569)" d="m 162.53675,3.5680001 c 72.64865,0 83.03125,10.3566149 83.03125,82.9375049 v 58.125005 c 0,72.58059 -10.3826,82.9375 -83.03125,82.9375 H 88.599254 C 15.9506,227.56801 5.568,217.2111 5.568,144.63051 V 86.505505 c 0,-72.58089 10.3826,-82.9375049 83.031254,-82.9375049 z" transform="matrix(0.26970779,0,0,0.26970779,-1.9098094e-8,231.46531)"/>
  <path d="m 43.837427,232.42763 c 19.593907,0 22.394175,2.79326 22.394175,22.36889 v 15.67677 c 0,19.57555 -2.800268,22.36889 -22.394175,22.36889 h -19.94152 c -19.5939074,0 -22.3941756,-2.79334 -22.3941756,-22.36889 v -15.67677 c 0,-19.57563 2.8002682,-22.36889 22.3941756,-22.36889 z" style="fill:url(#linearGradient954)"/>
  <path style="opacity:0.4;fill:none;stroke:url(#linearGradient1108);stroke-width:8;stroke-linecap:round;stroke-linejoin:round" d="M 361.9375,-212 C 507.2348,-212 528,-191.28677 528,-46.125 V 70.125 C 528,215.28618 507.2348,236 361.9375,236 H 214.0625 C 68.7652,236 48,215.28618 48,70.125 V -46.125 C 48,-191.28677 68.7652,-212 214.0625,-212 Z" clip-path="url(#clipPath1082-3-361)" transform="matrix(0.1348539,0,0,0.1348539,-4.9712559,261.01666)"/>
  <path d="m 23.895907,292.84218 c -19.5939074,0 -22.3941756,-2.79326 -22.3941756,-22.36889 v -7.83838 H 66.231602 v 7.83838 c 0,19.57563 -2.800268,22.36889 -22.394175,22.36889 z" style="opacity:0.1;fill:#ffffff"/>
  <path d="m 33.866666,232.42763 v 60.41455 h 9.970761 c 19.593907,0 22.394175,-2.79334 22.394175,-22.36889 v -15.67677 c 0,-19.57563 -2.800268,-22.36889 -22.394175,-22.36889 z" style="opacity:0.1;fill:#ffffff"/>
  <path style="filter:url(#filter948);opacity:0.3" d="m 24.689305,248.99332 c -0.09977,0.002 -0.212285,0.0114 -0.341542,0.0171 -0.489829,0.0286 -9.732874,1.76195 -10.321125,1.93263 -0.62192,0.18057 -1.153035,0.56172 -1.282623,0.92303 -0.220972,0.6144 0.419428,2.61114 1.2648,3.95189 3.372491,4.0048 7.116856,5.0224 10.78641,7.18045 0.421143,0.49372 0.58748,0.732 -2.643142,2.1624 -5.0492,2.23577 -6.683486,4.13743 -7.650531,6.95069 -0.2856,0.83126 -0.418286,3.02954 -0.216914,3.58268 0.261314,0.71709 0.418857,0.86143 5.297393,-0.064 4.900703,-0.92965 4.495446,-0.98411 4.904143,-1.37131 0.332914,-0.31543 0.351943,-0.39143 0.497314,-1.88366 0.08377,-0.85508 0.256743,-2.52474 0.383657,-2.96708 0.294229,-1.0272 1.034337,-2.09989 1.840349,-2.6672 3.056805,-2.15137 8.810159,-1.07857 11.923536,2.22268 1.173132,1.24395 1.909794,3.01943 2.497697,4.94863 0.3392,1.11314 0.683714,1.5964 1.218686,1.70286 0.492171,0.0977 0.504228,-0.0571 6.739845,-1.24017 3.468611,-0.65857 4.912131,-0.97892 5.116211,-1.13772 0.438457,-0.34171 0.440172,-1.17714 0.003,-2.558 -0.749571,-2.37257 -2.050023,-3.94977 -4.458805,-5.77457 -1.191652,-0.90274 -2.696377,-1.75623 -5.244103,-2.97617 -2.423263,-1.16034 -3.577377,-1.47429 -3.577377,-1.83463 0,-0.29828 0.951732,-0.43085 2.873937,-1.00588 4.211908,-1.26046 6.241514,-3.02869 6.241514,-6.30269 0,-1.43674 -0.271143,-2.59617 -0.692811,-2.9724 -0.5608,-0.50057 -1.545515,-0.516 -3.9002,-0.0903 -7.547942,1.36485 -7.028165,1.31165 -7.379291,1.87988 -0.185771,0.30057 -0.177657,0.37086 0.163829,1.73674 0.1956,0.78298 0.353085,1.76246 0.351942,1.98966 -0.003,0.48343 -0.630885,1.29063 -0.937982,1.57852 -0.751435,0.704 -2.45476,1.18291 -4.199514,1.18291 -2.110286,0 -3.70028,-0.72543 -5.279617,-2.40726 -1.141217,-1.21531 -1.723817,-2.39131 -2.50128,-4.55525 -0.682731,-1.90052 -0.776366,-2.14823 -1.478023,-2.13606 z"/>
  <path d="m 24.689305,248.99332 c -0.09977,0.002 -0.212285,0.0114 -0.341542,0.0171 -0.489829,0.0286 -9.732874,1.76195 -10.321125,1.93263 -0.62192,0.18057 -1.153035,0.56172 -1.282623,0.92303 -0.220972,0.6144 0.419428,2.61114 1.2648,3.95189 3.372491,4.0048 7.116856,5.0224 10.78641,7.18045 0.421143,0.49372 0.58748,0.732 -2.643142,2.1624 -5.0492,2.23577 -6.683486,4.13743 -7.650531,6.95069 -0.2856,0.83126 -0.418286,3.02954 -0.216914,3.58268 0.261314,0.71709 0.418857,0.86143 5.297393,-0.064 4.900703,-0.92965 4.495446,-0.98411 4.904143,-1.37131 0.332914,-0.31543 0.351943,-0.39143 0.497314,-1.88366 0.08377,-0.85508 0.256743,-2.52474 0.383657,-2.96708 0.294229,-1.0272 1.034337,-2.09989 1.840349,-2.6672 3.056805,-2.15137 8.810159,-1.07857 11.923536,2.22268 1.173132,1.24395 1.909794,3.01943 2.497697,4.94863 0.3392,1.11314 0.683714,1.5964 1.218686,1.70286 0.492171,0.0977 0.504228,-0.0571 6.739845,-1.24017 3.468611,-0.65857 4.912131,-0.97892 5.116211,-1.13772 0.438457,-0.34171 0.440172,-1.17714 0.003,-2.558 -0.749571,-2.37257 -2.050023,-3.94977 -4.458805,-5.77457 -1.191652,-0.90274 -2.696377,-1.75623 -5.244103,-2.97617 -2.423263,-1.16034 -3.577377,-1.47429 -3.577377,-1.83463 0,-0.29828 0.951732,-0.43085 2.873937,-1.00588 4.211908,-1.26046 6.241514,-3.02869 6.241514,-6.30269 0,-1.43674 -0.271143,-2.59617 -0.692811,-2.9724 -0.5608,-0.50057 -1.545515,-0.516 -3.9002,-0.0903 -7.547942,1.36485 -7.028165,1.31165 -7.379291,1.87988 -0.185771,0.30057 -0.177657,0.37086 0.163829,1.73674 0.1956,0.78298 0.353085,1.76246 0.351942,1.98966 -0.003,0.48343 -0.630885,1.29063 -0.937982,1.57852 -0.751435,0.704 -2.45476,1.18291 -4.199514,1.18291 -2.110286,0 -3.70028,-0.72543 -5.279617,-2.40726 -1.141217,-1.21531 -1.723817,-2.39131 -2.50128,-4.55525 -0.682731,-1.90052 -0.776366,-2.14823 -1.478023,-2.13606 z" style="fill:url(#linearGradient4162)"/>
 </g>
</svg>
