<svg xmlns="http://www.w3.org/2000/svg" xmlns:xlink="http://www.w3.org/1999/xlink" width="256" height="256" version="1.1" viewBox="0 0 67.73 67.73">
 <defs>
  <linearGradient id="linearGradient1108-7" x1="296" x2="296" y1="-212" y2="236" gradientUnits="userSpaceOnUse" xlink:href="#linearGradient1013"/>
  <linearGradient id="linearGradient1013">
   <stop style="stop-color:#ffffff" offset="0"/>
   <stop offset=".125" style="stop-color:#ffffff;stop-opacity:0.09803922"/>
   <stop offset=".925" style="stop-color:#000000;stop-opacity:0.09803922"/>
   <stop style="stop-color:#000000;stop-opacity:0.49803922" offset="1"/>
  </linearGradient>
  <clipPath id="clipPath1082-3-69" clipPathUnits="userSpaceOnUse">
   <path style="fill:#8c59d9" d="M 361.9375,-212 C 507.2348,-212 528,-191.28677 528,-46.125 V 70.125 C 528,215.28618 507.2348,236 361.9375,236 H 214.0625 C 68.7652,236 48,215.28618 48,70.125 V -46.125 C 48,-191.28677 68.7652,-212 214.0625,-212 Z"/>
  </clipPath>
  <filter id="filter958" width="1.046" height="1.05" x="-.02" y="-.03" style="color-interpolation-filters:sRGB">
   <feGaussianBlur stdDeviation="2.32"/>
  </filter>
  <filter id="filter4569" width="1.023" height="1.025" x="-.01" y="-.01" style="color-interpolation-filters:sRGB">
   <feGaussianBlur stdDeviation="1.16"/>
  </filter>
  <linearGradient id="linearGradient3700-1">
   <stop style="stop-color:#ad4f8d" offset="0"/>
   <stop style="stop-color:#6b8ccb" offset="1"/>
  </linearGradient>
  <linearGradient id="linearGradient1059" x1="33.867" x2="33.867" y1="292.769" y2="232.355" gradientUnits="userSpaceOnUse" xlink:href="#linearGradient3700-1"/>
  <filter id="filter997" width="1.08" height="1.12" x="-.04" y="-.06" style="color-interpolation-filters:sRGB">
   <feGaussianBlur stdDeviation="2.419"/>
  </filter>
 </defs>
 <g transform="translate(0,-229.26666)">
  <path style="opacity:0.1;filter:url(#filter4569)" d="m 188.96876,43.999995 c 72.64865,0 83.03125,10.356615 83.03125,82.937505 v 58.125 c 0,72.58059 -10.3826,82.9375 -83.03125,82.9375 h -73.9375 C 42.382606,268 32.000006,257.64309 32.000006,185.0625 v -58.125 c 0,-72.58089 10.3826,-82.937505 83.031254,-82.937505 z" transform="matrix(0.26970778,0,0,0.26970778,-7.1289177,220.56049)"/>
  <path d="m 188.96876,45.999995 c 72.64865,0 83.03125,10.356615 83.03125,82.937505 v 58.125 c 0,72.58059 -10.3826,82.9375 -83.03125,82.9375 h -73.9375 C 42.382606,270 32.000006,259.64309 32.000006,187.0625 v -58.125 c 0,-72.58089 10.3826,-82.937505 83.031254,-82.937505 z" transform="matrix(0.26970778,0,0,0.26970778,-7.1289177,220.56049)" style="opacity:0.2;filter:url(#filter958)"/>
  <path d="m 43.837425,232.42763 c 19.593907,0 22.394175,2.79326 22.394175,22.36889 v 15.67677 c 0,19.57555 -2.800268,22.36888 -22.394175,22.36888 h -19.94152 c -19.5939059,0 -22.3941741,-2.79333 -22.3941741,-22.36888 v -15.67677 c 0,-19.57563 2.8002682,-22.36889 22.3941741,-22.36889 z" style="fill:url(#linearGradient1059)"/>
  <path style="opacity:0.6;fill:none;stroke:url(#linearGradient1108-7);stroke-width:8;stroke-linecap:round;stroke-linejoin:round" d="M 361.9375,-212 C 507.2348,-212 528,-191.28677 528,-46.125 V 70.125 C 528,215.28618 507.2348,236 361.9375,236 H 214.0625 C 68.7652,236 48,215.28618 48,70.125 V -46.125 C 48,-191.28677 68.7652,-212 214.0625,-212 Z" clip-path="url(#clipPath1082-3-69)" transform="matrix(0.13485389,0,0,0.13485389,-4.9712555,261.01666)"/>
  <g transform="translate(1.899855,6.4864358)">
   <path d="m 31.96681,225.86837 v 60.41455 h 9.970762 c 19.593907,0 22.394175,-2.79334 22.394175,-22.36889 v -15.67677 c 0,-19.57563 -2.800268,-22.36889 -22.394175,-22.36889 z" style="opacity:0.1;fill:#ffffff"/>
   <path d="m 23.232415,286.28292 c -20.6756703,0 -23.63053882,-2.78912 -23.63053882,-22.33574 v -7.82676 H 67.905429 v 7.82676 c 0,19.54662 -2.954868,22.33574 -23.630538,22.33574 z" style="opacity:0.1;fill:#ffffff"/>
   <g style="stroke:#000000;filter:url(#filter997);opacity:0.3" transform="matrix(0.26458333,0,0,0.26458333,18.31561,234.53633)">
    <path style="fill:#fefefe;stroke:#000000;stroke-width:4.57875824" d="m -20.651662,129.34973 c -1.570134,-2.54053 0.783686,-3.46193 8.843861,-3.46193 13.3920261,0 18.5939528,-3.86328 32.979751,-24.49283 6.910577,-9.909925 13.52354,-16.7182 18.439695,-18.984303 1.185903,-0.546646 1.185903,-0.782 0,-1.328646 C 34.671332,78.804781 28.061868,71.977489 21.024894,61.882693 6.5539678,41.123634 3.0113073,38.469047 -11.365131,37.612191 c -7.353666,-0.438289 -9.380057,-0.916663 -9.380057,-2.214368 0,-1.343655 1.662125,-1.632225 8.828291,-1.532718 14.7144632,0.204327 20.1528648,3.829184 32.795683,21.859387 13.614778,19.416342 19.147479,23.743687 30.41721,23.790543 11.304703,0.04699 17.256063,-4.263473 28.153579,-20.391184 9.068329,-13.420623 16.384918,-20.974782 22.622315,-23.356864 6.67844,-2.55052 21.74616,-2.806311 21.74616,-0.369164 0,1.309066 -2.09936,1.772245 -10.03672,2.214379 -8.79944,0.490154 -10.61039,0.956624 -14.690269,3.783983 -2.559443,1.7737 -7.360664,6.984623 -10.669352,11.579825 -3.308707,4.595202 -8.246612,11.421508 -10.973133,15.169566 -2.726518,3.74806 -7.171052,8.21738 -9.876745,9.931826 -2.705693,1.714447 -4.937586,3.409905 -4.959745,3.767693 -0.0222,0.357786 1.090494,1.165739 2.472573,1.795454 4.912402,2.238241 9.390139,6.99356 17.138755,18.201221 13.994249,20.24139 19.161366,24.04603 32.657246,24.04603 8.1633,0 11.36847,1.35848 8.25112,3.49718 -2.04694,1.40433 -16.60483,0.22629 -21.26479,-1.72076 C 96.060034,125.23791 89.856615,118.9799 82.279488,107.90429 69.193555,88.776405 63.052607,84.001888 51.536436,84.001888 c -11.516185,0 -17.657121,4.774517 -30.743053,23.902402 -7.746318,11.3229 -13.51651,17.08105 -19.7099209,19.66883 -5.3931358,2.2534 -20.6687661,3.50202 -21.7351241,1.77661 z"/>
   </g>
   <g transform="matrix(0.26458333,0,0,0.26458333,18.31561,234.53633)">
    <path d="m -20.651662,129.34973 c -1.570134,-2.54053 0.783686,-3.46193 8.843861,-3.46193 13.3920261,0 18.5939528,-3.86328 32.979751,-24.49283 6.910577,-9.909925 13.52354,-16.7182 18.439695,-18.984303 1.185903,-0.546646 1.185903,-0.782 0,-1.328646 C 34.671332,78.804781 28.061868,71.977489 21.024894,61.882693 6.5539678,41.123634 3.0113073,38.469047 -11.365131,37.612191 c -7.353666,-0.438289 -9.380057,-0.916663 -9.380057,-2.214368 0,-1.343655 1.662125,-1.632225 8.828291,-1.532718 14.7144632,0.204327 20.1528648,3.829184 32.795683,21.859387 13.614778,19.416342 19.147479,23.743687 30.41721,23.790543 11.304703,0.04699 17.256063,-4.263473 28.153579,-20.391184 9.068329,-13.420623 16.384918,-20.974782 22.622315,-23.356864 6.67844,-2.55052 21.74616,-2.806311 21.74616,-0.369164 0,1.309066 -2.09936,1.772245 -10.03672,2.214379 -8.79944,0.490154 -10.61039,0.956624 -14.690269,3.783983 -2.559443,1.7737 -7.360664,6.984623 -10.669352,11.579825 -3.308707,4.595202 -8.246612,11.421508 -10.973133,15.169566 -2.726518,3.74806 -7.171052,8.21738 -9.876745,9.931826 -2.705693,1.714447 -4.937586,3.409905 -4.959745,3.767693 -0.0222,0.357786 1.090494,1.165739 2.472573,1.795454 4.912402,2.238241 9.390139,6.99356 17.138755,18.201221 13.994249,20.24139 19.161366,24.04603 32.657246,24.04603 8.1633,0 11.36847,1.35848 8.25112,3.49718 -2.04694,1.40433 -16.60483,0.22629 -21.26479,-1.72076 C 96.060034,125.23791 89.856615,118.9799 82.279488,107.90429 69.193555,88.776405 63.052607,84.001888 51.536436,84.001888 c -11.516185,0 -17.657121,4.774517 -30.743053,23.902402 -7.746318,11.3229 -13.51651,17.08105 -19.7099209,19.66883 -5.3931358,2.2534 -20.6687661,3.50202 -21.7351241,1.77661 z" style="fill:#fefefe;stroke:#fefefe;stroke-width:4.57875824"/>
   </g>
  </g>
 </g>
</svg>
