<svg xmlns="http://www.w3.org/2000/svg" xmlns:xlink="http://www.w3.org/1999/xlink" width="256" height="256" version="1.1" viewBox="0 0 67.73 67.73">
 <defs>
  <filter style="color-interpolation-filters:sRGB" id="filter1132" width="1.046" height="1.05" x="-.02" y="-.03">
   <feGaussianBlur stdDeviation="2.32"/>
  </filter>
  <filter style="color-interpolation-filters:sRGB" id="filter4569" width="1.023" height="1.025" x="-.01" y="-.01">
   <feGaussianBlur stdDeviation="1.16"/>
  </filter>
  <linearGradient id="linearGradient1108-7" x1="296" x2="296" y1="-212" y2="236" gradientUnits="userSpaceOnUse" xlink:href="#linearGradient1013"/>
  <linearGradient id="linearGradient1013">
   <stop offset="0" style="stop-color:#ffffff"/>
   <stop style="stop-color:#ffffff;stop-opacity:0.09803922" offset=".125"/>
   <stop style="stop-color:#000000;stop-opacity:0.09803922" offset=".925"/>
   <stop offset="1" style="stop-color:#000000;stop-opacity:0.49803922"/>
  </linearGradient>
  <clipPath id="clipPath1082-3-93" clipPathUnits="userSpaceOnUse">
   <path d="M 361.9375,-212 C 507.2348,-212 528,-191.28677 528,-46.125 V 70.125 C 528,215.28618 507.2348,236 361.9375,236 H 214.0625 C 68.7652,236 48,215.28618 48,70.125 V -46.125 C 48,-191.28677 68.7652,-212 214.0625,-212 Z" style="fill:#8c59d9"/>
  </clipPath>
 </defs>
 <g transform="translate(0,-229.26666)">
  <path d="m 43.837425,232.42763 c 19.593907,0 22.394175,2.79326 22.394175,22.36889 v 15.67677 c 0,19.57555 -2.800268,22.36888 -22.394175,22.36888 h -19.94152 c -19.5939058,0 -22.3941739,-2.79333 -22.3941739,-22.36888 v -15.67677 c 0,-19.57563 2.8002681,-22.36889 22.3941739,-22.36889 z" style="opacity:0.115;fill:none;stroke:#000000;stroke-width:1.0788312;stroke-linecap:round;stroke-linejoin:round"/>
  <path d="m 188.96876,43.999995 c 72.64865,0 83.03125,10.356615 83.03125,82.937505 v 58.125 c 0,72.58059 -10.3826,82.9375 -83.03125,82.9375 h -73.9375 C 42.382606,268 32.000006,257.64309 32.000006,185.0625 v -58.125 c 0,-72.58089 10.3826,-82.937505 83.031254,-82.937505 z" transform="matrix(0.26970778,0,0,0.26970778,-7.1289177,220.56049)" style="opacity:0.1;filter:url(#filter4569)"/>
  <path style="opacity:0.2;filter:url(#filter1132)" d="m 188.96876,45.999995 c 72.64865,0 83.03125,10.356615 83.03125,82.937505 v 58.125 c 0,72.58059 -10.3826,82.9375 -83.03125,82.9375 h -73.9375 C 42.382606,270 32.000006,259.64309 32.000006,187.0625 v -58.125 c 0,-72.58089 10.3826,-82.937505 83.031254,-82.937505 z" transform="matrix(0.26970778,0,0,0.26970778,-7.1289177,220.56049)"/>
  <path style="opacity:0.25;fill:#ffffff" d="m 0.9525,262.56205 v 7.96544 c 0,19.89285 2.846163,22.73147 22.761203,22.73147 h 20.268349 c 19.91504,0 22.761202,-2.83862 22.761202,-22.73147 v -7.96544 z"/>
  <path style="opacity:0.25;fill:#ffffff" d="m 34.339496,293.25889 h 9.642769 c 2.489379,0 4.711922,-0.0442 6.695678,-0.16069 0.991878,-0.0582 1.924134,-0.13436 2.800022,-0.23212 0.87589,-0.0978 1.695452,-0.21706 2.462296,-0.36129 0.766845,-0.14424 1.480835,-0.31385 2.145581,-0.51149 0.664745,-0.19765 1.280283,-0.42364 1.849874,-0.68163 0.569591,-0.25801 1.093269,-0.54801 1.574648,-0.87331 0.481383,-0.3253 0.920325,-0.68593 1.32044,-1.08546 0.400114,-0.39954 0.76144,-0.83793 1.087233,-1.31864 0.325794,-0.48071 0.616096,-1.00344 0.874514,-1.57227 0.258418,-0.56883 0.484817,-1.18356 0.682806,-1.84745 0.197987,-0.66388 0.367602,-1.3772 0.512101,-2.14309 0.144501,-0.7659 0.263929,-1.58441 0.361887,-2.45924 0.09796,-0.87483 0.174317,-1.80566 0.232678,-2.79637 0.116723,-1.98143 0.161248,-4.20159 0.161248,-6.68819 v -15.9312 c 0,-2.48661 -0.04453,-4.70675 -0.161248,-6.68819 -0.05836,-0.99071 -0.13472,-1.92154 -0.232678,-2.79637 -0.09796,-0.87484 -0.217386,-1.69334 -0.361887,-2.45924 -0.144499,-0.76589 -0.314114,-1.4792 -0.512101,-2.14309 -0.197989,-0.66389 -0.424388,-1.27862 -0.682806,-1.84745 -0.258418,-0.56882 -0.54872,-1.09156 -0.874514,-1.57227 -0.325793,-0.48071 -0.687119,-0.9191 -1.087233,-1.31863 -0.400115,-0.39954 -0.839057,-0.76017 -1.32044,-1.08547 -0.481379,-0.3253 -1.005057,-0.6153 -1.574648,-0.87331 -0.569591,-0.25799 -1.185129,-0.48398 -1.849874,-0.68163 -0.664746,-0.19764 -1.378736,-0.36725 -2.145581,-0.51149 -0.766844,-0.14423 -1.586406,-0.26353 -2.462296,-0.36129 -0.875888,-0.0978 -1.808144,-0.17387 -2.800022,-0.23211 -1.983756,-0.11647 -4.206299,-0.1607 -6.695678,-0.1607 h -9.642769 z"/>
  <path style="fill:#dbdbdb" d="M 223.24609 233.69336 C 223.81181 233.46271 224.46668 233.28901 225.00977 233.04297 C 227.12784 232.0834 229.07518 231.00478 230.86523 229.79492 C 232.65529 228.58507 234.28753 227.24377 235.77539 225.75781 C 237.26325 224.27186 238.60687 222.64139 239.81836 220.85352 C 241.02985 219.06564 242.10936 217.12147 243.07031 215.00586 C 244.03126 212.89025 244.87314 210.60392 245.60938 208.13477 C 246.34561 205.66561 246.97634 203.01259 247.51367 200.16406 C 248.05101 197.31554 248.49511 194.27128 248.85938 191.01758 C 249.22364 187.76387 249.50759 184.30189 249.72461 180.61719 C 250.15865 173.24778 250.32422 164.99048 250.32422 155.74219 L 250.32422 96.490234 C 250.32422 87.241905 250.15865 78.98466 249.72461 71.615234 C 249.50759 67.930522 249.22364 64.468555 248.85938 61.214844 C 248.49511 57.961132 248.05101 54.916886 247.51367 52.068359 C 246.97634 49.219832 246.34561 46.566815 245.60938 44.097656 C 244.87314 41.628497 244.03126 39.34217 243.07031 37.226562 C 242.10936 35.110955 241.02985 33.166779 239.81836 31.378906 C 238.60687 29.591034 237.26325 27.960563 235.77539 26.474609 C 234.28753 24.988656 232.65529 23.647352 230.86523 22.4375 C 229.07518 21.227648 227.12784 20.149019 225.00977 19.189453 C 222.8917 18.229887 220.60277 17.389394 218.13086 16.654297 C 215.65895 15.9192 213.00392 15.288398 210.15234 14.751953 C 207.30077 14.215508 204.25316 13.771812 200.99609 13.408203 C 197.73903 13.044594 194.27236 12.761511 190.58398 12.544922 C 183.20722 12.111743 174.94251 11.947266 165.68555 11.947266 L 130.60352 11.947266 C 86.761235 33.686449 52.652344 80.459022 52.652344 128.20898 C 52.652344 111.35407 76.697289 167.80224 89.822266 158.85156 C 104.42527 148.89326 109.1199 74.480469 127.87305 74.480469 C 130.02471 74.477861 132.17527 74.581379 134.31641 74.794922 C 134.34475 74.796547 134.37206 74.814453 134.39844 74.814453 C 196.62655 78.221357 235.33008 118.85682 235.33008 181.93555 C 235.33008 200.52765 230.89655 218.04447 223.24609 233.69336 z" transform="matrix(0.26458333,0,0,0.26458333,0,229.26666)"/>
  <path style="fill:#787878" d="m 5.0457644,288.97671 c 0.00659,0.007 0.011473,0.0151 0.018087,0.0217 0.3936632,0.39316 0.8255275,0.74805 1.2991457,1.06816 0.4736182,0.3201 0.9888535,0.60549 1.5492592,0.85938 0.560406,0.25388 1.1660177,0.47626 1.8200441,0.67075 0.6540256,0.1945 1.3565026,0.3614 2.1109816,0.50333 0.75448,0.14194 1.560826,0.25933 2.422591,0.35554 0.861766,0.0962 1.778987,0.1711 2.754871,0.22841 1.951768,0.11461 4.138473,0.15813 6.587711,0.15813 h 19.941936 c 2.449237,0 4.635942,-0.0435 6.58771,-0.15813 0.975884,-0.0573 1.893107,-0.13221 2.75487,-0.22841 0.861767,-0.0962 1.668114,-0.2136 2.422592,-0.35554 0.75448,-0.14193 1.456957,-0.30883 2.110983,-0.50333 0.654026,-0.19449 1.259639,-0.41687 1.820045,-0.67075 0.560406,-0.25389 1.07564,-0.53928 1.549257,-0.85938 0.47362,-0.32011 0.905483,-0.675 1.299146,-1.06816 0.325435,-0.32502 0.609127,-0.69359 0.884185,-1.0728 1.204291,-3.36887 1.841098,-6.92449 1.84123,-10.52184 0,-16.69516 -13.092329,-30.29255 -29.564602,-31.18569 l 5.16e-4,5.2e-4 c 8.289562,0.87358 12.505179,8.13751 12.505179,16.97002 6.99e-4,0.56931 -0.02678,1.13829 -0.0832,1.7048 -4.02e-4,0.005 -0.0054,0.0163 -0.0062,0.0217 -0.901089,16.46455 -11.652901,26.70431 -28.342455,26.70431 -4.97043,0 -9.6534861,-1.19077 -13.8265457,-3.25406 0.071267,0.13002 0.1434102,0.25964 0.2165241,0.38912 -0.2712003,0.0718 -0.4451905,0.14833 -0.6738606,0.22221 z"/>
  <path style="fill:#dbdbdb" d="M 21.849609 25.138672 C 21.325077 25.59924 20.716993 25.982857 20.224609 26.474609 C 18.736749 27.960563 17.393133 29.591034 16.181641 31.378906 C 14.970148 33.166779 13.890637 35.110955 12.929688 37.226562 C 11.968738 39.34217 11.126855 41.628497 10.390625 44.097656 C 9.6543949 46.566815 9.0236635 49.219832 8.4863281 52.068359 C 7.9489928 54.916886 7.5048899 57.961132 7.140625 61.214844 C 6.7763601 64.468555 6.4924095 67.930522 6.2753906 71.615234 C 5.8413528 78.98466 5.6757812 87.241905 5.6757812 96.490234 L 5.6757812 155.74219 C 5.6757813 164.99048 5.8413528 173.24778 6.2753906 180.61719 C 6.4924095 184.30189 6.7763601 187.76387 7.140625 191.01758 C 7.5048899 194.27128 7.9489928 197.31554 8.4863281 200.16406 C 9.0236635 203.01259 9.6543949 205.66561 10.390625 208.13477 C 11.126855 210.60392 11.968738 212.89025 12.929688 215.00586 C 13.890637 217.12147 14.970148 219.06564 16.181641 220.85352 C 17.393133 222.64139 18.736749 224.27186 20.224609 225.75781 C 21.71247 227.24377 23.344713 228.58507 25.134766 229.79492 C 26.924819 231.00478 28.872165 232.0834 30.990234 233.04297 C 33.108304 234.00254 35.39723 234.84302 37.869141 235.57812 C 40.341051 236.31323 42.99608 236.94402 45.847656 237.48047 C 48.699232 238.01692 51.74684 238.46061 55.003906 238.82422 C 58.260972 239.18783 61.727635 239.47091 65.416016 239.6875 C 72.792776 240.12069 81.05749 240.28516 90.314453 240.28516 L 111.41602 240.28516 C 156.39601 225.29804 189.33418 184.05779 192.01172 134.67383 C 188.70998 166.00452 161.25575 181.9375 127.87305 181.9375 C 125.72141 181.94011 123.57085 181.83659 121.42969 181.62305 C 121.40134 181.62157 121.37208 181.60352 121.3457 181.60352 C 59.117558 178.19759 20.416016 137.56115 20.416016 74.482422 C 20.416016 57.131609 21.64719 29.602659 21.849609 25.138672 z" transform="matrix(0.26458333,0,0,0.26458333,0,229.26666)"/>
  <path style="fill:#ff5757" d="M 35.824219 17.408203 C 34.16299 17.969764 32.47863 18.515153 30.990234 19.189453 C 28.872165 20.149019 26.924819 21.227648 25.134766 22.4375 C 25.065612 22.484239 25.013997 22.546617 24.945312 22.59375 C 29.484905 23.002715 37.257054 22.865034 35.824219 17.408203 z" transform="matrix(0.26458333,0,0,0.26458333,0,229.26666)"/>
  <path style="fill:#787878" d="M 160.64453 11.947266 L 90.314453 11.947266 C 81.05749 11.947266 72.792776 12.111743 65.416016 12.544922 C 61.727635 12.761511 58.260972 13.044594 55.003906 13.408203 C 51.74684 13.771812 48.699232 14.215508 45.847656 14.751953 C 42.99608 15.288398 40.341051 15.9192 37.869141 16.654297 C 35.39723 17.389394 33.108304 18.229887 30.990234 19.189453 C 28.872165 20.149019 26.924819 21.227648 25.134766 22.4375 C 23.344713 23.647352 21.71247 24.988656 20.224609 26.474609 C 20.112564 26.586512 20.030333 26.730203 19.919922 26.84375 C 13.297188 41.853646 9.6705174 58.028679 9.6699219 74.482422 C 9.6699219 139.76416 62.591305 192.68555 127.87305 192.68555 L 127.87305 192.68359 C 115.32883 192.68359 166.03457 183.32053 156.47656 177.12305 C 138.90306 165.728 65.546875 151.27314 65.546875 128.20898 C 65.544237 126.05745 63.500156 123.9068 63.712891 121.76562 C 63.714433 121.74673 63.733305 121.704 63.736328 121.68359 C 66.755727 66.52231 107.49891 21.483501 160.64453 11.947266 z" transform="matrix(0.26458333,0,0,0.26458333,0,229.26666)"/>
  <path style="fill:#2f2f2f" d="M 50.891882,263.18858 A 17.058846,17.058846 0 0 1 33.833035,280.24743 17.058846,17.058846 0 0 1 16.774189,263.18858 17.058846,17.058846 0 0 1 33.833035,246.12973 17.058846,17.058846 0 0 1 50.891882,263.18858 Z"/>
  <path d="M 361.9375,-212 C 507.2348,-212 528,-191.28677 528,-46.125 V 70.125 C 528,215.28618 507.2348,236 361.9375,236 H 214.0625 C 68.7652,236 48,215.28618 48,70.125 V -46.125 C 48,-191.28677 68.7652,-212 214.0625,-212 Z" clip-path="url(#clipPath1082-3-93)" transform="matrix(0.13485389,0,0,0.13485389,-4.9712548,261.01665)" style="opacity:0.6;fill:none;stroke:url(#linearGradient1108-7);stroke-width:8;stroke-linecap:round;stroke-linejoin:round"/>
 </g>
</svg>
