<svg xmlns="http://www.w3.org/2000/svg" xmlns:xlink="http://www.w3.org/1999/xlink" width="256" height="256" version="1.1" viewBox="0 0 67.73 67.73">
 <defs>
  <linearGradient id="linearGradient1108-7" x1="296" x2="296" y1="-212" y2="236" gradientUnits="userSpaceOnUse" xlink:href="#linearGradient1013"/>
  <linearGradient id="linearGradient1013">
   <stop offset="0" style="stop-color:#ffffff"/>
   <stop style="stop-color:#ffffff;stop-opacity:0.09803922" offset=".125"/>
   <stop style="stop-color:#000000;stop-opacity:0.09803922" offset=".925"/>
   <stop offset="1" style="stop-color:#000000;stop-opacity:0.49803922"/>
  </linearGradient>
  <clipPath id="clipPath1082-3-69" clipPathUnits="userSpaceOnUse">
   <path d="M 361.9375,-212 C 507.2348,-212 528,-191.28677 528,-46.125 V 70.125 C 528,215.28618 507.2348,236 361.9375,236 H 214.0625 C 68.7652,236 48,215.28618 48,70.125 V -46.125 C 48,-191.28677 68.7652,-212 214.0625,-212 Z" style="fill:#8c59d9"/>
  </clipPath>
  <linearGradient id="linearGradient985" x1="24" x2="376" y1="28" y2="380" gradientTransform="matrix(0.26970778,0,0,0.26970778,-7.1289177,220.56049)" gradientUnits="userSpaceOnUse" xlink:href="#linearGradient4221"/>
  <linearGradient id="linearGradient4221">
   <stop style="stop-color:#f37e40" offset="0"/>
   <stop style="stop-color:#fac82e" offset="1"/>
  </linearGradient>
  <filter style="color-interpolation-filters:sRGB" id="filter958" width="1.046" height="1.05" x="-.02" y="-.03">
   <feGaussianBlur stdDeviation="2.32"/>
  </filter>
  <filter style="color-interpolation-filters:sRGB" id="filter4569" width="1.023" height="1.025" x="-.01" y="-.01">
   <feGaussianBlur stdDeviation="1.16"/>
  </filter>
  <filter style="color-interpolation-filters:sRGB" id="filter996" width="1.092" height="1.1" x="-.05" y="-.05">
   <feGaussianBlur stdDeviation=".925"/>
  </filter>
 </defs>
 <g transform="translate(0,-229.26666)">
  <path d="m 188.96876,43.999995 c 72.64865,0 83.03125,10.356615 83.03125,82.937505 v 58.125 c 0,72.58059 -10.3826,82.9375 -83.03125,82.9375 h -73.9375 C 42.382606,268 32.000006,257.64309 32.000006,185.0625 v -58.125 c 0,-72.58089 10.3826,-82.937505 83.031254,-82.937505 z" transform="matrix(0.26970778,0,0,0.26970778,-7.1289177,220.56049)" style="opacity:0.1;filter:url(#filter4569)"/>
  <path style="opacity:0.2;filter:url(#filter958)" d="m 188.96876,45.999995 c 72.64865,0 83.03125,10.356615 83.03125,82.937505 v 58.125 c 0,72.58059 -10.3826,82.9375 -83.03125,82.9375 h -73.9375 C 42.382606,270 32.000006,259.64309 32.000006,187.0625 v -58.125 c 0,-72.58089 10.3826,-82.937505 83.031254,-82.937505 z" transform="matrix(0.26970778,0,0,0.26970778,-7.1289177,220.56049)"/>
  <path style="fill:url(#linearGradient985)" d="m 43.837426,232.42763 c 19.593907,0 22.394175,2.79326 22.394175,22.36889 v 15.67677 c 0,19.57555 -2.800268,22.36888 -22.394175,22.36888 h -19.94152 c -19.5939063,0 -22.3941745,-2.79333 -22.3941745,-22.36888 v -15.67677 c 0,-19.57563 2.8002682,-22.36889 22.3941745,-22.36889 z"/>
  <path d="M 361.9375,-212 C 507.2348,-212 528,-191.28677 528,-46.125 V 70.125 C 528,215.28618 507.2348,236 361.9375,236 H 214.0625 C 68.7652,236 48,215.28618 48,70.125 V -46.125 C 48,-191.28677 68.7652,-212 214.0625,-212 Z" clip-path="url(#clipPath1082-3-69)" transform="matrix(0.13485389,0,0,0.13485389,-4.9712549,261.01666)" style="opacity:0.6;fill:none;stroke:url(#linearGradient1108-7);stroke-width:8;stroke-linecap:round;stroke-linejoin:round"/>
  <ellipse style="fill:#ff5a2e" cx="34.078" cy="264.871" rx="14.212" ry="14.938"/>
  <path d="m 30.262323,283.29772 c -0.9608,-0.18624 -3.057088,-0.97985 -4.65842,-1.76356 -2.519396,-1.23302 -3.782971,-2.29267 -9.38222,-7.86811 -4.237166,-4.21913 -6.5204765,-6.77817 -6.6148905,-7.41368 -0.278891,-1.87723 0.4764115,-3.28887 3.2580245,-6.08918 l 2.794274,-2.81305 -2.403426,-2.50292 c -2.293682,-2.38863 -2.618378,-3.0736 -2.414439,-5.09342 0.109557,-1.08502 1.825677,-2.79686 3.035762,-3.02818 1.566497,-0.29946 2.79383,0.35265 5.321588,2.82747 l 2.32921,2.28043 1.282943,-1.08591 1.282943,-1.0859 -0.805517,-3.15491 c -0.925448,-3.62461 -0.775335,-4.7159 0.835099,-6.07098 2.720155,-2.28886 5.595758,-0.66821 6.816272,3.84156 l 0.724177,2.67583 h 1.88274 1.882738 l 0.937032,-2.67583 c 1.601605,-4.5736 4.365216,-6.07778 7.036642,-3.82992 1.663303,1.39958 1.795364,2.61156 0.651129,5.97574 -0.538634,1.58366 -0.936039,2.90232 -0.88312,2.93037 0.05292,0.028 0.685587,0.52955 1.405932,1.11445 l 1.309719,1.06345 2.3782,-2.28012 c 2.526856,-2.42263 3.866265,-3.02405 5.419587,-2.43348 1.705354,0.64838 2.587531,1.95216 2.587531,3.82418 0,1.56436 -0.199265,1.91852 -2.305521,4.09773 l -2.305526,2.38537 3.081929,3.15747 c 2.992836,3.06619 3.081924,3.21189 3.081924,5.04036 v 1.88291 l -6.502376,6.44464 c -5.606601,5.55681 -6.903472,6.64099 -9.413891,7.87004 -4.208423,2.06034 -7.552697,2.57067 -11.646049,1.77715 z m 10.621754,-7.10289 c 5.685572,-2.7817 7.928606,-11.02143 4.710161,-17.30269 -4.076627,-7.95613 -15.204683,-9.57525 -21.34904,-3.10626 l -1.552807,1.63484 1.869037,-1.40364 c 4.786937,-3.595 11.07369,-3.24086 15.301366,0.86196 5.074789,4.92492 3.835841,13.12845 -2.41874,16.01537 -6.522085,3.01041 -13.706595,-3.68044 -10.675462,-9.94193 1.646839,-3.40191 5.966889,-4.95452 8.736453,-3.13983 0.585255,0.38348 0.933918,0.4866 0.77481,0.22914 -0.879084,-1.42238 -5.511278,-2.03594 -7.52174,-0.99628 -1.565757,0.80968 -3.762669,3.38661 -4.315648,5.06214 -0.263303,0.79783 -0.405237,2.4667 -0.315407,3.7086 0.537697,7.43357 9.514514,11.92201 16.757017,8.37858 z" style="fill:#2b0000;filter:url(#filter996);opacity:0.3"/>
  <path style="fill:#ffffff" d="m 30.262323,283.29772 c -0.9608,-0.18624 -3.057088,-0.97985 -4.65842,-1.76356 -2.519396,-1.23302 -3.935785,-1.91063 -9.535034,-7.48607 -4.237166,-4.21913 -6.3676625,-7.16021 -6.4620765,-7.79572 -0.278891,-1.87723 0.4764115,-3.28887 3.2580245,-6.08918 l 2.794274,-2.81305 -2.403426,-2.50292 c -2.293682,-2.38863 -2.618378,-3.0736 -2.414439,-5.09342 0.109557,-1.08502 1.825677,-2.79686 3.035762,-3.02818 1.566497,-0.29946 2.79383,0.35265 5.321588,2.82747 l 2.32921,2.28043 1.282943,-1.08591 1.282943,-1.0859 -0.805517,-3.15491 c -0.925448,-3.62461 -0.775335,-4.7159 0.835099,-6.07098 2.720155,-2.28886 5.595758,-0.66821 6.816272,3.84156 l 0.724177,2.67583 h 1.88274 1.882738 l 0.937032,-2.67583 c 1.601605,-4.5736 4.365216,-6.07778 7.036642,-3.82992 1.663303,1.39958 1.795364,2.61156 0.651129,5.97574 -0.538634,1.58366 -0.936039,2.90232 -0.88312,2.93037 0.05292,0.028 0.685587,0.52955 1.405932,1.11445 l 1.309719,1.06345 2.3782,-2.28012 c 2.526856,-2.42263 3.866265,-3.02405 5.419587,-2.43348 1.705354,0.64838 2.587531,1.95216 2.587531,3.82418 0,1.56436 -0.199265,1.91852 -2.305521,4.09773 l -2.305526,2.38537 3.081929,3.15747 c 2.992836,3.06619 3.364712,3.4663 3.215637,5.28868 0,0 0.167241,0.099 -0.592156,1.7301 -0.759398,1.63106 -5.661897,6.50194 -5.661897,6.50194 -5.606601,5.55681 -6.521436,6.25896 -9.031855,7.48801 -4.208423,2.06034 -8.316769,2.79989 -12.410121,2.00637 z m 10.621754,-7.10289 c 5.685572,-2.7817 7.928606,-11.02143 4.710161,-17.30269 -4.076627,-7.95613 -15.204683,-9.57525 -21.34904,-3.10626 l -1.552807,1.63484 1.869037,-1.40364 c 4.786937,-3.595 11.07369,-3.24086 15.301366,0.86196 5.074789,4.92492 3.835841,13.12845 -2.41874,16.01537 -6.522085,3.01041 -13.706595,-3.68044 -10.675462,-9.94193 1.646839,-3.40191 5.966889,-4.95452 8.736453,-3.13983 0.585255,0.38348 0.933918,0.4866 0.77481,0.22914 -0.879084,-1.42238 -5.511278,-2.03594 -7.52174,-0.99628 -1.565757,0.80968 -3.762669,3.38661 -4.315648,5.06214 -0.263303,0.79783 -0.405237,2.4667 -0.315407,3.7086 0.537697,7.43357 9.514514,11.92201 16.757017,8.37858 z"/>
 </g>
</svg>
