<svg width="256" height="256" version="1.1" viewBox="0 0 67.73 67.73" xmlns="http://www.w3.org/2000/svg" xmlns:xlink="http://www.w3.org/1999/xlink">
 <defs>
  <linearGradient id="linearGradient1108" x1="296" x2="296" y1="-212" y2="236" gradientUnits="userSpaceOnUse">
   <stop style="stop-color:#ffffff" offset="0"/>
   <stop style="stop-color:#ffffff;stop-opacity:.09803922" offset=".125"/>
   <stop style="stop-color:#000000;stop-opacity:.09803922" offset=".925"/>
   <stop style="stop-color:#000000;stop-opacity:.49803922" offset="1"/>
  </linearGradient>
  <clipPath id="clipPath1082-3-361">
   <path d="M 361.9375,-212 C 507.2348,-212 528,-191.28677 528,-46.125 V 70.125 C 528,215.28618 507.2348,236 361.9375,236 H 214.0625 C 68.7652,236 48,215.28618 48,70.125 V -46.125 C 48,-191.28677 68.7652,-212 214.0625,-212 Z" style="fill:#8c59d9"/>
  </clipPath>
  <filter id="filter4569" x="-.01" y="-.01" width="1.023" height="1.025" style="color-interpolation-filters:sRGB">
   <feGaussianBlur stdDeviation="1.16"/>
  </filter>
  <filter id="filter939" x="-.02" y="-.03" width="1.046" height="1.05" style="color-interpolation-filters:sRGB">
   <feGaussianBlur stdDeviation="2.32"/>
  </filter>
  <linearGradient id="linearGradient954" x1="7.5" x2="64.112" y1="230.789" y2="294.501" gradientTransform="matrix(1.0193681 0 0 1.0193681 -.0894074 -5.7113166)" gradientUnits="userSpaceOnUse">
   <stop style="stop-color:#1c1c1c" offset="0"/>
   <stop style="stop-color:#555555" offset="1"/>
  </linearGradient>
 </defs>
 <g transform="translate(0,-229.26666)">
  <path transform="matrix(.26970779 0 0 .26970779 -1.9098094e-8 231.46531)" d="m162.53675 5.5680001c72.64865 0 83.03125 10.356615 83.03125 82.937505v58.125005c0 72.58059-10.3826 82.9375-83.03125 82.9375h-73.937496c-72.648654 0-83.031254-10.35691-83.031254-82.9375v-58.125005c0-72.58089 10.3826-82.937505 83.031254-82.937505z" style="filter:url(#filter939);opacity:.2"/>
  <path d="m43.837429 232.42763c19.593907 0 22.394176 2.79326 22.394176 22.36889v15.67677c0 19.57555-2.800269 22.36889-22.394176 22.36889h-19.941519c-19.593909 0-22.394177-2.79334-22.394177-22.36889v-15.67677c0-19.57563 2.8002682-22.36889 22.394177-22.36889z" style="fill:none;opacity:.1;stroke-linecap:round;stroke-linejoin:round;stroke-width:1.0788311;stroke:#000000"/>
  <path transform="matrix(.26970779 0 0 .26970779 -1.9098094e-8 231.46531)" d="m162.53675 3.5680001c72.64865 0 83.03125 10.356615 83.03125 82.937505v58.125005c0 72.58059-10.3826 82.9375-83.03125 82.9375h-73.937496c-72.648654 0-83.031254-10.35691-83.031254-82.9375v-58.125005c0-72.58089 10.3826-82.937505 83.031254-82.937505z" style="filter:url(#filter4569);opacity:.1"/>
  <path d="m43.74802 232.42763c19.593907 0 22.394175 2.79326 22.394175 22.36889v15.67677c0 19.57555-2.800268 22.36889-22.394175 22.36889h-19.94152c-19.593908 0-22.394176-2.79334-22.394176-22.36889v-15.67677c0-19.57563 2.8002682-22.36889 22.394176-22.36889z" style="fill:url(#linearGradient954)"/>
  <path transform="matrix(.1348539 0 0 .1348539 -4.9712559 261.01666)" d="M 361.9375,-212 C 507.2348,-212 528,-191.28677 528,-46.125 V 70.125 C 528,215.28618 507.2348,236 361.9375,236 H 214.0625 C 68.7652,236 48,215.28618 48,70.125 V -46.125 C 48,-191.28677 68.7652,-212 214.0625,-212 Z" clip-path="url(#clipPath1082-3-361)" style="fill:none;opacity:.4;stroke-linecap:round;stroke-linejoin:round;stroke-width:8;stroke:url(#linearGradient1108)"/>
  <path transform="matrix(.26458333 0 0 .26458333 0 229.26666)" d="m198.54492 273.81836c-2.39157 7.98109-5.08342 17.74621-8.54492 32.18164l10-30-1.45508-2.18164z" style="fill:#fffef9"/>
  <path transform="matrix(.26458333 0 0 .26458333 0 229.26666)" d="m5.3378906 134.56055v21.18164c0 9.24829 0.1655715 17.50559 0.5996094 24.875 0.2170189 3.6847 0.5009694 7.14668 0.8652344 10.40039 0.3642649 3.2537 0.8083677 6.29796 1.3457031 9.14648 0.5373354 2.84853 1.1680667 5.50155 1.9042965 7.97071 0.736231 2.46915 1.578114 4.75548 2.539063 6.87109s2.04046 4.05978 3.251953 5.84766c1.211493 1.78787 2.555108 3.41833 4.042969 4.90429s3.120103 2.82725 4.910156 4.03711 3.737399 2.28848 5.855469 3.24805 4.406995 1.80005 6.878906 2.53515c2.471911 0.73511 5.126939 1.3659 7.978516 1.90235 2.851576 0.53645 5.899183 0.98013 9.15625 1.34375 3.257066 0.36361 6.723728 0.64669 10.412109 0.86328 7.376761 0.43319 15.641473 0.59766 24.898437 0.59766h75.371098c9.25696 0 17.52167-0.16447 24.89843-0.59766 3.68838-0.21659 7.15505-0.49967 10.41211-0.86328 3.25707-0.36362 6.30468-0.8073 9.15625-1.34375 2.85158-0.53645 5.50661-1.16724 7.97852-1.90235 2.47191-0.7351 4.76084-1.57558 6.87891-2.53515 2.11806-0.95957 4.06541-2.03819 5.85546-3.24805 1.79006-1.20986 3.4223-2.55115 4.91016-4.03711s2.83148-3.11642 4.04297-4.90429c1.21149-1.78788 2.291-3.73205 3.25195-5.84766s1.80283-4.40194 2.53906-6.87109c0.73623-2.46916 1.36697-5.12218 1.9043-7.97071 0.53734-2.84852 0.98144-5.89278 1.3457-9.14648 0.36427-3.25371 0.64822-6.71569 0.86524-10.40039 0.43404-7.36941 0.59961-15.62671 0.59961-24.875v-21.18164h-14.82227-43.77344l-4.7539-23.80078-2.9375-0.0293-8.1211 36.54687-8.92382-71.404293-2.93164-0.244141-12.56446 41.871094-4.50195-76.529297-2.99023 0.001953-9.10157 154.64257-12.91797-94.75976-2.96093-0.06641-8.95313 49.23633-8.15039-24.44141-2.908202 0.27344-8.644531 64.86524-18.388672-114.90039-2.958984-0.007813-9.789063 58.746097h-53.554687z" style="fill:#fffef9;opacity:.1"/>
  <path transform="matrix(.26458333 0 0 .26458333 0 229.26666)" d="m5.3378906 134.56055v2.99609h54.824218a1.50015 1.50015 0 0 0 1.476563-1.25391l8.490234-50.943355 18.548828 115.9336a1.50015 1.50015 0 0 0 2.96875-0.03711l9.146486-68.57227 7.94922 23.85157a1.50015 1.50015 0 0 0 2.89453-0.20704l8.31836-45.73046 13.72265 100.66015a1.50015 1.50015 0 0 0 2.98243-0.11133l8.5039-144.57421 3.5 59.572264a1.50015 1.50015 0 0 0 2.9375 0.3457l12.95508-43.183589 9.11719 72.941409a1.50015 1.50015 0 0 0 2.95312 0.13281l8.45899-38.05469 3.60351 18.02735a1.50015 1.50015 0 0 0 1.47461 1.20312h45 14.82227v-2.99609h-14.82227-43.77344l-4.7539-23.80078a1.50015 1.50015 0 0 0-2.9375-0.0293l-8.1211 36.54687-8.92382-71.404293a1.50015 1.50015 0 0 0-2.93164-0.244141l-12.56446 41.871094-4.50195-76.529297a1.50015 1.50015 0 0 0-1.47656-1.410156v0.001953a1.50015 1.50015 0 0 0-1.51367 1.410156l-9.10157 154.64257-12.91797-94.75976a1.50015 1.50015 0 0 0-2.96093-0.06641l-8.95313 49.23633-8.15039-24.44141a1.50015 1.50015 0 0 0-2.908202 0.27344l-8.644531 64.86524-18.388672-114.90039a1.50015 1.50015 0 0 0-2.958984-0.007813l-9.789063 58.746097h-53.554687z" style="fill:#fdd800"/>
 </g>
</svg>
