<svg width="256" height="256" version="1.1" viewBox="0 0 67.73 67.73" xmlns="http://www.w3.org/2000/svg" xmlns:xlink="http://www.w3.org/1999/xlink">
 <defs>
  <linearGradient id="linearGradient1108" x1="296" x2="296" y1="-212" y2="236" gradientTransform="translate(0,2e-6)" gradientUnits="userSpaceOnUse">
   <stop style="stop-color:#ffffff" offset="0"/>
   <stop style="stop-color:#ffffff;stop-opacity:.09803922" offset=".125"/>
   <stop style="stop-color:#000000;stop-opacity:.09803922" offset=".925"/>
   <stop style="stop-color:#000000;stop-opacity:.49803922" offset="1"/>
  </linearGradient>
  <clipPath id="clipPath1082-3-367">
   <path d="M 361.9375,-212 C 507.2348,-212 528,-191.28677 528,-46.125 V 70.125 C 528,215.28618 507.2348,236 361.9375,236 H 214.0625 C 68.7652,236 48,215.28618 48,70.125 V -46.125 C 48,-191.28677 68.7652,-212 214.0625,-212 Z" style="fill:#8c59d9"/>
  </clipPath>
  <clipPath id="clipPath1032-5">
   <path d="M 188.96875,44 C 261.6174,44 272,54.356615 272,126.9375 v 58.125 C 272,257.64309 261.6174,268 188.96875,268 h -73.9375 C 42.3826,268 32,257.64309 32,185.0625 v -58.125 C 32,54.356615 42.3826,44 115.03125,44 Z" style="fill:#76c22b"/>
  </clipPath>
  <linearGradient id="linearGradient920" x1="24" x2="280" y1="44" y2="268" gradientTransform="matrix(.26458333 0 0 .26458333 -6.993468 221.97263)" gradientUnits="userSpaceOnUse">
   <stop style="stop-color:#cdcdcd" offset="0"/>
   <stop style="stop-color:#fbfbfb" offset="1"/>
  </linearGradient>
  <filter id="filter929" x="-.02" y="-.03" width="1.046" height="1.05" style="color-interpolation-filters:sRGB">
   <feGaussianBlur stdDeviation="2.32"/>
  </filter>
  <filter id="filter4569" x="-.01" y="-.01" width="1.023" height="1.025" style="color-interpolation-filters:sRGB">
   <feGaussianBlur stdDeviation="1.16"/>
  </filter>
  <linearGradient id="linearGradient1007" x1="624" x2="688" y1="369.239" y2="369.239" gradientUnits="userSpaceOnUse">
   <stop style="stop-color:#5884f4" offset="0"/>
   <stop style="stop-color:#5884f4" offset=".278"/>
   <stop style="stop-color:#2f5fdd" offset=".278"/>
   <stop style="stop-color:#2f5fdd" offset=".707"/>
   <stop style="stop-color:#234db8" offset=".709"/>
   <stop style="stop-color:#234db8" offset="1"/>
  </linearGradient>
 </defs>
 <g transform="translate(0,-229.26666)">
  <path transform="matrix(.26458333 0 0 .26458333 -1.8735229e-8 232.67026)" d="m162.53675 3.5680001c72.64865 0 83.03125 10.356615 83.03125 82.937505v58.125005c0 72.58059-10.3826 82.9375-83.03125 82.9375h-73.937496c-72.648654 0-83.031254-10.35691-83.031254-82.9375v-58.125005c0-72.58089 10.3826-82.937505 83.031254-82.937505z" style="filter:url(#filter4569);opacity:.1"/>
  <path transform="matrix(.26458333 0 0 .26458333 -1.8735229e-8 232.67026)" d="m162.53675 5.5680001c72.64865 0 83.03125 10.356615 83.03125 82.937505v58.125005c0 72.58059-10.3826 82.9375-83.03125 82.9375h-73.937496c-72.648654 0-83.031254-10.35691-83.031254-82.9375v-58.125005c0-72.58089 10.3826-82.937505 83.031254-82.937505z" style="filter:url(#filter929);opacity:.2"/>
  <path d="m43.004513 233.61429c19.221622 0 21.968685 2.74019 21.968685 21.94388v15.37891c0 19.20362-2.747063 21.94388-21.968685 21.94388h-19.56263c-19.221621 0-21.968684-2.74026-21.968684-21.94388v-15.37891c0-19.20369 2.747063-21.94388 21.968684-21.94388z" style="fill:url(#linearGradient920)"/>
  <g transform="matrix(.26458333 0 0 .26458333 -6.993468 221.97263)" clip-path="url(#clipPath1032-5)" style="enable-background:new">
   <path d="m24 147v1h256.20001v-1z" style="fill-opacity:.99607843;fill:#5c81df;opacity:.1"/>
   <path d="m24 171v1h256.20001v-1z" style="fill-opacity:.99607843;fill:#5c81df;opacity:.1"/>
   <path d="m24 219v1h256.20001v-1z" style="fill-opacity:.99607843;fill:#5c81df;opacity:.1"/>
   <path d="m67 92h1v192h-1z" style="fill-opacity:.99607843;fill:#ef5145;opacity:.3"/>
   <path d="m24 123v1h256.20001v-1z" style="fill-opacity:.99607843;fill:#5c81df;opacity:.1"/>
   <path d="m24 243v1h256.20001v-1z" style="fill-opacity:.99607843;fill:#5c81df;opacity:.1"/>
   <path d="m24 195v1h256.20001v-1z" style="fill-opacity:.99607843;fill:#5c81df;opacity:.1"/>
  </g>
  <path d="m3.589865 246.84346c-0.29225 0-0.529166 0.23692-0.529166 0.52917s0.236916 0.52916 0.529166 0.52916c0.292251 0 0.529167-0.23691 0.529167-0.52916s-0.236916-0.52917-0.529167-0.52917zm2.116667 0c-0.2922509 0-0.5291667 0.23692-0.5291667 0.52917s0.2369158 0.52916 0.5291667 0.52916c0.2922508 0 0.5291666-0.23691 0.5291666-0.52916s-0.2369158-0.52917-0.5291666-0.52917zm2.1166666 0c-0.2922508 0-0.5291666 0.23692-0.5291666 0.52917s0.2369158 0.52916 0.5291666 0.52916 0.5291667-0.23691 0.5291667-0.52916-0.2369159-0.52917-0.5291667-0.52917zm2.1166667 0c-0.2922508 0-0.5291667 0.23692-0.5291667 0.52917s0.2369159 0.52916 0.5291667 0.52916c0.2922507 0 0.5291667-0.23691 0.5291667-0.52916s-0.236916-0.52917-0.5291667-0.52917zm2.1166667 0c-0.292251 0-0.529167 0.23692-0.529167 0.52917s0.236916 0.52916 0.529167 0.52916 0.529166-0.23691 0.529166-0.52916-0.236915-0.52917-0.529166-0.52917zm2.116666 0c-0.29225 0-0.529166 0.23692-0.529166 0.52917s0.236916 0.52916 0.529166 0.52916c0.292251 0 0.529167-0.23691 0.529167-0.52916s-0.236916-0.52917-0.529167-0.52917zm2.116667 0c-0.292251 0-0.529167 0.23692-0.529167 0.52917s0.236916 0.52916 0.529167 0.52916 0.529167-0.23691 0.529167-0.52916-0.236916-0.52917-0.529167-0.52917zm2.116667 0c-0.292251 0-0.529167 0.23692-0.529167 0.52917s0.236916 0.52916 0.529167 0.52916 0.529166-0.23691 0.529166-0.52916-0.236915-0.52917-0.529166-0.52917zm2.116666 0c-0.29225 0-0.529166 0.23692-0.529166 0.52917s0.236916 0.52916 0.529166 0.52916c0.292251 0 0.529167-0.23691 0.529167-0.52916s-0.236916-0.52917-0.529167-0.52917zm2.116667 0c-0.292251 0-0.529167 0.23692-0.529167 0.52917s0.236916 0.52916 0.529167 0.52916 0.529167-0.23691 0.529167-0.52916-0.236916-0.52917-0.529167-0.52917zm2.116667 0c-0.292251 0-0.529167 0.23692-0.529167 0.52917s0.236916 0.52916 0.529167 0.52916 0.529166-0.23691 0.529166-0.52916-0.236915-0.52917-0.529166-0.52917zm2.116665 0c-0.29225 0-0.529165 0.23692-0.529165 0.52917s0.236915 0.52916 0.529165 0.52916c0.292251 0 0.529167-0.23691 0.529167-0.52916s-0.236916-0.52917-0.529167-0.52917zm2.116667 0c-0.292251 0-0.529167 0.23692-0.529167 0.52917s0.236916 0.52916 0.529167 0.52916 0.529167-0.23691 0.529167-0.52916-0.236916-0.52917-0.529167-0.52917zm2.116667 0c-0.292251 0-0.529167 0.23692-0.529167 0.52917s0.236916 0.52916 0.529167 0.52916 0.529166-0.23691 0.529166-0.52916-0.236915-0.52917-0.529166-0.52917zm2.116666 0c-0.29225 0-0.529166 0.23692-0.529166 0.52917s0.236916 0.52916 0.529166 0.52916c0.292251 0 0.529167-0.23691 0.529167-0.52916s-0.236916-0.52917-0.529167-0.52917zm2.116667 0c-0.292251 0-0.529167 0.23692-0.529167 0.52917s0.236916 0.52916 0.529167 0.52916 0.529167-0.23691 0.529167-0.52916-0.236916-0.52917-0.529167-0.52917zm2.116667 0c-0.292251 0-0.529167 0.23692-0.529167 0.52917s0.236916 0.52916 0.529167 0.52916 0.529166-0.23691 0.529166-0.52916-0.236915-0.52917-0.529166-0.52917zm2.116666 0c-0.29225 0-0.529166 0.23692-0.529166 0.52917s0.236916 0.52916 0.529166 0.52916c0.292251 0 0.529167-0.23691 0.529167-0.52916s-0.236916-0.52917-0.529167-0.52917zm2.116667 0c-0.292251 0-0.529167 0.23692-0.529167 0.52917s0.236916 0.52916 0.529167 0.52916 0.529167-0.23691 0.529167-0.52916-0.236916-0.52917-0.529167-0.52917zm2.116667 0c-0.292251 0-0.529167 0.23692-0.529167 0.52917s0.236916 0.52916 0.529167 0.52916 0.529166-0.23691 0.529166-0.52916-0.236915-0.52917-0.529166-0.52917zm2.116666 0c-0.29225 0-0.529166 0.23692-0.529166 0.52917s0.236916 0.52916 0.529166 0.52916c0.292251 0 0.529167-0.23691 0.529167-0.52916s-0.236916-0.52917-0.529167-0.52917zm2.116667 0c-0.292251 0-0.529167 0.23692-0.529167 0.52917s0.236916 0.52916 0.529167 0.52916 0.529167-0.23691 0.529167-0.52916-0.236916-0.52917-0.529167-0.52917zm2.116667 0c-0.292251 0-0.529167 0.23692-0.529167 0.52917s0.236916 0.52916 0.529167 0.52916 0.529166-0.23691 0.529166-0.52916-0.236915-0.52917-0.529166-0.52917zm2.116666 0c-0.29225 0-0.529166 0.23692-0.529166 0.52917s0.236916 0.52916 0.529166 0.52916c0.292251 0 0.529167-0.23691 0.529167-0.52916s-0.236916-0.52917-0.529167-0.52917zm2.116667 0c-0.292251 0-0.529167 0.23692-0.529167 0.52917s0.236916 0.52916 0.529167 0.52916 0.529167-0.23691 0.529167-0.52916-0.236916-0.52917-0.529167-0.52917zm2.116667 0c-0.292251 0-0.529167 0.23692-0.529167 0.52917s0.236916 0.52916 0.529167 0.52916 0.529166-0.23691 0.529166-0.52916-0.236915-0.52917-0.529166-0.52917zm2.116666 0c-0.29225 0-0.529166 0.23692-0.529166 0.52917s0.236916 0.52916 0.529166 0.52916c0.292251 0 0.529167-0.23691 0.529167-0.52916s-0.236916-0.52917-0.529167-0.52917zm2.116667 0c-0.292251 0-0.529166 0.23692-0.529166 0.52917s0.236915 0.52916 0.529166 0.52916 0.529167-0.23691 0.529167-0.52916-0.236916-0.52917-0.529167-0.52917zm2.116667 0c-0.292251 0-0.529167 0.23692-0.529167 0.52917s0.236916 0.52916 0.529167 0.52916 0.529167-0.23691 0.529167-0.52916-0.236916-0.52917-0.529167-0.52917z" style="opacity:.4"/>
  <path d="m64.959246 273.02533-20.089215 19.8453c16.851935-0.18395 19.879387-3.13517 20.089215-19.8453z" style="fill:#ffffff;opacity:.2"/>
  <path d="m23.485325 233.61429c-15.574548 0-20.331895 1.80179-21.576977 12.7h62.716584c-1.245082-10.89821-6.002428-12.7-21.576977-12.7z" style="fill:#bababa"/>
  <path transform="matrix(.26458333 0 0 .26458333 0 229.26666)" d="m140.50781 71.371094c-3.29806 0.03018-6.36919 1.684481-8.20898 4.421875l-35.800783 51.656251-37.427735-34.04297c-1.974988-1.84843-4.61451-2.817993-7.316406-2.6875-8.970564 0.428154-12.874323 11.54592-6.140625 17.48828l39.392578 35.82422-40.810547 58.88477c-3.240637 4.54016-2.671863 11.80811 2.444266 14.03071 6.617315 2.87478 58.310892-5.06127 13.995188-2.64009l39.296875-56.70117 43.749999 39.78906c4.06769 3.85003 10.50385 3.6094 14.27271-0.5336 3.76885-4.14301 3.40103-10.57316-0.81568-14.25937l-45.71484-41.57812 37.31445-53.839846c4.75129-6.653609-0.0549-15.887364-8.23047-15.8125z" style="fill:#5d5d5d"/>
  <g transform="translate(.348266 .0222)">
   <g transform="matrix(.1118806 .1118806 -.12134311 .12134311 -4.5471162 164.18947)" style="enable-background:new">
    <path d="m688.00003 319.35584-32 81.13762-31.99999-81.13762v-11.06422h63.99999z" style="fill:#fee1c2"/>
    <path d="m645.81253 374.67694 10.1875 25.81651 10.1875-25.81651s0.77644-2.76606-1.20553-2.76606-3.94669 3.68807-3.94669 3.68807-1.03528-4.61009-5.01377-4.61009c-3.9785 0-5.01378 4.61009-5.01378 4.61009s-2.00773-3.68807-4.00773-3.68807-1.1875 2.76606-1.1875 2.76606z" style="fill:#5d5d5d"/>
    <path d="m624.00004 319.35583c0-7.37615 17.99999-3.68808 17.99999 7.37614 0-18.44036 28-18.44036 28 0 0-11.06422 18-14.75229 18-7.37614v-185.89981h-63.99999z" style="fill:url(#linearGradient1007)"/>
   </g>
  </g>
  <path transform="matrix(.13229167 0 0 .13229167 -4.876801 261.66013)" d="M 361.9375,-212 C 507.2348,-212 528,-191.28677 528,-46.125 V 70.125 C 528,215.28618 507.2348,236 361.9375,236 H 214.0625 C 68.7652,236 48,215.28618 48,70.125 V -46.125 C 48,-191.28677 68.7652,-212 214.0625,-212 Z" clip-path="url(#clipPath1082-3-367)" style="fill:none;opacity:.4;stroke-linecap:round;stroke-linejoin:round;stroke-width:8;stroke:url(#linearGradient1108)"/>
 </g>
</svg>
