<svg width="256" height="256" version="1.1" viewBox="0 0 67.73 67.73" xmlns="http://www.w3.org/2000/svg" xmlns:xlink="http://www.w3.org/1999/xlink">
 <defs>
  <linearGradient id="linearGradient918" x1="252.122" x2="21.425" y1="210.694" y2="210.694" gradientUnits="userSpaceOnUse">
   <stop style="stop-color:#000000" offset="0"/>
   <stop style="stop-color:#000000;stop-opacity:0" offset="1"/>
  </linearGradient>
  <linearGradient id="linearGradient1108" x1="296" x2="296" y1="-212" y2="236" gradientUnits="userSpaceOnUse">
   <stop style="stop-color:#ffffff" offset="0"/>
   <stop style="stop-color:#ffffff;stop-opacity:.09803922" offset=".125"/>
   <stop style="stop-color:#000000;stop-opacity:.09803922" offset=".925"/>
   <stop style="stop-color:#000000;stop-opacity:.49803922" offset="1"/>
  </linearGradient>
  <clipPath id="clipPath1082-3-2">
   <path d="M 361.9375,-212 C 507.2348,-212 528,-191.28677 528,-46.125 V 70.125 C 528,215.28618 507.2348,236 361.9375,236 H 214.0625 C 68.7652,236 48,215.28618 48,70.125 V -46.125 C 48,-191.28677 68.7652,-212 214.0625,-212 Z" style="fill:#8c59d9"/>
  </clipPath>
  <filter id="filter4569" x="-.01" y="-.01" width="1.023" height="1.025" style="color-interpolation-filters:sRGB">
   <feGaussianBlur stdDeviation="1.16"/>
  </filter>
  <filter id="filter913" x="-.02" y="-.03" width="1.046" height="1.05" style="color-interpolation-filters:sRGB">
   <feGaussianBlur stdDeviation="2.32"/>
  </filter>
 </defs>
 <g transform="translate(0,-229.26666)">
  <path transform="matrix(.26458333 0 0 .26458333 -1.8735229e-8 232.67026)" d="m162.53675 5.5680001c72.64865 0 83.03125 10.356615 83.03125 82.937505v58.125005c0 72.58059-10.3826 82.9375-83.03125 82.9375h-73.937496c-72.648654 0-83.031254-10.35691-83.031254-82.9375v-58.125005c0-72.58089 10.3826-82.937505 83.031254-82.937505z" style="filter:url(#filter913);opacity:.2"/>
  <path transform="matrix(.26458333 0 0 .26458333 -1.8735229e-8 232.67026)" d="m162.53675 3.5680001c72.64865 0 83.03125 10.356615 83.03125 82.937505v58.125005c0 72.58059-10.3826 82.9375-83.03125 82.9375h-73.937496c-72.648654 0-83.031254-10.35691-83.031254-82.9375v-58.125005c0-72.58089 10.3826-82.937505 83.031254-82.937505z" style="filter:url(#filter4569);opacity:.1"/>
  <path d="m23.441882 233.61429c-9.611188 0-15.101641 0.68375-18.19217 3.77032-3.090525 3.08656-3.776514 8.57135-3.776514 18.17356v15.37891c0 9.60218 0.68599 15.087 3.776514 18.17357 3.0905286 3.08658 8.580982 3.77031 18.19217 3.77031h19.562631c9.61119 0 15.101644-0.68373 18.19217-3.77031 3.090527-3.08657 3.776515-8.57139 3.776515-18.17357v-15.37891c0-9.60221-0.685988-15.087-3.776515-18.17356-3.090526-3.08657-8.580982-3.77032-18.19217-3.77032z" style="fill:#4d4d4d"/>
  <path d="m1.473198 270.40792v0.52916c0 9.60218 0.68599 15.087 3.776514 18.17357 3.0905286 3.08658 8.580982 3.77031 18.19217 3.77031h19.562631c9.61119 0 15.101644-0.68373 18.19217-3.77031 3.090527-3.08657 3.776515-8.57139 3.776515-18.17357v-0.52916c0 9.60217-0.685988 15.08699-3.776515 18.17356-3.090526 3.08658-8.58098 3.77032-18.19217 3.77032h-19.562631c-9.611188 0-15.101641-0.68374-18.19217-3.77032-3.090524-3.08657-3.776514-8.57139-3.776514-18.17356z" style="fill:#131313;opacity:.2"/>
  <path transform="matrix(.13229167 0 0 .13229167 -4.876802 261.66013)" d="M 361.9375,-212 C 507.2348,-212 528,-191.28677 528,-46.125 V 70.125 C 528,215.28618 507.2348,236 361.9375,236 H 214.0625 C 68.7652,236 48,215.28618 48,70.125 V -46.125 C 48,-191.28677 68.7652,-212 214.0625,-212 Z" clip-path="url(#clipPath1082-3-2)" style="fill:none;opacity:.4;stroke-linecap:round;stroke-linejoin:round;stroke-width:8;stroke:url(#linearGradient1108)"/>
  <path d="m1.473198 261.13096v9.80612c0 9.60218 0.68599 15.087 3.776514 18.17357 3.0905286 3.08658 8.580982 3.77031 18.19217 3.77031h19.562631c9.61119 0 15.101644-0.68373 18.19217-3.77031 3.090527-3.08657 3.776515-8.57139 3.776515-18.17357v-9.80612z" style="fill:#ffffff;opacity:.05"/>
  <path transform="matrix(.13762624 0 0 .13800859 -1.475458 227.82006)" d="m110.85775 138-4.93526 14.80579 50.10039 20.04015-50.10039 20.04016 4.93526 14.80578 64.45752-27.21872v-15.25444zm64.36555 90.03114v15.10489h76.69918v-15.10489z" style="fill:url(#linearGradient918);filter:url(#filter920);opacity:.5"/>
  <path d="m13.781475 246.58922-0.679221 2.04333 6.895126 2.76571-6.895126 2.76572 0.679221 2.04332 8.871047-3.75641v-2.10525zm8.858389 12.42507v2.11667h10.583333v-2.11667z" style="fill:#f2f2f2"/>
  <path d="m13.781514 246.58922-0.679261 2.04345 0.08091 0.0323 0.598352-1.79977 8.870979 3.75642v-0.27601zm5.871694 4.94702-6.550955 2.62782 0.08091 0.24367 6.814113-2.73348zm2.986569 7.47807v0.27602h10.58342v-0.27602z" style="fill:#ffffff"/>
  <path d="m33.77405 233.49737h-10.543156c-1.534657 0-2.793307 0.0572-4.127596 0.0978l18.503741 28.34139-20.75469 30.68162c1.901942 0.10571 4.006978 0.15109 6.378545 0.15109h2.015467l16.50627-24.28491 14.898523 23.11731c0.07122-0.0199 0.156133-0.0327 0.226227-0.0533 0.650673-0.19079 1.252753-0.40897 1.810321-0.65807s1.070659-0.52952 1.541936-0.84363c0.471278-0.31413 0.900768-0.6621 1.292573-1.04796 0.391806-0.38585 0.745804-0.8094 1.064804-1.27356 0.319001-0.46417 0.603057-0.96925 0.856059-1.51844 0.253004-0.5492 0.475094-1.14216 0.668911-1.78309 0.193813-0.64094 0.359347-1.32965 0.50078-2.06903 0.141437-0.7394 0.258385-1.52969 0.354252-2.37425 0.01332-0.11738 0.01935-0.2557 0.03188-0.37518l-12.893857-17.79994 12.655287-16.9031c-0.05071-0.3263-0.08858-0.68181-0.147562-0.99016-0.141433-0.73938-0.306967-1.4281-0.50078-2.06902-0.193817-0.64094-0.415907-1.23391-0.668911-1.78309-0.253002-0.5492-0.537058-1.05428-0.856059-1.51845-0.319-0.46416-0.672998-0.88771-1.064804-1.27356-0.03446-0.0339-0.07857-0.0589-0.113627-0.0922l-13.252215 18.14016z" style="fill:#e4e4e4;opacity:.1"/>
 </g>
</svg>
