<svg xmlns="http://www.w3.org/2000/svg" xmlns:xlink="http://www.w3.org/1999/xlink" width="256" height="256" version="1.1" viewBox="0 0 67.73 67.73">
 <defs>
  <linearGradient id="linearGradient1108" x1="296" x2="296" y1="-212" y2="236" gradientUnits="userSpaceOnUse" xlink:href="#linearGradient1013"/>
  <linearGradient id="linearGradient1013">
   <stop style="stop-color:#ffffff" offset="0"/>
   <stop offset=".125" style="stop-color:#ffffff;stop-opacity:0.09803922"/>
   <stop offset=".925" style="stop-color:#000000;stop-opacity:0.09803922"/>
   <stop style="stop-color:#000000;stop-opacity:0.49803922" offset="1"/>
  </linearGradient>
  <clipPath id="clipPath1082-3-361" clipPathUnits="userSpaceOnUse">
   <path style="fill:#8c59d9" d="M 361.9375,-212 C 507.2348,-212 528,-191.28677 528,-46.125 V 70.125 C 528,215.28618 507.2348,236 361.9375,236 H 214.0625 C 68.7652,236 48,215.28618 48,70.125 V -46.125 C 48,-191.28677 68.7652,-212 214.0625,-212 Z"/>
  </clipPath>
  <linearGradient id="linearGradient1044" x1="88" x2="256" y1="28" y2="284" gradientTransform="matrix(0.26970781,0,0,0.26970781,-7.1289179,220.5605)" gradientUnits="userSpaceOnUse" xlink:href="#linearGradient1048"/>
  <filter id="filter4569" width="1.023" height="1.025" x="-.01" y="-.01" style="color-interpolation-filters:sRGB">
   <feGaussianBlur stdDeviation="1.16"/>
  </filter>
  <filter id="filter939" width="1.046" height="1.05" x="-.02" y="-.03" style="color-interpolation-filters:sRGB">
   <feGaussianBlur stdDeviation="2.32"/>
  </filter>
  <linearGradient id="linearGradient979" x1="152" x2="152" y1="100" y2="212" gradientTransform="matrix(0.26458333,0,0,0.26458333,-8.2020823,220.57313)" gradientUnits="userSpaceOnUse" xlink:href="#linearGradient1637"/>
  <linearGradient id="linearGradient1637">
   <stop style="stop-color:#f2f2f2" offset="0"/>
   <stop style="stop-color:#f7f7f7" offset="1"/>
  </linearGradient>
  <filter id="filter997" width="1.038" height="1.065" x="-.02" y="-.03" style="color-interpolation-filters:sRGB">
   <feGaussianBlur stdDeviation="1.52"/>
  </filter>
  <filter id="filter991" width="1.019" height="1.033" x="-.01" y="-.02" style="color-interpolation-filters:sRGB">
   <feGaussianBlur stdDeviation=".76"/>
  </filter>
  <linearGradient id="linearGradient1048">
   <stop offset="0" style="stop-color:#505050"/>
   <stop offset="1" style="stop-color:#727272"/>
  </linearGradient>
 </defs>
 <g transform="translate(0,-229.26666)">
  <path d="m 162.53675,5.5680001 c 72.64865,0 83.03125,10.3566149 83.03125,82.9375049 v 58.125005 c 0,72.58059 -10.3826,82.9375 -83.03125,82.9375 H 88.599254 C 15.9506,229.56801 5.568,219.2111 5.568,146.63051 V 88.505505 c 0,-72.58089 10.3826,-82.9375049 83.031254,-82.9375049 z" transform="matrix(0.26970779,0,0,0.26970779,-1.9098094e-8,231.46531)" style="opacity:0.2;filter:url(#filter939)"/>
  <path style="opacity:0.1;fill:none;stroke:#000000;stroke-width:1.07883108;stroke-linecap:round;stroke-linejoin:round" d="m 43.837429,232.42763 c 19.593907,0 22.394176,2.79326 22.394176,22.36889 v 15.67677 c 0,19.57555 -2.800269,22.36889 -22.394176,22.36889 H 23.89591 c -19.5939088,0 -22.394177,-2.79334 -22.394177,-22.36889 v -15.67677 c 0,-19.57563 2.8002682,-22.36889 22.394177,-22.36889 z"/>
  <path style="opacity:0.1;filter:url(#filter4569)" d="m 162.53675,3.5680001 c 72.64865,0 83.03125,10.3566149 83.03125,82.9375049 v 58.125005 c 0,72.58059 -10.3826,82.9375 -83.03125,82.9375 H 88.599254 C 15.9506,227.56801 5.568,217.2111 5.568,144.63051 V 86.505505 c 0,-72.58089 10.3826,-82.9375049 83.031254,-82.9375049 z" transform="matrix(0.26970779,0,0,0.26970779,-1.9098094e-8,231.46531)"/>
  <path d="m 43.837427,232.42763 c 19.593907,0 22.394175,2.79326 22.394175,22.36889 v 15.67677 c 0,19.57555 -2.800268,22.36889 -22.394175,22.36889 h -19.94152 c -19.5939074,0 -22.3941756,-2.79334 -22.3941756,-22.36889 v -15.67677 c 0,-19.57563 2.8002682,-22.36889 22.3941756,-22.36889 z" style="fill:url(#linearGradient1044)"/>
  <path d="m 23.895907,292.84218 c -19.5939074,0 -22.3941756,-2.79326 -22.3941756,-22.36889 v -7.83838 H 66.231602 v 7.83838 c 0,19.57563 -2.800268,22.36889 -22.394175,22.36889 z" style="opacity:0.1;fill:#ffffff"/>
  <path style="opacity:0.4;fill:none;stroke:url(#linearGradient1108);stroke-width:8;stroke-linecap:round;stroke-linejoin:round" d="M 361.9375,-212 C 507.2348,-212 528,-191.28677 528,-46.125 V 70.125 C 528,215.28618 507.2348,236 361.9375,236 H 214.0625 C 68.7652,236 48,215.28618 48,70.125 V -46.125 C 48,-191.28677 68.7652,-212 214.0625,-212 Z" clip-path="url(#clipPath1082-3-361)" transform="matrix(0.1348539,0,0,0.1348539,-4.9712559,261.01666)"/>
  <g transform="translate(1.8520195,0.280885)">
   <path d="m 12.776915,1.8239999 c -2.875863,0.0331 -4.980463,-0.0705 -6.701172,0.87891 -0.860365,0.4747 -1.537696,1.27869 -1.914062,2.28125 -0.376343,1.00256 -0.513672,2.1942 -0.513672,3.69726 V 26.96658 c 0,1.50306 0.137421,2.69468 0.513672,3.69726 0.376366,1.00256 1.053697,1.80069 1.914062,2.27539 1.720709,0.94937 3.825309,0.85154 6.701172,0.88477 h 0.0098 13.722656 0.0098 c 2.875862,-0.0331 4.980463,0.0646 6.701172,-0.88477 0.860366,-0.4747 1.537719,-1.27283 1.914062,-2.27539 0.374715,-1.00258 0.513604,-2.1942 0.513604,-3.69726 V 8.6814199 c 0,-1.50306 -0.137421,-2.6947 -0.513672,-3.69726 -0.376343,-1.00256 -1.053697,-1.80655 -1.914062,-2.28125 -1.720709,-0.949371 -3.825309,-0.84568 -6.701172,-0.87891 h -0.0098 -13.722656 z m 40.000004,0 c -2.87586,0.0331 -4.98047,-0.0705 -6.701176,0.87891 -0.860365,0.4747 -1.537696,1.27869 -1.914062,2.28125 -0.376343,1.00256 -0.513672,2.1942 -0.513672,3.69726 V 26.96658 c 0,1.50306 0.137421,2.69468 0.513672,3.69726 0.376366,1.00256 1.053697,1.80069 1.914062,2.27539 1.720706,0.94937 3.825316,0.85154 6.701176,0.88477 h 0.01 13.72266 0.01 c 2.87587,-0.0331 4.98048,0.0646 6.70118,-0.88477 0.86037,-0.4747 1.53772,-1.27283 1.914059,-2.27539 0.37498,-1.00258 0.51367,-2.1942 0.51367,-3.69726 V 8.6814199 c 0,-1.50306 -0.13742,-2.6947 -0.51367,-3.69726 -0.376349,-1.00256 -1.053699,-1.80655 -1.914059,-2.28125 -1.72071,-0.949371 -3.82532,-0.84568 -6.70118,-0.87891 h -0.01 -13.72266 z m 39.999999,0 c -2.87586,0.0331 -4.98047,-0.0705 -6.70118,0.87891 -0.86036,0.4747 -1.53769,1.27869 -1.91406,2.28125 -0.37634,1.00256 -0.51367,2.1942 -0.51367,3.69726 V 26.96658 c 0,1.50306 0.13742,2.69468 0.51367,3.69726 0.37637,1.00256 1.0537,1.80069 1.91406,2.27539 1.72071,0.94937 3.82532,0.85154 6.70118,0.88477 h 0.01 13.722662 0.01 c 2.87587,-0.0331 4.98048,0.0646 6.70118,-0.88477 0.86037,-0.4747 1.53772,-1.27283 1.91406,-2.27539 0.37498,-1.00258 0.51367,-2.1942 0.51367,-3.69726 V 8.6814199 c 0,-1.50306 -0.13742,-2.6947 -0.51367,-3.69726 -0.37635,-1.00256 -1.0537,-1.80655 -1.91406,-2.28125 -1.72071,-0.949371 -3.82532,-0.84568 -6.70118,-0.87891 h -0.01 -13.722662 z m 40.000002,0 c -2.87586,0.0331 -4.98047,-0.0705 -6.70118,0.87891 -0.86036,0.4747 -1.53769,1.27869 -1.91406,2.28125 -0.37634,1.00256 -0.51367,2.1942 -0.51367,3.69726 V 26.96658 c 0,1.50306 0.13742,2.69468 0.51367,3.69726 0.37637,1.00256 1.0537,1.80069 1.91406,2.27539 1.72071,0.94937 3.82532,0.85154 6.70118,0.88477 h 0.01 13.72266 0.01 c 2.87587,-0.0331 4.98048,0.0646 6.70118,-0.88477 0.86037,-0.4747 1.53772,-1.27283 1.91406,-2.27539 0.37498,-1.00258 0.51367,-2.1942 0.51367,-3.69726 V 8.6814199 c 0,-1.50306 -0.13742,-2.6947 -0.51367,-3.69726 -0.37635,-1.00256 -1.0537,-1.80655 -1.91406,-2.28125 -1.72071,-0.949371 -3.82532,-0.84568 -6.70118,-0.87891 h -0.01 -13.72266 z m 40,0 c -2.87586,0.0331 -4.98047,-0.0705 -6.70118,0.87891 -0.86036,0.4747 -1.53769,1.27869 -1.91406,2.28125 -0.37634,1.00256 -0.51367,2.1942 -0.51367,3.69726 V 26.96658 c 0,1.50306 0.13742,2.69468 0.51367,3.69726 0.37637,1.00256 1.0537,1.80069 1.91406,2.27539 1.72071,0.94937 3.82532,0.85154 6.70118,0.88477 h 0.01 13.72266 0.01 c 2.87587,-0.0331 4.98048,0.0646 6.70118,-0.88477 0.86037,-0.4747 1.53772,-1.27283 1.91406,-2.27539 0.37498,-1.00258 0.51367,-2.1942 0.51367,-3.69726 V 8.6814199 c 0,-1.50306 -0.13742,-2.6947 -0.51367,-3.69726 -0.37635,-1.00256 -1.0537,-1.80655 -1.91406,-2.28125 -1.72071,-0.949371 -3.82532,-0.84568 -6.70118,-0.87891 h -0.01 -13.72266 z M 28.776915,41.824 c -2.87586,0.0331 -4.980463,-0.0705 -6.701172,0.87891 -0.860365,0.4747 -1.537696,1.27869 -1.914062,2.28125 -0.376343,1.00256 -0.513672,2.1942 -0.513672,3.69726 v 18.28516 c 0,1.50306 0.137421,2.69468 0.513672,3.69726 0.376366,1.00256 1.053697,1.80069 1.914062,2.27539 1.720709,0.94937 3.825312,0.85154 6.701172,0.88477 h 0.0098 13.722656 0.0098 c 2.87587,-0.0331 4.980472,0.0646 6.701176,-0.88477 0.86037,-0.4747 1.53772,-1.27283 1.91406,-2.27539 0.37498,-1.00258 0.51367,-2.1942 0.51367,-3.69726 V 48.68142 c 0,-1.50306 -0.13742,-2.6947 -0.51367,-3.69726 -0.37635,-1.00256 -1.0537,-1.80655 -1.91406,-2.28125 -1.720782,-0.94937 -3.825384,-0.84568 -6.701244,-0.87891 h -0.0098 -13.722656 z m 40.000004,0 c -2.87586,0.0331 -4.98047,-0.0705 -6.70118,0.87891 -0.86036,0.4747 -1.53769,1.27869 -1.91406,2.28125 -0.37634,1.00256 -0.51367,2.1942 -0.51367,3.69726 v 18.28516 c 0,1.50306 0.13742,2.69468 0.51367,3.69726 0.37637,1.00256 1.0537,1.80069 1.91406,2.27539 1.72071,0.94937 3.82532,0.85154 6.70118,0.88477 h 0.01 13.722659 0.01 c 2.87587,-0.0331 4.98048,0.0646 6.70118,-0.88477 0.86037,-0.4747 1.53772,-1.27283 1.91406,-2.27539 0.37498,-1.00258 0.51367,-2.1942 0.51367,-3.69726 V 48.68142 c 0,-1.50306 -0.13742,-2.6947 -0.51367,-3.69726 -0.37635,-1.00256 -1.0537,-1.80655 -1.91406,-2.28125 -1.72071,-0.94937 -3.82532,-0.84568 -6.70118,-0.87891 h -0.01 -13.722659 z m 40.000001,0 c -2.87586,0.0331 -4.98047,-0.0705 -6.70118,0.87891 -0.86036,0.4747 -1.53769,1.27869 -1.91406,2.28125 -0.376342,1.00256 -0.513672,2.1942 -0.513672,3.69726 v 18.28516 c 0,1.50306 0.13742,2.69468 0.513672,3.69726 0.37637,1.00256 1.0537,1.80069 1.91406,2.27539 1.72071,0.94937 3.82532,0.85154 6.70118,0.88477 h 0.01 13.72266 0.01 c 2.87587,-0.0331 4.98048,0.0646 6.70118,-0.88477 0.86037,-0.4747 1.53772,-1.27283 1.91406,-2.27539 0.37498,-1.00258 0.51367,-2.1942 0.51367,-3.69726 V 48.68142 c 0,-1.50306 -0.13742,-2.6947 -0.51367,-3.69726 -0.37635,-1.00256 -1.0537,-1.80655 -1.91406,-2.28125 -1.72071,-0.94937 -3.82532,-0.84568 -6.70118,-0.87891 h -0.01 -13.72266 z m 40,0 c -2.87586,0.0331 -4.98047,-0.0705 -6.70118,0.87891 -0.86036,0.4747 -1.53769,1.27869 -1.91406,2.28125 -0.37634,1.00256 -0.51367,2.1942 -0.51367,3.69726 v 18.28516 c 0,1.50306 0.13742,2.69468 0.51367,3.69726 0.37637,1.00256 1.0537,1.80069 1.91406,2.27539 1.72071,0.94937 3.82532,0.85154 6.70118,0.88477 h 0.01 13.72266 0.01 c 2.87587,-0.0331 4.98048,0.0646 6.70118,-0.88477 0.86037,-0.4747 1.53772,-1.27283 1.91406,-2.27539 0.37498,-1.00258 0.51367,-2.1942 0.51367,-3.69726 V 48.68142 c 0,-1.50306 -0.13742,-2.6947 -0.51367,-3.69726 -0.37635,-1.00256 -1.0537,-1.80655 -1.91406,-2.28125 -1.72071,-0.94937 -3.82532,-0.84568 -6.70118,-0.87891 h -0.01 -13.72266 z m -136.000005,40 c -2.87586,0.0331 -4.980463,-0.0705 -6.701172,0.87891 -0.860365,0.4747 -1.537696,1.27869 -1.914062,2.28125 -0.376343,1.00256 -0.513672,2.1942 -0.513672,3.69726 v 18.28516 c 0,1.50306 0.137421,2.69468 0.513672,3.69726 0.376366,1.00256 1.053697,1.80069 1.914062,2.27539 1.720709,0.94937 3.825312,0.85154 6.701172,0.88477 h 0.0098 13.722656 0.0098 c 2.87587,-0.0331 4.980472,0.0646 6.701172,-0.88477 0.86037,-0.4747 1.537722,-1.27283 1.914062,-2.27539 0.374912,-1.00258 0.513604,-2.1942 0.513604,-3.69726 V 88.68142 c 0,-1.50306 -0.137422,-2.6947 -0.513672,-3.69726 -0.37635,-1.00256 -1.053702,-1.80655 -1.914062,-2.28125 -1.72071,-0.94937 -3.825312,-0.84568 -6.701172,-0.87891 h -0.0098 -13.722656 z m 40.000004,0 c -2.87586,0.0331 -4.98047,-0.0705 -6.701176,0.87891 -0.86036,0.4747 -1.537692,1.27869 -1.914062,2.28125 -0.37634,1.00256 -0.513672,2.1942 -0.513672,3.69726 v 18.28516 c 0,1.50306 0.137422,2.69468 0.513672,3.69726 0.37637,1.00256 1.053702,1.80069 1.914062,2.27539 1.720706,0.94937 3.825316,0.85154 6.701176,0.88477 h 0.01 93.722661 0.01 c 2.87587,-0.0331 4.98048,0.0646 6.70118,-0.88477 0.86037,-0.4747 1.53772,-1.27283 1.91406,-2.27539 0.37498,-1.00258 0.51367,-2.1942 0.51367,-3.69726 V 88.68142 c 0,-1.50306 -0.13742,-2.6947 -0.51367,-3.69726 -0.37635,-1.00256 -1.0537,-1.80655 -1.91406,-2.28125 -1.72071,-0.94937 -3.82532,-0.84568 -6.70118,-0.87891 h -0.01 -93.722661 z m 120.000001,0 c -2.87586,0.0331 -4.98047,-0.0705 -6.70118,0.87891 -0.86036,0.4747 -1.53769,1.27869 -1.91406,2.28125 -0.37634,1.00256 -0.51367,2.1942 -0.51367,3.69726 v 18.28516 c 0,1.50306 0.13742,2.69468 0.51367,3.69726 0.37637,1.00256 1.0537,1.80069 1.91406,2.27539 1.72071,0.94937 3.82532,0.85154 6.70118,0.88477 h 0.01 13.72266 0.01 c 2.87587,-0.0331 4.98048,0.0646 6.70118,-0.88477 0.86037,-0.4747 1.53772,-1.27283 1.91406,-2.27539 0.37498,-1.00258 0.51367,-2.1942 0.51367,-3.69726 V 88.68142 c 0,-1.50306 -0.13742,-2.6947 -0.51367,-3.69726 -0.37635,-1.00256 -1.0537,-1.80655 -1.91406,-2.28125 -1.72071,-0.94937 -3.82532,-0.84568 -6.70118,-0.87891 h -0.01 -13.72266 z" transform="matrix(0.26458333,0,0,0.26458333,5.6493818,246.54887)" style="opacity:0.1;filter:url(#filter991)"/>
   <path style="opacity:0.1;filter:url(#filter997)" d="m 12.776915,3.8239999 c -2.875863,0.0331 -4.980463,-0.0705 -6.701172,0.87891 -0.860365,0.4747 -1.537696,1.27869 -1.914062,2.28125 -0.376343,1.00256 -0.513672,2.1942 -0.513672,3.6972601 v 18.28516 c 0,1.50306 0.137421,2.69468 0.513672,3.69726 0.376366,1.00256 1.053697,1.80069 1.914062,2.27539 1.720709,0.94937 3.825309,0.85154 6.701172,0.88477 h 0.0098 13.722656 0.0098 c 2.875862,-0.0331 4.980463,0.0646 6.701172,-0.88477 0.860366,-0.4747 1.537719,-1.27283 1.914062,-2.27539 0.374715,-1.00258 0.513604,-2.1942 0.513604,-3.69726 V 10.68142 c 0,-1.5030601 -0.137421,-2.6947001 -0.513672,-3.6972601 -0.376343,-1.00256 -1.053697,-1.80655 -1.914062,-2.28125 -1.720709,-0.94937 -3.825309,-0.84568 -6.701172,-0.87891 h -0.0098 -13.722656 z m 40.000004,0 c -2.87586,0.0331 -4.98047,-0.0705 -6.701176,0.87891 -0.860365,0.4747 -1.537696,1.27869 -1.914062,2.28125 -0.376343,1.00256 -0.513672,2.1942 -0.513672,3.6972601 v 18.28516 c 0,1.50306 0.137421,2.69468 0.513672,3.69726 0.376366,1.00256 1.053697,1.80069 1.914062,2.27539 1.720706,0.94937 3.825316,0.85154 6.701176,0.88477 h 0.01 13.72266 0.01 c 2.87587,-0.0331 4.98048,0.0646 6.70118,-0.88477 0.86037,-0.4747 1.53772,-1.27283 1.914059,-2.27539 0.37498,-1.00258 0.51367,-2.1942 0.51367,-3.69726 V 10.68142 c 0,-1.5030601 -0.13742,-2.6947001 -0.51367,-3.6972601 -0.376349,-1.00256 -1.053699,-1.80655 -1.914059,-2.28125 -1.72071,-0.94937 -3.82532,-0.84568 -6.70118,-0.87891 h -0.01 -13.72266 z m 39.999999,0 c -2.87586,0.0331 -4.98047,-0.0705 -6.70118,0.87891 -0.86036,0.4747 -1.53769,1.27869 -1.91406,2.28125 -0.37634,1.00256 -0.51367,2.1942 -0.51367,3.6972601 v 18.28516 c 0,1.50306 0.13742,2.69468 0.51367,3.69726 0.37637,1.00256 1.0537,1.80069 1.91406,2.27539 1.72071,0.94937 3.82532,0.85154 6.70118,0.88477 h 0.01 13.722662 0.01 c 2.87587,-0.0331 4.98048,0.0646 6.70118,-0.88477 0.86037,-0.4747 1.53772,-1.27283 1.91406,-2.27539 0.37498,-1.00258 0.51367,-2.1942 0.51367,-3.69726 V 10.68142 c 0,-1.5030601 -0.13742,-2.6947001 -0.51367,-3.6972601 -0.37635,-1.00256 -1.0537,-1.80655 -1.91406,-2.28125 -1.72071,-0.94937 -3.82532,-0.84568 -6.70118,-0.87891 h -0.01 -13.722662 z m 40.000002,0 c -2.87586,0.0331 -4.98047,-0.0705 -6.70118,0.87891 -0.86036,0.4747 -1.53769,1.27869 -1.91406,2.28125 -0.37634,1.00256 -0.51367,2.1942 -0.51367,3.6972601 v 18.28516 c 0,1.50306 0.13742,2.69468 0.51367,3.69726 0.37637,1.00256 1.0537,1.80069 1.91406,2.27539 1.72071,0.94937 3.82532,0.85154 6.70118,0.88477 h 0.01 13.72266 0.01 c 2.87587,-0.0331 4.98048,0.0646 6.70118,-0.88477 0.86037,-0.4747 1.53772,-1.27283 1.91406,-2.27539 0.37498,-1.00258 0.51367,-2.1942 0.51367,-3.69726 V 10.68142 c 0,-1.5030601 -0.13742,-2.6947001 -0.51367,-3.6972601 -0.37635,-1.00256 -1.0537,-1.80655 -1.91406,-2.28125 -1.72071,-0.94937 -3.82532,-0.84568 -6.70118,-0.87891 h -0.01 -13.72266 z m 40,0 c -2.87586,0.0331 -4.98047,-0.0705 -6.70118,0.87891 -0.86036,0.4747 -1.53769,1.27869 -1.91406,2.28125 -0.37634,1.00256 -0.51367,2.1942 -0.51367,3.6972601 v 18.28516 c 0,1.50306 0.13742,2.69468 0.51367,3.69726 0.37637,1.00256 1.0537,1.80069 1.91406,2.27539 1.72071,0.94937 3.82532,0.85154 6.70118,0.88477 h 0.01 13.72266 0.01 c 2.87587,-0.0331 4.98048,0.0646 6.70118,-0.88477 0.86037,-0.4747 1.53772,-1.27283 1.91406,-2.27539 0.37498,-1.00258 0.51367,-2.1942 0.51367,-3.69726 V 10.68142 c 0,-1.5030601 -0.13742,-2.6947001 -0.51367,-3.6972601 -0.37635,-1.00256 -1.0537,-1.80655 -1.91406,-2.28125 -1.72071,-0.94937 -3.82532,-0.84568 -6.70118,-0.87891 h -0.01 -13.72266 z M 28.776915,43.824 c -2.87586,0.0331 -4.980463,-0.0705 -6.701172,0.87891 -0.860365,0.4747 -1.537696,1.27869 -1.914062,2.28125 -0.376343,1.00256 -0.513672,2.1942 -0.513672,3.69726 v 18.28516 c 0,1.50306 0.137421,2.69468 0.513672,3.69726 0.376366,1.00256 1.053697,1.80069 1.914062,2.27539 1.720709,0.94937 3.825312,0.85154 6.701172,0.88477 h 0.0098 13.722656 0.0098 c 2.87587,-0.0331 4.980472,0.0646 6.701178,-0.88477 0.86037,-0.4747 1.53772,-1.27283 1.91406,-2.27539 0.37498,-1.00258 0.51367,-2.1942 0.51367,-3.69726 V 50.68142 c 0,-1.50306 -0.13742,-2.6947 -0.51367,-3.69726 -0.37635,-1.00256 -1.0537,-1.80655 -1.91406,-2.28125 -1.720784,-0.94937 -3.825386,-0.84568 -6.701246,-0.87891 h -0.0098 -13.722656 z m 40.000004,0 c -2.87586,0.0331 -4.98047,-0.0705 -6.70118,0.87891 -0.86036,0.4747 -1.53769,1.27869 -1.91406,2.28125 -0.37634,1.00256 -0.51367,2.1942 -0.51367,3.69726 v 18.28516 c 0,1.50306 0.13742,2.69468 0.51367,3.69726 0.37637,1.00256 1.0537,1.80069 1.91406,2.27539 1.72071,0.94937 3.82532,0.85154 6.70118,0.88477 h 0.01 13.722659 0.01 c 2.87587,-0.0331 4.98048,0.0646 6.70118,-0.88477 0.86037,-0.4747 1.53772,-1.27283 1.91406,-2.27539 0.37498,-1.00258 0.51367,-2.1942 0.51367,-3.69726 V 50.68142 c 0,-1.50306 -0.13742,-2.6947 -0.51367,-3.69726 -0.37635,-1.00256 -1.0537,-1.80655 -1.91406,-2.28125 -1.72071,-0.94937 -3.82532,-0.84568 -6.70118,-0.87891 h -0.01 -13.722659 z m 40.000001,0 c -2.87586,0.0331 -4.98047,-0.0705 -6.70118,0.87891 -0.86036,0.4747 -1.53769,1.27869 -1.91406,2.28125 -0.376342,1.00256 -0.513672,2.1942 -0.513672,3.69726 v 18.28516 c 0,1.50306 0.13742,2.69468 0.513672,3.69726 0.37637,1.00256 1.0537,1.80069 1.91406,2.27539 1.72071,0.94937 3.82532,0.85154 6.70118,0.88477 h 0.01 13.72266 0.01 c 2.87587,-0.0331 4.98048,0.0646 6.70118,-0.88477 0.86037,-0.4747 1.53772,-1.27283 1.91406,-2.27539 0.37498,-1.00258 0.51367,-2.1942 0.51367,-3.69726 V 50.68142 c 0,-1.50306 -0.13742,-2.6947 -0.51367,-3.69726 -0.37635,-1.00256 -1.0537,-1.80655 -1.91406,-2.28125 -1.72071,-0.94937 -3.82532,-0.84568 -6.70118,-0.87891 h -0.01 -13.72266 z m 40,0 c -2.87586,0.0331 -4.98047,-0.0705 -6.70118,0.87891 -0.86036,0.4747 -1.53769,1.27869 -1.91406,2.28125 -0.37634,1.00256 -0.51367,2.1942 -0.51367,3.69726 v 18.28516 c 0,1.50306 0.13742,2.69468 0.51367,3.69726 0.37637,1.00256 1.0537,1.80069 1.91406,2.27539 1.72071,0.94937 3.82532,0.85154 6.70118,0.88477 h 0.01 13.72266 0.01 c 2.87587,-0.0331 4.98048,0.0646 6.70118,-0.88477 0.86037,-0.4747 1.53772,-1.27283 1.91406,-2.27539 0.37498,-1.00258 0.51367,-2.1942 0.51367,-3.69726 V 50.68142 c 0,-1.50306 -0.13742,-2.6947 -0.51367,-3.69726 -0.37635,-1.00256 -1.0537,-1.80655 -1.91406,-2.28125 -1.72071,-0.94937 -3.82532,-0.84568 -6.70118,-0.87891 h -0.01 -13.72266 z m -136.000005,40 c -2.87586,0.0331 -4.980463,-0.0705 -6.701172,0.87891 -0.860365,0.4747 -1.537696,1.27869 -1.914062,2.28125 -0.376343,1.00256 -0.513672,2.1942 -0.513672,3.69726 v 18.28516 c 0,1.50306 0.137421,2.69468 0.513672,3.69726 0.376366,1.00256 1.053697,1.80069 1.914062,2.27539 1.720709,0.94937 3.825312,0.85154 6.701172,0.88477 h 0.0098 13.722656 0.0098 c 2.87587,-0.0331 4.980472,0.0646 6.701172,-0.88477 0.86037,-0.4747 1.537722,-1.27283 1.914062,-2.27539 0.374912,-1.00258 0.513604,-2.1942 0.513604,-3.69726 V 90.68142 c 0,-1.50306 -0.137422,-2.6947 -0.513672,-3.69726 -0.37635,-1.00256 -1.053702,-1.80655 -1.914062,-2.28125 -1.72071,-0.94937 -3.825312,-0.84568 -6.701172,-0.87891 h -0.0098 -13.722656 z m 40.000004,0 c -2.87586,0.0331 -4.98047,-0.0705 -6.701176,0.87891 -0.86036,0.4747 -1.537692,1.27869 -1.914062,2.28125 -0.37634,1.00256 -0.513672,2.1942 -0.513672,3.69726 v 18.28516 c 0,1.50306 0.137422,2.69468 0.513672,3.69726 0.37637,1.00256 1.053702,1.80069 1.914062,2.27539 1.720706,0.94937 3.825316,0.85154 6.701176,0.88477 h 0.01 93.722661 0.01 c 2.87587,-0.0331 4.98048,0.0646 6.70118,-0.88477 0.86037,-0.4747 1.53772,-1.27283 1.91406,-2.27539 0.37498,-1.00258 0.51367,-2.1942 0.51367,-3.69726 V 90.68142 c 0,-1.50306 -0.13742,-2.6947 -0.51367,-3.69726 -0.37635,-1.00256 -1.0537,-1.80655 -1.91406,-2.28125 -1.72071,-0.94937 -3.82532,-0.84568 -6.70118,-0.87891 h -0.01 -93.722661 z m 120.000001,0 c -2.87586,0.0331 -4.98047,-0.0705 -6.70118,0.87891 -0.86036,0.4747 -1.53769,1.27869 -1.91406,2.28125 -0.37634,1.00256 -0.51367,2.1942 -0.51367,3.69726 v 18.28516 c 0,1.50306 0.13742,2.69468 0.51367,3.69726 0.37637,1.00256 1.0537,1.80069 1.91406,2.27539 1.72071,0.94937 3.82532,0.85154 6.70118,0.88477 h 0.01 13.72266 0.01 c 2.87587,-0.0331 4.98048,0.0646 6.70118,-0.88477 0.86037,-0.4747 1.53772,-1.27283 1.91406,-2.27539 0.37498,-1.00258 0.51367,-2.1942 0.51367,-3.69726 V 90.68142 c 0,-1.50306 -0.13742,-2.6947 -0.51367,-3.69726 -0.37635,-1.00256 -1.0537,-1.80655 -1.91406,-2.28125 -1.72071,-0.94937 -3.82532,-0.84568 -6.70118,-0.87891 h -0.01 -13.72266 z" transform="matrix(0.26458333,0,0,0.26458333,5.6493818,246.54887)"/>
   <path style="fill:url(#linearGradient979)" d="m 9.0299403,247.03147 c -0.7609051,0.009 -1.3177475,-0.0187 -1.7730185,0.23254 -0.2276383,0.1256 -0.4068488,0.33832 -0.5064289,0.60358 -0.099574,0.26526 -0.135909,0.58055 -0.135909,0.97824 v 4.83795 c 0,0.39768 0.036359,0.71296 0.135909,0.97823 0.09958,0.26526 0.2787906,0.47643 0.5064289,0.60203 0.455271,0.25119 1.0121134,0.2253 1.7730185,0.23409 h 0.00259 3.6307857 0.0026 c 0.760905,-0.009 1.317747,0.0171 1.773018,-0.23409 0.22764,-0.1256 0.406856,-0.33677 0.50643,-0.60203 0.09914,-0.26527 0.135891,-0.58055 0.135891,-0.97823 v -4.83795 c 0,-0.39769 -0.03636,-0.71298 -0.135909,-0.97824 -0.09956,-0.26526 -0.278777,-0.47798 -0.506416,-0.60358 -0.455271,-0.25118 -1.012113,-0.22375 -1.773018,-0.23254 h -0.0026 -3.6307856 z m 10.5833337,0 c -0.760904,0.009 -1.317749,-0.0187 -1.773019,0.23254 -0.227638,0.1256 -0.406849,0.33832 -0.506429,0.60358 -0.09957,0.26526 -0.135909,0.58055 -0.135909,0.97824 v 4.83795 c 0,0.39768 0.03636,0.71296 0.135909,0.97823 0.09958,0.26526 0.278791,0.47643 0.506429,0.60203 0.45527,0.25119 1.012115,0.2253 1.773019,0.23409 h 0.0026 3.630787 0.0026 c 0.760907,-0.009 1.317752,0.0171 1.773021,-0.23409 0.227639,-0.1256 0.406856,-0.33677 0.506429,-0.60203 0.09921,-0.26527 0.135908,-0.58055 0.135908,-0.97823 v -4.83795 c 0,-0.39769 -0.03636,-0.71298 -0.135908,-0.97824 -0.09957,-0.26526 -0.278778,-0.47798 -0.506415,-0.60358 -0.455272,-0.25118 -1.012116,-0.22375 -1.773021,-0.23254 h -0.0026 -3.630787 z m 10.583333,0 c -0.760904,0.009 -1.317749,-0.0187 -1.77302,0.23254 -0.227637,0.1256 -0.406847,0.33832 -0.506429,0.60358 -0.09957,0.26526 -0.135908,0.58055 -0.135908,0.97824 v 4.83795 c 0,0.39768 0.03636,0.71296 0.135908,0.97823 0.09958,0.26526 0.278792,0.47643 0.506429,0.60203 0.455271,0.25119 1.012116,0.2253 1.77302,0.23409 h 0.0026 3.630786 0.0026 c 0.760907,-0.009 1.317752,0.0171 1.773021,-0.23409 0.227639,-0.1256 0.406855,-0.33677 0.506428,-0.60203 0.09921,-0.26527 0.135908,-0.58055 0.135908,-0.97823 v -4.83795 c 0,-0.39769 -0.03636,-0.71298 -0.135908,-0.97824 -0.09958,-0.26526 -0.278791,-0.47798 -0.506428,-0.60358 -0.455272,-0.25118 -1.012116,-0.22375 -1.773021,-0.23254 h -0.0026 -3.630786 z m 10.583335,0 c -0.760907,0.009 -1.317752,-0.0187 -1.773023,0.23254 -0.227637,0.1256 -0.406847,0.33832 -0.506426,0.60358 -0.09957,0.26526 -0.135911,0.58055 -0.135911,0.97824 v 4.83795 c 0,0.39768 0.03636,0.71296 0.135911,0.97823 0.09958,0.26526 0.278789,0.47643 0.506426,0.60203 0.455271,0.25119 1.012116,0.2253 1.773023,0.23409 h 0.0026 3.630787 0.0026 c 0.760907,-0.009 1.317752,0.0171 1.773021,-0.23409 0.227639,-0.1256 0.406855,-0.33677 0.506425,-0.60203 0.09921,-0.26527 0.135911,-0.58055 0.135911,-0.97823 v -4.83795 c 0,-0.39769 -0.03636,-0.71298 -0.135911,-0.97824 -0.09958,-0.26526 -0.278789,-0.47798 -0.506425,-0.60358 -0.455272,-0.25118 -1.012116,-0.22375 -1.773021,-0.23254 h -0.0026 -3.630787 z m 10.583331,0 c -0.760902,0.009 -1.317747,-0.0187 -1.773018,0.23254 -0.227637,0.1256 -0.40685,0.33832 -0.506431,0.60358 -0.09957,0.26526 -0.135906,0.58055 -0.135906,0.97824 v 4.83795 c 0,0.39768 0.03636,0.71296 0.135906,0.97823 0.09958,0.26526 0.278794,0.47643 0.506431,0.60203 0.455271,0.25119 1.012116,0.2253 1.773018,0.23409 h 0.0026 3.630787 0.0026 c 0.760907,-0.009 1.317752,0.0171 1.773018,-0.23409 0.227642,-0.1256 0.406857,-0.33677 0.506431,-0.60203 0.09921,-0.26527 0.135905,-0.58055 0.135905,-0.97823 v -4.83795 c 0,-0.39769 -0.03636,-0.71298 -0.135905,-0.97824 -0.09958,-0.26526 -0.278794,-0.47798 -0.506431,-0.60358 -0.455269,-0.25118 -1.012114,-0.22375 -1.773018,-0.23254 h -0.0026 -3.630787 z m -38.1,10.58333 c -0.760904,0.009 -1.317747,-0.0187 -1.773018,0.23255 -0.227638,0.12559 -0.406849,0.33832 -0.506429,0.60358 -0.09957,0.26526 -0.135909,0.58055 -0.135909,0.97823 v 4.83795 c 0,0.39768 0.03636,0.71297 0.135909,0.97823 0.09958,0.26526 0.278791,0.47644 0.506429,0.60203 0.455271,0.25119 1.012114,0.22531 1.773018,0.2341 h 0.0026 3.630786 0.0026 c 0.760907,-0.009 1.31775,0.0171 1.77302,-0.2341 0.227639,-0.12559 0.406855,-0.33677 0.506428,-0.60203 0.09921,-0.26526 0.135909,-0.58055 0.135909,-0.97823 v -4.83795 c 0,-0.39768 -0.03636,-0.71297 -0.135909,-0.97823 -0.09958,-0.26526 -0.278791,-0.47799 -0.506428,-0.60358 -0.455291,-0.25119 -1.012133,-0.22376 -1.773038,-0.23255 h -0.0026 -3.630786 z m 10.583335,0 c -0.760905,0.009 -1.31775,-0.0187 -1.773021,0.23255 -0.227637,0.12559 -0.406847,0.33832 -0.506428,0.60358 -0.09957,0.26526 -0.135909,0.58055 -0.135909,0.97823 v 4.83795 c 0,0.39768 0.03636,0.71297 0.135909,0.97823 0.09958,0.26526 0.278791,0.47644 0.506428,0.60203 0.455271,0.25119 1.012116,0.22531 1.773021,0.2341 h 0.0026 3.630787 0.0026 c 0.760907,-0.009 1.317752,0.0171 1.773021,-0.2341 0.227639,-0.12559 0.406855,-0.33677 0.506428,-0.60203 0.09921,-0.26526 0.135909,-0.58055 0.135909,-0.97823 v -4.83795 c 0,-0.39768 -0.03636,-0.71297 -0.135909,-0.97823 -0.09958,-0.26526 -0.278791,-0.47799 -0.506428,-0.60358 -0.455271,-0.25119 -1.012116,-0.22376 -1.773021,-0.23255 h -0.0026 -3.630787 z m 10.583334,0 c -0.760907,0.009 -1.317752,-0.0187 -1.773023,0.23255 -0.227637,0.12559 -0.406847,0.33832 -0.506426,0.60358 -0.09957,0.26526 -0.13591,0.58055 -0.13591,0.97823 v 4.83795 c 0,0.39768 0.03636,0.71297 0.13591,0.97823 0.09958,0.26526 0.278789,0.47644 0.506426,0.60203 0.455271,0.25119 1.012116,0.22531 1.773023,0.2341 h 0.0026 3.630787 0.0026 c 0.760907,-0.009 1.317752,0.0171 1.773021,-0.2341 0.227639,-0.12559 0.406855,-0.33677 0.506428,-0.60203 0.09921,-0.26526 0.135908,-0.58055 0.135908,-0.97823 v -4.83795 c 0,-0.39768 -0.03636,-0.71297 -0.135908,-0.97823 -0.09958,-0.26526 -0.278792,-0.47799 -0.506428,-0.60358 -0.455272,-0.25119 -1.012116,-0.22376 -1.773021,-0.23255 h -0.0026 -3.630787 z m 10.583331,0 c -0.760905,0.009 -1.317747,-0.0187 -1.773018,0.23255 -0.227637,0.12559 -0.40685,0.33832 -0.506431,0.60358 -0.09957,0.26526 -0.135906,0.58055 -0.135906,0.97823 v 4.83795 c 0,0.39768 0.03636,0.71297 0.135906,0.97823 0.09958,0.26526 0.278794,0.47644 0.506431,0.60203 0.455271,0.25119 1.012113,0.22531 1.773018,0.2341 h 0.0026 3.630787 0.0026 c 0.760907,-0.009 1.317752,0.0171 1.773018,-0.2341 0.227642,-0.12559 0.406857,-0.33677 0.506431,-0.60203 0.09921,-0.26526 0.135908,-0.58055 0.135908,-0.97823 v -4.83795 c 0,-0.39768 -0.03636,-0.71297 -0.135908,-0.97823 -0.09958,-0.26526 -0.278792,-0.47799 -0.506431,-0.60358 -0.455269,-0.25119 -1.012114,-0.22376 -1.773018,-0.23255 h -0.0026 -3.630787 z M 9.0299403,268.19813 c -0.7609041,0.009 -1.3177475,-0.0187 -1.7730185,0.23255 -0.2276383,0.1256 -0.4068488,0.33832 -0.5064289,0.60358 -0.099574,0.26526 -0.135909,0.58055 -0.135909,0.97823 v 4.83795 c 0,0.39769 0.036359,0.71297 0.135909,0.97824 0.09958,0.26526 0.2787906,0.47643 0.5064289,0.60203 0.455271,0.25118 1.0121144,0.2253 1.7730185,0.23409 h 0.00259 3.6307857 0.0026 c 0.760907,-0.009 1.31775,0.0171 1.773018,-0.23409 0.227641,-0.1256 0.406857,-0.33677 0.50643,-0.60203 0.0992,-0.26527 0.135891,-0.58055 0.135891,-0.97824 v -4.83795 c 0,-0.39768 -0.03636,-0.71297 -0.135909,-0.97823 -0.09958,-0.26526 -0.278792,-0.47798 -0.50643,-0.60358 -0.455271,-0.25119 -1.012114,-0.22375 -1.773018,-0.23255 h -0.0026 -3.6307857 z m 10.5833337,0 c -0.760904,0.009 -1.317749,-0.0187 -1.773019,0.23255 -0.227637,0.1256 -0.406848,0.33832 -0.506429,0.60358 -0.09957,0.26526 -0.135909,0.58055 -0.135909,0.97823 v 4.83795 c 0,0.39769 0.03636,0.71297 0.135909,0.97824 0.09958,0.26526 0.278792,0.47643 0.506429,0.60203 0.45527,0.25118 1.012115,0.2253 1.773019,0.23409 h 0.0026 24.797453 0.0026 c 0.760908,-0.009 1.317752,0.0171 1.773021,-0.23409 0.22764,-0.1256 0.406855,-0.33677 0.506426,-0.60203 0.09921,-0.26527 0.135911,-0.58055 0.135911,-0.97824 v -4.83795 c 0,-0.39768 -0.03636,-0.71297 -0.135911,-0.97823 -0.09958,-0.26526 -0.278789,-0.47798 -0.506426,-0.60358 -0.455271,-0.25119 -1.012116,-0.22375 -1.773021,-0.23255 h -0.0026 -24.797453 z m 31.749999,0 c -0.760902,0.009 -1.317747,-0.0187 -1.773018,0.23255 -0.227637,0.1256 -0.40685,0.33832 -0.506431,0.60358 -0.09957,0.26526 -0.135906,0.58055 -0.135906,0.97823 v 4.83795 c 0,0.39769 0.03636,0.71297 0.135906,0.97824 0.09958,0.26526 0.278794,0.47643 0.506431,0.60203 0.455271,0.25118 1.012116,0.2253 1.773018,0.23409 h 0.0026 3.630787 0.0026 c 0.760907,-0.009 1.317752,0.0171 1.773018,-0.23409 0.227642,-0.1256 0.406857,-0.33677 0.506431,-0.60203 0.09921,-0.26527 0.135905,-0.58055 0.135905,-0.97824 v -4.83795 c 0,-0.39768 -0.03636,-0.71297 -0.135905,-0.97823 -0.09958,-0.26526 -0.278794,-0.47798 -0.506431,-0.60358 -0.455269,-0.25119 -1.012114,-0.22375 -1.773018,-0.23255 h -0.0026 -3.630787 z"/>
   <path style="opacity:0.4;fill:#ffffff" d="m 9.0299403,247.03147 c -0.7609051,0.009 -1.3177475,-0.0187 -1.7730185,0.23254 -0.2276383,0.1256 -0.4068488,0.33832 -0.5064289,0.60358 -0.099574,0.26526 -0.135909,0.58055 -0.135909,0.97824 v 0.52916 c 0,-0.39768 0.036335,-0.71297 0.135909,-0.97823 0.09958,-0.26526 0.2787906,-0.47798 0.5064289,-0.60358 0.455271,-0.2512 1.0121134,-0.22379 1.7730185,-0.23255 h 0.00259 3.6307857 0.0026 c 0.760905,0.009 1.317747,-0.0187 1.773018,0.23255 0.227639,0.1256 0.406856,0.33832 0.50643,0.60358 0.09953,0.26526 0.135891,0.58055 0.135891,0.97823 v -0.52916 c 0,-0.39769 -0.03636,-0.71298 -0.135909,-0.97824 -0.09956,-0.26526 -0.278777,-0.47798 -0.506416,-0.60358 -0.455271,-0.25119 -1.012113,-0.22375 -1.773018,-0.23254 h -0.0026 -3.6307856 z m 10.5833337,0 c -0.760904,0.009 -1.317749,-0.0187 -1.773019,0.23254 -0.227638,0.1256 -0.406849,0.33832 -0.506429,0.60358 -0.09957,0.26526 -0.135909,0.58055 -0.135909,0.97824 v 0.52916 c 0,-0.39768 0.03633,-0.71297 0.135909,-0.97823 0.09958,-0.26526 0.278791,-0.47798 0.506429,-0.60358 0.45527,-0.2512 1.012115,-0.22379 1.773019,-0.23255 h 0.0026 3.630787 0.0026 c 0.760906,0.009 1.317749,-0.0187 1.773021,0.23255 0.227637,0.1256 0.406852,0.33832 0.506429,0.60358 0.09955,0.26526 0.135908,0.58055 0.135908,0.97823 v -0.52916 c 0,-0.39769 -0.03636,-0.71298 -0.135908,-0.97824 -0.09957,-0.26526 -0.278778,-0.47798 -0.506415,-0.60358 -0.455272,-0.25119 -1.012116,-0.22375 -1.773021,-0.23254 h -0.0026 -3.630787 z m 10.583333,0 c -0.760904,0.009 -1.317749,-0.0187 -1.77302,0.23254 -0.227637,0.1256 -0.406847,0.33832 -0.506429,0.60358 -0.09957,0.26526 -0.135908,0.58055 -0.135908,0.97824 v 0.52916 c 0,-0.39768 0.03634,-0.71297 0.135908,-0.97823 0.09958,-0.26526 0.278792,-0.47798 0.506429,-0.60358 0.455271,-0.2512 1.012116,-0.22379 1.77302,-0.23255 h 0.0026 3.630786 0.0026 c 0.760905,0.009 1.317749,-0.0187 1.773021,0.23255 0.227637,0.1256 0.406852,0.33832 0.506428,0.60358 0.09955,0.26526 0.135908,0.58055 0.135908,0.97823 v -0.52916 c 0,-0.39769 -0.03636,-0.71298 -0.135908,-0.97824 -0.09958,-0.26526 -0.278791,-0.47798 -0.506428,-0.60358 -0.455272,-0.25119 -1.012116,-0.22375 -1.773021,-0.23254 h -0.0026 -3.630786 z m 10.583335,0 c -0.760907,0.009 -1.317752,-0.0187 -1.773023,0.23254 -0.227637,0.1256 -0.406847,0.33832 -0.506426,0.60358 -0.09957,0.26526 -0.135911,0.58055 -0.135911,0.97824 v 0.52916 c 0,-0.39768 0.03634,-0.71297 0.135911,-0.97823 0.09958,-0.26526 0.278789,-0.47798 0.506426,-0.60358 0.455271,-0.2512 1.012116,-0.22379 1.773023,-0.23255 h 0.0026 3.630787 0.0026 c 0.760905,0.009 1.317749,-0.0187 1.773021,0.23255 0.227636,0.1256 0.406852,0.33832 0.506425,0.60358 0.09955,0.26526 0.135911,0.58055 0.135911,0.97823 v -0.52916 c 0,-0.39769 -0.03636,-0.71298 -0.135911,-0.97824 -0.09958,-0.26526 -0.278789,-0.47798 -0.506425,-0.60358 -0.455272,-0.25119 -1.012116,-0.22375 -1.773021,-0.23254 h -0.0026 -3.630787 z m 10.583331,0 c -0.760902,0.009 -1.317747,-0.0187 -1.773018,0.23254 -0.227637,0.1256 -0.40685,0.33832 -0.506431,0.60358 -0.09957,0.26526 -0.135906,0.58055 -0.135906,0.97824 v 0.52916 c 0,-0.39768 0.03634,-0.71297 0.135906,-0.97823 0.09958,-0.26526 0.278794,-0.47798 0.506431,-0.60358 0.455271,-0.2512 1.012116,-0.22379 1.773018,-0.23255 h 0.0026 3.630787 0.0026 c 0.760904,0.009 1.317749,-0.0187 1.773018,0.23255 0.227637,0.1256 0.406855,0.33832 0.506431,0.60358 0.09955,0.26526 0.135905,0.58055 0.135905,0.97823 v -0.52916 c 0,-0.39769 -0.03636,-0.71298 -0.135905,-0.97824 -0.09958,-0.26526 -0.278794,-0.47798 -0.506431,-0.60358 -0.455269,-0.25119 -1.012114,-0.22375 -1.773018,-0.23254 h -0.0026 -3.630787 z m -38.1,10.58333 c -0.760904,0.009 -1.317747,-0.0187 -1.773018,0.23255 -0.227638,0.12559 -0.406849,0.33832 -0.506429,0.60358 -0.09957,0.26526 -0.135909,0.58055 -0.135909,0.97823 v 0.52917 c 0,-0.39769 0.03634,-0.71298 0.135909,-0.97824 0.09958,-0.26526 0.278791,-0.47798 0.506429,-0.60358 0.455271,-0.2512 1.012114,-0.22378 1.773018,-0.23254 h 0.0026 3.630786 0.0026 c 0.760905,0.009 1.317728,-0.0187 1.77302,0.23254 0.227637,0.1256 0.406852,0.33832 0.506428,0.60358 0.09955,0.26526 0.135909,0.58055 0.135909,0.97824 v -0.52917 c 0,-0.39768 -0.03636,-0.71297 -0.135909,-0.97823 -0.09958,-0.26526 -0.278791,-0.47799 -0.506428,-0.60358 -0.455292,-0.25119 -1.012133,-0.22376 -1.773038,-0.23255 h -0.0026 -3.630786 z m 10.583335,0 c -0.760905,0.009 -1.31775,-0.0187 -1.773021,0.23255 -0.227637,0.12559 -0.406847,0.33832 -0.506428,0.60358 -0.09957,0.26526 -0.135909,0.58055 -0.135909,0.97823 v 0.52917 c 0,-0.39769 0.03634,-0.71298 0.135909,-0.97824 0.09958,-0.26526 0.278791,-0.47798 0.506428,-0.60358 0.455271,-0.2512 1.012116,-0.22378 1.773021,-0.23254 h 0.0026 3.630787 0.0026 c 0.760905,0.009 1.31775,-0.0187 1.773021,0.23254 0.227637,0.1256 0.406852,0.33832 0.506428,0.60358 0.09955,0.26526 0.135909,0.58055 0.135909,0.97824 v -0.52917 c 0,-0.39768 -0.03636,-0.71297 -0.135909,-0.97823 -0.09958,-0.26526 -0.278791,-0.47799 -0.506428,-0.60358 -0.455271,-0.25119 -1.012116,-0.22376 -1.773021,-0.23255 h -0.0026 -3.630787 z m 10.583334,0 c -0.760907,0.009 -1.317752,-0.0187 -1.773023,0.23255 -0.227637,0.12559 -0.406847,0.33832 -0.506426,0.60358 -0.09957,0.26526 -0.13591,0.58055 -0.13591,0.97823 v 0.52917 c 0,-0.39769 0.03634,-0.71298 0.13591,-0.97824 0.09958,-0.26526 0.278789,-0.47798 0.506426,-0.60358 0.455271,-0.2512 1.012116,-0.22378 1.773023,-0.23254 h 0.0026 3.630787 0.0026 c 0.760905,0.009 1.317749,-0.0187 1.773021,0.23254 0.227636,0.1256 0.406852,0.33832 0.506428,0.60358 0.09955,0.26526 0.135908,0.58055 0.135908,0.97824 v -0.52917 c 0,-0.39768 -0.03636,-0.71297 -0.135908,-0.97823 -0.09958,-0.26526 -0.278792,-0.47799 -0.506428,-0.60358 -0.455272,-0.25119 -1.012116,-0.22376 -1.773021,-0.23255 h -0.0026 -3.630787 z m 10.583331,0 c -0.760905,0.009 -1.317747,-0.0187 -1.773018,0.23255 -0.227637,0.12559 -0.40685,0.33832 -0.506431,0.60358 -0.09957,0.26526 -0.135906,0.58055 -0.135906,0.97823 v 0.52917 c 0,-0.39769 0.03634,-0.71298 0.135906,-0.97824 0.09958,-0.26526 0.278794,-0.47798 0.506431,-0.60358 0.455271,-0.2512 1.012113,-0.22378 1.773018,-0.23254 h 0.0026 3.630787 0.0026 c 0.760904,0.009 1.317749,-0.0187 1.773018,0.23254 0.227639,0.1256 0.406855,0.33832 0.506431,0.60358 0.09955,0.26526 0.135908,0.58055 0.135908,0.97824 v -0.52917 c 0,-0.39768 -0.03636,-0.71297 -0.135908,-0.97823 -0.09958,-0.26526 -0.278792,-0.47799 -0.506431,-0.60358 -0.455269,-0.25119 -1.012114,-0.22376 -1.773018,-0.23255 h -0.0026 -3.630787 z M 9.0299403,268.19813 c -0.7609041,0.009 -1.3177475,-0.0187 -1.7730185,0.23255 -0.2276383,0.1256 -0.4068488,0.33832 -0.5064289,0.60358 -0.099574,0.26526 -0.135909,0.58055 -0.135909,0.97823 v 0.52917 c 0,-0.39768 0.036335,-0.71297 0.135909,-0.97823 0.09958,-0.26526 0.2787906,-0.47799 0.5064289,-0.60358 0.455271,-0.2512 1.0121144,-0.22379 1.7730185,-0.23255 h 0.00259 3.6307857 0.0026 c 0.760904,0.009 1.317747,-0.0186 1.773018,0.23255 0.227638,0.12559 0.406854,0.33832 0.50643,0.60358 0.09953,0.26526 0.135891,0.58055 0.135891,0.97823 v -0.52917 c 0,-0.39768 -0.03636,-0.71297 -0.135909,-0.97823 -0.09958,-0.26526 -0.278792,-0.47798 -0.50643,-0.60358 -0.455271,-0.25119 -1.012114,-0.22375 -1.773018,-0.23255 h -0.0026 -3.6307857 z m 10.5833337,0 c -0.760904,0.009 -1.317749,-0.0187 -1.773019,0.23255 -0.227637,0.1256 -0.406848,0.33832 -0.506429,0.60358 -0.09957,0.26526 -0.135909,0.58055 -0.135909,0.97823 v 0.52917 c 0,-0.39768 0.03634,-0.71297 0.135909,-0.97823 0.09958,-0.26526 0.278792,-0.47799 0.506429,-0.60358 0.45527,-0.2512 1.012115,-0.22379 1.773019,-0.23255 h 0.0026 24.797453 0.0026 c 0.760905,0.009 1.31775,-0.0186 1.773021,0.23255 0.227637,0.12559 0.406852,0.33832 0.506426,0.60358 0.09955,0.26526 0.135911,0.58055 0.135911,0.97823 v -0.52917 c 0,-0.39768 -0.03636,-0.71297 -0.135911,-0.97823 -0.09958,-0.26526 -0.278789,-0.47798 -0.506426,-0.60358 -0.455271,-0.25119 -1.012116,-0.22375 -1.773021,-0.23255 h -0.0026 -24.797453 z m 31.749999,0 c -0.760902,0.009 -1.317747,-0.0187 -1.773018,0.23255 -0.227637,0.1256 -0.40685,0.33832 -0.506431,0.60358 -0.09957,0.26526 -0.135906,0.58055 -0.135906,0.97823 v 0.52917 c 0,-0.39768 0.03634,-0.71297 0.135906,-0.97823 0.09958,-0.26526 0.278794,-0.47799 0.506431,-0.60358 0.455271,-0.2512 1.012116,-0.22379 1.773018,-0.23255 h 0.0026 3.630787 0.0026 c 0.760904,0.009 1.317749,-0.0186 1.773018,0.23255 0.227637,0.12559 0.406855,0.33832 0.506431,0.60358 0.09955,0.26526 0.135905,0.58055 0.135905,0.97823 v -0.52917 c 0,-0.39768 -0.03636,-0.71297 -0.135905,-0.97823 -0.09958,-0.26526 -0.278794,-0.47798 -0.506431,-0.60358 -0.455269,-0.25119 -1.012114,-0.22375 -1.773018,-0.23255 h -0.0026 -3.630787 z"/>
   <g transform="matrix(0.26458333,0,0,0.26458333,-8.2020823,220.57313)" style="opacity:0.2;enable-background:new">
    <text x="71.3" y="120.86" xml:space="preserve" style="font-size:40px;line-height:1000%;text-align:center;letter-spacing:0px;word-spacing:0px;text-anchor:middle">
     <tspan style="font-size:16px;font-family:Ubuntu;text-align:center;text-anchor:middle" x="71.3" y="120.86">Q</tspan>
    </text>
    <text style="font-size:40px;line-height:1000%;text-align:center;letter-spacing:0px;word-spacing:0px;text-anchor:middle" x="111.3" y="120.86" xml:space="preserve">
     <tspan x="111.3" y="120.86" style="font-size:16px;font-family:Ubuntu;text-align:center;text-anchor:middle">W</tspan>
    </text>
    <text x="151.3" y="120.86" xml:space="preserve" style="font-size:40px;line-height:1000%;text-align:center;letter-spacing:0px;word-spacing:0px;text-anchor:middle">
     <tspan style="font-size:16px;font-family:Ubuntu;text-align:center;text-anchor:middle" x="151.3" y="120.86">E</tspan>
    </text>
    <text style="font-size:40px;line-height:1000%;text-align:center;letter-spacing:0px;word-spacing:0px;text-anchor:middle" x="191.3" y="120.86" xml:space="preserve">
     <tspan x="191.3" y="120.86" style="font-size:16px;font-family:Ubuntu;text-align:center;text-anchor:middle">R</tspan>
    </text>
    <text x="231.3" y="120.86" xml:space="preserve" style="font-size:40px;line-height:1000%;text-align:center;letter-spacing:0px;word-spacing:0px;text-anchor:middle">
     <tspan style="font-size:16px;font-family:Ubuntu;text-align:center;text-anchor:middle" x="231.3" y="120.86">T</tspan>
    </text>
    <text x="87.3" y="160.86" xml:space="preserve" style="font-size:40px;line-height:1000%;text-align:center;letter-spacing:0px;word-spacing:0px;text-anchor:middle">
     <tspan style="font-size:16px;font-family:Ubuntu;text-align:center;text-anchor:middle" x="87.3" y="160.86">A</tspan>
    </text>
    <text style="font-size:40px;line-height:1000%;text-align:center;letter-spacing:0px;word-spacing:0px;text-anchor:middle" x="127.3" y="160.86" xml:space="preserve">
     <tspan x="127.3" y="160.86" style="font-size:16px;font-family:Ubuntu;text-align:center;text-anchor:middle">S</tspan>
    </text>
    <text x="167.3" y="160.86" xml:space="preserve" style="font-size:40px;line-height:1000%;text-align:center;letter-spacing:0px;word-spacing:0px;text-anchor:middle">
     <tspan style="font-size:16px;font-family:Ubuntu;text-align:center;text-anchor:middle" x="167.3" y="160.86">D</tspan>
    </text>
    <text style="font-size:40px;line-height:1000%;text-align:center;letter-spacing:0px;word-spacing:0px;text-anchor:middle" x="207.3" y="160.86" xml:space="preserve">
     <tspan x="207.3" y="160.86" style="font-size:16px;font-family:Ubuntu;text-align:center;text-anchor:middle">F</tspan>
    </text>
    <text style="font-size:40px;line-height:1000%;text-align:center;letter-spacing:0px;word-spacing:0px;text-anchor:middle" x="71.3" y="200.86" xml:space="preserve">
     <tspan x="71.3" y="200.86" style="font-size:16px;font-family:Ubuntu;text-align:center;text-anchor:middle">.</tspan>
    </text>
    <text style="font-size:40px;line-height:1000%;text-align:center;letter-spacing:0px;word-spacing:0px;text-anchor:middle" x="231.3" y="200.86" xml:space="preserve">
     <tspan x="231.3" y="200.86" style="font-size:16px;font-family:Ubuntu;text-align:center;text-anchor:middle">/</tspan>
    </text>
   </g>
  </g>
 </g>
</svg>
