<svg xmlns="http://www.w3.org/2000/svg" xmlns:xlink="http://www.w3.org/1999/xlink" width="256" height="256" version="1.1" viewBox="0 0 67.73 67.73">
 <defs>
  <linearGradient id="linearGradient1108" x1="296" x2="296" y1="-212" y2="236" gradientUnits="userSpaceOnUse">
   <stop style="stop-color:#ffffff" offset="0"/>
   <stop style="stop-color:#ffffff;stop-opacity:.09803922" offset=".125"/>
   <stop style="stop-color:#000000;stop-opacity:.09803922" offset=".925"/>
   <stop style="stop-color:#000000;stop-opacity:.49803922" offset="1"/>
  </linearGradient>
  <clipPath id="clipPath1082-3-27">
   <path d="M 361.9375,-212 C 507.2348,-212 528,-191.28677 528,-46.125 V 70.125 C 528,215.28618 507.2348,236 361.9375,236 H 214.0625 C 68.7652,236 48,215.28618 48,70.125 V -46.125 C 48,-191.28677 68.7652,-212 214.0625,-212 Z" style="fill:#8c59d9"/>
  </clipPath>
  <linearGradient id="linearGradient1044" x1="88" x2="256" y1="28" y2="284" gradientTransform="matrix(.26458333 0 0 .26458333 -6.993468 221.97263)" gradientUnits="userSpaceOnUse">
   <stop style="stop-color:#e8e8e8" offset="0"/>
   <stop style="stop-color:#f5f5f5" offset="1"/>
  </linearGradient>
  <filter id="filter4569" width="1.023" height="1.025" x="-.01" y="-.01" style="color-interpolation-filters:sRGB">
   <feGaussianBlur stdDeviation="1.16"/>
  </filter>
  <filter id="filter939" width="1.046" height="1.05" x="-.02" y="-.03" style="color-interpolation-filters:sRGB">
   <feGaussianBlur stdDeviation="2.32"/>
  </filter>
  <linearGradient id="linearGradient1007" x1="624" x2="688" y1="369.239" y2="369.239" gradientUnits="userSpaceOnUse" xlink:href="#linearGradient4336-3"/>
  <linearGradient id="linearGradient4336-3">
   <stop style="stop-color:#5884f4" offset="0"/>
   <stop style="stop-color:#5884f4" offset=".278"/>
   <stop style="stop-color:#2f5fdd" offset=".278"/>
   <stop style="stop-color:#2f5fdd" offset=".707"/>
   <stop style="stop-color:#234db8" offset=".709"/>
   <stop style="stop-color:#234db8" offset="1"/>
  </linearGradient>
 </defs>
 <g transform="translate(0,-229.26666)">
  <path d="m162.53675 5.5680001c72.64865 0 83.03125 10.356615 83.03125 82.937505v58.125005c0 72.58059-10.3826 82.9375-83.03125 82.9375h-73.937496c-72.648654 0-83.031254-10.35691-83.031254-82.9375v-58.125005c0-72.58089 10.3826-82.937505 83.031254-82.937505z" transform="matrix(.26458333 0 0 .26458333 -1.8735233e-8 232.67026)" style="filter:url(#filter939);opacity:.2"/>
  <path d="m162.53675 3.5680001c72.64865 0 83.03125 10.356615 83.03125 82.937505v58.125005c0 72.58059-10.3826 82.9375-83.03125 82.9375h-73.937496c-72.648654 0-83.031254-10.35691-83.031254-82.9375v-58.125005c0-72.58089 10.3826-82.937505 83.031254-82.937505z" transform="matrix(.26458333 0 0 .26458333 -1.8735233e-8 232.67026)" style="filter:url(#filter4569);opacity:.1"/>
  <path d="m43.004513 233.61429c19.221622 0 21.968685 2.74019 21.968685 21.94388v15.37891c0 19.20362-2.747063 21.94388-21.968685 21.94388h-19.56263c-19.221622 0-21.968684-2.74026-21.968684-21.94388v-15.37891c0-19.20369 2.747062-21.94388 21.968684-21.94388z" style="fill:url(#linearGradient1044)"/>
  <g transform="translate(-.025135 .12788)">
   <path d="m33.248334 233.48641v59.26667h9.781317c19.221619 0 21.968682-2.74026 21.968682-21.94388v-15.37891c0-19.20369-2.747063-21.94388-21.968682-21.94388z" style="fill:#ffffff;opacity:.2"/>
   <path d="m64.998333 272.90778-20.089214 19.8453c16.851934-0.18394 19.879386-3.13516 20.089214-19.8453z" style="fill:#ffffff;opacity:.8"/>
   <path style="fill:#a90000" d="m 27.0962,242.89826 v 6.12986 h 5.242092 l 0.02682,11.45208 h 3.224291 l -0.02651,-11.45208 H 40.6598 v -6.12986 z m -15.01453,8.57982 v 6.12955 h 7.359151 l 9.247488,8.83967 2.230186,-2.3205 -6.820022,-6.51917 h 1.546796 v -6.12955 z m 27.57601,10.02675 -2.229878,2.3205 9.611839,9.20957 h -2.130622 v 5.61384 h 11.301355 v -5.61384 h -4.519247 z m -1.928719,6.50961 -3.133973,0.78357 3.098217,12.84723 h -4.264942 v 5.61384 h 11.301355 v -5.61384 h -3.719956 z"/>
   <g transform="matrix(0.1118806,0.1118806,-0.12134311,0.12134311,-7.1600242,159.51173)" style="enable-background:new">
    <path d="m 688.00003,319.35584 -32,81.13762 -31.99999,-81.13762 v -11.06422 h 63.99999 z" style="fill:#fee1c2"/>
    <path d="m 645.81253,374.67694 10.1875,25.81651 10.1875,-25.81651 c 0,0 0.77644,-2.76606 -1.20553,-2.76606 -1.98197,0 -3.94669,3.68807 -3.94669,3.68807 0,0 -1.03528,-4.61009 -5.01377,-4.61009 -3.9785,0 -5.01378,4.61009 -5.01378,4.61009 0,0 -2.00773,-3.68807 -4.00773,-3.68807 -2,0 -1.1875,2.76606 -1.1875,2.76606 z" style="fill:#5d5d5d"/>
    <path d="m 624.00004,319.35583 c 0,-7.37615 17.99999,-3.68808 17.99999,7.37614 0,-18.44036 28,-18.44036 28,0 0,-11.06422 18,-14.75229 18,-7.37614 V 133.45602 h -63.99999 z" style="fill:url(#linearGradient1007)"/>
   </g>
  </g>
  <path d="M 361.9375,-212 C 507.2348,-212 528,-191.28677 528,-46.125 V 70.125 C 528,215.28618 507.2348,236 361.9375,236 H 214.0625 C 68.7652,236 48,215.28618 48,70.125 V -46.125 C 48,-191.28677 68.7652,-212 214.0625,-212 Z" clip-path="url(#clipPath1082-3-27)" transform="matrix(.13229167 0 0 .13229167 -4.876801 261.66013)" style="fill:none;opacity:.4;stroke-linecap:round;stroke-linejoin:round;stroke-width:8;stroke:url(#linearGradient1108)"/>
 </g>
</svg>
