<?xml version="1.0" encoding="UTF-8" standalone="no"?>
<svg
   xmlns:dc="http://purl.org/dc/elements/1.1/"
   xmlns:cc="http://creativecommons.org/ns#"
   xmlns:rdf="http://www.w3.org/1999/02/22-rdf-syntax-ns#"
   xmlns:svg="http://www.w3.org/2000/svg"
   xmlns="http://www.w3.org/2000/svg"
   xmlns:sodipodi="http://sodipodi.sourceforge.net/DTD/sodipodi-0.dtd"
   xmlns:inkscape="http://www.inkscape.org/namespaces/inkscape"
   height="16"
   width="16"
   version="1.1"
   id="svg2"
   sodipodi:docname="amazon-store.svg"
   inkscape:version="0.92.3 (2405546, 2018-03-11)">
  <metadata
     id="metadata9">
    <rdf:RDF>
      <cc:Work
         rdf:about="">
        <dc:format>image/svg+xml</dc:format>
        <dc:type
           rdf:resource="http://purl.org/dc/dcmitype/StillImage" />
        <dc:title />
      </cc:Work>
    </rdf:RDF>
  </metadata>
  <sodipodi:namedview
     pagecolor="#ffffff"
     bordercolor="#666666"
     borderopacity="1"
     objecttolerance="10"
     gridtolerance="10"
     guidetolerance="10"
     inkscape:pageopacity="0"
     inkscape:pageshadow="2"
     inkscape:window-width="1897"
     inkscape:window-height="1000"
     id="namedview7"
     showgrid="false"
     inkscape:zoom="51.625"
     inkscape:cx="8"
     inkscape:cy="6.5780047"
     inkscape:window-x="22"
     inkscape:window-y="43"
     inkscape:window-maximized="0"
     inkscape:current-layer="g3486" />
  <defs
     id="defs10">
    <style
       type="text/css"
       id="current-color-scheme">
   .ColorScheme-Text { color:#5c616c; } .ColorScheme-Highlight { color:#5294e2; } .ColorScheme-ButtonBackground { color:#d3dae3; }
  </style>
  </defs>
  <g
     transform="translate(-532,-220)"
     style="display:inline"
     id="g3486"
     inkscape:label="amazon-store">
    <g
       style="display:inline;fill:#808080;fill-opacity:1;stroke-width:9.61224461;enable-background:new"
       id="g932"
       transform="matrix(0.02727999,0,0,0.02727999,531.69583,217.02064)">
      <path
         id="path926"
         d="m 443.342,337.31 c 0,19.962 0.717,39.804 -0.239,59.766 -0.956,22.711 5.977,42.194 20.32,59.406 1.673,2.032 3.228,4.064 4.661,6.216 5.141,7.77 4.184,13.148 -2.868,19.125 -15.062,12.671 -30.003,25.46 -45.063,38.131 -8.965,7.53 -14.583,7.411 -23.667,0 -12.192,-9.921 -21.755,-22.113 -30.241,-35.143 -2.032,-3.107 -3.108,-2.988 -5.618,-0.598 -15.062,14.702 -30.959,28.329 -51.159,35.143 -31.198,10.638 -62.874,12.312 -94.191,1.195 -30.122,-10.758 -48.171,-32.991 -54.865,-63.949 -7.411,-34.545 -3.586,-67.416 17.69,-96.701 16.137,-22.113 38.489,-35.142 64.188,-43.15 26.536,-8.128 53.908,-11.236 81.4,-13.985 7.77,-0.837 15.42,-1.554 23.189,-2.271 1.912,-0.12 3.586,-0.359 3.466,-2.869 -0.238,-12.67 1.076,-25.58 -1.912,-38.011 -3.825,-15.897 -14.225,-25.221 -30.122,-28.688 -11.355,-2.51 -22.591,-1.793 -33.588,1.913 -16.734,5.737 -27.134,17.332 -31.317,34.544 -2.271,9.443 -6.694,12.79 -15.898,11.833 -19.603,-2.032 -39.206,-4.064 -58.689,-6.096 -8.009,-0.837 -12.192,-6.933 -10.519,-14.703 10.16,-49.605 42.673,-77.456 89.529,-90.246 35.979,-9.801 72.436,-10.399 108.534,-0.239 29.046,8.128 53.431,22.472 67.057,50.92 7.77,16.137 9.563,33.588 9.802,51.04 0.239,22.354 0,44.945 0.12,67.417 -0.12,0 0,0 0,0 z m -92.996,37.294 c 0,-5.977 -0.238,-11.953 0.12,-17.93 0.239,-3.706 -1.076,-5.021 -4.781,-4.662 -9.085,0.836 -18.288,0.956 -27.373,2.151 -15.897,2.032 -31.437,5.977 -44.346,16.017 -18.767,14.703 -22.711,34.784 -19.604,57.375 3.706,26.535 27.373,41.238 52.714,32.393 17.212,-5.977 27.73,-18.646 35.022,-34.545 7.65,-16.135 8.248,-33.467 8.248,-50.799 z"
         inkscape:connector-curvature="0"
         style="fill:#808080;fill-opacity:1;stroke-width:9.61224461" />
      <path
         id="path928"
         d="M 306.119,644.386 C 214.917,643.788 133.038,620.361 59.048,570.994 43.987,560.953 29.643,549.956 16.017,537.884 c -1.195,-1.076 -2.391,-2.151 -3.347,-3.467 -1.315,-1.793 -2.271,-3.944 -0.717,-6.096 1.554,-2.391 4.184,-2.63 6.455,-1.554 5.259,2.51 10.28,5.259 15.419,7.889 47.096,24.862 96.701,42.792 148.697,54.147 47.095,10.28 94.668,15.062 142.959,13.746 68.97,-1.912 135.429,-15.778 199.378,-41.478 3.108,-1.314 6.336,-2.629 9.563,-3.347 4.543,-0.837 9.085,-0.239 11.117,4.662 1.912,4.542 -0.598,8.128 -3.945,10.997 -2.391,2.031 -5.14,3.705 -7.889,5.498 -41.238,26.775 -86.421,43.987 -134.233,54.626 -31.557,7.174 -63.591,10.639 -93.355,10.879 z"
         inkscape:connector-curvature="0"
         style="fill:#808080;fill-opacity:1;stroke-width:9.61224461" />
      <path
         id="path930"
         d="m 536.217,537.884 c -13.746,-0.12 -27.372,1.673 -40.999,3.107 -2.63,0.239 -5.618,0.956 -6.813,-1.912 -1.434,-3.228 1.315,-5.14 3.586,-6.694 16.974,-11.235 35.979,-15.658 55.941,-16.734 13.746,-0.836 27.372,-0.238 40.76,3.825 6.096,1.793 9.084,5.379 8.965,11.595 -0.717,33.229 -11.834,62.156 -35.859,85.704 -0.837,0.837 -1.793,1.554 -2.749,2.271 -2.151,1.555 -4.781,2.988 -7.053,1.076 -2.151,-1.793 -0.956,-4.423 0,-6.574 7.053,-17.571 14.225,-35.022 17.69,-53.789 0.479,-2.391 0.598,-4.781 0.718,-7.053 0.119,-7.77 -2.63,-11.116 -10.28,-13.028 -8.009,-2.153 -16.018,-1.794 -23.907,-1.794 z"
         inkscape:connector-curvature="0"
         style="fill:#808080;fill-opacity:1;stroke-width:9.61224461" />
    </g>
  </g>
</svg>
