<?xml version="1.0" encoding="UTF-8" standalone="no"?>
<!-- Generator: Adobe Illustrator 18.0.0, SVG Export Plug-In . SVG Version: 6.00 Build 0)  -->

<svg
   xmlns:dc="http://purl.org/dc/elements/1.1/"
   xmlns:cc="http://creativecommons.org/ns#"
   xmlns:rdf="http://www.w3.org/1999/02/22-rdf-syntax-ns#"
   xmlns:svg="http://www.w3.org/2000/svg"
   xmlns="http://www.w3.org/2000/svg"
   xmlns:sodipodi="http://sodipodi.sourceforge.net/DTD/sodipodi-0.dtd"
   xmlns:inkscape="http://www.inkscape.org/namespaces/inkscape"
   version="1.1"
   id="Layer_1"
   x="0px"
   y="0px"
   viewBox="0 0 16 16"
   enable-background="new 0 0 68.6 51"
   xml:space="preserve"
   sodipodi:docname="gimp.svg"
   width="16"
   height="16"
   inkscape:version="0.92.3 (2405546, 2018-03-11)"><metadata
   id="metadata13"><rdf:RDF><cc:Work
       rdf:about=""><dc:format>image/svg+xml</dc:format><dc:type
         rdf:resource="http://purl.org/dc/dcmitype/StillImage" /><dc:title></dc:title></cc:Work></rdf:RDF></metadata><defs
   id="defs11" /><sodipodi:namedview
   pagecolor="#ffffff"
   bordercolor="#666666"
   borderopacity="1"
   objecttolerance="10"
   gridtolerance="10"
   guidetolerance="10"
   inkscape:pageopacity="0"
   inkscape:pageshadow="2"
   inkscape:window-width="1686"
   inkscape:window-height="801"
   id="namedview9"
   showgrid="false"
   inkscape:zoom="39.1875"
   inkscape:cx="8"
   inkscape:cy="8"
   inkscape:window-x="0"
   inkscape:window-y="34"
   inkscape:window-maximized="0"
   inkscape:current-layer="Layer_1" />
<g
   id="g6"
   transform="matrix(0.23323615,0,0,0.23323615,0,1.72828)"
   style="fill:#808080;fill-opacity:1">
	<path
   d="M 68.5,50.8 C 68,49.1 67.5,47.4 67,45.7 66.6,44.4 66.2,43.2 65.3,42.2 64.1,40.6 62,40.1 60.3,40.9 60.1,41 59.9,41 59.7,40.9 58.4,40.1 57.2,39.2 55.9,38.4 55.8,38.3 55.6,38.2 55.5,38.1 55.4,38 55.3,38 55.2,37.9 54.9,37.7 54.6,37.5 54.3,37.3 54.2,37.3 54,37.2 53.9,37.1 53,36.5 52,36 51.1,35.5 51,35.4 50.9,35.4 50.7,35.3 c 0.1,-0.1 0.1,-0.2 0.2,-0.3 1.6,-2.1 2.8,-4.4 3.6,-6.9 1.6,-4.4 2.2,-9 2.4,-13.7 C 57.1,10.3 56.8,6.2 56.4,2.2 56.3,1.7 56.2,1.1 56,0.7 c -0.4,-0.9 -1.5,-1 -2.1,-0.2 -0.2,0.3 -0.4,0.7 -0.5,1 -0.3,0.6 -0.5,1.2 -0.8,1.8 -1.5,3 -3.9,5.1 -6.7,6.8 -2.9,1.7 -6.1,2.7 -9.5,3.3 -0.4,0.1 -0.7,0 -1,-0.1 -2.7,-1.2 -5.3,-1.1 -7.8,0.5 C 27.3,14 27,14.1 26.5,14 26.2,13.9 25.9,13.9 25.6,13.8 22,13.1 19.2,11.1 16.9,8.3 15.8,7.1 15,5.6 14.3,4 14.2,3.8 14.1,3.6 14,3.4 c -0.1,0.1 -0.1,0.2 -0.1,0.4 -0.1,4 -0.2,8 -0.3,12.1 0,0.2 0,0.4 -0.1,0.6 -0.5,1 -0.8,2 -0.8,3 0,0.1 0,0.2 -0.1,0.4 C 12.4,19.7 12.3,19.6 12.2,19.5 10.5,18 8.6,17 6.3,16.8 3.6,16.6 1.3,18.1 0.4,20.6 0,21.7 -0.1,23 0.1,24.3 0.7,28 2.5,30.9 5.6,33 c 1.7,1.2 3.7,1.9 5.8,1.6 0.3,0 0.6,0 0.8,0.2 3.8,2.7 8,4.7 12.5,6.1 2.6,0.8 5.3,1.3 8.1,1.5 2.7,0.2 5.3,0 7.9,-0.7 1.9,-0.5 3.6,-1.2 5.3,-2.2 0.3,-0.2 0.5,-0.2 0.9,0 1.4,0.7 2.9,1.4 4.4,2 0.1,0 0.2,0.1 0.3,0.1 0.5,0.1 1,0.4 1.6,0.6 0.6,0.2 1.3,0.4 1.9,0.7 0,0 0,0 0.1,0 1,0.4 2.1,0.8 3.1,1.2 0.1,0.1 0.3,0.2 0.3,0.3 0.3,1.7 1.3,2.8 2.9,3.4 2.3,1 4.5,2 6.8,3 0.1,0 0.2,0.1 0.3,0.1 0,0 0,-0.1 -0.1,-0.1 z M 6.9,24.8 c -1,1 -2.5,1 -3.5,-0.1 C 2.8,24.1 2.5,23.3 2.5,22.4 2.5,21.5 2.8,20.7 3.4,20 4.5,18.9 6,18.9 7,20.1 8.2,21.5 8.1,23.6 6.9,24.8 Z M 24.3,19 c -1.3,-1.9 -3.1,-2.6 -4.7,-1.8 0.8,0 1.3,0.2 1.8,0.8 0.4,0.5 0.6,1.1 0.4,1.8 -0.2,1 -1.2,1.7 -2.3,1.5 -1.2,-0.2 -1.8,-1.1 -1.7,-2.5 -0.7,0.7 -0.9,2.6 0,3.9 1,1.5 3,2.2 5,1.2 -0.1,0.1 -0.1,0.1 -0.2,0.2 -1.7,1.2 -3.6,1.4 -5.5,0.5 -1.9,-1 -2.9,-2.6 -3,-4.7 -0.1,-2.9 2.3,-5.6 5.6,-5.4 2.2,0.1 3.7,1.3 4.7,3.3 0.2,0.2 -0.1,0.6 -0.1,1.2 z m 7.8,-5.1 c 3.4,0 6.4,2.9 6.3,6.4 0.1,3.4 -2.9,6.4 -6.4,6.4 -3.5,0 -6.4,-2.9 -6.4,-6.5 0,-3.6 3.1,-6.4 6.5,-6.3 z m 9.4,20.3 c -0.1,-0.2 -0.1,-0.3 -0.2,-0.5 -0.1,0.1 -0.1,0.1 -0.2,0.1 0,0 -0.1,0 -0.1,0 -1.1,0 -2.4,0.2 -2.7,1.5 -0.1,0.3 -0.4,0.3 -0.6,0.2 -2,0 -4,0.3 -6,0.1 -0.9,-0.1 -1.8,-0.3 -2.7,-0.7 -0.4,-0.2 -0.9,-0.5 -1.3,-0.7 -0.3,-0.1 -0.6,-0.2 -0.8,-0.3 0,0 -0.1,0 -0.1,0 -0.5,-0.1 -0.3,-0.8 0.2,-0.8 0,0 0,0 0,0 0,0 0.1,0 0.1,0 0.3,0.1 0.6,0.2 0.9,0.3 2.1,0.7 4.4,0.7 6.5,0.4 1.3,-0.2 2.6,-0.5 3.7,-1.1 0.5,-0.3 1.1,-0.7 1.7,-0.7 -0.3,-0.2 -0.6,-0.4 -1,-0.5 -0.5,-0.1 -0.3,-0.9 0.2,-0.8 1.3,0.3 2.6,1.6 3.1,2.9 0.2,0.9 -0.5,1.1 -0.7,0.6 z m 17.2,8.5 c 0,0 -0.1,0 -0.2,0 -1.3,-0.5 -2.6,-1 -3.9,-1.4 -0.1,0 -0.2,-0.1 -0.3,-0.1 -0.6,-0.3 -0.7,-0.6 -0.3,-1.2 0.1,-0.2 0.2,-0.3 0.3,-0.5 0.2,-0.5 0.7,-0.8 1.2,-0.7 0.6,0.1 0.9,0.6 0.9,1.2 0,0.1 0,0.1 0,0.2 1.1,0.3 2.1,0.9 3.2,1.3 -0.4,0.3 -0.6,0.8 -0.9,1.2 z m 3.5,1.4 c -0.8,0 -1.5,-0.7 -1.5,-1.5 0,-0.8 0.7,-1.5 1.5,-1.5 0.9,0 1.5,0.6 1.5,1.5 0,0.8 -0.6,1.5 -1.5,1.5 z"
   id="path2"
   inkscape:connector-curvature="0"
   style="fill:#808080;fill-opacity:1" />
	<path
   d="m 30,19.4 c 0,1.8 1.2,2.7 2.3,2.7 1.2,0 2.3,-0.9 2.4,-2.1 0.1,-1.2 -0.6,-2.5 -2.2,-2.7 1,-0.5 3.1,-0.2 4.3,1.2 1.5,1.7 1.4,4.1 -0.1,5.7 -1.5,1.6 -3.9,1.7 -5.6,0.4 -1.7,-1.3 -2,-3.6 -1.1,-5.2 z"
   id="path4"
   inkscape:connector-curvature="0"
   style="fill:#808080;fill-opacity:1" />
</g>
</svg>