<?xml version="1.0" encoding="UTF-8" standalone="no"?>
<!-- Created with Inkscape (http://www.inkscape.org/) -->

<svg
   xmlns:dc="http://purl.org/dc/elements/1.1/"
   xmlns:cc="http://creativecommons.org/ns#"
   xmlns:rdf="http://www.w3.org/1999/02/22-rdf-syntax-ns#"
   xmlns:svg="http://www.w3.org/2000/svg"
   xmlns="http://www.w3.org/2000/svg"
   xmlns:sodipodi="http://sodipodi.sourceforge.net/DTD/sodipodi-0.dtd"
   xmlns:inkscape="http://www.inkscape.org/namespaces/inkscape"
   id="svg7384"
   width="16"
   height="16"
   version="1.1"
   sodipodi:docname="face-crying.svg"
   inkscape:version="0.92.3 (2405546, 2018-03-11)">
  <defs
     id="defs9" />
  <sodipodi:namedview
     pagecolor="#ffffff"
     bordercolor="#666666"
     borderopacity="1"
     objecttolerance="10"
     gridtolerance="10"
     guidetolerance="10"
     inkscape:pageopacity="0"
     inkscape:pageshadow="2"
     inkscape:window-width="768"
     inkscape:window-height="480"
     id="namedview7"
     showgrid="false"
     inkscape:zoom="14.75"
     inkscape:cx="8"
     inkscape:cy="8"
     inkscape:window-x="0"
     inkscape:window-y="34"
     inkscape:window-maximized="0"
     inkscape:current-layer="svg7384" />
  <metadata
     id="metadata90">
    <rdf:RDF>
      <cc:Work
         rdf:about="">
        <dc:format>image/svg+xml</dc:format>
        <dc:type
           rdf:resource="http://purl.org/dc/dcmitype/StillImage" />
        <dc:title>Gnome Symbolic Icon Theme</dc:title>
      </cc:Work>
    </rdf:RDF>
  </metadata>
  <title
     id="title9167">Gnome Symbolic Icon Theme</title>
  <ellipse
     style="opacity:1;fill:#2b6cfd;fill-opacity:1;stroke:none;stroke-width:1;stroke-linecap:butt;stroke-linejoin:round;stroke-miterlimit:4;stroke-dasharray:none;stroke-dashoffset:0;stroke-opacity:1"
     id="path819"
     cx="13.559322"
     cy="8.6440678"
     rx="1.6949153"
     ry="2.2033899" />
  <g
     id="g71291"
     transform="matrix(1.1428571,0,0,1.1428571,-710.85712,-594.28569)"
     style="fill:#fdc92b;fill-opacity:1">
    <path
       id="path4824"
       d="m 629,520 c -3.866,0 -7,3.134 -7,7 0,3.866 3.134,7 7,7 3.866,0 7,-3.134 7,-7 0,-3.866 -3.134,-7 -7,-7 z m -2,4 c 0.55833,0 1.0312,0.40972 1.0312,0.875 v 0.78125 c 0,0.46528 -0.47292,0.84375 -1.0312,0.84375 -0.55828,0 -1,-0.37847 -1,-0.84375 V 524.875 c 0,-0.46528 0.44167,-0.875 1,-0.875 z m 4,0 c 0.55833,0 1,0.37848 1,0.84375 v 0.8125 c 0,0.46527 -0.44167,0.84375 -1,0.84375 -0.55833,0 -1,-0.37848 -1,-0.84375 v -0.8125 C 630,524.37848 630.44167,524 631,524 Z m 1.75,2.2812 c 1.2078,0.44874 2.0463,0.93632 2.2188,1.5625 0.17247,0.62616 -0.30586,1.2416 -0.9375,1.25 -0.51878,0.007 -0.7686,-0.2154 -0.9375,-0.875 -0.16672,-0.66017 0.0828,-1.2924 -0.34375,-1.9375 z m -3.7812,2.6875 c 2.5883,0 3.9688,0.98014 3.9688,1.5625 v 0.53125 c -0.79224,-0.69651 -3.1869,-1 -3.9688,-1 -0.78187,0 -3.0184,-0.059 -3.9688,1 v -0.53125 c 0,-0.74472 1.3804,-1.5625 3.9688,-1.5625 z"
       style="fill:#fdc92b;fill-opacity:1"
       inkscape:connector-curvature="0" />
  </g>
</svg>
